M48
; DRILL file {KiCad 9.0.1+dfsg-1} date 2025-05-01T11:01:51+0200
; FORMAT={-:-/ absolute / metric / decimal}
; #@! TF.CreationDate,2025-05-01T11:01:51+02:00
; #@! TF.GenerationSoftware,Kicad,Pcbnew,9.0.1+dfsg-1
; #@! TF.FileFunction,Plated,1,2,PTH
FMAT,2
METRIC
; #@! TA.AperFunction,Plated,PTH,ViaDrill
T1C0.300
; #@! TA.AperFunction,Plated,PTH,ComponentDrill
T2C0.750
; #@! TA.AperFunction,Plated,PTH,ComponentDrill
T3C1.500
%
G90
G05
T1
X54.25Y-36.01
X54.48Y-41.13
X55.08Y-47.02
X55.68Y-42.84
X57.27Y-36.33
X57.43Y-42.865
X59.33Y-40.04
X60.89Y-44.54
X61.595Y-39.37
X61.595Y-40.64
X62.23Y-40.005
X62.865Y-39.37
X62.865Y-40.64
X63.29Y-43.54
X64.13Y-35.12
X64.22Y-44.03
X65.08Y-39.55
X65.15Y-45.57
X65.39Y-40.41
X66.04Y-38.1
X66.07Y-42.25
X68.69Y-42.19
X69.58Y-46.2
X69.85Y-36.195
X71.81Y-34.55
X72.2Y-35.36
X72.45Y-46.56
X73.025Y-39.37
X73.66Y-42.545
X74.9Y-35.86
X76.35Y-45.53
T2
X50.8Y-34.615
X50.8Y-46.955
X53.34Y-34.615
X53.34Y-46.955
X71.12Y-46.955
X73.66Y-34.615
X76.2Y-34.615
X76.2Y-46.955
T3
G00X50.8Y-33.165
M15
G01X50.8Y-32.665
M16
G05
G00X50.8Y-48.905
M15
G01X50.8Y-48.405
M16
G05
G00X53.34Y-33.165
M15
G01X53.34Y-32.665
M16
G05
G00X53.34Y-48.905
M15
G01X53.34Y-48.405
M16
G05
G00X71.12Y-48.905
M15
G01X71.12Y-48.405
M16
G05
G00X73.66Y-33.165
M15
G01X73.66Y-32.665
M16
G05
G00X76.2Y-33.165
M15
G01X76.2Y-32.665
M16
G05
G00X76.2Y-48.905
M15
G01X76.2Y-48.405
M16
G05
M30
