%TF.GenerationSoftware,KiCad,Pcbnew,9.0.1+dfsg-1*%
%TF.CreationDate,2025-05-01T11:01:48+02:00*%
%TF.ProjectId,high-efficiency_dc-dc_converter,68696768-2d65-4666-9669-6369656e6379,rev?*%
%TF.SameCoordinates,Original*%
%TF.FileFunction,Legend,Top*%
%TF.FilePolarity,Positive*%
%FSLAX46Y46*%
G04 Gerber Fmt 4.6, Leading zero omitted, Abs format (unit mm)*
G04 Created by KiCad (PCBNEW 9.0.1+dfsg-1) date 2025-05-01 11:01:48*
%MOMM*%
%LPD*%
G01*
G04 APERTURE LIST*
%ADD10C,0.100000*%
%ADD11C,0.150000*%
%ADD12C,0.120000*%
%ADD13C,0.127000*%
%ADD14C,0.200000*%
G04 APERTURE END LIST*
D10*
X53212419Y-44146115D02*
X52545752Y-44146115D01*
X52736228Y-44146115D02*
X52640990Y-44098496D01*
X52640990Y-44098496D02*
X52593371Y-44050877D01*
X52593371Y-44050877D02*
X52545752Y-43955639D01*
X52545752Y-43955639D02*
X52545752Y-43860401D01*
X52307657Y-43574686D02*
X52260038Y-43527067D01*
X52260038Y-43527067D02*
X52212419Y-43431829D01*
X52212419Y-43431829D02*
X52212419Y-43193734D01*
X52212419Y-43193734D02*
X52260038Y-43098496D01*
X52260038Y-43098496D02*
X52307657Y-43050877D01*
X52307657Y-43050877D02*
X52402895Y-43003258D01*
X52402895Y-43003258D02*
X52498133Y-43003258D01*
X52498133Y-43003258D02*
X52640990Y-43050877D01*
X52640990Y-43050877D02*
X53212419Y-43622305D01*
X53212419Y-43622305D02*
X53212419Y-43003258D01*
X52212419Y-42384210D02*
X52212419Y-42288972D01*
X52212419Y-42288972D02*
X52260038Y-42193734D01*
X52260038Y-42193734D02*
X52307657Y-42146115D01*
X52307657Y-42146115D02*
X52402895Y-42098496D01*
X52402895Y-42098496D02*
X52593371Y-42050877D01*
X52593371Y-42050877D02*
X52831466Y-42050877D01*
X52831466Y-42050877D02*
X53021942Y-42098496D01*
X53021942Y-42098496D02*
X53117180Y-42146115D01*
X53117180Y-42146115D02*
X53164800Y-42193734D01*
X53164800Y-42193734D02*
X53212419Y-42288972D01*
X53212419Y-42288972D02*
X53212419Y-42384210D01*
X53212419Y-42384210D02*
X53164800Y-42479448D01*
X53164800Y-42479448D02*
X53117180Y-42527067D01*
X53117180Y-42527067D02*
X53021942Y-42574686D01*
X53021942Y-42574686D02*
X52831466Y-42622305D01*
X52831466Y-42622305D02*
X52593371Y-42622305D01*
X52593371Y-42622305D02*
X52402895Y-42574686D01*
X52402895Y-42574686D02*
X52307657Y-42527067D01*
X52307657Y-42527067D02*
X52260038Y-42479448D01*
X52260038Y-42479448D02*
X52212419Y-42384210D01*
X52307657Y-41669924D02*
X52260038Y-41622305D01*
X52260038Y-41622305D02*
X52212419Y-41527067D01*
X52212419Y-41527067D02*
X52212419Y-41288972D01*
X52212419Y-41288972D02*
X52260038Y-41193734D01*
X52260038Y-41193734D02*
X52307657Y-41146115D01*
X52307657Y-41146115D02*
X52402895Y-41098496D01*
X52402895Y-41098496D02*
X52498133Y-41098496D01*
X52498133Y-41098496D02*
X52640990Y-41146115D01*
X52640990Y-41146115D02*
X53212419Y-41717543D01*
X53212419Y-41717543D02*
X53212419Y-41098496D01*
X52212419Y-40193734D02*
X52212419Y-40669924D01*
X52212419Y-40669924D02*
X52688609Y-40717543D01*
X52688609Y-40717543D02*
X52640990Y-40669924D01*
X52640990Y-40669924D02*
X52593371Y-40574686D01*
X52593371Y-40574686D02*
X52593371Y-40336591D01*
X52593371Y-40336591D02*
X52640990Y-40241353D01*
X52640990Y-40241353D02*
X52688609Y-40193734D01*
X52688609Y-40193734D02*
X52783847Y-40146115D01*
X52783847Y-40146115D02*
X53021942Y-40146115D01*
X53021942Y-40146115D02*
X53117180Y-40193734D01*
X53117180Y-40193734D02*
X53164800Y-40241353D01*
X53164800Y-40241353D02*
X53212419Y-40336591D01*
X53212419Y-40336591D02*
X53212419Y-40574686D01*
X53212419Y-40574686D02*
X53164800Y-40669924D01*
X53164800Y-40669924D02*
X53117180Y-40717543D01*
X52212419Y-39527067D02*
X52212419Y-39431829D01*
X52212419Y-39431829D02*
X52260038Y-39336591D01*
X52260038Y-39336591D02*
X52307657Y-39288972D01*
X52307657Y-39288972D02*
X52402895Y-39241353D01*
X52402895Y-39241353D02*
X52593371Y-39193734D01*
X52593371Y-39193734D02*
X52831466Y-39193734D01*
X52831466Y-39193734D02*
X53021942Y-39241353D01*
X53021942Y-39241353D02*
X53117180Y-39288972D01*
X53117180Y-39288972D02*
X53164800Y-39336591D01*
X53164800Y-39336591D02*
X53212419Y-39431829D01*
X53212419Y-39431829D02*
X53212419Y-39527067D01*
X53212419Y-39527067D02*
X53164800Y-39622305D01*
X53164800Y-39622305D02*
X53117180Y-39669924D01*
X53117180Y-39669924D02*
X53021942Y-39717543D01*
X53021942Y-39717543D02*
X52831466Y-39765162D01*
X52831466Y-39765162D02*
X52593371Y-39765162D01*
X52593371Y-39765162D02*
X52402895Y-39717543D01*
X52402895Y-39717543D02*
X52307657Y-39669924D01*
X52307657Y-39669924D02*
X52260038Y-39622305D01*
X52260038Y-39622305D02*
X52212419Y-39527067D01*
X52307657Y-38812781D02*
X52260038Y-38765162D01*
X52260038Y-38765162D02*
X52212419Y-38669924D01*
X52212419Y-38669924D02*
X52212419Y-38431829D01*
X52212419Y-38431829D02*
X52260038Y-38336591D01*
X52260038Y-38336591D02*
X52307657Y-38288972D01*
X52307657Y-38288972D02*
X52402895Y-38241353D01*
X52402895Y-38241353D02*
X52498133Y-38241353D01*
X52498133Y-38241353D02*
X52640990Y-38288972D01*
X52640990Y-38288972D02*
X53212419Y-38860400D01*
X53212419Y-38860400D02*
X53212419Y-38241353D01*
X52212419Y-37622305D02*
X52212419Y-37527067D01*
X52212419Y-37527067D02*
X52260038Y-37431829D01*
X52260038Y-37431829D02*
X52307657Y-37384210D01*
X52307657Y-37384210D02*
X52402895Y-37336591D01*
X52402895Y-37336591D02*
X52593371Y-37288972D01*
X52593371Y-37288972D02*
X52831466Y-37288972D01*
X52831466Y-37288972D02*
X53021942Y-37336591D01*
X53021942Y-37336591D02*
X53117180Y-37384210D01*
X53117180Y-37384210D02*
X53164800Y-37431829D01*
X53164800Y-37431829D02*
X53212419Y-37527067D01*
X53212419Y-37527067D02*
X53212419Y-37622305D01*
X53212419Y-37622305D02*
X53164800Y-37717543D01*
X53164800Y-37717543D02*
X53117180Y-37765162D01*
X53117180Y-37765162D02*
X53021942Y-37812781D01*
X53021942Y-37812781D02*
X52831466Y-37860400D01*
X52831466Y-37860400D02*
X52593371Y-37860400D01*
X52593371Y-37860400D02*
X52402895Y-37812781D01*
X52402895Y-37812781D02*
X52307657Y-37765162D01*
X52307657Y-37765162D02*
X52260038Y-37717543D01*
X52260038Y-37717543D02*
X52212419Y-37622305D01*
X53212419Y-36812781D02*
X53212419Y-36622305D01*
X53212419Y-36622305D02*
X53164800Y-36527067D01*
X53164800Y-36527067D02*
X53117180Y-36479448D01*
X53117180Y-36479448D02*
X52974323Y-36384210D01*
X52974323Y-36384210D02*
X52783847Y-36336591D01*
X52783847Y-36336591D02*
X52402895Y-36336591D01*
X52402895Y-36336591D02*
X52307657Y-36384210D01*
X52307657Y-36384210D02*
X52260038Y-36431829D01*
X52260038Y-36431829D02*
X52212419Y-36527067D01*
X52212419Y-36527067D02*
X52212419Y-36717543D01*
X52212419Y-36717543D02*
X52260038Y-36812781D01*
X52260038Y-36812781D02*
X52307657Y-36860400D01*
X52307657Y-36860400D02*
X52402895Y-36908019D01*
X52402895Y-36908019D02*
X52640990Y-36908019D01*
X52640990Y-36908019D02*
X52736228Y-36860400D01*
X52736228Y-36860400D02*
X52783847Y-36812781D01*
X52783847Y-36812781D02*
X52831466Y-36717543D01*
X52831466Y-36717543D02*
X52831466Y-36527067D01*
X52831466Y-36527067D02*
X52783847Y-36431829D01*
X52783847Y-36431829D02*
X52736228Y-36384210D01*
X52736228Y-36384210D02*
X52640990Y-36336591D01*
X75419891Y-36144333D02*
X74134176Y-35287191D01*
X75372271Y-36953857D02*
X75372271Y-36477667D01*
X75372271Y-36477667D02*
X74896081Y-36430048D01*
X74896081Y-36430048D02*
X74943700Y-36477667D01*
X74943700Y-36477667D02*
X74991319Y-36572905D01*
X74991319Y-36572905D02*
X74991319Y-36811000D01*
X74991319Y-36811000D02*
X74943700Y-36906238D01*
X74943700Y-36906238D02*
X74896081Y-36953857D01*
X74896081Y-36953857D02*
X74800843Y-37001476D01*
X74800843Y-37001476D02*
X74562748Y-37001476D01*
X74562748Y-37001476D02*
X74467510Y-36953857D01*
X74467510Y-36953857D02*
X74419891Y-36906238D01*
X74419891Y-36906238D02*
X74372271Y-36811000D01*
X74372271Y-36811000D02*
X74372271Y-36572905D01*
X74372271Y-36572905D02*
X74419891Y-36477667D01*
X74419891Y-36477667D02*
X74467510Y-36430048D01*
X75372271Y-37287191D02*
X74372271Y-37620524D01*
X74372271Y-37620524D02*
X75372271Y-37953857D01*
X74419891Y-39001477D02*
X74372271Y-39144334D01*
X74372271Y-39144334D02*
X74372271Y-39382429D01*
X74372271Y-39382429D02*
X74419891Y-39477667D01*
X74419891Y-39477667D02*
X74467510Y-39525286D01*
X74467510Y-39525286D02*
X74562748Y-39572905D01*
X74562748Y-39572905D02*
X74657986Y-39572905D01*
X74657986Y-39572905D02*
X74753224Y-39525286D01*
X74753224Y-39525286D02*
X74800843Y-39477667D01*
X74800843Y-39477667D02*
X74848462Y-39382429D01*
X74848462Y-39382429D02*
X74896081Y-39191953D01*
X74896081Y-39191953D02*
X74943700Y-39096715D01*
X74943700Y-39096715D02*
X74991319Y-39049096D01*
X74991319Y-39049096D02*
X75086557Y-39001477D01*
X75086557Y-39001477D02*
X75181795Y-39001477D01*
X75181795Y-39001477D02*
X75277033Y-39049096D01*
X75277033Y-39049096D02*
X75324652Y-39096715D01*
X75324652Y-39096715D02*
X75372271Y-39191953D01*
X75372271Y-39191953D02*
X75372271Y-39430048D01*
X75372271Y-39430048D02*
X75324652Y-39572905D01*
X74896081Y-40001477D02*
X74896081Y-40334810D01*
X74372271Y-40477667D02*
X74372271Y-40001477D01*
X74372271Y-40001477D02*
X75372271Y-40001477D01*
X75372271Y-40001477D02*
X75372271Y-40477667D01*
X74372271Y-41382429D02*
X74372271Y-40906239D01*
X74372271Y-40906239D02*
X75372271Y-40906239D01*
X54563884Y-47152419D02*
X54563884Y-46152419D01*
X54563884Y-46152419D02*
X54897217Y-46866704D01*
X54897217Y-46866704D02*
X55230550Y-46152419D01*
X55230550Y-46152419D02*
X55230550Y-47152419D01*
X55706741Y-46628609D02*
X56040074Y-46628609D01*
X56182931Y-47152419D02*
X55706741Y-47152419D01*
X55706741Y-47152419D02*
X55706741Y-46152419D01*
X55706741Y-46152419D02*
X56182931Y-46152419D01*
X57135312Y-46200038D02*
X57040074Y-46152419D01*
X57040074Y-46152419D02*
X56897217Y-46152419D01*
X56897217Y-46152419D02*
X56754360Y-46200038D01*
X56754360Y-46200038D02*
X56659122Y-46295276D01*
X56659122Y-46295276D02*
X56611503Y-46390514D01*
X56611503Y-46390514D02*
X56563884Y-46580990D01*
X56563884Y-46580990D02*
X56563884Y-46723847D01*
X56563884Y-46723847D02*
X56611503Y-46914323D01*
X56611503Y-46914323D02*
X56659122Y-47009561D01*
X56659122Y-47009561D02*
X56754360Y-47104800D01*
X56754360Y-47104800D02*
X56897217Y-47152419D01*
X56897217Y-47152419D02*
X56992455Y-47152419D01*
X56992455Y-47152419D02*
X57135312Y-47104800D01*
X57135312Y-47104800D02*
X57182931Y-47057180D01*
X57182931Y-47057180D02*
X57182931Y-46723847D01*
X57182931Y-46723847D02*
X56992455Y-46723847D01*
X57563884Y-46866704D02*
X58040074Y-46866704D01*
X57468646Y-47152419D02*
X57801979Y-46152419D01*
X57801979Y-46152419D02*
X58135312Y-47152419D01*
X58468646Y-46485752D02*
X58468646Y-47485752D01*
X58468646Y-46533371D02*
X58563884Y-46485752D01*
X58563884Y-46485752D02*
X58754360Y-46485752D01*
X58754360Y-46485752D02*
X58849598Y-46533371D01*
X58849598Y-46533371D02*
X58897217Y-46580990D01*
X58897217Y-46580990D02*
X58944836Y-46676228D01*
X58944836Y-46676228D02*
X58944836Y-46961942D01*
X58944836Y-46961942D02*
X58897217Y-47057180D01*
X58897217Y-47057180D02*
X58849598Y-47104800D01*
X58849598Y-47104800D02*
X58754360Y-47152419D01*
X58754360Y-47152419D02*
X58563884Y-47152419D01*
X58563884Y-47152419D02*
X58468646Y-47104800D01*
X59373408Y-47152419D02*
X59373408Y-46152419D01*
X59801979Y-47152419D02*
X59801979Y-46628609D01*
X59801979Y-46628609D02*
X59754360Y-46533371D01*
X59754360Y-46533371D02*
X59659122Y-46485752D01*
X59659122Y-46485752D02*
X59516265Y-46485752D01*
X59516265Y-46485752D02*
X59421027Y-46533371D01*
X59421027Y-46533371D02*
X59373408Y-46580990D01*
X60421027Y-47152419D02*
X60325789Y-47104800D01*
X60325789Y-47104800D02*
X60278170Y-47057180D01*
X60278170Y-47057180D02*
X60230551Y-46961942D01*
X60230551Y-46961942D02*
X60230551Y-46676228D01*
X60230551Y-46676228D02*
X60278170Y-46580990D01*
X60278170Y-46580990D02*
X60325789Y-46533371D01*
X60325789Y-46533371D02*
X60421027Y-46485752D01*
X60421027Y-46485752D02*
X60563884Y-46485752D01*
X60563884Y-46485752D02*
X60659122Y-46533371D01*
X60659122Y-46533371D02*
X60706741Y-46580990D01*
X60706741Y-46580990D02*
X60754360Y-46676228D01*
X60754360Y-46676228D02*
X60754360Y-46961942D01*
X60754360Y-46961942D02*
X60706741Y-47057180D01*
X60706741Y-47057180D02*
X60659122Y-47104800D01*
X60659122Y-47104800D02*
X60563884Y-47152419D01*
X60563884Y-47152419D02*
X60421027Y-47152419D01*
X61182932Y-46485752D02*
X61182932Y-47152419D01*
X61182932Y-46580990D02*
X61230551Y-46533371D01*
X61230551Y-46533371D02*
X61325789Y-46485752D01*
X61325789Y-46485752D02*
X61468646Y-46485752D01*
X61468646Y-46485752D02*
X61563884Y-46533371D01*
X61563884Y-46533371D02*
X61611503Y-46628609D01*
X61611503Y-46628609D02*
X61611503Y-47152419D01*
X62468646Y-47104800D02*
X62373408Y-47152419D01*
X62373408Y-47152419D02*
X62182932Y-47152419D01*
X62182932Y-47152419D02*
X62087694Y-47104800D01*
X62087694Y-47104800D02*
X62040075Y-47009561D01*
X62040075Y-47009561D02*
X62040075Y-46628609D01*
X62040075Y-46628609D02*
X62087694Y-46533371D01*
X62087694Y-46533371D02*
X62182932Y-46485752D01*
X62182932Y-46485752D02*
X62373408Y-46485752D01*
X62373408Y-46485752D02*
X62468646Y-46533371D01*
X62468646Y-46533371D02*
X62516265Y-46628609D01*
X62516265Y-46628609D02*
X62516265Y-46723847D01*
X62516265Y-46723847D02*
X62040075Y-46819085D01*
X63659123Y-46247657D02*
X63706742Y-46200038D01*
X63706742Y-46200038D02*
X63801980Y-46152419D01*
X63801980Y-46152419D02*
X64040075Y-46152419D01*
X64040075Y-46152419D02*
X64135313Y-46200038D01*
X64135313Y-46200038D02*
X64182932Y-46247657D01*
X64182932Y-46247657D02*
X64230551Y-46342895D01*
X64230551Y-46342895D02*
X64230551Y-46438133D01*
X64230551Y-46438133D02*
X64182932Y-46580990D01*
X64182932Y-46580990D02*
X63611504Y-47152419D01*
X63611504Y-47152419D02*
X64230551Y-47152419D01*
X64611504Y-46866704D02*
X65087694Y-46866704D01*
X64516266Y-47152419D02*
X64849599Y-46152419D01*
X64849599Y-46152419D02*
X65182932Y-47152419D01*
X66278171Y-47152419D02*
X66278171Y-46152419D01*
X66278171Y-46152419D02*
X66516266Y-46152419D01*
X66516266Y-46152419D02*
X66659123Y-46200038D01*
X66659123Y-46200038D02*
X66754361Y-46295276D01*
X66754361Y-46295276D02*
X66801980Y-46390514D01*
X66801980Y-46390514D02*
X66849599Y-46580990D01*
X66849599Y-46580990D02*
X66849599Y-46723847D01*
X66849599Y-46723847D02*
X66801980Y-46914323D01*
X66801980Y-46914323D02*
X66754361Y-47009561D01*
X66754361Y-47009561D02*
X66659123Y-47104800D01*
X66659123Y-47104800D02*
X66516266Y-47152419D01*
X66516266Y-47152419D02*
X66278171Y-47152419D01*
X67849599Y-47057180D02*
X67801980Y-47104800D01*
X67801980Y-47104800D02*
X67659123Y-47152419D01*
X67659123Y-47152419D02*
X67563885Y-47152419D01*
X67563885Y-47152419D02*
X67421028Y-47104800D01*
X67421028Y-47104800D02*
X67325790Y-47009561D01*
X67325790Y-47009561D02*
X67278171Y-46914323D01*
X67278171Y-46914323D02*
X67230552Y-46723847D01*
X67230552Y-46723847D02*
X67230552Y-46580990D01*
X67230552Y-46580990D02*
X67278171Y-46390514D01*
X67278171Y-46390514D02*
X67325790Y-46295276D01*
X67325790Y-46295276D02*
X67421028Y-46200038D01*
X67421028Y-46200038D02*
X67563885Y-46152419D01*
X67563885Y-46152419D02*
X67659123Y-46152419D01*
X67659123Y-46152419D02*
X67801980Y-46200038D01*
X67801980Y-46200038D02*
X67849599Y-46247657D01*
X68278171Y-47057180D02*
X68325790Y-47104800D01*
X68325790Y-47104800D02*
X68278171Y-47152419D01*
X68278171Y-47152419D02*
X68230552Y-47104800D01*
X68230552Y-47104800D02*
X68278171Y-47057180D01*
X68278171Y-47057180D02*
X68278171Y-47152419D01*
X68278171Y-46533371D02*
X68325790Y-46580990D01*
X68325790Y-46580990D02*
X68278171Y-46628609D01*
X68278171Y-46628609D02*
X68230552Y-46580990D01*
X68230552Y-46580990D02*
X68278171Y-46533371D01*
X68278171Y-46533371D02*
X68278171Y-46628609D01*
X68754361Y-47152419D02*
X68754361Y-46152419D01*
X68754361Y-46152419D02*
X68992456Y-46152419D01*
X68992456Y-46152419D02*
X69135313Y-46200038D01*
X69135313Y-46200038D02*
X69230551Y-46295276D01*
X69230551Y-46295276D02*
X69278170Y-46390514D01*
X69278170Y-46390514D02*
X69325789Y-46580990D01*
X69325789Y-46580990D02*
X69325789Y-46723847D01*
X69325789Y-46723847D02*
X69278170Y-46914323D01*
X69278170Y-46914323D02*
X69230551Y-47009561D01*
X69230551Y-47009561D02*
X69135313Y-47104800D01*
X69135313Y-47104800D02*
X68992456Y-47152419D01*
X68992456Y-47152419D02*
X68754361Y-47152419D01*
X70325789Y-47057180D02*
X70278170Y-47104800D01*
X70278170Y-47104800D02*
X70135313Y-47152419D01*
X70135313Y-47152419D02*
X70040075Y-47152419D01*
X70040075Y-47152419D02*
X69897218Y-47104800D01*
X69897218Y-47104800D02*
X69801980Y-47009561D01*
X69801980Y-47009561D02*
X69754361Y-46914323D01*
X69754361Y-46914323D02*
X69706742Y-46723847D01*
X69706742Y-46723847D02*
X69706742Y-46580990D01*
X69706742Y-46580990D02*
X69754361Y-46390514D01*
X69754361Y-46390514D02*
X69801980Y-46295276D01*
X69801980Y-46295276D02*
X69897218Y-46200038D01*
X69897218Y-46200038D02*
X70040075Y-46152419D01*
X70040075Y-46152419D02*
X70135313Y-46152419D01*
X70135313Y-46152419D02*
X70278170Y-46200038D01*
X70278170Y-46200038D02*
X70325789Y-46247657D01*
D11*
X60684580Y-43981666D02*
X60732200Y-44029285D01*
X60732200Y-44029285D02*
X60779819Y-44172142D01*
X60779819Y-44172142D02*
X60779819Y-44267380D01*
X60779819Y-44267380D02*
X60732200Y-44410237D01*
X60732200Y-44410237D02*
X60636961Y-44505475D01*
X60636961Y-44505475D02*
X60541723Y-44553094D01*
X60541723Y-44553094D02*
X60351247Y-44600713D01*
X60351247Y-44600713D02*
X60208390Y-44600713D01*
X60208390Y-44600713D02*
X60017914Y-44553094D01*
X60017914Y-44553094D02*
X59922676Y-44505475D01*
X59922676Y-44505475D02*
X59827438Y-44410237D01*
X59827438Y-44410237D02*
X59779819Y-44267380D01*
X59779819Y-44267380D02*
X59779819Y-44172142D01*
X59779819Y-44172142D02*
X59827438Y-44029285D01*
X59827438Y-44029285D02*
X59875057Y-43981666D01*
X59779819Y-43076904D02*
X59779819Y-43553094D01*
X59779819Y-43553094D02*
X60256009Y-43600713D01*
X60256009Y-43600713D02*
X60208390Y-43553094D01*
X60208390Y-43553094D02*
X60160771Y-43457856D01*
X60160771Y-43457856D02*
X60160771Y-43219761D01*
X60160771Y-43219761D02*
X60208390Y-43124523D01*
X60208390Y-43124523D02*
X60256009Y-43076904D01*
X60256009Y-43076904D02*
X60351247Y-43029285D01*
X60351247Y-43029285D02*
X60589342Y-43029285D01*
X60589342Y-43029285D02*
X60684580Y-43076904D01*
X60684580Y-43076904D02*
X60732200Y-43124523D01*
X60732200Y-43124523D02*
X60779819Y-43219761D01*
X60779819Y-43219761D02*
X60779819Y-43457856D01*
X60779819Y-43457856D02*
X60732200Y-43553094D01*
X60732200Y-43553094D02*
X60684580Y-43600713D01*
X70944819Y-41446666D02*
X70468628Y-41779999D01*
X70944819Y-42018094D02*
X69944819Y-42018094D01*
X69944819Y-42018094D02*
X69944819Y-41637142D01*
X69944819Y-41637142D02*
X69992438Y-41541904D01*
X69992438Y-41541904D02*
X70040057Y-41494285D01*
X70040057Y-41494285D02*
X70135295Y-41446666D01*
X70135295Y-41446666D02*
X70278152Y-41446666D01*
X70278152Y-41446666D02*
X70373390Y-41494285D01*
X70373390Y-41494285D02*
X70421009Y-41541904D01*
X70421009Y-41541904D02*
X70468628Y-41637142D01*
X70468628Y-41637142D02*
X70468628Y-42018094D01*
X69944819Y-40541904D02*
X69944819Y-41018094D01*
X69944819Y-41018094D02*
X70421009Y-41065713D01*
X70421009Y-41065713D02*
X70373390Y-41018094D01*
X70373390Y-41018094D02*
X70325771Y-40922856D01*
X70325771Y-40922856D02*
X70325771Y-40684761D01*
X70325771Y-40684761D02*
X70373390Y-40589523D01*
X70373390Y-40589523D02*
X70421009Y-40541904D01*
X70421009Y-40541904D02*
X70516247Y-40494285D01*
X70516247Y-40494285D02*
X70754342Y-40494285D01*
X70754342Y-40494285D02*
X70849580Y-40541904D01*
X70849580Y-40541904D02*
X70897200Y-40589523D01*
X70897200Y-40589523D02*
X70944819Y-40684761D01*
X70944819Y-40684761D02*
X70944819Y-40922856D01*
X70944819Y-40922856D02*
X70897200Y-41018094D01*
X70897200Y-41018094D02*
X70849580Y-41065713D01*
X64508095Y-37534819D02*
X64508095Y-38344342D01*
X64508095Y-38344342D02*
X64555714Y-38439580D01*
X64555714Y-38439580D02*
X64603333Y-38487200D01*
X64603333Y-38487200D02*
X64698571Y-38534819D01*
X64698571Y-38534819D02*
X64889047Y-38534819D01*
X64889047Y-38534819D02*
X64984285Y-38487200D01*
X64984285Y-38487200D02*
X65031904Y-38439580D01*
X65031904Y-38439580D02*
X65079523Y-38344342D01*
X65079523Y-38344342D02*
X65079523Y-37534819D01*
X66079523Y-38534819D02*
X65508095Y-38534819D01*
X65793809Y-38534819D02*
X65793809Y-37534819D01*
X65793809Y-37534819D02*
X65698571Y-37677676D01*
X65698571Y-37677676D02*
X65603333Y-37772914D01*
X65603333Y-37772914D02*
X65508095Y-37820533D01*
X56874580Y-43981666D02*
X56922200Y-44029285D01*
X56922200Y-44029285D02*
X56969819Y-44172142D01*
X56969819Y-44172142D02*
X56969819Y-44267380D01*
X56969819Y-44267380D02*
X56922200Y-44410237D01*
X56922200Y-44410237D02*
X56826961Y-44505475D01*
X56826961Y-44505475D02*
X56731723Y-44553094D01*
X56731723Y-44553094D02*
X56541247Y-44600713D01*
X56541247Y-44600713D02*
X56398390Y-44600713D01*
X56398390Y-44600713D02*
X56207914Y-44553094D01*
X56207914Y-44553094D02*
X56112676Y-44505475D01*
X56112676Y-44505475D02*
X56017438Y-44410237D01*
X56017438Y-44410237D02*
X55969819Y-44267380D01*
X55969819Y-44267380D02*
X55969819Y-44172142D01*
X55969819Y-44172142D02*
X56017438Y-44029285D01*
X56017438Y-44029285D02*
X56065057Y-43981666D01*
X56969819Y-43029285D02*
X56969819Y-43600713D01*
X56969819Y-43314999D02*
X55969819Y-43314999D01*
X55969819Y-43314999D02*
X56112676Y-43410237D01*
X56112676Y-43410237D02*
X56207914Y-43505475D01*
X56207914Y-43505475D02*
X56255533Y-43600713D01*
X55713333Y-36554580D02*
X55665714Y-36602200D01*
X55665714Y-36602200D02*
X55522857Y-36649819D01*
X55522857Y-36649819D02*
X55427619Y-36649819D01*
X55427619Y-36649819D02*
X55284762Y-36602200D01*
X55284762Y-36602200D02*
X55189524Y-36506961D01*
X55189524Y-36506961D02*
X55141905Y-36411723D01*
X55141905Y-36411723D02*
X55094286Y-36221247D01*
X55094286Y-36221247D02*
X55094286Y-36078390D01*
X55094286Y-36078390D02*
X55141905Y-35887914D01*
X55141905Y-35887914D02*
X55189524Y-35792676D01*
X55189524Y-35792676D02*
X55284762Y-35697438D01*
X55284762Y-35697438D02*
X55427619Y-35649819D01*
X55427619Y-35649819D02*
X55522857Y-35649819D01*
X55522857Y-35649819D02*
X55665714Y-35697438D01*
X55665714Y-35697438D02*
X55713333Y-35745057D01*
X56094286Y-35745057D02*
X56141905Y-35697438D01*
X56141905Y-35697438D02*
X56237143Y-35649819D01*
X56237143Y-35649819D02*
X56475238Y-35649819D01*
X56475238Y-35649819D02*
X56570476Y-35697438D01*
X56570476Y-35697438D02*
X56618095Y-35745057D01*
X56618095Y-35745057D02*
X56665714Y-35840295D01*
X56665714Y-35840295D02*
X56665714Y-35935533D01*
X56665714Y-35935533D02*
X56618095Y-36078390D01*
X56618095Y-36078390D02*
X56046667Y-36649819D01*
X56046667Y-36649819D02*
X56665714Y-36649819D01*
X65296666Y-42704819D02*
X65296666Y-43419104D01*
X65296666Y-43419104D02*
X65249047Y-43561961D01*
X65249047Y-43561961D02*
X65153809Y-43657200D01*
X65153809Y-43657200D02*
X65010952Y-43704819D01*
X65010952Y-43704819D02*
X64915714Y-43704819D01*
X65772857Y-43704819D02*
X65772857Y-42704819D01*
X65772857Y-42704819D02*
X66153809Y-42704819D01*
X66153809Y-42704819D02*
X66249047Y-42752438D01*
X66249047Y-42752438D02*
X66296666Y-42800057D01*
X66296666Y-42800057D02*
X66344285Y-42895295D01*
X66344285Y-42895295D02*
X66344285Y-43038152D01*
X66344285Y-43038152D02*
X66296666Y-43133390D01*
X66296666Y-43133390D02*
X66249047Y-43181009D01*
X66249047Y-43181009D02*
X66153809Y-43228628D01*
X66153809Y-43228628D02*
X65772857Y-43228628D01*
X67296666Y-43704819D02*
X66725238Y-43704819D01*
X67010952Y-43704819D02*
X67010952Y-42704819D01*
X67010952Y-42704819D02*
X66915714Y-42847676D01*
X66915714Y-42847676D02*
X66820476Y-42942914D01*
X66820476Y-42942914D02*
X66725238Y-42990533D01*
X68764819Y-41516666D02*
X68288628Y-41849999D01*
X68764819Y-42088094D02*
X67764819Y-42088094D01*
X67764819Y-42088094D02*
X67764819Y-41707142D01*
X67764819Y-41707142D02*
X67812438Y-41611904D01*
X67812438Y-41611904D02*
X67860057Y-41564285D01*
X67860057Y-41564285D02*
X67955295Y-41516666D01*
X67955295Y-41516666D02*
X68098152Y-41516666D01*
X68098152Y-41516666D02*
X68193390Y-41564285D01*
X68193390Y-41564285D02*
X68241009Y-41611904D01*
X68241009Y-41611904D02*
X68288628Y-41707142D01*
X68288628Y-41707142D02*
X68288628Y-42088094D01*
X67860057Y-41135713D02*
X67812438Y-41088094D01*
X67812438Y-41088094D02*
X67764819Y-40992856D01*
X67764819Y-40992856D02*
X67764819Y-40754761D01*
X67764819Y-40754761D02*
X67812438Y-40659523D01*
X67812438Y-40659523D02*
X67860057Y-40611904D01*
X67860057Y-40611904D02*
X67955295Y-40564285D01*
X67955295Y-40564285D02*
X68050533Y-40564285D01*
X68050533Y-40564285D02*
X68193390Y-40611904D01*
X68193390Y-40611904D02*
X68764819Y-41183332D01*
X68764819Y-41183332D02*
X68764819Y-40564285D01*
X65873333Y-36554580D02*
X65825714Y-36602200D01*
X65825714Y-36602200D02*
X65682857Y-36649819D01*
X65682857Y-36649819D02*
X65587619Y-36649819D01*
X65587619Y-36649819D02*
X65444762Y-36602200D01*
X65444762Y-36602200D02*
X65349524Y-36506961D01*
X65349524Y-36506961D02*
X65301905Y-36411723D01*
X65301905Y-36411723D02*
X65254286Y-36221247D01*
X65254286Y-36221247D02*
X65254286Y-36078390D01*
X65254286Y-36078390D02*
X65301905Y-35887914D01*
X65301905Y-35887914D02*
X65349524Y-35792676D01*
X65349524Y-35792676D02*
X65444762Y-35697438D01*
X65444762Y-35697438D02*
X65587619Y-35649819D01*
X65587619Y-35649819D02*
X65682857Y-35649819D01*
X65682857Y-35649819D02*
X65825714Y-35697438D01*
X65825714Y-35697438D02*
X65873333Y-35745057D01*
X66730476Y-35983152D02*
X66730476Y-36649819D01*
X66492381Y-35602200D02*
X66254286Y-36316485D01*
X66254286Y-36316485D02*
X66873333Y-36316485D01*
X66978333Y-44954819D02*
X66645000Y-44478628D01*
X66406905Y-44954819D02*
X66406905Y-43954819D01*
X66406905Y-43954819D02*
X66787857Y-43954819D01*
X66787857Y-43954819D02*
X66883095Y-44002438D01*
X66883095Y-44002438D02*
X66930714Y-44050057D01*
X66930714Y-44050057D02*
X66978333Y-44145295D01*
X66978333Y-44145295D02*
X66978333Y-44288152D01*
X66978333Y-44288152D02*
X66930714Y-44383390D01*
X66930714Y-44383390D02*
X66883095Y-44431009D01*
X66883095Y-44431009D02*
X66787857Y-44478628D01*
X66787857Y-44478628D02*
X66406905Y-44478628D01*
X67835476Y-44288152D02*
X67835476Y-44954819D01*
X67597381Y-43907200D02*
X67359286Y-44621485D01*
X67359286Y-44621485D02*
X67978333Y-44621485D01*
X68399819Y-35726666D02*
X67923628Y-36059999D01*
X68399819Y-36298094D02*
X67399819Y-36298094D01*
X67399819Y-36298094D02*
X67399819Y-35917142D01*
X67399819Y-35917142D02*
X67447438Y-35821904D01*
X67447438Y-35821904D02*
X67495057Y-35774285D01*
X67495057Y-35774285D02*
X67590295Y-35726666D01*
X67590295Y-35726666D02*
X67733152Y-35726666D01*
X67733152Y-35726666D02*
X67828390Y-35774285D01*
X67828390Y-35774285D02*
X67876009Y-35821904D01*
X67876009Y-35821904D02*
X67923628Y-35917142D01*
X67923628Y-35917142D02*
X67923628Y-36298094D01*
X68399819Y-34774285D02*
X68399819Y-35345713D01*
X68399819Y-35059999D02*
X67399819Y-35059999D01*
X67399819Y-35059999D02*
X67542676Y-35155237D01*
X67542676Y-35155237D02*
X67637914Y-35250475D01*
X67637914Y-35250475D02*
X67685533Y-35345713D01*
X55554819Y-39731666D02*
X55554819Y-40207856D01*
X55554819Y-40207856D02*
X54554819Y-40207856D01*
X55554819Y-38874523D02*
X55554819Y-39445951D01*
X55554819Y-39160237D02*
X54554819Y-39160237D01*
X54554819Y-39160237D02*
X54697676Y-39255475D01*
X54697676Y-39255475D02*
X54792914Y-39350713D01*
X54792914Y-39350713D02*
X54840533Y-39445951D01*
X73384580Y-37631666D02*
X73432200Y-37679285D01*
X73432200Y-37679285D02*
X73479819Y-37822142D01*
X73479819Y-37822142D02*
X73479819Y-37917380D01*
X73479819Y-37917380D02*
X73432200Y-38060237D01*
X73432200Y-38060237D02*
X73336961Y-38155475D01*
X73336961Y-38155475D02*
X73241723Y-38203094D01*
X73241723Y-38203094D02*
X73051247Y-38250713D01*
X73051247Y-38250713D02*
X72908390Y-38250713D01*
X72908390Y-38250713D02*
X72717914Y-38203094D01*
X72717914Y-38203094D02*
X72622676Y-38155475D01*
X72622676Y-38155475D02*
X72527438Y-38060237D01*
X72527438Y-38060237D02*
X72479819Y-37917380D01*
X72479819Y-37917380D02*
X72479819Y-37822142D01*
X72479819Y-37822142D02*
X72527438Y-37679285D01*
X72527438Y-37679285D02*
X72575057Y-37631666D01*
X72479819Y-37298332D02*
X72479819Y-36679285D01*
X72479819Y-36679285D02*
X72860771Y-37012618D01*
X72860771Y-37012618D02*
X72860771Y-36869761D01*
X72860771Y-36869761D02*
X72908390Y-36774523D01*
X72908390Y-36774523D02*
X72956009Y-36726904D01*
X72956009Y-36726904D02*
X73051247Y-36679285D01*
X73051247Y-36679285D02*
X73289342Y-36679285D01*
X73289342Y-36679285D02*
X73384580Y-36726904D01*
X73384580Y-36726904D02*
X73432200Y-36774523D01*
X73432200Y-36774523D02*
X73479819Y-36869761D01*
X73479819Y-36869761D02*
X73479819Y-37155475D01*
X73479819Y-37155475D02*
X73432200Y-37250713D01*
X73432200Y-37250713D02*
X73384580Y-37298332D01*
D10*
X76273104Y-39832619D02*
X77073104Y-39832619D01*
X77073104Y-39832619D02*
X77073104Y-40137381D01*
X77073104Y-40137381D02*
X77035009Y-40213571D01*
X77035009Y-40213571D02*
X76996914Y-40251666D01*
X76996914Y-40251666D02*
X76920723Y-40289762D01*
X76920723Y-40289762D02*
X76806438Y-40289762D01*
X76806438Y-40289762D02*
X76730247Y-40251666D01*
X76730247Y-40251666D02*
X76692152Y-40213571D01*
X76692152Y-40213571D02*
X76654057Y-40137381D01*
X76654057Y-40137381D02*
X76654057Y-39832619D01*
X76273104Y-41089762D02*
X76654057Y-40823095D01*
X76273104Y-40632619D02*
X77073104Y-40632619D01*
X77073104Y-40632619D02*
X77073104Y-40937381D01*
X77073104Y-40937381D02*
X77035009Y-41013571D01*
X77035009Y-41013571D02*
X76996914Y-41051666D01*
X76996914Y-41051666D02*
X76920723Y-41089762D01*
X76920723Y-41089762D02*
X76806438Y-41089762D01*
X76806438Y-41089762D02*
X76730247Y-41051666D01*
X76730247Y-41051666D02*
X76692152Y-41013571D01*
X76692152Y-41013571D02*
X76654057Y-40937381D01*
X76654057Y-40937381D02*
X76654057Y-40632619D01*
X76654057Y-41585000D02*
X76273104Y-41585000D01*
X77073104Y-41318333D02*
X76654057Y-41585000D01*
X76654057Y-41585000D02*
X77073104Y-41851666D01*
X49933104Y-39832619D02*
X50733104Y-39832619D01*
X50733104Y-39832619D02*
X50733104Y-40137381D01*
X50733104Y-40137381D02*
X50695009Y-40213571D01*
X50695009Y-40213571D02*
X50656914Y-40251666D01*
X50656914Y-40251666D02*
X50580723Y-40289762D01*
X50580723Y-40289762D02*
X50466438Y-40289762D01*
X50466438Y-40289762D02*
X50390247Y-40251666D01*
X50390247Y-40251666D02*
X50352152Y-40213571D01*
X50352152Y-40213571D02*
X50314057Y-40137381D01*
X50314057Y-40137381D02*
X50314057Y-39832619D01*
X49933104Y-41089762D02*
X50314057Y-40823095D01*
X49933104Y-40632619D02*
X50733104Y-40632619D01*
X50733104Y-40632619D02*
X50733104Y-40937381D01*
X50733104Y-40937381D02*
X50695009Y-41013571D01*
X50695009Y-41013571D02*
X50656914Y-41051666D01*
X50656914Y-41051666D02*
X50580723Y-41089762D01*
X50580723Y-41089762D02*
X50466438Y-41089762D01*
X50466438Y-41089762D02*
X50390247Y-41051666D01*
X50390247Y-41051666D02*
X50352152Y-41013571D01*
X50352152Y-41013571D02*
X50314057Y-40937381D01*
X50314057Y-40937381D02*
X50314057Y-40632619D01*
X50314057Y-41585000D02*
X49933104Y-41585000D01*
X50733104Y-41318333D02*
X50314057Y-41585000D01*
X50314057Y-41585000D02*
X50733104Y-41851666D01*
D12*
%TO.C,C5*%
X57685000Y-44076252D02*
X57685000Y-43553748D01*
X59155000Y-44076252D02*
X59155000Y-43553748D01*
%TO.C,R5*%
X71232500Y-41672742D02*
X71232500Y-42147258D01*
X72277500Y-41672742D02*
X72277500Y-42147258D01*
D13*
%TO.C,U1*%
X60235000Y-38245000D02*
X60235000Y-38595000D01*
X60235000Y-38245000D02*
X60585000Y-38245000D01*
X60235000Y-42245000D02*
X60235000Y-41895000D01*
X60235000Y-42245000D02*
X60585000Y-42245000D01*
X64235000Y-38245000D02*
X63885000Y-38245000D01*
X64235000Y-38245000D02*
X64235000Y-38595000D01*
X64235000Y-42245000D02*
X63885000Y-42245000D01*
X64235000Y-42245000D02*
X64235000Y-41895000D01*
D14*
X59570000Y-38975000D02*
G75*
G02*
X59370000Y-38975000I-100000J0D01*
G01*
X59370000Y-38975000D02*
G75*
G02*
X59570000Y-38975000I100000J0D01*
G01*
D12*
%TO.C,C1*%
X53875000Y-44076252D02*
X53875000Y-43553748D01*
X55345000Y-44076252D02*
X55345000Y-43553748D01*
%TO.C,C2*%
X59316252Y-35460000D02*
X58793748Y-35460000D01*
X59316252Y-36930000D02*
X58793748Y-36930000D01*
%TO.C,JP1*%
X67920000Y-43550000D02*
X67920000Y-42950000D01*
X68620000Y-42250000D02*
X70020000Y-42250000D01*
X70020000Y-44250000D02*
X68620000Y-44250000D01*
X70720000Y-42950000D02*
X70720000Y-43550000D01*
X67920000Y-42950000D02*
G75*
G02*
X68620000Y-42250000I699999J1D01*
G01*
X68620000Y-44250000D02*
G75*
G02*
X67920000Y-43550000I-1J699999D01*
G01*
X70020000Y-42250000D02*
G75*
G02*
X70720000Y-42950000I0J-700000D01*
G01*
X70720000Y-43550000D02*
G75*
G02*
X70020000Y-44250000I-700000J0D01*
G01*
%TO.C,R2*%
X66357500Y-41112742D02*
X66357500Y-41587258D01*
X67402500Y-41112742D02*
X67402500Y-41587258D01*
%TO.C,C4*%
X62918748Y-35460000D02*
X63441252Y-35460000D01*
X62918748Y-36930000D02*
X63441252Y-36930000D01*
%TO.C,R4*%
X64062742Y-44437500D02*
X64537258Y-44437500D01*
X64062742Y-45482500D02*
X64537258Y-45482500D01*
%TO.C,R1*%
X67422500Y-38052742D02*
X67422500Y-38527258D01*
X68467500Y-38052742D02*
X68467500Y-38527258D01*
%TO.C,L1*%
X56040000Y-39826252D02*
X56040000Y-39303748D01*
X58260000Y-39826252D02*
X58260000Y-39303748D01*
%TO.C,C3*%
X70385000Y-38153748D02*
X70385000Y-38676252D01*
X71855000Y-38153748D02*
X71855000Y-38676252D01*
%TO.C,M1*%
D10*
X51079000Y-42769241D02*
X49610000Y-42769241D01*
X49610000Y-38765484D01*
X51079000Y-38765484D01*
X51079000Y-42769241D01*
X75921000Y-42769241D02*
X77390000Y-42769241D01*
X77390000Y-38765484D01*
X75921000Y-38765484D01*
X75921000Y-42769241D01*
%TD*%
M02*
