%TF.GenerationSoftware,KiCad,Pcbnew,9.0.1+dfsg-1*%
%TF.CreationDate,2025-05-01T11:01:48+02:00*%
%TF.ProjectId,high-efficiency_dc-dc_converter,68696768-2d65-4666-9669-6369656e6379,rev?*%
%TF.SameCoordinates,Original*%
%TF.FileFunction,Soldermask,Top*%
%TF.FilePolarity,Negative*%
%FSLAX46Y46*%
G04 Gerber Fmt 4.6, Leading zero omitted, Abs format (unit mm)*
G04 Created by KiCad (PCBNEW 9.0.1+dfsg-1) date 2025-05-01 11:01:48*
%MOMM*%
%LPD*%
G01*
G04 APERTURE LIST*
G04 Aperture macros list*
%AMRoundRect*
0 Rectangle with rounded corners*
0 $1 Rounding radius*
0 $2 $3 $4 $5 $6 $7 $8 $9 X,Y pos of 4 corners*
0 Add a 4 corners polygon primitive as box body*
4,1,4,$2,$3,$4,$5,$6,$7,$8,$9,$2,$3,0*
0 Add four circle primitives for the rounded corners*
1,1,$1+$1,$2,$3*
1,1,$1+$1,$4,$5*
1,1,$1+$1,$6,$7*
1,1,$1+$1,$8,$9*
0 Add four rect primitives between the rounded corners*
20,1,$1+$1,$2,$3,$4,$5,0*
20,1,$1+$1,$4,$5,$6,$7,0*
20,1,$1+$1,$6,$7,$8,$9,0*
20,1,$1+$1,$8,$9,$2,$3,0*%
%AMFreePoly0*
4,1,23,0.500000,-0.750000,0.000000,-0.750000,0.000000,-0.745722,-0.065263,-0.745722,-0.191342,-0.711940,-0.304381,-0.646677,-0.396677,-0.554381,-0.461940,-0.441342,-0.495722,-0.315263,-0.495722,-0.250000,-0.500000,-0.250000,-0.500000,0.250000,-0.495722,0.250000,-0.495722,0.315263,-0.461940,0.441342,-0.396677,0.554381,-0.304381,0.646677,-0.191342,0.711940,-0.065263,0.745722,0.000000,0.745722,
0.000000,0.750000,0.500000,0.750000,0.500000,-0.750000,0.500000,-0.750000,$1*%
%AMFreePoly1*
4,1,23,0.000000,0.745722,0.065263,0.745722,0.191342,0.711940,0.304381,0.646677,0.396677,0.554381,0.461940,0.441342,0.495722,0.315263,0.495722,0.250000,0.500000,0.250000,0.500000,-0.250000,0.495722,-0.250000,0.495722,-0.315263,0.461940,-0.441342,0.396677,-0.554381,0.304381,-0.646677,0.191342,-0.711940,0.065263,-0.745722,0.000000,-0.745722,0.000000,-0.750000,-0.500000,-0.750000,
-0.500000,0.750000,0.000000,0.750000,0.000000,0.745722,0.000000,0.745722,$1*%
G04 Aperture macros list end*
%ADD10RoundRect,0.250000X0.475000X-0.250000X0.475000X0.250000X-0.475000X0.250000X-0.475000X-0.250000X0*%
%ADD11RoundRect,0.200000X-0.275000X0.200000X-0.275000X-0.200000X0.275000X-0.200000X0.275000X0.200000X0*%
%ADD12RoundRect,0.059250X-0.457750X-0.177750X0.457750X-0.177750X0.457750X0.177750X-0.457750X0.177750X0*%
%ADD13RoundRect,0.059250X-0.177750X-0.457750X0.177750X-0.457750X0.177750X0.457750X-0.177750X0.457750X0*%
%ADD14RoundRect,0.102000X-1.320000X-1.320000X1.320000X-1.320000X1.320000X1.320000X-1.320000X1.320000X0*%
%ADD15RoundRect,0.250000X0.250000X0.475000X-0.250000X0.475000X-0.250000X-0.475000X0.250000X-0.475000X0*%
%ADD16FreePoly0,0.000000*%
%ADD17FreePoly1,0.000000*%
%ADD18RoundRect,0.250000X-0.250000X-0.475000X0.250000X-0.475000X0.250000X0.475000X-0.250000X0.475000X0*%
%ADD19RoundRect,0.200000X-0.200000X-0.275000X0.200000X-0.275000X0.200000X0.275000X-0.200000X0.275000X0*%
%ADD20RoundRect,0.250000X0.850000X-0.375000X0.850000X0.375000X-0.850000X0.375000X-0.850000X-0.375000X0*%
%ADD21RoundRect,0.250000X-0.475000X0.250000X-0.475000X-0.250000X0.475000X-0.250000X0.475000X0.250000X0*%
%ADD22R,2.000000X2.540000*%
%ADD23RoundRect,0.250000X-0.375000X0.375000X-0.375000X-0.375000X0.375000X-0.375000X0.375000X0.375000X0*%
G04 APERTURE END LIST*
%TO.C,JP1*%
G36*
X69170000Y-42500000D02*
G01*
X69470000Y-42500000D01*
X69470000Y-44000000D01*
X69170000Y-44000000D01*
X69170000Y-42500000D01*
G37*
%TD*%
D10*
%TO.C,C5*%
X58420000Y-44765000D03*
X58420000Y-42865000D03*
%TD*%
D11*
%TO.C,R5*%
X71755000Y-41085000D03*
X71755000Y-42735000D03*
%TD*%
D12*
%TO.C,U1*%
X60300000Y-39245000D03*
X60300000Y-39745000D03*
X60300000Y-40245000D03*
X60300000Y-40745000D03*
X60300000Y-41245000D03*
D13*
X61235000Y-42180000D03*
X61735000Y-42180000D03*
X62235000Y-42180000D03*
X62735000Y-42180000D03*
X63235000Y-42180000D03*
D12*
X64170000Y-41245000D03*
X64170000Y-40745000D03*
X64170000Y-40245000D03*
X64170000Y-39745000D03*
X64170000Y-39245000D03*
D13*
X63235000Y-38310000D03*
X62735000Y-38310000D03*
X62235000Y-38310000D03*
X61735000Y-38310000D03*
X61235000Y-38310000D03*
D14*
X62235000Y-40245000D03*
%TD*%
D10*
%TO.C,C1*%
X54610000Y-44765000D03*
X54610000Y-42865000D03*
%TD*%
D15*
%TO.C,C2*%
X60005000Y-36195000D03*
X58105000Y-36195000D03*
%TD*%
D16*
%TO.C,JP1*%
X68670000Y-43250000D03*
D17*
X69970000Y-43250000D03*
%TD*%
D11*
%TO.C,R2*%
X66880000Y-40525000D03*
X66880000Y-42175000D03*
%TD*%
D18*
%TO.C,C4*%
X62230000Y-36195000D03*
X64130000Y-36195000D03*
%TD*%
D19*
%TO.C,R4*%
X63475000Y-44960000D03*
X65125000Y-44960000D03*
%TD*%
D11*
%TO.C,R1*%
X67945000Y-37465000D03*
X67945000Y-39115000D03*
%TD*%
D20*
%TO.C,L1*%
X57150000Y-40640000D03*
X57150000Y-38490000D03*
%TD*%
D21*
%TO.C,C3*%
X71120000Y-37465000D03*
X71120000Y-39365000D03*
%TD*%
D22*
%TO.C,M1*%
X76200000Y-48655000D03*
D23*
X76200000Y-46955000D03*
D22*
X71120000Y-48655000D03*
D23*
X71120000Y-46955000D03*
D22*
X53340000Y-48655000D03*
D23*
X53340000Y-46955000D03*
D22*
X50800000Y-48655000D03*
D23*
X50800000Y-46955000D03*
X76200000Y-34615000D03*
D22*
X76200000Y-32915000D03*
D23*
X73660000Y-34615000D03*
D22*
X73660000Y-32915000D03*
D23*
X53340000Y-34615000D03*
D22*
X53340000Y-32915000D03*
D23*
X50800000Y-34615000D03*
D22*
X50800000Y-32915000D03*
%TD*%
M02*
