G04 #@! TF.GenerationSoftware,KiCad,Pcbnew,9.0.1+1*
G04 #@! TF.CreationDate,2025-11-12T15:35:01+00:00*
G04 #@! TF.ProjectId,mppt-charge,6d707074-2d63-4686-9172-67652e6b6963,0.2*
G04 #@! TF.SameCoordinates,Original*
G04 #@! TF.FileFunction,Copper,L2,Inr*
G04 #@! TF.FilePolarity,Positive*
%FSLAX46Y46*%
G04 Gerber Fmt 4.6, Leading zero omitted, Abs format (unit mm)*
G04 Created by KiCad (PCBNEW 9.0.1+1) date 2025-11-12 15:35:01*
%MOMM*%
%LPD*%
G01*
G04 APERTURE LIST*
G04 #@! TA.AperFunction,CastellatedPad*
%ADD10R,2.540000X2.000000*%
G04 #@! TD*
G04 #@! TA.AperFunction,ComponentPad*
%ADD11O,2.600000X1.600000*%
G04 #@! TD*
G04 #@! TA.AperFunction,ViaPad*
%ADD12C,0.600000*%
G04 #@! TD*
G04 #@! TA.AperFunction,ViaPad*
%ADD13C,0.500000*%
G04 #@! TD*
G04 #@! TA.AperFunction,ViaPad*
%ADD14C,1.000000*%
G04 #@! TD*
G04 #@! TA.AperFunction,Conductor*
%ADD15C,0.250000*%
G04 #@! TD*
G04 #@! TA.AperFunction,Conductor*
%ADD16C,0.150000*%
G04 #@! TD*
G04 APERTURE END LIST*
D10*
X91000000Y-69930000D03*
G04 #@! TA.AperFunction,ComponentPad*
G36*
G01*
X93325000Y-69555000D02*
X93325000Y-70305000D01*
G75*
G02*
X93075000Y-70555000I-250000J0D01*
G01*
X92325000Y-70555000D01*
G75*
G02*
X92075000Y-70305000I0J250000D01*
G01*
X92075000Y-69555000D01*
G75*
G02*
X92325000Y-69305000I250000J0D01*
G01*
X93075000Y-69305000D01*
G75*
G02*
X93325000Y-69555000I0J-250000D01*
G01*
G37*
G04 #@! TD.AperFunction*
G04 #@! TA.AperFunction,ComponentPad*
G36*
G01*
X128925000Y-70235000D02*
X128925000Y-69485000D01*
G75*
G02*
X129175000Y-69235000I250000J0D01*
G01*
X129925000Y-69235000D01*
G75*
G02*
X130175000Y-69485000I0J-250000D01*
G01*
X130175000Y-70235000D01*
G75*
G02*
X129925000Y-70485000I-250000J0D01*
G01*
X129175000Y-70485000D01*
G75*
G02*
X128925000Y-70235000I0J250000D01*
G01*
G37*
G04 #@! TD.AperFunction*
X131250000Y-69860000D03*
X91000000Y-128350000D03*
G04 #@! TA.AperFunction,ComponentPad*
G36*
G01*
X93325000Y-127975000D02*
X93325000Y-128725000D01*
G75*
G02*
X93075000Y-128975000I-250000J0D01*
G01*
X92325000Y-128975000D01*
G75*
G02*
X92075000Y-128725000I0J250000D01*
G01*
X92075000Y-127975000D01*
G75*
G02*
X92325000Y-127725000I250000J0D01*
G01*
X93075000Y-127725000D01*
G75*
G02*
X93325000Y-127975000I0J-250000D01*
G01*
G37*
G04 #@! TD.AperFunction*
G04 #@! TA.AperFunction,ComponentPad*
G36*
G01*
X129925000Y-82255000D02*
X129925000Y-83005000D01*
G75*
G02*
X129675000Y-83255000I-250000J0D01*
G01*
X128925000Y-83255000D01*
G75*
G02*
X128675000Y-83005000I0J250000D01*
G01*
X128675000Y-82255000D01*
G75*
G02*
X128925000Y-82005000I250000J0D01*
G01*
X129675000Y-82005000D01*
G75*
G02*
X129925000Y-82255000I0J-250000D01*
G01*
G37*
G04 #@! TD.AperFunction*
X131000000Y-82630000D03*
G04 #@! TA.AperFunction,ComponentPad*
G36*
G01*
X129925000Y-84795000D02*
X129925000Y-85545000D01*
G75*
G02*
X129675000Y-85795000I-250000J0D01*
G01*
X128925000Y-85795000D01*
G75*
G02*
X128675000Y-85545000I0J250000D01*
G01*
X128675000Y-84795000D01*
G75*
G02*
X128925000Y-84545000I250000J0D01*
G01*
X129675000Y-84545000D01*
G75*
G02*
X129925000Y-84795000I0J-250000D01*
G01*
G37*
G04 #@! TD.AperFunction*
X131000000Y-85170000D03*
G04 #@! TA.AperFunction,ComponentPad*
G36*
G01*
X129925000Y-87335000D02*
X129925000Y-88085000D01*
G75*
G02*
X129675000Y-88335000I-250000J0D01*
G01*
X128925000Y-88335000D01*
G75*
G02*
X128675000Y-88085000I0J250000D01*
G01*
X128675000Y-87335000D01*
G75*
G02*
X128925000Y-87085000I250000J0D01*
G01*
X129675000Y-87085000D01*
G75*
G02*
X129925000Y-87335000I0J-250000D01*
G01*
G37*
G04 #@! TD.AperFunction*
X131000000Y-87710000D03*
G04 #@! TA.AperFunction,ComponentPad*
G36*
G01*
X129925000Y-89875000D02*
X129925000Y-90625000D01*
G75*
G02*
X129675000Y-90875000I-250000J0D01*
G01*
X128925000Y-90875000D01*
G75*
G02*
X128675000Y-90625000I0J250000D01*
G01*
X128675000Y-89875000D01*
G75*
G02*
X128925000Y-89625000I250000J0D01*
G01*
X129675000Y-89625000D01*
G75*
G02*
X129925000Y-89875000I0J-250000D01*
G01*
G37*
G04 #@! TD.AperFunction*
X131000000Y-90250000D03*
G04 #@! TA.AperFunction,ComponentPad*
G36*
G01*
X129925000Y-92415000D02*
X129925000Y-93165000D01*
G75*
G02*
X129675000Y-93415000I-250000J0D01*
G01*
X128925000Y-93415000D01*
G75*
G02*
X128675000Y-93165000I0J250000D01*
G01*
X128675000Y-92415000D01*
G75*
G02*
X128925000Y-92165000I250000J0D01*
G01*
X129675000Y-92165000D01*
G75*
G02*
X129925000Y-92415000I0J-250000D01*
G01*
G37*
G04 #@! TD.AperFunction*
X131000000Y-92790000D03*
G04 #@! TA.AperFunction,ComponentPad*
G36*
G01*
X129925000Y-94955000D02*
X129925000Y-95705000D01*
G75*
G02*
X129675000Y-95955000I-250000J0D01*
G01*
X128925000Y-95955000D01*
G75*
G02*
X128675000Y-95705000I0J250000D01*
G01*
X128675000Y-94955000D01*
G75*
G02*
X128925000Y-94705000I250000J0D01*
G01*
X129675000Y-94705000D01*
G75*
G02*
X129925000Y-94955000I0J-250000D01*
G01*
G37*
G04 #@! TD.AperFunction*
X131000000Y-95330000D03*
G04 #@! TA.AperFunction,ComponentPad*
G36*
G01*
X129925000Y-97495000D02*
X129925000Y-98245000D01*
G75*
G02*
X129675000Y-98495000I-250000J0D01*
G01*
X128925000Y-98495000D01*
G75*
G02*
X128675000Y-98245000I0J250000D01*
G01*
X128675000Y-97495000D01*
G75*
G02*
X128925000Y-97245000I250000J0D01*
G01*
X129675000Y-97245000D01*
G75*
G02*
X129925000Y-97495000I0J-250000D01*
G01*
G37*
G04 #@! TD.AperFunction*
X131000000Y-97870000D03*
G04 #@! TA.AperFunction,ComponentPad*
G36*
G01*
X129925000Y-100035000D02*
X129925000Y-100785000D01*
G75*
G02*
X129675000Y-101035000I-250000J0D01*
G01*
X128925000Y-101035000D01*
G75*
G02*
X128675000Y-100785000I0J250000D01*
G01*
X128675000Y-100035000D01*
G75*
G02*
X128925000Y-99785000I250000J0D01*
G01*
X129675000Y-99785000D01*
G75*
G02*
X129925000Y-100035000I0J-250000D01*
G01*
G37*
G04 #@! TD.AperFunction*
X131000000Y-100410000D03*
G04 #@! TA.AperFunction,ComponentPad*
G36*
G01*
X129925000Y-102575000D02*
X129925000Y-103325000D01*
G75*
G02*
X129675000Y-103575000I-250000J0D01*
G01*
X128925000Y-103575000D01*
G75*
G02*
X128675000Y-103325000I0J250000D01*
G01*
X128675000Y-102575000D01*
G75*
G02*
X128925000Y-102325000I250000J0D01*
G01*
X129675000Y-102325000D01*
G75*
G02*
X129925000Y-102575000I0J-250000D01*
G01*
G37*
G04 #@! TD.AperFunction*
X131000000Y-102950000D03*
G04 #@! TA.AperFunction,ComponentPad*
G36*
G01*
X129925000Y-105115000D02*
X129925000Y-105865000D01*
G75*
G02*
X129675000Y-106115000I-250000J0D01*
G01*
X128925000Y-106115000D01*
G75*
G02*
X128675000Y-105865000I0J250000D01*
G01*
X128675000Y-105115000D01*
G75*
G02*
X128925000Y-104865000I250000J0D01*
G01*
X129675000Y-104865000D01*
G75*
G02*
X129925000Y-105115000I0J-250000D01*
G01*
G37*
G04 #@! TD.AperFunction*
X131000000Y-105490000D03*
G04 #@! TA.AperFunction,ComponentPad*
G36*
G01*
X129925000Y-107655000D02*
X129925000Y-108405000D01*
G75*
G02*
X129675000Y-108655000I-250000J0D01*
G01*
X128925000Y-108655000D01*
G75*
G02*
X128675000Y-108405000I0J250000D01*
G01*
X128675000Y-107655000D01*
G75*
G02*
X128925000Y-107405000I250000J0D01*
G01*
X129675000Y-107405000D01*
G75*
G02*
X129925000Y-107655000I0J-250000D01*
G01*
G37*
G04 #@! TD.AperFunction*
X131000000Y-108030000D03*
G04 #@! TA.AperFunction,ComponentPad*
G36*
G01*
X129925000Y-110195000D02*
X129925000Y-110945000D01*
G75*
G02*
X129675000Y-111195000I-250000J0D01*
G01*
X128925000Y-111195000D01*
G75*
G02*
X128675000Y-110945000I0J250000D01*
G01*
X128675000Y-110195000D01*
G75*
G02*
X128925000Y-109945000I250000J0D01*
G01*
X129675000Y-109945000D01*
G75*
G02*
X129925000Y-110195000I0J-250000D01*
G01*
G37*
G04 #@! TD.AperFunction*
X131000000Y-110570000D03*
G04 #@! TA.AperFunction,ComponentPad*
G36*
G01*
X129925000Y-112735000D02*
X129925000Y-113485000D01*
G75*
G02*
X129675000Y-113735000I-250000J0D01*
G01*
X128925000Y-113735000D01*
G75*
G02*
X128675000Y-113485000I0J250000D01*
G01*
X128675000Y-112735000D01*
G75*
G02*
X128925000Y-112485000I250000J0D01*
G01*
X129675000Y-112485000D01*
G75*
G02*
X129925000Y-112735000I0J-250000D01*
G01*
G37*
G04 #@! TD.AperFunction*
X131000000Y-113110000D03*
G04 #@! TA.AperFunction,ComponentPad*
G36*
G01*
X129925000Y-115275000D02*
X129925000Y-116025000D01*
G75*
G02*
X129675000Y-116275000I-250000J0D01*
G01*
X128925000Y-116275000D01*
G75*
G02*
X128675000Y-116025000I0J250000D01*
G01*
X128675000Y-115275000D01*
G75*
G02*
X128925000Y-115025000I250000J0D01*
G01*
X129675000Y-115025000D01*
G75*
G02*
X129925000Y-115275000I0J-250000D01*
G01*
G37*
G04 #@! TD.AperFunction*
X131000000Y-115650000D03*
G04 #@! TA.AperFunction,ComponentPad*
G36*
G01*
X129925000Y-117815000D02*
X129925000Y-118565000D01*
G75*
G02*
X129675000Y-118815000I-250000J0D01*
G01*
X128925000Y-118815000D01*
G75*
G02*
X128675000Y-118565000I0J250000D01*
G01*
X128675000Y-117815000D01*
G75*
G02*
X128925000Y-117565000I250000J0D01*
G01*
X129675000Y-117565000D01*
G75*
G02*
X129925000Y-117815000I0J-250000D01*
G01*
G37*
G04 #@! TD.AperFunction*
X131000000Y-118190000D03*
G04 #@! TA.AperFunction,ComponentPad*
G36*
G01*
X129925000Y-120355000D02*
X129925000Y-121105000D01*
G75*
G02*
X129675000Y-121355000I-250000J0D01*
G01*
X128925000Y-121355000D01*
G75*
G02*
X128675000Y-121105000I0J250000D01*
G01*
X128675000Y-120355000D01*
G75*
G02*
X128925000Y-120105000I250000J0D01*
G01*
X129675000Y-120105000D01*
G75*
G02*
X129925000Y-120355000I0J-250000D01*
G01*
G37*
G04 #@! TD.AperFunction*
X131000000Y-120730000D03*
G04 #@! TA.AperFunction,ComponentPad*
G36*
G01*
X129925000Y-122895000D02*
X129925000Y-123645000D01*
G75*
G02*
X129675000Y-123895000I-250000J0D01*
G01*
X128925000Y-123895000D01*
G75*
G02*
X128675000Y-123645000I0J250000D01*
G01*
X128675000Y-122895000D01*
G75*
G02*
X128925000Y-122645000I250000J0D01*
G01*
X129675000Y-122645000D01*
G75*
G02*
X129925000Y-122895000I0J-250000D01*
G01*
G37*
G04 #@! TD.AperFunction*
X131000000Y-123270000D03*
G04 #@! TA.AperFunction,ComponentPad*
G36*
G01*
X99215000Y-77670000D02*
X99215000Y-76570000D01*
G75*
G02*
X99465000Y-76320000I250000J0D01*
G01*
X101565000Y-76320000D01*
G75*
G02*
X101815000Y-76570000I0J-250000D01*
G01*
X101815000Y-77670000D01*
G75*
G02*
X101565000Y-77920000I-250000J0D01*
G01*
X99465000Y-77920000D01*
G75*
G02*
X99215000Y-77670000I0J250000D01*
G01*
G37*
G04 #@! TD.AperFunction*
D11*
X100515000Y-79660000D03*
X100515000Y-82200000D03*
X100515000Y-84740000D03*
X100515000Y-87280000D03*
X100515000Y-89820000D03*
X100515000Y-92360000D03*
X100515000Y-94900000D03*
X100515000Y-97440000D03*
X100515000Y-99980000D03*
X100515000Y-102520000D03*
X100515000Y-105060000D03*
X100515000Y-107600000D03*
X100515000Y-110140000D03*
X100515000Y-112680000D03*
X100515000Y-115220000D03*
X120235000Y-115220000D03*
X120235000Y-112680000D03*
X120235000Y-110140000D03*
X120235000Y-107600000D03*
X120235000Y-105060000D03*
X120235000Y-102520000D03*
X120235000Y-99980000D03*
X120235000Y-97440000D03*
X120235000Y-94900000D03*
X120235000Y-92360000D03*
X120235000Y-89820000D03*
X120235000Y-87280000D03*
D12*
X106400000Y-114785000D03*
X101225735Y-117559265D03*
X104520586Y-122389471D03*
D13*
X106625000Y-98135000D03*
X97975000Y-94860000D03*
X98975000Y-108860000D03*
X98650000Y-109785000D03*
X97875000Y-92660000D03*
X105775000Y-95417149D03*
D12*
X123400000Y-117410000D03*
D13*
X104802572Y-106554439D03*
X98875000Y-106410000D03*
D14*
X98875000Y-73660000D03*
D13*
X111850000Y-102910000D03*
X97625000Y-89820000D03*
X97625000Y-75410000D03*
X97575000Y-78460000D03*
X97575000Y-87560000D03*
X116375000Y-90360000D03*
X105225000Y-90510000D03*
X116475000Y-94110002D03*
X104900000Y-93660000D03*
D12*
X98900000Y-113635000D03*
D13*
X108125000Y-97910000D03*
X103125000Y-99410000D03*
X104075000Y-95760000D03*
X117625000Y-91160000D03*
X110469384Y-94410000D03*
X112375000Y-95635000D03*
X117625000Y-95660000D03*
D14*
X109255000Y-88220000D03*
D13*
X115125000Y-81660000D03*
D14*
X114875000Y-86410000D03*
D13*
X108512501Y-92677501D03*
X106220000Y-91580000D03*
X112150000Y-88410000D03*
X110437500Y-93160000D03*
X107125000Y-92960000D03*
X103875000Y-87435000D03*
X106125000Y-111715000D03*
X107375000Y-100485000D03*
X108875000Y-98835000D03*
X102425000Y-95110000D03*
X102625000Y-80160000D03*
X97900000Y-114410000D03*
X97925000Y-117622500D03*
X110030000Y-91580000D03*
X111125000Y-84660000D03*
X107785464Y-91284536D03*
X108175000Y-85160000D03*
X104150000Y-94942635D03*
X108125000Y-103660000D03*
X104875000Y-103222500D03*
X105016320Y-99659654D03*
X104950000Y-97410000D03*
D12*
X120940000Y-82570000D03*
X112500000Y-104340000D03*
X94730000Y-69810000D03*
X122460000Y-102600000D03*
X128500000Y-80310000D03*
X118120000Y-73590000D03*
D13*
X108125000Y-95910000D03*
D12*
X114070000Y-89510000D03*
X117640000Y-111830000D03*
X120890000Y-76450000D03*
D13*
X112375000Y-72660000D03*
D12*
X122550000Y-100140000D03*
X92670000Y-126110000D03*
D13*
X103125000Y-98410000D03*
X112375000Y-71160000D03*
D12*
X128080000Y-84590000D03*
X124080000Y-79500000D03*
X113020000Y-75090000D03*
D13*
X103375000Y-92160000D03*
D12*
X117970000Y-71390000D03*
X128120000Y-112430000D03*
X103780000Y-112030000D03*
D13*
X107375000Y-94410000D03*
D12*
X128210000Y-117270000D03*
X128080000Y-119880000D03*
X124170000Y-72390000D03*
X115990000Y-71440000D03*
D13*
X108850000Y-106360000D03*
D12*
X94520000Y-128590000D03*
X111520000Y-86470000D03*
X122140000Y-113940000D03*
D13*
X108125000Y-94410000D03*
D12*
X95800000Y-72130000D03*
X122470000Y-92600000D03*
X109230000Y-91190000D03*
X118420000Y-116200000D03*
D13*
X107375000Y-95910000D03*
X108875000Y-95160000D03*
D12*
X128180000Y-99560000D03*
X117990000Y-86560000D03*
X120270000Y-119300000D03*
X118120000Y-89560000D03*
X111580000Y-106360000D03*
X92860000Y-71810000D03*
X122570000Y-97480000D03*
X128130000Y-114840000D03*
X122470000Y-95030000D03*
D13*
X114125000Y-101410000D03*
D12*
X118250000Y-106190000D03*
X116550000Y-102730000D03*
X128080000Y-109190000D03*
D13*
X103925000Y-105097500D03*
X108875000Y-94410000D03*
X111625000Y-72660000D03*
D12*
X128080000Y-81980000D03*
X95460000Y-70740000D03*
X117850000Y-102410000D03*
X121090000Y-73580000D03*
D13*
X111625000Y-71910000D03*
X108125000Y-95160000D03*
D12*
X129140000Y-71270000D03*
X105680000Y-72570000D03*
X109480000Y-100510000D03*
X114570000Y-75610000D03*
X121370000Y-116760000D03*
X118280000Y-92350000D03*
D13*
X111625000Y-71160000D03*
D12*
X92730000Y-72580000D03*
X115930000Y-106140000D03*
X128140000Y-94520000D03*
X128200000Y-102100000D03*
X116020000Y-113800000D03*
D13*
X111875000Y-101910000D03*
D12*
X127780000Y-121940000D03*
X128170000Y-124310000D03*
X120840000Y-78460000D03*
X110720000Y-119020000D03*
X92160000Y-125790000D03*
X128190000Y-107250000D03*
X117980000Y-108400000D03*
X128180000Y-104620000D03*
X117980000Y-99630000D03*
X128190000Y-89320000D03*
X122420000Y-87180000D03*
X128170000Y-91900000D03*
X125750000Y-81320000D03*
X117820000Y-97630000D03*
X120160000Y-80830000D03*
D13*
X108875000Y-95910000D03*
D12*
X92040000Y-71880000D03*
X122220000Y-89930000D03*
D13*
X107375000Y-95160000D03*
D12*
X116100000Y-109850000D03*
X125110000Y-84090000D03*
D13*
X112375000Y-71910000D03*
D12*
X128140000Y-96960000D03*
X128060000Y-87170000D03*
D14*
X106875000Y-76410000D03*
X107875000Y-76410000D03*
X108875000Y-76410000D03*
X109875000Y-76410000D03*
D13*
X110030000Y-113410000D03*
X108125000Y-115160000D03*
D12*
X96250000Y-122210000D03*
X103745558Y-116555558D03*
X118675000Y-121135000D03*
D15*
X104802572Y-106554439D02*
X106297011Y-105060000D01*
X106297011Y-105060000D02*
X120535000Y-105060000D01*
X116475000Y-94110002D02*
X116925002Y-93660000D01*
X116925002Y-93660000D02*
X122475000Y-93660000D01*
X122475000Y-93660000D02*
X124285000Y-95470000D01*
X116225000Y-90510000D02*
X116375000Y-90360000D01*
X105225000Y-90510000D02*
X116225000Y-90510000D01*
X104900000Y-93685000D02*
X104900000Y-93660000D01*
X104975000Y-93760000D02*
X104900000Y-93685000D01*
X124285000Y-95470000D02*
X128575000Y-95470000D01*
X117374400Y-96265000D02*
X117269400Y-96160000D01*
X112124400Y-96240000D02*
X112044400Y-96160000D01*
X117269400Y-96160000D02*
X112705600Y-96160000D01*
X123375000Y-96160000D02*
X117980600Y-96160000D01*
X117875600Y-96265000D02*
X117374400Y-96265000D01*
X125225000Y-98010000D02*
X123375000Y-96160000D01*
X112625600Y-96240000D02*
X112124400Y-96240000D01*
X117980600Y-96160000D02*
X117875600Y-96265000D01*
X128575000Y-98010000D02*
X125225000Y-98010000D01*
X112705600Y-96160000D02*
X112625600Y-96240000D01*
X112044400Y-96160000D02*
X109875000Y-96160000D01*
X109875000Y-96160000D02*
X108125000Y-97910000D01*
X123895000Y-92930000D02*
X128575000Y-92930000D01*
X112400000Y-95660000D02*
X112375000Y-95635000D01*
X122125000Y-91160000D02*
X117625000Y-91160000D01*
X117625000Y-95660000D02*
X112400000Y-95660000D01*
X122125000Y-91160000D02*
X123895000Y-92930000D01*
X125140000Y-82770000D02*
X128575000Y-82770000D01*
X115125000Y-81660000D02*
X124030000Y-81660000D01*
X124030000Y-81660000D02*
X125140000Y-82770000D01*
X122500000Y-88410000D02*
X124480000Y-90390000D01*
X107125000Y-92960000D02*
X107495000Y-93330000D01*
X112150000Y-88410000D02*
X122500000Y-88410000D01*
X107495000Y-93330000D02*
X110267500Y-93330000D01*
X124480000Y-90390000D02*
X128575000Y-90390000D01*
X110267500Y-93330000D02*
X110437500Y-93160000D01*
X108875000Y-98835000D02*
X109050000Y-98660000D01*
X109050000Y-98660000D02*
X122375000Y-98660000D01*
X122375000Y-98660000D02*
X124265000Y-100550000D01*
X124265000Y-100550000D02*
X128575000Y-100550000D01*
X124025000Y-85310000D02*
X128575000Y-85310000D01*
X122375000Y-83660000D02*
X124025000Y-85310000D01*
X112125000Y-83660000D02*
X122375000Y-83660000D01*
X111125000Y-84660000D02*
X112125000Y-83660000D01*
X121925000Y-85360000D02*
X124415000Y-87850000D01*
X108375000Y-85360000D02*
X121925000Y-85360000D01*
X124415000Y-87850000D02*
X128575000Y-87850000D01*
X108175000Y-85160000D02*
X108375000Y-85360000D01*
X105312500Y-103660000D02*
X122250000Y-103660000D01*
X124220000Y-105630000D02*
X128575000Y-105630000D01*
X122250000Y-103660000D02*
X124220000Y-105630000D01*
X104875000Y-103222500D02*
X105312500Y-103660000D01*
D16*
X104812500Y-103160000D02*
X104875000Y-103222500D01*
D15*
X105016320Y-99659654D02*
X105016666Y-99660000D01*
X118125000Y-101160000D02*
X122525000Y-101160000D01*
X116625000Y-99660000D02*
X118125000Y-101160000D01*
X105016666Y-99660000D02*
X116625000Y-99660000D01*
X124455000Y-103090000D02*
X128575000Y-103090000D01*
X122525000Y-101160000D02*
X124455000Y-103090000D01*
X110760000Y-112680000D02*
X120535000Y-112680000D01*
X110030000Y-113410000D02*
X110760000Y-112680000D01*
X108125000Y-115160000D02*
X120475000Y-115160000D01*
X120475000Y-115160000D02*
X120535000Y-115220000D01*
G04 #@! TA.AperFunction,Conductor*
G36*
X128650297Y-69180185D02*
G01*
X128696052Y-69232989D01*
X128705996Y-69302147D01*
X128699440Y-69327834D01*
X128680908Y-69377518D01*
X128674501Y-69437116D01*
X128674500Y-69437135D01*
X128674500Y-70282870D01*
X128674501Y-70282876D01*
X128680908Y-70342483D01*
X128731202Y-70477328D01*
X128731206Y-70477335D01*
X128817452Y-70592544D01*
X128817455Y-70592547D01*
X128932664Y-70678793D01*
X128932671Y-70678797D01*
X128977618Y-70695561D01*
X129067517Y-70729091D01*
X129127127Y-70735500D01*
X129605500Y-70735499D01*
X129672539Y-70755183D01*
X129718294Y-70807987D01*
X129729500Y-70859499D01*
X129729500Y-70884678D01*
X129744032Y-70957735D01*
X129744033Y-70957739D01*
X129744034Y-70957740D01*
X129799399Y-71040601D01*
X129882260Y-71095966D01*
X129882264Y-71095967D01*
X129955321Y-71110499D01*
X129955324Y-71110500D01*
X129955326Y-71110500D01*
X130375500Y-71110500D01*
X130442539Y-71130185D01*
X130488294Y-71182989D01*
X130499500Y-71234500D01*
X130499500Y-81255500D01*
X130479815Y-81322539D01*
X130427011Y-81368294D01*
X130375500Y-81379500D01*
X129705323Y-81379500D01*
X129632264Y-81394032D01*
X129632260Y-81394033D01*
X129549399Y-81449399D01*
X129494033Y-81532260D01*
X129494032Y-81532264D01*
X129479500Y-81605321D01*
X129479500Y-81630500D01*
X129459815Y-81697539D01*
X129407011Y-81743294D01*
X129355500Y-81754500D01*
X128877129Y-81754500D01*
X128877123Y-81754501D01*
X128817516Y-81760908D01*
X128682671Y-81811202D01*
X128682664Y-81811206D01*
X128567455Y-81897452D01*
X128567452Y-81897455D01*
X128481206Y-82012664D01*
X128481202Y-82012671D01*
X128430908Y-82147517D01*
X128424501Y-82207116D01*
X128424500Y-82207135D01*
X128424500Y-82270500D01*
X128404815Y-82337539D01*
X128352011Y-82383294D01*
X128300500Y-82394500D01*
X122791899Y-82394500D01*
X122724860Y-82374815D01*
X122704218Y-82358181D01*
X121705563Y-81359526D01*
X121705562Y-81359525D01*
X121619940Y-81310091D01*
X121619939Y-81310090D01*
X121532993Y-81286793D01*
X121532993Y-81286792D01*
X121532990Y-81286792D01*
X121524437Y-81284500D01*
X121524436Y-81284500D01*
X121524435Y-81284500D01*
X115506987Y-81284500D01*
X115439948Y-81264815D01*
X115432733Y-81259742D01*
X115318187Y-81193608D01*
X115254539Y-81176554D01*
X115190892Y-81159500D01*
X115059108Y-81159500D01*
X114931812Y-81193608D01*
X114817686Y-81259500D01*
X114817683Y-81259502D01*
X114724502Y-81352683D01*
X114724500Y-81352686D01*
X114658608Y-81466812D01*
X114641072Y-81532260D01*
X114624500Y-81594108D01*
X114624500Y-81725892D01*
X114633883Y-81760909D01*
X114658608Y-81853187D01*
X114684165Y-81897452D01*
X114724500Y-81967314D01*
X114817686Y-82060500D01*
X114931814Y-82126392D01*
X115059108Y-82160500D01*
X115059110Y-82160500D01*
X115190890Y-82160500D01*
X115190892Y-82160500D01*
X115318186Y-82126392D01*
X115432314Y-82060500D01*
X115432315Y-82060498D01*
X115439352Y-82056436D01*
X115440131Y-82057786D01*
X115496671Y-82035930D01*
X115506987Y-82035500D01*
X121268101Y-82035500D01*
X121335140Y-82055185D01*
X121355782Y-82071819D01*
X122356782Y-83072819D01*
X122390267Y-83134142D01*
X122385283Y-83203834D01*
X122343411Y-83259767D01*
X122277947Y-83284184D01*
X122269101Y-83284500D01*
X112075564Y-83284500D01*
X111980061Y-83310089D01*
X111894438Y-83359525D01*
X111894435Y-83359527D01*
X111129587Y-84124375D01*
X111068264Y-84157860D01*
X111059574Y-84159375D01*
X110931812Y-84193608D01*
X110817686Y-84259500D01*
X110817683Y-84259502D01*
X110724502Y-84352683D01*
X110724500Y-84352686D01*
X110658608Y-84466812D01*
X110635605Y-84552664D01*
X110624500Y-84594108D01*
X110624500Y-84725892D01*
X110647170Y-84810500D01*
X110651969Y-84828407D01*
X110650306Y-84898257D01*
X110611143Y-84956119D01*
X110546915Y-84983623D01*
X110532194Y-84984500D01*
X108723195Y-84984500D01*
X108656156Y-84964815D01*
X108615808Y-84922501D01*
X108601810Y-84898257D01*
X108575500Y-84852686D01*
X108482314Y-84759500D01*
X108424102Y-84725891D01*
X108368187Y-84693608D01*
X108304539Y-84676554D01*
X108240892Y-84659500D01*
X108109108Y-84659500D01*
X107981812Y-84693608D01*
X107867686Y-84759500D01*
X107867683Y-84759502D01*
X107774502Y-84852683D01*
X107774500Y-84852686D01*
X107708608Y-84966812D01*
X107674500Y-85094108D01*
X107674500Y-85225891D01*
X107708608Y-85353187D01*
X107741554Y-85410250D01*
X107774500Y-85467314D01*
X107867686Y-85560500D01*
X107981814Y-85626392D01*
X108109108Y-85660500D01*
X108111255Y-85660500D01*
X108113327Y-85661055D01*
X108117168Y-85661561D01*
X108117101Y-85662066D01*
X108173254Y-85677112D01*
X108230063Y-85709911D01*
X108325564Y-85735500D01*
X108325565Y-85735500D01*
X114191080Y-85735500D01*
X114258119Y-85755185D01*
X114303874Y-85807989D01*
X114313818Y-85877147D01*
X114294182Y-85928391D01*
X114209919Y-86054498D01*
X114209912Y-86054511D01*
X114153343Y-86191082D01*
X114153340Y-86191092D01*
X114124500Y-86336079D01*
X114124500Y-86336082D01*
X114124500Y-86483918D01*
X114124500Y-86483920D01*
X114124499Y-86483920D01*
X114153340Y-86628907D01*
X114153343Y-86628917D01*
X114209912Y-86765488D01*
X114209919Y-86765501D01*
X114292048Y-86888415D01*
X114292051Y-86888419D01*
X114396580Y-86992948D01*
X114396584Y-86992951D01*
X114519498Y-87075080D01*
X114519511Y-87075087D01*
X114656082Y-87131656D01*
X114656087Y-87131658D01*
X114656091Y-87131658D01*
X114656092Y-87131659D01*
X114801079Y-87160500D01*
X114801082Y-87160500D01*
X114948920Y-87160500D01*
X115046462Y-87141096D01*
X115093913Y-87131658D01*
X115230495Y-87075084D01*
X115353416Y-86992951D01*
X115457951Y-86888416D01*
X115540084Y-86765495D01*
X115596658Y-86628913D01*
X115625500Y-86483918D01*
X115625500Y-86336082D01*
X115625500Y-86336079D01*
X115596659Y-86191092D01*
X115596658Y-86191091D01*
X115596658Y-86191087D01*
X115587716Y-86169499D01*
X115540087Y-86054511D01*
X115540080Y-86054498D01*
X115455818Y-85928391D01*
X115434940Y-85861713D01*
X115453425Y-85794333D01*
X115505403Y-85747643D01*
X115558920Y-85735500D01*
X121718101Y-85735500D01*
X121785140Y-85755185D01*
X121805781Y-85771818D01*
X124184437Y-88150475D01*
X124270063Y-88199911D01*
X124365564Y-88225500D01*
X124365565Y-88225500D01*
X128357128Y-88225500D01*
X128424167Y-88245185D01*
X128469922Y-88297989D01*
X128473310Y-88306167D01*
X128481202Y-88327328D01*
X128481206Y-88327335D01*
X128567452Y-88442544D01*
X128567455Y-88442547D01*
X128682664Y-88528793D01*
X128682671Y-88528797D01*
X128727618Y-88545561D01*
X128817517Y-88579091D01*
X128877127Y-88585500D01*
X129355500Y-88585499D01*
X129422539Y-88605183D01*
X129468294Y-88657987D01*
X129479500Y-88709499D01*
X129479500Y-88734678D01*
X129494032Y-88807735D01*
X129494033Y-88807739D01*
X129503441Y-88821819D01*
X129549399Y-88890601D01*
X129549400Y-88890601D01*
X129549401Y-88890603D01*
X129551117Y-88892319D01*
X129553662Y-88896981D01*
X129556185Y-88900756D01*
X129555847Y-88900981D01*
X129584602Y-88953642D01*
X129579618Y-89023334D01*
X129551117Y-89067681D01*
X129549401Y-89069396D01*
X129494033Y-89152260D01*
X129494032Y-89152264D01*
X129479500Y-89225321D01*
X129479500Y-89250500D01*
X129459815Y-89317539D01*
X129407011Y-89363294D01*
X129355500Y-89374500D01*
X128877129Y-89374500D01*
X128877123Y-89374501D01*
X128817516Y-89380908D01*
X128682671Y-89431202D01*
X128682664Y-89431206D01*
X128567455Y-89517452D01*
X128567452Y-89517455D01*
X128481206Y-89632664D01*
X128481202Y-89632671D01*
X128430908Y-89767517D01*
X128424501Y-89827116D01*
X128424500Y-89827135D01*
X128424500Y-89890500D01*
X128404815Y-89957539D01*
X128352011Y-90003294D01*
X128300500Y-90014500D01*
X124686900Y-90014500D01*
X124619861Y-89994815D01*
X124599219Y-89978181D01*
X122730563Y-88109526D01*
X122730562Y-88109525D01*
X122645648Y-88060500D01*
X122644940Y-88060091D01*
X122644939Y-88060090D01*
X122557993Y-88036793D01*
X122557993Y-88036792D01*
X122557990Y-88036792D01*
X122549437Y-88034500D01*
X122549436Y-88034500D01*
X122549435Y-88034500D01*
X121666139Y-88034500D01*
X121599100Y-88014815D01*
X121553345Y-87962011D01*
X121543401Y-87892853D01*
X121563037Y-87841609D01*
X121621628Y-87753920D01*
X121621628Y-87753919D01*
X121621632Y-87753914D01*
X121697051Y-87571835D01*
X121717407Y-87469500D01*
X121735500Y-87378543D01*
X121735500Y-87181456D01*
X121697052Y-86988170D01*
X121697051Y-86988169D01*
X121697051Y-86988165D01*
X121688950Y-86968608D01*
X121621635Y-86806092D01*
X121621628Y-86806079D01*
X121512139Y-86642218D01*
X121512136Y-86642214D01*
X121372785Y-86502863D01*
X121372781Y-86502860D01*
X121208920Y-86393371D01*
X121208907Y-86393364D01*
X121026839Y-86317950D01*
X121026829Y-86317947D01*
X120833543Y-86279500D01*
X120833541Y-86279500D01*
X119636459Y-86279500D01*
X119636457Y-86279500D01*
X119443170Y-86317947D01*
X119443160Y-86317950D01*
X119261092Y-86393364D01*
X119261079Y-86393371D01*
X119097218Y-86502860D01*
X119097214Y-86502863D01*
X118957863Y-86642214D01*
X118957860Y-86642218D01*
X118848371Y-86806079D01*
X118848364Y-86806092D01*
X118772950Y-86988160D01*
X118772947Y-86988170D01*
X118734500Y-87181456D01*
X118734500Y-87181459D01*
X118734500Y-87378541D01*
X118734500Y-87378543D01*
X118734499Y-87378543D01*
X118772947Y-87571829D01*
X118772950Y-87571839D01*
X118848364Y-87753907D01*
X118848371Y-87753920D01*
X118906963Y-87841609D01*
X118927841Y-87908287D01*
X118909356Y-87975667D01*
X118857377Y-88022357D01*
X118803861Y-88034500D01*
X112531987Y-88034500D01*
X112464948Y-88014815D01*
X112457733Y-88009742D01*
X112343187Y-87943608D01*
X112246797Y-87917781D01*
X112215892Y-87909500D01*
X112084108Y-87909500D01*
X111956812Y-87943608D01*
X111842686Y-88009500D01*
X111842683Y-88009502D01*
X111749502Y-88102683D01*
X111749500Y-88102686D01*
X111683608Y-88216812D01*
X111649500Y-88344108D01*
X111649500Y-88475891D01*
X111683608Y-88603187D01*
X111715247Y-88657987D01*
X111749500Y-88717314D01*
X111842686Y-88810500D01*
X111956814Y-88876392D01*
X112084108Y-88910500D01*
X112084110Y-88910500D01*
X112215890Y-88910500D01*
X112215892Y-88910500D01*
X112343186Y-88876392D01*
X112457314Y-88810500D01*
X112457315Y-88810498D01*
X112464352Y-88806436D01*
X112465131Y-88807786D01*
X112521671Y-88785930D01*
X112531987Y-88785500D01*
X119073612Y-88785500D01*
X119140651Y-88805185D01*
X119186406Y-88857989D01*
X119196350Y-88927147D01*
X119167325Y-88990703D01*
X119142503Y-89012602D01*
X119097218Y-89042860D01*
X119097214Y-89042863D01*
X118957863Y-89182214D01*
X118957860Y-89182218D01*
X118848371Y-89346079D01*
X118848364Y-89346092D01*
X118772950Y-89528160D01*
X118772947Y-89528170D01*
X118734500Y-89721456D01*
X118734500Y-89721459D01*
X118734500Y-89918541D01*
X118734500Y-89918543D01*
X118734499Y-89918543D01*
X118772947Y-90111829D01*
X118772950Y-90111839D01*
X118848364Y-90293907D01*
X118848371Y-90293920D01*
X118957860Y-90457781D01*
X118957863Y-90457785D01*
X119072897Y-90572819D01*
X119106382Y-90634142D01*
X119101398Y-90703834D01*
X119059526Y-90759767D01*
X118994062Y-90784184D01*
X118985216Y-90784500D01*
X118006987Y-90784500D01*
X117939948Y-90764815D01*
X117932733Y-90759742D01*
X117818187Y-90693608D01*
X117754539Y-90676554D01*
X117690892Y-90659500D01*
X117559108Y-90659500D01*
X117431812Y-90693608D01*
X117317686Y-90759500D01*
X117317683Y-90759502D01*
X117224502Y-90852683D01*
X117224500Y-90852686D01*
X117158608Y-90966812D01*
X117146902Y-91010500D01*
X117124500Y-91094108D01*
X117124500Y-91225892D01*
X117137038Y-91272686D01*
X117158608Y-91353187D01*
X117191554Y-91410250D01*
X117224500Y-91467314D01*
X117317686Y-91560500D01*
X117431814Y-91626392D01*
X117559108Y-91660500D01*
X117559110Y-91660500D01*
X117690890Y-91660500D01*
X117690892Y-91660500D01*
X117818186Y-91626392D01*
X117932314Y-91560500D01*
X117932315Y-91560498D01*
X117939352Y-91556436D01*
X117940131Y-91557786D01*
X117996671Y-91535930D01*
X118006987Y-91535500D01*
X118850634Y-91535500D01*
X118917673Y-91555185D01*
X118963428Y-91607989D01*
X118973372Y-91677147D01*
X118953736Y-91728391D01*
X118848371Y-91886079D01*
X118848364Y-91886092D01*
X118772950Y-92068160D01*
X118772947Y-92068170D01*
X118734500Y-92261456D01*
X118734500Y-92261459D01*
X118734500Y-92458541D01*
X118734500Y-92458543D01*
X118734499Y-92458543D01*
X118772947Y-92651829D01*
X118772950Y-92651839D01*
X118848364Y-92833907D01*
X118848371Y-92833920D01*
X118957860Y-92997781D01*
X118957863Y-92997785D01*
X119032897Y-93072819D01*
X119066382Y-93134142D01*
X119061398Y-93203834D01*
X119019526Y-93259767D01*
X118954062Y-93284184D01*
X118945216Y-93284500D01*
X116974438Y-93284500D01*
X116875566Y-93284500D01*
X116867013Y-93286792D01*
X116867009Y-93286793D01*
X116780062Y-93310090D01*
X116780061Y-93310091D01*
X116694438Y-93359526D01*
X116694439Y-93359526D01*
X116479587Y-93574377D01*
X116418264Y-93607862D01*
X116409574Y-93609377D01*
X116281812Y-93643610D01*
X116167686Y-93709502D01*
X116167683Y-93709504D01*
X116074502Y-93802685D01*
X116074500Y-93802688D01*
X116008608Y-93916814D01*
X115983773Y-94009502D01*
X115974500Y-94044110D01*
X115974500Y-94175894D01*
X115979138Y-94193204D01*
X116008608Y-94303189D01*
X116037360Y-94352988D01*
X116074500Y-94417316D01*
X116167686Y-94510502D01*
X116281814Y-94576394D01*
X116409108Y-94610502D01*
X116409110Y-94610502D01*
X116540890Y-94610502D01*
X116540892Y-94610502D01*
X116668186Y-94576394D01*
X116782314Y-94510502D01*
X116875500Y-94417316D01*
X116941392Y-94303188D01*
X116975500Y-94175894D01*
X116975500Y-94175892D01*
X116977603Y-94168044D01*
X116979109Y-94168447D01*
X116984614Y-94156003D01*
X116989474Y-94133667D01*
X117001748Y-94117270D01*
X117003631Y-94113014D01*
X117010601Y-94105437D01*
X117044223Y-94071815D01*
X117105545Y-94038333D01*
X117131901Y-94035500D01*
X118885216Y-94035500D01*
X118952255Y-94055185D01*
X118998010Y-94107989D01*
X119007954Y-94177147D01*
X118978929Y-94240703D01*
X118972897Y-94247181D01*
X118957863Y-94262214D01*
X118957860Y-94262218D01*
X118848371Y-94426079D01*
X118848364Y-94426092D01*
X118772950Y-94608160D01*
X118772947Y-94608170D01*
X118734500Y-94801456D01*
X118734500Y-94801459D01*
X118734500Y-94998541D01*
X118734500Y-94998543D01*
X118734499Y-94998543D01*
X118772947Y-95191829D01*
X118772950Y-95191839D01*
X118848364Y-95373907D01*
X118848371Y-95373920D01*
X118957860Y-95537781D01*
X118957863Y-95537785D01*
X118992897Y-95572819D01*
X119026382Y-95634142D01*
X119021398Y-95703834D01*
X118979526Y-95759767D01*
X118914062Y-95784184D01*
X118905216Y-95784500D01*
X118249500Y-95784500D01*
X118182461Y-95764815D01*
X118136706Y-95712011D01*
X118125500Y-95660500D01*
X118125500Y-95594110D01*
X118125500Y-95594108D01*
X118091392Y-95466814D01*
X118025500Y-95352686D01*
X117932314Y-95259500D01*
X117875250Y-95226554D01*
X117818187Y-95193608D01*
X117752210Y-95175930D01*
X117690892Y-95159500D01*
X117559108Y-95159500D01*
X117431812Y-95193608D01*
X117353543Y-95238798D01*
X117317686Y-95259500D01*
X117317684Y-95259501D01*
X117310648Y-95263564D01*
X117309868Y-95262213D01*
X117253329Y-95284070D01*
X117243013Y-95284500D01*
X112783676Y-95284500D01*
X112716637Y-95264815D01*
X112695995Y-95248181D01*
X112682316Y-95234502D01*
X112682314Y-95234500D01*
X112608423Y-95191839D01*
X112568187Y-95168608D01*
X112476593Y-95144066D01*
X112440892Y-95134500D01*
X112309108Y-95134500D01*
X112181812Y-95168608D01*
X112067686Y-95234500D01*
X112067683Y-95234502D01*
X111974502Y-95327683D01*
X111974500Y-95327686D01*
X111908608Y-95441812D01*
X111874500Y-95569108D01*
X111874500Y-95660500D01*
X111854815Y-95727539D01*
X111802011Y-95773294D01*
X111750500Y-95784500D01*
X109825564Y-95784500D01*
X109730063Y-95810089D01*
X109730060Y-95810090D01*
X109644440Y-95859522D01*
X109644439Y-95859523D01*
X109480617Y-96023344D01*
X109419293Y-96056828D01*
X109352382Y-96052843D01*
X109340464Y-96048718D01*
X109296265Y-96037717D01*
X109296264Y-96037717D01*
X109296260Y-96037716D01*
X109196667Y-96041867D01*
X109196652Y-96041870D01*
X109128764Y-96058340D01*
X109128761Y-96058341D01*
X109061280Y-96085352D01*
X109061266Y-96085358D01*
X109054698Y-96089149D01*
X109054588Y-96089214D01*
X109054165Y-96089460D01*
X108983706Y-96130140D01*
X108953800Y-96142527D01*
X108923023Y-96150774D01*
X108890928Y-96155000D01*
X108859071Y-96155000D01*
X108826975Y-96150774D01*
X108796196Y-96142526D01*
X108766292Y-96130139D01*
X108698673Y-96091099D01*
X108698653Y-96091087D01*
X108695434Y-96089229D01*
X108695432Y-96089227D01*
X108689749Y-96085946D01*
X108633984Y-96062067D01*
X108633977Y-96062064D01*
X108577899Y-96045598D01*
X108577870Y-96045591D01*
X108545262Y-96038294D01*
X108445667Y-96042445D01*
X108445652Y-96042448D01*
X108377764Y-96058918D01*
X108377759Y-96058919D01*
X108310269Y-96085935D01*
X108310266Y-96085937D01*
X108302305Y-96090532D01*
X108302196Y-96090597D01*
X108295429Y-96094505D01*
X108233706Y-96130140D01*
X108203803Y-96142526D01*
X108173024Y-96150774D01*
X108140928Y-96155000D01*
X108109071Y-96155000D01*
X108076975Y-96150774D01*
X108046196Y-96142526D01*
X108016292Y-96130139D01*
X107948673Y-96091099D01*
X107948653Y-96091087D01*
X107945434Y-96089229D01*
X107945432Y-96089227D01*
X107939749Y-96085946D01*
X107883984Y-96062067D01*
X107883977Y-96062064D01*
X107827899Y-96045598D01*
X107827870Y-96045591D01*
X107795262Y-96038294D01*
X107695667Y-96042445D01*
X107695652Y-96042448D01*
X107627764Y-96058918D01*
X107627759Y-96058919D01*
X107560269Y-96085935D01*
X107560266Y-96085937D01*
X107552305Y-96090532D01*
X107552196Y-96090597D01*
X107545429Y-96094505D01*
X107483706Y-96130140D01*
X107453803Y-96142526D01*
X107423024Y-96150774D01*
X107390928Y-96155000D01*
X107359071Y-96155000D01*
X107326975Y-96150774D01*
X107296196Y-96142526D01*
X107266292Y-96130139D01*
X107238704Y-96114211D01*
X107213023Y-96094505D01*
X107190494Y-96071976D01*
X107170787Y-96046294D01*
X107154856Y-96018700D01*
X107142469Y-95988793D01*
X107134225Y-95958024D01*
X107130000Y-95925932D01*
X107130000Y-95894066D01*
X107134225Y-95861974D01*
X107142469Y-95831205D01*
X107154855Y-95801300D01*
X107199052Y-95724750D01*
X107222932Y-95668985D01*
X107239405Y-95612885D01*
X107246704Y-95580266D01*
X107246394Y-95572819D01*
X107242553Y-95480668D01*
X107242551Y-95480656D01*
X107226079Y-95412762D01*
X107225522Y-95411370D01*
X107199051Y-95345250D01*
X107154857Y-95268704D01*
X107142472Y-95238804D01*
X107134223Y-95208018D01*
X107130000Y-95175930D01*
X107130000Y-95144066D01*
X107134225Y-95111974D01*
X107138907Y-95094500D01*
X107142469Y-95081202D01*
X107154855Y-95051300D01*
X107199052Y-94974750D01*
X107222932Y-94918985D01*
X107239405Y-94862885D01*
X107246704Y-94830266D01*
X107245800Y-94808569D01*
X107242553Y-94730668D01*
X107242551Y-94730656D01*
X107226079Y-94662762D01*
X107226079Y-94662761D01*
X107199051Y-94595250D01*
X107154855Y-94518702D01*
X107142472Y-94488803D01*
X107134223Y-94458018D01*
X107130000Y-94425930D01*
X107130000Y-94391213D01*
X107132529Y-94366299D01*
X107135259Y-94352987D01*
X107136677Y-94305326D01*
X107137869Y-94265283D01*
X107127925Y-94196125D01*
X107117451Y-94151802D01*
X107068120Y-94065172D01*
X107032329Y-94023867D01*
X107022368Y-94012371D01*
X106989591Y-93980743D01*
X106901254Y-93934534D01*
X106901254Y-93934533D01*
X106834222Y-93914851D01*
X106834210Y-93914848D01*
X106762233Y-93904500D01*
X106762232Y-93904500D01*
X105514242Y-93904500D01*
X105447203Y-93884815D01*
X105401448Y-93832011D01*
X105391504Y-93762853D01*
X105394467Y-93748407D01*
X105397259Y-93737987D01*
X105400500Y-93725892D01*
X105400500Y-93594108D01*
X105366392Y-93466814D01*
X105300500Y-93352686D01*
X105207314Y-93259500D01*
X105125061Y-93212011D01*
X105093187Y-93193608D01*
X104969855Y-93160562D01*
X104965892Y-93159500D01*
X104834108Y-93159500D01*
X104706812Y-93193608D01*
X104592686Y-93259500D01*
X104592683Y-93259502D01*
X104499502Y-93352683D01*
X104499500Y-93352686D01*
X104433608Y-93466812D01*
X104404787Y-93574377D01*
X104399500Y-93594108D01*
X104399500Y-93725892D01*
X104402741Y-93737987D01*
X104405533Y-93748407D01*
X104403870Y-93818257D01*
X104364707Y-93876120D01*
X104300478Y-93903623D01*
X104285758Y-93904500D01*
X102248997Y-93904500D01*
X102194687Y-93910338D01*
X102143181Y-93921543D01*
X102143172Y-93921546D01*
X102116807Y-93928779D01*
X102116796Y-93928783D01*
X102030181Y-93978105D01*
X102030173Y-93978111D01*
X101977371Y-94023863D01*
X101945742Y-94056642D01*
X101900606Y-94142925D01*
X101852089Y-94193204D01*
X101784092Y-94209270D01*
X101718203Y-94186024D01*
X101703051Y-94173129D01*
X101652785Y-94122863D01*
X101652781Y-94122860D01*
X101488920Y-94013371D01*
X101488907Y-94013364D01*
X101306839Y-93937950D01*
X101306829Y-93937947D01*
X101113543Y-93899500D01*
X101113541Y-93899500D01*
X99916459Y-93899500D01*
X99916457Y-93899500D01*
X99723170Y-93937947D01*
X99723160Y-93937950D01*
X99541092Y-94013364D01*
X99541079Y-94013371D01*
X99377218Y-94122860D01*
X99377214Y-94122863D01*
X99237863Y-94262214D01*
X99237860Y-94262218D01*
X99128371Y-94426079D01*
X99128364Y-94426092D01*
X99052950Y-94608160D01*
X99052947Y-94608170D01*
X99014500Y-94801456D01*
X99014500Y-94801459D01*
X99014500Y-94998541D01*
X99014500Y-94998543D01*
X99014499Y-94998543D01*
X99052947Y-95191829D01*
X99052950Y-95191839D01*
X99128364Y-95373907D01*
X99128371Y-95373920D01*
X99237860Y-95537781D01*
X99237863Y-95537785D01*
X99377214Y-95677136D01*
X99377218Y-95677139D01*
X99541079Y-95786628D01*
X99541092Y-95786635D01*
X99717069Y-95859526D01*
X99723165Y-95862051D01*
X99723169Y-95862051D01*
X99723170Y-95862052D01*
X99916456Y-95900500D01*
X99916459Y-95900500D01*
X101113543Y-95900500D01*
X101291079Y-95865185D01*
X101306835Y-95862051D01*
X101453512Y-95801296D01*
X101488907Y-95786635D01*
X101488907Y-95786634D01*
X101488914Y-95786632D01*
X101652782Y-95677139D01*
X101652785Y-95677136D01*
X101657819Y-95672103D01*
X101719142Y-95638618D01*
X101788834Y-95643602D01*
X101844767Y-95685474D01*
X101869184Y-95750938D01*
X101869500Y-95759784D01*
X101869500Y-96580216D01*
X101849815Y-96647255D01*
X101797011Y-96693010D01*
X101727853Y-96702954D01*
X101664297Y-96673929D01*
X101657819Y-96667897D01*
X101652785Y-96662863D01*
X101652781Y-96662860D01*
X101488920Y-96553371D01*
X101488907Y-96553364D01*
X101306839Y-96477950D01*
X101306829Y-96477947D01*
X101113543Y-96439500D01*
X101113541Y-96439500D01*
X99916459Y-96439500D01*
X99916457Y-96439500D01*
X99723170Y-96477947D01*
X99723160Y-96477950D01*
X99541092Y-96553364D01*
X99541079Y-96553371D01*
X99377218Y-96662860D01*
X99377214Y-96662863D01*
X99237863Y-96802214D01*
X99237860Y-96802218D01*
X99128371Y-96966079D01*
X99128364Y-96966092D01*
X99052950Y-97148160D01*
X99052947Y-97148170D01*
X99014500Y-97341456D01*
X99014500Y-97341459D01*
X99014500Y-97538541D01*
X99014500Y-97538543D01*
X99014499Y-97538543D01*
X99052947Y-97731829D01*
X99052950Y-97731839D01*
X99128364Y-97913907D01*
X99128371Y-97913920D01*
X99237860Y-98077781D01*
X99237863Y-98077785D01*
X99377214Y-98217136D01*
X99377218Y-98217139D01*
X99541079Y-98326628D01*
X99541092Y-98326635D01*
X99683207Y-98385500D01*
X99723165Y-98402051D01*
X99723169Y-98402051D01*
X99723170Y-98402052D01*
X99916456Y-98440500D01*
X99916459Y-98440500D01*
X101113543Y-98440500D01*
X101291079Y-98405185D01*
X101306835Y-98402051D01*
X101488914Y-98326632D01*
X101652782Y-98217139D01*
X101654910Y-98215011D01*
X101657819Y-98212103D01*
X101719142Y-98178618D01*
X101788834Y-98183602D01*
X101844767Y-98225474D01*
X101869184Y-98290938D01*
X101869500Y-98299784D01*
X101869500Y-99120216D01*
X101849815Y-99187255D01*
X101797011Y-99233010D01*
X101727853Y-99242954D01*
X101664297Y-99213929D01*
X101657819Y-99207897D01*
X101652785Y-99202863D01*
X101652781Y-99202860D01*
X101488920Y-99093371D01*
X101488907Y-99093364D01*
X101306839Y-99017950D01*
X101306829Y-99017947D01*
X101113543Y-98979500D01*
X101113541Y-98979500D01*
X99916459Y-98979500D01*
X99916457Y-98979500D01*
X99723170Y-99017947D01*
X99723160Y-99017950D01*
X99541092Y-99093364D01*
X99541079Y-99093371D01*
X99377218Y-99202860D01*
X99377214Y-99202863D01*
X99237863Y-99342214D01*
X99237860Y-99342218D01*
X99128371Y-99506079D01*
X99128364Y-99506092D01*
X99052950Y-99688160D01*
X99052947Y-99688170D01*
X99014500Y-99881456D01*
X99014500Y-99881459D01*
X99014500Y-100078541D01*
X99014500Y-100078543D01*
X99014499Y-100078543D01*
X99052947Y-100271829D01*
X99052950Y-100271839D01*
X99128364Y-100453907D01*
X99128371Y-100453920D01*
X99237860Y-100617781D01*
X99237863Y-100617785D01*
X99377214Y-100757136D01*
X99377218Y-100757139D01*
X99541079Y-100866628D01*
X99541092Y-100866635D01*
X99683207Y-100925500D01*
X99723165Y-100942051D01*
X99723169Y-100942051D01*
X99723170Y-100942052D01*
X99916456Y-100980500D01*
X99916459Y-100980500D01*
X101113543Y-100980500D01*
X101291079Y-100945185D01*
X101306835Y-100942051D01*
X101488914Y-100866632D01*
X101652782Y-100757139D01*
X101792139Y-100617782D01*
X101901632Y-100453914D01*
X101977051Y-100271835D01*
X101983562Y-100239100D01*
X102015945Y-100177191D01*
X102076660Y-100142616D01*
X102140115Y-100144315D01*
X102177015Y-100155150D01*
X102177019Y-100155150D01*
X102177021Y-100155151D01*
X102188652Y-100156823D01*
X102249000Y-100165500D01*
X102249001Y-100165500D01*
X104403648Y-100165500D01*
X104405626Y-100165441D01*
X104418838Y-100165048D01*
X104433560Y-100164171D01*
X104518948Y-100143993D01*
X104583176Y-100116488D01*
X104623279Y-100094898D01*
X104623279Y-100094897D01*
X104631088Y-100090694D01*
X104631922Y-100092244D01*
X104687505Y-100071882D01*
X104755690Y-100087131D01*
X104757631Y-100088228D01*
X104764587Y-100092244D01*
X104823134Y-100126046D01*
X104950428Y-100160154D01*
X104950430Y-100160154D01*
X105082210Y-100160154D01*
X105082212Y-100160154D01*
X105209506Y-100126046D01*
X105323634Y-100060154D01*
X105323635Y-100060152D01*
X105330672Y-100056090D01*
X105331533Y-100057581D01*
X105387540Y-100035930D01*
X105397856Y-100035500D01*
X106841817Y-100035500D01*
X106908856Y-100055185D01*
X106954611Y-100107989D01*
X106964555Y-100177147D01*
X106949204Y-100221498D01*
X106939041Y-100239103D01*
X106908608Y-100291812D01*
X106874500Y-100419108D01*
X106874500Y-100550891D01*
X106908608Y-100678187D01*
X106928137Y-100712011D01*
X106974500Y-100792314D01*
X107067686Y-100885500D01*
X107181814Y-100951392D01*
X107309108Y-100985500D01*
X107309110Y-100985500D01*
X107440890Y-100985500D01*
X107440892Y-100985500D01*
X107568186Y-100951392D01*
X107682314Y-100885500D01*
X107775500Y-100792314D01*
X107841392Y-100678186D01*
X107875500Y-100550892D01*
X107875500Y-100419108D01*
X107841392Y-100291814D01*
X107800795Y-100221499D01*
X107784323Y-100153601D01*
X107807175Y-100087574D01*
X107862096Y-100044383D01*
X107908183Y-100035500D01*
X116418101Y-100035500D01*
X116485140Y-100055185D01*
X116505782Y-100071819D01*
X117824525Y-101390562D01*
X117894438Y-101460475D01*
X117980062Y-101509910D01*
X118027811Y-101522705D01*
X118027812Y-101522705D01*
X118037903Y-101525408D01*
X118075564Y-101535500D01*
X118075565Y-101535500D01*
X119005216Y-101535500D01*
X119072255Y-101555185D01*
X119118010Y-101607989D01*
X119127954Y-101677147D01*
X119098929Y-101740703D01*
X119092897Y-101747181D01*
X118957863Y-101882214D01*
X118957860Y-101882218D01*
X118848371Y-102046079D01*
X118848364Y-102046092D01*
X118772950Y-102228160D01*
X118772947Y-102228170D01*
X118734500Y-102421456D01*
X118734500Y-102421459D01*
X118734500Y-102618541D01*
X118734500Y-102618543D01*
X118734499Y-102618543D01*
X118772947Y-102811829D01*
X118772950Y-102811839D01*
X118848364Y-102993907D01*
X118848371Y-102993920D01*
X118913645Y-103091609D01*
X118934523Y-103158287D01*
X118916038Y-103225667D01*
X118864059Y-103272357D01*
X118810543Y-103284500D01*
X112426485Y-103284500D01*
X112359446Y-103264815D01*
X112313691Y-103212011D01*
X112303747Y-103142853D01*
X112314675Y-103111278D01*
X112313280Y-103110700D01*
X112316387Y-103103193D01*
X112316392Y-103103186D01*
X112350500Y-102975892D01*
X112350500Y-102844108D01*
X112316392Y-102716814D01*
X112250500Y-102602686D01*
X112157314Y-102509500D01*
X112100250Y-102476554D01*
X112043187Y-102443608D01*
X111960513Y-102421456D01*
X111915892Y-102409500D01*
X111784108Y-102409500D01*
X111656812Y-102443608D01*
X111542686Y-102509500D01*
X111542683Y-102509502D01*
X111449502Y-102602683D01*
X111449500Y-102602686D01*
X111383608Y-102716812D01*
X111382218Y-102722000D01*
X111349500Y-102844108D01*
X111349500Y-102975892D01*
X111363814Y-103029314D01*
X111383609Y-103103188D01*
X111386720Y-103110700D01*
X111384122Y-103111775D01*
X111397375Y-103166397D01*
X111374524Y-103232425D01*
X111319604Y-103275617D01*
X111273515Y-103284500D01*
X108506987Y-103284500D01*
X108439948Y-103264815D01*
X108432733Y-103259742D01*
X108318187Y-103193608D01*
X108216632Y-103166397D01*
X108190892Y-103159500D01*
X108059108Y-103159500D01*
X107931812Y-103193608D01*
X107864581Y-103232425D01*
X107817686Y-103259500D01*
X107817684Y-103259501D01*
X107810648Y-103263564D01*
X107809868Y-103262213D01*
X107753329Y-103284070D01*
X107743013Y-103284500D01*
X105519399Y-103284500D01*
X105489958Y-103275855D01*
X105459972Y-103269332D01*
X105454956Y-103265577D01*
X105452360Y-103264815D01*
X105431718Y-103248181D01*
X105410624Y-103227087D01*
X105377139Y-103165764D01*
X105375624Y-103157072D01*
X105361186Y-103103188D01*
X105341392Y-103029314D01*
X105275500Y-102915186D01*
X105182314Y-102822000D01*
X105125250Y-102789054D01*
X105068187Y-102756108D01*
X105004539Y-102739054D01*
X104940892Y-102722000D01*
X104809108Y-102722000D01*
X104681812Y-102756108D01*
X104567686Y-102822000D01*
X104567683Y-102822002D01*
X104474502Y-102915183D01*
X104474500Y-102915186D01*
X104408608Y-103029312D01*
X104386801Y-103110700D01*
X104374500Y-103156608D01*
X104374500Y-103288392D01*
X104376843Y-103297136D01*
X104408608Y-103415687D01*
X104429981Y-103452705D01*
X104474500Y-103529814D01*
X104567686Y-103623000D01*
X104681814Y-103688892D01*
X104809108Y-103723000D01*
X104809109Y-103723000D01*
X104816958Y-103725103D01*
X104816554Y-103726609D01*
X104871988Y-103751133D01*
X104879587Y-103758124D01*
X105012025Y-103890562D01*
X105081938Y-103960475D01*
X105167562Y-104009910D01*
X105215311Y-104022705D01*
X105215312Y-104022705D01*
X105225403Y-104025408D01*
X105263064Y-104035500D01*
X105263065Y-104035500D01*
X107743013Y-104035500D01*
X107810052Y-104055185D01*
X107817266Y-104060257D01*
X107817684Y-104060498D01*
X107817686Y-104060500D01*
X107931814Y-104126392D01*
X108059108Y-104160500D01*
X108059110Y-104160500D01*
X108190890Y-104160500D01*
X108190892Y-104160500D01*
X108318186Y-104126392D01*
X108432314Y-104060500D01*
X108432315Y-104060498D01*
X108439352Y-104056436D01*
X108440131Y-104057786D01*
X108496671Y-104035930D01*
X108506987Y-104035500D01*
X119058646Y-104035500D01*
X119125685Y-104055185D01*
X119171440Y-104107989D01*
X119181384Y-104177147D01*
X119152359Y-104240703D01*
X119127537Y-104262602D01*
X119097218Y-104282860D01*
X119097214Y-104282863D01*
X118957860Y-104422217D01*
X118848371Y-104586080D01*
X118848367Y-104586087D01*
X118844201Y-104596144D01*
X118839310Y-104607952D01*
X118795471Y-104662355D01*
X118729177Y-104684421D01*
X118724750Y-104684500D01*
X106247575Y-104684500D01*
X106199823Y-104697295D01*
X106199822Y-104697294D01*
X106152074Y-104710089D01*
X106152073Y-104710089D01*
X106084541Y-104749079D01*
X106070035Y-104757455D01*
X106066446Y-104759527D01*
X104807159Y-106018814D01*
X104745836Y-106052299D01*
X104737146Y-106053814D01*
X104609384Y-106088047D01*
X104495258Y-106153939D01*
X104495255Y-106153941D01*
X104402074Y-106247122D01*
X104402072Y-106247125D01*
X104336180Y-106361251D01*
X104302072Y-106488547D01*
X104302072Y-106620330D01*
X104336180Y-106747626D01*
X104354583Y-106779500D01*
X104402072Y-106861753D01*
X104495258Y-106954939D01*
X104609386Y-107020831D01*
X104736680Y-107054939D01*
X104736682Y-107054939D01*
X104868462Y-107054939D01*
X104868464Y-107054939D01*
X104995758Y-107020831D01*
X105109886Y-106954939D01*
X105203072Y-106861753D01*
X105268964Y-106747625D01*
X105303072Y-106620331D01*
X105303072Y-106620329D01*
X105305175Y-106612481D01*
X105306681Y-106612884D01*
X105331203Y-106557451D01*
X105338184Y-106549863D01*
X106416229Y-105471819D01*
X106477552Y-105438334D01*
X106503910Y-105435500D01*
X118724750Y-105435500D01*
X118791789Y-105455185D01*
X118837544Y-105507989D01*
X118839297Y-105512016D01*
X118846558Y-105529546D01*
X118848367Y-105533912D01*
X118848371Y-105533919D01*
X118957860Y-105697782D01*
X119097214Y-105837136D01*
X119097218Y-105837139D01*
X119261079Y-105946628D01*
X119261092Y-105946635D01*
X119435350Y-106018814D01*
X119443165Y-106022051D01*
X119443169Y-106022051D01*
X119443170Y-106022052D01*
X119636456Y-106060500D01*
X119636459Y-106060500D01*
X120833543Y-106060500D01*
X121011079Y-106025185D01*
X121026835Y-106022051D01*
X121208914Y-105946632D01*
X121372782Y-105837139D01*
X121512139Y-105697782D01*
X121621632Y-105533914D01*
X121697051Y-105351835D01*
X121716412Y-105254500D01*
X121735500Y-105158543D01*
X121735500Y-104961456D01*
X121697052Y-104768170D01*
X121697051Y-104768169D01*
X121697051Y-104768165D01*
X121672996Y-104710090D01*
X121621635Y-104586092D01*
X121621628Y-104586079D01*
X121512139Y-104422218D01*
X121512136Y-104422214D01*
X121372785Y-104282863D01*
X121372781Y-104282860D01*
X121342463Y-104262602D01*
X121297658Y-104208990D01*
X121288951Y-104139665D01*
X121319106Y-104076637D01*
X121378549Y-104039918D01*
X121411354Y-104035500D01*
X122043101Y-104035500D01*
X122110140Y-104055185D01*
X122130781Y-104071818D01*
X123989437Y-105930475D01*
X124075063Y-105979911D01*
X124170564Y-106005500D01*
X124170565Y-106005500D01*
X128357128Y-106005500D01*
X128424167Y-106025185D01*
X128469922Y-106077989D01*
X128473310Y-106086167D01*
X128481202Y-106107328D01*
X128481206Y-106107335D01*
X128567452Y-106222544D01*
X128567455Y-106222547D01*
X128682664Y-106308793D01*
X128682671Y-106308797D01*
X128727618Y-106325561D01*
X128817517Y-106359091D01*
X128877127Y-106365500D01*
X129355500Y-106365499D01*
X129422539Y-106385183D01*
X129468294Y-106437987D01*
X129479500Y-106489499D01*
X129479500Y-106514678D01*
X129494032Y-106587735D01*
X129494033Y-106587739D01*
X129504355Y-106603187D01*
X129549399Y-106670601D01*
X129549400Y-106670601D01*
X129549401Y-106670603D01*
X129551117Y-106672319D01*
X129553662Y-106676981D01*
X129556185Y-106680756D01*
X129555847Y-106680981D01*
X129584602Y-106733642D01*
X129579618Y-106803334D01*
X129551117Y-106847681D01*
X129549401Y-106849396D01*
X129494033Y-106932260D01*
X129494032Y-106932264D01*
X129479500Y-107005321D01*
X129479500Y-107030500D01*
X129459815Y-107097539D01*
X129407011Y-107143294D01*
X129355500Y-107154500D01*
X128877129Y-107154500D01*
X128877123Y-107154501D01*
X128817516Y-107160908D01*
X128682671Y-107211202D01*
X128682664Y-107211206D01*
X128567455Y-107297452D01*
X128567452Y-107297455D01*
X128481206Y-107412664D01*
X128481202Y-107412671D01*
X128430908Y-107547517D01*
X128424501Y-107607116D01*
X128424500Y-107607135D01*
X128424500Y-108452870D01*
X128424501Y-108452876D01*
X128430908Y-108512483D01*
X128481202Y-108647328D01*
X128481206Y-108647335D01*
X128567452Y-108762544D01*
X128567455Y-108762547D01*
X128682664Y-108848793D01*
X128682671Y-108848797D01*
X128727618Y-108865561D01*
X128817517Y-108899091D01*
X128877127Y-108905500D01*
X129355500Y-108905499D01*
X129422539Y-108925183D01*
X129468294Y-108977987D01*
X129479500Y-109029499D01*
X129479500Y-109054678D01*
X129494032Y-109127735D01*
X129494033Y-109127739D01*
X129506819Y-109146874D01*
X129549399Y-109210601D01*
X129549400Y-109210601D01*
X129549401Y-109210603D01*
X129551117Y-109212319D01*
X129553662Y-109216981D01*
X129556185Y-109220756D01*
X129555847Y-109220981D01*
X129584602Y-109273642D01*
X129579618Y-109343334D01*
X129551117Y-109387681D01*
X129549401Y-109389396D01*
X129494033Y-109472260D01*
X129494032Y-109472264D01*
X129479500Y-109545321D01*
X129479500Y-109570500D01*
X129459815Y-109637539D01*
X129407011Y-109683294D01*
X129355500Y-109694500D01*
X128877129Y-109694500D01*
X128877123Y-109694501D01*
X128817516Y-109700908D01*
X128682671Y-109751202D01*
X128682664Y-109751206D01*
X128567455Y-109837452D01*
X128567452Y-109837455D01*
X128481206Y-109952664D01*
X128481202Y-109952671D01*
X128430908Y-110087517D01*
X128424501Y-110147116D01*
X128424500Y-110147135D01*
X128424500Y-110992870D01*
X128424501Y-110992876D01*
X128430908Y-111052483D01*
X128481202Y-111187328D01*
X128481206Y-111187335D01*
X128567452Y-111302544D01*
X128567455Y-111302547D01*
X128682664Y-111388793D01*
X128682671Y-111388797D01*
X128727618Y-111405561D01*
X128817517Y-111439091D01*
X128877127Y-111445500D01*
X129355500Y-111445499D01*
X129422539Y-111465183D01*
X129468294Y-111517987D01*
X129479500Y-111569499D01*
X129479500Y-111594678D01*
X129494032Y-111667735D01*
X129494033Y-111667739D01*
X129512489Y-111695360D01*
X129549399Y-111750601D01*
X129549400Y-111750601D01*
X129549401Y-111750603D01*
X129551117Y-111752319D01*
X129553662Y-111756981D01*
X129556185Y-111760756D01*
X129555847Y-111760981D01*
X129584602Y-111813642D01*
X129579618Y-111883334D01*
X129551117Y-111927681D01*
X129549401Y-111929396D01*
X129494033Y-112012260D01*
X129494032Y-112012264D01*
X129479500Y-112085321D01*
X129479500Y-112110500D01*
X129459815Y-112177539D01*
X129407011Y-112223294D01*
X129355500Y-112234500D01*
X128877129Y-112234500D01*
X128877123Y-112234501D01*
X128817516Y-112240908D01*
X128682671Y-112291202D01*
X128682664Y-112291206D01*
X128567455Y-112377452D01*
X128567452Y-112377455D01*
X128481206Y-112492664D01*
X128481202Y-112492671D01*
X128430908Y-112627517D01*
X128424501Y-112687116D01*
X128424500Y-112687135D01*
X128424500Y-113532870D01*
X128424501Y-113532876D01*
X128430908Y-113592483D01*
X128481202Y-113727328D01*
X128481206Y-113727335D01*
X128567452Y-113842544D01*
X128567455Y-113842547D01*
X128682664Y-113928793D01*
X128682671Y-113928797D01*
X128722382Y-113943608D01*
X128817517Y-113979091D01*
X128877127Y-113985500D01*
X129355500Y-113985499D01*
X129422539Y-114005183D01*
X129468294Y-114057987D01*
X129479500Y-114109499D01*
X129479500Y-114134678D01*
X129494032Y-114207735D01*
X129494033Y-114207739D01*
X129511914Y-114234500D01*
X129549399Y-114290601D01*
X129549400Y-114290601D01*
X129549401Y-114290603D01*
X129551117Y-114292319D01*
X129553662Y-114296981D01*
X129556185Y-114300756D01*
X129555847Y-114300981D01*
X129584602Y-114353642D01*
X129579618Y-114423334D01*
X129551117Y-114467681D01*
X129549401Y-114469396D01*
X129494033Y-114552260D01*
X129494032Y-114552264D01*
X129479500Y-114625321D01*
X129479500Y-114650500D01*
X129459815Y-114717539D01*
X129407011Y-114763294D01*
X129355500Y-114774500D01*
X128877129Y-114774500D01*
X128877123Y-114774501D01*
X128817516Y-114780908D01*
X128682671Y-114831202D01*
X128682664Y-114831206D01*
X128567455Y-114917452D01*
X128567452Y-114917455D01*
X128481206Y-115032664D01*
X128481202Y-115032671D01*
X128430908Y-115167517D01*
X128424501Y-115227116D01*
X128424500Y-115227135D01*
X128424500Y-116072870D01*
X128424501Y-116072876D01*
X128430908Y-116132483D01*
X128481202Y-116267328D01*
X128481206Y-116267335D01*
X128567452Y-116382544D01*
X128567455Y-116382547D01*
X128682664Y-116468793D01*
X128682671Y-116468797D01*
X128720974Y-116483083D01*
X128817517Y-116519091D01*
X128877127Y-116525500D01*
X129355500Y-116525499D01*
X129422539Y-116545183D01*
X129468294Y-116597987D01*
X129479500Y-116649499D01*
X129479500Y-116674678D01*
X129494032Y-116747735D01*
X129494033Y-116747739D01*
X129494034Y-116747740D01*
X129549399Y-116830601D01*
X129549400Y-116830601D01*
X129549401Y-116830603D01*
X129551117Y-116832319D01*
X129553662Y-116836981D01*
X129556185Y-116840756D01*
X129555847Y-116840981D01*
X129584602Y-116893642D01*
X129579618Y-116963334D01*
X129551117Y-117007681D01*
X129549401Y-117009396D01*
X129494033Y-117092260D01*
X129494032Y-117092264D01*
X129479500Y-117165321D01*
X129479500Y-117190500D01*
X129459815Y-117257539D01*
X129407011Y-117303294D01*
X129355500Y-117314500D01*
X128877129Y-117314500D01*
X128877123Y-117314501D01*
X128817516Y-117320908D01*
X128682671Y-117371202D01*
X128682664Y-117371206D01*
X128567455Y-117457452D01*
X128567452Y-117457455D01*
X128481206Y-117572664D01*
X128481202Y-117572671D01*
X128430908Y-117707517D01*
X128424501Y-117767116D01*
X128424500Y-117767135D01*
X128424500Y-118612870D01*
X128424501Y-118612876D01*
X128430908Y-118672483D01*
X128481202Y-118807328D01*
X128481206Y-118807335D01*
X128567452Y-118922544D01*
X128567455Y-118922547D01*
X128682664Y-119008793D01*
X128682671Y-119008797D01*
X128727618Y-119025561D01*
X128817517Y-119059091D01*
X128877127Y-119065500D01*
X129355500Y-119065499D01*
X129422539Y-119085183D01*
X129468294Y-119137987D01*
X129479500Y-119189499D01*
X129479500Y-119214678D01*
X129494032Y-119287735D01*
X129494033Y-119287739D01*
X129494034Y-119287740D01*
X129549399Y-119370601D01*
X129549400Y-119370601D01*
X129549401Y-119370603D01*
X129551117Y-119372319D01*
X129553662Y-119376981D01*
X129556185Y-119380756D01*
X129555847Y-119380981D01*
X129584602Y-119433642D01*
X129579618Y-119503334D01*
X129551117Y-119547681D01*
X129549401Y-119549396D01*
X129494033Y-119632260D01*
X129494032Y-119632264D01*
X129479500Y-119705321D01*
X129479500Y-119730500D01*
X129459815Y-119797539D01*
X129407011Y-119843294D01*
X129355500Y-119854500D01*
X128877129Y-119854500D01*
X128877123Y-119854501D01*
X128817516Y-119860908D01*
X128682671Y-119911202D01*
X128682664Y-119911206D01*
X128567455Y-119997452D01*
X128567452Y-119997455D01*
X128481206Y-120112664D01*
X128481202Y-120112671D01*
X128430908Y-120247517D01*
X128424501Y-120307116D01*
X128424500Y-120307135D01*
X128424500Y-121152870D01*
X128424501Y-121152876D01*
X128430908Y-121212483D01*
X128481202Y-121347328D01*
X128481206Y-121347335D01*
X128567452Y-121462544D01*
X128567455Y-121462547D01*
X128682664Y-121548793D01*
X128682671Y-121548797D01*
X128727618Y-121565561D01*
X128817517Y-121599091D01*
X128877127Y-121605500D01*
X129355500Y-121605499D01*
X129422539Y-121625183D01*
X129468294Y-121677987D01*
X129479500Y-121729499D01*
X129479500Y-121754678D01*
X129494032Y-121827735D01*
X129494033Y-121827739D01*
X129494034Y-121827740D01*
X129549399Y-121910601D01*
X129549400Y-121910601D01*
X129549401Y-121910603D01*
X129551117Y-121912319D01*
X129553662Y-121916981D01*
X129556185Y-121920756D01*
X129555847Y-121920981D01*
X129584602Y-121973642D01*
X129579618Y-122043334D01*
X129551117Y-122087681D01*
X129549401Y-122089396D01*
X129494033Y-122172260D01*
X129494032Y-122172264D01*
X129479500Y-122245321D01*
X129479500Y-122270500D01*
X129459815Y-122337539D01*
X129407011Y-122383294D01*
X129355500Y-122394500D01*
X128877129Y-122394500D01*
X128877123Y-122394501D01*
X128817516Y-122400908D01*
X128682671Y-122451202D01*
X128682664Y-122451206D01*
X128567455Y-122537452D01*
X128567452Y-122537455D01*
X128481206Y-122652664D01*
X128481202Y-122652671D01*
X128430908Y-122787517D01*
X128424501Y-122847116D01*
X128424500Y-122847135D01*
X128424500Y-123692870D01*
X128424501Y-123692876D01*
X128430908Y-123752483D01*
X128481202Y-123887328D01*
X128481206Y-123887335D01*
X128567452Y-124002544D01*
X128567455Y-124002547D01*
X128682664Y-124088793D01*
X128682671Y-124088797D01*
X128727618Y-124105561D01*
X128817517Y-124139091D01*
X128877127Y-124145500D01*
X129355500Y-124145499D01*
X129422539Y-124165183D01*
X129468294Y-124217987D01*
X129479500Y-124269499D01*
X129479500Y-124294678D01*
X129494032Y-124367735D01*
X129494033Y-124367739D01*
X129494034Y-124367740D01*
X129549399Y-124450601D01*
X129632260Y-124505966D01*
X129632264Y-124505967D01*
X129705321Y-124520499D01*
X129705324Y-124520500D01*
X129705326Y-124520500D01*
X130375500Y-124520500D01*
X130442539Y-124540185D01*
X130488294Y-124592989D01*
X130499500Y-124644500D01*
X130499500Y-128995500D01*
X130479815Y-129062539D01*
X130427011Y-129108294D01*
X130375500Y-129119500D01*
X93906100Y-129119500D01*
X93839061Y-129099815D01*
X93793306Y-129047011D01*
X93783362Y-128977853D01*
X93788394Y-128956496D01*
X93814505Y-128877697D01*
X93814506Y-128877690D01*
X93824999Y-128774986D01*
X93824999Y-127925028D01*
X93824998Y-127925012D01*
X93814505Y-127822302D01*
X93759357Y-127655875D01*
X93754900Y-127648650D01*
X93075000Y-128328550D01*
X93075000Y-128300630D01*
X93049444Y-128205255D01*
X93000075Y-128119745D01*
X92930255Y-128049925D01*
X92844745Y-128000556D01*
X92749370Y-127975000D01*
X92721446Y-127975000D01*
X93401347Y-127295099D01*
X93394124Y-127290643D01*
X93394119Y-127290641D01*
X93227697Y-127235494D01*
X93227690Y-127235493D01*
X93124986Y-127225000D01*
X92843120Y-127225000D01*
X92776081Y-127205315D01*
X92730326Y-127152511D01*
X92726938Y-127144333D01*
X92713354Y-127107913D01*
X92713353Y-127107912D01*
X92662957Y-127040592D01*
X91832105Y-127871445D01*
X91728097Y-127767437D01*
X91605258Y-127685359D01*
X91500500Y-127641966D01*
X91500500Y-127547310D01*
X91520185Y-127480271D01*
X91536819Y-127459629D01*
X92146448Y-126850000D01*
X91624500Y-126850000D01*
X91557461Y-126830315D01*
X91511706Y-126777511D01*
X91500500Y-126726000D01*
X91500500Y-122137525D01*
X95699500Y-122137525D01*
X95699500Y-122282475D01*
X95731235Y-122400909D01*
X95737017Y-122422488D01*
X95809488Y-122548011D01*
X95809490Y-122548013D01*
X95809491Y-122548015D01*
X95911985Y-122650509D01*
X95911986Y-122650510D01*
X95911988Y-122650511D01*
X96037511Y-122722982D01*
X96037512Y-122722982D01*
X96037515Y-122722984D01*
X96177525Y-122760500D01*
X96177528Y-122760500D01*
X96322472Y-122760500D01*
X96322475Y-122760500D01*
X96462485Y-122722984D01*
X96588015Y-122650509D01*
X96690509Y-122548015D01*
X96762984Y-122422485D01*
X96791250Y-122316996D01*
X103970086Y-122316996D01*
X103970086Y-122461946D01*
X103993149Y-122548017D01*
X104007603Y-122601959D01*
X104080074Y-122727482D01*
X104080076Y-122727484D01*
X104080077Y-122727486D01*
X104182571Y-122829980D01*
X104182572Y-122829981D01*
X104182574Y-122829982D01*
X104308097Y-122902453D01*
X104308098Y-122902453D01*
X104308101Y-122902455D01*
X104448111Y-122939971D01*
X104448114Y-122939971D01*
X104593058Y-122939971D01*
X104593061Y-122939971D01*
X104733071Y-122902455D01*
X104858601Y-122829980D01*
X104961095Y-122727486D01*
X105033570Y-122601956D01*
X105071086Y-122461946D01*
X105071086Y-122316996D01*
X105033570Y-122176986D01*
X105030841Y-122172260D01*
X104961097Y-122051459D01*
X104961092Y-122051453D01*
X104858603Y-121948964D01*
X104858597Y-121948959D01*
X104733074Y-121876488D01*
X104733075Y-121876488D01*
X104716281Y-121871988D01*
X104593061Y-121838971D01*
X104448111Y-121838971D01*
X104324891Y-121871988D01*
X104308097Y-121876488D01*
X104182574Y-121948959D01*
X104182568Y-121948964D01*
X104080079Y-122051453D01*
X104080074Y-122051459D01*
X104007603Y-122176982D01*
X104007602Y-122176986D01*
X103970086Y-122316996D01*
X96791250Y-122316996D01*
X96800500Y-122282475D01*
X96800500Y-122137525D01*
X96762984Y-121997515D01*
X96753160Y-121980500D01*
X96690511Y-121871988D01*
X96690506Y-121871982D01*
X96588017Y-121769493D01*
X96588011Y-121769488D01*
X96462488Y-121697017D01*
X96462489Y-121697017D01*
X96451006Y-121693940D01*
X96322475Y-121659500D01*
X96177525Y-121659500D01*
X96048993Y-121693940D01*
X96037511Y-121697017D01*
X95911988Y-121769488D01*
X95911982Y-121769493D01*
X95809493Y-121871982D01*
X95809488Y-121871988D01*
X95737017Y-121997511D01*
X95737016Y-121997515D01*
X95699500Y-122137525D01*
X91500500Y-122137525D01*
X91500500Y-121062525D01*
X118124500Y-121062525D01*
X118124500Y-121207475D01*
X118161974Y-121347328D01*
X118162017Y-121347488D01*
X118234488Y-121473011D01*
X118234490Y-121473013D01*
X118234491Y-121473015D01*
X118336985Y-121575509D01*
X118336986Y-121575510D01*
X118336988Y-121575511D01*
X118462511Y-121647982D01*
X118462512Y-121647982D01*
X118462515Y-121647984D01*
X118602525Y-121685500D01*
X118602528Y-121685500D01*
X118747472Y-121685500D01*
X118747475Y-121685500D01*
X118887485Y-121647984D01*
X119013015Y-121575509D01*
X119115509Y-121473015D01*
X119187984Y-121347485D01*
X119225500Y-121207475D01*
X119225500Y-121062525D01*
X119187984Y-120922515D01*
X119115509Y-120796985D01*
X119013015Y-120694491D01*
X119013013Y-120694490D01*
X119013011Y-120694488D01*
X118887488Y-120622017D01*
X118887489Y-120622017D01*
X118876006Y-120618940D01*
X118747475Y-120584500D01*
X118602525Y-120584500D01*
X118473993Y-120618940D01*
X118462511Y-120622017D01*
X118336988Y-120694488D01*
X118336982Y-120694493D01*
X118234493Y-120796982D01*
X118234488Y-120796988D01*
X118162017Y-120922511D01*
X118162016Y-120922515D01*
X118124500Y-121062525D01*
X91500500Y-121062525D01*
X91500500Y-117556608D01*
X97424500Y-117556608D01*
X97424500Y-117688392D01*
X97440475Y-117748011D01*
X97458608Y-117815687D01*
X97478711Y-117850506D01*
X97524500Y-117929814D01*
X97617686Y-118023000D01*
X97731814Y-118088892D01*
X97859108Y-118123000D01*
X97859110Y-118123000D01*
X97990890Y-118123000D01*
X97990892Y-118123000D01*
X98118186Y-118088892D01*
X98232314Y-118023000D01*
X98325500Y-117929814D01*
X98391392Y-117815686D01*
X98425500Y-117688392D01*
X98425500Y-117556608D01*
X98406793Y-117486790D01*
X100675235Y-117486790D01*
X100675235Y-117631740D01*
X100712751Y-117771750D01*
X100712752Y-117771753D01*
X100785223Y-117897276D01*
X100785225Y-117897278D01*
X100785226Y-117897280D01*
X100887720Y-117999774D01*
X100887721Y-117999775D01*
X100887723Y-117999776D01*
X101013246Y-118072247D01*
X101013247Y-118072247D01*
X101013250Y-118072249D01*
X101153260Y-118109765D01*
X101153263Y-118109765D01*
X101298207Y-118109765D01*
X101298210Y-118109765D01*
X101438220Y-118072249D01*
X101563750Y-117999774D01*
X101666244Y-117897280D01*
X101738719Y-117771750D01*
X101776235Y-117631740D01*
X101776235Y-117486790D01*
X101745264Y-117371206D01*
X101742661Y-117361491D01*
X101742661Y-117361490D01*
X101738719Y-117346779D01*
X101738717Y-117346776D01*
X101733376Y-117337525D01*
X122849500Y-117337525D01*
X122849500Y-117482475D01*
X122887016Y-117622485D01*
X122887017Y-117622488D01*
X122959488Y-117748011D01*
X122959490Y-117748013D01*
X122959491Y-117748015D01*
X123061985Y-117850509D01*
X123061986Y-117850510D01*
X123061988Y-117850511D01*
X123187511Y-117922982D01*
X123187512Y-117922982D01*
X123187515Y-117922984D01*
X123327525Y-117960500D01*
X123327528Y-117960500D01*
X123472472Y-117960500D01*
X123472475Y-117960500D01*
X123612485Y-117922984D01*
X123738015Y-117850509D01*
X123840509Y-117748015D01*
X123912984Y-117622485D01*
X123950500Y-117482475D01*
X123950500Y-117337525D01*
X123912984Y-117197515D01*
X123869385Y-117122000D01*
X123840511Y-117071988D01*
X123840506Y-117071982D01*
X123738017Y-116969493D01*
X123738011Y-116969488D01*
X123612488Y-116897017D01*
X123612489Y-116897017D01*
X123571246Y-116885966D01*
X123472475Y-116859500D01*
X123327525Y-116859500D01*
X123228754Y-116885966D01*
X123187511Y-116897017D01*
X123061988Y-116969488D01*
X123061982Y-116969493D01*
X122959493Y-117071982D01*
X122959488Y-117071988D01*
X122887017Y-117197511D01*
X122887016Y-117197515D01*
X122849500Y-117337525D01*
X101733376Y-117337525D01*
X101666246Y-117221253D01*
X101666241Y-117221247D01*
X101563752Y-117118758D01*
X101563746Y-117118753D01*
X101438223Y-117046282D01*
X101438224Y-117046282D01*
X101426741Y-117043205D01*
X101298210Y-117008765D01*
X101153260Y-117008765D01*
X101024728Y-117043205D01*
X101013246Y-117046282D01*
X100887723Y-117118753D01*
X100887717Y-117118758D01*
X100785228Y-117221247D01*
X100785223Y-117221253D01*
X100712752Y-117346776D01*
X100712751Y-117346780D01*
X100675235Y-117486790D01*
X98406793Y-117486790D01*
X98391392Y-117429314D01*
X98325500Y-117315186D01*
X98232314Y-117222000D01*
X98175250Y-117189054D01*
X98118187Y-117156108D01*
X98054539Y-117139054D01*
X97990892Y-117122000D01*
X97859108Y-117122000D01*
X97731812Y-117156108D01*
X97617686Y-117222000D01*
X97617683Y-117222002D01*
X97524502Y-117315183D01*
X97524500Y-117315186D01*
X97458608Y-117429312D01*
X97443207Y-117486790D01*
X97424500Y-117556608D01*
X91500500Y-117556608D01*
X91500500Y-116483083D01*
X103195058Y-116483083D01*
X103195058Y-116628033D01*
X103227134Y-116747740D01*
X103232575Y-116768046D01*
X103305046Y-116893569D01*
X103305048Y-116893571D01*
X103305049Y-116893573D01*
X103407543Y-116996067D01*
X103407544Y-116996068D01*
X103407546Y-116996069D01*
X103533069Y-117068540D01*
X103533070Y-117068540D01*
X103533073Y-117068542D01*
X103673083Y-117106058D01*
X103673086Y-117106058D01*
X103818030Y-117106058D01*
X103818033Y-117106058D01*
X103958043Y-117068542D01*
X104083573Y-116996067D01*
X104186067Y-116893573D01*
X104258542Y-116768043D01*
X104296058Y-116628033D01*
X104296058Y-116483083D01*
X104258542Y-116343073D01*
X104214810Y-116267328D01*
X104186069Y-116217546D01*
X104186064Y-116217540D01*
X104083575Y-116115051D01*
X104083569Y-116115046D01*
X103958046Y-116042575D01*
X103958047Y-116042575D01*
X103946564Y-116039498D01*
X103818033Y-116005058D01*
X103673083Y-116005058D01*
X103544551Y-116039498D01*
X103533069Y-116042575D01*
X103407546Y-116115046D01*
X103407540Y-116115051D01*
X103305051Y-116217540D01*
X103305046Y-116217546D01*
X103232575Y-116343069D01*
X103232574Y-116343073D01*
X103195058Y-116483083D01*
X91500500Y-116483083D01*
X91500500Y-115318543D01*
X99014499Y-115318543D01*
X99052947Y-115511829D01*
X99052950Y-115511839D01*
X99128364Y-115693907D01*
X99128371Y-115693920D01*
X99237860Y-115857781D01*
X99237863Y-115857785D01*
X99377214Y-115997136D01*
X99377218Y-115997139D01*
X99541079Y-116106628D01*
X99541092Y-116106635D01*
X99723160Y-116182049D01*
X99723165Y-116182051D01*
X99723169Y-116182051D01*
X99723170Y-116182052D01*
X99916456Y-116220500D01*
X99916459Y-116220500D01*
X101113543Y-116220500D01*
X101243582Y-116194632D01*
X101306835Y-116182051D01*
X101468589Y-116115051D01*
X101488907Y-116106635D01*
X101488907Y-116106634D01*
X101488914Y-116106632D01*
X101652782Y-115997139D01*
X101792139Y-115857782D01*
X101901632Y-115693914D01*
X101977051Y-115511835D01*
X101989632Y-115448582D01*
X102015500Y-115318543D01*
X102015500Y-115121456D01*
X101977052Y-114928170D01*
X101977051Y-114928169D01*
X101977051Y-114928165D01*
X101955606Y-114876391D01*
X101904039Y-114751896D01*
X101904029Y-114751874D01*
X101901632Y-114746086D01*
X101901630Y-114746083D01*
X101901628Y-114746079D01*
X101879208Y-114712525D01*
X105849500Y-114712525D01*
X105849500Y-114857475D01*
X105868442Y-114928165D01*
X105887017Y-114997488D01*
X105959488Y-115123011D01*
X105959490Y-115123013D01*
X105959491Y-115123015D01*
X106061985Y-115225509D01*
X106061986Y-115225510D01*
X106061988Y-115225511D01*
X106187511Y-115297982D01*
X106187512Y-115297982D01*
X106187515Y-115297984D01*
X106327525Y-115335500D01*
X106327528Y-115335500D01*
X106472472Y-115335500D01*
X106472475Y-115335500D01*
X106612485Y-115297984D01*
X106738015Y-115225509D01*
X106840509Y-115123015D01*
X106857199Y-115094108D01*
X107624500Y-115094108D01*
X107624500Y-115225891D01*
X107658608Y-115353187D01*
X107691554Y-115410250D01*
X107724500Y-115467314D01*
X107817686Y-115560500D01*
X107931814Y-115626392D01*
X108059108Y-115660500D01*
X108059110Y-115660500D01*
X108190890Y-115660500D01*
X108190892Y-115660500D01*
X108318186Y-115626392D01*
X108432314Y-115560500D01*
X108432315Y-115560498D01*
X108439352Y-115556436D01*
X108440131Y-115557786D01*
X108496671Y-115535930D01*
X108506987Y-115535500D01*
X118699897Y-115535500D01*
X118766936Y-115555185D01*
X118812691Y-115607989D01*
X118814458Y-115612048D01*
X118848364Y-115693907D01*
X118848371Y-115693920D01*
X118957860Y-115857781D01*
X118957863Y-115857785D01*
X119097214Y-115997136D01*
X119097218Y-115997139D01*
X119261079Y-116106628D01*
X119261092Y-116106635D01*
X119443160Y-116182049D01*
X119443165Y-116182051D01*
X119443169Y-116182051D01*
X119443170Y-116182052D01*
X119636456Y-116220500D01*
X119636459Y-116220500D01*
X120833543Y-116220500D01*
X120963582Y-116194632D01*
X121026835Y-116182051D01*
X121188589Y-116115051D01*
X121208907Y-116106635D01*
X121208907Y-116106634D01*
X121208914Y-116106632D01*
X121372782Y-115997139D01*
X121512139Y-115857782D01*
X121621632Y-115693914D01*
X121697051Y-115511835D01*
X121709632Y-115448582D01*
X121735500Y-115318543D01*
X121735500Y-115121456D01*
X121697052Y-114928170D01*
X121697051Y-114928169D01*
X121697051Y-114928165D01*
X121675606Y-114876391D01*
X121621635Y-114746092D01*
X121621628Y-114746079D01*
X121512139Y-114582218D01*
X121512136Y-114582214D01*
X121372785Y-114442863D01*
X121372781Y-114442860D01*
X121208920Y-114333371D01*
X121208907Y-114333364D01*
X121026839Y-114257950D01*
X121026829Y-114257947D01*
X120833543Y-114219500D01*
X120833541Y-114219500D01*
X119636459Y-114219500D01*
X119636457Y-114219500D01*
X119443170Y-114257947D01*
X119443160Y-114257950D01*
X119261092Y-114333364D01*
X119261079Y-114333371D01*
X119097218Y-114442860D01*
X119097214Y-114442863D01*
X118957860Y-114582217D01*
X118859523Y-114729391D01*
X118805911Y-114774196D01*
X118756421Y-114784500D01*
X108506987Y-114784500D01*
X108439948Y-114764815D01*
X108432733Y-114759742D01*
X108318187Y-114693608D01*
X108254539Y-114676554D01*
X108190892Y-114659500D01*
X108059108Y-114659500D01*
X107931812Y-114693608D01*
X107817686Y-114759500D01*
X107817683Y-114759502D01*
X107724502Y-114852683D01*
X107724500Y-114852686D01*
X107658608Y-114966812D01*
X107624500Y-115094108D01*
X106857199Y-115094108D01*
X106912984Y-114997485D01*
X106950500Y-114857475D01*
X106950500Y-114712525D01*
X106912984Y-114572515D01*
X106857197Y-114475890D01*
X106840511Y-114446988D01*
X106840506Y-114446982D01*
X106738017Y-114344493D01*
X106738011Y-114344488D01*
X106612488Y-114272017D01*
X106612489Y-114272017D01*
X106601006Y-114268940D01*
X106472475Y-114234500D01*
X106327525Y-114234500D01*
X106198993Y-114268940D01*
X106187511Y-114272017D01*
X106061988Y-114344488D01*
X106061982Y-114344493D01*
X105959493Y-114446982D01*
X105959488Y-114446988D01*
X105887017Y-114572511D01*
X105887016Y-114572515D01*
X105849500Y-114712525D01*
X101879208Y-114712525D01*
X101792139Y-114582218D01*
X101792136Y-114582214D01*
X101652785Y-114442863D01*
X101652781Y-114442860D01*
X101488920Y-114333371D01*
X101488907Y-114333364D01*
X101306839Y-114257950D01*
X101306829Y-114257947D01*
X101113543Y-114219500D01*
X101113541Y-114219500D01*
X99916459Y-114219500D01*
X99916457Y-114219500D01*
X99723170Y-114257947D01*
X99723160Y-114257950D01*
X99541092Y-114333364D01*
X99541079Y-114333371D01*
X99377218Y-114442860D01*
X99377214Y-114442863D01*
X99237863Y-114582214D01*
X99237860Y-114582218D01*
X99128371Y-114746079D01*
X99128364Y-114746092D01*
X99052950Y-114928160D01*
X99052947Y-114928170D01*
X99014500Y-115121456D01*
X99014500Y-115121459D01*
X99014500Y-115318541D01*
X99014500Y-115318543D01*
X99014499Y-115318543D01*
X91500500Y-115318543D01*
X91500500Y-114344108D01*
X97399500Y-114344108D01*
X97399500Y-114475891D01*
X97433608Y-114603187D01*
X97460925Y-114650500D01*
X97499500Y-114717314D01*
X97592686Y-114810500D01*
X97706814Y-114876392D01*
X97834108Y-114910500D01*
X97834110Y-114910500D01*
X97965890Y-114910500D01*
X97965892Y-114910500D01*
X98093186Y-114876392D01*
X98207314Y-114810500D01*
X98300500Y-114717314D01*
X98366392Y-114603186D01*
X98400500Y-114475892D01*
X98400500Y-114344108D01*
X98366392Y-114216814D01*
X98366391Y-114216812D01*
X98364288Y-114208963D01*
X98365630Y-114208603D01*
X98359084Y-114147744D01*
X98390355Y-114085263D01*
X98450442Y-114049607D01*
X98520268Y-114052097D01*
X98556600Y-114071377D01*
X98561985Y-114075509D01*
X98687511Y-114147982D01*
X98687512Y-114147982D01*
X98687515Y-114147984D01*
X98827525Y-114185500D01*
X98827528Y-114185500D01*
X98972472Y-114185500D01*
X98972475Y-114185500D01*
X99112485Y-114147984D01*
X99238015Y-114075509D01*
X99340509Y-113973015D01*
X99412984Y-113847485D01*
X99450500Y-113707475D01*
X99450500Y-113707471D01*
X99451561Y-113699415D01*
X99454857Y-113699849D01*
X99470185Y-113647649D01*
X99522989Y-113601894D01*
X99592147Y-113591950D01*
X99621946Y-113600125D01*
X99723165Y-113642051D01*
X99723169Y-113642051D01*
X99723170Y-113642052D01*
X99916456Y-113680500D01*
X99916459Y-113680500D01*
X101113543Y-113680500D01*
X101278692Y-113647649D01*
X101306835Y-113642051D01*
X101488914Y-113566632D01*
X101652782Y-113457139D01*
X101765813Y-113344108D01*
X109529500Y-113344108D01*
X109529500Y-113475891D01*
X109563608Y-113603187D01*
X109586046Y-113642050D01*
X109629500Y-113717314D01*
X109722686Y-113810500D01*
X109836814Y-113876392D01*
X109964108Y-113910500D01*
X109964110Y-113910500D01*
X110095890Y-113910500D01*
X110095892Y-113910500D01*
X110223186Y-113876392D01*
X110337314Y-113810500D01*
X110430500Y-113717314D01*
X110496392Y-113603186D01*
X110530500Y-113475892D01*
X110530500Y-113475890D01*
X110532603Y-113468042D01*
X110534109Y-113468445D01*
X110558631Y-113413012D01*
X110565612Y-113405424D01*
X110879218Y-113091819D01*
X110940541Y-113058334D01*
X110966899Y-113055500D01*
X118724750Y-113055500D01*
X118791789Y-113075185D01*
X118837544Y-113127989D01*
X118839297Y-113132016D01*
X118846558Y-113149546D01*
X118848367Y-113153912D01*
X118848371Y-113153919D01*
X118957860Y-113317782D01*
X119097214Y-113457136D01*
X119097218Y-113457139D01*
X119261079Y-113566628D01*
X119261092Y-113566635D01*
X119349338Y-113603187D01*
X119443165Y-113642051D01*
X119443169Y-113642051D01*
X119443170Y-113642052D01*
X119636456Y-113680500D01*
X119636459Y-113680500D01*
X120833543Y-113680500D01*
X120998692Y-113647649D01*
X121026835Y-113642051D01*
X121208914Y-113566632D01*
X121372782Y-113457139D01*
X121512139Y-113317782D01*
X121621632Y-113153914D01*
X121634845Y-113122016D01*
X121697049Y-112971839D01*
X121697051Y-112971835D01*
X121735500Y-112778541D01*
X121735500Y-112581459D01*
X121735500Y-112581456D01*
X121697052Y-112388170D01*
X121697051Y-112388169D01*
X121697051Y-112388165D01*
X121672996Y-112330090D01*
X121621635Y-112206092D01*
X121621628Y-112206079D01*
X121512139Y-112042218D01*
X121512136Y-112042214D01*
X121372785Y-111902863D01*
X121372781Y-111902860D01*
X121208920Y-111793371D01*
X121208907Y-111793364D01*
X121026839Y-111717950D01*
X121026829Y-111717947D01*
X120833543Y-111679500D01*
X120833541Y-111679500D01*
X119636459Y-111679500D01*
X119636457Y-111679500D01*
X119443170Y-111717947D01*
X119443160Y-111717950D01*
X119261092Y-111793364D01*
X119261079Y-111793371D01*
X119097218Y-111902860D01*
X119097214Y-111902863D01*
X118957860Y-112042217D01*
X118848371Y-112206080D01*
X118848367Y-112206087D01*
X118844469Y-112215499D01*
X118839310Y-112227952D01*
X118795471Y-112282355D01*
X118729177Y-112304421D01*
X118724750Y-112304500D01*
X110710564Y-112304500D01*
X110662812Y-112317295D01*
X110662811Y-112317294D01*
X110615063Y-112330089D01*
X110615062Y-112330089D01*
X110547530Y-112369079D01*
X110533024Y-112377455D01*
X110529435Y-112379527D01*
X110034587Y-112874375D01*
X109973264Y-112907860D01*
X109964574Y-112909375D01*
X109836812Y-112943608D01*
X109722686Y-113009500D01*
X109722683Y-113009502D01*
X109629502Y-113102683D01*
X109629500Y-113102686D01*
X109563608Y-113216812D01*
X109529500Y-113344108D01*
X101765813Y-113344108D01*
X101792139Y-113317782D01*
X101808460Y-113293355D01*
X101826011Y-113267090D01*
X101901628Y-113153920D01*
X101901628Y-113153919D01*
X101901632Y-113153914D01*
X101914845Y-113122016D01*
X101977049Y-112971839D01*
X101977051Y-112971835D01*
X102015500Y-112778541D01*
X102015500Y-112581459D01*
X102015500Y-112581456D01*
X101977052Y-112388170D01*
X101977051Y-112388169D01*
X101977051Y-112388165D01*
X101952996Y-112330090D01*
X101901635Y-112206092D01*
X101901628Y-112206079D01*
X101792139Y-112042218D01*
X101792136Y-112042214D01*
X101652785Y-111902863D01*
X101652781Y-111902860D01*
X101488920Y-111793371D01*
X101488907Y-111793364D01*
X101397594Y-111755542D01*
X101306839Y-111717950D01*
X101306829Y-111717947D01*
X101113543Y-111679500D01*
X101113541Y-111679500D01*
X99916459Y-111679500D01*
X99916457Y-111679500D01*
X99723170Y-111717947D01*
X99723160Y-111717950D01*
X99541092Y-111793364D01*
X99541079Y-111793371D01*
X99377218Y-111902860D01*
X99377214Y-111902863D01*
X99237863Y-112042214D01*
X99237860Y-112042218D01*
X99128371Y-112206079D01*
X99128364Y-112206092D01*
X99052950Y-112388160D01*
X99052947Y-112388170D01*
X99014500Y-112581456D01*
X99014500Y-112581459D01*
X99014500Y-112778541D01*
X99014500Y-112778543D01*
X99014499Y-112778543D01*
X99045882Y-112936308D01*
X99039655Y-113005900D01*
X98996792Y-113061077D01*
X98930903Y-113084322D01*
X98924265Y-113084500D01*
X98827525Y-113084500D01*
X98698993Y-113118940D01*
X98687511Y-113122017D01*
X98561988Y-113194488D01*
X98561982Y-113194493D01*
X98459493Y-113296982D01*
X98459488Y-113296988D01*
X98387017Y-113422511D01*
X98387016Y-113422515D01*
X98349500Y-113562525D01*
X98349500Y-113707475D01*
X98354822Y-113727335D01*
X98387017Y-113847489D01*
X98390128Y-113854999D01*
X98388522Y-113855663D01*
X98402663Y-113913967D01*
X98379806Y-113979992D01*
X98324882Y-114023179D01*
X98255329Y-114029816D01*
X98215347Y-114011840D01*
X98214352Y-114013564D01*
X98207315Y-114009501D01*
X98207314Y-114009500D01*
X98144120Y-113973015D01*
X98093187Y-113943608D01*
X98029539Y-113926554D01*
X97965892Y-113909500D01*
X97834108Y-113909500D01*
X97706812Y-113943608D01*
X97592686Y-114009500D01*
X97592683Y-114009502D01*
X97499502Y-114102683D01*
X97499500Y-114102686D01*
X97433608Y-114216812D01*
X97399500Y-114344108D01*
X91500500Y-114344108D01*
X91500500Y-111649108D01*
X105624500Y-111649108D01*
X105624500Y-111780892D01*
X105633275Y-111813642D01*
X105658608Y-111908187D01*
X105670855Y-111929399D01*
X105724500Y-112022314D01*
X105817686Y-112115500D01*
X105931814Y-112181392D01*
X106059108Y-112215500D01*
X106059110Y-112215500D01*
X106190890Y-112215500D01*
X106190892Y-112215500D01*
X106318186Y-112181392D01*
X106432314Y-112115500D01*
X106525500Y-112022314D01*
X106591392Y-111908186D01*
X106625500Y-111780892D01*
X106625500Y-111649108D01*
X106591392Y-111521814D01*
X106589182Y-111517987D01*
X106558696Y-111465183D01*
X106525500Y-111407686D01*
X106432314Y-111314500D01*
X106375250Y-111281554D01*
X106318187Y-111248608D01*
X106254539Y-111231554D01*
X106190892Y-111214500D01*
X106059108Y-111214500D01*
X105931812Y-111248608D01*
X105817686Y-111314500D01*
X105817683Y-111314502D01*
X105724502Y-111407683D01*
X105724500Y-111407686D01*
X105658608Y-111521812D01*
X105645831Y-111569499D01*
X105624500Y-111649108D01*
X91500500Y-111649108D01*
X91500500Y-109719108D01*
X98149500Y-109719108D01*
X98149500Y-109850891D01*
X98183608Y-109978187D01*
X98216554Y-110035250D01*
X98249500Y-110092314D01*
X98342686Y-110185500D01*
X98456814Y-110251392D01*
X98584108Y-110285500D01*
X98584110Y-110285500D01*
X98715890Y-110285500D01*
X98715892Y-110285500D01*
X98843186Y-110251392D01*
X98849281Y-110247872D01*
X98917181Y-110231397D01*
X98983209Y-110254246D01*
X99026402Y-110309166D01*
X99032903Y-110331064D01*
X99052947Y-110431830D01*
X99052950Y-110431839D01*
X99128364Y-110613907D01*
X99128371Y-110613920D01*
X99237860Y-110777781D01*
X99237863Y-110777785D01*
X99377214Y-110917136D01*
X99377218Y-110917139D01*
X99541079Y-111026628D01*
X99541092Y-111026635D01*
X99723160Y-111102049D01*
X99723165Y-111102051D01*
X99723169Y-111102051D01*
X99723170Y-111102052D01*
X99916456Y-111140500D01*
X99916459Y-111140500D01*
X101113543Y-111140500D01*
X101243582Y-111114632D01*
X101306835Y-111102051D01*
X101488914Y-111026632D01*
X101652782Y-110917139D01*
X101792139Y-110777782D01*
X101901632Y-110613914D01*
X101977051Y-110431835D01*
X102006159Y-110285500D01*
X102015500Y-110238543D01*
X118734499Y-110238543D01*
X118772947Y-110431829D01*
X118772950Y-110431839D01*
X118848364Y-110613907D01*
X118848371Y-110613920D01*
X118957860Y-110777781D01*
X118957863Y-110777785D01*
X119097214Y-110917136D01*
X119097218Y-110917139D01*
X119261079Y-111026628D01*
X119261092Y-111026635D01*
X119443160Y-111102049D01*
X119443165Y-111102051D01*
X119443169Y-111102051D01*
X119443170Y-111102052D01*
X119636456Y-111140500D01*
X119636459Y-111140500D01*
X120833543Y-111140500D01*
X120963582Y-111114632D01*
X121026835Y-111102051D01*
X121208914Y-111026632D01*
X121372782Y-110917139D01*
X121512139Y-110777782D01*
X121621632Y-110613914D01*
X121697051Y-110431835D01*
X121726159Y-110285500D01*
X121735500Y-110238543D01*
X121735500Y-110041456D01*
X121697052Y-109848170D01*
X121697051Y-109848169D01*
X121697051Y-109848165D01*
X121656888Y-109751202D01*
X121621635Y-109666092D01*
X121621628Y-109666079D01*
X121512139Y-109502218D01*
X121512136Y-109502214D01*
X121372785Y-109362863D01*
X121372781Y-109362860D01*
X121208920Y-109253371D01*
X121208907Y-109253364D01*
X121026839Y-109177950D01*
X121026829Y-109177947D01*
X120833543Y-109139500D01*
X120833541Y-109139500D01*
X119636459Y-109139500D01*
X119636457Y-109139500D01*
X119443170Y-109177947D01*
X119443160Y-109177950D01*
X119261092Y-109253364D01*
X119261079Y-109253371D01*
X119097218Y-109362860D01*
X119097214Y-109362863D01*
X118957863Y-109502214D01*
X118957860Y-109502218D01*
X118848371Y-109666079D01*
X118848364Y-109666092D01*
X118772950Y-109848160D01*
X118772947Y-109848170D01*
X118734500Y-110041456D01*
X118734500Y-110041459D01*
X118734500Y-110238541D01*
X118734500Y-110238543D01*
X118734499Y-110238543D01*
X102015500Y-110238543D01*
X102015500Y-110041456D01*
X101977052Y-109848170D01*
X101977051Y-109848169D01*
X101977051Y-109848165D01*
X101936888Y-109751202D01*
X101901635Y-109666092D01*
X101901628Y-109666079D01*
X101792139Y-109502218D01*
X101792136Y-109502214D01*
X101652785Y-109362863D01*
X101652781Y-109362860D01*
X101488920Y-109253371D01*
X101488907Y-109253364D01*
X101306839Y-109177950D01*
X101306829Y-109177947D01*
X101113543Y-109139500D01*
X101113541Y-109139500D01*
X99916459Y-109139500D01*
X99916457Y-109139500D01*
X99723170Y-109177947D01*
X99723160Y-109177950D01*
X99595640Y-109230770D01*
X99526170Y-109238239D01*
X99463691Y-109206963D01*
X99428040Y-109146874D01*
X99430534Y-109077049D01*
X99440807Y-109054199D01*
X99441391Y-109053187D01*
X99441392Y-109053186D01*
X99475500Y-108925892D01*
X99475500Y-108794108D01*
X99441392Y-108666814D01*
X99441390Y-108666811D01*
X99439717Y-108660565D01*
X99441380Y-108590716D01*
X99480543Y-108532853D01*
X99544771Y-108505349D01*
X99606943Y-108513910D01*
X99723165Y-108562051D01*
X99723169Y-108562051D01*
X99723170Y-108562052D01*
X99916456Y-108600500D01*
X99916459Y-108600500D01*
X101113543Y-108600500D01*
X101243582Y-108574632D01*
X101306835Y-108562051D01*
X101488914Y-108486632D01*
X101652782Y-108377139D01*
X101792139Y-108237782D01*
X101901632Y-108073914D01*
X101977051Y-107891835D01*
X102015500Y-107698543D01*
X118734499Y-107698543D01*
X118772947Y-107891829D01*
X118772950Y-107891839D01*
X118848364Y-108073907D01*
X118848371Y-108073920D01*
X118957860Y-108237781D01*
X118957863Y-108237785D01*
X119097214Y-108377136D01*
X119097218Y-108377139D01*
X119261079Y-108486628D01*
X119261092Y-108486635D01*
X119443160Y-108562049D01*
X119443165Y-108562051D01*
X119443169Y-108562051D01*
X119443170Y-108562052D01*
X119636456Y-108600500D01*
X119636459Y-108600500D01*
X120833543Y-108600500D01*
X120963582Y-108574632D01*
X121026835Y-108562051D01*
X121208914Y-108486632D01*
X121372782Y-108377139D01*
X121512139Y-108237782D01*
X121621632Y-108073914D01*
X121697051Y-107891835D01*
X121735500Y-107698541D01*
X121735500Y-107501459D01*
X121735500Y-107501456D01*
X121697052Y-107308170D01*
X121697051Y-107308169D01*
X121697051Y-107308165D01*
X121633402Y-107154501D01*
X121621635Y-107126092D01*
X121621628Y-107126079D01*
X121512139Y-106962218D01*
X121512136Y-106962214D01*
X121372785Y-106822863D01*
X121372781Y-106822860D01*
X121208920Y-106713371D01*
X121208907Y-106713364D01*
X121026839Y-106637950D01*
X121026829Y-106637947D01*
X120833543Y-106599500D01*
X120833541Y-106599500D01*
X119636459Y-106599500D01*
X119636457Y-106599500D01*
X119443170Y-106637947D01*
X119443160Y-106637950D01*
X119261092Y-106713364D01*
X119261079Y-106713371D01*
X119097218Y-106822860D01*
X119097214Y-106822863D01*
X118957863Y-106962214D01*
X118957860Y-106962218D01*
X118848371Y-107126079D01*
X118848364Y-107126092D01*
X118772950Y-107308160D01*
X118772947Y-107308170D01*
X118734500Y-107501456D01*
X118734500Y-107501459D01*
X118734500Y-107698541D01*
X118734500Y-107698543D01*
X118734499Y-107698543D01*
X102015500Y-107698543D01*
X102015500Y-107698541D01*
X102015500Y-107501459D01*
X102015500Y-107501456D01*
X101977052Y-107308170D01*
X101977051Y-107308169D01*
X101977051Y-107308165D01*
X101913402Y-107154501D01*
X101901635Y-107126092D01*
X101901628Y-107126079D01*
X101792139Y-106962218D01*
X101792136Y-106962214D01*
X101652785Y-106822863D01*
X101652781Y-106822860D01*
X101488920Y-106713371D01*
X101488907Y-106713364D01*
X101306839Y-106637950D01*
X101306829Y-106637947D01*
X101113543Y-106599500D01*
X101113541Y-106599500D01*
X99916459Y-106599500D01*
X99916457Y-106599500D01*
X99723170Y-106637947D01*
X99723160Y-106637950D01*
X99541092Y-106713364D01*
X99541074Y-106713374D01*
X99535811Y-106716891D01*
X99469133Y-106737766D01*
X99401754Y-106719279D01*
X99355066Y-106667298D01*
X99343892Y-106598327D01*
X99347146Y-106581709D01*
X99375500Y-106475892D01*
X99375500Y-106344108D01*
X99341392Y-106216814D01*
X99275500Y-106102686D01*
X99182314Y-106009500D01*
X99125250Y-105976554D01*
X99068187Y-105943608D01*
X99004539Y-105926554D01*
X98940892Y-105909500D01*
X98809108Y-105909500D01*
X98681812Y-105943608D01*
X98567686Y-106009500D01*
X98567683Y-106009502D01*
X98474502Y-106102683D01*
X98474500Y-106102686D01*
X98408608Y-106216812D01*
X98374500Y-106344108D01*
X98374500Y-106475891D01*
X98408608Y-106603187D01*
X98428677Y-106637947D01*
X98474500Y-106717314D01*
X98567686Y-106810500D01*
X98681814Y-106876392D01*
X98809108Y-106910500D01*
X98809110Y-106910500D01*
X98940889Y-106910500D01*
X98940892Y-106910500D01*
X99026487Y-106887565D01*
X99096333Y-106889228D01*
X99154196Y-106928390D01*
X99181700Y-106992618D01*
X99170114Y-107061521D01*
X99161680Y-107076230D01*
X99128370Y-107126081D01*
X99128364Y-107126092D01*
X99052950Y-107308160D01*
X99052947Y-107308170D01*
X99014500Y-107501456D01*
X99014500Y-107501459D01*
X99014500Y-107698541D01*
X99014500Y-107698543D01*
X99014499Y-107698543D01*
X99052947Y-107891829D01*
X99052950Y-107891839D01*
X99128364Y-108073907D01*
X99128370Y-108073918D01*
X99196844Y-108176397D01*
X99217721Y-108243074D01*
X99199236Y-108310454D01*
X99147257Y-108357144D01*
X99078287Y-108368320D01*
X99061657Y-108365064D01*
X99040892Y-108359500D01*
X98909108Y-108359500D01*
X98781812Y-108393608D01*
X98667686Y-108459500D01*
X98667683Y-108459502D01*
X98574502Y-108552683D01*
X98574500Y-108552686D01*
X98508608Y-108666812D01*
X98482957Y-108762544D01*
X98474500Y-108794108D01*
X98474500Y-108925892D01*
X98508608Y-109053186D01*
X98553580Y-109131080D01*
X98570053Y-109198978D01*
X98547201Y-109265005D01*
X98492280Y-109308196D01*
X98478290Y-109312853D01*
X98456813Y-109318608D01*
X98342686Y-109384500D01*
X98342683Y-109384502D01*
X98249502Y-109477683D01*
X98249500Y-109477686D01*
X98183608Y-109591812D01*
X98149500Y-109719108D01*
X91500500Y-109719108D01*
X91500500Y-105158543D01*
X99014499Y-105158543D01*
X99052947Y-105351829D01*
X99052950Y-105351839D01*
X99128364Y-105533907D01*
X99128371Y-105533920D01*
X99237860Y-105697781D01*
X99237863Y-105697785D01*
X99377214Y-105837136D01*
X99377218Y-105837139D01*
X99541079Y-105946628D01*
X99541092Y-105946635D01*
X99715350Y-106018814D01*
X99723165Y-106022051D01*
X99723169Y-106022051D01*
X99723170Y-106022052D01*
X99916456Y-106060500D01*
X99916459Y-106060500D01*
X101113543Y-106060500D01*
X101291079Y-106025185D01*
X101306835Y-106022051D01*
X101488914Y-105946632D01*
X101652782Y-105837139D01*
X101792139Y-105697782D01*
X101901632Y-105533914D01*
X101977051Y-105351835D01*
X101996412Y-105254500D01*
X102015500Y-105158543D01*
X102015500Y-104961456D01*
X101977052Y-104768170D01*
X101977051Y-104768169D01*
X101977051Y-104768165D01*
X101952996Y-104710090D01*
X101901635Y-104586092D01*
X101901628Y-104586079D01*
X101792139Y-104422218D01*
X101792136Y-104422214D01*
X101652785Y-104282863D01*
X101652781Y-104282860D01*
X101488920Y-104173371D01*
X101488907Y-104173364D01*
X101306839Y-104097950D01*
X101306829Y-104097947D01*
X101113543Y-104059500D01*
X101113541Y-104059500D01*
X99916459Y-104059500D01*
X99916457Y-104059500D01*
X99723170Y-104097947D01*
X99723160Y-104097950D01*
X99541092Y-104173364D01*
X99541079Y-104173371D01*
X99377218Y-104282860D01*
X99377214Y-104282863D01*
X99237863Y-104422214D01*
X99237860Y-104422218D01*
X99128371Y-104586079D01*
X99128364Y-104586092D01*
X99052950Y-104768160D01*
X99052947Y-104768170D01*
X99014500Y-104961456D01*
X99014500Y-104961459D01*
X99014500Y-105158541D01*
X99014500Y-105158543D01*
X99014499Y-105158543D01*
X91500500Y-105158543D01*
X91500500Y-102618543D01*
X99014499Y-102618543D01*
X99052947Y-102811829D01*
X99052950Y-102811839D01*
X99128364Y-102993907D01*
X99128371Y-102993920D01*
X99237860Y-103157781D01*
X99237863Y-103157785D01*
X99377214Y-103297136D01*
X99377218Y-103297139D01*
X99541079Y-103406628D01*
X99541092Y-103406635D01*
X99683207Y-103465500D01*
X99723165Y-103482051D01*
X99723169Y-103482051D01*
X99723170Y-103482052D01*
X99916456Y-103520500D01*
X99916459Y-103520500D01*
X101113543Y-103520500D01*
X101291079Y-103485185D01*
X101306835Y-103482051D01*
X101488914Y-103406632D01*
X101652782Y-103297139D01*
X101792139Y-103157782D01*
X101901632Y-102993914D01*
X101977051Y-102811835D01*
X101989632Y-102748582D01*
X102015500Y-102618543D01*
X102015500Y-102421456D01*
X101977052Y-102228170D01*
X101977051Y-102228169D01*
X101977051Y-102228165D01*
X101913402Y-102074501D01*
X101901635Y-102046092D01*
X101901628Y-102046079D01*
X101792139Y-101882218D01*
X101792136Y-101882214D01*
X101652785Y-101742863D01*
X101652781Y-101742860D01*
X101488920Y-101633371D01*
X101488907Y-101633364D01*
X101306839Y-101557950D01*
X101306829Y-101557947D01*
X101113543Y-101519500D01*
X101113541Y-101519500D01*
X99916459Y-101519500D01*
X99916457Y-101519500D01*
X99723170Y-101557947D01*
X99723160Y-101557950D01*
X99541092Y-101633364D01*
X99541079Y-101633371D01*
X99377218Y-101742860D01*
X99377214Y-101742863D01*
X99237863Y-101882214D01*
X99237860Y-101882218D01*
X99128371Y-102046079D01*
X99128364Y-102046092D01*
X99052950Y-102228160D01*
X99052947Y-102228170D01*
X99014500Y-102421456D01*
X99014500Y-102421459D01*
X99014500Y-102618541D01*
X99014500Y-102618543D01*
X99014499Y-102618543D01*
X91500500Y-102618543D01*
X91500500Y-94794108D01*
X97474500Y-94794108D01*
X97474500Y-94925891D01*
X97508608Y-95053187D01*
X97524785Y-95081205D01*
X97574500Y-95167314D01*
X97667686Y-95260500D01*
X97781814Y-95326392D01*
X97909108Y-95360500D01*
X97909110Y-95360500D01*
X98040890Y-95360500D01*
X98040892Y-95360500D01*
X98168186Y-95326392D01*
X98282314Y-95260500D01*
X98375500Y-95167314D01*
X98441392Y-95053186D01*
X98475500Y-94925892D01*
X98475500Y-94794108D01*
X98441392Y-94666814D01*
X98375500Y-94552686D01*
X98282314Y-94459500D01*
X98209253Y-94417318D01*
X98168187Y-94393608D01*
X98066266Y-94366299D01*
X98040892Y-94359500D01*
X97909108Y-94359500D01*
X97781812Y-94393608D01*
X97667686Y-94459500D01*
X97667683Y-94459502D01*
X97574502Y-94552683D01*
X97574500Y-94552686D01*
X97508608Y-94666812D01*
X97474500Y-94794108D01*
X91500500Y-94794108D01*
X91500500Y-92594108D01*
X97374500Y-92594108D01*
X97374500Y-92725892D01*
X97383505Y-92759500D01*
X97408608Y-92853187D01*
X97414039Y-92862593D01*
X97474500Y-92967314D01*
X97567686Y-93060500D01*
X97681814Y-93126392D01*
X97809108Y-93160500D01*
X97809110Y-93160500D01*
X97940890Y-93160500D01*
X97940892Y-93160500D01*
X98068186Y-93126392D01*
X98182314Y-93060500D01*
X98275500Y-92967314D01*
X98341392Y-92853186D01*
X98375500Y-92725892D01*
X98375500Y-92594108D01*
X98341392Y-92466814D01*
X98336617Y-92458543D01*
X99014499Y-92458543D01*
X99052947Y-92651829D01*
X99052950Y-92651839D01*
X99128364Y-92833907D01*
X99128371Y-92833920D01*
X99237860Y-92997781D01*
X99237863Y-92997785D01*
X99377214Y-93137136D01*
X99377218Y-93137139D01*
X99541079Y-93246628D01*
X99541092Y-93246635D01*
X99723160Y-93322049D01*
X99723165Y-93322051D01*
X99723169Y-93322051D01*
X99723170Y-93322052D01*
X99916456Y-93360500D01*
X99916459Y-93360500D01*
X101113543Y-93360500D01*
X101291079Y-93325185D01*
X101306835Y-93322051D01*
X101488914Y-93246632D01*
X101652782Y-93137139D01*
X101792139Y-92997782D01*
X101861412Y-92894108D01*
X106624500Y-92894108D01*
X106624500Y-93025891D01*
X106658608Y-93153187D01*
X106681946Y-93193608D01*
X106724500Y-93267314D01*
X106817686Y-93360500D01*
X106931814Y-93426392D01*
X107059108Y-93460500D01*
X107059109Y-93460500D01*
X107066958Y-93462603D01*
X107066554Y-93464109D01*
X107121988Y-93488633D01*
X107129587Y-93495624D01*
X107194525Y-93560562D01*
X107264438Y-93630475D01*
X107345219Y-93677114D01*
X107350062Y-93679910D01*
X107397811Y-93692705D01*
X107397812Y-93692705D01*
X107407903Y-93695408D01*
X107445564Y-93705500D01*
X107445565Y-93705500D01*
X107445566Y-93705500D01*
X110227651Y-93705500D01*
X110294690Y-93725185D01*
X110340445Y-93777989D01*
X110350389Y-93847147D01*
X110321364Y-93910703D01*
X110282687Y-93938591D01*
X110283237Y-93939544D01*
X110162070Y-94009500D01*
X110162067Y-94009502D01*
X110068886Y-94102683D01*
X110068884Y-94102686D01*
X110002992Y-94216812D01*
X109972530Y-94330500D01*
X109968884Y-94344108D01*
X109968884Y-94475892D01*
X109978157Y-94510499D01*
X110002992Y-94603187D01*
X110035938Y-94660250D01*
X110068884Y-94717314D01*
X110162070Y-94810500D01*
X110276198Y-94876392D01*
X110403492Y-94910500D01*
X110403494Y-94910500D01*
X110535274Y-94910500D01*
X110535276Y-94910500D01*
X110662570Y-94876392D01*
X110776698Y-94810500D01*
X110869884Y-94717314D01*
X110935776Y-94603186D01*
X110969884Y-94475892D01*
X110969884Y-94344108D01*
X110935776Y-94216814D01*
X110931420Y-94209270D01*
X110907851Y-94168447D01*
X110869884Y-94102686D01*
X110776698Y-94009500D01*
X110709323Y-93970601D01*
X110662571Y-93943608D01*
X110598923Y-93926554D01*
X110535276Y-93909500D01*
X110477551Y-93909500D01*
X110474621Y-93908639D01*
X110471652Y-93909360D01*
X110441305Y-93898857D01*
X110410512Y-93889815D01*
X110408512Y-93887507D01*
X110405625Y-93886508D01*
X110385770Y-93861262D01*
X110364757Y-93837011D01*
X110364322Y-93833989D01*
X110362434Y-93831588D01*
X110359382Y-93799631D01*
X110354813Y-93767853D01*
X110356082Y-93765073D01*
X110355792Y-93762034D01*
X110370499Y-93733503D01*
X110383838Y-93704297D01*
X110386829Y-93701826D01*
X110387807Y-93699931D01*
X110415550Y-93678114D01*
X110417282Y-93677114D01*
X110479283Y-93660500D01*
X110503390Y-93660500D01*
X110503392Y-93660500D01*
X110630686Y-93626392D01*
X110744814Y-93560500D01*
X110838000Y-93467314D01*
X110903892Y-93353186D01*
X110938000Y-93225892D01*
X110938000Y-93094108D01*
X110903892Y-92966814D01*
X110896782Y-92954500D01*
X110882327Y-92929463D01*
X110838000Y-92852686D01*
X110744814Y-92759500D01*
X110686600Y-92725890D01*
X110630687Y-92693608D01*
X110567039Y-92676554D01*
X110503392Y-92659500D01*
X110371608Y-92659500D01*
X110244312Y-92693608D01*
X110130186Y-92759500D01*
X110130183Y-92759502D01*
X110037001Y-92852684D01*
X110036997Y-92852689D01*
X110014013Y-92892500D01*
X109963446Y-92940716D01*
X109906626Y-92954500D01*
X109118035Y-92954500D01*
X109050996Y-92934815D01*
X109005241Y-92882011D01*
X108995297Y-92812853D01*
X108998260Y-92798407D01*
X109006725Y-92766814D01*
X109013001Y-92743393D01*
X109013001Y-92611609D01*
X108978893Y-92484315D01*
X108913001Y-92370187D01*
X108819815Y-92277001D01*
X108762751Y-92244055D01*
X108705688Y-92211109D01*
X108640372Y-92193608D01*
X108578393Y-92177001D01*
X108446609Y-92177001D01*
X108319313Y-92211109D01*
X108205187Y-92277001D01*
X108205184Y-92277003D01*
X108112003Y-92370184D01*
X108112001Y-92370187D01*
X108046109Y-92484313D01*
X108027303Y-92554500D01*
X108012001Y-92611609D01*
X108012001Y-92743393D01*
X108018276Y-92766812D01*
X108026742Y-92798407D01*
X108026146Y-92823401D01*
X108029705Y-92848147D01*
X108025329Y-92857727D01*
X108025079Y-92868257D01*
X108011066Y-92888960D01*
X108000680Y-92911703D01*
X107991818Y-92917397D01*
X107985916Y-92926119D01*
X107962935Y-92935960D01*
X107941902Y-92949477D01*
X107926046Y-92951756D01*
X107921688Y-92953623D01*
X107906967Y-92954500D01*
X107736830Y-92954500D01*
X107669791Y-92934815D01*
X107624036Y-92882011D01*
X107617057Y-92862600D01*
X107591392Y-92766814D01*
X107525500Y-92652686D01*
X107432314Y-92559500D01*
X107360748Y-92518181D01*
X107318187Y-92493608D01*
X107218188Y-92466814D01*
X107190892Y-92459500D01*
X107059108Y-92459500D01*
X106931812Y-92493608D01*
X106817686Y-92559500D01*
X106817683Y-92559502D01*
X106724502Y-92652683D01*
X106724500Y-92652686D01*
X106658608Y-92766812D01*
X106624500Y-92894108D01*
X101861412Y-92894108D01*
X101901632Y-92833914D01*
X101977051Y-92651835D01*
X101996412Y-92554500D01*
X102015500Y-92458543D01*
X102015500Y-92261456D01*
X101977052Y-92068170D01*
X101977051Y-92068169D01*
X101977051Y-92068165D01*
X101972614Y-92057452D01*
X101901635Y-91886092D01*
X101901628Y-91886079D01*
X101792139Y-91722218D01*
X101792136Y-91722214D01*
X101652785Y-91582863D01*
X101652781Y-91582860D01*
X101488920Y-91473371D01*
X101488907Y-91473364D01*
X101306839Y-91397950D01*
X101306829Y-91397947D01*
X101113543Y-91359500D01*
X101113541Y-91359500D01*
X99916459Y-91359500D01*
X99916457Y-91359500D01*
X99723170Y-91397947D01*
X99723160Y-91397950D01*
X99541092Y-91473364D01*
X99541079Y-91473371D01*
X99377218Y-91582860D01*
X99377214Y-91582863D01*
X99237863Y-91722214D01*
X99237860Y-91722218D01*
X99128371Y-91886079D01*
X99128364Y-91886092D01*
X99052950Y-92068160D01*
X99052947Y-92068170D01*
X99014500Y-92261456D01*
X99014500Y-92261459D01*
X99014500Y-92458541D01*
X99014500Y-92458543D01*
X99014499Y-92458543D01*
X98336617Y-92458543D01*
X98275500Y-92352686D01*
X98182314Y-92259500D01*
X98098499Y-92211109D01*
X98068187Y-92193608D01*
X97990021Y-92172664D01*
X97940892Y-92159500D01*
X97809108Y-92159500D01*
X97681812Y-92193608D01*
X97567686Y-92259500D01*
X97567683Y-92259502D01*
X97474502Y-92352683D01*
X97474500Y-92352686D01*
X97408608Y-92466812D01*
X97374500Y-92594108D01*
X91500500Y-92594108D01*
X91500500Y-89754108D01*
X97124500Y-89754108D01*
X97124500Y-89885892D01*
X97133248Y-89918541D01*
X97158608Y-90013187D01*
X97181412Y-90052684D01*
X97224500Y-90127314D01*
X97317686Y-90220500D01*
X97431814Y-90286392D01*
X97559108Y-90320500D01*
X97559110Y-90320500D01*
X97690890Y-90320500D01*
X97690892Y-90320500D01*
X97818186Y-90286392D01*
X97932314Y-90220500D01*
X98025500Y-90127314D01*
X98091392Y-90013186D01*
X98116751Y-89918543D01*
X99014499Y-89918543D01*
X99052947Y-90111829D01*
X99052950Y-90111839D01*
X99128364Y-90293907D01*
X99128371Y-90293920D01*
X99237860Y-90457781D01*
X99237863Y-90457785D01*
X99377214Y-90597136D01*
X99377218Y-90597139D01*
X99541079Y-90706628D01*
X99541092Y-90706635D01*
X99683207Y-90765500D01*
X99723165Y-90782051D01*
X99723169Y-90782051D01*
X99723170Y-90782052D01*
X99916456Y-90820500D01*
X99916459Y-90820500D01*
X101113543Y-90820500D01*
X101243582Y-90794632D01*
X101306835Y-90782051D01*
X101488914Y-90706632D01*
X101652782Y-90597139D01*
X101792139Y-90457782D01*
X101801276Y-90444108D01*
X104724500Y-90444108D01*
X104724500Y-90575892D01*
X104730192Y-90597136D01*
X104758608Y-90703187D01*
X104787198Y-90752705D01*
X104824500Y-90817314D01*
X104917686Y-90910500D01*
X105031814Y-90976392D01*
X105159108Y-91010500D01*
X105159110Y-91010500D01*
X105290890Y-91010500D01*
X105290892Y-91010500D01*
X105418186Y-90976392D01*
X105532314Y-90910500D01*
X105532315Y-90910498D01*
X105539352Y-90906436D01*
X105540131Y-90907786D01*
X105596671Y-90885930D01*
X105606987Y-90885500D01*
X105959134Y-90885500D01*
X106026173Y-90905185D01*
X106071928Y-90957989D01*
X106081872Y-91027147D01*
X106052847Y-91090703D01*
X106021134Y-91116887D01*
X105912689Y-91179498D01*
X105912683Y-91179502D01*
X105819502Y-91272683D01*
X105819500Y-91272686D01*
X105753608Y-91386812D01*
X105719500Y-91514108D01*
X105719500Y-91645891D01*
X105753608Y-91773187D01*
X105763604Y-91790500D01*
X105819500Y-91887314D01*
X105912686Y-91980500D01*
X106026814Y-92046392D01*
X106154108Y-92080500D01*
X106154110Y-92080500D01*
X106285890Y-92080500D01*
X106285892Y-92080500D01*
X106413186Y-92046392D01*
X106527314Y-91980500D01*
X106620500Y-91887314D01*
X106686392Y-91773186D01*
X106720500Y-91645892D01*
X106720500Y-91514108D01*
X106686392Y-91386814D01*
X106620500Y-91272686D01*
X106527314Y-91179500D01*
X106467875Y-91145183D01*
X106418866Y-91116887D01*
X106370650Y-91066320D01*
X106357428Y-90997713D01*
X106383396Y-90932848D01*
X106440310Y-90892320D01*
X106480866Y-90885500D01*
X107223145Y-90885500D01*
X107290184Y-90905185D01*
X107335939Y-90957989D01*
X107345883Y-91027147D01*
X107330532Y-91071501D01*
X107319072Y-91091348D01*
X107295452Y-91179502D01*
X107284964Y-91218644D01*
X107284964Y-91350428D01*
X107287395Y-91359500D01*
X107319072Y-91477723D01*
X107352018Y-91534786D01*
X107384964Y-91591850D01*
X107478150Y-91685036D01*
X107592278Y-91750928D01*
X107719572Y-91785036D01*
X107719574Y-91785036D01*
X107851354Y-91785036D01*
X107851356Y-91785036D01*
X107978650Y-91750928D01*
X108092778Y-91685036D01*
X108185964Y-91591850D01*
X108251856Y-91477722D01*
X108285964Y-91350428D01*
X108285964Y-91218644D01*
X108251856Y-91091350D01*
X108251482Y-91090703D01*
X108240396Y-91071501D01*
X108223923Y-91003601D01*
X108246775Y-90937574D01*
X108301696Y-90894383D01*
X108347783Y-90885500D01*
X109769134Y-90885500D01*
X109836173Y-90905185D01*
X109881928Y-90957989D01*
X109891872Y-91027147D01*
X109862847Y-91090703D01*
X109831134Y-91116887D01*
X109722689Y-91179498D01*
X109722683Y-91179502D01*
X109629502Y-91272683D01*
X109629500Y-91272686D01*
X109563608Y-91386812D01*
X109529500Y-91514108D01*
X109529500Y-91645891D01*
X109563608Y-91773187D01*
X109573604Y-91790500D01*
X109629500Y-91887314D01*
X109722686Y-91980500D01*
X109836814Y-92046392D01*
X109964108Y-92080500D01*
X109964110Y-92080500D01*
X110095890Y-92080500D01*
X110095892Y-92080500D01*
X110223186Y-92046392D01*
X110337314Y-91980500D01*
X110430500Y-91887314D01*
X110496392Y-91773186D01*
X110530500Y-91645892D01*
X110530500Y-91514108D01*
X110496392Y-91386814D01*
X110430500Y-91272686D01*
X110337314Y-91179500D01*
X110277875Y-91145183D01*
X110228866Y-91116887D01*
X110180650Y-91066320D01*
X110167428Y-90997713D01*
X110193396Y-90932848D01*
X110250310Y-90892320D01*
X110290866Y-90885500D01*
X116274435Y-90885500D01*
X116274436Y-90885500D01*
X116322186Y-90872705D01*
X116351973Y-90864723D01*
X116384061Y-90860500D01*
X116440890Y-90860500D01*
X116440892Y-90860500D01*
X116568186Y-90826392D01*
X116682314Y-90760500D01*
X116775500Y-90667314D01*
X116841392Y-90553186D01*
X116875500Y-90425892D01*
X116875500Y-90294108D01*
X116841392Y-90166814D01*
X116775500Y-90052686D01*
X116682314Y-89959500D01*
X116611371Y-89918541D01*
X116568187Y-89893608D01*
X116504539Y-89876554D01*
X116440892Y-89859500D01*
X116309108Y-89859500D01*
X116181812Y-89893608D01*
X116067686Y-89959500D01*
X116067683Y-89959502D01*
X115974501Y-90052684D01*
X115974497Y-90052689D01*
X115963060Y-90072500D01*
X115912493Y-90120716D01*
X115855673Y-90134500D01*
X105606987Y-90134500D01*
X105539948Y-90114815D01*
X105532733Y-90109742D01*
X105418187Y-90043608D01*
X105309552Y-90014500D01*
X105290892Y-90009500D01*
X105159108Y-90009500D01*
X105031812Y-90043608D01*
X104917686Y-90109500D01*
X104917683Y-90109502D01*
X104824502Y-90202683D01*
X104824500Y-90202686D01*
X104758608Y-90316812D01*
X104729381Y-90425890D01*
X104724500Y-90444108D01*
X101801276Y-90444108D01*
X101824151Y-90409872D01*
X101852738Y-90367090D01*
X101901628Y-90293920D01*
X101901628Y-90293919D01*
X101901632Y-90293914D01*
X101977051Y-90111835D01*
X101997407Y-90009500D01*
X102015500Y-89918543D01*
X102015500Y-89721456D01*
X101977052Y-89528170D01*
X101977051Y-89528169D01*
X101977051Y-89528165D01*
X101972614Y-89517452D01*
X101901635Y-89346092D01*
X101901628Y-89346079D01*
X101792139Y-89182218D01*
X101792136Y-89182214D01*
X101652785Y-89042863D01*
X101652781Y-89042860D01*
X101488920Y-88933371D01*
X101488907Y-88933364D01*
X101306839Y-88857950D01*
X101306829Y-88857947D01*
X101113543Y-88819500D01*
X101113541Y-88819500D01*
X99916459Y-88819500D01*
X99916457Y-88819500D01*
X99723170Y-88857947D01*
X99723160Y-88857950D01*
X99541092Y-88933364D01*
X99541079Y-88933371D01*
X99377218Y-89042860D01*
X99377214Y-89042863D01*
X99237863Y-89182214D01*
X99237860Y-89182218D01*
X99128371Y-89346079D01*
X99128364Y-89346092D01*
X99052950Y-89528160D01*
X99052947Y-89528170D01*
X99014500Y-89721456D01*
X99014500Y-89721459D01*
X99014500Y-89918541D01*
X99014500Y-89918543D01*
X99014499Y-89918543D01*
X98116751Y-89918543D01*
X98125500Y-89885892D01*
X98125500Y-89754108D01*
X98091392Y-89626814D01*
X98025500Y-89512686D01*
X97932314Y-89419500D01*
X97834963Y-89363294D01*
X97818187Y-89353608D01*
X97754539Y-89336554D01*
X97690892Y-89319500D01*
X97559108Y-89319500D01*
X97431812Y-89353608D01*
X97317686Y-89419500D01*
X97317683Y-89419502D01*
X97224502Y-89512683D01*
X97224500Y-89512686D01*
X97158608Y-89626812D01*
X97124500Y-89754108D01*
X91500500Y-89754108D01*
X91500500Y-88293920D01*
X108504499Y-88293920D01*
X108533340Y-88438907D01*
X108533343Y-88438917D01*
X108589912Y-88575488D01*
X108589919Y-88575501D01*
X108672048Y-88698415D01*
X108672051Y-88698419D01*
X108776580Y-88802948D01*
X108776584Y-88802951D01*
X108899498Y-88885080D01*
X108899511Y-88885087D01*
X109001054Y-88927147D01*
X109036087Y-88941658D01*
X109036091Y-88941658D01*
X109036092Y-88941659D01*
X109181079Y-88970500D01*
X109181082Y-88970500D01*
X109328920Y-88970500D01*
X109426462Y-88951096D01*
X109473913Y-88941658D01*
X109597176Y-88890601D01*
X109610488Y-88885087D01*
X109610488Y-88885086D01*
X109610495Y-88885084D01*
X109733416Y-88802951D01*
X109837951Y-88698416D01*
X109920084Y-88575495D01*
X109976658Y-88438913D01*
X109986096Y-88391462D01*
X110005500Y-88293920D01*
X110005500Y-88146079D01*
X109976659Y-88001092D01*
X109976658Y-88001091D01*
X109976658Y-88001087D01*
X109960472Y-87962011D01*
X109920087Y-87864511D01*
X109920080Y-87864498D01*
X109837951Y-87741584D01*
X109837948Y-87741580D01*
X109733419Y-87637051D01*
X109733415Y-87637048D01*
X109610501Y-87554919D01*
X109610488Y-87554912D01*
X109473917Y-87498343D01*
X109473907Y-87498340D01*
X109328920Y-87469500D01*
X109328918Y-87469500D01*
X109181082Y-87469500D01*
X109181080Y-87469500D01*
X109036092Y-87498340D01*
X109036082Y-87498343D01*
X108899511Y-87554912D01*
X108899498Y-87554919D01*
X108776584Y-87637048D01*
X108776580Y-87637051D01*
X108672051Y-87741580D01*
X108672048Y-87741584D01*
X108589919Y-87864498D01*
X108589912Y-87864511D01*
X108533343Y-88001082D01*
X108533340Y-88001092D01*
X108504500Y-88146079D01*
X108504500Y-88146082D01*
X108504500Y-88293918D01*
X108504500Y-88293920D01*
X108504499Y-88293920D01*
X91500500Y-88293920D01*
X91500500Y-87494108D01*
X97074500Y-87494108D01*
X97074500Y-87625892D01*
X97077490Y-87637051D01*
X97108608Y-87753187D01*
X97141554Y-87810250D01*
X97174500Y-87867314D01*
X97267686Y-87960500D01*
X97381814Y-88026392D01*
X97509108Y-88060500D01*
X97509110Y-88060500D01*
X97640890Y-88060500D01*
X97640892Y-88060500D01*
X97768186Y-88026392D01*
X97882314Y-87960500D01*
X97975500Y-87867314D01*
X98041392Y-87753186D01*
X98075500Y-87625892D01*
X98075500Y-87494108D01*
X98041392Y-87366814D01*
X97975500Y-87252686D01*
X97882314Y-87159500D01*
X97825250Y-87126554D01*
X97768187Y-87093608D01*
X97699038Y-87075080D01*
X97640892Y-87059500D01*
X97509108Y-87059500D01*
X97381812Y-87093608D01*
X97267686Y-87159500D01*
X97267683Y-87159502D01*
X97174502Y-87252683D01*
X97174500Y-87252686D01*
X97108608Y-87366812D01*
X97081094Y-87469500D01*
X97074500Y-87494108D01*
X91500500Y-87494108D01*
X91500500Y-84490000D01*
X98738391Y-84490000D01*
X99781988Y-84490000D01*
X99749075Y-84547007D01*
X99715000Y-84674174D01*
X99715000Y-84805826D01*
X99749075Y-84932993D01*
X99781988Y-84990000D01*
X98738391Y-84990000D01*
X98747009Y-85044413D01*
X98810244Y-85239029D01*
X98903140Y-85421349D01*
X99023417Y-85586894D01*
X99023417Y-85586895D01*
X99168104Y-85731582D01*
X99333650Y-85851859D01*
X99515968Y-85944755D01*
X99710582Y-86007990D01*
X99899268Y-86037875D01*
X99962403Y-86067804D01*
X99999334Y-86127116D01*
X99998336Y-86196978D01*
X99959726Y-86255211D01*
X99904062Y-86281965D01*
X99723170Y-86317947D01*
X99723160Y-86317950D01*
X99541092Y-86393364D01*
X99541079Y-86393371D01*
X99377218Y-86502860D01*
X99377214Y-86502863D01*
X99237863Y-86642214D01*
X99237860Y-86642218D01*
X99128371Y-86806079D01*
X99128364Y-86806092D01*
X99052950Y-86988160D01*
X99052947Y-86988170D01*
X99014500Y-87181456D01*
X99014500Y-87181459D01*
X99014500Y-87378541D01*
X99014500Y-87378543D01*
X99014499Y-87378543D01*
X99052947Y-87571829D01*
X99052950Y-87571839D01*
X99128364Y-87753907D01*
X99128371Y-87753920D01*
X99237860Y-87917781D01*
X99237863Y-87917785D01*
X99377214Y-88057136D01*
X99377218Y-88057139D01*
X99541079Y-88166628D01*
X99541092Y-88166635D01*
X99683207Y-88225500D01*
X99723165Y-88242051D01*
X99723169Y-88242051D01*
X99723170Y-88242052D01*
X99916456Y-88280500D01*
X99916459Y-88280500D01*
X101113543Y-88280500D01*
X101291079Y-88245185D01*
X101306835Y-88242051D01*
X101488914Y-88166632D01*
X101652782Y-88057139D01*
X101652785Y-88057136D01*
X101657613Y-88052309D01*
X101792136Y-87917785D01*
X101792139Y-87917782D01*
X101901632Y-87753914D01*
X101977051Y-87571835D01*
X101997407Y-87469500D01*
X102015500Y-87378543D01*
X102015500Y-87369108D01*
X103374500Y-87369108D01*
X103374500Y-87500892D01*
X103388976Y-87554916D01*
X103408608Y-87628187D01*
X103413724Y-87637048D01*
X103474500Y-87742314D01*
X103567686Y-87835500D01*
X103681814Y-87901392D01*
X103809108Y-87935500D01*
X103809110Y-87935500D01*
X103940890Y-87935500D01*
X103940892Y-87935500D01*
X104068186Y-87901392D01*
X104182314Y-87835500D01*
X104275500Y-87742314D01*
X104341392Y-87628186D01*
X104375500Y-87500892D01*
X104375500Y-87369108D01*
X104341392Y-87241814D01*
X104275500Y-87127686D01*
X104182314Y-87034500D01*
X104110344Y-86992948D01*
X104068187Y-86968608D01*
X104004539Y-86951554D01*
X103940892Y-86934500D01*
X103809108Y-86934500D01*
X103681812Y-86968608D01*
X103567686Y-87034500D01*
X103567683Y-87034502D01*
X103474502Y-87127683D01*
X103474500Y-87127686D01*
X103408608Y-87241812D01*
X103396464Y-87287135D01*
X103374500Y-87369108D01*
X102015500Y-87369108D01*
X102015500Y-87181456D01*
X101977052Y-86988170D01*
X101977051Y-86988169D01*
X101977051Y-86988165D01*
X101968950Y-86968608D01*
X101901635Y-86806092D01*
X101901628Y-86806079D01*
X101792139Y-86642218D01*
X101792136Y-86642214D01*
X101652785Y-86502863D01*
X101652781Y-86502860D01*
X101488920Y-86393371D01*
X101488907Y-86393364D01*
X101306839Y-86317950D01*
X101306829Y-86317947D01*
X101125937Y-86281965D01*
X101064026Y-86249580D01*
X101029452Y-86188864D01*
X101033192Y-86119095D01*
X101074059Y-86062423D01*
X101130731Y-86037875D01*
X101319417Y-86007990D01*
X101514031Y-85944755D01*
X101696349Y-85851859D01*
X101861894Y-85731582D01*
X101861895Y-85731582D01*
X102006582Y-85586895D01*
X102006582Y-85586894D01*
X102126859Y-85421349D01*
X102219755Y-85239029D01*
X102282990Y-85044413D01*
X102291609Y-84990000D01*
X100648012Y-84990000D01*
X100680925Y-84932993D01*
X100715000Y-84805826D01*
X100715000Y-84674174D01*
X100680925Y-84547007D01*
X100648012Y-84490000D01*
X102291609Y-84490000D01*
X102282990Y-84435586D01*
X102219755Y-84240970D01*
X102126859Y-84058650D01*
X102006582Y-83893105D01*
X102006582Y-83893104D01*
X101861895Y-83748417D01*
X101696349Y-83628140D01*
X101514031Y-83535244D01*
X101319417Y-83472009D01*
X101130731Y-83442124D01*
X101067596Y-83412194D01*
X101030665Y-83352883D01*
X101031663Y-83283020D01*
X101070273Y-83224788D01*
X101125938Y-83198034D01*
X101306835Y-83162051D01*
X101488914Y-83086632D01*
X101652782Y-82977139D01*
X101792139Y-82837782D01*
X101901632Y-82673914D01*
X101977051Y-82491835D01*
X101996412Y-82394500D01*
X102015500Y-82298543D01*
X102015500Y-82101456D01*
X101977052Y-81908170D01*
X101977051Y-81908169D01*
X101977051Y-81908165D01*
X101913402Y-81754501D01*
X101901635Y-81726092D01*
X101901628Y-81726079D01*
X101792139Y-81562218D01*
X101792136Y-81562214D01*
X101652785Y-81422863D01*
X101652781Y-81422860D01*
X101488920Y-81313371D01*
X101488907Y-81313364D01*
X101306839Y-81237950D01*
X101306829Y-81237947D01*
X101113543Y-81199500D01*
X101113541Y-81199500D01*
X99916459Y-81199500D01*
X99916457Y-81199500D01*
X99723170Y-81237947D01*
X99723160Y-81237950D01*
X99541092Y-81313364D01*
X99541079Y-81313371D01*
X99377218Y-81422860D01*
X99377214Y-81422863D01*
X99237863Y-81562214D01*
X99237860Y-81562218D01*
X99128371Y-81726079D01*
X99128364Y-81726092D01*
X99052950Y-81908160D01*
X99052947Y-81908170D01*
X99014500Y-82101456D01*
X99014500Y-82101459D01*
X99014500Y-82298541D01*
X99014500Y-82298543D01*
X99014499Y-82298543D01*
X99052947Y-82491829D01*
X99052950Y-82491839D01*
X99128364Y-82673907D01*
X99128371Y-82673920D01*
X99237860Y-82837781D01*
X99237863Y-82837785D01*
X99377214Y-82977136D01*
X99377218Y-82977139D01*
X99541079Y-83086628D01*
X99541092Y-83086635D01*
X99655786Y-83134142D01*
X99723165Y-83162051D01*
X99823037Y-83181917D01*
X99904061Y-83198034D01*
X99965972Y-83230419D01*
X100000546Y-83291134D01*
X99996807Y-83360904D01*
X99955940Y-83417576D01*
X99899269Y-83442124D01*
X99710581Y-83472010D01*
X99515968Y-83535244D01*
X99333650Y-83628140D01*
X99168105Y-83748417D01*
X99168104Y-83748417D01*
X99023417Y-83893104D01*
X99023417Y-83893105D01*
X98903140Y-84058650D01*
X98810244Y-84240970D01*
X98747009Y-84435586D01*
X98738391Y-84490000D01*
X91500500Y-84490000D01*
X91500500Y-79758543D01*
X99014499Y-79758543D01*
X99052947Y-79951829D01*
X99052950Y-79951839D01*
X99128364Y-80133907D01*
X99128371Y-80133920D01*
X99237860Y-80297781D01*
X99237863Y-80297785D01*
X99377214Y-80437136D01*
X99377218Y-80437139D01*
X99541079Y-80546628D01*
X99541092Y-80546635D01*
X99723160Y-80622049D01*
X99723165Y-80622051D01*
X99723169Y-80622051D01*
X99723170Y-80622052D01*
X99916456Y-80660500D01*
X99916459Y-80660500D01*
X101113543Y-80660500D01*
X101243582Y-80634632D01*
X101306835Y-80622051D01*
X101488914Y-80546632D01*
X101652782Y-80437139D01*
X101792139Y-80297782D01*
X101897398Y-80140251D01*
X101951010Y-80095446D01*
X102020335Y-80086739D01*
X102083362Y-80116893D01*
X102120082Y-80176336D01*
X102124500Y-80209142D01*
X102124500Y-80225891D01*
X102158608Y-80353187D01*
X102191554Y-80410250D01*
X102224500Y-80467314D01*
X102317686Y-80560500D01*
X102431814Y-80626392D01*
X102559108Y-80660500D01*
X102559110Y-80660500D01*
X102690890Y-80660500D01*
X102690892Y-80660500D01*
X102818186Y-80626392D01*
X102932314Y-80560500D01*
X103025500Y-80467314D01*
X103091392Y-80353186D01*
X103125500Y-80225892D01*
X103125500Y-80094108D01*
X103091392Y-79966814D01*
X103025500Y-79852686D01*
X102932314Y-79759500D01*
X102875250Y-79726554D01*
X102818187Y-79693608D01*
X102754539Y-79676554D01*
X102690892Y-79659500D01*
X102559108Y-79659500D01*
X102431812Y-79693608D01*
X102317686Y-79759500D01*
X102317683Y-79759502D01*
X102227181Y-79850005D01*
X102165858Y-79883490D01*
X102096166Y-79878506D01*
X102040233Y-79836634D01*
X102015816Y-79771170D01*
X102015500Y-79762324D01*
X102015500Y-79561456D01*
X101977052Y-79368170D01*
X101977051Y-79368169D01*
X101977051Y-79368165D01*
X101977049Y-79368160D01*
X101901635Y-79186092D01*
X101901628Y-79186079D01*
X101792139Y-79022218D01*
X101792136Y-79022214D01*
X101652785Y-78882863D01*
X101652781Y-78882860D01*
X101488920Y-78773371D01*
X101488907Y-78773364D01*
X101306839Y-78697950D01*
X101306829Y-78697947D01*
X101113543Y-78659500D01*
X101113541Y-78659500D01*
X99916459Y-78659500D01*
X99916457Y-78659500D01*
X99723170Y-78697947D01*
X99723160Y-78697950D01*
X99541092Y-78773364D01*
X99541079Y-78773371D01*
X99377218Y-78882860D01*
X99377214Y-78882863D01*
X99237863Y-79022214D01*
X99237860Y-79022218D01*
X99128371Y-79186079D01*
X99128364Y-79186092D01*
X99052950Y-79368160D01*
X99052947Y-79368170D01*
X99014500Y-79561456D01*
X99014500Y-79561459D01*
X99014500Y-79758541D01*
X99014500Y-79758543D01*
X99014499Y-79758543D01*
X91500500Y-79758543D01*
X91500500Y-78394108D01*
X97074500Y-78394108D01*
X97074500Y-78525891D01*
X97108608Y-78653187D01*
X97141554Y-78710250D01*
X97174500Y-78767314D01*
X97267686Y-78860500D01*
X97381814Y-78926392D01*
X97509108Y-78960500D01*
X97509110Y-78960500D01*
X97640890Y-78960500D01*
X97640892Y-78960500D01*
X97768186Y-78926392D01*
X97882314Y-78860500D01*
X97975500Y-78767314D01*
X98041392Y-78653186D01*
X98075500Y-78525892D01*
X98075500Y-78394108D01*
X98041392Y-78266814D01*
X97975500Y-78152686D01*
X97882314Y-78059500D01*
X97825250Y-78026554D01*
X97768187Y-77993608D01*
X97704539Y-77976554D01*
X97640892Y-77959500D01*
X97509108Y-77959500D01*
X97381812Y-77993608D01*
X97267686Y-78059500D01*
X97267683Y-78059502D01*
X97174502Y-78152683D01*
X97174500Y-78152686D01*
X97108608Y-78266812D01*
X97074500Y-78394108D01*
X91500500Y-78394108D01*
X91500500Y-76515730D01*
X99014500Y-76515730D01*
X99014500Y-77724269D01*
X99017353Y-77754699D01*
X99017353Y-77754701D01*
X99062206Y-77882880D01*
X99062207Y-77882882D01*
X99142850Y-77992150D01*
X99252118Y-78072793D01*
X99294845Y-78087744D01*
X99380299Y-78117646D01*
X99410730Y-78120500D01*
X99410734Y-78120500D01*
X101619270Y-78120500D01*
X101649699Y-78117646D01*
X101649701Y-78117646D01*
X101713790Y-78095219D01*
X101777882Y-78072793D01*
X101887150Y-77992150D01*
X101967793Y-77882882D01*
X101990219Y-77818790D01*
X102012646Y-77754701D01*
X102012646Y-77754699D01*
X102015500Y-77724269D01*
X102015500Y-76515730D01*
X102012646Y-76485300D01*
X102012646Y-76485298D01*
X102012164Y-76483920D01*
X106124499Y-76483920D01*
X106153340Y-76628907D01*
X106153343Y-76628917D01*
X106209912Y-76765488D01*
X106209919Y-76765501D01*
X106292048Y-76888415D01*
X106292051Y-76888419D01*
X106396580Y-76992948D01*
X106396584Y-76992951D01*
X106519498Y-77075080D01*
X106519511Y-77075087D01*
X106656082Y-77131656D01*
X106656087Y-77131658D01*
X106656091Y-77131658D01*
X106656092Y-77131659D01*
X106801079Y-77160500D01*
X106801082Y-77160500D01*
X106948920Y-77160500D01*
X107046462Y-77141096D01*
X107093913Y-77131658D01*
X107230495Y-77075084D01*
X107306111Y-77024559D01*
X107372786Y-77003682D01*
X107440166Y-77022166D01*
X107443848Y-77024531D01*
X107519505Y-77075084D01*
X107519507Y-77075085D01*
X107519511Y-77075087D01*
X107656082Y-77131656D01*
X107656087Y-77131658D01*
X107656091Y-77131658D01*
X107656092Y-77131659D01*
X107801079Y-77160500D01*
X107801082Y-77160500D01*
X107948920Y-77160500D01*
X108046462Y-77141096D01*
X108093913Y-77131658D01*
X108230495Y-77075084D01*
X108306111Y-77024559D01*
X108372786Y-77003682D01*
X108440166Y-77022166D01*
X108443848Y-77024531D01*
X108519505Y-77075084D01*
X108519507Y-77075085D01*
X108519511Y-77075087D01*
X108656082Y-77131656D01*
X108656087Y-77131658D01*
X108656091Y-77131658D01*
X108656092Y-77131659D01*
X108801079Y-77160500D01*
X108801082Y-77160500D01*
X108948920Y-77160500D01*
X109046462Y-77141096D01*
X109093913Y-77131658D01*
X109230495Y-77075084D01*
X109306111Y-77024559D01*
X109372786Y-77003682D01*
X109440166Y-77022166D01*
X109443848Y-77024531D01*
X109519505Y-77075084D01*
X109519507Y-77075085D01*
X109519511Y-77075087D01*
X109656082Y-77131656D01*
X109656087Y-77131658D01*
X109656091Y-77131658D01*
X109656092Y-77131659D01*
X109801079Y-77160500D01*
X109801082Y-77160500D01*
X109948920Y-77160500D01*
X110046462Y-77141096D01*
X110093913Y-77131658D01*
X110230495Y-77075084D01*
X110353416Y-76992951D01*
X110457951Y-76888416D01*
X110540084Y-76765495D01*
X110596658Y-76628913D01*
X110606096Y-76581462D01*
X110625500Y-76483920D01*
X110625500Y-76336079D01*
X110596659Y-76191092D01*
X110596658Y-76191091D01*
X110596658Y-76191087D01*
X110567006Y-76119500D01*
X110540087Y-76054511D01*
X110540080Y-76054498D01*
X110457951Y-75931584D01*
X110457948Y-75931580D01*
X110353419Y-75827051D01*
X110353415Y-75827048D01*
X110230501Y-75744919D01*
X110230488Y-75744912D01*
X110093917Y-75688343D01*
X110093907Y-75688340D01*
X109948920Y-75659500D01*
X109948918Y-75659500D01*
X109801082Y-75659500D01*
X109801080Y-75659500D01*
X109656092Y-75688340D01*
X109656082Y-75688343D01*
X109519511Y-75744912D01*
X109519498Y-75744919D01*
X109443891Y-75795439D01*
X109377213Y-75816317D01*
X109309833Y-75797832D01*
X109306109Y-75795439D01*
X109230501Y-75744919D01*
X109230488Y-75744912D01*
X109093917Y-75688343D01*
X109093907Y-75688340D01*
X108948920Y-75659500D01*
X108948918Y-75659500D01*
X108801082Y-75659500D01*
X108801080Y-75659500D01*
X108656092Y-75688340D01*
X108656082Y-75688343D01*
X108519511Y-75744912D01*
X108519498Y-75744919D01*
X108443891Y-75795439D01*
X108377213Y-75816317D01*
X108309833Y-75797832D01*
X108306109Y-75795439D01*
X108230501Y-75744919D01*
X108230488Y-75744912D01*
X108093917Y-75688343D01*
X108093907Y-75688340D01*
X107948920Y-75659500D01*
X107948918Y-75659500D01*
X107801082Y-75659500D01*
X107801080Y-75659500D01*
X107656092Y-75688340D01*
X107656082Y-75688343D01*
X107519511Y-75744912D01*
X107519498Y-75744919D01*
X107443891Y-75795439D01*
X107377213Y-75816317D01*
X107309833Y-75797832D01*
X107306109Y-75795439D01*
X107230501Y-75744919D01*
X107230488Y-75744912D01*
X107093917Y-75688343D01*
X107093907Y-75688340D01*
X106948920Y-75659500D01*
X106948918Y-75659500D01*
X106801082Y-75659500D01*
X106801080Y-75659500D01*
X106656092Y-75688340D01*
X106656082Y-75688343D01*
X106519511Y-75744912D01*
X106519498Y-75744919D01*
X106396584Y-75827048D01*
X106396580Y-75827051D01*
X106292051Y-75931580D01*
X106292048Y-75931584D01*
X106209919Y-76054498D01*
X106209912Y-76054511D01*
X106153343Y-76191082D01*
X106153340Y-76191092D01*
X106124500Y-76336079D01*
X106124500Y-76336082D01*
X106124500Y-76483918D01*
X106124500Y-76483920D01*
X106124499Y-76483920D01*
X102012164Y-76483920D01*
X101993172Y-76429647D01*
X101967793Y-76357118D01*
X101887150Y-76247850D01*
X101777882Y-76167207D01*
X101777880Y-76167206D01*
X101649700Y-76122353D01*
X101619270Y-76119500D01*
X101619266Y-76119500D01*
X99410734Y-76119500D01*
X99410730Y-76119500D01*
X99380300Y-76122353D01*
X99380298Y-76122353D01*
X99252119Y-76167206D01*
X99252117Y-76167207D01*
X99142850Y-76247850D01*
X99062207Y-76357117D01*
X99062206Y-76357119D01*
X99017353Y-76485298D01*
X99017353Y-76485300D01*
X99014500Y-76515730D01*
X91500500Y-76515730D01*
X91500500Y-75344108D01*
X97124500Y-75344108D01*
X97124500Y-75475891D01*
X97158608Y-75603187D01*
X97191121Y-75659500D01*
X97224500Y-75717314D01*
X97317686Y-75810500D01*
X97431814Y-75876392D01*
X97559108Y-75910500D01*
X97559110Y-75910500D01*
X97690890Y-75910500D01*
X97690892Y-75910500D01*
X97818186Y-75876392D01*
X97932314Y-75810500D01*
X98025500Y-75717314D01*
X98091392Y-75603186D01*
X98125500Y-75475892D01*
X98125500Y-75344108D01*
X98091392Y-75216814D01*
X98025500Y-75102686D01*
X97932314Y-75009500D01*
X97875250Y-74976554D01*
X97818187Y-74943608D01*
X97754539Y-74926554D01*
X97690892Y-74909500D01*
X97559108Y-74909500D01*
X97431812Y-74943608D01*
X97317686Y-75009500D01*
X97317683Y-75009502D01*
X97224502Y-75102683D01*
X97224500Y-75102686D01*
X97158608Y-75216812D01*
X97124500Y-75344108D01*
X91500500Y-75344108D01*
X91500500Y-73733920D01*
X98124499Y-73733920D01*
X98153340Y-73878907D01*
X98153343Y-73878917D01*
X98209912Y-74015488D01*
X98209919Y-74015501D01*
X98292048Y-74138415D01*
X98292051Y-74138419D01*
X98396580Y-74242948D01*
X98396584Y-74242951D01*
X98519498Y-74325080D01*
X98519511Y-74325087D01*
X98656082Y-74381656D01*
X98656087Y-74381658D01*
X98656091Y-74381658D01*
X98656092Y-74381659D01*
X98801079Y-74410500D01*
X98801082Y-74410500D01*
X98948920Y-74410500D01*
X99046462Y-74391096D01*
X99093913Y-74381658D01*
X99230495Y-74325084D01*
X99353416Y-74242951D01*
X99457951Y-74138416D01*
X99540084Y-74015495D01*
X99596658Y-73878913D01*
X99625500Y-73733918D01*
X99625500Y-73586082D01*
X99625500Y-73586079D01*
X99596659Y-73441092D01*
X99596658Y-73441091D01*
X99596658Y-73441087D01*
X99596656Y-73441082D01*
X99540087Y-73304511D01*
X99540080Y-73304498D01*
X99457951Y-73181584D01*
X99457948Y-73181580D01*
X99353419Y-73077051D01*
X99353415Y-73077048D01*
X99230501Y-72994919D01*
X99230488Y-72994912D01*
X99093917Y-72938343D01*
X99093907Y-72938340D01*
X98948920Y-72909500D01*
X98948918Y-72909500D01*
X98801082Y-72909500D01*
X98801080Y-72909500D01*
X98656092Y-72938340D01*
X98656082Y-72938343D01*
X98519511Y-72994912D01*
X98519498Y-72994919D01*
X98396584Y-73077048D01*
X98396580Y-73077051D01*
X98292051Y-73181580D01*
X98292048Y-73181584D01*
X98209919Y-73304498D01*
X98209912Y-73304511D01*
X98153343Y-73441082D01*
X98153340Y-73441092D01*
X98124500Y-73586079D01*
X98124500Y-73586082D01*
X98124500Y-73733918D01*
X98124500Y-73733920D01*
X98124499Y-73733920D01*
X91500500Y-73733920D01*
X91500500Y-71304500D01*
X91520185Y-71237461D01*
X91572989Y-71191706D01*
X91624500Y-71180500D01*
X92294676Y-71180500D01*
X92294677Y-71180499D01*
X92367740Y-71165966D01*
X92450601Y-71110601D01*
X92505966Y-71027740D01*
X92520500Y-70954674D01*
X92520500Y-70929499D01*
X92540185Y-70862460D01*
X92592989Y-70816705D01*
X92644500Y-70805499D01*
X93122871Y-70805499D01*
X93122872Y-70805499D01*
X93182483Y-70799091D01*
X93317331Y-70748796D01*
X93432546Y-70662546D01*
X93518796Y-70547331D01*
X93569091Y-70412483D01*
X93575500Y-70352873D01*
X93575499Y-69507128D01*
X93569091Y-69447517D01*
X93524452Y-69327833D01*
X93519468Y-69258141D01*
X93552953Y-69196818D01*
X93614276Y-69163334D01*
X93640634Y-69160500D01*
X128583258Y-69160500D01*
X128650297Y-69180185D01*
G37*
G04 #@! TD.AperFunction*
G04 #@! TA.AperFunction,NonConductor*
G36*
X128378376Y-83151739D02*
G01*
X128400462Y-83153319D01*
X128411244Y-83161390D01*
X128424167Y-83165185D01*
X128438665Y-83181917D01*
X128456396Y-83195190D01*
X128467009Y-83214627D01*
X128469922Y-83217989D01*
X128473310Y-83226167D01*
X128481202Y-83247328D01*
X128481206Y-83247335D01*
X128567452Y-83362544D01*
X128567455Y-83362547D01*
X128682664Y-83448793D01*
X128682671Y-83448797D01*
X128727618Y-83465561D01*
X128817517Y-83499091D01*
X128877127Y-83505500D01*
X129355500Y-83505499D01*
X129422539Y-83525183D01*
X129468294Y-83577987D01*
X129479500Y-83629499D01*
X129479500Y-83654678D01*
X129494032Y-83727735D01*
X129494033Y-83727739D01*
X129494034Y-83727740D01*
X129549399Y-83810601D01*
X129549400Y-83810601D01*
X129549401Y-83810603D01*
X129551117Y-83812319D01*
X129553662Y-83816981D01*
X129556185Y-83820756D01*
X129555847Y-83820981D01*
X129584602Y-83873642D01*
X129579618Y-83943334D01*
X129551117Y-83987681D01*
X129549401Y-83989396D01*
X129494033Y-84072260D01*
X129494032Y-84072264D01*
X129479500Y-84145321D01*
X129479500Y-84170500D01*
X129459815Y-84237539D01*
X129407011Y-84283294D01*
X129355500Y-84294500D01*
X128877129Y-84294500D01*
X128877123Y-84294501D01*
X128817516Y-84300908D01*
X128682671Y-84351202D01*
X128682664Y-84351206D01*
X128567455Y-84437452D01*
X128567452Y-84437455D01*
X128481206Y-84552664D01*
X128481202Y-84552671D01*
X128430908Y-84687517D01*
X128424501Y-84747116D01*
X128424500Y-84747135D01*
X128424500Y-84810500D01*
X128404815Y-84877539D01*
X128352011Y-84923294D01*
X128300500Y-84934500D01*
X124231899Y-84934500D01*
X124164860Y-84914815D01*
X124144218Y-84898181D01*
X122603218Y-83357181D01*
X122569733Y-83295858D01*
X122574717Y-83226166D01*
X122616589Y-83170233D01*
X122682053Y-83145816D01*
X122690899Y-83145500D01*
X128357128Y-83145500D01*
X128378376Y-83151739D01*
G37*
G04 #@! TD.AperFunction*
G04 #@! TA.AperFunction,NonConductor*
G36*
X122235140Y-84055185D02*
G01*
X122255782Y-84071819D01*
X123724525Y-85540562D01*
X123794438Y-85610475D01*
X123880062Y-85659910D01*
X123927811Y-85672705D01*
X123927812Y-85672705D01*
X123937903Y-85675408D01*
X123975564Y-85685500D01*
X123975565Y-85685500D01*
X128357128Y-85685500D01*
X128424167Y-85705185D01*
X128469922Y-85757989D01*
X128473310Y-85766167D01*
X128481202Y-85787328D01*
X128481206Y-85787335D01*
X128567452Y-85902544D01*
X128567455Y-85902547D01*
X128682664Y-85988793D01*
X128682671Y-85988797D01*
X128727618Y-86005561D01*
X128817517Y-86039091D01*
X128877127Y-86045500D01*
X129355500Y-86045499D01*
X129422539Y-86065183D01*
X129468294Y-86117987D01*
X129479500Y-86169499D01*
X129479500Y-86194678D01*
X129494032Y-86267735D01*
X129494033Y-86267739D01*
X129503539Y-86281965D01*
X129549399Y-86350601D01*
X129549400Y-86350601D01*
X129549401Y-86350603D01*
X129551117Y-86352319D01*
X129553662Y-86356981D01*
X129556185Y-86360756D01*
X129555847Y-86360981D01*
X129584602Y-86413642D01*
X129579618Y-86483334D01*
X129551117Y-86527681D01*
X129549401Y-86529396D01*
X129494033Y-86612260D01*
X129494032Y-86612264D01*
X129479500Y-86685321D01*
X129479500Y-86710500D01*
X129459815Y-86777539D01*
X129407011Y-86823294D01*
X129355500Y-86834500D01*
X128877129Y-86834500D01*
X128877123Y-86834501D01*
X128817516Y-86840908D01*
X128682671Y-86891202D01*
X128682664Y-86891206D01*
X128567455Y-86977452D01*
X128567452Y-86977455D01*
X128481206Y-87092664D01*
X128481204Y-87092669D01*
X128430908Y-87227517D01*
X128424501Y-87287116D01*
X128424500Y-87287135D01*
X128424500Y-87350500D01*
X128404815Y-87417539D01*
X128352011Y-87463294D01*
X128300500Y-87474500D01*
X124621900Y-87474500D01*
X124554861Y-87454815D01*
X124534219Y-87438181D01*
X122169822Y-85073785D01*
X122155563Y-85059526D01*
X122155562Y-85059525D01*
X122069938Y-85010090D01*
X122022186Y-84997295D01*
X122010099Y-84994056D01*
X122010095Y-84994054D01*
X121974436Y-84984500D01*
X121974435Y-84984500D01*
X111717806Y-84984500D01*
X111694257Y-84977585D01*
X111669866Y-84974858D01*
X111661325Y-84967915D01*
X111650767Y-84964815D01*
X111634696Y-84946269D01*
X111615650Y-84930786D01*
X111612218Y-84920327D01*
X111605012Y-84912011D01*
X111601519Y-84887720D01*
X111593867Y-84864399D01*
X111595783Y-84847831D01*
X111595068Y-84842853D01*
X111597789Y-84829323D01*
X111597883Y-84828957D01*
X111625500Y-84725892D01*
X111625500Y-84722648D01*
X111628288Y-84711916D01*
X111642468Y-84688245D01*
X111653631Y-84663012D01*
X111660612Y-84655424D01*
X112244218Y-84071819D01*
X112305541Y-84038334D01*
X112331899Y-84035500D01*
X122168101Y-84035500D01*
X122235140Y-84055185D01*
G37*
G04 #@! TD.AperFunction*
G04 #@! TA.AperFunction,NonConductor*
G36*
X122360140Y-88805185D02*
G01*
X122380782Y-88821819D01*
X124244918Y-90685957D01*
X124244920Y-90685958D01*
X124249437Y-90690475D01*
X124292250Y-90715192D01*
X124335062Y-90739910D01*
X124382813Y-90752705D01*
X124430564Y-90765500D01*
X124430565Y-90765500D01*
X128357128Y-90765500D01*
X128424167Y-90785185D01*
X128469922Y-90837989D01*
X128473310Y-90846167D01*
X128481202Y-90867328D01*
X128481206Y-90867335D01*
X128567452Y-90982544D01*
X128567455Y-90982547D01*
X128682664Y-91068793D01*
X128682671Y-91068797D01*
X128689921Y-91071501D01*
X128817517Y-91119091D01*
X128877127Y-91125500D01*
X129355500Y-91125499D01*
X129422539Y-91145183D01*
X129468294Y-91197987D01*
X129479500Y-91249499D01*
X129479500Y-91274678D01*
X129494032Y-91347735D01*
X129494033Y-91347739D01*
X129512489Y-91375360D01*
X129549399Y-91430601D01*
X129549400Y-91430601D01*
X129549401Y-91430603D01*
X129551117Y-91432319D01*
X129553662Y-91436981D01*
X129556185Y-91440756D01*
X129555847Y-91440981D01*
X129584602Y-91493642D01*
X129579618Y-91563334D01*
X129551117Y-91607681D01*
X129549401Y-91609396D01*
X129494033Y-91692260D01*
X129494032Y-91692264D01*
X129479500Y-91765321D01*
X129479500Y-91790500D01*
X129459815Y-91857539D01*
X129407011Y-91903294D01*
X129355500Y-91914500D01*
X128877129Y-91914500D01*
X128877123Y-91914501D01*
X128817516Y-91920908D01*
X128682671Y-91971202D01*
X128682664Y-91971206D01*
X128567455Y-92057452D01*
X128567452Y-92057455D01*
X128481206Y-92172664D01*
X128481202Y-92172671D01*
X128430908Y-92307517D01*
X128424501Y-92367116D01*
X128424500Y-92367135D01*
X128424500Y-92430500D01*
X128404815Y-92497539D01*
X128352011Y-92543294D01*
X128300500Y-92554500D01*
X124101899Y-92554500D01*
X124034860Y-92534815D01*
X124014218Y-92518181D01*
X122355563Y-90859526D01*
X122355562Y-90859525D01*
X122269940Y-90810091D01*
X122269939Y-90810090D01*
X122182993Y-90786793D01*
X122182993Y-90786792D01*
X122182990Y-90786792D01*
X122174437Y-90784500D01*
X122174436Y-90784500D01*
X122174435Y-90784500D01*
X121484784Y-90784500D01*
X121417745Y-90764815D01*
X121371990Y-90712011D01*
X121362046Y-90642853D01*
X121391071Y-90579297D01*
X121397103Y-90572819D01*
X121512136Y-90457785D01*
X121512139Y-90457782D01*
X121621632Y-90293914D01*
X121697051Y-90111835D01*
X121717407Y-90009500D01*
X121735500Y-89918543D01*
X121735500Y-89721456D01*
X121697052Y-89528170D01*
X121697051Y-89528169D01*
X121697051Y-89528165D01*
X121692614Y-89517452D01*
X121621635Y-89346092D01*
X121621628Y-89346079D01*
X121512139Y-89182218D01*
X121512136Y-89182214D01*
X121372785Y-89042863D01*
X121372781Y-89042860D01*
X121327497Y-89012602D01*
X121282692Y-88958990D01*
X121273985Y-88889665D01*
X121304140Y-88826637D01*
X121363583Y-88789918D01*
X121396388Y-88785500D01*
X122293101Y-88785500D01*
X122360140Y-88805185D01*
G37*
G04 #@! TD.AperFunction*
G04 #@! TA.AperFunction,NonConductor*
G36*
X121985140Y-91555185D02*
G01*
X122005782Y-91571819D01*
X123594525Y-93160562D01*
X123664438Y-93230475D01*
X123750062Y-93279910D01*
X123775750Y-93286793D01*
X123845564Y-93305500D01*
X123845565Y-93305500D01*
X128357128Y-93305500D01*
X128424167Y-93325185D01*
X128469922Y-93377989D01*
X128473310Y-93386167D01*
X128481202Y-93407328D01*
X128481206Y-93407335D01*
X128567452Y-93522544D01*
X128567455Y-93522547D01*
X128682664Y-93608793D01*
X128682671Y-93608797D01*
X128727618Y-93625561D01*
X128817517Y-93659091D01*
X128877127Y-93665500D01*
X129355500Y-93665499D01*
X129422539Y-93685183D01*
X129468294Y-93737987D01*
X129479500Y-93789499D01*
X129479500Y-93814678D01*
X129494032Y-93887735D01*
X129494033Y-93887739D01*
X129504646Y-93903623D01*
X129549399Y-93970601D01*
X129549400Y-93970601D01*
X129549401Y-93970603D01*
X129551117Y-93972319D01*
X129553662Y-93976981D01*
X129556185Y-93980756D01*
X129555847Y-93980981D01*
X129584602Y-94033642D01*
X129579618Y-94103334D01*
X129551117Y-94147681D01*
X129549401Y-94149396D01*
X129494033Y-94232260D01*
X129494032Y-94232264D01*
X129479500Y-94305321D01*
X129479500Y-94330500D01*
X129459815Y-94397539D01*
X129407011Y-94443294D01*
X129355500Y-94454500D01*
X128877129Y-94454500D01*
X128877123Y-94454501D01*
X128817516Y-94460908D01*
X128682671Y-94511202D01*
X128682664Y-94511206D01*
X128567455Y-94597452D01*
X128567452Y-94597455D01*
X128481206Y-94712664D01*
X128481202Y-94712671D01*
X128430908Y-94847517D01*
X128424501Y-94907116D01*
X128424500Y-94907135D01*
X128424500Y-94970500D01*
X128404815Y-95037539D01*
X128352011Y-95083294D01*
X128300500Y-95094500D01*
X124491899Y-95094500D01*
X124424860Y-95074815D01*
X124404218Y-95058181D01*
X122705563Y-93359526D01*
X122705562Y-93359525D01*
X122619940Y-93310091D01*
X122619939Y-93310090D01*
X122532993Y-93286793D01*
X122532993Y-93286792D01*
X122532990Y-93286792D01*
X122524437Y-93284500D01*
X122524436Y-93284500D01*
X122524435Y-93284500D01*
X121524784Y-93284500D01*
X121457745Y-93264815D01*
X121411990Y-93212011D01*
X121402046Y-93142853D01*
X121431071Y-93079297D01*
X121437103Y-93072819D01*
X121512136Y-92997785D01*
X121512139Y-92997782D01*
X121621632Y-92833914D01*
X121697051Y-92651835D01*
X121716412Y-92554500D01*
X121735500Y-92458543D01*
X121735500Y-92261456D01*
X121697052Y-92068170D01*
X121697051Y-92068169D01*
X121697051Y-92068165D01*
X121692614Y-92057452D01*
X121621635Y-91886092D01*
X121621628Y-91886079D01*
X121516264Y-91728391D01*
X121495386Y-91661713D01*
X121513871Y-91594333D01*
X121565849Y-91547643D01*
X121619366Y-91535500D01*
X121918101Y-91535500D01*
X121985140Y-91555185D01*
G37*
G04 #@! TD.AperFunction*
G04 #@! TA.AperFunction,NonConductor*
G36*
X122335140Y-94055185D02*
G01*
X122355780Y-94071817D01*
X124054438Y-95770475D01*
X124140063Y-95819911D01*
X124235564Y-95845500D01*
X124235565Y-95845500D01*
X128357128Y-95845500D01*
X128424167Y-95865185D01*
X128469922Y-95917989D01*
X128473310Y-95926167D01*
X128481202Y-95947328D01*
X128481206Y-95947335D01*
X128567452Y-96062544D01*
X128567455Y-96062547D01*
X128682664Y-96148793D01*
X128682671Y-96148797D01*
X128727618Y-96165561D01*
X128817517Y-96199091D01*
X128877127Y-96205500D01*
X129355500Y-96205499D01*
X129422539Y-96225183D01*
X129468294Y-96277987D01*
X129479500Y-96329499D01*
X129479500Y-96354678D01*
X129494032Y-96427735D01*
X129494033Y-96427739D01*
X129512489Y-96455360D01*
X129549399Y-96510601D01*
X129549400Y-96510601D01*
X129549401Y-96510603D01*
X129551117Y-96512319D01*
X129553662Y-96516981D01*
X129556185Y-96520756D01*
X129555847Y-96520981D01*
X129584602Y-96573642D01*
X129579618Y-96643334D01*
X129551117Y-96687681D01*
X129549401Y-96689396D01*
X129494033Y-96772260D01*
X129494032Y-96772264D01*
X129479500Y-96845321D01*
X129479500Y-96870500D01*
X129459815Y-96937539D01*
X129407011Y-96983294D01*
X129355500Y-96994500D01*
X128877129Y-96994500D01*
X128877123Y-96994501D01*
X128817516Y-97000908D01*
X128682671Y-97051202D01*
X128682664Y-97051206D01*
X128567455Y-97137452D01*
X128567452Y-97137455D01*
X128481206Y-97252664D01*
X128481202Y-97252671D01*
X128430908Y-97387517D01*
X128424501Y-97447116D01*
X128424500Y-97447135D01*
X128424500Y-97510500D01*
X128404815Y-97577539D01*
X128352011Y-97623294D01*
X128300500Y-97634500D01*
X125431899Y-97634500D01*
X125364860Y-97614815D01*
X125344218Y-97598181D01*
X123605563Y-95859526D01*
X123605562Y-95859525D01*
X123542882Y-95823337D01*
X123519940Y-95810091D01*
X123519939Y-95810090D01*
X123446290Y-95790356D01*
X123424436Y-95784500D01*
X123424435Y-95784500D01*
X123424434Y-95784500D01*
X121564784Y-95784500D01*
X121497745Y-95764815D01*
X121451990Y-95712011D01*
X121442046Y-95642853D01*
X121471071Y-95579297D01*
X121477103Y-95572819D01*
X121512136Y-95537785D01*
X121512139Y-95537782D01*
X121621632Y-95373914D01*
X121697051Y-95191835D01*
X121716412Y-95094500D01*
X121735500Y-94998543D01*
X121735500Y-94801456D01*
X121697052Y-94608170D01*
X121697051Y-94608169D01*
X121697051Y-94608165D01*
X121691702Y-94595251D01*
X121621635Y-94426092D01*
X121621628Y-94426079D01*
X121512139Y-94262218D01*
X121512136Y-94262214D01*
X121497103Y-94247181D01*
X121463618Y-94185858D01*
X121468602Y-94116166D01*
X121510474Y-94060233D01*
X121575938Y-94035816D01*
X121584784Y-94035500D01*
X122268101Y-94035500D01*
X122335140Y-94055185D01*
G37*
G04 #@! TD.AperFunction*
G04 #@! TA.AperFunction,NonConductor*
G36*
X111913994Y-96552112D02*
G01*
X111979462Y-96589910D01*
X112027211Y-96602705D01*
X112027212Y-96602705D01*
X112036386Y-96605163D01*
X112074964Y-96615500D01*
X112074965Y-96615500D01*
X112074966Y-96615500D01*
X112675035Y-96615500D01*
X112675036Y-96615500D01*
X112722786Y-96602705D01*
X112770538Y-96589910D01*
X112841872Y-96548725D01*
X112848061Y-96546002D01*
X112868886Y-96543302D01*
X112898004Y-96535500D01*
X117062682Y-96535500D01*
X117129721Y-96555185D01*
X117138166Y-96561122D01*
X117143832Y-96565469D01*
X117143838Y-96565475D01*
X117229462Y-96614910D01*
X117277211Y-96627705D01*
X117277212Y-96627705D01*
X117287303Y-96630408D01*
X117324964Y-96640500D01*
X117324965Y-96640500D01*
X117324966Y-96640500D01*
X117925035Y-96640500D01*
X117925036Y-96640500D01*
X117972786Y-96627705D01*
X118020538Y-96614910D01*
X118106162Y-96565475D01*
X118114860Y-96556776D01*
X118133456Y-96547809D01*
X118155841Y-96544110D01*
X118177004Y-96535930D01*
X118187318Y-96535500D01*
X118925216Y-96535500D01*
X118992255Y-96555185D01*
X119038010Y-96607989D01*
X119047954Y-96677147D01*
X119018929Y-96740703D01*
X119012897Y-96747181D01*
X118957863Y-96802214D01*
X118957860Y-96802218D01*
X118848371Y-96966079D01*
X118848364Y-96966092D01*
X118772950Y-97148160D01*
X118772947Y-97148170D01*
X118734500Y-97341456D01*
X118734500Y-97341459D01*
X118734500Y-97538541D01*
X118734500Y-97538543D01*
X118734499Y-97538543D01*
X118772947Y-97731829D01*
X118772950Y-97731839D01*
X118848364Y-97913907D01*
X118848371Y-97913920D01*
X118957861Y-98077783D01*
X118961186Y-98081834D01*
X118988500Y-98146143D01*
X118976710Y-98215011D01*
X118929558Y-98266572D01*
X118865334Y-98284500D01*
X109754500Y-98284500D01*
X109687461Y-98264815D01*
X109641706Y-98212011D01*
X109630500Y-98160500D01*
X109630500Y-96986899D01*
X109650185Y-96919860D01*
X109666819Y-96899218D01*
X109994219Y-96571819D01*
X110055542Y-96538334D01*
X110081900Y-96535500D01*
X111851996Y-96535500D01*
X111913994Y-96552112D01*
G37*
G04 #@! TD.AperFunction*
G04 #@! TA.AperFunction,NonConductor*
G36*
X123235140Y-96555185D02*
G01*
X123255782Y-96571819D01*
X124924525Y-98240562D01*
X124994438Y-98310475D01*
X125079395Y-98359525D01*
X125080062Y-98359910D01*
X125127811Y-98372705D01*
X125127812Y-98372705D01*
X125137903Y-98375408D01*
X125175564Y-98385500D01*
X125175565Y-98385500D01*
X128357128Y-98385500D01*
X128424167Y-98405185D01*
X128469922Y-98457989D01*
X128473310Y-98466167D01*
X128481202Y-98487328D01*
X128481206Y-98487335D01*
X128567452Y-98602544D01*
X128567455Y-98602547D01*
X128682664Y-98688793D01*
X128682671Y-98688797D01*
X128727618Y-98705561D01*
X128817517Y-98739091D01*
X128877127Y-98745500D01*
X129355500Y-98745499D01*
X129422539Y-98765183D01*
X129468294Y-98817987D01*
X129479500Y-98869499D01*
X129479500Y-98894678D01*
X129494032Y-98967735D01*
X129494033Y-98967739D01*
X129512489Y-98995360D01*
X129549399Y-99050601D01*
X129549400Y-99050601D01*
X129549401Y-99050603D01*
X129551117Y-99052319D01*
X129553662Y-99056981D01*
X129556185Y-99060756D01*
X129555847Y-99060981D01*
X129584602Y-99113642D01*
X129579618Y-99183334D01*
X129551117Y-99227681D01*
X129549401Y-99229396D01*
X129494033Y-99312260D01*
X129494032Y-99312264D01*
X129479500Y-99385321D01*
X129479500Y-99410500D01*
X129459815Y-99477539D01*
X129407011Y-99523294D01*
X129355500Y-99534500D01*
X128877129Y-99534500D01*
X128877123Y-99534501D01*
X128817516Y-99540908D01*
X128682671Y-99591202D01*
X128682664Y-99591206D01*
X128567455Y-99677452D01*
X128567452Y-99677455D01*
X128481206Y-99792664D01*
X128481202Y-99792671D01*
X128430908Y-99927517D01*
X128424501Y-99987116D01*
X128424500Y-99987135D01*
X128424500Y-100050500D01*
X128404815Y-100117539D01*
X128352011Y-100163294D01*
X128300500Y-100174500D01*
X124471900Y-100174500D01*
X124404861Y-100154815D01*
X124384219Y-100138181D01*
X122619822Y-98373785D01*
X122605563Y-98359526D01*
X122605562Y-98359525D01*
X122519938Y-98310090D01*
X122472186Y-98297295D01*
X122460099Y-98294056D01*
X122460095Y-98294054D01*
X122424436Y-98284500D01*
X122424435Y-98284500D01*
X121604666Y-98284500D01*
X121537627Y-98264815D01*
X121491872Y-98212011D01*
X121481928Y-98142853D01*
X121508814Y-98081834D01*
X121512138Y-98077783D01*
X121512140Y-98077781D01*
X121621632Y-97913914D01*
X121697051Y-97731835D01*
X121716412Y-97634500D01*
X121735500Y-97538543D01*
X121735500Y-97341456D01*
X121697052Y-97148170D01*
X121697051Y-97148169D01*
X121697051Y-97148165D01*
X121633402Y-96994501D01*
X121621635Y-96966092D01*
X121621628Y-96966079D01*
X121512139Y-96802218D01*
X121512136Y-96802214D01*
X121457103Y-96747181D01*
X121423618Y-96685858D01*
X121428602Y-96616166D01*
X121470474Y-96560233D01*
X121535938Y-96535816D01*
X121544784Y-96535500D01*
X123168101Y-96535500D01*
X123235140Y-96555185D01*
G37*
G04 #@! TD.AperFunction*
G04 #@! TA.AperFunction,NonConductor*
G36*
X119032255Y-99055185D02*
G01*
X119078010Y-99107989D01*
X119087954Y-99177147D01*
X119058929Y-99240703D01*
X119052897Y-99247181D01*
X118957863Y-99342214D01*
X118957860Y-99342218D01*
X118848371Y-99506079D01*
X118848364Y-99506092D01*
X118772950Y-99688160D01*
X118772947Y-99688170D01*
X118734500Y-99881456D01*
X118734500Y-99881459D01*
X118734500Y-100078541D01*
X118734500Y-100078543D01*
X118734499Y-100078543D01*
X118772947Y-100271829D01*
X118772950Y-100271839D01*
X118848364Y-100453907D01*
X118848371Y-100453920D01*
X118940372Y-100591609D01*
X118961250Y-100658287D01*
X118942765Y-100725667D01*
X118890786Y-100772357D01*
X118837270Y-100784500D01*
X118331899Y-100784500D01*
X118264860Y-100764815D01*
X118244218Y-100748181D01*
X116855563Y-99359526D01*
X116855562Y-99359525D01*
X116792882Y-99323337D01*
X116769940Y-99310091D01*
X116769939Y-99310090D01*
X116769938Y-99310090D01*
X116722186Y-99297295D01*
X116722184Y-99297294D01*
X116722182Y-99297293D01*
X116674436Y-99284500D01*
X116674435Y-99284500D01*
X109408183Y-99284500D01*
X109402374Y-99282794D01*
X109396428Y-99283942D01*
X109369233Y-99273062D01*
X109341144Y-99264815D01*
X109337180Y-99260240D01*
X109331557Y-99257991D01*
X109314562Y-99234138D01*
X109295389Y-99212011D01*
X109294527Y-99206018D01*
X109291014Y-99201087D01*
X109289613Y-99171840D01*
X109285445Y-99142853D01*
X109287886Y-99135796D01*
X109287671Y-99131298D01*
X109300780Y-99098528D01*
X109301357Y-99097528D01*
X109351911Y-99049299D01*
X109408760Y-99035500D01*
X118965216Y-99035500D01*
X119032255Y-99055185D01*
G37*
G04 #@! TD.AperFunction*
G04 #@! TA.AperFunction,NonConductor*
G36*
X122235140Y-99055185D02*
G01*
X122255781Y-99071818D01*
X124034437Y-100850475D01*
X124120063Y-100899911D01*
X124215564Y-100925500D01*
X124215565Y-100925500D01*
X128357128Y-100925500D01*
X128424167Y-100945185D01*
X128469922Y-100997989D01*
X128473310Y-101006167D01*
X128481202Y-101027328D01*
X128481206Y-101027335D01*
X128567452Y-101142544D01*
X128567455Y-101142547D01*
X128682664Y-101228793D01*
X128682671Y-101228797D01*
X128727618Y-101245561D01*
X128817517Y-101279091D01*
X128877127Y-101285500D01*
X129355500Y-101285499D01*
X129422539Y-101305183D01*
X129468294Y-101357987D01*
X129479500Y-101409499D01*
X129479500Y-101434678D01*
X129494032Y-101507735D01*
X129494033Y-101507739D01*
X129504033Y-101522705D01*
X129549399Y-101590601D01*
X129549400Y-101590601D01*
X129549401Y-101590603D01*
X129551117Y-101592319D01*
X129553662Y-101596981D01*
X129556185Y-101600756D01*
X129555847Y-101600981D01*
X129584602Y-101653642D01*
X129579618Y-101723334D01*
X129551117Y-101767681D01*
X129549401Y-101769396D01*
X129494033Y-101852260D01*
X129494032Y-101852264D01*
X129479500Y-101925321D01*
X129479500Y-101950500D01*
X129459815Y-102017539D01*
X129407011Y-102063294D01*
X129355500Y-102074500D01*
X128877129Y-102074500D01*
X128877123Y-102074501D01*
X128817516Y-102080908D01*
X128682671Y-102131202D01*
X128682664Y-102131206D01*
X128567455Y-102217452D01*
X128567452Y-102217455D01*
X128481206Y-102332664D01*
X128481202Y-102332671D01*
X128430908Y-102467517D01*
X128424501Y-102527116D01*
X128424500Y-102527135D01*
X128424500Y-102590500D01*
X128404815Y-102657539D01*
X128352011Y-102703294D01*
X128300500Y-102714500D01*
X124661899Y-102714500D01*
X124594860Y-102694815D01*
X124574218Y-102678181D01*
X122755563Y-100859526D01*
X122755562Y-100859525D01*
X122669938Y-100810090D01*
X122622186Y-100797295D01*
X122622184Y-100797294D01*
X122622182Y-100797293D01*
X122574436Y-100784500D01*
X122574435Y-100784500D01*
X121632730Y-100784500D01*
X121565691Y-100764815D01*
X121519936Y-100712011D01*
X121509992Y-100642853D01*
X121529628Y-100591609D01*
X121621628Y-100453920D01*
X121621628Y-100453919D01*
X121621632Y-100453914D01*
X121697051Y-100271835D01*
X121718203Y-100165499D01*
X121735500Y-100078543D01*
X121735500Y-99881456D01*
X121697052Y-99688170D01*
X121697051Y-99688169D01*
X121697051Y-99688165D01*
X121633402Y-99534501D01*
X121621635Y-99506092D01*
X121621628Y-99506079D01*
X121512139Y-99342218D01*
X121512136Y-99342214D01*
X121417103Y-99247181D01*
X121383618Y-99185858D01*
X121388602Y-99116166D01*
X121430474Y-99060233D01*
X121495938Y-99035816D01*
X121504784Y-99035500D01*
X122168101Y-99035500D01*
X122235140Y-99055185D01*
G37*
G04 #@! TD.AperFunction*
G04 #@! TA.AperFunction,NonConductor*
G36*
X122385140Y-101555185D02*
G01*
X122405782Y-101571819D01*
X124154525Y-103320562D01*
X124224438Y-103390475D01*
X124310062Y-103439910D01*
X124357811Y-103452705D01*
X124357812Y-103452705D01*
X124367903Y-103455408D01*
X124405564Y-103465500D01*
X124405565Y-103465500D01*
X128357128Y-103465500D01*
X128424167Y-103485185D01*
X128469922Y-103537989D01*
X128473310Y-103546167D01*
X128481202Y-103567328D01*
X128481206Y-103567335D01*
X128567452Y-103682544D01*
X128567455Y-103682547D01*
X128682664Y-103768793D01*
X128682671Y-103768797D01*
X128727618Y-103785561D01*
X128817517Y-103819091D01*
X128877127Y-103825500D01*
X129355500Y-103825499D01*
X129422539Y-103845183D01*
X129468294Y-103897987D01*
X129479500Y-103949499D01*
X129479500Y-103974678D01*
X129494032Y-104047735D01*
X129494033Y-104047739D01*
X129502397Y-104060257D01*
X129549399Y-104130601D01*
X129549400Y-104130601D01*
X129549401Y-104130603D01*
X129551117Y-104132319D01*
X129553662Y-104136981D01*
X129556185Y-104140756D01*
X129555847Y-104140981D01*
X129584602Y-104193642D01*
X129579618Y-104263334D01*
X129551117Y-104307681D01*
X129549401Y-104309396D01*
X129494033Y-104392260D01*
X129494032Y-104392264D01*
X129479500Y-104465321D01*
X129479500Y-104490500D01*
X129459815Y-104557539D01*
X129407011Y-104603294D01*
X129355500Y-104614500D01*
X128877129Y-104614500D01*
X128877123Y-104614501D01*
X128817516Y-104620908D01*
X128682671Y-104671202D01*
X128682664Y-104671206D01*
X128567455Y-104757452D01*
X128567452Y-104757455D01*
X128481206Y-104872664D01*
X128481202Y-104872671D01*
X128430908Y-105007517D01*
X128424501Y-105067116D01*
X128424500Y-105067135D01*
X128424500Y-105130500D01*
X128404815Y-105197539D01*
X128352011Y-105243294D01*
X128300500Y-105254500D01*
X124426900Y-105254500D01*
X124359861Y-105234815D01*
X124339219Y-105218181D01*
X122494846Y-103373809D01*
X122480563Y-103359526D01*
X122480562Y-103359525D01*
X122394938Y-103310090D01*
X122346604Y-103297139D01*
X122334552Y-103293909D01*
X122334551Y-103293909D01*
X122313957Y-103288391D01*
X122299436Y-103284500D01*
X122299435Y-103284500D01*
X121659457Y-103284500D01*
X121592418Y-103264815D01*
X121546663Y-103212011D01*
X121536719Y-103142853D01*
X121556355Y-103091609D01*
X121621628Y-102993920D01*
X121621628Y-102993919D01*
X121621632Y-102993914D01*
X121697051Y-102811835D01*
X121709632Y-102748582D01*
X121735500Y-102618543D01*
X121735500Y-102421456D01*
X121697052Y-102228170D01*
X121697051Y-102228169D01*
X121697051Y-102228165D01*
X121633402Y-102074501D01*
X121621635Y-102046092D01*
X121621628Y-102046079D01*
X121512139Y-101882218D01*
X121512136Y-101882214D01*
X121377103Y-101747181D01*
X121343618Y-101685858D01*
X121348602Y-101616166D01*
X121390474Y-101560233D01*
X121455938Y-101535816D01*
X121464784Y-101535500D01*
X122318101Y-101535500D01*
X122385140Y-101555185D01*
G37*
G04 #@! TD.AperFunction*
G04 #@! TA.AperFunction,Conductor*
G36*
X104834108Y-94160500D02*
G01*
X104965892Y-94160500D01*
X104967758Y-94160000D01*
X106762232Y-94160000D01*
X106829271Y-94179685D01*
X106875026Y-94232489D01*
X106884970Y-94301647D01*
X106882009Y-94316082D01*
X106874500Y-94344108D01*
X106874500Y-94344110D01*
X106874500Y-94475891D01*
X106908609Y-94603188D01*
X106908609Y-94603189D01*
X106977782Y-94723000D01*
X106994255Y-94790900D01*
X106977782Y-94847000D01*
X106908609Y-94966810D01*
X106908609Y-94966811D01*
X106908608Y-94966813D01*
X106908608Y-94966814D01*
X106874500Y-95094108D01*
X106874500Y-95225892D01*
X106908091Y-95351257D01*
X106908609Y-95353188D01*
X106908609Y-95353189D01*
X106977782Y-95473000D01*
X106994255Y-95540900D01*
X106977782Y-95597000D01*
X106908609Y-95716810D01*
X106908609Y-95716811D01*
X106908608Y-95716813D01*
X106908608Y-95716814D01*
X106906558Y-95724465D01*
X106874500Y-95844108D01*
X106874500Y-95975891D01*
X106908608Y-96103187D01*
X106941554Y-96160250D01*
X106974500Y-96217314D01*
X107067686Y-96310500D01*
X107181814Y-96376392D01*
X107309108Y-96410500D01*
X107309110Y-96410500D01*
X107440890Y-96410500D01*
X107440892Y-96410500D01*
X107568186Y-96376392D01*
X107682314Y-96310500D01*
X107682315Y-96310498D01*
X107687999Y-96307217D01*
X107755899Y-96290744D01*
X107812001Y-96307217D01*
X107817684Y-96310498D01*
X107817686Y-96310500D01*
X107931814Y-96376392D01*
X108059108Y-96410500D01*
X108059110Y-96410500D01*
X108190890Y-96410500D01*
X108190892Y-96410500D01*
X108318186Y-96376392D01*
X108432314Y-96310500D01*
X108432315Y-96310498D01*
X108437999Y-96307217D01*
X108505899Y-96290744D01*
X108562001Y-96307217D01*
X108567684Y-96310498D01*
X108567686Y-96310500D01*
X108681814Y-96376392D01*
X108809108Y-96410500D01*
X108809110Y-96410500D01*
X108940890Y-96410500D01*
X108940892Y-96410500D01*
X109068186Y-96376392D01*
X109182314Y-96310500D01*
X109182317Y-96310496D01*
X109188999Y-96306639D01*
X109256899Y-96290166D01*
X109322926Y-96313018D01*
X109366117Y-96367939D01*
X109375000Y-96414026D01*
X109375000Y-98160500D01*
X109355315Y-98227539D01*
X109302511Y-98273294D01*
X109251000Y-98284500D01*
X109000564Y-98284500D01*
X108952812Y-98297295D01*
X108952811Y-98297294D01*
X108905063Y-98310089D01*
X108905060Y-98310090D01*
X108891559Y-98317886D01*
X108829557Y-98334500D01*
X108809108Y-98334500D01*
X108681812Y-98368608D01*
X108567686Y-98434500D01*
X108567683Y-98434502D01*
X108474502Y-98527683D01*
X108474500Y-98527686D01*
X108408608Y-98641812D01*
X108390489Y-98709435D01*
X108374500Y-98769108D01*
X108374500Y-98900892D01*
X108390465Y-98960475D01*
X108408608Y-99028187D01*
X108427447Y-99060817D01*
X108449204Y-99098500D01*
X108465677Y-99166399D01*
X108442825Y-99232426D01*
X108387904Y-99275617D01*
X108341817Y-99284500D01*
X105398758Y-99284500D01*
X105331719Y-99264815D01*
X105323823Y-99259263D01*
X105209507Y-99193262D01*
X105145859Y-99176208D01*
X105082212Y-99159154D01*
X104950428Y-99159154D01*
X104823132Y-99193262D01*
X104709006Y-99259154D01*
X104709003Y-99259156D01*
X104615822Y-99352337D01*
X104615820Y-99352340D01*
X104549928Y-99466466D01*
X104539312Y-99506086D01*
X104515820Y-99593762D01*
X104515820Y-99725546D01*
X104523419Y-99753909D01*
X104521757Y-99823755D01*
X104482595Y-99881618D01*
X104418367Y-99909123D01*
X104403645Y-99910000D01*
X102249000Y-99910000D01*
X102181961Y-99890315D01*
X102136206Y-99837511D01*
X102125000Y-99786000D01*
X102125000Y-98344108D01*
X102624500Y-98344108D01*
X102624500Y-98475892D01*
X102640472Y-98535500D01*
X102658608Y-98603187D01*
X102680909Y-98641812D01*
X102724500Y-98717314D01*
X102817686Y-98810500D01*
X102931814Y-98876392D01*
X103059108Y-98910500D01*
X103059110Y-98910500D01*
X103190890Y-98910500D01*
X103190892Y-98910500D01*
X103318186Y-98876392D01*
X103432314Y-98810500D01*
X103525500Y-98717314D01*
X103591392Y-98603186D01*
X103625500Y-98475892D01*
X103625500Y-98344108D01*
X103591392Y-98216814D01*
X103525500Y-98102686D01*
X103491922Y-98069108D01*
X106124500Y-98069108D01*
X106124500Y-98200892D01*
X106131640Y-98227539D01*
X106158608Y-98328187D01*
X106181946Y-98368608D01*
X106224500Y-98442314D01*
X106317686Y-98535500D01*
X106431814Y-98601392D01*
X106559108Y-98635500D01*
X106559110Y-98635500D01*
X106690890Y-98635500D01*
X106690892Y-98635500D01*
X106818186Y-98601392D01*
X106932314Y-98535500D01*
X107025500Y-98442314D01*
X107091392Y-98328186D01*
X107125500Y-98200892D01*
X107125500Y-98069108D01*
X107091392Y-97941814D01*
X107025500Y-97827686D01*
X106932314Y-97734500D01*
X106875250Y-97701554D01*
X106818187Y-97668608D01*
X106754539Y-97651554D01*
X106690892Y-97634500D01*
X106559108Y-97634500D01*
X106431812Y-97668608D01*
X106317686Y-97734500D01*
X106317683Y-97734502D01*
X106224502Y-97827683D01*
X106224500Y-97827686D01*
X106158608Y-97941812D01*
X106158127Y-97943608D01*
X106124500Y-98069108D01*
X103491922Y-98069108D01*
X103432314Y-98009500D01*
X103375250Y-97976554D01*
X103318187Y-97943608D01*
X103207365Y-97913914D01*
X103190892Y-97909500D01*
X103059108Y-97909500D01*
X102931812Y-97943608D01*
X102817686Y-98009500D01*
X102817683Y-98009502D01*
X102724502Y-98102683D01*
X102724500Y-98102686D01*
X102658608Y-98216812D01*
X102637043Y-98297295D01*
X102624500Y-98344108D01*
X102125000Y-98344108D01*
X102125000Y-97344108D01*
X104449500Y-97344108D01*
X104449500Y-97475891D01*
X104483608Y-97603187D01*
X104501687Y-97634500D01*
X104549500Y-97717314D01*
X104642686Y-97810500D01*
X104756814Y-97876392D01*
X104884108Y-97910500D01*
X104884110Y-97910500D01*
X105015890Y-97910500D01*
X105015892Y-97910500D01*
X105143186Y-97876392D01*
X105257314Y-97810500D01*
X105350500Y-97717314D01*
X105416392Y-97603186D01*
X105450500Y-97475892D01*
X105450500Y-97344108D01*
X105416392Y-97216814D01*
X105350500Y-97102686D01*
X105257314Y-97009500D01*
X105182119Y-96966086D01*
X105143187Y-96943608D01*
X105079539Y-96926554D01*
X105015892Y-96909500D01*
X104884108Y-96909500D01*
X104756812Y-96943608D01*
X104642686Y-97009500D01*
X104642683Y-97009502D01*
X104549502Y-97102683D01*
X104549500Y-97102686D01*
X104483608Y-97216812D01*
X104449500Y-97344108D01*
X102125000Y-97344108D01*
X102125000Y-95709370D01*
X102144685Y-95642331D01*
X102197489Y-95596576D01*
X102266647Y-95586632D01*
X102281071Y-95589590D01*
X102359108Y-95610500D01*
X102359111Y-95610500D01*
X102490890Y-95610500D01*
X102490892Y-95610500D01*
X102618186Y-95576392D01*
X102732314Y-95510500D01*
X102825500Y-95417314D01*
X102891392Y-95303186D01*
X102925500Y-95175892D01*
X102925500Y-95044108D01*
X102891392Y-94916814D01*
X102868257Y-94876743D01*
X103649500Y-94876743D01*
X103649500Y-95008526D01*
X103683608Y-95135822D01*
X103706742Y-95175890D01*
X103749500Y-95249949D01*
X103842686Y-95343135D01*
X103956814Y-95409027D01*
X104084108Y-95443135D01*
X104084110Y-95443135D01*
X104215890Y-95443135D01*
X104215892Y-95443135D01*
X104343186Y-95409027D01*
X104443246Y-95351257D01*
X105274500Y-95351257D01*
X105274500Y-95483040D01*
X105308608Y-95610336D01*
X105308703Y-95610500D01*
X105374500Y-95724463D01*
X105467686Y-95817649D01*
X105581814Y-95883541D01*
X105709108Y-95917649D01*
X105709110Y-95917649D01*
X105840890Y-95917649D01*
X105840892Y-95917649D01*
X105968186Y-95883541D01*
X106082314Y-95817649D01*
X106175500Y-95724463D01*
X106241392Y-95610335D01*
X106275500Y-95483041D01*
X106275500Y-95351257D01*
X106241392Y-95223963D01*
X106175500Y-95109835D01*
X106082314Y-95016649D01*
X106025250Y-94983703D01*
X105968187Y-94950757D01*
X105904539Y-94933703D01*
X105840892Y-94916649D01*
X105709108Y-94916649D01*
X105581812Y-94950757D01*
X105467686Y-95016649D01*
X105467683Y-95016651D01*
X105374502Y-95109832D01*
X105374500Y-95109835D01*
X105308608Y-95223961D01*
X105274500Y-95351257D01*
X104443246Y-95351257D01*
X104457314Y-95343135D01*
X104550500Y-95249949D01*
X104616392Y-95135821D01*
X104650500Y-95008527D01*
X104650500Y-94876743D01*
X104616392Y-94749449D01*
X104550500Y-94635321D01*
X104457314Y-94542135D01*
X104400250Y-94509189D01*
X104343187Y-94476243D01*
X104279539Y-94459189D01*
X104215892Y-94442135D01*
X104084108Y-94442135D01*
X103956812Y-94476243D01*
X103842686Y-94542135D01*
X103842683Y-94542137D01*
X103749502Y-94635318D01*
X103749500Y-94635321D01*
X103683608Y-94749447D01*
X103649500Y-94876743D01*
X102868257Y-94876743D01*
X102825500Y-94802686D01*
X102732314Y-94709500D01*
X102675250Y-94676554D01*
X102618187Y-94643608D01*
X102554539Y-94626554D01*
X102490892Y-94609500D01*
X102359108Y-94609500D01*
X102281092Y-94630403D01*
X102211243Y-94628741D01*
X102153381Y-94589578D01*
X102125877Y-94525350D01*
X102125000Y-94510629D01*
X102125000Y-94284000D01*
X102144685Y-94216961D01*
X102197489Y-94171206D01*
X102249000Y-94160000D01*
X104832242Y-94160000D01*
X104834108Y-94160500D01*
G37*
G04 #@! TD.AperFunction*
M02*
