G04 #@! TF.GenerationSoftware,KiCad,Pcbnew,9.0.1+1*
G04 #@! TF.CreationDate,2025-11-12T15:35:02+00:00*
G04 #@! TF.ProjectId,mppt-charge,6d707074-2d63-4686-9172-67652e6b6963,0.2*
G04 #@! TF.SameCoordinates,Original*
G04 #@! TF.FileFunction,Paste,Top*
G04 #@! TF.FilePolarity,Positive*
%FSLAX46Y46*%
G04 Gerber Fmt 4.6, Leading zero omitted, Abs format (unit mm)*
G04 Created by KiCad (PCBNEW 9.0.1+1) date 2025-11-12 15:35:02*
%MOMM*%
%LPD*%
G01*
G04 APERTURE LIST*
%ADD10R,3.600000X1.150000*%
%ADD11R,0.610000X1.270000*%
%ADD12R,1.650000X3.810000*%
%ADD13R,0.610000X1.020000*%
%ADD14R,3.500000X2.500000*%
%ADD15R,4.860000X3.360000*%
%ADD16R,1.400000X1.390000*%
%ADD17R,0.000001X0.000001*%
%ADD18O,0.800000X0.280000*%
%ADD19O,0.280000X0.800000*%
G04 APERTURE END LIST*
G36*
G01*
X105625000Y-98435000D02*
X106125000Y-98435000D01*
G75*
G02*
X106350000Y-98660000I0J-225000D01*
G01*
X106350000Y-99110000D01*
G75*
G02*
X106125000Y-99335000I-225000J0D01*
G01*
X105625000Y-99335000D01*
G75*
G02*
X105400000Y-99110000I0J225000D01*
G01*
X105400000Y-98660000D01*
G75*
G02*
X105625000Y-98435000I225000J0D01*
G01*
G37*
G36*
G01*
X105625000Y-99985000D02*
X106125000Y-99985000D01*
G75*
G02*
X106350000Y-100210000I0J-225000D01*
G01*
X106350000Y-100660000D01*
G75*
G02*
X106125000Y-100885000I-225000J0D01*
G01*
X105625000Y-100885000D01*
G75*
G02*
X105400000Y-100660000I0J225000D01*
G01*
X105400000Y-100210000D01*
G75*
G02*
X105625000Y-99985000I225000J0D01*
G01*
G37*
G36*
G01*
X111300000Y-84085000D02*
X111300000Y-81235000D01*
G75*
G02*
X111550000Y-80985000I250000J0D01*
G01*
X112275000Y-80985000D01*
G75*
G02*
X112525000Y-81235000I0J-250000D01*
G01*
X112525000Y-84085000D01*
G75*
G02*
X112275000Y-84335000I-250000J0D01*
G01*
X111550000Y-84335000D01*
G75*
G02*
X111300000Y-84085000I0J250000D01*
G01*
G37*
G36*
G01*
X117225000Y-84085000D02*
X117225000Y-81235000D01*
G75*
G02*
X117475000Y-80985000I250000J0D01*
G01*
X118200000Y-80985000D01*
G75*
G02*
X118450000Y-81235000I0J-250000D01*
G01*
X118450000Y-84085000D01*
G75*
G02*
X118200000Y-84335000I-250000J0D01*
G01*
X117475000Y-84335000D01*
G75*
G02*
X117225000Y-84085000I0J250000D01*
G01*
G37*
G36*
G01*
X107370000Y-79610000D02*
X107070000Y-79610000D01*
G75*
G02*
X106920000Y-79460000I0J150000D01*
G01*
X106920000Y-77810000D01*
G75*
G02*
X107070000Y-77660000I150000J0D01*
G01*
X107370000Y-77660000D01*
G75*
G02*
X107520000Y-77810000I0J-150000D01*
G01*
X107520000Y-79460000D01*
G75*
G02*
X107370000Y-79610000I-150000J0D01*
G01*
G37*
G36*
G01*
X108640000Y-79610000D02*
X108340000Y-79610000D01*
G75*
G02*
X108190000Y-79460000I0J150000D01*
G01*
X108190000Y-77810000D01*
G75*
G02*
X108340000Y-77660000I150000J0D01*
G01*
X108640000Y-77660000D01*
G75*
G02*
X108790000Y-77810000I0J-150000D01*
G01*
X108790000Y-79460000D01*
G75*
G02*
X108640000Y-79610000I-150000J0D01*
G01*
G37*
G36*
G01*
X109910000Y-79610000D02*
X109610000Y-79610000D01*
G75*
G02*
X109460000Y-79460000I0J150000D01*
G01*
X109460000Y-77810000D01*
G75*
G02*
X109610000Y-77660000I150000J0D01*
G01*
X109910000Y-77660000D01*
G75*
G02*
X110060000Y-77810000I0J-150000D01*
G01*
X110060000Y-79460000D01*
G75*
G02*
X109910000Y-79610000I-150000J0D01*
G01*
G37*
G36*
G01*
X111180000Y-79610000D02*
X110880000Y-79610000D01*
G75*
G02*
X110730000Y-79460000I0J150000D01*
G01*
X110730000Y-77810000D01*
G75*
G02*
X110880000Y-77660000I150000J0D01*
G01*
X111180000Y-77660000D01*
G75*
G02*
X111330000Y-77810000I0J-150000D01*
G01*
X111330000Y-79460000D01*
G75*
G02*
X111180000Y-79610000I-150000J0D01*
G01*
G37*
G36*
G01*
X111180000Y-74660000D02*
X110880000Y-74660000D01*
G75*
G02*
X110730000Y-74510000I0J150000D01*
G01*
X110730000Y-72860000D01*
G75*
G02*
X110880000Y-72710000I150000J0D01*
G01*
X111180000Y-72710000D01*
G75*
G02*
X111330000Y-72860000I0J-150000D01*
G01*
X111330000Y-74510000D01*
G75*
G02*
X111180000Y-74660000I-150000J0D01*
G01*
G37*
G36*
G01*
X109910000Y-74660000D02*
X109610000Y-74660000D01*
G75*
G02*
X109460000Y-74510000I0J150000D01*
G01*
X109460000Y-72860000D01*
G75*
G02*
X109610000Y-72710000I150000J0D01*
G01*
X109910000Y-72710000D01*
G75*
G02*
X110060000Y-72860000I0J-150000D01*
G01*
X110060000Y-74510000D01*
G75*
G02*
X109910000Y-74660000I-150000J0D01*
G01*
G37*
G36*
G01*
X108640000Y-74660000D02*
X108340000Y-74660000D01*
G75*
G02*
X108190000Y-74510000I0J150000D01*
G01*
X108190000Y-72860000D01*
G75*
G02*
X108340000Y-72710000I150000J0D01*
G01*
X108640000Y-72710000D01*
G75*
G02*
X108790000Y-72860000I0J-150000D01*
G01*
X108790000Y-74510000D01*
G75*
G02*
X108640000Y-74660000I-150000J0D01*
G01*
G37*
G36*
G01*
X107370000Y-74660000D02*
X107070000Y-74660000D01*
G75*
G02*
X106920000Y-74510000I0J150000D01*
G01*
X106920000Y-72860000D01*
G75*
G02*
X107070000Y-72710000I150000J0D01*
G01*
X107370000Y-72710000D01*
G75*
G02*
X107520000Y-72860000I0J-150000D01*
G01*
X107520000Y-74510000D01*
G75*
G02*
X107370000Y-74660000I-150000J0D01*
G01*
G37*
G36*
G01*
X97625000Y-112397500D02*
X98175000Y-112397500D01*
G75*
G02*
X98375000Y-112597500I0J-200000D01*
G01*
X98375000Y-112997500D01*
G75*
G02*
X98175000Y-113197500I-200000J0D01*
G01*
X97625000Y-113197500D01*
G75*
G02*
X97425000Y-112997500I0J200000D01*
G01*
X97425000Y-112597500D01*
G75*
G02*
X97625000Y-112397500I200000J0D01*
G01*
G37*
G36*
G01*
X97625000Y-114047500D02*
X98175000Y-114047500D01*
G75*
G02*
X98375000Y-114247500I0J-200000D01*
G01*
X98375000Y-114647500D01*
G75*
G02*
X98175000Y-114847500I-200000J0D01*
G01*
X97625000Y-114847500D01*
G75*
G02*
X97425000Y-114647500I0J200000D01*
G01*
X97425000Y-114247500D01*
G75*
G02*
X97625000Y-114047500I200000J0D01*
G01*
G37*
G36*
G01*
X97650000Y-115610000D02*
X98200000Y-115610000D01*
G75*
G02*
X98400000Y-115810000I0J-200000D01*
G01*
X98400000Y-116210000D01*
G75*
G02*
X98200000Y-116410000I-200000J0D01*
G01*
X97650000Y-116410000D01*
G75*
G02*
X97450000Y-116210000I0J200000D01*
G01*
X97450000Y-115810000D01*
G75*
G02*
X97650000Y-115610000I200000J0D01*
G01*
G37*
G36*
G01*
X97650000Y-117260000D02*
X98200000Y-117260000D01*
G75*
G02*
X98400000Y-117460000I0J-200000D01*
G01*
X98400000Y-117860000D01*
G75*
G02*
X98200000Y-118060000I-200000J0D01*
G01*
X97650000Y-118060000D01*
G75*
G02*
X97450000Y-117860000I0J200000D01*
G01*
X97450000Y-117460000D01*
G75*
G02*
X97650000Y-117260000I200000J0D01*
G01*
G37*
G36*
G01*
X113875000Y-75135000D02*
X113375000Y-75135000D01*
G75*
G02*
X113150000Y-74910000I0J225000D01*
G01*
X113150000Y-74460000D01*
G75*
G02*
X113375000Y-74235000I225000J0D01*
G01*
X113875000Y-74235000D01*
G75*
G02*
X114100000Y-74460000I0J-225000D01*
G01*
X114100000Y-74910000D01*
G75*
G02*
X113875000Y-75135000I-225000J0D01*
G01*
G37*
G36*
G01*
X113875000Y-73585000D02*
X113375000Y-73585000D01*
G75*
G02*
X113150000Y-73360000I0J225000D01*
G01*
X113150000Y-72910000D01*
G75*
G02*
X113375000Y-72685000I225000J0D01*
G01*
X113875000Y-72685000D01*
G75*
G02*
X114100000Y-72910000I0J-225000D01*
G01*
X114100000Y-73360000D01*
G75*
G02*
X113875000Y-73585000I-225000J0D01*
G01*
G37*
D10*
X124275000Y-77385000D03*
X124275000Y-74435000D03*
G36*
G01*
X112525000Y-102460000D02*
X111225000Y-102460000D01*
G75*
G02*
X110975000Y-102210000I0J250000D01*
G01*
X110975000Y-101560000D01*
G75*
G02*
X111225000Y-101310000I250000J0D01*
G01*
X112525000Y-101310000D01*
G75*
G02*
X112775000Y-101560000I0J-250000D01*
G01*
X112775000Y-102210000D01*
G75*
G02*
X112525000Y-102460000I-250000J0D01*
G01*
G37*
G36*
G01*
X112525000Y-99510000D02*
X111225000Y-99510000D01*
G75*
G02*
X110975000Y-99260000I0J250000D01*
G01*
X110975000Y-98610000D01*
G75*
G02*
X111225000Y-98360000I250000J0D01*
G01*
X112525000Y-98360000D01*
G75*
G02*
X112775000Y-98610000I0J-250000D01*
G01*
X112775000Y-99260000D01*
G75*
G02*
X112525000Y-99510000I-250000J0D01*
G01*
G37*
G36*
G01*
X102900000Y-95185000D02*
X102900000Y-94635000D01*
G75*
G02*
X103100000Y-94435000I200000J0D01*
G01*
X103500000Y-94435000D01*
G75*
G02*
X103700000Y-94635000I0J-200000D01*
G01*
X103700000Y-95185000D01*
G75*
G02*
X103500000Y-95385000I-200000J0D01*
G01*
X103100000Y-95385000D01*
G75*
G02*
X102900000Y-95185000I0J200000D01*
G01*
G37*
G36*
G01*
X104550000Y-95185000D02*
X104550000Y-94635000D01*
G75*
G02*
X104750000Y-94435000I200000J0D01*
G01*
X105150000Y-94435000D01*
G75*
G02*
X105350000Y-94635000I0J-200000D01*
G01*
X105350000Y-95185000D01*
G75*
G02*
X105150000Y-95385000I-200000J0D01*
G01*
X104750000Y-95385000D01*
G75*
G02*
X104550000Y-95185000I0J200000D01*
G01*
G37*
G36*
G01*
X105620000Y-113610000D02*
X105320000Y-113610000D01*
G75*
G02*
X105170000Y-113460000I0J150000D01*
G01*
X105170000Y-111810000D01*
G75*
G02*
X105320000Y-111660000I150000J0D01*
G01*
X105620000Y-111660000D01*
G75*
G02*
X105770000Y-111810000I0J-150000D01*
G01*
X105770000Y-113460000D01*
G75*
G02*
X105620000Y-113610000I-150000J0D01*
G01*
G37*
G36*
G01*
X106890000Y-113610000D02*
X106590000Y-113610000D01*
G75*
G02*
X106440000Y-113460000I0J150000D01*
G01*
X106440000Y-111810000D01*
G75*
G02*
X106590000Y-111660000I150000J0D01*
G01*
X106890000Y-111660000D01*
G75*
G02*
X107040000Y-111810000I0J-150000D01*
G01*
X107040000Y-113460000D01*
G75*
G02*
X106890000Y-113610000I-150000J0D01*
G01*
G37*
G36*
G01*
X108160000Y-113610000D02*
X107860000Y-113610000D01*
G75*
G02*
X107710000Y-113460000I0J150000D01*
G01*
X107710000Y-111810000D01*
G75*
G02*
X107860000Y-111660000I150000J0D01*
G01*
X108160000Y-111660000D01*
G75*
G02*
X108310000Y-111810000I0J-150000D01*
G01*
X108310000Y-113460000D01*
G75*
G02*
X108160000Y-113610000I-150000J0D01*
G01*
G37*
G36*
G01*
X109430000Y-113610000D02*
X109130000Y-113610000D01*
G75*
G02*
X108980000Y-113460000I0J150000D01*
G01*
X108980000Y-111810000D01*
G75*
G02*
X109130000Y-111660000I150000J0D01*
G01*
X109430000Y-111660000D01*
G75*
G02*
X109580000Y-111810000I0J-150000D01*
G01*
X109580000Y-113460000D01*
G75*
G02*
X109430000Y-113610000I-150000J0D01*
G01*
G37*
G36*
G01*
X109430000Y-108660000D02*
X109130000Y-108660000D01*
G75*
G02*
X108980000Y-108510000I0J150000D01*
G01*
X108980000Y-106860000D01*
G75*
G02*
X109130000Y-106710000I150000J0D01*
G01*
X109430000Y-106710000D01*
G75*
G02*
X109580000Y-106860000I0J-150000D01*
G01*
X109580000Y-108510000D01*
G75*
G02*
X109430000Y-108660000I-150000J0D01*
G01*
G37*
G36*
G01*
X108160000Y-108660000D02*
X107860000Y-108660000D01*
G75*
G02*
X107710000Y-108510000I0J150000D01*
G01*
X107710000Y-106860000D01*
G75*
G02*
X107860000Y-106710000I150000J0D01*
G01*
X108160000Y-106710000D01*
G75*
G02*
X108310000Y-106860000I0J-150000D01*
G01*
X108310000Y-108510000D01*
G75*
G02*
X108160000Y-108660000I-150000J0D01*
G01*
G37*
G36*
G01*
X106890000Y-108660000D02*
X106590000Y-108660000D01*
G75*
G02*
X106440000Y-108510000I0J150000D01*
G01*
X106440000Y-106860000D01*
G75*
G02*
X106590000Y-106710000I150000J0D01*
G01*
X106890000Y-106710000D01*
G75*
G02*
X107040000Y-106860000I0J-150000D01*
G01*
X107040000Y-108510000D01*
G75*
G02*
X106890000Y-108660000I-150000J0D01*
G01*
G37*
G36*
G01*
X105620000Y-108660000D02*
X105320000Y-108660000D01*
G75*
G02*
X105170000Y-108510000I0J150000D01*
G01*
X105170000Y-106860000D01*
G75*
G02*
X105320000Y-106710000I150000J0D01*
G01*
X105620000Y-106710000D01*
G75*
G02*
X105770000Y-106860000I0J-150000D01*
G01*
X105770000Y-108510000D01*
G75*
G02*
X105620000Y-108660000I-150000J0D01*
G01*
G37*
G36*
G01*
X104125000Y-98435000D02*
X104625000Y-98435000D01*
G75*
G02*
X104850000Y-98660000I0J-225000D01*
G01*
X104850000Y-99110000D01*
G75*
G02*
X104625000Y-99335000I-225000J0D01*
G01*
X104125000Y-99335000D01*
G75*
G02*
X103900000Y-99110000I0J225000D01*
G01*
X103900000Y-98660000D01*
G75*
G02*
X104125000Y-98435000I225000J0D01*
G01*
G37*
G36*
G01*
X104125000Y-99985000D02*
X104625000Y-99985000D01*
G75*
G02*
X104850000Y-100210000I0J-225000D01*
G01*
X104850000Y-100660000D01*
G75*
G02*
X104625000Y-100885000I-225000J0D01*
G01*
X104125000Y-100885000D01*
G75*
G02*
X103900000Y-100660000I0J225000D01*
G01*
X103900000Y-100210000D01*
G75*
G02*
X104125000Y-99985000I225000J0D01*
G01*
G37*
G36*
G01*
X105850000Y-78885000D02*
X105850000Y-79435000D01*
G75*
G02*
X105650000Y-79635000I-200000J0D01*
G01*
X105250000Y-79635000D01*
G75*
G02*
X105050000Y-79435000I0J200000D01*
G01*
X105050000Y-78885000D01*
G75*
G02*
X105250000Y-78685000I200000J0D01*
G01*
X105650000Y-78685000D01*
G75*
G02*
X105850000Y-78885000I0J-200000D01*
G01*
G37*
G36*
G01*
X104200000Y-78885000D02*
X104200000Y-79435000D01*
G75*
G02*
X104000000Y-79635000I-200000J0D01*
G01*
X103600000Y-79635000D01*
G75*
G02*
X103400000Y-79435000I0J200000D01*
G01*
X103400000Y-78885000D01*
G75*
G02*
X103600000Y-78685000I200000J0D01*
G01*
X104000000Y-78685000D01*
G75*
G02*
X104200000Y-78885000I0J-200000D01*
G01*
G37*
G36*
G01*
X116925000Y-77810000D02*
X116925000Y-80010000D01*
G75*
G02*
X116675000Y-80260000I-250000J0D01*
G01*
X116025000Y-80260000D01*
G75*
G02*
X115775000Y-80010000I0J250000D01*
G01*
X115775000Y-77810000D01*
G75*
G02*
X116025000Y-77560000I250000J0D01*
G01*
X116675000Y-77560000D01*
G75*
G02*
X116925000Y-77810000I0J-250000D01*
G01*
G37*
G36*
G01*
X113975000Y-77810000D02*
X113975000Y-80010000D01*
G75*
G02*
X113725000Y-80260000I-250000J0D01*
G01*
X113075000Y-80260000D01*
G75*
G02*
X112825000Y-80010000I0J250000D01*
G01*
X112825000Y-77810000D01*
G75*
G02*
X113075000Y-77560000I250000J0D01*
G01*
X113725000Y-77560000D01*
G75*
G02*
X113975000Y-77810000I0J-250000D01*
G01*
G37*
D11*
X106220000Y-91580000D03*
X107490000Y-91580000D03*
X108760000Y-91580000D03*
X110030000Y-91580000D03*
D12*
X109255000Y-88220000D03*
D13*
X110030000Y-86115000D03*
X108760000Y-86115000D03*
X107490000Y-86115000D03*
D12*
X106995000Y-88220000D03*
D13*
X106220000Y-86115000D03*
G36*
G01*
X108600000Y-98435000D02*
X109150000Y-98435000D01*
G75*
G02*
X109350000Y-98635000I0J-200000D01*
G01*
X109350000Y-99035000D01*
G75*
G02*
X109150000Y-99235000I-200000J0D01*
G01*
X108600000Y-99235000D01*
G75*
G02*
X108400000Y-99035000I0J200000D01*
G01*
X108400000Y-98635000D01*
G75*
G02*
X108600000Y-98435000I200000J0D01*
G01*
G37*
G36*
G01*
X108600000Y-100085000D02*
X109150000Y-100085000D01*
G75*
G02*
X109350000Y-100285000I0J-200000D01*
G01*
X109350000Y-100685000D01*
G75*
G02*
X109150000Y-100885000I-200000J0D01*
G01*
X108600000Y-100885000D01*
G75*
G02*
X108400000Y-100685000I0J200000D01*
G01*
X108400000Y-100285000D01*
G75*
G02*
X108600000Y-100085000I200000J0D01*
G01*
G37*
G36*
G01*
X109600000Y-71385000D02*
X109600000Y-71935000D01*
G75*
G02*
X109400000Y-72135000I-200000J0D01*
G01*
X109000000Y-72135000D01*
G75*
G02*
X108800000Y-71935000I0J200000D01*
G01*
X108800000Y-71385000D01*
G75*
G02*
X109000000Y-71185000I200000J0D01*
G01*
X109400000Y-71185000D01*
G75*
G02*
X109600000Y-71385000I0J-200000D01*
G01*
G37*
G36*
G01*
X107950000Y-71385000D02*
X107950000Y-71935000D01*
G75*
G02*
X107750000Y-72135000I-200000J0D01*
G01*
X107350000Y-72135000D01*
G75*
G02*
X107150000Y-71935000I0J200000D01*
G01*
X107150000Y-71385000D01*
G75*
G02*
X107350000Y-71185000I200000J0D01*
G01*
X107750000Y-71185000D01*
G75*
G02*
X107950000Y-71385000I0J-200000D01*
G01*
G37*
G36*
G01*
X112500000Y-97685000D02*
X111250000Y-97685000D01*
G75*
G02*
X111000000Y-97435000I0J250000D01*
G01*
X111000000Y-96810000D01*
G75*
G02*
X111250000Y-96560000I250000J0D01*
G01*
X112500000Y-96560000D01*
G75*
G02*
X112750000Y-96810000I0J-250000D01*
G01*
X112750000Y-97435000D01*
G75*
G02*
X112500000Y-97685000I-250000J0D01*
G01*
G37*
G36*
G01*
X112500000Y-94760000D02*
X111250000Y-94760000D01*
G75*
G02*
X111000000Y-94510000I0J250000D01*
G01*
X111000000Y-93885000D01*
G75*
G02*
X111250000Y-93635000I250000J0D01*
G01*
X112500000Y-93635000D01*
G75*
G02*
X112750000Y-93885000I0J-250000D01*
G01*
X112750000Y-94510000D01*
G75*
G02*
X112500000Y-94760000I-250000J0D01*
G01*
G37*
G36*
G01*
X116925000Y-72110000D02*
X117225000Y-72110000D01*
G75*
G02*
X117375000Y-72260000I0J-150000D01*
G01*
X117375000Y-73285000D01*
G75*
G02*
X117225000Y-73435000I-150000J0D01*
G01*
X116925000Y-73435000D01*
G75*
G02*
X116775000Y-73285000I0J150000D01*
G01*
X116775000Y-72260000D01*
G75*
G02*
X116925000Y-72110000I150000J0D01*
G01*
G37*
G36*
G01*
X115975000Y-72110000D02*
X116275000Y-72110000D01*
G75*
G02*
X116425000Y-72260000I0J-150000D01*
G01*
X116425000Y-73285000D01*
G75*
G02*
X116275000Y-73435000I-150000J0D01*
G01*
X115975000Y-73435000D01*
G75*
G02*
X115825000Y-73285000I0J150000D01*
G01*
X115825000Y-72260000D01*
G75*
G02*
X115975000Y-72110000I150000J0D01*
G01*
G37*
G36*
G01*
X115025000Y-72110000D02*
X115325000Y-72110000D01*
G75*
G02*
X115475000Y-72260000I0J-150000D01*
G01*
X115475000Y-73285000D01*
G75*
G02*
X115325000Y-73435000I-150000J0D01*
G01*
X115025000Y-73435000D01*
G75*
G02*
X114875000Y-73285000I0J150000D01*
G01*
X114875000Y-72260000D01*
G75*
G02*
X115025000Y-72110000I150000J0D01*
G01*
G37*
G36*
G01*
X115025000Y-74385000D02*
X115325000Y-74385000D01*
G75*
G02*
X115475000Y-74535000I0J-150000D01*
G01*
X115475000Y-75560000D01*
G75*
G02*
X115325000Y-75710000I-150000J0D01*
G01*
X115025000Y-75710000D01*
G75*
G02*
X114875000Y-75560000I0J150000D01*
G01*
X114875000Y-74535000D01*
G75*
G02*
X115025000Y-74385000I150000J0D01*
G01*
G37*
G36*
G01*
X115975000Y-74385000D02*
X116275000Y-74385000D01*
G75*
G02*
X116425000Y-74535000I0J-150000D01*
G01*
X116425000Y-75560000D01*
G75*
G02*
X116275000Y-75710000I-150000J0D01*
G01*
X115975000Y-75710000D01*
G75*
G02*
X115825000Y-75560000I0J150000D01*
G01*
X115825000Y-74535000D01*
G75*
G02*
X115975000Y-74385000I150000J0D01*
G01*
G37*
G36*
G01*
X116925000Y-74385000D02*
X117225000Y-74385000D01*
G75*
G02*
X117375000Y-74535000I0J-150000D01*
G01*
X117375000Y-75560000D01*
G75*
G02*
X117225000Y-75710000I-150000J0D01*
G01*
X116925000Y-75710000D01*
G75*
G02*
X116775000Y-75560000I0J150000D01*
G01*
X116775000Y-74535000D01*
G75*
G02*
X116925000Y-74385000I150000J0D01*
G01*
G37*
G36*
G01*
X105350000Y-96135000D02*
X105350000Y-96685000D01*
G75*
G02*
X105150000Y-96885000I-200000J0D01*
G01*
X104750000Y-96885000D01*
G75*
G02*
X104550000Y-96685000I0J200000D01*
G01*
X104550000Y-96135000D01*
G75*
G02*
X104750000Y-95935000I200000J0D01*
G01*
X105150000Y-95935000D01*
G75*
G02*
X105350000Y-96135000I0J-200000D01*
G01*
G37*
G36*
G01*
X103700000Y-96135000D02*
X103700000Y-96685000D01*
G75*
G02*
X103500000Y-96885000I-200000J0D01*
G01*
X103100000Y-96885000D01*
G75*
G02*
X102900000Y-96685000I0J200000D01*
G01*
X102900000Y-96135000D01*
G75*
G02*
X103100000Y-95935000I200000J0D01*
G01*
X103500000Y-95935000D01*
G75*
G02*
X103700000Y-96135000I0J-200000D01*
G01*
G37*
G36*
G01*
X119100000Y-75560000D02*
X118600000Y-75560000D01*
G75*
G02*
X118375000Y-75335000I0J225000D01*
G01*
X118375000Y-74885000D01*
G75*
G02*
X118600000Y-74660000I225000J0D01*
G01*
X119100000Y-74660000D01*
G75*
G02*
X119325000Y-74885000I0J-225000D01*
G01*
X119325000Y-75335000D01*
G75*
G02*
X119100000Y-75560000I-225000J0D01*
G01*
G37*
G36*
G01*
X119100000Y-74010000D02*
X118600000Y-74010000D01*
G75*
G02*
X118375000Y-73785000I0J225000D01*
G01*
X118375000Y-73335000D01*
G75*
G02*
X118600000Y-73110000I225000J0D01*
G01*
X119100000Y-73110000D01*
G75*
G02*
X119325000Y-73335000I0J-225000D01*
G01*
X119325000Y-73785000D01*
G75*
G02*
X119100000Y-74010000I-225000J0D01*
G01*
G37*
D14*
X114875000Y-86410000D03*
X114875000Y-92410000D03*
G36*
G01*
X107650000Y-100885000D02*
X107100000Y-100885000D01*
G75*
G02*
X106900000Y-100685000I0J200000D01*
G01*
X106900000Y-100285000D01*
G75*
G02*
X107100000Y-100085000I200000J0D01*
G01*
X107650000Y-100085000D01*
G75*
G02*
X107850000Y-100285000I0J-200000D01*
G01*
X107850000Y-100685000D01*
G75*
G02*
X107650000Y-100885000I-200000J0D01*
G01*
G37*
G36*
G01*
X107650000Y-99235000D02*
X107100000Y-99235000D01*
G75*
G02*
X106900000Y-99035000I0J200000D01*
G01*
X106900000Y-98635000D01*
G75*
G02*
X107100000Y-98435000I200000J0D01*
G01*
X107650000Y-98435000D01*
G75*
G02*
X107850000Y-98635000I0J-200000D01*
G01*
X107850000Y-99035000D01*
G75*
G02*
X107650000Y-99235000I-200000J0D01*
G01*
G37*
G36*
G01*
X103400000Y-77935000D02*
X103400000Y-77385000D01*
G75*
G02*
X103600000Y-77185000I200000J0D01*
G01*
X104000000Y-77185000D01*
G75*
G02*
X104200000Y-77385000I0J-200000D01*
G01*
X104200000Y-77935000D01*
G75*
G02*
X104000000Y-78135000I-200000J0D01*
G01*
X103600000Y-78135000D01*
G75*
G02*
X103400000Y-77935000I0J200000D01*
G01*
G37*
G36*
G01*
X105050000Y-77935000D02*
X105050000Y-77385000D01*
G75*
G02*
X105250000Y-77185000I200000J0D01*
G01*
X105650000Y-77185000D01*
G75*
G02*
X105850000Y-77385000I0J-200000D01*
G01*
X105850000Y-77935000D01*
G75*
G02*
X105650000Y-78135000I-200000J0D01*
G01*
X105250000Y-78135000D01*
G75*
G02*
X105050000Y-77935000I0J200000D01*
G01*
G37*
G36*
G01*
X119100000Y-78560000D02*
X118600000Y-78560000D01*
G75*
G02*
X118375000Y-78335000I0J225000D01*
G01*
X118375000Y-77885000D01*
G75*
G02*
X118600000Y-77660000I225000J0D01*
G01*
X119100000Y-77660000D01*
G75*
G02*
X119325000Y-77885000I0J-225000D01*
G01*
X119325000Y-78335000D01*
G75*
G02*
X119100000Y-78560000I-225000J0D01*
G01*
G37*
G36*
G01*
X119100000Y-77010000D02*
X118600000Y-77010000D01*
G75*
G02*
X118375000Y-76785000I0J225000D01*
G01*
X118375000Y-76335000D01*
G75*
G02*
X118600000Y-76110000I225000J0D01*
G01*
X119100000Y-76110000D01*
G75*
G02*
X119325000Y-76335000I0J-225000D01*
G01*
X119325000Y-76785000D01*
G75*
G02*
X119100000Y-77010000I-225000J0D01*
G01*
G37*
G36*
G01*
X114600000Y-101860000D02*
X113650000Y-101860000D01*
G75*
G02*
X113400000Y-101610000I0J250000D01*
G01*
X113400000Y-101110000D01*
G75*
G02*
X113650000Y-100860000I250000J0D01*
G01*
X114600000Y-100860000D01*
G75*
G02*
X114850000Y-101110000I0J-250000D01*
G01*
X114850000Y-101610000D01*
G75*
G02*
X114600000Y-101860000I-250000J0D01*
G01*
G37*
G36*
G01*
X114600000Y-99960000D02*
X113650000Y-99960000D01*
G75*
G02*
X113400000Y-99710000I0J250000D01*
G01*
X113400000Y-99210000D01*
G75*
G02*
X113650000Y-98960000I250000J0D01*
G01*
X114600000Y-98960000D01*
G75*
G02*
X114850000Y-99210000I0J-250000D01*
G01*
X114850000Y-99710000D01*
G75*
G02*
X114600000Y-99960000I-250000J0D01*
G01*
G37*
G36*
G01*
X111400000Y-112885000D02*
X110850000Y-112885000D01*
G75*
G02*
X110650000Y-112685000I0J200000D01*
G01*
X110650000Y-112285000D01*
G75*
G02*
X110850000Y-112085000I200000J0D01*
G01*
X111400000Y-112085000D01*
G75*
G02*
X111600000Y-112285000I0J-200000D01*
G01*
X111600000Y-112685000D01*
G75*
G02*
X111400000Y-112885000I-200000J0D01*
G01*
G37*
G36*
G01*
X111400000Y-111235000D02*
X110850000Y-111235000D01*
G75*
G02*
X110650000Y-111035000I0J200000D01*
G01*
X110650000Y-110635000D01*
G75*
G02*
X110850000Y-110435000I200000J0D01*
G01*
X111400000Y-110435000D01*
G75*
G02*
X111600000Y-110635000I0J-200000D01*
G01*
X111600000Y-111035000D01*
G75*
G02*
X111400000Y-111235000I-200000J0D01*
G01*
G37*
G36*
G01*
X112350000Y-110435000D02*
X112900000Y-110435000D01*
G75*
G02*
X113100000Y-110635000I0J-200000D01*
G01*
X113100000Y-111035000D01*
G75*
G02*
X112900000Y-111235000I-200000J0D01*
G01*
X112350000Y-111235000D01*
G75*
G02*
X112150000Y-111035000I0J200000D01*
G01*
X112150000Y-110635000D01*
G75*
G02*
X112350000Y-110435000I200000J0D01*
G01*
G37*
G36*
G01*
X112350000Y-112085000D02*
X112900000Y-112085000D01*
G75*
G02*
X113100000Y-112285000I0J-200000D01*
G01*
X113100000Y-112685000D01*
G75*
G02*
X112900000Y-112885000I-200000J0D01*
G01*
X112350000Y-112885000D01*
G75*
G02*
X112150000Y-112685000I0J200000D01*
G01*
X112150000Y-112285000D01*
G75*
G02*
X112350000Y-112085000I200000J0D01*
G01*
G37*
G36*
G01*
X113625000Y-94435000D02*
X114125000Y-94435000D01*
G75*
G02*
X114350000Y-94660000I0J-225000D01*
G01*
X114350000Y-95110000D01*
G75*
G02*
X114125000Y-95335000I-225000J0D01*
G01*
X113625000Y-95335000D01*
G75*
G02*
X113400000Y-95110000I0J225000D01*
G01*
X113400000Y-94660000D01*
G75*
G02*
X113625000Y-94435000I225000J0D01*
G01*
G37*
G36*
G01*
X113625000Y-95985000D02*
X114125000Y-95985000D01*
G75*
G02*
X114350000Y-96210000I0J-225000D01*
G01*
X114350000Y-96660000D01*
G75*
G02*
X114125000Y-96885000I-225000J0D01*
G01*
X113625000Y-96885000D01*
G75*
G02*
X113400000Y-96660000I0J225000D01*
G01*
X113400000Y-96210000D01*
G75*
G02*
X113625000Y-95985000I225000J0D01*
G01*
G37*
G36*
G01*
X104525000Y-90960000D02*
X103225000Y-90960000D01*
G75*
G02*
X102975000Y-90710000I0J250000D01*
G01*
X102975000Y-90060000D01*
G75*
G02*
X103225000Y-89810000I250000J0D01*
G01*
X104525000Y-89810000D01*
G75*
G02*
X104775000Y-90060000I0J-250000D01*
G01*
X104775000Y-90710000D01*
G75*
G02*
X104525000Y-90960000I-250000J0D01*
G01*
G37*
G36*
G01*
X104525000Y-88010000D02*
X103225000Y-88010000D01*
G75*
G02*
X102975000Y-87760000I0J250000D01*
G01*
X102975000Y-87110000D01*
G75*
G02*
X103225000Y-86860000I250000J0D01*
G01*
X104525000Y-86860000D01*
G75*
G02*
X104775000Y-87110000I0J-250000D01*
G01*
X104775000Y-87760000D01*
G75*
G02*
X104525000Y-88010000I-250000J0D01*
G01*
G37*
G36*
G01*
X108100000Y-104885000D02*
X108100000Y-105435000D01*
G75*
G02*
X107900000Y-105635000I-200000J0D01*
G01*
X107500000Y-105635000D01*
G75*
G02*
X107300000Y-105435000I0J200000D01*
G01*
X107300000Y-104885000D01*
G75*
G02*
X107500000Y-104685000I200000J0D01*
G01*
X107900000Y-104685000D01*
G75*
G02*
X108100000Y-104885000I0J-200000D01*
G01*
G37*
G36*
G01*
X106450000Y-104885000D02*
X106450000Y-105435000D01*
G75*
G02*
X106250000Y-105635000I-200000J0D01*
G01*
X105850000Y-105635000D01*
G75*
G02*
X105650000Y-105435000I0J200000D01*
G01*
X105650000Y-104885000D01*
G75*
G02*
X105850000Y-104685000I200000J0D01*
G01*
X106250000Y-104685000D01*
G75*
G02*
X106450000Y-104885000I0J-200000D01*
G01*
G37*
G36*
G01*
X120600000Y-75560000D02*
X120100000Y-75560000D01*
G75*
G02*
X119875000Y-75335000I0J225000D01*
G01*
X119875000Y-74885000D01*
G75*
G02*
X120100000Y-74660000I225000J0D01*
G01*
X120600000Y-74660000D01*
G75*
G02*
X120825000Y-74885000I0J-225000D01*
G01*
X120825000Y-75335000D01*
G75*
G02*
X120600000Y-75560000I-225000J0D01*
G01*
G37*
G36*
G01*
X120600000Y-74010000D02*
X120100000Y-74010000D01*
G75*
G02*
X119875000Y-73785000I0J225000D01*
G01*
X119875000Y-73335000D01*
G75*
G02*
X120100000Y-73110000I225000J0D01*
G01*
X120600000Y-73110000D01*
G75*
G02*
X120825000Y-73335000I0J-225000D01*
G01*
X120825000Y-73785000D01*
G75*
G02*
X120600000Y-74010000I-225000J0D01*
G01*
G37*
D15*
X106005000Y-82660000D03*
D16*
X109987000Y-81740000D03*
X109987000Y-83580000D03*
D17*
X107322500Y-94357500D03*
X107322500Y-94892500D03*
X107322500Y-95427500D03*
X107322500Y-95962500D03*
X107857500Y-94357500D03*
X107857500Y-94892500D03*
X107857500Y-95427500D03*
X107857500Y-95962500D03*
X108392500Y-94357500D03*
X108392500Y-94892500D03*
X108392500Y-95427500D03*
X108392500Y-95962500D03*
X108927500Y-94357500D03*
X108927500Y-94892500D03*
X108927500Y-95427500D03*
X108927500Y-95962500D03*
D18*
X106375000Y-94410000D03*
X106375000Y-94910000D03*
X106375000Y-95410000D03*
X106375000Y-95910000D03*
D19*
X107375000Y-96910000D03*
X107875000Y-96910000D03*
X108375000Y-96910000D03*
X108875000Y-96910000D03*
D18*
X109875000Y-95910000D03*
X109875000Y-95410000D03*
X109875000Y-94910000D03*
X109875000Y-94410000D03*
D19*
X108875000Y-93410000D03*
X108375000Y-93410000D03*
X107875000Y-93410000D03*
X107375000Y-93410000D03*
M02*
