M48
; DRILL file {KiCad 9.0.1+1} date 2025-11-11T14:39:54+0000
; FORMAT={-:-/ absolute / inch / decimal}
; #@! TF.CreationDate,2025-11-11T14:39:54+00:00
; #@! TF.GenerationSoftware,Kicad,Pcbnew,9.0.1+1
; #@! TF.FileFunction,Plated,1,4,PTH
FMAT,2
INCH
; #@! TA.AperFunction,Plated,PTH,ViaDrill
T1C0.0098
; #@! TA.AperFunction,Plated,PTH,ViaDrill
T2C0.0118
; #@! TA.AperFunction,Plated,PTH,ViaDrill
T3C0.0197
; #@! TA.AperFunction,Plated,PTH,ComponentDrill
T4C0.0295
; #@! TA.AperFunction,Plated,PTH,ComponentDrill
T5C0.0394
; #@! TA.AperFunction,Plated,PTH,ComponentDrill
T6C0.0591
%
G90
G05
T1
X3.8543Y-4.5043
X3.8553Y-4.6308
X4.1345Y-3.9236
X4.1819Y-3.6055
X4.3947Y-2.8016
X4.3947Y-2.8311
X4.3947Y-2.8606
X4.4045Y-4.0122
X4.4242Y-2.8016
X4.4242Y-2.8311
X4.4242Y-2.8606
X4.4931Y-3.9925
T2
X3.6236Y-2.8299
X3.6283Y-4.9524
X3.6484Y-4.965
X3.6508Y-2.8575
X3.6559Y-2.8272
X3.7213Y-5.0626
X3.7295Y-2.7484
X3.7583Y-2.785
X3.7717Y-2.8398
X3.7894Y-4.8114
X3.8415Y-3.089
X3.8415Y-3.4472
X3.8435Y-2.9689
X3.8435Y-3.5362
X3.8533Y-3.648
X3.8573Y-3.7346
X3.8839Y-4.3222
X3.8927Y-4.1894
X3.8937Y-4.4738
X3.8967Y-4.2858
X3.9853Y-4.6283
X4.0325Y-3.7445
X4.0404Y-3.1559
X4.06Y-3.8744
X4.06Y-3.9138
X4.0699Y-3.6283
X4.0845Y-4.5888
X4.0858Y-4.4106
X4.0896Y-3.4423
X4.0915Y-4.1377
X4.0974Y-3.7701
X4.1004Y-3.7379
X4.115Y-4.8185
X4.1261Y-4.1951
X4.1289Y-4.0639
X4.1299Y-3.6874
X4.1319Y-3.835
X4.1427Y-3.5634
X4.1606Y-2.8571
X4.1644Y-3.7566
X4.1781Y-4.3982
X4.189Y-4.5191
X4.1978Y-3.8636
X4.2175Y-3.6598
X4.2274Y-3.7169
X4.2274Y-3.7465
X4.2274Y-3.776
X4.2274Y-3.9561
X4.2435Y-3.5939
X4.2569Y-3.7169
X4.2569Y-3.7465
X4.2569Y-3.776
X4.2569Y-3.8547
X4.2569Y-4.0811
X4.2569Y-4.5339
X4.2589Y-3.3528
X4.2721Y-3.6487
X4.2854Y-4.1874
X4.2864Y-3.7169
X4.2864Y-3.7465
X4.2864Y-3.776
X4.2864Y-3.8911
X4.3004Y-3.5902
X4.3102Y-3.9571
X4.3319Y-3.6055
X4.3319Y-4.465
X4.3479Y-3.6677
X4.3492Y-3.7169
X4.3591Y-4.6858
X4.375Y-3.3331
X4.3906Y-3.4043
X4.3929Y-4.1874
X4.4035Y-4.0516
X4.4154Y-3.4807
X4.4242Y-3.7652
X4.4291Y-4.1079
X4.4496Y-2.9563
X4.4909Y-3.524
X4.5106Y-2.9768
X4.5325Y-3.215
X4.5642Y-4.1787
X4.5665Y-2.8126
X4.5677Y-4.4803
X4.5709Y-4.3248
X4.5817Y-3.5575
X4.5856Y-3.7051
X4.5886Y-4.0445
X4.6309Y-3.589
X4.6309Y-3.7661
X4.6315Y-4.4028
X4.6386Y-3.8437
X4.6398Y-4.0319
X4.6445Y-2.8106
X4.6449Y-3.9224
X4.6449Y-4.2677
X4.6453Y-3.4079
X4.6504Y-2.8972
X4.6504Y-3.526
X4.6555Y-4.1807
X4.6567Y-3.6358
X4.6622Y-4.5748
X4.6722Y-4.7691
X4.7307Y-3.1823
X4.735Y-4.6969
X4.7575Y-3.089
X4.7594Y-3.0098
X4.7614Y-3.2508
X4.7673Y-2.8969
X4.7783Y-4.5969
X4.8087Y-4.4858
X4.8118Y-3.5406
X4.8197Y-3.4323
X4.8213Y-4.0394
X4.8217Y-3.6457
X4.8217Y-3.7413
X4.8248Y-3.9425
X4.8256Y-3.8378
X4.8583Y-4.6224
X4.885Y-3.1299
X4.8886Y-2.85
X4.9256Y-3.3106
X4.9508Y-3.2016
X5.0307Y-4.8008
X5.0417Y-3.4319
X5.0425Y-3.2276
X5.0425Y-3.3303
X5.0425Y-4.2988
X5.0425Y-4.7197
X5.0441Y-4.4264
X5.0445Y-4.5213
X5.0449Y-3.7213
X5.0449Y-3.8173
X5.0461Y-3.6181
X5.0461Y-4.8941
X5.0465Y-3.9197
X5.0465Y-4.1189
X5.0469Y-3.5165
X5.0469Y-4.2224
X5.0472Y-4.0197
X5.0476Y-4.6169
X5.0591Y-3.1618
X5.0843Y-2.8059
T3
X3.8927Y-2.9
X4.2077Y-3.0083
X4.247Y-3.0083
X4.2864Y-3.0083
X4.3014Y-3.4732
X4.3258Y-3.0083
X4.5226Y-3.402
T4
X3.6496Y-2.7531
X3.6496Y-5.0531
X5.0906Y-3.2531
X5.0906Y-3.3531
X5.0906Y-3.4531
X5.0906Y-3.5531
X5.0906Y-3.6531
X5.0906Y-3.7531
X5.0906Y-3.8531
X5.0906Y-3.9531
X5.0906Y-4.0531
X5.0906Y-4.1531
X5.0906Y-4.2531
X5.0906Y-4.3531
X5.0906Y-4.4531
X5.0906Y-4.5531
X5.0906Y-4.6531
X5.0906Y-4.7531
X5.0906Y-4.8531
X5.1004Y-2.7504
T5
X3.9455Y-3.0362
X3.9455Y-3.1362
X3.9455Y-3.2362
X3.9455Y-3.3362
X3.9455Y-3.4362
X3.9455Y-3.5362
X3.9455Y-3.6362
X3.9455Y-3.7362
X3.9455Y-3.8362
X3.9455Y-3.9362
X3.9455Y-4.0362
X3.9455Y-4.1362
X3.9455Y-4.2362
X3.9455Y-4.3362
X3.9455Y-4.4362
X3.9455Y-4.5362
X4.7455Y-3.4362
X4.7455Y-3.5362
X4.7455Y-3.6362
X4.7455Y-3.7362
X4.7455Y-3.8362
X4.7455Y-3.9362
X4.7455Y-4.0362
X4.7455Y-4.1362
X4.7455Y-4.2362
X4.7455Y-4.3362
X4.7455Y-4.4362
X4.7455Y-4.5362
T6
G00X3.5728Y-2.7531
M15
G01X3.5925Y-2.7531
M16
G05
G00X3.5728Y-5.0531
M15
G01X3.5925Y-5.0531
M16
G05
G00X5.1476Y-3.2531
M15
G01X5.1673Y-3.2531
M16
G05
G00X5.1476Y-3.3531
M15
G01X5.1673Y-3.3531
M16
G05
G00X5.1476Y-3.4531
M15
G01X5.1673Y-3.4531
M16
G05
G00X5.1476Y-3.5531
M15
G01X5.1673Y-3.5531
M16
G05
G00X5.1476Y-3.6531
M15
G01X5.1673Y-3.6531
M16
G05
G00X5.1476Y-3.7531
M15
G01X5.1673Y-3.7531
M16
G05
G00X5.1476Y-3.8531
M15
G01X5.1673Y-3.8531
M16
G05
G00X5.1476Y-3.9531
M15
G01X5.1673Y-3.9531
M16
G05
G00X5.1476Y-4.0531
M15
G01X5.1673Y-4.0531
M16
G05
G00X5.1476Y-4.1531
M15
G01X5.1673Y-4.1531
M16
G05
G00X5.1476Y-4.2531
M15
G01X5.1673Y-4.2531
M16
G05
G00X5.1476Y-4.3531
M15
G01X5.1673Y-4.3531
M16
G05
G00X5.1476Y-4.4531
M15
G01X5.1673Y-4.4531
M16
G05
G00X5.1476Y-4.5531
M15
G01X5.1673Y-4.5531
M16
G05
G00X5.1476Y-4.6531
M15
G01X5.1673Y-4.6531
M16
G05
G00X5.1476Y-4.7531
M15
G01X5.1673Y-4.7531
M16
G05
G00X5.1476Y-4.8531
M15
G01X5.1673Y-4.8531
M16
G05
G00X5.1772Y-2.7504
M15
G01X5.1575Y-2.7504
M16
G05
M30
