G04 #@! TF.GenerationSoftware,KiCad,Pcbnew,9.0.1+1*
G04 #@! TF.CreationDate,2025-11-12T15:35:02+00:00*
G04 #@! TF.ProjectId,mppt-charge,6d707074-2d63-4686-9172-67652e6b6963,0.2*
G04 #@! TF.SameCoordinates,Original*
G04 #@! TF.FileFunction,Copper,L3,Inr*
G04 #@! TF.FilePolarity,Positive*
%FSLAX46Y46*%
G04 Gerber Fmt 4.6, Leading zero omitted, Abs format (unit mm)*
G04 Created by KiCad (PCBNEW 9.0.1+1) date 2025-11-12 15:35:02*
%MOMM*%
%LPD*%
G01*
G04 APERTURE LIST*
G04 #@! TA.AperFunction,CastellatedPad*
%ADD10R,2.540000X2.000000*%
G04 #@! TD*
G04 #@! TA.AperFunction,ComponentPad*
%ADD11O,2.600000X1.600000*%
G04 #@! TD*
G04 #@! TA.AperFunction,ViaPad*
%ADD12C,0.600000*%
G04 #@! TD*
G04 #@! TA.AperFunction,ViaPad*
%ADD13C,0.500000*%
G04 #@! TD*
G04 #@! TA.AperFunction,ViaPad*
%ADD14C,1.000000*%
G04 #@! TD*
G04 #@! TA.AperFunction,Conductor*
%ADD15C,0.250000*%
G04 #@! TD*
G04 #@! TA.AperFunction,Conductor*
%ADD16C,1.000000*%
G04 #@! TD*
G04 APERTURE END LIST*
D10*
X91000000Y-69930000D03*
G04 #@! TA.AperFunction,ComponentPad*
G36*
G01*
X93325000Y-69555000D02*
X93325000Y-70305000D01*
G75*
G02*
X93075000Y-70555000I-250000J0D01*
G01*
X92325000Y-70555000D01*
G75*
G02*
X92075000Y-70305000I0J250000D01*
G01*
X92075000Y-69555000D01*
G75*
G02*
X92325000Y-69305000I250000J0D01*
G01*
X93075000Y-69305000D01*
G75*
G02*
X93325000Y-69555000I0J-250000D01*
G01*
G37*
G04 #@! TD.AperFunction*
G04 #@! TA.AperFunction,ComponentPad*
G36*
G01*
X128925000Y-70235000D02*
X128925000Y-69485000D01*
G75*
G02*
X129175000Y-69235000I250000J0D01*
G01*
X129925000Y-69235000D01*
G75*
G02*
X130175000Y-69485000I0J-250000D01*
G01*
X130175000Y-70235000D01*
G75*
G02*
X129925000Y-70485000I-250000J0D01*
G01*
X129175000Y-70485000D01*
G75*
G02*
X128925000Y-70235000I0J250000D01*
G01*
G37*
G04 #@! TD.AperFunction*
X131250000Y-69860000D03*
X91000000Y-128350000D03*
G04 #@! TA.AperFunction,ComponentPad*
G36*
G01*
X93325000Y-127975000D02*
X93325000Y-128725000D01*
G75*
G02*
X93075000Y-128975000I-250000J0D01*
G01*
X92325000Y-128975000D01*
G75*
G02*
X92075000Y-128725000I0J250000D01*
G01*
X92075000Y-127975000D01*
G75*
G02*
X92325000Y-127725000I250000J0D01*
G01*
X93075000Y-127725000D01*
G75*
G02*
X93325000Y-127975000I0J-250000D01*
G01*
G37*
G04 #@! TD.AperFunction*
G04 #@! TA.AperFunction,ComponentPad*
G36*
G01*
X129925000Y-82255000D02*
X129925000Y-83005000D01*
G75*
G02*
X129675000Y-83255000I-250000J0D01*
G01*
X128925000Y-83255000D01*
G75*
G02*
X128675000Y-83005000I0J250000D01*
G01*
X128675000Y-82255000D01*
G75*
G02*
X128925000Y-82005000I250000J0D01*
G01*
X129675000Y-82005000D01*
G75*
G02*
X129925000Y-82255000I0J-250000D01*
G01*
G37*
G04 #@! TD.AperFunction*
X131000000Y-82630000D03*
G04 #@! TA.AperFunction,ComponentPad*
G36*
G01*
X129925000Y-84795000D02*
X129925000Y-85545000D01*
G75*
G02*
X129675000Y-85795000I-250000J0D01*
G01*
X128925000Y-85795000D01*
G75*
G02*
X128675000Y-85545000I0J250000D01*
G01*
X128675000Y-84795000D01*
G75*
G02*
X128925000Y-84545000I250000J0D01*
G01*
X129675000Y-84545000D01*
G75*
G02*
X129925000Y-84795000I0J-250000D01*
G01*
G37*
G04 #@! TD.AperFunction*
X131000000Y-85170000D03*
G04 #@! TA.AperFunction,ComponentPad*
G36*
G01*
X129925000Y-87335000D02*
X129925000Y-88085000D01*
G75*
G02*
X129675000Y-88335000I-250000J0D01*
G01*
X128925000Y-88335000D01*
G75*
G02*
X128675000Y-88085000I0J250000D01*
G01*
X128675000Y-87335000D01*
G75*
G02*
X128925000Y-87085000I250000J0D01*
G01*
X129675000Y-87085000D01*
G75*
G02*
X129925000Y-87335000I0J-250000D01*
G01*
G37*
G04 #@! TD.AperFunction*
X131000000Y-87710000D03*
G04 #@! TA.AperFunction,ComponentPad*
G36*
G01*
X129925000Y-89875000D02*
X129925000Y-90625000D01*
G75*
G02*
X129675000Y-90875000I-250000J0D01*
G01*
X128925000Y-90875000D01*
G75*
G02*
X128675000Y-90625000I0J250000D01*
G01*
X128675000Y-89875000D01*
G75*
G02*
X128925000Y-89625000I250000J0D01*
G01*
X129675000Y-89625000D01*
G75*
G02*
X129925000Y-89875000I0J-250000D01*
G01*
G37*
G04 #@! TD.AperFunction*
X131000000Y-90250000D03*
G04 #@! TA.AperFunction,ComponentPad*
G36*
G01*
X129925000Y-92415000D02*
X129925000Y-93165000D01*
G75*
G02*
X129675000Y-93415000I-250000J0D01*
G01*
X128925000Y-93415000D01*
G75*
G02*
X128675000Y-93165000I0J250000D01*
G01*
X128675000Y-92415000D01*
G75*
G02*
X128925000Y-92165000I250000J0D01*
G01*
X129675000Y-92165000D01*
G75*
G02*
X129925000Y-92415000I0J-250000D01*
G01*
G37*
G04 #@! TD.AperFunction*
X131000000Y-92790000D03*
G04 #@! TA.AperFunction,ComponentPad*
G36*
G01*
X129925000Y-94955000D02*
X129925000Y-95705000D01*
G75*
G02*
X129675000Y-95955000I-250000J0D01*
G01*
X128925000Y-95955000D01*
G75*
G02*
X128675000Y-95705000I0J250000D01*
G01*
X128675000Y-94955000D01*
G75*
G02*
X128925000Y-94705000I250000J0D01*
G01*
X129675000Y-94705000D01*
G75*
G02*
X129925000Y-94955000I0J-250000D01*
G01*
G37*
G04 #@! TD.AperFunction*
X131000000Y-95330000D03*
G04 #@! TA.AperFunction,ComponentPad*
G36*
G01*
X129925000Y-97495000D02*
X129925000Y-98245000D01*
G75*
G02*
X129675000Y-98495000I-250000J0D01*
G01*
X128925000Y-98495000D01*
G75*
G02*
X128675000Y-98245000I0J250000D01*
G01*
X128675000Y-97495000D01*
G75*
G02*
X128925000Y-97245000I250000J0D01*
G01*
X129675000Y-97245000D01*
G75*
G02*
X129925000Y-97495000I0J-250000D01*
G01*
G37*
G04 #@! TD.AperFunction*
X131000000Y-97870000D03*
G04 #@! TA.AperFunction,ComponentPad*
G36*
G01*
X129925000Y-100035000D02*
X129925000Y-100785000D01*
G75*
G02*
X129675000Y-101035000I-250000J0D01*
G01*
X128925000Y-101035000D01*
G75*
G02*
X128675000Y-100785000I0J250000D01*
G01*
X128675000Y-100035000D01*
G75*
G02*
X128925000Y-99785000I250000J0D01*
G01*
X129675000Y-99785000D01*
G75*
G02*
X129925000Y-100035000I0J-250000D01*
G01*
G37*
G04 #@! TD.AperFunction*
X131000000Y-100410000D03*
G04 #@! TA.AperFunction,ComponentPad*
G36*
G01*
X129925000Y-102575000D02*
X129925000Y-103325000D01*
G75*
G02*
X129675000Y-103575000I-250000J0D01*
G01*
X128925000Y-103575000D01*
G75*
G02*
X128675000Y-103325000I0J250000D01*
G01*
X128675000Y-102575000D01*
G75*
G02*
X128925000Y-102325000I250000J0D01*
G01*
X129675000Y-102325000D01*
G75*
G02*
X129925000Y-102575000I0J-250000D01*
G01*
G37*
G04 #@! TD.AperFunction*
X131000000Y-102950000D03*
G04 #@! TA.AperFunction,ComponentPad*
G36*
G01*
X129925000Y-105115000D02*
X129925000Y-105865000D01*
G75*
G02*
X129675000Y-106115000I-250000J0D01*
G01*
X128925000Y-106115000D01*
G75*
G02*
X128675000Y-105865000I0J250000D01*
G01*
X128675000Y-105115000D01*
G75*
G02*
X128925000Y-104865000I250000J0D01*
G01*
X129675000Y-104865000D01*
G75*
G02*
X129925000Y-105115000I0J-250000D01*
G01*
G37*
G04 #@! TD.AperFunction*
X131000000Y-105490000D03*
G04 #@! TA.AperFunction,ComponentPad*
G36*
G01*
X129925000Y-107655000D02*
X129925000Y-108405000D01*
G75*
G02*
X129675000Y-108655000I-250000J0D01*
G01*
X128925000Y-108655000D01*
G75*
G02*
X128675000Y-108405000I0J250000D01*
G01*
X128675000Y-107655000D01*
G75*
G02*
X128925000Y-107405000I250000J0D01*
G01*
X129675000Y-107405000D01*
G75*
G02*
X129925000Y-107655000I0J-250000D01*
G01*
G37*
G04 #@! TD.AperFunction*
X131000000Y-108030000D03*
G04 #@! TA.AperFunction,ComponentPad*
G36*
G01*
X129925000Y-110195000D02*
X129925000Y-110945000D01*
G75*
G02*
X129675000Y-111195000I-250000J0D01*
G01*
X128925000Y-111195000D01*
G75*
G02*
X128675000Y-110945000I0J250000D01*
G01*
X128675000Y-110195000D01*
G75*
G02*
X128925000Y-109945000I250000J0D01*
G01*
X129675000Y-109945000D01*
G75*
G02*
X129925000Y-110195000I0J-250000D01*
G01*
G37*
G04 #@! TD.AperFunction*
X131000000Y-110570000D03*
G04 #@! TA.AperFunction,ComponentPad*
G36*
G01*
X129925000Y-112735000D02*
X129925000Y-113485000D01*
G75*
G02*
X129675000Y-113735000I-250000J0D01*
G01*
X128925000Y-113735000D01*
G75*
G02*
X128675000Y-113485000I0J250000D01*
G01*
X128675000Y-112735000D01*
G75*
G02*
X128925000Y-112485000I250000J0D01*
G01*
X129675000Y-112485000D01*
G75*
G02*
X129925000Y-112735000I0J-250000D01*
G01*
G37*
G04 #@! TD.AperFunction*
X131000000Y-113110000D03*
G04 #@! TA.AperFunction,ComponentPad*
G36*
G01*
X129925000Y-115275000D02*
X129925000Y-116025000D01*
G75*
G02*
X129675000Y-116275000I-250000J0D01*
G01*
X128925000Y-116275000D01*
G75*
G02*
X128675000Y-116025000I0J250000D01*
G01*
X128675000Y-115275000D01*
G75*
G02*
X128925000Y-115025000I250000J0D01*
G01*
X129675000Y-115025000D01*
G75*
G02*
X129925000Y-115275000I0J-250000D01*
G01*
G37*
G04 #@! TD.AperFunction*
X131000000Y-115650000D03*
G04 #@! TA.AperFunction,ComponentPad*
G36*
G01*
X129925000Y-117815000D02*
X129925000Y-118565000D01*
G75*
G02*
X129675000Y-118815000I-250000J0D01*
G01*
X128925000Y-118815000D01*
G75*
G02*
X128675000Y-118565000I0J250000D01*
G01*
X128675000Y-117815000D01*
G75*
G02*
X128925000Y-117565000I250000J0D01*
G01*
X129675000Y-117565000D01*
G75*
G02*
X129925000Y-117815000I0J-250000D01*
G01*
G37*
G04 #@! TD.AperFunction*
X131000000Y-118190000D03*
G04 #@! TA.AperFunction,ComponentPad*
G36*
G01*
X129925000Y-120355000D02*
X129925000Y-121105000D01*
G75*
G02*
X129675000Y-121355000I-250000J0D01*
G01*
X128925000Y-121355000D01*
G75*
G02*
X128675000Y-121105000I0J250000D01*
G01*
X128675000Y-120355000D01*
G75*
G02*
X128925000Y-120105000I250000J0D01*
G01*
X129675000Y-120105000D01*
G75*
G02*
X129925000Y-120355000I0J-250000D01*
G01*
G37*
G04 #@! TD.AperFunction*
X131000000Y-120730000D03*
G04 #@! TA.AperFunction,ComponentPad*
G36*
G01*
X129925000Y-122895000D02*
X129925000Y-123645000D01*
G75*
G02*
X129675000Y-123895000I-250000J0D01*
G01*
X128925000Y-123895000D01*
G75*
G02*
X128675000Y-123645000I0J250000D01*
G01*
X128675000Y-122895000D01*
G75*
G02*
X128925000Y-122645000I250000J0D01*
G01*
X129675000Y-122645000D01*
G75*
G02*
X129925000Y-122895000I0J-250000D01*
G01*
G37*
G04 #@! TD.AperFunction*
X131000000Y-123270000D03*
G04 #@! TA.AperFunction,ComponentPad*
G36*
G01*
X99215000Y-77670000D02*
X99215000Y-76570000D01*
G75*
G02*
X99465000Y-76320000I250000J0D01*
G01*
X101565000Y-76320000D01*
G75*
G02*
X101815000Y-76570000I0J-250000D01*
G01*
X101815000Y-77670000D01*
G75*
G02*
X101565000Y-77920000I-250000J0D01*
G01*
X99465000Y-77920000D01*
G75*
G02*
X99215000Y-77670000I0J250000D01*
G01*
G37*
G04 #@! TD.AperFunction*
D11*
X100515000Y-79660000D03*
X100515000Y-82200000D03*
X100515000Y-84740000D03*
X100515000Y-87280000D03*
X100515000Y-89820000D03*
X100515000Y-92360000D03*
X100515000Y-94900000D03*
X100515000Y-97440000D03*
X100515000Y-99980000D03*
X100515000Y-102520000D03*
X100515000Y-105060000D03*
X100515000Y-107600000D03*
X100515000Y-110140000D03*
X100515000Y-112680000D03*
X100515000Y-115220000D03*
X120235000Y-115220000D03*
X120235000Y-112680000D03*
X120235000Y-110140000D03*
X120235000Y-107600000D03*
X120235000Y-105060000D03*
X120235000Y-102520000D03*
X120235000Y-99980000D03*
X120235000Y-97440000D03*
X120235000Y-94900000D03*
X120235000Y-92360000D03*
X120235000Y-89820000D03*
X120235000Y-87280000D03*
D12*
X106400000Y-114785000D03*
X101225735Y-117559265D03*
X104520586Y-122389471D03*
D13*
X106625000Y-98135000D03*
X97975000Y-94860000D03*
X98975000Y-108860000D03*
X98650000Y-109785000D03*
X97875000Y-92660000D03*
X105775000Y-95417149D03*
D12*
X123400000Y-117410000D03*
D13*
X104802572Y-106554439D03*
X98875000Y-106410000D03*
D14*
X98875000Y-73660000D03*
D13*
X111850000Y-102910000D03*
X97625000Y-89820000D03*
X97625000Y-75410000D03*
X97575000Y-78460000D03*
X97575000Y-87560000D03*
X116375000Y-90360000D03*
X105225000Y-90510000D03*
X116475000Y-94110002D03*
X104900000Y-93660000D03*
D12*
X98900000Y-113635000D03*
D13*
X108125000Y-97910000D03*
X103125000Y-99410000D03*
X104075000Y-95760000D03*
X117625000Y-91160000D03*
X110469384Y-94410000D03*
X112375000Y-95635000D03*
X117625000Y-95660000D03*
D14*
X109255000Y-88220000D03*
D13*
X115125000Y-81660000D03*
D14*
X114875000Y-86410000D03*
D13*
X108512501Y-92677501D03*
X106220000Y-91580000D03*
X112150000Y-88410000D03*
X110437500Y-93160000D03*
X107125000Y-92960000D03*
X103875000Y-87435000D03*
X106125000Y-111715000D03*
X107375000Y-100485000D03*
X108875000Y-98835000D03*
X102425000Y-95110000D03*
X102625000Y-80160000D03*
X97900000Y-114410000D03*
X97925000Y-117622500D03*
X110030000Y-91580000D03*
X111125000Y-84660000D03*
X107785464Y-91284536D03*
X108175000Y-85160000D03*
X104150000Y-94942635D03*
X108125000Y-103660000D03*
X104875000Y-103222500D03*
X105016320Y-99659654D03*
X104950000Y-97410000D03*
D12*
X120940000Y-82570000D03*
X112500000Y-104340000D03*
X94730000Y-69810000D03*
X122460000Y-102600000D03*
X128500000Y-80310000D03*
X118120000Y-73590000D03*
D13*
X108125000Y-95910000D03*
D12*
X114070000Y-89510000D03*
X117640000Y-111830000D03*
X120890000Y-76450000D03*
D13*
X112375000Y-72660000D03*
D12*
X122550000Y-100140000D03*
X92670000Y-126110000D03*
D13*
X103125000Y-98410000D03*
X112375000Y-71160000D03*
D12*
X128080000Y-84590000D03*
X124080000Y-79500000D03*
X113020000Y-75090000D03*
D13*
X103375000Y-92160000D03*
D12*
X117970000Y-71390000D03*
X128120000Y-112430000D03*
X103780000Y-112030000D03*
D13*
X107375000Y-94410000D03*
D12*
X128210000Y-117270000D03*
X128080000Y-119880000D03*
X124170000Y-72390000D03*
X115990000Y-71440000D03*
D13*
X108850000Y-106360000D03*
D12*
X94520000Y-128590000D03*
X111520000Y-86470000D03*
X122140000Y-113940000D03*
D13*
X108125000Y-94410000D03*
D12*
X95800000Y-72130000D03*
X122470000Y-92600000D03*
X109230000Y-91190000D03*
X118420000Y-116200000D03*
D13*
X107375000Y-95910000D03*
X108875000Y-95160000D03*
D12*
X128180000Y-99560000D03*
X117990000Y-86560000D03*
X120270000Y-119300000D03*
X118120000Y-89560000D03*
X111580000Y-106360000D03*
X92860000Y-71810000D03*
X122570000Y-97480000D03*
X128130000Y-114840000D03*
X122470000Y-95030000D03*
D13*
X114125000Y-101410000D03*
D12*
X118250000Y-106190000D03*
X116550000Y-102730000D03*
X128080000Y-109190000D03*
D13*
X103925000Y-105097500D03*
X108875000Y-94410000D03*
X111625000Y-72660000D03*
D12*
X128080000Y-81980000D03*
X95460000Y-70740000D03*
X117850000Y-102410000D03*
X121090000Y-73580000D03*
D13*
X111625000Y-71910000D03*
X108125000Y-95160000D03*
D12*
X129140000Y-71270000D03*
X105680000Y-72570000D03*
X109480000Y-100510000D03*
X114570000Y-75610000D03*
X121370000Y-116760000D03*
X118280000Y-92350000D03*
D13*
X111625000Y-71160000D03*
D12*
X92730000Y-72580000D03*
X115930000Y-106140000D03*
X128140000Y-94520000D03*
X128200000Y-102100000D03*
X116020000Y-113800000D03*
D13*
X111875000Y-101910000D03*
D12*
X127780000Y-121940000D03*
X128170000Y-124310000D03*
X120840000Y-78460000D03*
X110720000Y-119020000D03*
X92160000Y-125790000D03*
X128190000Y-107250000D03*
X117980000Y-108400000D03*
X128180000Y-104620000D03*
X117980000Y-99630000D03*
X128190000Y-89320000D03*
X122420000Y-87180000D03*
X128170000Y-91900000D03*
X125750000Y-81320000D03*
X117820000Y-97630000D03*
X120160000Y-80830000D03*
D13*
X108875000Y-95910000D03*
D12*
X92040000Y-71880000D03*
X122220000Y-89930000D03*
D13*
X107375000Y-95160000D03*
D12*
X116100000Y-109850000D03*
X125110000Y-84090000D03*
D13*
X112375000Y-71910000D03*
D12*
X128140000Y-96960000D03*
X128060000Y-87170000D03*
D14*
X106875000Y-76410000D03*
X107875000Y-76410000D03*
X108875000Y-76410000D03*
X109875000Y-76410000D03*
D13*
X110030000Y-113410000D03*
X108125000Y-115160000D03*
D12*
X96250000Y-122210000D03*
X103745558Y-116555558D03*
X118675000Y-121135000D03*
D15*
X126185000Y-113250000D02*
X128575000Y-113250000D01*
X120535000Y-107600000D02*
X126185000Y-113250000D01*
X120725000Y-104985000D02*
X123910000Y-108170000D01*
X120650000Y-105060000D02*
X120725000Y-104985000D01*
X120535000Y-105060000D02*
X120650000Y-105060000D01*
X123910000Y-108170000D02*
X128575000Y-108170000D01*
X104900000Y-90835000D02*
X105225000Y-90510000D01*
X116375000Y-90360000D02*
X116475000Y-90460000D01*
X104900000Y-93660000D02*
X104900000Y-90835000D01*
X116475000Y-90460000D02*
X116475000Y-94110002D01*
X117625000Y-91410000D02*
X117625000Y-95660000D01*
X117625000Y-91160000D02*
X117625000Y-91410000D01*
X114875000Y-81910000D02*
X114875000Y-86410000D01*
X115125000Y-81660000D02*
X114875000Y-81910000D01*
X111125000Y-92472500D02*
X110437500Y-93160000D01*
X112150000Y-88410000D02*
X111125000Y-89435000D01*
X111125000Y-89435000D02*
X111125000Y-92472500D01*
X106125000Y-101735000D02*
X107375000Y-100485000D01*
X106125000Y-111715000D02*
X106125000Y-101735000D01*
X110080000Y-85705000D02*
X110080000Y-91530000D01*
X111125000Y-84660000D02*
X110080000Y-85705000D01*
X110080000Y-91530000D02*
X110030000Y-91580000D01*
X107785464Y-91284536D02*
X107785464Y-85549536D01*
X107785464Y-85549536D02*
X108175000Y-85160000D01*
X104345000Y-102692500D02*
X104345000Y-96795600D01*
X104875000Y-103222500D02*
X104345000Y-102692500D01*
X104345000Y-96795600D02*
X104730000Y-96410600D01*
X104730000Y-95522635D02*
X104150000Y-94942635D01*
X104730000Y-96410600D02*
X104730000Y-95522635D01*
X105016320Y-97476320D02*
X104950000Y-97410000D01*
X105016320Y-99659654D02*
X105016320Y-97476320D01*
D16*
X108700000Y-70020000D02*
X109760000Y-70020000D01*
X109760000Y-70020000D02*
X129390000Y-70020000D01*
X106875000Y-70925000D02*
X107780000Y-70020000D01*
X108875000Y-70195000D02*
X108700000Y-70020000D01*
X106875000Y-76410000D02*
X106875000Y-70925000D01*
X107875000Y-76410000D02*
X107875000Y-70115000D01*
X109875000Y-70135000D02*
X109760000Y-70020000D01*
X107875000Y-70115000D02*
X107780000Y-70020000D01*
X109875000Y-76410000D02*
X109875000Y-70135000D01*
X107780000Y-70020000D02*
X108700000Y-70020000D01*
X129390000Y-70020000D02*
X129550000Y-69860000D01*
X108875000Y-76410000D02*
X108875000Y-70195000D01*
G04 #@! TA.AperFunction,Conductor*
G36*
X107373734Y-69180185D02*
G01*
X107419489Y-69232989D01*
X107429433Y-69302147D01*
X107400408Y-69365703D01*
X107375586Y-69387602D01*
X107301583Y-69437048D01*
X107249316Y-69489316D01*
X107197048Y-69541584D01*
X106292048Y-70446583D01*
X106274674Y-70472585D01*
X106257416Y-70498416D01*
X106209914Y-70569507D01*
X106153343Y-70706082D01*
X106153340Y-70706092D01*
X106124500Y-70851079D01*
X106124500Y-70851082D01*
X106124500Y-76336082D01*
X106124500Y-76483918D01*
X106124500Y-76483920D01*
X106124499Y-76483920D01*
X106153340Y-76628907D01*
X106153343Y-76628917D01*
X106209912Y-76765488D01*
X106209919Y-76765501D01*
X106292048Y-76888415D01*
X106292051Y-76888419D01*
X106396580Y-76992948D01*
X106396584Y-76992951D01*
X106519498Y-77075080D01*
X106519511Y-77075087D01*
X106656082Y-77131656D01*
X106656087Y-77131658D01*
X106656091Y-77131658D01*
X106656092Y-77131659D01*
X106801079Y-77160500D01*
X106801082Y-77160500D01*
X106948920Y-77160500D01*
X107046462Y-77141096D01*
X107093913Y-77131658D01*
X107230495Y-77075084D01*
X107306111Y-77024559D01*
X107372786Y-77003682D01*
X107440166Y-77022166D01*
X107443848Y-77024531D01*
X107519505Y-77075084D01*
X107519507Y-77075085D01*
X107519511Y-77075087D01*
X107656082Y-77131656D01*
X107656087Y-77131658D01*
X107656091Y-77131658D01*
X107656092Y-77131659D01*
X107801079Y-77160500D01*
X107801082Y-77160500D01*
X107948920Y-77160500D01*
X108046462Y-77141096D01*
X108093913Y-77131658D01*
X108230495Y-77075084D01*
X108306111Y-77024559D01*
X108372786Y-77003682D01*
X108440166Y-77022166D01*
X108443848Y-77024531D01*
X108519505Y-77075084D01*
X108519507Y-77075085D01*
X108519511Y-77075087D01*
X108656082Y-77131656D01*
X108656087Y-77131658D01*
X108656091Y-77131658D01*
X108656092Y-77131659D01*
X108801079Y-77160500D01*
X108801082Y-77160500D01*
X108948920Y-77160500D01*
X109046462Y-77141096D01*
X109093913Y-77131658D01*
X109230495Y-77075084D01*
X109306111Y-77024559D01*
X109372786Y-77003682D01*
X109440166Y-77022166D01*
X109443848Y-77024531D01*
X109519505Y-77075084D01*
X109519507Y-77075085D01*
X109519511Y-77075087D01*
X109656082Y-77131656D01*
X109656087Y-77131658D01*
X109656091Y-77131658D01*
X109656092Y-77131659D01*
X109801079Y-77160500D01*
X109801082Y-77160500D01*
X109948920Y-77160500D01*
X110046462Y-77141096D01*
X110093913Y-77131658D01*
X110230495Y-77075084D01*
X110353416Y-76992951D01*
X110457951Y-76888416D01*
X110540084Y-76765495D01*
X110596658Y-76628913D01*
X110606096Y-76581462D01*
X110625500Y-76483920D01*
X110625500Y-70894500D01*
X110645185Y-70827461D01*
X110697989Y-70781706D01*
X110749500Y-70770500D01*
X129463919Y-70770500D01*
X129550004Y-70753376D01*
X129581308Y-70747149D01*
X129650899Y-70753376D01*
X129706077Y-70796238D01*
X129729322Y-70862128D01*
X129729500Y-70868766D01*
X129729500Y-70884678D01*
X129744032Y-70957735D01*
X129744033Y-70957739D01*
X129744034Y-70957740D01*
X129799399Y-71040601D01*
X129882260Y-71095966D01*
X129882264Y-71095967D01*
X129955321Y-71110499D01*
X129955324Y-71110500D01*
X129955326Y-71110500D01*
X130375500Y-71110500D01*
X130442539Y-71130185D01*
X130488294Y-71182989D01*
X130499500Y-71234500D01*
X130499500Y-81255500D01*
X130479815Y-81322539D01*
X130427011Y-81368294D01*
X130375500Y-81379500D01*
X129705323Y-81379500D01*
X129632264Y-81394032D01*
X129632260Y-81394033D01*
X129549399Y-81449399D01*
X129494033Y-81532260D01*
X129494032Y-81532264D01*
X129479500Y-81605321D01*
X129479500Y-81630500D01*
X129459815Y-81697539D01*
X129407011Y-81743294D01*
X129355500Y-81754500D01*
X128877129Y-81754500D01*
X128877123Y-81754501D01*
X128817516Y-81760908D01*
X128682671Y-81811202D01*
X128682664Y-81811206D01*
X128567455Y-81897452D01*
X128567452Y-81897455D01*
X128481206Y-82012664D01*
X128481202Y-82012671D01*
X128430908Y-82147517D01*
X128424501Y-82207116D01*
X128424500Y-82207135D01*
X128424500Y-83052870D01*
X128424501Y-83052876D01*
X128430908Y-83112483D01*
X128481202Y-83247328D01*
X128481206Y-83247335D01*
X128567452Y-83362544D01*
X128567455Y-83362547D01*
X128682664Y-83448793D01*
X128682671Y-83448797D01*
X128727618Y-83465561D01*
X128817517Y-83499091D01*
X128877127Y-83505500D01*
X129355500Y-83505499D01*
X129422539Y-83525183D01*
X129468294Y-83577987D01*
X129479500Y-83629499D01*
X129479500Y-83654678D01*
X129494032Y-83727735D01*
X129494033Y-83727739D01*
X129494034Y-83727740D01*
X129549399Y-83810601D01*
X129549400Y-83810601D01*
X129549401Y-83810603D01*
X129551117Y-83812319D01*
X129553662Y-83816981D01*
X129556185Y-83820756D01*
X129555847Y-83820981D01*
X129584602Y-83873642D01*
X129579618Y-83943334D01*
X129551117Y-83987681D01*
X129549401Y-83989396D01*
X129494033Y-84072260D01*
X129494032Y-84072264D01*
X129479500Y-84145321D01*
X129479500Y-84170500D01*
X129459815Y-84237539D01*
X129407011Y-84283294D01*
X129355500Y-84294500D01*
X128877129Y-84294500D01*
X128877123Y-84294501D01*
X128817516Y-84300908D01*
X128682671Y-84351202D01*
X128682664Y-84351206D01*
X128567455Y-84437452D01*
X128567452Y-84437455D01*
X128481206Y-84552664D01*
X128481202Y-84552671D01*
X128430908Y-84687517D01*
X128424501Y-84747116D01*
X128424500Y-84747135D01*
X128424500Y-85592870D01*
X128424501Y-85592876D01*
X128430908Y-85652483D01*
X128481202Y-85787328D01*
X128481206Y-85787335D01*
X128567452Y-85902544D01*
X128567455Y-85902547D01*
X128682664Y-85988793D01*
X128682671Y-85988797D01*
X128727618Y-86005561D01*
X128817517Y-86039091D01*
X128877127Y-86045500D01*
X129355500Y-86045499D01*
X129422539Y-86065183D01*
X129468294Y-86117987D01*
X129479500Y-86169499D01*
X129479500Y-86194678D01*
X129494032Y-86267735D01*
X129494033Y-86267739D01*
X129503539Y-86281965D01*
X129549399Y-86350601D01*
X129549400Y-86350601D01*
X129549401Y-86350603D01*
X129551117Y-86352319D01*
X129553662Y-86356981D01*
X129556185Y-86360756D01*
X129555847Y-86360981D01*
X129584602Y-86413642D01*
X129579618Y-86483334D01*
X129551117Y-86527681D01*
X129549401Y-86529396D01*
X129494033Y-86612260D01*
X129494032Y-86612264D01*
X129479500Y-86685321D01*
X129479500Y-86710500D01*
X129459815Y-86777539D01*
X129407011Y-86823294D01*
X129355500Y-86834500D01*
X128877129Y-86834500D01*
X128877123Y-86834501D01*
X128817516Y-86840908D01*
X128682671Y-86891202D01*
X128682664Y-86891206D01*
X128567455Y-86977452D01*
X128567452Y-86977455D01*
X128481206Y-87092664D01*
X128481204Y-87092669D01*
X128430908Y-87227517D01*
X128424501Y-87287116D01*
X128424500Y-87287135D01*
X128424500Y-88132870D01*
X128424501Y-88132876D01*
X128430908Y-88192483D01*
X128481202Y-88327328D01*
X128481206Y-88327335D01*
X128567452Y-88442544D01*
X128567455Y-88442547D01*
X128682664Y-88528793D01*
X128682671Y-88528797D01*
X128727618Y-88545561D01*
X128817517Y-88579091D01*
X128877127Y-88585500D01*
X129355500Y-88585499D01*
X129422539Y-88605183D01*
X129468294Y-88657987D01*
X129479500Y-88709499D01*
X129479500Y-88734678D01*
X129494032Y-88807735D01*
X129494033Y-88807739D01*
X129503744Y-88822272D01*
X129549399Y-88890601D01*
X129549400Y-88890601D01*
X129549401Y-88890603D01*
X129551117Y-88892319D01*
X129553662Y-88896981D01*
X129556185Y-88900756D01*
X129555847Y-88900981D01*
X129584602Y-88953642D01*
X129579618Y-89023334D01*
X129551117Y-89067681D01*
X129549401Y-89069396D01*
X129494033Y-89152260D01*
X129494032Y-89152264D01*
X129479500Y-89225321D01*
X129479500Y-89250500D01*
X129459815Y-89317539D01*
X129407011Y-89363294D01*
X129355500Y-89374500D01*
X128877129Y-89374500D01*
X128877123Y-89374501D01*
X128817516Y-89380908D01*
X128682671Y-89431202D01*
X128682664Y-89431206D01*
X128567455Y-89517452D01*
X128567452Y-89517455D01*
X128481206Y-89632664D01*
X128481202Y-89632671D01*
X128430908Y-89767517D01*
X128424501Y-89827116D01*
X128424500Y-89827135D01*
X128424500Y-90672870D01*
X128424501Y-90672876D01*
X128430908Y-90732483D01*
X128481202Y-90867328D01*
X128481206Y-90867335D01*
X128567452Y-90982544D01*
X128567455Y-90982547D01*
X128682664Y-91068793D01*
X128682671Y-91068797D01*
X128711368Y-91079500D01*
X128817517Y-91119091D01*
X128877127Y-91125500D01*
X129355500Y-91125499D01*
X129422539Y-91145183D01*
X129468294Y-91197987D01*
X129479500Y-91249499D01*
X129479500Y-91274678D01*
X129494032Y-91347735D01*
X129494033Y-91347739D01*
X129512489Y-91375360D01*
X129549399Y-91430601D01*
X129549400Y-91430601D01*
X129549401Y-91430603D01*
X129551117Y-91432319D01*
X129553662Y-91436981D01*
X129556185Y-91440756D01*
X129555847Y-91440981D01*
X129584602Y-91493642D01*
X129579618Y-91563334D01*
X129551117Y-91607681D01*
X129549401Y-91609396D01*
X129494033Y-91692260D01*
X129494032Y-91692264D01*
X129479500Y-91765321D01*
X129479500Y-91790500D01*
X129459815Y-91857539D01*
X129407011Y-91903294D01*
X129355500Y-91914500D01*
X128877129Y-91914500D01*
X128877123Y-91914501D01*
X128817516Y-91920908D01*
X128682671Y-91971202D01*
X128682664Y-91971206D01*
X128567455Y-92057452D01*
X128567452Y-92057455D01*
X128481206Y-92172664D01*
X128481202Y-92172671D01*
X128430908Y-92307517D01*
X128424501Y-92367116D01*
X128424500Y-92367135D01*
X128424500Y-93212870D01*
X128424501Y-93212876D01*
X128430908Y-93272483D01*
X128481202Y-93407328D01*
X128481206Y-93407335D01*
X128567452Y-93522544D01*
X128567455Y-93522547D01*
X128682664Y-93608793D01*
X128682671Y-93608797D01*
X128727618Y-93625561D01*
X128817517Y-93659091D01*
X128877127Y-93665500D01*
X129355500Y-93665499D01*
X129422539Y-93685183D01*
X129468294Y-93737987D01*
X129479500Y-93789499D01*
X129479500Y-93814678D01*
X129494032Y-93887735D01*
X129494033Y-93887739D01*
X129508573Y-93909500D01*
X129549399Y-93970601D01*
X129549400Y-93970601D01*
X129549401Y-93970603D01*
X129551117Y-93972319D01*
X129553662Y-93976981D01*
X129556185Y-93980756D01*
X129555847Y-93980981D01*
X129584602Y-94033642D01*
X129579618Y-94103334D01*
X129551117Y-94147681D01*
X129549401Y-94149396D01*
X129494033Y-94232260D01*
X129494032Y-94232264D01*
X129479500Y-94305321D01*
X129479500Y-94330500D01*
X129459815Y-94397539D01*
X129407011Y-94443294D01*
X129355500Y-94454500D01*
X128877129Y-94454500D01*
X128877123Y-94454501D01*
X128817516Y-94460908D01*
X128682671Y-94511202D01*
X128682664Y-94511206D01*
X128567455Y-94597452D01*
X128567452Y-94597455D01*
X128481206Y-94712664D01*
X128481202Y-94712671D01*
X128430908Y-94847517D01*
X128424501Y-94907116D01*
X128424500Y-94907135D01*
X128424500Y-95752870D01*
X128424501Y-95752876D01*
X128430908Y-95812483D01*
X128481202Y-95947328D01*
X128481206Y-95947335D01*
X128567452Y-96062544D01*
X128567455Y-96062547D01*
X128682664Y-96148793D01*
X128682671Y-96148797D01*
X128714041Y-96160497D01*
X128817517Y-96199091D01*
X128877127Y-96205500D01*
X129355500Y-96205499D01*
X129422539Y-96225183D01*
X129468294Y-96277987D01*
X129479500Y-96329499D01*
X129479500Y-96354678D01*
X129494032Y-96427735D01*
X129494033Y-96427739D01*
X129512489Y-96455360D01*
X129549399Y-96510601D01*
X129549400Y-96510601D01*
X129549401Y-96510603D01*
X129551117Y-96512319D01*
X129553662Y-96516981D01*
X129556185Y-96520756D01*
X129555847Y-96520981D01*
X129584602Y-96573642D01*
X129579618Y-96643334D01*
X129551117Y-96687681D01*
X129549401Y-96689396D01*
X129494033Y-96772260D01*
X129494032Y-96772264D01*
X129479500Y-96845321D01*
X129479500Y-96870500D01*
X129459815Y-96937539D01*
X129407011Y-96983294D01*
X129355500Y-96994500D01*
X128877129Y-96994500D01*
X128877123Y-96994501D01*
X128817516Y-97000908D01*
X128682671Y-97051202D01*
X128682664Y-97051206D01*
X128567455Y-97137452D01*
X128567452Y-97137455D01*
X128481206Y-97252664D01*
X128481202Y-97252671D01*
X128430908Y-97387517D01*
X128424501Y-97447116D01*
X128424500Y-97447135D01*
X128424500Y-98292870D01*
X128424501Y-98292876D01*
X128430908Y-98352483D01*
X128481202Y-98487328D01*
X128481206Y-98487335D01*
X128567452Y-98602544D01*
X128567455Y-98602547D01*
X128682664Y-98688793D01*
X128682671Y-98688797D01*
X128727618Y-98705561D01*
X128817517Y-98739091D01*
X128877127Y-98745500D01*
X129355500Y-98745499D01*
X129422539Y-98765183D01*
X129468294Y-98817987D01*
X129479500Y-98869499D01*
X129479500Y-98894678D01*
X129494032Y-98967735D01*
X129494033Y-98967739D01*
X129512489Y-98995360D01*
X129549399Y-99050601D01*
X129549400Y-99050601D01*
X129549401Y-99050603D01*
X129551117Y-99052319D01*
X129553662Y-99056981D01*
X129556185Y-99060756D01*
X129555847Y-99060981D01*
X129584602Y-99113642D01*
X129579618Y-99183334D01*
X129551117Y-99227681D01*
X129549401Y-99229396D01*
X129494033Y-99312260D01*
X129494032Y-99312264D01*
X129479500Y-99385321D01*
X129479500Y-99410500D01*
X129459815Y-99477539D01*
X129407011Y-99523294D01*
X129355500Y-99534500D01*
X128877129Y-99534500D01*
X128877123Y-99534501D01*
X128817516Y-99540908D01*
X128682671Y-99591202D01*
X128682664Y-99591206D01*
X128567455Y-99677452D01*
X128567452Y-99677455D01*
X128481206Y-99792664D01*
X128481202Y-99792671D01*
X128430908Y-99927517D01*
X128424501Y-99987116D01*
X128424500Y-99987135D01*
X128424500Y-100832870D01*
X128424501Y-100832876D01*
X128430908Y-100892483D01*
X128481202Y-101027328D01*
X128481206Y-101027335D01*
X128567452Y-101142544D01*
X128567455Y-101142547D01*
X128682664Y-101228793D01*
X128682671Y-101228797D01*
X128727618Y-101245561D01*
X128817517Y-101279091D01*
X128877127Y-101285500D01*
X129355500Y-101285499D01*
X129422539Y-101305183D01*
X129468294Y-101357987D01*
X129479500Y-101409499D01*
X129479500Y-101434678D01*
X129494032Y-101507735D01*
X129494033Y-101507739D01*
X129512489Y-101535360D01*
X129549399Y-101590601D01*
X129549400Y-101590601D01*
X129549401Y-101590603D01*
X129551117Y-101592319D01*
X129553662Y-101596981D01*
X129556185Y-101600756D01*
X129555847Y-101600981D01*
X129584602Y-101653642D01*
X129579618Y-101723334D01*
X129551117Y-101767681D01*
X129549401Y-101769396D01*
X129494033Y-101852260D01*
X129494032Y-101852264D01*
X129479500Y-101925321D01*
X129479500Y-101950500D01*
X129459815Y-102017539D01*
X129407011Y-102063294D01*
X129355500Y-102074500D01*
X128877129Y-102074500D01*
X128877123Y-102074501D01*
X128817516Y-102080908D01*
X128682671Y-102131202D01*
X128682664Y-102131206D01*
X128567455Y-102217452D01*
X128567452Y-102217455D01*
X128481206Y-102332664D01*
X128481202Y-102332671D01*
X128430908Y-102467517D01*
X128424501Y-102527116D01*
X128424500Y-102527135D01*
X128424500Y-103372870D01*
X128424501Y-103372876D01*
X128430908Y-103432483D01*
X128481202Y-103567328D01*
X128481206Y-103567335D01*
X128567452Y-103682544D01*
X128567455Y-103682547D01*
X128682664Y-103768793D01*
X128682671Y-103768797D01*
X128727618Y-103785561D01*
X128817517Y-103819091D01*
X128877127Y-103825500D01*
X129355500Y-103825499D01*
X129422539Y-103845183D01*
X129468294Y-103897987D01*
X129479500Y-103949499D01*
X129479500Y-103974678D01*
X129494032Y-104047735D01*
X129494033Y-104047739D01*
X129502558Y-104060497D01*
X129549399Y-104130601D01*
X129549400Y-104130601D01*
X129549401Y-104130603D01*
X129551117Y-104132319D01*
X129553662Y-104136981D01*
X129556185Y-104140756D01*
X129555847Y-104140981D01*
X129584602Y-104193642D01*
X129579618Y-104263334D01*
X129551117Y-104307681D01*
X129549401Y-104309396D01*
X129494033Y-104392260D01*
X129494032Y-104392264D01*
X129479500Y-104465321D01*
X129479500Y-104490500D01*
X129459815Y-104557539D01*
X129407011Y-104603294D01*
X129355500Y-104614500D01*
X128877129Y-104614500D01*
X128877123Y-104614501D01*
X128817516Y-104620908D01*
X128682671Y-104671202D01*
X128682664Y-104671206D01*
X128567455Y-104757452D01*
X128567452Y-104757455D01*
X128481206Y-104872664D01*
X128481202Y-104872671D01*
X128430908Y-105007517D01*
X128424501Y-105067116D01*
X128424500Y-105067135D01*
X128424500Y-105912870D01*
X128424501Y-105912876D01*
X128430908Y-105972483D01*
X128481202Y-106107328D01*
X128481206Y-106107335D01*
X128567452Y-106222544D01*
X128567455Y-106222547D01*
X128682664Y-106308793D01*
X128682671Y-106308797D01*
X128727618Y-106325561D01*
X128817517Y-106359091D01*
X128877127Y-106365500D01*
X129355500Y-106365499D01*
X129422539Y-106385183D01*
X129468294Y-106437987D01*
X129479500Y-106489499D01*
X129479500Y-106514678D01*
X129494032Y-106587735D01*
X129494033Y-106587739D01*
X129504355Y-106603187D01*
X129549399Y-106670601D01*
X129549400Y-106670601D01*
X129549401Y-106670603D01*
X129551117Y-106672319D01*
X129553662Y-106676981D01*
X129556185Y-106680756D01*
X129555847Y-106680981D01*
X129584602Y-106733642D01*
X129579618Y-106803334D01*
X129551117Y-106847681D01*
X129549401Y-106849396D01*
X129494033Y-106932260D01*
X129494032Y-106932264D01*
X129479500Y-107005321D01*
X129479500Y-107030500D01*
X129459815Y-107097539D01*
X129407011Y-107143294D01*
X129355500Y-107154500D01*
X128877129Y-107154500D01*
X128877123Y-107154501D01*
X128817516Y-107160908D01*
X128682671Y-107211202D01*
X128682664Y-107211206D01*
X128567455Y-107297452D01*
X128567452Y-107297455D01*
X128481206Y-107412664D01*
X128481202Y-107412671D01*
X128430908Y-107547517D01*
X128424501Y-107607116D01*
X128424500Y-107607135D01*
X128424500Y-107670500D01*
X128404815Y-107737539D01*
X128352011Y-107783294D01*
X128300500Y-107794500D01*
X124116899Y-107794500D01*
X124049860Y-107774815D01*
X124029218Y-107758181D01*
X121731610Y-105460573D01*
X121698125Y-105399250D01*
X121697674Y-105348702D01*
X121735500Y-105158541D01*
X121735500Y-104961459D01*
X121735500Y-104961456D01*
X121697052Y-104768170D01*
X121697051Y-104768169D01*
X121697051Y-104768165D01*
X121633402Y-104614501D01*
X121621635Y-104586092D01*
X121621628Y-104586079D01*
X121512139Y-104422218D01*
X121512136Y-104422214D01*
X121372785Y-104282863D01*
X121372781Y-104282860D01*
X121208920Y-104173371D01*
X121208907Y-104173364D01*
X121026839Y-104097950D01*
X121026829Y-104097947D01*
X120833543Y-104059500D01*
X120833541Y-104059500D01*
X119636459Y-104059500D01*
X119636457Y-104059500D01*
X119443170Y-104097947D01*
X119443160Y-104097950D01*
X119261092Y-104173364D01*
X119261079Y-104173371D01*
X119097218Y-104282860D01*
X119097214Y-104282863D01*
X118957863Y-104422214D01*
X118957860Y-104422218D01*
X118848371Y-104586079D01*
X118848364Y-104586092D01*
X118772950Y-104768160D01*
X118772947Y-104768170D01*
X118734500Y-104961456D01*
X118734500Y-104961459D01*
X118734500Y-105158541D01*
X118734500Y-105158543D01*
X118734499Y-105158543D01*
X118772947Y-105351829D01*
X118772950Y-105351839D01*
X118848364Y-105533907D01*
X118848371Y-105533920D01*
X118957860Y-105697781D01*
X118957863Y-105697785D01*
X119097214Y-105837136D01*
X119097218Y-105837139D01*
X119261079Y-105946628D01*
X119261092Y-105946635D01*
X119432803Y-106017759D01*
X119443165Y-106022051D01*
X119443169Y-106022051D01*
X119443170Y-106022052D01*
X119636456Y-106060500D01*
X119636459Y-106060500D01*
X120833543Y-106060500D01*
X120963582Y-106034632D01*
X121026835Y-106022051D01*
X121094665Y-105993954D01*
X121164130Y-105986485D01*
X121226610Y-106017759D01*
X121229797Y-106020834D01*
X123609525Y-108400562D01*
X123679438Y-108470475D01*
X123765062Y-108519910D01*
X123812811Y-108532705D01*
X123812812Y-108532705D01*
X123822903Y-108535408D01*
X123860564Y-108545500D01*
X123860565Y-108545500D01*
X128357128Y-108545500D01*
X128424167Y-108565185D01*
X128469922Y-108617989D01*
X128473310Y-108626167D01*
X128481202Y-108647328D01*
X128481206Y-108647335D01*
X128567452Y-108762544D01*
X128567455Y-108762547D01*
X128682664Y-108848793D01*
X128682671Y-108848797D01*
X128727618Y-108865561D01*
X128817517Y-108899091D01*
X128877127Y-108905500D01*
X129355500Y-108905499D01*
X129422539Y-108925183D01*
X129468294Y-108977987D01*
X129479500Y-109029499D01*
X129479500Y-109054678D01*
X129494032Y-109127735D01*
X129494033Y-109127739D01*
X129506819Y-109146874D01*
X129549399Y-109210601D01*
X129549400Y-109210601D01*
X129549401Y-109210603D01*
X129551117Y-109212319D01*
X129553662Y-109216981D01*
X129556185Y-109220756D01*
X129555847Y-109220981D01*
X129584602Y-109273642D01*
X129579618Y-109343334D01*
X129551117Y-109387681D01*
X129549401Y-109389396D01*
X129494033Y-109472260D01*
X129494032Y-109472264D01*
X129479500Y-109545321D01*
X129479500Y-109570500D01*
X129459815Y-109637539D01*
X129407011Y-109683294D01*
X129355500Y-109694500D01*
X128877129Y-109694500D01*
X128877123Y-109694501D01*
X128817516Y-109700908D01*
X128682671Y-109751202D01*
X128682664Y-109751206D01*
X128567455Y-109837452D01*
X128567452Y-109837455D01*
X128481206Y-109952664D01*
X128481202Y-109952671D01*
X128430908Y-110087517D01*
X128424501Y-110147116D01*
X128424500Y-110147135D01*
X128424500Y-110992870D01*
X128424501Y-110992876D01*
X128430908Y-111052483D01*
X128481202Y-111187328D01*
X128481206Y-111187335D01*
X128567452Y-111302544D01*
X128567455Y-111302547D01*
X128682664Y-111388793D01*
X128682671Y-111388797D01*
X128712848Y-111400052D01*
X128817517Y-111439091D01*
X128877127Y-111445500D01*
X129355500Y-111445499D01*
X129422539Y-111465183D01*
X129468294Y-111517987D01*
X129479500Y-111569499D01*
X129479500Y-111594678D01*
X129494032Y-111667735D01*
X129494033Y-111667739D01*
X129512489Y-111695360D01*
X129549399Y-111750601D01*
X129549400Y-111750601D01*
X129549401Y-111750603D01*
X129551117Y-111752319D01*
X129553662Y-111756981D01*
X129556185Y-111760756D01*
X129555847Y-111760981D01*
X129584602Y-111813642D01*
X129579618Y-111883334D01*
X129551117Y-111927681D01*
X129549401Y-111929396D01*
X129494033Y-112012260D01*
X129494032Y-112012264D01*
X129479500Y-112085321D01*
X129479500Y-112110500D01*
X129459815Y-112177539D01*
X129407011Y-112223294D01*
X129355500Y-112234500D01*
X128877129Y-112234500D01*
X128877123Y-112234501D01*
X128817516Y-112240908D01*
X128682671Y-112291202D01*
X128682664Y-112291206D01*
X128567455Y-112377452D01*
X128567452Y-112377455D01*
X128481206Y-112492664D01*
X128481202Y-112492671D01*
X128430908Y-112627517D01*
X128424501Y-112687116D01*
X128424500Y-112687135D01*
X128424500Y-112750500D01*
X128404815Y-112817539D01*
X128352011Y-112863294D01*
X128300500Y-112874500D01*
X126391900Y-112874500D01*
X126324861Y-112854815D01*
X126304219Y-112838181D01*
X121656295Y-108190258D01*
X121622810Y-108128935D01*
X121627794Y-108059243D01*
X121629415Y-108055125D01*
X121697049Y-107891839D01*
X121697051Y-107891835D01*
X121716412Y-107794500D01*
X121735500Y-107698543D01*
X121735500Y-107501456D01*
X121697052Y-107308170D01*
X121697051Y-107308169D01*
X121697051Y-107308165D01*
X121633402Y-107154501D01*
X121621635Y-107126092D01*
X121621628Y-107126079D01*
X121512139Y-106962218D01*
X121512136Y-106962214D01*
X121372785Y-106822863D01*
X121372781Y-106822860D01*
X121208920Y-106713371D01*
X121208907Y-106713364D01*
X121026839Y-106637950D01*
X121026829Y-106637947D01*
X120833543Y-106599500D01*
X120833541Y-106599500D01*
X119636459Y-106599500D01*
X119636457Y-106599500D01*
X119443170Y-106637947D01*
X119443160Y-106637950D01*
X119261092Y-106713364D01*
X119261079Y-106713371D01*
X119097218Y-106822860D01*
X119097214Y-106822863D01*
X118957863Y-106962214D01*
X118957860Y-106962218D01*
X118848371Y-107126079D01*
X118848364Y-107126092D01*
X118772950Y-107308160D01*
X118772947Y-107308170D01*
X118734500Y-107501456D01*
X118734500Y-107501459D01*
X118734500Y-107698541D01*
X118734500Y-107698543D01*
X118734499Y-107698543D01*
X118772947Y-107891829D01*
X118772950Y-107891839D01*
X118848364Y-108073907D01*
X118848371Y-108073920D01*
X118957860Y-108237781D01*
X118957863Y-108237785D01*
X119097214Y-108377136D01*
X119097218Y-108377139D01*
X119261079Y-108486628D01*
X119261092Y-108486635D01*
X119443160Y-108562049D01*
X119443165Y-108562051D01*
X119443169Y-108562051D01*
X119443170Y-108562052D01*
X119636456Y-108600500D01*
X119636459Y-108600500D01*
X120833542Y-108600500D01*
X120879800Y-108591298D01*
X120911098Y-108585072D01*
X120980688Y-108591298D01*
X121022970Y-108619007D01*
X125954437Y-113550475D01*
X126040063Y-113599911D01*
X126135564Y-113625500D01*
X126135565Y-113625500D01*
X128357128Y-113625500D01*
X128424167Y-113645185D01*
X128469922Y-113697989D01*
X128473310Y-113706167D01*
X128481202Y-113727328D01*
X128481206Y-113727335D01*
X128567452Y-113842544D01*
X128567455Y-113842547D01*
X128682664Y-113928793D01*
X128682671Y-113928797D01*
X128722382Y-113943608D01*
X128817517Y-113979091D01*
X128877127Y-113985500D01*
X129355500Y-113985499D01*
X129422539Y-114005183D01*
X129468294Y-114057987D01*
X129479500Y-114109499D01*
X129479500Y-114134678D01*
X129494032Y-114207735D01*
X129494033Y-114207739D01*
X129511914Y-114234500D01*
X129549399Y-114290601D01*
X129549400Y-114290601D01*
X129549401Y-114290603D01*
X129551117Y-114292319D01*
X129553662Y-114296981D01*
X129556185Y-114300756D01*
X129555847Y-114300981D01*
X129584602Y-114353642D01*
X129579618Y-114423334D01*
X129551117Y-114467681D01*
X129549401Y-114469396D01*
X129494033Y-114552260D01*
X129494032Y-114552264D01*
X129479500Y-114625321D01*
X129479500Y-114650500D01*
X129459815Y-114717539D01*
X129407011Y-114763294D01*
X129355500Y-114774500D01*
X128877129Y-114774500D01*
X128877123Y-114774501D01*
X128817516Y-114780908D01*
X128682671Y-114831202D01*
X128682664Y-114831206D01*
X128567455Y-114917452D01*
X128567452Y-114917455D01*
X128481206Y-115032664D01*
X128481202Y-115032671D01*
X128430908Y-115167517D01*
X128424501Y-115227116D01*
X128424500Y-115227135D01*
X128424500Y-116072870D01*
X128424501Y-116072876D01*
X128430908Y-116132483D01*
X128481202Y-116267328D01*
X128481206Y-116267335D01*
X128567452Y-116382544D01*
X128567455Y-116382547D01*
X128682664Y-116468793D01*
X128682671Y-116468797D01*
X128720974Y-116483083D01*
X128817517Y-116519091D01*
X128877127Y-116525500D01*
X129355500Y-116525499D01*
X129422539Y-116545183D01*
X129468294Y-116597987D01*
X129479500Y-116649499D01*
X129479500Y-116674678D01*
X129494032Y-116747735D01*
X129494033Y-116747739D01*
X129494034Y-116747740D01*
X129549399Y-116830601D01*
X129549400Y-116830601D01*
X129549401Y-116830603D01*
X129551117Y-116832319D01*
X129553662Y-116836981D01*
X129556185Y-116840756D01*
X129555847Y-116840981D01*
X129584602Y-116893642D01*
X129579618Y-116963334D01*
X129551117Y-117007681D01*
X129549401Y-117009396D01*
X129494033Y-117092260D01*
X129494032Y-117092264D01*
X129479500Y-117165321D01*
X129479500Y-117190500D01*
X129459815Y-117257539D01*
X129407011Y-117303294D01*
X129355500Y-117314500D01*
X128877129Y-117314500D01*
X128877123Y-117314501D01*
X128817516Y-117320908D01*
X128682671Y-117371202D01*
X128682664Y-117371206D01*
X128567455Y-117457452D01*
X128567452Y-117457455D01*
X128481206Y-117572664D01*
X128481202Y-117572671D01*
X128430908Y-117707517D01*
X128424501Y-117767116D01*
X128424500Y-117767135D01*
X128424500Y-118612870D01*
X128424501Y-118612876D01*
X128430908Y-118672483D01*
X128481202Y-118807328D01*
X128481206Y-118807335D01*
X128567452Y-118922544D01*
X128567455Y-118922547D01*
X128682664Y-119008793D01*
X128682671Y-119008797D01*
X128727618Y-119025561D01*
X128817517Y-119059091D01*
X128877127Y-119065500D01*
X129355500Y-119065499D01*
X129422539Y-119085183D01*
X129468294Y-119137987D01*
X129479500Y-119189499D01*
X129479500Y-119214678D01*
X129494032Y-119287735D01*
X129494033Y-119287739D01*
X129494034Y-119287740D01*
X129549399Y-119370601D01*
X129549400Y-119370601D01*
X129549401Y-119370603D01*
X129551117Y-119372319D01*
X129553662Y-119376981D01*
X129556185Y-119380756D01*
X129555847Y-119380981D01*
X129584602Y-119433642D01*
X129579618Y-119503334D01*
X129551117Y-119547681D01*
X129549401Y-119549396D01*
X129494033Y-119632260D01*
X129494032Y-119632264D01*
X129479500Y-119705321D01*
X129479500Y-119730500D01*
X129459815Y-119797539D01*
X129407011Y-119843294D01*
X129355500Y-119854500D01*
X128877129Y-119854500D01*
X128877123Y-119854501D01*
X128817516Y-119860908D01*
X128682671Y-119911202D01*
X128682664Y-119911206D01*
X128567455Y-119997452D01*
X128567452Y-119997455D01*
X128481206Y-120112664D01*
X128481202Y-120112671D01*
X128430908Y-120247517D01*
X128424501Y-120307116D01*
X128424500Y-120307135D01*
X128424500Y-121152870D01*
X128424501Y-121152876D01*
X128430908Y-121212483D01*
X128481202Y-121347328D01*
X128481206Y-121347335D01*
X128567452Y-121462544D01*
X128567455Y-121462547D01*
X128682664Y-121548793D01*
X128682671Y-121548797D01*
X128727618Y-121565561D01*
X128817517Y-121599091D01*
X128877127Y-121605500D01*
X129355500Y-121605499D01*
X129422539Y-121625183D01*
X129468294Y-121677987D01*
X129479500Y-121729499D01*
X129479500Y-121754678D01*
X129494032Y-121827735D01*
X129494033Y-121827739D01*
X129494034Y-121827740D01*
X129549399Y-121910601D01*
X129549400Y-121910601D01*
X129549401Y-121910603D01*
X129551117Y-121912319D01*
X129553662Y-121916981D01*
X129556185Y-121920756D01*
X129555847Y-121920981D01*
X129584602Y-121973642D01*
X129579618Y-122043334D01*
X129551117Y-122087681D01*
X129549401Y-122089396D01*
X129494033Y-122172260D01*
X129494032Y-122172264D01*
X129479500Y-122245321D01*
X129479500Y-122270500D01*
X129459815Y-122337539D01*
X129407011Y-122383294D01*
X129355500Y-122394500D01*
X128877129Y-122394500D01*
X128877123Y-122394501D01*
X128817516Y-122400908D01*
X128682671Y-122451202D01*
X128682664Y-122451206D01*
X128567455Y-122537452D01*
X128567452Y-122537455D01*
X128481206Y-122652664D01*
X128481202Y-122652671D01*
X128430908Y-122787517D01*
X128424501Y-122847116D01*
X128424500Y-122847135D01*
X128424500Y-123692870D01*
X128424501Y-123692876D01*
X128430908Y-123752483D01*
X128481202Y-123887328D01*
X128481206Y-123887335D01*
X128567452Y-124002544D01*
X128567455Y-124002547D01*
X128682664Y-124088793D01*
X128682671Y-124088797D01*
X128727618Y-124105561D01*
X128817517Y-124139091D01*
X128877127Y-124145500D01*
X129355500Y-124145499D01*
X129422539Y-124165183D01*
X129468294Y-124217987D01*
X129479500Y-124269499D01*
X129479500Y-124294678D01*
X129494032Y-124367735D01*
X129494033Y-124367739D01*
X129494034Y-124367740D01*
X129549399Y-124450601D01*
X129632260Y-124505966D01*
X129632264Y-124505967D01*
X129705321Y-124520499D01*
X129705324Y-124520500D01*
X129705326Y-124520500D01*
X130375500Y-124520500D01*
X130442539Y-124540185D01*
X130488294Y-124592989D01*
X130499500Y-124644500D01*
X130499500Y-128995500D01*
X130479815Y-129062539D01*
X130427011Y-129108294D01*
X130375500Y-129119500D01*
X93906100Y-129119500D01*
X93839061Y-129099815D01*
X93793306Y-129047011D01*
X93783362Y-128977853D01*
X93788394Y-128956496D01*
X93814505Y-128877697D01*
X93814506Y-128877690D01*
X93824999Y-128774986D01*
X93824999Y-127925028D01*
X93824998Y-127925012D01*
X93814505Y-127822302D01*
X93759357Y-127655875D01*
X93754900Y-127648650D01*
X93075000Y-128328550D01*
X93075000Y-128300630D01*
X93049444Y-128205255D01*
X93000075Y-128119745D01*
X92930255Y-128049925D01*
X92844745Y-128000556D01*
X92749370Y-127975000D01*
X92721446Y-127975000D01*
X93401347Y-127295099D01*
X93394124Y-127290643D01*
X93394119Y-127290641D01*
X93227697Y-127235494D01*
X93227690Y-127235493D01*
X93124986Y-127225000D01*
X92843120Y-127225000D01*
X92776081Y-127205315D01*
X92730326Y-127152511D01*
X92726938Y-127144333D01*
X92713354Y-127107913D01*
X92713353Y-127107912D01*
X92662957Y-127040592D01*
X91832105Y-127871445D01*
X91728097Y-127767437D01*
X91605258Y-127685359D01*
X91500500Y-127641966D01*
X91500500Y-127547310D01*
X91520185Y-127480271D01*
X91536819Y-127459629D01*
X92146448Y-126850000D01*
X91624500Y-126850000D01*
X91557461Y-126830315D01*
X91511706Y-126777511D01*
X91500500Y-126726000D01*
X91500500Y-122137525D01*
X95699500Y-122137525D01*
X95699500Y-122282475D01*
X95731235Y-122400909D01*
X95737017Y-122422488D01*
X95809488Y-122548011D01*
X95809490Y-122548013D01*
X95809491Y-122548015D01*
X95911985Y-122650509D01*
X95911986Y-122650510D01*
X95911988Y-122650511D01*
X96037511Y-122722982D01*
X96037512Y-122722982D01*
X96037515Y-122722984D01*
X96177525Y-122760500D01*
X96177528Y-122760500D01*
X96322472Y-122760500D01*
X96322475Y-122760500D01*
X96462485Y-122722984D01*
X96588015Y-122650509D01*
X96690509Y-122548015D01*
X96762984Y-122422485D01*
X96791250Y-122316996D01*
X103970086Y-122316996D01*
X103970086Y-122461946D01*
X103993149Y-122548017D01*
X104007603Y-122601959D01*
X104080074Y-122727482D01*
X104080076Y-122727484D01*
X104080077Y-122727486D01*
X104182571Y-122829980D01*
X104182572Y-122829981D01*
X104182574Y-122829982D01*
X104308097Y-122902453D01*
X104308098Y-122902453D01*
X104308101Y-122902455D01*
X104448111Y-122939971D01*
X104448114Y-122939971D01*
X104593058Y-122939971D01*
X104593061Y-122939971D01*
X104733071Y-122902455D01*
X104858601Y-122829980D01*
X104961095Y-122727486D01*
X105033570Y-122601956D01*
X105071086Y-122461946D01*
X105071086Y-122316996D01*
X105033570Y-122176986D01*
X105030841Y-122172260D01*
X104961097Y-122051459D01*
X104961092Y-122051453D01*
X104858603Y-121948964D01*
X104858597Y-121948959D01*
X104733074Y-121876488D01*
X104733075Y-121876488D01*
X104716281Y-121871988D01*
X104593061Y-121838971D01*
X104448111Y-121838971D01*
X104324891Y-121871988D01*
X104308097Y-121876488D01*
X104182574Y-121948959D01*
X104182568Y-121948964D01*
X104080079Y-122051453D01*
X104080074Y-122051459D01*
X104007603Y-122176982D01*
X104007602Y-122176986D01*
X103970086Y-122316996D01*
X96791250Y-122316996D01*
X96800500Y-122282475D01*
X96800500Y-122137525D01*
X96762984Y-121997515D01*
X96753160Y-121980500D01*
X96690511Y-121871988D01*
X96690506Y-121871982D01*
X96588017Y-121769493D01*
X96588011Y-121769488D01*
X96462488Y-121697017D01*
X96462489Y-121697017D01*
X96451006Y-121693940D01*
X96322475Y-121659500D01*
X96177525Y-121659500D01*
X96048993Y-121693940D01*
X96037511Y-121697017D01*
X95911988Y-121769488D01*
X95911982Y-121769493D01*
X95809493Y-121871982D01*
X95809488Y-121871988D01*
X95737017Y-121997511D01*
X95737016Y-121997515D01*
X95699500Y-122137525D01*
X91500500Y-122137525D01*
X91500500Y-121062525D01*
X118124500Y-121062525D01*
X118124500Y-121207475D01*
X118161974Y-121347328D01*
X118162017Y-121347488D01*
X118234488Y-121473011D01*
X118234490Y-121473013D01*
X118234491Y-121473015D01*
X118336985Y-121575509D01*
X118336986Y-121575510D01*
X118336988Y-121575511D01*
X118462511Y-121647982D01*
X118462512Y-121647982D01*
X118462515Y-121647984D01*
X118602525Y-121685500D01*
X118602528Y-121685500D01*
X118747472Y-121685500D01*
X118747475Y-121685500D01*
X118887485Y-121647984D01*
X119013015Y-121575509D01*
X119115509Y-121473015D01*
X119187984Y-121347485D01*
X119225500Y-121207475D01*
X119225500Y-121062525D01*
X119187984Y-120922515D01*
X119115509Y-120796985D01*
X119013015Y-120694491D01*
X119013013Y-120694490D01*
X119013011Y-120694488D01*
X118887488Y-120622017D01*
X118887489Y-120622017D01*
X118876006Y-120618940D01*
X118747475Y-120584500D01*
X118602525Y-120584500D01*
X118473993Y-120618940D01*
X118462511Y-120622017D01*
X118336988Y-120694488D01*
X118336982Y-120694493D01*
X118234493Y-120796982D01*
X118234488Y-120796988D01*
X118162017Y-120922511D01*
X118162016Y-120922515D01*
X118124500Y-121062525D01*
X91500500Y-121062525D01*
X91500500Y-117556608D01*
X97424500Y-117556608D01*
X97424500Y-117688392D01*
X97440475Y-117748011D01*
X97458608Y-117815687D01*
X97478711Y-117850506D01*
X97524500Y-117929814D01*
X97617686Y-118023000D01*
X97731814Y-118088892D01*
X97859108Y-118123000D01*
X97859110Y-118123000D01*
X97990890Y-118123000D01*
X97990892Y-118123000D01*
X98118186Y-118088892D01*
X98232314Y-118023000D01*
X98325500Y-117929814D01*
X98391392Y-117815686D01*
X98425500Y-117688392D01*
X98425500Y-117556608D01*
X98406793Y-117486790D01*
X100675235Y-117486790D01*
X100675235Y-117631740D01*
X100712751Y-117771750D01*
X100712752Y-117771753D01*
X100785223Y-117897276D01*
X100785225Y-117897278D01*
X100785226Y-117897280D01*
X100887720Y-117999774D01*
X100887721Y-117999775D01*
X100887723Y-117999776D01*
X101013246Y-118072247D01*
X101013247Y-118072247D01*
X101013250Y-118072249D01*
X101153260Y-118109765D01*
X101153263Y-118109765D01*
X101298207Y-118109765D01*
X101298210Y-118109765D01*
X101438220Y-118072249D01*
X101563750Y-117999774D01*
X101666244Y-117897280D01*
X101738719Y-117771750D01*
X101776235Y-117631740D01*
X101776235Y-117486790D01*
X101745264Y-117371206D01*
X101742661Y-117361491D01*
X101742661Y-117361490D01*
X101738719Y-117346779D01*
X101738717Y-117346776D01*
X101733376Y-117337525D01*
X122849500Y-117337525D01*
X122849500Y-117482475D01*
X122887016Y-117622485D01*
X122887017Y-117622488D01*
X122959488Y-117748011D01*
X122959490Y-117748013D01*
X122959491Y-117748015D01*
X123061985Y-117850509D01*
X123061986Y-117850510D01*
X123061988Y-117850511D01*
X123187511Y-117922982D01*
X123187512Y-117922982D01*
X123187515Y-117922984D01*
X123327525Y-117960500D01*
X123327528Y-117960500D01*
X123472472Y-117960500D01*
X123472475Y-117960500D01*
X123612485Y-117922984D01*
X123738015Y-117850509D01*
X123840509Y-117748015D01*
X123912984Y-117622485D01*
X123950500Y-117482475D01*
X123950500Y-117337525D01*
X123912984Y-117197515D01*
X123869385Y-117122000D01*
X123840511Y-117071988D01*
X123840506Y-117071982D01*
X123738017Y-116969493D01*
X123738011Y-116969488D01*
X123612488Y-116897017D01*
X123612489Y-116897017D01*
X123571246Y-116885966D01*
X123472475Y-116859500D01*
X123327525Y-116859500D01*
X123228754Y-116885966D01*
X123187511Y-116897017D01*
X123061988Y-116969488D01*
X123061982Y-116969493D01*
X122959493Y-117071982D01*
X122959488Y-117071988D01*
X122887017Y-117197511D01*
X122887016Y-117197515D01*
X122849500Y-117337525D01*
X101733376Y-117337525D01*
X101666246Y-117221253D01*
X101666241Y-117221247D01*
X101563752Y-117118758D01*
X101563746Y-117118753D01*
X101438223Y-117046282D01*
X101438224Y-117046282D01*
X101426741Y-117043205D01*
X101298210Y-117008765D01*
X101153260Y-117008765D01*
X101024728Y-117043205D01*
X101013246Y-117046282D01*
X100887723Y-117118753D01*
X100887717Y-117118758D01*
X100785228Y-117221247D01*
X100785223Y-117221253D01*
X100712752Y-117346776D01*
X100712751Y-117346780D01*
X100675235Y-117486790D01*
X98406793Y-117486790D01*
X98391392Y-117429314D01*
X98325500Y-117315186D01*
X98232314Y-117222000D01*
X98175250Y-117189054D01*
X98118187Y-117156108D01*
X98054539Y-117139054D01*
X97990892Y-117122000D01*
X97859108Y-117122000D01*
X97731812Y-117156108D01*
X97617686Y-117222000D01*
X97617683Y-117222002D01*
X97524502Y-117315183D01*
X97524500Y-117315186D01*
X97458608Y-117429312D01*
X97443207Y-117486790D01*
X97424500Y-117556608D01*
X91500500Y-117556608D01*
X91500500Y-116483083D01*
X103195058Y-116483083D01*
X103195058Y-116628033D01*
X103227134Y-116747740D01*
X103232575Y-116768046D01*
X103305046Y-116893569D01*
X103305048Y-116893571D01*
X103305049Y-116893573D01*
X103407543Y-116996067D01*
X103407544Y-116996068D01*
X103407546Y-116996069D01*
X103533069Y-117068540D01*
X103533070Y-117068540D01*
X103533073Y-117068542D01*
X103673083Y-117106058D01*
X103673086Y-117106058D01*
X103818030Y-117106058D01*
X103818033Y-117106058D01*
X103958043Y-117068542D01*
X104083573Y-116996067D01*
X104186067Y-116893573D01*
X104258542Y-116768043D01*
X104296058Y-116628033D01*
X104296058Y-116483083D01*
X104258542Y-116343073D01*
X104214810Y-116267328D01*
X104186069Y-116217546D01*
X104186064Y-116217540D01*
X104083575Y-116115051D01*
X104083569Y-116115046D01*
X103958046Y-116042575D01*
X103958047Y-116042575D01*
X103946564Y-116039498D01*
X103818033Y-116005058D01*
X103673083Y-116005058D01*
X103544551Y-116039498D01*
X103533069Y-116042575D01*
X103407546Y-116115046D01*
X103407540Y-116115051D01*
X103305051Y-116217540D01*
X103305046Y-116217546D01*
X103232575Y-116343069D01*
X103232574Y-116343073D01*
X103195058Y-116483083D01*
X91500500Y-116483083D01*
X91500500Y-115318543D01*
X99014499Y-115318543D01*
X99052947Y-115511829D01*
X99052950Y-115511839D01*
X99128364Y-115693907D01*
X99128371Y-115693920D01*
X99237860Y-115857781D01*
X99237863Y-115857785D01*
X99377214Y-115997136D01*
X99377218Y-115997139D01*
X99541079Y-116106628D01*
X99541092Y-116106635D01*
X99723160Y-116182049D01*
X99723165Y-116182051D01*
X99723169Y-116182051D01*
X99723170Y-116182052D01*
X99916456Y-116220500D01*
X99916459Y-116220500D01*
X101113543Y-116220500D01*
X101243582Y-116194632D01*
X101306835Y-116182051D01*
X101468589Y-116115051D01*
X101488907Y-116106635D01*
X101488907Y-116106634D01*
X101488914Y-116106632D01*
X101652782Y-115997139D01*
X101792139Y-115857782D01*
X101901632Y-115693914D01*
X101977051Y-115511835D01*
X101989632Y-115448582D01*
X102015500Y-115318543D01*
X102015500Y-115121456D01*
X101977052Y-114928170D01*
X101977051Y-114928169D01*
X101977051Y-114928165D01*
X101955606Y-114876391D01*
X101904039Y-114751896D01*
X101904029Y-114751874D01*
X101901632Y-114746086D01*
X101901630Y-114746083D01*
X101901628Y-114746079D01*
X101879208Y-114712525D01*
X105849500Y-114712525D01*
X105849500Y-114857475D01*
X105868442Y-114928165D01*
X105887017Y-114997488D01*
X105959488Y-115123011D01*
X105959490Y-115123013D01*
X105959491Y-115123015D01*
X106061985Y-115225509D01*
X106061986Y-115225510D01*
X106061988Y-115225511D01*
X106187511Y-115297982D01*
X106187512Y-115297982D01*
X106187515Y-115297984D01*
X106327525Y-115335500D01*
X106327528Y-115335500D01*
X106472472Y-115335500D01*
X106472475Y-115335500D01*
X106612485Y-115297984D01*
X106738015Y-115225509D01*
X106840509Y-115123015D01*
X106857199Y-115094108D01*
X107624500Y-115094108D01*
X107624500Y-115225891D01*
X107658608Y-115353187D01*
X107691554Y-115410250D01*
X107724500Y-115467314D01*
X107817686Y-115560500D01*
X107931814Y-115626392D01*
X108059108Y-115660500D01*
X108059110Y-115660500D01*
X108190890Y-115660500D01*
X108190892Y-115660500D01*
X108318186Y-115626392D01*
X108432314Y-115560500D01*
X108525500Y-115467314D01*
X108591392Y-115353186D01*
X108600674Y-115318543D01*
X118734499Y-115318543D01*
X118772947Y-115511829D01*
X118772950Y-115511839D01*
X118848364Y-115693907D01*
X118848371Y-115693920D01*
X118957860Y-115857781D01*
X118957863Y-115857785D01*
X119097214Y-115997136D01*
X119097218Y-115997139D01*
X119261079Y-116106628D01*
X119261092Y-116106635D01*
X119443160Y-116182049D01*
X119443165Y-116182051D01*
X119443169Y-116182051D01*
X119443170Y-116182052D01*
X119636456Y-116220500D01*
X119636459Y-116220500D01*
X120833543Y-116220500D01*
X120963582Y-116194632D01*
X121026835Y-116182051D01*
X121188589Y-116115051D01*
X121208907Y-116106635D01*
X121208907Y-116106634D01*
X121208914Y-116106632D01*
X121372782Y-115997139D01*
X121512139Y-115857782D01*
X121621632Y-115693914D01*
X121697051Y-115511835D01*
X121709632Y-115448582D01*
X121735500Y-115318543D01*
X121735500Y-115121456D01*
X121697052Y-114928170D01*
X121697051Y-114928169D01*
X121697051Y-114928165D01*
X121675606Y-114876391D01*
X121621635Y-114746092D01*
X121621628Y-114746079D01*
X121512139Y-114582218D01*
X121512136Y-114582214D01*
X121372785Y-114442863D01*
X121372781Y-114442860D01*
X121208920Y-114333371D01*
X121208907Y-114333364D01*
X121026839Y-114257950D01*
X121026829Y-114257947D01*
X120833543Y-114219500D01*
X120833541Y-114219500D01*
X119636459Y-114219500D01*
X119636457Y-114219500D01*
X119443170Y-114257947D01*
X119443160Y-114257950D01*
X119261092Y-114333364D01*
X119261079Y-114333371D01*
X119097218Y-114442860D01*
X119097214Y-114442863D01*
X118957863Y-114582214D01*
X118957860Y-114582218D01*
X118848371Y-114746079D01*
X118848364Y-114746092D01*
X118772950Y-114928160D01*
X118772947Y-114928170D01*
X118734500Y-115121456D01*
X118734500Y-115121459D01*
X118734500Y-115318541D01*
X118734500Y-115318543D01*
X118734499Y-115318543D01*
X108600674Y-115318543D01*
X108625500Y-115225892D01*
X108625500Y-115094108D01*
X108591392Y-114966814D01*
X108525500Y-114852686D01*
X108432314Y-114759500D01*
X108359636Y-114717539D01*
X108318187Y-114693608D01*
X108254539Y-114676554D01*
X108190892Y-114659500D01*
X108059108Y-114659500D01*
X107931812Y-114693608D01*
X107817686Y-114759500D01*
X107817683Y-114759502D01*
X107724502Y-114852683D01*
X107724500Y-114852686D01*
X107658608Y-114966812D01*
X107624500Y-115094108D01*
X106857199Y-115094108D01*
X106912984Y-114997485D01*
X106950500Y-114857475D01*
X106950500Y-114712525D01*
X106912984Y-114572515D01*
X106857197Y-114475890D01*
X106840511Y-114446988D01*
X106840506Y-114446982D01*
X106738017Y-114344493D01*
X106738011Y-114344488D01*
X106612488Y-114272017D01*
X106612489Y-114272017D01*
X106601006Y-114268940D01*
X106472475Y-114234500D01*
X106327525Y-114234500D01*
X106198993Y-114268940D01*
X106187511Y-114272017D01*
X106061988Y-114344488D01*
X106061982Y-114344493D01*
X105959493Y-114446982D01*
X105959488Y-114446988D01*
X105887017Y-114572511D01*
X105887016Y-114572515D01*
X105849500Y-114712525D01*
X101879208Y-114712525D01*
X101792139Y-114582218D01*
X101792136Y-114582214D01*
X101652785Y-114442863D01*
X101652781Y-114442860D01*
X101488920Y-114333371D01*
X101488907Y-114333364D01*
X101306839Y-114257950D01*
X101306829Y-114257947D01*
X101113543Y-114219500D01*
X101113541Y-114219500D01*
X99916459Y-114219500D01*
X99916457Y-114219500D01*
X99723170Y-114257947D01*
X99723160Y-114257950D01*
X99541092Y-114333364D01*
X99541079Y-114333371D01*
X99377218Y-114442860D01*
X99377214Y-114442863D01*
X99237863Y-114582214D01*
X99237860Y-114582218D01*
X99128371Y-114746079D01*
X99128364Y-114746092D01*
X99052950Y-114928160D01*
X99052947Y-114928170D01*
X99014500Y-115121456D01*
X99014500Y-115121459D01*
X99014500Y-115318541D01*
X99014500Y-115318543D01*
X99014499Y-115318543D01*
X91500500Y-115318543D01*
X91500500Y-114344108D01*
X97399500Y-114344108D01*
X97399500Y-114475891D01*
X97433608Y-114603187D01*
X97460925Y-114650500D01*
X97499500Y-114717314D01*
X97592686Y-114810500D01*
X97706814Y-114876392D01*
X97834108Y-114910500D01*
X97834110Y-114910500D01*
X97965890Y-114910500D01*
X97965892Y-114910500D01*
X98093186Y-114876392D01*
X98207314Y-114810500D01*
X98300500Y-114717314D01*
X98366392Y-114603186D01*
X98400500Y-114475892D01*
X98400500Y-114344108D01*
X98366392Y-114216814D01*
X98366391Y-114216812D01*
X98364288Y-114208963D01*
X98365630Y-114208603D01*
X98359084Y-114147744D01*
X98390355Y-114085263D01*
X98450442Y-114049607D01*
X98520268Y-114052097D01*
X98556600Y-114071377D01*
X98561985Y-114075509D01*
X98687511Y-114147982D01*
X98687512Y-114147982D01*
X98687515Y-114147984D01*
X98827525Y-114185500D01*
X98827528Y-114185500D01*
X98972472Y-114185500D01*
X98972475Y-114185500D01*
X99112485Y-114147984D01*
X99238015Y-114075509D01*
X99340509Y-113973015D01*
X99412984Y-113847485D01*
X99450500Y-113707475D01*
X99450500Y-113707471D01*
X99451561Y-113699415D01*
X99454857Y-113699849D01*
X99470185Y-113647649D01*
X99522989Y-113601894D01*
X99592147Y-113591950D01*
X99621946Y-113600125D01*
X99723165Y-113642051D01*
X99723169Y-113642051D01*
X99723170Y-113642052D01*
X99916456Y-113680500D01*
X99916459Y-113680500D01*
X101113543Y-113680500D01*
X101291079Y-113645185D01*
X101306835Y-113642051D01*
X101488914Y-113566632D01*
X101652782Y-113457139D01*
X101765813Y-113344108D01*
X109529500Y-113344108D01*
X109529500Y-113475891D01*
X109563608Y-113603187D01*
X109586046Y-113642050D01*
X109629500Y-113717314D01*
X109722686Y-113810500D01*
X109836814Y-113876392D01*
X109964108Y-113910500D01*
X109964110Y-113910500D01*
X110095890Y-113910500D01*
X110095892Y-113910500D01*
X110223186Y-113876392D01*
X110337314Y-113810500D01*
X110430500Y-113717314D01*
X110496392Y-113603186D01*
X110530500Y-113475892D01*
X110530500Y-113344108D01*
X110496392Y-113216814D01*
X110430500Y-113102686D01*
X110337314Y-113009500D01*
X110280250Y-112976554D01*
X110223187Y-112943608D01*
X110159539Y-112926554D01*
X110095892Y-112909500D01*
X109964108Y-112909500D01*
X109836812Y-112943608D01*
X109722686Y-113009500D01*
X109722683Y-113009502D01*
X109629502Y-113102683D01*
X109629500Y-113102686D01*
X109563608Y-113216812D01*
X109529500Y-113344108D01*
X101765813Y-113344108D01*
X101792139Y-113317782D01*
X101808460Y-113293355D01*
X101826011Y-113267090D01*
X101901628Y-113153920D01*
X101901628Y-113153919D01*
X101901632Y-113153914D01*
X101914845Y-113122016D01*
X101977049Y-112971839D01*
X101977051Y-112971835D01*
X101996412Y-112874500D01*
X102015500Y-112778543D01*
X118734499Y-112778543D01*
X118772947Y-112971829D01*
X118772950Y-112971839D01*
X118848364Y-113153907D01*
X118848371Y-113153920D01*
X118957860Y-113317781D01*
X118957863Y-113317785D01*
X119097214Y-113457136D01*
X119097218Y-113457139D01*
X119261079Y-113566628D01*
X119261092Y-113566635D01*
X119403207Y-113625500D01*
X119443165Y-113642051D01*
X119443169Y-113642051D01*
X119443170Y-113642052D01*
X119636456Y-113680500D01*
X119636459Y-113680500D01*
X120833543Y-113680500D01*
X121011079Y-113645185D01*
X121026835Y-113642051D01*
X121208914Y-113566632D01*
X121372782Y-113457139D01*
X121512139Y-113317782D01*
X121621632Y-113153914D01*
X121634845Y-113122016D01*
X121697049Y-112971839D01*
X121697051Y-112971835D01*
X121716412Y-112874500D01*
X121735500Y-112778543D01*
X121735500Y-112581456D01*
X121697052Y-112388170D01*
X121697051Y-112388169D01*
X121697051Y-112388165D01*
X121633402Y-112234501D01*
X121621635Y-112206092D01*
X121621628Y-112206079D01*
X121512139Y-112042218D01*
X121512136Y-112042214D01*
X121372785Y-111902863D01*
X121372781Y-111902860D01*
X121208920Y-111793371D01*
X121208907Y-111793364D01*
X121026839Y-111717950D01*
X121026829Y-111717947D01*
X120833543Y-111679500D01*
X120833541Y-111679500D01*
X119636459Y-111679500D01*
X119636457Y-111679500D01*
X119443170Y-111717947D01*
X119443160Y-111717950D01*
X119261092Y-111793364D01*
X119261079Y-111793371D01*
X119097218Y-111902860D01*
X119097214Y-111902863D01*
X118957863Y-112042214D01*
X118957860Y-112042218D01*
X118848371Y-112206079D01*
X118848364Y-112206092D01*
X118772950Y-112388160D01*
X118772947Y-112388170D01*
X118734500Y-112581456D01*
X118734500Y-112581459D01*
X118734500Y-112778541D01*
X118734500Y-112778543D01*
X118734499Y-112778543D01*
X102015500Y-112778543D01*
X102015500Y-112581456D01*
X101977052Y-112388170D01*
X101977051Y-112388169D01*
X101977051Y-112388165D01*
X101913402Y-112234501D01*
X101901635Y-112206092D01*
X101901628Y-112206079D01*
X101792139Y-112042218D01*
X101792136Y-112042214D01*
X101652785Y-111902863D01*
X101652781Y-111902860D01*
X101488920Y-111793371D01*
X101488907Y-111793364D01*
X101397594Y-111755542D01*
X101306839Y-111717950D01*
X101306829Y-111717947D01*
X101113543Y-111679500D01*
X101113541Y-111679500D01*
X99916459Y-111679500D01*
X99916457Y-111679500D01*
X99723170Y-111717947D01*
X99723160Y-111717950D01*
X99541092Y-111793364D01*
X99541079Y-111793371D01*
X99377218Y-111902860D01*
X99377214Y-111902863D01*
X99237863Y-112042214D01*
X99237860Y-112042218D01*
X99128371Y-112206079D01*
X99128364Y-112206092D01*
X99052950Y-112388160D01*
X99052947Y-112388170D01*
X99014500Y-112581456D01*
X99014500Y-112581459D01*
X99014500Y-112778541D01*
X99014500Y-112778543D01*
X99014499Y-112778543D01*
X99045882Y-112936308D01*
X99039655Y-113005900D01*
X98996792Y-113061077D01*
X98930903Y-113084322D01*
X98924265Y-113084500D01*
X98827525Y-113084500D01*
X98698993Y-113118940D01*
X98687511Y-113122017D01*
X98561988Y-113194488D01*
X98561982Y-113194493D01*
X98459493Y-113296982D01*
X98459488Y-113296988D01*
X98387017Y-113422511D01*
X98387016Y-113422515D01*
X98349500Y-113562525D01*
X98349500Y-113707475D01*
X98354822Y-113727335D01*
X98387017Y-113847489D01*
X98390128Y-113854999D01*
X98388522Y-113855663D01*
X98402663Y-113913967D01*
X98379806Y-113979992D01*
X98324882Y-114023179D01*
X98255329Y-114029816D01*
X98215347Y-114011840D01*
X98214352Y-114013564D01*
X98207315Y-114009501D01*
X98207314Y-114009500D01*
X98144120Y-113973015D01*
X98093187Y-113943608D01*
X98029539Y-113926554D01*
X97965892Y-113909500D01*
X97834108Y-113909500D01*
X97706812Y-113943608D01*
X97592686Y-114009500D01*
X97592683Y-114009502D01*
X97499502Y-114102683D01*
X97499500Y-114102686D01*
X97433608Y-114216812D01*
X97399500Y-114344108D01*
X91500500Y-114344108D01*
X91500500Y-111649108D01*
X105624500Y-111649108D01*
X105624500Y-111780892D01*
X105633275Y-111813642D01*
X105658608Y-111908187D01*
X105670855Y-111929399D01*
X105724500Y-112022314D01*
X105817686Y-112115500D01*
X105931814Y-112181392D01*
X106059108Y-112215500D01*
X106059110Y-112215500D01*
X106190890Y-112215500D01*
X106190892Y-112215500D01*
X106318186Y-112181392D01*
X106432314Y-112115500D01*
X106525500Y-112022314D01*
X106591392Y-111908186D01*
X106625500Y-111780892D01*
X106625500Y-111649108D01*
X106591392Y-111521814D01*
X106589182Y-111517987D01*
X106547331Y-111445499D01*
X106525500Y-111407686D01*
X106525498Y-111407684D01*
X106521436Y-111400648D01*
X106522786Y-111399868D01*
X106500930Y-111343329D01*
X106500500Y-111333013D01*
X106500500Y-110238543D01*
X118734499Y-110238543D01*
X118772947Y-110431829D01*
X118772950Y-110431839D01*
X118848364Y-110613907D01*
X118848371Y-110613920D01*
X118957860Y-110777781D01*
X118957863Y-110777785D01*
X119097214Y-110917136D01*
X119097218Y-110917139D01*
X119261079Y-111026628D01*
X119261092Y-111026635D01*
X119443160Y-111102049D01*
X119443165Y-111102051D01*
X119443169Y-111102051D01*
X119443170Y-111102052D01*
X119636456Y-111140500D01*
X119636459Y-111140500D01*
X120833543Y-111140500D01*
X120963582Y-111114632D01*
X121026835Y-111102051D01*
X121208914Y-111026632D01*
X121372782Y-110917139D01*
X121512139Y-110777782D01*
X121621632Y-110613914D01*
X121697051Y-110431835D01*
X121726159Y-110285500D01*
X121735500Y-110238543D01*
X121735500Y-110041456D01*
X121697052Y-109848170D01*
X121697051Y-109848169D01*
X121697051Y-109848165D01*
X121656888Y-109751202D01*
X121621635Y-109666092D01*
X121621628Y-109666079D01*
X121512139Y-109502218D01*
X121512136Y-109502214D01*
X121372785Y-109362863D01*
X121372781Y-109362860D01*
X121208920Y-109253371D01*
X121208907Y-109253364D01*
X121026839Y-109177950D01*
X121026829Y-109177947D01*
X120833543Y-109139500D01*
X120833541Y-109139500D01*
X119636459Y-109139500D01*
X119636457Y-109139500D01*
X119443170Y-109177947D01*
X119443160Y-109177950D01*
X119261092Y-109253364D01*
X119261079Y-109253371D01*
X119097218Y-109362860D01*
X119097214Y-109362863D01*
X118957863Y-109502214D01*
X118957860Y-109502218D01*
X118848371Y-109666079D01*
X118848364Y-109666092D01*
X118772950Y-109848160D01*
X118772947Y-109848170D01*
X118734500Y-110041456D01*
X118734500Y-110041459D01*
X118734500Y-110238541D01*
X118734500Y-110238543D01*
X118734499Y-110238543D01*
X106500500Y-110238543D01*
X106500500Y-103594108D01*
X107624500Y-103594108D01*
X107624500Y-103725891D01*
X107658608Y-103853187D01*
X107684474Y-103897987D01*
X107724500Y-103967314D01*
X107817686Y-104060500D01*
X107931814Y-104126392D01*
X108059108Y-104160500D01*
X108059110Y-104160500D01*
X108190890Y-104160500D01*
X108190892Y-104160500D01*
X108318186Y-104126392D01*
X108432314Y-104060500D01*
X108525500Y-103967314D01*
X108591392Y-103853186D01*
X108625500Y-103725892D01*
X108625500Y-103594108D01*
X108591392Y-103466814D01*
X108525500Y-103352686D01*
X108432314Y-103259500D01*
X108375250Y-103226554D01*
X108318187Y-103193608D01*
X108254539Y-103176554D01*
X108190892Y-103159500D01*
X108059108Y-103159500D01*
X107931812Y-103193608D01*
X107817686Y-103259500D01*
X107817683Y-103259502D01*
X107724502Y-103352683D01*
X107724500Y-103352686D01*
X107658608Y-103466812D01*
X107624500Y-103594108D01*
X106500500Y-103594108D01*
X106500500Y-102844108D01*
X111349500Y-102844108D01*
X111349500Y-102975891D01*
X111383608Y-103103187D01*
X111415129Y-103157782D01*
X111449500Y-103217314D01*
X111542686Y-103310500D01*
X111656814Y-103376392D01*
X111784108Y-103410500D01*
X111784110Y-103410500D01*
X111915890Y-103410500D01*
X111915892Y-103410500D01*
X112043186Y-103376392D01*
X112157314Y-103310500D01*
X112250500Y-103217314D01*
X112316392Y-103103186D01*
X112350500Y-102975892D01*
X112350500Y-102844108D01*
X112316392Y-102716814D01*
X112314122Y-102712883D01*
X112273812Y-102643064D01*
X112259655Y-102618543D01*
X118734499Y-102618543D01*
X118772947Y-102811829D01*
X118772950Y-102811839D01*
X118848364Y-102993907D01*
X118848371Y-102993920D01*
X118957860Y-103157781D01*
X118957863Y-103157785D01*
X119097214Y-103297136D01*
X119097218Y-103297139D01*
X119261079Y-103406628D01*
X119261092Y-103406635D01*
X119406379Y-103466814D01*
X119443165Y-103482051D01*
X119443169Y-103482051D01*
X119443170Y-103482052D01*
X119636456Y-103520500D01*
X119636459Y-103520500D01*
X120833543Y-103520500D01*
X120963582Y-103494632D01*
X121026835Y-103482051D01*
X121208914Y-103406632D01*
X121372782Y-103297139D01*
X121512139Y-103157782D01*
X121621632Y-102993914D01*
X121697051Y-102811835D01*
X121710955Y-102741934D01*
X121735500Y-102618543D01*
X121735500Y-102421456D01*
X121697052Y-102228170D01*
X121697051Y-102228169D01*
X121697051Y-102228165D01*
X121633402Y-102074501D01*
X121621635Y-102046092D01*
X121621628Y-102046079D01*
X121512139Y-101882218D01*
X121512136Y-101882214D01*
X121372785Y-101742863D01*
X121372781Y-101742860D01*
X121208920Y-101633371D01*
X121208907Y-101633364D01*
X121026839Y-101557950D01*
X121026829Y-101557947D01*
X120833543Y-101519500D01*
X120833541Y-101519500D01*
X119636459Y-101519500D01*
X119636457Y-101519500D01*
X119443170Y-101557947D01*
X119443160Y-101557950D01*
X119261092Y-101633364D01*
X119261079Y-101633371D01*
X119097218Y-101742860D01*
X119097214Y-101742863D01*
X118957863Y-101882214D01*
X118957860Y-101882218D01*
X118848371Y-102046079D01*
X118848364Y-102046092D01*
X118772950Y-102228160D01*
X118772947Y-102228170D01*
X118734500Y-102421456D01*
X118734500Y-102421459D01*
X118734500Y-102618541D01*
X118734500Y-102618543D01*
X118734499Y-102618543D01*
X112259655Y-102618543D01*
X112250500Y-102602686D01*
X112157314Y-102509500D01*
X112115920Y-102485601D01*
X112043187Y-102443608D01*
X111960513Y-102421456D01*
X111915892Y-102409500D01*
X111784108Y-102409500D01*
X111656812Y-102443608D01*
X111542686Y-102509500D01*
X111542683Y-102509502D01*
X111449502Y-102602683D01*
X111449500Y-102602686D01*
X111383608Y-102716812D01*
X111349500Y-102844108D01*
X106500500Y-102844108D01*
X106500500Y-101941899D01*
X106520185Y-101874860D01*
X106536819Y-101854218D01*
X106886602Y-101504435D01*
X107370414Y-101020622D01*
X107431735Y-100987139D01*
X107440426Y-100985624D01*
X107440889Y-100985500D01*
X107440892Y-100985500D01*
X107568186Y-100951392D01*
X107682314Y-100885500D01*
X107775500Y-100792314D01*
X107841392Y-100678186D01*
X107875500Y-100550892D01*
X107875500Y-100419108D01*
X107841392Y-100291814D01*
X107775500Y-100177686D01*
X107682314Y-100084500D01*
X107671996Y-100078543D01*
X118734499Y-100078543D01*
X118772947Y-100271829D01*
X118772950Y-100271839D01*
X118848364Y-100453907D01*
X118848371Y-100453920D01*
X118957860Y-100617781D01*
X118957863Y-100617785D01*
X119097214Y-100757136D01*
X119097218Y-100757139D01*
X119261079Y-100866628D01*
X119261092Y-100866635D01*
X119443160Y-100942049D01*
X119443165Y-100942051D01*
X119443169Y-100942051D01*
X119443170Y-100942052D01*
X119636456Y-100980500D01*
X119636459Y-100980500D01*
X120833543Y-100980500D01*
X120979880Y-100951391D01*
X121026835Y-100942051D01*
X121208914Y-100866632D01*
X121372782Y-100757139D01*
X121512139Y-100617782D01*
X121621632Y-100453914D01*
X121697051Y-100271835D01*
X121726051Y-100126045D01*
X121735500Y-100078543D01*
X121735500Y-99881456D01*
X121697052Y-99688170D01*
X121697051Y-99688169D01*
X121697051Y-99688165D01*
X121692614Y-99677452D01*
X121621635Y-99506092D01*
X121621628Y-99506079D01*
X121512139Y-99342218D01*
X121512136Y-99342214D01*
X121372785Y-99202863D01*
X121372781Y-99202860D01*
X121208920Y-99093371D01*
X121208907Y-99093364D01*
X121026839Y-99017950D01*
X121026829Y-99017947D01*
X120833543Y-98979500D01*
X120833541Y-98979500D01*
X119636459Y-98979500D01*
X119636457Y-98979500D01*
X119443170Y-99017947D01*
X119443160Y-99017950D01*
X119261092Y-99093364D01*
X119261079Y-99093371D01*
X119097218Y-99202860D01*
X119097214Y-99202863D01*
X118957863Y-99342214D01*
X118957860Y-99342218D01*
X118848371Y-99506079D01*
X118848364Y-99506092D01*
X118772950Y-99688160D01*
X118772947Y-99688170D01*
X118734500Y-99881456D01*
X118734500Y-99881459D01*
X118734500Y-100078541D01*
X118734500Y-100078543D01*
X118734499Y-100078543D01*
X107671996Y-100078543D01*
X107625250Y-100051554D01*
X107568187Y-100018608D01*
X107537591Y-100010410D01*
X107440892Y-99984500D01*
X107309108Y-99984500D01*
X107181812Y-100018608D01*
X107067686Y-100084500D01*
X107067683Y-100084502D01*
X106974502Y-100177683D01*
X106974500Y-100177686D01*
X106908608Y-100291812D01*
X106872397Y-100426958D01*
X106870893Y-100426555D01*
X106846355Y-100482002D01*
X106839375Y-100489587D01*
X105894438Y-101434525D01*
X105824527Y-101504435D01*
X105824525Y-101504437D01*
X105824525Y-101504438D01*
X105822619Y-101507739D01*
X105775091Y-101590060D01*
X105775090Y-101590062D01*
X105760112Y-101645963D01*
X105760111Y-101645966D01*
X105749500Y-101685562D01*
X105749500Y-111333013D01*
X105729815Y-111400052D01*
X105724742Y-111407266D01*
X105658608Y-111521812D01*
X105645831Y-111569499D01*
X105624500Y-111649108D01*
X91500500Y-111649108D01*
X91500500Y-109719108D01*
X98149500Y-109719108D01*
X98149500Y-109850891D01*
X98183608Y-109978187D01*
X98216554Y-110035250D01*
X98249500Y-110092314D01*
X98342686Y-110185500D01*
X98456814Y-110251392D01*
X98584108Y-110285500D01*
X98584110Y-110285500D01*
X98715890Y-110285500D01*
X98715892Y-110285500D01*
X98843186Y-110251392D01*
X98849281Y-110247872D01*
X98917181Y-110231397D01*
X98983209Y-110254246D01*
X99026402Y-110309166D01*
X99032903Y-110331064D01*
X99052947Y-110431830D01*
X99052950Y-110431839D01*
X99128364Y-110613907D01*
X99128371Y-110613920D01*
X99237860Y-110777781D01*
X99237863Y-110777785D01*
X99377214Y-110917136D01*
X99377218Y-110917139D01*
X99541079Y-111026628D01*
X99541092Y-111026635D01*
X99723160Y-111102049D01*
X99723165Y-111102051D01*
X99723169Y-111102051D01*
X99723170Y-111102052D01*
X99916456Y-111140500D01*
X99916459Y-111140500D01*
X101113543Y-111140500D01*
X101243582Y-111114632D01*
X101306835Y-111102051D01*
X101488914Y-111026632D01*
X101652782Y-110917139D01*
X101792139Y-110777782D01*
X101901632Y-110613914D01*
X101977051Y-110431835D01*
X102006159Y-110285500D01*
X102015500Y-110238543D01*
X102015500Y-110041456D01*
X101977052Y-109848170D01*
X101977051Y-109848169D01*
X101977051Y-109848165D01*
X101936888Y-109751202D01*
X101901635Y-109666092D01*
X101901628Y-109666079D01*
X101792139Y-109502218D01*
X101792136Y-109502214D01*
X101652785Y-109362863D01*
X101652781Y-109362860D01*
X101488920Y-109253371D01*
X101488907Y-109253364D01*
X101306839Y-109177950D01*
X101306829Y-109177947D01*
X101113543Y-109139500D01*
X101113541Y-109139500D01*
X99916459Y-109139500D01*
X99916457Y-109139500D01*
X99723170Y-109177947D01*
X99723160Y-109177950D01*
X99595640Y-109230770D01*
X99526170Y-109238239D01*
X99463691Y-109206963D01*
X99428040Y-109146874D01*
X99430534Y-109077049D01*
X99440807Y-109054199D01*
X99441391Y-109053187D01*
X99441392Y-109053186D01*
X99475500Y-108925892D01*
X99475500Y-108794108D01*
X99441392Y-108666814D01*
X99441390Y-108666811D01*
X99439717Y-108660565D01*
X99441380Y-108590716D01*
X99480543Y-108532853D01*
X99544771Y-108505349D01*
X99606943Y-108513910D01*
X99723165Y-108562051D01*
X99723169Y-108562051D01*
X99723170Y-108562052D01*
X99916456Y-108600500D01*
X99916459Y-108600500D01*
X101113543Y-108600500D01*
X101291079Y-108565185D01*
X101306835Y-108562051D01*
X101488914Y-108486632D01*
X101652782Y-108377139D01*
X101792139Y-108237782D01*
X101901632Y-108073914D01*
X101977051Y-107891835D01*
X101996412Y-107794500D01*
X102015500Y-107698543D01*
X102015500Y-107501456D01*
X101977052Y-107308170D01*
X101977051Y-107308169D01*
X101977051Y-107308165D01*
X101913402Y-107154501D01*
X101901635Y-107126092D01*
X101901628Y-107126079D01*
X101792139Y-106962218D01*
X101792136Y-106962214D01*
X101652785Y-106822863D01*
X101652781Y-106822860D01*
X101488920Y-106713371D01*
X101488907Y-106713364D01*
X101306839Y-106637950D01*
X101306829Y-106637947D01*
X101126298Y-106602037D01*
X101126297Y-106602036D01*
X101113545Y-106599500D01*
X101113541Y-106599500D01*
X99916459Y-106599500D01*
X99916457Y-106599500D01*
X99723170Y-106637947D01*
X99723160Y-106637950D01*
X99541092Y-106713364D01*
X99541074Y-106713374D01*
X99535811Y-106716891D01*
X99469133Y-106737766D01*
X99401754Y-106719279D01*
X99355066Y-106667298D01*
X99343892Y-106598327D01*
X99347146Y-106581709D01*
X99372109Y-106488547D01*
X104302072Y-106488547D01*
X104302072Y-106620330D01*
X104336180Y-106747626D01*
X104354583Y-106779500D01*
X104402072Y-106861753D01*
X104495258Y-106954939D01*
X104609386Y-107020831D01*
X104736680Y-107054939D01*
X104736682Y-107054939D01*
X104868462Y-107054939D01*
X104868464Y-107054939D01*
X104995758Y-107020831D01*
X105109886Y-106954939D01*
X105203072Y-106861753D01*
X105268964Y-106747625D01*
X105303072Y-106620331D01*
X105303072Y-106488547D01*
X105268964Y-106361253D01*
X105203072Y-106247125D01*
X105109886Y-106153939D01*
X105029154Y-106107328D01*
X104995759Y-106088047D01*
X104892950Y-106060500D01*
X104868464Y-106053939D01*
X104736680Y-106053939D01*
X104609384Y-106088047D01*
X104495258Y-106153939D01*
X104495255Y-106153941D01*
X104402074Y-106247122D01*
X104402072Y-106247125D01*
X104336180Y-106361251D01*
X104302072Y-106488547D01*
X99372109Y-106488547D01*
X99375500Y-106475892D01*
X99375500Y-106344108D01*
X99341392Y-106216814D01*
X99275500Y-106102686D01*
X99182314Y-106009500D01*
X99118199Y-105972483D01*
X99068187Y-105943608D01*
X99004539Y-105926554D01*
X98940892Y-105909500D01*
X98809108Y-105909500D01*
X98681812Y-105943608D01*
X98567686Y-106009500D01*
X98567683Y-106009502D01*
X98474502Y-106102683D01*
X98474500Y-106102686D01*
X98408608Y-106216812D01*
X98383962Y-106308796D01*
X98374500Y-106344108D01*
X98374500Y-106475892D01*
X98378146Y-106489499D01*
X98408608Y-106603187D01*
X98428677Y-106637947D01*
X98474500Y-106717314D01*
X98567686Y-106810500D01*
X98681814Y-106876392D01*
X98809108Y-106910500D01*
X98809110Y-106910500D01*
X98940889Y-106910500D01*
X98940892Y-106910500D01*
X99026487Y-106887565D01*
X99096333Y-106889228D01*
X99154196Y-106928390D01*
X99181700Y-106992618D01*
X99170114Y-107061521D01*
X99161680Y-107076230D01*
X99128370Y-107126081D01*
X99128364Y-107126092D01*
X99052950Y-107308160D01*
X99052947Y-107308170D01*
X99014500Y-107501456D01*
X99014500Y-107501459D01*
X99014500Y-107698541D01*
X99014500Y-107698543D01*
X99014499Y-107698543D01*
X99052947Y-107891829D01*
X99052950Y-107891839D01*
X99128364Y-108073907D01*
X99128370Y-108073918D01*
X99196844Y-108176397D01*
X99217721Y-108243074D01*
X99199236Y-108310454D01*
X99147257Y-108357144D01*
X99078287Y-108368320D01*
X99061657Y-108365064D01*
X99040892Y-108359500D01*
X98909108Y-108359500D01*
X98781812Y-108393608D01*
X98667686Y-108459500D01*
X98667683Y-108459502D01*
X98574502Y-108552683D01*
X98574500Y-108552686D01*
X98508608Y-108666812D01*
X98482957Y-108762544D01*
X98474500Y-108794108D01*
X98474500Y-108925892D01*
X98508608Y-109053186D01*
X98553580Y-109131080D01*
X98570053Y-109198978D01*
X98547201Y-109265005D01*
X98492280Y-109308196D01*
X98478290Y-109312853D01*
X98456813Y-109318608D01*
X98342686Y-109384500D01*
X98342683Y-109384502D01*
X98249502Y-109477683D01*
X98249500Y-109477686D01*
X98183608Y-109591812D01*
X98149500Y-109719108D01*
X91500500Y-109719108D01*
X91500500Y-105158543D01*
X99014499Y-105158543D01*
X99052947Y-105351829D01*
X99052950Y-105351839D01*
X99128364Y-105533907D01*
X99128371Y-105533920D01*
X99237860Y-105697781D01*
X99237863Y-105697785D01*
X99377214Y-105837136D01*
X99377218Y-105837139D01*
X99541079Y-105946628D01*
X99541092Y-105946635D01*
X99712803Y-106017759D01*
X99723165Y-106022051D01*
X99723169Y-106022051D01*
X99723170Y-106022052D01*
X99916456Y-106060500D01*
X99916459Y-106060500D01*
X101113543Y-106060500D01*
X101243582Y-106034632D01*
X101306835Y-106022051D01*
X101488914Y-105946632D01*
X101652782Y-105837139D01*
X101792139Y-105697782D01*
X101901632Y-105533914D01*
X101977051Y-105351835D01*
X102015500Y-105158541D01*
X102015500Y-104961459D01*
X102015500Y-104961456D01*
X101977052Y-104768170D01*
X101977051Y-104768169D01*
X101977051Y-104768165D01*
X101913402Y-104614501D01*
X101901635Y-104586092D01*
X101901628Y-104586079D01*
X101792139Y-104422218D01*
X101792136Y-104422214D01*
X101652785Y-104282863D01*
X101652781Y-104282860D01*
X101488920Y-104173371D01*
X101488907Y-104173364D01*
X101306839Y-104097950D01*
X101306829Y-104097947D01*
X101113543Y-104059500D01*
X101113541Y-104059500D01*
X99916459Y-104059500D01*
X99916457Y-104059500D01*
X99723170Y-104097947D01*
X99723160Y-104097950D01*
X99541092Y-104173364D01*
X99541079Y-104173371D01*
X99377218Y-104282860D01*
X99377214Y-104282863D01*
X99237863Y-104422214D01*
X99237860Y-104422218D01*
X99128371Y-104586079D01*
X99128364Y-104586092D01*
X99052950Y-104768160D01*
X99052947Y-104768170D01*
X99014500Y-104961456D01*
X99014500Y-104961459D01*
X99014500Y-105158541D01*
X99014500Y-105158543D01*
X99014499Y-105158543D01*
X91500500Y-105158543D01*
X91500500Y-102618543D01*
X99014499Y-102618543D01*
X99052947Y-102811829D01*
X99052950Y-102811839D01*
X99128364Y-102993907D01*
X99128371Y-102993920D01*
X99237860Y-103157781D01*
X99237863Y-103157785D01*
X99377214Y-103297136D01*
X99377218Y-103297139D01*
X99541079Y-103406628D01*
X99541092Y-103406635D01*
X99686379Y-103466814D01*
X99723165Y-103482051D01*
X99723169Y-103482051D01*
X99723170Y-103482052D01*
X99916456Y-103520500D01*
X99916459Y-103520500D01*
X101113543Y-103520500D01*
X101243582Y-103494632D01*
X101306835Y-103482051D01*
X101488914Y-103406632D01*
X101652782Y-103297139D01*
X101792139Y-103157782D01*
X101901632Y-102993914D01*
X101977051Y-102811835D01*
X101990955Y-102741934D01*
X102015500Y-102618543D01*
X102015500Y-102421456D01*
X101977052Y-102228170D01*
X101977051Y-102228169D01*
X101977051Y-102228165D01*
X101913402Y-102074501D01*
X101901635Y-102046092D01*
X101901628Y-102046079D01*
X101792139Y-101882218D01*
X101792136Y-101882214D01*
X101652785Y-101742863D01*
X101652781Y-101742860D01*
X101488920Y-101633371D01*
X101488907Y-101633364D01*
X101306839Y-101557950D01*
X101306829Y-101557947D01*
X101113543Y-101519500D01*
X101113541Y-101519500D01*
X99916459Y-101519500D01*
X99916457Y-101519500D01*
X99723170Y-101557947D01*
X99723160Y-101557950D01*
X99541092Y-101633364D01*
X99541079Y-101633371D01*
X99377218Y-101742860D01*
X99377214Y-101742863D01*
X99237863Y-101882214D01*
X99237860Y-101882218D01*
X99128371Y-102046079D01*
X99128364Y-102046092D01*
X99052950Y-102228160D01*
X99052947Y-102228170D01*
X99014500Y-102421456D01*
X99014500Y-102421459D01*
X99014500Y-102618541D01*
X99014500Y-102618543D01*
X99014499Y-102618543D01*
X91500500Y-102618543D01*
X91500500Y-100078543D01*
X99014499Y-100078543D01*
X99052947Y-100271829D01*
X99052950Y-100271839D01*
X99128364Y-100453907D01*
X99128371Y-100453920D01*
X99237860Y-100617781D01*
X99237863Y-100617785D01*
X99377214Y-100757136D01*
X99377218Y-100757139D01*
X99541079Y-100866628D01*
X99541092Y-100866635D01*
X99723160Y-100942049D01*
X99723165Y-100942051D01*
X99723169Y-100942051D01*
X99723170Y-100942052D01*
X99916456Y-100980500D01*
X99916459Y-100980500D01*
X101113543Y-100980500D01*
X101259880Y-100951391D01*
X101306835Y-100942051D01*
X101488914Y-100866632D01*
X101652782Y-100757139D01*
X101792139Y-100617782D01*
X101901632Y-100453914D01*
X101977051Y-100271835D01*
X102006051Y-100126045D01*
X102015500Y-100078543D01*
X102015500Y-99881456D01*
X101977052Y-99688170D01*
X101977051Y-99688169D01*
X101977051Y-99688165D01*
X101972614Y-99677452D01*
X101901635Y-99506092D01*
X101901628Y-99506079D01*
X101834003Y-99404872D01*
X101834002Y-99404871D01*
X101793402Y-99344108D01*
X102624500Y-99344108D01*
X102624500Y-99475892D01*
X102632592Y-99506092D01*
X102658608Y-99603187D01*
X102691554Y-99660250D01*
X102724500Y-99717314D01*
X102817686Y-99810500D01*
X102931814Y-99876392D01*
X103059108Y-99910500D01*
X103059110Y-99910500D01*
X103190890Y-99910500D01*
X103190892Y-99910500D01*
X103318186Y-99876392D01*
X103432314Y-99810500D01*
X103525500Y-99717314D01*
X103591392Y-99603186D01*
X103625500Y-99475892D01*
X103625500Y-99344108D01*
X103591392Y-99216814D01*
X103525500Y-99102686D01*
X103432314Y-99009500D01*
X103359975Y-98967735D01*
X103318187Y-98943608D01*
X103254539Y-98926554D01*
X103190892Y-98909500D01*
X103059108Y-98909500D01*
X102931812Y-98943608D01*
X102817686Y-99009500D01*
X102817683Y-99009502D01*
X102724502Y-99102683D01*
X102724500Y-99102686D01*
X102658608Y-99216812D01*
X102633032Y-99312264D01*
X102624500Y-99344108D01*
X101793402Y-99344108D01*
X101792137Y-99342215D01*
X101652785Y-99202863D01*
X101652781Y-99202860D01*
X101488920Y-99093371D01*
X101488907Y-99093364D01*
X101306839Y-99017950D01*
X101306829Y-99017947D01*
X101113543Y-98979500D01*
X101113541Y-98979500D01*
X99916459Y-98979500D01*
X99916457Y-98979500D01*
X99723170Y-99017947D01*
X99723160Y-99017950D01*
X99541092Y-99093364D01*
X99541079Y-99093371D01*
X99377218Y-99202860D01*
X99377214Y-99202863D01*
X99237863Y-99342214D01*
X99237860Y-99342218D01*
X99128371Y-99506079D01*
X99128364Y-99506092D01*
X99052950Y-99688160D01*
X99052947Y-99688170D01*
X99014500Y-99881456D01*
X99014500Y-99881459D01*
X99014500Y-100078541D01*
X99014500Y-100078543D01*
X99014499Y-100078543D01*
X91500500Y-100078543D01*
X91500500Y-97538543D01*
X99014499Y-97538543D01*
X99052947Y-97731829D01*
X99052950Y-97731839D01*
X99128364Y-97913907D01*
X99128371Y-97913920D01*
X99237860Y-98077781D01*
X99237863Y-98077785D01*
X99377214Y-98217136D01*
X99377218Y-98217139D01*
X99541079Y-98326628D01*
X99541092Y-98326635D01*
X99723160Y-98402049D01*
X99723165Y-98402051D01*
X99723169Y-98402051D01*
X99723170Y-98402052D01*
X99916456Y-98440500D01*
X99916459Y-98440500D01*
X101113543Y-98440500D01*
X101264359Y-98410500D01*
X101306835Y-98402051D01*
X101485160Y-98328187D01*
X101488907Y-98326635D01*
X101488907Y-98326634D01*
X101488914Y-98326632D01*
X101652782Y-98217139D01*
X101792139Y-98077782D01*
X101901632Y-97913914D01*
X101977051Y-97731835D01*
X102015500Y-97538541D01*
X102015500Y-97341459D01*
X102015500Y-97341456D01*
X101977052Y-97148170D01*
X101977051Y-97148169D01*
X101977051Y-97148165D01*
X101936888Y-97051202D01*
X101901635Y-96966092D01*
X101901628Y-96966079D01*
X101792139Y-96802218D01*
X101792136Y-96802214D01*
X101652785Y-96662863D01*
X101652781Y-96662860D01*
X101488920Y-96553371D01*
X101488907Y-96553364D01*
X101306839Y-96477950D01*
X101306829Y-96477947D01*
X101113543Y-96439500D01*
X101113541Y-96439500D01*
X99916459Y-96439500D01*
X99916457Y-96439500D01*
X99723170Y-96477947D01*
X99723160Y-96477950D01*
X99541092Y-96553364D01*
X99541079Y-96553371D01*
X99377218Y-96662860D01*
X99377214Y-96662863D01*
X99237863Y-96802214D01*
X99237860Y-96802218D01*
X99128371Y-96966079D01*
X99128364Y-96966092D01*
X99052950Y-97148160D01*
X99052947Y-97148170D01*
X99014500Y-97341456D01*
X99014500Y-97341459D01*
X99014500Y-97538541D01*
X99014500Y-97538543D01*
X99014499Y-97538543D01*
X91500500Y-97538543D01*
X91500500Y-94794108D01*
X97474500Y-94794108D01*
X97474500Y-94925892D01*
X97491554Y-94989539D01*
X97508608Y-95053187D01*
X97541313Y-95109832D01*
X97574500Y-95167314D01*
X97667686Y-95260500D01*
X97781814Y-95326392D01*
X97909108Y-95360500D01*
X97909110Y-95360500D01*
X98040890Y-95360500D01*
X98040892Y-95360500D01*
X98168186Y-95326392D01*
X98282314Y-95260500D01*
X98375500Y-95167314D01*
X98441392Y-95053186D01*
X98456033Y-94998543D01*
X99014499Y-94998543D01*
X99052947Y-95191829D01*
X99052950Y-95191839D01*
X99128364Y-95373907D01*
X99128371Y-95373920D01*
X99237860Y-95537781D01*
X99237863Y-95537785D01*
X99377214Y-95677136D01*
X99377218Y-95677139D01*
X99541079Y-95786628D01*
X99541092Y-95786635D01*
X99641409Y-95828187D01*
X99723165Y-95862051D01*
X99723169Y-95862051D01*
X99723170Y-95862052D01*
X99916456Y-95900500D01*
X99916459Y-95900500D01*
X101113543Y-95900500D01*
X101243582Y-95874632D01*
X101306835Y-95862051D01*
X101488914Y-95786632D01*
X101627386Y-95694108D01*
X103574500Y-95694108D01*
X103574500Y-95825891D01*
X103608608Y-95953187D01*
X103616766Y-95967316D01*
X103674500Y-96067314D01*
X103767686Y-96160500D01*
X103881814Y-96226392D01*
X104009108Y-96260500D01*
X104009110Y-96260500D01*
X104049701Y-96260500D01*
X104116740Y-96280185D01*
X104162495Y-96332989D01*
X104172439Y-96402147D01*
X104143414Y-96465703D01*
X104137382Y-96472181D01*
X104044526Y-96565036D01*
X103995091Y-96650659D01*
X103995091Y-96650660D01*
X103995090Y-96650662D01*
X103969500Y-96746165D01*
X103969500Y-102643064D01*
X103969500Y-102741936D01*
X103973298Y-102756108D01*
X103976363Y-102767547D01*
X103976363Y-102767548D01*
X103995091Y-102837442D01*
X103995092Y-102837443D01*
X104039978Y-102915186D01*
X104044527Y-102923064D01*
X104044527Y-102923065D01*
X104339375Y-103217913D01*
X104372860Y-103279236D01*
X104374375Y-103287925D01*
X104374500Y-103288390D01*
X104374500Y-103288392D01*
X104380424Y-103310500D01*
X104408608Y-103415687D01*
X104438126Y-103466812D01*
X104474500Y-103529814D01*
X104567686Y-103623000D01*
X104681814Y-103688892D01*
X104809108Y-103723000D01*
X104809110Y-103723000D01*
X104940890Y-103723000D01*
X104940892Y-103723000D01*
X105068186Y-103688892D01*
X105182314Y-103623000D01*
X105275500Y-103529814D01*
X105341392Y-103415686D01*
X105375500Y-103288392D01*
X105375500Y-103156608D01*
X105341392Y-103029314D01*
X105275500Y-102915186D01*
X105182314Y-102822000D01*
X105088001Y-102767548D01*
X105068187Y-102756108D01*
X105012399Y-102741160D01*
X104940892Y-102722000D01*
X104940891Y-102722000D01*
X104933042Y-102719897D01*
X104933444Y-102718393D01*
X104920994Y-102712883D01*
X104898666Y-102708026D01*
X104882253Y-102695739D01*
X104877999Y-102693857D01*
X104870412Y-102686875D01*
X104756819Y-102573282D01*
X104723334Y-102511959D01*
X104720500Y-102485601D01*
X104720500Y-100260144D01*
X104740185Y-100193105D01*
X104792989Y-100147350D01*
X104862147Y-100137406D01*
X104876571Y-100140364D01*
X104950428Y-100160154D01*
X104950431Y-100160154D01*
X105082210Y-100160154D01*
X105082212Y-100160154D01*
X105209506Y-100126046D01*
X105323634Y-100060154D01*
X105416820Y-99966968D01*
X105482712Y-99852840D01*
X105516820Y-99725546D01*
X105516820Y-99593762D01*
X105482712Y-99466468D01*
X105416820Y-99352340D01*
X105416818Y-99352338D01*
X105412756Y-99345302D01*
X105414106Y-99344522D01*
X105392250Y-99287983D01*
X105391820Y-99277667D01*
X105391820Y-98069108D01*
X106124500Y-98069108D01*
X106124500Y-98200892D01*
X106128900Y-98217313D01*
X106158608Y-98328187D01*
X106162253Y-98334500D01*
X106224500Y-98442314D01*
X106317686Y-98535500D01*
X106431814Y-98601392D01*
X106559108Y-98635500D01*
X106559110Y-98635500D01*
X106690890Y-98635500D01*
X106690892Y-98635500D01*
X106818186Y-98601392D01*
X106932314Y-98535500D01*
X107025500Y-98442314D01*
X107091392Y-98328186D01*
X107125500Y-98200892D01*
X107125500Y-98069108D01*
X107091392Y-97941814D01*
X107034981Y-97844108D01*
X107624500Y-97844108D01*
X107624500Y-97975891D01*
X107658608Y-98103187D01*
X107691554Y-98160250D01*
X107724500Y-98217314D01*
X107817686Y-98310500D01*
X107931814Y-98376392D01*
X108059108Y-98410500D01*
X108059110Y-98410500D01*
X108190889Y-98410500D01*
X108190892Y-98410500D01*
X108317286Y-98376633D01*
X108387130Y-98378296D01*
X108444992Y-98417458D01*
X108472497Y-98481686D01*
X108460911Y-98550589D01*
X108456762Y-98558407D01*
X108408608Y-98641812D01*
X108396020Y-98688793D01*
X108374500Y-98769108D01*
X108374500Y-98900892D01*
X108385946Y-98943608D01*
X108408608Y-99028187D01*
X108421549Y-99050601D01*
X108474500Y-99142314D01*
X108567686Y-99235500D01*
X108681814Y-99301392D01*
X108809108Y-99335500D01*
X108809110Y-99335500D01*
X108940890Y-99335500D01*
X108940892Y-99335500D01*
X109068186Y-99301392D01*
X109182314Y-99235500D01*
X109275500Y-99142314D01*
X109341392Y-99028186D01*
X109375500Y-98900892D01*
X109375500Y-98769108D01*
X109341392Y-98641814D01*
X109275500Y-98527686D01*
X109182314Y-98434500D01*
X109125250Y-98401554D01*
X109068187Y-98368608D01*
X109004539Y-98351554D01*
X108940892Y-98334500D01*
X108809108Y-98334500D01*
X108682717Y-98368365D01*
X108612868Y-98366703D01*
X108555006Y-98327540D01*
X108527502Y-98263312D01*
X108539089Y-98194409D01*
X108543231Y-98186601D01*
X108591392Y-98103186D01*
X108625500Y-97975892D01*
X108625500Y-97844108D01*
X108591392Y-97716814D01*
X108525500Y-97602686D01*
X108461357Y-97538543D01*
X118734499Y-97538543D01*
X118772947Y-97731829D01*
X118772950Y-97731839D01*
X118848364Y-97913907D01*
X118848371Y-97913920D01*
X118957860Y-98077781D01*
X118957863Y-98077785D01*
X119097214Y-98217136D01*
X119097218Y-98217139D01*
X119261079Y-98326628D01*
X119261092Y-98326635D01*
X119443160Y-98402049D01*
X119443165Y-98402051D01*
X119443169Y-98402051D01*
X119443170Y-98402052D01*
X119636456Y-98440500D01*
X119636459Y-98440500D01*
X120833543Y-98440500D01*
X120984359Y-98410500D01*
X121026835Y-98402051D01*
X121205160Y-98328187D01*
X121208907Y-98326635D01*
X121208907Y-98326634D01*
X121208914Y-98326632D01*
X121372782Y-98217139D01*
X121512139Y-98077782D01*
X121621632Y-97913914D01*
X121697051Y-97731835D01*
X121735500Y-97538541D01*
X121735500Y-97341459D01*
X121735500Y-97341456D01*
X121697052Y-97148170D01*
X121697051Y-97148169D01*
X121697051Y-97148165D01*
X121656888Y-97051202D01*
X121621635Y-96966092D01*
X121621628Y-96966079D01*
X121512139Y-96802218D01*
X121512136Y-96802214D01*
X121372785Y-96662863D01*
X121372781Y-96662860D01*
X121208920Y-96553371D01*
X121208907Y-96553364D01*
X121026839Y-96477950D01*
X121026829Y-96477947D01*
X120833543Y-96439500D01*
X120833541Y-96439500D01*
X119636459Y-96439500D01*
X119636457Y-96439500D01*
X119443170Y-96477947D01*
X119443160Y-96477950D01*
X119261092Y-96553364D01*
X119261079Y-96553371D01*
X119097218Y-96662860D01*
X119097214Y-96662863D01*
X118957863Y-96802214D01*
X118957860Y-96802218D01*
X118848371Y-96966079D01*
X118848364Y-96966092D01*
X118772950Y-97148160D01*
X118772947Y-97148170D01*
X118734500Y-97341456D01*
X118734500Y-97341459D01*
X118734500Y-97538541D01*
X118734500Y-97538543D01*
X118734499Y-97538543D01*
X108461357Y-97538543D01*
X108432314Y-97509500D01*
X108374100Y-97475890D01*
X108318187Y-97443608D01*
X108254539Y-97426554D01*
X108190892Y-97409500D01*
X108059108Y-97409500D01*
X107931812Y-97443608D01*
X107817686Y-97509500D01*
X107817683Y-97509502D01*
X107724502Y-97602683D01*
X107724500Y-97602686D01*
X107658608Y-97716812D01*
X107624500Y-97844108D01*
X107034981Y-97844108D01*
X107025500Y-97827686D01*
X106932314Y-97734500D01*
X106875250Y-97701554D01*
X106818187Y-97668608D01*
X106732859Y-97645745D01*
X106690892Y-97634500D01*
X106559108Y-97634500D01*
X106431812Y-97668608D01*
X106317686Y-97734500D01*
X106317683Y-97734502D01*
X106224502Y-97827683D01*
X106224500Y-97827686D01*
X106158608Y-97941812D01*
X106149477Y-97975890D01*
X106124500Y-98069108D01*
X105391820Y-98069108D01*
X105391820Y-97678972D01*
X105408433Y-97616971D01*
X105416392Y-97603186D01*
X105450500Y-97475892D01*
X105450500Y-97344108D01*
X105416392Y-97216814D01*
X105350500Y-97102686D01*
X105257314Y-97009500D01*
X105200250Y-96976554D01*
X105143187Y-96943608D01*
X105085659Y-96928193D01*
X105023216Y-96911462D01*
X104963556Y-96875098D01*
X104933027Y-96812251D01*
X104941322Y-96742876D01*
X104967624Y-96704012D01*
X105030474Y-96641163D01*
X105034590Y-96634034D01*
X105079910Y-96555538D01*
X105105500Y-96460035D01*
X105105500Y-95721316D01*
X105125185Y-95654277D01*
X105177989Y-95608522D01*
X105247147Y-95598578D01*
X105310703Y-95627603D01*
X105336887Y-95659316D01*
X105374497Y-95724459D01*
X105374499Y-95724461D01*
X105374500Y-95724463D01*
X105467686Y-95817649D01*
X105581814Y-95883541D01*
X105709108Y-95917649D01*
X105709110Y-95917649D01*
X105840890Y-95917649D01*
X105840892Y-95917649D01*
X105968186Y-95883541D01*
X106082314Y-95817649D01*
X106175500Y-95724463D01*
X106241392Y-95610335D01*
X106252439Y-95569108D01*
X111874500Y-95569108D01*
X111874500Y-95700892D01*
X111881199Y-95725892D01*
X111908608Y-95828187D01*
X111940567Y-95883540D01*
X111974500Y-95942314D01*
X112067686Y-96035500D01*
X112181814Y-96101392D01*
X112309108Y-96135500D01*
X112309110Y-96135500D01*
X112440890Y-96135500D01*
X112440892Y-96135500D01*
X112568186Y-96101392D01*
X112682314Y-96035500D01*
X112775500Y-95942314D01*
X112841392Y-95828186D01*
X112875500Y-95700892D01*
X112875500Y-95569108D01*
X112841392Y-95441814D01*
X112775500Y-95327686D01*
X112682314Y-95234500D01*
X112608423Y-95191839D01*
X112568187Y-95168608D01*
X112504539Y-95151554D01*
X112440892Y-95134500D01*
X112309108Y-95134500D01*
X112181812Y-95168608D01*
X112067686Y-95234500D01*
X112067683Y-95234502D01*
X111974502Y-95327683D01*
X111974500Y-95327686D01*
X111908608Y-95441812D01*
X111890204Y-95510499D01*
X111874500Y-95569108D01*
X106252439Y-95569108D01*
X106275500Y-95483041D01*
X106275500Y-95351257D01*
X106241392Y-95223963D01*
X106175500Y-95109835D01*
X106082314Y-95016649D01*
X106025250Y-94983703D01*
X105968187Y-94950757D01*
X105904539Y-94933703D01*
X105840892Y-94916649D01*
X105709108Y-94916649D01*
X105581812Y-94950757D01*
X105467686Y-95016649D01*
X105467683Y-95016651D01*
X105374502Y-95109832D01*
X105374500Y-95109835D01*
X105308608Y-95223963D01*
X105290358Y-95292075D01*
X105285459Y-95310357D01*
X105249094Y-95370017D01*
X105186246Y-95400546D01*
X105116871Y-95392251D01*
X105062993Y-95347766D01*
X105058296Y-95340261D01*
X105051034Y-95327683D01*
X105043435Y-95314520D01*
X105036892Y-95303187D01*
X105030477Y-95292075D01*
X105030473Y-95292070D01*
X104685623Y-94947220D01*
X104652138Y-94885897D01*
X104650622Y-94877202D01*
X104650500Y-94876746D01*
X104650500Y-94876743D01*
X104616392Y-94749449D01*
X104550500Y-94635321D01*
X104457314Y-94542135D01*
X104400250Y-94509189D01*
X104343187Y-94476243D01*
X104315359Y-94468786D01*
X104215892Y-94442135D01*
X104084108Y-94442135D01*
X103956812Y-94476243D01*
X103842686Y-94542135D01*
X103842683Y-94542137D01*
X103749502Y-94635318D01*
X103749500Y-94635321D01*
X103683608Y-94749447D01*
X103657331Y-94847517D01*
X103649500Y-94876743D01*
X103649500Y-95008527D01*
X103683254Y-95134500D01*
X103683609Y-95135823D01*
X103683609Y-95135824D01*
X103748680Y-95248530D01*
X103765153Y-95316430D01*
X103742300Y-95382457D01*
X103728975Y-95398211D01*
X103674500Y-95452686D01*
X103608608Y-95566812D01*
X103574500Y-95694108D01*
X101627386Y-95694108D01*
X101652782Y-95677139D01*
X101792139Y-95537782D01*
X101849519Y-95451905D01*
X101903130Y-95407101D01*
X101972455Y-95398394D01*
X102035483Y-95428548D01*
X102040302Y-95433116D01*
X102117686Y-95510500D01*
X102215221Y-95566812D01*
X102231810Y-95576390D01*
X102231814Y-95576392D01*
X102359108Y-95610500D01*
X102359110Y-95610500D01*
X102490890Y-95610500D01*
X102490892Y-95610500D01*
X102618186Y-95576392D01*
X102732314Y-95510500D01*
X102825500Y-95417314D01*
X102891392Y-95303186D01*
X102925500Y-95175892D01*
X102925500Y-95044108D01*
X102891392Y-94916814D01*
X102825500Y-94802686D01*
X102732314Y-94709500D01*
X102658380Y-94666814D01*
X102618187Y-94643608D01*
X102545272Y-94624071D01*
X102490892Y-94609500D01*
X102359108Y-94609500D01*
X102231814Y-94643608D01*
X102231813Y-94643608D01*
X102231811Y-94643609D01*
X102231810Y-94643609D01*
X102159475Y-94685372D01*
X102091574Y-94701845D01*
X102025548Y-94678992D01*
X101982357Y-94624071D01*
X101978813Y-94613976D01*
X101977052Y-94608170D01*
X101977051Y-94608165D01*
X101922408Y-94476243D01*
X101901635Y-94426092D01*
X101901628Y-94426079D01*
X101846856Y-94344108D01*
X109968884Y-94344108D01*
X109968884Y-94475891D01*
X110002992Y-94603187D01*
X110015050Y-94624071D01*
X110068884Y-94717314D01*
X110162070Y-94810500D01*
X110276198Y-94876392D01*
X110403492Y-94910500D01*
X110403494Y-94910500D01*
X110535274Y-94910500D01*
X110535276Y-94910500D01*
X110662570Y-94876392D01*
X110776698Y-94810500D01*
X110869884Y-94717314D01*
X110935776Y-94603186D01*
X110969884Y-94475892D01*
X110969884Y-94344108D01*
X110935776Y-94216814D01*
X110869884Y-94102686D01*
X110776698Y-94009500D01*
X110709323Y-93970601D01*
X110662571Y-93943608D01*
X110598923Y-93926554D01*
X110535276Y-93909500D01*
X110403492Y-93909500D01*
X110276196Y-93943608D01*
X110162070Y-94009500D01*
X110162067Y-94009502D01*
X110068886Y-94102683D01*
X110068884Y-94102686D01*
X110002992Y-94216812D01*
X109968884Y-94344108D01*
X101846856Y-94344108D01*
X101792139Y-94262218D01*
X101792136Y-94262214D01*
X101652785Y-94122863D01*
X101652781Y-94122860D01*
X101488920Y-94013371D01*
X101488907Y-94013364D01*
X101306839Y-93937950D01*
X101306829Y-93937947D01*
X101113543Y-93899500D01*
X101113541Y-93899500D01*
X99916459Y-93899500D01*
X99916457Y-93899500D01*
X99723170Y-93937947D01*
X99723160Y-93937950D01*
X99541092Y-94013364D01*
X99541079Y-94013371D01*
X99377218Y-94122860D01*
X99377214Y-94122863D01*
X99237863Y-94262214D01*
X99237860Y-94262218D01*
X99128371Y-94426079D01*
X99128364Y-94426092D01*
X99052950Y-94608160D01*
X99052947Y-94608170D01*
X99014500Y-94801456D01*
X99014500Y-94801459D01*
X99014500Y-94998541D01*
X99014500Y-94998543D01*
X99014499Y-94998543D01*
X98456033Y-94998543D01*
X98475500Y-94925892D01*
X98475500Y-94794108D01*
X98441392Y-94666814D01*
X98375500Y-94552686D01*
X98282314Y-94459500D01*
X98209253Y-94417318D01*
X98168187Y-94393608D01*
X98104539Y-94376554D01*
X98040892Y-94359500D01*
X97909108Y-94359500D01*
X97781812Y-94393608D01*
X97667686Y-94459500D01*
X97667683Y-94459502D01*
X97574502Y-94552683D01*
X97574500Y-94552686D01*
X97508608Y-94666812D01*
X97495076Y-94717316D01*
X97474500Y-94794108D01*
X91500500Y-94794108D01*
X91500500Y-93594108D01*
X104399500Y-93594108D01*
X104399500Y-93725891D01*
X104433608Y-93853187D01*
X104453555Y-93887735D01*
X104499500Y-93967314D01*
X104592686Y-94060500D01*
X104691521Y-94117563D01*
X104700701Y-94122863D01*
X104706814Y-94126392D01*
X104834108Y-94160500D01*
X104834110Y-94160500D01*
X104965890Y-94160500D01*
X104965892Y-94160500D01*
X105093186Y-94126392D01*
X105207314Y-94060500D01*
X105300500Y-93967314D01*
X105366392Y-93853186D01*
X105400500Y-93725892D01*
X105400500Y-93594108D01*
X105366392Y-93466814D01*
X105300500Y-93352686D01*
X105300498Y-93352684D01*
X105296436Y-93345648D01*
X105297786Y-93344868D01*
X105275930Y-93288329D01*
X105275500Y-93278013D01*
X105275500Y-92894108D01*
X106624500Y-92894108D01*
X106624500Y-93025891D01*
X106658608Y-93153187D01*
X106691554Y-93210250D01*
X106724500Y-93267314D01*
X106817686Y-93360500D01*
X106931814Y-93426392D01*
X107059108Y-93460500D01*
X107059110Y-93460500D01*
X107190890Y-93460500D01*
X107190892Y-93460500D01*
X107318186Y-93426392D01*
X107432314Y-93360500D01*
X107525500Y-93267314D01*
X107591392Y-93153186D01*
X107625500Y-93025892D01*
X107625500Y-92894108D01*
X107591392Y-92766814D01*
X107587170Y-92759502D01*
X107532889Y-92665484D01*
X107532888Y-92665483D01*
X107525500Y-92652686D01*
X107484423Y-92611609D01*
X108012001Y-92611609D01*
X108012001Y-92743393D01*
X108018276Y-92766810D01*
X108046109Y-92870688D01*
X108059631Y-92894108D01*
X108112001Y-92984815D01*
X108205187Y-93078001D01*
X108304022Y-93135064D01*
X108307611Y-93137136D01*
X108319315Y-93143893D01*
X108446609Y-93178001D01*
X108446611Y-93178001D01*
X108578391Y-93178001D01*
X108578393Y-93178001D01*
X108705687Y-93143893D01*
X108819815Y-93078001D01*
X108913001Y-92984815D01*
X108978893Y-92870687D01*
X109013001Y-92743393D01*
X109013001Y-92611609D01*
X108978893Y-92484315D01*
X108913001Y-92370187D01*
X108819815Y-92277001D01*
X108762751Y-92244055D01*
X108705688Y-92211109D01*
X108640372Y-92193608D01*
X108578393Y-92177001D01*
X108446609Y-92177001D01*
X108319313Y-92211109D01*
X108205187Y-92277001D01*
X108205184Y-92277003D01*
X108112003Y-92370184D01*
X108112001Y-92370187D01*
X108046109Y-92484313D01*
X108025963Y-92559500D01*
X108012001Y-92611609D01*
X107484423Y-92611609D01*
X107432314Y-92559500D01*
X107375250Y-92526554D01*
X107318187Y-92493608D01*
X107218188Y-92466814D01*
X107190892Y-92459500D01*
X107059108Y-92459500D01*
X106931812Y-92493608D01*
X106817686Y-92559500D01*
X106817683Y-92559502D01*
X106724502Y-92652683D01*
X106724500Y-92652686D01*
X106658608Y-92766812D01*
X106624500Y-92894108D01*
X105275500Y-92894108D01*
X105275500Y-91514108D01*
X105719500Y-91514108D01*
X105719500Y-91645891D01*
X105753608Y-91773187D01*
X105763604Y-91790500D01*
X105819500Y-91887314D01*
X105912686Y-91980500D01*
X106026814Y-92046392D01*
X106154108Y-92080500D01*
X106154110Y-92080500D01*
X106285890Y-92080500D01*
X106285892Y-92080500D01*
X106413186Y-92046392D01*
X106527314Y-91980500D01*
X106620500Y-91887314D01*
X106686392Y-91773186D01*
X106720500Y-91645892D01*
X106720500Y-91514108D01*
X106686392Y-91386814D01*
X106620500Y-91272686D01*
X106566458Y-91218644D01*
X107284964Y-91218644D01*
X107284964Y-91350428D01*
X107297697Y-91397947D01*
X107319072Y-91477723D01*
X107350213Y-91531660D01*
X107384964Y-91591850D01*
X107478150Y-91685036D01*
X107592278Y-91750928D01*
X107719572Y-91785036D01*
X107719574Y-91785036D01*
X107851354Y-91785036D01*
X107851356Y-91785036D01*
X107978650Y-91750928D01*
X108092778Y-91685036D01*
X108185964Y-91591850D01*
X108251856Y-91477722D01*
X108285964Y-91350428D01*
X108285964Y-91218644D01*
X108251856Y-91091350D01*
X108185964Y-90977222D01*
X108185962Y-90977220D01*
X108181900Y-90970184D01*
X108183250Y-90969404D01*
X108161394Y-90912865D01*
X108160964Y-90902549D01*
X108160964Y-88293920D01*
X108504499Y-88293920D01*
X108533340Y-88438907D01*
X108533343Y-88438917D01*
X108589912Y-88575488D01*
X108589919Y-88575501D01*
X108672048Y-88698415D01*
X108672051Y-88698419D01*
X108776580Y-88802948D01*
X108776584Y-88802951D01*
X108899498Y-88885080D01*
X108899511Y-88885087D01*
X109016063Y-88933364D01*
X109036087Y-88941658D01*
X109036091Y-88941658D01*
X109036092Y-88941659D01*
X109181079Y-88970500D01*
X109181082Y-88970500D01*
X109328920Y-88970500D01*
X109426462Y-88951096D01*
X109473913Y-88941658D01*
X109533050Y-88917162D01*
X109602515Y-88909694D01*
X109664995Y-88940968D01*
X109700648Y-89001057D01*
X109704500Y-89031724D01*
X109704500Y-91146324D01*
X109684815Y-91213363D01*
X109668181Y-91234005D01*
X109629502Y-91272683D01*
X109629500Y-91272686D01*
X109563608Y-91386812D01*
X109529500Y-91514108D01*
X109529500Y-91645891D01*
X109563608Y-91773187D01*
X109573604Y-91790500D01*
X109629500Y-91887314D01*
X109722686Y-91980500D01*
X109836814Y-92046392D01*
X109964108Y-92080500D01*
X109964110Y-92080500D01*
X110095890Y-92080500D01*
X110095892Y-92080500D01*
X110223186Y-92046392D01*
X110337314Y-91980500D01*
X110430500Y-91887314D01*
X110496392Y-91773186D01*
X110505725Y-91738351D01*
X110542090Y-91678692D01*
X110604937Y-91648163D01*
X110674312Y-91656458D01*
X110728190Y-91700943D01*
X110749465Y-91767495D01*
X110749500Y-91770446D01*
X110749500Y-92265600D01*
X110729815Y-92332639D01*
X110713181Y-92353281D01*
X110442086Y-92624375D01*
X110380763Y-92657860D01*
X110372072Y-92659375D01*
X110244312Y-92693608D01*
X110130186Y-92759500D01*
X110130183Y-92759502D01*
X110037002Y-92852683D01*
X110037000Y-92852686D01*
X109971108Y-92966812D01*
X109955278Y-93025892D01*
X109937000Y-93094108D01*
X109937000Y-93225892D01*
X109949484Y-93272483D01*
X109971108Y-93353187D01*
X110002367Y-93407328D01*
X110037000Y-93467314D01*
X110130186Y-93560500D01*
X110244314Y-93626392D01*
X110371608Y-93660500D01*
X110371610Y-93660500D01*
X110503390Y-93660500D01*
X110503392Y-93660500D01*
X110630686Y-93626392D01*
X110744814Y-93560500D01*
X110838000Y-93467314D01*
X110903892Y-93353186D01*
X110938000Y-93225892D01*
X110938000Y-93225890D01*
X110940103Y-93218042D01*
X110941609Y-93218445D01*
X110966131Y-93163012D01*
X110973111Y-93155425D01*
X111425475Y-92703063D01*
X111474911Y-92617437D01*
X111500500Y-92521936D01*
X111500500Y-92423064D01*
X111500500Y-90294108D01*
X115874500Y-90294108D01*
X115874500Y-90425892D01*
X115888854Y-90479463D01*
X115908608Y-90553187D01*
X115933984Y-90597139D01*
X115974500Y-90667314D01*
X115974502Y-90667316D01*
X116063181Y-90755995D01*
X116096666Y-90817318D01*
X116099500Y-90843676D01*
X116099500Y-93728015D01*
X116079815Y-93795054D01*
X116074742Y-93802268D01*
X116008608Y-93916814D01*
X115974500Y-94044110D01*
X115974500Y-94175893D01*
X116008608Y-94303189D01*
X116032233Y-94344108D01*
X116074500Y-94417316D01*
X116167686Y-94510502D01*
X116281814Y-94576394D01*
X116409108Y-94610502D01*
X116409110Y-94610502D01*
X116540890Y-94610502D01*
X116540892Y-94610502D01*
X116668186Y-94576394D01*
X116782314Y-94510502D01*
X116875500Y-94417316D01*
X116941392Y-94303188D01*
X116975500Y-94175894D01*
X116975500Y-94044110D01*
X116941392Y-93916816D01*
X116875500Y-93802688D01*
X116875498Y-93802686D01*
X116871436Y-93795650D01*
X116872786Y-93794870D01*
X116850930Y-93738331D01*
X116850500Y-93728015D01*
X116850500Y-91094108D01*
X117124500Y-91094108D01*
X117124500Y-91225892D01*
X117137038Y-91272684D01*
X117158608Y-91353187D01*
X117192959Y-91412684D01*
X117224500Y-91467314D01*
X117224501Y-91467315D01*
X117228564Y-91474352D01*
X117227211Y-91475133D01*
X117249069Y-91531660D01*
X117249500Y-91541986D01*
X117249500Y-95278013D01*
X117229815Y-95345052D01*
X117224742Y-95352266D01*
X117158608Y-95466812D01*
X117124500Y-95594108D01*
X117124500Y-95725891D01*
X117158608Y-95853187D01*
X117185925Y-95900500D01*
X117224500Y-95967314D01*
X117317686Y-96060500D01*
X117431814Y-96126392D01*
X117559108Y-96160500D01*
X117559110Y-96160500D01*
X117690890Y-96160500D01*
X117690892Y-96160500D01*
X117818186Y-96126392D01*
X117932314Y-96060500D01*
X118025500Y-95967314D01*
X118091392Y-95853186D01*
X118125500Y-95725892D01*
X118125500Y-95594108D01*
X118091392Y-95466814D01*
X118025500Y-95352686D01*
X118025498Y-95352684D01*
X118021436Y-95345648D01*
X118022786Y-95344868D01*
X118000930Y-95288329D01*
X118000500Y-95278013D01*
X118000500Y-94998543D01*
X118734499Y-94998543D01*
X118772947Y-95191829D01*
X118772950Y-95191839D01*
X118848364Y-95373907D01*
X118848371Y-95373920D01*
X118957860Y-95537781D01*
X118957863Y-95537785D01*
X119097214Y-95677136D01*
X119097218Y-95677139D01*
X119261079Y-95786628D01*
X119261092Y-95786635D01*
X119361409Y-95828187D01*
X119443165Y-95862051D01*
X119443169Y-95862051D01*
X119443170Y-95862052D01*
X119636456Y-95900500D01*
X119636459Y-95900500D01*
X120833543Y-95900500D01*
X120963582Y-95874632D01*
X121026835Y-95862051D01*
X121208914Y-95786632D01*
X121372782Y-95677139D01*
X121512139Y-95537782D01*
X121621632Y-95373914D01*
X121697051Y-95191835D01*
X121724630Y-95053187D01*
X121735500Y-94998543D01*
X121735500Y-94801456D01*
X121697052Y-94608170D01*
X121697051Y-94608169D01*
X121697051Y-94608165D01*
X121642408Y-94476243D01*
X121621635Y-94426092D01*
X121621628Y-94426079D01*
X121512139Y-94262218D01*
X121512136Y-94262214D01*
X121372785Y-94122863D01*
X121372781Y-94122860D01*
X121208920Y-94013371D01*
X121208907Y-94013364D01*
X121026839Y-93937950D01*
X121026829Y-93937947D01*
X120833543Y-93899500D01*
X120833541Y-93899500D01*
X119636459Y-93899500D01*
X119636457Y-93899500D01*
X119443170Y-93937947D01*
X119443160Y-93937950D01*
X119261092Y-94013364D01*
X119261079Y-94013371D01*
X119097218Y-94122860D01*
X119097214Y-94122863D01*
X118957863Y-94262214D01*
X118957860Y-94262218D01*
X118848371Y-94426079D01*
X118848364Y-94426092D01*
X118772950Y-94608160D01*
X118772947Y-94608170D01*
X118734500Y-94801456D01*
X118734500Y-94801459D01*
X118734500Y-94998541D01*
X118734500Y-94998543D01*
X118734499Y-94998543D01*
X118000500Y-94998543D01*
X118000500Y-92458543D01*
X118734499Y-92458543D01*
X118772947Y-92651829D01*
X118772950Y-92651839D01*
X118848364Y-92833907D01*
X118848371Y-92833920D01*
X118957860Y-92997781D01*
X118957863Y-92997785D01*
X119097214Y-93137136D01*
X119097218Y-93137139D01*
X119261079Y-93246628D01*
X119261092Y-93246635D01*
X119361752Y-93288329D01*
X119443165Y-93322051D01*
X119443169Y-93322051D01*
X119443170Y-93322052D01*
X119636456Y-93360500D01*
X119636459Y-93360500D01*
X120833543Y-93360500D01*
X120998506Y-93327686D01*
X121026835Y-93322051D01*
X121208914Y-93246632D01*
X121372782Y-93137139D01*
X121512139Y-92997782D01*
X121621632Y-92833914D01*
X121697051Y-92651835D01*
X121730374Y-92484313D01*
X121735500Y-92458543D01*
X121735500Y-92261456D01*
X121697052Y-92068170D01*
X121697051Y-92068169D01*
X121697051Y-92068165D01*
X121692614Y-92057452D01*
X121621635Y-91886092D01*
X121621628Y-91886079D01*
X121512139Y-91722218D01*
X121512136Y-91722214D01*
X121372785Y-91582863D01*
X121372781Y-91582860D01*
X121208920Y-91473371D01*
X121208907Y-91473364D01*
X121026839Y-91397950D01*
X121026829Y-91397947D01*
X120833543Y-91359500D01*
X120833541Y-91359500D01*
X119636459Y-91359500D01*
X119636457Y-91359500D01*
X119443170Y-91397947D01*
X119443160Y-91397950D01*
X119261092Y-91473364D01*
X119261079Y-91473371D01*
X119097218Y-91582860D01*
X119097214Y-91582863D01*
X118957863Y-91722214D01*
X118957860Y-91722218D01*
X118848371Y-91886079D01*
X118848364Y-91886092D01*
X118772950Y-92068160D01*
X118772947Y-92068170D01*
X118734500Y-92261456D01*
X118734500Y-92261459D01*
X118734500Y-92458541D01*
X118734500Y-92458543D01*
X118734499Y-92458543D01*
X118000500Y-92458543D01*
X118000500Y-91541986D01*
X118020185Y-91474947D01*
X118025258Y-91467732D01*
X118025498Y-91467315D01*
X118025500Y-91467314D01*
X118091392Y-91353186D01*
X118125500Y-91225892D01*
X118125500Y-91094108D01*
X118091392Y-90966814D01*
X118025500Y-90852686D01*
X117932314Y-90759500D01*
X117875250Y-90726554D01*
X117818187Y-90693608D01*
X117740790Y-90672870D01*
X117690892Y-90659500D01*
X117559108Y-90659500D01*
X117431812Y-90693608D01*
X117317686Y-90759500D01*
X117317683Y-90759502D01*
X117224502Y-90852683D01*
X117224500Y-90852686D01*
X117158608Y-90966812D01*
X117146902Y-91010500D01*
X117124500Y-91094108D01*
X116850500Y-91094108D01*
X116850500Y-90535518D01*
X116854725Y-90503425D01*
X116875500Y-90425892D01*
X116875500Y-90294108D01*
X116841392Y-90166814D01*
X116775500Y-90052686D01*
X116682314Y-89959500D01*
X116611374Y-89918543D01*
X118734499Y-89918543D01*
X118772947Y-90111829D01*
X118772950Y-90111839D01*
X118848364Y-90293907D01*
X118848371Y-90293920D01*
X118957860Y-90457781D01*
X118957863Y-90457785D01*
X119097214Y-90597136D01*
X119097218Y-90597139D01*
X119261079Y-90706628D01*
X119261092Y-90706635D01*
X119435478Y-90778867D01*
X119443165Y-90782051D01*
X119443169Y-90782051D01*
X119443170Y-90782052D01*
X119636456Y-90820500D01*
X119636459Y-90820500D01*
X120833543Y-90820500D01*
X120963582Y-90794632D01*
X121026835Y-90782051D01*
X121208914Y-90706632D01*
X121372782Y-90597139D01*
X121512139Y-90457782D01*
X121621632Y-90293914D01*
X121697051Y-90111835D01*
X121717407Y-90009500D01*
X121735500Y-89918543D01*
X121735500Y-89721456D01*
X121697052Y-89528170D01*
X121697051Y-89528169D01*
X121697051Y-89528165D01*
X121692614Y-89517452D01*
X121621635Y-89346092D01*
X121621628Y-89346079D01*
X121512139Y-89182218D01*
X121512136Y-89182214D01*
X121372785Y-89042863D01*
X121372781Y-89042860D01*
X121208920Y-88933371D01*
X121208907Y-88933364D01*
X121026839Y-88857950D01*
X121026829Y-88857947D01*
X120833543Y-88819500D01*
X120833541Y-88819500D01*
X119636459Y-88819500D01*
X119636457Y-88819500D01*
X119443170Y-88857947D01*
X119443160Y-88857950D01*
X119261092Y-88933364D01*
X119261079Y-88933371D01*
X119097218Y-89042860D01*
X119097214Y-89042863D01*
X118957863Y-89182214D01*
X118957860Y-89182218D01*
X118848371Y-89346079D01*
X118848364Y-89346092D01*
X118772950Y-89528160D01*
X118772947Y-89528170D01*
X118734500Y-89721456D01*
X118734500Y-89721459D01*
X118734500Y-89918541D01*
X118734500Y-89918543D01*
X118734499Y-89918543D01*
X116611374Y-89918543D01*
X116611371Y-89918541D01*
X116568187Y-89893608D01*
X116504539Y-89876554D01*
X116440892Y-89859500D01*
X116309108Y-89859500D01*
X116181812Y-89893608D01*
X116067686Y-89959500D01*
X116067683Y-89959502D01*
X115974502Y-90052683D01*
X115974500Y-90052686D01*
X115908608Y-90166812D01*
X115898997Y-90202683D01*
X115874500Y-90294108D01*
X111500500Y-90294108D01*
X111500500Y-89641899D01*
X111520185Y-89574860D01*
X111536819Y-89554218D01*
X111840537Y-89250500D01*
X112145414Y-88945622D01*
X112206735Y-88912139D01*
X112215426Y-88910624D01*
X112215889Y-88910500D01*
X112215892Y-88910500D01*
X112343186Y-88876392D01*
X112457314Y-88810500D01*
X112550500Y-88717314D01*
X112616392Y-88603186D01*
X112650500Y-88475892D01*
X112650500Y-88344108D01*
X112616392Y-88216814D01*
X112550500Y-88102686D01*
X112457314Y-88009500D01*
X112372439Y-87960497D01*
X112343187Y-87943608D01*
X112246797Y-87917781D01*
X112215892Y-87909500D01*
X112084108Y-87909500D01*
X111956812Y-87943608D01*
X111842686Y-88009500D01*
X111842683Y-88009502D01*
X111749502Y-88102683D01*
X111749500Y-88102686D01*
X111683608Y-88216812D01*
X111662948Y-88293918D01*
X111653996Y-88327331D01*
X111647397Y-88351958D01*
X111645893Y-88351555D01*
X111621355Y-88407002D01*
X111614375Y-88414587D01*
X110894438Y-89134525D01*
X110824527Y-89204435D01*
X110775091Y-89290060D01*
X110775090Y-89290063D01*
X110750751Y-89380898D01*
X110750748Y-89380909D01*
X110749500Y-89385561D01*
X110749500Y-91389553D01*
X110729815Y-91456592D01*
X110677011Y-91502347D01*
X110607853Y-91512291D01*
X110544297Y-91483266D01*
X110511616Y-91438608D01*
X110508054Y-91430340D01*
X110496392Y-91386814D01*
X110468486Y-91338480D01*
X110465616Y-91331816D01*
X110463094Y-91311105D01*
X110455500Y-91282761D01*
X110455500Y-87378543D01*
X118734499Y-87378543D01*
X118772947Y-87571829D01*
X118772950Y-87571839D01*
X118848364Y-87753907D01*
X118848371Y-87753920D01*
X118957860Y-87917781D01*
X118957863Y-87917785D01*
X119097214Y-88057136D01*
X119097218Y-88057139D01*
X119261079Y-88166628D01*
X119261092Y-88166635D01*
X119443160Y-88242049D01*
X119443165Y-88242051D01*
X119443169Y-88242051D01*
X119443170Y-88242052D01*
X119636456Y-88280500D01*
X119636459Y-88280500D01*
X120833543Y-88280500D01*
X120963582Y-88254632D01*
X121026835Y-88242051D01*
X121208914Y-88166632D01*
X121372782Y-88057139D01*
X121512139Y-87917782D01*
X121621632Y-87753914D01*
X121697051Y-87571835D01*
X121712512Y-87494108D01*
X121735500Y-87378543D01*
X121735500Y-87181456D01*
X121697052Y-86988170D01*
X121697051Y-86988169D01*
X121697051Y-86988165D01*
X121688950Y-86968608D01*
X121621635Y-86806092D01*
X121621628Y-86806079D01*
X121512139Y-86642218D01*
X121512136Y-86642214D01*
X121372785Y-86502863D01*
X121372781Y-86502860D01*
X121208920Y-86393371D01*
X121208907Y-86393364D01*
X121026839Y-86317950D01*
X121026829Y-86317947D01*
X120833543Y-86279500D01*
X120833541Y-86279500D01*
X119636459Y-86279500D01*
X119636457Y-86279500D01*
X119443170Y-86317947D01*
X119443160Y-86317950D01*
X119261092Y-86393364D01*
X119261079Y-86393371D01*
X119097218Y-86502860D01*
X119097214Y-86502863D01*
X118957863Y-86642214D01*
X118957860Y-86642218D01*
X118848371Y-86806079D01*
X118848364Y-86806092D01*
X118772950Y-86988160D01*
X118772947Y-86988170D01*
X118734500Y-87181456D01*
X118734500Y-87181459D01*
X118734500Y-87378541D01*
X118734500Y-87378543D01*
X118734499Y-87378543D01*
X110455500Y-87378543D01*
X110455500Y-86483920D01*
X114124499Y-86483920D01*
X114153340Y-86628907D01*
X114153343Y-86628917D01*
X114209912Y-86765488D01*
X114209919Y-86765501D01*
X114292048Y-86888415D01*
X114292051Y-86888419D01*
X114396580Y-86992948D01*
X114396584Y-86992951D01*
X114519498Y-87075080D01*
X114519511Y-87075087D01*
X114656082Y-87131656D01*
X114656087Y-87131658D01*
X114656091Y-87131658D01*
X114656092Y-87131659D01*
X114801079Y-87160500D01*
X114801082Y-87160500D01*
X114948920Y-87160500D01*
X115046462Y-87141096D01*
X115093913Y-87131658D01*
X115230495Y-87075084D01*
X115230502Y-87075078D01*
X115230506Y-87075077D01*
X115234711Y-87072267D01*
X115234715Y-87072265D01*
X115295759Y-87031475D01*
X115353416Y-86992951D01*
X115457951Y-86888416D01*
X115540084Y-86765495D01*
X115596658Y-86628913D01*
X115625500Y-86483918D01*
X115625500Y-86336082D01*
X115625500Y-86336079D01*
X115596659Y-86191092D01*
X115596658Y-86191091D01*
X115596658Y-86191087D01*
X115587716Y-86169499D01*
X115540087Y-86054511D01*
X115540080Y-86054498D01*
X115457951Y-85931584D01*
X115457948Y-85931580D01*
X115353419Y-85827051D01*
X115353413Y-85827046D01*
X115305608Y-85795103D01*
X115260803Y-85741490D01*
X115250500Y-85692002D01*
X115250500Y-82237061D01*
X115270185Y-82170022D01*
X115312500Y-82129674D01*
X115318183Y-82126392D01*
X115318186Y-82126392D01*
X115432314Y-82060500D01*
X115525500Y-81967314D01*
X115591392Y-81853186D01*
X115625500Y-81725892D01*
X115625500Y-81594108D01*
X115591392Y-81466814D01*
X115525500Y-81352686D01*
X115432314Y-81259500D01*
X115375250Y-81226554D01*
X115318187Y-81193608D01*
X115254539Y-81176554D01*
X115190892Y-81159500D01*
X115059108Y-81159500D01*
X114931812Y-81193608D01*
X114817686Y-81259500D01*
X114817683Y-81259502D01*
X114724502Y-81352683D01*
X114724500Y-81352686D01*
X114658608Y-81466812D01*
X114622397Y-81601958D01*
X114620893Y-81601555D01*
X114596355Y-81657002D01*
X114589377Y-81664585D01*
X114574526Y-81679435D01*
X114525091Y-81765059D01*
X114525091Y-81765060D01*
X114525090Y-81765062D01*
X114499500Y-81860565D01*
X114499500Y-81860567D01*
X114499500Y-85692002D01*
X114479815Y-85759041D01*
X114444392Y-85795103D01*
X114396586Y-85827046D01*
X114396580Y-85827051D01*
X114292051Y-85931580D01*
X114292048Y-85931584D01*
X114209919Y-86054498D01*
X114209912Y-86054511D01*
X114153343Y-86191082D01*
X114153340Y-86191092D01*
X114124500Y-86336079D01*
X114124500Y-86336082D01*
X114124500Y-86483918D01*
X114124500Y-86483920D01*
X114124499Y-86483920D01*
X110455500Y-86483920D01*
X110455500Y-85911899D01*
X110475185Y-85844860D01*
X110491819Y-85824218D01*
X110755978Y-85560059D01*
X111120414Y-85195622D01*
X111181735Y-85162139D01*
X111190426Y-85160624D01*
X111190889Y-85160500D01*
X111190892Y-85160500D01*
X111318186Y-85126392D01*
X111432314Y-85060500D01*
X111525500Y-84967314D01*
X111591392Y-84853186D01*
X111625500Y-84725892D01*
X111625500Y-84594108D01*
X111591392Y-84466814D01*
X111525500Y-84352686D01*
X111432314Y-84259500D01*
X111375250Y-84226554D01*
X111318187Y-84193608D01*
X111231945Y-84170500D01*
X111190892Y-84159500D01*
X111059108Y-84159500D01*
X110931812Y-84193608D01*
X110817686Y-84259500D01*
X110817683Y-84259502D01*
X110724502Y-84352683D01*
X110724500Y-84352686D01*
X110658608Y-84466812D01*
X110622397Y-84601958D01*
X110620893Y-84601555D01*
X110596355Y-84657002D01*
X110589375Y-84664587D01*
X109849438Y-85404525D01*
X109779526Y-85474436D01*
X109730091Y-85560059D01*
X109730091Y-85560060D01*
X109730090Y-85560062D01*
X109704500Y-85655565D01*
X109704500Y-85655567D01*
X109704500Y-87408275D01*
X109684815Y-87475314D01*
X109632011Y-87521069D01*
X109562853Y-87531013D01*
X109533048Y-87522836D01*
X109473917Y-87498343D01*
X109473907Y-87498340D01*
X109328920Y-87469500D01*
X109328918Y-87469500D01*
X109181082Y-87469500D01*
X109181080Y-87469500D01*
X109036092Y-87498340D01*
X109036082Y-87498343D01*
X108899511Y-87554912D01*
X108899498Y-87554919D01*
X108776584Y-87637048D01*
X108776580Y-87637051D01*
X108672051Y-87741580D01*
X108672048Y-87741584D01*
X108589919Y-87864498D01*
X108589912Y-87864511D01*
X108533343Y-88001082D01*
X108533340Y-88001092D01*
X108504500Y-88146079D01*
X108504500Y-88146082D01*
X108504500Y-88293918D01*
X108504500Y-88293920D01*
X108504499Y-88293920D01*
X108160964Y-88293920D01*
X108160964Y-85777064D01*
X108180649Y-85710025D01*
X108233453Y-85664270D01*
X108252861Y-85657292D01*
X108368186Y-85626392D01*
X108482314Y-85560500D01*
X108575500Y-85467314D01*
X108641392Y-85353186D01*
X108675500Y-85225892D01*
X108675500Y-85094108D01*
X108641392Y-84966814D01*
X108575500Y-84852686D01*
X108482314Y-84759500D01*
X108424100Y-84725890D01*
X108368187Y-84693608D01*
X108304539Y-84676554D01*
X108240892Y-84659500D01*
X108109108Y-84659500D01*
X107981812Y-84693608D01*
X107867686Y-84759500D01*
X107867683Y-84759502D01*
X107774502Y-84852683D01*
X107774500Y-84852686D01*
X107708608Y-84966812D01*
X107708473Y-84967316D01*
X107683506Y-85060499D01*
X107672397Y-85101958D01*
X107670893Y-85101555D01*
X107665383Y-85114003D01*
X107660527Y-85136332D01*
X107648236Y-85152750D01*
X107646355Y-85157002D01*
X107639376Y-85164587D01*
X107554902Y-85249061D01*
X107554901Y-85249061D01*
X107554900Y-85249062D01*
X107484990Y-85318972D01*
X107435555Y-85404595D01*
X107435555Y-85404596D01*
X107435554Y-85404598D01*
X107409964Y-85500101D01*
X107409964Y-85500103D01*
X107409964Y-90902549D01*
X107390279Y-90969588D01*
X107385206Y-90976802D01*
X107319072Y-91091348D01*
X107295452Y-91179502D01*
X107284964Y-91218644D01*
X106566458Y-91218644D01*
X106527314Y-91179500D01*
X106467875Y-91145183D01*
X106413187Y-91113608D01*
X106330117Y-91091350D01*
X106285892Y-91079500D01*
X106154108Y-91079500D01*
X106026812Y-91113608D01*
X105912686Y-91179500D01*
X105912683Y-91179502D01*
X105819502Y-91272683D01*
X105819500Y-91272686D01*
X105753608Y-91386812D01*
X105719500Y-91514108D01*
X105275500Y-91514108D01*
X105275500Y-91109772D01*
X105295185Y-91042733D01*
X105347989Y-90996978D01*
X105367399Y-90990000D01*
X105418186Y-90976392D01*
X105532314Y-90910500D01*
X105625500Y-90817314D01*
X105691392Y-90703186D01*
X105725500Y-90575892D01*
X105725500Y-90444108D01*
X105691392Y-90316814D01*
X105625500Y-90202686D01*
X105532314Y-90109500D01*
X105433910Y-90052686D01*
X105418187Y-90043608D01*
X105354539Y-90026554D01*
X105290892Y-90009500D01*
X105159108Y-90009500D01*
X105031812Y-90043608D01*
X104917686Y-90109500D01*
X104917683Y-90109502D01*
X104824502Y-90202683D01*
X104824500Y-90202686D01*
X104758608Y-90316812D01*
X104757620Y-90320500D01*
X104729382Y-90425890D01*
X104722397Y-90451958D01*
X104720893Y-90451555D01*
X104715384Y-90464002D01*
X104710528Y-90486330D01*
X104698237Y-90502748D01*
X104696355Y-90507002D01*
X104689377Y-90514585D01*
X104669440Y-90534523D01*
X104669438Y-90534525D01*
X104599527Y-90604435D01*
X104550090Y-90690061D01*
X104545649Y-90706635D01*
X104524916Y-90784013D01*
X104524912Y-90784029D01*
X104524500Y-90785565D01*
X104524500Y-93278013D01*
X104504815Y-93345052D01*
X104499742Y-93352266D01*
X104433608Y-93466812D01*
X104399500Y-93594108D01*
X91500500Y-93594108D01*
X91500500Y-92594108D01*
X97374500Y-92594108D01*
X97374500Y-92725892D01*
X97383505Y-92759500D01*
X97408608Y-92853187D01*
X97441554Y-92910250D01*
X97474500Y-92967314D01*
X97567686Y-93060500D01*
X97681814Y-93126392D01*
X97809108Y-93160500D01*
X97809110Y-93160500D01*
X97940890Y-93160500D01*
X97940892Y-93160500D01*
X98068186Y-93126392D01*
X98182314Y-93060500D01*
X98275500Y-92967314D01*
X98341392Y-92853186D01*
X98375500Y-92725892D01*
X98375500Y-92594108D01*
X98341392Y-92466814D01*
X98336617Y-92458543D01*
X99014499Y-92458543D01*
X99052947Y-92651829D01*
X99052950Y-92651839D01*
X99128364Y-92833907D01*
X99128371Y-92833920D01*
X99237860Y-92997781D01*
X99237863Y-92997785D01*
X99377214Y-93137136D01*
X99377218Y-93137139D01*
X99541079Y-93246628D01*
X99541092Y-93246635D01*
X99641752Y-93288329D01*
X99723165Y-93322051D01*
X99723169Y-93322051D01*
X99723170Y-93322052D01*
X99916456Y-93360500D01*
X99916459Y-93360500D01*
X101113543Y-93360500D01*
X101278506Y-93327686D01*
X101306835Y-93322051D01*
X101488914Y-93246632D01*
X101652782Y-93137139D01*
X101792139Y-92997782D01*
X101901632Y-92833914D01*
X101977051Y-92651835D01*
X102010374Y-92484313D01*
X102015500Y-92458543D01*
X102015500Y-92261456D01*
X101977052Y-92068170D01*
X101977051Y-92068169D01*
X101977051Y-92068165D01*
X101972614Y-92057452D01*
X101901635Y-91886092D01*
X101901628Y-91886079D01*
X101792139Y-91722218D01*
X101792136Y-91722214D01*
X101652785Y-91582863D01*
X101652781Y-91582860D01*
X101488920Y-91473371D01*
X101488907Y-91473364D01*
X101306839Y-91397950D01*
X101306829Y-91397947D01*
X101113543Y-91359500D01*
X101113541Y-91359500D01*
X99916459Y-91359500D01*
X99916457Y-91359500D01*
X99723170Y-91397947D01*
X99723160Y-91397950D01*
X99541092Y-91473364D01*
X99541079Y-91473371D01*
X99377218Y-91582860D01*
X99377214Y-91582863D01*
X99237863Y-91722214D01*
X99237860Y-91722218D01*
X99128371Y-91886079D01*
X99128364Y-91886092D01*
X99052950Y-92068160D01*
X99052947Y-92068170D01*
X99014500Y-92261456D01*
X99014500Y-92261459D01*
X99014500Y-92458541D01*
X99014500Y-92458543D01*
X99014499Y-92458543D01*
X98336617Y-92458543D01*
X98275500Y-92352686D01*
X98182314Y-92259500D01*
X98098499Y-92211109D01*
X98068187Y-92193608D01*
X97990021Y-92172664D01*
X97940892Y-92159500D01*
X97809108Y-92159500D01*
X97681812Y-92193608D01*
X97567686Y-92259500D01*
X97567683Y-92259502D01*
X97474502Y-92352683D01*
X97474500Y-92352686D01*
X97408608Y-92466812D01*
X97374500Y-92594108D01*
X91500500Y-92594108D01*
X91500500Y-89754108D01*
X97124500Y-89754108D01*
X97124500Y-89885892D01*
X97133248Y-89918541D01*
X97158608Y-90013187D01*
X97181413Y-90052686D01*
X97224500Y-90127314D01*
X97317686Y-90220500D01*
X97431814Y-90286392D01*
X97559108Y-90320500D01*
X97559110Y-90320500D01*
X97690890Y-90320500D01*
X97690892Y-90320500D01*
X97818186Y-90286392D01*
X97932314Y-90220500D01*
X98025500Y-90127314D01*
X98091392Y-90013186D01*
X98116751Y-89918543D01*
X99014499Y-89918543D01*
X99052947Y-90111829D01*
X99052950Y-90111839D01*
X99128364Y-90293907D01*
X99128371Y-90293920D01*
X99237860Y-90457781D01*
X99237863Y-90457785D01*
X99377214Y-90597136D01*
X99377218Y-90597139D01*
X99541079Y-90706628D01*
X99541092Y-90706635D01*
X99715478Y-90778867D01*
X99723165Y-90782051D01*
X99723169Y-90782051D01*
X99723170Y-90782052D01*
X99916456Y-90820500D01*
X99916459Y-90820500D01*
X101113543Y-90820500D01*
X101243582Y-90794632D01*
X101306835Y-90782051D01*
X101488914Y-90706632D01*
X101652782Y-90597139D01*
X101792139Y-90457782D01*
X101901632Y-90293914D01*
X101977051Y-90111835D01*
X101997407Y-90009500D01*
X102015500Y-89918543D01*
X102015500Y-89721456D01*
X101977052Y-89528170D01*
X101977051Y-89528169D01*
X101977051Y-89528165D01*
X101972614Y-89517452D01*
X101901635Y-89346092D01*
X101901628Y-89346079D01*
X101792139Y-89182218D01*
X101792136Y-89182214D01*
X101652785Y-89042863D01*
X101652781Y-89042860D01*
X101488920Y-88933371D01*
X101488907Y-88933364D01*
X101306839Y-88857950D01*
X101306829Y-88857947D01*
X101113543Y-88819500D01*
X101113541Y-88819500D01*
X99916459Y-88819500D01*
X99916457Y-88819500D01*
X99723170Y-88857947D01*
X99723160Y-88857950D01*
X99541092Y-88933364D01*
X99541079Y-88933371D01*
X99377218Y-89042860D01*
X99377214Y-89042863D01*
X99237863Y-89182214D01*
X99237860Y-89182218D01*
X99128371Y-89346079D01*
X99128364Y-89346092D01*
X99052950Y-89528160D01*
X99052947Y-89528170D01*
X99014500Y-89721456D01*
X99014500Y-89721459D01*
X99014500Y-89918541D01*
X99014500Y-89918543D01*
X99014499Y-89918543D01*
X98116751Y-89918543D01*
X98125500Y-89885892D01*
X98125500Y-89754108D01*
X98091392Y-89626814D01*
X98025500Y-89512686D01*
X97932314Y-89419500D01*
X97834963Y-89363294D01*
X97818187Y-89353608D01*
X97754539Y-89336554D01*
X97690892Y-89319500D01*
X97559108Y-89319500D01*
X97431812Y-89353608D01*
X97317686Y-89419500D01*
X97317683Y-89419502D01*
X97224502Y-89512683D01*
X97224500Y-89512686D01*
X97158608Y-89626812D01*
X97124500Y-89754108D01*
X91500500Y-89754108D01*
X91500500Y-87494108D01*
X97074500Y-87494108D01*
X97074500Y-87625892D01*
X97077490Y-87637051D01*
X97108608Y-87753187D01*
X97141554Y-87810250D01*
X97174500Y-87867314D01*
X97267686Y-87960500D01*
X97381814Y-88026392D01*
X97509108Y-88060500D01*
X97509110Y-88060500D01*
X97640890Y-88060500D01*
X97640892Y-88060500D01*
X97768186Y-88026392D01*
X97882314Y-87960500D01*
X97975500Y-87867314D01*
X98041392Y-87753186D01*
X98075500Y-87625892D01*
X98075500Y-87494108D01*
X98041392Y-87366814D01*
X97975500Y-87252686D01*
X97882314Y-87159500D01*
X97825250Y-87126554D01*
X97768187Y-87093608D01*
X97699027Y-87075077D01*
X97640892Y-87059500D01*
X97509108Y-87059500D01*
X97381812Y-87093608D01*
X97267686Y-87159500D01*
X97267683Y-87159502D01*
X97174502Y-87252683D01*
X97174500Y-87252686D01*
X97108608Y-87366812D01*
X97081094Y-87469500D01*
X97074500Y-87494108D01*
X91500500Y-87494108D01*
X91500500Y-84490000D01*
X98738391Y-84490000D01*
X99781988Y-84490000D01*
X99749075Y-84547007D01*
X99715000Y-84674174D01*
X99715000Y-84805826D01*
X99749075Y-84932993D01*
X99781988Y-84990000D01*
X98738391Y-84990000D01*
X98747009Y-85044413D01*
X98810244Y-85239029D01*
X98903140Y-85421349D01*
X99023417Y-85586894D01*
X99023417Y-85586895D01*
X99168104Y-85731582D01*
X99333650Y-85851859D01*
X99515968Y-85944755D01*
X99710582Y-86007990D01*
X99899268Y-86037875D01*
X99962403Y-86067804D01*
X99999334Y-86127116D01*
X99998336Y-86196978D01*
X99959726Y-86255211D01*
X99904062Y-86281965D01*
X99723170Y-86317947D01*
X99723160Y-86317950D01*
X99541092Y-86393364D01*
X99541079Y-86393371D01*
X99377218Y-86502860D01*
X99377214Y-86502863D01*
X99237863Y-86642214D01*
X99237860Y-86642218D01*
X99128371Y-86806079D01*
X99128364Y-86806092D01*
X99052950Y-86988160D01*
X99052947Y-86988170D01*
X99014500Y-87181456D01*
X99014500Y-87181459D01*
X99014500Y-87378541D01*
X99014500Y-87378543D01*
X99014499Y-87378543D01*
X99052947Y-87571829D01*
X99052950Y-87571839D01*
X99128364Y-87753907D01*
X99128371Y-87753920D01*
X99237860Y-87917781D01*
X99237863Y-87917785D01*
X99377214Y-88057136D01*
X99377218Y-88057139D01*
X99541079Y-88166628D01*
X99541092Y-88166635D01*
X99723160Y-88242049D01*
X99723165Y-88242051D01*
X99723169Y-88242051D01*
X99723170Y-88242052D01*
X99916456Y-88280500D01*
X99916459Y-88280500D01*
X101113543Y-88280500D01*
X101243582Y-88254632D01*
X101306835Y-88242051D01*
X101488914Y-88166632D01*
X101652782Y-88057139D01*
X101792139Y-87917782D01*
X101901632Y-87753914D01*
X101977051Y-87571835D01*
X101992512Y-87494108D01*
X102015500Y-87378543D01*
X102015500Y-87369108D01*
X103374500Y-87369108D01*
X103374500Y-87500892D01*
X103388976Y-87554916D01*
X103408608Y-87628187D01*
X103413724Y-87637048D01*
X103474500Y-87742314D01*
X103567686Y-87835500D01*
X103681814Y-87901392D01*
X103809108Y-87935500D01*
X103809110Y-87935500D01*
X103940890Y-87935500D01*
X103940892Y-87935500D01*
X104068186Y-87901392D01*
X104182314Y-87835500D01*
X104275500Y-87742314D01*
X104341392Y-87628186D01*
X104375500Y-87500892D01*
X104375500Y-87369108D01*
X104341392Y-87241814D01*
X104275500Y-87127686D01*
X104182314Y-87034500D01*
X104110344Y-86992948D01*
X104068187Y-86968608D01*
X104004539Y-86951554D01*
X103940892Y-86934500D01*
X103809108Y-86934500D01*
X103681812Y-86968608D01*
X103567686Y-87034500D01*
X103567683Y-87034502D01*
X103474502Y-87127683D01*
X103474500Y-87127686D01*
X103408608Y-87241812D01*
X103396464Y-87287135D01*
X103374500Y-87369108D01*
X102015500Y-87369108D01*
X102015500Y-87181456D01*
X101977052Y-86988170D01*
X101977051Y-86988169D01*
X101977051Y-86988165D01*
X101968950Y-86968608D01*
X101901635Y-86806092D01*
X101901628Y-86806079D01*
X101792139Y-86642218D01*
X101792136Y-86642214D01*
X101652785Y-86502863D01*
X101652781Y-86502860D01*
X101488920Y-86393371D01*
X101488907Y-86393364D01*
X101306839Y-86317950D01*
X101306829Y-86317947D01*
X101125937Y-86281965D01*
X101064026Y-86249580D01*
X101029452Y-86188864D01*
X101033192Y-86119095D01*
X101074059Y-86062423D01*
X101130731Y-86037875D01*
X101319417Y-86007990D01*
X101514031Y-85944755D01*
X101696349Y-85851859D01*
X101861894Y-85731582D01*
X101861895Y-85731582D01*
X102006582Y-85586895D01*
X102006582Y-85586894D01*
X102126859Y-85421349D01*
X102219755Y-85239029D01*
X102282990Y-85044413D01*
X102291609Y-84990000D01*
X100648012Y-84990000D01*
X100680925Y-84932993D01*
X100715000Y-84805826D01*
X100715000Y-84674174D01*
X100680925Y-84547007D01*
X100648012Y-84490000D01*
X102291609Y-84490000D01*
X102282990Y-84435586D01*
X102219755Y-84240970D01*
X102126859Y-84058650D01*
X102006582Y-83893105D01*
X102006582Y-83893104D01*
X101861895Y-83748417D01*
X101696349Y-83628140D01*
X101514031Y-83535244D01*
X101319417Y-83472009D01*
X101130731Y-83442124D01*
X101067596Y-83412194D01*
X101030665Y-83352883D01*
X101031663Y-83283020D01*
X101070273Y-83224788D01*
X101125938Y-83198034D01*
X101306835Y-83162051D01*
X101488914Y-83086632D01*
X101652782Y-82977139D01*
X101792139Y-82837782D01*
X101901632Y-82673914D01*
X101977051Y-82491835D01*
X102015500Y-82298541D01*
X102015500Y-82101459D01*
X102015500Y-82101456D01*
X101977052Y-81908170D01*
X101977051Y-81908169D01*
X101977051Y-81908165D01*
X101972614Y-81897452D01*
X101901635Y-81726092D01*
X101901628Y-81726079D01*
X101792139Y-81562218D01*
X101792136Y-81562214D01*
X101652785Y-81422863D01*
X101652781Y-81422860D01*
X101488920Y-81313371D01*
X101488907Y-81313364D01*
X101306839Y-81237950D01*
X101306829Y-81237947D01*
X101113543Y-81199500D01*
X101113541Y-81199500D01*
X99916459Y-81199500D01*
X99916457Y-81199500D01*
X99723170Y-81237947D01*
X99723160Y-81237950D01*
X99541092Y-81313364D01*
X99541079Y-81313371D01*
X99377218Y-81422860D01*
X99377214Y-81422863D01*
X99237863Y-81562214D01*
X99237860Y-81562218D01*
X99128371Y-81726079D01*
X99128364Y-81726092D01*
X99052950Y-81908160D01*
X99052947Y-81908170D01*
X99014500Y-82101456D01*
X99014500Y-82101459D01*
X99014500Y-82298541D01*
X99014500Y-82298543D01*
X99014499Y-82298543D01*
X99052947Y-82491829D01*
X99052950Y-82491839D01*
X99128364Y-82673907D01*
X99128371Y-82673920D01*
X99237860Y-82837781D01*
X99237863Y-82837785D01*
X99377214Y-82977136D01*
X99377218Y-82977139D01*
X99541079Y-83086628D01*
X99541092Y-83086635D01*
X99723160Y-83162049D01*
X99723165Y-83162051D01*
X99855674Y-83188409D01*
X99904061Y-83198034D01*
X99965972Y-83230419D01*
X100000546Y-83291134D01*
X99996807Y-83360904D01*
X99955940Y-83417576D01*
X99899269Y-83442124D01*
X99710581Y-83472010D01*
X99515968Y-83535244D01*
X99333650Y-83628140D01*
X99168105Y-83748417D01*
X99168104Y-83748417D01*
X99023417Y-83893104D01*
X99023417Y-83893105D01*
X98903140Y-84058650D01*
X98810244Y-84240970D01*
X98747009Y-84435586D01*
X98738391Y-84490000D01*
X91500500Y-84490000D01*
X91500500Y-79758543D01*
X99014499Y-79758543D01*
X99052947Y-79951829D01*
X99052950Y-79951839D01*
X99128364Y-80133907D01*
X99128371Y-80133920D01*
X99237860Y-80297781D01*
X99237863Y-80297785D01*
X99377214Y-80437136D01*
X99377218Y-80437139D01*
X99541079Y-80546628D01*
X99541092Y-80546635D01*
X99723160Y-80622049D01*
X99723165Y-80622051D01*
X99723169Y-80622051D01*
X99723170Y-80622052D01*
X99916456Y-80660500D01*
X99916459Y-80660500D01*
X101113543Y-80660500D01*
X101243582Y-80634632D01*
X101306835Y-80622051D01*
X101488914Y-80546632D01*
X101652782Y-80437139D01*
X101792139Y-80297782D01*
X101897398Y-80140251D01*
X101951010Y-80095446D01*
X102020335Y-80086739D01*
X102083362Y-80116893D01*
X102120082Y-80176336D01*
X102124500Y-80209142D01*
X102124500Y-80225891D01*
X102158608Y-80353187D01*
X102191554Y-80410250D01*
X102224500Y-80467314D01*
X102317686Y-80560500D01*
X102431814Y-80626392D01*
X102559108Y-80660500D01*
X102559110Y-80660500D01*
X102690890Y-80660500D01*
X102690892Y-80660500D01*
X102818186Y-80626392D01*
X102932314Y-80560500D01*
X103025500Y-80467314D01*
X103091392Y-80353186D01*
X103125500Y-80225892D01*
X103125500Y-80094108D01*
X103091392Y-79966814D01*
X103025500Y-79852686D01*
X102932314Y-79759500D01*
X102875250Y-79726554D01*
X102818187Y-79693608D01*
X102754539Y-79676554D01*
X102690892Y-79659500D01*
X102559108Y-79659500D01*
X102431812Y-79693608D01*
X102317686Y-79759500D01*
X102317683Y-79759502D01*
X102227181Y-79850005D01*
X102165858Y-79883490D01*
X102096166Y-79878506D01*
X102040233Y-79836634D01*
X102015816Y-79771170D01*
X102015500Y-79762324D01*
X102015500Y-79561456D01*
X101977052Y-79368170D01*
X101977051Y-79368169D01*
X101977051Y-79368165D01*
X101977049Y-79368160D01*
X101901635Y-79186092D01*
X101901628Y-79186079D01*
X101792139Y-79022218D01*
X101792136Y-79022214D01*
X101652785Y-78882863D01*
X101652781Y-78882860D01*
X101488920Y-78773371D01*
X101488907Y-78773364D01*
X101306839Y-78697950D01*
X101306829Y-78697947D01*
X101113543Y-78659500D01*
X101113541Y-78659500D01*
X99916459Y-78659500D01*
X99916457Y-78659500D01*
X99723170Y-78697947D01*
X99723160Y-78697950D01*
X99541092Y-78773364D01*
X99541079Y-78773371D01*
X99377218Y-78882860D01*
X99377214Y-78882863D01*
X99237863Y-79022214D01*
X99237860Y-79022218D01*
X99128371Y-79186079D01*
X99128364Y-79186092D01*
X99052950Y-79368160D01*
X99052947Y-79368170D01*
X99014500Y-79561456D01*
X99014500Y-79561459D01*
X99014500Y-79758541D01*
X99014500Y-79758543D01*
X99014499Y-79758543D01*
X91500500Y-79758543D01*
X91500500Y-78394108D01*
X97074500Y-78394108D01*
X97074500Y-78525891D01*
X97108608Y-78653187D01*
X97141554Y-78710250D01*
X97174500Y-78767314D01*
X97267686Y-78860500D01*
X97381814Y-78926392D01*
X97509108Y-78960500D01*
X97509110Y-78960500D01*
X97640890Y-78960500D01*
X97640892Y-78960500D01*
X97768186Y-78926392D01*
X97882314Y-78860500D01*
X97975500Y-78767314D01*
X98041392Y-78653186D01*
X98075500Y-78525892D01*
X98075500Y-78394108D01*
X98041392Y-78266814D01*
X97975500Y-78152686D01*
X97882314Y-78059500D01*
X97825250Y-78026554D01*
X97768187Y-77993608D01*
X97704539Y-77976554D01*
X97640892Y-77959500D01*
X97509108Y-77959500D01*
X97381812Y-77993608D01*
X97267686Y-78059500D01*
X97267683Y-78059502D01*
X97174502Y-78152683D01*
X97174500Y-78152686D01*
X97108608Y-78266812D01*
X97074500Y-78394108D01*
X91500500Y-78394108D01*
X91500500Y-76515730D01*
X99014500Y-76515730D01*
X99014500Y-77724269D01*
X99017353Y-77754699D01*
X99017353Y-77754701D01*
X99062206Y-77882880D01*
X99062207Y-77882882D01*
X99142850Y-77992150D01*
X99252118Y-78072793D01*
X99294845Y-78087744D01*
X99380299Y-78117646D01*
X99410730Y-78120500D01*
X99410734Y-78120500D01*
X101619270Y-78120500D01*
X101649699Y-78117646D01*
X101649701Y-78117646D01*
X101713790Y-78095219D01*
X101777882Y-78072793D01*
X101887150Y-77992150D01*
X101967793Y-77882882D01*
X101990219Y-77818790D01*
X102012646Y-77754701D01*
X102012646Y-77754699D01*
X102015500Y-77724269D01*
X102015500Y-76515730D01*
X102012646Y-76485300D01*
X102012646Y-76485298D01*
X101967793Y-76357119D01*
X101967792Y-76357117D01*
X101887150Y-76247850D01*
X101777882Y-76167207D01*
X101777880Y-76167206D01*
X101649700Y-76122353D01*
X101619270Y-76119500D01*
X101619266Y-76119500D01*
X99410734Y-76119500D01*
X99410730Y-76119500D01*
X99380300Y-76122353D01*
X99380298Y-76122353D01*
X99252119Y-76167206D01*
X99252117Y-76167207D01*
X99142850Y-76247850D01*
X99062207Y-76357117D01*
X99062206Y-76357119D01*
X99017353Y-76485298D01*
X99017353Y-76485300D01*
X99014500Y-76515730D01*
X91500500Y-76515730D01*
X91500500Y-75344108D01*
X97124500Y-75344108D01*
X97124500Y-75475891D01*
X97158608Y-75603187D01*
X97191554Y-75660250D01*
X97224500Y-75717314D01*
X97317686Y-75810500D01*
X97431814Y-75876392D01*
X97559108Y-75910500D01*
X97559110Y-75910500D01*
X97690890Y-75910500D01*
X97690892Y-75910500D01*
X97818186Y-75876392D01*
X97932314Y-75810500D01*
X98025500Y-75717314D01*
X98091392Y-75603186D01*
X98125500Y-75475892D01*
X98125500Y-75344108D01*
X98091392Y-75216814D01*
X98025500Y-75102686D01*
X97932314Y-75009500D01*
X97875250Y-74976554D01*
X97818187Y-74943608D01*
X97754539Y-74926554D01*
X97690892Y-74909500D01*
X97559108Y-74909500D01*
X97431812Y-74943608D01*
X97317686Y-75009500D01*
X97317683Y-75009502D01*
X97224502Y-75102683D01*
X97224500Y-75102686D01*
X97158608Y-75216812D01*
X97124500Y-75344108D01*
X91500500Y-75344108D01*
X91500500Y-73733920D01*
X98124499Y-73733920D01*
X98153340Y-73878907D01*
X98153343Y-73878917D01*
X98209912Y-74015488D01*
X98209919Y-74015501D01*
X98292048Y-74138415D01*
X98292051Y-74138419D01*
X98396580Y-74242948D01*
X98396584Y-74242951D01*
X98519498Y-74325080D01*
X98519511Y-74325087D01*
X98656082Y-74381656D01*
X98656087Y-74381658D01*
X98656091Y-74381658D01*
X98656092Y-74381659D01*
X98801079Y-74410500D01*
X98801082Y-74410500D01*
X98948920Y-74410500D01*
X99046462Y-74391096D01*
X99093913Y-74381658D01*
X99230495Y-74325084D01*
X99353416Y-74242951D01*
X99457951Y-74138416D01*
X99540084Y-74015495D01*
X99596658Y-73878913D01*
X99625500Y-73733918D01*
X99625500Y-73586082D01*
X99625500Y-73586079D01*
X99596659Y-73441092D01*
X99596658Y-73441091D01*
X99596658Y-73441087D01*
X99596656Y-73441082D01*
X99540087Y-73304511D01*
X99540080Y-73304498D01*
X99457951Y-73181584D01*
X99457948Y-73181580D01*
X99353419Y-73077051D01*
X99353415Y-73077048D01*
X99230501Y-72994919D01*
X99230488Y-72994912D01*
X99093917Y-72938343D01*
X99093907Y-72938340D01*
X98948920Y-72909500D01*
X98948918Y-72909500D01*
X98801082Y-72909500D01*
X98801080Y-72909500D01*
X98656092Y-72938340D01*
X98656082Y-72938343D01*
X98519511Y-72994912D01*
X98519498Y-72994919D01*
X98396584Y-73077048D01*
X98396580Y-73077051D01*
X98292051Y-73181580D01*
X98292048Y-73181584D01*
X98209919Y-73304498D01*
X98209912Y-73304511D01*
X98153343Y-73441082D01*
X98153340Y-73441092D01*
X98124500Y-73586079D01*
X98124500Y-73586082D01*
X98124500Y-73733918D01*
X98124500Y-73733920D01*
X98124499Y-73733920D01*
X91500500Y-73733920D01*
X91500500Y-71304500D01*
X91520185Y-71237461D01*
X91572989Y-71191706D01*
X91624500Y-71180500D01*
X92294676Y-71180500D01*
X92294677Y-71180499D01*
X92367740Y-71165966D01*
X92450601Y-71110601D01*
X92505966Y-71027740D01*
X92520500Y-70954674D01*
X92520500Y-70929499D01*
X92540185Y-70862460D01*
X92592989Y-70816705D01*
X92644500Y-70805499D01*
X93122871Y-70805499D01*
X93122872Y-70805499D01*
X93182483Y-70799091D01*
X93317331Y-70748796D01*
X93432546Y-70662546D01*
X93518796Y-70547331D01*
X93569091Y-70412483D01*
X93575500Y-70352873D01*
X93575499Y-69507128D01*
X93569091Y-69447517D01*
X93565186Y-69437048D01*
X93524452Y-69327833D01*
X93519468Y-69258141D01*
X93552953Y-69196818D01*
X93614276Y-69163334D01*
X93640634Y-69160500D01*
X107306695Y-69160500D01*
X107373734Y-69180185D01*
G37*
G04 #@! TD.AperFunction*
M02*
