M48
; DRILL file {KiCad 9.0.1+1} date 2025-11-11T08:29:19+0000
; FORMAT={-:-/ absolute / inch / decimal}
; #@! TF.CreationDate,2025-11-11T08:29:19+00:00
; #@! TF.GenerationSoftware,Kicad,Pcbnew,9.0.1+1
; #@! TF.FileFunction,Plated,1,2,PTH
FMAT,2
INCH
; #@! TA.AperFunction,Plated,PTH,ComponentDrill
T1C0.0079
; #@! TA.AperFunction,Plated,PTH,ViaDrill
T2C0.0118
; #@! TA.AperFunction,Plated,PTH,ComponentDrill
T3C0.0295
; #@! TA.AperFunction,Plated,PTH,ComponentDrill
T4C0.0591
%
G90
G05
T1
X3.2216Y-2.5429
X3.2797Y-2.4848
X3.2797Y-2.5429
X3.2797Y-2.601
X3.3377Y-2.5429
T2
X2.9356Y-2.3128
X2.9383Y-2.0132
X2.9403Y-2.5147
X2.9411Y-2.1128
X2.9411Y-2.4124
X2.945Y-2.2136
X2.9525Y-2.6124
X2.9568Y-2.812
X2.9572Y-2.7108
X2.9651Y-2.9108
X3.0045Y-2.3171
X3.0116Y-2.8466
X3.0356Y-2.3769
X3.0438Y-2.1435
X3.0608Y-2.2537
X3.0742Y-2.4962
X3.0923Y-2.6962
X3.0927Y-2.8167
X3.1212Y-2.5448
X3.1257Y-2.4966
X3.1547Y-2.9159
X3.1742Y-2.3722
X3.1763Y-2.6315
X3.2135Y-2.6994
X3.2155Y-2.8214
X3.2222Y-2.6691
X3.2698Y-2.6669
X3.2809Y-2.1019
X3.2911Y-2.2982
X3.2925Y-2.8801
X3.3335Y-2.6948
X3.3379Y-2.8498
X3.362Y-2.1758
X3.3667Y-2.4332
X3.3761Y-2.6354
X3.3797Y-2.7273
X3.3909Y-2.6632
X3.3934Y-2.1275
X3.3974Y-2.3517
X3.3978Y-2.0498
X3.4047Y-2.535
X3.4049Y-2.2325
X3.4297Y-2.8234
X3.4377Y-2.2214
X3.445Y-2.535
X3.446Y-2.4159
X3.4497Y-2.088
X3.4934Y-2.971
X3.5001Y-2.1911
X3.5017Y-2.0364
X3.5029Y-2.1399
X3.5037Y-1.9947
X3.5108Y-2.6049
X3.5129Y-2.662
X3.5234Y-2.2336
X3.5265Y-2.351
X3.5462Y-2.971
X3.5482Y-2.2136
X3.61Y-2.0364
X3.61Y-2.1045
X3.61Y-2.3151
X3.61Y-2.5139
X3.6151Y-2.9171
X3.632Y-2.212
X3.632Y-2.4116
X3.6352Y-2.6104
X3.636Y-2.7143
X3.6383Y-2.8128
T3
X2.9289Y-1.9632
X2.9289Y-2.0632
X2.9289Y-2.1632
X2.9289Y-2.2632
X2.9289Y-2.3632
X2.9289Y-2.4632
X2.9289Y-2.5632
X2.9289Y-2.6632
X2.9289Y-2.7632
X2.9289Y-2.8632
X2.9289Y-2.9632
X3.6612Y-1.9632
X3.6612Y-2.1632
X3.6612Y-2.2632
X3.6612Y-2.3632
X3.6612Y-2.4632
X3.6612Y-2.5632
X3.6612Y-2.6632
X3.6612Y-2.7632
X3.6612Y-2.8632
X3.6612Y-2.9632
T4
G00X2.8718Y-1.9632
M15
G01X2.8521Y-1.9632
M16
G05
G00X2.8718Y-2.0632
M15
G01X2.8521Y-2.0632
M16
G05
G00X2.8718Y-2.1632
M15
G01X2.8521Y-2.1632
M16
G05
G00X2.8718Y-2.2632
M15
G01X2.8521Y-2.2632
M16
G05
G00X2.8718Y-2.3632
M15
G01X2.8521Y-2.3632
M16
G05
G00X2.8718Y-2.4632
M15
G01X2.8521Y-2.4632
M16
G05
G00X2.8718Y-2.5632
M15
G01X2.8521Y-2.5632
M16
G05
G00X2.8718Y-2.6632
M15
G01X2.8521Y-2.6632
M16
G05
G00X2.8718Y-2.7632
M15
G01X2.8521Y-2.7632
M16
G05
G00X2.8718Y-2.8632
M15
G01X2.8521Y-2.8632
M16
G05
G00X2.8718Y-2.9632
M15
G01X2.8521Y-2.9632
M16
G05
G00X3.7379Y-1.9632
M15
G01X3.7183Y-1.9632
M16
G05
G00X3.7379Y-2.1632
M15
G01X3.7183Y-2.1632
M16
G05
G00X3.7379Y-2.2632
M15
G01X3.7183Y-2.2632
M16
G05
G00X3.7379Y-2.3632
M15
G01X3.7183Y-2.3632
M16
G05
G00X3.7379Y-2.4632
M15
G01X3.7183Y-2.4632
M16
G05
G00X3.7379Y-2.5632
M15
G01X3.7183Y-2.5632
M16
G05
G00X3.7379Y-2.6632
M15
G01X3.7183Y-2.6632
M16
G05
G00X3.7379Y-2.7632
M15
G01X3.7183Y-2.7632
M16
G05
G00X3.7379Y-2.8632
M15
G01X3.7183Y-2.8632
M16
G05
G00X3.7379Y-2.9632
M15
G01X3.7183Y-2.9632
M16
G05
M30
