G04 #@! TF.GenerationSoftware,KiCad,Pcbnew,9.0.1+1*
G04 #@! TF.CreationDate,2025-11-12T15:11:53+00:00*
G04 #@! TF.ProjectId,audio-codec,61756469-6f2d-4636-9f64-65632e6b6963,rev?*
G04 #@! TF.SameCoordinates,Original*
G04 #@! TF.FileFunction,Soldermask,Bot*
G04 #@! TF.FilePolarity,Negative*
%FSLAX46Y46*%
G04 Gerber Fmt 4.6, Leading zero omitted, Abs format (unit mm)*
G04 Created by KiCad (PCBNEW 9.0.1+1) date 2025-11-12 15:11:53*
%MOMM*%
%LPD*%
G01*
G04 APERTURE LIST*
%ADD10R,2.540000X2.000000*%
G04 APERTURE END LIST*
D10*
X94693570Y-49864241D03*
G36*
G01*
X92368570Y-50239241D02*
X92368570Y-49489241D01*
G75*
G02*
X92618570Y-49239241I250000J0D01*
G01*
X93368570Y-49239241D01*
G75*
G02*
X93618570Y-49489241I0J-250000D01*
G01*
X93618570Y-50239241D01*
G75*
G02*
X93368570Y-50489241I-250000J0D01*
G01*
X92618570Y-50489241D01*
G75*
G02*
X92368570Y-50239241I0J250000D01*
G01*
G37*
X94693570Y-54944241D03*
G36*
G01*
X92368570Y-55319241D02*
X92368570Y-54569241D01*
G75*
G02*
X92618570Y-54319241I250000J0D01*
G01*
X93368570Y-54319241D01*
G75*
G02*
X93618570Y-54569241I0J-250000D01*
G01*
X93618570Y-55319241D01*
G75*
G02*
X93368570Y-55569241I-250000J0D01*
G01*
X92618570Y-55569241D01*
G75*
G02*
X92368570Y-55319241I0J250000D01*
G01*
G37*
X94693570Y-57484241D03*
G36*
G01*
X92368570Y-57859241D02*
X92368570Y-57109241D01*
G75*
G02*
X92618570Y-56859241I250000J0D01*
G01*
X93368570Y-56859241D01*
G75*
G02*
X93618570Y-57109241I0J-250000D01*
G01*
X93618570Y-57859241D01*
G75*
G02*
X93368570Y-58109241I-250000J0D01*
G01*
X92618570Y-58109241D01*
G75*
G02*
X92368570Y-57859241I0J250000D01*
G01*
G37*
X94693570Y-60024241D03*
G36*
G01*
X92368570Y-60399241D02*
X92368570Y-59649241D01*
G75*
G02*
X92618570Y-59399241I250000J0D01*
G01*
X93368570Y-59399241D01*
G75*
G02*
X93618570Y-59649241I0J-250000D01*
G01*
X93618570Y-60399241D01*
G75*
G02*
X93368570Y-60649241I-250000J0D01*
G01*
X92618570Y-60649241D01*
G75*
G02*
X92368570Y-60399241I0J250000D01*
G01*
G37*
X94693570Y-62564241D03*
G36*
G01*
X92368570Y-62939241D02*
X92368570Y-62189241D01*
G75*
G02*
X92618570Y-61939241I250000J0D01*
G01*
X93368570Y-61939241D01*
G75*
G02*
X93618570Y-62189241I0J-250000D01*
G01*
X93618570Y-62939241D01*
G75*
G02*
X93368570Y-63189241I-250000J0D01*
G01*
X92618570Y-63189241D01*
G75*
G02*
X92368570Y-62939241I0J250000D01*
G01*
G37*
X94693570Y-65104241D03*
G36*
G01*
X92368570Y-65479241D02*
X92368570Y-64729241D01*
G75*
G02*
X92618570Y-64479241I250000J0D01*
G01*
X93368570Y-64479241D01*
G75*
G02*
X93618570Y-64729241I0J-250000D01*
G01*
X93618570Y-65479241D01*
G75*
G02*
X93368570Y-65729241I-250000J0D01*
G01*
X92618570Y-65729241D01*
G75*
G02*
X92368570Y-65479241I0J250000D01*
G01*
G37*
X94693570Y-67644241D03*
G36*
G01*
X92368570Y-68019241D02*
X92368570Y-67269241D01*
G75*
G02*
X92618570Y-67019241I250000J0D01*
G01*
X93368570Y-67019241D01*
G75*
G02*
X93618570Y-67269241I0J-250000D01*
G01*
X93618570Y-68019241D01*
G75*
G02*
X93368570Y-68269241I-250000J0D01*
G01*
X92618570Y-68269241D01*
G75*
G02*
X92368570Y-68019241I0J250000D01*
G01*
G37*
X94693570Y-70184241D03*
G36*
G01*
X92368570Y-70559241D02*
X92368570Y-69809241D01*
G75*
G02*
X92618570Y-69559241I250000J0D01*
G01*
X93368570Y-69559241D01*
G75*
G02*
X93618570Y-69809241I0J-250000D01*
G01*
X93618570Y-70559241D01*
G75*
G02*
X93368570Y-70809241I-250000J0D01*
G01*
X92618570Y-70809241D01*
G75*
G02*
X92368570Y-70559241I0J250000D01*
G01*
G37*
X94693570Y-72724241D03*
G36*
G01*
X92368570Y-73099241D02*
X92368570Y-72349241D01*
G75*
G02*
X92618570Y-72099241I250000J0D01*
G01*
X93368570Y-72099241D01*
G75*
G02*
X93618570Y-72349241I0J-250000D01*
G01*
X93618570Y-73099241D01*
G75*
G02*
X93368570Y-73349241I-250000J0D01*
G01*
X92618570Y-73349241D01*
G75*
G02*
X92368570Y-73099241I0J250000D01*
G01*
G37*
X94693570Y-75264241D03*
G36*
G01*
X92368570Y-75639241D02*
X92368570Y-74889241D01*
G75*
G02*
X92618570Y-74639241I250000J0D01*
G01*
X93368570Y-74639241D01*
G75*
G02*
X93618570Y-74889241I0J-250000D01*
G01*
X93618570Y-75639241D01*
G75*
G02*
X93368570Y-75889241I-250000J0D01*
G01*
X92618570Y-75889241D01*
G75*
G02*
X92368570Y-75639241I0J250000D01*
G01*
G37*
G36*
G01*
X73768570Y-50239241D02*
X73768570Y-49489241D01*
G75*
G02*
X74018570Y-49239241I250000J0D01*
G01*
X74768570Y-49239241D01*
G75*
G02*
X75018570Y-49489241I0J-250000D01*
G01*
X75018570Y-50239241D01*
G75*
G02*
X74768570Y-50489241I-250000J0D01*
G01*
X74018570Y-50489241D01*
G75*
G02*
X73768570Y-50239241I0J250000D01*
G01*
G37*
X72693570Y-49864241D03*
G36*
G01*
X73768570Y-52779241D02*
X73768570Y-52029241D01*
G75*
G02*
X74018570Y-51779241I250000J0D01*
G01*
X74768570Y-51779241D01*
G75*
G02*
X75018570Y-52029241I0J-250000D01*
G01*
X75018570Y-52779241D01*
G75*
G02*
X74768570Y-53029241I-250000J0D01*
G01*
X74018570Y-53029241D01*
G75*
G02*
X73768570Y-52779241I0J250000D01*
G01*
G37*
X72693570Y-52404241D03*
G36*
G01*
X73768570Y-55319241D02*
X73768570Y-54569241D01*
G75*
G02*
X74018570Y-54319241I250000J0D01*
G01*
X74768570Y-54319241D01*
G75*
G02*
X75018570Y-54569241I0J-250000D01*
G01*
X75018570Y-55319241D01*
G75*
G02*
X74768570Y-55569241I-250000J0D01*
G01*
X74018570Y-55569241D01*
G75*
G02*
X73768570Y-55319241I0J250000D01*
G01*
G37*
X72693570Y-54944241D03*
G36*
G01*
X73768570Y-57859241D02*
X73768570Y-57109241D01*
G75*
G02*
X74018570Y-56859241I250000J0D01*
G01*
X74768570Y-56859241D01*
G75*
G02*
X75018570Y-57109241I0J-250000D01*
G01*
X75018570Y-57859241D01*
G75*
G02*
X74768570Y-58109241I-250000J0D01*
G01*
X74018570Y-58109241D01*
G75*
G02*
X73768570Y-57859241I0J250000D01*
G01*
G37*
X72693570Y-57484241D03*
G36*
G01*
X73768570Y-60399241D02*
X73768570Y-59649241D01*
G75*
G02*
X74018570Y-59399241I250000J0D01*
G01*
X74768570Y-59399241D01*
G75*
G02*
X75018570Y-59649241I0J-250000D01*
G01*
X75018570Y-60399241D01*
G75*
G02*
X74768570Y-60649241I-250000J0D01*
G01*
X74018570Y-60649241D01*
G75*
G02*
X73768570Y-60399241I0J250000D01*
G01*
G37*
X72693570Y-60024241D03*
G36*
G01*
X73768570Y-62939241D02*
X73768570Y-62189241D01*
G75*
G02*
X74018570Y-61939241I250000J0D01*
G01*
X74768570Y-61939241D01*
G75*
G02*
X75018570Y-62189241I0J-250000D01*
G01*
X75018570Y-62939241D01*
G75*
G02*
X74768570Y-63189241I-250000J0D01*
G01*
X74018570Y-63189241D01*
G75*
G02*
X73768570Y-62939241I0J250000D01*
G01*
G37*
X72693570Y-62564241D03*
G36*
G01*
X73768570Y-65479241D02*
X73768570Y-64729241D01*
G75*
G02*
X74018570Y-64479241I250000J0D01*
G01*
X74768570Y-64479241D01*
G75*
G02*
X75018570Y-64729241I0J-250000D01*
G01*
X75018570Y-65479241D01*
G75*
G02*
X74768570Y-65729241I-250000J0D01*
G01*
X74018570Y-65729241D01*
G75*
G02*
X73768570Y-65479241I0J250000D01*
G01*
G37*
X72693570Y-65104241D03*
G36*
G01*
X73768570Y-68019241D02*
X73768570Y-67269241D01*
G75*
G02*
X74018570Y-67019241I250000J0D01*
G01*
X74768570Y-67019241D01*
G75*
G02*
X75018570Y-67269241I0J-250000D01*
G01*
X75018570Y-68019241D01*
G75*
G02*
X74768570Y-68269241I-250000J0D01*
G01*
X74018570Y-68269241D01*
G75*
G02*
X73768570Y-68019241I0J250000D01*
G01*
G37*
X72693570Y-67644241D03*
G36*
G01*
X73768570Y-70559241D02*
X73768570Y-69809241D01*
G75*
G02*
X74018570Y-69559241I250000J0D01*
G01*
X74768570Y-69559241D01*
G75*
G02*
X75018570Y-69809241I0J-250000D01*
G01*
X75018570Y-70559241D01*
G75*
G02*
X74768570Y-70809241I-250000J0D01*
G01*
X74018570Y-70809241D01*
G75*
G02*
X73768570Y-70559241I0J250000D01*
G01*
G37*
X72693570Y-70184241D03*
G36*
G01*
X73768570Y-73099241D02*
X73768570Y-72349241D01*
G75*
G02*
X74018570Y-72099241I250000J0D01*
G01*
X74768570Y-72099241D01*
G75*
G02*
X75018570Y-72349241I0J-250000D01*
G01*
X75018570Y-73099241D01*
G75*
G02*
X74768570Y-73349241I-250000J0D01*
G01*
X74018570Y-73349241D01*
G75*
G02*
X73768570Y-73099241I0J250000D01*
G01*
G37*
X72693570Y-72724241D03*
G36*
G01*
X73768570Y-75639241D02*
X73768570Y-74889241D01*
G75*
G02*
X74018570Y-74639241I250000J0D01*
G01*
X74768570Y-74639241D01*
G75*
G02*
X75018570Y-74889241I0J-250000D01*
G01*
X75018570Y-75639241D01*
G75*
G02*
X74768570Y-75889241I-250000J0D01*
G01*
X74018570Y-75889241D01*
G75*
G02*
X73768570Y-75639241I0J250000D01*
G01*
G37*
X72693570Y-75264241D03*
M02*
