G04 #@! TF.GenerationSoftware,KiCad,Pcbnew,9.0.1+1*
G04 #@! TF.CreationDate,2025-11-11T08:29:19+00:00*
G04 #@! TF.ProjectId,audio-codec,61756469-6f2d-4636-9f64-65632e6b6963,rev?*
G04 #@! TF.SameCoordinates,Original*
G04 #@! TF.FileFunction,Copper,L1,Top*
G04 #@! TF.FilePolarity,Positive*
%FSLAX46Y46*%
G04 Gerber Fmt 4.6, Leading zero omitted, Abs format (unit mm)*
G04 Created by KiCad (PCBNEW 9.0.1+1) date 2025-11-11 08:29:19*
%MOMM*%
%LPD*%
G01*
G04 APERTURE LIST*
G04 #@! TA.AperFunction,SMDPad,CuDef*
%ADD10C,0.260000*%
G04 #@! TD*
G04 #@! TA.AperFunction,SMDPad,CuDef*
%ADD11R,3.450000X3.450000*%
G04 #@! TD*
G04 #@! TA.AperFunction,ComponentPad*
%ADD12C,0.400000*%
G04 #@! TD*
G04 #@! TA.AperFunction,CastellatedPad*
%ADD13R,2.540000X2.000000*%
G04 #@! TD*
G04 #@! TA.AperFunction,ViaPad*
%ADD14C,0.600000*%
G04 #@! TD*
G04 #@! TA.AperFunction,Conductor*
%ADD15C,0.500000*%
G04 #@! TD*
G04 #@! TA.AperFunction,Conductor*
%ADD16C,0.200000*%
G04 #@! TD*
G04 #@! TA.AperFunction,Conductor*
%ADD17C,0.300000*%
G04 #@! TD*
G04 APERTURE END LIST*
G04 #@! TA.AperFunction,SMDPad,CuDef*
G36*
G01*
X87903570Y-70264241D02*
X87903570Y-69764241D01*
G75*
G02*
X88128570Y-69539241I225000J0D01*
G01*
X88578570Y-69539241D01*
G75*
G02*
X88803570Y-69764241I0J-225000D01*
G01*
X88803570Y-70264241D01*
G75*
G02*
X88578570Y-70489241I-225000J0D01*
G01*
X88128570Y-70489241D01*
G75*
G02*
X87903570Y-70264241I0J225000D01*
G01*
G37*
G04 #@! TD.AperFunction*
G04 #@! TA.AperFunction,SMDPad,CuDef*
G36*
G01*
X89453570Y-70264241D02*
X89453570Y-69764241D01*
G75*
G02*
X89678570Y-69539241I225000J0D01*
G01*
X90128570Y-69539241D01*
G75*
G02*
X90353570Y-69764241I0J-225000D01*
G01*
X90353570Y-70264241D01*
G75*
G02*
X90128570Y-70489241I-225000J0D01*
G01*
X89678570Y-70489241D01*
G75*
G02*
X89453570Y-70264241I0J225000D01*
G01*
G37*
G04 #@! TD.AperFunction*
G04 #@! TA.AperFunction,SMDPad,CuDef*
G36*
G01*
X87903570Y-65614241D02*
X87903570Y-65114241D01*
G75*
G02*
X88128570Y-64889241I225000J0D01*
G01*
X88578570Y-64889241D01*
G75*
G02*
X88803570Y-65114241I0J-225000D01*
G01*
X88803570Y-65614241D01*
G75*
G02*
X88578570Y-65839241I-225000J0D01*
G01*
X88128570Y-65839241D01*
G75*
G02*
X87903570Y-65614241I0J225000D01*
G01*
G37*
G04 #@! TD.AperFunction*
G04 #@! TA.AperFunction,SMDPad,CuDef*
G36*
G01*
X89453570Y-65614241D02*
X89453570Y-65114241D01*
G75*
G02*
X89678570Y-64889241I225000J0D01*
G01*
X90128570Y-64889241D01*
G75*
G02*
X90353570Y-65114241I0J-225000D01*
G01*
X90353570Y-65614241D01*
G75*
G02*
X90128570Y-65839241I-225000J0D01*
G01*
X89678570Y-65839241D01*
G75*
G02*
X89453570Y-65614241I0J225000D01*
G01*
G37*
G04 #@! TD.AperFunction*
G04 #@! TA.AperFunction,SMDPad,CuDef*
G36*
G01*
X84493570Y-59189241D02*
X84493570Y-58689241D01*
G75*
G02*
X84718570Y-58464241I225000J0D01*
G01*
X85168570Y-58464241D01*
G75*
G02*
X85393570Y-58689241I0J-225000D01*
G01*
X85393570Y-59189241D01*
G75*
G02*
X85168570Y-59414241I-225000J0D01*
G01*
X84718570Y-59414241D01*
G75*
G02*
X84493570Y-59189241I0J225000D01*
G01*
G37*
G04 #@! TD.AperFunction*
G04 #@! TA.AperFunction,SMDPad,CuDef*
G36*
G01*
X86043570Y-59189241D02*
X86043570Y-58689241D01*
G75*
G02*
X86268570Y-58464241I225000J0D01*
G01*
X86718570Y-58464241D01*
G75*
G02*
X86943570Y-58689241I0J-225000D01*
G01*
X86943570Y-59189241D01*
G75*
G02*
X86718570Y-59414241I-225000J0D01*
G01*
X86268570Y-59414241D01*
G75*
G02*
X86043570Y-59189241I0J225000D01*
G01*
G37*
G04 #@! TD.AperFunction*
G04 #@! TA.AperFunction,SMDPad,CuDef*
G36*
G01*
X79853570Y-66664241D02*
X79853570Y-67214241D01*
G75*
G02*
X79653570Y-67414241I-200000J0D01*
G01*
X79253570Y-67414241D01*
G75*
G02*
X79053570Y-67214241I0J200000D01*
G01*
X79053570Y-66664241D01*
G75*
G02*
X79253570Y-66464241I200000J0D01*
G01*
X79653570Y-66464241D01*
G75*
G02*
X79853570Y-66664241I0J-200000D01*
G01*
G37*
G04 #@! TD.AperFunction*
G04 #@! TA.AperFunction,SMDPad,CuDef*
G36*
G01*
X78203570Y-66664241D02*
X78203570Y-67214241D01*
G75*
G02*
X78003570Y-67414241I-200000J0D01*
G01*
X77603570Y-67414241D01*
G75*
G02*
X77403570Y-67214241I0J200000D01*
G01*
X77403570Y-66664241D01*
G75*
G02*
X77603570Y-66464241I200000J0D01*
G01*
X78003570Y-66464241D01*
G75*
G02*
X78203570Y-66664241I0J-200000D01*
G01*
G37*
G04 #@! TD.AperFunction*
G04 #@! TA.AperFunction,SMDPad,CuDef*
G36*
G01*
X83811218Y-52314241D02*
X83811218Y-52814241D01*
G75*
G02*
X83586218Y-53039241I-225000J0D01*
G01*
X83136218Y-53039241D01*
G75*
G02*
X82911218Y-52814241I0J225000D01*
G01*
X82911218Y-52314241D01*
G75*
G02*
X83136218Y-52089241I225000J0D01*
G01*
X83586218Y-52089241D01*
G75*
G02*
X83811218Y-52314241I0J-225000D01*
G01*
G37*
G04 #@! TD.AperFunction*
G04 #@! TA.AperFunction,SMDPad,CuDef*
G36*
G01*
X82261218Y-52314241D02*
X82261218Y-52814241D01*
G75*
G02*
X82036218Y-53039241I-225000J0D01*
G01*
X81586218Y-53039241D01*
G75*
G02*
X81361218Y-52814241I0J225000D01*
G01*
X81361218Y-52314241D01*
G75*
G02*
X81586218Y-52089241I225000J0D01*
G01*
X82036218Y-52089241D01*
G75*
G02*
X82261218Y-52314241I0J-225000D01*
G01*
G37*
G04 #@! TD.AperFunction*
G04 #@! TA.AperFunction,SMDPad,CuDef*
G36*
G01*
X87903570Y-67164241D02*
X87903570Y-66664241D01*
G75*
G02*
X88128570Y-66439241I225000J0D01*
G01*
X88578570Y-66439241D01*
G75*
G02*
X88803570Y-66664241I0J-225000D01*
G01*
X88803570Y-67164241D01*
G75*
G02*
X88578570Y-67389241I-225000J0D01*
G01*
X88128570Y-67389241D01*
G75*
G02*
X87903570Y-67164241I0J225000D01*
G01*
G37*
G04 #@! TD.AperFunction*
G04 #@! TA.AperFunction,SMDPad,CuDef*
G36*
G01*
X89453570Y-67164241D02*
X89453570Y-66664241D01*
G75*
G02*
X89678570Y-66439241I225000J0D01*
G01*
X90128570Y-66439241D01*
G75*
G02*
X90353570Y-66664241I0J-225000D01*
G01*
X90353570Y-67164241D01*
G75*
G02*
X90128570Y-67389241I-225000J0D01*
G01*
X89678570Y-67389241D01*
G75*
G02*
X89453570Y-67164241I0J225000D01*
G01*
G37*
G04 #@! TD.AperFunction*
G04 #@! TA.AperFunction,SMDPad,CuDef*
G36*
G01*
X84493570Y-57664241D02*
X84493570Y-57164241D01*
G75*
G02*
X84718570Y-56939241I225000J0D01*
G01*
X85168570Y-56939241D01*
G75*
G02*
X85393570Y-57164241I0J-225000D01*
G01*
X85393570Y-57664241D01*
G75*
G02*
X85168570Y-57889241I-225000J0D01*
G01*
X84718570Y-57889241D01*
G75*
G02*
X84493570Y-57664241I0J225000D01*
G01*
G37*
G04 #@! TD.AperFunction*
G04 #@! TA.AperFunction,SMDPad,CuDef*
G36*
G01*
X86043570Y-57664241D02*
X86043570Y-57164241D01*
G75*
G02*
X86268570Y-56939241I225000J0D01*
G01*
X86718570Y-56939241D01*
G75*
G02*
X86943570Y-57164241I0J-225000D01*
G01*
X86943570Y-57664241D01*
G75*
G02*
X86718570Y-57889241I-225000J0D01*
G01*
X86268570Y-57889241D01*
G75*
G02*
X86043570Y-57664241I0J225000D01*
G01*
G37*
G04 #@! TD.AperFunction*
G04 #@! TA.AperFunction,SMDPad,CuDef*
G36*
G01*
X84328570Y-71964241D02*
X84328570Y-71464241D01*
G75*
G02*
X84553570Y-71239241I225000J0D01*
G01*
X85003570Y-71239241D01*
G75*
G02*
X85228570Y-71464241I0J-225000D01*
G01*
X85228570Y-71964241D01*
G75*
G02*
X85003570Y-72189241I-225000J0D01*
G01*
X84553570Y-72189241D01*
G75*
G02*
X84328570Y-71964241I0J225000D01*
G01*
G37*
G04 #@! TD.AperFunction*
G04 #@! TA.AperFunction,SMDPad,CuDef*
G36*
G01*
X85878570Y-71964241D02*
X85878570Y-71464241D01*
G75*
G02*
X86103570Y-71239241I225000J0D01*
G01*
X86553570Y-71239241D01*
G75*
G02*
X86778570Y-71464241I0J-225000D01*
G01*
X86778570Y-71964241D01*
G75*
G02*
X86553570Y-72189241I-225000J0D01*
G01*
X86103570Y-72189241D01*
G75*
G02*
X85878570Y-71964241I0J225000D01*
G01*
G37*
G04 #@! TD.AperFunction*
G04 #@! TA.AperFunction,SMDPad,CuDef*
G36*
G01*
X87903570Y-68689241D02*
X87903570Y-68189241D01*
G75*
G02*
X88128570Y-67964241I225000J0D01*
G01*
X88578570Y-67964241D01*
G75*
G02*
X88803570Y-68189241I0J-225000D01*
G01*
X88803570Y-68689241D01*
G75*
G02*
X88578570Y-68914241I-225000J0D01*
G01*
X88128570Y-68914241D01*
G75*
G02*
X87903570Y-68689241I0J225000D01*
G01*
G37*
G04 #@! TD.AperFunction*
G04 #@! TA.AperFunction,SMDPad,CuDef*
G36*
G01*
X89453570Y-68689241D02*
X89453570Y-68189241D01*
G75*
G02*
X89678570Y-67964241I225000J0D01*
G01*
X90128570Y-67964241D01*
G75*
G02*
X90353570Y-68189241I0J-225000D01*
G01*
X90353570Y-68689241D01*
G75*
G02*
X90128570Y-68914241I-225000J0D01*
G01*
X89678570Y-68914241D01*
G75*
G02*
X89453570Y-68689241I0J225000D01*
G01*
G37*
G04 #@! TD.AperFunction*
G04 #@! TA.AperFunction,SMDPad,CuDef*
G36*
G01*
X83886218Y-54089241D02*
X83886218Y-54639241D01*
G75*
G02*
X83686218Y-54839241I-200000J0D01*
G01*
X83286218Y-54839241D01*
G75*
G02*
X83086218Y-54639241I0J200000D01*
G01*
X83086218Y-54089241D01*
G75*
G02*
X83286218Y-53889241I200000J0D01*
G01*
X83686218Y-53889241D01*
G75*
G02*
X83886218Y-54089241I0J-200000D01*
G01*
G37*
G04 #@! TD.AperFunction*
G04 #@! TA.AperFunction,SMDPad,CuDef*
G36*
G01*
X82236218Y-54089241D02*
X82236218Y-54639241D01*
G75*
G02*
X82036218Y-54839241I-200000J0D01*
G01*
X81636218Y-54839241D01*
G75*
G02*
X81436218Y-54639241I0J200000D01*
G01*
X81436218Y-54089241D01*
G75*
G02*
X81636218Y-53889241I200000J0D01*
G01*
X82036218Y-53889241D01*
G75*
G02*
X82236218Y-54089241I0J-200000D01*
G01*
G37*
G04 #@! TD.AperFunction*
G04 #@! TA.AperFunction,SMDPad,CuDef*
G36*
G01*
X84328570Y-70439241D02*
X84328570Y-69939241D01*
G75*
G02*
X84553570Y-69714241I225000J0D01*
G01*
X85003570Y-69714241D01*
G75*
G02*
X85228570Y-69939241I0J-225000D01*
G01*
X85228570Y-70439241D01*
G75*
G02*
X85003570Y-70664241I-225000J0D01*
G01*
X84553570Y-70664241D01*
G75*
G02*
X84328570Y-70439241I0J225000D01*
G01*
G37*
G04 #@! TD.AperFunction*
G04 #@! TA.AperFunction,SMDPad,CuDef*
G36*
G01*
X85878570Y-70439241D02*
X85878570Y-69939241D01*
G75*
G02*
X86103570Y-69714241I225000J0D01*
G01*
X86553570Y-69714241D01*
G75*
G02*
X86778570Y-69939241I0J-225000D01*
G01*
X86778570Y-70439241D01*
G75*
G02*
X86553570Y-70664241I-225000J0D01*
G01*
X86103570Y-70664241D01*
G75*
G02*
X85878570Y-70439241I0J225000D01*
G01*
G37*
G04 #@! TD.AperFunction*
G04 #@! TA.AperFunction,SMDPad,CuDef*
G36*
G01*
X83628570Y-69079241D02*
X83628570Y-69579241D01*
G75*
G02*
X83403570Y-69804241I-225000J0D01*
G01*
X82953570Y-69804241D01*
G75*
G02*
X82728570Y-69579241I0J225000D01*
G01*
X82728570Y-69079241D01*
G75*
G02*
X82953570Y-68854241I225000J0D01*
G01*
X83403570Y-68854241D01*
G75*
G02*
X83628570Y-69079241I0J-225000D01*
G01*
G37*
G04 #@! TD.AperFunction*
G04 #@! TA.AperFunction,SMDPad,CuDef*
G36*
G01*
X82078570Y-69079241D02*
X82078570Y-69579241D01*
G75*
G02*
X81853570Y-69804241I-225000J0D01*
G01*
X81403570Y-69804241D01*
G75*
G02*
X81178570Y-69579241I0J225000D01*
G01*
X81178570Y-69079241D01*
G75*
G02*
X81403570Y-68854241I225000J0D01*
G01*
X81853570Y-68854241D01*
G75*
G02*
X82078570Y-69079241I0J-225000D01*
G01*
G37*
G04 #@! TD.AperFunction*
D10*
X79533570Y-54414241D03*
X80033570Y-54414241D03*
X80533570Y-54414241D03*
X79533570Y-54914241D03*
X80033570Y-54914241D03*
X80533570Y-54914241D03*
X79533570Y-55414241D03*
X80033570Y-55414241D03*
X80533570Y-55414241D03*
G04 #@! TA.AperFunction,SMDPad,CuDef*
G36*
G01*
X84959820Y-61889241D02*
X85147320Y-61889241D01*
G75*
G02*
X85178570Y-61920491I0J-31250D01*
G01*
X85178570Y-62457991D01*
G75*
G02*
X85147320Y-62489241I-31250J0D01*
G01*
X84959820Y-62489241D01*
G75*
G02*
X84928570Y-62457991I0J31250D01*
G01*
X84928570Y-61920491D01*
G75*
G02*
X84959820Y-61889241I31250J0D01*
G01*
G37*
G04 #@! TD.AperFunction*
G04 #@! TA.AperFunction,SMDPad,CuDef*
G36*
G01*
X84459820Y-61889241D02*
X84647320Y-61889241D01*
G75*
G02*
X84678570Y-61920491I0J-31250D01*
G01*
X84678570Y-62457991D01*
G75*
G02*
X84647320Y-62489241I-31250J0D01*
G01*
X84459820Y-62489241D01*
G75*
G02*
X84428570Y-62457991I0J31250D01*
G01*
X84428570Y-61920491D01*
G75*
G02*
X84459820Y-61889241I31250J0D01*
G01*
G37*
G04 #@! TD.AperFunction*
G04 #@! TA.AperFunction,SMDPad,CuDef*
G36*
G01*
X83959820Y-61889241D02*
X84147320Y-61889241D01*
G75*
G02*
X84178570Y-61920491I0J-31250D01*
G01*
X84178570Y-62457991D01*
G75*
G02*
X84147320Y-62489241I-31250J0D01*
G01*
X83959820Y-62489241D01*
G75*
G02*
X83928570Y-62457991I0J31250D01*
G01*
X83928570Y-61920491D01*
G75*
G02*
X83959820Y-61889241I31250J0D01*
G01*
G37*
G04 #@! TD.AperFunction*
G04 #@! TA.AperFunction,SMDPad,CuDef*
G36*
G01*
X83459820Y-61889241D02*
X83647320Y-61889241D01*
G75*
G02*
X83678570Y-61920491I0J-31250D01*
G01*
X83678570Y-62457991D01*
G75*
G02*
X83647320Y-62489241I-31250J0D01*
G01*
X83459820Y-62489241D01*
G75*
G02*
X83428570Y-62457991I0J31250D01*
G01*
X83428570Y-61920491D01*
G75*
G02*
X83459820Y-61889241I31250J0D01*
G01*
G37*
G04 #@! TD.AperFunction*
G04 #@! TA.AperFunction,SMDPad,CuDef*
G36*
G01*
X82959820Y-61889241D02*
X83147320Y-61889241D01*
G75*
G02*
X83178570Y-61920491I0J-31250D01*
G01*
X83178570Y-62457991D01*
G75*
G02*
X83147320Y-62489241I-31250J0D01*
G01*
X82959820Y-62489241D01*
G75*
G02*
X82928570Y-62457991I0J31250D01*
G01*
X82928570Y-61920491D01*
G75*
G02*
X82959820Y-61889241I31250J0D01*
G01*
G37*
G04 #@! TD.AperFunction*
G04 #@! TA.AperFunction,SMDPad,CuDef*
G36*
G01*
X82459820Y-61889241D02*
X82647320Y-61889241D01*
G75*
G02*
X82678570Y-61920491I0J-31250D01*
G01*
X82678570Y-62457991D01*
G75*
G02*
X82647320Y-62489241I-31250J0D01*
G01*
X82459820Y-62489241D01*
G75*
G02*
X82428570Y-62457991I0J31250D01*
G01*
X82428570Y-61920491D01*
G75*
G02*
X82459820Y-61889241I31250J0D01*
G01*
G37*
G04 #@! TD.AperFunction*
G04 #@! TA.AperFunction,SMDPad,CuDef*
G36*
G01*
X81959820Y-61889241D02*
X82147320Y-61889241D01*
G75*
G02*
X82178570Y-61920491I0J-31250D01*
G01*
X82178570Y-62457991D01*
G75*
G02*
X82147320Y-62489241I-31250J0D01*
G01*
X81959820Y-62489241D01*
G75*
G02*
X81928570Y-62457991I0J31250D01*
G01*
X81928570Y-61920491D01*
G75*
G02*
X81959820Y-61889241I31250J0D01*
G01*
G37*
G04 #@! TD.AperFunction*
G04 #@! TA.AperFunction,SMDPad,CuDef*
G36*
G01*
X81459820Y-61889241D02*
X81647320Y-61889241D01*
G75*
G02*
X81678570Y-61920491I0J-31250D01*
G01*
X81678570Y-62457991D01*
G75*
G02*
X81647320Y-62489241I-31250J0D01*
G01*
X81459820Y-62489241D01*
G75*
G02*
X81428570Y-62457991I0J31250D01*
G01*
X81428570Y-61920491D01*
G75*
G02*
X81459820Y-61889241I31250J0D01*
G01*
G37*
G04 #@! TD.AperFunction*
G04 #@! TA.AperFunction,SMDPad,CuDef*
G36*
G01*
X80634820Y-62714241D02*
X81172320Y-62714241D01*
G75*
G02*
X81203570Y-62745491I0J-31250D01*
G01*
X81203570Y-62932991D01*
G75*
G02*
X81172320Y-62964241I-31250J0D01*
G01*
X80634820Y-62964241D01*
G75*
G02*
X80603570Y-62932991I0J31250D01*
G01*
X80603570Y-62745491D01*
G75*
G02*
X80634820Y-62714241I31250J0D01*
G01*
G37*
G04 #@! TD.AperFunction*
G04 #@! TA.AperFunction,SMDPad,CuDef*
G36*
G01*
X80634820Y-63214241D02*
X81172320Y-63214241D01*
G75*
G02*
X81203570Y-63245491I0J-31250D01*
G01*
X81203570Y-63432991D01*
G75*
G02*
X81172320Y-63464241I-31250J0D01*
G01*
X80634820Y-63464241D01*
G75*
G02*
X80603570Y-63432991I0J31250D01*
G01*
X80603570Y-63245491D01*
G75*
G02*
X80634820Y-63214241I31250J0D01*
G01*
G37*
G04 #@! TD.AperFunction*
G04 #@! TA.AperFunction,SMDPad,CuDef*
G36*
G01*
X80634820Y-63714241D02*
X81172320Y-63714241D01*
G75*
G02*
X81203570Y-63745491I0J-31250D01*
G01*
X81203570Y-63932991D01*
G75*
G02*
X81172320Y-63964241I-31250J0D01*
G01*
X80634820Y-63964241D01*
G75*
G02*
X80603570Y-63932991I0J31250D01*
G01*
X80603570Y-63745491D01*
G75*
G02*
X80634820Y-63714241I31250J0D01*
G01*
G37*
G04 #@! TD.AperFunction*
G04 #@! TA.AperFunction,SMDPad,CuDef*
G36*
G01*
X80634820Y-64214241D02*
X81172320Y-64214241D01*
G75*
G02*
X81203570Y-64245491I0J-31250D01*
G01*
X81203570Y-64432991D01*
G75*
G02*
X81172320Y-64464241I-31250J0D01*
G01*
X80634820Y-64464241D01*
G75*
G02*
X80603570Y-64432991I0J31250D01*
G01*
X80603570Y-64245491D01*
G75*
G02*
X80634820Y-64214241I31250J0D01*
G01*
G37*
G04 #@! TD.AperFunction*
G04 #@! TA.AperFunction,SMDPad,CuDef*
G36*
G01*
X80634820Y-64714241D02*
X81172320Y-64714241D01*
G75*
G02*
X81203570Y-64745491I0J-31250D01*
G01*
X81203570Y-64932991D01*
G75*
G02*
X81172320Y-64964241I-31250J0D01*
G01*
X80634820Y-64964241D01*
G75*
G02*
X80603570Y-64932991I0J31250D01*
G01*
X80603570Y-64745491D01*
G75*
G02*
X80634820Y-64714241I31250J0D01*
G01*
G37*
G04 #@! TD.AperFunction*
G04 #@! TA.AperFunction,SMDPad,CuDef*
G36*
G01*
X80634820Y-65214241D02*
X81172320Y-65214241D01*
G75*
G02*
X81203570Y-65245491I0J-31250D01*
G01*
X81203570Y-65432991D01*
G75*
G02*
X81172320Y-65464241I-31250J0D01*
G01*
X80634820Y-65464241D01*
G75*
G02*
X80603570Y-65432991I0J31250D01*
G01*
X80603570Y-65245491D01*
G75*
G02*
X80634820Y-65214241I31250J0D01*
G01*
G37*
G04 #@! TD.AperFunction*
G04 #@! TA.AperFunction,SMDPad,CuDef*
G36*
G01*
X80634820Y-65714241D02*
X81172320Y-65714241D01*
G75*
G02*
X81203570Y-65745491I0J-31250D01*
G01*
X81203570Y-65932991D01*
G75*
G02*
X81172320Y-65964241I-31250J0D01*
G01*
X80634820Y-65964241D01*
G75*
G02*
X80603570Y-65932991I0J31250D01*
G01*
X80603570Y-65745491D01*
G75*
G02*
X80634820Y-65714241I31250J0D01*
G01*
G37*
G04 #@! TD.AperFunction*
G04 #@! TA.AperFunction,SMDPad,CuDef*
G36*
G01*
X80634820Y-66214241D02*
X81172320Y-66214241D01*
G75*
G02*
X81203570Y-66245491I0J-31250D01*
G01*
X81203570Y-66432991D01*
G75*
G02*
X81172320Y-66464241I-31250J0D01*
G01*
X80634820Y-66464241D01*
G75*
G02*
X80603570Y-66432991I0J31250D01*
G01*
X80603570Y-66245491D01*
G75*
G02*
X80634820Y-66214241I31250J0D01*
G01*
G37*
G04 #@! TD.AperFunction*
G04 #@! TA.AperFunction,SMDPad,CuDef*
G36*
G01*
X81459820Y-66689241D02*
X81647320Y-66689241D01*
G75*
G02*
X81678570Y-66720491I0J-31250D01*
G01*
X81678570Y-67257991D01*
G75*
G02*
X81647320Y-67289241I-31250J0D01*
G01*
X81459820Y-67289241D01*
G75*
G02*
X81428570Y-67257991I0J31250D01*
G01*
X81428570Y-66720491D01*
G75*
G02*
X81459820Y-66689241I31250J0D01*
G01*
G37*
G04 #@! TD.AperFunction*
G04 #@! TA.AperFunction,SMDPad,CuDef*
G36*
G01*
X81959820Y-66689241D02*
X82147320Y-66689241D01*
G75*
G02*
X82178570Y-66720491I0J-31250D01*
G01*
X82178570Y-67257991D01*
G75*
G02*
X82147320Y-67289241I-31250J0D01*
G01*
X81959820Y-67289241D01*
G75*
G02*
X81928570Y-67257991I0J31250D01*
G01*
X81928570Y-66720491D01*
G75*
G02*
X81959820Y-66689241I31250J0D01*
G01*
G37*
G04 #@! TD.AperFunction*
G04 #@! TA.AperFunction,SMDPad,CuDef*
G36*
G01*
X82459820Y-66689241D02*
X82647320Y-66689241D01*
G75*
G02*
X82678570Y-66720491I0J-31250D01*
G01*
X82678570Y-67257991D01*
G75*
G02*
X82647320Y-67289241I-31250J0D01*
G01*
X82459820Y-67289241D01*
G75*
G02*
X82428570Y-67257991I0J31250D01*
G01*
X82428570Y-66720491D01*
G75*
G02*
X82459820Y-66689241I31250J0D01*
G01*
G37*
G04 #@! TD.AperFunction*
G04 #@! TA.AperFunction,SMDPad,CuDef*
G36*
G01*
X82959820Y-66689241D02*
X83147320Y-66689241D01*
G75*
G02*
X83178570Y-66720491I0J-31250D01*
G01*
X83178570Y-67257991D01*
G75*
G02*
X83147320Y-67289241I-31250J0D01*
G01*
X82959820Y-67289241D01*
G75*
G02*
X82928570Y-67257991I0J31250D01*
G01*
X82928570Y-66720491D01*
G75*
G02*
X82959820Y-66689241I31250J0D01*
G01*
G37*
G04 #@! TD.AperFunction*
G04 #@! TA.AperFunction,SMDPad,CuDef*
G36*
G01*
X83459820Y-66689241D02*
X83647320Y-66689241D01*
G75*
G02*
X83678570Y-66720491I0J-31250D01*
G01*
X83678570Y-67257991D01*
G75*
G02*
X83647320Y-67289241I-31250J0D01*
G01*
X83459820Y-67289241D01*
G75*
G02*
X83428570Y-67257991I0J31250D01*
G01*
X83428570Y-66720491D01*
G75*
G02*
X83459820Y-66689241I31250J0D01*
G01*
G37*
G04 #@! TD.AperFunction*
G04 #@! TA.AperFunction,SMDPad,CuDef*
G36*
G01*
X83959820Y-66689241D02*
X84147320Y-66689241D01*
G75*
G02*
X84178570Y-66720491I0J-31250D01*
G01*
X84178570Y-67257991D01*
G75*
G02*
X84147320Y-67289241I-31250J0D01*
G01*
X83959820Y-67289241D01*
G75*
G02*
X83928570Y-67257991I0J31250D01*
G01*
X83928570Y-66720491D01*
G75*
G02*
X83959820Y-66689241I31250J0D01*
G01*
G37*
G04 #@! TD.AperFunction*
G04 #@! TA.AperFunction,SMDPad,CuDef*
G36*
G01*
X84459820Y-66689241D02*
X84647320Y-66689241D01*
G75*
G02*
X84678570Y-66720491I0J-31250D01*
G01*
X84678570Y-67257991D01*
G75*
G02*
X84647320Y-67289241I-31250J0D01*
G01*
X84459820Y-67289241D01*
G75*
G02*
X84428570Y-67257991I0J31250D01*
G01*
X84428570Y-66720491D01*
G75*
G02*
X84459820Y-66689241I31250J0D01*
G01*
G37*
G04 #@! TD.AperFunction*
G04 #@! TA.AperFunction,SMDPad,CuDef*
G36*
G01*
X84959820Y-66689241D02*
X85147320Y-66689241D01*
G75*
G02*
X85178570Y-66720491I0J-31250D01*
G01*
X85178570Y-67257991D01*
G75*
G02*
X85147320Y-67289241I-31250J0D01*
G01*
X84959820Y-67289241D01*
G75*
G02*
X84928570Y-67257991I0J31250D01*
G01*
X84928570Y-66720491D01*
G75*
G02*
X84959820Y-66689241I31250J0D01*
G01*
G37*
G04 #@! TD.AperFunction*
G04 #@! TA.AperFunction,SMDPad,CuDef*
G36*
G01*
X85434820Y-66214241D02*
X85972320Y-66214241D01*
G75*
G02*
X86003570Y-66245491I0J-31250D01*
G01*
X86003570Y-66432991D01*
G75*
G02*
X85972320Y-66464241I-31250J0D01*
G01*
X85434820Y-66464241D01*
G75*
G02*
X85403570Y-66432991I0J31250D01*
G01*
X85403570Y-66245491D01*
G75*
G02*
X85434820Y-66214241I31250J0D01*
G01*
G37*
G04 #@! TD.AperFunction*
G04 #@! TA.AperFunction,SMDPad,CuDef*
G36*
G01*
X85434820Y-65714241D02*
X85972320Y-65714241D01*
G75*
G02*
X86003570Y-65745491I0J-31250D01*
G01*
X86003570Y-65932991D01*
G75*
G02*
X85972320Y-65964241I-31250J0D01*
G01*
X85434820Y-65964241D01*
G75*
G02*
X85403570Y-65932991I0J31250D01*
G01*
X85403570Y-65745491D01*
G75*
G02*
X85434820Y-65714241I31250J0D01*
G01*
G37*
G04 #@! TD.AperFunction*
G04 #@! TA.AperFunction,SMDPad,CuDef*
G36*
G01*
X85434820Y-65214241D02*
X85972320Y-65214241D01*
G75*
G02*
X86003570Y-65245491I0J-31250D01*
G01*
X86003570Y-65432991D01*
G75*
G02*
X85972320Y-65464241I-31250J0D01*
G01*
X85434820Y-65464241D01*
G75*
G02*
X85403570Y-65432991I0J31250D01*
G01*
X85403570Y-65245491D01*
G75*
G02*
X85434820Y-65214241I31250J0D01*
G01*
G37*
G04 #@! TD.AperFunction*
G04 #@! TA.AperFunction,SMDPad,CuDef*
G36*
G01*
X85434820Y-64714241D02*
X85972320Y-64714241D01*
G75*
G02*
X86003570Y-64745491I0J-31250D01*
G01*
X86003570Y-64932991D01*
G75*
G02*
X85972320Y-64964241I-31250J0D01*
G01*
X85434820Y-64964241D01*
G75*
G02*
X85403570Y-64932991I0J31250D01*
G01*
X85403570Y-64745491D01*
G75*
G02*
X85434820Y-64714241I31250J0D01*
G01*
G37*
G04 #@! TD.AperFunction*
G04 #@! TA.AperFunction,SMDPad,CuDef*
G36*
G01*
X85434820Y-64214241D02*
X85972320Y-64214241D01*
G75*
G02*
X86003570Y-64245491I0J-31250D01*
G01*
X86003570Y-64432991D01*
G75*
G02*
X85972320Y-64464241I-31250J0D01*
G01*
X85434820Y-64464241D01*
G75*
G02*
X85403570Y-64432991I0J31250D01*
G01*
X85403570Y-64245491D01*
G75*
G02*
X85434820Y-64214241I31250J0D01*
G01*
G37*
G04 #@! TD.AperFunction*
G04 #@! TA.AperFunction,SMDPad,CuDef*
G36*
G01*
X85434820Y-63714241D02*
X85972320Y-63714241D01*
G75*
G02*
X86003570Y-63745491I0J-31250D01*
G01*
X86003570Y-63932991D01*
G75*
G02*
X85972320Y-63964241I-31250J0D01*
G01*
X85434820Y-63964241D01*
G75*
G02*
X85403570Y-63932991I0J31250D01*
G01*
X85403570Y-63745491D01*
G75*
G02*
X85434820Y-63714241I31250J0D01*
G01*
G37*
G04 #@! TD.AperFunction*
G04 #@! TA.AperFunction,SMDPad,CuDef*
G36*
G01*
X85434820Y-63214241D02*
X85972320Y-63214241D01*
G75*
G02*
X86003570Y-63245491I0J-31250D01*
G01*
X86003570Y-63432991D01*
G75*
G02*
X85972320Y-63464241I-31250J0D01*
G01*
X85434820Y-63464241D01*
G75*
G02*
X85403570Y-63432991I0J31250D01*
G01*
X85403570Y-63245491D01*
G75*
G02*
X85434820Y-63214241I31250J0D01*
G01*
G37*
G04 #@! TD.AperFunction*
G04 #@! TA.AperFunction,SMDPad,CuDef*
G36*
G01*
X85434820Y-62714241D02*
X85972320Y-62714241D01*
G75*
G02*
X86003570Y-62745491I0J-31250D01*
G01*
X86003570Y-62932991D01*
G75*
G02*
X85972320Y-62964241I-31250J0D01*
G01*
X85434820Y-62964241D01*
G75*
G02*
X85403570Y-62932991I0J31250D01*
G01*
X85403570Y-62745491D01*
G75*
G02*
X85434820Y-62714241I31250J0D01*
G01*
G37*
G04 #@! TD.AperFunction*
D11*
X83303570Y-64589241D03*
D12*
X83303570Y-64589241D03*
X84778570Y-64589241D03*
X83303570Y-63114241D03*
X81828570Y-64589241D03*
X83303570Y-66064241D03*
G04 #@! TA.AperFunction,SMDPad,CuDef*
G36*
G01*
X87618570Y-57664241D02*
X87618570Y-57164241D01*
G75*
G02*
X87843570Y-56939241I225000J0D01*
G01*
X88293570Y-56939241D01*
G75*
G02*
X88518570Y-57164241I0J-225000D01*
G01*
X88518570Y-57664241D01*
G75*
G02*
X88293570Y-57889241I-225000J0D01*
G01*
X87843570Y-57889241D01*
G75*
G02*
X87618570Y-57664241I0J225000D01*
G01*
G37*
G04 #@! TD.AperFunction*
G04 #@! TA.AperFunction,SMDPad,CuDef*
G36*
G01*
X89168570Y-57664241D02*
X89168570Y-57164241D01*
G75*
G02*
X89393570Y-56939241I225000J0D01*
G01*
X89843570Y-56939241D01*
G75*
G02*
X90068570Y-57164241I0J-225000D01*
G01*
X90068570Y-57664241D01*
G75*
G02*
X89843570Y-57889241I-225000J0D01*
G01*
X89393570Y-57889241D01*
G75*
G02*
X89168570Y-57664241I0J225000D01*
G01*
G37*
G04 #@! TD.AperFunction*
G04 #@! TA.AperFunction,SMDPad,CuDef*
G36*
G01*
X80578570Y-69079241D02*
X80578570Y-69579241D01*
G75*
G02*
X80353570Y-69804241I-225000J0D01*
G01*
X79903570Y-69804241D01*
G75*
G02*
X79678570Y-69579241I0J225000D01*
G01*
X79678570Y-69079241D01*
G75*
G02*
X79903570Y-68854241I225000J0D01*
G01*
X80353570Y-68854241D01*
G75*
G02*
X80578570Y-69079241I0J-225000D01*
G01*
G37*
G04 #@! TD.AperFunction*
G04 #@! TA.AperFunction,SMDPad,CuDef*
G36*
G01*
X79028570Y-69079241D02*
X79028570Y-69579241D01*
G75*
G02*
X78803570Y-69804241I-225000J0D01*
G01*
X78353570Y-69804241D01*
G75*
G02*
X78128570Y-69579241I0J225000D01*
G01*
X78128570Y-69079241D01*
G75*
G02*
X78353570Y-68854241I225000J0D01*
G01*
X78803570Y-68854241D01*
G75*
G02*
X79028570Y-69079241I0J-225000D01*
G01*
G37*
G04 #@! TD.AperFunction*
G04 #@! TA.AperFunction,SMDPad,CuDef*
G36*
G01*
X87593570Y-59239241D02*
X87593570Y-58739241D01*
G75*
G02*
X87818570Y-58514241I225000J0D01*
G01*
X88268570Y-58514241D01*
G75*
G02*
X88493570Y-58739241I0J-225000D01*
G01*
X88493570Y-59239241D01*
G75*
G02*
X88268570Y-59464241I-225000J0D01*
G01*
X87818570Y-59464241D01*
G75*
G02*
X87593570Y-59239241I0J225000D01*
G01*
G37*
G04 #@! TD.AperFunction*
G04 #@! TA.AperFunction,SMDPad,CuDef*
G36*
G01*
X89143570Y-59239241D02*
X89143570Y-58739241D01*
G75*
G02*
X89368570Y-58514241I225000J0D01*
G01*
X89818570Y-58514241D01*
G75*
G02*
X90043570Y-58739241I0J-225000D01*
G01*
X90043570Y-59239241D01*
G75*
G02*
X89818570Y-59464241I-225000J0D01*
G01*
X89368570Y-59464241D01*
G75*
G02*
X89143570Y-59239241I0J225000D01*
G01*
G37*
G04 #@! TD.AperFunction*
G04 #@! TA.AperFunction,SMDPad,CuDef*
G36*
G01*
X78218570Y-56364241D02*
X77718570Y-56364241D01*
G75*
G02*
X77493570Y-56139241I0J225000D01*
G01*
X77493570Y-55689241D01*
G75*
G02*
X77718570Y-55464241I225000J0D01*
G01*
X78218570Y-55464241D01*
G75*
G02*
X78443570Y-55689241I0J-225000D01*
G01*
X78443570Y-56139241D01*
G75*
G02*
X78218570Y-56364241I-225000J0D01*
G01*
G37*
G04 #@! TD.AperFunction*
G04 #@! TA.AperFunction,SMDPad,CuDef*
G36*
G01*
X78218570Y-54814241D02*
X77718570Y-54814241D01*
G75*
G02*
X77493570Y-54589241I0J225000D01*
G01*
X77493570Y-54139241D01*
G75*
G02*
X77718570Y-53914241I225000J0D01*
G01*
X78218570Y-53914241D01*
G75*
G02*
X78443570Y-54139241I0J-225000D01*
G01*
X78443570Y-54589241D01*
G75*
G02*
X78218570Y-54814241I-225000J0D01*
G01*
G37*
G04 #@! TD.AperFunction*
G04 #@! TA.AperFunction,SMDPad,CuDef*
G36*
G01*
X81461218Y-56164241D02*
X81461218Y-55614241D01*
G75*
G02*
X81661218Y-55414241I200000J0D01*
G01*
X82061218Y-55414241D01*
G75*
G02*
X82261218Y-55614241I0J-200000D01*
G01*
X82261218Y-56164241D01*
G75*
G02*
X82061218Y-56364241I-200000J0D01*
G01*
X81661218Y-56364241D01*
G75*
G02*
X81461218Y-56164241I0J200000D01*
G01*
G37*
G04 #@! TD.AperFunction*
G04 #@! TA.AperFunction,SMDPad,CuDef*
G36*
G01*
X83111218Y-56164241D02*
X83111218Y-55614241D01*
G75*
G02*
X83311218Y-55414241I200000J0D01*
G01*
X83711218Y-55414241D01*
G75*
G02*
X83911218Y-55614241I0J-200000D01*
G01*
X83911218Y-56164241D01*
G75*
G02*
X83711218Y-56364241I-200000J0D01*
G01*
X83311218Y-56364241D01*
G75*
G02*
X83111218Y-56164241I0J200000D01*
G01*
G37*
G04 #@! TD.AperFunction*
G04 #@! TA.AperFunction,SMDPad,CuDef*
G36*
G01*
X79853570Y-65139241D02*
X79853570Y-65639241D01*
G75*
G02*
X79628570Y-65864241I-225000J0D01*
G01*
X79178570Y-65864241D01*
G75*
G02*
X78953570Y-65639241I0J225000D01*
G01*
X78953570Y-65139241D01*
G75*
G02*
X79178570Y-64914241I225000J0D01*
G01*
X79628570Y-64914241D01*
G75*
G02*
X79853570Y-65139241I0J-225000D01*
G01*
G37*
G04 #@! TD.AperFunction*
G04 #@! TA.AperFunction,SMDPad,CuDef*
G36*
G01*
X78303570Y-65139241D02*
X78303570Y-65639241D01*
G75*
G02*
X78078570Y-65864241I-225000J0D01*
G01*
X77628570Y-65864241D01*
G75*
G02*
X77403570Y-65639241I0J225000D01*
G01*
X77403570Y-65139241D01*
G75*
G02*
X77628570Y-64914241I225000J0D01*
G01*
X78078570Y-64914241D01*
G75*
G02*
X78303570Y-65139241I0J-225000D01*
G01*
G37*
G04 #@! TD.AperFunction*
G04 #@! TA.AperFunction,SMDPad,CuDef*
G36*
G01*
X80578570Y-70589241D02*
X80578570Y-71089241D01*
G75*
G02*
X80353570Y-71314241I-225000J0D01*
G01*
X79903570Y-71314241D01*
G75*
G02*
X79678570Y-71089241I0J225000D01*
G01*
X79678570Y-70589241D01*
G75*
G02*
X79903570Y-70364241I225000J0D01*
G01*
X80353570Y-70364241D01*
G75*
G02*
X80578570Y-70589241I0J-225000D01*
G01*
G37*
G04 #@! TD.AperFunction*
G04 #@! TA.AperFunction,SMDPad,CuDef*
G36*
G01*
X79028570Y-70589241D02*
X79028570Y-71089241D01*
G75*
G02*
X78803570Y-71314241I-225000J0D01*
G01*
X78353570Y-71314241D01*
G75*
G02*
X78128570Y-71089241I0J225000D01*
G01*
X78128570Y-70589241D01*
G75*
G02*
X78353570Y-70364241I225000J0D01*
G01*
X78803570Y-70364241D01*
G75*
G02*
X79028570Y-70589241I0J-225000D01*
G01*
G37*
G04 #@! TD.AperFunction*
G04 #@! TA.AperFunction,SMDPad,CuDef*
G36*
G01*
X80611218Y-52257991D02*
X80611218Y-53020491D01*
G75*
G02*
X80392468Y-53239241I-218750J0D01*
G01*
X79954968Y-53239241D01*
G75*
G02*
X79736218Y-53020491I0J218750D01*
G01*
X79736218Y-52257991D01*
G75*
G02*
X79954968Y-52039241I218750J0D01*
G01*
X80392468Y-52039241D01*
G75*
G02*
X80611218Y-52257991I0J-218750D01*
G01*
G37*
G04 #@! TD.AperFunction*
G04 #@! TA.AperFunction,SMDPad,CuDef*
G36*
G01*
X78486218Y-52257991D02*
X78486218Y-53020491D01*
G75*
G02*
X78267468Y-53239241I-218750J0D01*
G01*
X77829968Y-53239241D01*
G75*
G02*
X77611218Y-53020491I0J218750D01*
G01*
X77611218Y-52257991D01*
G75*
G02*
X77829968Y-52039241I218750J0D01*
G01*
X78267468Y-52039241D01*
G75*
G02*
X78486218Y-52257991I0J-218750D01*
G01*
G37*
G04 #@! TD.AperFunction*
G04 #@! TA.AperFunction,SMDPad,CuDef*
G36*
G01*
X83628570Y-70589241D02*
X83628570Y-71089241D01*
G75*
G02*
X83403570Y-71314241I-225000J0D01*
G01*
X82953570Y-71314241D01*
G75*
G02*
X82728570Y-71089241I0J225000D01*
G01*
X82728570Y-70589241D01*
G75*
G02*
X82953570Y-70364241I225000J0D01*
G01*
X83403570Y-70364241D01*
G75*
G02*
X83628570Y-70589241I0J-225000D01*
G01*
G37*
G04 #@! TD.AperFunction*
G04 #@! TA.AperFunction,SMDPad,CuDef*
G36*
G01*
X82078570Y-70589241D02*
X82078570Y-71089241D01*
G75*
G02*
X81853570Y-71314241I-225000J0D01*
G01*
X81403570Y-71314241D01*
G75*
G02*
X81178570Y-71089241I0J225000D01*
G01*
X81178570Y-70589241D01*
G75*
G02*
X81403570Y-70364241I225000J0D01*
G01*
X81853570Y-70364241D01*
G75*
G02*
X82078570Y-70589241I0J-225000D01*
G01*
G37*
G04 #@! TD.AperFunction*
D13*
X94693570Y-49864241D03*
G04 #@! TA.AperFunction,ComponentPad*
G36*
G01*
X92368570Y-50239241D02*
X92368570Y-49489241D01*
G75*
G02*
X92618570Y-49239241I250000J0D01*
G01*
X93368570Y-49239241D01*
G75*
G02*
X93618570Y-49489241I0J-250000D01*
G01*
X93618570Y-50239241D01*
G75*
G02*
X93368570Y-50489241I-250000J0D01*
G01*
X92618570Y-50489241D01*
G75*
G02*
X92368570Y-50239241I0J250000D01*
G01*
G37*
G04 #@! TD.AperFunction*
X94693570Y-54944241D03*
G04 #@! TA.AperFunction,ComponentPad*
G36*
G01*
X92368570Y-55319241D02*
X92368570Y-54569241D01*
G75*
G02*
X92618570Y-54319241I250000J0D01*
G01*
X93368570Y-54319241D01*
G75*
G02*
X93618570Y-54569241I0J-250000D01*
G01*
X93618570Y-55319241D01*
G75*
G02*
X93368570Y-55569241I-250000J0D01*
G01*
X92618570Y-55569241D01*
G75*
G02*
X92368570Y-55319241I0J250000D01*
G01*
G37*
G04 #@! TD.AperFunction*
X94693570Y-57484241D03*
G04 #@! TA.AperFunction,ComponentPad*
G36*
G01*
X92368570Y-57859241D02*
X92368570Y-57109241D01*
G75*
G02*
X92618570Y-56859241I250000J0D01*
G01*
X93368570Y-56859241D01*
G75*
G02*
X93618570Y-57109241I0J-250000D01*
G01*
X93618570Y-57859241D01*
G75*
G02*
X93368570Y-58109241I-250000J0D01*
G01*
X92618570Y-58109241D01*
G75*
G02*
X92368570Y-57859241I0J250000D01*
G01*
G37*
G04 #@! TD.AperFunction*
X94693570Y-60024241D03*
G04 #@! TA.AperFunction,ComponentPad*
G36*
G01*
X92368570Y-60399241D02*
X92368570Y-59649241D01*
G75*
G02*
X92618570Y-59399241I250000J0D01*
G01*
X93368570Y-59399241D01*
G75*
G02*
X93618570Y-59649241I0J-250000D01*
G01*
X93618570Y-60399241D01*
G75*
G02*
X93368570Y-60649241I-250000J0D01*
G01*
X92618570Y-60649241D01*
G75*
G02*
X92368570Y-60399241I0J250000D01*
G01*
G37*
G04 #@! TD.AperFunction*
X94693570Y-62564241D03*
G04 #@! TA.AperFunction,ComponentPad*
G36*
G01*
X92368570Y-62939241D02*
X92368570Y-62189241D01*
G75*
G02*
X92618570Y-61939241I250000J0D01*
G01*
X93368570Y-61939241D01*
G75*
G02*
X93618570Y-62189241I0J-250000D01*
G01*
X93618570Y-62939241D01*
G75*
G02*
X93368570Y-63189241I-250000J0D01*
G01*
X92618570Y-63189241D01*
G75*
G02*
X92368570Y-62939241I0J250000D01*
G01*
G37*
G04 #@! TD.AperFunction*
X94693570Y-65104241D03*
G04 #@! TA.AperFunction,ComponentPad*
G36*
G01*
X92368570Y-65479241D02*
X92368570Y-64729241D01*
G75*
G02*
X92618570Y-64479241I250000J0D01*
G01*
X93368570Y-64479241D01*
G75*
G02*
X93618570Y-64729241I0J-250000D01*
G01*
X93618570Y-65479241D01*
G75*
G02*
X93368570Y-65729241I-250000J0D01*
G01*
X92618570Y-65729241D01*
G75*
G02*
X92368570Y-65479241I0J250000D01*
G01*
G37*
G04 #@! TD.AperFunction*
X94693570Y-67644241D03*
G04 #@! TA.AperFunction,ComponentPad*
G36*
G01*
X92368570Y-68019241D02*
X92368570Y-67269241D01*
G75*
G02*
X92618570Y-67019241I250000J0D01*
G01*
X93368570Y-67019241D01*
G75*
G02*
X93618570Y-67269241I0J-250000D01*
G01*
X93618570Y-68019241D01*
G75*
G02*
X93368570Y-68269241I-250000J0D01*
G01*
X92618570Y-68269241D01*
G75*
G02*
X92368570Y-68019241I0J250000D01*
G01*
G37*
G04 #@! TD.AperFunction*
X94693570Y-70184241D03*
G04 #@! TA.AperFunction,ComponentPad*
G36*
G01*
X92368570Y-70559241D02*
X92368570Y-69809241D01*
G75*
G02*
X92618570Y-69559241I250000J0D01*
G01*
X93368570Y-69559241D01*
G75*
G02*
X93618570Y-69809241I0J-250000D01*
G01*
X93618570Y-70559241D01*
G75*
G02*
X93368570Y-70809241I-250000J0D01*
G01*
X92618570Y-70809241D01*
G75*
G02*
X92368570Y-70559241I0J250000D01*
G01*
G37*
G04 #@! TD.AperFunction*
X94693570Y-72724241D03*
G04 #@! TA.AperFunction,ComponentPad*
G36*
G01*
X92368570Y-73099241D02*
X92368570Y-72349241D01*
G75*
G02*
X92618570Y-72099241I250000J0D01*
G01*
X93368570Y-72099241D01*
G75*
G02*
X93618570Y-72349241I0J-250000D01*
G01*
X93618570Y-73099241D01*
G75*
G02*
X93368570Y-73349241I-250000J0D01*
G01*
X92618570Y-73349241D01*
G75*
G02*
X92368570Y-73099241I0J250000D01*
G01*
G37*
G04 #@! TD.AperFunction*
X94693570Y-75264241D03*
G04 #@! TA.AperFunction,ComponentPad*
G36*
G01*
X92368570Y-75639241D02*
X92368570Y-74889241D01*
G75*
G02*
X92618570Y-74639241I250000J0D01*
G01*
X93368570Y-74639241D01*
G75*
G02*
X93618570Y-74889241I0J-250000D01*
G01*
X93618570Y-75639241D01*
G75*
G02*
X93368570Y-75889241I-250000J0D01*
G01*
X92618570Y-75889241D01*
G75*
G02*
X92368570Y-75639241I0J250000D01*
G01*
G37*
G04 #@! TD.AperFunction*
G04 #@! TA.AperFunction,ComponentPad*
G36*
G01*
X73768570Y-50239241D02*
X73768570Y-49489241D01*
G75*
G02*
X74018570Y-49239241I250000J0D01*
G01*
X74768570Y-49239241D01*
G75*
G02*
X75018570Y-49489241I0J-250000D01*
G01*
X75018570Y-50239241D01*
G75*
G02*
X74768570Y-50489241I-250000J0D01*
G01*
X74018570Y-50489241D01*
G75*
G02*
X73768570Y-50239241I0J250000D01*
G01*
G37*
G04 #@! TD.AperFunction*
X72693570Y-49864241D03*
G04 #@! TA.AperFunction,ComponentPad*
G36*
G01*
X73768570Y-52779241D02*
X73768570Y-52029241D01*
G75*
G02*
X74018570Y-51779241I250000J0D01*
G01*
X74768570Y-51779241D01*
G75*
G02*
X75018570Y-52029241I0J-250000D01*
G01*
X75018570Y-52779241D01*
G75*
G02*
X74768570Y-53029241I-250000J0D01*
G01*
X74018570Y-53029241D01*
G75*
G02*
X73768570Y-52779241I0J250000D01*
G01*
G37*
G04 #@! TD.AperFunction*
X72693570Y-52404241D03*
G04 #@! TA.AperFunction,ComponentPad*
G36*
G01*
X73768570Y-55319241D02*
X73768570Y-54569241D01*
G75*
G02*
X74018570Y-54319241I250000J0D01*
G01*
X74768570Y-54319241D01*
G75*
G02*
X75018570Y-54569241I0J-250000D01*
G01*
X75018570Y-55319241D01*
G75*
G02*
X74768570Y-55569241I-250000J0D01*
G01*
X74018570Y-55569241D01*
G75*
G02*
X73768570Y-55319241I0J250000D01*
G01*
G37*
G04 #@! TD.AperFunction*
X72693570Y-54944241D03*
G04 #@! TA.AperFunction,ComponentPad*
G36*
G01*
X73768570Y-57859241D02*
X73768570Y-57109241D01*
G75*
G02*
X74018570Y-56859241I250000J0D01*
G01*
X74768570Y-56859241D01*
G75*
G02*
X75018570Y-57109241I0J-250000D01*
G01*
X75018570Y-57859241D01*
G75*
G02*
X74768570Y-58109241I-250000J0D01*
G01*
X74018570Y-58109241D01*
G75*
G02*
X73768570Y-57859241I0J250000D01*
G01*
G37*
G04 #@! TD.AperFunction*
X72693570Y-57484241D03*
G04 #@! TA.AperFunction,ComponentPad*
G36*
G01*
X73768570Y-60399241D02*
X73768570Y-59649241D01*
G75*
G02*
X74018570Y-59399241I250000J0D01*
G01*
X74768570Y-59399241D01*
G75*
G02*
X75018570Y-59649241I0J-250000D01*
G01*
X75018570Y-60399241D01*
G75*
G02*
X74768570Y-60649241I-250000J0D01*
G01*
X74018570Y-60649241D01*
G75*
G02*
X73768570Y-60399241I0J250000D01*
G01*
G37*
G04 #@! TD.AperFunction*
X72693570Y-60024241D03*
G04 #@! TA.AperFunction,ComponentPad*
G36*
G01*
X73768570Y-62939241D02*
X73768570Y-62189241D01*
G75*
G02*
X74018570Y-61939241I250000J0D01*
G01*
X74768570Y-61939241D01*
G75*
G02*
X75018570Y-62189241I0J-250000D01*
G01*
X75018570Y-62939241D01*
G75*
G02*
X74768570Y-63189241I-250000J0D01*
G01*
X74018570Y-63189241D01*
G75*
G02*
X73768570Y-62939241I0J250000D01*
G01*
G37*
G04 #@! TD.AperFunction*
X72693570Y-62564241D03*
G04 #@! TA.AperFunction,ComponentPad*
G36*
G01*
X73768570Y-65479241D02*
X73768570Y-64729241D01*
G75*
G02*
X74018570Y-64479241I250000J0D01*
G01*
X74768570Y-64479241D01*
G75*
G02*
X75018570Y-64729241I0J-250000D01*
G01*
X75018570Y-65479241D01*
G75*
G02*
X74768570Y-65729241I-250000J0D01*
G01*
X74018570Y-65729241D01*
G75*
G02*
X73768570Y-65479241I0J250000D01*
G01*
G37*
G04 #@! TD.AperFunction*
X72693570Y-65104241D03*
G04 #@! TA.AperFunction,ComponentPad*
G36*
G01*
X73768570Y-68019241D02*
X73768570Y-67269241D01*
G75*
G02*
X74018570Y-67019241I250000J0D01*
G01*
X74768570Y-67019241D01*
G75*
G02*
X75018570Y-67269241I0J-250000D01*
G01*
X75018570Y-68019241D01*
G75*
G02*
X74768570Y-68269241I-250000J0D01*
G01*
X74018570Y-68269241D01*
G75*
G02*
X73768570Y-68019241I0J250000D01*
G01*
G37*
G04 #@! TD.AperFunction*
X72693570Y-67644241D03*
G04 #@! TA.AperFunction,ComponentPad*
G36*
G01*
X73768570Y-70559241D02*
X73768570Y-69809241D01*
G75*
G02*
X74018570Y-69559241I250000J0D01*
G01*
X74768570Y-69559241D01*
G75*
G02*
X75018570Y-69809241I0J-250000D01*
G01*
X75018570Y-70559241D01*
G75*
G02*
X74768570Y-70809241I-250000J0D01*
G01*
X74018570Y-70809241D01*
G75*
G02*
X73768570Y-70559241I0J250000D01*
G01*
G37*
G04 #@! TD.AperFunction*
X72693570Y-70184241D03*
G04 #@! TA.AperFunction,ComponentPad*
G36*
G01*
X73768570Y-73099241D02*
X73768570Y-72349241D01*
G75*
G02*
X74018570Y-72099241I250000J0D01*
G01*
X74768570Y-72099241D01*
G75*
G02*
X75018570Y-72349241I0J-250000D01*
G01*
X75018570Y-73099241D01*
G75*
G02*
X74768570Y-73349241I-250000J0D01*
G01*
X74018570Y-73349241D01*
G75*
G02*
X73768570Y-73099241I0J250000D01*
G01*
G37*
G04 #@! TD.AperFunction*
X72693570Y-72724241D03*
G04 #@! TA.AperFunction,ComponentPad*
G36*
G01*
X73768570Y-75639241D02*
X73768570Y-74889241D01*
G75*
G02*
X74018570Y-74639241I250000J0D01*
G01*
X74768570Y-74639241D01*
G75*
G02*
X75018570Y-74889241I0J-250000D01*
G01*
X75018570Y-75639241D01*
G75*
G02*
X74768570Y-75889241I-250000J0D01*
G01*
X74018570Y-75889241D01*
G75*
G02*
X73768570Y-75639241I0J250000D01*
G01*
G37*
G04 #@! TD.AperFunction*
X72693570Y-75264241D03*
D14*
X87318570Y-56424241D03*
X87503570Y-64389241D03*
X87528570Y-61364241D03*
X86193570Y-54039241D03*
X79392813Y-63414241D03*
X79278528Y-64637812D03*
X86293570Y-59734241D03*
X80623570Y-60254241D03*
X89173570Y-66164241D03*
X74563570Y-58744241D03*
X80678570Y-66839241D03*
X92413570Y-71444241D03*
X86483570Y-56704241D03*
X77743570Y-57244241D03*
X91693570Y-63854241D03*
X88943570Y-51724241D03*
X83335496Y-53389241D03*
X78083570Y-63404241D03*
X76313570Y-58854241D03*
X91693570Y-53454241D03*
X76493570Y-72304241D03*
X83053570Y-67739241D03*
X74703570Y-53664241D03*
X86303570Y-52064241D03*
X88733570Y-75464241D03*
X92253570Y-61254241D03*
X74703570Y-61274241D03*
X77313570Y-54444241D03*
X86478570Y-64389241D03*
X81623570Y-68564241D03*
X81843570Y-67794241D03*
X78543570Y-68484241D03*
X75313570Y-73934241D03*
X75113570Y-68854241D03*
X87623570Y-53034241D03*
X85393570Y-55264241D03*
X77103570Y-60374241D03*
X74803570Y-56224241D03*
X85753570Y-66939241D03*
X85843570Y-69274241D03*
X85513570Y-61804241D03*
X88993570Y-50664241D03*
X75103570Y-71424241D03*
X89493570Y-56734241D03*
X81673570Y-71664241D03*
X89228570Y-67614241D03*
X74683570Y-63874241D03*
X74993570Y-66354241D03*
X92353570Y-68944241D03*
X91693570Y-51724241D03*
X90073570Y-75464241D03*
X74633570Y-51134241D03*
X89573570Y-59714241D03*
X91823570Y-74094241D03*
X91693570Y-58804241D03*
X83593570Y-58374241D03*
X92253570Y-56184241D03*
X87113570Y-71714241D03*
X92333570Y-66304241D03*
X78553570Y-71544241D03*
X83628570Y-73154241D03*
X84783570Y-72384241D03*
X80128570Y-74064241D03*
X88903570Y-55654241D03*
X88973570Y-54354241D03*
X84670677Y-68447134D03*
X86128570Y-67645907D03*
X90123570Y-56224241D03*
D15*
X84618570Y-51164241D02*
X77068570Y-51164241D01*
D16*
X86128570Y-60904241D02*
X88043570Y-58989241D01*
X87003570Y-64989241D02*
X86230041Y-64989241D01*
X81361218Y-53589241D02*
X80536218Y-54414241D01*
X87318570Y-56664241D02*
X88068570Y-57414241D01*
X87528570Y-65514241D02*
X87003570Y-64989241D01*
X87593570Y-64479241D02*
X87503570Y-64389241D01*
X86080041Y-64839241D02*
X85703570Y-64839241D01*
X85506746Y-60904241D02*
X86128570Y-60904241D01*
X87528570Y-65514241D02*
X87593570Y-65449241D01*
X86230041Y-64989241D02*
X86080041Y-64839241D01*
X87603570Y-65589241D02*
X87528570Y-65514241D01*
D15*
X83486218Y-54364241D02*
X84261218Y-53589241D01*
D16*
X86193570Y-54039241D02*
X85868570Y-54364241D01*
X81811218Y-53039241D02*
X81811218Y-52564241D01*
X88353570Y-66914241D02*
X88353570Y-68439241D01*
X87528570Y-61364241D02*
X88043570Y-60849241D01*
X88043570Y-58989241D02*
X88043570Y-57439241D01*
X81361218Y-53489241D02*
X81811218Y-53039241D01*
X88043570Y-57439241D02*
X88068570Y-57414241D01*
X82411218Y-53589241D02*
X81361218Y-53589241D01*
D15*
X77068570Y-51164241D02*
X75468570Y-49564241D01*
D16*
X83486218Y-54364241D02*
X83186218Y-54364241D01*
X88353570Y-66914241D02*
X87603570Y-66164241D01*
X85868570Y-54364241D02*
X83486218Y-54364241D01*
X81361218Y-53589241D02*
X81361218Y-53489241D01*
D15*
X84261218Y-53589241D02*
X84261218Y-52193775D01*
D16*
X88043570Y-60849241D02*
X88043570Y-58989241D01*
D15*
X84618570Y-51836423D02*
X84618570Y-51164241D01*
D16*
X80536218Y-54414241D02*
X80036218Y-54414241D01*
X87603570Y-66164241D02*
X87603570Y-65589241D01*
X83186218Y-54364241D02*
X82411218Y-53589241D01*
D15*
X84261218Y-52193775D02*
X84618570Y-51836423D01*
X75468570Y-49564241D02*
X73698570Y-49564241D01*
D16*
X87593570Y-65449241D02*
X87593570Y-64479241D01*
X84553570Y-62189241D02*
X84553570Y-61857417D01*
X84553570Y-61857417D02*
X85506746Y-60904241D01*
X87318570Y-56424241D02*
X87318570Y-56664241D01*
X79278528Y-65264199D02*
X79403570Y-65389241D01*
X79278528Y-64637812D02*
X79278528Y-65264199D01*
X79392813Y-63414241D02*
X79592813Y-63614241D01*
X79592813Y-63614241D02*
X79720559Y-63614241D01*
X79720559Y-63614241D02*
X79945559Y-63839241D01*
X79403570Y-65389241D02*
X80853570Y-65389241D01*
X80853570Y-65389241D02*
X80903570Y-65339241D01*
X79945559Y-63839241D02*
X80903570Y-63839241D01*
D15*
X78578570Y-69329241D02*
X78578570Y-68519241D01*
D16*
X78661218Y-54914241D02*
X78111218Y-54364241D01*
D15*
X81628570Y-69329241D02*
X81623570Y-69324241D01*
X91693570Y-51724241D02*
X88943570Y-51724241D01*
D16*
X89618570Y-57109241D02*
X89618570Y-57414241D01*
X85703570Y-66339241D02*
X85703570Y-66889241D01*
D15*
X87633570Y-53034241D02*
X88943570Y-51724241D01*
D16*
X80903570Y-66339241D02*
X80903570Y-66614241D01*
X83053570Y-66989241D02*
X83078570Y-66989241D01*
X86493570Y-56714241D02*
X86493570Y-57414241D01*
X80903570Y-66614241D02*
X80678570Y-66839241D01*
X89903570Y-68439241D02*
X89903570Y-68289241D01*
X89903570Y-68289241D02*
X89228570Y-67614241D01*
D15*
X86328570Y-69839241D02*
X86328570Y-70189241D01*
D16*
X86483570Y-56704241D02*
X86493570Y-56714241D01*
X85703570Y-64339241D02*
X86428570Y-64339241D01*
D15*
X78578570Y-68519241D02*
X78543570Y-68484241D01*
D16*
X80036218Y-54914241D02*
X79536218Y-54914241D01*
D15*
X87113570Y-71714241D02*
X86328570Y-71714241D01*
D16*
X84136218Y-55264241D02*
X83511218Y-55889241D01*
X83078570Y-66989241D02*
X83103570Y-67014241D01*
X83053570Y-67064241D02*
X83053570Y-67739241D01*
X89903570Y-68439241D02*
X89903570Y-66914241D01*
X85703570Y-66889241D02*
X85753570Y-66939241D01*
D15*
X87623570Y-53034241D02*
X87633570Y-53034241D01*
D16*
X83335496Y-53389241D02*
X83361218Y-53363519D01*
X94018570Y-74964241D02*
X92868570Y-74964241D01*
X89173570Y-66184241D02*
X89173570Y-66164241D01*
D15*
X81628570Y-71619241D02*
X81673570Y-71664241D01*
D16*
X89593570Y-57439241D02*
X89618570Y-57414241D01*
D15*
X85843570Y-69274241D02*
X85843570Y-69354241D01*
D16*
X77543570Y-54364241D02*
X78111218Y-54364241D01*
D15*
X78578570Y-71519241D02*
X78553570Y-71544241D01*
D16*
X89493570Y-56734241D02*
X89493570Y-56984241D01*
X94018570Y-74964241D02*
X93868570Y-75114241D01*
X79536218Y-54914241D02*
X78661218Y-54914241D01*
X85393570Y-55264241D02*
X84136218Y-55264241D01*
X81843570Y-67794241D02*
X82053570Y-67584241D01*
X89493570Y-56984241D02*
X89618570Y-57109241D01*
X86428570Y-64339241D02*
X86478570Y-64389241D01*
X85128570Y-62189241D02*
X85053570Y-62189241D01*
D15*
X89593570Y-58989241D02*
X89593570Y-59694241D01*
X81628570Y-70839241D02*
X81628570Y-71619241D01*
X89593570Y-59694241D02*
X89573570Y-59714241D01*
X78578570Y-70839241D02*
X78578570Y-71519241D01*
X85843570Y-69354241D02*
X86328570Y-69839241D01*
X86493570Y-58939241D02*
X86493570Y-59534241D01*
X81623570Y-69324241D02*
X81623570Y-68564241D01*
D16*
X82053570Y-67584241D02*
X82053570Y-66989241D01*
X85513570Y-61804241D02*
X85128570Y-62189241D01*
X83103570Y-67014241D02*
X83053570Y-67064241D01*
X89903570Y-66914241D02*
X89173570Y-66184241D01*
D15*
X86493570Y-59534241D02*
X86293570Y-59734241D01*
D16*
X83361218Y-53363519D02*
X83361218Y-52564241D01*
X84778570Y-70189241D02*
X84778570Y-70039241D01*
D15*
X83183570Y-72709241D02*
X83183570Y-70844241D01*
D16*
X84783570Y-72384241D02*
X84783570Y-71889241D01*
X84778570Y-69359241D02*
X85283570Y-68854241D01*
X84778570Y-71714241D02*
X84778570Y-70189241D01*
X81553570Y-66989241D02*
X80128570Y-68414241D01*
D15*
X83183570Y-70844241D02*
X83178570Y-70839241D01*
D16*
X80128570Y-69329241D02*
X80128570Y-70839241D01*
X80128570Y-68414241D02*
X80128570Y-69329241D01*
X84778570Y-70039241D02*
X84778570Y-69359241D01*
X83553570Y-66989241D02*
X83553570Y-67390712D01*
X85053570Y-67981498D02*
X85053570Y-66989241D01*
X83553570Y-67390712D02*
X83653570Y-67490712D01*
X85283570Y-68854241D02*
X85283570Y-68211498D01*
X83653570Y-67987770D02*
X83178570Y-68462770D01*
X93268570Y-49564241D02*
X94018570Y-49564241D01*
X84783570Y-71889241D02*
X84778570Y-71884241D01*
D15*
X80128570Y-74064241D02*
X80128570Y-70839241D01*
X83628570Y-73154241D02*
X83183570Y-72709241D01*
D16*
X85283570Y-68211498D02*
X85053570Y-67981498D01*
D15*
X84778570Y-71884241D02*
X84778570Y-70039241D01*
D16*
X83178570Y-68462770D02*
X83178570Y-69329241D01*
X83178570Y-69329241D02*
X83178570Y-70839241D01*
X83653570Y-67490712D02*
X83653570Y-67987770D01*
X89753570Y-73234241D02*
X84763570Y-73234241D01*
X92803570Y-70184241D02*
X89753570Y-73234241D01*
X84028570Y-68178455D02*
X84053570Y-68153455D01*
X84053570Y-68153455D02*
X84053570Y-66989241D01*
X84763570Y-73234241D02*
X84028570Y-72499241D01*
X84028570Y-72499241D02*
X84028570Y-68178455D01*
X92993570Y-70184241D02*
X92803570Y-70184241D01*
X85753570Y-63789241D02*
X87778570Y-63789241D01*
X87778570Y-63789241D02*
X88353570Y-64364241D01*
X85703570Y-63839241D02*
X85753570Y-63789241D01*
X88353570Y-64364241D02*
X88353570Y-65364241D01*
X81553570Y-62189241D02*
X81353570Y-61989241D01*
X76068570Y-66689241D02*
X75113570Y-67644241D01*
X76068570Y-63269241D02*
X76068570Y-66689241D01*
X81353570Y-61989241D02*
X77348570Y-61989241D01*
X77348570Y-61989241D02*
X76068570Y-63269241D01*
X75113570Y-67644241D02*
X74393570Y-67644241D01*
X76013570Y-57484241D02*
X74393570Y-57484241D01*
X79003570Y-58014241D02*
X76543570Y-58014241D01*
X83553570Y-62189241D02*
X83553570Y-59794241D01*
X76543570Y-58014241D02*
X76013570Y-57484241D01*
X79503570Y-58514241D02*
X79003570Y-58014241D01*
X82273570Y-58514241D02*
X79503570Y-58514241D01*
X83553570Y-59794241D02*
X82273570Y-58514241D01*
X90793570Y-56034241D02*
X90793570Y-61799241D01*
X88973570Y-55584241D02*
X89033570Y-55584241D01*
X90213570Y-55454241D02*
X90793570Y-56034241D01*
X91733570Y-54364241D02*
X92313570Y-54944241D01*
X92313570Y-54944241D02*
X92993570Y-54944241D01*
X88903570Y-55654241D02*
X88973570Y-55584241D01*
X89033570Y-55584241D02*
X89163570Y-55454241D01*
X90793570Y-61799241D02*
X89253570Y-63339241D01*
X88973570Y-54354241D02*
X88983570Y-54364241D01*
X89163570Y-55454241D02*
X90213570Y-55454241D01*
X89253570Y-63339241D02*
X85703570Y-63339241D01*
X88983570Y-54364241D02*
X91733570Y-54364241D01*
X79879874Y-64339241D02*
X79554874Y-64014241D01*
X80903570Y-64339241D02*
X79879874Y-64339241D01*
X78653570Y-66139241D02*
X79453570Y-66939241D01*
X79053570Y-64014241D02*
X78653570Y-64414241D01*
X78653570Y-64414241D02*
X78653570Y-66139241D01*
X79554874Y-64014241D02*
X79053570Y-64014241D01*
X86035394Y-65839241D02*
X86793570Y-66597417D01*
X88063570Y-71074241D02*
X90503570Y-71074241D01*
X91243570Y-70334241D02*
X91243570Y-65934241D01*
X85703570Y-65839241D02*
X86035394Y-65839241D01*
X86793570Y-68679241D02*
X87568570Y-69454241D01*
X90503570Y-71074241D02*
X91243570Y-70334241D01*
X87568570Y-69454241D02*
X87568570Y-70579241D01*
X92073570Y-65104241D02*
X92993570Y-65104241D01*
X86793570Y-66597417D02*
X86793570Y-68679241D01*
X91243570Y-65934241D02*
X92073570Y-65104241D01*
X87568570Y-70579241D02*
X88063570Y-71074241D01*
D15*
X76268570Y-55444241D02*
X75493570Y-55444241D01*
X77308570Y-52639241D02*
X75003570Y-54944241D01*
X75003570Y-54944241D02*
X74393570Y-54944241D01*
D16*
X80036218Y-55414241D02*
X80036218Y-55598088D01*
X79644330Y-55914241D02*
X80036218Y-55522353D01*
X78111218Y-55914241D02*
X79644330Y-55914241D01*
D15*
X78111218Y-55914241D02*
X76738570Y-55914241D01*
D16*
X80036218Y-55522353D02*
X80036218Y-55414241D01*
X84053570Y-59829241D02*
X84943570Y-58939241D01*
D15*
X76738570Y-55914241D02*
X76268570Y-55444241D01*
D16*
X84893570Y-58939241D02*
X84868570Y-58914241D01*
D15*
X74993570Y-54944241D02*
X74393570Y-54944241D01*
X75493570Y-55444241D02*
X74993570Y-54944241D01*
D16*
X84053570Y-62189241D02*
X84053570Y-59829241D01*
X80036218Y-55598088D02*
X81622371Y-57184241D01*
X84568570Y-59214241D02*
X84868570Y-58914241D01*
X81622371Y-57184241D02*
X84713570Y-57184241D01*
X84943570Y-58939241D02*
X84943570Y-57414241D01*
D15*
X78048718Y-52639241D02*
X77308570Y-52639241D01*
D16*
X84713570Y-57184241D02*
X84943570Y-57414241D01*
X76908570Y-61189241D02*
X75533570Y-62564241D01*
X81951080Y-61189241D02*
X76908570Y-61189241D01*
X74393570Y-62564241D02*
X74268570Y-62564241D01*
X74268570Y-62564241D02*
X73968570Y-62264241D01*
X82553570Y-61791731D02*
X81951080Y-61189241D01*
X75533570Y-62564241D02*
X74393570Y-62564241D01*
X82553570Y-62189241D02*
X82553570Y-61791731D01*
X84670677Y-68447134D02*
X84553570Y-68330027D01*
X86128570Y-67645907D02*
X86328570Y-67845907D01*
X90623570Y-71544241D02*
X91673570Y-70494241D01*
X91673570Y-67844241D02*
X91873570Y-67644241D01*
X91873570Y-67644241D02*
X92993570Y-67644241D01*
X86328570Y-68779241D02*
X87153570Y-69604241D01*
X87153570Y-70754241D02*
X87943570Y-71544241D01*
X86328570Y-67845907D02*
X86328570Y-68779241D01*
X91673570Y-70494241D02*
X91673570Y-67844241D01*
X87153570Y-69604241D02*
X87153570Y-70754241D01*
X87943570Y-71544241D02*
X90623570Y-71544241D01*
X84553570Y-68330027D02*
X84553570Y-66989241D01*
X85703570Y-65339241D02*
X85753570Y-65389241D01*
X87193570Y-68489241D02*
X87603570Y-68899241D01*
X87603570Y-68912937D02*
X87904874Y-69214241D01*
X87193570Y-65829241D02*
X87193570Y-68489241D01*
X87918570Y-69214241D02*
X88378570Y-69674241D01*
X87904874Y-69214241D02*
X87918570Y-69214241D01*
X88378570Y-69674241D02*
X88378570Y-70014241D01*
X85753570Y-65389241D02*
X86753570Y-65389241D01*
X87603570Y-68899241D02*
X87603570Y-68912937D01*
X86753570Y-65389241D02*
X87193570Y-65829241D01*
X90383570Y-56734241D02*
X90383570Y-61554241D01*
X90301070Y-61639241D02*
X89101070Y-62839241D01*
X90123570Y-56224241D02*
X90123570Y-56474241D01*
X90123570Y-56474241D02*
X90383570Y-56734241D01*
X90293570Y-61639241D02*
X90301070Y-61639241D01*
X90298570Y-61639241D02*
X90293570Y-61639241D01*
X89101070Y-62839241D02*
X85703570Y-62839241D01*
X90383570Y-61554241D02*
X90298570Y-61639241D01*
X92993570Y-72724241D02*
X92953570Y-72764241D01*
X82428570Y-68855545D02*
X82678570Y-68605545D01*
X82678570Y-68605545D02*
X82678570Y-68212770D01*
X82453570Y-67987770D02*
X82453570Y-67421065D01*
X82553570Y-67321065D02*
X82553570Y-66989241D01*
X91263570Y-72764241D02*
X90093570Y-73934241D01*
X83163570Y-73934241D02*
X82428570Y-73199241D01*
X82428570Y-73199241D02*
X82428570Y-68855545D01*
X82678570Y-68212770D02*
X82453570Y-67987770D01*
X82453570Y-67421065D02*
X82553570Y-67321065D01*
X90093570Y-73934241D02*
X83163570Y-73934241D01*
X92953570Y-72764241D02*
X91263570Y-72764241D01*
X82053570Y-61857417D02*
X81785394Y-61589241D01*
X81785394Y-61589241D02*
X77118570Y-61589241D01*
X75643570Y-64644241D02*
X75183570Y-65104241D01*
X77118570Y-61589241D02*
X75643570Y-63064241D01*
X82053570Y-62189241D02*
X82053570Y-61857417D01*
X82053570Y-62189241D02*
X82053570Y-61939241D01*
X75643570Y-63064241D02*
X75643570Y-64644241D01*
X75183570Y-65104241D02*
X74393570Y-65104241D01*
X74723570Y-72724241D02*
X77073570Y-70374241D01*
X77073570Y-70374241D02*
X77073570Y-63456298D01*
X74393570Y-72724241D02*
X74723570Y-72724241D01*
X77073570Y-63456298D02*
X77740627Y-62789241D01*
X80368570Y-63339241D02*
X80903570Y-63339241D01*
X77740627Y-62789241D02*
X79818570Y-62789241D01*
X79818570Y-62789241D02*
X80368570Y-63339241D01*
X83053570Y-60764241D02*
X81903570Y-59614241D01*
X81903570Y-59614241D02*
X74838570Y-59614241D01*
X74838570Y-59614241D02*
X74428570Y-60024241D01*
X83053570Y-62189241D02*
X83053570Y-60764241D01*
X77528570Y-62389241D02*
X76536413Y-63381398D01*
X75083570Y-70184241D02*
X74393570Y-70184241D01*
X80453570Y-62389241D02*
X77528570Y-62389241D01*
X76536413Y-63381398D02*
X76536413Y-68731398D01*
X80903570Y-62839241D02*
X80453570Y-62389241D01*
X76536413Y-68731398D02*
X75083570Y-70184241D01*
X77803570Y-72734241D02*
X75273570Y-75264241D01*
X75273570Y-75264241D02*
X74393570Y-75264241D01*
X77803570Y-66939241D02*
X77803570Y-72734241D01*
X77853570Y-65389241D02*
X77853570Y-66889241D01*
X77853570Y-66889241D02*
X77803570Y-66939241D01*
X89928570Y-70014241D02*
X90823570Y-69119241D01*
X90823570Y-69119241D02*
X90823570Y-63454241D01*
X90823570Y-63454241D02*
X91713570Y-62564241D01*
X91713570Y-62564241D02*
X92993570Y-62564241D01*
X91223570Y-62194241D02*
X91223570Y-60709241D01*
X89903570Y-65364241D02*
X89903570Y-63514241D01*
X91908570Y-60024241D02*
X92993570Y-60024241D01*
X89903570Y-63514241D02*
X91223570Y-62194241D01*
X91223570Y-60709241D02*
X91908570Y-60024241D01*
X80536218Y-55414241D02*
X81386218Y-55414241D01*
X81386218Y-55414241D02*
X81861218Y-55889241D01*
X91273570Y-55764241D02*
X91273570Y-56944241D01*
X84934747Y-55914241D02*
X85645041Y-55914241D01*
X85645041Y-55914241D02*
X86565041Y-54994241D01*
X81836218Y-54364241D02*
X82811218Y-55339241D01*
X86565041Y-54994241D02*
X90503570Y-54994241D01*
X81286218Y-54914241D02*
X81836218Y-54364241D01*
X82811218Y-55339241D02*
X82811218Y-56376889D01*
X82811218Y-56376889D02*
X83098570Y-56664241D01*
X83098570Y-56664241D02*
X84184747Y-56664241D01*
X90503570Y-54994241D02*
X91273570Y-55764241D01*
X91813570Y-57484241D02*
X92993570Y-57484241D01*
X80536218Y-54914241D02*
X81286218Y-54914241D01*
X91273570Y-56944241D02*
X91813570Y-57484241D01*
X84184747Y-56664241D02*
X84934747Y-55914241D01*
D17*
X79536218Y-53276741D02*
X80173718Y-52639241D01*
X79536218Y-54414241D02*
X79536218Y-53276741D01*
G04 #@! TA.AperFunction,Conductor*
G36*
X78671902Y-67639078D02*
G01*
X78716250Y-67667579D01*
X78818381Y-67769710D01*
X78818383Y-67769711D01*
X78818385Y-67769713D01*
X78963964Y-67857719D01*
X79126374Y-67908327D01*
X79196954Y-67914741D01*
X79196957Y-67914741D01*
X79508784Y-67914741D01*
X79514608Y-67916451D01*
X79520570Y-67915302D01*
X79547745Y-67926181D01*
X79575823Y-67934426D01*
X79579797Y-67939013D01*
X79585435Y-67941270D01*
X79602415Y-67965115D01*
X79621578Y-67987230D01*
X79622441Y-67993237D01*
X79625964Y-67998184D01*
X79627356Y-68027420D01*
X79631522Y-68056388D01*
X79629073Y-68063461D01*
X79629289Y-68067975D01*
X79616171Y-68100741D01*
X79598760Y-68130898D01*
X79568993Y-68182456D01*
X79528069Y-68335184D01*
X79528069Y-68335186D01*
X79528069Y-68389236D01*
X79526986Y-68392922D01*
X79527846Y-68396666D01*
X79517220Y-68426182D01*
X79508384Y-68456275D01*
X79505104Y-68459838D01*
X79504180Y-68462406D01*
X79494529Y-68471328D01*
X79479510Y-68487646D01*
X79474508Y-68491480D01*
X79450526Y-68506273D01*
X79435135Y-68521663D01*
X79428657Y-68526630D01*
X79403365Y-68536394D01*
X79379570Y-68549387D01*
X79371255Y-68548792D01*
X79363477Y-68551795D01*
X79336918Y-68546334D01*
X79309878Y-68544400D01*
X79301586Y-68539071D01*
X79295038Y-68537725D01*
X79286485Y-68529365D01*
X79265535Y-68515901D01*
X79256302Y-68506668D01*
X79256298Y-68506665D01*
X79112062Y-68417698D01*
X79112051Y-68417693D01*
X78951176Y-68364385D01*
X78851892Y-68354241D01*
X78828570Y-68354241D01*
X78828570Y-71814240D01*
X78851878Y-71814240D01*
X78851892Y-71814239D01*
X78951177Y-71804096D01*
X79112051Y-71750788D01*
X79112058Y-71750785D01*
X79188972Y-71703343D01*
X79256364Y-71684902D01*
X79323028Y-71705824D01*
X79367798Y-71759465D01*
X79378070Y-71808881D01*
X79378070Y-73759637D01*
X79368632Y-73807085D01*
X79358833Y-73830744D01*
X79358832Y-73830747D01*
X79358830Y-73830752D01*
X79328070Y-73985394D01*
X79328070Y-74143087D01*
X79358831Y-74297730D01*
X79358834Y-74297742D01*
X79419172Y-74443413D01*
X79419179Y-74443426D01*
X79506780Y-74574529D01*
X79506783Y-74574533D01*
X79618277Y-74686027D01*
X79618281Y-74686030D01*
X79749384Y-74773631D01*
X79749397Y-74773638D01*
X79895068Y-74833976D01*
X79895073Y-74833978D01*
X80049723Y-74864740D01*
X80049726Y-74864741D01*
X80049728Y-74864741D01*
X80207414Y-74864741D01*
X80207415Y-74864740D01*
X80362067Y-74833978D01*
X80507749Y-74773635D01*
X80638859Y-74686030D01*
X80750359Y-74574530D01*
X80837964Y-74443420D01*
X80898307Y-74297738D01*
X80929070Y-74143083D01*
X80929070Y-73985399D01*
X80929070Y-73985396D01*
X80929069Y-73985394D01*
X80898309Y-73830752D01*
X80898308Y-73830749D01*
X80898307Y-73830744D01*
X80888507Y-73807085D01*
X80879070Y-73759637D01*
X80879070Y-71839722D01*
X80898755Y-71772683D01*
X80951559Y-71726928D01*
X81020717Y-71716984D01*
X81068168Y-71734184D01*
X81095082Y-71750785D01*
X81095088Y-71750788D01*
X81255963Y-71804096D01*
X81355253Y-71814240D01*
X81378570Y-71814239D01*
X81378570Y-68354240D01*
X81355263Y-68354241D01*
X81355237Y-68354243D01*
X81348425Y-68354939D01*
X81279733Y-68342168D01*
X81228849Y-68294287D01*
X81211930Y-68226496D01*
X81234347Y-68160321D01*
X81248142Y-68143903D01*
X81565986Y-67826060D01*
X81590191Y-67812843D01*
X81612590Y-67796742D01*
X81622893Y-67794985D01*
X81627309Y-67792575D01*
X81647216Y-67789909D01*
X81650441Y-67789741D01*
X81688948Y-67789741D01*
X81718451Y-67786198D01*
X81722618Y-67785981D01*
X81752702Y-67793137D01*
X81783191Y-67798248D01*
X81786388Y-67801151D01*
X81790591Y-67802151D01*
X81812027Y-67824433D01*
X81834916Y-67845218D01*
X81836110Y-67849466D01*
X81839031Y-67852503D01*
X81843907Y-67877213D01*
X81853069Y-67909813D01*
X81853069Y-68066824D01*
X81853068Y-68066824D01*
X81893993Y-68219554D01*
X81897102Y-68227059D01*
X81893866Y-68228399D01*
X81906544Y-68280674D01*
X81883686Y-68346699D01*
X81878570Y-68352746D01*
X81878570Y-68575974D01*
X81870650Y-68615790D01*
X81871097Y-68615910D01*
X81869270Y-68622725D01*
X81869132Y-68623423D01*
X81868995Y-68623752D01*
X81868993Y-68623760D01*
X81828069Y-68776488D01*
X81828069Y-68776490D01*
X81828069Y-68944591D01*
X81828070Y-68944604D01*
X81828070Y-73112571D01*
X81828069Y-73112589D01*
X81828069Y-73278295D01*
X81828068Y-73278295D01*
X81868993Y-73431026D01*
X81897928Y-73481141D01*
X81897929Y-73481145D01*
X81897930Y-73481145D01*
X81948015Y-73567897D01*
X81948049Y-73567955D01*
X81948051Y-73567958D01*
X82066919Y-73686826D01*
X82066925Y-73686831D01*
X82678709Y-74298615D01*
X82678719Y-74298626D01*
X82683049Y-74302956D01*
X82683050Y-74302957D01*
X82794854Y-74414761D01*
X82855189Y-74449595D01*
X82931785Y-74493818D01*
X83084513Y-74534742D01*
X83084516Y-74534742D01*
X83250223Y-74534742D01*
X83250239Y-74534741D01*
X90006901Y-74534741D01*
X90006917Y-74534742D01*
X90014513Y-74534742D01*
X90172624Y-74534742D01*
X90172627Y-74534742D01*
X90325355Y-74493818D01*
X90401951Y-74449595D01*
X90462286Y-74414761D01*
X90574090Y-74302957D01*
X90574090Y-74302955D01*
X90584294Y-74292752D01*
X90584297Y-74292747D01*
X91475986Y-73401060D01*
X91537309Y-73367575D01*
X91563667Y-73364741D01*
X91831344Y-73364741D01*
X91898383Y-73384426D01*
X91936881Y-73423642D01*
X92025858Y-73567897D01*
X92149914Y-73691953D01*
X92299236Y-73784055D01*
X92465773Y-73839240D01*
X92568561Y-73849741D01*
X92850103Y-73849740D01*
X92871349Y-73855978D01*
X92893436Y-73857558D01*
X92904217Y-73865629D01*
X92917142Y-73869424D01*
X92931644Y-73886160D01*
X92949369Y-73899429D01*
X92959981Y-73918863D01*
X92962897Y-73922228D01*
X92966284Y-73930405D01*
X92974197Y-73951620D01*
X92979182Y-74021312D01*
X92974196Y-74038292D01*
X92966629Y-74058578D01*
X92924756Y-74114510D01*
X92859291Y-74138925D01*
X92850449Y-74139241D01*
X92568599Y-74139241D01*
X92568582Y-74139242D01*
X92465872Y-74149735D01*
X92299448Y-74204883D01*
X92299443Y-74204885D01*
X92292221Y-74209339D01*
X92292220Y-74209340D01*
X92972121Y-74889241D01*
X92944200Y-74889241D01*
X92848825Y-74914797D01*
X92763315Y-74964166D01*
X92693495Y-75033986D01*
X92644126Y-75119496D01*
X92618570Y-75214871D01*
X92618570Y-75242792D01*
X91938669Y-74562891D01*
X91938668Y-74562892D01*
X91934214Y-74570114D01*
X91934212Y-74570118D01*
X91879064Y-74736543D01*
X91879063Y-74736550D01*
X91868570Y-74839254D01*
X91868570Y-75689212D01*
X91868571Y-75689228D01*
X91879063Y-75791936D01*
X91905176Y-75870736D01*
X91907578Y-75940565D01*
X91871847Y-76000607D01*
X91809326Y-76031800D01*
X91787470Y-76033741D01*
X75604532Y-76033741D01*
X75601602Y-76032880D01*
X75598634Y-76033601D01*
X75568284Y-76023097D01*
X75537493Y-76014056D01*
X75535494Y-76011749D01*
X75532607Y-76010750D01*
X75512753Y-75985504D01*
X75491738Y-75961252D01*
X75491303Y-75958230D01*
X75489415Y-75955829D01*
X75486361Y-75923862D01*
X75481794Y-75892094D01*
X75483062Y-75889316D01*
X75482772Y-75886276D01*
X75497484Y-75857736D01*
X75510819Y-75828538D01*
X75513809Y-75826068D01*
X75514787Y-75824173D01*
X75542530Y-75802355D01*
X75560397Y-75792039D01*
X75560399Y-75792038D01*
X75642286Y-75744761D01*
X75754090Y-75632957D01*
X75754090Y-75632955D01*
X75764294Y-75622752D01*
X75764298Y-75622747D01*
X78162076Y-73224969D01*
X78162081Y-73224965D01*
X78172284Y-73214761D01*
X78172286Y-73214761D01*
X78284090Y-73102957D01*
X78345827Y-72996025D01*
X78363147Y-72966026D01*
X78404070Y-72813299D01*
X78404070Y-72655184D01*
X78404070Y-67855760D01*
X78412715Y-67826316D01*
X78419238Y-67796334D01*
X78422992Y-67791318D01*
X78423755Y-67788721D01*
X78440383Y-67768084D01*
X78540891Y-67667576D01*
X78602210Y-67634094D01*
X78671902Y-67639078D01*
G37*
G04 #@! TD.AperFunction*
G04 #@! TA.AperFunction,Conductor*
G36*
X77122404Y-71277155D02*
G01*
X77178337Y-71319027D01*
X77202754Y-71384491D01*
X77203070Y-71393337D01*
X77203070Y-72434143D01*
X77183385Y-72501182D01*
X77166751Y-72521824D01*
X75401713Y-74286861D01*
X75340390Y-74320346D01*
X75270698Y-74315362D01*
X75243534Y-74300059D01*
X75243373Y-74300321D01*
X75237227Y-74296530D01*
X75237226Y-74296529D01*
X75135934Y-74234052D01*
X75087906Y-74204428D01*
X75087901Y-74204426D01*
X75086432Y-74203939D01*
X74921367Y-74149242D01*
X74921365Y-74149241D01*
X74818586Y-74138741D01*
X74818579Y-74138741D01*
X74537036Y-74138741D01*
X74515790Y-74132502D01*
X74493702Y-74130923D01*
X74482918Y-74122850D01*
X74469997Y-74119056D01*
X74455497Y-74102322D01*
X74437769Y-74089051D01*
X74427155Y-74069614D01*
X74424242Y-74066252D01*
X74420854Y-74058074D01*
X74413208Y-74037574D01*
X74408224Y-73967882D01*
X74413209Y-73950905D01*
X74420856Y-73930404D01*
X74462729Y-73874471D01*
X74528194Y-73850056D01*
X74537037Y-73849740D01*
X74818572Y-73849740D01*
X74818578Y-73849740D01*
X74921367Y-73839240D01*
X75087904Y-73784055D01*
X75237226Y-73691953D01*
X75361282Y-73567897D01*
X75453384Y-73418575D01*
X75508569Y-73252038D01*
X75519070Y-73149250D01*
X75519069Y-72829336D01*
X75538753Y-72762298D01*
X75555383Y-72741661D01*
X76991390Y-71305654D01*
X77052712Y-71272171D01*
X77122404Y-71277155D01*
G37*
G04 #@! TD.AperFunction*
G04 #@! TA.AperFunction,Conductor*
G36*
X86496109Y-70208926D02*
G01*
X86541864Y-70261730D01*
X86553070Y-70313241D01*
X86553070Y-70667571D01*
X86553069Y-70667589D01*
X86553069Y-70675184D01*
X86553069Y-70833298D01*
X86565201Y-70878575D01*
X86574345Y-70912699D01*
X86578570Y-70944793D01*
X86578570Y-71590241D01*
X86558885Y-71657280D01*
X86506081Y-71703035D01*
X86454570Y-71714241D01*
X86202570Y-71714241D01*
X86135531Y-71694556D01*
X86089776Y-71641752D01*
X86078570Y-71590241D01*
X86078570Y-70313241D01*
X86081120Y-70304555D01*
X86079832Y-70295594D01*
X86090810Y-70271553D01*
X86098255Y-70246202D01*
X86105095Y-70240274D01*
X86108857Y-70232038D01*
X86131091Y-70217748D01*
X86151059Y-70200447D01*
X86161573Y-70198159D01*
X86167635Y-70194264D01*
X86202570Y-70189241D01*
X86429070Y-70189241D01*
X86496109Y-70208926D01*
G37*
G04 #@! TD.AperFunction*
G04 #@! TA.AperFunction,Conductor*
G36*
X75119877Y-71309823D02*
G01*
X75151070Y-71372343D01*
X75143511Y-71441803D01*
X75116693Y-71481881D01*
X75024698Y-71573876D01*
X74963375Y-71607361D01*
X74924415Y-71609553D01*
X74818588Y-71598741D01*
X74818579Y-71598741D01*
X74537036Y-71598741D01*
X74515790Y-71592502D01*
X74493702Y-71590923D01*
X74482918Y-71582850D01*
X74469997Y-71579056D01*
X74455497Y-71562322D01*
X74437769Y-71549051D01*
X74427155Y-71529614D01*
X74424242Y-71526252D01*
X74420854Y-71518074D01*
X74413208Y-71497574D01*
X74408224Y-71427882D01*
X74413209Y-71410905D01*
X74420856Y-71390404D01*
X74462729Y-71334471D01*
X74528194Y-71310056D01*
X74537037Y-71309740D01*
X74818572Y-71309740D01*
X74818578Y-71309740D01*
X74921367Y-71299240D01*
X74990010Y-71276493D01*
X75059835Y-71274092D01*
X75119877Y-71309823D01*
G37*
G04 #@! TD.AperFunction*
G04 #@! TA.AperFunction,Conductor*
G36*
X92871348Y-71315978D02*
G01*
X92893432Y-71317557D01*
X92904216Y-71325629D01*
X92917142Y-71329425D01*
X92931640Y-71346157D01*
X92949367Y-71359426D01*
X92959983Y-71378866D01*
X92962897Y-71382229D01*
X92966283Y-71390402D01*
X92973930Y-71410903D01*
X92978917Y-71480593D01*
X92973931Y-71497576D01*
X92966284Y-71518077D01*
X92924411Y-71574010D01*
X92858946Y-71598425D01*
X92850103Y-71598741D01*
X92568569Y-71598741D01*
X92568545Y-71598743D01*
X92547467Y-71600896D01*
X92478774Y-71588125D01*
X92427891Y-71540243D01*
X92410972Y-71472453D01*
X92433389Y-71406277D01*
X92447181Y-71389863D01*
X92490987Y-71346057D01*
X92552308Y-71312574D01*
X92578656Y-71309740D01*
X92850103Y-71309740D01*
X92871348Y-71315978D01*
G37*
G04 #@! TD.AperFunction*
G04 #@! TA.AperFunction,Conductor*
G36*
X75855247Y-67854312D02*
G01*
X75911180Y-67896184D01*
X75935597Y-67961648D01*
X75935913Y-67970494D01*
X75935913Y-68431300D01*
X75916228Y-68498339D01*
X75899594Y-68518981D01*
X75284796Y-69133779D01*
X75223473Y-69167264D01*
X75153781Y-69162280D01*
X75132019Y-69151637D01*
X75087910Y-69124430D01*
X75087905Y-69124428D01*
X75087904Y-69124427D01*
X74921367Y-69069242D01*
X74921365Y-69069241D01*
X74818586Y-69058741D01*
X74818579Y-69058741D01*
X74537036Y-69058741D01*
X74515790Y-69052502D01*
X74493702Y-69050923D01*
X74482918Y-69042850D01*
X74469997Y-69039056D01*
X74455497Y-69022322D01*
X74437769Y-69009051D01*
X74427155Y-68989614D01*
X74424242Y-68986252D01*
X74420854Y-68978074D01*
X74413208Y-68957574D01*
X74408224Y-68887882D01*
X74413209Y-68870905D01*
X74414504Y-68867435D01*
X74420856Y-68850404D01*
X74462729Y-68794471D01*
X74528194Y-68770056D01*
X74537037Y-68769740D01*
X74818572Y-68769740D01*
X74818578Y-68769740D01*
X74921367Y-68759240D01*
X75087904Y-68704055D01*
X75237226Y-68611953D01*
X75361282Y-68487897D01*
X75453384Y-68338575D01*
X75508569Y-68172038D01*
X75512455Y-68133993D01*
X75521749Y-68111214D01*
X75526980Y-68087170D01*
X75537047Y-68073721D01*
X75538850Y-68069303D01*
X75548118Y-68058928D01*
X75594090Y-68012957D01*
X75594091Y-68012954D01*
X75724235Y-67882810D01*
X75785555Y-67849328D01*
X75855247Y-67854312D01*
G37*
G04 #@! TD.AperFunction*
G04 #@! TA.AperFunction,Conductor*
G36*
X92437068Y-68749728D02*
G01*
X92465773Y-68759240D01*
X92568561Y-68769741D01*
X92850103Y-68769740D01*
X92871349Y-68775978D01*
X92893432Y-68777557D01*
X92904214Y-68785628D01*
X92917142Y-68789424D01*
X92931643Y-68806159D01*
X92949367Y-68819426D01*
X92959982Y-68838864D01*
X92962897Y-68842228D01*
X92966283Y-68850402D01*
X92973930Y-68870903D01*
X92978917Y-68940593D01*
X92973931Y-68957576D01*
X92966284Y-68978077D01*
X92924411Y-69034010D01*
X92858946Y-69058425D01*
X92850103Y-69058741D01*
X92568569Y-69058741D01*
X92568550Y-69058742D01*
X92465773Y-69069241D01*
X92465772Y-69069242D01*
X92437072Y-69078752D01*
X92408608Y-69079730D01*
X92380423Y-69083783D01*
X92374142Y-69080914D01*
X92367244Y-69081152D01*
X92342772Y-69066588D01*
X92316867Y-69054758D01*
X92313134Y-69048950D01*
X92307202Y-69045420D01*
X92294487Y-69019935D01*
X92279093Y-68995980D01*
X92277698Y-68986281D01*
X92276011Y-68982899D01*
X92274070Y-68961045D01*
X92274070Y-68867435D01*
X92293755Y-68800396D01*
X92346559Y-68754641D01*
X92415717Y-68744697D01*
X92437068Y-68749728D01*
G37*
G04 #@! TD.AperFunction*
G04 #@! TA.AperFunction,Conductor*
G36*
X90096609Y-66933926D02*
G01*
X90142364Y-66986730D01*
X90153570Y-67038241D01*
X90153570Y-68315241D01*
X90133885Y-68382280D01*
X90081081Y-68428035D01*
X90029570Y-68439241D01*
X89777570Y-68439241D01*
X89710531Y-68419556D01*
X89664776Y-68366752D01*
X89653570Y-68315241D01*
X89653570Y-67038241D01*
X89673255Y-66971202D01*
X89726059Y-66925447D01*
X89777570Y-66914241D01*
X90029570Y-66914241D01*
X90096609Y-66933926D01*
G37*
G04 #@! TD.AperFunction*
G04 #@! TA.AperFunction,Conductor*
G36*
X92069477Y-66031836D02*
G01*
X92095837Y-66033722D01*
X92104890Y-66039540D01*
X92111930Y-66041072D01*
X92140184Y-66062223D01*
X92149914Y-66071953D01*
X92299236Y-66164055D01*
X92465773Y-66219240D01*
X92568561Y-66229741D01*
X92850103Y-66229740D01*
X92871349Y-66235978D01*
X92893432Y-66237557D01*
X92904214Y-66245628D01*
X92917142Y-66249424D01*
X92931643Y-66266159D01*
X92949367Y-66279426D01*
X92959982Y-66298864D01*
X92962897Y-66302228D01*
X92966283Y-66310402D01*
X92973930Y-66330903D01*
X92978917Y-66400593D01*
X92973931Y-66417576D01*
X92966284Y-66438077D01*
X92924411Y-66494010D01*
X92858946Y-66518425D01*
X92850103Y-66518741D01*
X92568569Y-66518741D01*
X92568550Y-66518742D01*
X92465773Y-66529241D01*
X92465770Y-66529242D01*
X92299238Y-66584426D01*
X92299233Y-66584428D01*
X92149912Y-66676530D01*
X92055751Y-66770692D01*
X91994428Y-66804177D01*
X91924736Y-66799193D01*
X91868803Y-66757321D01*
X91844386Y-66691857D01*
X91844070Y-66683011D01*
X91844070Y-66234337D01*
X91863755Y-66167298D01*
X91880385Y-66146660D01*
X91964822Y-66062222D01*
X91972767Y-66057884D01*
X91978193Y-66050637D01*
X92002952Y-66041402D01*
X92026145Y-66028738D01*
X92035174Y-66029383D01*
X92043657Y-66026220D01*
X92069477Y-66031836D01*
G37*
G04 #@! TD.AperFunction*
G04 #@! TA.AperFunction,Conductor*
G36*
X75387404Y-66024289D02*
G01*
X75443337Y-66066161D01*
X75467754Y-66131625D01*
X75468070Y-66140471D01*
X75468070Y-66389143D01*
X75448385Y-66456182D01*
X75431751Y-66476825D01*
X75303351Y-66605224D01*
X75242028Y-66638708D01*
X75172336Y-66633724D01*
X75150574Y-66623081D01*
X75087910Y-66584431D01*
X75087904Y-66584427D01*
X74921367Y-66529242D01*
X74921365Y-66529241D01*
X74818586Y-66518741D01*
X74818579Y-66518741D01*
X74537036Y-66518741D01*
X74515790Y-66512502D01*
X74493702Y-66510923D01*
X74482918Y-66502850D01*
X74469997Y-66499056D01*
X74455497Y-66482322D01*
X74437769Y-66469051D01*
X74427155Y-66449614D01*
X74424242Y-66446252D01*
X74420854Y-66438074D01*
X74413208Y-66417574D01*
X74408224Y-66347882D01*
X74413209Y-66330905D01*
X74420856Y-66310404D01*
X74462729Y-66254471D01*
X74528194Y-66230056D01*
X74537037Y-66229740D01*
X74818572Y-66229740D01*
X74818578Y-66229740D01*
X74921367Y-66219240D01*
X75087904Y-66164055D01*
X75237226Y-66071953D01*
X75256389Y-66052790D01*
X75317712Y-66019305D01*
X75387404Y-66024289D01*
G37*
G04 #@! TD.AperFunction*
G04 #@! TA.AperFunction,Conductor*
G36*
X91916673Y-63299706D02*
G01*
X91928973Y-63300586D01*
X91947590Y-63314522D01*
X91968563Y-63324574D01*
X91981129Y-63339630D01*
X91984906Y-63342458D01*
X91991175Y-63351666D01*
X92025858Y-63407897D01*
X92149914Y-63531953D01*
X92299236Y-63624055D01*
X92465773Y-63679240D01*
X92568561Y-63689741D01*
X92850103Y-63689740D01*
X92871349Y-63695978D01*
X92893432Y-63697557D01*
X92904214Y-63705628D01*
X92917142Y-63709424D01*
X92931643Y-63726159D01*
X92949367Y-63739426D01*
X92959982Y-63758864D01*
X92962897Y-63762228D01*
X92966283Y-63770402D01*
X92973930Y-63790903D01*
X92978917Y-63860593D01*
X92973931Y-63877576D01*
X92966284Y-63898077D01*
X92924411Y-63954010D01*
X92858946Y-63978425D01*
X92850103Y-63978741D01*
X92568569Y-63978741D01*
X92568550Y-63978742D01*
X92465773Y-63989241D01*
X92465770Y-63989242D01*
X92299238Y-64044426D01*
X92299233Y-64044428D01*
X92149912Y-64136530D01*
X92025859Y-64260583D01*
X91933754Y-64409909D01*
X91914471Y-64468100D01*
X91874697Y-64525545D01*
X91844233Y-64543649D01*
X91841793Y-64544659D01*
X91806242Y-64565185D01*
X91806241Y-64565184D01*
X91704857Y-64623718D01*
X91704852Y-64623722D01*
X91635751Y-64692824D01*
X91574428Y-64726309D01*
X91504736Y-64721325D01*
X91448803Y-64679453D01*
X91424386Y-64613989D01*
X91424070Y-64605143D01*
X91424070Y-63754337D01*
X91443755Y-63687298D01*
X91460385Y-63666660D01*
X91797958Y-63329086D01*
X91818369Y-63317941D01*
X91836225Y-63303039D01*
X91848460Y-63301510D01*
X91859281Y-63295602D01*
X91882477Y-63297260D01*
X91905555Y-63294378D01*
X91916673Y-63299706D01*
G37*
G04 #@! TD.AperFunction*
G04 #@! TA.AperFunction,Conductor*
G36*
X78537032Y-63409426D02*
G01*
X78582787Y-63462230D01*
X78591611Y-63489553D01*
X78601478Y-63539164D01*
X78595249Y-63608755D01*
X78567541Y-63651033D01*
X78284856Y-63933719D01*
X78173051Y-64045523D01*
X78173049Y-64045526D01*
X78133296Y-64114381D01*
X78133294Y-64114384D01*
X78127954Y-64123635D01*
X78093993Y-64182456D01*
X78055201Y-64327224D01*
X78053283Y-64332454D01*
X78035681Y-64356230D01*
X78020282Y-64381495D01*
X78015122Y-64384001D01*
X78011711Y-64388610D01*
X77984047Y-64399096D01*
X77957435Y-64412024D01*
X77947828Y-64412826D01*
X77946378Y-64413376D01*
X77944926Y-64413068D01*
X77936872Y-64413741D01*
X77798070Y-64413741D01*
X77731031Y-64394056D01*
X77685276Y-64341252D01*
X77674070Y-64289741D01*
X77674070Y-63756395D01*
X77693755Y-63689356D01*
X77710389Y-63668714D01*
X77953043Y-63426060D01*
X78014366Y-63392575D01*
X78040724Y-63389741D01*
X78469993Y-63389741D01*
X78537032Y-63409426D01*
G37*
G04 #@! TD.AperFunction*
G04 #@! TA.AperFunction,Conductor*
G36*
X74921541Y-63683563D02*
G01*
X74936717Y-63681381D01*
X74955192Y-63689818D01*
X74975160Y-63693530D01*
X74986325Y-63704036D01*
X75000273Y-63710406D01*
X75011254Y-63727493D01*
X75026045Y-63741411D01*
X75030321Y-63757162D01*
X75038047Y-63769184D01*
X75043070Y-63804119D01*
X75043070Y-63864361D01*
X75023385Y-63931400D01*
X74970581Y-63977155D01*
X74906468Y-63987719D01*
X74818588Y-63978741D01*
X74818579Y-63978741D01*
X74537036Y-63978741D01*
X74515790Y-63972502D01*
X74493702Y-63970923D01*
X74482918Y-63962850D01*
X74469997Y-63959056D01*
X74455497Y-63942322D01*
X74437769Y-63929051D01*
X74427155Y-63909614D01*
X74424242Y-63906252D01*
X74420854Y-63898074D01*
X74413208Y-63877574D01*
X74408224Y-63807882D01*
X74413209Y-63790905D01*
X74420856Y-63770404D01*
X74462729Y-63714471D01*
X74528194Y-63690056D01*
X74537037Y-63689740D01*
X74818572Y-63689740D01*
X74818578Y-63689740D01*
X74906470Y-63680761D01*
X74921541Y-63683563D01*
G37*
G04 #@! TD.AperFunction*
G04 #@! TA.AperFunction,Conductor*
G36*
X86623883Y-61335073D02*
G01*
X86647774Y-61336782D01*
X86657072Y-61343742D01*
X86668311Y-61346678D01*
X86684533Y-61364299D01*
X86703709Y-61378653D01*
X86708056Y-61389849D01*
X86715635Y-61398081D01*
X86719217Y-61418589D01*
X86726442Y-61437196D01*
X86726881Y-61437109D01*
X86727376Y-61439601D01*
X86727846Y-61440810D01*
X86728070Y-61443088D01*
X86758831Y-61597730D01*
X86758834Y-61597742D01*
X86819172Y-61743413D01*
X86819179Y-61743426D01*
X86906780Y-61874529D01*
X86906783Y-61874533D01*
X87018277Y-61986027D01*
X87018281Y-61986030D01*
X87056607Y-62011639D01*
X87101412Y-62065251D01*
X87110119Y-62134576D01*
X87079965Y-62197604D01*
X87020522Y-62234323D01*
X86987716Y-62238741D01*
X86160343Y-62238741D01*
X86114854Y-62230096D01*
X86112133Y-62229023D01*
X86099403Y-62224003D01*
X86013948Y-62213741D01*
X85802570Y-62213741D01*
X85735531Y-62194056D01*
X85689776Y-62141252D01*
X85678570Y-62089741D01*
X85678570Y-61878903D01*
X85668318Y-61793528D01*
X85641131Y-61724587D01*
X85639426Y-61705703D01*
X85632802Y-61687941D01*
X85636350Y-61671628D01*
X85634850Y-61655000D01*
X85643624Y-61638193D01*
X85647655Y-61619668D01*
X85666300Y-61594762D01*
X85667187Y-61593064D01*
X85668753Y-61591469D01*
X85693986Y-61566236D01*
X85719165Y-61541058D01*
X85780488Y-61507574D01*
X85806844Y-61504741D01*
X86041901Y-61504741D01*
X86041917Y-61504742D01*
X86049513Y-61504742D01*
X86207624Y-61504742D01*
X86207627Y-61504742D01*
X86360355Y-61463818D01*
X86402300Y-61439601D01*
X86417656Y-61430735D01*
X86417656Y-61430734D01*
X86421856Y-61428310D01*
X86497286Y-61384761D01*
X86524861Y-61357185D01*
X86534293Y-61350715D01*
X86557061Y-61343278D01*
X86578083Y-61331799D01*
X86589668Y-61332627D01*
X86600710Y-61329021D01*
X86623883Y-61335073D01*
G37*
G04 #@! TD.AperFunction*
G04 #@! TA.AperFunction,Conductor*
G36*
X89726109Y-57433926D02*
G01*
X89771864Y-57486730D01*
X89783070Y-57538241D01*
X89783070Y-61256644D01*
X89763385Y-61323683D01*
X89746751Y-61344325D01*
X88888654Y-62202422D01*
X88827331Y-62235907D01*
X88800973Y-62238741D01*
X88069424Y-62238741D01*
X88002385Y-62219056D01*
X87956630Y-62166252D01*
X87946686Y-62097094D01*
X87975711Y-62033538D01*
X88000533Y-62011639D01*
X88013870Y-62002726D01*
X88038859Y-61986030D01*
X88150359Y-61874530D01*
X88237964Y-61743420D01*
X88247423Y-61720585D01*
X88281550Y-61638193D01*
X88298307Y-61597738D01*
X88324946Y-61463817D01*
X88329208Y-61442392D01*
X88337972Y-61425636D01*
X88341992Y-61407158D01*
X88360737Y-61382116D01*
X88361593Y-61380481D01*
X88363143Y-61378903D01*
X88402073Y-61339972D01*
X88402078Y-61339968D01*
X88412284Y-61329761D01*
X88412286Y-61329761D01*
X88524090Y-61217957D01*
X88586313Y-61110183D01*
X88603147Y-61081026D01*
X88644071Y-60928298D01*
X88644071Y-60770184D01*
X88644071Y-60762589D01*
X88644070Y-60762571D01*
X88644070Y-59929245D01*
X88645152Y-59925558D01*
X88644293Y-59921815D01*
X88654918Y-59892298D01*
X88663755Y-59862206D01*
X88667034Y-59858642D01*
X88667959Y-59856075D01*
X88677607Y-59847155D01*
X88692629Y-59830835D01*
X88697620Y-59827008D01*
X88721614Y-59812209D01*
X88737012Y-59796810D01*
X88743482Y-59791851D01*
X88768770Y-59782087D01*
X88792557Y-59769097D01*
X88800877Y-59769691D01*
X88808662Y-59766686D01*
X88835212Y-59772144D01*
X88862249Y-59774076D01*
X88870547Y-59779408D01*
X88877101Y-59780756D01*
X88885657Y-59789119D01*
X88906604Y-59802580D01*
X88915837Y-59811813D01*
X88915841Y-59811816D01*
X89060077Y-59900783D01*
X89060088Y-59900788D01*
X89220963Y-59954096D01*
X89320253Y-59964240D01*
X89343570Y-59964239D01*
X89343570Y-57960603D01*
X89363255Y-57893564D01*
X89368570Y-57886968D01*
X89368570Y-57538241D01*
X89371120Y-57529555D01*
X89369832Y-57520594D01*
X89380810Y-57496553D01*
X89388255Y-57471202D01*
X89395095Y-57465274D01*
X89398857Y-57457038D01*
X89421091Y-57442748D01*
X89441059Y-57425447D01*
X89451573Y-57423159D01*
X89457635Y-57419264D01*
X89492570Y-57414241D01*
X89659070Y-57414241D01*
X89726109Y-57433926D01*
G37*
G04 #@! TD.AperFunction*
G04 #@! TA.AperFunction,Conductor*
G36*
X81670512Y-60234426D02*
G01*
X81691154Y-60251060D01*
X81817154Y-60377060D01*
X81850639Y-60438383D01*
X81845655Y-60508075D01*
X81803783Y-60564008D01*
X81738319Y-60588425D01*
X81729473Y-60588741D01*
X76995240Y-60588741D01*
X76995224Y-60588740D01*
X76987628Y-60588740D01*
X76829513Y-60588740D01*
X76756445Y-60608319D01*
X76676784Y-60629664D01*
X76676779Y-60629667D01*
X76539860Y-60708716D01*
X76539852Y-60708722D01*
X75532317Y-61716258D01*
X75470994Y-61749743D01*
X75401302Y-61744759D01*
X75356955Y-61716258D01*
X75237227Y-61596530D01*
X75237226Y-61596529D01*
X75087904Y-61504427D01*
X74921367Y-61449242D01*
X74921365Y-61449241D01*
X74818586Y-61438741D01*
X74818579Y-61438741D01*
X74537036Y-61438741D01*
X74515790Y-61432502D01*
X74493702Y-61430923D01*
X74482918Y-61422850D01*
X74469997Y-61419056D01*
X74455497Y-61402322D01*
X74437769Y-61389051D01*
X74427155Y-61369614D01*
X74424242Y-61366252D01*
X74420854Y-61358074D01*
X74413207Y-61337573D01*
X74408224Y-61267882D01*
X74413209Y-61250905D01*
X74420856Y-61230404D01*
X74462729Y-61174471D01*
X74528194Y-61150056D01*
X74537037Y-61149740D01*
X74818572Y-61149740D01*
X74818578Y-61149740D01*
X74921367Y-61139240D01*
X75087904Y-61084055D01*
X75237226Y-60991953D01*
X75361282Y-60867897D01*
X75453384Y-60718575D01*
X75508569Y-60552038D01*
X75519070Y-60449250D01*
X75519070Y-60338741D01*
X75538755Y-60271702D01*
X75591559Y-60225947D01*
X75643070Y-60214741D01*
X81603473Y-60214741D01*
X81670512Y-60234426D01*
G37*
G04 #@! TD.AperFunction*
G04 #@! TA.AperFunction,Conductor*
G36*
X91986974Y-60869336D02*
G01*
X92013334Y-60871221D01*
X92022389Y-60877040D01*
X92029430Y-60878572D01*
X92057684Y-60899723D01*
X92149914Y-60991953D01*
X92299236Y-61084055D01*
X92465773Y-61139240D01*
X92568561Y-61149741D01*
X92850103Y-61149740D01*
X92871349Y-61155978D01*
X92893432Y-61157557D01*
X92904214Y-61165628D01*
X92917142Y-61169424D01*
X92931643Y-61186159D01*
X92949367Y-61199426D01*
X92959982Y-61218864D01*
X92962897Y-61222228D01*
X92966283Y-61230402D01*
X92973930Y-61250903D01*
X92978917Y-61320593D01*
X92973931Y-61337576D01*
X92966284Y-61358077D01*
X92924411Y-61414010D01*
X92858946Y-61438425D01*
X92850103Y-61438741D01*
X92568569Y-61438741D01*
X92568550Y-61438742D01*
X92465773Y-61449241D01*
X92465770Y-61449242D01*
X92299238Y-61504426D01*
X92299233Y-61504428D01*
X92149912Y-61596530D01*
X92035751Y-61710692D01*
X91974428Y-61744177D01*
X91904736Y-61739193D01*
X91848803Y-61697321D01*
X91824386Y-61631857D01*
X91824070Y-61623011D01*
X91824070Y-61009338D01*
X91843755Y-60942299D01*
X91860387Y-60921659D01*
X91866191Y-60915854D01*
X91882321Y-60899724D01*
X91890266Y-60895385D01*
X91895693Y-60888137D01*
X91920448Y-60878903D01*
X91943642Y-60866238D01*
X91952674Y-60866883D01*
X91961157Y-60863720D01*
X91986974Y-60869336D01*
G37*
G04 #@! TD.AperFunction*
G04 #@! TA.AperFunction,Conductor*
G36*
X85762249Y-59724076D02*
G01*
X85806604Y-59752580D01*
X85815837Y-59761813D01*
X85815841Y-59761816D01*
X85960077Y-59850783D01*
X85960088Y-59850788D01*
X86049195Y-59880315D01*
X86106640Y-59920087D01*
X86133463Y-59984603D01*
X86121148Y-60053379D01*
X86097873Y-60085702D01*
X86017309Y-60166266D01*
X85916152Y-60267423D01*
X85854832Y-60300907D01*
X85828473Y-60303741D01*
X85427686Y-60303741D01*
X85386765Y-60314705D01*
X85386765Y-60314706D01*
X85349497Y-60324692D01*
X85274960Y-60344664D01*
X85274955Y-60344667D01*
X85138036Y-60423716D01*
X85138028Y-60423722D01*
X84865751Y-60696000D01*
X84804428Y-60729485D01*
X84734736Y-60724501D01*
X84678803Y-60682629D01*
X84654386Y-60617165D01*
X84654070Y-60608319D01*
X84654070Y-60129338D01*
X84662714Y-60099897D01*
X84669238Y-60069911D01*
X84672992Y-60064895D01*
X84673755Y-60062299D01*
X84690389Y-60041657D01*
X84780987Y-59951059D01*
X84842310Y-59917574D01*
X84868668Y-59914740D01*
X85216908Y-59914740D01*
X85216914Y-59914740D01*
X85216922Y-59914739D01*
X85216925Y-59914739D01*
X85271330Y-59909181D01*
X85316278Y-59904590D01*
X85477267Y-59851244D01*
X85621614Y-59762209D01*
X85631238Y-59752584D01*
X85692557Y-59719097D01*
X85762249Y-59724076D01*
G37*
G04 #@! TD.AperFunction*
G04 #@! TA.AperFunction,Conductor*
G36*
X91542794Y-58029926D02*
G01*
X91547309Y-58029712D01*
X91580073Y-58042829D01*
X91581785Y-58043818D01*
X91734512Y-58084741D01*
X91734513Y-58084741D01*
X91813121Y-58084741D01*
X91880160Y-58104426D01*
X91925915Y-58157230D01*
X91930826Y-58169734D01*
X91933756Y-58178575D01*
X92025858Y-58327897D01*
X92149914Y-58451953D01*
X92299236Y-58544055D01*
X92465773Y-58599240D01*
X92568561Y-58609741D01*
X92850103Y-58609740D01*
X92871349Y-58615978D01*
X92893432Y-58617557D01*
X92904214Y-58625628D01*
X92917142Y-58629424D01*
X92931643Y-58646159D01*
X92949367Y-58659426D01*
X92959982Y-58678864D01*
X92962897Y-58682228D01*
X92966283Y-58690402D01*
X92966468Y-58690897D01*
X92973930Y-58710903D01*
X92978917Y-58780593D01*
X92973931Y-58797576D01*
X92966284Y-58818077D01*
X92924411Y-58874010D01*
X92858946Y-58898425D01*
X92850103Y-58898741D01*
X92568569Y-58898741D01*
X92568550Y-58898742D01*
X92465773Y-58909241D01*
X92465770Y-58909242D01*
X92299238Y-58964426D01*
X92299233Y-58964428D01*
X92149912Y-59056530D01*
X92025859Y-59180583D01*
X91933754Y-59329910D01*
X91930448Y-59339887D01*
X91890674Y-59397330D01*
X91837017Y-59420351D01*
X91837362Y-59421638D01*
X91829513Y-59423741D01*
X91829512Y-59423741D01*
X91676785Y-59464664D01*
X91676784Y-59464664D01*
X91676782Y-59464665D01*
X91676779Y-59464666D01*
X91626666Y-59493600D01*
X91626665Y-59493601D01*
X91591121Y-59514122D01*
X91580069Y-59520503D01*
X91512169Y-59536974D01*
X91446142Y-59514122D01*
X91402952Y-59459200D01*
X91394070Y-59413115D01*
X91394070Y-58150215D01*
X91395781Y-58144387D01*
X91394632Y-58138423D01*
X91405511Y-58111250D01*
X91413755Y-58083176D01*
X91418344Y-58079199D01*
X91420602Y-58073560D01*
X91444447Y-58056581D01*
X91466559Y-58037421D01*
X91472569Y-58036556D01*
X91477518Y-58033033D01*
X91506750Y-58031641D01*
X91535717Y-58027477D01*
X91542794Y-58029926D01*
G37*
G04 #@! TD.AperFunction*
G04 #@! TA.AperFunction,Conductor*
G36*
X83971703Y-57804426D02*
G01*
X84017458Y-57857230D01*
X84022369Y-57869735D01*
X84027278Y-57884549D01*
X84056566Y-57972935D01*
X84056571Y-57972946D01*
X84142122Y-58111644D01*
X84160563Y-58179036D01*
X84142122Y-58241838D01*
X84056571Y-58380535D01*
X84056566Y-58380546D01*
X84003221Y-58541531D01*
X83993070Y-58640888D01*
X83993070Y-58989143D01*
X83984425Y-59018580D01*
X83977902Y-59048571D01*
X83974147Y-59053586D01*
X83973385Y-59056182D01*
X83956750Y-59076825D01*
X83908749Y-59124825D01*
X83847426Y-59158309D01*
X83777734Y-59153324D01*
X83733388Y-59124824D01*
X82761160Y-58152596D01*
X82761158Y-58152593D01*
X82642287Y-58033722D01*
X82642286Y-58033721D01*
X82611814Y-58016128D01*
X82563599Y-57965562D01*
X82550375Y-57896955D01*
X82576343Y-57832090D01*
X82633257Y-57791561D01*
X82673814Y-57784741D01*
X83904664Y-57784741D01*
X83971703Y-57804426D01*
G37*
G04 #@! TD.AperFunction*
G04 #@! TA.AperFunction,Conductor*
G36*
X75780512Y-58104426D02*
G01*
X75801154Y-58121060D01*
X76058709Y-58378615D01*
X76058719Y-58378626D01*
X76063049Y-58382956D01*
X76063050Y-58382957D01*
X76174854Y-58494761D01*
X76239553Y-58532114D01*
X76261665Y-58544880D01*
X76261667Y-58544882D01*
X76299721Y-58566852D01*
X76311785Y-58573818D01*
X76464513Y-58614741D01*
X76622627Y-58614741D01*
X78703473Y-58614741D01*
X78732913Y-58623385D01*
X78762900Y-58629909D01*
X78767915Y-58633663D01*
X78770512Y-58634426D01*
X78791154Y-58651060D01*
X78942154Y-58802060D01*
X78975639Y-58863383D01*
X78970655Y-58933075D01*
X78928783Y-58989008D01*
X78863319Y-59013425D01*
X78854473Y-59013741D01*
X75203022Y-59013741D01*
X75137926Y-58995280D01*
X75087910Y-58964431D01*
X75087904Y-58964427D01*
X74921367Y-58909242D01*
X74921365Y-58909241D01*
X74818586Y-58898741D01*
X74818579Y-58898741D01*
X74537036Y-58898741D01*
X74515790Y-58892502D01*
X74493702Y-58890923D01*
X74482918Y-58882850D01*
X74469997Y-58879056D01*
X74455497Y-58862322D01*
X74437769Y-58849051D01*
X74427155Y-58829614D01*
X74424242Y-58826252D01*
X74420854Y-58818074D01*
X74413207Y-58797573D01*
X74408224Y-58727882D01*
X74413209Y-58710905D01*
X74420856Y-58690404D01*
X74462729Y-58634471D01*
X74528194Y-58610056D01*
X74537037Y-58609740D01*
X74818572Y-58609740D01*
X74818578Y-58609740D01*
X74921367Y-58599240D01*
X75087904Y-58544055D01*
X75237226Y-58451953D01*
X75361282Y-58327897D01*
X75453384Y-58178575D01*
X75456314Y-58169734D01*
X75470184Y-58149702D01*
X75480306Y-58127538D01*
X75489718Y-58121488D01*
X75496088Y-58112290D01*
X75518586Y-58102937D01*
X75539084Y-58089764D01*
X75556189Y-58087304D01*
X75560605Y-58085469D01*
X75574019Y-58084741D01*
X75713473Y-58084741D01*
X75780512Y-58104426D01*
G37*
G04 #@! TD.AperFunction*
G04 #@! TA.AperFunction,Conductor*
G36*
X86473959Y-56037069D02*
G01*
X86529893Y-56078940D01*
X86554310Y-56144405D01*
X86549794Y-56184723D01*
X86550021Y-56184769D01*
X86549490Y-56187433D01*
X86549289Y-56189237D01*
X86548833Y-56190739D01*
X86518070Y-56345394D01*
X86518070Y-56503087D01*
X86548831Y-56657730D01*
X86548834Y-56657742D01*
X86609172Y-56803413D01*
X86609179Y-56803426D01*
X86696780Y-56934529D01*
X86696782Y-56934532D01*
X86707248Y-56944997D01*
X86740735Y-57006319D01*
X86743570Y-57032681D01*
X86743570Y-58815241D01*
X86723885Y-58882280D01*
X86671081Y-58928035D01*
X86619570Y-58939241D01*
X86367570Y-58939241D01*
X86300531Y-58919556D01*
X86254776Y-58866752D01*
X86243570Y-58815241D01*
X86243570Y-56439240D01*
X86236555Y-56432226D01*
X86225305Y-56431422D01*
X86214523Y-56423351D01*
X86201603Y-56419558D01*
X86187101Y-56402823D01*
X86169371Y-56389551D01*
X86164664Y-56376932D01*
X86155846Y-56366756D01*
X86152693Y-56344835D01*
X86144954Y-56324086D01*
X86147816Y-56310928D01*
X86145899Y-56297598D01*
X86155098Y-56277451D01*
X86159806Y-56255813D01*
X86173073Y-56238089D01*
X86174922Y-56234041D01*
X86180941Y-56227574D01*
X86342949Y-56065567D01*
X86404268Y-56032085D01*
X86473959Y-56037069D01*
G37*
G04 #@! TD.AperFunction*
G04 #@! TA.AperFunction,Conductor*
G36*
X75066502Y-56061501D02*
G01*
X75078832Y-56069740D01*
X75078835Y-56069742D01*
X75078834Y-56069742D01*
X75138068Y-56109321D01*
X75138081Y-56109328D01*
X75271352Y-56164530D01*
X75274657Y-56165899D01*
X75274661Y-56165899D01*
X75274662Y-56165900D01*
X75419649Y-56194741D01*
X75419652Y-56194741D01*
X75419653Y-56194741D01*
X75567488Y-56194741D01*
X75906340Y-56194741D01*
X75973379Y-56214426D01*
X75994021Y-56231060D01*
X76260150Y-56497189D01*
X76260154Y-56497192D01*
X76383068Y-56579321D01*
X76383081Y-56579328D01*
X76467215Y-56614177D01*
X76519657Y-56635899D01*
X76519661Y-56635899D01*
X76519662Y-56635900D01*
X76664649Y-56664741D01*
X76664652Y-56664741D01*
X76812487Y-56664741D01*
X77166696Y-56664741D01*
X77233735Y-56684426D01*
X77254377Y-56701060D01*
X77265525Y-56712208D01*
X77265529Y-56712211D01*
X77409864Y-56801239D01*
X77409867Y-56801240D01*
X77409873Y-56801244D01*
X77570862Y-56854590D01*
X77670225Y-56864741D01*
X78266914Y-56864740D01*
X78266922Y-56864739D01*
X78266925Y-56864739D01*
X78321330Y-56859181D01*
X78366278Y-56854590D01*
X78527267Y-56801244D01*
X78671614Y-56712209D01*
X78791538Y-56592285D01*
X78803035Y-56573644D01*
X78854982Y-56526920D01*
X78908574Y-56514741D01*
X79557661Y-56514741D01*
X79557677Y-56514742D01*
X79565273Y-56514742D01*
X79723384Y-56514742D01*
X79723387Y-56514742D01*
X79876115Y-56473818D01*
X79912013Y-56453091D01*
X79979909Y-56436619D01*
X80045936Y-56459470D01*
X80061693Y-56472798D01*
X81141849Y-57552954D01*
X81141851Y-57552957D01*
X81253655Y-57664761D01*
X81295119Y-57688700D01*
X81304596Y-57697140D01*
X81316638Y-57716451D01*
X81332342Y-57732920D01*
X81334772Y-57745528D01*
X81341568Y-57756426D01*
X81341258Y-57779179D01*
X81345566Y-57801527D01*
X81340792Y-57813450D01*
X81340618Y-57826289D01*
X81328056Y-57845263D01*
X81319598Y-57866392D01*
X81309138Y-57873840D01*
X81302049Y-57884549D01*
X81281220Y-57893720D01*
X81262684Y-57906921D01*
X81244177Y-57910033D01*
X81238105Y-57912707D01*
X81233032Y-57911907D01*
X81222127Y-57913741D01*
X79803668Y-57913741D01*
X79736629Y-57894056D01*
X79715987Y-57877422D01*
X79372287Y-57533722D01*
X79372286Y-57533721D01*
X79285474Y-57483601D01*
X79285474Y-57483600D01*
X79285470Y-57483599D01*
X79235355Y-57454664D01*
X79082627Y-57413740D01*
X78924513Y-57413740D01*
X78916917Y-57413740D01*
X78916901Y-57413741D01*
X76843667Y-57413741D01*
X76776628Y-57394056D01*
X76755986Y-57377422D01*
X76501160Y-57122596D01*
X76501158Y-57122593D01*
X76382287Y-57003722D01*
X76382282Y-57003718D01*
X76262446Y-56934532D01*
X76262441Y-56934529D01*
X76245355Y-56924664D01*
X76245352Y-56924663D01*
X76198701Y-56912163D01*
X76092627Y-56883740D01*
X75934513Y-56883740D01*
X75926917Y-56883740D01*
X75926901Y-56883741D01*
X75574019Y-56883741D01*
X75506980Y-56864056D01*
X75461225Y-56811252D01*
X75456314Y-56798748D01*
X75453384Y-56789908D01*
X75453384Y-56789907D01*
X75361282Y-56640585D01*
X75237226Y-56516529D01*
X75111920Y-56439240D01*
X75087906Y-56424428D01*
X75087901Y-56424426D01*
X75073210Y-56419558D01*
X74921367Y-56369242D01*
X74921365Y-56369241D01*
X74818586Y-56358741D01*
X74818579Y-56358741D01*
X74537036Y-56358741D01*
X74515790Y-56352502D01*
X74493702Y-56350923D01*
X74482918Y-56342850D01*
X74469997Y-56339056D01*
X74455497Y-56322322D01*
X74437769Y-56309051D01*
X74427155Y-56289614D01*
X74424242Y-56286252D01*
X74420854Y-56278074D01*
X74413208Y-56257574D01*
X74408224Y-56187882D01*
X74413209Y-56170905D01*
X74420856Y-56150404D01*
X74462729Y-56094471D01*
X74528194Y-56070056D01*
X74537037Y-56069740D01*
X74818572Y-56069740D01*
X74818578Y-56069740D01*
X74921367Y-56059240D01*
X74958608Y-56046898D01*
X75028434Y-56044496D01*
X75066502Y-56061501D01*
G37*
G04 #@! TD.AperFunction*
G04 #@! TA.AperFunction,Conductor*
G36*
X92002384Y-55814649D02*
G01*
X92015717Y-55812733D01*
X92035860Y-55821932D01*
X92057497Y-55826639D01*
X92075222Y-55839907D01*
X92079273Y-55841758D01*
X92085751Y-55847790D01*
X92149914Y-55911953D01*
X92299236Y-56004055D01*
X92465773Y-56059240D01*
X92568561Y-56069741D01*
X92850103Y-56069740D01*
X92871349Y-56075978D01*
X92893432Y-56077557D01*
X92904214Y-56085628D01*
X92917142Y-56089424D01*
X92931643Y-56106159D01*
X92949367Y-56119426D01*
X92959982Y-56138864D01*
X92962897Y-56142228D01*
X92966283Y-56150402D01*
X92973930Y-56170903D01*
X92978917Y-56240593D01*
X92973931Y-56257576D01*
X92966284Y-56278077D01*
X92924411Y-56334010D01*
X92858946Y-56358425D01*
X92850103Y-56358741D01*
X92568569Y-56358741D01*
X92568550Y-56358742D01*
X92465773Y-56369241D01*
X92465770Y-56369242D01*
X92299238Y-56424426D01*
X92299233Y-56424428D01*
X92149912Y-56516530D01*
X92085751Y-56580692D01*
X92024428Y-56614177D01*
X91954736Y-56609193D01*
X91898803Y-56567321D01*
X91874386Y-56501857D01*
X91874070Y-56493011D01*
X91874070Y-55935471D01*
X91880308Y-55914225D01*
X91881888Y-55892137D01*
X91889960Y-55881353D01*
X91893755Y-55868432D01*
X91910488Y-55853932D01*
X91923760Y-55836204D01*
X91936380Y-55831496D01*
X91946559Y-55822677D01*
X91968476Y-55819525D01*
X91989224Y-55811787D01*
X92002384Y-55814649D01*
G37*
G04 #@! TD.AperFunction*
G04 #@! TA.AperFunction,Conductor*
G36*
X85512983Y-54984426D02*
G01*
X85558738Y-55037230D01*
X85568682Y-55106388D01*
X85539657Y-55169944D01*
X85533625Y-55176422D01*
X85432625Y-55277422D01*
X85371302Y-55310907D01*
X85344944Y-55313741D01*
X84855690Y-55313741D01*
X84702960Y-55354664D01*
X84667971Y-55374866D01*
X84667939Y-55374884D01*
X84667421Y-55375184D01*
X84566031Y-55433721D01*
X84562397Y-55437354D01*
X84551158Y-55444007D01*
X84524228Y-55450849D01*
X84498306Y-55460869D01*
X84490832Y-55459335D01*
X84483440Y-55461214D01*
X84457083Y-55452410D01*
X84429862Y-55446825D01*
X84424405Y-55441495D01*
X84417170Y-55439079D01*
X84399756Y-55417422D01*
X84379876Y-55398007D01*
X84374947Y-55386569D01*
X84373387Y-55384629D01*
X84373149Y-55382397D01*
X84369612Y-55374188D01*
X84354235Y-55324841D01*
X84262412Y-55172948D01*
X84264702Y-55171563D01*
X84261308Y-55163039D01*
X84249019Y-55145023D01*
X84248640Y-55131215D01*
X84243532Y-55118384D01*
X84247700Y-55096980D01*
X84247102Y-55075179D01*
X84256061Y-55054044D01*
X84256888Y-55049803D01*
X84260878Y-55042685D01*
X84271818Y-55024589D01*
X84323346Y-54977402D01*
X84377933Y-54964741D01*
X85445944Y-54964741D01*
X85512983Y-54984426D01*
G37*
G04 #@! TD.AperFunction*
G04 #@! TA.AperFunction,Conductor*
G36*
X78828757Y-54133926D02*
G01*
X78874512Y-54186730D01*
X78885718Y-54238241D01*
X78885718Y-54484402D01*
X78884499Y-54484402D01*
X78872676Y-54546735D01*
X78824611Y-54597444D01*
X78762293Y-54614241D01*
X76993571Y-54614241D01*
X76993571Y-54637563D01*
X77003714Y-54736849D01*
X77028045Y-54810277D01*
X77030446Y-54880105D01*
X76994714Y-54940147D01*
X76932194Y-54971339D01*
X76862734Y-54963778D01*
X76822659Y-54936962D01*
X76746986Y-54861289D01*
X76630925Y-54783741D01*
X76624065Y-54779157D01*
X76515342Y-54734122D01*
X76513821Y-54733444D01*
X76488436Y-54711835D01*
X76462483Y-54690921D01*
X76461935Y-54689276D01*
X76460617Y-54688154D01*
X76450949Y-54656267D01*
X76440418Y-54624627D01*
X76440846Y-54622947D01*
X76440344Y-54621290D01*
X76449450Y-54589237D01*
X76457697Y-54556928D01*
X76459168Y-54555034D01*
X76459439Y-54554081D01*
X76460930Y-54552765D01*
X76476655Y-54532523D01*
X76858619Y-54150558D01*
X76919940Y-54117075D01*
X76946298Y-54114241D01*
X78761718Y-54114241D01*
X78828757Y-54133926D01*
G37*
G04 #@! TD.AperFunction*
G04 #@! TA.AperFunction,Conductor*
G36*
X91814266Y-49102763D02*
G01*
X91842303Y-49107784D01*
X91847362Y-49112481D01*
X91853983Y-49114426D01*
X91872628Y-49135944D01*
X91893502Y-49155327D01*
X91895218Y-49162013D01*
X91899738Y-49167230D01*
X91903790Y-49195416D01*
X91910871Y-49223004D01*
X91909144Y-49232647D01*
X91909682Y-49236388D01*
X91904651Y-49257737D01*
X91891450Y-49297576D01*
X91878570Y-49336445D01*
X91868070Y-49439224D01*
X91868070Y-50289242D01*
X91868071Y-50289260D01*
X91878570Y-50392037D01*
X91878571Y-50392040D01*
X91933755Y-50558572D01*
X91933757Y-50558577D01*
X91968639Y-50615129D01*
X92025858Y-50707897D01*
X92149914Y-50831953D01*
X92299236Y-50924055D01*
X92465773Y-50979240D01*
X92568561Y-50989741D01*
X92850103Y-50989740D01*
X92917142Y-51009424D01*
X92962897Y-51062228D01*
X92966284Y-51070405D01*
X92979774Y-51106573D01*
X92979775Y-51106575D01*
X93066022Y-51221785D01*
X93066025Y-51221788D01*
X93181234Y-51308034D01*
X93181241Y-51308038D01*
X93226188Y-51324802D01*
X93316087Y-51358332D01*
X93375697Y-51364741D01*
X93696573Y-51364740D01*
X93763610Y-51384424D01*
X93809365Y-51437228D01*
X93820554Y-51486707D01*
X93850574Y-53317708D01*
X93831991Y-53385061D01*
X93779945Y-53431676D01*
X93726591Y-53443741D01*
X93375700Y-53443741D01*
X93375693Y-53443742D01*
X93316086Y-53450149D01*
X93181241Y-53500443D01*
X93181234Y-53500447D01*
X93066025Y-53586693D01*
X93066022Y-53586696D01*
X92979775Y-53701906D01*
X92966284Y-53738077D01*
X92924411Y-53794010D01*
X92858946Y-53818425D01*
X92850103Y-53818741D01*
X92568569Y-53818741D01*
X92568550Y-53818742D01*
X92465773Y-53829241D01*
X92465770Y-53829242D01*
X92299238Y-53884426D01*
X92299229Y-53884430D01*
X92261306Y-53907822D01*
X92193914Y-53926262D01*
X92129599Y-53906873D01*
X92118139Y-53899574D01*
X92102286Y-53883721D01*
X92007925Y-53829242D01*
X92005586Y-53827891D01*
X92005571Y-53827882D01*
X91965360Y-53804666D01*
X91965359Y-53804665D01*
X91925594Y-53794010D01*
X91812627Y-53763740D01*
X91654513Y-53763740D01*
X91646917Y-53763740D01*
X91646901Y-53763741D01*
X89566353Y-53763741D01*
X89499314Y-53744056D01*
X89487688Y-53735594D01*
X89483859Y-53732451D01*
X89352755Y-53644850D01*
X89352742Y-53644843D01*
X89207071Y-53584505D01*
X89207059Y-53584502D01*
X89052415Y-53553741D01*
X89052412Y-53553741D01*
X88894728Y-53553741D01*
X88894725Y-53553741D01*
X88740080Y-53584502D01*
X88740068Y-53584505D01*
X88594397Y-53644843D01*
X88594384Y-53644850D01*
X88463281Y-53732451D01*
X88463277Y-53732454D01*
X88351783Y-53843948D01*
X88351780Y-53843952D01*
X88264179Y-53975055D01*
X88264172Y-53975068D01*
X88203834Y-54120739D01*
X88203831Y-54120751D01*
X88173070Y-54275394D01*
X88172473Y-54281459D01*
X88169709Y-54281186D01*
X88153385Y-54336780D01*
X88100581Y-54382535D01*
X88049070Y-54393741D01*
X87090333Y-54393741D01*
X87023294Y-54374056D01*
X86977539Y-54321252D01*
X86967595Y-54252094D01*
X86968716Y-54245550D01*
X86994069Y-54118087D01*
X86994070Y-54118085D01*
X86994070Y-53960396D01*
X86994069Y-53960394D01*
X86983423Y-53906873D01*
X86963307Y-53805744D01*
X86963305Y-53805739D01*
X86902967Y-53660068D01*
X86902960Y-53660055D01*
X86815359Y-53528952D01*
X86815356Y-53528948D01*
X86703862Y-53417454D01*
X86703858Y-53417451D01*
X86572755Y-53329850D01*
X86572742Y-53329843D01*
X86427071Y-53269505D01*
X86427059Y-53269502D01*
X86272415Y-53238741D01*
X86272412Y-53238741D01*
X86114728Y-53238741D01*
X86114725Y-53238741D01*
X85960080Y-53269502D01*
X85960068Y-53269505D01*
X85814397Y-53329843D01*
X85814384Y-53329850D01*
X85683281Y-53417451D01*
X85683277Y-53417454D01*
X85571783Y-53528948D01*
X85571780Y-53528952D01*
X85484179Y-53660055D01*
X85484176Y-53660062D01*
X85472937Y-53687195D01*
X85460393Y-53702760D01*
X85452089Y-53720944D01*
X85438918Y-53729408D01*
X85429095Y-53741598D01*
X85410127Y-53747910D01*
X85393311Y-53758718D01*
X85365748Y-53762680D01*
X85362801Y-53763662D01*
X85358376Y-53763741D01*
X85135718Y-53763741D01*
X85068679Y-53744056D01*
X85022924Y-53691252D01*
X85011718Y-53639741D01*
X85011718Y-52556005D01*
X85031403Y-52488966D01*
X85048032Y-52468328D01*
X85201522Y-52314839D01*
X85234223Y-52265897D01*
X85271525Y-52210071D01*
X85275586Y-52203991D01*
X85283654Y-52191918D01*
X85340228Y-52055336D01*
X85350132Y-52005544D01*
X85369070Y-51910343D01*
X85369070Y-51090320D01*
X85340229Y-50945333D01*
X85340228Y-50945332D01*
X85340228Y-50945328D01*
X85340226Y-50945323D01*
X85283657Y-50808752D01*
X85283650Y-50808739D01*
X85201521Y-50685825D01*
X85201518Y-50685821D01*
X85096989Y-50581292D01*
X85096985Y-50581289D01*
X84974071Y-50499160D01*
X84974058Y-50499153D01*
X84837487Y-50442584D01*
X84837477Y-50442581D01*
X84692490Y-50413741D01*
X84692488Y-50413741D01*
X77430800Y-50413741D01*
X77363761Y-50394056D01*
X77343119Y-50377422D01*
X76272119Y-49306422D01*
X76238634Y-49245099D01*
X76243618Y-49175407D01*
X76285490Y-49119474D01*
X76350954Y-49095057D01*
X76359800Y-49094741D01*
X91786944Y-49094741D01*
X91814266Y-49102763D01*
G37*
G04 #@! TD.AperFunction*
G04 #@! TA.AperFunction,Conductor*
G36*
X75221382Y-53496187D02*
G01*
X75252575Y-53558707D01*
X75245015Y-53628167D01*
X75218197Y-53668245D01*
X75077475Y-53808967D01*
X75016152Y-53842452D01*
X74950792Y-53838992D01*
X74921374Y-53829244D01*
X74921371Y-53829243D01*
X74921367Y-53829242D01*
X74921362Y-53829241D01*
X74921360Y-53829241D01*
X74818586Y-53818741D01*
X74818579Y-53818741D01*
X74537036Y-53818741D01*
X74515790Y-53812502D01*
X74493702Y-53810923D01*
X74482918Y-53802850D01*
X74469997Y-53799056D01*
X74455497Y-53782322D01*
X74437769Y-53769051D01*
X74427155Y-53749614D01*
X74424242Y-53746252D01*
X74420854Y-53738074D01*
X74413208Y-53717574D01*
X74408224Y-53647882D01*
X74413209Y-53630905D01*
X74414231Y-53628167D01*
X74420856Y-53610404D01*
X74462729Y-53554471D01*
X74528194Y-53530056D01*
X74537037Y-53529740D01*
X74818572Y-53529740D01*
X74818578Y-53529740D01*
X74921367Y-53519240D01*
X75087904Y-53464055D01*
X75087910Y-53464051D01*
X75091511Y-53462858D01*
X75161339Y-53460456D01*
X75221382Y-53496187D01*
G37*
G04 #@! TD.AperFunction*
G04 #@! TA.AperFunction,Conductor*
G36*
X75543517Y-50700556D02*
G01*
X76590156Y-51747195D01*
X76610423Y-51760736D01*
X76663840Y-51796427D01*
X76713075Y-51829325D01*
X76734697Y-51838281D01*
X76784898Y-51859075D01*
X76839301Y-51902917D01*
X76861365Y-51969211D01*
X76844085Y-52036910D01*
X76825125Y-52061317D01*
X75657574Y-53228868D01*
X75596251Y-53262353D01*
X75526559Y-53257369D01*
X75470626Y-53215497D01*
X75446209Y-53150033D01*
X75452187Y-53102182D01*
X75453380Y-53098581D01*
X75453384Y-53098575D01*
X75508569Y-52932038D01*
X75519070Y-52829250D01*
X75519069Y-51979233D01*
X75518622Y-51974862D01*
X75508569Y-51876444D01*
X75508568Y-51876441D01*
X75502813Y-51859075D01*
X75453384Y-51709907D01*
X75361282Y-51560585D01*
X75237226Y-51436529D01*
X75144458Y-51379310D01*
X75087906Y-51344428D01*
X75087901Y-51344426D01*
X75086432Y-51343939D01*
X74921367Y-51289242D01*
X74921365Y-51289241D01*
X74818586Y-51278741D01*
X74818579Y-51278741D01*
X74537036Y-51278741D01*
X74515790Y-51272502D01*
X74493702Y-51270923D01*
X74482918Y-51262850D01*
X74469997Y-51259056D01*
X74455497Y-51242322D01*
X74437769Y-51229051D01*
X74427155Y-51209614D01*
X74424242Y-51206252D01*
X74420854Y-51198074D01*
X74413208Y-51177574D01*
X74408224Y-51107882D01*
X74413209Y-51090905D01*
X74413428Y-51090320D01*
X74416897Y-51081015D01*
X74420856Y-51070404D01*
X74462729Y-51014471D01*
X74528194Y-50990056D01*
X74537037Y-50989740D01*
X74818572Y-50989740D01*
X74818578Y-50989740D01*
X74921367Y-50979240D01*
X75087904Y-50924055D01*
X75237226Y-50831953D01*
X75361282Y-50707897D01*
X75361282Y-50707896D01*
X75366389Y-50702790D01*
X75368147Y-50704548D01*
X75415576Y-50670955D01*
X75485375Y-50667807D01*
X75543517Y-50700556D01*
G37*
G04 #@! TD.AperFunction*
M02*
