G04 #@! TF.GenerationSoftware,KiCad,Pcbnew,9.0.1+1*
G04 #@! TF.CreationDate,2025-11-11T08:29:19+00:00*
G04 #@! TF.ProjectId,audio-codec,61756469-6f2d-4636-9f64-65632e6b6963,rev?*
G04 #@! TF.SameCoordinates,Original*
G04 #@! TF.FileFunction,Legend,Bot*
G04 #@! TF.FilePolarity,Positive*
%FSLAX46Y46*%
G04 Gerber Fmt 4.6, Leading zero omitted, Abs format (unit mm)*
G04 Created by KiCad (PCBNEW 9.0.1+1) date 2025-11-11 08:29:19*
%MOMM*%
%LPD*%
G01*
G04 APERTURE LIST*
%ADD10C,0.100000*%
%ADD11R,2.540000X2.000000*%
G04 APERTURE END LIST*
D10*
X81453570Y-62814241D02*
X85128570Y-62814241D01*
X85128570Y-66439241D01*
X81453570Y-66439241D01*
X81453570Y-62814241D01*
X80818570Y-51689241D02*
X80818570Y-53639241D01*
X81068570Y-53364241D02*
X80818570Y-53639241D01*
X80818570Y-53639241D02*
X80543570Y-53364241D01*
X80543570Y-53364241D02*
X81068570Y-53364241D01*
X79018570Y-53814241D02*
X81068570Y-53814241D01*
X81068570Y-56089241D01*
X79018570Y-56089241D01*
X79018570Y-53814241D01*
X76490465Y-55545506D02*
X75957131Y-55545506D01*
X76033322Y-55545506D02*
X75995227Y-55583601D01*
X75995227Y-55583601D02*
X75957131Y-55659791D01*
X75957131Y-55659791D02*
X75957131Y-55774077D01*
X75957131Y-55774077D02*
X75995227Y-55850268D01*
X75995227Y-55850268D02*
X76071417Y-55888363D01*
X76071417Y-55888363D02*
X76490465Y-55888363D01*
X76071417Y-55888363D02*
X75995227Y-55926458D01*
X75995227Y-55926458D02*
X75957131Y-56002649D01*
X75957131Y-56002649D02*
X75957131Y-56116934D01*
X75957131Y-56116934D02*
X75995227Y-56193125D01*
X75995227Y-56193125D02*
X76071417Y-56231220D01*
X76071417Y-56231220D02*
X76490465Y-56231220D01*
X76452370Y-56916935D02*
X76490465Y-56840744D01*
X76490465Y-56840744D02*
X76490465Y-56688363D01*
X76490465Y-56688363D02*
X76452370Y-56612173D01*
X76452370Y-56612173D02*
X76376179Y-56574077D01*
X76376179Y-56574077D02*
X76071417Y-56574077D01*
X76071417Y-56574077D02*
X75995227Y-56612173D01*
X75995227Y-56612173D02*
X75957131Y-56688363D01*
X75957131Y-56688363D02*
X75957131Y-56840744D01*
X75957131Y-56840744D02*
X75995227Y-56916935D01*
X75995227Y-56916935D02*
X76071417Y-56955030D01*
X76071417Y-56955030D02*
X76147608Y-56955030D01*
X76147608Y-56955030D02*
X76223798Y-56574077D01*
X75957131Y-57640744D02*
X76604750Y-57640744D01*
X76604750Y-57640744D02*
X76680941Y-57602649D01*
X76680941Y-57602649D02*
X76719036Y-57564553D01*
X76719036Y-57564553D02*
X76757131Y-57488363D01*
X76757131Y-57488363D02*
X76757131Y-57374077D01*
X76757131Y-57374077D02*
X76719036Y-57297887D01*
X76452370Y-57640744D02*
X76490465Y-57564553D01*
X76490465Y-57564553D02*
X76490465Y-57412172D01*
X76490465Y-57412172D02*
X76452370Y-57335982D01*
X76452370Y-57335982D02*
X76414274Y-57297887D01*
X76414274Y-57297887D02*
X76338084Y-57259791D01*
X76338084Y-57259791D02*
X76109512Y-57259791D01*
X76109512Y-57259791D02*
X76033322Y-57297887D01*
X76033322Y-57297887D02*
X75995227Y-57335982D01*
X75995227Y-57335982D02*
X75957131Y-57412172D01*
X75957131Y-57412172D02*
X75957131Y-57564553D01*
X75957131Y-57564553D02*
X75995227Y-57640744D01*
X76490465Y-58364554D02*
X76071417Y-58364554D01*
X76071417Y-58364554D02*
X75995227Y-58326459D01*
X75995227Y-58326459D02*
X75957131Y-58250268D01*
X75957131Y-58250268D02*
X75957131Y-58097887D01*
X75957131Y-58097887D02*
X75995227Y-58021697D01*
X76452370Y-58364554D02*
X76490465Y-58288363D01*
X76490465Y-58288363D02*
X76490465Y-58097887D01*
X76490465Y-58097887D02*
X76452370Y-58021697D01*
X76452370Y-58021697D02*
X76376179Y-57983601D01*
X76376179Y-57983601D02*
X76299989Y-57983601D01*
X76299989Y-57983601D02*
X76223798Y-58021697D01*
X76223798Y-58021697D02*
X76185703Y-58097887D01*
X76185703Y-58097887D02*
X76185703Y-58288363D01*
X76185703Y-58288363D02*
X76147608Y-58364554D01*
X75957131Y-58745507D02*
X76757131Y-58745507D01*
X75995227Y-58745507D02*
X75957131Y-58821697D01*
X75957131Y-58821697D02*
X75957131Y-58974078D01*
X75957131Y-58974078D02*
X75995227Y-59050269D01*
X75995227Y-59050269D02*
X76033322Y-59088364D01*
X76033322Y-59088364D02*
X76109512Y-59126459D01*
X76109512Y-59126459D02*
X76338084Y-59126459D01*
X76338084Y-59126459D02*
X76414274Y-59088364D01*
X76414274Y-59088364D02*
X76452370Y-59050269D01*
X76452370Y-59050269D02*
X76490465Y-58974078D01*
X76490465Y-58974078D02*
X76490465Y-58821697D01*
X76490465Y-58821697D02*
X76452370Y-58745507D01*
X76490465Y-59469317D02*
X75690465Y-59469317D01*
X76490465Y-59812174D02*
X76071417Y-59812174D01*
X76071417Y-59812174D02*
X75995227Y-59774079D01*
X75995227Y-59774079D02*
X75957131Y-59697888D01*
X75957131Y-59697888D02*
X75957131Y-59583602D01*
X75957131Y-59583602D02*
X75995227Y-59507412D01*
X75995227Y-59507412D02*
X76033322Y-59469317D01*
X76490465Y-60307412D02*
X76452370Y-60231222D01*
X76452370Y-60231222D02*
X76414274Y-60193127D01*
X76414274Y-60193127D02*
X76338084Y-60155031D01*
X76338084Y-60155031D02*
X76109512Y-60155031D01*
X76109512Y-60155031D02*
X76033322Y-60193127D01*
X76033322Y-60193127D02*
X75995227Y-60231222D01*
X75995227Y-60231222D02*
X75957131Y-60307412D01*
X75957131Y-60307412D02*
X75957131Y-60421698D01*
X75957131Y-60421698D02*
X75995227Y-60497889D01*
X75995227Y-60497889D02*
X76033322Y-60535984D01*
X76033322Y-60535984D02*
X76109512Y-60574079D01*
X76109512Y-60574079D02*
X76338084Y-60574079D01*
X76338084Y-60574079D02*
X76414274Y-60535984D01*
X76414274Y-60535984D02*
X76452370Y-60497889D01*
X76452370Y-60497889D02*
X76490465Y-60421698D01*
X76490465Y-60421698D02*
X76490465Y-60307412D01*
X75957131Y-60916937D02*
X76490465Y-60916937D01*
X76033322Y-60916937D02*
X75995227Y-60955032D01*
X75995227Y-60955032D02*
X75957131Y-61031222D01*
X75957131Y-61031222D02*
X75957131Y-61145508D01*
X75957131Y-61145508D02*
X75995227Y-61221699D01*
X75995227Y-61221699D02*
X76071417Y-61259794D01*
X76071417Y-61259794D02*
X76490465Y-61259794D01*
X76452370Y-61945509D02*
X76490465Y-61869318D01*
X76490465Y-61869318D02*
X76490465Y-61716937D01*
X76490465Y-61716937D02*
X76452370Y-61640747D01*
X76452370Y-61640747D02*
X76376179Y-61602651D01*
X76376179Y-61602651D02*
X76071417Y-61602651D01*
X76071417Y-61602651D02*
X75995227Y-61640747D01*
X75995227Y-61640747D02*
X75957131Y-61716937D01*
X75957131Y-61716937D02*
X75957131Y-61869318D01*
X75957131Y-61869318D02*
X75995227Y-61945509D01*
X75995227Y-61945509D02*
X76071417Y-61983604D01*
X76071417Y-61983604D02*
X76147608Y-61983604D01*
X76147608Y-61983604D02*
X76223798Y-61602651D01*
X76185703Y-62326461D02*
X76185703Y-62935985D01*
X76490465Y-63316937D02*
X75957131Y-63316937D01*
X76109512Y-63316937D02*
X76033322Y-63355032D01*
X76033322Y-63355032D02*
X75995227Y-63393127D01*
X75995227Y-63393127D02*
X75957131Y-63469318D01*
X75957131Y-63469318D02*
X75957131Y-63545508D01*
X75690465Y-64193127D02*
X75690465Y-63812175D01*
X75690465Y-63812175D02*
X76071417Y-63774079D01*
X76071417Y-63774079D02*
X76033322Y-63812175D01*
X76033322Y-63812175D02*
X75995227Y-63888365D01*
X75995227Y-63888365D02*
X75995227Y-64078841D01*
X75995227Y-64078841D02*
X76033322Y-64155032D01*
X76033322Y-64155032D02*
X76071417Y-64193127D01*
X76071417Y-64193127D02*
X76147608Y-64231222D01*
X76147608Y-64231222D02*
X76338084Y-64231222D01*
X76338084Y-64231222D02*
X76414274Y-64193127D01*
X76414274Y-64193127D02*
X76452370Y-64155032D01*
X76452370Y-64155032D02*
X76490465Y-64078841D01*
X76490465Y-64078841D02*
X76490465Y-63888365D01*
X76490465Y-63888365D02*
X76452370Y-63812175D01*
X76452370Y-63812175D02*
X76414274Y-63774079D01*
X76185703Y-64574080D02*
X76185703Y-65183604D01*
X76490465Y-65564556D02*
X75957131Y-65564556D01*
X76033322Y-65564556D02*
X75995227Y-65602651D01*
X75995227Y-65602651D02*
X75957131Y-65678841D01*
X75957131Y-65678841D02*
X75957131Y-65793127D01*
X75957131Y-65793127D02*
X75995227Y-65869318D01*
X75995227Y-65869318D02*
X76071417Y-65907413D01*
X76071417Y-65907413D02*
X76490465Y-65907413D01*
X76071417Y-65907413D02*
X75995227Y-65945508D01*
X75995227Y-65945508D02*
X75957131Y-66021699D01*
X75957131Y-66021699D02*
X75957131Y-66135984D01*
X75957131Y-66135984D02*
X75995227Y-66212175D01*
X75995227Y-66212175D02*
X76071417Y-66250270D01*
X76071417Y-66250270D02*
X76490465Y-66250270D01*
X76490465Y-66745508D02*
X76452370Y-66669318D01*
X76452370Y-66669318D02*
X76414274Y-66631223D01*
X76414274Y-66631223D02*
X76338084Y-66593127D01*
X76338084Y-66593127D02*
X76109512Y-66593127D01*
X76109512Y-66593127D02*
X76033322Y-66631223D01*
X76033322Y-66631223D02*
X75995227Y-66669318D01*
X75995227Y-66669318D02*
X75957131Y-66745508D01*
X75957131Y-66745508D02*
X75957131Y-66859794D01*
X75957131Y-66859794D02*
X75995227Y-66935985D01*
X75995227Y-66935985D02*
X76033322Y-66974080D01*
X76033322Y-66974080D02*
X76109512Y-67012175D01*
X76109512Y-67012175D02*
X76338084Y-67012175D01*
X76338084Y-67012175D02*
X76414274Y-66974080D01*
X76414274Y-66974080D02*
X76452370Y-66935985D01*
X76452370Y-66935985D02*
X76490465Y-66859794D01*
X76490465Y-66859794D02*
X76490465Y-66745508D01*
X76490465Y-67697890D02*
X75690465Y-67697890D01*
X76452370Y-67697890D02*
X76490465Y-67621699D01*
X76490465Y-67621699D02*
X76490465Y-67469318D01*
X76490465Y-67469318D02*
X76452370Y-67393128D01*
X76452370Y-67393128D02*
X76414274Y-67355033D01*
X76414274Y-67355033D02*
X76338084Y-67316937D01*
X76338084Y-67316937D02*
X76109512Y-67316937D01*
X76109512Y-67316937D02*
X76033322Y-67355033D01*
X76033322Y-67355033D02*
X75995227Y-67393128D01*
X75995227Y-67393128D02*
X75957131Y-67469318D01*
X75957131Y-67469318D02*
X75957131Y-67621699D01*
X75957131Y-67621699D02*
X75995227Y-67697890D01*
X75957131Y-68421700D02*
X76490465Y-68421700D01*
X75957131Y-68078843D02*
X76376179Y-68078843D01*
X76376179Y-68078843D02*
X76452370Y-68116938D01*
X76452370Y-68116938D02*
X76490465Y-68193128D01*
X76490465Y-68193128D02*
X76490465Y-68307414D01*
X76490465Y-68307414D02*
X76452370Y-68383605D01*
X76452370Y-68383605D02*
X76414274Y-68421700D01*
X76490465Y-68916938D02*
X76452370Y-68840748D01*
X76452370Y-68840748D02*
X76376179Y-68802653D01*
X76376179Y-68802653D02*
X75690465Y-68802653D01*
X76490465Y-69564558D02*
X76071417Y-69564558D01*
X76071417Y-69564558D02*
X75995227Y-69526463D01*
X75995227Y-69526463D02*
X75957131Y-69450272D01*
X75957131Y-69450272D02*
X75957131Y-69297891D01*
X75957131Y-69297891D02*
X75995227Y-69221701D01*
X76452370Y-69564558D02*
X76490465Y-69488367D01*
X76490465Y-69488367D02*
X76490465Y-69297891D01*
X76490465Y-69297891D02*
X76452370Y-69221701D01*
X76452370Y-69221701D02*
X76376179Y-69183605D01*
X76376179Y-69183605D02*
X76299989Y-69183605D01*
X76299989Y-69183605D02*
X76223798Y-69221701D01*
X76223798Y-69221701D02*
X76185703Y-69297891D01*
X76185703Y-69297891D02*
X76185703Y-69488367D01*
X76185703Y-69488367D02*
X76147608Y-69564558D01*
X76490465Y-69945511D02*
X75957131Y-69945511D01*
X76109512Y-69945511D02*
X76033322Y-69983606D01*
X76033322Y-69983606D02*
X75995227Y-70021701D01*
X75995227Y-70021701D02*
X75957131Y-70097892D01*
X75957131Y-70097892D02*
X75957131Y-70174082D01*
X91905274Y-53970506D02*
X91905274Y-54446696D01*
X92190989Y-53875268D02*
X91190989Y-54208601D01*
X91190989Y-54208601D02*
X92190989Y-54541934D01*
X91524322Y-55303839D02*
X92190989Y-55303839D01*
X91524322Y-54875268D02*
X92048131Y-54875268D01*
X92048131Y-54875268D02*
X92143370Y-54922887D01*
X92143370Y-54922887D02*
X92190989Y-55018125D01*
X92190989Y-55018125D02*
X92190989Y-55160982D01*
X92190989Y-55160982D02*
X92143370Y-55256220D01*
X92143370Y-55256220D02*
X92095750Y-55303839D01*
X92190989Y-56208601D02*
X91190989Y-56208601D01*
X92143370Y-56208601D02*
X92190989Y-56113363D01*
X92190989Y-56113363D02*
X92190989Y-55922887D01*
X92190989Y-55922887D02*
X92143370Y-55827649D01*
X92143370Y-55827649D02*
X92095750Y-55780030D01*
X92095750Y-55780030D02*
X92000512Y-55732411D01*
X92000512Y-55732411D02*
X91714798Y-55732411D01*
X91714798Y-55732411D02*
X91619560Y-55780030D01*
X91619560Y-55780030D02*
X91571941Y-55827649D01*
X91571941Y-55827649D02*
X91524322Y-55922887D01*
X91524322Y-55922887D02*
X91524322Y-56113363D01*
X91524322Y-56113363D02*
X91571941Y-56208601D01*
X92190989Y-56684792D02*
X91524322Y-56684792D01*
X91190989Y-56684792D02*
X91238608Y-56637173D01*
X91238608Y-56637173D02*
X91286227Y-56684792D01*
X91286227Y-56684792D02*
X91238608Y-56732411D01*
X91238608Y-56732411D02*
X91190989Y-56684792D01*
X91190989Y-56684792D02*
X91286227Y-56684792D01*
X92190989Y-57303839D02*
X92143370Y-57208601D01*
X92143370Y-57208601D02*
X92095750Y-57160982D01*
X92095750Y-57160982D02*
X92000512Y-57113363D01*
X92000512Y-57113363D02*
X91714798Y-57113363D01*
X91714798Y-57113363D02*
X91619560Y-57160982D01*
X91619560Y-57160982D02*
X91571941Y-57208601D01*
X91571941Y-57208601D02*
X91524322Y-57303839D01*
X91524322Y-57303839D02*
X91524322Y-57446696D01*
X91524322Y-57446696D02*
X91571941Y-57541934D01*
X91571941Y-57541934D02*
X91619560Y-57589553D01*
X91619560Y-57589553D02*
X91714798Y-57637172D01*
X91714798Y-57637172D02*
X92000512Y-57637172D01*
X92000512Y-57637172D02*
X92095750Y-57589553D01*
X92095750Y-57589553D02*
X92143370Y-57541934D01*
X92143370Y-57541934D02*
X92190989Y-57446696D01*
X92190989Y-57446696D02*
X92190989Y-57303839D01*
X92095750Y-59399077D02*
X92143370Y-59351458D01*
X92143370Y-59351458D02*
X92190989Y-59208601D01*
X92190989Y-59208601D02*
X92190989Y-59113363D01*
X92190989Y-59113363D02*
X92143370Y-58970506D01*
X92143370Y-58970506D02*
X92048131Y-58875268D01*
X92048131Y-58875268D02*
X91952893Y-58827649D01*
X91952893Y-58827649D02*
X91762417Y-58780030D01*
X91762417Y-58780030D02*
X91619560Y-58780030D01*
X91619560Y-58780030D02*
X91429084Y-58827649D01*
X91429084Y-58827649D02*
X91333846Y-58875268D01*
X91333846Y-58875268D02*
X91238608Y-58970506D01*
X91238608Y-58970506D02*
X91190989Y-59113363D01*
X91190989Y-59113363D02*
X91190989Y-59208601D01*
X91190989Y-59208601D02*
X91238608Y-59351458D01*
X91238608Y-59351458D02*
X91286227Y-59399077D01*
X92190989Y-59970506D02*
X92143370Y-59875268D01*
X92143370Y-59875268D02*
X92095750Y-59827649D01*
X92095750Y-59827649D02*
X92000512Y-59780030D01*
X92000512Y-59780030D02*
X91714798Y-59780030D01*
X91714798Y-59780030D02*
X91619560Y-59827649D01*
X91619560Y-59827649D02*
X91571941Y-59875268D01*
X91571941Y-59875268D02*
X91524322Y-59970506D01*
X91524322Y-59970506D02*
X91524322Y-60113363D01*
X91524322Y-60113363D02*
X91571941Y-60208601D01*
X91571941Y-60208601D02*
X91619560Y-60256220D01*
X91619560Y-60256220D02*
X91714798Y-60303839D01*
X91714798Y-60303839D02*
X92000512Y-60303839D01*
X92000512Y-60303839D02*
X92095750Y-60256220D01*
X92095750Y-60256220D02*
X92143370Y-60208601D01*
X92143370Y-60208601D02*
X92190989Y-60113363D01*
X92190989Y-60113363D02*
X92190989Y-59970506D01*
X92190989Y-61160982D02*
X91190989Y-61160982D01*
X92143370Y-61160982D02*
X92190989Y-61065744D01*
X92190989Y-61065744D02*
X92190989Y-60875268D01*
X92190989Y-60875268D02*
X92143370Y-60780030D01*
X92143370Y-60780030D02*
X92095750Y-60732411D01*
X92095750Y-60732411D02*
X92000512Y-60684792D01*
X92000512Y-60684792D02*
X91714798Y-60684792D01*
X91714798Y-60684792D02*
X91619560Y-60732411D01*
X91619560Y-60732411D02*
X91571941Y-60780030D01*
X91571941Y-60780030D02*
X91524322Y-60875268D01*
X91524322Y-60875268D02*
X91524322Y-61065744D01*
X91524322Y-61065744D02*
X91571941Y-61160982D01*
X92143370Y-62018125D02*
X92190989Y-61922887D01*
X92190989Y-61922887D02*
X92190989Y-61732411D01*
X92190989Y-61732411D02*
X92143370Y-61637173D01*
X92143370Y-61637173D02*
X92048131Y-61589554D01*
X92048131Y-61589554D02*
X91667179Y-61589554D01*
X91667179Y-61589554D02*
X91571941Y-61637173D01*
X91571941Y-61637173D02*
X91524322Y-61732411D01*
X91524322Y-61732411D02*
X91524322Y-61922887D01*
X91524322Y-61922887D02*
X91571941Y-62018125D01*
X91571941Y-62018125D02*
X91667179Y-62065744D01*
X91667179Y-62065744D02*
X91762417Y-62065744D01*
X91762417Y-62065744D02*
X91857655Y-61589554D01*
X92143370Y-62922887D02*
X92190989Y-62827649D01*
X92190989Y-62827649D02*
X92190989Y-62637173D01*
X92190989Y-62637173D02*
X92143370Y-62541935D01*
X92143370Y-62541935D02*
X92095750Y-62494316D01*
X92095750Y-62494316D02*
X92000512Y-62446697D01*
X92000512Y-62446697D02*
X91714798Y-62446697D01*
X91714798Y-62446697D02*
X91619560Y-62494316D01*
X91619560Y-62494316D02*
X91571941Y-62541935D01*
X91571941Y-62541935D02*
X91524322Y-62637173D01*
X91524322Y-62637173D02*
X91524322Y-62827649D01*
X91524322Y-62827649D02*
X91571941Y-62922887D01*
X92190989Y-64684792D02*
X91714798Y-64351459D01*
X92190989Y-64113364D02*
X91190989Y-64113364D01*
X91190989Y-64113364D02*
X91190989Y-64494316D01*
X91190989Y-64494316D02*
X91238608Y-64589554D01*
X91238608Y-64589554D02*
X91286227Y-64637173D01*
X91286227Y-64637173D02*
X91381465Y-64684792D01*
X91381465Y-64684792D02*
X91524322Y-64684792D01*
X91524322Y-64684792D02*
X91619560Y-64637173D01*
X91619560Y-64637173D02*
X91667179Y-64589554D01*
X91667179Y-64589554D02*
X91714798Y-64494316D01*
X91714798Y-64494316D02*
X91714798Y-64113364D01*
X91286227Y-65065745D02*
X91238608Y-65113364D01*
X91238608Y-65113364D02*
X91190989Y-65208602D01*
X91190989Y-65208602D02*
X91190989Y-65446697D01*
X91190989Y-65446697D02*
X91238608Y-65541935D01*
X91238608Y-65541935D02*
X91286227Y-65589554D01*
X91286227Y-65589554D02*
X91381465Y-65637173D01*
X91381465Y-65637173D02*
X91476703Y-65637173D01*
X91476703Y-65637173D02*
X91619560Y-65589554D01*
X91619560Y-65589554D02*
X92190989Y-65018126D01*
X92190989Y-65018126D02*
X92190989Y-65637173D01*
X91190989Y-66256221D02*
X91190989Y-66351459D01*
X91190989Y-66351459D02*
X91238608Y-66446697D01*
X91238608Y-66446697D02*
X91286227Y-66494316D01*
X91286227Y-66494316D02*
X91381465Y-66541935D01*
X91381465Y-66541935D02*
X91571941Y-66589554D01*
X91571941Y-66589554D02*
X91810036Y-66589554D01*
X91810036Y-66589554D02*
X92000512Y-66541935D01*
X92000512Y-66541935D02*
X92095750Y-66494316D01*
X92095750Y-66494316D02*
X92143370Y-66446697D01*
X92143370Y-66446697D02*
X92190989Y-66351459D01*
X92190989Y-66351459D02*
X92190989Y-66256221D01*
X92190989Y-66256221D02*
X92143370Y-66160983D01*
X92143370Y-66160983D02*
X92095750Y-66113364D01*
X92095750Y-66113364D02*
X92000512Y-66065745D01*
X92000512Y-66065745D02*
X91810036Y-66018126D01*
X91810036Y-66018126D02*
X91571941Y-66018126D01*
X91571941Y-66018126D02*
X91381465Y-66065745D01*
X91381465Y-66065745D02*
X91286227Y-66113364D01*
X91286227Y-66113364D02*
X91238608Y-66160983D01*
X91238608Y-66160983D02*
X91190989Y-66256221D01*
X91286227Y-66970507D02*
X91238608Y-67018126D01*
X91238608Y-67018126D02*
X91190989Y-67113364D01*
X91190989Y-67113364D02*
X91190989Y-67351459D01*
X91190989Y-67351459D02*
X91238608Y-67446697D01*
X91238608Y-67446697D02*
X91286227Y-67494316D01*
X91286227Y-67494316D02*
X91381465Y-67541935D01*
X91381465Y-67541935D02*
X91476703Y-67541935D01*
X91476703Y-67541935D02*
X91619560Y-67494316D01*
X91619560Y-67494316D02*
X92190989Y-66922888D01*
X92190989Y-66922888D02*
X92190989Y-67541935D01*
X91190989Y-68446697D02*
X91190989Y-67970507D01*
X91190989Y-67970507D02*
X91667179Y-67922888D01*
X91667179Y-67922888D02*
X91619560Y-67970507D01*
X91619560Y-67970507D02*
X91571941Y-68065745D01*
X91571941Y-68065745D02*
X91571941Y-68303840D01*
X91571941Y-68303840D02*
X91619560Y-68399078D01*
X91619560Y-68399078D02*
X91667179Y-68446697D01*
X91667179Y-68446697D02*
X91762417Y-68494316D01*
X91762417Y-68494316D02*
X92000512Y-68494316D01*
X92000512Y-68494316D02*
X92095750Y-68446697D01*
X92095750Y-68446697D02*
X92143370Y-68399078D01*
X92143370Y-68399078D02*
X92190989Y-68303840D01*
X92190989Y-68303840D02*
X92190989Y-68065745D01*
X92190989Y-68065745D02*
X92143370Y-67970507D01*
X92143370Y-67970507D02*
X92095750Y-67922888D01*
X91190989Y-69113364D02*
X91190989Y-69208602D01*
X91190989Y-69208602D02*
X91238608Y-69303840D01*
X91238608Y-69303840D02*
X91286227Y-69351459D01*
X91286227Y-69351459D02*
X91381465Y-69399078D01*
X91381465Y-69399078D02*
X91571941Y-69446697D01*
X91571941Y-69446697D02*
X91810036Y-69446697D01*
X91810036Y-69446697D02*
X92000512Y-69399078D01*
X92000512Y-69399078D02*
X92095750Y-69351459D01*
X92095750Y-69351459D02*
X92143370Y-69303840D01*
X92143370Y-69303840D02*
X92190989Y-69208602D01*
X92190989Y-69208602D02*
X92190989Y-69113364D01*
X92190989Y-69113364D02*
X92143370Y-69018126D01*
X92143370Y-69018126D02*
X92095750Y-68970507D01*
X92095750Y-68970507D02*
X92000512Y-68922888D01*
X92000512Y-68922888D02*
X91810036Y-68875269D01*
X91810036Y-68875269D02*
X91571941Y-68875269D01*
X91571941Y-68875269D02*
X91381465Y-68922888D01*
X91381465Y-68922888D02*
X91286227Y-68970507D01*
X91286227Y-68970507D02*
X91238608Y-69018126D01*
X91238608Y-69018126D02*
X91190989Y-69113364D01*
X91286227Y-69827650D02*
X91238608Y-69875269D01*
X91238608Y-69875269D02*
X91190989Y-69970507D01*
X91190989Y-69970507D02*
X91190989Y-70208602D01*
X91190989Y-70208602D02*
X91238608Y-70303840D01*
X91238608Y-70303840D02*
X91286227Y-70351459D01*
X91286227Y-70351459D02*
X91381465Y-70399078D01*
X91381465Y-70399078D02*
X91476703Y-70399078D01*
X91476703Y-70399078D02*
X91619560Y-70351459D01*
X91619560Y-70351459D02*
X92190989Y-69780031D01*
X92190989Y-69780031D02*
X92190989Y-70399078D01*
X92190989Y-71351459D02*
X92190989Y-70780031D01*
X92190989Y-71065745D02*
X91190989Y-71065745D01*
X91190989Y-71065745D02*
X91333846Y-70970507D01*
X91333846Y-70970507D02*
X91429084Y-70875269D01*
X91429084Y-70875269D02*
X91476703Y-70780031D01*
X92190989Y-71827650D02*
X92190989Y-72018126D01*
X92190989Y-72018126D02*
X92143370Y-72113364D01*
X92143370Y-72113364D02*
X92095750Y-72160983D01*
X92095750Y-72160983D02*
X91952893Y-72256221D01*
X91952893Y-72256221D02*
X91762417Y-72303840D01*
X91762417Y-72303840D02*
X91381465Y-72303840D01*
X91381465Y-72303840D02*
X91286227Y-72256221D01*
X91286227Y-72256221D02*
X91238608Y-72208602D01*
X91238608Y-72208602D02*
X91190989Y-72113364D01*
X91190989Y-72113364D02*
X91190989Y-71922888D01*
X91190989Y-71922888D02*
X91238608Y-71827650D01*
X91238608Y-71827650D02*
X91286227Y-71780031D01*
X91286227Y-71780031D02*
X91381465Y-71732412D01*
X91381465Y-71732412D02*
X91619560Y-71732412D01*
X91619560Y-71732412D02*
X91714798Y-71780031D01*
X91714798Y-71780031D02*
X91762417Y-71827650D01*
X91762417Y-71827650D02*
X91810036Y-71922888D01*
X91810036Y-71922888D02*
X91810036Y-72113364D01*
X91810036Y-72113364D02*
X91762417Y-72208602D01*
X91762417Y-72208602D02*
X91714798Y-72256221D01*
X91714798Y-72256221D02*
X91619560Y-72303840D01*
X87673093Y-75911660D02*
X87673093Y-74911660D01*
X87673093Y-74911660D02*
X87339760Y-75625945D01*
X87339760Y-75625945D02*
X87006427Y-74911660D01*
X87006427Y-74911660D02*
X87006427Y-75911660D01*
X86006427Y-75911660D02*
X86577855Y-75911660D01*
X86292141Y-75911660D02*
X86292141Y-74911660D01*
X86292141Y-74911660D02*
X86387379Y-75054517D01*
X86387379Y-75054517D02*
X86482617Y-75149755D01*
X86482617Y-75149755D02*
X86577855Y-75197374D01*
%LPC*%
D11*
X94693570Y-49864241D03*
G36*
G01*
X92368570Y-50239241D02*
X92368570Y-49489241D01*
G75*
G02*
X92618570Y-49239241I250000J0D01*
G01*
X93368570Y-49239241D01*
G75*
G02*
X93618570Y-49489241I0J-250000D01*
G01*
X93618570Y-50239241D01*
G75*
G02*
X93368570Y-50489241I-250000J0D01*
G01*
X92618570Y-50489241D01*
G75*
G02*
X92368570Y-50239241I0J250000D01*
G01*
G37*
X94693570Y-54944241D03*
G36*
G01*
X92368570Y-55319241D02*
X92368570Y-54569241D01*
G75*
G02*
X92618570Y-54319241I250000J0D01*
G01*
X93368570Y-54319241D01*
G75*
G02*
X93618570Y-54569241I0J-250000D01*
G01*
X93618570Y-55319241D01*
G75*
G02*
X93368570Y-55569241I-250000J0D01*
G01*
X92618570Y-55569241D01*
G75*
G02*
X92368570Y-55319241I0J250000D01*
G01*
G37*
X94693570Y-57484241D03*
G36*
G01*
X92368570Y-57859241D02*
X92368570Y-57109241D01*
G75*
G02*
X92618570Y-56859241I250000J0D01*
G01*
X93368570Y-56859241D01*
G75*
G02*
X93618570Y-57109241I0J-250000D01*
G01*
X93618570Y-57859241D01*
G75*
G02*
X93368570Y-58109241I-250000J0D01*
G01*
X92618570Y-58109241D01*
G75*
G02*
X92368570Y-57859241I0J250000D01*
G01*
G37*
X94693570Y-60024241D03*
G36*
G01*
X92368570Y-60399241D02*
X92368570Y-59649241D01*
G75*
G02*
X92618570Y-59399241I250000J0D01*
G01*
X93368570Y-59399241D01*
G75*
G02*
X93618570Y-59649241I0J-250000D01*
G01*
X93618570Y-60399241D01*
G75*
G02*
X93368570Y-60649241I-250000J0D01*
G01*
X92618570Y-60649241D01*
G75*
G02*
X92368570Y-60399241I0J250000D01*
G01*
G37*
X94693570Y-62564241D03*
G36*
G01*
X92368570Y-62939241D02*
X92368570Y-62189241D01*
G75*
G02*
X92618570Y-61939241I250000J0D01*
G01*
X93368570Y-61939241D01*
G75*
G02*
X93618570Y-62189241I0J-250000D01*
G01*
X93618570Y-62939241D01*
G75*
G02*
X93368570Y-63189241I-250000J0D01*
G01*
X92618570Y-63189241D01*
G75*
G02*
X92368570Y-62939241I0J250000D01*
G01*
G37*
X94693570Y-65104241D03*
G36*
G01*
X92368570Y-65479241D02*
X92368570Y-64729241D01*
G75*
G02*
X92618570Y-64479241I250000J0D01*
G01*
X93368570Y-64479241D01*
G75*
G02*
X93618570Y-64729241I0J-250000D01*
G01*
X93618570Y-65479241D01*
G75*
G02*
X93368570Y-65729241I-250000J0D01*
G01*
X92618570Y-65729241D01*
G75*
G02*
X92368570Y-65479241I0J250000D01*
G01*
G37*
X94693570Y-67644241D03*
G36*
G01*
X92368570Y-68019241D02*
X92368570Y-67269241D01*
G75*
G02*
X92618570Y-67019241I250000J0D01*
G01*
X93368570Y-67019241D01*
G75*
G02*
X93618570Y-67269241I0J-250000D01*
G01*
X93618570Y-68019241D01*
G75*
G02*
X93368570Y-68269241I-250000J0D01*
G01*
X92618570Y-68269241D01*
G75*
G02*
X92368570Y-68019241I0J250000D01*
G01*
G37*
X94693570Y-70184241D03*
G36*
G01*
X92368570Y-70559241D02*
X92368570Y-69809241D01*
G75*
G02*
X92618570Y-69559241I250000J0D01*
G01*
X93368570Y-69559241D01*
G75*
G02*
X93618570Y-69809241I0J-250000D01*
G01*
X93618570Y-70559241D01*
G75*
G02*
X93368570Y-70809241I-250000J0D01*
G01*
X92618570Y-70809241D01*
G75*
G02*
X92368570Y-70559241I0J250000D01*
G01*
G37*
X94693570Y-72724241D03*
G36*
G01*
X92368570Y-73099241D02*
X92368570Y-72349241D01*
G75*
G02*
X92618570Y-72099241I250000J0D01*
G01*
X93368570Y-72099241D01*
G75*
G02*
X93618570Y-72349241I0J-250000D01*
G01*
X93618570Y-73099241D01*
G75*
G02*
X93368570Y-73349241I-250000J0D01*
G01*
X92618570Y-73349241D01*
G75*
G02*
X92368570Y-73099241I0J250000D01*
G01*
G37*
X94693570Y-75264241D03*
G36*
G01*
X92368570Y-75639241D02*
X92368570Y-74889241D01*
G75*
G02*
X92618570Y-74639241I250000J0D01*
G01*
X93368570Y-74639241D01*
G75*
G02*
X93618570Y-74889241I0J-250000D01*
G01*
X93618570Y-75639241D01*
G75*
G02*
X93368570Y-75889241I-250000J0D01*
G01*
X92618570Y-75889241D01*
G75*
G02*
X92368570Y-75639241I0J250000D01*
G01*
G37*
G36*
G01*
X73768570Y-50239241D02*
X73768570Y-49489241D01*
G75*
G02*
X74018570Y-49239241I250000J0D01*
G01*
X74768570Y-49239241D01*
G75*
G02*
X75018570Y-49489241I0J-250000D01*
G01*
X75018570Y-50239241D01*
G75*
G02*
X74768570Y-50489241I-250000J0D01*
G01*
X74018570Y-50489241D01*
G75*
G02*
X73768570Y-50239241I0J250000D01*
G01*
G37*
X72693570Y-49864241D03*
G36*
G01*
X73768570Y-52779241D02*
X73768570Y-52029241D01*
G75*
G02*
X74018570Y-51779241I250000J0D01*
G01*
X74768570Y-51779241D01*
G75*
G02*
X75018570Y-52029241I0J-250000D01*
G01*
X75018570Y-52779241D01*
G75*
G02*
X74768570Y-53029241I-250000J0D01*
G01*
X74018570Y-53029241D01*
G75*
G02*
X73768570Y-52779241I0J250000D01*
G01*
G37*
X72693570Y-52404241D03*
G36*
G01*
X73768570Y-55319241D02*
X73768570Y-54569241D01*
G75*
G02*
X74018570Y-54319241I250000J0D01*
G01*
X74768570Y-54319241D01*
G75*
G02*
X75018570Y-54569241I0J-250000D01*
G01*
X75018570Y-55319241D01*
G75*
G02*
X74768570Y-55569241I-250000J0D01*
G01*
X74018570Y-55569241D01*
G75*
G02*
X73768570Y-55319241I0J250000D01*
G01*
G37*
X72693570Y-54944241D03*
G36*
G01*
X73768570Y-57859241D02*
X73768570Y-57109241D01*
G75*
G02*
X74018570Y-56859241I250000J0D01*
G01*
X74768570Y-56859241D01*
G75*
G02*
X75018570Y-57109241I0J-250000D01*
G01*
X75018570Y-57859241D01*
G75*
G02*
X74768570Y-58109241I-250000J0D01*
G01*
X74018570Y-58109241D01*
G75*
G02*
X73768570Y-57859241I0J250000D01*
G01*
G37*
X72693570Y-57484241D03*
G36*
G01*
X73768570Y-60399241D02*
X73768570Y-59649241D01*
G75*
G02*
X74018570Y-59399241I250000J0D01*
G01*
X74768570Y-59399241D01*
G75*
G02*
X75018570Y-59649241I0J-250000D01*
G01*
X75018570Y-60399241D01*
G75*
G02*
X74768570Y-60649241I-250000J0D01*
G01*
X74018570Y-60649241D01*
G75*
G02*
X73768570Y-60399241I0J250000D01*
G01*
G37*
X72693570Y-60024241D03*
G36*
G01*
X73768570Y-62939241D02*
X73768570Y-62189241D01*
G75*
G02*
X74018570Y-61939241I250000J0D01*
G01*
X74768570Y-61939241D01*
G75*
G02*
X75018570Y-62189241I0J-250000D01*
G01*
X75018570Y-62939241D01*
G75*
G02*
X74768570Y-63189241I-250000J0D01*
G01*
X74018570Y-63189241D01*
G75*
G02*
X73768570Y-62939241I0J250000D01*
G01*
G37*
X72693570Y-62564241D03*
G36*
G01*
X73768570Y-65479241D02*
X73768570Y-64729241D01*
G75*
G02*
X74018570Y-64479241I250000J0D01*
G01*
X74768570Y-64479241D01*
G75*
G02*
X75018570Y-64729241I0J-250000D01*
G01*
X75018570Y-65479241D01*
G75*
G02*
X74768570Y-65729241I-250000J0D01*
G01*
X74018570Y-65729241D01*
G75*
G02*
X73768570Y-65479241I0J250000D01*
G01*
G37*
X72693570Y-65104241D03*
G36*
G01*
X73768570Y-68019241D02*
X73768570Y-67269241D01*
G75*
G02*
X74018570Y-67019241I250000J0D01*
G01*
X74768570Y-67019241D01*
G75*
G02*
X75018570Y-67269241I0J-250000D01*
G01*
X75018570Y-68019241D01*
G75*
G02*
X74768570Y-68269241I-250000J0D01*
G01*
X74018570Y-68269241D01*
G75*
G02*
X73768570Y-68019241I0J250000D01*
G01*
G37*
X72693570Y-67644241D03*
G36*
G01*
X73768570Y-70559241D02*
X73768570Y-69809241D01*
G75*
G02*
X74018570Y-69559241I250000J0D01*
G01*
X74768570Y-69559241D01*
G75*
G02*
X75018570Y-69809241I0J-250000D01*
G01*
X75018570Y-70559241D01*
G75*
G02*
X74768570Y-70809241I-250000J0D01*
G01*
X74018570Y-70809241D01*
G75*
G02*
X73768570Y-70559241I0J250000D01*
G01*
G37*
X72693570Y-70184241D03*
G36*
G01*
X73768570Y-73099241D02*
X73768570Y-72349241D01*
G75*
G02*
X74018570Y-72099241I250000J0D01*
G01*
X74768570Y-72099241D01*
G75*
G02*
X75018570Y-72349241I0J-250000D01*
G01*
X75018570Y-73099241D01*
G75*
G02*
X74768570Y-73349241I-250000J0D01*
G01*
X74018570Y-73349241D01*
G75*
G02*
X73768570Y-73099241I0J250000D01*
G01*
G37*
X72693570Y-72724241D03*
G36*
G01*
X73768570Y-75639241D02*
X73768570Y-74889241D01*
G75*
G02*
X74018570Y-74639241I250000J0D01*
G01*
X74768570Y-74639241D01*
G75*
G02*
X75018570Y-74889241I0J-250000D01*
G01*
X75018570Y-75639241D01*
G75*
G02*
X74768570Y-75889241I-250000J0D01*
G01*
X74018570Y-75889241D01*
G75*
G02*
X73768570Y-75639241I0J250000D01*
G01*
G37*
X72693570Y-75264241D03*
%LPD*%
M02*
