G04 #@! TF.GenerationSoftware,KiCad,Pcbnew,9.0.1+1*
G04 #@! TF.CreationDate,2025-11-12T15:11:53+00:00*
G04 #@! TF.ProjectId,audio-codec,61756469-6f2d-4636-9f64-65632e6b6963,rev?*
G04 #@! TF.SameCoordinates,Original*
G04 #@! TF.FileFunction,Copper,L2,Bot*
G04 #@! TF.FilePolarity,Positive*
%FSLAX46Y46*%
G04 Gerber Fmt 4.6, Leading zero omitted, Abs format (unit mm)*
G04 Created by KiCad (PCBNEW 9.0.1+1) date 2025-11-12 15:11:53*
%MOMM*%
%LPD*%
G01*
G04 APERTURE LIST*
G04 #@! TA.AperFunction,ComponentPad*
%ADD10C,0.400000*%
G04 #@! TD*
G04 #@! TA.AperFunction,CastellatedPad*
%ADD11R,2.540000X2.000000*%
G04 #@! TD*
G04 #@! TA.AperFunction,ViaPad*
%ADD12C,0.600000*%
G04 #@! TD*
G04 #@! TA.AperFunction,Conductor*
%ADD13C,0.200000*%
G04 #@! TD*
G04 #@! TA.AperFunction,Conductor*
%ADD14C,0.750000*%
G04 #@! TD*
G04 #@! TA.AperFunction,Conductor*
%ADD15C,0.500000*%
G04 #@! TD*
G04 APERTURE END LIST*
D10*
X83303570Y-64589241D03*
X84778570Y-64589241D03*
X83303570Y-63114241D03*
X81828570Y-64589241D03*
X83303570Y-66064241D03*
D11*
X94693570Y-49864241D03*
G04 #@! TA.AperFunction,ComponentPad*
G36*
G01*
X92368570Y-50239241D02*
X92368570Y-49489241D01*
G75*
G02*
X92618570Y-49239241I250000J0D01*
G01*
X93368570Y-49239241D01*
G75*
G02*
X93618570Y-49489241I0J-250000D01*
G01*
X93618570Y-50239241D01*
G75*
G02*
X93368570Y-50489241I-250000J0D01*
G01*
X92618570Y-50489241D01*
G75*
G02*
X92368570Y-50239241I0J250000D01*
G01*
G37*
G04 #@! TD.AperFunction*
X94693570Y-54944241D03*
G04 #@! TA.AperFunction,ComponentPad*
G36*
G01*
X92368570Y-55319241D02*
X92368570Y-54569241D01*
G75*
G02*
X92618570Y-54319241I250000J0D01*
G01*
X93368570Y-54319241D01*
G75*
G02*
X93618570Y-54569241I0J-250000D01*
G01*
X93618570Y-55319241D01*
G75*
G02*
X93368570Y-55569241I-250000J0D01*
G01*
X92618570Y-55569241D01*
G75*
G02*
X92368570Y-55319241I0J250000D01*
G01*
G37*
G04 #@! TD.AperFunction*
X94693570Y-57484241D03*
G04 #@! TA.AperFunction,ComponentPad*
G36*
G01*
X92368570Y-57859241D02*
X92368570Y-57109241D01*
G75*
G02*
X92618570Y-56859241I250000J0D01*
G01*
X93368570Y-56859241D01*
G75*
G02*
X93618570Y-57109241I0J-250000D01*
G01*
X93618570Y-57859241D01*
G75*
G02*
X93368570Y-58109241I-250000J0D01*
G01*
X92618570Y-58109241D01*
G75*
G02*
X92368570Y-57859241I0J250000D01*
G01*
G37*
G04 #@! TD.AperFunction*
X94693570Y-60024241D03*
G04 #@! TA.AperFunction,ComponentPad*
G36*
G01*
X92368570Y-60399241D02*
X92368570Y-59649241D01*
G75*
G02*
X92618570Y-59399241I250000J0D01*
G01*
X93368570Y-59399241D01*
G75*
G02*
X93618570Y-59649241I0J-250000D01*
G01*
X93618570Y-60399241D01*
G75*
G02*
X93368570Y-60649241I-250000J0D01*
G01*
X92618570Y-60649241D01*
G75*
G02*
X92368570Y-60399241I0J250000D01*
G01*
G37*
G04 #@! TD.AperFunction*
X94693570Y-62564241D03*
G04 #@! TA.AperFunction,ComponentPad*
G36*
G01*
X92368570Y-62939241D02*
X92368570Y-62189241D01*
G75*
G02*
X92618570Y-61939241I250000J0D01*
G01*
X93368570Y-61939241D01*
G75*
G02*
X93618570Y-62189241I0J-250000D01*
G01*
X93618570Y-62939241D01*
G75*
G02*
X93368570Y-63189241I-250000J0D01*
G01*
X92618570Y-63189241D01*
G75*
G02*
X92368570Y-62939241I0J250000D01*
G01*
G37*
G04 #@! TD.AperFunction*
X94693570Y-65104241D03*
G04 #@! TA.AperFunction,ComponentPad*
G36*
G01*
X92368570Y-65479241D02*
X92368570Y-64729241D01*
G75*
G02*
X92618570Y-64479241I250000J0D01*
G01*
X93368570Y-64479241D01*
G75*
G02*
X93618570Y-64729241I0J-250000D01*
G01*
X93618570Y-65479241D01*
G75*
G02*
X93368570Y-65729241I-250000J0D01*
G01*
X92618570Y-65729241D01*
G75*
G02*
X92368570Y-65479241I0J250000D01*
G01*
G37*
G04 #@! TD.AperFunction*
X94693570Y-67644241D03*
G04 #@! TA.AperFunction,ComponentPad*
G36*
G01*
X92368570Y-68019241D02*
X92368570Y-67269241D01*
G75*
G02*
X92618570Y-67019241I250000J0D01*
G01*
X93368570Y-67019241D01*
G75*
G02*
X93618570Y-67269241I0J-250000D01*
G01*
X93618570Y-68019241D01*
G75*
G02*
X93368570Y-68269241I-250000J0D01*
G01*
X92618570Y-68269241D01*
G75*
G02*
X92368570Y-68019241I0J250000D01*
G01*
G37*
G04 #@! TD.AperFunction*
X94693570Y-70184241D03*
G04 #@! TA.AperFunction,ComponentPad*
G36*
G01*
X92368570Y-70559241D02*
X92368570Y-69809241D01*
G75*
G02*
X92618570Y-69559241I250000J0D01*
G01*
X93368570Y-69559241D01*
G75*
G02*
X93618570Y-69809241I0J-250000D01*
G01*
X93618570Y-70559241D01*
G75*
G02*
X93368570Y-70809241I-250000J0D01*
G01*
X92618570Y-70809241D01*
G75*
G02*
X92368570Y-70559241I0J250000D01*
G01*
G37*
G04 #@! TD.AperFunction*
X94693570Y-72724241D03*
G04 #@! TA.AperFunction,ComponentPad*
G36*
G01*
X92368570Y-73099241D02*
X92368570Y-72349241D01*
G75*
G02*
X92618570Y-72099241I250000J0D01*
G01*
X93368570Y-72099241D01*
G75*
G02*
X93618570Y-72349241I0J-250000D01*
G01*
X93618570Y-73099241D01*
G75*
G02*
X93368570Y-73349241I-250000J0D01*
G01*
X92618570Y-73349241D01*
G75*
G02*
X92368570Y-73099241I0J250000D01*
G01*
G37*
G04 #@! TD.AperFunction*
X94693570Y-75264241D03*
G04 #@! TA.AperFunction,ComponentPad*
G36*
G01*
X92368570Y-75639241D02*
X92368570Y-74889241D01*
G75*
G02*
X92618570Y-74639241I250000J0D01*
G01*
X93368570Y-74639241D01*
G75*
G02*
X93618570Y-74889241I0J-250000D01*
G01*
X93618570Y-75639241D01*
G75*
G02*
X93368570Y-75889241I-250000J0D01*
G01*
X92618570Y-75889241D01*
G75*
G02*
X92368570Y-75639241I0J250000D01*
G01*
G37*
G04 #@! TD.AperFunction*
G04 #@! TA.AperFunction,ComponentPad*
G36*
G01*
X73768570Y-50239241D02*
X73768570Y-49489241D01*
G75*
G02*
X74018570Y-49239241I250000J0D01*
G01*
X74768570Y-49239241D01*
G75*
G02*
X75018570Y-49489241I0J-250000D01*
G01*
X75018570Y-50239241D01*
G75*
G02*
X74768570Y-50489241I-250000J0D01*
G01*
X74018570Y-50489241D01*
G75*
G02*
X73768570Y-50239241I0J250000D01*
G01*
G37*
G04 #@! TD.AperFunction*
X72693570Y-49864241D03*
G04 #@! TA.AperFunction,ComponentPad*
G36*
G01*
X73768570Y-52779241D02*
X73768570Y-52029241D01*
G75*
G02*
X74018570Y-51779241I250000J0D01*
G01*
X74768570Y-51779241D01*
G75*
G02*
X75018570Y-52029241I0J-250000D01*
G01*
X75018570Y-52779241D01*
G75*
G02*
X74768570Y-53029241I-250000J0D01*
G01*
X74018570Y-53029241D01*
G75*
G02*
X73768570Y-52779241I0J250000D01*
G01*
G37*
G04 #@! TD.AperFunction*
X72693570Y-52404241D03*
G04 #@! TA.AperFunction,ComponentPad*
G36*
G01*
X73768570Y-55319241D02*
X73768570Y-54569241D01*
G75*
G02*
X74018570Y-54319241I250000J0D01*
G01*
X74768570Y-54319241D01*
G75*
G02*
X75018570Y-54569241I0J-250000D01*
G01*
X75018570Y-55319241D01*
G75*
G02*
X74768570Y-55569241I-250000J0D01*
G01*
X74018570Y-55569241D01*
G75*
G02*
X73768570Y-55319241I0J250000D01*
G01*
G37*
G04 #@! TD.AperFunction*
X72693570Y-54944241D03*
G04 #@! TA.AperFunction,ComponentPad*
G36*
G01*
X73768570Y-57859241D02*
X73768570Y-57109241D01*
G75*
G02*
X74018570Y-56859241I250000J0D01*
G01*
X74768570Y-56859241D01*
G75*
G02*
X75018570Y-57109241I0J-250000D01*
G01*
X75018570Y-57859241D01*
G75*
G02*
X74768570Y-58109241I-250000J0D01*
G01*
X74018570Y-58109241D01*
G75*
G02*
X73768570Y-57859241I0J250000D01*
G01*
G37*
G04 #@! TD.AperFunction*
X72693570Y-57484241D03*
G04 #@! TA.AperFunction,ComponentPad*
G36*
G01*
X73768570Y-60399241D02*
X73768570Y-59649241D01*
G75*
G02*
X74018570Y-59399241I250000J0D01*
G01*
X74768570Y-59399241D01*
G75*
G02*
X75018570Y-59649241I0J-250000D01*
G01*
X75018570Y-60399241D01*
G75*
G02*
X74768570Y-60649241I-250000J0D01*
G01*
X74018570Y-60649241D01*
G75*
G02*
X73768570Y-60399241I0J250000D01*
G01*
G37*
G04 #@! TD.AperFunction*
X72693570Y-60024241D03*
G04 #@! TA.AperFunction,ComponentPad*
G36*
G01*
X73768570Y-62939241D02*
X73768570Y-62189241D01*
G75*
G02*
X74018570Y-61939241I250000J0D01*
G01*
X74768570Y-61939241D01*
G75*
G02*
X75018570Y-62189241I0J-250000D01*
G01*
X75018570Y-62939241D01*
G75*
G02*
X74768570Y-63189241I-250000J0D01*
G01*
X74018570Y-63189241D01*
G75*
G02*
X73768570Y-62939241I0J250000D01*
G01*
G37*
G04 #@! TD.AperFunction*
X72693570Y-62564241D03*
G04 #@! TA.AperFunction,ComponentPad*
G36*
G01*
X73768570Y-65479241D02*
X73768570Y-64729241D01*
G75*
G02*
X74018570Y-64479241I250000J0D01*
G01*
X74768570Y-64479241D01*
G75*
G02*
X75018570Y-64729241I0J-250000D01*
G01*
X75018570Y-65479241D01*
G75*
G02*
X74768570Y-65729241I-250000J0D01*
G01*
X74018570Y-65729241D01*
G75*
G02*
X73768570Y-65479241I0J250000D01*
G01*
G37*
G04 #@! TD.AperFunction*
X72693570Y-65104241D03*
G04 #@! TA.AperFunction,ComponentPad*
G36*
G01*
X73768570Y-68019241D02*
X73768570Y-67269241D01*
G75*
G02*
X74018570Y-67019241I250000J0D01*
G01*
X74768570Y-67019241D01*
G75*
G02*
X75018570Y-67269241I0J-250000D01*
G01*
X75018570Y-68019241D01*
G75*
G02*
X74768570Y-68269241I-250000J0D01*
G01*
X74018570Y-68269241D01*
G75*
G02*
X73768570Y-68019241I0J250000D01*
G01*
G37*
G04 #@! TD.AperFunction*
X72693570Y-67644241D03*
G04 #@! TA.AperFunction,ComponentPad*
G36*
G01*
X73768570Y-70559241D02*
X73768570Y-69809241D01*
G75*
G02*
X74018570Y-69559241I250000J0D01*
G01*
X74768570Y-69559241D01*
G75*
G02*
X75018570Y-69809241I0J-250000D01*
G01*
X75018570Y-70559241D01*
G75*
G02*
X74768570Y-70809241I-250000J0D01*
G01*
X74018570Y-70809241D01*
G75*
G02*
X73768570Y-70559241I0J250000D01*
G01*
G37*
G04 #@! TD.AperFunction*
X72693570Y-70184241D03*
G04 #@! TA.AperFunction,ComponentPad*
G36*
G01*
X73768570Y-73099241D02*
X73768570Y-72349241D01*
G75*
G02*
X74018570Y-72099241I250000J0D01*
G01*
X74768570Y-72099241D01*
G75*
G02*
X75018570Y-72349241I0J-250000D01*
G01*
X75018570Y-73099241D01*
G75*
G02*
X74768570Y-73349241I-250000J0D01*
G01*
X74018570Y-73349241D01*
G75*
G02*
X73768570Y-73099241I0J250000D01*
G01*
G37*
G04 #@! TD.AperFunction*
X72693570Y-72724241D03*
G04 #@! TA.AperFunction,ComponentPad*
G36*
G01*
X73768570Y-75639241D02*
X73768570Y-74889241D01*
G75*
G02*
X74018570Y-74639241I250000J0D01*
G01*
X74768570Y-74639241D01*
G75*
G02*
X75018570Y-74889241I0J-250000D01*
G01*
X75018570Y-75639241D01*
G75*
G02*
X74768570Y-75889241I-250000J0D01*
G01*
X74018570Y-75889241D01*
G75*
G02*
X73768570Y-75639241I0J250000D01*
G01*
G37*
G04 #@! TD.AperFunction*
X72693570Y-75264241D03*
D12*
X87318570Y-56424241D03*
X87503570Y-64389241D03*
X87528570Y-61364241D03*
X86193570Y-54039241D03*
X79392813Y-63414241D03*
X79278528Y-64637812D03*
X86293570Y-59734241D03*
X80623570Y-60254241D03*
X89173570Y-66164241D03*
X74563570Y-58744241D03*
X80678570Y-66839241D03*
X92413570Y-71444241D03*
X86483570Y-56704241D03*
X77743570Y-57244241D03*
X91693570Y-63854241D03*
X88943570Y-51724241D03*
X83335496Y-53389241D03*
X78083570Y-63404241D03*
X76313570Y-58854241D03*
X91693570Y-53454241D03*
X76493570Y-72304241D03*
X83053570Y-67739241D03*
X74703570Y-53664241D03*
X86303570Y-52064241D03*
X88733570Y-75464241D03*
X92253570Y-61254241D03*
X74703570Y-61274241D03*
X77313570Y-54444241D03*
X86478570Y-64389241D03*
X81623570Y-68564241D03*
X81843570Y-67794241D03*
X78543570Y-68484241D03*
X75313570Y-73934241D03*
X75113570Y-68854241D03*
X87623570Y-53034241D03*
X85393570Y-55264241D03*
X77103570Y-60374241D03*
X74803570Y-56224241D03*
X85753570Y-66939241D03*
X85843570Y-69274241D03*
X85513570Y-61804241D03*
X88993570Y-50664241D03*
X75103570Y-71424241D03*
X89493570Y-56734241D03*
X81673570Y-71664241D03*
X89228570Y-67614241D03*
X74683570Y-63874241D03*
X74993570Y-66354241D03*
X92353570Y-68944241D03*
X91693570Y-51724241D03*
X90073570Y-75464241D03*
X74633570Y-51134241D03*
X89573570Y-59714241D03*
X91823570Y-74094241D03*
X91693570Y-58804241D03*
X83593570Y-58374241D03*
X92253570Y-56184241D03*
X87113570Y-71714241D03*
X92333570Y-66304241D03*
X78553570Y-71544241D03*
X83628570Y-73154241D03*
X84783570Y-72384241D03*
X80128570Y-74064241D03*
X88903570Y-55654241D03*
X88973570Y-54354241D03*
X84670677Y-68447134D03*
X86128570Y-67645907D03*
X90123570Y-56224241D03*
D13*
X87478570Y-64364241D02*
X87503570Y-64389241D01*
X87528570Y-61364241D02*
X87478570Y-61414241D01*
X87318570Y-56424241D02*
X87243570Y-56349241D01*
X87243570Y-56349241D02*
X87243570Y-55089241D01*
X87478570Y-61414241D02*
X87478570Y-64364241D01*
X87243570Y-55089241D02*
X86193570Y-54039241D01*
X79392813Y-64523527D02*
X79278528Y-64637812D01*
X79392813Y-63414241D02*
X79392813Y-64523527D01*
X89253570Y-62839241D02*
X89203570Y-62789241D01*
X77503570Y-64889241D02*
X77503570Y-62964241D01*
D14*
X93518570Y-75464241D02*
X90073570Y-75464241D01*
D15*
X91823570Y-74094241D02*
X92993570Y-75264241D01*
X91693570Y-53454241D02*
X91693570Y-58804241D01*
X91693570Y-58804241D02*
X91693570Y-63854241D01*
D13*
X89253570Y-65164241D02*
X89253570Y-62839241D01*
D14*
X88733570Y-75464241D02*
X88493570Y-75464241D01*
D15*
X91693570Y-73964241D02*
X91823570Y-74094241D01*
X91693570Y-51724241D02*
X91693570Y-53454241D01*
D14*
X90073570Y-75464241D02*
X88733570Y-75464241D01*
D15*
X91693570Y-63854241D02*
X91693570Y-73964241D01*
D14*
X94018570Y-74964241D02*
X93518570Y-75464241D01*
D15*
X85528570Y-74084241D02*
X85323570Y-74289241D01*
X92983570Y-49874241D02*
X92993570Y-49864241D01*
X93718570Y-49864241D02*
X94018570Y-49564241D01*
X85323570Y-74289241D02*
X85588570Y-74289241D01*
X83628570Y-73154241D02*
X83628570Y-74014241D01*
X91993570Y-49874241D02*
X92983570Y-49874241D01*
X85323570Y-74289241D02*
X83903570Y-74289241D01*
X90893570Y-50974241D02*
X91993570Y-49874241D01*
X83628570Y-74014241D02*
X83308570Y-74334241D01*
X84783570Y-72384241D02*
X85528570Y-73129241D01*
X80398570Y-74334241D02*
X80128570Y-74064241D01*
X83308570Y-74334241D02*
X80398570Y-74334241D01*
X85588570Y-74289241D02*
X85603570Y-74274241D01*
X90003570Y-74274241D02*
X90893570Y-73384241D01*
X85603570Y-74274241D02*
X90003570Y-74274241D01*
X92993570Y-49864241D02*
X93718570Y-49864241D01*
X85528570Y-73129241D02*
X85528570Y-74084241D01*
X83903570Y-74289241D02*
X83628570Y-74014241D01*
X90893570Y-73384241D02*
X90893570Y-50974241D01*
D13*
X88903570Y-55654241D02*
X88903570Y-55594241D01*
X88903570Y-55594241D02*
X88973570Y-55524241D01*
X88973570Y-55524241D02*
X88973570Y-54354241D01*
X84670677Y-68447134D02*
X84939405Y-68447134D01*
X85788372Y-67986105D02*
X86128570Y-67645907D01*
X85400434Y-67986105D02*
X85788372Y-67986105D01*
X84939405Y-68447134D02*
X85400434Y-67986105D01*
X76323570Y-52104241D02*
X73698570Y-52104241D01*
X90123570Y-56224241D02*
X89963570Y-56064241D01*
X89963570Y-53664241D02*
X86903570Y-50604241D01*
X86903570Y-50604241D02*
X77823570Y-50604241D01*
X77823570Y-50604241D02*
X76323570Y-52104241D01*
X89963570Y-56064241D02*
X89963570Y-53664241D01*
G04 #@! TA.AperFunction,Conductor*
G36*
X86670512Y-51224426D02*
G01*
X86691154Y-51241060D01*
X88821692Y-53371599D01*
X88855177Y-53432922D01*
X88850193Y-53502614D01*
X88808321Y-53558547D01*
X88758204Y-53580897D01*
X88740077Y-53584502D01*
X88740068Y-53584505D01*
X88594397Y-53644843D01*
X88594384Y-53644850D01*
X88463281Y-53732451D01*
X88463277Y-53732454D01*
X88351783Y-53843948D01*
X88351780Y-53843952D01*
X88264179Y-53975055D01*
X88264172Y-53975068D01*
X88203834Y-54120739D01*
X88203831Y-54120751D01*
X88173070Y-54275394D01*
X88173070Y-54433087D01*
X88203831Y-54587730D01*
X88203834Y-54587742D01*
X88264172Y-54733413D01*
X88264179Y-54733426D01*
X88352172Y-54865115D01*
X88357822Y-54883161D01*
X88368047Y-54899071D01*
X88372498Y-54930030D01*
X88373050Y-54931792D01*
X88373070Y-54934006D01*
X88373070Y-55001300D01*
X88353385Y-55068339D01*
X88336751Y-55088981D01*
X88281783Y-55143948D01*
X88281780Y-55143952D01*
X88194179Y-55275055D01*
X88194172Y-55275068D01*
X88133834Y-55420739D01*
X88133831Y-55420751D01*
X88103070Y-55575394D01*
X88103070Y-55733082D01*
X88108634Y-55761057D01*
X88102405Y-55830649D01*
X88059541Y-55885826D01*
X87993651Y-55909069D01*
X87925655Y-55893000D01*
X87899336Y-55872929D01*
X87880386Y-55853979D01*
X87846903Y-55792655D01*
X87844070Y-55766300D01*
X87844070Y-55010184D01*
X87844069Y-55010181D01*
X87834919Y-54976030D01*
X87803147Y-54857456D01*
X87774209Y-54807336D01*
X87724090Y-54720525D01*
X87612286Y-54608721D01*
X87612285Y-54608720D01*
X87607955Y-54604390D01*
X87607944Y-54604380D01*
X87028144Y-54024580D01*
X86994659Y-53963257D01*
X86994208Y-53961090D01*
X86963308Y-53805751D01*
X86963307Y-53805744D01*
X86958447Y-53794010D01*
X86902967Y-53660068D01*
X86902960Y-53660055D01*
X86815359Y-53528952D01*
X86815356Y-53528948D01*
X86703862Y-53417454D01*
X86703858Y-53417451D01*
X86572755Y-53329850D01*
X86572742Y-53329843D01*
X86427071Y-53269505D01*
X86427059Y-53269502D01*
X86272415Y-53238741D01*
X86272412Y-53238741D01*
X86114728Y-53238741D01*
X86114725Y-53238741D01*
X85960080Y-53269502D01*
X85960068Y-53269505D01*
X85814397Y-53329843D01*
X85814384Y-53329850D01*
X85683281Y-53417451D01*
X85683277Y-53417454D01*
X85571783Y-53528948D01*
X85571780Y-53528952D01*
X85484179Y-53660055D01*
X85484172Y-53660068D01*
X85423834Y-53805739D01*
X85423831Y-53805751D01*
X85393070Y-53960394D01*
X85393070Y-54118087D01*
X85423831Y-54272730D01*
X85423834Y-54272742D01*
X85484172Y-54418413D01*
X85484179Y-54418426D01*
X85571780Y-54549529D01*
X85571783Y-54549533D01*
X85683277Y-54661027D01*
X85683281Y-54661030D01*
X85814384Y-54748631D01*
X85814397Y-54748638D01*
X85956109Y-54807336D01*
X85960073Y-54808978D01*
X86024717Y-54821836D01*
X86115419Y-54839879D01*
X86177330Y-54872264D01*
X86178909Y-54873815D01*
X86606751Y-55301657D01*
X86640236Y-55362980D01*
X86643070Y-55389338D01*
X86643070Y-55956720D01*
X86623385Y-56023759D01*
X86622172Y-56025611D01*
X86609179Y-56045055D01*
X86609172Y-56045068D01*
X86548834Y-56190739D01*
X86548831Y-56190751D01*
X86518070Y-56345394D01*
X86518070Y-56503087D01*
X86548831Y-56657730D01*
X86548834Y-56657742D01*
X86609172Y-56803413D01*
X86609179Y-56803426D01*
X86696780Y-56934529D01*
X86696783Y-56934533D01*
X86808277Y-57046027D01*
X86808281Y-57046030D01*
X86939384Y-57133631D01*
X86939397Y-57133638D01*
X87085068Y-57193976D01*
X87085073Y-57193978D01*
X87239723Y-57224740D01*
X87239726Y-57224741D01*
X87239728Y-57224741D01*
X87397414Y-57224741D01*
X87397415Y-57224740D01*
X87552067Y-57193978D01*
X87697749Y-57133635D01*
X87828859Y-57046030D01*
X87940359Y-56934530D01*
X88027964Y-56803420D01*
X88033563Y-56789904D01*
X88088305Y-56657742D01*
X88088307Y-56657738D01*
X88119070Y-56503083D01*
X88119070Y-56345399D01*
X88117808Y-56339056D01*
X88113506Y-56317428D01*
X88119733Y-56247836D01*
X88162595Y-56192658D01*
X88228484Y-56169413D01*
X88296481Y-56185480D01*
X88322804Y-56205554D01*
X88393277Y-56276027D01*
X88393281Y-56276030D01*
X88524384Y-56363631D01*
X88524397Y-56363638D01*
X88593515Y-56392267D01*
X88670073Y-56423978D01*
X88824723Y-56454740D01*
X88824726Y-56454741D01*
X88824728Y-56454741D01*
X88982414Y-56454741D01*
X88982415Y-56454740D01*
X89137067Y-56423978D01*
X89195593Y-56399735D01*
X89265060Y-56392267D01*
X89327539Y-56423542D01*
X89357605Y-56466845D01*
X89414172Y-56603413D01*
X89414179Y-56603426D01*
X89501780Y-56734529D01*
X89501783Y-56734533D01*
X89613277Y-56846027D01*
X89613281Y-56846030D01*
X89744384Y-56933631D01*
X89744397Y-56933638D01*
X89885650Y-56992146D01*
X89890073Y-56993978D01*
X90043261Y-57024449D01*
X90105172Y-57056833D01*
X90139746Y-57117549D01*
X90143070Y-57146066D01*
X90143070Y-73022011D01*
X90123385Y-73089050D01*
X90106751Y-73109692D01*
X89729021Y-73487422D01*
X89667698Y-73520907D01*
X89641340Y-73523741D01*
X86403070Y-73523741D01*
X86336031Y-73504056D01*
X86290276Y-73451252D01*
X86279070Y-73399741D01*
X86279070Y-73055320D01*
X86250229Y-72910333D01*
X86250228Y-72910332D01*
X86250228Y-72910328D01*
X86194202Y-72775068D01*
X86193657Y-72773752D01*
X86193650Y-72773739D01*
X86111522Y-72650826D01*
X86104644Y-72643948D01*
X86006986Y-72546290D01*
X85529642Y-72068946D01*
X85502761Y-72028714D01*
X85492967Y-72005069D01*
X85492966Y-72005067D01*
X85492964Y-72005062D01*
X85463894Y-71961556D01*
X85405359Y-71873951D01*
X85293862Y-71762454D01*
X85293858Y-71762451D01*
X85162755Y-71674850D01*
X85162742Y-71674843D01*
X85017071Y-71614505D01*
X85017059Y-71614502D01*
X84862415Y-71583741D01*
X84862412Y-71583741D01*
X84704728Y-71583741D01*
X84704725Y-71583741D01*
X84550080Y-71614502D01*
X84550068Y-71614505D01*
X84404397Y-71674843D01*
X84404384Y-71674850D01*
X84273281Y-71762451D01*
X84273277Y-71762454D01*
X84161783Y-71873948D01*
X84161780Y-71873952D01*
X84074179Y-72005055D01*
X84074172Y-72005068D01*
X84013834Y-72150739D01*
X84013831Y-72150749D01*
X83987519Y-72283029D01*
X83955134Y-72344940D01*
X83894418Y-72379514D01*
X83841711Y-72380454D01*
X83707416Y-72353741D01*
X83707412Y-72353741D01*
X83549728Y-72353741D01*
X83549725Y-72353741D01*
X83395080Y-72384502D01*
X83395068Y-72384505D01*
X83249397Y-72444843D01*
X83249384Y-72444850D01*
X83118281Y-72532451D01*
X83118277Y-72532454D01*
X83006783Y-72643948D01*
X83006780Y-72643952D01*
X82919179Y-72775055D01*
X82919172Y-72775068D01*
X82858834Y-72920739D01*
X82858831Y-72920751D01*
X82828070Y-73075394D01*
X82828070Y-73233087D01*
X82858831Y-73387730D01*
X82858833Y-73387738D01*
X82868631Y-73411392D01*
X82870257Y-73419569D01*
X82873047Y-73423910D01*
X82878070Y-73458845D01*
X82878070Y-73459741D01*
X82858385Y-73526780D01*
X82805581Y-73572535D01*
X82754070Y-73583741D01*
X80831511Y-73583741D01*
X80764472Y-73564056D01*
X80743830Y-73547422D01*
X80638862Y-73442454D01*
X80638858Y-73442451D01*
X80507755Y-73354850D01*
X80507742Y-73354843D01*
X80362071Y-73294505D01*
X80362059Y-73294502D01*
X80207415Y-73263741D01*
X80207412Y-73263741D01*
X80049728Y-73263741D01*
X80049725Y-73263741D01*
X79895080Y-73294502D01*
X79895068Y-73294505D01*
X79749397Y-73354843D01*
X79749384Y-73354850D01*
X79618281Y-73442451D01*
X79618277Y-73442454D01*
X79506783Y-73553948D01*
X79506780Y-73553952D01*
X79419179Y-73685055D01*
X79419172Y-73685068D01*
X79358834Y-73830739D01*
X79358831Y-73830751D01*
X79328070Y-73985394D01*
X79328070Y-74143087D01*
X79358831Y-74297730D01*
X79358834Y-74297742D01*
X79419172Y-74443413D01*
X79419179Y-74443426D01*
X79506780Y-74574529D01*
X79506783Y-74574533D01*
X79618277Y-74686027D01*
X79618281Y-74686030D01*
X79749384Y-74773631D01*
X79749397Y-74773638D01*
X79773047Y-74783434D01*
X79779979Y-74788066D01*
X79785022Y-74789163D01*
X79813275Y-74810313D01*
X79815619Y-74812657D01*
X79920154Y-74917192D01*
X79920157Y-74917194D01*
X79920158Y-74917195D01*
X80043064Y-74999318D01*
X80043066Y-74999319D01*
X80043075Y-74999325D01*
X80071018Y-75010899D01*
X80071019Y-75010900D01*
X80071020Y-75010900D01*
X80179658Y-75055900D01*
X80295811Y-75079004D01*
X80315038Y-75082828D01*
X80324651Y-75084741D01*
X80324652Y-75084741D01*
X83382490Y-75084741D01*
X83501301Y-75061107D01*
X83527483Y-75055899D01*
X83617114Y-75018771D01*
X83635916Y-75016750D01*
X83653513Y-75009827D01*
X83684748Y-75011500D01*
X83686583Y-75011303D01*
X83688721Y-75011708D01*
X83800811Y-75034004D01*
X83820038Y-75037828D01*
X83829651Y-75039741D01*
X83829652Y-75039741D01*
X85662489Y-75039741D01*
X85725917Y-75027124D01*
X85750109Y-75024741D01*
X90077490Y-75024741D01*
X90202952Y-74999784D01*
X90222483Y-74995899D01*
X90359065Y-74939325D01*
X90408299Y-74906427D01*
X90481986Y-74857193D01*
X91476522Y-73862657D01*
X91497190Y-73831724D01*
X91538324Y-73770163D01*
X91538326Y-73770158D01*
X91538332Y-73770150D01*
X91558654Y-73739736D01*
X91615228Y-73603154D01*
X91631588Y-73520907D01*
X91644070Y-73458161D01*
X91644070Y-73312785D01*
X91663755Y-73245746D01*
X91716559Y-73199991D01*
X91785717Y-73190047D01*
X91849273Y-73219072D01*
X91885776Y-73273781D01*
X91933755Y-73418572D01*
X91933757Y-73418577D01*
X91953911Y-73451252D01*
X92025858Y-73567897D01*
X92149914Y-73691953D01*
X92299236Y-73784055D01*
X92465773Y-73839240D01*
X92568561Y-73849741D01*
X92850103Y-73849740D01*
X92871349Y-73855978D01*
X92893436Y-73857558D01*
X92904217Y-73865629D01*
X92917142Y-73869424D01*
X92931644Y-73886160D01*
X92949369Y-73899429D01*
X92959981Y-73918863D01*
X92962897Y-73922228D01*
X92966284Y-73930405D01*
X92974197Y-73951620D01*
X92979182Y-74021312D01*
X92974196Y-74038292D01*
X92966629Y-74058578D01*
X92924756Y-74114510D01*
X92859291Y-74138925D01*
X92850449Y-74139241D01*
X92568599Y-74139241D01*
X92568582Y-74139242D01*
X92465872Y-74149735D01*
X92299448Y-74204883D01*
X92299443Y-74204885D01*
X92292221Y-74209339D01*
X92292220Y-74209340D01*
X92972121Y-74889241D01*
X92944200Y-74889241D01*
X92848825Y-74914797D01*
X92763315Y-74964166D01*
X92693495Y-75033986D01*
X92644126Y-75119496D01*
X92618570Y-75214871D01*
X92618570Y-75242792D01*
X91938669Y-74562891D01*
X91938668Y-74562892D01*
X91934214Y-74570114D01*
X91934212Y-74570118D01*
X91879064Y-74736543D01*
X91879063Y-74736550D01*
X91868570Y-74839254D01*
X91868570Y-75689212D01*
X91868571Y-75689228D01*
X91879063Y-75791936D01*
X91905176Y-75870736D01*
X91907578Y-75940565D01*
X91871847Y-76000607D01*
X91809326Y-76031800D01*
X91787470Y-76033741D01*
X75600196Y-76033741D01*
X75533157Y-76014056D01*
X75487402Y-75961252D01*
X75477458Y-75892094D01*
X75482488Y-75870744D01*
X75508569Y-75792038D01*
X75519070Y-75689250D01*
X75519069Y-74839233D01*
X75516354Y-74812659D01*
X75508569Y-74736444D01*
X75508568Y-74736441D01*
X75463223Y-74599600D01*
X75453384Y-74569907D01*
X75361282Y-74420585D01*
X75237226Y-74296529D01*
X75144458Y-74239310D01*
X75087906Y-74204428D01*
X75087901Y-74204426D01*
X75086432Y-74203939D01*
X74921367Y-74149242D01*
X74921365Y-74149241D01*
X74818586Y-74138741D01*
X74818579Y-74138741D01*
X74537036Y-74138741D01*
X74515790Y-74132502D01*
X74493702Y-74130923D01*
X74482918Y-74122850D01*
X74469997Y-74119056D01*
X74455497Y-74102322D01*
X74437769Y-74089051D01*
X74427155Y-74069614D01*
X74424242Y-74066252D01*
X74420854Y-74058074D01*
X74413208Y-74037574D01*
X74408224Y-73967882D01*
X74413209Y-73950905D01*
X74420856Y-73930404D01*
X74462729Y-73874471D01*
X74528194Y-73850056D01*
X74537037Y-73849740D01*
X74818572Y-73849740D01*
X74818578Y-73849740D01*
X74921367Y-73839240D01*
X75087904Y-73784055D01*
X75237226Y-73691953D01*
X75361282Y-73567897D01*
X75453384Y-73418575D01*
X75508569Y-73252038D01*
X75519070Y-73149250D01*
X75519069Y-72299233D01*
X75508569Y-72196444D01*
X75453384Y-72029907D01*
X75361282Y-71880585D01*
X75237226Y-71756529D01*
X75107264Y-71676368D01*
X75087906Y-71664428D01*
X75087901Y-71664426D01*
X75086432Y-71663939D01*
X74921367Y-71609242D01*
X74921365Y-71609241D01*
X74818586Y-71598741D01*
X74818579Y-71598741D01*
X74537036Y-71598741D01*
X74515790Y-71592502D01*
X74493702Y-71590923D01*
X74482918Y-71582850D01*
X74469997Y-71579056D01*
X74455497Y-71562322D01*
X74437769Y-71549051D01*
X74427155Y-71529614D01*
X74424242Y-71526252D01*
X74420854Y-71518074D01*
X74413208Y-71497574D01*
X74408224Y-71427882D01*
X74413209Y-71410905D01*
X74420856Y-71390404D01*
X74462729Y-71334471D01*
X74528194Y-71310056D01*
X74537037Y-71309740D01*
X74818572Y-71309740D01*
X74818578Y-71309740D01*
X74921367Y-71299240D01*
X75087904Y-71244055D01*
X75237226Y-71151953D01*
X75361282Y-71027897D01*
X75453384Y-70878575D01*
X75508569Y-70712038D01*
X75519070Y-70609250D01*
X75519069Y-69759233D01*
X75508569Y-69656444D01*
X75453384Y-69489907D01*
X75361282Y-69340585D01*
X75237226Y-69216529D01*
X75087904Y-69124427D01*
X74921367Y-69069242D01*
X74921365Y-69069241D01*
X74818586Y-69058741D01*
X74818579Y-69058741D01*
X74537036Y-69058741D01*
X74515790Y-69052502D01*
X74493702Y-69050923D01*
X74482918Y-69042850D01*
X74469997Y-69039056D01*
X74455497Y-69022322D01*
X74437769Y-69009051D01*
X74427155Y-68989614D01*
X74424242Y-68986252D01*
X74420854Y-68978074D01*
X74413208Y-68957574D01*
X74408224Y-68887882D01*
X74413209Y-68870905D01*
X74420856Y-68850404D01*
X74462729Y-68794471D01*
X74528194Y-68770056D01*
X74537037Y-68769740D01*
X74818572Y-68769740D01*
X74818578Y-68769740D01*
X74921367Y-68759240D01*
X75087904Y-68704055D01*
X75237226Y-68611953D01*
X75361282Y-68487897D01*
X75435058Y-68368287D01*
X83870177Y-68368287D01*
X83870177Y-68525980D01*
X83900938Y-68680623D01*
X83900941Y-68680635D01*
X83961279Y-68826306D01*
X83961286Y-68826319D01*
X84048887Y-68957422D01*
X84048890Y-68957426D01*
X84160384Y-69068920D01*
X84160388Y-69068923D01*
X84291491Y-69156524D01*
X84291504Y-69156531D01*
X84436354Y-69216529D01*
X84437180Y-69216871D01*
X84591830Y-69247633D01*
X84591833Y-69247634D01*
X84591835Y-69247634D01*
X84749521Y-69247634D01*
X84749522Y-69247633D01*
X84904174Y-69216871D01*
X85049856Y-69156528D01*
X85180966Y-69068923D01*
X85292466Y-68957423D01*
X85314102Y-68925040D01*
X85329521Y-68906253D01*
X85349202Y-68886572D01*
X85419925Y-68815850D01*
X85419926Y-68815847D01*
X85612851Y-68622921D01*
X85674174Y-68589439D01*
X85700531Y-68586605D01*
X85701703Y-68586605D01*
X85701719Y-68586606D01*
X85709315Y-68586606D01*
X85867426Y-68586606D01*
X85867429Y-68586606D01*
X86020157Y-68545682D01*
X86079876Y-68511203D01*
X86157088Y-68466625D01*
X86157688Y-68466024D01*
X86165333Y-68461586D01*
X86179143Y-68458199D01*
X86203403Y-68447205D01*
X86280213Y-68431925D01*
X86362067Y-68415644D01*
X86507749Y-68355301D01*
X86638859Y-68267696D01*
X86750359Y-68156196D01*
X86837964Y-68025086D01*
X86898307Y-67879404D01*
X86929070Y-67724749D01*
X86929070Y-67567065D01*
X86929070Y-67567062D01*
X86929069Y-67567060D01*
X86898308Y-67412417D01*
X86898307Y-67412410D01*
X86891746Y-67396570D01*
X86837967Y-67266734D01*
X86837960Y-67266721D01*
X86750359Y-67135618D01*
X86750356Y-67135614D01*
X86638862Y-67024120D01*
X86638858Y-67024117D01*
X86507755Y-66936516D01*
X86507742Y-66936509D01*
X86362071Y-66876171D01*
X86362059Y-66876168D01*
X86207415Y-66845407D01*
X86207412Y-66845407D01*
X86049728Y-66845407D01*
X86049725Y-66845407D01*
X85895080Y-66876168D01*
X85895068Y-66876171D01*
X85749397Y-66936509D01*
X85749384Y-66936516D01*
X85618281Y-67024117D01*
X85618277Y-67024120D01*
X85506783Y-67135614D01*
X85506780Y-67135618D01*
X85419179Y-67266721D01*
X85419172Y-67266734D01*
X85399399Y-67314473D01*
X85355558Y-67368877D01*
X85316931Y-67386796D01*
X85280453Y-67396569D01*
X85280453Y-67396570D01*
X85243185Y-67406556D01*
X85168648Y-67426528D01*
X85168643Y-67426531D01*
X85031724Y-67505580D01*
X85031716Y-67505586D01*
X84970243Y-67567060D01*
X84919914Y-67617389D01*
X84919912Y-67617391D01*
X84914110Y-67623193D01*
X84852784Y-67656672D01*
X84802246Y-67657121D01*
X84749519Y-67646634D01*
X84591835Y-67646634D01*
X84591832Y-67646634D01*
X84437187Y-67677395D01*
X84437175Y-67677398D01*
X84291504Y-67737736D01*
X84291491Y-67737743D01*
X84160388Y-67825344D01*
X84160384Y-67825347D01*
X84048890Y-67936841D01*
X84048887Y-67936845D01*
X83961286Y-68067948D01*
X83961279Y-68067961D01*
X83900941Y-68213632D01*
X83900938Y-68213644D01*
X83870177Y-68368287D01*
X75435058Y-68368287D01*
X75453384Y-68338575D01*
X75508569Y-68172038D01*
X75519070Y-68069250D01*
X75519069Y-67219233D01*
X75508569Y-67116444D01*
X75453384Y-66949907D01*
X75361282Y-66800585D01*
X75242899Y-66682202D01*
X82968450Y-66682202D01*
X82968450Y-66682203D01*
X82971999Y-66684575D01*
X83099383Y-66737338D01*
X83099393Y-66737341D01*
X83234623Y-66764241D01*
X83372516Y-66764241D01*
X83507746Y-66737341D01*
X83507756Y-66737338D01*
X83635140Y-66684575D01*
X83635142Y-66684573D01*
X83638689Y-66682202D01*
X83303571Y-66347083D01*
X83303570Y-66347083D01*
X82968450Y-66682202D01*
X75242899Y-66682202D01*
X75237226Y-66676529D01*
X75087904Y-66584427D01*
X74921367Y-66529242D01*
X74921365Y-66529241D01*
X74818586Y-66518741D01*
X74818579Y-66518741D01*
X74537036Y-66518741D01*
X74515790Y-66512502D01*
X74493702Y-66510923D01*
X74482918Y-66502850D01*
X74469997Y-66499056D01*
X74455497Y-66482322D01*
X74437769Y-66469051D01*
X74427155Y-66449614D01*
X74424242Y-66446252D01*
X74420854Y-66438074D01*
X74413208Y-66417574D01*
X74408224Y-66347882D01*
X74413209Y-66330905D01*
X74420856Y-66310404D01*
X74462729Y-66254471D01*
X74528194Y-66230056D01*
X74537037Y-66229740D01*
X74818572Y-66229740D01*
X74818578Y-66229740D01*
X74921367Y-66219240D01*
X75087904Y-66164055D01*
X75137949Y-66133187D01*
X82603569Y-66133187D01*
X82630469Y-66268417D01*
X82630471Y-66268423D01*
X82683238Y-66395814D01*
X82683238Y-66395815D01*
X82685607Y-66399360D01*
X83020727Y-66064241D01*
X83000836Y-66044350D01*
X83203570Y-66044350D01*
X83203570Y-66084132D01*
X83218794Y-66120886D01*
X83246925Y-66149017D01*
X83283679Y-66164241D01*
X83323461Y-66164241D01*
X83360215Y-66149017D01*
X83388346Y-66120886D01*
X83403570Y-66084132D01*
X83403570Y-66064241D01*
X83586412Y-66064241D01*
X83921531Y-66399360D01*
X83923902Y-66395813D01*
X83923904Y-66395811D01*
X83976667Y-66268427D01*
X83976670Y-66268417D01*
X84003570Y-66133187D01*
X84003570Y-65995294D01*
X83976670Y-65860064D01*
X83976667Y-65860054D01*
X83923904Y-65732670D01*
X83921531Y-65729121D01*
X83586412Y-66064241D01*
X83403570Y-66064241D01*
X83403570Y-66044350D01*
X83388346Y-66007596D01*
X83360215Y-65979465D01*
X83323461Y-65964241D01*
X83283679Y-65964241D01*
X83246925Y-65979465D01*
X83218794Y-66007596D01*
X83203570Y-66044350D01*
X83000836Y-66044350D01*
X82685607Y-65729121D01*
X82685606Y-65729121D01*
X82683237Y-65732668D01*
X82683236Y-65732669D01*
X82630472Y-65860054D01*
X82630469Y-65860064D01*
X82603570Y-65995294D01*
X82603570Y-66133187D01*
X82603569Y-66133187D01*
X75137949Y-66133187D01*
X75237226Y-66071953D01*
X75361282Y-65947897D01*
X75453384Y-65798575D01*
X75508569Y-65632038D01*
X75519070Y-65529250D01*
X75519069Y-64679233D01*
X75508569Y-64576444D01*
X75502777Y-64558965D01*
X78478028Y-64558965D01*
X78478028Y-64716658D01*
X78508789Y-64871301D01*
X78508792Y-64871313D01*
X78569130Y-65016984D01*
X78569137Y-65016997D01*
X78656738Y-65148100D01*
X78656741Y-65148104D01*
X78768235Y-65259598D01*
X78768239Y-65259601D01*
X78899342Y-65347202D01*
X78899355Y-65347209D01*
X79045026Y-65407547D01*
X79045031Y-65407549D01*
X79196232Y-65437625D01*
X79199681Y-65438311D01*
X79199684Y-65438312D01*
X79199686Y-65438312D01*
X79357372Y-65438312D01*
X79357373Y-65438311D01*
X79512025Y-65407549D01*
X79554359Y-65390014D01*
X79583543Y-65377926D01*
X79657700Y-65347209D01*
X79657700Y-65347208D01*
X79657707Y-65347206D01*
X79788817Y-65259601D01*
X79841216Y-65207202D01*
X81493450Y-65207202D01*
X81493450Y-65207203D01*
X81496999Y-65209575D01*
X81624383Y-65262338D01*
X81624393Y-65262341D01*
X81759623Y-65289241D01*
X81897516Y-65289241D01*
X82032746Y-65262341D01*
X82032756Y-65262338D01*
X82160140Y-65209575D01*
X82160142Y-65209573D01*
X82163689Y-65207202D01*
X82968450Y-65207202D01*
X82968450Y-65207203D01*
X82971999Y-65209575D01*
X82971998Y-65209575D01*
X82978288Y-65212180D01*
X83032692Y-65256020D01*
X83054757Y-65322314D01*
X83037478Y-65390014D01*
X82986341Y-65437625D01*
X82978292Y-65441301D01*
X82971996Y-65443909D01*
X82968450Y-65446277D01*
X82968450Y-65446278D01*
X83303570Y-65781398D01*
X83303571Y-65781398D01*
X83638689Y-65446278D01*
X83635144Y-65443909D01*
X83635140Y-65443907D01*
X83628850Y-65441302D01*
X83574446Y-65397462D01*
X83552381Y-65331168D01*
X83567753Y-65266798D01*
X83600663Y-65207202D01*
X84443450Y-65207202D01*
X84443450Y-65207203D01*
X84446999Y-65209575D01*
X84574383Y-65262338D01*
X84574393Y-65262341D01*
X84709623Y-65289241D01*
X84847516Y-65289241D01*
X84982746Y-65262341D01*
X84982756Y-65262338D01*
X85110140Y-65209575D01*
X85110142Y-65209573D01*
X85113689Y-65207202D01*
X84778571Y-64872083D01*
X84778570Y-64872083D01*
X84443450Y-65207202D01*
X83600663Y-65207202D01*
X83614191Y-65182704D01*
X83303571Y-64872083D01*
X83303570Y-64872083D01*
X82968450Y-65207202D01*
X82163689Y-65207202D01*
X81828571Y-64872083D01*
X81828570Y-64872083D01*
X81493450Y-65207202D01*
X79841216Y-65207202D01*
X79900317Y-65148101D01*
X79915773Y-65124969D01*
X79937738Y-65092098D01*
X79987918Y-65016997D01*
X79987918Y-65016996D01*
X79987922Y-65016991D01*
X80048265Y-64871309D01*
X80079028Y-64716654D01*
X80079028Y-64658187D01*
X81128569Y-64658187D01*
X81155469Y-64793417D01*
X81155471Y-64793423D01*
X81208238Y-64920814D01*
X81208238Y-64920815D01*
X81210607Y-64924360D01*
X81545727Y-64589241D01*
X81525836Y-64569350D01*
X81728570Y-64569350D01*
X81728570Y-64609132D01*
X81743794Y-64645886D01*
X81771925Y-64674017D01*
X81808679Y-64689241D01*
X81848461Y-64689241D01*
X81885215Y-64674017D01*
X81913346Y-64645886D01*
X81928570Y-64609132D01*
X81928570Y-64589241D01*
X82111412Y-64589241D01*
X82446531Y-64924360D01*
X82448902Y-64920814D01*
X82451507Y-64914525D01*
X82495346Y-64860120D01*
X82561639Y-64838052D01*
X82629339Y-64855329D01*
X82676952Y-64906464D01*
X82680631Y-64914521D01*
X82683236Y-64920811D01*
X82683238Y-64920815D01*
X82685607Y-64924360D01*
X83020727Y-64589241D01*
X83000836Y-64569350D01*
X83203570Y-64569350D01*
X83203570Y-64609132D01*
X83218794Y-64645886D01*
X83246925Y-64674017D01*
X83283679Y-64689241D01*
X83323461Y-64689241D01*
X83360215Y-64674017D01*
X83388346Y-64645886D01*
X83403570Y-64609132D01*
X83403570Y-64589241D01*
X83586412Y-64589241D01*
X83921531Y-64924360D01*
X83923902Y-64920814D01*
X83926507Y-64914525D01*
X83970346Y-64860120D01*
X84036639Y-64838052D01*
X84104339Y-64855329D01*
X84151952Y-64906464D01*
X84155631Y-64914521D01*
X84158236Y-64920811D01*
X84158238Y-64920815D01*
X84160607Y-64924360D01*
X84495727Y-64589241D01*
X84475836Y-64569350D01*
X84678570Y-64569350D01*
X84678570Y-64609132D01*
X84693794Y-64645886D01*
X84721925Y-64674017D01*
X84758679Y-64689241D01*
X84798461Y-64689241D01*
X84835215Y-64674017D01*
X84863346Y-64645886D01*
X84878570Y-64609132D01*
X84878570Y-64589241D01*
X85061412Y-64589241D01*
X85396531Y-64924360D01*
X85398902Y-64920813D01*
X85398904Y-64920811D01*
X85451667Y-64793427D01*
X85451670Y-64793417D01*
X85478570Y-64658187D01*
X85478570Y-64520294D01*
X85451670Y-64385064D01*
X85451668Y-64385058D01*
X85437876Y-64351760D01*
X85437875Y-64351758D01*
X85420742Y-64310394D01*
X86703070Y-64310394D01*
X86703070Y-64468087D01*
X86733831Y-64622730D01*
X86733834Y-64622742D01*
X86794172Y-64768413D01*
X86794179Y-64768426D01*
X86881780Y-64899529D01*
X86881783Y-64899533D01*
X86993277Y-65011027D01*
X86993281Y-65011030D01*
X87124384Y-65098631D01*
X87124397Y-65098638D01*
X87270068Y-65158976D01*
X87270073Y-65158978D01*
X87389351Y-65182704D01*
X87424723Y-65189740D01*
X87424726Y-65189741D01*
X87424728Y-65189741D01*
X87582414Y-65189741D01*
X87582415Y-65189740D01*
X87737067Y-65158978D01*
X87882749Y-65098635D01*
X88013859Y-65011030D01*
X88125359Y-64899530D01*
X88212964Y-64768420D01*
X88273307Y-64622738D01*
X88304070Y-64468083D01*
X88304070Y-64310399D01*
X88304070Y-64310396D01*
X88304069Y-64310394D01*
X88298405Y-64281919D01*
X88273307Y-64155744D01*
X88232145Y-64056369D01*
X88212967Y-64010068D01*
X88212960Y-64010055D01*
X88125359Y-63878952D01*
X88125356Y-63878948D01*
X88115389Y-63868981D01*
X88081904Y-63807658D01*
X88079070Y-63781300D01*
X88079070Y-61997181D01*
X88098755Y-61930142D01*
X88115390Y-61909499D01*
X88150356Y-61874533D01*
X88150359Y-61874530D01*
X88237964Y-61743420D01*
X88247423Y-61720585D01*
X88298305Y-61597742D01*
X88298307Y-61597738D01*
X88329070Y-61443083D01*
X88329070Y-61285399D01*
X88329070Y-61285396D01*
X88329069Y-61285394D01*
X88302148Y-61150056D01*
X88298307Y-61130744D01*
X88274022Y-61072114D01*
X88237967Y-60985068D01*
X88237960Y-60985055D01*
X88150359Y-60853952D01*
X88150356Y-60853948D01*
X88038862Y-60742454D01*
X88038858Y-60742451D01*
X87907755Y-60654850D01*
X87907742Y-60654843D01*
X87762071Y-60594505D01*
X87762059Y-60594502D01*
X87607415Y-60563741D01*
X87607412Y-60563741D01*
X87449728Y-60563741D01*
X87449725Y-60563741D01*
X87295080Y-60594502D01*
X87295068Y-60594505D01*
X87149397Y-60654843D01*
X87149384Y-60654850D01*
X87018281Y-60742451D01*
X87018277Y-60742454D01*
X86906783Y-60853948D01*
X86906780Y-60853952D01*
X86819179Y-60985055D01*
X86819172Y-60985068D01*
X86758834Y-61130739D01*
X86758831Y-61130751D01*
X86728070Y-61285394D01*
X86728070Y-61443087D01*
X86758831Y-61597730D01*
X86758834Y-61597742D01*
X86819172Y-61743413D01*
X86819176Y-61743420D01*
X86857172Y-61800285D01*
X86878050Y-61866962D01*
X86878070Y-61869176D01*
X86878070Y-63846891D01*
X86858385Y-63913930D01*
X86857196Y-63915744D01*
X86839438Y-63942322D01*
X86794179Y-64010056D01*
X86794172Y-64010069D01*
X86733834Y-64155739D01*
X86733831Y-64155751D01*
X86703070Y-64310394D01*
X85420742Y-64310394D01*
X85398904Y-64257670D01*
X85396531Y-64254121D01*
X85061412Y-64589241D01*
X84878570Y-64589241D01*
X84878570Y-64569350D01*
X84863346Y-64532596D01*
X84835215Y-64504465D01*
X84798461Y-64489241D01*
X84758679Y-64489241D01*
X84721925Y-64504465D01*
X84693794Y-64532596D01*
X84678570Y-64569350D01*
X84475836Y-64569350D01*
X84160607Y-64254121D01*
X84160606Y-64254121D01*
X84158238Y-64257667D01*
X84155630Y-64263963D01*
X84111787Y-64318365D01*
X84045492Y-64340428D01*
X83977793Y-64323147D01*
X83930184Y-64272008D01*
X83926509Y-64263959D01*
X83923904Y-64257670D01*
X83921531Y-64254121D01*
X83586412Y-64589241D01*
X83403570Y-64589241D01*
X83403570Y-64569350D01*
X83388346Y-64532596D01*
X83360215Y-64504465D01*
X83323461Y-64489241D01*
X83283679Y-64489241D01*
X83246925Y-64504465D01*
X83218794Y-64532596D01*
X83203570Y-64569350D01*
X83000836Y-64569350D01*
X82685607Y-64254121D01*
X82685606Y-64254121D01*
X82683238Y-64257667D01*
X82680630Y-64263963D01*
X82636787Y-64318365D01*
X82570492Y-64340428D01*
X82502793Y-64323147D01*
X82455184Y-64272008D01*
X82451509Y-64263959D01*
X82448904Y-64257670D01*
X82446531Y-64254121D01*
X82111412Y-64589241D01*
X81928570Y-64589241D01*
X81928570Y-64569350D01*
X81913346Y-64532596D01*
X81885215Y-64504465D01*
X81848461Y-64489241D01*
X81808679Y-64489241D01*
X81771925Y-64504465D01*
X81743794Y-64532596D01*
X81728570Y-64569350D01*
X81525836Y-64569350D01*
X81210607Y-64254121D01*
X81210606Y-64254121D01*
X81208237Y-64257668D01*
X81208236Y-64257669D01*
X81155472Y-64385054D01*
X81155469Y-64385064D01*
X81128570Y-64520294D01*
X81128570Y-64658187D01*
X81128569Y-64658187D01*
X80079028Y-64658187D01*
X80079028Y-64558970D01*
X80079028Y-64558967D01*
X80074936Y-64538397D01*
X80074936Y-64538396D01*
X80048267Y-64404322D01*
X80048264Y-64404313D01*
X80040288Y-64385058D01*
X80002751Y-64294435D01*
X80001125Y-64286259D01*
X79998336Y-64281919D01*
X79993313Y-64246984D01*
X79993313Y-63994006D01*
X79999987Y-63971277D01*
X81493450Y-63971277D01*
X81493450Y-63971278D01*
X81828570Y-64306398D01*
X81828571Y-64306398D01*
X82163689Y-63971278D01*
X82160144Y-63968909D01*
X82032752Y-63916142D01*
X82032746Y-63916140D01*
X81897516Y-63889241D01*
X81759624Y-63889241D01*
X81624393Y-63916140D01*
X81624383Y-63916143D01*
X81496998Y-63968907D01*
X81496997Y-63968908D01*
X81493450Y-63971277D01*
X79999987Y-63971277D01*
X80012998Y-63926967D01*
X80014211Y-63925115D01*
X80024569Y-63909614D01*
X80102207Y-63793420D01*
X80127564Y-63732202D01*
X82968450Y-63732202D01*
X82968450Y-63732203D01*
X82971999Y-63734575D01*
X82971998Y-63734575D01*
X82978288Y-63737180D01*
X83032692Y-63781020D01*
X83054757Y-63847314D01*
X83039382Y-63911689D01*
X82992944Y-63995772D01*
X83303570Y-64306398D01*
X83303571Y-64306398D01*
X83614194Y-63995773D01*
X83600665Y-63971277D01*
X84443450Y-63971277D01*
X84443450Y-63971278D01*
X84778570Y-64306398D01*
X84778571Y-64306398D01*
X85113689Y-63971278D01*
X85110144Y-63968909D01*
X84982752Y-63916142D01*
X84982746Y-63916140D01*
X84847516Y-63889241D01*
X84709624Y-63889241D01*
X84574393Y-63916140D01*
X84574383Y-63916143D01*
X84446998Y-63968907D01*
X84446997Y-63968908D01*
X84443450Y-63971277D01*
X83600665Y-63971277D01*
X83567756Y-63911688D01*
X83561491Y-63883539D01*
X83552381Y-63856168D01*
X83553993Y-63849850D01*
X83552577Y-63843487D01*
X83562527Y-63816413D01*
X83569660Y-63788468D01*
X83574431Y-63784025D01*
X83576680Y-63777907D01*
X83599685Y-63760512D01*
X83620797Y-63740857D01*
X83628854Y-63737178D01*
X83635143Y-63734573D01*
X83638689Y-63732202D01*
X83303571Y-63397083D01*
X83303570Y-63397083D01*
X82968450Y-63732202D01*
X80127564Y-63732202D01*
X80162550Y-63647738D01*
X80193313Y-63493083D01*
X80193313Y-63335399D01*
X80193313Y-63335396D01*
X80193312Y-63335394D01*
X80178032Y-63258577D01*
X80163036Y-63183187D01*
X82603569Y-63183187D01*
X82630469Y-63318417D01*
X82630471Y-63318423D01*
X82683238Y-63445814D01*
X82683238Y-63445815D01*
X82685607Y-63449360D01*
X83020727Y-63114241D01*
X83000836Y-63094350D01*
X83203570Y-63094350D01*
X83203570Y-63134132D01*
X83218794Y-63170886D01*
X83246925Y-63199017D01*
X83283679Y-63214241D01*
X83323461Y-63214241D01*
X83360215Y-63199017D01*
X83388346Y-63170886D01*
X83403570Y-63134132D01*
X83403570Y-63114241D01*
X83586412Y-63114241D01*
X83921531Y-63449360D01*
X83923902Y-63445813D01*
X83923904Y-63445811D01*
X83976667Y-63318427D01*
X83976670Y-63318417D01*
X84003570Y-63183187D01*
X84003570Y-63045294D01*
X83976670Y-62910064D01*
X83976667Y-62910054D01*
X83923904Y-62782670D01*
X83921531Y-62779121D01*
X83586412Y-63114241D01*
X83403570Y-63114241D01*
X83403570Y-63094350D01*
X83388346Y-63057596D01*
X83360215Y-63029465D01*
X83323461Y-63014241D01*
X83283679Y-63014241D01*
X83246925Y-63029465D01*
X83218794Y-63057596D01*
X83203570Y-63094350D01*
X83000836Y-63094350D01*
X82685607Y-62779121D01*
X82685606Y-62779121D01*
X82683237Y-62782668D01*
X82683236Y-62782669D01*
X82630472Y-62910054D01*
X82630469Y-62910064D01*
X82603570Y-63045294D01*
X82603570Y-63183187D01*
X82603569Y-63183187D01*
X80163036Y-63183187D01*
X80162550Y-63180744D01*
X80143243Y-63134132D01*
X80123579Y-63086657D01*
X80102208Y-63035065D01*
X80102207Y-63035062D01*
X80102205Y-63035059D01*
X80102203Y-63035055D01*
X80014602Y-62903952D01*
X80014599Y-62903948D01*
X79903105Y-62792454D01*
X79903101Y-62792451D01*
X79771998Y-62704850D01*
X79771985Y-62704843D01*
X79656595Y-62657048D01*
X79626314Y-62644505D01*
X79626302Y-62644502D01*
X79471658Y-62613741D01*
X79471655Y-62613741D01*
X79313971Y-62613741D01*
X79313968Y-62613741D01*
X79159323Y-62644502D01*
X79159311Y-62644505D01*
X79013640Y-62704843D01*
X79013627Y-62704850D01*
X78882524Y-62792451D01*
X78882520Y-62792454D01*
X78771026Y-62903948D01*
X78771023Y-62903952D01*
X78683422Y-63035055D01*
X78683415Y-63035068D01*
X78623077Y-63180739D01*
X78623074Y-63180751D01*
X78592313Y-63335394D01*
X78592313Y-63493087D01*
X78623074Y-63647730D01*
X78623077Y-63647742D01*
X78683415Y-63793413D01*
X78683422Y-63793426D01*
X78750017Y-63893092D01*
X78770895Y-63959770D01*
X78752410Y-64027150D01*
X78734597Y-64049664D01*
X78656738Y-64127523D01*
X78569137Y-64258626D01*
X78569130Y-64258639D01*
X78508792Y-64404310D01*
X78508789Y-64404322D01*
X78478028Y-64558965D01*
X75502777Y-64558965D01*
X75453384Y-64409907D01*
X75361282Y-64260585D01*
X75237226Y-64136529D01*
X75087904Y-64044427D01*
X74921367Y-63989242D01*
X74921365Y-63989241D01*
X74818586Y-63978741D01*
X74818579Y-63978741D01*
X74537036Y-63978741D01*
X74515790Y-63972502D01*
X74493702Y-63970923D01*
X74482918Y-63962850D01*
X74469997Y-63959056D01*
X74455497Y-63942322D01*
X74437769Y-63929051D01*
X74427155Y-63909614D01*
X74424242Y-63906252D01*
X74420854Y-63898074D01*
X74413722Y-63878952D01*
X74413207Y-63877573D01*
X74408224Y-63807882D01*
X74413209Y-63790905D01*
X74420856Y-63770404D01*
X74462729Y-63714471D01*
X74528194Y-63690056D01*
X74537037Y-63689740D01*
X74818572Y-63689740D01*
X74818578Y-63689740D01*
X74921367Y-63679240D01*
X75087904Y-63624055D01*
X75237226Y-63531953D01*
X75361282Y-63407897D01*
X75453384Y-63258575D01*
X75508569Y-63092038D01*
X75519070Y-62989250D01*
X75519069Y-62496277D01*
X82968450Y-62496277D01*
X82968450Y-62496278D01*
X83303570Y-62831398D01*
X83303571Y-62831398D01*
X83638689Y-62496278D01*
X83635144Y-62493909D01*
X83507752Y-62441142D01*
X83507746Y-62441140D01*
X83372516Y-62414241D01*
X83234624Y-62414241D01*
X83099393Y-62441140D01*
X83099383Y-62441143D01*
X82971998Y-62493907D01*
X82971997Y-62493908D01*
X82968450Y-62496277D01*
X75519069Y-62496277D01*
X75519069Y-62139233D01*
X75508569Y-62036444D01*
X75453384Y-61869907D01*
X75361282Y-61720585D01*
X75237226Y-61596529D01*
X75087904Y-61504427D01*
X74921367Y-61449242D01*
X74921365Y-61449241D01*
X74818586Y-61438741D01*
X74818579Y-61438741D01*
X74537036Y-61438741D01*
X74515790Y-61432502D01*
X74493702Y-61430923D01*
X74482918Y-61422850D01*
X74469997Y-61419056D01*
X74455497Y-61402322D01*
X74437769Y-61389051D01*
X74427155Y-61369614D01*
X74424242Y-61366252D01*
X74420854Y-61358074D01*
X74413208Y-61337574D01*
X74408224Y-61267882D01*
X74413209Y-61250905D01*
X74420856Y-61230404D01*
X74462729Y-61174471D01*
X74528194Y-61150056D01*
X74537037Y-61149740D01*
X74818572Y-61149740D01*
X74818578Y-61149740D01*
X74921367Y-61139240D01*
X75087904Y-61084055D01*
X75237226Y-60991953D01*
X75361282Y-60867897D01*
X75453384Y-60718575D01*
X75508569Y-60552038D01*
X75519070Y-60449250D01*
X75519069Y-59599233D01*
X75508569Y-59496444D01*
X75453384Y-59329907D01*
X75361282Y-59180585D01*
X75237226Y-59056529D01*
X75087904Y-58964427D01*
X74921367Y-58909242D01*
X74921365Y-58909241D01*
X74818586Y-58898741D01*
X74818579Y-58898741D01*
X74537036Y-58898741D01*
X74515790Y-58892502D01*
X74493702Y-58890923D01*
X74482918Y-58882850D01*
X74469997Y-58879056D01*
X74455497Y-58862322D01*
X74437769Y-58849051D01*
X74427155Y-58829614D01*
X74424242Y-58826252D01*
X74420854Y-58818074D01*
X74413208Y-58797574D01*
X74408224Y-58727882D01*
X74413209Y-58710905D01*
X74420856Y-58690404D01*
X74462729Y-58634471D01*
X74528194Y-58610056D01*
X74537037Y-58609740D01*
X74818572Y-58609740D01*
X74818578Y-58609740D01*
X74921367Y-58599240D01*
X75087904Y-58544055D01*
X75237226Y-58451953D01*
X75361282Y-58327897D01*
X75453384Y-58178575D01*
X75508569Y-58012038D01*
X75519070Y-57909250D01*
X75519069Y-57059233D01*
X75508569Y-56956444D01*
X75453384Y-56789907D01*
X75361282Y-56640585D01*
X75237226Y-56516529D01*
X75137051Y-56454741D01*
X75087906Y-56424428D01*
X75087901Y-56424426D01*
X75085233Y-56423542D01*
X74921367Y-56369242D01*
X74921365Y-56369241D01*
X74818586Y-56358741D01*
X74818579Y-56358741D01*
X74537036Y-56358741D01*
X74515790Y-56352502D01*
X74493702Y-56350923D01*
X74482918Y-56342850D01*
X74469997Y-56339056D01*
X74455497Y-56322322D01*
X74437769Y-56309051D01*
X74427155Y-56289614D01*
X74424242Y-56286252D01*
X74420854Y-56278074D01*
X74413208Y-56257574D01*
X74408224Y-56187882D01*
X74413209Y-56170905D01*
X74420856Y-56150404D01*
X74462729Y-56094471D01*
X74528194Y-56070056D01*
X74537037Y-56069740D01*
X74818572Y-56069740D01*
X74818578Y-56069740D01*
X74921367Y-56059240D01*
X75087904Y-56004055D01*
X75237226Y-55911953D01*
X75361282Y-55787897D01*
X75453384Y-55638575D01*
X75508569Y-55472038D01*
X75519070Y-55369250D01*
X75519069Y-54519233D01*
X75508569Y-54416444D01*
X75453384Y-54249907D01*
X75361282Y-54100585D01*
X75237226Y-53976529D01*
X75087904Y-53884427D01*
X74921367Y-53829242D01*
X74921365Y-53829241D01*
X74818586Y-53818741D01*
X74818579Y-53818741D01*
X74537036Y-53818741D01*
X74515790Y-53812502D01*
X74493702Y-53810923D01*
X74482918Y-53802850D01*
X74469997Y-53799056D01*
X74455497Y-53782322D01*
X74437769Y-53769051D01*
X74427155Y-53749614D01*
X74424242Y-53746252D01*
X74420854Y-53738074D01*
X74413208Y-53717574D01*
X74408224Y-53647882D01*
X74413209Y-53630905D01*
X74420856Y-53610404D01*
X74462729Y-53554471D01*
X74528194Y-53530056D01*
X74537037Y-53529740D01*
X74818572Y-53529740D01*
X74818578Y-53529740D01*
X74921367Y-53519240D01*
X75087904Y-53464055D01*
X75237226Y-53371953D01*
X75361282Y-53247897D01*
X75453384Y-53098575D01*
X75508569Y-52932038D01*
X75519070Y-52829250D01*
X75519070Y-52828741D01*
X75519101Y-52828635D01*
X75519230Y-52826102D01*
X75519390Y-52826110D01*
X75519391Y-52826109D01*
X75519414Y-52826111D01*
X75519835Y-52826132D01*
X75538755Y-52761702D01*
X75591559Y-52715947D01*
X75643070Y-52704741D01*
X76236901Y-52704741D01*
X76236917Y-52704742D01*
X76244513Y-52704742D01*
X76402624Y-52704742D01*
X76402627Y-52704742D01*
X76555355Y-52663818D01*
X76605474Y-52634880D01*
X76692286Y-52584761D01*
X76804090Y-52472957D01*
X76804090Y-52472955D01*
X76814298Y-52462748D01*
X76814299Y-52462745D01*
X78035986Y-51241060D01*
X78097309Y-51207575D01*
X78123667Y-51204741D01*
X86603473Y-51204741D01*
X86670512Y-51224426D01*
G37*
G04 #@! TD.AperFunction*
G04 #@! TA.AperFunction,Conductor*
G36*
X91849273Y-70679072D02*
G01*
X91885775Y-70733780D01*
X91933756Y-70878575D01*
X92025858Y-71027897D01*
X92149914Y-71151953D01*
X92299236Y-71244055D01*
X92465773Y-71299240D01*
X92568561Y-71309741D01*
X92850103Y-71309740D01*
X92871349Y-71315978D01*
X92893432Y-71317557D01*
X92904214Y-71325628D01*
X92917142Y-71329424D01*
X92931643Y-71346159D01*
X92949367Y-71359426D01*
X92959982Y-71378864D01*
X92962897Y-71382228D01*
X92966283Y-71390402D01*
X92973930Y-71410903D01*
X92978917Y-71480593D01*
X92973931Y-71497576D01*
X92966284Y-71518077D01*
X92924411Y-71574010D01*
X92858946Y-71598425D01*
X92850103Y-71598741D01*
X92568569Y-71598741D01*
X92568550Y-71598742D01*
X92465773Y-71609241D01*
X92465770Y-71609242D01*
X92299238Y-71664426D01*
X92299233Y-71664428D01*
X92149912Y-71756530D01*
X92025859Y-71880583D01*
X91933757Y-72029904D01*
X91933755Y-72029909D01*
X91885776Y-72174701D01*
X91846003Y-72232146D01*
X91781487Y-72258969D01*
X91712711Y-72246654D01*
X91661512Y-72199111D01*
X91644070Y-72135697D01*
X91644070Y-70772785D01*
X91663755Y-70705746D01*
X91716559Y-70659991D01*
X91785717Y-70650047D01*
X91849273Y-70679072D01*
G37*
G04 #@! TD.AperFunction*
G04 #@! TA.AperFunction,Conductor*
G36*
X91800029Y-68116583D02*
G01*
X91815674Y-68118286D01*
X91831162Y-68130801D01*
X91849273Y-68139072D01*
X91858485Y-68152879D01*
X91870019Y-68162199D01*
X91885776Y-68193781D01*
X91933755Y-68338572D01*
X91933757Y-68338577D01*
X91944074Y-68355304D01*
X92025858Y-68487897D01*
X92149914Y-68611953D01*
X92299236Y-68704055D01*
X92465773Y-68759240D01*
X92568561Y-68769741D01*
X92850103Y-68769740D01*
X92871349Y-68775978D01*
X92893432Y-68777557D01*
X92904214Y-68785628D01*
X92917142Y-68789424D01*
X92931643Y-68806159D01*
X92949367Y-68819426D01*
X92959982Y-68838864D01*
X92962897Y-68842228D01*
X92966283Y-68850402D01*
X92973930Y-68870903D01*
X92978917Y-68940593D01*
X92973931Y-68957576D01*
X92966284Y-68978077D01*
X92924411Y-69034010D01*
X92858946Y-69058425D01*
X92850103Y-69058741D01*
X92568569Y-69058741D01*
X92568550Y-69058742D01*
X92465773Y-69069241D01*
X92465770Y-69069242D01*
X92299238Y-69124426D01*
X92299233Y-69124428D01*
X92149912Y-69216530D01*
X92025859Y-69340583D01*
X91933757Y-69489904D01*
X91933755Y-69489909D01*
X91885776Y-69634701D01*
X91846003Y-69692146D01*
X91781487Y-69718969D01*
X91712711Y-69706654D01*
X91661512Y-69659111D01*
X91644070Y-69595697D01*
X91644070Y-68232785D01*
X91648502Y-68217688D01*
X91647962Y-68201961D01*
X91658145Y-68184848D01*
X91663755Y-68165746D01*
X91675646Y-68155442D01*
X91683694Y-68141919D01*
X91701512Y-68133028D01*
X91716559Y-68119991D01*
X91732132Y-68117751D01*
X91746214Y-68110726D01*
X91766010Y-68112880D01*
X91785717Y-68110047D01*
X91800029Y-68116583D01*
G37*
G04 #@! TD.AperFunction*
G04 #@! TA.AperFunction,Conductor*
G36*
X91849273Y-65599072D02*
G01*
X91885776Y-65653781D01*
X91933755Y-65798572D01*
X91933757Y-65798577D01*
X91968639Y-65855129D01*
X92025858Y-65947897D01*
X92149914Y-66071953D01*
X92299236Y-66164055D01*
X92465773Y-66219240D01*
X92568561Y-66229741D01*
X92850103Y-66229740D01*
X92871349Y-66235978D01*
X92893432Y-66237557D01*
X92904214Y-66245628D01*
X92917142Y-66249424D01*
X92931643Y-66266159D01*
X92949367Y-66279426D01*
X92959982Y-66298864D01*
X92962897Y-66302228D01*
X92966283Y-66310402D01*
X92973930Y-66330903D01*
X92978917Y-66400593D01*
X92973931Y-66417576D01*
X92966284Y-66438077D01*
X92924411Y-66494010D01*
X92858946Y-66518425D01*
X92850103Y-66518741D01*
X92568569Y-66518741D01*
X92568550Y-66518742D01*
X92465773Y-66529241D01*
X92465770Y-66529242D01*
X92299238Y-66584426D01*
X92299233Y-66584428D01*
X92149912Y-66676530D01*
X92025859Y-66800583D01*
X91933757Y-66949904D01*
X91933755Y-66949909D01*
X91885776Y-67094701D01*
X91846003Y-67152146D01*
X91781487Y-67178969D01*
X91712711Y-67166654D01*
X91661512Y-67119111D01*
X91644070Y-67055697D01*
X91644070Y-65692785D01*
X91663755Y-65625746D01*
X91716559Y-65579991D01*
X91785717Y-65570047D01*
X91849273Y-65599072D01*
G37*
G04 #@! TD.AperFunction*
G04 #@! TA.AperFunction,Conductor*
G36*
X91800029Y-63036583D02*
G01*
X91815674Y-63038286D01*
X91831162Y-63050801D01*
X91849273Y-63059072D01*
X91858485Y-63072879D01*
X91870019Y-63082199D01*
X91885775Y-63113780D01*
X91933756Y-63258575D01*
X92025858Y-63407897D01*
X92149914Y-63531953D01*
X92299236Y-63624055D01*
X92465773Y-63679240D01*
X92568561Y-63689741D01*
X92850103Y-63689740D01*
X92871349Y-63695978D01*
X92893432Y-63697557D01*
X92904214Y-63705628D01*
X92917142Y-63709424D01*
X92931643Y-63726159D01*
X92949367Y-63739426D01*
X92959982Y-63758864D01*
X92962897Y-63762228D01*
X92966283Y-63770402D01*
X92973930Y-63790903D01*
X92978917Y-63860593D01*
X92973931Y-63877576D01*
X92966284Y-63898077D01*
X92924411Y-63954010D01*
X92858946Y-63978425D01*
X92850103Y-63978741D01*
X92568569Y-63978741D01*
X92568550Y-63978742D01*
X92465773Y-63989241D01*
X92465770Y-63989242D01*
X92299238Y-64044426D01*
X92299233Y-64044428D01*
X92149912Y-64136530D01*
X92025859Y-64260583D01*
X91933757Y-64409904D01*
X91933755Y-64409909D01*
X91885776Y-64554701D01*
X91846003Y-64612146D01*
X91781487Y-64638969D01*
X91712711Y-64626654D01*
X91661512Y-64579111D01*
X91644070Y-64515697D01*
X91644070Y-63152785D01*
X91648502Y-63137688D01*
X91647962Y-63121961D01*
X91658145Y-63104848D01*
X91663755Y-63085746D01*
X91675646Y-63075442D01*
X91683694Y-63061919D01*
X91701512Y-63053028D01*
X91716559Y-63039991D01*
X91732132Y-63037751D01*
X91746214Y-63030726D01*
X91766010Y-63032880D01*
X91785717Y-63030047D01*
X91800029Y-63036583D01*
G37*
G04 #@! TD.AperFunction*
G04 #@! TA.AperFunction,Conductor*
G36*
X91849273Y-60519072D02*
G01*
X91885776Y-60573781D01*
X91933755Y-60718572D01*
X91933757Y-60718577D01*
X91968639Y-60775129D01*
X92025858Y-60867897D01*
X92149914Y-60991953D01*
X92299236Y-61084055D01*
X92465773Y-61139240D01*
X92568561Y-61149741D01*
X92850103Y-61149740D01*
X92871349Y-61155978D01*
X92893432Y-61157557D01*
X92904214Y-61165628D01*
X92917142Y-61169424D01*
X92931643Y-61186159D01*
X92949367Y-61199426D01*
X92959982Y-61218864D01*
X92962897Y-61222228D01*
X92966283Y-61230402D01*
X92973930Y-61250903D01*
X92978917Y-61320593D01*
X92973931Y-61337576D01*
X92966284Y-61358077D01*
X92924411Y-61414010D01*
X92858946Y-61438425D01*
X92850103Y-61438741D01*
X92568569Y-61438741D01*
X92568550Y-61438742D01*
X92465773Y-61449241D01*
X92465770Y-61449242D01*
X92299238Y-61504426D01*
X92299233Y-61504428D01*
X92149912Y-61596530D01*
X92025859Y-61720583D01*
X91933757Y-61869904D01*
X91933756Y-61869907D01*
X91891582Y-61997181D01*
X91885776Y-62014701D01*
X91846003Y-62072146D01*
X91781487Y-62098969D01*
X91712711Y-62086654D01*
X91661512Y-62039111D01*
X91644070Y-61975697D01*
X91644070Y-60612785D01*
X91663755Y-60545746D01*
X91716559Y-60499991D01*
X91785717Y-60490047D01*
X91849273Y-60519072D01*
G37*
G04 #@! TD.AperFunction*
G04 #@! TA.AperFunction,Conductor*
G36*
X91800029Y-57956583D02*
G01*
X91815674Y-57958286D01*
X91831162Y-57970801D01*
X91849273Y-57979072D01*
X91858485Y-57992879D01*
X91870019Y-58002199D01*
X91885775Y-58033780D01*
X91933756Y-58178575D01*
X92025858Y-58327897D01*
X92149914Y-58451953D01*
X92299236Y-58544055D01*
X92465773Y-58599240D01*
X92568561Y-58609741D01*
X92850103Y-58609740D01*
X92871349Y-58615978D01*
X92893432Y-58617557D01*
X92904214Y-58625628D01*
X92917142Y-58629424D01*
X92931643Y-58646159D01*
X92949367Y-58659426D01*
X92959982Y-58678864D01*
X92962897Y-58682228D01*
X92966283Y-58690402D01*
X92973930Y-58710903D01*
X92978917Y-58780593D01*
X92973931Y-58797576D01*
X92966284Y-58818077D01*
X92924411Y-58874010D01*
X92858946Y-58898425D01*
X92850103Y-58898741D01*
X92568569Y-58898741D01*
X92568550Y-58898742D01*
X92465773Y-58909241D01*
X92465770Y-58909242D01*
X92299238Y-58964426D01*
X92299233Y-58964428D01*
X92149912Y-59056530D01*
X92025859Y-59180583D01*
X91933757Y-59329904D01*
X91933755Y-59329909D01*
X91885776Y-59474701D01*
X91846003Y-59532146D01*
X91781487Y-59558969D01*
X91712711Y-59546654D01*
X91661512Y-59499111D01*
X91644070Y-59435697D01*
X91644070Y-58072785D01*
X91648502Y-58057688D01*
X91647962Y-58041961D01*
X91658145Y-58024848D01*
X91663755Y-58005746D01*
X91675646Y-57995442D01*
X91683694Y-57981919D01*
X91701512Y-57973028D01*
X91716559Y-57959991D01*
X91732132Y-57957751D01*
X91746214Y-57950726D01*
X91766010Y-57952880D01*
X91785717Y-57950047D01*
X91800029Y-57956583D01*
G37*
G04 #@! TD.AperFunction*
G04 #@! TA.AperFunction,Conductor*
G36*
X91849273Y-55439072D02*
G01*
X91885775Y-55493780D01*
X91933756Y-55638575D01*
X92025858Y-55787897D01*
X92149914Y-55911953D01*
X92299236Y-56004055D01*
X92465773Y-56059240D01*
X92568561Y-56069741D01*
X92850103Y-56069740D01*
X92871349Y-56075978D01*
X92893432Y-56077557D01*
X92904214Y-56085628D01*
X92917142Y-56089424D01*
X92931643Y-56106159D01*
X92949367Y-56119426D01*
X92959982Y-56138864D01*
X92962897Y-56142228D01*
X92966283Y-56150402D01*
X92973930Y-56170903D01*
X92978917Y-56240593D01*
X92973931Y-56257576D01*
X92966284Y-56278077D01*
X92924411Y-56334010D01*
X92858946Y-56358425D01*
X92850103Y-56358741D01*
X92568569Y-56358741D01*
X92568550Y-56358742D01*
X92465773Y-56369241D01*
X92465770Y-56369242D01*
X92299238Y-56424426D01*
X92299233Y-56424428D01*
X92149912Y-56516530D01*
X92025859Y-56640583D01*
X91933757Y-56789904D01*
X91933755Y-56789909D01*
X91898701Y-56895697D01*
X91886131Y-56933631D01*
X91885776Y-56934701D01*
X91846003Y-56992146D01*
X91781487Y-57018969D01*
X91712711Y-57006654D01*
X91661512Y-56959111D01*
X91644070Y-56895697D01*
X91644070Y-55532785D01*
X91663755Y-55465746D01*
X91716559Y-55419991D01*
X91785717Y-55410047D01*
X91849273Y-55439072D01*
G37*
G04 #@! TD.AperFunction*
G04 #@! TA.AperFunction,Conductor*
G36*
X92138829Y-50849806D02*
G01*
X92168404Y-50849259D01*
X92175739Y-50852446D01*
X92179011Y-50852680D01*
X92200766Y-50863318D01*
X92299236Y-50924055D01*
X92465773Y-50979240D01*
X92568561Y-50989741D01*
X92850103Y-50989740D01*
X92917142Y-51009424D01*
X92962897Y-51062228D01*
X92966284Y-51070405D01*
X92979774Y-51106573D01*
X92979775Y-51106575D01*
X93066022Y-51221785D01*
X93066025Y-51221788D01*
X93181234Y-51308034D01*
X93181241Y-51308038D01*
X93226188Y-51324802D01*
X93316087Y-51358332D01*
X93375697Y-51364741D01*
X93696573Y-51364740D01*
X93763610Y-51384424D01*
X93809365Y-51437228D01*
X93820554Y-51486707D01*
X93850574Y-53317708D01*
X93831991Y-53385061D01*
X93779945Y-53431676D01*
X93726591Y-53443741D01*
X93375700Y-53443741D01*
X93375693Y-53443742D01*
X93316086Y-53450149D01*
X93181241Y-53500443D01*
X93181234Y-53500447D01*
X93066025Y-53586693D01*
X93066022Y-53586696D01*
X92979775Y-53701906D01*
X92966284Y-53738077D01*
X92924411Y-53794010D01*
X92858946Y-53818425D01*
X92850103Y-53818741D01*
X92568569Y-53818741D01*
X92568550Y-53818742D01*
X92465773Y-53829241D01*
X92465770Y-53829242D01*
X92299238Y-53884426D01*
X92299233Y-53884428D01*
X92149912Y-53976530D01*
X92025859Y-54100583D01*
X91933757Y-54249904D01*
X91933755Y-54249909D01*
X91885776Y-54394701D01*
X91846003Y-54452146D01*
X91781487Y-54478969D01*
X91712711Y-54466654D01*
X91661512Y-54419111D01*
X91644070Y-54355697D01*
X91644070Y-51336471D01*
X91663755Y-51269432D01*
X91680389Y-51248790D01*
X91858775Y-51070404D01*
X92047999Y-50881179D01*
X92073959Y-50867004D01*
X92098547Y-50850552D01*
X92104284Y-50850445D01*
X92109320Y-50847696D01*
X92138829Y-50849806D01*
G37*
G04 #@! TD.AperFunction*
G04 #@! TA.AperFunction,Conductor*
G36*
X91479378Y-49114426D02*
G01*
X91525133Y-49167230D01*
X91535077Y-49236388D01*
X91506052Y-49299944D01*
X91500020Y-49306422D01*
X90310619Y-50495823D01*
X90288234Y-50529326D01*
X90228483Y-50618749D01*
X90171913Y-50755323D01*
X90171910Y-50755333D01*
X90143070Y-50900320D01*
X90143070Y-52695143D01*
X90123385Y-52762182D01*
X90070581Y-52807937D01*
X90001423Y-52817881D01*
X89937867Y-52788856D01*
X89931389Y-52782824D01*
X87391160Y-50242596D01*
X87391158Y-50242593D01*
X87272287Y-50123722D01*
X87272286Y-50123721D01*
X87185474Y-50073601D01*
X87185474Y-50073600D01*
X87185470Y-50073599D01*
X87135355Y-50044664D01*
X86982627Y-50003740D01*
X86824513Y-50003740D01*
X86816917Y-50003740D01*
X86816901Y-50003741D01*
X77744510Y-50003741D01*
X77703589Y-50014705D01*
X77703589Y-50014706D01*
X77666321Y-50024692D01*
X77591784Y-50044664D01*
X77591779Y-50044667D01*
X77454860Y-50123716D01*
X77454852Y-50123722D01*
X77343050Y-50235525D01*
X77343048Y-50235527D01*
X76711572Y-50867004D01*
X76111154Y-51467422D01*
X76049831Y-51500907D01*
X76023473Y-51503741D01*
X75355800Y-51503741D01*
X75288761Y-51484056D01*
X75268119Y-51467422D01*
X75237227Y-51436530D01*
X75237226Y-51436529D01*
X75144458Y-51379310D01*
X75087906Y-51344428D01*
X75087901Y-51344426D01*
X75063894Y-51336471D01*
X74921367Y-51289242D01*
X74921365Y-51289241D01*
X74818586Y-51278741D01*
X74818579Y-51278741D01*
X74537036Y-51278741D01*
X74515790Y-51272502D01*
X74493702Y-51270923D01*
X74482918Y-51262850D01*
X74469997Y-51259056D01*
X74455497Y-51242322D01*
X74437769Y-51229051D01*
X74427155Y-51209614D01*
X74424242Y-51206252D01*
X74420854Y-51198074D01*
X74413208Y-51177574D01*
X74408224Y-51107882D01*
X74413209Y-51090905D01*
X74420856Y-51070404D01*
X74462729Y-51014471D01*
X74528194Y-50990056D01*
X74537037Y-50989740D01*
X74818572Y-50989740D01*
X74818578Y-50989740D01*
X74921367Y-50979240D01*
X75087904Y-50924055D01*
X75237226Y-50831953D01*
X75361282Y-50707897D01*
X75453384Y-50558575D01*
X75508569Y-50392038D01*
X75519070Y-50289250D01*
X75519069Y-49439233D01*
X75508569Y-49336444D01*
X75482491Y-49257745D01*
X75480089Y-49187917D01*
X75515821Y-49127875D01*
X75578341Y-49096682D01*
X75600197Y-49094741D01*
X91412339Y-49094741D01*
X91479378Y-49114426D01*
G37*
G04 #@! TD.AperFunction*
M02*
