G04 #@! TF.GenerationSoftware,KiCad,Pcbnew,9.0.1+1*
G04 #@! TF.CreationDate,2025-11-12T15:12:02+00:00*
G04 #@! TF.ProjectId,cellular-modem,63656c6c-756c-4617-922d-6d6f64656d2e,rev?*
G04 #@! TF.SameCoordinates,Original*
G04 #@! TF.FileFunction,Legend,Top*
G04 #@! TF.FilePolarity,Positive*
%FSLAX46Y46*%
G04 Gerber Fmt 4.6, Leading zero omitted, Abs format (unit mm)*
G04 Created by KiCad (PCBNEW 9.0.1+1) date 2025-11-12 15:12:02*
%MOMM*%
%LPD*%
G01*
G04 APERTURE LIST*
%ADD10C,0.100000*%
%ADD11C,0.150000*%
%ADD12C,0.152400*%
%ADD13C,0.000000*%
%ADD14C,0.127000*%
%ADD15C,0.200000*%
%ADD16C,0.120000*%
%ADD17C,0.010000*%
%ADD18R,0.812800X0.254000*%
%ADD19R,0.254000X0.812800*%
%ADD20R,4.191000X2.209800*%
%ADD21C,1.550000*%
%ADD22C,1.050000*%
%ADD23R,0.640000X2.108200*%
%ADD24R,2.438400X3.352800*%
%ADD25C,2.133600*%
%ADD26C,1.625600*%
%ADD27R,2.540000X2.000000*%
G04 APERTURE END LIST*
D10*
X99614400Y-50571600D02*
X97099800Y-52781400D01*
X103401265Y-100735095D02*
X103401265Y-99935095D01*
X103401265Y-99935095D02*
X103706027Y-99935095D01*
X103706027Y-99935095D02*
X103782217Y-99973190D01*
X103782217Y-99973190D02*
X103820312Y-100011285D01*
X103820312Y-100011285D02*
X103858408Y-100087476D01*
X103858408Y-100087476D02*
X103858408Y-100201761D01*
X103858408Y-100201761D02*
X103820312Y-100277952D01*
X103820312Y-100277952D02*
X103782217Y-100316047D01*
X103782217Y-100316047D02*
X103706027Y-100354142D01*
X103706027Y-100354142D02*
X103401265Y-100354142D01*
X104201265Y-100316047D02*
X104467931Y-100316047D01*
X104582217Y-100735095D02*
X104201265Y-100735095D01*
X104201265Y-100735095D02*
X104201265Y-99935095D01*
X104201265Y-99935095D02*
X104582217Y-99935095D01*
X104810789Y-99935095D02*
X105267932Y-99935095D01*
X105039360Y-100735095D02*
X105039360Y-99935095D01*
X105534599Y-100201761D02*
X105534599Y-101001761D01*
X105534599Y-100239857D02*
X105610789Y-100201761D01*
X105610789Y-100201761D02*
X105763170Y-100201761D01*
X105763170Y-100201761D02*
X105839361Y-100239857D01*
X105839361Y-100239857D02*
X105877456Y-100277952D01*
X105877456Y-100277952D02*
X105915551Y-100354142D01*
X105915551Y-100354142D02*
X105915551Y-100582714D01*
X105915551Y-100582714D02*
X105877456Y-100658904D01*
X105877456Y-100658904D02*
X105839361Y-100697000D01*
X105839361Y-100697000D02*
X105763170Y-100735095D01*
X105763170Y-100735095D02*
X105610789Y-100735095D01*
X105610789Y-100735095D02*
X105534599Y-100697000D01*
X106410790Y-99935095D02*
X106486980Y-99935095D01*
X106486980Y-99935095D02*
X106563171Y-99973190D01*
X106563171Y-99973190D02*
X106601266Y-100011285D01*
X106601266Y-100011285D02*
X106639361Y-100087476D01*
X106639361Y-100087476D02*
X106677456Y-100239857D01*
X106677456Y-100239857D02*
X106677456Y-100430333D01*
X106677456Y-100430333D02*
X106639361Y-100582714D01*
X106639361Y-100582714D02*
X106601266Y-100658904D01*
X106601266Y-100658904D02*
X106563171Y-100697000D01*
X106563171Y-100697000D02*
X106486980Y-100735095D01*
X106486980Y-100735095D02*
X106410790Y-100735095D01*
X106410790Y-100735095D02*
X106334599Y-100697000D01*
X106334599Y-100697000D02*
X106296504Y-100658904D01*
X106296504Y-100658904D02*
X106258409Y-100582714D01*
X106258409Y-100582714D02*
X106220313Y-100430333D01*
X106220313Y-100430333D02*
X106220313Y-100239857D01*
X106220313Y-100239857D02*
X106258409Y-100087476D01*
X106258409Y-100087476D02*
X106296504Y-100011285D01*
X106296504Y-100011285D02*
X106334599Y-99973190D01*
X106334599Y-99973190D02*
X106410790Y-99935095D01*
X104887093Y-91547845D02*
X104201379Y-92576416D01*
X105534712Y-92385940D02*
X105153760Y-92385940D01*
X105153760Y-92385940D02*
X105153760Y-91585940D01*
X105801379Y-91966892D02*
X106068045Y-91966892D01*
X106182331Y-92385940D02*
X105801379Y-92385940D01*
X105801379Y-92385940D02*
X105801379Y-91585940D01*
X105801379Y-91585940D02*
X106182331Y-91585940D01*
X106525189Y-92385940D02*
X106525189Y-91585940D01*
X106525189Y-91585940D02*
X106715665Y-91585940D01*
X106715665Y-91585940D02*
X106829951Y-91624035D01*
X106829951Y-91624035D02*
X106906141Y-91700225D01*
X106906141Y-91700225D02*
X106944236Y-91776416D01*
X106944236Y-91776416D02*
X106982332Y-91928797D01*
X106982332Y-91928797D02*
X106982332Y-92043083D01*
X106982332Y-92043083D02*
X106944236Y-92195464D01*
X106944236Y-92195464D02*
X106906141Y-92271654D01*
X106906141Y-92271654D02*
X106829951Y-92347845D01*
X106829951Y-92347845D02*
X106715665Y-92385940D01*
X106715665Y-92385940D02*
X106525189Y-92385940D01*
X104239474Y-92873895D02*
X104429950Y-93673895D01*
X104429950Y-93673895D02*
X104582331Y-93102466D01*
X104582331Y-93102466D02*
X104734712Y-93673895D01*
X104734712Y-93673895D02*
X104925189Y-92873895D01*
X105153760Y-92873895D02*
X105344236Y-93673895D01*
X105344236Y-93673895D02*
X105496617Y-93102466D01*
X105496617Y-93102466D02*
X105648998Y-93673895D01*
X105648998Y-93673895D02*
X105839475Y-92873895D01*
X106106141Y-93445323D02*
X106487094Y-93445323D01*
X106029951Y-93673895D02*
X106296618Y-92873895D01*
X106296618Y-92873895D02*
X106563284Y-93673895D01*
X106829951Y-93673895D02*
X106829951Y-92873895D01*
X106829951Y-92873895D02*
X107287094Y-93673895D01*
X107287094Y-93673895D02*
X107287094Y-92873895D01*
X70686065Y-93973540D02*
X70686065Y-94621159D01*
X70686065Y-94621159D02*
X70724160Y-94697349D01*
X70724160Y-94697349D02*
X70762255Y-94735445D01*
X70762255Y-94735445D02*
X70838446Y-94773540D01*
X70838446Y-94773540D02*
X70990827Y-94773540D01*
X70990827Y-94773540D02*
X71067017Y-94735445D01*
X71067017Y-94735445D02*
X71105112Y-94697349D01*
X71105112Y-94697349D02*
X71143208Y-94621159D01*
X71143208Y-94621159D02*
X71143208Y-93973540D01*
X71486064Y-94735445D02*
X71600350Y-94773540D01*
X71600350Y-94773540D02*
X71790826Y-94773540D01*
X71790826Y-94773540D02*
X71867017Y-94735445D01*
X71867017Y-94735445D02*
X71905112Y-94697349D01*
X71905112Y-94697349D02*
X71943207Y-94621159D01*
X71943207Y-94621159D02*
X71943207Y-94544968D01*
X71943207Y-94544968D02*
X71905112Y-94468778D01*
X71905112Y-94468778D02*
X71867017Y-94430683D01*
X71867017Y-94430683D02*
X71790826Y-94392587D01*
X71790826Y-94392587D02*
X71638445Y-94354492D01*
X71638445Y-94354492D02*
X71562255Y-94316397D01*
X71562255Y-94316397D02*
X71524160Y-94278302D01*
X71524160Y-94278302D02*
X71486064Y-94202111D01*
X71486064Y-94202111D02*
X71486064Y-94125921D01*
X71486064Y-94125921D02*
X71524160Y-94049730D01*
X71524160Y-94049730D02*
X71562255Y-94011635D01*
X71562255Y-94011635D02*
X71638445Y-93973540D01*
X71638445Y-93973540D02*
X71828922Y-93973540D01*
X71828922Y-93973540D02*
X71943207Y-94011635D01*
X72286065Y-94773540D02*
X72286065Y-93973540D01*
X72667017Y-94773540D02*
X72667017Y-93973540D01*
X72667017Y-93973540D02*
X72933683Y-94544968D01*
X72933683Y-94544968D02*
X73200350Y-93973540D01*
X73200350Y-93973540D02*
X73200350Y-94773540D01*
X71143208Y-95985304D02*
X71105112Y-96023400D01*
X71105112Y-96023400D02*
X70990827Y-96061495D01*
X70990827Y-96061495D02*
X70914636Y-96061495D01*
X70914636Y-96061495D02*
X70800350Y-96023400D01*
X70800350Y-96023400D02*
X70724160Y-95947209D01*
X70724160Y-95947209D02*
X70686065Y-95871019D01*
X70686065Y-95871019D02*
X70647969Y-95718638D01*
X70647969Y-95718638D02*
X70647969Y-95604352D01*
X70647969Y-95604352D02*
X70686065Y-95451971D01*
X70686065Y-95451971D02*
X70724160Y-95375780D01*
X70724160Y-95375780D02*
X70800350Y-95299590D01*
X70800350Y-95299590D02*
X70914636Y-95261495D01*
X70914636Y-95261495D02*
X70990827Y-95261495D01*
X70990827Y-95261495D02*
X71105112Y-95299590D01*
X71105112Y-95299590D02*
X71143208Y-95337685D01*
X71867017Y-96061495D02*
X71486065Y-96061495D01*
X71486065Y-96061495D02*
X71486065Y-95261495D01*
X72133684Y-96061495D02*
X72133684Y-95261495D01*
X72590827Y-96061495D02*
X72247969Y-95604352D01*
X72590827Y-95261495D02*
X72133684Y-95718638D01*
X101953465Y-52348095D02*
X101953465Y-51548095D01*
X101953465Y-51548095D02*
X102258227Y-51548095D01*
X102258227Y-51548095D02*
X102334417Y-51586190D01*
X102334417Y-51586190D02*
X102372512Y-51624285D01*
X102372512Y-51624285D02*
X102410608Y-51700476D01*
X102410608Y-51700476D02*
X102410608Y-51814761D01*
X102410608Y-51814761D02*
X102372512Y-51890952D01*
X102372512Y-51890952D02*
X102334417Y-51929047D01*
X102334417Y-51929047D02*
X102258227Y-51967142D01*
X102258227Y-51967142D02*
X101953465Y-51967142D01*
X103210608Y-52271904D02*
X103172512Y-52310000D01*
X103172512Y-52310000D02*
X103058227Y-52348095D01*
X103058227Y-52348095D02*
X102982036Y-52348095D01*
X102982036Y-52348095D02*
X102867750Y-52310000D01*
X102867750Y-52310000D02*
X102791560Y-52233809D01*
X102791560Y-52233809D02*
X102753465Y-52157619D01*
X102753465Y-52157619D02*
X102715369Y-52005238D01*
X102715369Y-52005238D02*
X102715369Y-51890952D01*
X102715369Y-51890952D02*
X102753465Y-51738571D01*
X102753465Y-51738571D02*
X102791560Y-51662380D01*
X102791560Y-51662380D02*
X102867750Y-51586190D01*
X102867750Y-51586190D02*
X102982036Y-51548095D01*
X102982036Y-51548095D02*
X103058227Y-51548095D01*
X103058227Y-51548095D02*
X103172512Y-51586190D01*
X103172512Y-51586190D02*
X103210608Y-51624285D01*
X103553465Y-52348095D02*
X103553465Y-51548095D01*
X103553465Y-51548095D02*
X103820131Y-52119523D01*
X103820131Y-52119523D02*
X104086798Y-51548095D01*
X104086798Y-51548095D02*
X104086798Y-52348095D01*
X104277275Y-52424285D02*
X104886798Y-52424285D01*
X105077275Y-52348095D02*
X105077275Y-51548095D01*
X105077275Y-51548095D02*
X105267751Y-51548095D01*
X105267751Y-51548095D02*
X105382037Y-51586190D01*
X105382037Y-51586190D02*
X105458227Y-51662380D01*
X105458227Y-51662380D02*
X105496322Y-51738571D01*
X105496322Y-51738571D02*
X105534418Y-51890952D01*
X105534418Y-51890952D02*
X105534418Y-52005238D01*
X105534418Y-52005238D02*
X105496322Y-52157619D01*
X105496322Y-52157619D02*
X105458227Y-52233809D01*
X105458227Y-52233809D02*
X105382037Y-52310000D01*
X105382037Y-52310000D02*
X105267751Y-52348095D01*
X105267751Y-52348095D02*
X105077275Y-52348095D01*
X105877275Y-52348095D02*
X105877275Y-51548095D01*
X106258227Y-52348095D02*
X106258227Y-51548095D01*
X106258227Y-51548095D02*
X106715370Y-52348095D01*
X106715370Y-52348095D02*
X106715370Y-51548095D01*
X71168674Y-43826495D02*
X71663912Y-43826495D01*
X71663912Y-43826495D02*
X71397246Y-44131257D01*
X71397246Y-44131257D02*
X71511531Y-44131257D01*
X71511531Y-44131257D02*
X71587722Y-44169352D01*
X71587722Y-44169352D02*
X71625817Y-44207447D01*
X71625817Y-44207447D02*
X71663912Y-44283638D01*
X71663912Y-44283638D02*
X71663912Y-44474114D01*
X71663912Y-44474114D02*
X71625817Y-44550304D01*
X71625817Y-44550304D02*
X71587722Y-44588400D01*
X71587722Y-44588400D02*
X71511531Y-44626495D01*
X71511531Y-44626495D02*
X71282960Y-44626495D01*
X71282960Y-44626495D02*
X71206769Y-44588400D01*
X71206769Y-44588400D02*
X71168674Y-44550304D01*
X72006770Y-44550304D02*
X72044865Y-44588400D01*
X72044865Y-44588400D02*
X72006770Y-44626495D01*
X72006770Y-44626495D02*
X71968674Y-44588400D01*
X71968674Y-44588400D02*
X72006770Y-44550304D01*
X72006770Y-44550304D02*
X72006770Y-44626495D01*
X72311531Y-43826495D02*
X72806769Y-43826495D01*
X72806769Y-43826495D02*
X72540103Y-44131257D01*
X72540103Y-44131257D02*
X72654388Y-44131257D01*
X72654388Y-44131257D02*
X72730579Y-44169352D01*
X72730579Y-44169352D02*
X72768674Y-44207447D01*
X72768674Y-44207447D02*
X72806769Y-44283638D01*
X72806769Y-44283638D02*
X72806769Y-44474114D01*
X72806769Y-44474114D02*
X72768674Y-44550304D01*
X72768674Y-44550304D02*
X72730579Y-44588400D01*
X72730579Y-44588400D02*
X72654388Y-44626495D01*
X72654388Y-44626495D02*
X72425817Y-44626495D01*
X72425817Y-44626495D02*
X72349626Y-44588400D01*
X72349626Y-44588400D02*
X72311531Y-44550304D01*
X73035341Y-43826495D02*
X73302008Y-44626495D01*
X73302008Y-44626495D02*
X73568674Y-43826495D01*
X71130579Y-36181095D02*
X71397246Y-36981095D01*
X71397246Y-36981095D02*
X71663912Y-36181095D01*
X72197245Y-36562047D02*
X72311531Y-36600142D01*
X72311531Y-36600142D02*
X72349626Y-36638238D01*
X72349626Y-36638238D02*
X72387722Y-36714428D01*
X72387722Y-36714428D02*
X72387722Y-36828714D01*
X72387722Y-36828714D02*
X72349626Y-36904904D01*
X72349626Y-36904904D02*
X72311531Y-36943000D01*
X72311531Y-36943000D02*
X72235341Y-36981095D01*
X72235341Y-36981095D02*
X71930579Y-36981095D01*
X71930579Y-36981095D02*
X71930579Y-36181095D01*
X71930579Y-36181095D02*
X72197245Y-36181095D01*
X72197245Y-36181095D02*
X72273436Y-36219190D01*
X72273436Y-36219190D02*
X72311531Y-36257285D01*
X72311531Y-36257285D02*
X72349626Y-36333476D01*
X72349626Y-36333476D02*
X72349626Y-36409666D01*
X72349626Y-36409666D02*
X72311531Y-36485857D01*
X72311531Y-36485857D02*
X72273436Y-36523952D01*
X72273436Y-36523952D02*
X72197245Y-36562047D01*
X72197245Y-36562047D02*
X71930579Y-36562047D01*
X72692483Y-36752523D02*
X73073436Y-36752523D01*
X72616293Y-36981095D02*
X72882960Y-36181095D01*
X72882960Y-36181095D02*
X73149626Y-36981095D01*
X73302007Y-36181095D02*
X73759150Y-36181095D01*
X73530578Y-36981095D02*
X73530578Y-36181095D01*
X74635341Y-36981095D02*
X74635341Y-36447761D01*
X74635341Y-36181095D02*
X74597245Y-36219190D01*
X74597245Y-36219190D02*
X74635341Y-36257285D01*
X74635341Y-36257285D02*
X74673436Y-36219190D01*
X74673436Y-36219190D02*
X74635341Y-36181095D01*
X74635341Y-36181095D02*
X74635341Y-36257285D01*
X75016293Y-36447761D02*
X75016293Y-36981095D01*
X75016293Y-36523952D02*
X75054388Y-36485857D01*
X75054388Y-36485857D02*
X75130578Y-36447761D01*
X75130578Y-36447761D02*
X75244864Y-36447761D01*
X75244864Y-36447761D02*
X75321055Y-36485857D01*
X75321055Y-36485857D02*
X75359150Y-36562047D01*
X75359150Y-36562047D02*
X75359150Y-36981095D01*
X100835865Y-67664295D02*
X100835865Y-66864295D01*
X100835865Y-66864295D02*
X101140627Y-66864295D01*
X101140627Y-66864295D02*
X101216817Y-66902390D01*
X101216817Y-66902390D02*
X101254912Y-66940485D01*
X101254912Y-66940485D02*
X101293008Y-67016676D01*
X101293008Y-67016676D02*
X101293008Y-67130961D01*
X101293008Y-67130961D02*
X101254912Y-67207152D01*
X101254912Y-67207152D02*
X101216817Y-67245247D01*
X101216817Y-67245247D02*
X101140627Y-67283342D01*
X101140627Y-67283342D02*
X100835865Y-67283342D01*
X102093008Y-67588104D02*
X102054912Y-67626200D01*
X102054912Y-67626200D02*
X101940627Y-67664295D01*
X101940627Y-67664295D02*
X101864436Y-67664295D01*
X101864436Y-67664295D02*
X101750150Y-67626200D01*
X101750150Y-67626200D02*
X101673960Y-67550009D01*
X101673960Y-67550009D02*
X101635865Y-67473819D01*
X101635865Y-67473819D02*
X101597769Y-67321438D01*
X101597769Y-67321438D02*
X101597769Y-67207152D01*
X101597769Y-67207152D02*
X101635865Y-67054771D01*
X101635865Y-67054771D02*
X101673960Y-66978580D01*
X101673960Y-66978580D02*
X101750150Y-66902390D01*
X101750150Y-66902390D02*
X101864436Y-66864295D01*
X101864436Y-66864295D02*
X101940627Y-66864295D01*
X101940627Y-66864295D02*
X102054912Y-66902390D01*
X102054912Y-66902390D02*
X102093008Y-66940485D01*
X102435865Y-67664295D02*
X102435865Y-66864295D01*
X102435865Y-66864295D02*
X102702531Y-67435723D01*
X102702531Y-67435723D02*
X102969198Y-66864295D01*
X102969198Y-66864295D02*
X102969198Y-67664295D01*
X103159675Y-67740485D02*
X103769198Y-67740485D01*
X103959675Y-67664295D02*
X103959675Y-66864295D01*
X103959675Y-66864295D02*
X104150151Y-66864295D01*
X104150151Y-66864295D02*
X104264437Y-66902390D01*
X104264437Y-66902390D02*
X104340627Y-66978580D01*
X104340627Y-66978580D02*
X104378722Y-67054771D01*
X104378722Y-67054771D02*
X104416818Y-67207152D01*
X104416818Y-67207152D02*
X104416818Y-67321438D01*
X104416818Y-67321438D02*
X104378722Y-67473819D01*
X104378722Y-67473819D02*
X104340627Y-67550009D01*
X104340627Y-67550009D02*
X104264437Y-67626200D01*
X104264437Y-67626200D02*
X104150151Y-67664295D01*
X104150151Y-67664295D02*
X103959675Y-67664295D01*
X104912056Y-66864295D02*
X105064437Y-66864295D01*
X105064437Y-66864295D02*
X105140627Y-66902390D01*
X105140627Y-66902390D02*
X105216818Y-66978580D01*
X105216818Y-66978580D02*
X105254913Y-67130961D01*
X105254913Y-67130961D02*
X105254913Y-67397628D01*
X105254913Y-67397628D02*
X105216818Y-67550009D01*
X105216818Y-67550009D02*
X105140627Y-67626200D01*
X105140627Y-67626200D02*
X105064437Y-67664295D01*
X105064437Y-67664295D02*
X104912056Y-67664295D01*
X104912056Y-67664295D02*
X104835865Y-67626200D01*
X104835865Y-67626200D02*
X104759675Y-67550009D01*
X104759675Y-67550009D02*
X104721579Y-67397628D01*
X104721579Y-67397628D02*
X104721579Y-67130961D01*
X104721579Y-67130961D02*
X104759675Y-66978580D01*
X104759675Y-66978580D02*
X104835865Y-66902390D01*
X104835865Y-66902390D02*
X104912056Y-66864295D01*
X105597770Y-66864295D02*
X105597770Y-67511914D01*
X105597770Y-67511914D02*
X105635865Y-67588104D01*
X105635865Y-67588104D02*
X105673960Y-67626200D01*
X105673960Y-67626200D02*
X105750151Y-67664295D01*
X105750151Y-67664295D02*
X105902532Y-67664295D01*
X105902532Y-67664295D02*
X105978722Y-67626200D01*
X105978722Y-67626200D02*
X106016817Y-67588104D01*
X106016817Y-67588104D02*
X106054913Y-67511914D01*
X106054913Y-67511914D02*
X106054913Y-66864295D01*
X106321579Y-66864295D02*
X106778722Y-66864295D01*
X106550150Y-67664295D02*
X106550150Y-66864295D01*
X105941208Y-42213495D02*
X105674541Y-41832542D01*
X105484065Y-42213495D02*
X105484065Y-41413495D01*
X105484065Y-41413495D02*
X105788827Y-41413495D01*
X105788827Y-41413495D02*
X105865017Y-41451590D01*
X105865017Y-41451590D02*
X105903112Y-41489685D01*
X105903112Y-41489685D02*
X105941208Y-41565876D01*
X105941208Y-41565876D02*
X105941208Y-41680161D01*
X105941208Y-41680161D02*
X105903112Y-41756352D01*
X105903112Y-41756352D02*
X105865017Y-41794447D01*
X105865017Y-41794447D02*
X105788827Y-41832542D01*
X105788827Y-41832542D02*
X105484065Y-41832542D01*
X106207874Y-41413495D02*
X106741208Y-42213495D01*
X106741208Y-41413495D02*
X106207874Y-42213495D01*
X104112465Y-89096740D02*
X104112465Y-89744359D01*
X104112465Y-89744359D02*
X104150560Y-89820549D01*
X104150560Y-89820549D02*
X104188655Y-89858645D01*
X104188655Y-89858645D02*
X104264846Y-89896740D01*
X104264846Y-89896740D02*
X104417227Y-89896740D01*
X104417227Y-89896740D02*
X104493417Y-89858645D01*
X104493417Y-89858645D02*
X104531512Y-89820549D01*
X104531512Y-89820549D02*
X104569608Y-89744359D01*
X104569608Y-89744359D02*
X104569608Y-89096740D01*
X104912464Y-89858645D02*
X105026750Y-89896740D01*
X105026750Y-89896740D02*
X105217226Y-89896740D01*
X105217226Y-89896740D02*
X105293417Y-89858645D01*
X105293417Y-89858645D02*
X105331512Y-89820549D01*
X105331512Y-89820549D02*
X105369607Y-89744359D01*
X105369607Y-89744359D02*
X105369607Y-89668168D01*
X105369607Y-89668168D02*
X105331512Y-89591978D01*
X105331512Y-89591978D02*
X105293417Y-89553883D01*
X105293417Y-89553883D02*
X105217226Y-89515787D01*
X105217226Y-89515787D02*
X105064845Y-89477692D01*
X105064845Y-89477692D02*
X104988655Y-89439597D01*
X104988655Y-89439597D02*
X104950560Y-89401502D01*
X104950560Y-89401502D02*
X104912464Y-89325311D01*
X104912464Y-89325311D02*
X104912464Y-89249121D01*
X104912464Y-89249121D02*
X104950560Y-89172930D01*
X104950560Y-89172930D02*
X104988655Y-89134835D01*
X104988655Y-89134835D02*
X105064845Y-89096740D01*
X105064845Y-89096740D02*
X105255322Y-89096740D01*
X105255322Y-89096740D02*
X105369607Y-89134835D01*
X105712465Y-89896740D02*
X105712465Y-89096740D01*
X106093417Y-89896740D02*
X106093417Y-89096740D01*
X106093417Y-89096740D02*
X106360083Y-89668168D01*
X106360083Y-89668168D02*
X106626750Y-89096740D01*
X106626750Y-89096740D02*
X106626750Y-89896740D01*
X106817227Y-89972930D02*
X107426750Y-89972930D01*
X104112465Y-91184695D02*
X104112465Y-90384695D01*
X104112465Y-90384695D02*
X104302941Y-90384695D01*
X104302941Y-90384695D02*
X104417227Y-90422790D01*
X104417227Y-90422790D02*
X104493417Y-90498980D01*
X104493417Y-90498980D02*
X104531512Y-90575171D01*
X104531512Y-90575171D02*
X104569608Y-90727552D01*
X104569608Y-90727552D02*
X104569608Y-90841838D01*
X104569608Y-90841838D02*
X104531512Y-90994219D01*
X104531512Y-90994219D02*
X104493417Y-91070409D01*
X104493417Y-91070409D02*
X104417227Y-91146600D01*
X104417227Y-91146600D02*
X104302941Y-91184695D01*
X104302941Y-91184695D02*
X104112465Y-91184695D01*
X104798179Y-90384695D02*
X105255322Y-90384695D01*
X105026750Y-91184695D02*
X105026750Y-90384695D01*
X105521989Y-90765647D02*
X105788655Y-90765647D01*
X105902941Y-91184695D02*
X105521989Y-91184695D01*
X105521989Y-91184695D02*
X105521989Y-90384695D01*
X105521989Y-90384695D02*
X105902941Y-90384695D01*
X106702942Y-91108504D02*
X106664846Y-91146600D01*
X106664846Y-91146600D02*
X106550561Y-91184695D01*
X106550561Y-91184695D02*
X106474370Y-91184695D01*
X106474370Y-91184695D02*
X106360084Y-91146600D01*
X106360084Y-91146600D02*
X106283894Y-91070409D01*
X106283894Y-91070409D02*
X106245799Y-90994219D01*
X106245799Y-90994219D02*
X106207703Y-90841838D01*
X106207703Y-90841838D02*
X106207703Y-90727552D01*
X106207703Y-90727552D02*
X106245799Y-90575171D01*
X106245799Y-90575171D02*
X106283894Y-90498980D01*
X106283894Y-90498980D02*
X106360084Y-90422790D01*
X106360084Y-90422790D02*
X106474370Y-90384695D01*
X106474370Y-90384695D02*
X106550561Y-90384695D01*
X106550561Y-90384695D02*
X106664846Y-90422790D01*
X106664846Y-90422790D02*
X106702942Y-90460885D01*
X106931513Y-90384695D02*
X107388656Y-90384695D01*
X107160084Y-91184695D02*
X107160084Y-90384695D01*
X71714712Y-104900790D02*
X71638522Y-104862695D01*
X71638522Y-104862695D02*
X71524236Y-104862695D01*
X71524236Y-104862695D02*
X71409950Y-104900790D01*
X71409950Y-104900790D02*
X71333760Y-104976980D01*
X71333760Y-104976980D02*
X71295665Y-105053171D01*
X71295665Y-105053171D02*
X71257569Y-105205552D01*
X71257569Y-105205552D02*
X71257569Y-105319838D01*
X71257569Y-105319838D02*
X71295665Y-105472219D01*
X71295665Y-105472219D02*
X71333760Y-105548409D01*
X71333760Y-105548409D02*
X71409950Y-105624600D01*
X71409950Y-105624600D02*
X71524236Y-105662695D01*
X71524236Y-105662695D02*
X71600427Y-105662695D01*
X71600427Y-105662695D02*
X71714712Y-105624600D01*
X71714712Y-105624600D02*
X71752808Y-105586504D01*
X71752808Y-105586504D02*
X71752808Y-105319838D01*
X71752808Y-105319838D02*
X71600427Y-105319838D01*
X72095665Y-105662695D02*
X72095665Y-104862695D01*
X72095665Y-104862695D02*
X72552808Y-105662695D01*
X72552808Y-105662695D02*
X72552808Y-104862695D01*
X72933760Y-105662695D02*
X72933760Y-104862695D01*
X72933760Y-104862695D02*
X73124236Y-104862695D01*
X73124236Y-104862695D02*
X73238522Y-104900790D01*
X73238522Y-104900790D02*
X73314712Y-104976980D01*
X73314712Y-104976980D02*
X73352807Y-105053171D01*
X73352807Y-105053171D02*
X73390903Y-105205552D01*
X73390903Y-105205552D02*
X73390903Y-105319838D01*
X73390903Y-105319838D02*
X73352807Y-105472219D01*
X73352807Y-105472219D02*
X73314712Y-105548409D01*
X73314712Y-105548409D02*
X73238522Y-105624600D01*
X73238522Y-105624600D02*
X73124236Y-105662695D01*
X73124236Y-105662695D02*
X72933760Y-105662695D01*
X70813065Y-88969740D02*
X70813065Y-89617359D01*
X70813065Y-89617359D02*
X70851160Y-89693549D01*
X70851160Y-89693549D02*
X70889255Y-89731645D01*
X70889255Y-89731645D02*
X70965446Y-89769740D01*
X70965446Y-89769740D02*
X71117827Y-89769740D01*
X71117827Y-89769740D02*
X71194017Y-89731645D01*
X71194017Y-89731645D02*
X71232112Y-89693549D01*
X71232112Y-89693549D02*
X71270208Y-89617359D01*
X71270208Y-89617359D02*
X71270208Y-88969740D01*
X71613064Y-89731645D02*
X71727350Y-89769740D01*
X71727350Y-89769740D02*
X71917826Y-89769740D01*
X71917826Y-89769740D02*
X71994017Y-89731645D01*
X71994017Y-89731645D02*
X72032112Y-89693549D01*
X72032112Y-89693549D02*
X72070207Y-89617359D01*
X72070207Y-89617359D02*
X72070207Y-89541168D01*
X72070207Y-89541168D02*
X72032112Y-89464978D01*
X72032112Y-89464978D02*
X71994017Y-89426883D01*
X71994017Y-89426883D02*
X71917826Y-89388787D01*
X71917826Y-89388787D02*
X71765445Y-89350692D01*
X71765445Y-89350692D02*
X71689255Y-89312597D01*
X71689255Y-89312597D02*
X71651160Y-89274502D01*
X71651160Y-89274502D02*
X71613064Y-89198311D01*
X71613064Y-89198311D02*
X71613064Y-89122121D01*
X71613064Y-89122121D02*
X71651160Y-89045930D01*
X71651160Y-89045930D02*
X71689255Y-89007835D01*
X71689255Y-89007835D02*
X71765445Y-88969740D01*
X71765445Y-88969740D02*
X71955922Y-88969740D01*
X71955922Y-88969740D02*
X72070207Y-89007835D01*
X72413065Y-89769740D02*
X72413065Y-88969740D01*
X72794017Y-89769740D02*
X72794017Y-88969740D01*
X72794017Y-88969740D02*
X73060683Y-89541168D01*
X73060683Y-89541168D02*
X73327350Y-88969740D01*
X73327350Y-88969740D02*
X73327350Y-89769740D01*
X70698779Y-90257695D02*
X70965446Y-91057695D01*
X70965446Y-91057695D02*
X71232112Y-90257695D01*
X71498779Y-91057695D02*
X71498779Y-90257695D01*
X71498779Y-90257695D02*
X71689255Y-90257695D01*
X71689255Y-90257695D02*
X71803541Y-90295790D01*
X71803541Y-90295790D02*
X71879731Y-90371980D01*
X71879731Y-90371980D02*
X71917826Y-90448171D01*
X71917826Y-90448171D02*
X71955922Y-90600552D01*
X71955922Y-90600552D02*
X71955922Y-90714838D01*
X71955922Y-90714838D02*
X71917826Y-90867219D01*
X71917826Y-90867219D02*
X71879731Y-90943409D01*
X71879731Y-90943409D02*
X71803541Y-91019600D01*
X71803541Y-91019600D02*
X71689255Y-91057695D01*
X71689255Y-91057695D02*
X71498779Y-91057695D01*
X72298779Y-91057695D02*
X72298779Y-90257695D01*
X72298779Y-90257695D02*
X72489255Y-90257695D01*
X72489255Y-90257695D02*
X72603541Y-90295790D01*
X72603541Y-90295790D02*
X72679731Y-90371980D01*
X72679731Y-90371980D02*
X72717826Y-90448171D01*
X72717826Y-90448171D02*
X72755922Y-90600552D01*
X72755922Y-90600552D02*
X72755922Y-90714838D01*
X72755922Y-90714838D02*
X72717826Y-90867219D01*
X72717826Y-90867219D02*
X72679731Y-90943409D01*
X72679731Y-90943409D02*
X72603541Y-91019600D01*
X72603541Y-91019600D02*
X72489255Y-91057695D01*
X72489255Y-91057695D02*
X72298779Y-91057695D01*
X104772865Y-88136695D02*
X104772865Y-87336695D01*
X104772865Y-87336695D02*
X105077627Y-87336695D01*
X105077627Y-87336695D02*
X105153817Y-87374790D01*
X105153817Y-87374790D02*
X105191912Y-87412885D01*
X105191912Y-87412885D02*
X105230008Y-87489076D01*
X105230008Y-87489076D02*
X105230008Y-87603361D01*
X105230008Y-87603361D02*
X105191912Y-87679552D01*
X105191912Y-87679552D02*
X105153817Y-87717647D01*
X105153817Y-87717647D02*
X105077627Y-87755742D01*
X105077627Y-87755742D02*
X104772865Y-87755742D01*
X105915722Y-87603361D02*
X105915722Y-88136695D01*
X105725246Y-87298600D02*
X105534769Y-87870028D01*
X105534769Y-87870028D02*
X106030008Y-87870028D01*
X106372865Y-88136695D02*
X106525246Y-88136695D01*
X106525246Y-88136695D02*
X106601436Y-88098600D01*
X106601436Y-88098600D02*
X106639532Y-88060504D01*
X106639532Y-88060504D02*
X106715722Y-87946219D01*
X106715722Y-87946219D02*
X106753817Y-87793838D01*
X106753817Y-87793838D02*
X106753817Y-87489076D01*
X106753817Y-87489076D02*
X106715722Y-87412885D01*
X106715722Y-87412885D02*
X106677627Y-87374790D01*
X106677627Y-87374790D02*
X106601436Y-87336695D01*
X106601436Y-87336695D02*
X106449055Y-87336695D01*
X106449055Y-87336695D02*
X106372865Y-87374790D01*
X106372865Y-87374790D02*
X106334770Y-87412885D01*
X106334770Y-87412885D02*
X106296674Y-87489076D01*
X106296674Y-87489076D02*
X106296674Y-87679552D01*
X106296674Y-87679552D02*
X106334770Y-87755742D01*
X106334770Y-87755742D02*
X106372865Y-87793838D01*
X106372865Y-87793838D02*
X106449055Y-87831933D01*
X106449055Y-87831933D02*
X106601436Y-87831933D01*
X106601436Y-87831933D02*
X106677627Y-87793838D01*
X106677627Y-87793838D02*
X106715722Y-87755742D01*
X106715722Y-87755742D02*
X106753817Y-87679552D01*
X71805363Y-47611512D02*
X71757744Y-47563893D01*
X71757744Y-47563893D02*
X71710124Y-47421036D01*
X71710124Y-47421036D02*
X71710124Y-47325798D01*
X71710124Y-47325798D02*
X71757744Y-47182941D01*
X71757744Y-47182941D02*
X71852982Y-47087703D01*
X71852982Y-47087703D02*
X71948220Y-47040084D01*
X71948220Y-47040084D02*
X72138696Y-46992465D01*
X72138696Y-46992465D02*
X72281553Y-46992465D01*
X72281553Y-46992465D02*
X72472029Y-47040084D01*
X72472029Y-47040084D02*
X72567267Y-47087703D01*
X72567267Y-47087703D02*
X72662505Y-47182941D01*
X72662505Y-47182941D02*
X72710124Y-47325798D01*
X72710124Y-47325798D02*
X72710124Y-47421036D01*
X72710124Y-47421036D02*
X72662505Y-47563893D01*
X72662505Y-47563893D02*
X72614886Y-47611512D01*
X71757744Y-48421036D02*
X71710124Y-48325798D01*
X71710124Y-48325798D02*
X71710124Y-48135322D01*
X71710124Y-48135322D02*
X71757744Y-48040084D01*
X71757744Y-48040084D02*
X71852982Y-47992465D01*
X71852982Y-47992465D02*
X72233934Y-47992465D01*
X72233934Y-47992465D02*
X72329172Y-48040084D01*
X72329172Y-48040084D02*
X72376791Y-48135322D01*
X72376791Y-48135322D02*
X72376791Y-48325798D01*
X72376791Y-48325798D02*
X72329172Y-48421036D01*
X72329172Y-48421036D02*
X72233934Y-48468655D01*
X72233934Y-48468655D02*
X72138696Y-48468655D01*
X72138696Y-48468655D02*
X72043458Y-47992465D01*
X71710124Y-49040084D02*
X71757744Y-48944846D01*
X71757744Y-48944846D02*
X71852982Y-48897227D01*
X71852982Y-48897227D02*
X72710124Y-48897227D01*
X71710124Y-49563894D02*
X71757744Y-49468656D01*
X71757744Y-49468656D02*
X71852982Y-49421037D01*
X71852982Y-49421037D02*
X72710124Y-49421037D01*
X72376791Y-50373418D02*
X71710124Y-50373418D01*
X72376791Y-49944847D02*
X71852982Y-49944847D01*
X71852982Y-49944847D02*
X71757744Y-49992466D01*
X71757744Y-49992466D02*
X71710124Y-50087704D01*
X71710124Y-50087704D02*
X71710124Y-50230561D01*
X71710124Y-50230561D02*
X71757744Y-50325799D01*
X71757744Y-50325799D02*
X71805363Y-50373418D01*
X71710124Y-50992466D02*
X71757744Y-50897228D01*
X71757744Y-50897228D02*
X71852982Y-50849609D01*
X71852982Y-50849609D02*
X72710124Y-50849609D01*
X71710124Y-51801990D02*
X72233934Y-51801990D01*
X72233934Y-51801990D02*
X72329172Y-51754371D01*
X72329172Y-51754371D02*
X72376791Y-51659133D01*
X72376791Y-51659133D02*
X72376791Y-51468657D01*
X72376791Y-51468657D02*
X72329172Y-51373419D01*
X71757744Y-51801990D02*
X71710124Y-51706752D01*
X71710124Y-51706752D02*
X71710124Y-51468657D01*
X71710124Y-51468657D02*
X71757744Y-51373419D01*
X71757744Y-51373419D02*
X71852982Y-51325800D01*
X71852982Y-51325800D02*
X71948220Y-51325800D01*
X71948220Y-51325800D02*
X72043458Y-51373419D01*
X72043458Y-51373419D02*
X72091077Y-51468657D01*
X72091077Y-51468657D02*
X72091077Y-51706752D01*
X72091077Y-51706752D02*
X72138696Y-51801990D01*
X71710124Y-52278181D02*
X72376791Y-52278181D01*
X72186315Y-52278181D02*
X72281553Y-52325800D01*
X72281553Y-52325800D02*
X72329172Y-52373419D01*
X72329172Y-52373419D02*
X72376791Y-52468657D01*
X72376791Y-52468657D02*
X72376791Y-52563895D01*
X71710124Y-53659134D02*
X72710124Y-53659134D01*
X72710124Y-53659134D02*
X71995839Y-53992467D01*
X71995839Y-53992467D02*
X72710124Y-54325800D01*
X72710124Y-54325800D02*
X71710124Y-54325800D01*
X71710124Y-54944848D02*
X71757744Y-54849610D01*
X71757744Y-54849610D02*
X71805363Y-54801991D01*
X71805363Y-54801991D02*
X71900601Y-54754372D01*
X71900601Y-54754372D02*
X72186315Y-54754372D01*
X72186315Y-54754372D02*
X72281553Y-54801991D01*
X72281553Y-54801991D02*
X72329172Y-54849610D01*
X72329172Y-54849610D02*
X72376791Y-54944848D01*
X72376791Y-54944848D02*
X72376791Y-55087705D01*
X72376791Y-55087705D02*
X72329172Y-55182943D01*
X72329172Y-55182943D02*
X72281553Y-55230562D01*
X72281553Y-55230562D02*
X72186315Y-55278181D01*
X72186315Y-55278181D02*
X71900601Y-55278181D01*
X71900601Y-55278181D02*
X71805363Y-55230562D01*
X71805363Y-55230562D02*
X71757744Y-55182943D01*
X71757744Y-55182943D02*
X71710124Y-55087705D01*
X71710124Y-55087705D02*
X71710124Y-54944848D01*
X71710124Y-56135324D02*
X72710124Y-56135324D01*
X71757744Y-56135324D02*
X71710124Y-56040086D01*
X71710124Y-56040086D02*
X71710124Y-55849610D01*
X71710124Y-55849610D02*
X71757744Y-55754372D01*
X71757744Y-55754372D02*
X71805363Y-55706753D01*
X71805363Y-55706753D02*
X71900601Y-55659134D01*
X71900601Y-55659134D02*
X72186315Y-55659134D01*
X72186315Y-55659134D02*
X72281553Y-55706753D01*
X72281553Y-55706753D02*
X72329172Y-55754372D01*
X72329172Y-55754372D02*
X72376791Y-55849610D01*
X72376791Y-55849610D02*
X72376791Y-56040086D01*
X72376791Y-56040086D02*
X72329172Y-56135324D01*
X71757744Y-56992467D02*
X71710124Y-56897229D01*
X71710124Y-56897229D02*
X71710124Y-56706753D01*
X71710124Y-56706753D02*
X71757744Y-56611515D01*
X71757744Y-56611515D02*
X71852982Y-56563896D01*
X71852982Y-56563896D02*
X72233934Y-56563896D01*
X72233934Y-56563896D02*
X72329172Y-56611515D01*
X72329172Y-56611515D02*
X72376791Y-56706753D01*
X72376791Y-56706753D02*
X72376791Y-56897229D01*
X72376791Y-56897229D02*
X72329172Y-56992467D01*
X72329172Y-56992467D02*
X72233934Y-57040086D01*
X72233934Y-57040086D02*
X72138696Y-57040086D01*
X72138696Y-57040086D02*
X72043458Y-56563896D01*
X71710124Y-57468658D02*
X72376791Y-57468658D01*
X72281553Y-57468658D02*
X72329172Y-57516277D01*
X72329172Y-57516277D02*
X72376791Y-57611515D01*
X72376791Y-57611515D02*
X72376791Y-57754372D01*
X72376791Y-57754372D02*
X72329172Y-57849610D01*
X72329172Y-57849610D02*
X72233934Y-57897229D01*
X72233934Y-57897229D02*
X71710124Y-57897229D01*
X72233934Y-57897229D02*
X72329172Y-57944848D01*
X72329172Y-57944848D02*
X72376791Y-58040086D01*
X72376791Y-58040086D02*
X72376791Y-58182943D01*
X72376791Y-58182943D02*
X72329172Y-58278182D01*
X72329172Y-58278182D02*
X72233934Y-58325801D01*
X72233934Y-58325801D02*
X71710124Y-58325801D01*
X71805363Y-60135324D02*
X71757744Y-60087705D01*
X71757744Y-60087705D02*
X71710124Y-59944848D01*
X71710124Y-59944848D02*
X71710124Y-59849610D01*
X71710124Y-59849610D02*
X71757744Y-59706753D01*
X71757744Y-59706753D02*
X71852982Y-59611515D01*
X71852982Y-59611515D02*
X71948220Y-59563896D01*
X71948220Y-59563896D02*
X72138696Y-59516277D01*
X72138696Y-59516277D02*
X72281553Y-59516277D01*
X72281553Y-59516277D02*
X72472029Y-59563896D01*
X72472029Y-59563896D02*
X72567267Y-59611515D01*
X72567267Y-59611515D02*
X72662505Y-59706753D01*
X72662505Y-59706753D02*
X72710124Y-59849610D01*
X72710124Y-59849610D02*
X72710124Y-59944848D01*
X72710124Y-59944848D02*
X72662505Y-60087705D01*
X72662505Y-60087705D02*
X72614886Y-60135324D01*
X71710124Y-60992467D02*
X72233934Y-60992467D01*
X72233934Y-60992467D02*
X72329172Y-60944848D01*
X72329172Y-60944848D02*
X72376791Y-60849610D01*
X72376791Y-60849610D02*
X72376791Y-60659134D01*
X72376791Y-60659134D02*
X72329172Y-60563896D01*
X71757744Y-60992467D02*
X71710124Y-60897229D01*
X71710124Y-60897229D02*
X71710124Y-60659134D01*
X71710124Y-60659134D02*
X71757744Y-60563896D01*
X71757744Y-60563896D02*
X71852982Y-60516277D01*
X71852982Y-60516277D02*
X71948220Y-60516277D01*
X71948220Y-60516277D02*
X72043458Y-60563896D01*
X72043458Y-60563896D02*
X72091077Y-60659134D01*
X72091077Y-60659134D02*
X72091077Y-60897229D01*
X72091077Y-60897229D02*
X72138696Y-60992467D01*
X71710124Y-61468658D02*
X72376791Y-61468658D01*
X72186315Y-61468658D02*
X72281553Y-61516277D01*
X72281553Y-61516277D02*
X72329172Y-61563896D01*
X72329172Y-61563896D02*
X72376791Y-61659134D01*
X72376791Y-61659134D02*
X72376791Y-61754372D01*
X71710124Y-62087706D02*
X72376791Y-62087706D01*
X72186315Y-62087706D02*
X72281553Y-62135325D01*
X72281553Y-62135325D02*
X72329172Y-62182944D01*
X72329172Y-62182944D02*
X72376791Y-62278182D01*
X72376791Y-62278182D02*
X72376791Y-62373420D01*
X71710124Y-62706754D02*
X72376791Y-62706754D01*
X72710124Y-62706754D02*
X72662505Y-62659135D01*
X72662505Y-62659135D02*
X72614886Y-62706754D01*
X72614886Y-62706754D02*
X72662505Y-62754373D01*
X72662505Y-62754373D02*
X72710124Y-62706754D01*
X72710124Y-62706754D02*
X72614886Y-62706754D01*
X71757744Y-63563896D02*
X71710124Y-63468658D01*
X71710124Y-63468658D02*
X71710124Y-63278182D01*
X71710124Y-63278182D02*
X71757744Y-63182944D01*
X71757744Y-63182944D02*
X71852982Y-63135325D01*
X71852982Y-63135325D02*
X72233934Y-63135325D01*
X72233934Y-63135325D02*
X72329172Y-63182944D01*
X72329172Y-63182944D02*
X72376791Y-63278182D01*
X72376791Y-63278182D02*
X72376791Y-63468658D01*
X72376791Y-63468658D02*
X72329172Y-63563896D01*
X72329172Y-63563896D02*
X72233934Y-63611515D01*
X72233934Y-63611515D02*
X72138696Y-63611515D01*
X72138696Y-63611515D02*
X72043458Y-63135325D01*
X71710124Y-64040087D02*
X72376791Y-64040087D01*
X72186315Y-64040087D02*
X72281553Y-64087706D01*
X72281553Y-64087706D02*
X72329172Y-64135325D01*
X72329172Y-64135325D02*
X72376791Y-64230563D01*
X72376791Y-64230563D02*
X72376791Y-64325801D01*
X71710124Y-65421040D02*
X72710124Y-65421040D01*
X72710124Y-65421040D02*
X71995839Y-65754373D01*
X71995839Y-65754373D02*
X72710124Y-66087706D01*
X72710124Y-66087706D02*
X71710124Y-66087706D01*
X71710124Y-66706754D02*
X71757744Y-66611516D01*
X71757744Y-66611516D02*
X71805363Y-66563897D01*
X71805363Y-66563897D02*
X71900601Y-66516278D01*
X71900601Y-66516278D02*
X72186315Y-66516278D01*
X72186315Y-66516278D02*
X72281553Y-66563897D01*
X72281553Y-66563897D02*
X72329172Y-66611516D01*
X72329172Y-66611516D02*
X72376791Y-66706754D01*
X72376791Y-66706754D02*
X72376791Y-66849611D01*
X72376791Y-66849611D02*
X72329172Y-66944849D01*
X72329172Y-66944849D02*
X72281553Y-66992468D01*
X72281553Y-66992468D02*
X72186315Y-67040087D01*
X72186315Y-67040087D02*
X71900601Y-67040087D01*
X71900601Y-67040087D02*
X71805363Y-66992468D01*
X71805363Y-66992468D02*
X71757744Y-66944849D01*
X71757744Y-66944849D02*
X71710124Y-66849611D01*
X71710124Y-66849611D02*
X71710124Y-66706754D01*
X71710124Y-67897230D02*
X72710124Y-67897230D01*
X71757744Y-67897230D02*
X71710124Y-67801992D01*
X71710124Y-67801992D02*
X71710124Y-67611516D01*
X71710124Y-67611516D02*
X71757744Y-67516278D01*
X71757744Y-67516278D02*
X71805363Y-67468659D01*
X71805363Y-67468659D02*
X71900601Y-67421040D01*
X71900601Y-67421040D02*
X72186315Y-67421040D01*
X72186315Y-67421040D02*
X72281553Y-67468659D01*
X72281553Y-67468659D02*
X72329172Y-67516278D01*
X72329172Y-67516278D02*
X72376791Y-67611516D01*
X72376791Y-67611516D02*
X72376791Y-67801992D01*
X72376791Y-67801992D02*
X72329172Y-67897230D01*
X72376791Y-68801992D02*
X71710124Y-68801992D01*
X72376791Y-68373421D02*
X71852982Y-68373421D01*
X71852982Y-68373421D02*
X71757744Y-68421040D01*
X71757744Y-68421040D02*
X71710124Y-68516278D01*
X71710124Y-68516278D02*
X71710124Y-68659135D01*
X71710124Y-68659135D02*
X71757744Y-68754373D01*
X71757744Y-68754373D02*
X71805363Y-68801992D01*
X71710124Y-69421040D02*
X71757744Y-69325802D01*
X71757744Y-69325802D02*
X71852982Y-69278183D01*
X71852982Y-69278183D02*
X72710124Y-69278183D01*
X71757744Y-70182945D02*
X71710124Y-70087707D01*
X71710124Y-70087707D02*
X71710124Y-69897231D01*
X71710124Y-69897231D02*
X71757744Y-69801993D01*
X71757744Y-69801993D02*
X71852982Y-69754374D01*
X71852982Y-69754374D02*
X72233934Y-69754374D01*
X72233934Y-69754374D02*
X72329172Y-69801993D01*
X72329172Y-69801993D02*
X72376791Y-69897231D01*
X72376791Y-69897231D02*
X72376791Y-70087707D01*
X72376791Y-70087707D02*
X72329172Y-70182945D01*
X72329172Y-70182945D02*
X72233934Y-70230564D01*
X72233934Y-70230564D02*
X72138696Y-70230564D01*
X72138696Y-70230564D02*
X72043458Y-69754374D01*
X71710124Y-71992469D02*
X72186315Y-71659136D01*
X71710124Y-71421041D02*
X72710124Y-71421041D01*
X72710124Y-71421041D02*
X72710124Y-71801993D01*
X72710124Y-71801993D02*
X72662505Y-71897231D01*
X72662505Y-71897231D02*
X72614886Y-71944850D01*
X72614886Y-71944850D02*
X72519648Y-71992469D01*
X72519648Y-71992469D02*
X72376791Y-71992469D01*
X72376791Y-71992469D02*
X72281553Y-71944850D01*
X72281553Y-71944850D02*
X72233934Y-71897231D01*
X72233934Y-71897231D02*
X72186315Y-71801993D01*
X72186315Y-71801993D02*
X72186315Y-71421041D01*
X72614886Y-72373422D02*
X72662505Y-72421041D01*
X72662505Y-72421041D02*
X72710124Y-72516279D01*
X72710124Y-72516279D02*
X72710124Y-72754374D01*
X72710124Y-72754374D02*
X72662505Y-72849612D01*
X72662505Y-72849612D02*
X72614886Y-72897231D01*
X72614886Y-72897231D02*
X72519648Y-72944850D01*
X72519648Y-72944850D02*
X72424410Y-72944850D01*
X72424410Y-72944850D02*
X72281553Y-72897231D01*
X72281553Y-72897231D02*
X71710124Y-72325803D01*
X71710124Y-72325803D02*
X71710124Y-72944850D01*
X72710124Y-73563898D02*
X72710124Y-73659136D01*
X72710124Y-73659136D02*
X72662505Y-73754374D01*
X72662505Y-73754374D02*
X72614886Y-73801993D01*
X72614886Y-73801993D02*
X72519648Y-73849612D01*
X72519648Y-73849612D02*
X72329172Y-73897231D01*
X72329172Y-73897231D02*
X72091077Y-73897231D01*
X72091077Y-73897231D02*
X71900601Y-73849612D01*
X71900601Y-73849612D02*
X71805363Y-73801993D01*
X71805363Y-73801993D02*
X71757744Y-73754374D01*
X71757744Y-73754374D02*
X71710124Y-73659136D01*
X71710124Y-73659136D02*
X71710124Y-73563898D01*
X71710124Y-73563898D02*
X71757744Y-73468660D01*
X71757744Y-73468660D02*
X71805363Y-73421041D01*
X71805363Y-73421041D02*
X71900601Y-73373422D01*
X71900601Y-73373422D02*
X72091077Y-73325803D01*
X72091077Y-73325803D02*
X72329172Y-73325803D01*
X72329172Y-73325803D02*
X72519648Y-73373422D01*
X72519648Y-73373422D02*
X72614886Y-73421041D01*
X72614886Y-73421041D02*
X72662505Y-73468660D01*
X72662505Y-73468660D02*
X72710124Y-73563898D01*
X72614886Y-74278184D02*
X72662505Y-74325803D01*
X72662505Y-74325803D02*
X72710124Y-74421041D01*
X72710124Y-74421041D02*
X72710124Y-74659136D01*
X72710124Y-74659136D02*
X72662505Y-74754374D01*
X72662505Y-74754374D02*
X72614886Y-74801993D01*
X72614886Y-74801993D02*
X72519648Y-74849612D01*
X72519648Y-74849612D02*
X72424410Y-74849612D01*
X72424410Y-74849612D02*
X72281553Y-74801993D01*
X72281553Y-74801993D02*
X71710124Y-74230565D01*
X71710124Y-74230565D02*
X71710124Y-74849612D01*
X72710124Y-75754374D02*
X72710124Y-75278184D01*
X72710124Y-75278184D02*
X72233934Y-75230565D01*
X72233934Y-75230565D02*
X72281553Y-75278184D01*
X72281553Y-75278184D02*
X72329172Y-75373422D01*
X72329172Y-75373422D02*
X72329172Y-75611517D01*
X72329172Y-75611517D02*
X72281553Y-75706755D01*
X72281553Y-75706755D02*
X72233934Y-75754374D01*
X72233934Y-75754374D02*
X72138696Y-75801993D01*
X72138696Y-75801993D02*
X71900601Y-75801993D01*
X71900601Y-75801993D02*
X71805363Y-75754374D01*
X71805363Y-75754374D02*
X71757744Y-75706755D01*
X71757744Y-75706755D02*
X71710124Y-75611517D01*
X71710124Y-75611517D02*
X71710124Y-75373422D01*
X71710124Y-75373422D02*
X71757744Y-75278184D01*
X71757744Y-75278184D02*
X71805363Y-75230565D01*
X72710124Y-76421041D02*
X72710124Y-76516279D01*
X72710124Y-76516279D02*
X72662505Y-76611517D01*
X72662505Y-76611517D02*
X72614886Y-76659136D01*
X72614886Y-76659136D02*
X72519648Y-76706755D01*
X72519648Y-76706755D02*
X72329172Y-76754374D01*
X72329172Y-76754374D02*
X72091077Y-76754374D01*
X72091077Y-76754374D02*
X71900601Y-76706755D01*
X71900601Y-76706755D02*
X71805363Y-76659136D01*
X71805363Y-76659136D02*
X71757744Y-76611517D01*
X71757744Y-76611517D02*
X71710124Y-76516279D01*
X71710124Y-76516279D02*
X71710124Y-76421041D01*
X71710124Y-76421041D02*
X71757744Y-76325803D01*
X71757744Y-76325803D02*
X71805363Y-76278184D01*
X71805363Y-76278184D02*
X71900601Y-76230565D01*
X71900601Y-76230565D02*
X72091077Y-76182946D01*
X72091077Y-76182946D02*
X72329172Y-76182946D01*
X72329172Y-76182946D02*
X72519648Y-76230565D01*
X72519648Y-76230565D02*
X72614886Y-76278184D01*
X72614886Y-76278184D02*
X72662505Y-76325803D01*
X72662505Y-76325803D02*
X72710124Y-76421041D01*
X72614886Y-77135327D02*
X72662505Y-77182946D01*
X72662505Y-77182946D02*
X72710124Y-77278184D01*
X72710124Y-77278184D02*
X72710124Y-77516279D01*
X72710124Y-77516279D02*
X72662505Y-77611517D01*
X72662505Y-77611517D02*
X72614886Y-77659136D01*
X72614886Y-77659136D02*
X72519648Y-77706755D01*
X72519648Y-77706755D02*
X72424410Y-77706755D01*
X72424410Y-77706755D02*
X72281553Y-77659136D01*
X72281553Y-77659136D02*
X71710124Y-77087708D01*
X71710124Y-77087708D02*
X71710124Y-77706755D01*
X72614886Y-78087708D02*
X72662505Y-78135327D01*
X72662505Y-78135327D02*
X72710124Y-78230565D01*
X72710124Y-78230565D02*
X72710124Y-78468660D01*
X72710124Y-78468660D02*
X72662505Y-78563898D01*
X72662505Y-78563898D02*
X72614886Y-78611517D01*
X72614886Y-78611517D02*
X72519648Y-78659136D01*
X72519648Y-78659136D02*
X72424410Y-78659136D01*
X72424410Y-78659136D02*
X72281553Y-78611517D01*
X72281553Y-78611517D02*
X71710124Y-78040089D01*
X71710124Y-78040089D02*
X71710124Y-78659136D01*
X72710124Y-79563898D02*
X72710124Y-79087708D01*
X72710124Y-79087708D02*
X72233934Y-79040089D01*
X72233934Y-79040089D02*
X72281553Y-79087708D01*
X72281553Y-79087708D02*
X72329172Y-79182946D01*
X72329172Y-79182946D02*
X72329172Y-79421041D01*
X72329172Y-79421041D02*
X72281553Y-79516279D01*
X72281553Y-79516279D02*
X72233934Y-79563898D01*
X72233934Y-79563898D02*
X72138696Y-79611517D01*
X72138696Y-79611517D02*
X71900601Y-79611517D01*
X71900601Y-79611517D02*
X71805363Y-79563898D01*
X71805363Y-79563898D02*
X71757744Y-79516279D01*
X71757744Y-79516279D02*
X71710124Y-79421041D01*
X71710124Y-79421041D02*
X71710124Y-79182946D01*
X71710124Y-79182946D02*
X71757744Y-79087708D01*
X71757744Y-79087708D02*
X71805363Y-79040089D01*
X70100180Y-47040084D02*
X71100180Y-47040084D01*
X70100180Y-47468655D02*
X70623990Y-47468655D01*
X70623990Y-47468655D02*
X70719228Y-47421036D01*
X70719228Y-47421036D02*
X70766847Y-47325798D01*
X70766847Y-47325798D02*
X70766847Y-47182941D01*
X70766847Y-47182941D02*
X70719228Y-47087703D01*
X70719228Y-47087703D02*
X70671609Y-47040084D01*
X70766847Y-47801989D02*
X70766847Y-48182941D01*
X71100180Y-47944846D02*
X70243038Y-47944846D01*
X70243038Y-47944846D02*
X70147800Y-47992465D01*
X70147800Y-47992465D02*
X70100180Y-48087703D01*
X70100180Y-48087703D02*
X70100180Y-48182941D01*
X70766847Y-48373418D02*
X70766847Y-48754370D01*
X71100180Y-48516275D02*
X70243038Y-48516275D01*
X70243038Y-48516275D02*
X70147800Y-48563894D01*
X70147800Y-48563894D02*
X70100180Y-48659132D01*
X70100180Y-48659132D02*
X70100180Y-48754370D01*
X70766847Y-49087704D02*
X69766847Y-49087704D01*
X70719228Y-49087704D02*
X70766847Y-49182942D01*
X70766847Y-49182942D02*
X70766847Y-49373418D01*
X70766847Y-49373418D02*
X70719228Y-49468656D01*
X70719228Y-49468656D02*
X70671609Y-49516275D01*
X70671609Y-49516275D02*
X70576371Y-49563894D01*
X70576371Y-49563894D02*
X70290657Y-49563894D01*
X70290657Y-49563894D02*
X70195419Y-49516275D01*
X70195419Y-49516275D02*
X70147800Y-49468656D01*
X70147800Y-49468656D02*
X70100180Y-49373418D01*
X70100180Y-49373418D02*
X70100180Y-49182942D01*
X70100180Y-49182942D02*
X70147800Y-49087704D01*
X70147800Y-49944847D02*
X70100180Y-50040085D01*
X70100180Y-50040085D02*
X70100180Y-50230561D01*
X70100180Y-50230561D02*
X70147800Y-50325799D01*
X70147800Y-50325799D02*
X70243038Y-50373418D01*
X70243038Y-50373418D02*
X70290657Y-50373418D01*
X70290657Y-50373418D02*
X70385895Y-50325799D01*
X70385895Y-50325799D02*
X70433514Y-50230561D01*
X70433514Y-50230561D02*
X70433514Y-50087704D01*
X70433514Y-50087704D02*
X70481133Y-49992466D01*
X70481133Y-49992466D02*
X70576371Y-49944847D01*
X70576371Y-49944847D02*
X70623990Y-49944847D01*
X70623990Y-49944847D02*
X70719228Y-49992466D01*
X70719228Y-49992466D02*
X70766847Y-50087704D01*
X70766847Y-50087704D02*
X70766847Y-50230561D01*
X70766847Y-50230561D02*
X70719228Y-50325799D01*
X70195419Y-50801990D02*
X70147800Y-50849609D01*
X70147800Y-50849609D02*
X70100180Y-50801990D01*
X70100180Y-50801990D02*
X70147800Y-50754371D01*
X70147800Y-50754371D02*
X70195419Y-50801990D01*
X70195419Y-50801990D02*
X70100180Y-50801990D01*
X70719228Y-50801990D02*
X70671609Y-50849609D01*
X70671609Y-50849609D02*
X70623990Y-50801990D01*
X70623990Y-50801990D02*
X70671609Y-50754371D01*
X70671609Y-50754371D02*
X70719228Y-50801990D01*
X70719228Y-50801990D02*
X70623990Y-50801990D01*
X71147800Y-51992465D02*
X69862085Y-51135323D01*
X71147800Y-53040084D02*
X69862085Y-52182942D01*
X70766847Y-53801989D02*
X69957323Y-53801989D01*
X69957323Y-53801989D02*
X69862085Y-53754370D01*
X69862085Y-53754370D02*
X69814466Y-53706751D01*
X69814466Y-53706751D02*
X69766847Y-53611513D01*
X69766847Y-53611513D02*
X69766847Y-53468656D01*
X69766847Y-53468656D02*
X69814466Y-53373418D01*
X70147800Y-53801989D02*
X70100180Y-53706751D01*
X70100180Y-53706751D02*
X70100180Y-53516275D01*
X70100180Y-53516275D02*
X70147800Y-53421037D01*
X70147800Y-53421037D02*
X70195419Y-53373418D01*
X70195419Y-53373418D02*
X70290657Y-53325799D01*
X70290657Y-53325799D02*
X70576371Y-53325799D01*
X70576371Y-53325799D02*
X70671609Y-53373418D01*
X70671609Y-53373418D02*
X70719228Y-53421037D01*
X70719228Y-53421037D02*
X70766847Y-53516275D01*
X70766847Y-53516275D02*
X70766847Y-53706751D01*
X70766847Y-53706751D02*
X70719228Y-53801989D01*
X70100180Y-54278180D02*
X70766847Y-54278180D01*
X71100180Y-54278180D02*
X71052561Y-54230561D01*
X71052561Y-54230561D02*
X71004942Y-54278180D01*
X71004942Y-54278180D02*
X71052561Y-54325799D01*
X71052561Y-54325799D02*
X71100180Y-54278180D01*
X71100180Y-54278180D02*
X71004942Y-54278180D01*
X70766847Y-54611513D02*
X70766847Y-54992465D01*
X71100180Y-54754370D02*
X70243038Y-54754370D01*
X70243038Y-54754370D02*
X70147800Y-54801989D01*
X70147800Y-54801989D02*
X70100180Y-54897227D01*
X70100180Y-54897227D02*
X70100180Y-54992465D01*
X70100180Y-55325799D02*
X71100180Y-55325799D01*
X70100180Y-55754370D02*
X70623990Y-55754370D01*
X70623990Y-55754370D02*
X70719228Y-55706751D01*
X70719228Y-55706751D02*
X70766847Y-55611513D01*
X70766847Y-55611513D02*
X70766847Y-55468656D01*
X70766847Y-55468656D02*
X70719228Y-55373418D01*
X70719228Y-55373418D02*
X70671609Y-55325799D01*
X70766847Y-56659132D02*
X70100180Y-56659132D01*
X70766847Y-56230561D02*
X70243038Y-56230561D01*
X70243038Y-56230561D02*
X70147800Y-56278180D01*
X70147800Y-56278180D02*
X70100180Y-56373418D01*
X70100180Y-56373418D02*
X70100180Y-56516275D01*
X70100180Y-56516275D02*
X70147800Y-56611513D01*
X70147800Y-56611513D02*
X70195419Y-56659132D01*
X70100180Y-57135323D02*
X71100180Y-57135323D01*
X70719228Y-57135323D02*
X70766847Y-57230561D01*
X70766847Y-57230561D02*
X70766847Y-57421037D01*
X70766847Y-57421037D02*
X70719228Y-57516275D01*
X70719228Y-57516275D02*
X70671609Y-57563894D01*
X70671609Y-57563894D02*
X70576371Y-57611513D01*
X70576371Y-57611513D02*
X70290657Y-57611513D01*
X70290657Y-57611513D02*
X70195419Y-57563894D01*
X70195419Y-57563894D02*
X70147800Y-57516275D01*
X70147800Y-57516275D02*
X70100180Y-57421037D01*
X70100180Y-57421037D02*
X70100180Y-57230561D01*
X70100180Y-57230561D02*
X70147800Y-57135323D01*
X70195419Y-58040085D02*
X70147800Y-58087704D01*
X70147800Y-58087704D02*
X70100180Y-58040085D01*
X70100180Y-58040085D02*
X70147800Y-57992466D01*
X70147800Y-57992466D02*
X70195419Y-58040085D01*
X70195419Y-58040085D02*
X70100180Y-58040085D01*
X70147800Y-58944846D02*
X70100180Y-58849608D01*
X70100180Y-58849608D02*
X70100180Y-58659132D01*
X70100180Y-58659132D02*
X70147800Y-58563894D01*
X70147800Y-58563894D02*
X70195419Y-58516275D01*
X70195419Y-58516275D02*
X70290657Y-58468656D01*
X70290657Y-58468656D02*
X70576371Y-58468656D01*
X70576371Y-58468656D02*
X70671609Y-58516275D01*
X70671609Y-58516275D02*
X70719228Y-58563894D01*
X70719228Y-58563894D02*
X70766847Y-58659132D01*
X70766847Y-58659132D02*
X70766847Y-58849608D01*
X70766847Y-58849608D02*
X70719228Y-58944846D01*
X70100180Y-59516275D02*
X70147800Y-59421037D01*
X70147800Y-59421037D02*
X70195419Y-59373418D01*
X70195419Y-59373418D02*
X70290657Y-59325799D01*
X70290657Y-59325799D02*
X70576371Y-59325799D01*
X70576371Y-59325799D02*
X70671609Y-59373418D01*
X70671609Y-59373418D02*
X70719228Y-59421037D01*
X70719228Y-59421037D02*
X70766847Y-59516275D01*
X70766847Y-59516275D02*
X70766847Y-59659132D01*
X70766847Y-59659132D02*
X70719228Y-59754370D01*
X70719228Y-59754370D02*
X70671609Y-59801989D01*
X70671609Y-59801989D02*
X70576371Y-59849608D01*
X70576371Y-59849608D02*
X70290657Y-59849608D01*
X70290657Y-59849608D02*
X70195419Y-59801989D01*
X70195419Y-59801989D02*
X70147800Y-59754370D01*
X70147800Y-59754370D02*
X70100180Y-59659132D01*
X70100180Y-59659132D02*
X70100180Y-59516275D01*
X70100180Y-60278180D02*
X70766847Y-60278180D01*
X70671609Y-60278180D02*
X70719228Y-60325799D01*
X70719228Y-60325799D02*
X70766847Y-60421037D01*
X70766847Y-60421037D02*
X70766847Y-60563894D01*
X70766847Y-60563894D02*
X70719228Y-60659132D01*
X70719228Y-60659132D02*
X70623990Y-60706751D01*
X70623990Y-60706751D02*
X70100180Y-60706751D01*
X70623990Y-60706751D02*
X70719228Y-60754370D01*
X70719228Y-60754370D02*
X70766847Y-60849608D01*
X70766847Y-60849608D02*
X70766847Y-60992465D01*
X70766847Y-60992465D02*
X70719228Y-61087704D01*
X70719228Y-61087704D02*
X70623990Y-61135323D01*
X70623990Y-61135323D02*
X70100180Y-61135323D01*
X71147800Y-62325798D02*
X69862085Y-61468656D01*
X70766847Y-63087703D02*
X69957323Y-63087703D01*
X69957323Y-63087703D02*
X69862085Y-63040084D01*
X69862085Y-63040084D02*
X69814466Y-62992465D01*
X69814466Y-62992465D02*
X69766847Y-62897227D01*
X69766847Y-62897227D02*
X69766847Y-62754370D01*
X69766847Y-62754370D02*
X69814466Y-62659132D01*
X70147800Y-63087703D02*
X70100180Y-62992465D01*
X70100180Y-62992465D02*
X70100180Y-62801989D01*
X70100180Y-62801989D02*
X70147800Y-62706751D01*
X70147800Y-62706751D02*
X70195419Y-62659132D01*
X70195419Y-62659132D02*
X70290657Y-62611513D01*
X70290657Y-62611513D02*
X70576371Y-62611513D01*
X70576371Y-62611513D02*
X70671609Y-62659132D01*
X70671609Y-62659132D02*
X70719228Y-62706751D01*
X70719228Y-62706751D02*
X70766847Y-62801989D01*
X70766847Y-62801989D02*
X70766847Y-62992465D01*
X70766847Y-62992465D02*
X70719228Y-63087703D01*
X70100180Y-63992465D02*
X70623990Y-63992465D01*
X70623990Y-63992465D02*
X70719228Y-63944846D01*
X70719228Y-63944846D02*
X70766847Y-63849608D01*
X70766847Y-63849608D02*
X70766847Y-63659132D01*
X70766847Y-63659132D02*
X70719228Y-63563894D01*
X70147800Y-63992465D02*
X70100180Y-63897227D01*
X70100180Y-63897227D02*
X70100180Y-63659132D01*
X70100180Y-63659132D02*
X70147800Y-63563894D01*
X70147800Y-63563894D02*
X70243038Y-63516275D01*
X70243038Y-63516275D02*
X70338276Y-63516275D01*
X70338276Y-63516275D02*
X70433514Y-63563894D01*
X70433514Y-63563894D02*
X70481133Y-63659132D01*
X70481133Y-63659132D02*
X70481133Y-63897227D01*
X70481133Y-63897227D02*
X70528752Y-63992465D01*
X70100180Y-64468656D02*
X70766847Y-64468656D01*
X70576371Y-64468656D02*
X70671609Y-64516275D01*
X70671609Y-64516275D02*
X70719228Y-64563894D01*
X70719228Y-64563894D02*
X70766847Y-64659132D01*
X70766847Y-64659132D02*
X70766847Y-64754370D01*
X70100180Y-65516275D02*
X71100180Y-65516275D01*
X70147800Y-65516275D02*
X70100180Y-65421037D01*
X70100180Y-65421037D02*
X70100180Y-65230561D01*
X70100180Y-65230561D02*
X70147800Y-65135323D01*
X70147800Y-65135323D02*
X70195419Y-65087704D01*
X70195419Y-65087704D02*
X70290657Y-65040085D01*
X70290657Y-65040085D02*
X70576371Y-65040085D01*
X70576371Y-65040085D02*
X70671609Y-65087704D01*
X70671609Y-65087704D02*
X70719228Y-65135323D01*
X70719228Y-65135323D02*
X70766847Y-65230561D01*
X70766847Y-65230561D02*
X70766847Y-65421037D01*
X70766847Y-65421037D02*
X70719228Y-65516275D01*
X70766847Y-65992466D02*
X70100180Y-65992466D01*
X70671609Y-65992466D02*
X70719228Y-66040085D01*
X70719228Y-66040085D02*
X70766847Y-66135323D01*
X70766847Y-66135323D02*
X70766847Y-66278180D01*
X70766847Y-66278180D02*
X70719228Y-66373418D01*
X70719228Y-66373418D02*
X70623990Y-66421037D01*
X70623990Y-66421037D02*
X70100180Y-66421037D01*
X70147800Y-67278180D02*
X70100180Y-67182942D01*
X70100180Y-67182942D02*
X70100180Y-66992466D01*
X70100180Y-66992466D02*
X70147800Y-66897228D01*
X70147800Y-66897228D02*
X70243038Y-66849609D01*
X70243038Y-66849609D02*
X70623990Y-66849609D01*
X70623990Y-66849609D02*
X70719228Y-66897228D01*
X70719228Y-66897228D02*
X70766847Y-66992466D01*
X70766847Y-66992466D02*
X70766847Y-67182942D01*
X70766847Y-67182942D02*
X70719228Y-67278180D01*
X70719228Y-67278180D02*
X70623990Y-67325799D01*
X70623990Y-67325799D02*
X70528752Y-67325799D01*
X70528752Y-67325799D02*
X70433514Y-66849609D01*
X70100180Y-67754371D02*
X70766847Y-67754371D01*
X70576371Y-67754371D02*
X70671609Y-67801990D01*
X70671609Y-67801990D02*
X70719228Y-67849609D01*
X70719228Y-67849609D02*
X70766847Y-67944847D01*
X70766847Y-67944847D02*
X70766847Y-68040085D01*
X70147800Y-68325800D02*
X70100180Y-68421038D01*
X70100180Y-68421038D02*
X70100180Y-68611514D01*
X70100180Y-68611514D02*
X70147800Y-68706752D01*
X70147800Y-68706752D02*
X70243038Y-68754371D01*
X70243038Y-68754371D02*
X70290657Y-68754371D01*
X70290657Y-68754371D02*
X70385895Y-68706752D01*
X70385895Y-68706752D02*
X70433514Y-68611514D01*
X70433514Y-68611514D02*
X70433514Y-68468657D01*
X70433514Y-68468657D02*
X70481133Y-68373419D01*
X70481133Y-68373419D02*
X70576371Y-68325800D01*
X70576371Y-68325800D02*
X70623990Y-68325800D01*
X70623990Y-68325800D02*
X70719228Y-68373419D01*
X70719228Y-68373419D02*
X70766847Y-68468657D01*
X70766847Y-68468657D02*
X70766847Y-68611514D01*
X70766847Y-68611514D02*
X70719228Y-68706752D01*
X71147800Y-69897228D02*
X69862085Y-69040086D01*
X70100180Y-70230562D02*
X70766847Y-70230562D01*
X70671609Y-70230562D02*
X70719228Y-70278181D01*
X70719228Y-70278181D02*
X70766847Y-70373419D01*
X70766847Y-70373419D02*
X70766847Y-70516276D01*
X70766847Y-70516276D02*
X70719228Y-70611514D01*
X70719228Y-70611514D02*
X70623990Y-70659133D01*
X70623990Y-70659133D02*
X70100180Y-70659133D01*
X70623990Y-70659133D02*
X70719228Y-70706752D01*
X70719228Y-70706752D02*
X70766847Y-70801990D01*
X70766847Y-70801990D02*
X70766847Y-70944847D01*
X70766847Y-70944847D02*
X70719228Y-71040086D01*
X70719228Y-71040086D02*
X70623990Y-71087705D01*
X70623990Y-71087705D02*
X70100180Y-71087705D01*
X70147800Y-71944847D02*
X70100180Y-71849609D01*
X70100180Y-71849609D02*
X70100180Y-71659133D01*
X70100180Y-71659133D02*
X70147800Y-71563895D01*
X70147800Y-71563895D02*
X70243038Y-71516276D01*
X70243038Y-71516276D02*
X70623990Y-71516276D01*
X70623990Y-71516276D02*
X70719228Y-71563895D01*
X70719228Y-71563895D02*
X70766847Y-71659133D01*
X70766847Y-71659133D02*
X70766847Y-71849609D01*
X70766847Y-71849609D02*
X70719228Y-71944847D01*
X70719228Y-71944847D02*
X70623990Y-71992466D01*
X70623990Y-71992466D02*
X70528752Y-71992466D01*
X70528752Y-71992466D02*
X70433514Y-71516276D01*
X70766847Y-72849609D02*
X69957323Y-72849609D01*
X69957323Y-72849609D02*
X69862085Y-72801990D01*
X69862085Y-72801990D02*
X69814466Y-72754371D01*
X69814466Y-72754371D02*
X69766847Y-72659133D01*
X69766847Y-72659133D02*
X69766847Y-72516276D01*
X69766847Y-72516276D02*
X69814466Y-72421038D01*
X70147800Y-72849609D02*
X70100180Y-72754371D01*
X70100180Y-72754371D02*
X70100180Y-72563895D01*
X70100180Y-72563895D02*
X70147800Y-72468657D01*
X70147800Y-72468657D02*
X70195419Y-72421038D01*
X70195419Y-72421038D02*
X70290657Y-72373419D01*
X70290657Y-72373419D02*
X70576371Y-72373419D01*
X70576371Y-72373419D02*
X70671609Y-72421038D01*
X70671609Y-72421038D02*
X70719228Y-72468657D01*
X70719228Y-72468657D02*
X70766847Y-72563895D01*
X70766847Y-72563895D02*
X70766847Y-72754371D01*
X70766847Y-72754371D02*
X70719228Y-72849609D01*
X70100180Y-73754371D02*
X70623990Y-73754371D01*
X70623990Y-73754371D02*
X70719228Y-73706752D01*
X70719228Y-73706752D02*
X70766847Y-73611514D01*
X70766847Y-73611514D02*
X70766847Y-73421038D01*
X70766847Y-73421038D02*
X70719228Y-73325800D01*
X70147800Y-73754371D02*
X70100180Y-73659133D01*
X70100180Y-73659133D02*
X70100180Y-73421038D01*
X70100180Y-73421038D02*
X70147800Y-73325800D01*
X70147800Y-73325800D02*
X70243038Y-73278181D01*
X70243038Y-73278181D02*
X70338276Y-73278181D01*
X70338276Y-73278181D02*
X70433514Y-73325800D01*
X70433514Y-73325800D02*
X70481133Y-73421038D01*
X70481133Y-73421038D02*
X70481133Y-73659133D01*
X70481133Y-73659133D02*
X70528752Y-73754371D01*
X70766847Y-74230562D02*
X69766847Y-74230562D01*
X70719228Y-74230562D02*
X70766847Y-74325800D01*
X70766847Y-74325800D02*
X70766847Y-74516276D01*
X70766847Y-74516276D02*
X70719228Y-74611514D01*
X70719228Y-74611514D02*
X70671609Y-74659133D01*
X70671609Y-74659133D02*
X70576371Y-74706752D01*
X70576371Y-74706752D02*
X70290657Y-74706752D01*
X70290657Y-74706752D02*
X70195419Y-74659133D01*
X70195419Y-74659133D02*
X70147800Y-74611514D01*
X70147800Y-74611514D02*
X70100180Y-74516276D01*
X70100180Y-74516276D02*
X70100180Y-74325800D01*
X70100180Y-74325800D02*
X70147800Y-74230562D01*
X70100180Y-75135324D02*
X71100180Y-75135324D01*
X70100180Y-75563895D02*
X70623990Y-75563895D01*
X70623990Y-75563895D02*
X70719228Y-75516276D01*
X70719228Y-75516276D02*
X70766847Y-75421038D01*
X70766847Y-75421038D02*
X70766847Y-75278181D01*
X70766847Y-75278181D02*
X70719228Y-75182943D01*
X70719228Y-75182943D02*
X70671609Y-75135324D01*
X70100180Y-76182943D02*
X70147800Y-76087705D01*
X70147800Y-76087705D02*
X70195419Y-76040086D01*
X70195419Y-76040086D02*
X70290657Y-75992467D01*
X70290657Y-75992467D02*
X70576371Y-75992467D01*
X70576371Y-75992467D02*
X70671609Y-76040086D01*
X70671609Y-76040086D02*
X70719228Y-76087705D01*
X70719228Y-76087705D02*
X70766847Y-76182943D01*
X70766847Y-76182943D02*
X70766847Y-76325800D01*
X70766847Y-76325800D02*
X70719228Y-76421038D01*
X70719228Y-76421038D02*
X70671609Y-76468657D01*
X70671609Y-76468657D02*
X70576371Y-76516276D01*
X70576371Y-76516276D02*
X70290657Y-76516276D01*
X70290657Y-76516276D02*
X70195419Y-76468657D01*
X70195419Y-76468657D02*
X70147800Y-76421038D01*
X70147800Y-76421038D02*
X70100180Y-76325800D01*
X70100180Y-76325800D02*
X70100180Y-76182943D01*
X70766847Y-76944848D02*
X70100180Y-76944848D01*
X70671609Y-76944848D02*
X70719228Y-76992467D01*
X70719228Y-76992467D02*
X70766847Y-77087705D01*
X70766847Y-77087705D02*
X70766847Y-77230562D01*
X70766847Y-77230562D02*
X70719228Y-77325800D01*
X70719228Y-77325800D02*
X70623990Y-77373419D01*
X70623990Y-77373419D02*
X70100180Y-77373419D01*
X70147800Y-78230562D02*
X70100180Y-78135324D01*
X70100180Y-78135324D02*
X70100180Y-77944848D01*
X70100180Y-77944848D02*
X70147800Y-77849610D01*
X70147800Y-77849610D02*
X70243038Y-77801991D01*
X70243038Y-77801991D02*
X70623990Y-77801991D01*
X70623990Y-77801991D02*
X70719228Y-77849610D01*
X70719228Y-77849610D02*
X70766847Y-77944848D01*
X70766847Y-77944848D02*
X70766847Y-78135324D01*
X70766847Y-78135324D02*
X70719228Y-78230562D01*
X70719228Y-78230562D02*
X70623990Y-78278181D01*
X70623990Y-78278181D02*
X70528752Y-78278181D01*
X70528752Y-78278181D02*
X70433514Y-77801991D01*
X70481133Y-78706753D02*
X70481133Y-79468658D01*
X70100180Y-79944848D02*
X70766847Y-79944848D01*
X70576371Y-79944848D02*
X70671609Y-79992467D01*
X70671609Y-79992467D02*
X70719228Y-80040086D01*
X70719228Y-80040086D02*
X70766847Y-80135324D01*
X70766847Y-80135324D02*
X70766847Y-80230562D01*
X71100180Y-81040086D02*
X71100180Y-80563896D01*
X71100180Y-80563896D02*
X70623990Y-80516277D01*
X70623990Y-80516277D02*
X70671609Y-80563896D01*
X70671609Y-80563896D02*
X70719228Y-80659134D01*
X70719228Y-80659134D02*
X70719228Y-80897229D01*
X70719228Y-80897229D02*
X70671609Y-80992467D01*
X70671609Y-80992467D02*
X70623990Y-81040086D01*
X70623990Y-81040086D02*
X70528752Y-81087705D01*
X70528752Y-81087705D02*
X70290657Y-81087705D01*
X70290657Y-81087705D02*
X70195419Y-81040086D01*
X70195419Y-81040086D02*
X70147800Y-80992467D01*
X70147800Y-80992467D02*
X70100180Y-80897229D01*
X70100180Y-80897229D02*
X70100180Y-80659134D01*
X70100180Y-80659134D02*
X70147800Y-80563896D01*
X70147800Y-80563896D02*
X70195419Y-80516277D01*
X70481133Y-81516277D02*
X70481133Y-82278182D01*
X70100180Y-82754372D02*
X70766847Y-82754372D01*
X70671609Y-82754372D02*
X70719228Y-82801991D01*
X70719228Y-82801991D02*
X70766847Y-82897229D01*
X70766847Y-82897229D02*
X70766847Y-83040086D01*
X70766847Y-83040086D02*
X70719228Y-83135324D01*
X70719228Y-83135324D02*
X70623990Y-83182943D01*
X70623990Y-83182943D02*
X70100180Y-83182943D01*
X70623990Y-83182943D02*
X70719228Y-83230562D01*
X70719228Y-83230562D02*
X70766847Y-83325800D01*
X70766847Y-83325800D02*
X70766847Y-83468657D01*
X70766847Y-83468657D02*
X70719228Y-83563896D01*
X70719228Y-83563896D02*
X70623990Y-83611515D01*
X70623990Y-83611515D02*
X70100180Y-83611515D01*
X70100180Y-84230562D02*
X70147800Y-84135324D01*
X70147800Y-84135324D02*
X70195419Y-84087705D01*
X70195419Y-84087705D02*
X70290657Y-84040086D01*
X70290657Y-84040086D02*
X70576371Y-84040086D01*
X70576371Y-84040086D02*
X70671609Y-84087705D01*
X70671609Y-84087705D02*
X70719228Y-84135324D01*
X70719228Y-84135324D02*
X70766847Y-84230562D01*
X70766847Y-84230562D02*
X70766847Y-84373419D01*
X70766847Y-84373419D02*
X70719228Y-84468657D01*
X70719228Y-84468657D02*
X70671609Y-84516276D01*
X70671609Y-84516276D02*
X70576371Y-84563895D01*
X70576371Y-84563895D02*
X70290657Y-84563895D01*
X70290657Y-84563895D02*
X70195419Y-84516276D01*
X70195419Y-84516276D02*
X70147800Y-84468657D01*
X70147800Y-84468657D02*
X70100180Y-84373419D01*
X70100180Y-84373419D02*
X70100180Y-84230562D01*
X70100180Y-85421038D02*
X71100180Y-85421038D01*
X70147800Y-85421038D02*
X70100180Y-85325800D01*
X70100180Y-85325800D02*
X70100180Y-85135324D01*
X70100180Y-85135324D02*
X70147800Y-85040086D01*
X70147800Y-85040086D02*
X70195419Y-84992467D01*
X70195419Y-84992467D02*
X70290657Y-84944848D01*
X70290657Y-84944848D02*
X70576371Y-84944848D01*
X70576371Y-84944848D02*
X70671609Y-84992467D01*
X70671609Y-84992467D02*
X70719228Y-85040086D01*
X70719228Y-85040086D02*
X70766847Y-85135324D01*
X70766847Y-85135324D02*
X70766847Y-85325800D01*
X70766847Y-85325800D02*
X70719228Y-85421038D01*
X70766847Y-86325800D02*
X70100180Y-86325800D01*
X70766847Y-85897229D02*
X70243038Y-85897229D01*
X70243038Y-85897229D02*
X70147800Y-85944848D01*
X70147800Y-85944848D02*
X70100180Y-86040086D01*
X70100180Y-86040086D02*
X70100180Y-86182943D01*
X70100180Y-86182943D02*
X70147800Y-86278181D01*
X70147800Y-86278181D02*
X70195419Y-86325800D01*
X70100180Y-86944848D02*
X70147800Y-86849610D01*
X70147800Y-86849610D02*
X70243038Y-86801991D01*
X70243038Y-86801991D02*
X71100180Y-86801991D01*
X70100180Y-87754372D02*
X70623990Y-87754372D01*
X70623990Y-87754372D02*
X70719228Y-87706753D01*
X70719228Y-87706753D02*
X70766847Y-87611515D01*
X70766847Y-87611515D02*
X70766847Y-87421039D01*
X70766847Y-87421039D02*
X70719228Y-87325801D01*
X70147800Y-87754372D02*
X70100180Y-87659134D01*
X70100180Y-87659134D02*
X70100180Y-87421039D01*
X70100180Y-87421039D02*
X70147800Y-87325801D01*
X70147800Y-87325801D02*
X70243038Y-87278182D01*
X70243038Y-87278182D02*
X70338276Y-87278182D01*
X70338276Y-87278182D02*
X70433514Y-87325801D01*
X70433514Y-87325801D02*
X70481133Y-87421039D01*
X70481133Y-87421039D02*
X70481133Y-87659134D01*
X70481133Y-87659134D02*
X70528752Y-87754372D01*
X70100180Y-88230563D02*
X70766847Y-88230563D01*
X70576371Y-88230563D02*
X70671609Y-88278182D01*
X70671609Y-88278182D02*
X70719228Y-88325801D01*
X70719228Y-88325801D02*
X70766847Y-88421039D01*
X70766847Y-88421039D02*
X70766847Y-88516277D01*
X105077665Y-94951340D02*
X105077665Y-94151340D01*
X105420521Y-94227530D02*
X105458617Y-94189435D01*
X105458617Y-94189435D02*
X105534807Y-94151340D01*
X105534807Y-94151340D02*
X105725283Y-94151340D01*
X105725283Y-94151340D02*
X105801474Y-94189435D01*
X105801474Y-94189435D02*
X105839569Y-94227530D01*
X105839569Y-94227530D02*
X105877664Y-94303721D01*
X105877664Y-94303721D02*
X105877664Y-94379911D01*
X105877664Y-94379911D02*
X105839569Y-94494197D01*
X105839569Y-94494197D02*
X105382426Y-94951340D01*
X105382426Y-94951340D02*
X105877664Y-94951340D01*
X106677665Y-94875149D02*
X106639569Y-94913245D01*
X106639569Y-94913245D02*
X106525284Y-94951340D01*
X106525284Y-94951340D02*
X106449093Y-94951340D01*
X106449093Y-94951340D02*
X106334807Y-94913245D01*
X106334807Y-94913245D02*
X106258617Y-94837054D01*
X106258617Y-94837054D02*
X106220522Y-94760864D01*
X106220522Y-94760864D02*
X106182426Y-94608483D01*
X106182426Y-94608483D02*
X106182426Y-94494197D01*
X106182426Y-94494197D02*
X106220522Y-94341816D01*
X106220522Y-94341816D02*
X106258617Y-94265625D01*
X106258617Y-94265625D02*
X106334807Y-94189435D01*
X106334807Y-94189435D02*
X106449093Y-94151340D01*
X106449093Y-94151340D02*
X106525284Y-94151340D01*
X106525284Y-94151340D02*
X106639569Y-94189435D01*
X106639569Y-94189435D02*
X106677665Y-94227530D01*
X105077665Y-96239295D02*
X105077665Y-95439295D01*
X105077665Y-95439295D02*
X105268141Y-95439295D01*
X105268141Y-95439295D02*
X105382427Y-95477390D01*
X105382427Y-95477390D02*
X105458617Y-95553580D01*
X105458617Y-95553580D02*
X105496712Y-95629771D01*
X105496712Y-95629771D02*
X105534808Y-95782152D01*
X105534808Y-95782152D02*
X105534808Y-95896438D01*
X105534808Y-95896438D02*
X105496712Y-96048819D01*
X105496712Y-96048819D02*
X105458617Y-96125009D01*
X105458617Y-96125009D02*
X105382427Y-96201200D01*
X105382427Y-96201200D02*
X105268141Y-96239295D01*
X105268141Y-96239295D02*
X105077665Y-96239295D01*
X105839569Y-96010723D02*
X106220522Y-96010723D01*
X105763379Y-96239295D02*
X106030046Y-95439295D01*
X106030046Y-95439295D02*
X106296712Y-96239295D01*
X106449093Y-95439295D02*
X106906236Y-95439295D01*
X106677664Y-96239295D02*
X106677664Y-95439295D01*
X104391808Y-39648104D02*
X104353712Y-39686200D01*
X104353712Y-39686200D02*
X104239427Y-39724295D01*
X104239427Y-39724295D02*
X104163236Y-39724295D01*
X104163236Y-39724295D02*
X104048950Y-39686200D01*
X104048950Y-39686200D02*
X103972760Y-39610009D01*
X103972760Y-39610009D02*
X103934665Y-39533819D01*
X103934665Y-39533819D02*
X103896569Y-39381438D01*
X103896569Y-39381438D02*
X103896569Y-39267152D01*
X103896569Y-39267152D02*
X103934665Y-39114771D01*
X103934665Y-39114771D02*
X103972760Y-39038580D01*
X103972760Y-39038580D02*
X104048950Y-38962390D01*
X104048950Y-38962390D02*
X104163236Y-38924295D01*
X104163236Y-38924295D02*
X104239427Y-38924295D01*
X104239427Y-38924295D02*
X104353712Y-38962390D01*
X104353712Y-38962390D02*
X104391808Y-39000485D01*
X104734665Y-38924295D02*
X104734665Y-39571914D01*
X104734665Y-39571914D02*
X104772760Y-39648104D01*
X104772760Y-39648104D02*
X104810855Y-39686200D01*
X104810855Y-39686200D02*
X104887046Y-39724295D01*
X104887046Y-39724295D02*
X105039427Y-39724295D01*
X105039427Y-39724295D02*
X105115617Y-39686200D01*
X105115617Y-39686200D02*
X105153712Y-39648104D01*
X105153712Y-39648104D02*
X105191808Y-39571914D01*
X105191808Y-39571914D02*
X105191808Y-38924295D01*
X106029903Y-39724295D02*
X105763236Y-39343342D01*
X105572760Y-39724295D02*
X105572760Y-38924295D01*
X105572760Y-38924295D02*
X105877522Y-38924295D01*
X105877522Y-38924295D02*
X105953712Y-38962390D01*
X105953712Y-38962390D02*
X105991807Y-39000485D01*
X105991807Y-39000485D02*
X106029903Y-39076676D01*
X106029903Y-39076676D02*
X106029903Y-39190961D01*
X106029903Y-39190961D02*
X105991807Y-39267152D01*
X105991807Y-39267152D02*
X105953712Y-39305247D01*
X105953712Y-39305247D02*
X105877522Y-39343342D01*
X105877522Y-39343342D02*
X105572760Y-39343342D01*
X106296569Y-38924295D02*
X106829903Y-39724295D01*
X106829903Y-38924295D02*
X106296569Y-39724295D01*
X105306265Y-80313495D02*
X105306265Y-79513495D01*
X105306265Y-79513495D02*
X105763408Y-80313495D01*
X105763408Y-80313495D02*
X105763408Y-79513495D01*
X106601503Y-80237304D02*
X106563407Y-80275400D01*
X106563407Y-80275400D02*
X106449122Y-80313495D01*
X106449122Y-80313495D02*
X106372931Y-80313495D01*
X106372931Y-80313495D02*
X106258645Y-80275400D01*
X106258645Y-80275400D02*
X106182455Y-80199209D01*
X106182455Y-80199209D02*
X106144360Y-80123019D01*
X106144360Y-80123019D02*
X106106264Y-79970638D01*
X106106264Y-79970638D02*
X106106264Y-79856352D01*
X106106264Y-79856352D02*
X106144360Y-79703971D01*
X106144360Y-79703971D02*
X106182455Y-79627780D01*
X106182455Y-79627780D02*
X106258645Y-79551590D01*
X106258645Y-79551590D02*
X106372931Y-79513495D01*
X106372931Y-79513495D02*
X106449122Y-79513495D01*
X106449122Y-79513495D02*
X106563407Y-79551590D01*
X106563407Y-79551590D02*
X106601503Y-79589685D01*
X105458608Y-44728104D02*
X105420512Y-44766200D01*
X105420512Y-44766200D02*
X105306227Y-44804295D01*
X105306227Y-44804295D02*
X105230036Y-44804295D01*
X105230036Y-44804295D02*
X105115750Y-44766200D01*
X105115750Y-44766200D02*
X105039560Y-44690009D01*
X105039560Y-44690009D02*
X105001465Y-44613819D01*
X105001465Y-44613819D02*
X104963369Y-44461438D01*
X104963369Y-44461438D02*
X104963369Y-44347152D01*
X104963369Y-44347152D02*
X105001465Y-44194771D01*
X105001465Y-44194771D02*
X105039560Y-44118580D01*
X105039560Y-44118580D02*
X105115750Y-44042390D01*
X105115750Y-44042390D02*
X105230036Y-44004295D01*
X105230036Y-44004295D02*
X105306227Y-44004295D01*
X105306227Y-44004295D02*
X105420512Y-44042390D01*
X105420512Y-44042390D02*
X105458608Y-44080485D01*
X105687179Y-44004295D02*
X106144322Y-44004295D01*
X105915750Y-44804295D02*
X105915750Y-44004295D01*
X106372893Y-44766200D02*
X106487179Y-44804295D01*
X106487179Y-44804295D02*
X106677655Y-44804295D01*
X106677655Y-44804295D02*
X106753846Y-44766200D01*
X106753846Y-44766200D02*
X106791941Y-44728104D01*
X106791941Y-44728104D02*
X106830036Y-44651914D01*
X106830036Y-44651914D02*
X106830036Y-44575723D01*
X106830036Y-44575723D02*
X106791941Y-44499533D01*
X106791941Y-44499533D02*
X106753846Y-44461438D01*
X106753846Y-44461438D02*
X106677655Y-44423342D01*
X106677655Y-44423342D02*
X106525274Y-44385247D01*
X106525274Y-44385247D02*
X106449084Y-44347152D01*
X106449084Y-44347152D02*
X106410989Y-44309057D01*
X106410989Y-44309057D02*
X106372893Y-44232866D01*
X106372893Y-44232866D02*
X106372893Y-44156676D01*
X106372893Y-44156676D02*
X106410989Y-44080485D01*
X106410989Y-44080485D02*
X106449084Y-44042390D01*
X106449084Y-44042390D02*
X106525274Y-44004295D01*
X106525274Y-44004295D02*
X106715751Y-44004295D01*
X106715751Y-44004295D02*
X106830036Y-44042390D01*
X72095693Y-102157600D02*
X71409979Y-103186171D01*
X72819503Y-102919504D02*
X72781407Y-102957600D01*
X72781407Y-102957600D02*
X72667122Y-102995695D01*
X72667122Y-102995695D02*
X72590931Y-102995695D01*
X72590931Y-102995695D02*
X72476645Y-102957600D01*
X72476645Y-102957600D02*
X72400455Y-102881409D01*
X72400455Y-102881409D02*
X72362360Y-102805219D01*
X72362360Y-102805219D02*
X72324264Y-102652838D01*
X72324264Y-102652838D02*
X72324264Y-102538552D01*
X72324264Y-102538552D02*
X72362360Y-102386171D01*
X72362360Y-102386171D02*
X72400455Y-102309980D01*
X72400455Y-102309980D02*
X72476645Y-102233790D01*
X72476645Y-102233790D02*
X72590931Y-102195695D01*
X72590931Y-102195695D02*
X72667122Y-102195695D01*
X72667122Y-102195695D02*
X72781407Y-102233790D01*
X72781407Y-102233790D02*
X72819503Y-102271885D01*
X73543312Y-102995695D02*
X73162360Y-102995695D01*
X73162360Y-102995695D02*
X73162360Y-102195695D01*
X73809979Y-102995695D02*
X73809979Y-102195695D01*
X74267122Y-102995695D02*
X73924264Y-102538552D01*
X74267122Y-102195695D02*
X73809979Y-102652838D01*
X75067122Y-102995695D02*
X74800455Y-102614742D01*
X74609979Y-102995695D02*
X74609979Y-102195695D01*
X74609979Y-102195695D02*
X74914741Y-102195695D01*
X74914741Y-102195695D02*
X74990931Y-102233790D01*
X74990931Y-102233790D02*
X75029026Y-102271885D01*
X75029026Y-102271885D02*
X75067122Y-102348076D01*
X75067122Y-102348076D02*
X75067122Y-102462361D01*
X75067122Y-102462361D02*
X75029026Y-102538552D01*
X75029026Y-102538552D02*
X74990931Y-102576647D01*
X74990931Y-102576647D02*
X74914741Y-102614742D01*
X74914741Y-102614742D02*
X74609979Y-102614742D01*
X75409979Y-102576647D02*
X75676645Y-102576647D01*
X75790931Y-102995695D02*
X75409979Y-102995695D01*
X75409979Y-102995695D02*
X75409979Y-102195695D01*
X75409979Y-102195695D02*
X75790931Y-102195695D01*
X76667122Y-103071885D02*
X76590932Y-103033790D01*
X76590932Y-103033790D02*
X76514741Y-102957600D01*
X76514741Y-102957600D02*
X76400455Y-102843314D01*
X76400455Y-102843314D02*
X76324265Y-102805219D01*
X76324265Y-102805219D02*
X76248074Y-102805219D01*
X76286170Y-102995695D02*
X76209979Y-102957600D01*
X76209979Y-102957600D02*
X76133789Y-102881409D01*
X76133789Y-102881409D02*
X76095693Y-102729028D01*
X76095693Y-102729028D02*
X76095693Y-102462361D01*
X76095693Y-102462361D02*
X76133789Y-102309980D01*
X76133789Y-102309980D02*
X76209979Y-102233790D01*
X76209979Y-102233790D02*
X76286170Y-102195695D01*
X76286170Y-102195695D02*
X76438551Y-102195695D01*
X76438551Y-102195695D02*
X76514741Y-102233790D01*
X76514741Y-102233790D02*
X76590932Y-102309980D01*
X76590932Y-102309980D02*
X76629027Y-102462361D01*
X76629027Y-102462361D02*
X76629027Y-102729028D01*
X76629027Y-102729028D02*
X76590932Y-102881409D01*
X76590932Y-102881409D02*
X76514741Y-102957600D01*
X76514741Y-102957600D02*
X76438551Y-102995695D01*
X76438551Y-102995695D02*
X76286170Y-102995695D01*
X102258265Y-82028095D02*
X102258265Y-82675714D01*
X102258265Y-82675714D02*
X102296360Y-82751904D01*
X102296360Y-82751904D02*
X102334455Y-82790000D01*
X102334455Y-82790000D02*
X102410646Y-82828095D01*
X102410646Y-82828095D02*
X102563027Y-82828095D01*
X102563027Y-82828095D02*
X102639217Y-82790000D01*
X102639217Y-82790000D02*
X102677312Y-82751904D01*
X102677312Y-82751904D02*
X102715408Y-82675714D01*
X102715408Y-82675714D02*
X102715408Y-82028095D01*
X103058264Y-82790000D02*
X103172550Y-82828095D01*
X103172550Y-82828095D02*
X103363026Y-82828095D01*
X103363026Y-82828095D02*
X103439217Y-82790000D01*
X103439217Y-82790000D02*
X103477312Y-82751904D01*
X103477312Y-82751904D02*
X103515407Y-82675714D01*
X103515407Y-82675714D02*
X103515407Y-82599523D01*
X103515407Y-82599523D02*
X103477312Y-82523333D01*
X103477312Y-82523333D02*
X103439217Y-82485238D01*
X103439217Y-82485238D02*
X103363026Y-82447142D01*
X103363026Y-82447142D02*
X103210645Y-82409047D01*
X103210645Y-82409047D02*
X103134455Y-82370952D01*
X103134455Y-82370952D02*
X103096360Y-82332857D01*
X103096360Y-82332857D02*
X103058264Y-82256666D01*
X103058264Y-82256666D02*
X103058264Y-82180476D01*
X103058264Y-82180476D02*
X103096360Y-82104285D01*
X103096360Y-82104285D02*
X103134455Y-82066190D01*
X103134455Y-82066190D02*
X103210645Y-82028095D01*
X103210645Y-82028095D02*
X103401122Y-82028095D01*
X103401122Y-82028095D02*
X103515407Y-82066190D01*
X104124931Y-82409047D02*
X104239217Y-82447142D01*
X104239217Y-82447142D02*
X104277312Y-82485238D01*
X104277312Y-82485238D02*
X104315408Y-82561428D01*
X104315408Y-82561428D02*
X104315408Y-82675714D01*
X104315408Y-82675714D02*
X104277312Y-82751904D01*
X104277312Y-82751904D02*
X104239217Y-82790000D01*
X104239217Y-82790000D02*
X104163027Y-82828095D01*
X104163027Y-82828095D02*
X103858265Y-82828095D01*
X103858265Y-82828095D02*
X103858265Y-82028095D01*
X103858265Y-82028095D02*
X104124931Y-82028095D01*
X104124931Y-82028095D02*
X104201122Y-82066190D01*
X104201122Y-82066190D02*
X104239217Y-82104285D01*
X104239217Y-82104285D02*
X104277312Y-82180476D01*
X104277312Y-82180476D02*
X104277312Y-82256666D01*
X104277312Y-82256666D02*
X104239217Y-82332857D01*
X104239217Y-82332857D02*
X104201122Y-82370952D01*
X104201122Y-82370952D02*
X104124931Y-82409047D01*
X104124931Y-82409047D02*
X103858265Y-82409047D01*
X104467789Y-82904285D02*
X105077312Y-82904285D01*
X105267789Y-82828095D02*
X105267789Y-82028095D01*
X105267789Y-82028095D02*
X105458265Y-82028095D01*
X105458265Y-82028095D02*
X105572551Y-82066190D01*
X105572551Y-82066190D02*
X105648741Y-82142380D01*
X105648741Y-82142380D02*
X105686836Y-82218571D01*
X105686836Y-82218571D02*
X105724932Y-82370952D01*
X105724932Y-82370952D02*
X105724932Y-82485238D01*
X105724932Y-82485238D02*
X105686836Y-82637619D01*
X105686836Y-82637619D02*
X105648741Y-82713809D01*
X105648741Y-82713809D02*
X105572551Y-82790000D01*
X105572551Y-82790000D02*
X105458265Y-82828095D01*
X105458265Y-82828095D02*
X105267789Y-82828095D01*
X106067789Y-82523333D02*
X106677313Y-82523333D01*
X103985465Y-74885340D02*
X103985465Y-74085340D01*
X103985465Y-74085340D02*
X104290227Y-74085340D01*
X104290227Y-74085340D02*
X104366417Y-74123435D01*
X104366417Y-74123435D02*
X104404512Y-74161530D01*
X104404512Y-74161530D02*
X104442608Y-74237721D01*
X104442608Y-74237721D02*
X104442608Y-74352006D01*
X104442608Y-74352006D02*
X104404512Y-74428197D01*
X104404512Y-74428197D02*
X104366417Y-74466292D01*
X104366417Y-74466292D02*
X104290227Y-74504387D01*
X104290227Y-74504387D02*
X103985465Y-74504387D01*
X105242608Y-74809149D02*
X105204512Y-74847245D01*
X105204512Y-74847245D02*
X105090227Y-74885340D01*
X105090227Y-74885340D02*
X105014036Y-74885340D01*
X105014036Y-74885340D02*
X104899750Y-74847245D01*
X104899750Y-74847245D02*
X104823560Y-74771054D01*
X104823560Y-74771054D02*
X104785465Y-74694864D01*
X104785465Y-74694864D02*
X104747369Y-74542483D01*
X104747369Y-74542483D02*
X104747369Y-74428197D01*
X104747369Y-74428197D02*
X104785465Y-74275816D01*
X104785465Y-74275816D02*
X104823560Y-74199625D01*
X104823560Y-74199625D02*
X104899750Y-74123435D01*
X104899750Y-74123435D02*
X105014036Y-74085340D01*
X105014036Y-74085340D02*
X105090227Y-74085340D01*
X105090227Y-74085340D02*
X105204512Y-74123435D01*
X105204512Y-74123435D02*
X105242608Y-74161530D01*
X105585465Y-74885340D02*
X105585465Y-74085340D01*
X105585465Y-74085340D02*
X105852131Y-74656768D01*
X105852131Y-74656768D02*
X106118798Y-74085340D01*
X106118798Y-74085340D02*
X106118798Y-74885340D01*
X106309275Y-74961530D02*
X106918798Y-74961530D01*
X103985465Y-76173295D02*
X103985465Y-75373295D01*
X103985465Y-75373295D02*
X104175941Y-75373295D01*
X104175941Y-75373295D02*
X104290227Y-75411390D01*
X104290227Y-75411390D02*
X104366417Y-75487580D01*
X104366417Y-75487580D02*
X104404512Y-75563771D01*
X104404512Y-75563771D02*
X104442608Y-75716152D01*
X104442608Y-75716152D02*
X104442608Y-75830438D01*
X104442608Y-75830438D02*
X104404512Y-75982819D01*
X104404512Y-75982819D02*
X104366417Y-76059009D01*
X104366417Y-76059009D02*
X104290227Y-76135200D01*
X104290227Y-76135200D02*
X104175941Y-76173295D01*
X104175941Y-76173295D02*
X103985465Y-76173295D01*
X104785465Y-76173295D02*
X104785465Y-75373295D01*
X105623560Y-76173295D02*
X105356893Y-75792342D01*
X105166417Y-76173295D02*
X105166417Y-75373295D01*
X105166417Y-75373295D02*
X105471179Y-75373295D01*
X105471179Y-75373295D02*
X105547369Y-75411390D01*
X105547369Y-75411390D02*
X105585464Y-75449485D01*
X105585464Y-75449485D02*
X105623560Y-75525676D01*
X105623560Y-75525676D02*
X105623560Y-75639961D01*
X105623560Y-75639961D02*
X105585464Y-75716152D01*
X105585464Y-75716152D02*
X105547369Y-75754247D01*
X105547369Y-75754247D02*
X105471179Y-75792342D01*
X105471179Y-75792342D02*
X105166417Y-75792342D01*
X95400265Y-37013940D02*
X95400265Y-36213940D01*
X95400265Y-36213940D02*
X95666931Y-36785368D01*
X95666931Y-36785368D02*
X95933598Y-36213940D01*
X95933598Y-36213940D02*
X95933598Y-37013940D01*
X96428836Y-37013940D02*
X96352646Y-36975845D01*
X96352646Y-36975845D02*
X96314551Y-36937749D01*
X96314551Y-36937749D02*
X96276455Y-36861559D01*
X96276455Y-36861559D02*
X96276455Y-36632987D01*
X96276455Y-36632987D02*
X96314551Y-36556797D01*
X96314551Y-36556797D02*
X96352646Y-36518702D01*
X96352646Y-36518702D02*
X96428836Y-36480606D01*
X96428836Y-36480606D02*
X96543122Y-36480606D01*
X96543122Y-36480606D02*
X96619313Y-36518702D01*
X96619313Y-36518702D02*
X96657408Y-36556797D01*
X96657408Y-36556797D02*
X96695503Y-36632987D01*
X96695503Y-36632987D02*
X96695503Y-36861559D01*
X96695503Y-36861559D02*
X96657408Y-36937749D01*
X96657408Y-36937749D02*
X96619313Y-36975845D01*
X96619313Y-36975845D02*
X96543122Y-37013940D01*
X96543122Y-37013940D02*
X96428836Y-37013940D01*
X97381218Y-37013940D02*
X97381218Y-36213940D01*
X97381218Y-36975845D02*
X97305027Y-37013940D01*
X97305027Y-37013940D02*
X97152646Y-37013940D01*
X97152646Y-37013940D02*
X97076456Y-36975845D01*
X97076456Y-36975845D02*
X97038361Y-36937749D01*
X97038361Y-36937749D02*
X97000265Y-36861559D01*
X97000265Y-36861559D02*
X97000265Y-36632987D01*
X97000265Y-36632987D02*
X97038361Y-36556797D01*
X97038361Y-36556797D02*
X97076456Y-36518702D01*
X97076456Y-36518702D02*
X97152646Y-36480606D01*
X97152646Y-36480606D02*
X97305027Y-36480606D01*
X97305027Y-36480606D02*
X97381218Y-36518702D01*
X98105028Y-36480606D02*
X98105028Y-37013940D01*
X97762171Y-36480606D02*
X97762171Y-36899654D01*
X97762171Y-36899654D02*
X97800266Y-36975845D01*
X97800266Y-36975845D02*
X97876456Y-37013940D01*
X97876456Y-37013940D02*
X97990742Y-37013940D01*
X97990742Y-37013940D02*
X98066933Y-36975845D01*
X98066933Y-36975845D02*
X98105028Y-36937749D01*
X98600266Y-37013940D02*
X98524076Y-36975845D01*
X98524076Y-36975845D02*
X98485981Y-36899654D01*
X98485981Y-36899654D02*
X98485981Y-36213940D01*
X99209791Y-36975845D02*
X99133600Y-37013940D01*
X99133600Y-37013940D02*
X98981219Y-37013940D01*
X98981219Y-37013940D02*
X98905029Y-36975845D01*
X98905029Y-36975845D02*
X98866933Y-36899654D01*
X98866933Y-36899654D02*
X98866933Y-36594892D01*
X98866933Y-36594892D02*
X98905029Y-36518702D01*
X98905029Y-36518702D02*
X98981219Y-36480606D01*
X98981219Y-36480606D02*
X99133600Y-36480606D01*
X99133600Y-36480606D02*
X99209791Y-36518702D01*
X99209791Y-36518702D02*
X99247886Y-36594892D01*
X99247886Y-36594892D02*
X99247886Y-36671083D01*
X99247886Y-36671083D02*
X98866933Y-36747273D01*
X100200267Y-36594892D02*
X100466933Y-36594892D01*
X100581219Y-37013940D02*
X100200267Y-37013940D01*
X100200267Y-37013940D02*
X100200267Y-36213940D01*
X100200267Y-36213940D02*
X100581219Y-36213940D01*
X100924077Y-37013940D02*
X100924077Y-36213940D01*
X100924077Y-36213940D02*
X101381220Y-37013940D01*
X101381220Y-37013940D02*
X101381220Y-36213940D01*
X102371696Y-37013940D02*
X102371696Y-36213940D01*
X102371696Y-36213940D02*
X102676458Y-36213940D01*
X102676458Y-36213940D02*
X102752648Y-36252035D01*
X102752648Y-36252035D02*
X102790743Y-36290130D01*
X102790743Y-36290130D02*
X102828839Y-36366321D01*
X102828839Y-36366321D02*
X102828839Y-36480606D01*
X102828839Y-36480606D02*
X102790743Y-36556797D01*
X102790743Y-36556797D02*
X102752648Y-36594892D01*
X102752648Y-36594892D02*
X102676458Y-36632987D01*
X102676458Y-36632987D02*
X102371696Y-36632987D01*
X103285981Y-37013940D02*
X103209791Y-36975845D01*
X103209791Y-36975845D02*
X103171696Y-36937749D01*
X103171696Y-36937749D02*
X103133600Y-36861559D01*
X103133600Y-36861559D02*
X103133600Y-36632987D01*
X103133600Y-36632987D02*
X103171696Y-36556797D01*
X103171696Y-36556797D02*
X103209791Y-36518702D01*
X103209791Y-36518702D02*
X103285981Y-36480606D01*
X103285981Y-36480606D02*
X103400267Y-36480606D01*
X103400267Y-36480606D02*
X103476458Y-36518702D01*
X103476458Y-36518702D02*
X103514553Y-36556797D01*
X103514553Y-36556797D02*
X103552648Y-36632987D01*
X103552648Y-36632987D02*
X103552648Y-36861559D01*
X103552648Y-36861559D02*
X103514553Y-36937749D01*
X103514553Y-36937749D02*
X103476458Y-36975845D01*
X103476458Y-36975845D02*
X103400267Y-37013940D01*
X103400267Y-37013940D02*
X103285981Y-37013940D01*
X103819315Y-36480606D02*
X103971696Y-37013940D01*
X103971696Y-37013940D02*
X104124077Y-36632987D01*
X104124077Y-36632987D02*
X104276458Y-37013940D01*
X104276458Y-37013940D02*
X104428839Y-36480606D01*
X105038363Y-36975845D02*
X104962172Y-37013940D01*
X104962172Y-37013940D02*
X104809791Y-37013940D01*
X104809791Y-37013940D02*
X104733601Y-36975845D01*
X104733601Y-36975845D02*
X104695505Y-36899654D01*
X104695505Y-36899654D02*
X104695505Y-36594892D01*
X104695505Y-36594892D02*
X104733601Y-36518702D01*
X104733601Y-36518702D02*
X104809791Y-36480606D01*
X104809791Y-36480606D02*
X104962172Y-36480606D01*
X104962172Y-36480606D02*
X105038363Y-36518702D01*
X105038363Y-36518702D02*
X105076458Y-36594892D01*
X105076458Y-36594892D02*
X105076458Y-36671083D01*
X105076458Y-36671083D02*
X104695505Y-36747273D01*
X105419315Y-37013940D02*
X105419315Y-36480606D01*
X105419315Y-36632987D02*
X105457410Y-36556797D01*
X105457410Y-36556797D02*
X105495505Y-36518702D01*
X105495505Y-36518702D02*
X105571696Y-36480606D01*
X105571696Y-36480606D02*
X105647886Y-36480606D01*
X95628836Y-38606657D02*
X95590741Y-38568561D01*
X95590741Y-38568561D02*
X95514550Y-38454276D01*
X95514550Y-38454276D02*
X95476455Y-38378085D01*
X95476455Y-38378085D02*
X95438360Y-38263800D01*
X95438360Y-38263800D02*
X95400265Y-38073323D01*
X95400265Y-38073323D02*
X95400265Y-37920942D01*
X95400265Y-37920942D02*
X95438360Y-37730466D01*
X95438360Y-37730466D02*
X95476455Y-37616180D01*
X95476455Y-37616180D02*
X95514550Y-37539990D01*
X95514550Y-37539990D02*
X95590741Y-37425704D01*
X95590741Y-37425704D02*
X95628836Y-37387609D01*
X95895502Y-38073323D02*
X96276455Y-38073323D01*
X95819312Y-38301895D02*
X96085979Y-37501895D01*
X96085979Y-37501895D02*
X96352645Y-38301895D01*
X96962169Y-38263800D02*
X96885978Y-38301895D01*
X96885978Y-38301895D02*
X96733597Y-38301895D01*
X96733597Y-38301895D02*
X96657407Y-38263800D01*
X96657407Y-38263800D02*
X96619312Y-38225704D01*
X96619312Y-38225704D02*
X96581216Y-38149514D01*
X96581216Y-38149514D02*
X96581216Y-37920942D01*
X96581216Y-37920942D02*
X96619312Y-37844752D01*
X96619312Y-37844752D02*
X96657407Y-37806657D01*
X96657407Y-37806657D02*
X96733597Y-37768561D01*
X96733597Y-37768561D02*
X96885978Y-37768561D01*
X96885978Y-37768561D02*
X96962169Y-37806657D01*
X97190740Y-37768561D02*
X97495502Y-37768561D01*
X97305026Y-37501895D02*
X97305026Y-38187609D01*
X97305026Y-38187609D02*
X97343121Y-38263800D01*
X97343121Y-38263800D02*
X97419311Y-38301895D01*
X97419311Y-38301895D02*
X97495502Y-38301895D01*
X97762169Y-38301895D02*
X97762169Y-37768561D01*
X97762169Y-37501895D02*
X97724073Y-37539990D01*
X97724073Y-37539990D02*
X97762169Y-37578085D01*
X97762169Y-37578085D02*
X97800264Y-37539990D01*
X97800264Y-37539990D02*
X97762169Y-37501895D01*
X97762169Y-37501895D02*
X97762169Y-37578085D01*
X98066930Y-37768561D02*
X98257406Y-38301895D01*
X98257406Y-38301895D02*
X98447883Y-37768561D01*
X99057407Y-38263800D02*
X98981216Y-38301895D01*
X98981216Y-38301895D02*
X98828835Y-38301895D01*
X98828835Y-38301895D02*
X98752645Y-38263800D01*
X98752645Y-38263800D02*
X98714549Y-38187609D01*
X98714549Y-38187609D02*
X98714549Y-37882847D01*
X98714549Y-37882847D02*
X98752645Y-37806657D01*
X98752645Y-37806657D02*
X98828835Y-37768561D01*
X98828835Y-37768561D02*
X98981216Y-37768561D01*
X98981216Y-37768561D02*
X99057407Y-37806657D01*
X99057407Y-37806657D02*
X99095502Y-37882847D01*
X99095502Y-37882847D02*
X99095502Y-37959038D01*
X99095502Y-37959038D02*
X98714549Y-38035228D01*
X100047883Y-38301895D02*
X100047883Y-37501895D01*
X100047883Y-37882847D02*
X100505026Y-37882847D01*
X100505026Y-38301895D02*
X100505026Y-37501895D01*
X100885978Y-38301895D02*
X100885978Y-37768561D01*
X100885978Y-37501895D02*
X100847882Y-37539990D01*
X100847882Y-37539990D02*
X100885978Y-37578085D01*
X100885978Y-37578085D02*
X100924073Y-37539990D01*
X100924073Y-37539990D02*
X100885978Y-37501895D01*
X100885978Y-37501895D02*
X100885978Y-37578085D01*
X101609787Y-37768561D02*
X101609787Y-38416180D01*
X101609787Y-38416180D02*
X101571692Y-38492371D01*
X101571692Y-38492371D02*
X101533596Y-38530466D01*
X101533596Y-38530466D02*
X101457406Y-38568561D01*
X101457406Y-38568561D02*
X101343120Y-38568561D01*
X101343120Y-38568561D02*
X101266930Y-38530466D01*
X101609787Y-38263800D02*
X101533596Y-38301895D01*
X101533596Y-38301895D02*
X101381215Y-38301895D01*
X101381215Y-38301895D02*
X101305025Y-38263800D01*
X101305025Y-38263800D02*
X101266930Y-38225704D01*
X101266930Y-38225704D02*
X101228834Y-38149514D01*
X101228834Y-38149514D02*
X101228834Y-37920942D01*
X101228834Y-37920942D02*
X101266930Y-37844752D01*
X101266930Y-37844752D02*
X101305025Y-37806657D01*
X101305025Y-37806657D02*
X101381215Y-37768561D01*
X101381215Y-37768561D02*
X101533596Y-37768561D01*
X101533596Y-37768561D02*
X101609787Y-37806657D01*
X101990740Y-38301895D02*
X101990740Y-37501895D01*
X102333597Y-38301895D02*
X102333597Y-37882847D01*
X102333597Y-37882847D02*
X102295502Y-37806657D01*
X102295502Y-37806657D02*
X102219311Y-37768561D01*
X102219311Y-37768561D02*
X102105025Y-37768561D01*
X102105025Y-37768561D02*
X102028835Y-37806657D01*
X102028835Y-37806657D02*
X101990740Y-37844752D01*
X102638359Y-38606657D02*
X102676454Y-38568561D01*
X102676454Y-38568561D02*
X102752645Y-38454276D01*
X102752645Y-38454276D02*
X102790740Y-38378085D01*
X102790740Y-38378085D02*
X102828835Y-38263800D01*
X102828835Y-38263800D02*
X102866931Y-38073323D01*
X102866931Y-38073323D02*
X102866931Y-37920942D01*
X102866931Y-37920942D02*
X102828835Y-37730466D01*
X102828835Y-37730466D02*
X102790740Y-37616180D01*
X102790740Y-37616180D02*
X102752645Y-37539990D01*
X102752645Y-37539990D02*
X102676454Y-37425704D01*
X102676454Y-37425704D02*
X102638359Y-37387609D01*
X103642493Y-61695400D02*
X102956779Y-62723971D01*
X103832969Y-61733495D02*
X104023445Y-62533495D01*
X104023445Y-62533495D02*
X104175826Y-61962066D01*
X104175826Y-61962066D02*
X104328207Y-62533495D01*
X104328207Y-62533495D02*
X104518684Y-61733495D01*
X104785350Y-62304923D02*
X105166303Y-62304923D01*
X104709160Y-62533495D02*
X104975827Y-61733495D01*
X104975827Y-61733495D02*
X105242493Y-62533495D01*
X105509160Y-62533495D02*
X105509160Y-61733495D01*
X105966303Y-62533495D02*
X105623445Y-62076352D01*
X105966303Y-61733495D02*
X105509160Y-62190638D01*
X106309160Y-62114447D02*
X106575826Y-62114447D01*
X106690112Y-62533495D02*
X106309160Y-62533495D01*
X106309160Y-62533495D02*
X106309160Y-61733495D01*
X106309160Y-61733495D02*
X106690112Y-61733495D01*
X104493408Y-59841104D02*
X104455312Y-59879200D01*
X104455312Y-59879200D02*
X104341027Y-59917295D01*
X104341027Y-59917295D02*
X104264836Y-59917295D01*
X104264836Y-59917295D02*
X104150550Y-59879200D01*
X104150550Y-59879200D02*
X104074360Y-59803009D01*
X104074360Y-59803009D02*
X104036265Y-59726819D01*
X104036265Y-59726819D02*
X103998169Y-59574438D01*
X103998169Y-59574438D02*
X103998169Y-59460152D01*
X103998169Y-59460152D02*
X104036265Y-59307771D01*
X104036265Y-59307771D02*
X104074360Y-59231580D01*
X104074360Y-59231580D02*
X104150550Y-59155390D01*
X104150550Y-59155390D02*
X104264836Y-59117295D01*
X104264836Y-59117295D02*
X104341027Y-59117295D01*
X104341027Y-59117295D02*
X104455312Y-59155390D01*
X104455312Y-59155390D02*
X104493408Y-59193485D01*
X104836265Y-59117295D02*
X104836265Y-59764914D01*
X104836265Y-59764914D02*
X104874360Y-59841104D01*
X104874360Y-59841104D02*
X104912455Y-59879200D01*
X104912455Y-59879200D02*
X104988646Y-59917295D01*
X104988646Y-59917295D02*
X105141027Y-59917295D01*
X105141027Y-59917295D02*
X105217217Y-59879200D01*
X105217217Y-59879200D02*
X105255312Y-59841104D01*
X105255312Y-59841104D02*
X105293408Y-59764914D01*
X105293408Y-59764914D02*
X105293408Y-59117295D01*
X105560074Y-59117295D02*
X106017217Y-59117295D01*
X105788645Y-59917295D02*
X105788645Y-59117295D01*
X106207693Y-59117295D02*
X106741027Y-59917295D01*
X106741027Y-59117295D02*
X106207693Y-59917295D01*
X102182065Y-84618895D02*
X102182065Y-85266514D01*
X102182065Y-85266514D02*
X102220160Y-85342704D01*
X102220160Y-85342704D02*
X102258255Y-85380800D01*
X102258255Y-85380800D02*
X102334446Y-85418895D01*
X102334446Y-85418895D02*
X102486827Y-85418895D01*
X102486827Y-85418895D02*
X102563017Y-85380800D01*
X102563017Y-85380800D02*
X102601112Y-85342704D01*
X102601112Y-85342704D02*
X102639208Y-85266514D01*
X102639208Y-85266514D02*
X102639208Y-84618895D01*
X102982064Y-85380800D02*
X103096350Y-85418895D01*
X103096350Y-85418895D02*
X103286826Y-85418895D01*
X103286826Y-85418895D02*
X103363017Y-85380800D01*
X103363017Y-85380800D02*
X103401112Y-85342704D01*
X103401112Y-85342704D02*
X103439207Y-85266514D01*
X103439207Y-85266514D02*
X103439207Y-85190323D01*
X103439207Y-85190323D02*
X103401112Y-85114133D01*
X103401112Y-85114133D02*
X103363017Y-85076038D01*
X103363017Y-85076038D02*
X103286826Y-85037942D01*
X103286826Y-85037942D02*
X103134445Y-84999847D01*
X103134445Y-84999847D02*
X103058255Y-84961752D01*
X103058255Y-84961752D02*
X103020160Y-84923657D01*
X103020160Y-84923657D02*
X102982064Y-84847466D01*
X102982064Y-84847466D02*
X102982064Y-84771276D01*
X102982064Y-84771276D02*
X103020160Y-84695085D01*
X103020160Y-84695085D02*
X103058255Y-84656990D01*
X103058255Y-84656990D02*
X103134445Y-84618895D01*
X103134445Y-84618895D02*
X103324922Y-84618895D01*
X103324922Y-84618895D02*
X103439207Y-84656990D01*
X104048731Y-84999847D02*
X104163017Y-85037942D01*
X104163017Y-85037942D02*
X104201112Y-85076038D01*
X104201112Y-85076038D02*
X104239208Y-85152228D01*
X104239208Y-85152228D02*
X104239208Y-85266514D01*
X104239208Y-85266514D02*
X104201112Y-85342704D01*
X104201112Y-85342704D02*
X104163017Y-85380800D01*
X104163017Y-85380800D02*
X104086827Y-85418895D01*
X104086827Y-85418895D02*
X103782065Y-85418895D01*
X103782065Y-85418895D02*
X103782065Y-84618895D01*
X103782065Y-84618895D02*
X104048731Y-84618895D01*
X104048731Y-84618895D02*
X104124922Y-84656990D01*
X104124922Y-84656990D02*
X104163017Y-84695085D01*
X104163017Y-84695085D02*
X104201112Y-84771276D01*
X104201112Y-84771276D02*
X104201112Y-84847466D01*
X104201112Y-84847466D02*
X104163017Y-84923657D01*
X104163017Y-84923657D02*
X104124922Y-84961752D01*
X104124922Y-84961752D02*
X104048731Y-84999847D01*
X104048731Y-84999847D02*
X103782065Y-84999847D01*
X104391589Y-85495085D02*
X105001112Y-85495085D01*
X105191589Y-85418895D02*
X105191589Y-84618895D01*
X105191589Y-84618895D02*
X105382065Y-84618895D01*
X105382065Y-84618895D02*
X105496351Y-84656990D01*
X105496351Y-84656990D02*
X105572541Y-84733180D01*
X105572541Y-84733180D02*
X105610636Y-84809371D01*
X105610636Y-84809371D02*
X105648732Y-84961752D01*
X105648732Y-84961752D02*
X105648732Y-85076038D01*
X105648732Y-85076038D02*
X105610636Y-85228419D01*
X105610636Y-85228419D02*
X105572541Y-85304609D01*
X105572541Y-85304609D02*
X105496351Y-85380800D01*
X105496351Y-85380800D02*
X105382065Y-85418895D01*
X105382065Y-85418895D02*
X105191589Y-85418895D01*
X105991589Y-85114133D02*
X106601113Y-85114133D01*
X106296351Y-85418895D02*
X106296351Y-84809371D01*
X101648665Y-70077295D02*
X101648665Y-69277295D01*
X101648665Y-69277295D02*
X101953427Y-69277295D01*
X101953427Y-69277295D02*
X102029617Y-69315390D01*
X102029617Y-69315390D02*
X102067712Y-69353485D01*
X102067712Y-69353485D02*
X102105808Y-69429676D01*
X102105808Y-69429676D02*
X102105808Y-69543961D01*
X102105808Y-69543961D02*
X102067712Y-69620152D01*
X102067712Y-69620152D02*
X102029617Y-69658247D01*
X102029617Y-69658247D02*
X101953427Y-69696342D01*
X101953427Y-69696342D02*
X101648665Y-69696342D01*
X102905808Y-70001104D02*
X102867712Y-70039200D01*
X102867712Y-70039200D02*
X102753427Y-70077295D01*
X102753427Y-70077295D02*
X102677236Y-70077295D01*
X102677236Y-70077295D02*
X102562950Y-70039200D01*
X102562950Y-70039200D02*
X102486760Y-69963009D01*
X102486760Y-69963009D02*
X102448665Y-69886819D01*
X102448665Y-69886819D02*
X102410569Y-69734438D01*
X102410569Y-69734438D02*
X102410569Y-69620152D01*
X102410569Y-69620152D02*
X102448665Y-69467771D01*
X102448665Y-69467771D02*
X102486760Y-69391580D01*
X102486760Y-69391580D02*
X102562950Y-69315390D01*
X102562950Y-69315390D02*
X102677236Y-69277295D01*
X102677236Y-69277295D02*
X102753427Y-69277295D01*
X102753427Y-69277295D02*
X102867712Y-69315390D01*
X102867712Y-69315390D02*
X102905808Y-69353485D01*
X103248665Y-70077295D02*
X103248665Y-69277295D01*
X103248665Y-69277295D02*
X103515331Y-69848723D01*
X103515331Y-69848723D02*
X103781998Y-69277295D01*
X103781998Y-69277295D02*
X103781998Y-70077295D01*
X103972475Y-70153485D02*
X104581998Y-70153485D01*
X105229618Y-70001104D02*
X105191522Y-70039200D01*
X105191522Y-70039200D02*
X105077237Y-70077295D01*
X105077237Y-70077295D02*
X105001046Y-70077295D01*
X105001046Y-70077295D02*
X104886760Y-70039200D01*
X104886760Y-70039200D02*
X104810570Y-69963009D01*
X104810570Y-69963009D02*
X104772475Y-69886819D01*
X104772475Y-69886819D02*
X104734379Y-69734438D01*
X104734379Y-69734438D02*
X104734379Y-69620152D01*
X104734379Y-69620152D02*
X104772475Y-69467771D01*
X104772475Y-69467771D02*
X104810570Y-69391580D01*
X104810570Y-69391580D02*
X104886760Y-69315390D01*
X104886760Y-69315390D02*
X105001046Y-69277295D01*
X105001046Y-69277295D02*
X105077237Y-69277295D01*
X105077237Y-69277295D02*
X105191522Y-69315390D01*
X105191522Y-69315390D02*
X105229618Y-69353485D01*
X105953427Y-70077295D02*
X105572475Y-70077295D01*
X105572475Y-70077295D02*
X105572475Y-69277295D01*
X106220094Y-70077295D02*
X106220094Y-69277295D01*
X106677237Y-70077295D02*
X106334379Y-69620152D01*
X106677237Y-69277295D02*
X106220094Y-69734438D01*
X103299665Y-103148095D02*
X103299665Y-102348095D01*
X103299665Y-102348095D02*
X103604427Y-102348095D01*
X103604427Y-102348095D02*
X103680617Y-102386190D01*
X103680617Y-102386190D02*
X103718712Y-102424285D01*
X103718712Y-102424285D02*
X103756808Y-102500476D01*
X103756808Y-102500476D02*
X103756808Y-102614761D01*
X103756808Y-102614761D02*
X103718712Y-102690952D01*
X103718712Y-102690952D02*
X103680617Y-102729047D01*
X103680617Y-102729047D02*
X103604427Y-102767142D01*
X103604427Y-102767142D02*
X103299665Y-102767142D01*
X104099665Y-102729047D02*
X104366331Y-102729047D01*
X104480617Y-103148095D02*
X104099665Y-103148095D01*
X104099665Y-103148095D02*
X104099665Y-102348095D01*
X104099665Y-102348095D02*
X104480617Y-102348095D01*
X105280618Y-103148095D02*
X105013951Y-102767142D01*
X104823475Y-103148095D02*
X104823475Y-102348095D01*
X104823475Y-102348095D02*
X105128237Y-102348095D01*
X105128237Y-102348095D02*
X105204427Y-102386190D01*
X105204427Y-102386190D02*
X105242522Y-102424285D01*
X105242522Y-102424285D02*
X105280618Y-102500476D01*
X105280618Y-102500476D02*
X105280618Y-102614761D01*
X105280618Y-102614761D02*
X105242522Y-102690952D01*
X105242522Y-102690952D02*
X105204427Y-102729047D01*
X105204427Y-102729047D02*
X105128237Y-102767142D01*
X105128237Y-102767142D02*
X104823475Y-102767142D01*
X105623475Y-102614761D02*
X105623475Y-103414761D01*
X105623475Y-102652857D02*
X105699665Y-102614761D01*
X105699665Y-102614761D02*
X105852046Y-102614761D01*
X105852046Y-102614761D02*
X105928237Y-102652857D01*
X105928237Y-102652857D02*
X105966332Y-102690952D01*
X105966332Y-102690952D02*
X106004427Y-102767142D01*
X106004427Y-102767142D02*
X106004427Y-102995714D01*
X106004427Y-102995714D02*
X105966332Y-103071904D01*
X105966332Y-103071904D02*
X105928237Y-103110000D01*
X105928237Y-103110000D02*
X105852046Y-103148095D01*
X105852046Y-103148095D02*
X105699665Y-103148095D01*
X105699665Y-103148095D02*
X105623475Y-103110000D01*
X106499666Y-102348095D02*
X106575856Y-102348095D01*
X106575856Y-102348095D02*
X106652047Y-102386190D01*
X106652047Y-102386190D02*
X106690142Y-102424285D01*
X106690142Y-102424285D02*
X106728237Y-102500476D01*
X106728237Y-102500476D02*
X106766332Y-102652857D01*
X106766332Y-102652857D02*
X106766332Y-102843333D01*
X106766332Y-102843333D02*
X106728237Y-102995714D01*
X106728237Y-102995714D02*
X106690142Y-103071904D01*
X106690142Y-103071904D02*
X106652047Y-103110000D01*
X106652047Y-103110000D02*
X106575856Y-103148095D01*
X106575856Y-103148095D02*
X106499666Y-103148095D01*
X106499666Y-103148095D02*
X106423475Y-103110000D01*
X106423475Y-103110000D02*
X106385380Y-103071904D01*
X106385380Y-103071904D02*
X106347285Y-102995714D01*
X106347285Y-102995714D02*
X106309189Y-102843333D01*
X106309189Y-102843333D02*
X106309189Y-102652857D01*
X106309189Y-102652857D02*
X106347285Y-102500476D01*
X106347285Y-102500476D02*
X106385380Y-102424285D01*
X106385380Y-102424285D02*
X106423475Y-102386190D01*
X106423475Y-102386190D02*
X106499666Y-102348095D01*
X103185293Y-54177000D02*
X102499579Y-55205571D01*
X103909103Y-55015095D02*
X103642436Y-54634142D01*
X103451960Y-55015095D02*
X103451960Y-54215095D01*
X103451960Y-54215095D02*
X103756722Y-54215095D01*
X103756722Y-54215095D02*
X103832912Y-54253190D01*
X103832912Y-54253190D02*
X103871007Y-54291285D01*
X103871007Y-54291285D02*
X103909103Y-54367476D01*
X103909103Y-54367476D02*
X103909103Y-54481761D01*
X103909103Y-54481761D02*
X103871007Y-54557952D01*
X103871007Y-54557952D02*
X103832912Y-54596047D01*
X103832912Y-54596047D02*
X103756722Y-54634142D01*
X103756722Y-54634142D02*
X103451960Y-54634142D01*
X104251960Y-54596047D02*
X104518626Y-54596047D01*
X104632912Y-55015095D02*
X104251960Y-55015095D01*
X104251960Y-55015095D02*
X104251960Y-54215095D01*
X104251960Y-54215095D02*
X104632912Y-54215095D01*
X104937674Y-54977000D02*
X105051960Y-55015095D01*
X105051960Y-55015095D02*
X105242436Y-55015095D01*
X105242436Y-55015095D02*
X105318627Y-54977000D01*
X105318627Y-54977000D02*
X105356722Y-54938904D01*
X105356722Y-54938904D02*
X105394817Y-54862714D01*
X105394817Y-54862714D02*
X105394817Y-54786523D01*
X105394817Y-54786523D02*
X105356722Y-54710333D01*
X105356722Y-54710333D02*
X105318627Y-54672238D01*
X105318627Y-54672238D02*
X105242436Y-54634142D01*
X105242436Y-54634142D02*
X105090055Y-54596047D01*
X105090055Y-54596047D02*
X105013865Y-54557952D01*
X105013865Y-54557952D02*
X104975770Y-54519857D01*
X104975770Y-54519857D02*
X104937674Y-54443666D01*
X104937674Y-54443666D02*
X104937674Y-54367476D01*
X104937674Y-54367476D02*
X104975770Y-54291285D01*
X104975770Y-54291285D02*
X105013865Y-54253190D01*
X105013865Y-54253190D02*
X105090055Y-54215095D01*
X105090055Y-54215095D02*
X105280532Y-54215095D01*
X105280532Y-54215095D02*
X105394817Y-54253190D01*
X105737675Y-54596047D02*
X106004341Y-54596047D01*
X106118627Y-55015095D02*
X105737675Y-55015095D01*
X105737675Y-55015095D02*
X105737675Y-54215095D01*
X105737675Y-54215095D02*
X106118627Y-54215095D01*
X106347199Y-54215095D02*
X106804342Y-54215095D01*
X106575770Y-55015095D02*
X106575770Y-54215095D01*
X70736865Y-91458940D02*
X70736865Y-92106559D01*
X70736865Y-92106559D02*
X70774960Y-92182749D01*
X70774960Y-92182749D02*
X70813055Y-92220845D01*
X70813055Y-92220845D02*
X70889246Y-92258940D01*
X70889246Y-92258940D02*
X71041627Y-92258940D01*
X71041627Y-92258940D02*
X71117817Y-92220845D01*
X71117817Y-92220845D02*
X71155912Y-92182749D01*
X71155912Y-92182749D02*
X71194008Y-92106559D01*
X71194008Y-92106559D02*
X71194008Y-91458940D01*
X71536864Y-92220845D02*
X71651150Y-92258940D01*
X71651150Y-92258940D02*
X71841626Y-92258940D01*
X71841626Y-92258940D02*
X71917817Y-92220845D01*
X71917817Y-92220845D02*
X71955912Y-92182749D01*
X71955912Y-92182749D02*
X71994007Y-92106559D01*
X71994007Y-92106559D02*
X71994007Y-92030368D01*
X71994007Y-92030368D02*
X71955912Y-91954178D01*
X71955912Y-91954178D02*
X71917817Y-91916083D01*
X71917817Y-91916083D02*
X71841626Y-91877987D01*
X71841626Y-91877987D02*
X71689245Y-91839892D01*
X71689245Y-91839892D02*
X71613055Y-91801797D01*
X71613055Y-91801797D02*
X71574960Y-91763702D01*
X71574960Y-91763702D02*
X71536864Y-91687511D01*
X71536864Y-91687511D02*
X71536864Y-91611321D01*
X71536864Y-91611321D02*
X71574960Y-91535130D01*
X71574960Y-91535130D02*
X71613055Y-91497035D01*
X71613055Y-91497035D02*
X71689245Y-91458940D01*
X71689245Y-91458940D02*
X71879722Y-91458940D01*
X71879722Y-91458940D02*
X71994007Y-91497035D01*
X72336865Y-92258940D02*
X72336865Y-91458940D01*
X72717817Y-92258940D02*
X72717817Y-91458940D01*
X72717817Y-91458940D02*
X72984483Y-92030368D01*
X72984483Y-92030368D02*
X73251150Y-91458940D01*
X73251150Y-91458940D02*
X73251150Y-92258940D01*
X70736865Y-93546895D02*
X70736865Y-92746895D01*
X70736865Y-92746895D02*
X70927341Y-92746895D01*
X70927341Y-92746895D02*
X71041627Y-92784990D01*
X71041627Y-92784990D02*
X71117817Y-92861180D01*
X71117817Y-92861180D02*
X71155912Y-92937371D01*
X71155912Y-92937371D02*
X71194008Y-93089752D01*
X71194008Y-93089752D02*
X71194008Y-93204038D01*
X71194008Y-93204038D02*
X71155912Y-93356419D01*
X71155912Y-93356419D02*
X71117817Y-93432609D01*
X71117817Y-93432609D02*
X71041627Y-93508800D01*
X71041627Y-93508800D02*
X70927341Y-93546895D01*
X70927341Y-93546895D02*
X70736865Y-93546895D01*
X71498769Y-93318323D02*
X71879722Y-93318323D01*
X71422579Y-93546895D02*
X71689246Y-92746895D01*
X71689246Y-92746895D02*
X71955912Y-93546895D01*
X72108293Y-92746895D02*
X72565436Y-92746895D01*
X72336864Y-93546895D02*
X72336864Y-92746895D01*
X72794007Y-93318323D02*
X73174960Y-93318323D01*
X72717817Y-93546895D02*
X72984484Y-92746895D01*
X72984484Y-92746895D02*
X73251150Y-93546895D01*
X105471379Y-56755095D02*
X105928522Y-56755095D01*
X105699950Y-57555095D02*
X105699950Y-56755095D01*
X106118998Y-56755095D02*
X106652332Y-57555095D01*
X106652332Y-56755095D02*
X106118998Y-57555095D01*
X104798265Y-105561095D02*
X104798265Y-104761095D01*
X104798265Y-104761095D02*
X105103027Y-104761095D01*
X105103027Y-104761095D02*
X105179217Y-104799190D01*
X105179217Y-104799190D02*
X105217312Y-104837285D01*
X105217312Y-104837285D02*
X105255408Y-104913476D01*
X105255408Y-104913476D02*
X105255408Y-105027761D01*
X105255408Y-105027761D02*
X105217312Y-105103952D01*
X105217312Y-105103952D02*
X105179217Y-105142047D01*
X105179217Y-105142047D02*
X105103027Y-105180142D01*
X105103027Y-105180142D02*
X104798265Y-105180142D01*
X106017312Y-105561095D02*
X105560169Y-105561095D01*
X105788741Y-105561095D02*
X105788741Y-104761095D01*
X105788741Y-104761095D02*
X105712550Y-104875380D01*
X105712550Y-104875380D02*
X105636360Y-104951571D01*
X105636360Y-104951571D02*
X105560169Y-104989666D01*
X106398265Y-105561095D02*
X106550646Y-105561095D01*
X106550646Y-105561095D02*
X106626836Y-105523000D01*
X106626836Y-105523000D02*
X106664932Y-105484904D01*
X106664932Y-105484904D02*
X106741122Y-105370619D01*
X106741122Y-105370619D02*
X106779217Y-105218238D01*
X106779217Y-105218238D02*
X106779217Y-104913476D01*
X106779217Y-104913476D02*
X106741122Y-104837285D01*
X106741122Y-104837285D02*
X106703027Y-104799190D01*
X106703027Y-104799190D02*
X106626836Y-104761095D01*
X106626836Y-104761095D02*
X106474455Y-104761095D01*
X106474455Y-104761095D02*
X106398265Y-104799190D01*
X106398265Y-104799190D02*
X106360170Y-104837285D01*
X106360170Y-104837285D02*
X106322074Y-104913476D01*
X106322074Y-104913476D02*
X106322074Y-105103952D01*
X106322074Y-105103952D02*
X106360170Y-105180142D01*
X106360170Y-105180142D02*
X106398265Y-105218238D01*
X106398265Y-105218238D02*
X106474455Y-105256333D01*
X106474455Y-105256333D02*
X106626836Y-105256333D01*
X106626836Y-105256333D02*
X106703027Y-105218238D01*
X106703027Y-105218238D02*
X106741122Y-105180142D01*
X106741122Y-105180142D02*
X106779217Y-105103952D01*
X103261493Y-49071600D02*
X102575779Y-50100171D01*
X103490064Y-49871600D02*
X103604350Y-49909695D01*
X103604350Y-49909695D02*
X103794826Y-49909695D01*
X103794826Y-49909695D02*
X103871017Y-49871600D01*
X103871017Y-49871600D02*
X103909112Y-49833504D01*
X103909112Y-49833504D02*
X103947207Y-49757314D01*
X103947207Y-49757314D02*
X103947207Y-49681123D01*
X103947207Y-49681123D02*
X103909112Y-49604933D01*
X103909112Y-49604933D02*
X103871017Y-49566838D01*
X103871017Y-49566838D02*
X103794826Y-49528742D01*
X103794826Y-49528742D02*
X103642445Y-49490647D01*
X103642445Y-49490647D02*
X103566255Y-49452552D01*
X103566255Y-49452552D02*
X103528160Y-49414457D01*
X103528160Y-49414457D02*
X103490064Y-49338266D01*
X103490064Y-49338266D02*
X103490064Y-49262076D01*
X103490064Y-49262076D02*
X103528160Y-49185885D01*
X103528160Y-49185885D02*
X103566255Y-49147790D01*
X103566255Y-49147790D02*
X103642445Y-49109695D01*
X103642445Y-49109695D02*
X103832922Y-49109695D01*
X103832922Y-49109695D02*
X103947207Y-49147790D01*
X104671017Y-49909695D02*
X104290065Y-49909695D01*
X104290065Y-49909695D02*
X104290065Y-49109695D01*
X104937684Y-49490647D02*
X105204350Y-49490647D01*
X105318636Y-49909695D02*
X104937684Y-49909695D01*
X104937684Y-49909695D02*
X104937684Y-49109695D01*
X104937684Y-49109695D02*
X105318636Y-49109695D01*
X105661494Y-49490647D02*
X105928160Y-49490647D01*
X106042446Y-49909695D02*
X105661494Y-49909695D01*
X105661494Y-49909695D02*
X105661494Y-49109695D01*
X105661494Y-49109695D02*
X106042446Y-49109695D01*
X106385304Y-49909695D02*
X106385304Y-49109695D01*
X106385304Y-49109695D02*
X106690066Y-49109695D01*
X106690066Y-49109695D02*
X106766256Y-49147790D01*
X106766256Y-49147790D02*
X106804351Y-49185885D01*
X106804351Y-49185885D02*
X106842447Y-49262076D01*
X106842447Y-49262076D02*
X106842447Y-49376361D01*
X106842447Y-49376361D02*
X106804351Y-49452552D01*
X106804351Y-49452552D02*
X106766256Y-49490647D01*
X106766256Y-49490647D02*
X106690066Y-49528742D01*
X106690066Y-49528742D02*
X106385304Y-49528742D01*
X105103065Y-97415140D02*
X105103065Y-96615140D01*
X105445921Y-96691330D02*
X105484017Y-96653235D01*
X105484017Y-96653235D02*
X105560207Y-96615140D01*
X105560207Y-96615140D02*
X105750683Y-96615140D01*
X105750683Y-96615140D02*
X105826874Y-96653235D01*
X105826874Y-96653235D02*
X105864969Y-96691330D01*
X105864969Y-96691330D02*
X105903064Y-96767521D01*
X105903064Y-96767521D02*
X105903064Y-96843711D01*
X105903064Y-96843711D02*
X105864969Y-96957997D01*
X105864969Y-96957997D02*
X105407826Y-97415140D01*
X105407826Y-97415140D02*
X105903064Y-97415140D01*
X106703065Y-97338949D02*
X106664969Y-97377045D01*
X106664969Y-97377045D02*
X106550684Y-97415140D01*
X106550684Y-97415140D02*
X106474493Y-97415140D01*
X106474493Y-97415140D02*
X106360207Y-97377045D01*
X106360207Y-97377045D02*
X106284017Y-97300854D01*
X106284017Y-97300854D02*
X106245922Y-97224664D01*
X106245922Y-97224664D02*
X106207826Y-97072283D01*
X106207826Y-97072283D02*
X106207826Y-96957997D01*
X106207826Y-96957997D02*
X106245922Y-96805616D01*
X106245922Y-96805616D02*
X106284017Y-96729425D01*
X106284017Y-96729425D02*
X106360207Y-96653235D01*
X106360207Y-96653235D02*
X106474493Y-96615140D01*
X106474493Y-96615140D02*
X106550684Y-96615140D01*
X106550684Y-96615140D02*
X106664969Y-96653235D01*
X106664969Y-96653235D02*
X106703065Y-96691330D01*
X105064969Y-98665000D02*
X105179255Y-98703095D01*
X105179255Y-98703095D02*
X105369731Y-98703095D01*
X105369731Y-98703095D02*
X105445922Y-98665000D01*
X105445922Y-98665000D02*
X105484017Y-98626904D01*
X105484017Y-98626904D02*
X105522112Y-98550714D01*
X105522112Y-98550714D02*
X105522112Y-98474523D01*
X105522112Y-98474523D02*
X105484017Y-98398333D01*
X105484017Y-98398333D02*
X105445922Y-98360238D01*
X105445922Y-98360238D02*
X105369731Y-98322142D01*
X105369731Y-98322142D02*
X105217350Y-98284047D01*
X105217350Y-98284047D02*
X105141160Y-98245952D01*
X105141160Y-98245952D02*
X105103065Y-98207857D01*
X105103065Y-98207857D02*
X105064969Y-98131666D01*
X105064969Y-98131666D02*
X105064969Y-98055476D01*
X105064969Y-98055476D02*
X105103065Y-97979285D01*
X105103065Y-97979285D02*
X105141160Y-97941190D01*
X105141160Y-97941190D02*
X105217350Y-97903095D01*
X105217350Y-97903095D02*
X105407827Y-97903095D01*
X105407827Y-97903095D02*
X105522112Y-97941190D01*
X106322113Y-98626904D02*
X106284017Y-98665000D01*
X106284017Y-98665000D02*
X106169732Y-98703095D01*
X106169732Y-98703095D02*
X106093541Y-98703095D01*
X106093541Y-98703095D02*
X105979255Y-98665000D01*
X105979255Y-98665000D02*
X105903065Y-98588809D01*
X105903065Y-98588809D02*
X105864970Y-98512619D01*
X105864970Y-98512619D02*
X105826874Y-98360238D01*
X105826874Y-98360238D02*
X105826874Y-98245952D01*
X105826874Y-98245952D02*
X105864970Y-98093571D01*
X105864970Y-98093571D02*
X105903065Y-98017380D01*
X105903065Y-98017380D02*
X105979255Y-97941190D01*
X105979255Y-97941190D02*
X106093541Y-97903095D01*
X106093541Y-97903095D02*
X106169732Y-97903095D01*
X106169732Y-97903095D02*
X106284017Y-97941190D01*
X106284017Y-97941190D02*
X106322113Y-97979285D01*
X107045922Y-98703095D02*
X106664970Y-98703095D01*
X106664970Y-98703095D02*
X106664970Y-97903095D01*
X103960065Y-72040540D02*
X103960065Y-71240540D01*
X103960065Y-71240540D02*
X104264827Y-71240540D01*
X104264827Y-71240540D02*
X104341017Y-71278635D01*
X104341017Y-71278635D02*
X104379112Y-71316730D01*
X104379112Y-71316730D02*
X104417208Y-71392921D01*
X104417208Y-71392921D02*
X104417208Y-71507206D01*
X104417208Y-71507206D02*
X104379112Y-71583397D01*
X104379112Y-71583397D02*
X104341017Y-71621492D01*
X104341017Y-71621492D02*
X104264827Y-71659587D01*
X104264827Y-71659587D02*
X103960065Y-71659587D01*
X105217208Y-71964349D02*
X105179112Y-72002445D01*
X105179112Y-72002445D02*
X105064827Y-72040540D01*
X105064827Y-72040540D02*
X104988636Y-72040540D01*
X104988636Y-72040540D02*
X104874350Y-72002445D01*
X104874350Y-72002445D02*
X104798160Y-71926254D01*
X104798160Y-71926254D02*
X104760065Y-71850064D01*
X104760065Y-71850064D02*
X104721969Y-71697683D01*
X104721969Y-71697683D02*
X104721969Y-71583397D01*
X104721969Y-71583397D02*
X104760065Y-71431016D01*
X104760065Y-71431016D02*
X104798160Y-71354825D01*
X104798160Y-71354825D02*
X104874350Y-71278635D01*
X104874350Y-71278635D02*
X104988636Y-71240540D01*
X104988636Y-71240540D02*
X105064827Y-71240540D01*
X105064827Y-71240540D02*
X105179112Y-71278635D01*
X105179112Y-71278635D02*
X105217208Y-71316730D01*
X105560065Y-72040540D02*
X105560065Y-71240540D01*
X105560065Y-71240540D02*
X105826731Y-71811968D01*
X105826731Y-71811968D02*
X106093398Y-71240540D01*
X106093398Y-71240540D02*
X106093398Y-72040540D01*
X106283875Y-72116730D02*
X106893398Y-72116730D01*
X103921969Y-73290400D02*
X104036255Y-73328495D01*
X104036255Y-73328495D02*
X104226731Y-73328495D01*
X104226731Y-73328495D02*
X104302922Y-73290400D01*
X104302922Y-73290400D02*
X104341017Y-73252304D01*
X104341017Y-73252304D02*
X104379112Y-73176114D01*
X104379112Y-73176114D02*
X104379112Y-73099923D01*
X104379112Y-73099923D02*
X104341017Y-73023733D01*
X104341017Y-73023733D02*
X104302922Y-72985638D01*
X104302922Y-72985638D02*
X104226731Y-72947542D01*
X104226731Y-72947542D02*
X104074350Y-72909447D01*
X104074350Y-72909447D02*
X103998160Y-72871352D01*
X103998160Y-72871352D02*
X103960065Y-72833257D01*
X103960065Y-72833257D02*
X103921969Y-72757066D01*
X103921969Y-72757066D02*
X103921969Y-72680876D01*
X103921969Y-72680876D02*
X103960065Y-72604685D01*
X103960065Y-72604685D02*
X103998160Y-72566590D01*
X103998160Y-72566590D02*
X104074350Y-72528495D01*
X104074350Y-72528495D02*
X104264827Y-72528495D01*
X104264827Y-72528495D02*
X104379112Y-72566590D01*
X104874351Y-72947542D02*
X104874351Y-73328495D01*
X104607684Y-72528495D02*
X104874351Y-72947542D01*
X104874351Y-72947542D02*
X105141017Y-72528495D01*
X105407684Y-73328495D02*
X105407684Y-72528495D01*
X105407684Y-72528495D02*
X105864827Y-73328495D01*
X105864827Y-73328495D02*
X105864827Y-72528495D01*
X106702922Y-73252304D02*
X106664826Y-73290400D01*
X106664826Y-73290400D02*
X106550541Y-73328495D01*
X106550541Y-73328495D02*
X106474350Y-73328495D01*
X106474350Y-73328495D02*
X106360064Y-73290400D01*
X106360064Y-73290400D02*
X106283874Y-73214209D01*
X106283874Y-73214209D02*
X106245779Y-73138019D01*
X106245779Y-73138019D02*
X106207683Y-72985638D01*
X106207683Y-72985638D02*
X106207683Y-72871352D01*
X106207683Y-72871352D02*
X106245779Y-72718971D01*
X106245779Y-72718971D02*
X106283874Y-72642780D01*
X106283874Y-72642780D02*
X106360064Y-72566590D01*
X106360064Y-72566590D02*
X106474350Y-72528495D01*
X106474350Y-72528495D02*
X106550541Y-72528495D01*
X106550541Y-72528495D02*
X106664826Y-72566590D01*
X106664826Y-72566590D02*
X106702922Y-72604685D01*
X70600940Y-98930934D02*
X71248559Y-98930934D01*
X71248559Y-98930934D02*
X71324749Y-98892839D01*
X71324749Y-98892839D02*
X71362845Y-98854744D01*
X71362845Y-98854744D02*
X71400940Y-98778553D01*
X71400940Y-98778553D02*
X71400940Y-98626172D01*
X71400940Y-98626172D02*
X71362845Y-98549982D01*
X71362845Y-98549982D02*
X71324749Y-98511887D01*
X71324749Y-98511887D02*
X71248559Y-98473791D01*
X71248559Y-98473791D02*
X70600940Y-98473791D01*
X71362845Y-98130935D02*
X71400940Y-98016649D01*
X71400940Y-98016649D02*
X71400940Y-97826173D01*
X71400940Y-97826173D02*
X71362845Y-97749982D01*
X71362845Y-97749982D02*
X71324749Y-97711887D01*
X71324749Y-97711887D02*
X71248559Y-97673792D01*
X71248559Y-97673792D02*
X71172368Y-97673792D01*
X71172368Y-97673792D02*
X71096178Y-97711887D01*
X71096178Y-97711887D02*
X71058083Y-97749982D01*
X71058083Y-97749982D02*
X71019987Y-97826173D01*
X71019987Y-97826173D02*
X70981892Y-97978554D01*
X70981892Y-97978554D02*
X70943797Y-98054744D01*
X70943797Y-98054744D02*
X70905702Y-98092839D01*
X70905702Y-98092839D02*
X70829511Y-98130935D01*
X70829511Y-98130935D02*
X70753321Y-98130935D01*
X70753321Y-98130935D02*
X70677130Y-98092839D01*
X70677130Y-98092839D02*
X70639035Y-98054744D01*
X70639035Y-98054744D02*
X70600940Y-97978554D01*
X70600940Y-97978554D02*
X70600940Y-97788077D01*
X70600940Y-97788077D02*
X70639035Y-97673792D01*
X71400940Y-97330934D02*
X70600940Y-97330934D01*
X71400940Y-96949982D02*
X70600940Y-96949982D01*
X70600940Y-96949982D02*
X71172368Y-96683316D01*
X71172368Y-96683316D02*
X70600940Y-96416649D01*
X70600940Y-96416649D02*
X71400940Y-96416649D01*
X71850800Y-98359506D02*
X72879371Y-99045220D01*
X72688895Y-97635696D02*
X72307942Y-97902363D01*
X72688895Y-98092839D02*
X71888895Y-98092839D01*
X71888895Y-98092839D02*
X71888895Y-97788077D01*
X71888895Y-97788077D02*
X71926990Y-97711887D01*
X71926990Y-97711887D02*
X71965085Y-97673792D01*
X71965085Y-97673792D02*
X72041276Y-97635696D01*
X72041276Y-97635696D02*
X72155561Y-97635696D01*
X72155561Y-97635696D02*
X72231752Y-97673792D01*
X72231752Y-97673792D02*
X72269847Y-97711887D01*
X72269847Y-97711887D02*
X72307942Y-97788077D01*
X72307942Y-97788077D02*
X72307942Y-98092839D01*
X72650800Y-97330935D02*
X72688895Y-97216649D01*
X72688895Y-97216649D02*
X72688895Y-97026173D01*
X72688895Y-97026173D02*
X72650800Y-96949982D01*
X72650800Y-96949982D02*
X72612704Y-96911887D01*
X72612704Y-96911887D02*
X72536514Y-96873792D01*
X72536514Y-96873792D02*
X72460323Y-96873792D01*
X72460323Y-96873792D02*
X72384133Y-96911887D01*
X72384133Y-96911887D02*
X72346038Y-96949982D01*
X72346038Y-96949982D02*
X72307942Y-97026173D01*
X72307942Y-97026173D02*
X72269847Y-97178554D01*
X72269847Y-97178554D02*
X72231752Y-97254744D01*
X72231752Y-97254744D02*
X72193657Y-97292839D01*
X72193657Y-97292839D02*
X72117466Y-97330935D01*
X72117466Y-97330935D02*
X72041276Y-97330935D01*
X72041276Y-97330935D02*
X71965085Y-97292839D01*
X71965085Y-97292839D02*
X71926990Y-97254744D01*
X71926990Y-97254744D02*
X71888895Y-97178554D01*
X71888895Y-97178554D02*
X71888895Y-96988077D01*
X71888895Y-96988077D02*
X71926990Y-96873792D01*
X71888895Y-96645220D02*
X71888895Y-96188077D01*
X72688895Y-96416649D02*
X71888895Y-96416649D01*
X70838465Y-99434540D02*
X70838465Y-100082159D01*
X70838465Y-100082159D02*
X70876560Y-100158349D01*
X70876560Y-100158349D02*
X70914655Y-100196445D01*
X70914655Y-100196445D02*
X70990846Y-100234540D01*
X70990846Y-100234540D02*
X71143227Y-100234540D01*
X71143227Y-100234540D02*
X71219417Y-100196445D01*
X71219417Y-100196445D02*
X71257512Y-100158349D01*
X71257512Y-100158349D02*
X71295608Y-100082159D01*
X71295608Y-100082159D02*
X71295608Y-99434540D01*
X71638464Y-100196445D02*
X71752750Y-100234540D01*
X71752750Y-100234540D02*
X71943226Y-100234540D01*
X71943226Y-100234540D02*
X72019417Y-100196445D01*
X72019417Y-100196445D02*
X72057512Y-100158349D01*
X72057512Y-100158349D02*
X72095607Y-100082159D01*
X72095607Y-100082159D02*
X72095607Y-100005968D01*
X72095607Y-100005968D02*
X72057512Y-99929778D01*
X72057512Y-99929778D02*
X72019417Y-99891683D01*
X72019417Y-99891683D02*
X71943226Y-99853587D01*
X71943226Y-99853587D02*
X71790845Y-99815492D01*
X71790845Y-99815492D02*
X71714655Y-99777397D01*
X71714655Y-99777397D02*
X71676560Y-99739302D01*
X71676560Y-99739302D02*
X71638464Y-99663111D01*
X71638464Y-99663111D02*
X71638464Y-99586921D01*
X71638464Y-99586921D02*
X71676560Y-99510730D01*
X71676560Y-99510730D02*
X71714655Y-99472635D01*
X71714655Y-99472635D02*
X71790845Y-99434540D01*
X71790845Y-99434540D02*
X71981322Y-99434540D01*
X71981322Y-99434540D02*
X72095607Y-99472635D01*
X72438465Y-100234540D02*
X72438465Y-99434540D01*
X72819417Y-100234540D02*
X72819417Y-99434540D01*
X72819417Y-99434540D02*
X73086083Y-100005968D01*
X73086083Y-100005968D02*
X73352750Y-99434540D01*
X73352750Y-99434540D02*
X73352750Y-100234540D01*
X70724179Y-100722495D02*
X70990846Y-101522495D01*
X70990846Y-101522495D02*
X71257512Y-100722495D01*
X71524179Y-101522495D02*
X71524179Y-100722495D01*
X71524179Y-100722495D02*
X71828941Y-100722495D01*
X71828941Y-100722495D02*
X71905131Y-100760590D01*
X71905131Y-100760590D02*
X71943226Y-100798685D01*
X71943226Y-100798685D02*
X71981322Y-100874876D01*
X71981322Y-100874876D02*
X71981322Y-100989161D01*
X71981322Y-100989161D02*
X71943226Y-101065352D01*
X71943226Y-101065352D02*
X71905131Y-101103447D01*
X71905131Y-101103447D02*
X71828941Y-101141542D01*
X71828941Y-101141542D02*
X71524179Y-101141542D01*
X72324179Y-101522495D02*
X72324179Y-100722495D01*
X72324179Y-100722495D02*
X72628941Y-100722495D01*
X72628941Y-100722495D02*
X72705131Y-100760590D01*
X72705131Y-100760590D02*
X72743226Y-100798685D01*
X72743226Y-100798685D02*
X72781322Y-100874876D01*
X72781322Y-100874876D02*
X72781322Y-100989161D01*
X72781322Y-100989161D02*
X72743226Y-101065352D01*
X72743226Y-101065352D02*
X72705131Y-101103447D01*
X72705131Y-101103447D02*
X72628941Y-101141542D01*
X72628941Y-101141542D02*
X72324179Y-101141542D01*
X105357065Y-77773495D02*
X105357065Y-76973495D01*
X105357065Y-76973495D02*
X105814208Y-77773495D01*
X105814208Y-77773495D02*
X105814208Y-76973495D01*
X106652303Y-77697304D02*
X106614207Y-77735400D01*
X106614207Y-77735400D02*
X106499922Y-77773495D01*
X106499922Y-77773495D02*
X106423731Y-77773495D01*
X106423731Y-77773495D02*
X106309445Y-77735400D01*
X106309445Y-77735400D02*
X106233255Y-77659209D01*
X106233255Y-77659209D02*
X106195160Y-77583019D01*
X106195160Y-77583019D02*
X106157064Y-77430638D01*
X106157064Y-77430638D02*
X106157064Y-77316352D01*
X106157064Y-77316352D02*
X106195160Y-77163971D01*
X106195160Y-77163971D02*
X106233255Y-77087780D01*
X106233255Y-77087780D02*
X106309445Y-77011590D01*
X106309445Y-77011590D02*
X106423731Y-76973495D01*
X106423731Y-76973495D02*
X106499922Y-76973495D01*
X106499922Y-76973495D02*
X106614207Y-77011590D01*
X106614207Y-77011590D02*
X106652303Y-77049685D01*
X98181493Y-64210000D02*
X97495779Y-65238571D01*
X98905303Y-65048095D02*
X98638636Y-64667142D01*
X98448160Y-65048095D02*
X98448160Y-64248095D01*
X98448160Y-64248095D02*
X98752922Y-64248095D01*
X98752922Y-64248095D02*
X98829112Y-64286190D01*
X98829112Y-64286190D02*
X98867207Y-64324285D01*
X98867207Y-64324285D02*
X98905303Y-64400476D01*
X98905303Y-64400476D02*
X98905303Y-64514761D01*
X98905303Y-64514761D02*
X98867207Y-64590952D01*
X98867207Y-64590952D02*
X98829112Y-64629047D01*
X98829112Y-64629047D02*
X98752922Y-64667142D01*
X98752922Y-64667142D02*
X98448160Y-64667142D01*
X99248160Y-65048095D02*
X99248160Y-64248095D01*
X99438636Y-65124285D02*
X100048159Y-65124285D01*
X100238636Y-65048095D02*
X100238636Y-64248095D01*
X100238636Y-64629047D02*
X100695779Y-64629047D01*
X100695779Y-65048095D02*
X100695779Y-64248095D01*
X101229112Y-64248095D02*
X101381493Y-64248095D01*
X101381493Y-64248095D02*
X101457683Y-64286190D01*
X101457683Y-64286190D02*
X101533874Y-64362380D01*
X101533874Y-64362380D02*
X101571969Y-64514761D01*
X101571969Y-64514761D02*
X101571969Y-64781428D01*
X101571969Y-64781428D02*
X101533874Y-64933809D01*
X101533874Y-64933809D02*
X101457683Y-65010000D01*
X101457683Y-65010000D02*
X101381493Y-65048095D01*
X101381493Y-65048095D02*
X101229112Y-65048095D01*
X101229112Y-65048095D02*
X101152921Y-65010000D01*
X101152921Y-65010000D02*
X101076731Y-64933809D01*
X101076731Y-64933809D02*
X101038635Y-64781428D01*
X101038635Y-64781428D02*
X101038635Y-64514761D01*
X101038635Y-64514761D02*
X101076731Y-64362380D01*
X101076731Y-64362380D02*
X101152921Y-64286190D01*
X101152921Y-64286190D02*
X101229112Y-64248095D01*
X101876730Y-65010000D02*
X101991016Y-65048095D01*
X101991016Y-65048095D02*
X102181492Y-65048095D01*
X102181492Y-65048095D02*
X102257683Y-65010000D01*
X102257683Y-65010000D02*
X102295778Y-64971904D01*
X102295778Y-64971904D02*
X102333873Y-64895714D01*
X102333873Y-64895714D02*
X102333873Y-64819523D01*
X102333873Y-64819523D02*
X102295778Y-64743333D01*
X102295778Y-64743333D02*
X102257683Y-64705238D01*
X102257683Y-64705238D02*
X102181492Y-64667142D01*
X102181492Y-64667142D02*
X102029111Y-64629047D01*
X102029111Y-64629047D02*
X101952921Y-64590952D01*
X101952921Y-64590952D02*
X101914826Y-64552857D01*
X101914826Y-64552857D02*
X101876730Y-64476666D01*
X101876730Y-64476666D02*
X101876730Y-64400476D01*
X101876730Y-64400476D02*
X101914826Y-64324285D01*
X101914826Y-64324285D02*
X101952921Y-64286190D01*
X101952921Y-64286190D02*
X102029111Y-64248095D01*
X102029111Y-64248095D02*
X102219588Y-64248095D01*
X102219588Y-64248095D02*
X102333873Y-64286190D01*
X102562445Y-64248095D02*
X103019588Y-64248095D01*
X102791016Y-65048095D02*
X102791016Y-64248095D01*
X103095779Y-65124285D02*
X103705302Y-65124285D01*
X103819588Y-64248095D02*
X104010064Y-65048095D01*
X104010064Y-65048095D02*
X104162445Y-64476666D01*
X104162445Y-64476666D02*
X104314826Y-65048095D01*
X104314826Y-65048095D02*
X104505303Y-64248095D01*
X104771969Y-64819523D02*
X105152922Y-64819523D01*
X104695779Y-65048095D02*
X104962446Y-64248095D01*
X104962446Y-64248095D02*
X105229112Y-65048095D01*
X105495779Y-65048095D02*
X105495779Y-64248095D01*
X105952922Y-65048095D02*
X105610064Y-64590952D01*
X105952922Y-64248095D02*
X105495779Y-64705238D01*
X106295779Y-64629047D02*
X106562445Y-64629047D01*
X106676731Y-65048095D02*
X106295779Y-65048095D01*
X106295779Y-65048095D02*
X106295779Y-64248095D01*
X106295779Y-64248095D02*
X106676731Y-64248095D01*
X93943540Y-80401620D02*
X93943540Y-79944477D01*
X94743540Y-80173049D02*
X93943540Y-80173049D01*
X94743540Y-79677810D02*
X93943540Y-79677810D01*
X94743540Y-79334953D02*
X94324492Y-79334953D01*
X94324492Y-79334953D02*
X94248302Y-79373048D01*
X94248302Y-79373048D02*
X94210206Y-79449239D01*
X94210206Y-79449239D02*
X94210206Y-79563525D01*
X94210206Y-79563525D02*
X94248302Y-79639715D01*
X94248302Y-79639715D02*
X94286397Y-79677810D01*
X94743540Y-78954000D02*
X94210206Y-78954000D01*
X93943540Y-78954000D02*
X93981635Y-78992096D01*
X93981635Y-78992096D02*
X94019730Y-78954000D01*
X94019730Y-78954000D02*
X93981635Y-78915905D01*
X93981635Y-78915905D02*
X93943540Y-78954000D01*
X93943540Y-78954000D02*
X94019730Y-78954000D01*
X94705445Y-78611144D02*
X94743540Y-78534953D01*
X94743540Y-78534953D02*
X94743540Y-78382572D01*
X94743540Y-78382572D02*
X94705445Y-78306382D01*
X94705445Y-78306382D02*
X94629254Y-78268286D01*
X94629254Y-78268286D02*
X94591159Y-78268286D01*
X94591159Y-78268286D02*
X94514968Y-78306382D01*
X94514968Y-78306382D02*
X94476873Y-78382572D01*
X94476873Y-78382572D02*
X94476873Y-78496858D01*
X94476873Y-78496858D02*
X94438778Y-78573048D01*
X94438778Y-78573048D02*
X94362587Y-78611144D01*
X94362587Y-78611144D02*
X94324492Y-78611144D01*
X94324492Y-78611144D02*
X94248302Y-78573048D01*
X94248302Y-78573048D02*
X94210206Y-78496858D01*
X94210206Y-78496858D02*
X94210206Y-78382572D01*
X94210206Y-78382572D02*
X94248302Y-78306382D01*
X94743540Y-77201620D02*
X94705445Y-77277810D01*
X94705445Y-77277810D02*
X94667349Y-77315905D01*
X94667349Y-77315905D02*
X94591159Y-77354001D01*
X94591159Y-77354001D02*
X94362587Y-77354001D01*
X94362587Y-77354001D02*
X94286397Y-77315905D01*
X94286397Y-77315905D02*
X94248302Y-77277810D01*
X94248302Y-77277810D02*
X94210206Y-77201620D01*
X94210206Y-77201620D02*
X94210206Y-77087334D01*
X94210206Y-77087334D02*
X94248302Y-77011143D01*
X94248302Y-77011143D02*
X94286397Y-76973048D01*
X94286397Y-76973048D02*
X94362587Y-76934953D01*
X94362587Y-76934953D02*
X94591159Y-76934953D01*
X94591159Y-76934953D02*
X94667349Y-76973048D01*
X94667349Y-76973048D02*
X94705445Y-77011143D01*
X94705445Y-77011143D02*
X94743540Y-77087334D01*
X94743540Y-77087334D02*
X94743540Y-77201620D01*
X94210206Y-76592095D02*
X94743540Y-76592095D01*
X94286397Y-76592095D02*
X94248302Y-76554000D01*
X94248302Y-76554000D02*
X94210206Y-76477810D01*
X94210206Y-76477810D02*
X94210206Y-76363524D01*
X94210206Y-76363524D02*
X94248302Y-76287333D01*
X94248302Y-76287333D02*
X94324492Y-76249238D01*
X94324492Y-76249238D02*
X94743540Y-76249238D01*
X94705445Y-75563523D02*
X94743540Y-75639714D01*
X94743540Y-75639714D02*
X94743540Y-75792095D01*
X94743540Y-75792095D02*
X94705445Y-75868285D01*
X94705445Y-75868285D02*
X94629254Y-75906381D01*
X94629254Y-75906381D02*
X94324492Y-75906381D01*
X94324492Y-75906381D02*
X94248302Y-75868285D01*
X94248302Y-75868285D02*
X94210206Y-75792095D01*
X94210206Y-75792095D02*
X94210206Y-75639714D01*
X94210206Y-75639714D02*
X94248302Y-75563523D01*
X94248302Y-75563523D02*
X94324492Y-75525428D01*
X94324492Y-75525428D02*
X94400683Y-75525428D01*
X94400683Y-75525428D02*
X94476873Y-75906381D01*
X94743540Y-74573047D02*
X94210206Y-74573047D01*
X93943540Y-74573047D02*
X93981635Y-74611143D01*
X93981635Y-74611143D02*
X94019730Y-74573047D01*
X94019730Y-74573047D02*
X93981635Y-74534952D01*
X93981635Y-74534952D02*
X93943540Y-74573047D01*
X93943540Y-74573047D02*
X94019730Y-74573047D01*
X94705445Y-74230191D02*
X94743540Y-74154000D01*
X94743540Y-74154000D02*
X94743540Y-74001619D01*
X94743540Y-74001619D02*
X94705445Y-73925429D01*
X94705445Y-73925429D02*
X94629254Y-73887333D01*
X94629254Y-73887333D02*
X94591159Y-73887333D01*
X94591159Y-73887333D02*
X94514968Y-73925429D01*
X94514968Y-73925429D02*
X94476873Y-74001619D01*
X94476873Y-74001619D02*
X94476873Y-74115905D01*
X94476873Y-74115905D02*
X94438778Y-74192095D01*
X94438778Y-74192095D02*
X94362587Y-74230191D01*
X94362587Y-74230191D02*
X94324492Y-74230191D01*
X94324492Y-74230191D02*
X94248302Y-74192095D01*
X94248302Y-74192095D02*
X94210206Y-74115905D01*
X94210206Y-74115905D02*
X94210206Y-74001619D01*
X94210206Y-74001619D02*
X94248302Y-73925429D01*
X96031495Y-80287334D02*
X95498161Y-80287334D01*
X95650542Y-80287334D02*
X95574352Y-80249239D01*
X95574352Y-80249239D02*
X95536257Y-80211144D01*
X95536257Y-80211144D02*
X95498161Y-80134953D01*
X95498161Y-80134953D02*
X95498161Y-80058763D01*
X96031495Y-79677811D02*
X95993400Y-79754001D01*
X95993400Y-79754001D02*
X95955304Y-79792096D01*
X95955304Y-79792096D02*
X95879114Y-79830192D01*
X95879114Y-79830192D02*
X95650542Y-79830192D01*
X95650542Y-79830192D02*
X95574352Y-79792096D01*
X95574352Y-79792096D02*
X95536257Y-79754001D01*
X95536257Y-79754001D02*
X95498161Y-79677811D01*
X95498161Y-79677811D02*
X95498161Y-79563525D01*
X95498161Y-79563525D02*
X95536257Y-79487334D01*
X95536257Y-79487334D02*
X95574352Y-79449239D01*
X95574352Y-79449239D02*
X95650542Y-79411144D01*
X95650542Y-79411144D02*
X95879114Y-79411144D01*
X95879114Y-79411144D02*
X95955304Y-79449239D01*
X95955304Y-79449239D02*
X95993400Y-79487334D01*
X95993400Y-79487334D02*
X96031495Y-79563525D01*
X96031495Y-79563525D02*
X96031495Y-79677811D01*
X95498161Y-79182572D02*
X95498161Y-78877810D01*
X95231495Y-79068286D02*
X95917209Y-79068286D01*
X95917209Y-79068286D02*
X95993400Y-79030191D01*
X95993400Y-79030191D02*
X96031495Y-78954001D01*
X96031495Y-78954001D02*
X96031495Y-78877810D01*
X96031495Y-78268286D02*
X95612447Y-78268286D01*
X95612447Y-78268286D02*
X95536257Y-78306381D01*
X95536257Y-78306381D02*
X95498161Y-78382572D01*
X95498161Y-78382572D02*
X95498161Y-78534953D01*
X95498161Y-78534953D02*
X95536257Y-78611143D01*
X95993400Y-78268286D02*
X96031495Y-78344477D01*
X96031495Y-78344477D02*
X96031495Y-78534953D01*
X96031495Y-78534953D02*
X95993400Y-78611143D01*
X95993400Y-78611143D02*
X95917209Y-78649239D01*
X95917209Y-78649239D02*
X95841019Y-78649239D01*
X95841019Y-78649239D02*
X95764828Y-78611143D01*
X95764828Y-78611143D02*
X95726733Y-78534953D01*
X95726733Y-78534953D02*
X95726733Y-78344477D01*
X95726733Y-78344477D02*
X95688638Y-78268286D01*
X95498161Y-78001619D02*
X95498161Y-77696857D01*
X95231495Y-77887333D02*
X95917209Y-77887333D01*
X95917209Y-77887333D02*
X95993400Y-77849238D01*
X95993400Y-77849238D02*
X96031495Y-77773048D01*
X96031495Y-77773048D02*
X96031495Y-77696857D01*
X95993400Y-77125428D02*
X96031495Y-77201619D01*
X96031495Y-77201619D02*
X96031495Y-77354000D01*
X96031495Y-77354000D02*
X95993400Y-77430190D01*
X95993400Y-77430190D02*
X95917209Y-77468286D01*
X95917209Y-77468286D02*
X95612447Y-77468286D01*
X95612447Y-77468286D02*
X95536257Y-77430190D01*
X95536257Y-77430190D02*
X95498161Y-77354000D01*
X95498161Y-77354000D02*
X95498161Y-77201619D01*
X95498161Y-77201619D02*
X95536257Y-77125428D01*
X95536257Y-77125428D02*
X95612447Y-77087333D01*
X95612447Y-77087333D02*
X95688638Y-77087333D01*
X95688638Y-77087333D02*
X95764828Y-77468286D01*
X96031495Y-76401619D02*
X95231495Y-76401619D01*
X95993400Y-76401619D02*
X96031495Y-76477810D01*
X96031495Y-76477810D02*
X96031495Y-76630191D01*
X96031495Y-76630191D02*
X95993400Y-76706381D01*
X95993400Y-76706381D02*
X95955304Y-76744476D01*
X95955304Y-76744476D02*
X95879114Y-76782572D01*
X95879114Y-76782572D02*
X95650542Y-76782572D01*
X95650542Y-76782572D02*
X95574352Y-76744476D01*
X95574352Y-76744476D02*
X95536257Y-76706381D01*
X95536257Y-76706381D02*
X95498161Y-76630191D01*
X95498161Y-76630191D02*
X95498161Y-76477810D01*
X95498161Y-76477810D02*
X95536257Y-76401619D01*
X95955304Y-76020666D02*
X95993400Y-75982571D01*
X95993400Y-75982571D02*
X96031495Y-76020666D01*
X96031495Y-76020666D02*
X95993400Y-76058762D01*
X95993400Y-76058762D02*
X95955304Y-76020666D01*
X95955304Y-76020666D02*
X96031495Y-76020666D01*
X95726733Y-76020666D02*
X95269590Y-76058762D01*
X95269590Y-76058762D02*
X95231495Y-76020666D01*
X95231495Y-76020666D02*
X95269590Y-75982571D01*
X95269590Y-75982571D02*
X95726733Y-76020666D01*
X95726733Y-76020666D02*
X95231495Y-76020666D01*
X104658493Y-46277600D02*
X103972779Y-47306171D01*
X104848969Y-46315695D02*
X105039445Y-47115695D01*
X105039445Y-47115695D02*
X105191826Y-46544266D01*
X105191826Y-46544266D02*
X105344207Y-47115695D01*
X105344207Y-47115695D02*
X105534684Y-46315695D01*
X105648970Y-47191885D02*
X106258493Y-47191885D01*
X106448970Y-47115695D02*
X106448970Y-46315695D01*
X106448970Y-46315695D02*
X106639446Y-46315695D01*
X106639446Y-46315695D02*
X106753732Y-46353790D01*
X106753732Y-46353790D02*
X106829922Y-46429980D01*
X106829922Y-46429980D02*
X106868017Y-46506171D01*
X106868017Y-46506171D02*
X106906113Y-46658552D01*
X106906113Y-46658552D02*
X106906113Y-46772838D01*
X106906113Y-46772838D02*
X106868017Y-46925219D01*
X106868017Y-46925219D02*
X106829922Y-47001409D01*
X106829922Y-47001409D02*
X106753732Y-47077600D01*
X106753732Y-47077600D02*
X106639446Y-47115695D01*
X106639446Y-47115695D02*
X106448970Y-47115695D01*
X71816312Y-42137295D02*
X71359169Y-42137295D01*
X71587741Y-42137295D02*
X71587741Y-41337295D01*
X71587741Y-41337295D02*
X71511550Y-41451580D01*
X71511550Y-41451580D02*
X71435360Y-41527771D01*
X71435360Y-41527771D02*
X71359169Y-41565866D01*
X72159170Y-42061104D02*
X72197265Y-42099200D01*
X72197265Y-42099200D02*
X72159170Y-42137295D01*
X72159170Y-42137295D02*
X72121074Y-42099200D01*
X72121074Y-42099200D02*
X72159170Y-42061104D01*
X72159170Y-42061104D02*
X72159170Y-42137295D01*
X72654407Y-41680152D02*
X72578217Y-41642057D01*
X72578217Y-41642057D02*
X72540122Y-41603961D01*
X72540122Y-41603961D02*
X72502026Y-41527771D01*
X72502026Y-41527771D02*
X72502026Y-41489676D01*
X72502026Y-41489676D02*
X72540122Y-41413485D01*
X72540122Y-41413485D02*
X72578217Y-41375390D01*
X72578217Y-41375390D02*
X72654407Y-41337295D01*
X72654407Y-41337295D02*
X72806788Y-41337295D01*
X72806788Y-41337295D02*
X72882979Y-41375390D01*
X72882979Y-41375390D02*
X72921074Y-41413485D01*
X72921074Y-41413485D02*
X72959169Y-41489676D01*
X72959169Y-41489676D02*
X72959169Y-41527771D01*
X72959169Y-41527771D02*
X72921074Y-41603961D01*
X72921074Y-41603961D02*
X72882979Y-41642057D01*
X72882979Y-41642057D02*
X72806788Y-41680152D01*
X72806788Y-41680152D02*
X72654407Y-41680152D01*
X72654407Y-41680152D02*
X72578217Y-41718247D01*
X72578217Y-41718247D02*
X72540122Y-41756342D01*
X72540122Y-41756342D02*
X72502026Y-41832533D01*
X72502026Y-41832533D02*
X72502026Y-41984914D01*
X72502026Y-41984914D02*
X72540122Y-42061104D01*
X72540122Y-42061104D02*
X72578217Y-42099200D01*
X72578217Y-42099200D02*
X72654407Y-42137295D01*
X72654407Y-42137295D02*
X72806788Y-42137295D01*
X72806788Y-42137295D02*
X72882979Y-42099200D01*
X72882979Y-42099200D02*
X72921074Y-42061104D01*
X72921074Y-42061104D02*
X72959169Y-41984914D01*
X72959169Y-41984914D02*
X72959169Y-41832533D01*
X72959169Y-41832533D02*
X72921074Y-41756342D01*
X72921074Y-41756342D02*
X72882979Y-41718247D01*
X72882979Y-41718247D02*
X72806788Y-41680152D01*
X73187741Y-41337295D02*
X73454408Y-42137295D01*
X73454408Y-42137295D02*
X73721074Y-41337295D01*
D11*
X104285180Y-77678095D02*
X103475657Y-77678095D01*
X103475657Y-77678095D02*
X103380419Y-77725714D01*
X103380419Y-77725714D02*
X103332800Y-77773333D01*
X103332800Y-77773333D02*
X103285180Y-77868571D01*
X103285180Y-77868571D02*
X103285180Y-78059047D01*
X103285180Y-78059047D02*
X103332800Y-78154285D01*
X103332800Y-78154285D02*
X103380419Y-78201904D01*
X103380419Y-78201904D02*
X103475657Y-78249523D01*
X103475657Y-78249523D02*
X104285180Y-78249523D01*
X104285180Y-78630476D02*
X104285180Y-79249523D01*
X104285180Y-79249523D02*
X103904228Y-78916190D01*
X103904228Y-78916190D02*
X103904228Y-79059047D01*
X103904228Y-79059047D02*
X103856609Y-79154285D01*
X103856609Y-79154285D02*
X103808990Y-79201904D01*
X103808990Y-79201904D02*
X103713752Y-79249523D01*
X103713752Y-79249523D02*
X103475657Y-79249523D01*
X103475657Y-79249523D02*
X103380419Y-79201904D01*
X103380419Y-79201904D02*
X103332800Y-79154285D01*
X103332800Y-79154285D02*
X103285180Y-79059047D01*
X103285180Y-79059047D02*
X103285180Y-78773333D01*
X103285180Y-78773333D02*
X103332800Y-78678095D01*
X103332800Y-78678095D02*
X103380419Y-78630476D01*
X104121980Y-77140001D02*
X103883885Y-77140001D01*
X103979123Y-76901906D02*
X103883885Y-77140001D01*
X103883885Y-77140001D02*
X103979123Y-77378096D01*
X103693409Y-76997144D02*
X103883885Y-77140001D01*
X103883885Y-77140001D02*
X103693409Y-77282858D01*
D10*
X78351295Y-62534923D02*
X78998914Y-62534923D01*
X78998914Y-62534923D02*
X79075104Y-62496828D01*
X79075104Y-62496828D02*
X79113200Y-62458733D01*
X79113200Y-62458733D02*
X79151295Y-62382542D01*
X79151295Y-62382542D02*
X79151295Y-62230161D01*
X79151295Y-62230161D02*
X79113200Y-62153971D01*
X79113200Y-62153971D02*
X79075104Y-62115876D01*
X79075104Y-62115876D02*
X78998914Y-62077780D01*
X78998914Y-62077780D02*
X78351295Y-62077780D01*
X78617961Y-61353971D02*
X79151295Y-61353971D01*
X78313200Y-61544447D02*
X78884628Y-61734924D01*
X78884628Y-61734924D02*
X78884628Y-61239685D01*
D11*
X74930619Y-61630406D02*
X74930619Y-62106596D01*
X74930619Y-62106596D02*
X73930619Y-62106596D01*
X74930619Y-60773263D02*
X74930619Y-61344691D01*
X74930619Y-61058977D02*
X73930619Y-61058977D01*
X73930619Y-61058977D02*
X74073476Y-61154215D01*
X74073476Y-61154215D02*
X74168714Y-61249453D01*
X74168714Y-61249453D02*
X74216333Y-61344691D01*
X100474619Y-54421266D02*
X99998428Y-54754599D01*
X100474619Y-54992694D02*
X99474619Y-54992694D01*
X99474619Y-54992694D02*
X99474619Y-54611742D01*
X99474619Y-54611742D02*
X99522238Y-54516504D01*
X99522238Y-54516504D02*
X99569857Y-54468885D01*
X99569857Y-54468885D02*
X99665095Y-54421266D01*
X99665095Y-54421266D02*
X99807952Y-54421266D01*
X99807952Y-54421266D02*
X99903190Y-54468885D01*
X99903190Y-54468885D02*
X99950809Y-54516504D01*
X99950809Y-54516504D02*
X99998428Y-54611742D01*
X99998428Y-54611742D02*
X99998428Y-54992694D01*
X99474619Y-54087932D02*
X99474619Y-53421266D01*
X99474619Y-53421266D02*
X100474619Y-53849837D01*
X93493933Y-60332780D02*
X93446314Y-60380400D01*
X93446314Y-60380400D02*
X93303457Y-60428019D01*
X93303457Y-60428019D02*
X93208219Y-60428019D01*
X93208219Y-60428019D02*
X93065362Y-60380400D01*
X93065362Y-60380400D02*
X92970124Y-60285161D01*
X92970124Y-60285161D02*
X92922505Y-60189923D01*
X92922505Y-60189923D02*
X92874886Y-59999447D01*
X92874886Y-59999447D02*
X92874886Y-59856590D01*
X92874886Y-59856590D02*
X92922505Y-59666114D01*
X92922505Y-59666114D02*
X92970124Y-59570876D01*
X92970124Y-59570876D02*
X93065362Y-59475638D01*
X93065362Y-59475638D02*
X93208219Y-59428019D01*
X93208219Y-59428019D02*
X93303457Y-59428019D01*
X93303457Y-59428019D02*
X93446314Y-59475638D01*
X93446314Y-59475638D02*
X93493933Y-59523257D01*
X94446314Y-60428019D02*
X93874886Y-60428019D01*
X94160600Y-60428019D02*
X94160600Y-59428019D01*
X94160600Y-59428019D02*
X94065362Y-59570876D01*
X94065362Y-59570876D02*
X93970124Y-59666114D01*
X93970124Y-59666114D02*
X93874886Y-59713733D01*
X97072019Y-59196466D02*
X96595828Y-59529799D01*
X97072019Y-59767894D02*
X96072019Y-59767894D01*
X96072019Y-59767894D02*
X96072019Y-59386942D01*
X96072019Y-59386942D02*
X96119638Y-59291704D01*
X96119638Y-59291704D02*
X96167257Y-59244085D01*
X96167257Y-59244085D02*
X96262495Y-59196466D01*
X96262495Y-59196466D02*
X96405352Y-59196466D01*
X96405352Y-59196466D02*
X96500590Y-59244085D01*
X96500590Y-59244085D02*
X96548209Y-59291704D01*
X96548209Y-59291704D02*
X96595828Y-59386942D01*
X96595828Y-59386942D02*
X96595828Y-59767894D01*
X96072019Y-58291704D02*
X96072019Y-58767894D01*
X96072019Y-58767894D02*
X96548209Y-58815513D01*
X96548209Y-58815513D02*
X96500590Y-58767894D01*
X96500590Y-58767894D02*
X96452971Y-58672656D01*
X96452971Y-58672656D02*
X96452971Y-58434561D01*
X96452971Y-58434561D02*
X96500590Y-58339323D01*
X96500590Y-58339323D02*
X96548209Y-58291704D01*
X96548209Y-58291704D02*
X96643447Y-58244085D01*
X96643447Y-58244085D02*
X96881542Y-58244085D01*
X96881542Y-58244085D02*
X96976780Y-58291704D01*
X96976780Y-58291704D02*
X97024400Y-58339323D01*
X97024400Y-58339323D02*
X97072019Y-58434561D01*
X97072019Y-58434561D02*
X97072019Y-58672656D01*
X97072019Y-58672656D02*
X97024400Y-58767894D01*
X97024400Y-58767894D02*
X96976780Y-58815513D01*
X76843266Y-38133618D02*
X76843266Y-38847903D01*
X76843266Y-38847903D02*
X76795647Y-38990760D01*
X76795647Y-38990760D02*
X76700409Y-39085999D01*
X76700409Y-39085999D02*
X76557552Y-39133618D01*
X76557552Y-39133618D02*
X76462314Y-39133618D01*
X77271838Y-38228856D02*
X77319457Y-38181237D01*
X77319457Y-38181237D02*
X77414695Y-38133618D01*
X77414695Y-38133618D02*
X77652790Y-38133618D01*
X77652790Y-38133618D02*
X77748028Y-38181237D01*
X77748028Y-38181237D02*
X77795647Y-38228856D01*
X77795647Y-38228856D02*
X77843266Y-38324094D01*
X77843266Y-38324094D02*
X77843266Y-38419332D01*
X77843266Y-38419332D02*
X77795647Y-38562189D01*
X77795647Y-38562189D02*
X77224219Y-39133618D01*
X77224219Y-39133618D02*
X77843266Y-39133618D01*
X100489133Y-50467619D02*
X100155800Y-49991428D01*
X99917705Y-50467619D02*
X99917705Y-49467619D01*
X99917705Y-49467619D02*
X100298657Y-49467619D01*
X100298657Y-49467619D02*
X100393895Y-49515238D01*
X100393895Y-49515238D02*
X100441514Y-49562857D01*
X100441514Y-49562857D02*
X100489133Y-49658095D01*
X100489133Y-49658095D02*
X100489133Y-49800952D01*
X100489133Y-49800952D02*
X100441514Y-49896190D01*
X100441514Y-49896190D02*
X100393895Y-49943809D01*
X100393895Y-49943809D02*
X100298657Y-49991428D01*
X100298657Y-49991428D02*
X99917705Y-49991428D01*
X101060562Y-49896190D02*
X100965324Y-49848571D01*
X100965324Y-49848571D02*
X100917705Y-49800952D01*
X100917705Y-49800952D02*
X100870086Y-49705714D01*
X100870086Y-49705714D02*
X100870086Y-49658095D01*
X100870086Y-49658095D02*
X100917705Y-49562857D01*
X100917705Y-49562857D02*
X100965324Y-49515238D01*
X100965324Y-49515238D02*
X101060562Y-49467619D01*
X101060562Y-49467619D02*
X101251038Y-49467619D01*
X101251038Y-49467619D02*
X101346276Y-49515238D01*
X101346276Y-49515238D02*
X101393895Y-49562857D01*
X101393895Y-49562857D02*
X101441514Y-49658095D01*
X101441514Y-49658095D02*
X101441514Y-49705714D01*
X101441514Y-49705714D02*
X101393895Y-49800952D01*
X101393895Y-49800952D02*
X101346276Y-49848571D01*
X101346276Y-49848571D02*
X101251038Y-49896190D01*
X101251038Y-49896190D02*
X101060562Y-49896190D01*
X101060562Y-49896190D02*
X100965324Y-49943809D01*
X100965324Y-49943809D02*
X100917705Y-49991428D01*
X100917705Y-49991428D02*
X100870086Y-50086666D01*
X100870086Y-50086666D02*
X100870086Y-50277142D01*
X100870086Y-50277142D02*
X100917705Y-50372380D01*
X100917705Y-50372380D02*
X100965324Y-50420000D01*
X100965324Y-50420000D02*
X101060562Y-50467619D01*
X101060562Y-50467619D02*
X101251038Y-50467619D01*
X101251038Y-50467619D02*
X101346276Y-50420000D01*
X101346276Y-50420000D02*
X101393895Y-50372380D01*
X101393895Y-50372380D02*
X101441514Y-50277142D01*
X101441514Y-50277142D02*
X101441514Y-50086666D01*
X101441514Y-50086666D02*
X101393895Y-49991428D01*
X101393895Y-49991428D02*
X101346276Y-49943809D01*
X101346276Y-49943809D02*
X101251038Y-49896190D01*
X88486066Y-99785019D02*
X88486066Y-100499304D01*
X88486066Y-100499304D02*
X88438447Y-100642161D01*
X88438447Y-100642161D02*
X88343209Y-100737400D01*
X88343209Y-100737400D02*
X88200352Y-100785019D01*
X88200352Y-100785019D02*
X88105114Y-100785019D01*
X89486066Y-100785019D02*
X88914638Y-100785019D01*
X89200352Y-100785019D02*
X89200352Y-99785019D01*
X89200352Y-99785019D02*
X89105114Y-99927876D01*
X89105114Y-99927876D02*
X89009876Y-100023114D01*
X89009876Y-100023114D02*
X88914638Y-100070733D01*
X74411601Y-89213216D02*
X74411601Y-89451311D01*
X74173506Y-89356073D02*
X74411601Y-89451311D01*
X74411601Y-89451311D02*
X74649696Y-89356073D01*
X74268744Y-89641787D02*
X74411601Y-89451311D01*
X74411601Y-89451311D02*
X74554458Y-89641787D01*
X88011619Y-56828366D02*
X88011619Y-57304556D01*
X88011619Y-57304556D02*
X87011619Y-57304556D01*
X87106857Y-56542651D02*
X87059238Y-56495032D01*
X87059238Y-56495032D02*
X87011619Y-56399794D01*
X87011619Y-56399794D02*
X87011619Y-56161699D01*
X87011619Y-56161699D02*
X87059238Y-56066461D01*
X87059238Y-56066461D02*
X87106857Y-56018842D01*
X87106857Y-56018842D02*
X87202095Y-55971223D01*
X87202095Y-55971223D02*
X87297333Y-55971223D01*
X87297333Y-55971223D02*
X87440190Y-56018842D01*
X87440190Y-56018842D02*
X88011619Y-56590270D01*
X88011619Y-56590270D02*
X88011619Y-55971223D01*
X74701866Y-55563619D02*
X74701866Y-56277904D01*
X74701866Y-56277904D02*
X74654247Y-56420761D01*
X74654247Y-56420761D02*
X74559009Y-56516000D01*
X74559009Y-56516000D02*
X74416152Y-56563619D01*
X74416152Y-56563619D02*
X74320914Y-56563619D01*
X75178057Y-56563619D02*
X75178057Y-55563619D01*
X75178057Y-55563619D02*
X75559009Y-55563619D01*
X75559009Y-55563619D02*
X75654247Y-55611238D01*
X75654247Y-55611238D02*
X75701866Y-55658857D01*
X75701866Y-55658857D02*
X75749485Y-55754095D01*
X75749485Y-55754095D02*
X75749485Y-55896952D01*
X75749485Y-55896952D02*
X75701866Y-55992190D01*
X75701866Y-55992190D02*
X75654247Y-56039809D01*
X75654247Y-56039809D02*
X75559009Y-56087428D01*
X75559009Y-56087428D02*
X75178057Y-56087428D01*
X76701866Y-56563619D02*
X76130438Y-56563619D01*
X76416152Y-56563619D02*
X76416152Y-55563619D01*
X76416152Y-55563619D02*
X76320914Y-55706476D01*
X76320914Y-55706476D02*
X76225676Y-55801714D01*
X76225676Y-55801714D02*
X76130438Y-55849333D01*
X83184819Y-78011904D02*
X83994342Y-78011904D01*
X83994342Y-78011904D02*
X84089580Y-77964285D01*
X84089580Y-77964285D02*
X84137200Y-77916666D01*
X84137200Y-77916666D02*
X84184819Y-77821428D01*
X84184819Y-77821428D02*
X84184819Y-77630952D01*
X84184819Y-77630952D02*
X84137200Y-77535714D01*
X84137200Y-77535714D02*
X84089580Y-77488095D01*
X84089580Y-77488095D02*
X83994342Y-77440476D01*
X83994342Y-77440476D02*
X83184819Y-77440476D01*
X83280057Y-77011904D02*
X83232438Y-76964285D01*
X83232438Y-76964285D02*
X83184819Y-76869047D01*
X83184819Y-76869047D02*
X83184819Y-76630952D01*
X83184819Y-76630952D02*
X83232438Y-76535714D01*
X83232438Y-76535714D02*
X83280057Y-76488095D01*
X83280057Y-76488095D02*
X83375295Y-76440476D01*
X83375295Y-76440476D02*
X83470533Y-76440476D01*
X83470533Y-76440476D02*
X83613390Y-76488095D01*
X83613390Y-76488095D02*
X84184819Y-77059523D01*
X84184819Y-77059523D02*
X84184819Y-76440476D01*
X83448219Y-78524999D02*
X83686314Y-78524999D01*
X83591076Y-78763094D02*
X83686314Y-78524999D01*
X83686314Y-78524999D02*
X83591076Y-78286904D01*
X83876790Y-78667856D02*
X83686314Y-78524999D01*
X83686314Y-78524999D02*
X83876790Y-78382142D01*
X95458033Y-50163819D02*
X95124700Y-49687628D01*
X94886605Y-50163819D02*
X94886605Y-49163819D01*
X94886605Y-49163819D02*
X95267557Y-49163819D01*
X95267557Y-49163819D02*
X95362795Y-49211438D01*
X95362795Y-49211438D02*
X95410414Y-49259057D01*
X95410414Y-49259057D02*
X95458033Y-49354295D01*
X95458033Y-49354295D02*
X95458033Y-49497152D01*
X95458033Y-49497152D02*
X95410414Y-49592390D01*
X95410414Y-49592390D02*
X95362795Y-49640009D01*
X95362795Y-49640009D02*
X95267557Y-49687628D01*
X95267557Y-49687628D02*
X94886605Y-49687628D01*
X96315176Y-49163819D02*
X96124700Y-49163819D01*
X96124700Y-49163819D02*
X96029462Y-49211438D01*
X96029462Y-49211438D02*
X95981843Y-49259057D01*
X95981843Y-49259057D02*
X95886605Y-49401914D01*
X95886605Y-49401914D02*
X95838986Y-49592390D01*
X95838986Y-49592390D02*
X95838986Y-49973342D01*
X95838986Y-49973342D02*
X95886605Y-50068580D01*
X95886605Y-50068580D02*
X95934224Y-50116200D01*
X95934224Y-50116200D02*
X96029462Y-50163819D01*
X96029462Y-50163819D02*
X96219938Y-50163819D01*
X96219938Y-50163819D02*
X96315176Y-50116200D01*
X96315176Y-50116200D02*
X96362795Y-50068580D01*
X96362795Y-50068580D02*
X96410414Y-49973342D01*
X96410414Y-49973342D02*
X96410414Y-49735247D01*
X96410414Y-49735247D02*
X96362795Y-49640009D01*
X96362795Y-49640009D02*
X96315176Y-49592390D01*
X96315176Y-49592390D02*
X96219938Y-49544771D01*
X96219938Y-49544771D02*
X96029462Y-49544771D01*
X96029462Y-49544771D02*
X95934224Y-49592390D01*
X95934224Y-49592390D02*
X95886605Y-49640009D01*
X95886605Y-49640009D02*
X95838986Y-49735247D01*
X84512533Y-57734459D02*
X84179200Y-57258268D01*
X83941105Y-57734459D02*
X83941105Y-56734459D01*
X83941105Y-56734459D02*
X84322057Y-56734459D01*
X84322057Y-56734459D02*
X84417295Y-56782078D01*
X84417295Y-56782078D02*
X84464914Y-56829697D01*
X84464914Y-56829697D02*
X84512533Y-56924935D01*
X84512533Y-56924935D02*
X84512533Y-57067792D01*
X84512533Y-57067792D02*
X84464914Y-57163030D01*
X84464914Y-57163030D02*
X84417295Y-57210649D01*
X84417295Y-57210649D02*
X84322057Y-57258268D01*
X84322057Y-57258268D02*
X83941105Y-57258268D01*
X84845867Y-56734459D02*
X85464914Y-56734459D01*
X85464914Y-56734459D02*
X85131581Y-57115411D01*
X85131581Y-57115411D02*
X85274438Y-57115411D01*
X85274438Y-57115411D02*
X85369676Y-57163030D01*
X85369676Y-57163030D02*
X85417295Y-57210649D01*
X85417295Y-57210649D02*
X85464914Y-57305887D01*
X85464914Y-57305887D02*
X85464914Y-57543982D01*
X85464914Y-57543982D02*
X85417295Y-57639220D01*
X85417295Y-57639220D02*
X85369676Y-57686840D01*
X85369676Y-57686840D02*
X85274438Y-57734459D01*
X85274438Y-57734459D02*
X84988724Y-57734459D01*
X84988724Y-57734459D02*
X84893486Y-57686840D01*
X84893486Y-57686840D02*
X84845867Y-57639220D01*
X85819819Y-61816006D02*
X85343628Y-62149339D01*
X85819819Y-62387434D02*
X84819819Y-62387434D01*
X84819819Y-62387434D02*
X84819819Y-62006482D01*
X84819819Y-62006482D02*
X84867438Y-61911244D01*
X84867438Y-61911244D02*
X84915057Y-61863625D01*
X84915057Y-61863625D02*
X85010295Y-61816006D01*
X85010295Y-61816006D02*
X85153152Y-61816006D01*
X85153152Y-61816006D02*
X85248390Y-61863625D01*
X85248390Y-61863625D02*
X85296009Y-61911244D01*
X85296009Y-61911244D02*
X85343628Y-62006482D01*
X85343628Y-62006482D02*
X85343628Y-62387434D01*
X85819819Y-60863625D02*
X85819819Y-61435053D01*
X85819819Y-61149339D02*
X84819819Y-61149339D01*
X84819819Y-61149339D02*
X84962676Y-61244577D01*
X84962676Y-61244577D02*
X85057914Y-61339815D01*
X85057914Y-61339815D02*
X85105533Y-61435053D01*
D10*
X88175676Y-109010619D02*
X88175676Y-108010619D01*
X88175676Y-108010619D02*
X88509009Y-108724904D01*
X88509009Y-108724904D02*
X88842342Y-108010619D01*
X88842342Y-108010619D02*
X88842342Y-109010619D01*
X89842342Y-109010619D02*
X89270914Y-109010619D01*
X89556628Y-109010619D02*
X89556628Y-108010619D01*
X89556628Y-108010619D02*
X89461390Y-108153476D01*
X89461390Y-108153476D02*
X89366152Y-108248714D01*
X89366152Y-108248714D02*
X89270914Y-108296333D01*
D11*
X82644819Y-55716666D02*
X82168628Y-56049999D01*
X82644819Y-56288094D02*
X81644819Y-56288094D01*
X81644819Y-56288094D02*
X81644819Y-55907142D01*
X81644819Y-55907142D02*
X81692438Y-55811904D01*
X81692438Y-55811904D02*
X81740057Y-55764285D01*
X81740057Y-55764285D02*
X81835295Y-55716666D01*
X81835295Y-55716666D02*
X81978152Y-55716666D01*
X81978152Y-55716666D02*
X82073390Y-55764285D01*
X82073390Y-55764285D02*
X82121009Y-55811904D01*
X82121009Y-55811904D02*
X82168628Y-55907142D01*
X82168628Y-55907142D02*
X82168628Y-56288094D01*
X81740057Y-55335713D02*
X81692438Y-55288094D01*
X81692438Y-55288094D02*
X81644819Y-55192856D01*
X81644819Y-55192856D02*
X81644819Y-54954761D01*
X81644819Y-54954761D02*
X81692438Y-54859523D01*
X81692438Y-54859523D02*
X81740057Y-54811904D01*
X81740057Y-54811904D02*
X81835295Y-54764285D01*
X81835295Y-54764285D02*
X81930533Y-54764285D01*
X81930533Y-54764285D02*
X82073390Y-54811904D01*
X82073390Y-54811904D02*
X82644819Y-55383332D01*
X82644819Y-55383332D02*
X82644819Y-54764285D01*
D10*
X91406895Y-57073923D02*
X92054514Y-57073923D01*
X92054514Y-57073923D02*
X92130704Y-57035828D01*
X92130704Y-57035828D02*
X92168800Y-56997733D01*
X92168800Y-56997733D02*
X92206895Y-56921542D01*
X92206895Y-56921542D02*
X92206895Y-56769161D01*
X92206895Y-56769161D02*
X92168800Y-56692971D01*
X92168800Y-56692971D02*
X92130704Y-56654876D01*
X92130704Y-56654876D02*
X92054514Y-56616780D01*
X92054514Y-56616780D02*
X91406895Y-56616780D01*
X91406895Y-55854876D02*
X91406895Y-56235828D01*
X91406895Y-56235828D02*
X91787847Y-56273924D01*
X91787847Y-56273924D02*
X91749752Y-56235828D01*
X91749752Y-56235828D02*
X91711657Y-56159638D01*
X91711657Y-56159638D02*
X91711657Y-55969162D01*
X91711657Y-55969162D02*
X91749752Y-55892971D01*
X91749752Y-55892971D02*
X91787847Y-55854876D01*
X91787847Y-55854876D02*
X91864038Y-55816781D01*
X91864038Y-55816781D02*
X92054514Y-55816781D01*
X92054514Y-55816781D02*
X92130704Y-55854876D01*
X92130704Y-55854876D02*
X92168800Y-55892971D01*
X92168800Y-55892971D02*
X92206895Y-55969162D01*
X92206895Y-55969162D02*
X92206895Y-56159638D01*
X92206895Y-56159638D02*
X92168800Y-56235828D01*
X92168800Y-56235828D02*
X92130704Y-56273924D01*
D11*
X88570266Y-50661419D02*
X88570266Y-51375704D01*
X88570266Y-51375704D02*
X88522647Y-51518561D01*
X88522647Y-51518561D02*
X88427409Y-51613800D01*
X88427409Y-51613800D02*
X88284552Y-51661419D01*
X88284552Y-51661419D02*
X88189314Y-51661419D01*
X89046457Y-51661419D02*
X89046457Y-50661419D01*
X89046457Y-50661419D02*
X89427409Y-50661419D01*
X89427409Y-50661419D02*
X89522647Y-50709038D01*
X89522647Y-50709038D02*
X89570266Y-50756657D01*
X89570266Y-50756657D02*
X89617885Y-50851895D01*
X89617885Y-50851895D02*
X89617885Y-50994752D01*
X89617885Y-50994752D02*
X89570266Y-51089990D01*
X89570266Y-51089990D02*
X89522647Y-51137609D01*
X89522647Y-51137609D02*
X89427409Y-51185228D01*
X89427409Y-51185228D02*
X89046457Y-51185228D01*
X89998838Y-50756657D02*
X90046457Y-50709038D01*
X90046457Y-50709038D02*
X90141695Y-50661419D01*
X90141695Y-50661419D02*
X90379790Y-50661419D01*
X90379790Y-50661419D02*
X90475028Y-50709038D01*
X90475028Y-50709038D02*
X90522647Y-50756657D01*
X90522647Y-50756657D02*
X90570266Y-50851895D01*
X90570266Y-50851895D02*
X90570266Y-50947133D01*
X90570266Y-50947133D02*
X90522647Y-51089990D01*
X90522647Y-51089990D02*
X89951219Y-51661419D01*
X89951219Y-51661419D02*
X90570266Y-51661419D01*
X78583580Y-58349506D02*
X78631200Y-58397125D01*
X78631200Y-58397125D02*
X78678819Y-58539982D01*
X78678819Y-58539982D02*
X78678819Y-58635220D01*
X78678819Y-58635220D02*
X78631200Y-58778077D01*
X78631200Y-58778077D02*
X78535961Y-58873315D01*
X78535961Y-58873315D02*
X78440723Y-58920934D01*
X78440723Y-58920934D02*
X78250247Y-58968553D01*
X78250247Y-58968553D02*
X78107390Y-58968553D01*
X78107390Y-58968553D02*
X77916914Y-58920934D01*
X77916914Y-58920934D02*
X77821676Y-58873315D01*
X77821676Y-58873315D02*
X77726438Y-58778077D01*
X77726438Y-58778077D02*
X77678819Y-58635220D01*
X77678819Y-58635220D02*
X77678819Y-58539982D01*
X77678819Y-58539982D02*
X77726438Y-58397125D01*
X77726438Y-58397125D02*
X77774057Y-58349506D01*
X77774057Y-57968553D02*
X77726438Y-57920934D01*
X77726438Y-57920934D02*
X77678819Y-57825696D01*
X77678819Y-57825696D02*
X77678819Y-57587601D01*
X77678819Y-57587601D02*
X77726438Y-57492363D01*
X77726438Y-57492363D02*
X77774057Y-57444744D01*
X77774057Y-57444744D02*
X77869295Y-57397125D01*
X77869295Y-57397125D02*
X77964533Y-57397125D01*
X77964533Y-57397125D02*
X78107390Y-57444744D01*
X78107390Y-57444744D02*
X78678819Y-58016172D01*
X78678819Y-58016172D02*
X78678819Y-57397125D01*
X73524819Y-77721904D02*
X74334342Y-77721904D01*
X74334342Y-77721904D02*
X74429580Y-77674285D01*
X74429580Y-77674285D02*
X74477200Y-77626666D01*
X74477200Y-77626666D02*
X74524819Y-77531428D01*
X74524819Y-77531428D02*
X74524819Y-77340952D01*
X74524819Y-77340952D02*
X74477200Y-77245714D01*
X74477200Y-77245714D02*
X74429580Y-77198095D01*
X74429580Y-77198095D02*
X74334342Y-77150476D01*
X74334342Y-77150476D02*
X73524819Y-77150476D01*
X74524819Y-76150476D02*
X74524819Y-76721904D01*
X74524819Y-76436190D02*
X73524819Y-76436190D01*
X73524819Y-76436190D02*
X73667676Y-76531428D01*
X73667676Y-76531428D02*
X73762914Y-76626666D01*
X73762914Y-76626666D02*
X73810533Y-76721904D01*
X73649219Y-78347199D02*
X73887314Y-78347199D01*
X73792076Y-78585294D02*
X73887314Y-78347199D01*
X73887314Y-78347199D02*
X73792076Y-78109104D01*
X74077790Y-78490056D02*
X73887314Y-78347199D01*
X73887314Y-78347199D02*
X74077790Y-78204342D01*
X92564333Y-50753380D02*
X92516714Y-50801000D01*
X92516714Y-50801000D02*
X92373857Y-50848619D01*
X92373857Y-50848619D02*
X92278619Y-50848619D01*
X92278619Y-50848619D02*
X92135762Y-50801000D01*
X92135762Y-50801000D02*
X92040524Y-50705761D01*
X92040524Y-50705761D02*
X91992905Y-50610523D01*
X91992905Y-50610523D02*
X91945286Y-50420047D01*
X91945286Y-50420047D02*
X91945286Y-50277190D01*
X91945286Y-50277190D02*
X91992905Y-50086714D01*
X91992905Y-50086714D02*
X92040524Y-49991476D01*
X92040524Y-49991476D02*
X92135762Y-49896238D01*
X92135762Y-49896238D02*
X92278619Y-49848619D01*
X92278619Y-49848619D02*
X92373857Y-49848619D01*
X92373857Y-49848619D02*
X92516714Y-49896238D01*
X92516714Y-49896238D02*
X92564333Y-49943857D01*
X93421476Y-50181952D02*
X93421476Y-50848619D01*
X93183381Y-49801000D02*
X92945286Y-50515285D01*
X92945286Y-50515285D02*
X93564333Y-50515285D01*
X80534933Y-65795220D02*
X80487314Y-65842840D01*
X80487314Y-65842840D02*
X80344457Y-65890459D01*
X80344457Y-65890459D02*
X80249219Y-65890459D01*
X80249219Y-65890459D02*
X80106362Y-65842840D01*
X80106362Y-65842840D02*
X80011124Y-65747601D01*
X80011124Y-65747601D02*
X79963505Y-65652363D01*
X79963505Y-65652363D02*
X79915886Y-65461887D01*
X79915886Y-65461887D02*
X79915886Y-65319030D01*
X79915886Y-65319030D02*
X79963505Y-65128554D01*
X79963505Y-65128554D02*
X80011124Y-65033316D01*
X80011124Y-65033316D02*
X80106362Y-64938078D01*
X80106362Y-64938078D02*
X80249219Y-64890459D01*
X80249219Y-64890459D02*
X80344457Y-64890459D01*
X80344457Y-64890459D02*
X80487314Y-64938078D01*
X80487314Y-64938078D02*
X80534933Y-64985697D01*
X80868267Y-64890459D02*
X81487314Y-64890459D01*
X81487314Y-64890459D02*
X81153981Y-65271411D01*
X81153981Y-65271411D02*
X81296838Y-65271411D01*
X81296838Y-65271411D02*
X81392076Y-65319030D01*
X81392076Y-65319030D02*
X81439695Y-65366649D01*
X81439695Y-65366649D02*
X81487314Y-65461887D01*
X81487314Y-65461887D02*
X81487314Y-65699982D01*
X81487314Y-65699982D02*
X81439695Y-65795220D01*
X81439695Y-65795220D02*
X81392076Y-65842840D01*
X81392076Y-65842840D02*
X81296838Y-65890459D01*
X81296838Y-65890459D02*
X81011124Y-65890459D01*
X81011124Y-65890459D02*
X80915886Y-65842840D01*
X80915886Y-65842840D02*
X80868267Y-65795220D01*
D12*
X96718800Y-75934201D02*
X96718800Y-76680260D01*
X96718800Y-77599740D02*
X96718800Y-78180262D01*
X96718800Y-79099742D02*
X96718800Y-79845801D01*
X102611600Y-76680260D02*
X102611600Y-75934201D01*
X102611600Y-78180262D02*
X102611600Y-77599740D01*
X102611600Y-79845801D02*
X102611600Y-79099742D01*
D13*
G36*
X98105701Y-75502401D02*
G01*
X97724701Y-75502401D01*
X97724701Y-75248401D01*
X98105701Y-75248401D01*
X98105701Y-75502401D01*
G37*
G36*
X100605701Y-80531601D02*
G01*
X100224701Y-80531601D01*
X100224701Y-80277601D01*
X100605701Y-80277601D01*
X100605701Y-80531601D01*
G37*
D14*
X80510200Y-60286840D02*
X80680200Y-60286840D01*
X80680200Y-62386840D02*
X80510200Y-62386840D01*
D15*
X79095200Y-60586840D02*
G75*
G02*
X78895200Y-60586840I-100000J0D01*
G01*
X78895200Y-60586840D02*
G75*
G02*
X79095200Y-60586840I100000J0D01*
G01*
D16*
X75415800Y-61724992D02*
X75415800Y-61202488D01*
X77635800Y-61724992D02*
X77635800Y-61202488D01*
X97634800Y-54027536D02*
X97634800Y-54481664D01*
X99104800Y-54027536D02*
X99104800Y-54481664D01*
X93921852Y-57558200D02*
X93399348Y-57558200D01*
X93921852Y-59028200D02*
X93399348Y-59028200D01*
X95602800Y-56511764D02*
X95602800Y-56057636D01*
X97072800Y-56511764D02*
X97072800Y-56057636D01*
D14*
X74251600Y-39613799D02*
X103251600Y-39613799D01*
X74251600Y-47513799D02*
X74251600Y-39613799D01*
X74401600Y-47513799D02*
X74251600Y-47513799D01*
X78901600Y-47513799D02*
X98601600Y-47513799D01*
X103251600Y-39613799D02*
X103251600Y-47513799D01*
X103251600Y-47513799D02*
X103101600Y-47513799D01*
D16*
X95299836Y-52783000D02*
X95753964Y-52783000D01*
X95299836Y-54253000D02*
X95753964Y-54253000D01*
D12*
X73625900Y-88631399D02*
X73625900Y-95349260D01*
X75722824Y-99096199D02*
X76299360Y-99096199D01*
X76696744Y-88631399D02*
X73625900Y-88631399D01*
X83203840Y-99096199D02*
X85899359Y-99096199D01*
X86296745Y-88631399D02*
X83606458Y-88631399D01*
X100803838Y-99096199D02*
X101780376Y-99096199D01*
X103877300Y-88631399D02*
X101206456Y-88631399D01*
X103877300Y-95349260D02*
X103877300Y-88631399D01*
D16*
X88496800Y-56922952D02*
X88496800Y-56400448D01*
X90716800Y-56922952D02*
X90716800Y-56400448D01*
X74094800Y-58237600D02*
X74094800Y-57637600D01*
X74794800Y-56937600D02*
X76194800Y-56937600D01*
X76194800Y-58937600D02*
X74794800Y-58937600D01*
X76894800Y-57637600D02*
X76894800Y-58237600D01*
X74094800Y-57637600D02*
G75*
G02*
X74794800Y-56937600I700000J0D01*
G01*
X74794800Y-58937600D02*
G75*
G02*
X74094800Y-58237600I0J700000D01*
G01*
X76194800Y-56937600D02*
G75*
G02*
X76894800Y-57637600I1J-699999D01*
G01*
X76894800Y-58237600D02*
G75*
G02*
X76194800Y-58937600I-699999J-1D01*
G01*
D12*
X84958600Y-75819200D02*
X84958600Y-76565259D01*
X84958600Y-77484739D02*
X84958600Y-78065261D01*
X84958600Y-78984741D02*
X84958600Y-79730800D01*
X90851400Y-76565259D02*
X90851400Y-75819200D01*
X90851400Y-78065261D02*
X90851400Y-77484739D01*
X90851400Y-79730800D02*
X90851400Y-78984741D01*
D13*
G36*
X87345499Y-75387400D02*
G01*
X86964499Y-75387400D01*
X86964499Y-75133400D01*
X87345499Y-75133400D01*
X87345499Y-75387400D01*
G37*
G36*
X89845499Y-80416600D02*
G01*
X89464499Y-80416600D01*
X89464499Y-80162600D01*
X89845499Y-80162600D01*
X89845499Y-80416600D01*
G37*
D16*
X95397636Y-50624000D02*
X95851764Y-50624000D01*
X95397636Y-52094000D02*
X95851764Y-52094000D01*
X84452136Y-58194640D02*
X84906264Y-58194640D01*
X84452136Y-59664640D02*
X84906264Y-59664640D01*
X82623400Y-61876404D02*
X82623400Y-61422276D01*
X84093400Y-61876404D02*
X84093400Y-61422276D01*
X81226400Y-57964076D02*
X81226400Y-58418204D01*
X82696400Y-57964076D02*
X82696400Y-58418204D01*
D14*
X93558800Y-54843600D02*
X93728800Y-54843600D01*
X93728800Y-56943600D02*
X93558800Y-56943600D01*
D15*
X92143800Y-55143600D02*
G75*
G02*
X91943800Y-55143600I-100000J0D01*
G01*
X91943800Y-55143600D02*
G75*
G02*
X92143800Y-55143600I100000J0D01*
G01*
D16*
X88145600Y-53437000D02*
X88145600Y-52837000D01*
X88845600Y-52137000D02*
X90245600Y-52137000D01*
X90245600Y-54137000D02*
X88845600Y-54137000D01*
X90945600Y-52837000D02*
X90945600Y-53437000D01*
X88145600Y-52837000D02*
G75*
G02*
X88845600Y-52137000I700000J0D01*
G01*
X88845600Y-54137000D02*
G75*
G02*
X88145600Y-53437000I0J700000D01*
G01*
X90245600Y-52137000D02*
G75*
G02*
X90945600Y-52837000I1J-699999D01*
G01*
X90945600Y-53437000D02*
G75*
G02*
X90245600Y-54137000I-699999J-1D01*
G01*
X79169000Y-58444092D02*
X79169000Y-57921588D01*
X80639000Y-58444092D02*
X80639000Y-57921588D01*
D12*
X75159600Y-75641400D02*
X75159600Y-76387459D01*
X75159600Y-77306939D02*
X75159600Y-77887461D01*
X75159600Y-78806941D02*
X75159600Y-79553000D01*
X81052400Y-76387459D02*
X81052400Y-75641400D01*
X81052400Y-77887461D02*
X81052400Y-77306939D01*
X81052400Y-79553000D02*
X81052400Y-78806941D01*
D13*
G36*
X77546499Y-75209600D02*
G01*
X77165499Y-75209600D01*
X77165499Y-74955600D01*
X77546499Y-74955600D01*
X77546499Y-75209600D01*
G37*
G36*
X80046499Y-80238800D02*
G01*
X79665499Y-80238800D01*
X79665499Y-79984800D01*
X80046499Y-79984800D01*
X80046499Y-80238800D01*
G37*
D16*
X92046800Y-53032452D02*
X92046800Y-52509948D01*
X93516800Y-53032452D02*
X93516800Y-52509948D01*
X80962852Y-63020640D02*
X80440348Y-63020640D01*
X80962852Y-64490640D02*
X80440348Y-64490640D01*
%LPC*%
D17*
X80240200Y-60796840D02*
X79480200Y-60796840D01*
X79480200Y-60376840D01*
X80240200Y-60376840D01*
X80240200Y-60796840D01*
G36*
X80240200Y-60796840D02*
G01*
X79480200Y-60796840D01*
X79480200Y-60376840D01*
X80240200Y-60376840D01*
X80240200Y-60796840D01*
G37*
X80240200Y-61296840D02*
X79480200Y-61296840D01*
X79480200Y-60876840D01*
X80240200Y-60876840D01*
X80240200Y-61296840D01*
G36*
X80240200Y-61296840D02*
G01*
X79480200Y-61296840D01*
X79480200Y-60876840D01*
X80240200Y-60876840D01*
X80240200Y-61296840D01*
G37*
X80240200Y-61796840D02*
X79480200Y-61796840D01*
X79480200Y-61376840D01*
X80240200Y-61376840D01*
X80240200Y-61796840D01*
G36*
X80240200Y-61796840D02*
G01*
X79480200Y-61796840D01*
X79480200Y-61376840D01*
X80240200Y-61376840D01*
X80240200Y-61796840D01*
G37*
X80240200Y-62296840D02*
X79480200Y-62296840D01*
X79480200Y-61876840D01*
X80240200Y-61876840D01*
X80240200Y-62296840D01*
G36*
X80240200Y-62296840D02*
G01*
X79480200Y-62296840D01*
X79480200Y-61876840D01*
X80240200Y-61876840D01*
X80240200Y-62296840D01*
G37*
X81710200Y-60796840D02*
X80950200Y-60796840D01*
X80950200Y-60376840D01*
X81710200Y-60376840D01*
X81710200Y-60796840D01*
G36*
X81710200Y-60796840D02*
G01*
X80950200Y-60796840D01*
X80950200Y-60376840D01*
X81710200Y-60376840D01*
X81710200Y-60796840D01*
G37*
X81710200Y-61296840D02*
X80950200Y-61296840D01*
X80950200Y-60876840D01*
X81710200Y-60876840D01*
X81710200Y-61296840D01*
G36*
X81710200Y-61296840D02*
G01*
X80950200Y-61296840D01*
X80950200Y-60876840D01*
X81710200Y-60876840D01*
X81710200Y-61296840D01*
G37*
X81710200Y-61796840D02*
X80950200Y-61796840D01*
X80950200Y-61376840D01*
X81710200Y-61376840D01*
X81710200Y-61796840D01*
G36*
X81710200Y-61796840D02*
G01*
X80950200Y-61796840D01*
X80950200Y-61376840D01*
X81710200Y-61376840D01*
X81710200Y-61796840D01*
G37*
X81710200Y-62296840D02*
X80950200Y-62296840D01*
X80950200Y-61876840D01*
X81710200Y-61876840D01*
X81710200Y-62296840D01*
G36*
X81710200Y-62296840D02*
G01*
X80950200Y-62296840D01*
X80950200Y-61876840D01*
X81710200Y-61876840D01*
X81710200Y-62296840D01*
G37*
G36*
X75644800Y-58687600D02*
G01*
X75344800Y-58687600D01*
X75344800Y-57187600D01*
X75644800Y-57187600D01*
X75644800Y-58687600D01*
G37*
X93288800Y-55353600D02*
X92528800Y-55353600D01*
X92528800Y-54933600D01*
X93288800Y-54933600D01*
X93288800Y-55353600D01*
G36*
X93288800Y-55353600D02*
G01*
X92528800Y-55353600D01*
X92528800Y-54933600D01*
X93288800Y-54933600D01*
X93288800Y-55353600D01*
G37*
X93288800Y-55853600D02*
X92528800Y-55853600D01*
X92528800Y-55433600D01*
X93288800Y-55433600D01*
X93288800Y-55853600D01*
G36*
X93288800Y-55853600D02*
G01*
X92528800Y-55853600D01*
X92528800Y-55433600D01*
X93288800Y-55433600D01*
X93288800Y-55853600D01*
G37*
X93288800Y-56353600D02*
X92528800Y-56353600D01*
X92528800Y-55933600D01*
X93288800Y-55933600D01*
X93288800Y-56353600D01*
G36*
X93288800Y-56353600D02*
G01*
X92528800Y-56353600D01*
X92528800Y-55933600D01*
X93288800Y-55933600D01*
X93288800Y-56353600D01*
G37*
X93288800Y-56853600D02*
X92528800Y-56853600D01*
X92528800Y-56433600D01*
X93288800Y-56433600D01*
X93288800Y-56853600D01*
G36*
X93288800Y-56853600D02*
G01*
X92528800Y-56853600D01*
X92528800Y-56433600D01*
X93288800Y-56433600D01*
X93288800Y-56853600D01*
G37*
X94758800Y-55353600D02*
X93998800Y-55353600D01*
X93998800Y-54933600D01*
X94758800Y-54933600D01*
X94758800Y-55353600D01*
G36*
X94758800Y-55353600D02*
G01*
X93998800Y-55353600D01*
X93998800Y-54933600D01*
X94758800Y-54933600D01*
X94758800Y-55353600D01*
G37*
X94758800Y-55853600D02*
X93998800Y-55853600D01*
X93998800Y-55433600D01*
X94758800Y-55433600D01*
X94758800Y-55853600D01*
G36*
X94758800Y-55853600D02*
G01*
X93998800Y-55853600D01*
X93998800Y-55433600D01*
X94758800Y-55433600D01*
X94758800Y-55853600D01*
G37*
X94758800Y-56353600D02*
X93998800Y-56353600D01*
X93998800Y-55933600D01*
X94758800Y-55933600D01*
X94758800Y-56353600D01*
G36*
X94758800Y-56353600D02*
G01*
X93998800Y-56353600D01*
X93998800Y-55933600D01*
X94758800Y-55933600D01*
X94758800Y-56353600D01*
G37*
X94758800Y-56853600D02*
X93998800Y-56853600D01*
X93998800Y-56433600D01*
X94758800Y-56433600D01*
X94758800Y-56853600D01*
G36*
X94758800Y-56853600D02*
G01*
X93998800Y-56853600D01*
X93998800Y-56433600D01*
X94758800Y-56433600D01*
X94758800Y-56853600D01*
G37*
G36*
X89695600Y-53887000D02*
G01*
X89395600Y-53887000D01*
X89395600Y-52387000D01*
X89695600Y-52387000D01*
X89695600Y-53887000D01*
G37*
D18*
X102383000Y-77140000D03*
D19*
X101915201Y-76162801D03*
X101415199Y-76162801D03*
X100915200Y-76162801D03*
X100415201Y-76162801D03*
X99915200Y-76162801D03*
X99415200Y-76162801D03*
X98915199Y-76162801D03*
X98415200Y-76162801D03*
X97915201Y-76162801D03*
X97415199Y-76162801D03*
D18*
X96947400Y-77140000D03*
X96947400Y-78640002D03*
D19*
X97415199Y-79617201D03*
X97915201Y-79617201D03*
X98415200Y-79617201D03*
X98915199Y-79617201D03*
X99415200Y-79617201D03*
X99915200Y-79617201D03*
X100415201Y-79617201D03*
X100915200Y-79617201D03*
X101415199Y-79617201D03*
X101915201Y-79617201D03*
D18*
X102383000Y-78640002D03*
D20*
X99665200Y-77890001D03*
G36*
G01*
X77375799Y-63338740D02*
X75675801Y-63338740D01*
G75*
G02*
X75425800Y-63088739I0J250001D01*
G01*
X75425800Y-62163741D01*
G75*
G02*
X75675801Y-61913740I250001J0D01*
G01*
X77375799Y-61913740D01*
G75*
G02*
X77625800Y-62163741I0J-250001D01*
G01*
X77625800Y-63088739D01*
G75*
G02*
X77375799Y-63338740I-250001J0D01*
G01*
G37*
G36*
G01*
X77375799Y-61013740D02*
X75675801Y-61013740D01*
G75*
G02*
X75425800Y-60763739I0J250001D01*
G01*
X75425800Y-59838741D01*
G75*
G02*
X75675801Y-59588740I250001J0D01*
G01*
X77375799Y-59588740D01*
G75*
G02*
X77625800Y-59838741I0J-250001D01*
G01*
X77625800Y-60763739D01*
G75*
G02*
X77375799Y-61013740I-250001J0D01*
G01*
G37*
G36*
G01*
X97919800Y-52829600D02*
X98819800Y-52829600D01*
G75*
G02*
X99069800Y-53079600I0J-250000D01*
G01*
X99069800Y-53604600D01*
G75*
G02*
X98819800Y-53854600I-250000J0D01*
G01*
X97919800Y-53854600D01*
G75*
G02*
X97669800Y-53604600I0J250000D01*
G01*
X97669800Y-53079600D01*
G75*
G02*
X97919800Y-52829600I250000J0D01*
G01*
G37*
G36*
G01*
X97919800Y-54654600D02*
X98819800Y-54654600D01*
G75*
G02*
X99069800Y-54904600I0J-250000D01*
G01*
X99069800Y-55429600D01*
G75*
G02*
X98819800Y-55679600I-250000J0D01*
G01*
X97919800Y-55679600D01*
G75*
G02*
X97669800Y-55429600I0J250000D01*
G01*
X97669800Y-54904600D01*
G75*
G02*
X97919800Y-54654600I250000J0D01*
G01*
G37*
G36*
G01*
X95110600Y-57818200D02*
X95110600Y-58768200D01*
G75*
G02*
X94860600Y-59018200I-250000J0D01*
G01*
X94360600Y-59018200D01*
G75*
G02*
X94110600Y-58768200I0J250000D01*
G01*
X94110600Y-57818200D01*
G75*
G02*
X94360600Y-57568200I250000J0D01*
G01*
X94860600Y-57568200D01*
G75*
G02*
X95110600Y-57818200I0J-250000D01*
G01*
G37*
G36*
G01*
X93210600Y-57818200D02*
X93210600Y-58768200D01*
G75*
G02*
X92960600Y-59018200I-250000J0D01*
G01*
X92460600Y-59018200D01*
G75*
G02*
X92210600Y-58768200I0J250000D01*
G01*
X92210600Y-57818200D01*
G75*
G02*
X92460600Y-57568200I250000J0D01*
G01*
X92960600Y-57568200D01*
G75*
G02*
X93210600Y-57818200I0J-250000D01*
G01*
G37*
G36*
G01*
X96787800Y-57709700D02*
X95887800Y-57709700D01*
G75*
G02*
X95637800Y-57459700I0J250000D01*
G01*
X95637800Y-56934700D01*
G75*
G02*
X95887800Y-56684700I250000J0D01*
G01*
X96787800Y-56684700D01*
G75*
G02*
X97037800Y-56934700I0J-250000D01*
G01*
X97037800Y-57459700D01*
G75*
G02*
X96787800Y-57709700I-250000J0D01*
G01*
G37*
G36*
G01*
X96787800Y-55884700D02*
X95887800Y-55884700D01*
G75*
G02*
X95637800Y-55634700I0J250000D01*
G01*
X95637800Y-55109700D01*
G75*
G02*
X95887800Y-54859700I250000J0D01*
G01*
X96787800Y-54859700D01*
G75*
G02*
X97037800Y-55109700I0J-250000D01*
G01*
X97037800Y-55634700D01*
G75*
G02*
X96787800Y-55884700I-250000J0D01*
G01*
G37*
D21*
X76651600Y-43563799D03*
D22*
X100851600Y-43563799D03*
G36*
G01*
X75799600Y-41763799D02*
X75799600Y-39863799D01*
G75*
G02*
X75901600Y-39761799I102000J0D01*
G01*
X77401600Y-39761799D01*
G75*
G02*
X77503600Y-39863799I0J-102000D01*
G01*
X77503600Y-41763799D01*
G75*
G02*
X77401600Y-41865799I-102000J0D01*
G01*
X75901600Y-41865799D01*
G75*
G02*
X75799600Y-41763799I0J102000D01*
G01*
G37*
G36*
G01*
X74699600Y-48063799D02*
X74699600Y-45363799D01*
G75*
G02*
X74801600Y-45261799I102000J0D01*
G01*
X76001600Y-45261799D01*
G75*
G02*
X76103600Y-45363799I0J-102000D01*
G01*
X76103600Y-48063799D01*
G75*
G02*
X76001600Y-48165799I-102000J0D01*
G01*
X74801600Y-48165799D01*
G75*
G02*
X74699600Y-48063799I0J102000D01*
G01*
G37*
G36*
G01*
X77199600Y-48063799D02*
X77199600Y-45363799D01*
G75*
G02*
X77301600Y-45261799I102000J0D01*
G01*
X78501600Y-45261799D01*
G75*
G02*
X78603600Y-45363799I0J-102000D01*
G01*
X78603600Y-48063799D01*
G75*
G02*
X78501600Y-48165799I-102000J0D01*
G01*
X77301600Y-48165799D01*
G75*
G02*
X77199600Y-48063799I0J102000D01*
G01*
G37*
G36*
G01*
X99999600Y-41763799D02*
X99999600Y-39863799D01*
G75*
G02*
X100101600Y-39761799I102000J0D01*
G01*
X101601600Y-39761799D01*
G75*
G02*
X101703600Y-39863799I0J-102000D01*
G01*
X101703600Y-41763799D01*
G75*
G02*
X101601600Y-41865799I-102000J0D01*
G01*
X100101600Y-41865799D01*
G75*
G02*
X99999600Y-41763799I0J102000D01*
G01*
G37*
G36*
G01*
X98899600Y-48063799D02*
X98899600Y-45363799D01*
G75*
G02*
X99001600Y-45261799I102000J0D01*
G01*
X100201600Y-45261799D01*
G75*
G02*
X100303600Y-45363799I0J-102000D01*
G01*
X100303600Y-48063799D01*
G75*
G02*
X100201600Y-48165799I-102000J0D01*
G01*
X99001600Y-48165799D01*
G75*
G02*
X98899600Y-48063799I0J102000D01*
G01*
G37*
G36*
G01*
X101399600Y-48063799D02*
X101399600Y-45363799D01*
G75*
G02*
X101501600Y-45261799I102000J0D01*
G01*
X102701600Y-45261799D01*
G75*
G02*
X102803600Y-45363799I0J-102000D01*
G01*
X102803600Y-48063799D01*
G75*
G02*
X102701600Y-48165799I-102000J0D01*
G01*
X101501600Y-48165799D01*
G75*
G02*
X101399600Y-48063799I0J102000D01*
G01*
G37*
G36*
G01*
X94101900Y-53968000D02*
X94101900Y-53068000D01*
G75*
G02*
X94351900Y-52818000I250000J0D01*
G01*
X94876900Y-52818000D01*
G75*
G02*
X95126900Y-53068000I0J-250000D01*
G01*
X95126900Y-53968000D01*
G75*
G02*
X94876900Y-54218000I-250000J0D01*
G01*
X94351900Y-54218000D01*
G75*
G02*
X94101900Y-53968000I0J250000D01*
G01*
G37*
G36*
G01*
X95926900Y-53968000D02*
X95926900Y-53068000D01*
G75*
G02*
X96176900Y-52818000I250000J0D01*
G01*
X96701900Y-52818000D01*
G75*
G02*
X96951900Y-53068000I0J-250000D01*
G01*
X96951900Y-53968000D01*
G75*
G02*
X96701900Y-54218000I-250000J0D01*
G01*
X96176900Y-54218000D01*
G75*
G02*
X95926900Y-53968000I0J250000D01*
G01*
G37*
D23*
X76951601Y-97958398D03*
X77351600Y-89758397D03*
X77751602Y-97958398D03*
X78151601Y-89758397D03*
X78551600Y-97958398D03*
X78951602Y-89758397D03*
X79351601Y-97958398D03*
X79751600Y-89758397D03*
X80151599Y-97958398D03*
X80551601Y-89758397D03*
X80951600Y-97958398D03*
X81351600Y-89758397D03*
X81751601Y-97958398D03*
X82151601Y-89758397D03*
X82551600Y-97958398D03*
X82951601Y-89758397D03*
X86551599Y-97958398D03*
X86951601Y-89758397D03*
X87351600Y-97958398D03*
X87751599Y-89758397D03*
X88151601Y-97958398D03*
X88551600Y-89758397D03*
X88951600Y-97958398D03*
X89351599Y-89758397D03*
X89751601Y-97958398D03*
X90151600Y-89758397D03*
X90551599Y-97958398D03*
X90951601Y-89758397D03*
X91351600Y-97958398D03*
X91751599Y-89758397D03*
X92151598Y-97958398D03*
X92551600Y-89758397D03*
X92951599Y-97958398D03*
X93351598Y-89758397D03*
X93751600Y-97958398D03*
X94151599Y-89758397D03*
X94551599Y-97958398D03*
X94951600Y-89758397D03*
X95351599Y-97958398D03*
X95751599Y-89758397D03*
X96151598Y-97958398D03*
X96551600Y-89758397D03*
X96951599Y-97958398D03*
X97351598Y-89758397D03*
X97751600Y-97958398D03*
X98151599Y-89758397D03*
X98551598Y-97958398D03*
X98951600Y-89758397D03*
X99351599Y-97958398D03*
X99751598Y-89758397D03*
X100151598Y-97958398D03*
X100551599Y-89758397D03*
D24*
X74176598Y-97358400D03*
X103326602Y-97358400D03*
D25*
X76251599Y-93858465D03*
D26*
X101251601Y-93858399D03*
G36*
G01*
X90456799Y-58536700D02*
X88756801Y-58536700D01*
G75*
G02*
X88506800Y-58286699I0J250001D01*
G01*
X88506800Y-57361701D01*
G75*
G02*
X88756801Y-57111700I250001J0D01*
G01*
X90456799Y-57111700D01*
G75*
G02*
X90706800Y-57361701I0J-250001D01*
G01*
X90706800Y-58286699D01*
G75*
G02*
X90456799Y-58536700I-250001J0D01*
G01*
G37*
G36*
G01*
X90456799Y-56211700D02*
X88756801Y-56211700D01*
G75*
G02*
X88506800Y-55961699I0J250001D01*
G01*
X88506800Y-55036701D01*
G75*
G02*
X88756801Y-54786700I250001J0D01*
G01*
X90456799Y-54786700D01*
G75*
G02*
X90706800Y-55036701I0J-250001D01*
G01*
X90706800Y-55961699D01*
G75*
G02*
X90456799Y-56211700I-250001J0D01*
G01*
G37*
G36*
X75644800Y-57187600D02*
G01*
X76144800Y-57187600D01*
X76144800Y-57191878D01*
X76210063Y-57191878D01*
X76336142Y-57225660D01*
X76449181Y-57290923D01*
X76541477Y-57383219D01*
X76606740Y-57496258D01*
X76640522Y-57622337D01*
X76640522Y-57687600D01*
X76644800Y-57687600D01*
X76644800Y-58187600D01*
X76640522Y-58187600D01*
X76640522Y-58252863D01*
X76606740Y-58378942D01*
X76541477Y-58491981D01*
X76449181Y-58584277D01*
X76336142Y-58649540D01*
X76210063Y-58683322D01*
X76144800Y-58683322D01*
X76144800Y-58687600D01*
X75644800Y-58687600D01*
X75644800Y-57187600D01*
G37*
G36*
X74844800Y-58683322D02*
G01*
X74779537Y-58683322D01*
X74653458Y-58649540D01*
X74540419Y-58584277D01*
X74448123Y-58491981D01*
X74382860Y-58378942D01*
X74349078Y-58252863D01*
X74349078Y-58187600D01*
X74344800Y-58187600D01*
X74344800Y-57687600D01*
X74349078Y-57687600D01*
X74349078Y-57622337D01*
X74382860Y-57496258D01*
X74448123Y-57383219D01*
X74540419Y-57290923D01*
X74653458Y-57225660D01*
X74779537Y-57191878D01*
X74844800Y-57191878D01*
X74844800Y-57187600D01*
X75344800Y-57187600D01*
X75344800Y-58687600D01*
X74844800Y-58687600D01*
X74844800Y-58683322D01*
G37*
D18*
X85187200Y-78525001D03*
D19*
X85654999Y-79502200D03*
X86155001Y-79502200D03*
X86655000Y-79502200D03*
X87154999Y-79502200D03*
X87655000Y-79502200D03*
X88155000Y-79502200D03*
X88655001Y-79502200D03*
X89155000Y-79502200D03*
X89654999Y-79502200D03*
X90155001Y-79502200D03*
D18*
X90622800Y-78525001D03*
X90622800Y-77024999D03*
D19*
X90155001Y-76047800D03*
X89654999Y-76047800D03*
X89155000Y-76047800D03*
X88655001Y-76047800D03*
X88155000Y-76047800D03*
X87655000Y-76047800D03*
X87154999Y-76047800D03*
X86655000Y-76047800D03*
X86155001Y-76047800D03*
X85654999Y-76047800D03*
D18*
X85187200Y-77024999D03*
D20*
X87905000Y-77775000D03*
G36*
G01*
X94199700Y-51809000D02*
X94199700Y-50909000D01*
G75*
G02*
X94449700Y-50659000I250000J0D01*
G01*
X94974700Y-50659000D01*
G75*
G02*
X95224700Y-50909000I0J-250000D01*
G01*
X95224700Y-51809000D01*
G75*
G02*
X94974700Y-52059000I-250000J0D01*
G01*
X94449700Y-52059000D01*
G75*
G02*
X94199700Y-51809000I0J250000D01*
G01*
G37*
G36*
G01*
X96024700Y-51809000D02*
X96024700Y-50909000D01*
G75*
G02*
X96274700Y-50659000I250000J0D01*
G01*
X96799700Y-50659000D01*
G75*
G02*
X97049700Y-50909000I0J-250000D01*
G01*
X97049700Y-51809000D01*
G75*
G02*
X96799700Y-52059000I-250000J0D01*
G01*
X96274700Y-52059000D01*
G75*
G02*
X96024700Y-51809000I0J250000D01*
G01*
G37*
G36*
G01*
X83254200Y-59379640D02*
X83254200Y-58479640D01*
G75*
G02*
X83504200Y-58229640I250000J0D01*
G01*
X84029200Y-58229640D01*
G75*
G02*
X84279200Y-58479640I0J-250000D01*
G01*
X84279200Y-59379640D01*
G75*
G02*
X84029200Y-59629640I-250000J0D01*
G01*
X83504200Y-59629640D01*
G75*
G02*
X83254200Y-59379640I0J250000D01*
G01*
G37*
G36*
G01*
X85079200Y-59379640D02*
X85079200Y-58479640D01*
G75*
G02*
X85329200Y-58229640I250000J0D01*
G01*
X85854200Y-58229640D01*
G75*
G02*
X86104200Y-58479640I0J-250000D01*
G01*
X86104200Y-59379640D01*
G75*
G02*
X85854200Y-59629640I-250000J0D01*
G01*
X85329200Y-59629640D01*
G75*
G02*
X85079200Y-59379640I0J250000D01*
G01*
G37*
G36*
G01*
X83808400Y-63074340D02*
X82908400Y-63074340D01*
G75*
G02*
X82658400Y-62824340I0J250000D01*
G01*
X82658400Y-62299340D01*
G75*
G02*
X82908400Y-62049340I250000J0D01*
G01*
X83808400Y-62049340D01*
G75*
G02*
X84058400Y-62299340I0J-250000D01*
G01*
X84058400Y-62824340D01*
G75*
G02*
X83808400Y-63074340I-250000J0D01*
G01*
G37*
G36*
G01*
X83808400Y-61249340D02*
X82908400Y-61249340D01*
G75*
G02*
X82658400Y-60999340I0J250000D01*
G01*
X82658400Y-60474340D01*
G75*
G02*
X82908400Y-60224340I250000J0D01*
G01*
X83808400Y-60224340D01*
G75*
G02*
X84058400Y-60474340I0J-250000D01*
G01*
X84058400Y-60999340D01*
G75*
G02*
X83808400Y-61249340I-250000J0D01*
G01*
G37*
D27*
X67585200Y-36703200D03*
G36*
G01*
X69910200Y-36328200D02*
X69910200Y-37078200D01*
G75*
G02*
X69660200Y-37328200I-250000J0D01*
G01*
X68910200Y-37328200D01*
G75*
G02*
X68660200Y-37078200I0J250000D01*
G01*
X68660200Y-36328200D01*
G75*
G02*
X68910200Y-36078200I250000J0D01*
G01*
X69660200Y-36078200D01*
G75*
G02*
X69910200Y-36328200I0J-250000D01*
G01*
G37*
X67585200Y-41783200D03*
G36*
G01*
X69910200Y-41408200D02*
X69910200Y-42158200D01*
G75*
G02*
X69660200Y-42408200I-250000J0D01*
G01*
X68910200Y-42408200D01*
G75*
G02*
X68660200Y-42158200I0J250000D01*
G01*
X68660200Y-41408200D01*
G75*
G02*
X68910200Y-41158200I250000J0D01*
G01*
X69660200Y-41158200D01*
G75*
G02*
X69910200Y-41408200I0J-250000D01*
G01*
G37*
X67585200Y-44323200D03*
G36*
G01*
X69910200Y-43948200D02*
X69910200Y-44698200D01*
G75*
G02*
X69660200Y-44948200I-250000J0D01*
G01*
X68910200Y-44948200D01*
G75*
G02*
X68660200Y-44698200I0J250000D01*
G01*
X68660200Y-43948200D01*
G75*
G02*
X68910200Y-43698200I250000J0D01*
G01*
X69660200Y-43698200D01*
G75*
G02*
X69910200Y-43948200I0J-250000D01*
G01*
G37*
X67585200Y-90043200D03*
G36*
G01*
X69910200Y-89668200D02*
X69910200Y-90418200D01*
G75*
G02*
X69660200Y-90668200I-250000J0D01*
G01*
X68910200Y-90668200D01*
G75*
G02*
X68660200Y-90418200I0J250000D01*
G01*
X68660200Y-89668200D01*
G75*
G02*
X68910200Y-89418200I250000J0D01*
G01*
X69660200Y-89418200D01*
G75*
G02*
X69910200Y-89668200I0J-250000D01*
G01*
G37*
X67585200Y-92583200D03*
G36*
G01*
X69910200Y-92208200D02*
X69910200Y-92958200D01*
G75*
G02*
X69660200Y-93208200I-250000J0D01*
G01*
X68910200Y-93208200D01*
G75*
G02*
X68660200Y-92958200I0J250000D01*
G01*
X68660200Y-92208200D01*
G75*
G02*
X68910200Y-91958200I250000J0D01*
G01*
X69660200Y-91958200D01*
G75*
G02*
X69910200Y-92208200I0J-250000D01*
G01*
G37*
X67585200Y-95123200D03*
G36*
G01*
X69910200Y-94748200D02*
X69910200Y-95498200D01*
G75*
G02*
X69660200Y-95748200I-250000J0D01*
G01*
X68910200Y-95748200D01*
G75*
G02*
X68660200Y-95498200I0J250000D01*
G01*
X68660200Y-94748200D01*
G75*
G02*
X68910200Y-94498200I250000J0D01*
G01*
X69660200Y-94498200D01*
G75*
G02*
X69910200Y-94748200I0J-250000D01*
G01*
G37*
X67585200Y-97663200D03*
G36*
G01*
X69910200Y-97288200D02*
X69910200Y-98038200D01*
G75*
G02*
X69660200Y-98288200I-250000J0D01*
G01*
X68910200Y-98288200D01*
G75*
G02*
X68660200Y-98038200I0J250000D01*
G01*
X68660200Y-97288200D01*
G75*
G02*
X68910200Y-97038200I250000J0D01*
G01*
X69660200Y-97038200D01*
G75*
G02*
X69910200Y-97288200I0J-250000D01*
G01*
G37*
X67585200Y-100203200D03*
G36*
G01*
X69910200Y-99828200D02*
X69910200Y-100578200D01*
G75*
G02*
X69660200Y-100828200I-250000J0D01*
G01*
X68910200Y-100828200D01*
G75*
G02*
X68660200Y-100578200I0J250000D01*
G01*
X68660200Y-99828200D01*
G75*
G02*
X68910200Y-99578200I250000J0D01*
G01*
X69660200Y-99578200D01*
G75*
G02*
X69910200Y-99828200I0J-250000D01*
G01*
G37*
X67585200Y-102743200D03*
G36*
G01*
X69910200Y-102368200D02*
X69910200Y-103118200D01*
G75*
G02*
X69660200Y-103368200I-250000J0D01*
G01*
X68910200Y-103368200D01*
G75*
G02*
X68660200Y-103118200I0J250000D01*
G01*
X68660200Y-102368200D01*
G75*
G02*
X68910200Y-102118200I250000J0D01*
G01*
X69660200Y-102118200D01*
G75*
G02*
X69910200Y-102368200I0J-250000D01*
G01*
G37*
X67585200Y-105283200D03*
G36*
G01*
X69910200Y-104908200D02*
X69910200Y-105658200D01*
G75*
G02*
X69660200Y-105908200I-250000J0D01*
G01*
X68910200Y-105908200D01*
G75*
G02*
X68660200Y-105658200I0J250000D01*
G01*
X68660200Y-104908200D01*
G75*
G02*
X68910200Y-104658200I250000J0D01*
G01*
X69660200Y-104658200D01*
G75*
G02*
X69910200Y-104908200I0J-250000D01*
G01*
G37*
G36*
G01*
X109310200Y-36328200D02*
X109310200Y-37078200D01*
G75*
G02*
X109060200Y-37328200I-250000J0D01*
G01*
X108310200Y-37328200D01*
G75*
G02*
X108060200Y-37078200I0J250000D01*
G01*
X108060200Y-36328200D01*
G75*
G02*
X108310200Y-36078200I250000J0D01*
G01*
X109060200Y-36078200D01*
G75*
G02*
X109310200Y-36328200I0J-250000D01*
G01*
G37*
X110385200Y-36703200D03*
G36*
G01*
X109310200Y-38868200D02*
X109310200Y-39618200D01*
G75*
G02*
X109060200Y-39868200I-250000J0D01*
G01*
X108310200Y-39868200D01*
G75*
G02*
X108060200Y-39618200I0J250000D01*
G01*
X108060200Y-38868200D01*
G75*
G02*
X108310200Y-38618200I250000J0D01*
G01*
X109060200Y-38618200D01*
G75*
G02*
X109310200Y-38868200I0J-250000D01*
G01*
G37*
X110385200Y-39243200D03*
G36*
G01*
X109310200Y-41408200D02*
X109310200Y-42158200D01*
G75*
G02*
X109060200Y-42408200I-250000J0D01*
G01*
X108310200Y-42408200D01*
G75*
G02*
X108060200Y-42158200I0J250000D01*
G01*
X108060200Y-41408200D01*
G75*
G02*
X108310200Y-41158200I250000J0D01*
G01*
X109060200Y-41158200D01*
G75*
G02*
X109310200Y-41408200I0J-250000D01*
G01*
G37*
X110385200Y-41783200D03*
G36*
G01*
X109310200Y-43948200D02*
X109310200Y-44698200D01*
G75*
G02*
X109060200Y-44948200I-250000J0D01*
G01*
X108310200Y-44948200D01*
G75*
G02*
X108060200Y-44698200I0J250000D01*
G01*
X108060200Y-43948200D01*
G75*
G02*
X108310200Y-43698200I250000J0D01*
G01*
X109060200Y-43698200D01*
G75*
G02*
X109310200Y-43948200I0J-250000D01*
G01*
G37*
X110385200Y-44323200D03*
G36*
G01*
X109310200Y-46488200D02*
X109310200Y-47238200D01*
G75*
G02*
X109060200Y-47488200I-250000J0D01*
G01*
X108310200Y-47488200D01*
G75*
G02*
X108060200Y-47238200I0J250000D01*
G01*
X108060200Y-46488200D01*
G75*
G02*
X108310200Y-46238200I250000J0D01*
G01*
X109060200Y-46238200D01*
G75*
G02*
X109310200Y-46488200I0J-250000D01*
G01*
G37*
X110385200Y-46863200D03*
G36*
G01*
X109310200Y-49028200D02*
X109310200Y-49778200D01*
G75*
G02*
X109060200Y-50028200I-250000J0D01*
G01*
X108310200Y-50028200D01*
G75*
G02*
X108060200Y-49778200I0J250000D01*
G01*
X108060200Y-49028200D01*
G75*
G02*
X108310200Y-48778200I250000J0D01*
G01*
X109060200Y-48778200D01*
G75*
G02*
X109310200Y-49028200I0J-250000D01*
G01*
G37*
X110385200Y-49403200D03*
G36*
G01*
X109310200Y-51568200D02*
X109310200Y-52318200D01*
G75*
G02*
X109060200Y-52568200I-250000J0D01*
G01*
X108310200Y-52568200D01*
G75*
G02*
X108060200Y-52318200I0J250000D01*
G01*
X108060200Y-51568200D01*
G75*
G02*
X108310200Y-51318200I250000J0D01*
G01*
X109060200Y-51318200D01*
G75*
G02*
X109310200Y-51568200I0J-250000D01*
G01*
G37*
X110385200Y-51943200D03*
G36*
G01*
X109310200Y-54108200D02*
X109310200Y-54858200D01*
G75*
G02*
X109060200Y-55108200I-250000J0D01*
G01*
X108310200Y-55108200D01*
G75*
G02*
X108060200Y-54858200I0J250000D01*
G01*
X108060200Y-54108200D01*
G75*
G02*
X108310200Y-53858200I250000J0D01*
G01*
X109060200Y-53858200D01*
G75*
G02*
X109310200Y-54108200I0J-250000D01*
G01*
G37*
X110385200Y-54483200D03*
G36*
G01*
X109310200Y-56648200D02*
X109310200Y-57398200D01*
G75*
G02*
X109060200Y-57648200I-250000J0D01*
G01*
X108310200Y-57648200D01*
G75*
G02*
X108060200Y-57398200I0J250000D01*
G01*
X108060200Y-56648200D01*
G75*
G02*
X108310200Y-56398200I250000J0D01*
G01*
X109060200Y-56398200D01*
G75*
G02*
X109310200Y-56648200I0J-250000D01*
G01*
G37*
X110385200Y-57023200D03*
G36*
G01*
X109310200Y-59188200D02*
X109310200Y-59938200D01*
G75*
G02*
X109060200Y-60188200I-250000J0D01*
G01*
X108310200Y-60188200D01*
G75*
G02*
X108060200Y-59938200I0J250000D01*
G01*
X108060200Y-59188200D01*
G75*
G02*
X108310200Y-58938200I250000J0D01*
G01*
X109060200Y-58938200D01*
G75*
G02*
X109310200Y-59188200I0J-250000D01*
G01*
G37*
X110385200Y-59563200D03*
G36*
G01*
X109310200Y-61728200D02*
X109310200Y-62478200D01*
G75*
G02*
X109060200Y-62728200I-250000J0D01*
G01*
X108310200Y-62728200D01*
G75*
G02*
X108060200Y-62478200I0J250000D01*
G01*
X108060200Y-61728200D01*
G75*
G02*
X108310200Y-61478200I250000J0D01*
G01*
X109060200Y-61478200D01*
G75*
G02*
X109310200Y-61728200I0J-250000D01*
G01*
G37*
X110385200Y-62103200D03*
G36*
G01*
X109310200Y-64268200D02*
X109310200Y-65018200D01*
G75*
G02*
X109060200Y-65268200I-250000J0D01*
G01*
X108310200Y-65268200D01*
G75*
G02*
X108060200Y-65018200I0J250000D01*
G01*
X108060200Y-64268200D01*
G75*
G02*
X108310200Y-64018200I250000J0D01*
G01*
X109060200Y-64018200D01*
G75*
G02*
X109310200Y-64268200I0J-250000D01*
G01*
G37*
X110385200Y-64643200D03*
G36*
G01*
X109310200Y-66808200D02*
X109310200Y-67558200D01*
G75*
G02*
X109060200Y-67808200I-250000J0D01*
G01*
X108310200Y-67808200D01*
G75*
G02*
X108060200Y-67558200I0J250000D01*
G01*
X108060200Y-66808200D01*
G75*
G02*
X108310200Y-66558200I250000J0D01*
G01*
X109060200Y-66558200D01*
G75*
G02*
X109310200Y-66808200I0J-250000D01*
G01*
G37*
X110385200Y-67183200D03*
G36*
G01*
X109310200Y-69348200D02*
X109310200Y-70098200D01*
G75*
G02*
X109060200Y-70348200I-250000J0D01*
G01*
X108310200Y-70348200D01*
G75*
G02*
X108060200Y-70098200I0J250000D01*
G01*
X108060200Y-69348200D01*
G75*
G02*
X108310200Y-69098200I250000J0D01*
G01*
X109060200Y-69098200D01*
G75*
G02*
X109310200Y-69348200I0J-250000D01*
G01*
G37*
X110385200Y-69723200D03*
G36*
G01*
X109310200Y-71888200D02*
X109310200Y-72638200D01*
G75*
G02*
X109060200Y-72888200I-250000J0D01*
G01*
X108310200Y-72888200D01*
G75*
G02*
X108060200Y-72638200I0J250000D01*
G01*
X108060200Y-71888200D01*
G75*
G02*
X108310200Y-71638200I250000J0D01*
G01*
X109060200Y-71638200D01*
G75*
G02*
X109310200Y-71888200I0J-250000D01*
G01*
G37*
X110385200Y-72263200D03*
G36*
G01*
X109310200Y-74428200D02*
X109310200Y-75178200D01*
G75*
G02*
X109060200Y-75428200I-250000J0D01*
G01*
X108310200Y-75428200D01*
G75*
G02*
X108060200Y-75178200I0J250000D01*
G01*
X108060200Y-74428200D01*
G75*
G02*
X108310200Y-74178200I250000J0D01*
G01*
X109060200Y-74178200D01*
G75*
G02*
X109310200Y-74428200I0J-250000D01*
G01*
G37*
X110385200Y-74803200D03*
G36*
G01*
X109310200Y-76968200D02*
X109310200Y-77718200D01*
G75*
G02*
X109060200Y-77968200I-250000J0D01*
G01*
X108310200Y-77968200D01*
G75*
G02*
X108060200Y-77718200I0J250000D01*
G01*
X108060200Y-76968200D01*
G75*
G02*
X108310200Y-76718200I250000J0D01*
G01*
X109060200Y-76718200D01*
G75*
G02*
X109310200Y-76968200I0J-250000D01*
G01*
G37*
X110385200Y-77343200D03*
G36*
G01*
X109310200Y-79508200D02*
X109310200Y-80258200D01*
G75*
G02*
X109060200Y-80508200I-250000J0D01*
G01*
X108310200Y-80508200D01*
G75*
G02*
X108060200Y-80258200I0J250000D01*
G01*
X108060200Y-79508200D01*
G75*
G02*
X108310200Y-79258200I250000J0D01*
G01*
X109060200Y-79258200D01*
G75*
G02*
X109310200Y-79508200I0J-250000D01*
G01*
G37*
X110385200Y-79883200D03*
G36*
G01*
X109310200Y-82048200D02*
X109310200Y-82798200D01*
G75*
G02*
X109060200Y-83048200I-250000J0D01*
G01*
X108310200Y-83048200D01*
G75*
G02*
X108060200Y-82798200I0J250000D01*
G01*
X108060200Y-82048200D01*
G75*
G02*
X108310200Y-81798200I250000J0D01*
G01*
X109060200Y-81798200D01*
G75*
G02*
X109310200Y-82048200I0J-250000D01*
G01*
G37*
X110385200Y-82423200D03*
G36*
G01*
X109310200Y-84588200D02*
X109310200Y-85338200D01*
G75*
G02*
X109060200Y-85588200I-250000J0D01*
G01*
X108310200Y-85588200D01*
G75*
G02*
X108060200Y-85338200I0J250000D01*
G01*
X108060200Y-84588200D01*
G75*
G02*
X108310200Y-84338200I250000J0D01*
G01*
X109060200Y-84338200D01*
G75*
G02*
X109310200Y-84588200I0J-250000D01*
G01*
G37*
X110385200Y-84963200D03*
G36*
G01*
X109310200Y-87128200D02*
X109310200Y-87878200D01*
G75*
G02*
X109060200Y-88128200I-250000J0D01*
G01*
X108310200Y-88128200D01*
G75*
G02*
X108060200Y-87878200I0J250000D01*
G01*
X108060200Y-87128200D01*
G75*
G02*
X108310200Y-86878200I250000J0D01*
G01*
X109060200Y-86878200D01*
G75*
G02*
X109310200Y-87128200I0J-250000D01*
G01*
G37*
X110385200Y-87503200D03*
G36*
G01*
X109310200Y-89668200D02*
X109310200Y-90418200D01*
G75*
G02*
X109060200Y-90668200I-250000J0D01*
G01*
X108310200Y-90668200D01*
G75*
G02*
X108060200Y-90418200I0J250000D01*
G01*
X108060200Y-89668200D01*
G75*
G02*
X108310200Y-89418200I250000J0D01*
G01*
X109060200Y-89418200D01*
G75*
G02*
X109310200Y-89668200I0J-250000D01*
G01*
G37*
X110385200Y-90043200D03*
G36*
G01*
X109310200Y-92208200D02*
X109310200Y-92958200D01*
G75*
G02*
X109060200Y-93208200I-250000J0D01*
G01*
X108310200Y-93208200D01*
G75*
G02*
X108060200Y-92958200I0J250000D01*
G01*
X108060200Y-92208200D01*
G75*
G02*
X108310200Y-91958200I250000J0D01*
G01*
X109060200Y-91958200D01*
G75*
G02*
X109310200Y-92208200I0J-250000D01*
G01*
G37*
X110385200Y-92583200D03*
G36*
G01*
X109310200Y-94748200D02*
X109310200Y-95498200D01*
G75*
G02*
X109060200Y-95748200I-250000J0D01*
G01*
X108310200Y-95748200D01*
G75*
G02*
X108060200Y-95498200I0J250000D01*
G01*
X108060200Y-94748200D01*
G75*
G02*
X108310200Y-94498200I250000J0D01*
G01*
X109060200Y-94498200D01*
G75*
G02*
X109310200Y-94748200I0J-250000D01*
G01*
G37*
X110385200Y-95123200D03*
G36*
G01*
X109310200Y-97288200D02*
X109310200Y-98038200D01*
G75*
G02*
X109060200Y-98288200I-250000J0D01*
G01*
X108310200Y-98288200D01*
G75*
G02*
X108060200Y-98038200I0J250000D01*
G01*
X108060200Y-97288200D01*
G75*
G02*
X108310200Y-97038200I250000J0D01*
G01*
X109060200Y-97038200D01*
G75*
G02*
X109310200Y-97288200I0J-250000D01*
G01*
G37*
X110385200Y-97663200D03*
G36*
G01*
X109310200Y-99828200D02*
X109310200Y-100578200D01*
G75*
G02*
X109060200Y-100828200I-250000J0D01*
G01*
X108310200Y-100828200D01*
G75*
G02*
X108060200Y-100578200I0J250000D01*
G01*
X108060200Y-99828200D01*
G75*
G02*
X108310200Y-99578200I250000J0D01*
G01*
X109060200Y-99578200D01*
G75*
G02*
X109310200Y-99828200I0J-250000D01*
G01*
G37*
X110385200Y-100203200D03*
G36*
G01*
X109310200Y-102368200D02*
X109310200Y-103118200D01*
G75*
G02*
X109060200Y-103368200I-250000J0D01*
G01*
X108310200Y-103368200D01*
G75*
G02*
X108060200Y-103118200I0J250000D01*
G01*
X108060200Y-102368200D01*
G75*
G02*
X108310200Y-102118200I250000J0D01*
G01*
X109060200Y-102118200D01*
G75*
G02*
X109310200Y-102368200I0J-250000D01*
G01*
G37*
X110385200Y-102743200D03*
G36*
G01*
X109310200Y-104908200D02*
X109310200Y-105658200D01*
G75*
G02*
X109060200Y-105908200I-250000J0D01*
G01*
X108310200Y-105908200D01*
G75*
G02*
X108060200Y-105658200I0J250000D01*
G01*
X108060200Y-104908200D01*
G75*
G02*
X108310200Y-104658200I250000J0D01*
G01*
X109060200Y-104658200D01*
G75*
G02*
X109310200Y-104908200I0J-250000D01*
G01*
G37*
X110385200Y-105283200D03*
G36*
G01*
X81511400Y-56766140D02*
X82411400Y-56766140D01*
G75*
G02*
X82661400Y-57016140I0J-250000D01*
G01*
X82661400Y-57541140D01*
G75*
G02*
X82411400Y-57791140I-250000J0D01*
G01*
X81511400Y-57791140D01*
G75*
G02*
X81261400Y-57541140I0J250000D01*
G01*
X81261400Y-57016140D01*
G75*
G02*
X81511400Y-56766140I250000J0D01*
G01*
G37*
G36*
G01*
X81511400Y-58591140D02*
X82411400Y-58591140D01*
G75*
G02*
X82661400Y-58841140I0J-250000D01*
G01*
X82661400Y-59366140D01*
G75*
G02*
X82411400Y-59616140I-250000J0D01*
G01*
X81511400Y-59616140D01*
G75*
G02*
X81261400Y-59366140I0J250000D01*
G01*
X81261400Y-58841140D01*
G75*
G02*
X81511400Y-58591140I250000J0D01*
G01*
G37*
G36*
X89695600Y-52387000D02*
G01*
X90195600Y-52387000D01*
X90195600Y-52391278D01*
X90260863Y-52391278D01*
X90386942Y-52425060D01*
X90499981Y-52490323D01*
X90592277Y-52582619D01*
X90657540Y-52695658D01*
X90691322Y-52821737D01*
X90691322Y-52887000D01*
X90695600Y-52887000D01*
X90695600Y-53387000D01*
X90691322Y-53387000D01*
X90691322Y-53452263D01*
X90657540Y-53578342D01*
X90592277Y-53691381D01*
X90499981Y-53783677D01*
X90386942Y-53848940D01*
X90260863Y-53882722D01*
X90195600Y-53882722D01*
X90195600Y-53887000D01*
X89695600Y-53887000D01*
X89695600Y-52387000D01*
G37*
G36*
X88895600Y-53882722D02*
G01*
X88830337Y-53882722D01*
X88704258Y-53848940D01*
X88591219Y-53783677D01*
X88498923Y-53691381D01*
X88433660Y-53578342D01*
X88399878Y-53452263D01*
X88399878Y-53387000D01*
X88395600Y-53387000D01*
X88395600Y-52887000D01*
X88399878Y-52887000D01*
X88399878Y-52821737D01*
X88433660Y-52695658D01*
X88498923Y-52582619D01*
X88591219Y-52490323D01*
X88704258Y-52425060D01*
X88830337Y-52391278D01*
X88895600Y-52391278D01*
X88895600Y-52387000D01*
X89395600Y-52387000D01*
X89395600Y-53887000D01*
X88895600Y-53887000D01*
X88895600Y-53882722D01*
G37*
G36*
G01*
X80379000Y-59632840D02*
X79429000Y-59632840D01*
G75*
G02*
X79179000Y-59382840I0J250000D01*
G01*
X79179000Y-58882840D01*
G75*
G02*
X79429000Y-58632840I250000J0D01*
G01*
X80379000Y-58632840D01*
G75*
G02*
X80629000Y-58882840I0J-250000D01*
G01*
X80629000Y-59382840D01*
G75*
G02*
X80379000Y-59632840I-250000J0D01*
G01*
G37*
G36*
G01*
X80379000Y-57732840D02*
X79429000Y-57732840D01*
G75*
G02*
X79179000Y-57482840I0J250000D01*
G01*
X79179000Y-56982840D01*
G75*
G02*
X79429000Y-56732840I250000J0D01*
G01*
X80379000Y-56732840D01*
G75*
G02*
X80629000Y-56982840I0J-250000D01*
G01*
X80629000Y-57482840D01*
G75*
G02*
X80379000Y-57732840I-250000J0D01*
G01*
G37*
D18*
X75388200Y-78347201D03*
D19*
X75855999Y-79324400D03*
X76356001Y-79324400D03*
X76856000Y-79324400D03*
X77355999Y-79324400D03*
X77856000Y-79324400D03*
X78356000Y-79324400D03*
X78856001Y-79324400D03*
X79356000Y-79324400D03*
X79855999Y-79324400D03*
X80356001Y-79324400D03*
D18*
X80823800Y-78347201D03*
X80823800Y-76847199D03*
D19*
X80356001Y-75870000D03*
X79855999Y-75870000D03*
X79356000Y-75870000D03*
X78856001Y-75870000D03*
X78356000Y-75870000D03*
X77856000Y-75870000D03*
X77355999Y-75870000D03*
X76856000Y-75870000D03*
X76356001Y-75870000D03*
X75855999Y-75870000D03*
D18*
X75388200Y-76847199D03*
D20*
X78106000Y-77597200D03*
G36*
G01*
X93256800Y-54221200D02*
X92306800Y-54221200D01*
G75*
G02*
X92056800Y-53971200I0J250000D01*
G01*
X92056800Y-53471200D01*
G75*
G02*
X92306800Y-53221200I250000J0D01*
G01*
X93256800Y-53221200D01*
G75*
G02*
X93506800Y-53471200I0J-250000D01*
G01*
X93506800Y-53971200D01*
G75*
G02*
X93256800Y-54221200I-250000J0D01*
G01*
G37*
G36*
G01*
X93256800Y-52321200D02*
X92306800Y-52321200D01*
G75*
G02*
X92056800Y-52071200I0J250000D01*
G01*
X92056800Y-51571200D01*
G75*
G02*
X92306800Y-51321200I250000J0D01*
G01*
X93256800Y-51321200D01*
G75*
G02*
X93506800Y-51571200I0J-250000D01*
G01*
X93506800Y-52071200D01*
G75*
G02*
X93256800Y-52321200I-250000J0D01*
G01*
G37*
G36*
G01*
X82151600Y-63280640D02*
X82151600Y-64230640D01*
G75*
G02*
X81901600Y-64480640I-250000J0D01*
G01*
X81401600Y-64480640D01*
G75*
G02*
X81151600Y-64230640I0J250000D01*
G01*
X81151600Y-63280640D01*
G75*
G02*
X81401600Y-63030640I250000J0D01*
G01*
X81901600Y-63030640D01*
G75*
G02*
X82151600Y-63280640I0J-250000D01*
G01*
G37*
G36*
G01*
X80251600Y-63280640D02*
X80251600Y-64230640D01*
G75*
G02*
X80001600Y-64480640I-250000J0D01*
G01*
X79501600Y-64480640D01*
G75*
G02*
X79251600Y-64230640I0J250000D01*
G01*
X79251600Y-63280640D01*
G75*
G02*
X79501600Y-63030640I250000J0D01*
G01*
X80001600Y-63030640D01*
G75*
G02*
X80251600Y-63280640I0J-250000D01*
G01*
G37*
%LPD*%
M02*
