M48
; DRILL file {KiCad 9.0.1+1} date 2025-11-12T15:34:42+0000
; FORMAT={-:-/ absolute / inch / decimal}
; #@! TF.CreationDate,2025-11-12T15:34:42+00:00
; #@! TF.GenerationSoftware,Kicad,Pcbnew,9.0.1+1
; #@! TF.FileFunction,Plated,1,4,PTH
FMAT,2
INCH
; #@! TA.AperFunction,Plated,PTH,ViaDrill
T1C0.0118
; #@! TA.AperFunction,Plated,PTH,ComponentDrill
T2C0.0295
; #@! TA.AperFunction,Plated,PTH,ComponentDrill
T3C0.0440
; #@! TA.AperFunction,Plated,PTH,ComponentDrill
T4C0.0591
; #@! TA.AperFunction,Plated,PTH,ComponentDrill
T5C0.0640
%
G90
G05
T1
X2.7303Y-1.5106
X2.7461Y-3.6937
X2.7476Y-3.8945
X2.752Y-3.7937
X2.763Y-1.6035
X2.7646Y-1.6945
X2.7657Y-3.9933
X2.7673Y-3.5051
X2.7728Y-3.5984
X2.7866Y-1.4402
X2.8028Y-2.424
X2.8188Y-4.095
X2.8388Y-1.788
X2.8558Y-2.328
X2.8768Y-2.252
X2.8838Y-3.009
X2.8858Y-1.525
X2.8928Y-3.467
X2.9294Y-3.087
X2.9398Y-3.123
X2.9512Y-2.9122
X2.9535Y-2.7339
X2.9594Y-2.5835
X2.9669Y-1.9051
X2.9678Y-3.183
X2.9756Y-4.098
X2.9839Y-2.9295
X3.0071Y-3.9283
X3.0283Y-3.7823
X3.0491Y-3.48
X3.0606Y-1.6063
X3.0622Y-3.9268
X3.0677Y-1.9035
X3.075Y-3.055
X3.0768Y-3.456
X3.0968Y-3.782
X3.1Y-2.2492
X3.1319Y-3.3372
X3.1348Y-3.6
X3.1368Y-3.789
X3.1402Y-3.926
X3.1488Y-3.424
X3.1548Y-2.028
X3.1636Y-3.1748
X3.1667Y-3.7061
X3.1703Y-3.6035
X3.1868Y-3.3921
X3.1996Y-3.9276
X3.2018Y-3.602
X3.2067Y-3.4511
X3.2146Y-3.7787
X3.2158Y-2.987
X3.2158Y-3.1252
X3.2299Y-3.2567
X3.2342Y-3.6011
X3.235Y-2.3917
X3.2488Y-3.78
X3.2508Y-3.666
X3.2509Y-2.4998
X3.2673Y-3.6126
X3.3028Y-1.5264
X3.3028Y-2.554
X3.3048Y-3.028
X3.326Y-3.1937
X3.3458Y-3.067
X3.3518Y-2.374
X3.3588Y-2.953
X3.3732Y-4.098
X3.3748Y-3.671
X3.3868Y-3.4674
X3.3878Y-3.419
X3.4055Y-3.9283
X3.4058Y-2.227
X3.4079Y-3.7854
X3.4218Y-3.464
X3.4238Y-3.604
X3.44Y-3.3868
X3.4578Y-3.772
X3.4606Y-2.8008
X3.4608Y-3.062
X3.4626Y-3.6028
X3.4628Y-2.132
X3.4758Y-3.937
X3.4778Y-3.273
X3.4838Y-2.417
X3.4863Y-3.707
X3.4994Y-3.426
X3.5158Y-1.521
X3.5158Y-3.607
X3.5232Y-4.0472
X3.5303Y-2.9016
X3.5332Y-3.4366
X3.5376Y-3.746
X3.5488Y-3.6347
X3.5525Y-3.667
X3.5628Y-3.314
X3.5638Y-2.7059
X3.5646Y-3.701
X3.5658Y-3.7968
X3.5708Y-3.933
X3.5868Y-3.38
X3.5948Y-2.998
X3.603Y-3.4449
X3.6051Y-2.0378
X3.6094Y-3.1346
X3.6128Y-3.6793
X3.6158Y-3.167
X3.6178Y-3.932
X3.6216Y-3.609
X3.6406Y-3.4472
X3.651Y-3.6055
X3.7038Y-3.938
X3.7055Y-3.2925
X3.7438Y-3.61
X3.7457Y-2.185
X3.7508Y-3.9307
X3.7524Y-3.0732
X3.7613Y-2.2865
X3.7646Y-2.7307
X3.7661Y-3.037
X3.7854Y-3.9331
X3.787Y-3.7913
X3.8012Y-3.5984
X3.8158Y-2.947
X3.8165Y-3.965
X3.8224Y-3.4563
X3.8476Y-3.9346
X3.8598Y-3.4563
X3.8772Y-3.935
X3.8898Y-2.912
X3.8968Y-3.609
X3.9142Y-3.9339
X3.922Y-1.7748
X3.9238Y-3.0665
X3.9268Y-2.187
X3.9288Y-3.471
X3.9472Y-3.9354
X3.9917Y-3.3799
X4.0087Y-1.6055
X4.0108Y-2.864
X4.022Y-1.7764
X4.0366Y-3.5866
X4.0458Y-3.127
X4.0606Y-4.0984
X4.0808Y-3.018
X4.1128Y-1.508
X4.1708Y-2.997
X4.1758Y-3.425
X4.1768Y-2.968
X4.1776Y-3.5898
X4.2217Y-3.1772
X4.2248Y-2.365
X4.2256Y-3.3902
X4.226Y-2.2634
X4.2268Y-1.9213
X4.2268Y-2.5677
X4.2276Y-2.8642
X4.2287Y-2.1744
X4.2287Y-2.665
X4.2287Y-4.0823
X4.2291Y-2.465
X4.2295Y-2.7642
X4.2299Y-2.0185
X4.2319Y-1.5083
X4.2319Y-2.9591
X4.2327Y-1.6094
X4.2335Y-3.4937
X4.2386Y-3.6988
X4.239Y-1.6984
X4.239Y-3.8961
X4.2406Y-1.7996
X4.2409Y-3.9976
X4.2413Y-3.5945
X4.2465Y-3.7945
T2
X2.7278Y-1.445
X2.7278Y-1.645
X2.7278Y-1.745
X2.7278Y-3.545
X2.7278Y-3.645
X2.7278Y-3.745
X2.7278Y-3.845
X2.7278Y-3.945
X2.7278Y-4.045
X2.7278Y-4.145
X4.2789Y-1.445
X4.2789Y-1.545
X4.2789Y-1.645
X4.2789Y-1.745
X4.2789Y-1.845
X4.2789Y-1.945
X4.2789Y-2.045
X4.2789Y-2.145
X4.2789Y-2.245
X4.2789Y-2.345
X4.2789Y-2.445
X4.2789Y-2.545
X4.2789Y-2.645
X4.2789Y-2.745
X4.2789Y-2.845
X4.2789Y-2.945
X4.2789Y-3.045
X4.2789Y-3.145
X4.2789Y-3.245
X4.2789Y-3.345
X4.2789Y-3.445
X4.2789Y-3.545
X4.2789Y-3.645
X4.2789Y-3.745
X4.2789Y-3.845
X4.2789Y-3.945
X4.2789Y-4.045
X4.2789Y-4.145
T3
X3.9863Y-3.6952
T5
X3.002Y-3.6952
T4
G00X2.651Y-1.445
M15
G01X2.6707Y-1.445
M16
G05
G00X2.651Y-1.645
M15
G01X2.6707Y-1.645
M16
G05
G00X2.651Y-1.745
M15
G01X2.6707Y-1.745
M16
G05
G00X2.651Y-3.545
M15
G01X2.6707Y-3.545
M16
G05
G00X2.651Y-3.645
M15
G01X2.6707Y-3.645
M16
G05
G00X2.651Y-3.745
M15
G01X2.6707Y-3.745
M16
G05
G00X2.651Y-3.845
M15
G01X2.6707Y-3.845
M16
G05
G00X2.651Y-3.945
M15
G01X2.6707Y-3.945
M16
G05
G00X2.651Y-4.045
M15
G01X2.6707Y-4.045
M16
G05
G00X2.651Y-4.145
M15
G01X2.6707Y-4.145
M16
G05
G00X4.336Y-1.445
M15
G01X4.3557Y-1.445
M16
G05
G00X4.336Y-1.545
M15
G01X4.3557Y-1.545
M16
G05
G00X4.336Y-1.645
M15
G01X4.3557Y-1.645
M16
G05
G00X4.336Y-1.745
M15
G01X4.3557Y-1.745
M16
G05
G00X4.336Y-1.845
M15
G01X4.3557Y-1.845
M16
G05
G00X4.336Y-1.945
M15
G01X4.3557Y-1.945
M16
G05
G00X4.336Y-2.045
M15
G01X4.3557Y-2.045
M16
G05
G00X4.336Y-2.145
M15
G01X4.3557Y-2.145
M16
G05
G00X4.336Y-2.245
M15
G01X4.3557Y-2.245
M16
G05
G00X4.336Y-2.345
M15
G01X4.3557Y-2.345
M16
G05
G00X4.336Y-2.445
M15
G01X4.3557Y-2.445
M16
G05
G00X4.336Y-2.545
M15
G01X4.3557Y-2.545
M16
G05
G00X4.336Y-2.645
M15
G01X4.3557Y-2.645
M16
G05
G00X4.336Y-2.745
M15
G01X4.3557Y-2.745
M16
G05
G00X4.336Y-2.845
M15
G01X4.3557Y-2.845
M16
G05
G00X4.336Y-2.945
M15
G01X4.3557Y-2.945
M16
G05
G00X4.336Y-3.045
M15
G01X4.3557Y-3.045
M16
G05
G00X4.336Y-3.145
M15
G01X4.3557Y-3.145
M16
G05
G00X4.336Y-3.245
M15
G01X4.3557Y-3.245
M16
G05
G00X4.336Y-3.345
M15
G01X4.3557Y-3.345
M16
G05
G00X4.336Y-3.445
M15
G01X4.3557Y-3.445
M16
G05
G00X4.336Y-3.545
M15
G01X4.3557Y-3.545
M16
G05
G00X4.336Y-3.645
M15
G01X4.3557Y-3.645
M16
G05
G00X4.336Y-3.745
M15
G01X4.3557Y-3.745
M16
G05
G00X4.336Y-3.845
M15
G01X4.3557Y-3.845
M16
G05
G00X4.336Y-3.945
M15
G01X4.3557Y-3.945
M16
G05
G00X4.336Y-4.045
M15
G01X4.3557Y-4.045
M16
G05
G00X4.336Y-4.145
M15
G01X4.3557Y-4.145
M16
G05
M30
