G04 #@! TF.GenerationSoftware,KiCad,Pcbnew,9.0.1+1*
G04 #@! TF.CreationDate,2025-11-12T15:34:42+00:00*
G04 #@! TF.ProjectId,cellular-modem,63656c6c-756c-4617-922d-6d6f64656d2e,rev?*
G04 #@! TF.SameCoordinates,Original*
G04 #@! TF.FileFunction,Soldermask,Top*
G04 #@! TF.FilePolarity,Negative*
%FSLAX46Y46*%
G04 Gerber Fmt 4.6, Leading zero omitted, Abs format (unit mm)*
G04 Created by KiCad (PCBNEW 9.0.1+1) date 2025-11-12 15:34:42*
%MOMM*%
%LPD*%
G01*
G04 APERTURE LIST*
%ADD10C,0.010000*%
%ADD11R,0.812800X0.254000*%
%ADD12R,0.254000X0.812800*%
%ADD13R,4.191000X2.209800*%
%ADD14C,1.550000*%
%ADD15C,1.050000*%
%ADD16R,0.640000X2.108200*%
%ADD17R,2.438400X3.352800*%
%ADD18C,2.133600*%
%ADD19C,1.625600*%
%ADD20R,2.540000X2.000000*%
G04 APERTURE END LIST*
D10*
X80240200Y-60796840D02*
X79480200Y-60796840D01*
X79480200Y-60376840D01*
X80240200Y-60376840D01*
X80240200Y-60796840D01*
G36*
X80240200Y-60796840D02*
G01*
X79480200Y-60796840D01*
X79480200Y-60376840D01*
X80240200Y-60376840D01*
X80240200Y-60796840D01*
G37*
X80240200Y-61296840D02*
X79480200Y-61296840D01*
X79480200Y-60876840D01*
X80240200Y-60876840D01*
X80240200Y-61296840D01*
G36*
X80240200Y-61296840D02*
G01*
X79480200Y-61296840D01*
X79480200Y-60876840D01*
X80240200Y-60876840D01*
X80240200Y-61296840D01*
G37*
X80240200Y-61796840D02*
X79480200Y-61796840D01*
X79480200Y-61376840D01*
X80240200Y-61376840D01*
X80240200Y-61796840D01*
G36*
X80240200Y-61796840D02*
G01*
X79480200Y-61796840D01*
X79480200Y-61376840D01*
X80240200Y-61376840D01*
X80240200Y-61796840D01*
G37*
X80240200Y-62296840D02*
X79480200Y-62296840D01*
X79480200Y-61876840D01*
X80240200Y-61876840D01*
X80240200Y-62296840D01*
G36*
X80240200Y-62296840D02*
G01*
X79480200Y-62296840D01*
X79480200Y-61876840D01*
X80240200Y-61876840D01*
X80240200Y-62296840D01*
G37*
X81710200Y-60796840D02*
X80950200Y-60796840D01*
X80950200Y-60376840D01*
X81710200Y-60376840D01*
X81710200Y-60796840D01*
G36*
X81710200Y-60796840D02*
G01*
X80950200Y-60796840D01*
X80950200Y-60376840D01*
X81710200Y-60376840D01*
X81710200Y-60796840D01*
G37*
X81710200Y-61296840D02*
X80950200Y-61296840D01*
X80950200Y-60876840D01*
X81710200Y-60876840D01*
X81710200Y-61296840D01*
G36*
X81710200Y-61296840D02*
G01*
X80950200Y-61296840D01*
X80950200Y-60876840D01*
X81710200Y-60876840D01*
X81710200Y-61296840D01*
G37*
X81710200Y-61796840D02*
X80950200Y-61796840D01*
X80950200Y-61376840D01*
X81710200Y-61376840D01*
X81710200Y-61796840D01*
G36*
X81710200Y-61796840D02*
G01*
X80950200Y-61796840D01*
X80950200Y-61376840D01*
X81710200Y-61376840D01*
X81710200Y-61796840D01*
G37*
X81710200Y-62296840D02*
X80950200Y-62296840D01*
X80950200Y-61876840D01*
X81710200Y-61876840D01*
X81710200Y-62296840D01*
G36*
X81710200Y-62296840D02*
G01*
X80950200Y-62296840D01*
X80950200Y-61876840D01*
X81710200Y-61876840D01*
X81710200Y-62296840D01*
G37*
G36*
X75644800Y-58687600D02*
G01*
X75344800Y-58687600D01*
X75344800Y-57187600D01*
X75644800Y-57187600D01*
X75644800Y-58687600D01*
G37*
X93288800Y-55353600D02*
X92528800Y-55353600D01*
X92528800Y-54933600D01*
X93288800Y-54933600D01*
X93288800Y-55353600D01*
G36*
X93288800Y-55353600D02*
G01*
X92528800Y-55353600D01*
X92528800Y-54933600D01*
X93288800Y-54933600D01*
X93288800Y-55353600D01*
G37*
X93288800Y-55853600D02*
X92528800Y-55853600D01*
X92528800Y-55433600D01*
X93288800Y-55433600D01*
X93288800Y-55853600D01*
G36*
X93288800Y-55853600D02*
G01*
X92528800Y-55853600D01*
X92528800Y-55433600D01*
X93288800Y-55433600D01*
X93288800Y-55853600D01*
G37*
X93288800Y-56353600D02*
X92528800Y-56353600D01*
X92528800Y-55933600D01*
X93288800Y-55933600D01*
X93288800Y-56353600D01*
G36*
X93288800Y-56353600D02*
G01*
X92528800Y-56353600D01*
X92528800Y-55933600D01*
X93288800Y-55933600D01*
X93288800Y-56353600D01*
G37*
X93288800Y-56853600D02*
X92528800Y-56853600D01*
X92528800Y-56433600D01*
X93288800Y-56433600D01*
X93288800Y-56853600D01*
G36*
X93288800Y-56853600D02*
G01*
X92528800Y-56853600D01*
X92528800Y-56433600D01*
X93288800Y-56433600D01*
X93288800Y-56853600D01*
G37*
X94758800Y-55353600D02*
X93998800Y-55353600D01*
X93998800Y-54933600D01*
X94758800Y-54933600D01*
X94758800Y-55353600D01*
G36*
X94758800Y-55353600D02*
G01*
X93998800Y-55353600D01*
X93998800Y-54933600D01*
X94758800Y-54933600D01*
X94758800Y-55353600D01*
G37*
X94758800Y-55853600D02*
X93998800Y-55853600D01*
X93998800Y-55433600D01*
X94758800Y-55433600D01*
X94758800Y-55853600D01*
G36*
X94758800Y-55853600D02*
G01*
X93998800Y-55853600D01*
X93998800Y-55433600D01*
X94758800Y-55433600D01*
X94758800Y-55853600D01*
G37*
X94758800Y-56353600D02*
X93998800Y-56353600D01*
X93998800Y-55933600D01*
X94758800Y-55933600D01*
X94758800Y-56353600D01*
G36*
X94758800Y-56353600D02*
G01*
X93998800Y-56353600D01*
X93998800Y-55933600D01*
X94758800Y-55933600D01*
X94758800Y-56353600D01*
G37*
X94758800Y-56853600D02*
X93998800Y-56853600D01*
X93998800Y-56433600D01*
X94758800Y-56433600D01*
X94758800Y-56853600D01*
G36*
X94758800Y-56853600D02*
G01*
X93998800Y-56853600D01*
X93998800Y-56433600D01*
X94758800Y-56433600D01*
X94758800Y-56853600D01*
G37*
G36*
X89695600Y-53887000D02*
G01*
X89395600Y-53887000D01*
X89395600Y-52387000D01*
X89695600Y-52387000D01*
X89695600Y-53887000D01*
G37*
D11*
X102383000Y-77140000D03*
D12*
X101915201Y-76162801D03*
X101415199Y-76162801D03*
X100915200Y-76162801D03*
X100415201Y-76162801D03*
X99915200Y-76162801D03*
X99415200Y-76162801D03*
X98915199Y-76162801D03*
X98415200Y-76162801D03*
X97915201Y-76162801D03*
X97415199Y-76162801D03*
D11*
X96947400Y-77140000D03*
X96947400Y-78640002D03*
D12*
X97415199Y-79617201D03*
X97915201Y-79617201D03*
X98415200Y-79617201D03*
X98915199Y-79617201D03*
X99415200Y-79617201D03*
X99915200Y-79617201D03*
X100415201Y-79617201D03*
X100915200Y-79617201D03*
X101415199Y-79617201D03*
X101915201Y-79617201D03*
D11*
X102383000Y-78640002D03*
D13*
X99665200Y-77890001D03*
G36*
G01*
X77375799Y-63338740D02*
X75675801Y-63338740D01*
G75*
G02*
X75425800Y-63088739I0J250001D01*
G01*
X75425800Y-62163741D01*
G75*
G02*
X75675801Y-61913740I250001J0D01*
G01*
X77375799Y-61913740D01*
G75*
G02*
X77625800Y-62163741I0J-250001D01*
G01*
X77625800Y-63088739D01*
G75*
G02*
X77375799Y-63338740I-250001J0D01*
G01*
G37*
G36*
G01*
X77375799Y-61013740D02*
X75675801Y-61013740D01*
G75*
G02*
X75425800Y-60763739I0J250001D01*
G01*
X75425800Y-59838741D01*
G75*
G02*
X75675801Y-59588740I250001J0D01*
G01*
X77375799Y-59588740D01*
G75*
G02*
X77625800Y-59838741I0J-250001D01*
G01*
X77625800Y-60763739D01*
G75*
G02*
X77375799Y-61013740I-250001J0D01*
G01*
G37*
G36*
G01*
X97919800Y-52829600D02*
X98819800Y-52829600D01*
G75*
G02*
X99069800Y-53079600I0J-250000D01*
G01*
X99069800Y-53604600D01*
G75*
G02*
X98819800Y-53854600I-250000J0D01*
G01*
X97919800Y-53854600D01*
G75*
G02*
X97669800Y-53604600I0J250000D01*
G01*
X97669800Y-53079600D01*
G75*
G02*
X97919800Y-52829600I250000J0D01*
G01*
G37*
G36*
G01*
X97919800Y-54654600D02*
X98819800Y-54654600D01*
G75*
G02*
X99069800Y-54904600I0J-250000D01*
G01*
X99069800Y-55429600D01*
G75*
G02*
X98819800Y-55679600I-250000J0D01*
G01*
X97919800Y-55679600D01*
G75*
G02*
X97669800Y-55429600I0J250000D01*
G01*
X97669800Y-54904600D01*
G75*
G02*
X97919800Y-54654600I250000J0D01*
G01*
G37*
G36*
G01*
X95110600Y-57818200D02*
X95110600Y-58768200D01*
G75*
G02*
X94860600Y-59018200I-250000J0D01*
G01*
X94360600Y-59018200D01*
G75*
G02*
X94110600Y-58768200I0J250000D01*
G01*
X94110600Y-57818200D01*
G75*
G02*
X94360600Y-57568200I250000J0D01*
G01*
X94860600Y-57568200D01*
G75*
G02*
X95110600Y-57818200I0J-250000D01*
G01*
G37*
G36*
G01*
X93210600Y-57818200D02*
X93210600Y-58768200D01*
G75*
G02*
X92960600Y-59018200I-250000J0D01*
G01*
X92460600Y-59018200D01*
G75*
G02*
X92210600Y-58768200I0J250000D01*
G01*
X92210600Y-57818200D01*
G75*
G02*
X92460600Y-57568200I250000J0D01*
G01*
X92960600Y-57568200D01*
G75*
G02*
X93210600Y-57818200I0J-250000D01*
G01*
G37*
G36*
G01*
X96787800Y-57709700D02*
X95887800Y-57709700D01*
G75*
G02*
X95637800Y-57459700I0J250000D01*
G01*
X95637800Y-56934700D01*
G75*
G02*
X95887800Y-56684700I250000J0D01*
G01*
X96787800Y-56684700D01*
G75*
G02*
X97037800Y-56934700I0J-250000D01*
G01*
X97037800Y-57459700D01*
G75*
G02*
X96787800Y-57709700I-250000J0D01*
G01*
G37*
G36*
G01*
X96787800Y-55884700D02*
X95887800Y-55884700D01*
G75*
G02*
X95637800Y-55634700I0J250000D01*
G01*
X95637800Y-55109700D01*
G75*
G02*
X95887800Y-54859700I250000J0D01*
G01*
X96787800Y-54859700D01*
G75*
G02*
X97037800Y-55109700I0J-250000D01*
G01*
X97037800Y-55634700D01*
G75*
G02*
X96787800Y-55884700I-250000J0D01*
G01*
G37*
D14*
X76651600Y-43563799D03*
D15*
X100851600Y-43563799D03*
G36*
G01*
X75799600Y-41763799D02*
X75799600Y-39863799D01*
G75*
G02*
X75901600Y-39761799I102000J0D01*
G01*
X77401600Y-39761799D01*
G75*
G02*
X77503600Y-39863799I0J-102000D01*
G01*
X77503600Y-41763799D01*
G75*
G02*
X77401600Y-41865799I-102000J0D01*
G01*
X75901600Y-41865799D01*
G75*
G02*
X75799600Y-41763799I0J102000D01*
G01*
G37*
G36*
G01*
X74699600Y-48063799D02*
X74699600Y-45363799D01*
G75*
G02*
X74801600Y-45261799I102000J0D01*
G01*
X76001600Y-45261799D01*
G75*
G02*
X76103600Y-45363799I0J-102000D01*
G01*
X76103600Y-48063799D01*
G75*
G02*
X76001600Y-48165799I-102000J0D01*
G01*
X74801600Y-48165799D01*
G75*
G02*
X74699600Y-48063799I0J102000D01*
G01*
G37*
G36*
G01*
X77199600Y-48063799D02*
X77199600Y-45363799D01*
G75*
G02*
X77301600Y-45261799I102000J0D01*
G01*
X78501600Y-45261799D01*
G75*
G02*
X78603600Y-45363799I0J-102000D01*
G01*
X78603600Y-48063799D01*
G75*
G02*
X78501600Y-48165799I-102000J0D01*
G01*
X77301600Y-48165799D01*
G75*
G02*
X77199600Y-48063799I0J102000D01*
G01*
G37*
G36*
G01*
X99999600Y-41763799D02*
X99999600Y-39863799D01*
G75*
G02*
X100101600Y-39761799I102000J0D01*
G01*
X101601600Y-39761799D01*
G75*
G02*
X101703600Y-39863799I0J-102000D01*
G01*
X101703600Y-41763799D01*
G75*
G02*
X101601600Y-41865799I-102000J0D01*
G01*
X100101600Y-41865799D01*
G75*
G02*
X99999600Y-41763799I0J102000D01*
G01*
G37*
G36*
G01*
X98899600Y-48063799D02*
X98899600Y-45363799D01*
G75*
G02*
X99001600Y-45261799I102000J0D01*
G01*
X100201600Y-45261799D01*
G75*
G02*
X100303600Y-45363799I0J-102000D01*
G01*
X100303600Y-48063799D01*
G75*
G02*
X100201600Y-48165799I-102000J0D01*
G01*
X99001600Y-48165799D01*
G75*
G02*
X98899600Y-48063799I0J102000D01*
G01*
G37*
G36*
G01*
X101399600Y-48063799D02*
X101399600Y-45363799D01*
G75*
G02*
X101501600Y-45261799I102000J0D01*
G01*
X102701600Y-45261799D01*
G75*
G02*
X102803600Y-45363799I0J-102000D01*
G01*
X102803600Y-48063799D01*
G75*
G02*
X102701600Y-48165799I-102000J0D01*
G01*
X101501600Y-48165799D01*
G75*
G02*
X101399600Y-48063799I0J102000D01*
G01*
G37*
G36*
G01*
X94101900Y-53968000D02*
X94101900Y-53068000D01*
G75*
G02*
X94351900Y-52818000I250000J0D01*
G01*
X94876900Y-52818000D01*
G75*
G02*
X95126900Y-53068000I0J-250000D01*
G01*
X95126900Y-53968000D01*
G75*
G02*
X94876900Y-54218000I-250000J0D01*
G01*
X94351900Y-54218000D01*
G75*
G02*
X94101900Y-53968000I0J250000D01*
G01*
G37*
G36*
G01*
X95926900Y-53968000D02*
X95926900Y-53068000D01*
G75*
G02*
X96176900Y-52818000I250000J0D01*
G01*
X96701900Y-52818000D01*
G75*
G02*
X96951900Y-53068000I0J-250000D01*
G01*
X96951900Y-53968000D01*
G75*
G02*
X96701900Y-54218000I-250000J0D01*
G01*
X96176900Y-54218000D01*
G75*
G02*
X95926900Y-53968000I0J250000D01*
G01*
G37*
D16*
X76951601Y-97958398D03*
X77351600Y-89758397D03*
X77751602Y-97958398D03*
X78151601Y-89758397D03*
X78551600Y-97958398D03*
X78951602Y-89758397D03*
X79351601Y-97958398D03*
X79751600Y-89758397D03*
X80151599Y-97958398D03*
X80551601Y-89758397D03*
X80951600Y-97958398D03*
X81351600Y-89758397D03*
X81751601Y-97958398D03*
X82151601Y-89758397D03*
X82551600Y-97958398D03*
X82951601Y-89758397D03*
X86551599Y-97958398D03*
X86951601Y-89758397D03*
X87351600Y-97958398D03*
X87751599Y-89758397D03*
X88151601Y-97958398D03*
X88551600Y-89758397D03*
X88951600Y-97958398D03*
X89351599Y-89758397D03*
X89751601Y-97958398D03*
X90151600Y-89758397D03*
X90551599Y-97958398D03*
X90951601Y-89758397D03*
X91351600Y-97958398D03*
X91751599Y-89758397D03*
X92151598Y-97958398D03*
X92551600Y-89758397D03*
X92951599Y-97958398D03*
X93351598Y-89758397D03*
X93751600Y-97958398D03*
X94151599Y-89758397D03*
X94551599Y-97958398D03*
X94951600Y-89758397D03*
X95351599Y-97958398D03*
X95751599Y-89758397D03*
X96151598Y-97958398D03*
X96551600Y-89758397D03*
X96951599Y-97958398D03*
X97351598Y-89758397D03*
X97751600Y-97958398D03*
X98151599Y-89758397D03*
X98551598Y-97958398D03*
X98951600Y-89758397D03*
X99351599Y-97958398D03*
X99751598Y-89758397D03*
X100151598Y-97958398D03*
X100551599Y-89758397D03*
D17*
X74176598Y-97358400D03*
X103326602Y-97358400D03*
D18*
X76251599Y-93858465D03*
D19*
X101251601Y-93858399D03*
G36*
G01*
X90456799Y-58536700D02*
X88756801Y-58536700D01*
G75*
G02*
X88506800Y-58286699I0J250001D01*
G01*
X88506800Y-57361701D01*
G75*
G02*
X88756801Y-57111700I250001J0D01*
G01*
X90456799Y-57111700D01*
G75*
G02*
X90706800Y-57361701I0J-250001D01*
G01*
X90706800Y-58286699D01*
G75*
G02*
X90456799Y-58536700I-250001J0D01*
G01*
G37*
G36*
G01*
X90456799Y-56211700D02*
X88756801Y-56211700D01*
G75*
G02*
X88506800Y-55961699I0J250001D01*
G01*
X88506800Y-55036701D01*
G75*
G02*
X88756801Y-54786700I250001J0D01*
G01*
X90456799Y-54786700D01*
G75*
G02*
X90706800Y-55036701I0J-250001D01*
G01*
X90706800Y-55961699D01*
G75*
G02*
X90456799Y-56211700I-250001J0D01*
G01*
G37*
G36*
X75644800Y-57187600D02*
G01*
X76144800Y-57187600D01*
X76144800Y-57191878D01*
X76210063Y-57191878D01*
X76336142Y-57225660D01*
X76449181Y-57290923D01*
X76541477Y-57383219D01*
X76606740Y-57496258D01*
X76640522Y-57622337D01*
X76640522Y-57687600D01*
X76644800Y-57687600D01*
X76644800Y-58187600D01*
X76640522Y-58187600D01*
X76640522Y-58252863D01*
X76606740Y-58378942D01*
X76541477Y-58491981D01*
X76449181Y-58584277D01*
X76336142Y-58649540D01*
X76210063Y-58683322D01*
X76144800Y-58683322D01*
X76144800Y-58687600D01*
X75644800Y-58687600D01*
X75644800Y-57187600D01*
G37*
G36*
X74844800Y-58683322D02*
G01*
X74779537Y-58683322D01*
X74653458Y-58649540D01*
X74540419Y-58584277D01*
X74448123Y-58491981D01*
X74382860Y-58378942D01*
X74349078Y-58252863D01*
X74349078Y-58187600D01*
X74344800Y-58187600D01*
X74344800Y-57687600D01*
X74349078Y-57687600D01*
X74349078Y-57622337D01*
X74382860Y-57496258D01*
X74448123Y-57383219D01*
X74540419Y-57290923D01*
X74653458Y-57225660D01*
X74779537Y-57191878D01*
X74844800Y-57191878D01*
X74844800Y-57187600D01*
X75344800Y-57187600D01*
X75344800Y-58687600D01*
X74844800Y-58687600D01*
X74844800Y-58683322D01*
G37*
D11*
X85187200Y-78525001D03*
D12*
X85654999Y-79502200D03*
X86155001Y-79502200D03*
X86655000Y-79502200D03*
X87154999Y-79502200D03*
X87655000Y-79502200D03*
X88155000Y-79502200D03*
X88655001Y-79502200D03*
X89155000Y-79502200D03*
X89654999Y-79502200D03*
X90155001Y-79502200D03*
D11*
X90622800Y-78525001D03*
X90622800Y-77024999D03*
D12*
X90155001Y-76047800D03*
X89654999Y-76047800D03*
X89155000Y-76047800D03*
X88655001Y-76047800D03*
X88155000Y-76047800D03*
X87655000Y-76047800D03*
X87154999Y-76047800D03*
X86655000Y-76047800D03*
X86155001Y-76047800D03*
X85654999Y-76047800D03*
D11*
X85187200Y-77024999D03*
D13*
X87905000Y-77775000D03*
G36*
G01*
X94199700Y-51809000D02*
X94199700Y-50909000D01*
G75*
G02*
X94449700Y-50659000I250000J0D01*
G01*
X94974700Y-50659000D01*
G75*
G02*
X95224700Y-50909000I0J-250000D01*
G01*
X95224700Y-51809000D01*
G75*
G02*
X94974700Y-52059000I-250000J0D01*
G01*
X94449700Y-52059000D01*
G75*
G02*
X94199700Y-51809000I0J250000D01*
G01*
G37*
G36*
G01*
X96024700Y-51809000D02*
X96024700Y-50909000D01*
G75*
G02*
X96274700Y-50659000I250000J0D01*
G01*
X96799700Y-50659000D01*
G75*
G02*
X97049700Y-50909000I0J-250000D01*
G01*
X97049700Y-51809000D01*
G75*
G02*
X96799700Y-52059000I-250000J0D01*
G01*
X96274700Y-52059000D01*
G75*
G02*
X96024700Y-51809000I0J250000D01*
G01*
G37*
G36*
G01*
X83254200Y-59379640D02*
X83254200Y-58479640D01*
G75*
G02*
X83504200Y-58229640I250000J0D01*
G01*
X84029200Y-58229640D01*
G75*
G02*
X84279200Y-58479640I0J-250000D01*
G01*
X84279200Y-59379640D01*
G75*
G02*
X84029200Y-59629640I-250000J0D01*
G01*
X83504200Y-59629640D01*
G75*
G02*
X83254200Y-59379640I0J250000D01*
G01*
G37*
G36*
G01*
X85079200Y-59379640D02*
X85079200Y-58479640D01*
G75*
G02*
X85329200Y-58229640I250000J0D01*
G01*
X85854200Y-58229640D01*
G75*
G02*
X86104200Y-58479640I0J-250000D01*
G01*
X86104200Y-59379640D01*
G75*
G02*
X85854200Y-59629640I-250000J0D01*
G01*
X85329200Y-59629640D01*
G75*
G02*
X85079200Y-59379640I0J250000D01*
G01*
G37*
G36*
G01*
X83808400Y-63074340D02*
X82908400Y-63074340D01*
G75*
G02*
X82658400Y-62824340I0J250000D01*
G01*
X82658400Y-62299340D01*
G75*
G02*
X82908400Y-62049340I250000J0D01*
G01*
X83808400Y-62049340D01*
G75*
G02*
X84058400Y-62299340I0J-250000D01*
G01*
X84058400Y-62824340D01*
G75*
G02*
X83808400Y-63074340I-250000J0D01*
G01*
G37*
G36*
G01*
X83808400Y-61249340D02*
X82908400Y-61249340D01*
G75*
G02*
X82658400Y-60999340I0J250000D01*
G01*
X82658400Y-60474340D01*
G75*
G02*
X82908400Y-60224340I250000J0D01*
G01*
X83808400Y-60224340D01*
G75*
G02*
X84058400Y-60474340I0J-250000D01*
G01*
X84058400Y-60999340D01*
G75*
G02*
X83808400Y-61249340I-250000J0D01*
G01*
G37*
D20*
X67585200Y-36703200D03*
G36*
G01*
X69910200Y-36328200D02*
X69910200Y-37078200D01*
G75*
G02*
X69660200Y-37328200I-250000J0D01*
G01*
X68910200Y-37328200D01*
G75*
G02*
X68660200Y-37078200I0J250000D01*
G01*
X68660200Y-36328200D01*
G75*
G02*
X68910200Y-36078200I250000J0D01*
G01*
X69660200Y-36078200D01*
G75*
G02*
X69910200Y-36328200I0J-250000D01*
G01*
G37*
X67585200Y-41783200D03*
G36*
G01*
X69910200Y-41408200D02*
X69910200Y-42158200D01*
G75*
G02*
X69660200Y-42408200I-250000J0D01*
G01*
X68910200Y-42408200D01*
G75*
G02*
X68660200Y-42158200I0J250000D01*
G01*
X68660200Y-41408200D01*
G75*
G02*
X68910200Y-41158200I250000J0D01*
G01*
X69660200Y-41158200D01*
G75*
G02*
X69910200Y-41408200I0J-250000D01*
G01*
G37*
X67585200Y-44323200D03*
G36*
G01*
X69910200Y-43948200D02*
X69910200Y-44698200D01*
G75*
G02*
X69660200Y-44948200I-250000J0D01*
G01*
X68910200Y-44948200D01*
G75*
G02*
X68660200Y-44698200I0J250000D01*
G01*
X68660200Y-43948200D01*
G75*
G02*
X68910200Y-43698200I250000J0D01*
G01*
X69660200Y-43698200D01*
G75*
G02*
X69910200Y-43948200I0J-250000D01*
G01*
G37*
X67585200Y-90043200D03*
G36*
G01*
X69910200Y-89668200D02*
X69910200Y-90418200D01*
G75*
G02*
X69660200Y-90668200I-250000J0D01*
G01*
X68910200Y-90668200D01*
G75*
G02*
X68660200Y-90418200I0J250000D01*
G01*
X68660200Y-89668200D01*
G75*
G02*
X68910200Y-89418200I250000J0D01*
G01*
X69660200Y-89418200D01*
G75*
G02*
X69910200Y-89668200I0J-250000D01*
G01*
G37*
X67585200Y-92583200D03*
G36*
G01*
X69910200Y-92208200D02*
X69910200Y-92958200D01*
G75*
G02*
X69660200Y-93208200I-250000J0D01*
G01*
X68910200Y-93208200D01*
G75*
G02*
X68660200Y-92958200I0J250000D01*
G01*
X68660200Y-92208200D01*
G75*
G02*
X68910200Y-91958200I250000J0D01*
G01*
X69660200Y-91958200D01*
G75*
G02*
X69910200Y-92208200I0J-250000D01*
G01*
G37*
X67585200Y-95123200D03*
G36*
G01*
X69910200Y-94748200D02*
X69910200Y-95498200D01*
G75*
G02*
X69660200Y-95748200I-250000J0D01*
G01*
X68910200Y-95748200D01*
G75*
G02*
X68660200Y-95498200I0J250000D01*
G01*
X68660200Y-94748200D01*
G75*
G02*
X68910200Y-94498200I250000J0D01*
G01*
X69660200Y-94498200D01*
G75*
G02*
X69910200Y-94748200I0J-250000D01*
G01*
G37*
X67585200Y-97663200D03*
G36*
G01*
X69910200Y-97288200D02*
X69910200Y-98038200D01*
G75*
G02*
X69660200Y-98288200I-250000J0D01*
G01*
X68910200Y-98288200D01*
G75*
G02*
X68660200Y-98038200I0J250000D01*
G01*
X68660200Y-97288200D01*
G75*
G02*
X68910200Y-97038200I250000J0D01*
G01*
X69660200Y-97038200D01*
G75*
G02*
X69910200Y-97288200I0J-250000D01*
G01*
G37*
X67585200Y-100203200D03*
G36*
G01*
X69910200Y-99828200D02*
X69910200Y-100578200D01*
G75*
G02*
X69660200Y-100828200I-250000J0D01*
G01*
X68910200Y-100828200D01*
G75*
G02*
X68660200Y-100578200I0J250000D01*
G01*
X68660200Y-99828200D01*
G75*
G02*
X68910200Y-99578200I250000J0D01*
G01*
X69660200Y-99578200D01*
G75*
G02*
X69910200Y-99828200I0J-250000D01*
G01*
G37*
X67585200Y-102743200D03*
G36*
G01*
X69910200Y-102368200D02*
X69910200Y-103118200D01*
G75*
G02*
X69660200Y-103368200I-250000J0D01*
G01*
X68910200Y-103368200D01*
G75*
G02*
X68660200Y-103118200I0J250000D01*
G01*
X68660200Y-102368200D01*
G75*
G02*
X68910200Y-102118200I250000J0D01*
G01*
X69660200Y-102118200D01*
G75*
G02*
X69910200Y-102368200I0J-250000D01*
G01*
G37*
X67585200Y-105283200D03*
G36*
G01*
X69910200Y-104908200D02*
X69910200Y-105658200D01*
G75*
G02*
X69660200Y-105908200I-250000J0D01*
G01*
X68910200Y-105908200D01*
G75*
G02*
X68660200Y-105658200I0J250000D01*
G01*
X68660200Y-104908200D01*
G75*
G02*
X68910200Y-104658200I250000J0D01*
G01*
X69660200Y-104658200D01*
G75*
G02*
X69910200Y-104908200I0J-250000D01*
G01*
G37*
G36*
G01*
X109310200Y-36328200D02*
X109310200Y-37078200D01*
G75*
G02*
X109060200Y-37328200I-250000J0D01*
G01*
X108310200Y-37328200D01*
G75*
G02*
X108060200Y-37078200I0J250000D01*
G01*
X108060200Y-36328200D01*
G75*
G02*
X108310200Y-36078200I250000J0D01*
G01*
X109060200Y-36078200D01*
G75*
G02*
X109310200Y-36328200I0J-250000D01*
G01*
G37*
X110385200Y-36703200D03*
G36*
G01*
X109310200Y-38868200D02*
X109310200Y-39618200D01*
G75*
G02*
X109060200Y-39868200I-250000J0D01*
G01*
X108310200Y-39868200D01*
G75*
G02*
X108060200Y-39618200I0J250000D01*
G01*
X108060200Y-38868200D01*
G75*
G02*
X108310200Y-38618200I250000J0D01*
G01*
X109060200Y-38618200D01*
G75*
G02*
X109310200Y-38868200I0J-250000D01*
G01*
G37*
X110385200Y-39243200D03*
G36*
G01*
X109310200Y-41408200D02*
X109310200Y-42158200D01*
G75*
G02*
X109060200Y-42408200I-250000J0D01*
G01*
X108310200Y-42408200D01*
G75*
G02*
X108060200Y-42158200I0J250000D01*
G01*
X108060200Y-41408200D01*
G75*
G02*
X108310200Y-41158200I250000J0D01*
G01*
X109060200Y-41158200D01*
G75*
G02*
X109310200Y-41408200I0J-250000D01*
G01*
G37*
X110385200Y-41783200D03*
G36*
G01*
X109310200Y-43948200D02*
X109310200Y-44698200D01*
G75*
G02*
X109060200Y-44948200I-250000J0D01*
G01*
X108310200Y-44948200D01*
G75*
G02*
X108060200Y-44698200I0J250000D01*
G01*
X108060200Y-43948200D01*
G75*
G02*
X108310200Y-43698200I250000J0D01*
G01*
X109060200Y-43698200D01*
G75*
G02*
X109310200Y-43948200I0J-250000D01*
G01*
G37*
X110385200Y-44323200D03*
G36*
G01*
X109310200Y-46488200D02*
X109310200Y-47238200D01*
G75*
G02*
X109060200Y-47488200I-250000J0D01*
G01*
X108310200Y-47488200D01*
G75*
G02*
X108060200Y-47238200I0J250000D01*
G01*
X108060200Y-46488200D01*
G75*
G02*
X108310200Y-46238200I250000J0D01*
G01*
X109060200Y-46238200D01*
G75*
G02*
X109310200Y-46488200I0J-250000D01*
G01*
G37*
X110385200Y-46863200D03*
G36*
G01*
X109310200Y-49028200D02*
X109310200Y-49778200D01*
G75*
G02*
X109060200Y-50028200I-250000J0D01*
G01*
X108310200Y-50028200D01*
G75*
G02*
X108060200Y-49778200I0J250000D01*
G01*
X108060200Y-49028200D01*
G75*
G02*
X108310200Y-48778200I250000J0D01*
G01*
X109060200Y-48778200D01*
G75*
G02*
X109310200Y-49028200I0J-250000D01*
G01*
G37*
X110385200Y-49403200D03*
G36*
G01*
X109310200Y-51568200D02*
X109310200Y-52318200D01*
G75*
G02*
X109060200Y-52568200I-250000J0D01*
G01*
X108310200Y-52568200D01*
G75*
G02*
X108060200Y-52318200I0J250000D01*
G01*
X108060200Y-51568200D01*
G75*
G02*
X108310200Y-51318200I250000J0D01*
G01*
X109060200Y-51318200D01*
G75*
G02*
X109310200Y-51568200I0J-250000D01*
G01*
G37*
X110385200Y-51943200D03*
G36*
G01*
X109310200Y-54108200D02*
X109310200Y-54858200D01*
G75*
G02*
X109060200Y-55108200I-250000J0D01*
G01*
X108310200Y-55108200D01*
G75*
G02*
X108060200Y-54858200I0J250000D01*
G01*
X108060200Y-54108200D01*
G75*
G02*
X108310200Y-53858200I250000J0D01*
G01*
X109060200Y-53858200D01*
G75*
G02*
X109310200Y-54108200I0J-250000D01*
G01*
G37*
X110385200Y-54483200D03*
G36*
G01*
X109310200Y-56648200D02*
X109310200Y-57398200D01*
G75*
G02*
X109060200Y-57648200I-250000J0D01*
G01*
X108310200Y-57648200D01*
G75*
G02*
X108060200Y-57398200I0J250000D01*
G01*
X108060200Y-56648200D01*
G75*
G02*
X108310200Y-56398200I250000J0D01*
G01*
X109060200Y-56398200D01*
G75*
G02*
X109310200Y-56648200I0J-250000D01*
G01*
G37*
X110385200Y-57023200D03*
G36*
G01*
X109310200Y-59188200D02*
X109310200Y-59938200D01*
G75*
G02*
X109060200Y-60188200I-250000J0D01*
G01*
X108310200Y-60188200D01*
G75*
G02*
X108060200Y-59938200I0J250000D01*
G01*
X108060200Y-59188200D01*
G75*
G02*
X108310200Y-58938200I250000J0D01*
G01*
X109060200Y-58938200D01*
G75*
G02*
X109310200Y-59188200I0J-250000D01*
G01*
G37*
X110385200Y-59563200D03*
G36*
G01*
X109310200Y-61728200D02*
X109310200Y-62478200D01*
G75*
G02*
X109060200Y-62728200I-250000J0D01*
G01*
X108310200Y-62728200D01*
G75*
G02*
X108060200Y-62478200I0J250000D01*
G01*
X108060200Y-61728200D01*
G75*
G02*
X108310200Y-61478200I250000J0D01*
G01*
X109060200Y-61478200D01*
G75*
G02*
X109310200Y-61728200I0J-250000D01*
G01*
G37*
X110385200Y-62103200D03*
G36*
G01*
X109310200Y-64268200D02*
X109310200Y-65018200D01*
G75*
G02*
X109060200Y-65268200I-250000J0D01*
G01*
X108310200Y-65268200D01*
G75*
G02*
X108060200Y-65018200I0J250000D01*
G01*
X108060200Y-64268200D01*
G75*
G02*
X108310200Y-64018200I250000J0D01*
G01*
X109060200Y-64018200D01*
G75*
G02*
X109310200Y-64268200I0J-250000D01*
G01*
G37*
X110385200Y-64643200D03*
G36*
G01*
X109310200Y-66808200D02*
X109310200Y-67558200D01*
G75*
G02*
X109060200Y-67808200I-250000J0D01*
G01*
X108310200Y-67808200D01*
G75*
G02*
X108060200Y-67558200I0J250000D01*
G01*
X108060200Y-66808200D01*
G75*
G02*
X108310200Y-66558200I250000J0D01*
G01*
X109060200Y-66558200D01*
G75*
G02*
X109310200Y-66808200I0J-250000D01*
G01*
G37*
X110385200Y-67183200D03*
G36*
G01*
X109310200Y-69348200D02*
X109310200Y-70098200D01*
G75*
G02*
X109060200Y-70348200I-250000J0D01*
G01*
X108310200Y-70348200D01*
G75*
G02*
X108060200Y-70098200I0J250000D01*
G01*
X108060200Y-69348200D01*
G75*
G02*
X108310200Y-69098200I250000J0D01*
G01*
X109060200Y-69098200D01*
G75*
G02*
X109310200Y-69348200I0J-250000D01*
G01*
G37*
X110385200Y-69723200D03*
G36*
G01*
X109310200Y-71888200D02*
X109310200Y-72638200D01*
G75*
G02*
X109060200Y-72888200I-250000J0D01*
G01*
X108310200Y-72888200D01*
G75*
G02*
X108060200Y-72638200I0J250000D01*
G01*
X108060200Y-71888200D01*
G75*
G02*
X108310200Y-71638200I250000J0D01*
G01*
X109060200Y-71638200D01*
G75*
G02*
X109310200Y-71888200I0J-250000D01*
G01*
G37*
X110385200Y-72263200D03*
G36*
G01*
X109310200Y-74428200D02*
X109310200Y-75178200D01*
G75*
G02*
X109060200Y-75428200I-250000J0D01*
G01*
X108310200Y-75428200D01*
G75*
G02*
X108060200Y-75178200I0J250000D01*
G01*
X108060200Y-74428200D01*
G75*
G02*
X108310200Y-74178200I250000J0D01*
G01*
X109060200Y-74178200D01*
G75*
G02*
X109310200Y-74428200I0J-250000D01*
G01*
G37*
X110385200Y-74803200D03*
G36*
G01*
X109310200Y-76968200D02*
X109310200Y-77718200D01*
G75*
G02*
X109060200Y-77968200I-250000J0D01*
G01*
X108310200Y-77968200D01*
G75*
G02*
X108060200Y-77718200I0J250000D01*
G01*
X108060200Y-76968200D01*
G75*
G02*
X108310200Y-76718200I250000J0D01*
G01*
X109060200Y-76718200D01*
G75*
G02*
X109310200Y-76968200I0J-250000D01*
G01*
G37*
X110385200Y-77343200D03*
G36*
G01*
X109310200Y-79508200D02*
X109310200Y-80258200D01*
G75*
G02*
X109060200Y-80508200I-250000J0D01*
G01*
X108310200Y-80508200D01*
G75*
G02*
X108060200Y-80258200I0J250000D01*
G01*
X108060200Y-79508200D01*
G75*
G02*
X108310200Y-79258200I250000J0D01*
G01*
X109060200Y-79258200D01*
G75*
G02*
X109310200Y-79508200I0J-250000D01*
G01*
G37*
X110385200Y-79883200D03*
G36*
G01*
X109310200Y-82048200D02*
X109310200Y-82798200D01*
G75*
G02*
X109060200Y-83048200I-250000J0D01*
G01*
X108310200Y-83048200D01*
G75*
G02*
X108060200Y-82798200I0J250000D01*
G01*
X108060200Y-82048200D01*
G75*
G02*
X108310200Y-81798200I250000J0D01*
G01*
X109060200Y-81798200D01*
G75*
G02*
X109310200Y-82048200I0J-250000D01*
G01*
G37*
X110385200Y-82423200D03*
G36*
G01*
X109310200Y-84588200D02*
X109310200Y-85338200D01*
G75*
G02*
X109060200Y-85588200I-250000J0D01*
G01*
X108310200Y-85588200D01*
G75*
G02*
X108060200Y-85338200I0J250000D01*
G01*
X108060200Y-84588200D01*
G75*
G02*
X108310200Y-84338200I250000J0D01*
G01*
X109060200Y-84338200D01*
G75*
G02*
X109310200Y-84588200I0J-250000D01*
G01*
G37*
X110385200Y-84963200D03*
G36*
G01*
X109310200Y-87128200D02*
X109310200Y-87878200D01*
G75*
G02*
X109060200Y-88128200I-250000J0D01*
G01*
X108310200Y-88128200D01*
G75*
G02*
X108060200Y-87878200I0J250000D01*
G01*
X108060200Y-87128200D01*
G75*
G02*
X108310200Y-86878200I250000J0D01*
G01*
X109060200Y-86878200D01*
G75*
G02*
X109310200Y-87128200I0J-250000D01*
G01*
G37*
X110385200Y-87503200D03*
G36*
G01*
X109310200Y-89668200D02*
X109310200Y-90418200D01*
G75*
G02*
X109060200Y-90668200I-250000J0D01*
G01*
X108310200Y-90668200D01*
G75*
G02*
X108060200Y-90418200I0J250000D01*
G01*
X108060200Y-89668200D01*
G75*
G02*
X108310200Y-89418200I250000J0D01*
G01*
X109060200Y-89418200D01*
G75*
G02*
X109310200Y-89668200I0J-250000D01*
G01*
G37*
X110385200Y-90043200D03*
G36*
G01*
X109310200Y-92208200D02*
X109310200Y-92958200D01*
G75*
G02*
X109060200Y-93208200I-250000J0D01*
G01*
X108310200Y-93208200D01*
G75*
G02*
X108060200Y-92958200I0J250000D01*
G01*
X108060200Y-92208200D01*
G75*
G02*
X108310200Y-91958200I250000J0D01*
G01*
X109060200Y-91958200D01*
G75*
G02*
X109310200Y-92208200I0J-250000D01*
G01*
G37*
X110385200Y-92583200D03*
G36*
G01*
X109310200Y-94748200D02*
X109310200Y-95498200D01*
G75*
G02*
X109060200Y-95748200I-250000J0D01*
G01*
X108310200Y-95748200D01*
G75*
G02*
X108060200Y-95498200I0J250000D01*
G01*
X108060200Y-94748200D01*
G75*
G02*
X108310200Y-94498200I250000J0D01*
G01*
X109060200Y-94498200D01*
G75*
G02*
X109310200Y-94748200I0J-250000D01*
G01*
G37*
X110385200Y-95123200D03*
G36*
G01*
X109310200Y-97288200D02*
X109310200Y-98038200D01*
G75*
G02*
X109060200Y-98288200I-250000J0D01*
G01*
X108310200Y-98288200D01*
G75*
G02*
X108060200Y-98038200I0J250000D01*
G01*
X108060200Y-97288200D01*
G75*
G02*
X108310200Y-97038200I250000J0D01*
G01*
X109060200Y-97038200D01*
G75*
G02*
X109310200Y-97288200I0J-250000D01*
G01*
G37*
X110385200Y-97663200D03*
G36*
G01*
X109310200Y-99828200D02*
X109310200Y-100578200D01*
G75*
G02*
X109060200Y-100828200I-250000J0D01*
G01*
X108310200Y-100828200D01*
G75*
G02*
X108060200Y-100578200I0J250000D01*
G01*
X108060200Y-99828200D01*
G75*
G02*
X108310200Y-99578200I250000J0D01*
G01*
X109060200Y-99578200D01*
G75*
G02*
X109310200Y-99828200I0J-250000D01*
G01*
G37*
X110385200Y-100203200D03*
G36*
G01*
X109310200Y-102368200D02*
X109310200Y-103118200D01*
G75*
G02*
X109060200Y-103368200I-250000J0D01*
G01*
X108310200Y-103368200D01*
G75*
G02*
X108060200Y-103118200I0J250000D01*
G01*
X108060200Y-102368200D01*
G75*
G02*
X108310200Y-102118200I250000J0D01*
G01*
X109060200Y-102118200D01*
G75*
G02*
X109310200Y-102368200I0J-250000D01*
G01*
G37*
X110385200Y-102743200D03*
G36*
G01*
X109310200Y-104908200D02*
X109310200Y-105658200D01*
G75*
G02*
X109060200Y-105908200I-250000J0D01*
G01*
X108310200Y-105908200D01*
G75*
G02*
X108060200Y-105658200I0J250000D01*
G01*
X108060200Y-104908200D01*
G75*
G02*
X108310200Y-104658200I250000J0D01*
G01*
X109060200Y-104658200D01*
G75*
G02*
X109310200Y-104908200I0J-250000D01*
G01*
G37*
X110385200Y-105283200D03*
G36*
G01*
X81511400Y-56766140D02*
X82411400Y-56766140D01*
G75*
G02*
X82661400Y-57016140I0J-250000D01*
G01*
X82661400Y-57541140D01*
G75*
G02*
X82411400Y-57791140I-250000J0D01*
G01*
X81511400Y-57791140D01*
G75*
G02*
X81261400Y-57541140I0J250000D01*
G01*
X81261400Y-57016140D01*
G75*
G02*
X81511400Y-56766140I250000J0D01*
G01*
G37*
G36*
G01*
X81511400Y-58591140D02*
X82411400Y-58591140D01*
G75*
G02*
X82661400Y-58841140I0J-250000D01*
G01*
X82661400Y-59366140D01*
G75*
G02*
X82411400Y-59616140I-250000J0D01*
G01*
X81511400Y-59616140D01*
G75*
G02*
X81261400Y-59366140I0J250000D01*
G01*
X81261400Y-58841140D01*
G75*
G02*
X81511400Y-58591140I250000J0D01*
G01*
G37*
G36*
X89695600Y-52387000D02*
G01*
X90195600Y-52387000D01*
X90195600Y-52391278D01*
X90260863Y-52391278D01*
X90386942Y-52425060D01*
X90499981Y-52490323D01*
X90592277Y-52582619D01*
X90657540Y-52695658D01*
X90691322Y-52821737D01*
X90691322Y-52887000D01*
X90695600Y-52887000D01*
X90695600Y-53387000D01*
X90691322Y-53387000D01*
X90691322Y-53452263D01*
X90657540Y-53578342D01*
X90592277Y-53691381D01*
X90499981Y-53783677D01*
X90386942Y-53848940D01*
X90260863Y-53882722D01*
X90195600Y-53882722D01*
X90195600Y-53887000D01*
X89695600Y-53887000D01*
X89695600Y-52387000D01*
G37*
G36*
X88895600Y-53882722D02*
G01*
X88830337Y-53882722D01*
X88704258Y-53848940D01*
X88591219Y-53783677D01*
X88498923Y-53691381D01*
X88433660Y-53578342D01*
X88399878Y-53452263D01*
X88399878Y-53387000D01*
X88395600Y-53387000D01*
X88395600Y-52887000D01*
X88399878Y-52887000D01*
X88399878Y-52821737D01*
X88433660Y-52695658D01*
X88498923Y-52582619D01*
X88591219Y-52490323D01*
X88704258Y-52425060D01*
X88830337Y-52391278D01*
X88895600Y-52391278D01*
X88895600Y-52387000D01*
X89395600Y-52387000D01*
X89395600Y-53887000D01*
X88895600Y-53887000D01*
X88895600Y-53882722D01*
G37*
G36*
G01*
X80379000Y-59632840D02*
X79429000Y-59632840D01*
G75*
G02*
X79179000Y-59382840I0J250000D01*
G01*
X79179000Y-58882840D01*
G75*
G02*
X79429000Y-58632840I250000J0D01*
G01*
X80379000Y-58632840D01*
G75*
G02*
X80629000Y-58882840I0J-250000D01*
G01*
X80629000Y-59382840D01*
G75*
G02*
X80379000Y-59632840I-250000J0D01*
G01*
G37*
G36*
G01*
X80379000Y-57732840D02*
X79429000Y-57732840D01*
G75*
G02*
X79179000Y-57482840I0J250000D01*
G01*
X79179000Y-56982840D01*
G75*
G02*
X79429000Y-56732840I250000J0D01*
G01*
X80379000Y-56732840D01*
G75*
G02*
X80629000Y-56982840I0J-250000D01*
G01*
X80629000Y-57482840D01*
G75*
G02*
X80379000Y-57732840I-250000J0D01*
G01*
G37*
D11*
X75388200Y-78347201D03*
D12*
X75855999Y-79324400D03*
X76356001Y-79324400D03*
X76856000Y-79324400D03*
X77355999Y-79324400D03*
X77856000Y-79324400D03*
X78356000Y-79324400D03*
X78856001Y-79324400D03*
X79356000Y-79324400D03*
X79855999Y-79324400D03*
X80356001Y-79324400D03*
D11*
X80823800Y-78347201D03*
X80823800Y-76847199D03*
D12*
X80356001Y-75870000D03*
X79855999Y-75870000D03*
X79356000Y-75870000D03*
X78856001Y-75870000D03*
X78356000Y-75870000D03*
X77856000Y-75870000D03*
X77355999Y-75870000D03*
X76856000Y-75870000D03*
X76356001Y-75870000D03*
X75855999Y-75870000D03*
D11*
X75388200Y-76847199D03*
D13*
X78106000Y-77597200D03*
G36*
G01*
X93256800Y-54221200D02*
X92306800Y-54221200D01*
G75*
G02*
X92056800Y-53971200I0J250000D01*
G01*
X92056800Y-53471200D01*
G75*
G02*
X92306800Y-53221200I250000J0D01*
G01*
X93256800Y-53221200D01*
G75*
G02*
X93506800Y-53471200I0J-250000D01*
G01*
X93506800Y-53971200D01*
G75*
G02*
X93256800Y-54221200I-250000J0D01*
G01*
G37*
G36*
G01*
X93256800Y-52321200D02*
X92306800Y-52321200D01*
G75*
G02*
X92056800Y-52071200I0J250000D01*
G01*
X92056800Y-51571200D01*
G75*
G02*
X92306800Y-51321200I250000J0D01*
G01*
X93256800Y-51321200D01*
G75*
G02*
X93506800Y-51571200I0J-250000D01*
G01*
X93506800Y-52071200D01*
G75*
G02*
X93256800Y-52321200I-250000J0D01*
G01*
G37*
G36*
G01*
X82151600Y-63280640D02*
X82151600Y-64230640D01*
G75*
G02*
X81901600Y-64480640I-250000J0D01*
G01*
X81401600Y-64480640D01*
G75*
G02*
X81151600Y-64230640I0J250000D01*
G01*
X81151600Y-63280640D01*
G75*
G02*
X81401600Y-63030640I250000J0D01*
G01*
X81901600Y-63030640D01*
G75*
G02*
X82151600Y-63280640I0J-250000D01*
G01*
G37*
G36*
G01*
X80251600Y-63280640D02*
X80251600Y-64230640D01*
G75*
G02*
X80001600Y-64480640I-250000J0D01*
G01*
X79501600Y-64480640D01*
G75*
G02*
X79251600Y-64230640I0J250000D01*
G01*
X79251600Y-63280640D01*
G75*
G02*
X79501600Y-63030640I250000J0D01*
G01*
X80001600Y-63030640D01*
G75*
G02*
X80251600Y-63280640I0J-250000D01*
G01*
G37*
M02*
