G04 #@! TF.GenerationSoftware,KiCad,Pcbnew,9.0.1+1*
G04 #@! TF.CreationDate,2025-11-12T15:12:01+00:00*
G04 #@! TF.ProjectId,cellular-modem,63656c6c-756c-4617-922d-6d6f64656d2e,rev?*
G04 #@! TF.SameCoordinates,Original*
G04 #@! TF.FileFunction,Copper,L2,Inr*
G04 #@! TF.FilePolarity,Positive*
%FSLAX46Y46*%
G04 Gerber Fmt 4.6, Leading zero omitted, Abs format (unit mm)*
G04 Created by KiCad (PCBNEW 9.0.1+1) date 2025-11-12 15:12:01*
%MOMM*%
%LPD*%
G01*
G04 APERTURE LIST*
G04 #@! TA.AperFunction,ComponentPad*
%ADD10C,2.133600*%
G04 #@! TD*
G04 #@! TA.AperFunction,ComponentPad*
%ADD11C,1.625600*%
G04 #@! TD*
G04 #@! TA.AperFunction,CastellatedPad*
%ADD12R,2.540000X2.000000*%
G04 #@! TD*
G04 #@! TA.AperFunction,ViaPad*
%ADD13C,0.600000*%
G04 #@! TD*
G04 APERTURE END LIST*
D10*
X76251599Y-93858465D03*
D11*
X101251601Y-93858399D03*
D12*
X67585200Y-36703200D03*
G04 #@! TA.AperFunction,ComponentPad*
G36*
G01*
X69910200Y-36328200D02*
X69910200Y-37078200D01*
G75*
G02*
X69660200Y-37328200I-250000J0D01*
G01*
X68910200Y-37328200D01*
G75*
G02*
X68660200Y-37078200I0J250000D01*
G01*
X68660200Y-36328200D01*
G75*
G02*
X68910200Y-36078200I250000J0D01*
G01*
X69660200Y-36078200D01*
G75*
G02*
X69910200Y-36328200I0J-250000D01*
G01*
G37*
G04 #@! TD.AperFunction*
X67585200Y-41783200D03*
G04 #@! TA.AperFunction,ComponentPad*
G36*
G01*
X69910200Y-41408200D02*
X69910200Y-42158200D01*
G75*
G02*
X69660200Y-42408200I-250000J0D01*
G01*
X68910200Y-42408200D01*
G75*
G02*
X68660200Y-42158200I0J250000D01*
G01*
X68660200Y-41408200D01*
G75*
G02*
X68910200Y-41158200I250000J0D01*
G01*
X69660200Y-41158200D01*
G75*
G02*
X69910200Y-41408200I0J-250000D01*
G01*
G37*
G04 #@! TD.AperFunction*
X67585200Y-44323200D03*
G04 #@! TA.AperFunction,ComponentPad*
G36*
G01*
X69910200Y-43948200D02*
X69910200Y-44698200D01*
G75*
G02*
X69660200Y-44948200I-250000J0D01*
G01*
X68910200Y-44948200D01*
G75*
G02*
X68660200Y-44698200I0J250000D01*
G01*
X68660200Y-43948200D01*
G75*
G02*
X68910200Y-43698200I250000J0D01*
G01*
X69660200Y-43698200D01*
G75*
G02*
X69910200Y-43948200I0J-250000D01*
G01*
G37*
G04 #@! TD.AperFunction*
X67585200Y-90043200D03*
G04 #@! TA.AperFunction,ComponentPad*
G36*
G01*
X69910200Y-89668200D02*
X69910200Y-90418200D01*
G75*
G02*
X69660200Y-90668200I-250000J0D01*
G01*
X68910200Y-90668200D01*
G75*
G02*
X68660200Y-90418200I0J250000D01*
G01*
X68660200Y-89668200D01*
G75*
G02*
X68910200Y-89418200I250000J0D01*
G01*
X69660200Y-89418200D01*
G75*
G02*
X69910200Y-89668200I0J-250000D01*
G01*
G37*
G04 #@! TD.AperFunction*
X67585200Y-92583200D03*
G04 #@! TA.AperFunction,ComponentPad*
G36*
G01*
X69910200Y-92208200D02*
X69910200Y-92958200D01*
G75*
G02*
X69660200Y-93208200I-250000J0D01*
G01*
X68910200Y-93208200D01*
G75*
G02*
X68660200Y-92958200I0J250000D01*
G01*
X68660200Y-92208200D01*
G75*
G02*
X68910200Y-91958200I250000J0D01*
G01*
X69660200Y-91958200D01*
G75*
G02*
X69910200Y-92208200I0J-250000D01*
G01*
G37*
G04 #@! TD.AperFunction*
X67585200Y-95123200D03*
G04 #@! TA.AperFunction,ComponentPad*
G36*
G01*
X69910200Y-94748200D02*
X69910200Y-95498200D01*
G75*
G02*
X69660200Y-95748200I-250000J0D01*
G01*
X68910200Y-95748200D01*
G75*
G02*
X68660200Y-95498200I0J250000D01*
G01*
X68660200Y-94748200D01*
G75*
G02*
X68910200Y-94498200I250000J0D01*
G01*
X69660200Y-94498200D01*
G75*
G02*
X69910200Y-94748200I0J-250000D01*
G01*
G37*
G04 #@! TD.AperFunction*
X67585200Y-97663200D03*
G04 #@! TA.AperFunction,ComponentPad*
G36*
G01*
X69910200Y-97288200D02*
X69910200Y-98038200D01*
G75*
G02*
X69660200Y-98288200I-250000J0D01*
G01*
X68910200Y-98288200D01*
G75*
G02*
X68660200Y-98038200I0J250000D01*
G01*
X68660200Y-97288200D01*
G75*
G02*
X68910200Y-97038200I250000J0D01*
G01*
X69660200Y-97038200D01*
G75*
G02*
X69910200Y-97288200I0J-250000D01*
G01*
G37*
G04 #@! TD.AperFunction*
X67585200Y-100203200D03*
G04 #@! TA.AperFunction,ComponentPad*
G36*
G01*
X69910200Y-99828200D02*
X69910200Y-100578200D01*
G75*
G02*
X69660200Y-100828200I-250000J0D01*
G01*
X68910200Y-100828200D01*
G75*
G02*
X68660200Y-100578200I0J250000D01*
G01*
X68660200Y-99828200D01*
G75*
G02*
X68910200Y-99578200I250000J0D01*
G01*
X69660200Y-99578200D01*
G75*
G02*
X69910200Y-99828200I0J-250000D01*
G01*
G37*
G04 #@! TD.AperFunction*
X67585200Y-102743200D03*
G04 #@! TA.AperFunction,ComponentPad*
G36*
G01*
X69910200Y-102368200D02*
X69910200Y-103118200D01*
G75*
G02*
X69660200Y-103368200I-250000J0D01*
G01*
X68910200Y-103368200D01*
G75*
G02*
X68660200Y-103118200I0J250000D01*
G01*
X68660200Y-102368200D01*
G75*
G02*
X68910200Y-102118200I250000J0D01*
G01*
X69660200Y-102118200D01*
G75*
G02*
X69910200Y-102368200I0J-250000D01*
G01*
G37*
G04 #@! TD.AperFunction*
X67585200Y-105283200D03*
G04 #@! TA.AperFunction,ComponentPad*
G36*
G01*
X69910200Y-104908200D02*
X69910200Y-105658200D01*
G75*
G02*
X69660200Y-105908200I-250000J0D01*
G01*
X68910200Y-105908200D01*
G75*
G02*
X68660200Y-105658200I0J250000D01*
G01*
X68660200Y-104908200D01*
G75*
G02*
X68910200Y-104658200I250000J0D01*
G01*
X69660200Y-104658200D01*
G75*
G02*
X69910200Y-104908200I0J-250000D01*
G01*
G37*
G04 #@! TD.AperFunction*
G04 #@! TA.AperFunction,ComponentPad*
G36*
G01*
X109310200Y-36328200D02*
X109310200Y-37078200D01*
G75*
G02*
X109060200Y-37328200I-250000J0D01*
G01*
X108310200Y-37328200D01*
G75*
G02*
X108060200Y-37078200I0J250000D01*
G01*
X108060200Y-36328200D01*
G75*
G02*
X108310200Y-36078200I250000J0D01*
G01*
X109060200Y-36078200D01*
G75*
G02*
X109310200Y-36328200I0J-250000D01*
G01*
G37*
G04 #@! TD.AperFunction*
X110385200Y-36703200D03*
G04 #@! TA.AperFunction,ComponentPad*
G36*
G01*
X109310200Y-38868200D02*
X109310200Y-39618200D01*
G75*
G02*
X109060200Y-39868200I-250000J0D01*
G01*
X108310200Y-39868200D01*
G75*
G02*
X108060200Y-39618200I0J250000D01*
G01*
X108060200Y-38868200D01*
G75*
G02*
X108310200Y-38618200I250000J0D01*
G01*
X109060200Y-38618200D01*
G75*
G02*
X109310200Y-38868200I0J-250000D01*
G01*
G37*
G04 #@! TD.AperFunction*
X110385200Y-39243200D03*
G04 #@! TA.AperFunction,ComponentPad*
G36*
G01*
X109310200Y-41408200D02*
X109310200Y-42158200D01*
G75*
G02*
X109060200Y-42408200I-250000J0D01*
G01*
X108310200Y-42408200D01*
G75*
G02*
X108060200Y-42158200I0J250000D01*
G01*
X108060200Y-41408200D01*
G75*
G02*
X108310200Y-41158200I250000J0D01*
G01*
X109060200Y-41158200D01*
G75*
G02*
X109310200Y-41408200I0J-250000D01*
G01*
G37*
G04 #@! TD.AperFunction*
X110385200Y-41783200D03*
G04 #@! TA.AperFunction,ComponentPad*
G36*
G01*
X109310200Y-43948200D02*
X109310200Y-44698200D01*
G75*
G02*
X109060200Y-44948200I-250000J0D01*
G01*
X108310200Y-44948200D01*
G75*
G02*
X108060200Y-44698200I0J250000D01*
G01*
X108060200Y-43948200D01*
G75*
G02*
X108310200Y-43698200I250000J0D01*
G01*
X109060200Y-43698200D01*
G75*
G02*
X109310200Y-43948200I0J-250000D01*
G01*
G37*
G04 #@! TD.AperFunction*
X110385200Y-44323200D03*
G04 #@! TA.AperFunction,ComponentPad*
G36*
G01*
X109310200Y-46488200D02*
X109310200Y-47238200D01*
G75*
G02*
X109060200Y-47488200I-250000J0D01*
G01*
X108310200Y-47488200D01*
G75*
G02*
X108060200Y-47238200I0J250000D01*
G01*
X108060200Y-46488200D01*
G75*
G02*
X108310200Y-46238200I250000J0D01*
G01*
X109060200Y-46238200D01*
G75*
G02*
X109310200Y-46488200I0J-250000D01*
G01*
G37*
G04 #@! TD.AperFunction*
X110385200Y-46863200D03*
G04 #@! TA.AperFunction,ComponentPad*
G36*
G01*
X109310200Y-49028200D02*
X109310200Y-49778200D01*
G75*
G02*
X109060200Y-50028200I-250000J0D01*
G01*
X108310200Y-50028200D01*
G75*
G02*
X108060200Y-49778200I0J250000D01*
G01*
X108060200Y-49028200D01*
G75*
G02*
X108310200Y-48778200I250000J0D01*
G01*
X109060200Y-48778200D01*
G75*
G02*
X109310200Y-49028200I0J-250000D01*
G01*
G37*
G04 #@! TD.AperFunction*
X110385200Y-49403200D03*
G04 #@! TA.AperFunction,ComponentPad*
G36*
G01*
X109310200Y-51568200D02*
X109310200Y-52318200D01*
G75*
G02*
X109060200Y-52568200I-250000J0D01*
G01*
X108310200Y-52568200D01*
G75*
G02*
X108060200Y-52318200I0J250000D01*
G01*
X108060200Y-51568200D01*
G75*
G02*
X108310200Y-51318200I250000J0D01*
G01*
X109060200Y-51318200D01*
G75*
G02*
X109310200Y-51568200I0J-250000D01*
G01*
G37*
G04 #@! TD.AperFunction*
X110385200Y-51943200D03*
G04 #@! TA.AperFunction,ComponentPad*
G36*
G01*
X109310200Y-54108200D02*
X109310200Y-54858200D01*
G75*
G02*
X109060200Y-55108200I-250000J0D01*
G01*
X108310200Y-55108200D01*
G75*
G02*
X108060200Y-54858200I0J250000D01*
G01*
X108060200Y-54108200D01*
G75*
G02*
X108310200Y-53858200I250000J0D01*
G01*
X109060200Y-53858200D01*
G75*
G02*
X109310200Y-54108200I0J-250000D01*
G01*
G37*
G04 #@! TD.AperFunction*
X110385200Y-54483200D03*
G04 #@! TA.AperFunction,ComponentPad*
G36*
G01*
X109310200Y-56648200D02*
X109310200Y-57398200D01*
G75*
G02*
X109060200Y-57648200I-250000J0D01*
G01*
X108310200Y-57648200D01*
G75*
G02*
X108060200Y-57398200I0J250000D01*
G01*
X108060200Y-56648200D01*
G75*
G02*
X108310200Y-56398200I250000J0D01*
G01*
X109060200Y-56398200D01*
G75*
G02*
X109310200Y-56648200I0J-250000D01*
G01*
G37*
G04 #@! TD.AperFunction*
X110385200Y-57023200D03*
G04 #@! TA.AperFunction,ComponentPad*
G36*
G01*
X109310200Y-59188200D02*
X109310200Y-59938200D01*
G75*
G02*
X109060200Y-60188200I-250000J0D01*
G01*
X108310200Y-60188200D01*
G75*
G02*
X108060200Y-59938200I0J250000D01*
G01*
X108060200Y-59188200D01*
G75*
G02*
X108310200Y-58938200I250000J0D01*
G01*
X109060200Y-58938200D01*
G75*
G02*
X109310200Y-59188200I0J-250000D01*
G01*
G37*
G04 #@! TD.AperFunction*
X110385200Y-59563200D03*
G04 #@! TA.AperFunction,ComponentPad*
G36*
G01*
X109310200Y-61728200D02*
X109310200Y-62478200D01*
G75*
G02*
X109060200Y-62728200I-250000J0D01*
G01*
X108310200Y-62728200D01*
G75*
G02*
X108060200Y-62478200I0J250000D01*
G01*
X108060200Y-61728200D01*
G75*
G02*
X108310200Y-61478200I250000J0D01*
G01*
X109060200Y-61478200D01*
G75*
G02*
X109310200Y-61728200I0J-250000D01*
G01*
G37*
G04 #@! TD.AperFunction*
X110385200Y-62103200D03*
G04 #@! TA.AperFunction,ComponentPad*
G36*
G01*
X109310200Y-64268200D02*
X109310200Y-65018200D01*
G75*
G02*
X109060200Y-65268200I-250000J0D01*
G01*
X108310200Y-65268200D01*
G75*
G02*
X108060200Y-65018200I0J250000D01*
G01*
X108060200Y-64268200D01*
G75*
G02*
X108310200Y-64018200I250000J0D01*
G01*
X109060200Y-64018200D01*
G75*
G02*
X109310200Y-64268200I0J-250000D01*
G01*
G37*
G04 #@! TD.AperFunction*
X110385200Y-64643200D03*
G04 #@! TA.AperFunction,ComponentPad*
G36*
G01*
X109310200Y-66808200D02*
X109310200Y-67558200D01*
G75*
G02*
X109060200Y-67808200I-250000J0D01*
G01*
X108310200Y-67808200D01*
G75*
G02*
X108060200Y-67558200I0J250000D01*
G01*
X108060200Y-66808200D01*
G75*
G02*
X108310200Y-66558200I250000J0D01*
G01*
X109060200Y-66558200D01*
G75*
G02*
X109310200Y-66808200I0J-250000D01*
G01*
G37*
G04 #@! TD.AperFunction*
X110385200Y-67183200D03*
G04 #@! TA.AperFunction,ComponentPad*
G36*
G01*
X109310200Y-69348200D02*
X109310200Y-70098200D01*
G75*
G02*
X109060200Y-70348200I-250000J0D01*
G01*
X108310200Y-70348200D01*
G75*
G02*
X108060200Y-70098200I0J250000D01*
G01*
X108060200Y-69348200D01*
G75*
G02*
X108310200Y-69098200I250000J0D01*
G01*
X109060200Y-69098200D01*
G75*
G02*
X109310200Y-69348200I0J-250000D01*
G01*
G37*
G04 #@! TD.AperFunction*
X110385200Y-69723200D03*
G04 #@! TA.AperFunction,ComponentPad*
G36*
G01*
X109310200Y-71888200D02*
X109310200Y-72638200D01*
G75*
G02*
X109060200Y-72888200I-250000J0D01*
G01*
X108310200Y-72888200D01*
G75*
G02*
X108060200Y-72638200I0J250000D01*
G01*
X108060200Y-71888200D01*
G75*
G02*
X108310200Y-71638200I250000J0D01*
G01*
X109060200Y-71638200D01*
G75*
G02*
X109310200Y-71888200I0J-250000D01*
G01*
G37*
G04 #@! TD.AperFunction*
X110385200Y-72263200D03*
G04 #@! TA.AperFunction,ComponentPad*
G36*
G01*
X109310200Y-74428200D02*
X109310200Y-75178200D01*
G75*
G02*
X109060200Y-75428200I-250000J0D01*
G01*
X108310200Y-75428200D01*
G75*
G02*
X108060200Y-75178200I0J250000D01*
G01*
X108060200Y-74428200D01*
G75*
G02*
X108310200Y-74178200I250000J0D01*
G01*
X109060200Y-74178200D01*
G75*
G02*
X109310200Y-74428200I0J-250000D01*
G01*
G37*
G04 #@! TD.AperFunction*
X110385200Y-74803200D03*
G04 #@! TA.AperFunction,ComponentPad*
G36*
G01*
X109310200Y-76968200D02*
X109310200Y-77718200D01*
G75*
G02*
X109060200Y-77968200I-250000J0D01*
G01*
X108310200Y-77968200D01*
G75*
G02*
X108060200Y-77718200I0J250000D01*
G01*
X108060200Y-76968200D01*
G75*
G02*
X108310200Y-76718200I250000J0D01*
G01*
X109060200Y-76718200D01*
G75*
G02*
X109310200Y-76968200I0J-250000D01*
G01*
G37*
G04 #@! TD.AperFunction*
X110385200Y-77343200D03*
G04 #@! TA.AperFunction,ComponentPad*
G36*
G01*
X109310200Y-79508200D02*
X109310200Y-80258200D01*
G75*
G02*
X109060200Y-80508200I-250000J0D01*
G01*
X108310200Y-80508200D01*
G75*
G02*
X108060200Y-80258200I0J250000D01*
G01*
X108060200Y-79508200D01*
G75*
G02*
X108310200Y-79258200I250000J0D01*
G01*
X109060200Y-79258200D01*
G75*
G02*
X109310200Y-79508200I0J-250000D01*
G01*
G37*
G04 #@! TD.AperFunction*
X110385200Y-79883200D03*
G04 #@! TA.AperFunction,ComponentPad*
G36*
G01*
X109310200Y-82048200D02*
X109310200Y-82798200D01*
G75*
G02*
X109060200Y-83048200I-250000J0D01*
G01*
X108310200Y-83048200D01*
G75*
G02*
X108060200Y-82798200I0J250000D01*
G01*
X108060200Y-82048200D01*
G75*
G02*
X108310200Y-81798200I250000J0D01*
G01*
X109060200Y-81798200D01*
G75*
G02*
X109310200Y-82048200I0J-250000D01*
G01*
G37*
G04 #@! TD.AperFunction*
X110385200Y-82423200D03*
G04 #@! TA.AperFunction,ComponentPad*
G36*
G01*
X109310200Y-84588200D02*
X109310200Y-85338200D01*
G75*
G02*
X109060200Y-85588200I-250000J0D01*
G01*
X108310200Y-85588200D01*
G75*
G02*
X108060200Y-85338200I0J250000D01*
G01*
X108060200Y-84588200D01*
G75*
G02*
X108310200Y-84338200I250000J0D01*
G01*
X109060200Y-84338200D01*
G75*
G02*
X109310200Y-84588200I0J-250000D01*
G01*
G37*
G04 #@! TD.AperFunction*
X110385200Y-84963200D03*
G04 #@! TA.AperFunction,ComponentPad*
G36*
G01*
X109310200Y-87128200D02*
X109310200Y-87878200D01*
G75*
G02*
X109060200Y-88128200I-250000J0D01*
G01*
X108310200Y-88128200D01*
G75*
G02*
X108060200Y-87878200I0J250000D01*
G01*
X108060200Y-87128200D01*
G75*
G02*
X108310200Y-86878200I250000J0D01*
G01*
X109060200Y-86878200D01*
G75*
G02*
X109310200Y-87128200I0J-250000D01*
G01*
G37*
G04 #@! TD.AperFunction*
X110385200Y-87503200D03*
G04 #@! TA.AperFunction,ComponentPad*
G36*
G01*
X109310200Y-89668200D02*
X109310200Y-90418200D01*
G75*
G02*
X109060200Y-90668200I-250000J0D01*
G01*
X108310200Y-90668200D01*
G75*
G02*
X108060200Y-90418200I0J250000D01*
G01*
X108060200Y-89668200D01*
G75*
G02*
X108310200Y-89418200I250000J0D01*
G01*
X109060200Y-89418200D01*
G75*
G02*
X109310200Y-89668200I0J-250000D01*
G01*
G37*
G04 #@! TD.AperFunction*
X110385200Y-90043200D03*
G04 #@! TA.AperFunction,ComponentPad*
G36*
G01*
X109310200Y-92208200D02*
X109310200Y-92958200D01*
G75*
G02*
X109060200Y-93208200I-250000J0D01*
G01*
X108310200Y-93208200D01*
G75*
G02*
X108060200Y-92958200I0J250000D01*
G01*
X108060200Y-92208200D01*
G75*
G02*
X108310200Y-91958200I250000J0D01*
G01*
X109060200Y-91958200D01*
G75*
G02*
X109310200Y-92208200I0J-250000D01*
G01*
G37*
G04 #@! TD.AperFunction*
X110385200Y-92583200D03*
G04 #@! TA.AperFunction,ComponentPad*
G36*
G01*
X109310200Y-94748200D02*
X109310200Y-95498200D01*
G75*
G02*
X109060200Y-95748200I-250000J0D01*
G01*
X108310200Y-95748200D01*
G75*
G02*
X108060200Y-95498200I0J250000D01*
G01*
X108060200Y-94748200D01*
G75*
G02*
X108310200Y-94498200I250000J0D01*
G01*
X109060200Y-94498200D01*
G75*
G02*
X109310200Y-94748200I0J-250000D01*
G01*
G37*
G04 #@! TD.AperFunction*
X110385200Y-95123200D03*
G04 #@! TA.AperFunction,ComponentPad*
G36*
G01*
X109310200Y-97288200D02*
X109310200Y-98038200D01*
G75*
G02*
X109060200Y-98288200I-250000J0D01*
G01*
X108310200Y-98288200D01*
G75*
G02*
X108060200Y-98038200I0J250000D01*
G01*
X108060200Y-97288200D01*
G75*
G02*
X108310200Y-97038200I250000J0D01*
G01*
X109060200Y-97038200D01*
G75*
G02*
X109310200Y-97288200I0J-250000D01*
G01*
G37*
G04 #@! TD.AperFunction*
X110385200Y-97663200D03*
G04 #@! TA.AperFunction,ComponentPad*
G36*
G01*
X109310200Y-99828200D02*
X109310200Y-100578200D01*
G75*
G02*
X109060200Y-100828200I-250000J0D01*
G01*
X108310200Y-100828200D01*
G75*
G02*
X108060200Y-100578200I0J250000D01*
G01*
X108060200Y-99828200D01*
G75*
G02*
X108310200Y-99578200I250000J0D01*
G01*
X109060200Y-99578200D01*
G75*
G02*
X109310200Y-99828200I0J-250000D01*
G01*
G37*
G04 #@! TD.AperFunction*
X110385200Y-100203200D03*
G04 #@! TA.AperFunction,ComponentPad*
G36*
G01*
X109310200Y-102368200D02*
X109310200Y-103118200D01*
G75*
G02*
X109060200Y-103368200I-250000J0D01*
G01*
X108310200Y-103368200D01*
G75*
G02*
X108060200Y-103118200I0J250000D01*
G01*
X108060200Y-102368200D01*
G75*
G02*
X108310200Y-102118200I250000J0D01*
G01*
X109060200Y-102118200D01*
G75*
G02*
X109310200Y-102368200I0J-250000D01*
G01*
G37*
G04 #@! TD.AperFunction*
X110385200Y-102743200D03*
G04 #@! TA.AperFunction,ComponentPad*
G36*
G01*
X109310200Y-104908200D02*
X109310200Y-105658200D01*
G75*
G02*
X109060200Y-105908200I-250000J0D01*
G01*
X108310200Y-105908200D01*
G75*
G02*
X108060200Y-105658200I0J250000D01*
G01*
X108060200Y-104908200D01*
G75*
G02*
X108310200Y-104658200I250000J0D01*
G01*
X109060200Y-104658200D01*
G75*
G02*
X109310200Y-104908200I0J-250000D01*
G01*
G37*
G04 #@! TD.AperFunction*
X110385200Y-105283200D03*
D13*
X78659400Y-96063000D03*
X92735197Y-91580448D03*
X94077200Y-100025400D03*
X87900000Y-71140000D03*
X101820000Y-40780000D03*
X95620000Y-69360000D03*
X107440000Y-51270000D03*
X96922000Y-74854000D03*
X84480000Y-81120000D03*
X89490000Y-102800000D03*
X90520000Y-68730000D03*
X78106000Y-77597200D03*
X107310000Y-60070000D03*
X106091400Y-75387400D03*
X86500000Y-99780000D03*
X107430000Y-70210000D03*
X80132600Y-51511400D03*
X107410000Y-67690000D03*
X86508000Y-56566000D03*
X77780000Y-99740000D03*
X107420000Y-62610000D03*
X107380000Y-72750000D03*
X92470000Y-87560000D03*
X70290000Y-89030000D03*
X74671600Y-79324400D03*
X91570000Y-51760000D03*
X99420000Y-99920000D03*
X95536328Y-58075928D03*
X107670000Y-43140000D03*
X76920000Y-96070000D03*
X97730000Y-99940000D03*
X69350000Y-38370000D03*
X106066000Y-86995200D03*
X81650000Y-95980000D03*
X107730000Y-91300000D03*
X69790000Y-98920000D03*
X104465800Y-38303400D03*
X77740000Y-40800000D03*
X98480000Y-99950000D03*
X98040000Y-87790000D03*
X87828800Y-95809000D03*
X86965200Y-91541800D03*
X96150000Y-99900000D03*
X88336800Y-83134400D03*
X99740000Y-55550000D03*
X75020000Y-69440000D03*
X98801600Y-73965000D03*
X107360000Y-65220000D03*
X107340000Y-57490000D03*
X107490000Y-75160000D03*
X103140000Y-104100000D03*
X107530000Y-88740000D03*
X95270000Y-99840000D03*
X88286000Y-100000000D03*
X87950000Y-91510000D03*
X82040000Y-82720000D03*
X69750000Y-93820000D03*
X82170000Y-60750000D03*
X70180000Y-40730000D03*
X95660000Y-77140000D03*
X96940000Y-100710000D03*
X107410000Y-55230000D03*
X81682000Y-75870000D03*
X83891800Y-64871800D03*
X86560000Y-96150000D03*
X81270000Y-99760000D03*
X91309000Y-76149000D03*
X85136400Y-60299800D03*
X107710000Y-45710000D03*
X75790000Y-74410000D03*
X95092600Y-91694200D03*
X95140000Y-55500000D03*
X107410000Y-103690000D03*
X85680000Y-104090000D03*
X107490000Y-38310000D03*
X87905000Y-77775000D03*
X71191800Y-61569800D03*
X80356001Y-80640001D03*
X91680000Y-79620000D03*
X79760000Y-99720000D03*
X83890000Y-38770000D03*
X95310000Y-78060000D03*
X99665200Y-77890001D03*
X79675400Y-96240800D03*
X77920000Y-48350000D03*
X82520200Y-96012200D03*
X91892800Y-99873000D03*
X107360000Y-48800000D03*
X97090000Y-87790000D03*
X78151400Y-87782600D03*
X107860000Y-96380000D03*
X91515218Y-87499782D03*
X73300000Y-38735200D03*
X107230000Y-80700000D03*
X70250000Y-101430000D03*
X70430000Y-91400000D03*
X85720600Y-93243600D03*
X94120000Y-83630000D03*
X69900000Y-96360000D03*
X96190000Y-96300000D03*
X85314200Y-75006400D03*
X107330000Y-86110000D03*
X89302000Y-38633600D03*
X90572000Y-96437600D03*
X107660000Y-93950000D03*
X75170000Y-65620000D03*
X101390000Y-85850000D03*
X82571000Y-93116600D03*
X88489200Y-61392000D03*
X82574028Y-63494428D03*
X75360000Y-48390000D03*
X75580000Y-104090000D03*
X107720000Y-101540000D03*
X75382800Y-80848400D03*
X100260000Y-99960000D03*
X78740000Y-57130000D03*
X70220000Y-43040000D03*
X105939000Y-76124000D03*
X99620000Y-45080000D03*
X91105400Y-85852200D03*
X76380000Y-99780000D03*
X70780000Y-36580000D03*
X101875000Y-72745800D03*
X99792200Y-88163600D03*
X90699000Y-99898400D03*
X107510000Y-40880000D03*
X107670000Y-98960000D03*
X102160000Y-45120000D03*
X73071400Y-57201000D03*
X102530000Y-91100000D03*
X89670000Y-73700000D03*
X71598200Y-104013200D03*
X106110000Y-91180000D03*
X81682000Y-79380000D03*
X87376390Y-86025210D03*
X90140200Y-92320400D03*
X74960000Y-73970000D03*
X72106200Y-45415400D03*
X83942600Y-76911400D03*
X89302000Y-91618000D03*
X72538000Y-59131400D03*
X103653000Y-76657400D03*
X73249200Y-76428800D03*
X77446600Y-88391221D03*
X73477800Y-88062000D03*
X89853800Y-95148600D03*
X91988000Y-91668800D03*
X90540200Y-94005600D03*
X89743406Y-87290394D03*
X90495800Y-84175800D03*
X90234162Y-93140858D03*
X91842000Y-80442000D03*
X88886003Y-87020600D03*
X98979400Y-91668800D03*
X79624600Y-91440200D03*
X79549801Y-84763707D03*
X91765800Y-93453200D03*
X80525512Y-91528312D03*
X96550000Y-91400000D03*
X86050800Y-86842800D03*
X80944247Y-86158153D03*
X79980200Y-86969800D03*
X86914400Y-87985800D03*
X82149000Y-91467248D03*
X81326400Y-91491000D03*
X81450306Y-87658694D03*
X86025400Y-88071321D03*
X80434331Y-94135669D03*
X88552000Y-94158000D03*
X82990000Y-91760000D03*
X74408000Y-78410000D03*
X84984000Y-77902000D03*
X87955800Y-54153000D03*
X102764000Y-79426000D03*
G04 #@! TA.AperFunction,Conductor*
G36*
X107903530Y-35952606D02*
G01*
X107939494Y-36002106D01*
X107939494Y-36063292D01*
X107924995Y-36091487D01*
X107907406Y-36115318D01*
X107862555Y-36243496D01*
X107862553Y-36243505D01*
X107859700Y-36273925D01*
X107859700Y-37132474D01*
X107862553Y-37162894D01*
X107862555Y-37162903D01*
X107907407Y-37291083D01*
X107988045Y-37400344D01*
X107988047Y-37400346D01*
X107988050Y-37400350D01*
X107988053Y-37400352D01*
X107988055Y-37400354D01*
X108097316Y-37480992D01*
X108097317Y-37480992D01*
X108097318Y-37480993D01*
X108225501Y-37525846D01*
X108255925Y-37528699D01*
X108255927Y-37528700D01*
X108255934Y-37528700D01*
X108815700Y-37528700D01*
X108873891Y-37547607D01*
X108909855Y-37597107D01*
X108914700Y-37627700D01*
X108914700Y-37722946D01*
X108914701Y-37722958D01*
X108926332Y-37781427D01*
X108926333Y-37781431D01*
X108970648Y-37847752D01*
X108970651Y-37847754D01*
X109035200Y-37890885D01*
X109073079Y-37938935D01*
X109075481Y-38000073D01*
X109041488Y-38050947D01*
X109035200Y-38055515D01*
X108970651Y-38098645D01*
X108970645Y-38098651D01*
X108926334Y-38164966D01*
X108926332Y-38164972D01*
X108914701Y-38223441D01*
X108914700Y-38223453D01*
X108914700Y-38318700D01*
X108895793Y-38376891D01*
X108846293Y-38412855D01*
X108815700Y-38417700D01*
X108255925Y-38417700D01*
X108225505Y-38420553D01*
X108225496Y-38420555D01*
X108097316Y-38465407D01*
X107988055Y-38546045D01*
X107988045Y-38546055D01*
X107907407Y-38655316D01*
X107862555Y-38783496D01*
X107862553Y-38783505D01*
X107859700Y-38813925D01*
X107859700Y-39672474D01*
X107862553Y-39702894D01*
X107862555Y-39702903D01*
X107907407Y-39831083D01*
X107988045Y-39940344D01*
X107988047Y-39940346D01*
X107988050Y-39940350D01*
X107988053Y-39940352D01*
X107988055Y-39940354D01*
X108097316Y-40020992D01*
X108097317Y-40020992D01*
X108097318Y-40020993D01*
X108225501Y-40065846D01*
X108255925Y-40068699D01*
X108255927Y-40068700D01*
X108255934Y-40068700D01*
X108815700Y-40068700D01*
X108873891Y-40087607D01*
X108909855Y-40137107D01*
X108914700Y-40167700D01*
X108914700Y-40262946D01*
X108914701Y-40262958D01*
X108926332Y-40321427D01*
X108926333Y-40321431D01*
X108970648Y-40387752D01*
X108970651Y-40387754D01*
X109035200Y-40430885D01*
X109073079Y-40478935D01*
X109075481Y-40540073D01*
X109041488Y-40590947D01*
X109035200Y-40595515D01*
X108970651Y-40638645D01*
X108970645Y-40638651D01*
X108926334Y-40704966D01*
X108926332Y-40704972D01*
X108914701Y-40763441D01*
X108914700Y-40763453D01*
X108914700Y-40858700D01*
X108895793Y-40916891D01*
X108846293Y-40952855D01*
X108815700Y-40957700D01*
X108255925Y-40957700D01*
X108225505Y-40960553D01*
X108225496Y-40960555D01*
X108097316Y-41005407D01*
X107988055Y-41086045D01*
X107988045Y-41086055D01*
X107907407Y-41195316D01*
X107862555Y-41323496D01*
X107862553Y-41323505D01*
X107859700Y-41353925D01*
X107859700Y-42212474D01*
X107862553Y-42242894D01*
X107862555Y-42242903D01*
X107907407Y-42371083D01*
X107988045Y-42480344D01*
X107988047Y-42480346D01*
X107988050Y-42480350D01*
X107988053Y-42480352D01*
X107988055Y-42480354D01*
X108097316Y-42560992D01*
X108097317Y-42560992D01*
X108097318Y-42560993D01*
X108225501Y-42605846D01*
X108255925Y-42608699D01*
X108255927Y-42608700D01*
X108255934Y-42608700D01*
X108815700Y-42608700D01*
X108873891Y-42627607D01*
X108909855Y-42677107D01*
X108914700Y-42707700D01*
X108914700Y-42802946D01*
X108914701Y-42802958D01*
X108926332Y-42861427D01*
X108926334Y-42861433D01*
X108936442Y-42876560D01*
X108970648Y-42927752D01*
X108970651Y-42927754D01*
X109035200Y-42970885D01*
X109073079Y-43018935D01*
X109075481Y-43080073D01*
X109041488Y-43130947D01*
X109035200Y-43135515D01*
X108970651Y-43178645D01*
X108970645Y-43178651D01*
X108926334Y-43244966D01*
X108926332Y-43244972D01*
X108914701Y-43303441D01*
X108914700Y-43303453D01*
X108914700Y-43398700D01*
X108895793Y-43456891D01*
X108846293Y-43492855D01*
X108815700Y-43497700D01*
X108255925Y-43497700D01*
X108225505Y-43500553D01*
X108225496Y-43500555D01*
X108097316Y-43545407D01*
X107988055Y-43626045D01*
X107988045Y-43626055D01*
X107907407Y-43735316D01*
X107862555Y-43863496D01*
X107862553Y-43863505D01*
X107859700Y-43893925D01*
X107859700Y-44752474D01*
X107862553Y-44782894D01*
X107862555Y-44782903D01*
X107907407Y-44911083D01*
X107988045Y-45020344D01*
X107988047Y-45020346D01*
X107988050Y-45020350D01*
X107988053Y-45020352D01*
X107988055Y-45020354D01*
X108097316Y-45100992D01*
X108097317Y-45100992D01*
X108097318Y-45100993D01*
X108225501Y-45145846D01*
X108255925Y-45148699D01*
X108255927Y-45148700D01*
X108255934Y-45148700D01*
X108815700Y-45148700D01*
X108873891Y-45167607D01*
X108909855Y-45217107D01*
X108914700Y-45247700D01*
X108914700Y-45342946D01*
X108914701Y-45342958D01*
X108926332Y-45401427D01*
X108926333Y-45401431D01*
X108970648Y-45467752D01*
X108970651Y-45467754D01*
X109035200Y-45510885D01*
X109073079Y-45558935D01*
X109075481Y-45620073D01*
X109041488Y-45670947D01*
X109035200Y-45675515D01*
X108970651Y-45718645D01*
X108970645Y-45718651D01*
X108926334Y-45784966D01*
X108926332Y-45784972D01*
X108914701Y-45843441D01*
X108914700Y-45843453D01*
X108914700Y-45938700D01*
X108895793Y-45996891D01*
X108846293Y-46032855D01*
X108815700Y-46037700D01*
X108255925Y-46037700D01*
X108225505Y-46040553D01*
X108225496Y-46040555D01*
X108097316Y-46085407D01*
X107988055Y-46166045D01*
X107988045Y-46166055D01*
X107907407Y-46275316D01*
X107862555Y-46403496D01*
X107862553Y-46403505D01*
X107859700Y-46433925D01*
X107859700Y-47292474D01*
X107862553Y-47322894D01*
X107862555Y-47322903D01*
X107907407Y-47451083D01*
X107988045Y-47560344D01*
X107988047Y-47560346D01*
X107988050Y-47560350D01*
X107988053Y-47560352D01*
X107988055Y-47560354D01*
X108097316Y-47640992D01*
X108097317Y-47640992D01*
X108097318Y-47640993D01*
X108225501Y-47685846D01*
X108255925Y-47688699D01*
X108255927Y-47688700D01*
X108255934Y-47688700D01*
X108815700Y-47688700D01*
X108873891Y-47707607D01*
X108909855Y-47757107D01*
X108914700Y-47787700D01*
X108914700Y-47882946D01*
X108914701Y-47882958D01*
X108926332Y-47941427D01*
X108926333Y-47941431D01*
X108970648Y-48007752D01*
X108970651Y-48007754D01*
X109035200Y-48050885D01*
X109073079Y-48098935D01*
X109075481Y-48160073D01*
X109041488Y-48210947D01*
X109035200Y-48215515D01*
X108970651Y-48258645D01*
X108970645Y-48258651D01*
X108926334Y-48324966D01*
X108926332Y-48324972D01*
X108914701Y-48383441D01*
X108914700Y-48383453D01*
X108914700Y-48478700D01*
X108895793Y-48536891D01*
X108846293Y-48572855D01*
X108815700Y-48577700D01*
X108255925Y-48577700D01*
X108225505Y-48580553D01*
X108225496Y-48580555D01*
X108097316Y-48625407D01*
X107988055Y-48706045D01*
X107988045Y-48706055D01*
X107907407Y-48815316D01*
X107862555Y-48943496D01*
X107862553Y-48943505D01*
X107859700Y-48973925D01*
X107859700Y-49832474D01*
X107862553Y-49862894D01*
X107862555Y-49862903D01*
X107907407Y-49991083D01*
X107988045Y-50100344D01*
X107988047Y-50100346D01*
X107988050Y-50100350D01*
X107988053Y-50100352D01*
X107988055Y-50100354D01*
X108097316Y-50180992D01*
X108097317Y-50180992D01*
X108097318Y-50180993D01*
X108225501Y-50225846D01*
X108255925Y-50228699D01*
X108255927Y-50228700D01*
X108255934Y-50228700D01*
X108815700Y-50228700D01*
X108873891Y-50247607D01*
X108909855Y-50297107D01*
X108914700Y-50327700D01*
X108914700Y-50422946D01*
X108914701Y-50422958D01*
X108926332Y-50481427D01*
X108926333Y-50481431D01*
X108970648Y-50547752D01*
X108970651Y-50547754D01*
X109035200Y-50590885D01*
X109073079Y-50638935D01*
X109075481Y-50700073D01*
X109041488Y-50750947D01*
X109035200Y-50755515D01*
X108970651Y-50798645D01*
X108970645Y-50798651D01*
X108926334Y-50864966D01*
X108926332Y-50864972D01*
X108914701Y-50923441D01*
X108914700Y-50923453D01*
X108914700Y-51018700D01*
X108895793Y-51076891D01*
X108846293Y-51112855D01*
X108815700Y-51117700D01*
X108255925Y-51117700D01*
X108225505Y-51120553D01*
X108225496Y-51120555D01*
X108097316Y-51165407D01*
X107988055Y-51246045D01*
X107988045Y-51246055D01*
X107907407Y-51355316D01*
X107862555Y-51483496D01*
X107862553Y-51483505D01*
X107859700Y-51513925D01*
X107859700Y-52372474D01*
X107862553Y-52402894D01*
X107862555Y-52402903D01*
X107907407Y-52531083D01*
X107988045Y-52640344D01*
X107988047Y-52640346D01*
X107988050Y-52640350D01*
X107988053Y-52640352D01*
X107988055Y-52640354D01*
X108097316Y-52720992D01*
X108097317Y-52720992D01*
X108097318Y-52720993D01*
X108225501Y-52765846D01*
X108255925Y-52768699D01*
X108255927Y-52768700D01*
X108255934Y-52768700D01*
X108815700Y-52768700D01*
X108873891Y-52787607D01*
X108909855Y-52837107D01*
X108914700Y-52867700D01*
X108914700Y-52962946D01*
X108914701Y-52962958D01*
X108926332Y-53021427D01*
X108926333Y-53021431D01*
X108970648Y-53087752D01*
X108970651Y-53087754D01*
X109035200Y-53130885D01*
X109073079Y-53178935D01*
X109075481Y-53240073D01*
X109041488Y-53290947D01*
X109035200Y-53295515D01*
X108970651Y-53338645D01*
X108970645Y-53338651D01*
X108926334Y-53404966D01*
X108926332Y-53404972D01*
X108914701Y-53463441D01*
X108914700Y-53463453D01*
X108914700Y-53558700D01*
X108895793Y-53616891D01*
X108846293Y-53652855D01*
X108815700Y-53657700D01*
X108255925Y-53657700D01*
X108225505Y-53660553D01*
X108225496Y-53660555D01*
X108097316Y-53705407D01*
X107988055Y-53786045D01*
X107988045Y-53786055D01*
X107907407Y-53895316D01*
X107862555Y-54023496D01*
X107862553Y-54023505D01*
X107859700Y-54053925D01*
X107859700Y-54912474D01*
X107862553Y-54942894D01*
X107862555Y-54942903D01*
X107907407Y-55071083D01*
X107988045Y-55180344D01*
X107988047Y-55180346D01*
X107988050Y-55180350D01*
X107988053Y-55180352D01*
X107988055Y-55180354D01*
X108097316Y-55260992D01*
X108097317Y-55260992D01*
X108097318Y-55260993D01*
X108225501Y-55305846D01*
X108255925Y-55308699D01*
X108255927Y-55308700D01*
X108255934Y-55308700D01*
X108815700Y-55308700D01*
X108873891Y-55327607D01*
X108909855Y-55377107D01*
X108914700Y-55407700D01*
X108914700Y-55502946D01*
X108914701Y-55502958D01*
X108926332Y-55561427D01*
X108926333Y-55561431D01*
X108970648Y-55627752D01*
X108970651Y-55627754D01*
X109035200Y-55670885D01*
X109073079Y-55718935D01*
X109075481Y-55780073D01*
X109041488Y-55830947D01*
X109035200Y-55835515D01*
X108970651Y-55878645D01*
X108970645Y-55878651D01*
X108926334Y-55944966D01*
X108926332Y-55944972D01*
X108914701Y-56003441D01*
X108914700Y-56003453D01*
X108914700Y-56098700D01*
X108895793Y-56156891D01*
X108846293Y-56192855D01*
X108815700Y-56197700D01*
X108255925Y-56197700D01*
X108225505Y-56200553D01*
X108225496Y-56200555D01*
X108097316Y-56245407D01*
X107988055Y-56326045D01*
X107988045Y-56326055D01*
X107907407Y-56435316D01*
X107862555Y-56563496D01*
X107862553Y-56563505D01*
X107859700Y-56593925D01*
X107859700Y-57452474D01*
X107862553Y-57482894D01*
X107862555Y-57482903D01*
X107907407Y-57611083D01*
X107988045Y-57720344D01*
X107988047Y-57720346D01*
X107988050Y-57720350D01*
X107988053Y-57720352D01*
X107988055Y-57720354D01*
X108097316Y-57800992D01*
X108097317Y-57800992D01*
X108097318Y-57800993D01*
X108225501Y-57845846D01*
X108255925Y-57848699D01*
X108255927Y-57848700D01*
X108255934Y-57848700D01*
X108815700Y-57848700D01*
X108873891Y-57867607D01*
X108909855Y-57917107D01*
X108914700Y-57947700D01*
X108914700Y-58042946D01*
X108914701Y-58042958D01*
X108926332Y-58101427D01*
X108926333Y-58101431D01*
X108970648Y-58167752D01*
X108970651Y-58167754D01*
X109035200Y-58210885D01*
X109073079Y-58258935D01*
X109075481Y-58320073D01*
X109041488Y-58370947D01*
X109035200Y-58375515D01*
X108970651Y-58418645D01*
X108970645Y-58418651D01*
X108926334Y-58484966D01*
X108926332Y-58484972D01*
X108914701Y-58543441D01*
X108914700Y-58543453D01*
X108914700Y-58638700D01*
X108895793Y-58696891D01*
X108846293Y-58732855D01*
X108815700Y-58737700D01*
X108255925Y-58737700D01*
X108225505Y-58740553D01*
X108225496Y-58740555D01*
X108097316Y-58785407D01*
X107988055Y-58866045D01*
X107988045Y-58866055D01*
X107907407Y-58975316D01*
X107862555Y-59103496D01*
X107862553Y-59103505D01*
X107859700Y-59133925D01*
X107859700Y-59992474D01*
X107862553Y-60022894D01*
X107862555Y-60022903D01*
X107907407Y-60151083D01*
X107988045Y-60260344D01*
X107988047Y-60260346D01*
X107988050Y-60260350D01*
X107988053Y-60260352D01*
X107988055Y-60260354D01*
X108097316Y-60340992D01*
X108097317Y-60340992D01*
X108097318Y-60340993D01*
X108225501Y-60385846D01*
X108255925Y-60388699D01*
X108255927Y-60388700D01*
X108255934Y-60388700D01*
X108815700Y-60388700D01*
X108873891Y-60407607D01*
X108909855Y-60457107D01*
X108914700Y-60487700D01*
X108914700Y-60582946D01*
X108914701Y-60582958D01*
X108926332Y-60641427D01*
X108926333Y-60641431D01*
X108970648Y-60707752D01*
X108970651Y-60707754D01*
X109035200Y-60750885D01*
X109073079Y-60798935D01*
X109075481Y-60860073D01*
X109041488Y-60910947D01*
X109035200Y-60915515D01*
X108970651Y-60958645D01*
X108970645Y-60958651D01*
X108926334Y-61024966D01*
X108926332Y-61024972D01*
X108914701Y-61083441D01*
X108914700Y-61083453D01*
X108914700Y-61178700D01*
X108895793Y-61236891D01*
X108846293Y-61272855D01*
X108815700Y-61277700D01*
X108255925Y-61277700D01*
X108225505Y-61280553D01*
X108225496Y-61280555D01*
X108097316Y-61325407D01*
X107988055Y-61406045D01*
X107988045Y-61406055D01*
X107907407Y-61515316D01*
X107862555Y-61643496D01*
X107862553Y-61643505D01*
X107859700Y-61673925D01*
X107859700Y-62532474D01*
X107862553Y-62562894D01*
X107862555Y-62562903D01*
X107907407Y-62691083D01*
X107988045Y-62800344D01*
X107988047Y-62800346D01*
X107988050Y-62800350D01*
X107988053Y-62800352D01*
X107988055Y-62800354D01*
X108097316Y-62880992D01*
X108097317Y-62880992D01*
X108097318Y-62880993D01*
X108225501Y-62925846D01*
X108255925Y-62928699D01*
X108255927Y-62928700D01*
X108255934Y-62928700D01*
X108815700Y-62928700D01*
X108873891Y-62947607D01*
X108909855Y-62997107D01*
X108914700Y-63027700D01*
X108914700Y-63122946D01*
X108914701Y-63122958D01*
X108926332Y-63181427D01*
X108926333Y-63181431D01*
X108970648Y-63247752D01*
X108970651Y-63247754D01*
X109035200Y-63290885D01*
X109073079Y-63338935D01*
X109075481Y-63400073D01*
X109041488Y-63450947D01*
X109035200Y-63455515D01*
X108970651Y-63498645D01*
X108970645Y-63498651D01*
X108926334Y-63564966D01*
X108926332Y-63564972D01*
X108914701Y-63623441D01*
X108914700Y-63623453D01*
X108914700Y-63718700D01*
X108895793Y-63776891D01*
X108846293Y-63812855D01*
X108815700Y-63817700D01*
X108255925Y-63817700D01*
X108225505Y-63820553D01*
X108225496Y-63820555D01*
X108097316Y-63865407D01*
X107988055Y-63946045D01*
X107988045Y-63946055D01*
X107907407Y-64055316D01*
X107862555Y-64183496D01*
X107862553Y-64183505D01*
X107859700Y-64213925D01*
X107859700Y-65072474D01*
X107862553Y-65102894D01*
X107862555Y-65102903D01*
X107907407Y-65231083D01*
X107988045Y-65340344D01*
X107988047Y-65340346D01*
X107988050Y-65340350D01*
X107988053Y-65340352D01*
X107988055Y-65340354D01*
X108097316Y-65420992D01*
X108097317Y-65420992D01*
X108097318Y-65420993D01*
X108225501Y-65465846D01*
X108255925Y-65468699D01*
X108255927Y-65468700D01*
X108255934Y-65468700D01*
X108815700Y-65468700D01*
X108873891Y-65487607D01*
X108909855Y-65537107D01*
X108914700Y-65567700D01*
X108914700Y-65662946D01*
X108914701Y-65662958D01*
X108926332Y-65721427D01*
X108926333Y-65721431D01*
X108970648Y-65787752D01*
X108970651Y-65787754D01*
X109035200Y-65830885D01*
X109073079Y-65878935D01*
X109075481Y-65940073D01*
X109041488Y-65990947D01*
X109035200Y-65995515D01*
X108970651Y-66038645D01*
X108970645Y-66038651D01*
X108926334Y-66104966D01*
X108926332Y-66104972D01*
X108914701Y-66163441D01*
X108914700Y-66163453D01*
X108914700Y-66258700D01*
X108895793Y-66316891D01*
X108846293Y-66352855D01*
X108815700Y-66357700D01*
X108255925Y-66357700D01*
X108225505Y-66360553D01*
X108225496Y-66360555D01*
X108097316Y-66405407D01*
X107988055Y-66486045D01*
X107988045Y-66486055D01*
X107907407Y-66595316D01*
X107862555Y-66723496D01*
X107862553Y-66723505D01*
X107859700Y-66753925D01*
X107859700Y-67612474D01*
X107862553Y-67642894D01*
X107862555Y-67642903D01*
X107907407Y-67771083D01*
X107988045Y-67880344D01*
X107988047Y-67880346D01*
X107988050Y-67880350D01*
X107988053Y-67880352D01*
X107988055Y-67880354D01*
X108097316Y-67960992D01*
X108097317Y-67960992D01*
X108097318Y-67960993D01*
X108225501Y-68005846D01*
X108255925Y-68008699D01*
X108255927Y-68008700D01*
X108255934Y-68008700D01*
X108815700Y-68008700D01*
X108873891Y-68027607D01*
X108909855Y-68077107D01*
X108914700Y-68107700D01*
X108914700Y-68202946D01*
X108914701Y-68202958D01*
X108926332Y-68261427D01*
X108926333Y-68261431D01*
X108970648Y-68327752D01*
X108970651Y-68327754D01*
X109035200Y-68370885D01*
X109073079Y-68418935D01*
X109075481Y-68480073D01*
X109041488Y-68530947D01*
X109035200Y-68535515D01*
X108970651Y-68578645D01*
X108970645Y-68578651D01*
X108926334Y-68644966D01*
X108926332Y-68644972D01*
X108914701Y-68703441D01*
X108914700Y-68703453D01*
X108914700Y-68798700D01*
X108895793Y-68856891D01*
X108846293Y-68892855D01*
X108815700Y-68897700D01*
X108255925Y-68897700D01*
X108225505Y-68900553D01*
X108225496Y-68900555D01*
X108097316Y-68945407D01*
X107988055Y-69026045D01*
X107988045Y-69026055D01*
X107907407Y-69135316D01*
X107862555Y-69263496D01*
X107862553Y-69263505D01*
X107859700Y-69293925D01*
X107859700Y-70152474D01*
X107862553Y-70182894D01*
X107862555Y-70182903D01*
X107907407Y-70311083D01*
X107988045Y-70420344D01*
X107988047Y-70420346D01*
X107988050Y-70420350D01*
X107988053Y-70420352D01*
X107988055Y-70420354D01*
X108097316Y-70500992D01*
X108097317Y-70500992D01*
X108097318Y-70500993D01*
X108225501Y-70545846D01*
X108255925Y-70548699D01*
X108255927Y-70548700D01*
X108255934Y-70548700D01*
X108815700Y-70548700D01*
X108873891Y-70567607D01*
X108909855Y-70617107D01*
X108914700Y-70647700D01*
X108914700Y-70742946D01*
X108914701Y-70742958D01*
X108926332Y-70801427D01*
X108926333Y-70801431D01*
X108970648Y-70867752D01*
X108970651Y-70867754D01*
X109035200Y-70910885D01*
X109073079Y-70958935D01*
X109075481Y-71020073D01*
X109041488Y-71070947D01*
X109035200Y-71075515D01*
X108970651Y-71118645D01*
X108970645Y-71118651D01*
X108926334Y-71184966D01*
X108926332Y-71184972D01*
X108914701Y-71243441D01*
X108914700Y-71243453D01*
X108914700Y-71338700D01*
X108895793Y-71396891D01*
X108846293Y-71432855D01*
X108815700Y-71437700D01*
X108255925Y-71437700D01*
X108225505Y-71440553D01*
X108225496Y-71440555D01*
X108097316Y-71485407D01*
X107988055Y-71566045D01*
X107988045Y-71566055D01*
X107907407Y-71675316D01*
X107862555Y-71803496D01*
X107862553Y-71803505D01*
X107859700Y-71833925D01*
X107859700Y-72692474D01*
X107862553Y-72722894D01*
X107862555Y-72722903D01*
X107907407Y-72851083D01*
X107988045Y-72960344D01*
X107988047Y-72960346D01*
X107988050Y-72960350D01*
X107988053Y-72960352D01*
X107988055Y-72960354D01*
X108097316Y-73040992D01*
X108097317Y-73040992D01*
X108097318Y-73040993D01*
X108225501Y-73085846D01*
X108255925Y-73088699D01*
X108255927Y-73088700D01*
X108255934Y-73088700D01*
X108815700Y-73088700D01*
X108873891Y-73107607D01*
X108909855Y-73157107D01*
X108914700Y-73187700D01*
X108914700Y-73282946D01*
X108914701Y-73282958D01*
X108926332Y-73341427D01*
X108926333Y-73341431D01*
X108970648Y-73407752D01*
X108970651Y-73407754D01*
X109035200Y-73450885D01*
X109073079Y-73498935D01*
X109075481Y-73560073D01*
X109041488Y-73610947D01*
X109035200Y-73615515D01*
X108970651Y-73658645D01*
X108970645Y-73658651D01*
X108926334Y-73724966D01*
X108926332Y-73724972D01*
X108914701Y-73783441D01*
X108914700Y-73783453D01*
X108914700Y-73878700D01*
X108895793Y-73936891D01*
X108846293Y-73972855D01*
X108815700Y-73977700D01*
X108255925Y-73977700D01*
X108225505Y-73980553D01*
X108225496Y-73980555D01*
X108097316Y-74025407D01*
X107988055Y-74106045D01*
X107988045Y-74106055D01*
X107907407Y-74215316D01*
X107862555Y-74343496D01*
X107862553Y-74343505D01*
X107859700Y-74373925D01*
X107859700Y-75232474D01*
X107862553Y-75262894D01*
X107862555Y-75262903D01*
X107907407Y-75391083D01*
X107988045Y-75500344D01*
X107988047Y-75500346D01*
X107988050Y-75500350D01*
X107988053Y-75500352D01*
X107988055Y-75500354D01*
X108097316Y-75580992D01*
X108097317Y-75580992D01*
X108097318Y-75580993D01*
X108225501Y-75625846D01*
X108255925Y-75628699D01*
X108255927Y-75628700D01*
X108255934Y-75628700D01*
X108815700Y-75628700D01*
X108873891Y-75647607D01*
X108909855Y-75697107D01*
X108914700Y-75727700D01*
X108914700Y-75822946D01*
X108914701Y-75822958D01*
X108926332Y-75881427D01*
X108926333Y-75881431D01*
X108970648Y-75947752D01*
X108970651Y-75947754D01*
X109035200Y-75990885D01*
X109073079Y-76038935D01*
X109075481Y-76100073D01*
X109041488Y-76150947D01*
X109035200Y-76155515D01*
X108970651Y-76198645D01*
X108970645Y-76198651D01*
X108926334Y-76264966D01*
X108926332Y-76264972D01*
X108914701Y-76323441D01*
X108914700Y-76323453D01*
X108914700Y-76418700D01*
X108895793Y-76476891D01*
X108846293Y-76512855D01*
X108815700Y-76517700D01*
X108255925Y-76517700D01*
X108225505Y-76520553D01*
X108225496Y-76520555D01*
X108097316Y-76565407D01*
X107988055Y-76646045D01*
X107988045Y-76646055D01*
X107907407Y-76755316D01*
X107862555Y-76883496D01*
X107862553Y-76883505D01*
X107859700Y-76913925D01*
X107859700Y-77772474D01*
X107862553Y-77802894D01*
X107862555Y-77802903D01*
X107907407Y-77931083D01*
X107988045Y-78040344D01*
X107988047Y-78040346D01*
X107988050Y-78040350D01*
X107988053Y-78040352D01*
X107988055Y-78040354D01*
X108097316Y-78120992D01*
X108097317Y-78120992D01*
X108097318Y-78120993D01*
X108225501Y-78165846D01*
X108255925Y-78168699D01*
X108255927Y-78168700D01*
X108255934Y-78168700D01*
X108815700Y-78168700D01*
X108873891Y-78187607D01*
X108909855Y-78237107D01*
X108914700Y-78267700D01*
X108914700Y-78362946D01*
X108914701Y-78362958D01*
X108922567Y-78402500D01*
X108926333Y-78421431D01*
X108970648Y-78487752D01*
X108970651Y-78487754D01*
X109035200Y-78530885D01*
X109073079Y-78578935D01*
X109075481Y-78640073D01*
X109041488Y-78690947D01*
X109035200Y-78695515D01*
X108970651Y-78738645D01*
X108970645Y-78738651D01*
X108926334Y-78804966D01*
X108926332Y-78804972D01*
X108914701Y-78863441D01*
X108914700Y-78863453D01*
X108914700Y-78958700D01*
X108895793Y-79016891D01*
X108846293Y-79052855D01*
X108815700Y-79057700D01*
X108255925Y-79057700D01*
X108225505Y-79060553D01*
X108225496Y-79060555D01*
X108097316Y-79105407D01*
X107988055Y-79186045D01*
X107988045Y-79186055D01*
X107907407Y-79295316D01*
X107862555Y-79423496D01*
X107862553Y-79423505D01*
X107859700Y-79453925D01*
X107859700Y-80312474D01*
X107862553Y-80342894D01*
X107862555Y-80342903D01*
X107907407Y-80471083D01*
X107988045Y-80580344D01*
X107988047Y-80580346D01*
X107988050Y-80580350D01*
X107988053Y-80580352D01*
X107988055Y-80580354D01*
X108097316Y-80660992D01*
X108097317Y-80660992D01*
X108097318Y-80660993D01*
X108225501Y-80705846D01*
X108255925Y-80708699D01*
X108255927Y-80708700D01*
X108255934Y-80708700D01*
X108815700Y-80708700D01*
X108873891Y-80727607D01*
X108909855Y-80777107D01*
X108914700Y-80807700D01*
X108914700Y-80902946D01*
X108914701Y-80902958D01*
X108922567Y-80942500D01*
X108926333Y-80961431D01*
X108970648Y-81027752D01*
X108970651Y-81027754D01*
X109035200Y-81070885D01*
X109073079Y-81118935D01*
X109075481Y-81180073D01*
X109041488Y-81230947D01*
X109035200Y-81235515D01*
X108970651Y-81278645D01*
X108970645Y-81278651D01*
X108926334Y-81344966D01*
X108926332Y-81344972D01*
X108914701Y-81403441D01*
X108914700Y-81403453D01*
X108914700Y-81498700D01*
X108895793Y-81556891D01*
X108846293Y-81592855D01*
X108815700Y-81597700D01*
X108255925Y-81597700D01*
X108225505Y-81600553D01*
X108225496Y-81600555D01*
X108097316Y-81645407D01*
X107988055Y-81726045D01*
X107988045Y-81726055D01*
X107907407Y-81835316D01*
X107862555Y-81963496D01*
X107862553Y-81963505D01*
X107859700Y-81993925D01*
X107859700Y-82852474D01*
X107862553Y-82882894D01*
X107862555Y-82882903D01*
X107907407Y-83011083D01*
X107988045Y-83120344D01*
X107988047Y-83120346D01*
X107988050Y-83120350D01*
X107988053Y-83120352D01*
X107988055Y-83120354D01*
X108097316Y-83200992D01*
X108097317Y-83200992D01*
X108097318Y-83200993D01*
X108225501Y-83245846D01*
X108255925Y-83248699D01*
X108255927Y-83248700D01*
X108255934Y-83248700D01*
X108815700Y-83248700D01*
X108873891Y-83267607D01*
X108909855Y-83317107D01*
X108914700Y-83347700D01*
X108914700Y-83442946D01*
X108914701Y-83442958D01*
X108926332Y-83501427D01*
X108926333Y-83501431D01*
X108970648Y-83567752D01*
X108970651Y-83567754D01*
X109035200Y-83610885D01*
X109073079Y-83658935D01*
X109075481Y-83720073D01*
X109041488Y-83770947D01*
X109035200Y-83775515D01*
X108970651Y-83818645D01*
X108970645Y-83818651D01*
X108926334Y-83884966D01*
X108926332Y-83884972D01*
X108914701Y-83943441D01*
X108914700Y-83943453D01*
X108914700Y-84038700D01*
X108895793Y-84096891D01*
X108846293Y-84132855D01*
X108815700Y-84137700D01*
X108255925Y-84137700D01*
X108225505Y-84140553D01*
X108225496Y-84140555D01*
X108097316Y-84185407D01*
X107988055Y-84266045D01*
X107988045Y-84266055D01*
X107907407Y-84375316D01*
X107862555Y-84503496D01*
X107862553Y-84503505D01*
X107859700Y-84533925D01*
X107859700Y-85392474D01*
X107862553Y-85422894D01*
X107862555Y-85422903D01*
X107907407Y-85551083D01*
X107988045Y-85660344D01*
X107988047Y-85660346D01*
X107988050Y-85660350D01*
X107988053Y-85660352D01*
X107988055Y-85660354D01*
X108097316Y-85740992D01*
X108097317Y-85740992D01*
X108097318Y-85740993D01*
X108225501Y-85785846D01*
X108255925Y-85788699D01*
X108255927Y-85788700D01*
X108255934Y-85788700D01*
X108815700Y-85788700D01*
X108873891Y-85807607D01*
X108909855Y-85857107D01*
X108914700Y-85887700D01*
X108914700Y-85982946D01*
X108914701Y-85982958D01*
X108926332Y-86041427D01*
X108926334Y-86041433D01*
X108970645Y-86107748D01*
X108970648Y-86107752D01*
X108970651Y-86107754D01*
X109035200Y-86150885D01*
X109073079Y-86198935D01*
X109075481Y-86260073D01*
X109041488Y-86310947D01*
X109035200Y-86315515D01*
X108970651Y-86358645D01*
X108970645Y-86358651D01*
X108926334Y-86424966D01*
X108926332Y-86424972D01*
X108914701Y-86483441D01*
X108914700Y-86483453D01*
X108914700Y-86578700D01*
X108895793Y-86636891D01*
X108846293Y-86672855D01*
X108815700Y-86677700D01*
X108255925Y-86677700D01*
X108225505Y-86680553D01*
X108225496Y-86680555D01*
X108097316Y-86725407D01*
X107988055Y-86806045D01*
X107988045Y-86806055D01*
X107907407Y-86915316D01*
X107862555Y-87043496D01*
X107862553Y-87043505D01*
X107859700Y-87073925D01*
X107859700Y-87932474D01*
X107862553Y-87962894D01*
X107862555Y-87962903D01*
X107907407Y-88091083D01*
X107988045Y-88200344D01*
X107988047Y-88200346D01*
X107988050Y-88200350D01*
X107988053Y-88200352D01*
X107988055Y-88200354D01*
X108097316Y-88280992D01*
X108097317Y-88280992D01*
X108097318Y-88280993D01*
X108225501Y-88325846D01*
X108255925Y-88328699D01*
X108255927Y-88328700D01*
X108255934Y-88328700D01*
X108815700Y-88328700D01*
X108873891Y-88347607D01*
X108909855Y-88397107D01*
X108914700Y-88427700D01*
X108914700Y-88522946D01*
X108914701Y-88522958D01*
X108926332Y-88581427D01*
X108926334Y-88581433D01*
X108928324Y-88584411D01*
X108970648Y-88647752D01*
X108970651Y-88647754D01*
X109035200Y-88690885D01*
X109073079Y-88738935D01*
X109075481Y-88800073D01*
X109041488Y-88850947D01*
X109035200Y-88855515D01*
X108970651Y-88898645D01*
X108970645Y-88898651D01*
X108926334Y-88964966D01*
X108926332Y-88964972D01*
X108914701Y-89023441D01*
X108914700Y-89023453D01*
X108914700Y-89118700D01*
X108895793Y-89176891D01*
X108846293Y-89212855D01*
X108815700Y-89217700D01*
X108255925Y-89217700D01*
X108225505Y-89220553D01*
X108225496Y-89220555D01*
X108097316Y-89265407D01*
X107988055Y-89346045D01*
X107988045Y-89346055D01*
X107907407Y-89455316D01*
X107862555Y-89583496D01*
X107862553Y-89583505D01*
X107859700Y-89613925D01*
X107859700Y-90472474D01*
X107862553Y-90502894D01*
X107862555Y-90502903D01*
X107907407Y-90631083D01*
X107988045Y-90740344D01*
X107988047Y-90740346D01*
X107988050Y-90740350D01*
X107988053Y-90740352D01*
X107988055Y-90740354D01*
X108097316Y-90820992D01*
X108097317Y-90820992D01*
X108097318Y-90820993D01*
X108225501Y-90865846D01*
X108255925Y-90868699D01*
X108255927Y-90868700D01*
X108255934Y-90868700D01*
X108815700Y-90868700D01*
X108873891Y-90887607D01*
X108909855Y-90937107D01*
X108914700Y-90967700D01*
X108914700Y-91062946D01*
X108914701Y-91062958D01*
X108926332Y-91121427D01*
X108926334Y-91121433D01*
X108965433Y-91179948D01*
X108970648Y-91187752D01*
X108970651Y-91187754D01*
X109035200Y-91230885D01*
X109073079Y-91278935D01*
X109075481Y-91340073D01*
X109041488Y-91390947D01*
X109035200Y-91395515D01*
X108970651Y-91438645D01*
X108970645Y-91438651D01*
X108926334Y-91504966D01*
X108926332Y-91504972D01*
X108914701Y-91563441D01*
X108914700Y-91563453D01*
X108914700Y-91658700D01*
X108895793Y-91716891D01*
X108846293Y-91752855D01*
X108815700Y-91757700D01*
X108255925Y-91757700D01*
X108225505Y-91760553D01*
X108225496Y-91760555D01*
X108097316Y-91805407D01*
X107988055Y-91886045D01*
X107988045Y-91886055D01*
X107907407Y-91995316D01*
X107862555Y-92123496D01*
X107862553Y-92123505D01*
X107859700Y-92153925D01*
X107859700Y-93012474D01*
X107862553Y-93042894D01*
X107862555Y-93042903D01*
X107907407Y-93171083D01*
X107988045Y-93280344D01*
X107988047Y-93280346D01*
X107988050Y-93280350D01*
X107988053Y-93280352D01*
X107988055Y-93280354D01*
X108097316Y-93360992D01*
X108097317Y-93360992D01*
X108097318Y-93360993D01*
X108225501Y-93405846D01*
X108255925Y-93408699D01*
X108255927Y-93408700D01*
X108255934Y-93408700D01*
X108815700Y-93408700D01*
X108873891Y-93427607D01*
X108909855Y-93477107D01*
X108914700Y-93507700D01*
X108914700Y-93602946D01*
X108914701Y-93602958D01*
X108926332Y-93661427D01*
X108926334Y-93661433D01*
X108951707Y-93699406D01*
X108970648Y-93727752D01*
X108970651Y-93727754D01*
X109035200Y-93770885D01*
X109073079Y-93818935D01*
X109075481Y-93880073D01*
X109041488Y-93930947D01*
X109035200Y-93935515D01*
X108970651Y-93978645D01*
X108970645Y-93978651D01*
X108926334Y-94044966D01*
X108926332Y-94044972D01*
X108914701Y-94103441D01*
X108914700Y-94103453D01*
X108914700Y-94198700D01*
X108895793Y-94256891D01*
X108846293Y-94292855D01*
X108815700Y-94297700D01*
X108255925Y-94297700D01*
X108225505Y-94300553D01*
X108225496Y-94300555D01*
X108097316Y-94345407D01*
X107988055Y-94426045D01*
X107988045Y-94426055D01*
X107907407Y-94535316D01*
X107862555Y-94663496D01*
X107862553Y-94663505D01*
X107859700Y-94693925D01*
X107859700Y-95552474D01*
X107862553Y-95582894D01*
X107862555Y-95582903D01*
X107907407Y-95711083D01*
X107988045Y-95820344D01*
X107988047Y-95820346D01*
X107988050Y-95820350D01*
X107988053Y-95820352D01*
X107988055Y-95820354D01*
X108097316Y-95900992D01*
X108097317Y-95900992D01*
X108097318Y-95900993D01*
X108225501Y-95945846D01*
X108255925Y-95948699D01*
X108255927Y-95948700D01*
X108255934Y-95948700D01*
X108815700Y-95948700D01*
X108873891Y-95967607D01*
X108909855Y-96017107D01*
X108914700Y-96047700D01*
X108914700Y-96142946D01*
X108914701Y-96142958D01*
X108926332Y-96201427D01*
X108926334Y-96201433D01*
X108962922Y-96256190D01*
X108970648Y-96267752D01*
X108970651Y-96267754D01*
X109035200Y-96310885D01*
X109073079Y-96358935D01*
X109075481Y-96420073D01*
X109041488Y-96470947D01*
X109035200Y-96475515D01*
X108970651Y-96518645D01*
X108970645Y-96518651D01*
X108926334Y-96584966D01*
X108926332Y-96584972D01*
X108914701Y-96643441D01*
X108914700Y-96643453D01*
X108914700Y-96738700D01*
X108895793Y-96796891D01*
X108846293Y-96832855D01*
X108815700Y-96837700D01*
X108255925Y-96837700D01*
X108225505Y-96840553D01*
X108225496Y-96840555D01*
X108097316Y-96885407D01*
X107988055Y-96966045D01*
X107988045Y-96966055D01*
X107907407Y-97075316D01*
X107862555Y-97203496D01*
X107862553Y-97203505D01*
X107859700Y-97233925D01*
X107859700Y-98092474D01*
X107862553Y-98122894D01*
X107862555Y-98122903D01*
X107907407Y-98251083D01*
X107988045Y-98360344D01*
X107988047Y-98360346D01*
X107988050Y-98360350D01*
X107988053Y-98360352D01*
X107988055Y-98360354D01*
X108097316Y-98440992D01*
X108097317Y-98440992D01*
X108097318Y-98440993D01*
X108225501Y-98485846D01*
X108255925Y-98488699D01*
X108255927Y-98488700D01*
X108255934Y-98488700D01*
X108815700Y-98488700D01*
X108873891Y-98507607D01*
X108909855Y-98557107D01*
X108914700Y-98587700D01*
X108914700Y-98682946D01*
X108914701Y-98682958D01*
X108926332Y-98741427D01*
X108926333Y-98741431D01*
X108970648Y-98807752D01*
X108970651Y-98807754D01*
X109035200Y-98850885D01*
X109073079Y-98898935D01*
X109075481Y-98960073D01*
X109041488Y-99010947D01*
X109035200Y-99015515D01*
X108970651Y-99058645D01*
X108970645Y-99058651D01*
X108926334Y-99124966D01*
X108926332Y-99124972D01*
X108914701Y-99183441D01*
X108914700Y-99183453D01*
X108914700Y-99278700D01*
X108895793Y-99336891D01*
X108846293Y-99372855D01*
X108815700Y-99377700D01*
X108255925Y-99377700D01*
X108225505Y-99380553D01*
X108225496Y-99380555D01*
X108097316Y-99425407D01*
X107988055Y-99506045D01*
X107988045Y-99506055D01*
X107907407Y-99615316D01*
X107862555Y-99743496D01*
X107862553Y-99743505D01*
X107859700Y-99773925D01*
X107859700Y-100632474D01*
X107862553Y-100662894D01*
X107862555Y-100662903D01*
X107907407Y-100791083D01*
X107988045Y-100900344D01*
X107988047Y-100900346D01*
X107988050Y-100900350D01*
X107988053Y-100900352D01*
X107988055Y-100900354D01*
X108097316Y-100980992D01*
X108097317Y-100980992D01*
X108097318Y-100980993D01*
X108225501Y-101025846D01*
X108255925Y-101028699D01*
X108255927Y-101028700D01*
X108255934Y-101028700D01*
X108815700Y-101028700D01*
X108873891Y-101047607D01*
X108909855Y-101097107D01*
X108914700Y-101127700D01*
X108914700Y-101222946D01*
X108914701Y-101222958D01*
X108926332Y-101281427D01*
X108926333Y-101281431D01*
X108970648Y-101347752D01*
X108970651Y-101347754D01*
X109035200Y-101390885D01*
X109073079Y-101438935D01*
X109075481Y-101500073D01*
X109041488Y-101550947D01*
X109035200Y-101555515D01*
X108970651Y-101598645D01*
X108970645Y-101598651D01*
X108926334Y-101664966D01*
X108926332Y-101664972D01*
X108914701Y-101723441D01*
X108914700Y-101723453D01*
X108914700Y-101818700D01*
X108895793Y-101876891D01*
X108846293Y-101912855D01*
X108815700Y-101917700D01*
X108255925Y-101917700D01*
X108225505Y-101920553D01*
X108225496Y-101920555D01*
X108097316Y-101965407D01*
X107988055Y-102046045D01*
X107988045Y-102046055D01*
X107907407Y-102155316D01*
X107862555Y-102283496D01*
X107862553Y-102283505D01*
X107859700Y-102313925D01*
X107859700Y-103172474D01*
X107862553Y-103202894D01*
X107862555Y-103202903D01*
X107907407Y-103331083D01*
X107988045Y-103440344D01*
X107988047Y-103440346D01*
X107988050Y-103440350D01*
X107988053Y-103440352D01*
X107988055Y-103440354D01*
X108097316Y-103520992D01*
X108097317Y-103520992D01*
X108097318Y-103520993D01*
X108225501Y-103565846D01*
X108255925Y-103568699D01*
X108255927Y-103568700D01*
X108255934Y-103568700D01*
X108815700Y-103568700D01*
X108873891Y-103587607D01*
X108909855Y-103637107D01*
X108914700Y-103667700D01*
X108914700Y-103762946D01*
X108914701Y-103762958D01*
X108926332Y-103821427D01*
X108926333Y-103821431D01*
X108970648Y-103887752D01*
X108970651Y-103887754D01*
X109035200Y-103930885D01*
X109073079Y-103978935D01*
X109075481Y-104040073D01*
X109041488Y-104090947D01*
X109035200Y-104095515D01*
X108970651Y-104138645D01*
X108970645Y-104138651D01*
X108926334Y-104204966D01*
X108926332Y-104204972D01*
X108914701Y-104263441D01*
X108914700Y-104263453D01*
X108914700Y-104358700D01*
X108895793Y-104416891D01*
X108846293Y-104452855D01*
X108815700Y-104457700D01*
X108255925Y-104457700D01*
X108225505Y-104460553D01*
X108225496Y-104460555D01*
X108097316Y-104505407D01*
X107988055Y-104586045D01*
X107988045Y-104586055D01*
X107907407Y-104695316D01*
X107862555Y-104823496D01*
X107862553Y-104823505D01*
X107859700Y-104853925D01*
X107859700Y-105712474D01*
X107862553Y-105742894D01*
X107862555Y-105742903D01*
X107907406Y-105871081D01*
X107924995Y-105894913D01*
X107944336Y-105952961D01*
X107925864Y-106011292D01*
X107876634Y-106047624D01*
X107845339Y-106052701D01*
X70124439Y-106052701D01*
X70066248Y-106033794D01*
X70030284Y-105984294D01*
X70030284Y-105923108D01*
X70044784Y-105894912D01*
X70062545Y-105870847D01*
X70107349Y-105742801D01*
X70110199Y-105712411D01*
X70110199Y-104853996D01*
X70107349Y-104823595D01*
X70105018Y-104816933D01*
X70105017Y-104816933D01*
X69660200Y-105261750D01*
X69660200Y-105233830D01*
X69634644Y-105138455D01*
X69585275Y-105052945D01*
X69515455Y-104983125D01*
X69429945Y-104933756D01*
X69334570Y-104908200D01*
X69306646Y-104908200D01*
X69751465Y-104463381D01*
X69751465Y-104463380D01*
X69744804Y-104461050D01*
X69744805Y-104461050D01*
X69714411Y-104458200D01*
X69154200Y-104458200D01*
X69096009Y-104439293D01*
X69060045Y-104389793D01*
X69055200Y-104359200D01*
X69055200Y-104263502D01*
X69055199Y-104263499D01*
X69043596Y-104205163D01*
X68999393Y-104139010D01*
X68999388Y-104139005D01*
X68934750Y-104095815D01*
X68896871Y-104047765D01*
X68894469Y-103986627D01*
X68928462Y-103935753D01*
X68934738Y-103931193D01*
X68999752Y-103887752D01*
X69044067Y-103821431D01*
X69055700Y-103762948D01*
X69055700Y-103667700D01*
X69074607Y-103609509D01*
X69124107Y-103573545D01*
X69154700Y-103568700D01*
X69714473Y-103568700D01*
X69714473Y-103568699D01*
X69744899Y-103565846D01*
X69873082Y-103520993D01*
X69982350Y-103440350D01*
X70062993Y-103331082D01*
X70107846Y-103202899D01*
X70110699Y-103172473D01*
X70110700Y-103172473D01*
X70110700Y-102313927D01*
X70110699Y-102313925D01*
X70107846Y-102283505D01*
X70107846Y-102283501D01*
X70062993Y-102155318D01*
X69982350Y-102046050D01*
X69982346Y-102046047D01*
X69982344Y-102046045D01*
X69873083Y-101965407D01*
X69744903Y-101920555D01*
X69744894Y-101920553D01*
X69714474Y-101917700D01*
X69714466Y-101917700D01*
X69154700Y-101917700D01*
X69096509Y-101898793D01*
X69060545Y-101849293D01*
X69055700Y-101818700D01*
X69055700Y-101723453D01*
X69055698Y-101723441D01*
X69052911Y-101709431D01*
X69044067Y-101664969D01*
X68999752Y-101598648D01*
X68935197Y-101555513D01*
X68897320Y-101507465D01*
X68894918Y-101446327D01*
X68928911Y-101395454D01*
X68935188Y-101390892D01*
X68999752Y-101347752D01*
X69044067Y-101281431D01*
X69055700Y-101222948D01*
X69055700Y-101127700D01*
X69074607Y-101069509D01*
X69124107Y-101033545D01*
X69154700Y-101028700D01*
X69714473Y-101028700D01*
X69714473Y-101028699D01*
X69744899Y-101025846D01*
X69873082Y-100980993D01*
X69982350Y-100900350D01*
X70062993Y-100791082D01*
X70107846Y-100662899D01*
X70110699Y-100632473D01*
X70110700Y-100632473D01*
X70110700Y-99773927D01*
X70110699Y-99773925D01*
X70107846Y-99743505D01*
X70107846Y-99743501D01*
X70062993Y-99615318D01*
X69982350Y-99506050D01*
X69982346Y-99506047D01*
X69982344Y-99506045D01*
X69873083Y-99425407D01*
X69744903Y-99380555D01*
X69744894Y-99380553D01*
X69714474Y-99377700D01*
X69714466Y-99377700D01*
X69154700Y-99377700D01*
X69096509Y-99358793D01*
X69060545Y-99309293D01*
X69055700Y-99278700D01*
X69055700Y-99183453D01*
X69055698Y-99183441D01*
X69052911Y-99169431D01*
X69044067Y-99124969D01*
X68999752Y-99058648D01*
X68935197Y-99015513D01*
X68897320Y-98967465D01*
X68894918Y-98906327D01*
X68928911Y-98855454D01*
X68935188Y-98850892D01*
X68999752Y-98807752D01*
X69044067Y-98741431D01*
X69055700Y-98682948D01*
X69055700Y-98587700D01*
X69074607Y-98529509D01*
X69124107Y-98493545D01*
X69154700Y-98488700D01*
X69714473Y-98488700D01*
X69714473Y-98488699D01*
X69744899Y-98485846D01*
X69873082Y-98440993D01*
X69982350Y-98360350D01*
X70062993Y-98251082D01*
X70107846Y-98122899D01*
X70110699Y-98092473D01*
X70110700Y-98092473D01*
X70110700Y-97233927D01*
X70110699Y-97233925D01*
X70107846Y-97203505D01*
X70107846Y-97203501D01*
X70062993Y-97075318D01*
X69982350Y-96966050D01*
X69982346Y-96966047D01*
X69982344Y-96966045D01*
X69873083Y-96885407D01*
X69744903Y-96840555D01*
X69744894Y-96840553D01*
X69714474Y-96837700D01*
X69714466Y-96837700D01*
X69154700Y-96837700D01*
X69096509Y-96818793D01*
X69060545Y-96769293D01*
X69055700Y-96738700D01*
X69055700Y-96643453D01*
X69055698Y-96643441D01*
X69052911Y-96629431D01*
X69044067Y-96584969D01*
X68999752Y-96518648D01*
X68935197Y-96475513D01*
X68897320Y-96427465D01*
X68894918Y-96366327D01*
X68928911Y-96315454D01*
X68935188Y-96310892D01*
X68999752Y-96267752D01*
X69044067Y-96201431D01*
X69055700Y-96142948D01*
X69055700Y-96047700D01*
X69072138Y-95997108D01*
X78158900Y-95997108D01*
X78158900Y-96128892D01*
X78162669Y-96142958D01*
X78193009Y-96256190D01*
X78258896Y-96370309D01*
X78258898Y-96370311D01*
X78258900Y-96370314D01*
X78352086Y-96463500D01*
X78352088Y-96463501D01*
X78352090Y-96463503D01*
X78466210Y-96529390D01*
X78466208Y-96529390D01*
X78466212Y-96529391D01*
X78466214Y-96529392D01*
X78593508Y-96563500D01*
X78593510Y-96563500D01*
X78725290Y-96563500D01*
X78725292Y-96563500D01*
X78852586Y-96529392D01*
X78852588Y-96529390D01*
X78852590Y-96529390D01*
X78966709Y-96463503D01*
X78966709Y-96463502D01*
X78966714Y-96463500D01*
X79059900Y-96370314D01*
X79093529Y-96312067D01*
X79125790Y-96256190D01*
X79125790Y-96256188D01*
X79125792Y-96256186D01*
X79159900Y-96128892D01*
X79159900Y-95997108D01*
X79125792Y-95869814D01*
X79125790Y-95869811D01*
X79125790Y-95869809D01*
X79059903Y-95755690D01*
X79059901Y-95755688D01*
X79059900Y-95755686D01*
X78966714Y-95662500D01*
X78966711Y-95662498D01*
X78966709Y-95662496D01*
X78852589Y-95596609D01*
X78852591Y-95596609D01*
X78801404Y-95582894D01*
X78725292Y-95562500D01*
X78593508Y-95562500D01*
X78517396Y-95582894D01*
X78466209Y-95596609D01*
X78352090Y-95662496D01*
X78258896Y-95755690D01*
X78193009Y-95869809D01*
X78193008Y-95869814D01*
X78158900Y-95997108D01*
X69072138Y-95997108D01*
X69074607Y-95989509D01*
X69124107Y-95953545D01*
X69154700Y-95948700D01*
X69714473Y-95948700D01*
X69714473Y-95948699D01*
X69744899Y-95945846D01*
X69873082Y-95900993D01*
X69982350Y-95820350D01*
X70062993Y-95711082D01*
X70107846Y-95582899D01*
X70110699Y-95552473D01*
X70110700Y-95552473D01*
X70110700Y-94693927D01*
X70110699Y-94693925D01*
X70107846Y-94663505D01*
X70107846Y-94663501D01*
X70062993Y-94535318D01*
X70053472Y-94522418D01*
X69982354Y-94426055D01*
X69982352Y-94426053D01*
X69982350Y-94426050D01*
X69982346Y-94426047D01*
X69982344Y-94426045D01*
X69873083Y-94345407D01*
X69744903Y-94300555D01*
X69744894Y-94300553D01*
X69714474Y-94297700D01*
X69714466Y-94297700D01*
X69154700Y-94297700D01*
X69096509Y-94278793D01*
X69060545Y-94229293D01*
X69055700Y-94198700D01*
X69055700Y-94103453D01*
X69055698Y-94103441D01*
X69049002Y-94069778D01*
X69044067Y-94044969D01*
X68999752Y-93978648D01*
X68935197Y-93935513D01*
X68917997Y-93913694D01*
X68899526Y-93892937D01*
X68899222Y-93889878D01*
X68897320Y-93887465D01*
X68896228Y-93859695D01*
X68893487Y-93832050D01*
X68895052Y-93829754D01*
X68894918Y-93826327D01*
X68924389Y-93779242D01*
X68932170Y-93772317D01*
X68933431Y-93772067D01*
X68953343Y-93758762D01*
X74984799Y-93758762D01*
X74984799Y-93958167D01*
X75015991Y-94155109D01*
X75015992Y-94155113D01*
X75077606Y-94344740D01*
X75077608Y-94344743D01*
X75168134Y-94522412D01*
X75168138Y-94522418D01*
X75195891Y-94560616D01*
X75525954Y-94230552D01*
X75531305Y-94243470D01*
X75620256Y-94376595D01*
X75733469Y-94489808D01*
X75866594Y-94578759D01*
X75879508Y-94584108D01*
X75549446Y-94914171D01*
X75587646Y-94941925D01*
X75587651Y-94941929D01*
X75765320Y-95032455D01*
X75765323Y-95032457D01*
X75954950Y-95094071D01*
X75954954Y-95094072D01*
X76151897Y-95125265D01*
X76351301Y-95125265D01*
X76548243Y-95094072D01*
X76548247Y-95094071D01*
X76583218Y-95082708D01*
X89353300Y-95082708D01*
X89353300Y-95214492D01*
X89383379Y-95326751D01*
X89387409Y-95341790D01*
X89453296Y-95455909D01*
X89453298Y-95455911D01*
X89453300Y-95455914D01*
X89546486Y-95549100D01*
X89546488Y-95549101D01*
X89546490Y-95549103D01*
X89660610Y-95614990D01*
X89660608Y-95614990D01*
X89660612Y-95614991D01*
X89660614Y-95614992D01*
X89787908Y-95649100D01*
X89787910Y-95649100D01*
X89919690Y-95649100D01*
X89919692Y-95649100D01*
X90046986Y-95614992D01*
X90046988Y-95614990D01*
X90046990Y-95614990D01*
X90161109Y-95549103D01*
X90161109Y-95549102D01*
X90161114Y-95549100D01*
X90254300Y-95455914D01*
X90320192Y-95341786D01*
X90354300Y-95214492D01*
X90354300Y-95082708D01*
X90320192Y-94955414D01*
X90320190Y-94955411D01*
X90320190Y-94955409D01*
X90254303Y-94841290D01*
X90254301Y-94841288D01*
X90254300Y-94841286D01*
X90161114Y-94748100D01*
X90161111Y-94748098D01*
X90161109Y-94748096D01*
X90046989Y-94682209D01*
X90046991Y-94682209D01*
X89997599Y-94668975D01*
X89919692Y-94648100D01*
X89787908Y-94648100D01*
X89710000Y-94668975D01*
X89660609Y-94682209D01*
X89546490Y-94748096D01*
X89453296Y-94841290D01*
X89387409Y-94955409D01*
X89387408Y-94955414D01*
X89353300Y-95082708D01*
X76583218Y-95082708D01*
X76737874Y-95032457D01*
X76737877Y-95032455D01*
X76825110Y-94988009D01*
X76915540Y-94941932D01*
X76915548Y-94941927D01*
X76953750Y-94914171D01*
X76623688Y-94584109D01*
X76636604Y-94578759D01*
X76769729Y-94489808D01*
X76882942Y-94376595D01*
X76971893Y-94243470D01*
X76977243Y-94230554D01*
X77307305Y-94560616D01*
X77335061Y-94522414D01*
X77335066Y-94522406D01*
X77425589Y-94344743D01*
X77425591Y-94344740D01*
X77487205Y-94155113D01*
X77487206Y-94155109D01*
X77500721Y-94069777D01*
X79933831Y-94069777D01*
X79933831Y-94201561D01*
X79954525Y-94278793D01*
X79967940Y-94328859D01*
X80033827Y-94442978D01*
X80033829Y-94442980D01*
X80033831Y-94442983D01*
X80127017Y-94536169D01*
X80127019Y-94536170D01*
X80127021Y-94536172D01*
X80241141Y-94602059D01*
X80241139Y-94602059D01*
X80241143Y-94602060D01*
X80241145Y-94602061D01*
X80368439Y-94636169D01*
X80368441Y-94636169D01*
X80500221Y-94636169D01*
X80500223Y-94636169D01*
X80627517Y-94602061D01*
X80627519Y-94602059D01*
X80627521Y-94602059D01*
X80741640Y-94536172D01*
X80741640Y-94536171D01*
X80741645Y-94536169D01*
X80834831Y-94442983D01*
X80834834Y-94442978D01*
X80900721Y-94328859D01*
X80900721Y-94328857D01*
X80900723Y-94328855D01*
X80934831Y-94201561D01*
X80934831Y-94092108D01*
X88051500Y-94092108D01*
X88051500Y-94223892D01*
X88079626Y-94328859D01*
X88085609Y-94351190D01*
X88151496Y-94465309D01*
X88151498Y-94465311D01*
X88151500Y-94465314D01*
X88244686Y-94558500D01*
X88244688Y-94558501D01*
X88244690Y-94558503D01*
X88358810Y-94624390D01*
X88358808Y-94624390D01*
X88358812Y-94624391D01*
X88358814Y-94624392D01*
X88486108Y-94658500D01*
X88486110Y-94658500D01*
X88617890Y-94658500D01*
X88617892Y-94658500D01*
X88745186Y-94624392D01*
X88745188Y-94624390D01*
X88745190Y-94624390D01*
X88859309Y-94558503D01*
X88859309Y-94558502D01*
X88859314Y-94558500D01*
X88952500Y-94465314D01*
X88986686Y-94406103D01*
X89018390Y-94351190D01*
X89018390Y-94351188D01*
X89018392Y-94351186D01*
X89052500Y-94223892D01*
X89052500Y-94092108D01*
X89018392Y-93964814D01*
X89018390Y-93964811D01*
X89018390Y-93964809D01*
X88952503Y-93850690D01*
X88952501Y-93850688D01*
X88952500Y-93850686D01*
X88859314Y-93757500D01*
X88859311Y-93757498D01*
X88859309Y-93757496D01*
X88745189Y-93691609D01*
X88745191Y-93691609D01*
X88695799Y-93678375D01*
X88617892Y-93657500D01*
X88486108Y-93657500D01*
X88408200Y-93678375D01*
X88358809Y-93691609D01*
X88244690Y-93757496D01*
X88151496Y-93850690D01*
X88085609Y-93964809D01*
X88081901Y-93978648D01*
X88051500Y-94092108D01*
X80934831Y-94092108D01*
X80934831Y-94069777D01*
X80900723Y-93942483D01*
X80900721Y-93942480D01*
X80900721Y-93942478D01*
X80834834Y-93828359D01*
X80834832Y-93828357D01*
X80834831Y-93828355D01*
X80741645Y-93735169D01*
X80741642Y-93735167D01*
X80741640Y-93735165D01*
X80627520Y-93669278D01*
X80627522Y-93669278D01*
X80578130Y-93656044D01*
X80500223Y-93635169D01*
X80368439Y-93635169D01*
X80290531Y-93656044D01*
X80241140Y-93669278D01*
X80127021Y-93735165D01*
X80033827Y-93828359D01*
X79967940Y-93942478D01*
X79958249Y-93978646D01*
X79933831Y-94069777D01*
X77500721Y-94069777D01*
X77504202Y-94047801D01*
X77518399Y-93958166D01*
X77518399Y-93758762D01*
X77487206Y-93561820D01*
X77487205Y-93561816D01*
X77425591Y-93372189D01*
X77425589Y-93372186D01*
X77335063Y-93194517D01*
X77335059Y-93194512D01*
X77307305Y-93156312D01*
X76977242Y-93486374D01*
X76971893Y-93473460D01*
X76882942Y-93340335D01*
X76769729Y-93227122D01*
X76636604Y-93138171D01*
X76623686Y-93132820D01*
X76953750Y-92802757D01*
X76915552Y-92775004D01*
X76915546Y-92775000D01*
X76737877Y-92684474D01*
X76737874Y-92684472D01*
X76548247Y-92622858D01*
X76548243Y-92622857D01*
X76351301Y-92591665D01*
X76151897Y-92591665D01*
X75954954Y-92622857D01*
X75954950Y-92622858D01*
X75765323Y-92684472D01*
X75765320Y-92684474D01*
X75587657Y-92774997D01*
X75549447Y-92802758D01*
X75879509Y-93132820D01*
X75866594Y-93138171D01*
X75733469Y-93227122D01*
X75620256Y-93340335D01*
X75531305Y-93473460D01*
X75525954Y-93486375D01*
X75195892Y-93156313D01*
X75168131Y-93194523D01*
X75077608Y-93372186D01*
X75077606Y-93372189D01*
X75015992Y-93561816D01*
X75015991Y-93561820D01*
X74984799Y-93758762D01*
X68953343Y-93758762D01*
X68999752Y-93727752D01*
X69044067Y-93661431D01*
X69055700Y-93602948D01*
X69055700Y-93507700D01*
X69074607Y-93449509D01*
X69124107Y-93413545D01*
X69154700Y-93408700D01*
X69714473Y-93408700D01*
X69714473Y-93408699D01*
X69744899Y-93405846D01*
X69873082Y-93360993D01*
X69982350Y-93280350D01*
X70062993Y-93171082D01*
X70107846Y-93042899D01*
X70110699Y-93012473D01*
X70110700Y-93012473D01*
X70110700Y-92153927D01*
X70110699Y-92153925D01*
X70108194Y-92127214D01*
X70107846Y-92123501D01*
X70062993Y-91995318D01*
X70062538Y-91994702D01*
X69982354Y-91886055D01*
X69982352Y-91886053D01*
X69982350Y-91886050D01*
X69982346Y-91886047D01*
X69982344Y-91886045D01*
X69873083Y-91805407D01*
X69744903Y-91760555D01*
X69744894Y-91760553D01*
X69714474Y-91757700D01*
X69714466Y-91757700D01*
X69154700Y-91757700D01*
X69096509Y-91738793D01*
X69060545Y-91689293D01*
X69055700Y-91658700D01*
X69055700Y-91563453D01*
X69055698Y-91563441D01*
X69044290Y-91506092D01*
X69044067Y-91504969D01*
X68999752Y-91438648D01*
X68934428Y-91394999D01*
X68933769Y-91394542D01*
X68918383Y-91374308D01*
X79124100Y-91374308D01*
X79124100Y-91506092D01*
X79141437Y-91570796D01*
X79158209Y-91633390D01*
X79224096Y-91747509D01*
X79224098Y-91747511D01*
X79224100Y-91747514D01*
X79317286Y-91840700D01*
X79317288Y-91840701D01*
X79317290Y-91840703D01*
X79431410Y-91906590D01*
X79431408Y-91906590D01*
X79431412Y-91906591D01*
X79431414Y-91906592D01*
X79558708Y-91940700D01*
X79558710Y-91940700D01*
X79690490Y-91940700D01*
X79690492Y-91940700D01*
X79817786Y-91906592D01*
X79817788Y-91906590D01*
X79817790Y-91906590D01*
X79931909Y-91840703D01*
X79931909Y-91840702D01*
X79931914Y-91840700D01*
X79964962Y-91807651D01*
X80019475Y-91779876D01*
X80079907Y-91789447D01*
X80120699Y-91828157D01*
X80125008Y-91835621D01*
X80125010Y-91835623D01*
X80125012Y-91835626D01*
X80218198Y-91928812D01*
X80218200Y-91928813D01*
X80218202Y-91928815D01*
X80332322Y-91994702D01*
X80332320Y-91994702D01*
X80332324Y-91994703D01*
X80332326Y-91994704D01*
X80459620Y-92028812D01*
X80459622Y-92028812D01*
X80591402Y-92028812D01*
X80591404Y-92028812D01*
X80718698Y-91994704D01*
X80718700Y-91994702D01*
X80718702Y-91994702D01*
X80832821Y-91928815D01*
X80832821Y-91928814D01*
X80832826Y-91928812D01*
X80874609Y-91887028D01*
X80929123Y-91859252D01*
X80989555Y-91868823D01*
X81014611Y-91887026D01*
X81019083Y-91891497D01*
X81019090Y-91891503D01*
X81133210Y-91957390D01*
X81133208Y-91957390D01*
X81133212Y-91957391D01*
X81133214Y-91957392D01*
X81260508Y-91991500D01*
X81260510Y-91991500D01*
X81392290Y-91991500D01*
X81392292Y-91991500D01*
X81519586Y-91957392D01*
X81519588Y-91957390D01*
X81519590Y-91957390D01*
X81633709Y-91891503D01*
X81633709Y-91891502D01*
X81633714Y-91891500D01*
X81679573Y-91845640D01*
X81734087Y-91817864D01*
X81794519Y-91827435D01*
X81819577Y-91845640D01*
X81841684Y-91867746D01*
X81841690Y-91867751D01*
X81955810Y-91933638D01*
X81955808Y-91933638D01*
X81955812Y-91933639D01*
X81955814Y-91933640D01*
X82083108Y-91967748D01*
X82083110Y-91967748D01*
X82214890Y-91967748D01*
X82214892Y-91967748D01*
X82342186Y-91933640D01*
X82384297Y-91909326D01*
X82444144Y-91896605D01*
X82500040Y-91921491D01*
X82519017Y-91948344D01*
X82520363Y-91947567D01*
X82589496Y-92067309D01*
X82589498Y-92067311D01*
X82589500Y-92067314D01*
X82682686Y-92160500D01*
X82682688Y-92160501D01*
X82682690Y-92160503D01*
X82796810Y-92226390D01*
X82796808Y-92226390D01*
X82796812Y-92226391D01*
X82796814Y-92226392D01*
X82924108Y-92260500D01*
X82924110Y-92260500D01*
X83055890Y-92260500D01*
X83055892Y-92260500D01*
X83183186Y-92226392D01*
X83183188Y-92226390D01*
X83183190Y-92226390D01*
X83297309Y-92160503D01*
X83297309Y-92160502D01*
X83297314Y-92160500D01*
X83390500Y-92067314D01*
X83390503Y-92067309D01*
X83456390Y-91953190D01*
X83456390Y-91953188D01*
X83456392Y-91953186D01*
X83490500Y-91825892D01*
X83490500Y-91694108D01*
X83456392Y-91566814D01*
X83456390Y-91566811D01*
X83456390Y-91566809D01*
X83447902Y-91552108D01*
X88801500Y-91552108D01*
X88801500Y-91683892D01*
X88825546Y-91773634D01*
X88835609Y-91811190D01*
X88901496Y-91925309D01*
X88901498Y-91925311D01*
X88901500Y-91925314D01*
X88994686Y-92018500D01*
X88994688Y-92018501D01*
X88994690Y-92018503D01*
X89108810Y-92084390D01*
X89108808Y-92084390D01*
X89108812Y-92084391D01*
X89108814Y-92084392D01*
X89236108Y-92118500D01*
X89236110Y-92118500D01*
X89367890Y-92118500D01*
X89367892Y-92118500D01*
X89495186Y-92084392D01*
X89513085Y-92074058D01*
X89572933Y-92061336D01*
X89628829Y-92086222D01*
X89659422Y-92139210D01*
X89658213Y-92185415D01*
X89639700Y-92254508D01*
X89639700Y-92386292D01*
X89669779Y-92498551D01*
X89673809Y-92513590D01*
X89739696Y-92627709D01*
X89739698Y-92627711D01*
X89739700Y-92627714D01*
X89820894Y-92708908D01*
X89848670Y-92763423D01*
X89839099Y-92823855D01*
X89836626Y-92828410D01*
X89767770Y-92947670D01*
X89745031Y-93032534D01*
X89733662Y-93074966D01*
X89733662Y-93206750D01*
X89739121Y-93227122D01*
X89767771Y-93334048D01*
X89833658Y-93448167D01*
X89833660Y-93448169D01*
X89833662Y-93448172D01*
X89926848Y-93541358D01*
X89926850Y-93541359D01*
X89926852Y-93541361D01*
X90040972Y-93607248D01*
X90040973Y-93607249D01*
X90040975Y-93607249D01*
X90040976Y-93607250D01*
X90047366Y-93608962D01*
X90098681Y-93642285D01*
X90120609Y-93699406D01*
X90107482Y-93754089D01*
X90073808Y-93812412D01*
X90061486Y-93858399D01*
X90039700Y-93939708D01*
X90039700Y-94071492D01*
X90048261Y-94103441D01*
X90073809Y-94198790D01*
X90139696Y-94312909D01*
X90139698Y-94312911D01*
X90139700Y-94312914D01*
X90232886Y-94406100D01*
X90232888Y-94406101D01*
X90232890Y-94406103D01*
X90347010Y-94471990D01*
X90347008Y-94471990D01*
X90347012Y-94471991D01*
X90347014Y-94471992D01*
X90474308Y-94506100D01*
X90474310Y-94506100D01*
X90606090Y-94506100D01*
X90606092Y-94506100D01*
X90733386Y-94471992D01*
X90733388Y-94471990D01*
X90733390Y-94471990D01*
X90847509Y-94406103D01*
X90847509Y-94406102D01*
X90847514Y-94406100D01*
X90940700Y-94312914D01*
X90944952Y-94305550D01*
X91006590Y-94198790D01*
X91006590Y-94198788D01*
X91006592Y-94198786D01*
X91040700Y-94071492D01*
X91040700Y-93939708D01*
X91006592Y-93812414D01*
X91006590Y-93812411D01*
X91006590Y-93812409D01*
X90940703Y-93698290D01*
X90940701Y-93698288D01*
X90940700Y-93698286D01*
X90847514Y-93605100D01*
X90847511Y-93605098D01*
X90847509Y-93605096D01*
X90733389Y-93539209D01*
X90733386Y-93539208D01*
X90726988Y-93537493D01*
X90703394Y-93522170D01*
X90679044Y-93508111D01*
X90677944Y-93505641D01*
X90675676Y-93504168D01*
X90665594Y-93477902D01*
X90654158Y-93452215D01*
X90654720Y-93449570D01*
X90653751Y-93447046D01*
X90666879Y-93392370D01*
X90669802Y-93387308D01*
X91265300Y-93387308D01*
X91265300Y-93519092D01*
X91288346Y-93605100D01*
X91299409Y-93646390D01*
X91365296Y-93760509D01*
X91365298Y-93760511D01*
X91365300Y-93760514D01*
X91458486Y-93853700D01*
X91458488Y-93853701D01*
X91458490Y-93853703D01*
X91572610Y-93919590D01*
X91572608Y-93919590D01*
X91572612Y-93919591D01*
X91572614Y-93919592D01*
X91699908Y-93953700D01*
X91699910Y-93953700D01*
X91831690Y-93953700D01*
X91831692Y-93953700D01*
X91958986Y-93919592D01*
X91958988Y-93919590D01*
X91958990Y-93919590D01*
X92073109Y-93853703D01*
X92073109Y-93853702D01*
X92073114Y-93853700D01*
X92166300Y-93760514D01*
X92167380Y-93758644D01*
X100238801Y-93758644D01*
X100238801Y-93958153D01*
X100277722Y-94153821D01*
X100277722Y-94153823D01*
X100354067Y-94338137D01*
X100379797Y-94376645D01*
X100720627Y-94035815D01*
X100730882Y-94074088D01*
X100804450Y-94201510D01*
X100908490Y-94305550D01*
X101035912Y-94379118D01*
X101074181Y-94389372D01*
X100733352Y-94730201D01*
X100771862Y-94755932D01*
X100956177Y-94832277D01*
X101151846Y-94871198D01*
X101151850Y-94871199D01*
X101351352Y-94871199D01*
X101351355Y-94871198D01*
X101547023Y-94832277D01*
X101547025Y-94832277D01*
X101731339Y-94755932D01*
X101769848Y-94730200D01*
X101429020Y-94389372D01*
X101467290Y-94379118D01*
X101594712Y-94305550D01*
X101698752Y-94201510D01*
X101772320Y-94074088D01*
X101782574Y-94035818D01*
X102123402Y-94376646D01*
X102149134Y-94338137D01*
X102225479Y-94153823D01*
X102225479Y-94153821D01*
X102264400Y-93958153D01*
X102264401Y-93958149D01*
X102264401Y-93758648D01*
X102264400Y-93758644D01*
X102225479Y-93562976D01*
X102225479Y-93562974D01*
X102149134Y-93378660D01*
X102123403Y-93340150D01*
X101782574Y-93680979D01*
X101772320Y-93642710D01*
X101698752Y-93515288D01*
X101594712Y-93411248D01*
X101467290Y-93337680D01*
X101429017Y-93327425D01*
X101769848Y-92986595D01*
X101731339Y-92960865D01*
X101547024Y-92884520D01*
X101351355Y-92845599D01*
X101151846Y-92845599D01*
X100956179Y-92884519D01*
X100771862Y-92960866D01*
X100733353Y-92986596D01*
X101074182Y-93327425D01*
X101035912Y-93337680D01*
X100908490Y-93411248D01*
X100804450Y-93515288D01*
X100730882Y-93642710D01*
X100720627Y-93680980D01*
X100379798Y-93340151D01*
X100354068Y-93378660D01*
X100277721Y-93562977D01*
X100238801Y-93758644D01*
X92167380Y-93758644D01*
X92168043Y-93757496D01*
X92198761Y-93704290D01*
X92198765Y-93704283D01*
X92218976Y-93669277D01*
X92232192Y-93646386D01*
X92266300Y-93519092D01*
X92266300Y-93387308D01*
X92232192Y-93260014D01*
X92232190Y-93260011D01*
X92232190Y-93260009D01*
X92166303Y-93145890D01*
X92166301Y-93145888D01*
X92166300Y-93145886D01*
X92073114Y-93052700D01*
X92073111Y-93052698D01*
X92073109Y-93052696D01*
X91958989Y-92986809D01*
X91958991Y-92986809D01*
X91909599Y-92973575D01*
X91831692Y-92952700D01*
X91699908Y-92952700D01*
X91622000Y-92973575D01*
X91572609Y-92986809D01*
X91458490Y-93052696D01*
X91365296Y-93145890D01*
X91299409Y-93260009D01*
X91293959Y-93280350D01*
X91265300Y-93387308D01*
X90669802Y-93387308D01*
X90700554Y-93334044D01*
X90734662Y-93206750D01*
X90734662Y-93074966D01*
X90700554Y-92947672D01*
X90700552Y-92947669D01*
X90700552Y-92947667D01*
X90634665Y-92833548D01*
X90634663Y-92833546D01*
X90634662Y-92833544D01*
X90553466Y-92752348D01*
X90525691Y-92697834D01*
X90535262Y-92637402D01*
X90537736Y-92632846D01*
X90540697Y-92627716D01*
X90540700Y-92627714D01*
X90606592Y-92513586D01*
X90640700Y-92386292D01*
X90640700Y-92254508D01*
X90606592Y-92127214D01*
X90606590Y-92127211D01*
X90606590Y-92127209D01*
X90540703Y-92013090D01*
X90540701Y-92013088D01*
X90540700Y-92013086D01*
X90447514Y-91919900D01*
X90447511Y-91919898D01*
X90447509Y-91919896D01*
X90333389Y-91854009D01*
X90333391Y-91854009D01*
X90283719Y-91840700D01*
X90206092Y-91819900D01*
X90074308Y-91819900D01*
X90015636Y-91835621D01*
X89947012Y-91854008D01*
X89929110Y-91864344D01*
X89869261Y-91877062D01*
X89813366Y-91852174D01*
X89782776Y-91799184D01*
X89781320Y-91766796D01*
X89782160Y-91759801D01*
X89802500Y-91683892D01*
X89802500Y-91602908D01*
X91487500Y-91602908D01*
X91487500Y-91734692D01*
X91515905Y-91840703D01*
X91521609Y-91861990D01*
X91587496Y-91976109D01*
X91587498Y-91976111D01*
X91587500Y-91976114D01*
X91680686Y-92069300D01*
X91680688Y-92069301D01*
X91680690Y-92069303D01*
X91794810Y-92135190D01*
X91794808Y-92135190D01*
X91794812Y-92135191D01*
X91794814Y-92135192D01*
X91922108Y-92169300D01*
X91922110Y-92169300D01*
X92053890Y-92169300D01*
X92053892Y-92169300D01*
X92181186Y-92135192D01*
X92181188Y-92135190D01*
X92181190Y-92135190D01*
X92295309Y-92069303D01*
X92295309Y-92069302D01*
X92295314Y-92069300D01*
X92346136Y-92018477D01*
X92400650Y-91990701D01*
X92461082Y-92000272D01*
X92465624Y-92002738D01*
X92542011Y-92046840D01*
X92669305Y-92080948D01*
X92669307Y-92080948D01*
X92801087Y-92080948D01*
X92801089Y-92080948D01*
X92928383Y-92046840D01*
X92928385Y-92046838D01*
X92928387Y-92046838D01*
X93042506Y-91980951D01*
X93042506Y-91980950D01*
X93042511Y-91980948D01*
X93135697Y-91887762D01*
X93136683Y-91886055D01*
X93201587Y-91773638D01*
X93201587Y-91773636D01*
X93201589Y-91773634D01*
X93235697Y-91646340D01*
X93235697Y-91514556D01*
X93201589Y-91387262D01*
X93201587Y-91387258D01*
X93195733Y-91377118D01*
X93195732Y-91377116D01*
X93170901Y-91334108D01*
X96049500Y-91334108D01*
X96049500Y-91465892D01*
X96062540Y-91514557D01*
X96083609Y-91593190D01*
X96149496Y-91707309D01*
X96149498Y-91707311D01*
X96149500Y-91707314D01*
X96242686Y-91800500D01*
X96242688Y-91800501D01*
X96242690Y-91800503D01*
X96356810Y-91866390D01*
X96356808Y-91866390D01*
X96356812Y-91866391D01*
X96356814Y-91866392D01*
X96484108Y-91900500D01*
X96484110Y-91900500D01*
X96615890Y-91900500D01*
X96615892Y-91900500D01*
X96743186Y-91866392D01*
X96743188Y-91866390D01*
X96743190Y-91866390D01*
X96857309Y-91800503D01*
X96857309Y-91800502D01*
X96857314Y-91800500D01*
X96950500Y-91707314D01*
X96958125Y-91694108D01*
X97010779Y-91602908D01*
X98478900Y-91602908D01*
X98478900Y-91734692D01*
X98507305Y-91840703D01*
X98513009Y-91861990D01*
X98578896Y-91976109D01*
X98578898Y-91976111D01*
X98578900Y-91976114D01*
X98672086Y-92069300D01*
X98672088Y-92069301D01*
X98672090Y-92069303D01*
X98786210Y-92135190D01*
X98786208Y-92135190D01*
X98786212Y-92135191D01*
X98786214Y-92135192D01*
X98913508Y-92169300D01*
X98913510Y-92169300D01*
X99045290Y-92169300D01*
X99045292Y-92169300D01*
X99172586Y-92135192D01*
X99172588Y-92135190D01*
X99172590Y-92135190D01*
X99286709Y-92069303D01*
X99286709Y-92069302D01*
X99286714Y-92069300D01*
X99379900Y-91976114D01*
X99396382Y-91947567D01*
X99445790Y-91861990D01*
X99445790Y-91861988D01*
X99445792Y-91861986D01*
X99479900Y-91734692D01*
X99479900Y-91602908D01*
X99445792Y-91475614D01*
X99445790Y-91475611D01*
X99445790Y-91475609D01*
X99379903Y-91361490D01*
X99379901Y-91361488D01*
X99379900Y-91361486D01*
X99286714Y-91268300D01*
X99286711Y-91268298D01*
X99286709Y-91268296D01*
X99172589Y-91202409D01*
X99172591Y-91202409D01*
X99117892Y-91187753D01*
X99045292Y-91168300D01*
X98913508Y-91168300D01*
X98840908Y-91187753D01*
X98786209Y-91202409D01*
X98672090Y-91268296D01*
X98578896Y-91361490D01*
X98513009Y-91475609D01*
X98502573Y-91514557D01*
X98478900Y-91602908D01*
X97010779Y-91602908D01*
X97016390Y-91593190D01*
X97016390Y-91593188D01*
X97016392Y-91593186D01*
X97050500Y-91465892D01*
X97050500Y-91334108D01*
X97016392Y-91206814D01*
X97016390Y-91206811D01*
X97016390Y-91206809D01*
X96950503Y-91092690D01*
X96950501Y-91092688D01*
X96950500Y-91092686D01*
X96857314Y-90999500D01*
X96857311Y-90999498D01*
X96857309Y-90999496D01*
X96743189Y-90933609D01*
X96743191Y-90933609D01*
X96693799Y-90920375D01*
X96615892Y-90899500D01*
X96484108Y-90899500D01*
X96406200Y-90920375D01*
X96356809Y-90933609D01*
X96242690Y-90999496D01*
X96149496Y-91092690D01*
X96083609Y-91206809D01*
X96069491Y-91259500D01*
X96049500Y-91334108D01*
X93170901Y-91334108D01*
X93135700Y-91273138D01*
X93135698Y-91273136D01*
X93135697Y-91273134D01*
X93042511Y-91179948D01*
X93042508Y-91179946D01*
X93042506Y-91179944D01*
X92928386Y-91114057D01*
X92928388Y-91114057D01*
X92878996Y-91100823D01*
X92801089Y-91079948D01*
X92669305Y-91079948D01*
X92591397Y-91100823D01*
X92542006Y-91114057D01*
X92427887Y-91179944D01*
X92427881Y-91179948D01*
X92377061Y-91230769D01*
X92322544Y-91258546D01*
X92262112Y-91248974D01*
X92257558Y-91246501D01*
X92181189Y-91202409D01*
X92181191Y-91202409D01*
X92126492Y-91187753D01*
X92053892Y-91168300D01*
X91922108Y-91168300D01*
X91849508Y-91187753D01*
X91794809Y-91202409D01*
X91680690Y-91268296D01*
X91587496Y-91361490D01*
X91521609Y-91475609D01*
X91511173Y-91514557D01*
X91487500Y-91602908D01*
X89802500Y-91602908D01*
X89802500Y-91552108D01*
X89768392Y-91424814D01*
X89768390Y-91424811D01*
X89768390Y-91424809D01*
X89702503Y-91310690D01*
X89702501Y-91310688D01*
X89702500Y-91310686D01*
X89609314Y-91217500D01*
X89609311Y-91217498D01*
X89609309Y-91217496D01*
X89495189Y-91151609D01*
X89495191Y-91151609D01*
X89445799Y-91138375D01*
X89367892Y-91117500D01*
X89236108Y-91117500D01*
X89158200Y-91138375D01*
X89108809Y-91151609D01*
X88994690Y-91217496D01*
X88901496Y-91310690D01*
X88835609Y-91424809D01*
X88835608Y-91424814D01*
X88801500Y-91552108D01*
X83447902Y-91552108D01*
X83390503Y-91452690D01*
X83390501Y-91452688D01*
X83390500Y-91452686D01*
X83297314Y-91359500D01*
X83297311Y-91359498D01*
X83297309Y-91359496D01*
X83183189Y-91293609D01*
X83183191Y-91293609D01*
X83128309Y-91278904D01*
X83055892Y-91259500D01*
X82924108Y-91259500D01*
X82811848Y-91289579D01*
X82796810Y-91293609D01*
X82754701Y-91317921D01*
X82694853Y-91330642D01*
X82638957Y-91305755D01*
X82619983Y-91278904D01*
X82618636Y-91279682D01*
X82615392Y-91274064D01*
X82615392Y-91274062D01*
X82549500Y-91159934D01*
X82456314Y-91066748D01*
X82456311Y-91066746D01*
X82456309Y-91066744D01*
X82342189Y-91000857D01*
X82342191Y-91000857D01*
X82292799Y-90987623D01*
X82214892Y-90966748D01*
X82083108Y-90966748D01*
X82005200Y-90987623D01*
X81955809Y-91000857D01*
X81841690Y-91066744D01*
X81841689Y-91066745D01*
X81841686Y-91066747D01*
X81841686Y-91066748D01*
X81795825Y-91112608D01*
X81741311Y-91140384D01*
X81680879Y-91130813D01*
X81655823Y-91112609D01*
X81633714Y-91090500D01*
X81633711Y-91090498D01*
X81633709Y-91090496D01*
X81519589Y-91024609D01*
X81519591Y-91024609D01*
X81470199Y-91011375D01*
X81392292Y-90990500D01*
X81260508Y-90990500D01*
X81182600Y-91011375D01*
X81133209Y-91024609D01*
X81019090Y-91090496D01*
X81019084Y-91090500D01*
X80977303Y-91132282D01*
X80922786Y-91160059D01*
X80862354Y-91150487D01*
X80837300Y-91132285D01*
X80832828Y-91127814D01*
X80832821Y-91127808D01*
X80718701Y-91061921D01*
X80718703Y-91061921D01*
X80669311Y-91048687D01*
X80591404Y-91027812D01*
X80459620Y-91027812D01*
X80381712Y-91048687D01*
X80332321Y-91061921D01*
X80218202Y-91127808D01*
X80185151Y-91160859D01*
X80130634Y-91188635D01*
X80070202Y-91179063D01*
X80029411Y-91140353D01*
X80025100Y-91132886D01*
X79931914Y-91039700D01*
X79931911Y-91039698D01*
X79931909Y-91039696D01*
X79817789Y-90973809D01*
X79817791Y-90973809D01*
X79768399Y-90960575D01*
X79690492Y-90939700D01*
X79558708Y-90939700D01*
X79480800Y-90960575D01*
X79431409Y-90973809D01*
X79317290Y-91039696D01*
X79224096Y-91132890D01*
X79158209Y-91247009D01*
X79141147Y-91310686D01*
X79124100Y-91374308D01*
X68918383Y-91374308D01*
X68915733Y-91370823D01*
X68897320Y-91347465D01*
X68897284Y-91346559D01*
X68896735Y-91345837D01*
X68896086Y-91316057D01*
X68894918Y-91286327D01*
X68895421Y-91285573D01*
X68895402Y-91284666D01*
X68912381Y-91260191D01*
X68928911Y-91235454D01*
X68930186Y-91234527D01*
X68930279Y-91234394D01*
X68930453Y-91234332D01*
X68935187Y-91230893D01*
X68999752Y-91187752D01*
X69044067Y-91121431D01*
X69055700Y-91062948D01*
X69055700Y-90967700D01*
X69074607Y-90909509D01*
X69124107Y-90873545D01*
X69154700Y-90868700D01*
X69714473Y-90868700D01*
X69714473Y-90868699D01*
X69744899Y-90865846D01*
X69873082Y-90820993D01*
X69982350Y-90740350D01*
X70062993Y-90631082D01*
X70107846Y-90502899D01*
X70110699Y-90472473D01*
X70110700Y-90472473D01*
X70110700Y-89613927D01*
X70110699Y-89613925D01*
X70107846Y-89583505D01*
X70107846Y-89583501D01*
X70062993Y-89455318D01*
X69982350Y-89346050D01*
X69982346Y-89346047D01*
X69982344Y-89346045D01*
X69873083Y-89265407D01*
X69744903Y-89220555D01*
X69744894Y-89220553D01*
X69714474Y-89217700D01*
X69714466Y-89217700D01*
X69154700Y-89217700D01*
X69096509Y-89198793D01*
X69060545Y-89149293D01*
X69055700Y-89118700D01*
X69055700Y-89023453D01*
X69055698Y-89023441D01*
X69052911Y-89009431D01*
X69044067Y-88964969D01*
X68999752Y-88898648D01*
X68999748Y-88898645D01*
X68933433Y-88854334D01*
X68933431Y-88854333D01*
X68933428Y-88854332D01*
X68933427Y-88854332D01*
X68874958Y-88842701D01*
X68874948Y-88842700D01*
X68874947Y-88842700D01*
X68184700Y-88842700D01*
X68126509Y-88823793D01*
X68090545Y-88774293D01*
X68085700Y-88743700D01*
X68085700Y-87996108D01*
X72977300Y-87996108D01*
X72977300Y-88127892D01*
X72990992Y-88178990D01*
X73011409Y-88255190D01*
X73077296Y-88369309D01*
X73077298Y-88369311D01*
X73077300Y-88369314D01*
X73170486Y-88462500D01*
X73170488Y-88462501D01*
X73170490Y-88462503D01*
X73284610Y-88528390D01*
X73284608Y-88528390D01*
X73284612Y-88528391D01*
X73284614Y-88528392D01*
X73411908Y-88562500D01*
X73411910Y-88562500D01*
X73543690Y-88562500D01*
X73543692Y-88562500D01*
X73670986Y-88528392D01*
X73670988Y-88528390D01*
X73670990Y-88528390D01*
X73785109Y-88462503D01*
X73785109Y-88462502D01*
X73785114Y-88462500D01*
X73878300Y-88369314D01*
X73890833Y-88347607D01*
X73903695Y-88325329D01*
X76946100Y-88325329D01*
X76946100Y-88457113D01*
X76974338Y-88562500D01*
X76980209Y-88584411D01*
X77046096Y-88698530D01*
X77046098Y-88698532D01*
X77046100Y-88698535D01*
X77139286Y-88791721D01*
X77139288Y-88791722D01*
X77139290Y-88791724D01*
X77253410Y-88857611D01*
X77253408Y-88857611D01*
X77253412Y-88857612D01*
X77253414Y-88857613D01*
X77380708Y-88891721D01*
X77380710Y-88891721D01*
X77512490Y-88891721D01*
X77512492Y-88891721D01*
X77639786Y-88857613D01*
X77639788Y-88857611D01*
X77639790Y-88857611D01*
X77753909Y-88791724D01*
X77753909Y-88791723D01*
X77753914Y-88791721D01*
X77847100Y-88698535D01*
X77851517Y-88690885D01*
X77912990Y-88584411D01*
X77912990Y-88584409D01*
X77912992Y-88584407D01*
X77947100Y-88457113D01*
X77947100Y-88325329D01*
X77912992Y-88198035D01*
X77912990Y-88198032D01*
X77912990Y-88198030D01*
X77847103Y-88083911D01*
X77847101Y-88083909D01*
X77847100Y-88083907D01*
X77753914Y-87990721D01*
X77753911Y-87990719D01*
X77753909Y-87990717D01*
X77639789Y-87924830D01*
X77639791Y-87924830D01*
X77590399Y-87911596D01*
X77512492Y-87890721D01*
X77380708Y-87890721D01*
X77302800Y-87911596D01*
X77253409Y-87924830D01*
X77139290Y-87990717D01*
X77046096Y-88083911D01*
X76980209Y-88198030D01*
X76964170Y-88257891D01*
X76946100Y-88325329D01*
X73903695Y-88325329D01*
X73936021Y-88269340D01*
X73944190Y-88255190D01*
X73944190Y-88255188D01*
X73944192Y-88255186D01*
X73978300Y-88127892D01*
X73978300Y-87996108D01*
X73944192Y-87868814D01*
X73944190Y-87868811D01*
X73944190Y-87868809D01*
X73878303Y-87754690D01*
X73878301Y-87754688D01*
X73878300Y-87754686D01*
X73785114Y-87661500D01*
X73785111Y-87661498D01*
X73785109Y-87661496D01*
X73670989Y-87595609D01*
X73670991Y-87595609D01*
X73660515Y-87592802D01*
X80949806Y-87592802D01*
X80949806Y-87724586D01*
X80979885Y-87836845D01*
X80983915Y-87851884D01*
X81049802Y-87966003D01*
X81049804Y-87966005D01*
X81049806Y-87966008D01*
X81142992Y-88059194D01*
X81142994Y-88059195D01*
X81142996Y-88059197D01*
X81257116Y-88125084D01*
X81257114Y-88125084D01*
X81257118Y-88125085D01*
X81257120Y-88125086D01*
X81384414Y-88159194D01*
X81384416Y-88159194D01*
X81516196Y-88159194D01*
X81516198Y-88159194D01*
X81643492Y-88125086D01*
X81643494Y-88125084D01*
X81643496Y-88125084D01*
X81757615Y-88059197D01*
X81757615Y-88059196D01*
X81757620Y-88059194D01*
X81811385Y-88005429D01*
X85524900Y-88005429D01*
X85524900Y-88137213D01*
X85554979Y-88249472D01*
X85559009Y-88264511D01*
X85624896Y-88378630D01*
X85624898Y-88378632D01*
X85624900Y-88378635D01*
X85718086Y-88471821D01*
X85718088Y-88471822D01*
X85718090Y-88471824D01*
X85832210Y-88537711D01*
X85832208Y-88537711D01*
X85832212Y-88537712D01*
X85832214Y-88537713D01*
X85959508Y-88571821D01*
X85959510Y-88571821D01*
X86091290Y-88571821D01*
X86091292Y-88571821D01*
X86218586Y-88537713D01*
X86218588Y-88537711D01*
X86218590Y-88537711D01*
X86332709Y-88471824D01*
X86332709Y-88471823D01*
X86332714Y-88471821D01*
X86425900Y-88378635D01*
X86425903Y-88378629D01*
X86429851Y-88373486D01*
X86431302Y-88374600D01*
X86470370Y-88339422D01*
X86531219Y-88333024D01*
X86580641Y-88359855D01*
X86607086Y-88386300D01*
X86607088Y-88386301D01*
X86607090Y-88386303D01*
X86721210Y-88452190D01*
X86721208Y-88452190D01*
X86721212Y-88452191D01*
X86721214Y-88452192D01*
X86848508Y-88486300D01*
X86848510Y-88486300D01*
X86980290Y-88486300D01*
X86980292Y-88486300D01*
X87107586Y-88452192D01*
X87107588Y-88452190D01*
X87107590Y-88452190D01*
X87221709Y-88386303D01*
X87221709Y-88386302D01*
X87221714Y-88386300D01*
X87314900Y-88293114D01*
X87335236Y-88257891D01*
X87380790Y-88178990D01*
X87380790Y-88178988D01*
X87380792Y-88178986D01*
X87414900Y-88051692D01*
X87414900Y-87919908D01*
X87380792Y-87792614D01*
X87380790Y-87792611D01*
X87380790Y-87792609D01*
X87314903Y-87678490D01*
X87314901Y-87678488D01*
X87314900Y-87678486D01*
X87221714Y-87585300D01*
X87221711Y-87585298D01*
X87221709Y-87585296D01*
X87107589Y-87519409D01*
X87107591Y-87519409D01*
X87058199Y-87506175D01*
X86980292Y-87485300D01*
X86848508Y-87485300D01*
X86770600Y-87506175D01*
X86721209Y-87519409D01*
X86607090Y-87585296D01*
X86513897Y-87678489D01*
X86509949Y-87683635D01*
X86508501Y-87682524D01*
X86469402Y-87717711D01*
X86408550Y-87724090D01*
X86359157Y-87697264D01*
X86332714Y-87670821D01*
X86332711Y-87670819D01*
X86332709Y-87670817D01*
X86218589Y-87604930D01*
X86218591Y-87604930D01*
X86169199Y-87591696D01*
X86091292Y-87570821D01*
X85959508Y-87570821D01*
X85881600Y-87591696D01*
X85832209Y-87604930D01*
X85718090Y-87670817D01*
X85624896Y-87764011D01*
X85559009Y-87878130D01*
X85547815Y-87919908D01*
X85524900Y-88005429D01*
X81811385Y-88005429D01*
X81850806Y-87966008D01*
X81916698Y-87851880D01*
X81950806Y-87724586D01*
X81950806Y-87592802D01*
X81916698Y-87465508D01*
X81916696Y-87465505D01*
X81916696Y-87465503D01*
X81850809Y-87351384D01*
X81850807Y-87351382D01*
X81850806Y-87351380D01*
X81757620Y-87258194D01*
X81757617Y-87258192D01*
X81757615Y-87258190D01*
X81643495Y-87192303D01*
X81643497Y-87192303D01*
X81594105Y-87179069D01*
X81516198Y-87158194D01*
X81384414Y-87158194D01*
X81306506Y-87179069D01*
X81257115Y-87192303D01*
X81142996Y-87258190D01*
X81049802Y-87351384D01*
X80983915Y-87465503D01*
X80978158Y-87486990D01*
X80949806Y-87592802D01*
X73660515Y-87592802D01*
X73621599Y-87582375D01*
X73543692Y-87561500D01*
X73411908Y-87561500D01*
X73334000Y-87582375D01*
X73284609Y-87595609D01*
X73170490Y-87661496D01*
X73077296Y-87754690D01*
X73011409Y-87868809D01*
X72992339Y-87939978D01*
X72977300Y-87996108D01*
X68085700Y-87996108D01*
X68085700Y-86903908D01*
X79479700Y-86903908D01*
X79479700Y-87035692D01*
X79489947Y-87073934D01*
X79513809Y-87162990D01*
X79579696Y-87277109D01*
X79579698Y-87277111D01*
X79579700Y-87277114D01*
X79672886Y-87370300D01*
X79672888Y-87370301D01*
X79672890Y-87370303D01*
X79787010Y-87436190D01*
X79787008Y-87436190D01*
X79787012Y-87436191D01*
X79787014Y-87436192D01*
X79914308Y-87470300D01*
X79914310Y-87470300D01*
X80046090Y-87470300D01*
X80046092Y-87470300D01*
X80173386Y-87436192D01*
X80173388Y-87436190D01*
X80173390Y-87436190D01*
X80287509Y-87370303D01*
X80287509Y-87370302D01*
X80287514Y-87370300D01*
X80380700Y-87277114D01*
X80380703Y-87277109D01*
X80446590Y-87162990D01*
X80446590Y-87162988D01*
X80446592Y-87162986D01*
X80480700Y-87035692D01*
X80480700Y-86903908D01*
X80446671Y-86776908D01*
X85550300Y-86776908D01*
X85550300Y-86908692D01*
X85562630Y-86954708D01*
X85584409Y-87035990D01*
X85650296Y-87150109D01*
X85650298Y-87150111D01*
X85650300Y-87150114D01*
X85743486Y-87243300D01*
X85743488Y-87243301D01*
X85743490Y-87243303D01*
X85857610Y-87309190D01*
X85857608Y-87309190D01*
X85857612Y-87309191D01*
X85857614Y-87309192D01*
X85984908Y-87343300D01*
X85984910Y-87343300D01*
X86116690Y-87343300D01*
X86116692Y-87343300D01*
X86243986Y-87309192D01*
X86243988Y-87309190D01*
X86243990Y-87309190D01*
X86358109Y-87243303D01*
X86358109Y-87243302D01*
X86358114Y-87243300D01*
X86451300Y-87150114D01*
X86451303Y-87150109D01*
X86517190Y-87035990D01*
X86517190Y-87035988D01*
X86517192Y-87035986D01*
X86538970Y-86954708D01*
X88385503Y-86954708D01*
X88385503Y-87086492D01*
X88413854Y-87192302D01*
X88419612Y-87213790D01*
X88485499Y-87327909D01*
X88485501Y-87327911D01*
X88485503Y-87327914D01*
X88578689Y-87421100D01*
X88578691Y-87421101D01*
X88578693Y-87421103D01*
X88692813Y-87486990D01*
X88692811Y-87486990D01*
X88692815Y-87486991D01*
X88692817Y-87486992D01*
X88820111Y-87521100D01*
X88820113Y-87521100D01*
X88951893Y-87521100D01*
X88951895Y-87521100D01*
X89079189Y-87486992D01*
X89079191Y-87486990D01*
X89079193Y-87486990D01*
X89143298Y-87449979D01*
X89203146Y-87437257D01*
X89259042Y-87462143D01*
X89278534Y-87486215D01*
X89342902Y-87597703D01*
X89342904Y-87597705D01*
X89342906Y-87597708D01*
X89436092Y-87690894D01*
X89436094Y-87690895D01*
X89436096Y-87690897D01*
X89550216Y-87756784D01*
X89550214Y-87756784D01*
X89550218Y-87756785D01*
X89550220Y-87756786D01*
X89677514Y-87790894D01*
X89677516Y-87790894D01*
X89809296Y-87790894D01*
X89809298Y-87790894D01*
X89936592Y-87756786D01*
X89936594Y-87756784D01*
X89936596Y-87756784D01*
X90050715Y-87690897D01*
X90050715Y-87690896D01*
X90050720Y-87690894D01*
X90143906Y-87597708D01*
X90145118Y-87595609D01*
X90209796Y-87483584D01*
X90209796Y-87483582D01*
X90209798Y-87483580D01*
X90243906Y-87356286D01*
X90243906Y-87224502D01*
X90209798Y-87097208D01*
X90209796Y-87097205D01*
X90209796Y-87097203D01*
X90143909Y-86983084D01*
X90143907Y-86983082D01*
X90143906Y-86983080D01*
X90050720Y-86889894D01*
X90050717Y-86889892D01*
X90050715Y-86889890D01*
X89936595Y-86824003D01*
X89936597Y-86824003D01*
X89869612Y-86806055D01*
X89809298Y-86789894D01*
X89677514Y-86789894D01*
X89617200Y-86806055D01*
X89550218Y-86824002D01*
X89486110Y-86861016D01*
X89426262Y-86873737D01*
X89370366Y-86848850D01*
X89350875Y-86824781D01*
X89286503Y-86713286D01*
X89193317Y-86620100D01*
X89193314Y-86620098D01*
X89193312Y-86620096D01*
X89079192Y-86554209D01*
X89079194Y-86554209D01*
X89029802Y-86540975D01*
X88951895Y-86520100D01*
X88820111Y-86520100D01*
X88742203Y-86540975D01*
X88692812Y-86554209D01*
X88578693Y-86620096D01*
X88485499Y-86713290D01*
X88419612Y-86827409D01*
X88419611Y-86827414D01*
X88385503Y-86954708D01*
X86538970Y-86954708D01*
X86551300Y-86908692D01*
X86551300Y-86776908D01*
X86517192Y-86649614D01*
X86517190Y-86649611D01*
X86517190Y-86649609D01*
X86451303Y-86535490D01*
X86451301Y-86535488D01*
X86451300Y-86535486D01*
X86358114Y-86442300D01*
X86358111Y-86442298D01*
X86358109Y-86442296D01*
X86243989Y-86376409D01*
X86243991Y-86376409D01*
X86177693Y-86358645D01*
X86116692Y-86342300D01*
X85984908Y-86342300D01*
X85923907Y-86358645D01*
X85857609Y-86376409D01*
X85743490Y-86442296D01*
X85650296Y-86535490D01*
X85584409Y-86649609D01*
X85576882Y-86677700D01*
X85550300Y-86776908D01*
X80446671Y-86776908D01*
X80446592Y-86776614D01*
X80410032Y-86713290D01*
X80380703Y-86662490D01*
X80380701Y-86662488D01*
X80380700Y-86662486D01*
X80287514Y-86569300D01*
X80287511Y-86569298D01*
X80287509Y-86569296D01*
X80173389Y-86503409D01*
X80173391Y-86503409D01*
X80098867Y-86483441D01*
X80046092Y-86469300D01*
X79914308Y-86469300D01*
X79861533Y-86483441D01*
X79787009Y-86503409D01*
X79672890Y-86569296D01*
X79579696Y-86662490D01*
X79513809Y-86776609D01*
X79501110Y-86824003D01*
X79479700Y-86903908D01*
X68085700Y-86903908D01*
X68085700Y-86092261D01*
X80443747Y-86092261D01*
X80443747Y-86224045D01*
X80467032Y-86310947D01*
X80477856Y-86351343D01*
X80543743Y-86465462D01*
X80543745Y-86465464D01*
X80543747Y-86465467D01*
X80636933Y-86558653D01*
X80636935Y-86558654D01*
X80636937Y-86558656D01*
X80751057Y-86624543D01*
X80751055Y-86624543D01*
X80751059Y-86624544D01*
X80751061Y-86624545D01*
X80878355Y-86658653D01*
X80878357Y-86658653D01*
X81010137Y-86658653D01*
X81010139Y-86658653D01*
X81137433Y-86624545D01*
X81137435Y-86624543D01*
X81137437Y-86624543D01*
X81251556Y-86558656D01*
X81251556Y-86558655D01*
X81251561Y-86558653D01*
X81344747Y-86465467D01*
X81368129Y-86424969D01*
X81410637Y-86351343D01*
X81410637Y-86351341D01*
X81410639Y-86351339D01*
X81444747Y-86224045D01*
X81444747Y-86092261D01*
X81414252Y-85978451D01*
X81414252Y-85978449D01*
X81410639Y-85964967D01*
X81410637Y-85964963D01*
X81407378Y-85959318D01*
X86875890Y-85959318D01*
X86875890Y-86091102D01*
X86905969Y-86203361D01*
X86909999Y-86218400D01*
X86975886Y-86332519D01*
X86975888Y-86332521D01*
X86975890Y-86332524D01*
X87069076Y-86425710D01*
X87069078Y-86425711D01*
X87069080Y-86425713D01*
X87183200Y-86491600D01*
X87183198Y-86491600D01*
X87183202Y-86491601D01*
X87183204Y-86491602D01*
X87310498Y-86525710D01*
X87310500Y-86525710D01*
X87442280Y-86525710D01*
X87442282Y-86525710D01*
X87569576Y-86491602D01*
X87569578Y-86491600D01*
X87569580Y-86491600D01*
X87683699Y-86425713D01*
X87683699Y-86425712D01*
X87683704Y-86425710D01*
X87776890Y-86332524D01*
X87842782Y-86218396D01*
X87876890Y-86091102D01*
X87876890Y-85959318D01*
X87842782Y-85832024D01*
X87842780Y-85832021D01*
X87842780Y-85832019D01*
X87776893Y-85717900D01*
X87776891Y-85717898D01*
X87776890Y-85717896D01*
X87683704Y-85624710D01*
X87683701Y-85624708D01*
X87683699Y-85624706D01*
X87569579Y-85558819D01*
X87569581Y-85558819D01*
X87520189Y-85545585D01*
X87442282Y-85524710D01*
X87310498Y-85524710D01*
X87232590Y-85545585D01*
X87183199Y-85558819D01*
X87069080Y-85624706D01*
X86975886Y-85717900D01*
X86909999Y-85832019D01*
X86903277Y-85857107D01*
X86875890Y-85959318D01*
X81407378Y-85959318D01*
X81344750Y-85850843D01*
X81344748Y-85850841D01*
X81344747Y-85850839D01*
X81251561Y-85757653D01*
X81251558Y-85757651D01*
X81251556Y-85757649D01*
X81137436Y-85691762D01*
X81137438Y-85691762D01*
X81088046Y-85678528D01*
X81010139Y-85657653D01*
X80878355Y-85657653D01*
X80800447Y-85678528D01*
X80751056Y-85691762D01*
X80636937Y-85757649D01*
X80543743Y-85850843D01*
X80477856Y-85964962D01*
X80473037Y-85982948D01*
X80443747Y-86092261D01*
X68085700Y-86092261D01*
X68085700Y-84697815D01*
X79049301Y-84697815D01*
X79049301Y-84829599D01*
X79079380Y-84941858D01*
X79083410Y-84956897D01*
X79149297Y-85071016D01*
X79149299Y-85071018D01*
X79149301Y-85071021D01*
X79242487Y-85164207D01*
X79242489Y-85164208D01*
X79242491Y-85164210D01*
X79356611Y-85230097D01*
X79356609Y-85230097D01*
X79356613Y-85230098D01*
X79356615Y-85230099D01*
X79483909Y-85264207D01*
X79483911Y-85264207D01*
X79615691Y-85264207D01*
X79615693Y-85264207D01*
X79742987Y-85230099D01*
X79742989Y-85230097D01*
X79742991Y-85230097D01*
X79857110Y-85164210D01*
X79857110Y-85164209D01*
X79857115Y-85164207D01*
X79950301Y-85071021D01*
X80016193Y-84956893D01*
X80050301Y-84829599D01*
X80050301Y-84697815D01*
X80016193Y-84570521D01*
X80016191Y-84570518D01*
X80016191Y-84570516D01*
X79950304Y-84456397D01*
X79950302Y-84456395D01*
X79950301Y-84456393D01*
X79857115Y-84363207D01*
X79857112Y-84363205D01*
X79857110Y-84363203D01*
X79742990Y-84297316D01*
X79742992Y-84297316D01*
X79693600Y-84284082D01*
X79615693Y-84263207D01*
X79483909Y-84263207D01*
X79406001Y-84284082D01*
X79356610Y-84297316D01*
X79242491Y-84363203D01*
X79149297Y-84456397D01*
X79083410Y-84570516D01*
X79064340Y-84641685D01*
X79049301Y-84697815D01*
X68085700Y-84697815D01*
X68085700Y-84109908D01*
X89995300Y-84109908D01*
X89995300Y-84241692D01*
X90025379Y-84353951D01*
X90029409Y-84368990D01*
X90095296Y-84483109D01*
X90095298Y-84483111D01*
X90095300Y-84483114D01*
X90188486Y-84576300D01*
X90188488Y-84576301D01*
X90188490Y-84576303D01*
X90302610Y-84642190D01*
X90302608Y-84642190D01*
X90302612Y-84642191D01*
X90302614Y-84642192D01*
X90429908Y-84676300D01*
X90429910Y-84676300D01*
X90561690Y-84676300D01*
X90561692Y-84676300D01*
X90688986Y-84642192D01*
X90688988Y-84642190D01*
X90688990Y-84642190D01*
X90803109Y-84576303D01*
X90803109Y-84576302D01*
X90803114Y-84576300D01*
X90896300Y-84483114D01*
X90911725Y-84456397D01*
X90962190Y-84368990D01*
X90962190Y-84368988D01*
X90962192Y-84368986D01*
X90996300Y-84241692D01*
X90996300Y-84109908D01*
X90962192Y-83982614D01*
X90962190Y-83982611D01*
X90962190Y-83982609D01*
X90896303Y-83868490D01*
X90896301Y-83868488D01*
X90896300Y-83868486D01*
X90803114Y-83775300D01*
X90803111Y-83775298D01*
X90803109Y-83775296D01*
X90688989Y-83709409D01*
X90688991Y-83709409D01*
X90639599Y-83696175D01*
X90561692Y-83675300D01*
X90429908Y-83675300D01*
X90352000Y-83696175D01*
X90302609Y-83709409D01*
X90188490Y-83775296D01*
X90095296Y-83868490D01*
X90029409Y-83982609D01*
X90029408Y-83982614D01*
X89995300Y-84109908D01*
X68085700Y-84109908D01*
X68085700Y-80376108D01*
X91341500Y-80376108D01*
X91341500Y-80507892D01*
X91360913Y-80580344D01*
X91375609Y-80635190D01*
X91441496Y-80749309D01*
X91441498Y-80749311D01*
X91441500Y-80749314D01*
X91534686Y-80842500D01*
X91534688Y-80842501D01*
X91534690Y-80842503D01*
X91648810Y-80908390D01*
X91648808Y-80908390D01*
X91648812Y-80908391D01*
X91648814Y-80908392D01*
X91776108Y-80942500D01*
X91776110Y-80942500D01*
X91907890Y-80942500D01*
X91907892Y-80942500D01*
X92035186Y-80908392D01*
X92035188Y-80908390D01*
X92035190Y-80908390D01*
X92149309Y-80842503D01*
X92149309Y-80842502D01*
X92149314Y-80842500D01*
X92242500Y-80749314D01*
X92265949Y-80708699D01*
X92308390Y-80635190D01*
X92308390Y-80635188D01*
X92308392Y-80635186D01*
X92342500Y-80507892D01*
X92342500Y-80376108D01*
X92308392Y-80248814D01*
X92308390Y-80248811D01*
X92308390Y-80248809D01*
X92242503Y-80134690D01*
X92242501Y-80134688D01*
X92242500Y-80134686D01*
X92149314Y-80041500D01*
X92149311Y-80041498D01*
X92149309Y-80041496D01*
X92035189Y-79975609D01*
X92035191Y-79975609D01*
X91985799Y-79962375D01*
X91907892Y-79941500D01*
X91776108Y-79941500D01*
X91698200Y-79962375D01*
X91648809Y-79975609D01*
X91534690Y-80041496D01*
X91441496Y-80134690D01*
X91375609Y-80248809D01*
X91356539Y-80319978D01*
X91341500Y-80376108D01*
X68085700Y-80376108D01*
X68085700Y-79360108D01*
X102263500Y-79360108D01*
X102263500Y-79491892D01*
X102293579Y-79604151D01*
X102297609Y-79619190D01*
X102363496Y-79733309D01*
X102363498Y-79733311D01*
X102363500Y-79733314D01*
X102456686Y-79826500D01*
X102456688Y-79826501D01*
X102456690Y-79826503D01*
X102570810Y-79892390D01*
X102570808Y-79892390D01*
X102570812Y-79892391D01*
X102570814Y-79892392D01*
X102698108Y-79926500D01*
X102698110Y-79926500D01*
X102829890Y-79926500D01*
X102829892Y-79926500D01*
X102957186Y-79892392D01*
X102957188Y-79892390D01*
X102957190Y-79892390D01*
X103071309Y-79826503D01*
X103071309Y-79826502D01*
X103071314Y-79826500D01*
X103164500Y-79733314D01*
X103230392Y-79619186D01*
X103264500Y-79491892D01*
X103264500Y-79360108D01*
X103230392Y-79232814D01*
X103230390Y-79232811D01*
X103230390Y-79232809D01*
X103164503Y-79118690D01*
X103164501Y-79118688D01*
X103164500Y-79118686D01*
X103071314Y-79025500D01*
X103071311Y-79025498D01*
X103071309Y-79025496D01*
X102957189Y-78959609D01*
X102957191Y-78959609D01*
X102907799Y-78946375D01*
X102829892Y-78925500D01*
X102698108Y-78925500D01*
X102620200Y-78946375D01*
X102570809Y-78959609D01*
X102456690Y-79025496D01*
X102363496Y-79118690D01*
X102297609Y-79232809D01*
X102297608Y-79232814D01*
X102263500Y-79360108D01*
X68085700Y-79360108D01*
X68085700Y-78344108D01*
X73907500Y-78344108D01*
X73907500Y-78475892D01*
X73922235Y-78530885D01*
X73941609Y-78603190D01*
X74007496Y-78717309D01*
X74007498Y-78717311D01*
X74007500Y-78717314D01*
X74100686Y-78810500D01*
X74100688Y-78810501D01*
X74100690Y-78810503D01*
X74214810Y-78876390D01*
X74214808Y-78876390D01*
X74214812Y-78876391D01*
X74214814Y-78876392D01*
X74342108Y-78910500D01*
X74342110Y-78910500D01*
X74473890Y-78910500D01*
X74473892Y-78910500D01*
X74601186Y-78876392D01*
X74601188Y-78876390D01*
X74601190Y-78876390D01*
X74715309Y-78810503D01*
X74715309Y-78810502D01*
X74715314Y-78810500D01*
X74808500Y-78717314D01*
X74823723Y-78690947D01*
X74874390Y-78603190D01*
X74874390Y-78603188D01*
X74874392Y-78603186D01*
X74908500Y-78475892D01*
X74908500Y-78344108D01*
X74874392Y-78216814D01*
X74874390Y-78216811D01*
X74874390Y-78216809D01*
X74808503Y-78102690D01*
X74808501Y-78102688D01*
X74808500Y-78102686D01*
X74715314Y-78009500D01*
X74715311Y-78009498D01*
X74715309Y-78009496D01*
X74601189Y-77943609D01*
X74601191Y-77943609D01*
X74568995Y-77934982D01*
X74473892Y-77909500D01*
X74342108Y-77909500D01*
X74283343Y-77925246D01*
X74214809Y-77943609D01*
X74100690Y-78009496D01*
X74007496Y-78102690D01*
X73941609Y-78216809D01*
X73927973Y-78267700D01*
X73907500Y-78344108D01*
X68085700Y-78344108D01*
X68085700Y-77836108D01*
X84483500Y-77836108D01*
X84483500Y-77967892D01*
X84494648Y-78009496D01*
X84517609Y-78095190D01*
X84583496Y-78209309D01*
X84583498Y-78209311D01*
X84583500Y-78209314D01*
X84676686Y-78302500D01*
X84676688Y-78302501D01*
X84676690Y-78302503D01*
X84790810Y-78368390D01*
X84790808Y-78368390D01*
X84790812Y-78368391D01*
X84790814Y-78368392D01*
X84918108Y-78402500D01*
X84918110Y-78402500D01*
X85049890Y-78402500D01*
X85049892Y-78402500D01*
X85177186Y-78368392D01*
X85177188Y-78368390D01*
X85177190Y-78368390D01*
X85291309Y-78302503D01*
X85291309Y-78302502D01*
X85291314Y-78302500D01*
X85384500Y-78209314D01*
X85407949Y-78168699D01*
X85450390Y-78095190D01*
X85450390Y-78095188D01*
X85450392Y-78095186D01*
X85484500Y-77967892D01*
X85484500Y-77836108D01*
X85450392Y-77708814D01*
X85450390Y-77708811D01*
X85450390Y-77708809D01*
X85384503Y-77594690D01*
X85384501Y-77594688D01*
X85384500Y-77594686D01*
X85291314Y-77501500D01*
X85291311Y-77501498D01*
X85291309Y-77501496D01*
X85177189Y-77435609D01*
X85177191Y-77435609D01*
X85127799Y-77422375D01*
X85049892Y-77401500D01*
X84918108Y-77401500D01*
X84840200Y-77422375D01*
X84790809Y-77435609D01*
X84676690Y-77501496D01*
X84583496Y-77594690D01*
X84517609Y-77708809D01*
X84498539Y-77779978D01*
X84483500Y-77836108D01*
X68085700Y-77836108D01*
X68085700Y-76362908D01*
X72748700Y-76362908D01*
X72748700Y-76494692D01*
X72755630Y-76520554D01*
X72782809Y-76621990D01*
X72848696Y-76736109D01*
X72848698Y-76736111D01*
X72848700Y-76736114D01*
X72941886Y-76829300D01*
X72941888Y-76829301D01*
X72941890Y-76829303D01*
X73056010Y-76895190D01*
X73056008Y-76895190D01*
X73056012Y-76895191D01*
X73056014Y-76895192D01*
X73183308Y-76929300D01*
X73183310Y-76929300D01*
X73315090Y-76929300D01*
X73315092Y-76929300D01*
X73442386Y-76895192D01*
X73442388Y-76895190D01*
X73442390Y-76895190D01*
X73528441Y-76845508D01*
X83442100Y-76845508D01*
X83442100Y-76977292D01*
X83472179Y-77089551D01*
X83476209Y-77104590D01*
X83542096Y-77218709D01*
X83542098Y-77218711D01*
X83542100Y-77218714D01*
X83635286Y-77311900D01*
X83635288Y-77311901D01*
X83635290Y-77311903D01*
X83749410Y-77377790D01*
X83749408Y-77377790D01*
X83749412Y-77377791D01*
X83749414Y-77377792D01*
X83876708Y-77411900D01*
X83876710Y-77411900D01*
X84008490Y-77411900D01*
X84008492Y-77411900D01*
X84135786Y-77377792D01*
X84135788Y-77377790D01*
X84135790Y-77377790D01*
X84249909Y-77311903D01*
X84249909Y-77311902D01*
X84249914Y-77311900D01*
X84343100Y-77218714D01*
X84378211Y-77157900D01*
X84408990Y-77104590D01*
X84408990Y-77104588D01*
X84408992Y-77104586D01*
X84443100Y-76977292D01*
X84443100Y-76845508D01*
X84408992Y-76718214D01*
X84408990Y-76718211D01*
X84408990Y-76718209D01*
X84360672Y-76634522D01*
X84343100Y-76604086D01*
X84330522Y-76591508D01*
X103152500Y-76591508D01*
X103152500Y-76723292D01*
X103180905Y-76829302D01*
X103186609Y-76850590D01*
X103252496Y-76964709D01*
X103252498Y-76964711D01*
X103252500Y-76964714D01*
X103345686Y-77057900D01*
X103345688Y-77057901D01*
X103345690Y-77057903D01*
X103459810Y-77123790D01*
X103459808Y-77123790D01*
X103459812Y-77123791D01*
X103459814Y-77123792D01*
X103587108Y-77157900D01*
X103587110Y-77157900D01*
X103718890Y-77157900D01*
X103718892Y-77157900D01*
X103846186Y-77123792D01*
X103846188Y-77123790D01*
X103846190Y-77123790D01*
X103960309Y-77057903D01*
X103960309Y-77057902D01*
X103960314Y-77057900D01*
X104053500Y-76964714D01*
X104053503Y-76964709D01*
X104119390Y-76850590D01*
X104119390Y-76850588D01*
X104119392Y-76850586D01*
X104153500Y-76723292D01*
X104153500Y-76591508D01*
X104119392Y-76464214D01*
X104119390Y-76464211D01*
X104119390Y-76464209D01*
X104053503Y-76350090D01*
X104053501Y-76350088D01*
X104053500Y-76350086D01*
X103960314Y-76256900D01*
X103960311Y-76256898D01*
X103960309Y-76256896D01*
X103846189Y-76191009D01*
X103846191Y-76191009D01*
X103796799Y-76177775D01*
X103718892Y-76156900D01*
X103587108Y-76156900D01*
X103509200Y-76177775D01*
X103459809Y-76191009D01*
X103345690Y-76256896D01*
X103252496Y-76350090D01*
X103186609Y-76464209D01*
X103174100Y-76510896D01*
X103152500Y-76591508D01*
X84330522Y-76591508D01*
X84249914Y-76510900D01*
X84249911Y-76510898D01*
X84249909Y-76510896D01*
X84135789Y-76445009D01*
X84135791Y-76445009D01*
X84086399Y-76431775D01*
X84008492Y-76410900D01*
X83876708Y-76410900D01*
X83798800Y-76431775D01*
X83749409Y-76445009D01*
X83635290Y-76510896D01*
X83542096Y-76604090D01*
X83476209Y-76718209D01*
X83466266Y-76755318D01*
X83442100Y-76845508D01*
X73528441Y-76845508D01*
X73556509Y-76829303D01*
X73556509Y-76829302D01*
X73556514Y-76829300D01*
X73649700Y-76736114D01*
X73660035Y-76718214D01*
X73715590Y-76621990D01*
X73715590Y-76621988D01*
X73715592Y-76621986D01*
X73749700Y-76494692D01*
X73749700Y-76362908D01*
X73715592Y-76235614D01*
X73715590Y-76235611D01*
X73715590Y-76235609D01*
X73649703Y-76121490D01*
X73649701Y-76121488D01*
X73649700Y-76121486D01*
X73556514Y-76028300D01*
X73556511Y-76028298D01*
X73556509Y-76028296D01*
X73442389Y-75962409D01*
X73442391Y-75962409D01*
X73387696Y-75947754D01*
X73315092Y-75928300D01*
X73183308Y-75928300D01*
X73110704Y-75947754D01*
X73056009Y-75962409D01*
X72941890Y-76028296D01*
X72848696Y-76121490D01*
X72782809Y-76235609D01*
X72763739Y-76306778D01*
X72748700Y-76362908D01*
X68085700Y-76362908D01*
X68085700Y-73904108D01*
X74459500Y-73904108D01*
X74459500Y-74035892D01*
X74478297Y-74106045D01*
X74493609Y-74163190D01*
X74559496Y-74277309D01*
X74559498Y-74277311D01*
X74559500Y-74277314D01*
X74652686Y-74370500D01*
X74652688Y-74370501D01*
X74652690Y-74370503D01*
X74766810Y-74436390D01*
X74766808Y-74436390D01*
X74766812Y-74436391D01*
X74766814Y-74436392D01*
X74894108Y-74470500D01*
X74894110Y-74470500D01*
X75025890Y-74470500D01*
X75025892Y-74470500D01*
X75153186Y-74436392D01*
X75153188Y-74436390D01*
X75153190Y-74436390D01*
X75267309Y-74370503D01*
X75267309Y-74370502D01*
X75267314Y-74370500D01*
X75360500Y-74277314D01*
X75360503Y-74277309D01*
X75426390Y-74163190D01*
X75426390Y-74163188D01*
X75426392Y-74163186D01*
X75460500Y-74035892D01*
X75460500Y-73904108D01*
X75426392Y-73776814D01*
X75426390Y-73776811D01*
X75426390Y-73776809D01*
X75360503Y-73662690D01*
X75360501Y-73662688D01*
X75360500Y-73662686D01*
X75267314Y-73569500D01*
X75267311Y-73569498D01*
X75267309Y-73569496D01*
X75153189Y-73503609D01*
X75153191Y-73503609D01*
X75103799Y-73490375D01*
X75025892Y-73469500D01*
X74894108Y-73469500D01*
X74816200Y-73490375D01*
X74766809Y-73503609D01*
X74652690Y-73569496D01*
X74559496Y-73662690D01*
X74493609Y-73776809D01*
X74493608Y-73776814D01*
X74459500Y-73904108D01*
X68085700Y-73904108D01*
X68085700Y-59065508D01*
X72037500Y-59065508D01*
X72037500Y-59197292D01*
X72067579Y-59309551D01*
X72071609Y-59324590D01*
X72137496Y-59438709D01*
X72137498Y-59438711D01*
X72137500Y-59438714D01*
X72230686Y-59531900D01*
X72230688Y-59531901D01*
X72230690Y-59531903D01*
X72344810Y-59597790D01*
X72344808Y-59597790D01*
X72344812Y-59597791D01*
X72344814Y-59597792D01*
X72472108Y-59631900D01*
X72472110Y-59631900D01*
X72603890Y-59631900D01*
X72603892Y-59631900D01*
X72731186Y-59597792D01*
X72731188Y-59597790D01*
X72731190Y-59597790D01*
X72845309Y-59531903D01*
X72845309Y-59531902D01*
X72845314Y-59531900D01*
X72938500Y-59438714D01*
X73004392Y-59324586D01*
X73038500Y-59197292D01*
X73038500Y-59065508D01*
X73004392Y-58938214D01*
X73004390Y-58938211D01*
X73004390Y-58938209D01*
X72938503Y-58824090D01*
X72938501Y-58824088D01*
X72938500Y-58824086D01*
X72845314Y-58730900D01*
X72845311Y-58730898D01*
X72845309Y-58730896D01*
X72731189Y-58665009D01*
X72731191Y-58665009D01*
X72681799Y-58651775D01*
X72603892Y-58630900D01*
X72472108Y-58630900D01*
X72394200Y-58651775D01*
X72344809Y-58665009D01*
X72230690Y-58730896D01*
X72137496Y-58824090D01*
X72071609Y-58938209D01*
X72061666Y-58975318D01*
X72037500Y-59065508D01*
X68085700Y-59065508D01*
X68085700Y-54087108D01*
X87455300Y-54087108D01*
X87455300Y-54218892D01*
X87485379Y-54331151D01*
X87489409Y-54346190D01*
X87555296Y-54460309D01*
X87555298Y-54460311D01*
X87555300Y-54460314D01*
X87648486Y-54553500D01*
X87648488Y-54553501D01*
X87648490Y-54553503D01*
X87762610Y-54619390D01*
X87762608Y-54619390D01*
X87762612Y-54619391D01*
X87762614Y-54619392D01*
X87889908Y-54653500D01*
X87889910Y-54653500D01*
X88021690Y-54653500D01*
X88021692Y-54653500D01*
X88148986Y-54619392D01*
X88148988Y-54619390D01*
X88148990Y-54619390D01*
X88263109Y-54553503D01*
X88263109Y-54553502D01*
X88263114Y-54553500D01*
X88356300Y-54460314D01*
X88422192Y-54346186D01*
X88456300Y-54218892D01*
X88456300Y-54087108D01*
X88422192Y-53959814D01*
X88422190Y-53959811D01*
X88422190Y-53959809D01*
X88356303Y-53845690D01*
X88356301Y-53845688D01*
X88356300Y-53845686D01*
X88263114Y-53752500D01*
X88263111Y-53752498D01*
X88263109Y-53752496D01*
X88148989Y-53686609D01*
X88148991Y-53686609D01*
X88099599Y-53673375D01*
X88021692Y-53652500D01*
X87889908Y-53652500D01*
X87812000Y-53673375D01*
X87762609Y-53686609D01*
X87648490Y-53752496D01*
X87555296Y-53845690D01*
X87489409Y-53959809D01*
X87489408Y-53959814D01*
X87455300Y-54087108D01*
X68085700Y-54087108D01*
X68085700Y-45622700D01*
X68104607Y-45564509D01*
X68154107Y-45528545D01*
X68184700Y-45523700D01*
X68874947Y-45523700D01*
X68874948Y-45523700D01*
X68933431Y-45512067D01*
X68999752Y-45467752D01*
X69044067Y-45401431D01*
X69054395Y-45349508D01*
X71605700Y-45349508D01*
X71605700Y-45481292D01*
X71626504Y-45558935D01*
X71639809Y-45608590D01*
X71705696Y-45722709D01*
X71705698Y-45722711D01*
X71705700Y-45722714D01*
X71798886Y-45815900D01*
X71798888Y-45815901D01*
X71798890Y-45815903D01*
X71913010Y-45881790D01*
X71913008Y-45881790D01*
X71913012Y-45881791D01*
X71913014Y-45881792D01*
X72040308Y-45915900D01*
X72040310Y-45915900D01*
X72172090Y-45915900D01*
X72172092Y-45915900D01*
X72299386Y-45881792D01*
X72299388Y-45881790D01*
X72299390Y-45881790D01*
X72413509Y-45815903D01*
X72413509Y-45815902D01*
X72413514Y-45815900D01*
X72506700Y-45722714D01*
X72509049Y-45718645D01*
X72572590Y-45608590D01*
X72572590Y-45608588D01*
X72572592Y-45608586D01*
X72606700Y-45481292D01*
X72606700Y-45349508D01*
X72572592Y-45222214D01*
X72572590Y-45222211D01*
X72572590Y-45222209D01*
X72506703Y-45108090D01*
X72506701Y-45108088D01*
X72506700Y-45108086D01*
X72413514Y-45014900D01*
X72413511Y-45014898D01*
X72413509Y-45014896D01*
X72299389Y-44949009D01*
X72299391Y-44949009D01*
X72249999Y-44935775D01*
X72172092Y-44914900D01*
X72040308Y-44914900D01*
X71962400Y-44935775D01*
X71913009Y-44949009D01*
X71798890Y-45014896D01*
X71705696Y-45108090D01*
X71639809Y-45222209D01*
X71639808Y-45222214D01*
X71605700Y-45349508D01*
X69054395Y-45349508D01*
X69055700Y-45342948D01*
X69055700Y-45247700D01*
X69074607Y-45189509D01*
X69124107Y-45153545D01*
X69154700Y-45148700D01*
X69714473Y-45148700D01*
X69714473Y-45148699D01*
X69744899Y-45145846D01*
X69873082Y-45100993D01*
X69982350Y-45020350D01*
X70062993Y-44911082D01*
X70107846Y-44782899D01*
X70110699Y-44752473D01*
X70110700Y-44752473D01*
X70110700Y-43893927D01*
X70110699Y-43893925D01*
X70107846Y-43863505D01*
X70107846Y-43863501D01*
X70062993Y-43735318D01*
X69982350Y-43626050D01*
X69982346Y-43626047D01*
X69982344Y-43626045D01*
X69873087Y-43545410D01*
X69873078Y-43545405D01*
X69744903Y-43500555D01*
X69744894Y-43500553D01*
X69714474Y-43497700D01*
X69714466Y-43497700D01*
X69154700Y-43497700D01*
X69096509Y-43478793D01*
X69084884Y-43462793D01*
X75626100Y-43462793D01*
X75626100Y-43664804D01*
X75665508Y-43862923D01*
X75665510Y-43862929D01*
X75742813Y-44049554D01*
X75855039Y-44217513D01*
X75855042Y-44217517D01*
X75997882Y-44360357D01*
X76165844Y-44472585D01*
X76352473Y-44549890D01*
X76550597Y-44589299D01*
X76550598Y-44589299D01*
X76752602Y-44589299D01*
X76752603Y-44589299D01*
X76950727Y-44549890D01*
X77137356Y-44472585D01*
X77305318Y-44360357D01*
X77448158Y-44217517D01*
X77560386Y-44049555D01*
X77637691Y-43862926D01*
X77677100Y-43664802D01*
X77677100Y-43487416D01*
X100076100Y-43487416D01*
X100076100Y-43640181D01*
X100105902Y-43790003D01*
X100105902Y-43790005D01*
X100164359Y-43931133D01*
X100164359Y-43931134D01*
X100206649Y-43994425D01*
X100249230Y-44058151D01*
X100357248Y-44166169D01*
X100484263Y-44251038D01*
X100625395Y-44309497D01*
X100775220Y-44339299D01*
X100775221Y-44339299D01*
X100927979Y-44339299D01*
X100927980Y-44339299D01*
X101077805Y-44309497D01*
X101218937Y-44251038D01*
X101345952Y-44166169D01*
X101453970Y-44058151D01*
X101538839Y-43931136D01*
X101597298Y-43790004D01*
X101627100Y-43640179D01*
X101627100Y-43487419D01*
X101597298Y-43337594D01*
X101538840Y-43196464D01*
X101538840Y-43196463D01*
X101498115Y-43135515D01*
X101453970Y-43069447D01*
X101345952Y-42961429D01*
X101218937Y-42876560D01*
X101218936Y-42876559D01*
X101218934Y-42876558D01*
X101077805Y-42818101D01*
X100927982Y-42788299D01*
X100927980Y-42788299D01*
X100775220Y-42788299D01*
X100775217Y-42788299D01*
X100625395Y-42818101D01*
X100625393Y-42818101D01*
X100484265Y-42876558D01*
X100484264Y-42876558D01*
X100357248Y-42961429D01*
X100357244Y-42961432D01*
X100249233Y-43069443D01*
X100249230Y-43069447D01*
X100164359Y-43196463D01*
X100164359Y-43196464D01*
X100105902Y-43337592D01*
X100105902Y-43337594D01*
X100076100Y-43487416D01*
X77677100Y-43487416D01*
X77677100Y-43462796D01*
X77637691Y-43264672D01*
X77560386Y-43078043D01*
X77448158Y-42910081D01*
X77305318Y-42767241D01*
X77305314Y-42767238D01*
X77137355Y-42655012D01*
X76950730Y-42577709D01*
X76950724Y-42577707D01*
X76752605Y-42538299D01*
X76752603Y-42538299D01*
X76550597Y-42538299D01*
X76550594Y-42538299D01*
X76352475Y-42577707D01*
X76352469Y-42577709D01*
X76165844Y-42655012D01*
X75997885Y-42767238D01*
X75855039Y-42910084D01*
X75742813Y-43078043D01*
X75665510Y-43264668D01*
X75665508Y-43264674D01*
X75626100Y-43462793D01*
X69084884Y-43462793D01*
X69060545Y-43429293D01*
X69055700Y-43398700D01*
X69055700Y-43303453D01*
X69055698Y-43303441D01*
X69052911Y-43289431D01*
X69044067Y-43244969D01*
X68999752Y-43178648D01*
X68935197Y-43135513D01*
X68897320Y-43087465D01*
X68894918Y-43026327D01*
X68928911Y-42975454D01*
X68935188Y-42970892D01*
X68999752Y-42927752D01*
X69044067Y-42861431D01*
X69055700Y-42802948D01*
X69055700Y-42707700D01*
X69074607Y-42649509D01*
X69124107Y-42613545D01*
X69154700Y-42608700D01*
X69714473Y-42608700D01*
X69714473Y-42608699D01*
X69744899Y-42605846D01*
X69873082Y-42560993D01*
X69982350Y-42480350D01*
X70062993Y-42371082D01*
X70107846Y-42242899D01*
X70110699Y-42212473D01*
X70110700Y-42212473D01*
X70110700Y-41353927D01*
X70110699Y-41353925D01*
X70107846Y-41323505D01*
X70107846Y-41323501D01*
X70062993Y-41195318D01*
X69982350Y-41086050D01*
X69982346Y-41086047D01*
X69982344Y-41086045D01*
X69873083Y-41005407D01*
X69744903Y-40960555D01*
X69744894Y-40960553D01*
X69714474Y-40957700D01*
X69714466Y-40957700D01*
X69154700Y-40957700D01*
X69096509Y-40938793D01*
X69060545Y-40889293D01*
X69055700Y-40858700D01*
X69055700Y-40763453D01*
X69055698Y-40763441D01*
X69052911Y-40749431D01*
X69044067Y-40704969D01*
X68999752Y-40638648D01*
X68935200Y-40595515D01*
X68933433Y-40594334D01*
X68933431Y-40594333D01*
X68933428Y-40594332D01*
X68933427Y-40594332D01*
X68874958Y-40582701D01*
X68874948Y-40582700D01*
X68874947Y-40582700D01*
X68184700Y-40582700D01*
X68126509Y-40563793D01*
X68090545Y-40514293D01*
X68085700Y-40483700D01*
X68085700Y-38002700D01*
X68104607Y-37944509D01*
X68154107Y-37908545D01*
X68184700Y-37903700D01*
X68874947Y-37903700D01*
X68874948Y-37903700D01*
X68933431Y-37892067D01*
X68999752Y-37847752D01*
X69044067Y-37781431D01*
X69055700Y-37722948D01*
X69055700Y-37627700D01*
X69074607Y-37569509D01*
X69124107Y-37533545D01*
X69154700Y-37528700D01*
X69714473Y-37528700D01*
X69714473Y-37528699D01*
X69744899Y-37525846D01*
X69873082Y-37480993D01*
X69982350Y-37400350D01*
X70062993Y-37291082D01*
X70107846Y-37162899D01*
X70110699Y-37132473D01*
X70110700Y-37132473D01*
X70110700Y-36273927D01*
X70110699Y-36273925D01*
X70107846Y-36243505D01*
X70107846Y-36243501D01*
X70062993Y-36115318D01*
X70045404Y-36091486D01*
X70026064Y-36033439D01*
X70044536Y-35975108D01*
X70093766Y-35938776D01*
X70125061Y-35933699D01*
X107845339Y-35933699D01*
X107903530Y-35952606D01*
G37*
G04 #@! TD.AperFunction*
M02*
