%TF.GenerationSoftware,KiCad,Pcbnew,9.0.1+dfsg-1*%
%TF.CreationDate,2025-05-01T10:53:59+02:00*%
%TF.ProjectId,audio-codec,61756469-6f2d-4636-9f64-65632e6b6963,rev?*%
%TF.SameCoordinates,Original*%
%TF.FileFunction,Soldermask,Top*%
%TF.FilePolarity,Negative*%
%FSLAX46Y46*%
G04 Gerber Fmt 4.6, Leading zero omitted, Abs format (unit mm)*
G04 Created by KiCad (PCBNEW 9.0.1+dfsg-1) date 2025-05-01 10:53:59*
%MOMM*%
%LPD*%
G01*
G04 APERTURE LIST*
G04 Aperture macros list*
%AMRoundRect*
0 Rectangle with rounded corners*
0 $1 Rounding radius*
0 $2 $3 $4 $5 $6 $7 $8 $9 X,Y pos of 4 corners*
0 Add a 4 corners polygon primitive as box body*
4,1,4,$2,$3,$4,$5,$6,$7,$8,$9,$2,$3,0*
0 Add four circle primitives for the rounded corners*
1,1,$1+$1,$2,$3*
1,1,$1+$1,$4,$5*
1,1,$1+$1,$6,$7*
1,1,$1+$1,$8,$9*
0 Add four rect primitives between the rounded corners*
20,1,$1+$1,$2,$3,$4,$5,0*
20,1,$1+$1,$4,$5,$6,$7,0*
20,1,$1+$1,$6,$7,$8,$9,0*
20,1,$1+$1,$8,$9,$2,$3,0*%
G04 Aperture macros list end*
%ADD10C,0.010000*%
%ADD11RoundRect,0.225000X-0.225000X-0.250000X0.225000X-0.250000X0.225000X0.250000X-0.225000X0.250000X0*%
%ADD12RoundRect,0.200000X0.200000X0.275000X-0.200000X0.275000X-0.200000X-0.275000X0.200000X-0.275000X0*%
%ADD13RoundRect,0.225000X0.225000X0.250000X-0.225000X0.250000X-0.225000X-0.250000X0.225000X-0.250000X0*%
%ADD14C,0.464000*%
%ADD15RoundRect,0.225000X0.250000X-0.225000X0.250000X0.225000X-0.250000X0.225000X-0.250000X-0.225000X0*%
%ADD16RoundRect,0.200000X-0.200000X-0.275000X0.200000X-0.275000X0.200000X0.275000X-0.200000X0.275000X0*%
%ADD17RoundRect,0.218750X0.218750X0.381250X-0.218750X0.381250X-0.218750X-0.381250X0.218750X-0.381250X0*%
%ADD18R,2.540000X2.000000*%
%ADD19RoundRect,0.250000X-0.375000X-0.375000X0.375000X-0.375000X0.375000X0.375000X-0.375000X0.375000X0*%
G04 APERTURE END LIST*
D10*
%TO.C,U1*%
X85905000Y-67170000D02*
X82315000Y-67170000D01*
X82315000Y-63580000D01*
X85905000Y-63580000D01*
X85905000Y-67170000D01*
G36*
X85905000Y-67170000D02*
G01*
X82315000Y-67170000D01*
X82315000Y-63580000D01*
X85905000Y-63580000D01*
X85905000Y-67170000D01*
G37*
X82038000Y-63431000D02*
X82040000Y-63431000D01*
X82043000Y-63432000D01*
X82045000Y-63432000D01*
X82048000Y-63433000D01*
X82050000Y-63434000D01*
X82053000Y-63435000D01*
X82055000Y-63437000D01*
X82057000Y-63438000D01*
X82059000Y-63440000D01*
X82061000Y-63441000D01*
X82063000Y-63443000D01*
X82065000Y-63445000D01*
X82067000Y-63447000D01*
X82069000Y-63449000D01*
X82070000Y-63451000D01*
X82072000Y-63453000D01*
X82073000Y-63455000D01*
X82075000Y-63457000D01*
X82076000Y-63460000D01*
X82077000Y-63462000D01*
X82078000Y-63465000D01*
X82078000Y-63467000D01*
X82079000Y-63470000D01*
X82079000Y-63472000D01*
X82080000Y-63475000D01*
X82080000Y-63477000D01*
X82080000Y-63480000D01*
X82080000Y-63770000D01*
X82080000Y-63773000D01*
X82080000Y-63775000D01*
X82079000Y-63778000D01*
X82079000Y-63780000D01*
X82078000Y-63783000D01*
X82078000Y-63785000D01*
X82077000Y-63788000D01*
X82076000Y-63790000D01*
X82075000Y-63793000D01*
X82073000Y-63795000D01*
X82072000Y-63797000D01*
X82070000Y-63799000D01*
X82069000Y-63801000D01*
X82067000Y-63803000D01*
X82065000Y-63805000D01*
X82063000Y-63807000D01*
X82061000Y-63809000D01*
X82059000Y-63810000D01*
X82057000Y-63812000D01*
X82055000Y-63813000D01*
X82053000Y-63815000D01*
X82050000Y-63816000D01*
X82048000Y-63817000D01*
X82045000Y-63818000D01*
X82043000Y-63818000D01*
X82040000Y-63819000D01*
X82038000Y-63819000D01*
X82035000Y-63820000D01*
X82033000Y-63820000D01*
X82030000Y-63820000D01*
X81390000Y-63820000D01*
X81387000Y-63820000D01*
X81385000Y-63820000D01*
X81382000Y-63819000D01*
X81380000Y-63819000D01*
X81377000Y-63818000D01*
X81375000Y-63818000D01*
X81372000Y-63817000D01*
X81370000Y-63816000D01*
X81367000Y-63815000D01*
X81365000Y-63813000D01*
X81363000Y-63812000D01*
X81361000Y-63810000D01*
X81359000Y-63809000D01*
X81357000Y-63807000D01*
X81355000Y-63805000D01*
X81353000Y-63803000D01*
X81351000Y-63801000D01*
X81350000Y-63799000D01*
X81348000Y-63797000D01*
X81347000Y-63795000D01*
X81345000Y-63793000D01*
X81344000Y-63790000D01*
X81343000Y-63788000D01*
X81342000Y-63785000D01*
X81342000Y-63783000D01*
X81341000Y-63780000D01*
X81341000Y-63778000D01*
X81340000Y-63775000D01*
X81340000Y-63773000D01*
X81340000Y-63770000D01*
X81340000Y-63480000D01*
X81340000Y-63477000D01*
X81340000Y-63475000D01*
X81341000Y-63472000D01*
X81341000Y-63470000D01*
X81342000Y-63467000D01*
X81342000Y-63465000D01*
X81343000Y-63462000D01*
X81344000Y-63460000D01*
X81345000Y-63457000D01*
X81347000Y-63455000D01*
X81348000Y-63453000D01*
X81350000Y-63451000D01*
X81351000Y-63449000D01*
X81353000Y-63447000D01*
X81355000Y-63445000D01*
X81357000Y-63443000D01*
X81359000Y-63441000D01*
X81361000Y-63440000D01*
X81363000Y-63438000D01*
X81365000Y-63437000D01*
X81367000Y-63435000D01*
X81370000Y-63434000D01*
X81372000Y-63433000D01*
X81375000Y-63432000D01*
X81377000Y-63432000D01*
X81380000Y-63431000D01*
X81382000Y-63431000D01*
X81385000Y-63430000D01*
X81387000Y-63430000D01*
X81390000Y-63430000D01*
X82030000Y-63430000D01*
X82033000Y-63430000D01*
X82035000Y-63430000D01*
X82038000Y-63431000D01*
G36*
X82038000Y-63431000D02*
G01*
X82040000Y-63431000D01*
X82043000Y-63432000D01*
X82045000Y-63432000D01*
X82048000Y-63433000D01*
X82050000Y-63434000D01*
X82053000Y-63435000D01*
X82055000Y-63437000D01*
X82057000Y-63438000D01*
X82059000Y-63440000D01*
X82061000Y-63441000D01*
X82063000Y-63443000D01*
X82065000Y-63445000D01*
X82067000Y-63447000D01*
X82069000Y-63449000D01*
X82070000Y-63451000D01*
X82072000Y-63453000D01*
X82073000Y-63455000D01*
X82075000Y-63457000D01*
X82076000Y-63460000D01*
X82077000Y-63462000D01*
X82078000Y-63465000D01*
X82078000Y-63467000D01*
X82079000Y-63470000D01*
X82079000Y-63472000D01*
X82080000Y-63475000D01*
X82080000Y-63477000D01*
X82080000Y-63480000D01*
X82080000Y-63770000D01*
X82080000Y-63773000D01*
X82080000Y-63775000D01*
X82079000Y-63778000D01*
X82079000Y-63780000D01*
X82078000Y-63783000D01*
X82078000Y-63785000D01*
X82077000Y-63788000D01*
X82076000Y-63790000D01*
X82075000Y-63793000D01*
X82073000Y-63795000D01*
X82072000Y-63797000D01*
X82070000Y-63799000D01*
X82069000Y-63801000D01*
X82067000Y-63803000D01*
X82065000Y-63805000D01*
X82063000Y-63807000D01*
X82061000Y-63809000D01*
X82059000Y-63810000D01*
X82057000Y-63812000D01*
X82055000Y-63813000D01*
X82053000Y-63815000D01*
X82050000Y-63816000D01*
X82048000Y-63817000D01*
X82045000Y-63818000D01*
X82043000Y-63818000D01*
X82040000Y-63819000D01*
X82038000Y-63819000D01*
X82035000Y-63820000D01*
X82033000Y-63820000D01*
X82030000Y-63820000D01*
X81390000Y-63820000D01*
X81387000Y-63820000D01*
X81385000Y-63820000D01*
X81382000Y-63819000D01*
X81380000Y-63819000D01*
X81377000Y-63818000D01*
X81375000Y-63818000D01*
X81372000Y-63817000D01*
X81370000Y-63816000D01*
X81367000Y-63815000D01*
X81365000Y-63813000D01*
X81363000Y-63812000D01*
X81361000Y-63810000D01*
X81359000Y-63809000D01*
X81357000Y-63807000D01*
X81355000Y-63805000D01*
X81353000Y-63803000D01*
X81351000Y-63801000D01*
X81350000Y-63799000D01*
X81348000Y-63797000D01*
X81347000Y-63795000D01*
X81345000Y-63793000D01*
X81344000Y-63790000D01*
X81343000Y-63788000D01*
X81342000Y-63785000D01*
X81342000Y-63783000D01*
X81341000Y-63780000D01*
X81341000Y-63778000D01*
X81340000Y-63775000D01*
X81340000Y-63773000D01*
X81340000Y-63770000D01*
X81340000Y-63480000D01*
X81340000Y-63477000D01*
X81340000Y-63475000D01*
X81341000Y-63472000D01*
X81341000Y-63470000D01*
X81342000Y-63467000D01*
X81342000Y-63465000D01*
X81343000Y-63462000D01*
X81344000Y-63460000D01*
X81345000Y-63457000D01*
X81347000Y-63455000D01*
X81348000Y-63453000D01*
X81350000Y-63451000D01*
X81351000Y-63449000D01*
X81353000Y-63447000D01*
X81355000Y-63445000D01*
X81357000Y-63443000D01*
X81359000Y-63441000D01*
X81361000Y-63440000D01*
X81363000Y-63438000D01*
X81365000Y-63437000D01*
X81367000Y-63435000D01*
X81370000Y-63434000D01*
X81372000Y-63433000D01*
X81375000Y-63432000D01*
X81377000Y-63432000D01*
X81380000Y-63431000D01*
X81382000Y-63431000D01*
X81385000Y-63430000D01*
X81387000Y-63430000D01*
X81390000Y-63430000D01*
X82030000Y-63430000D01*
X82033000Y-63430000D01*
X82035000Y-63430000D01*
X82038000Y-63431000D01*
G37*
X82038000Y-63931000D02*
X82040000Y-63931000D01*
X82043000Y-63932000D01*
X82045000Y-63932000D01*
X82048000Y-63933000D01*
X82050000Y-63934000D01*
X82053000Y-63935000D01*
X82055000Y-63937000D01*
X82057000Y-63938000D01*
X82059000Y-63940000D01*
X82061000Y-63941000D01*
X82063000Y-63943000D01*
X82065000Y-63945000D01*
X82067000Y-63947000D01*
X82069000Y-63949000D01*
X82070000Y-63951000D01*
X82072000Y-63953000D01*
X82073000Y-63955000D01*
X82075000Y-63957000D01*
X82076000Y-63960000D01*
X82077000Y-63962000D01*
X82078000Y-63965000D01*
X82078000Y-63967000D01*
X82079000Y-63970000D01*
X82079000Y-63972000D01*
X82080000Y-63975000D01*
X82080000Y-63977000D01*
X82080000Y-63980000D01*
X82080000Y-64270000D01*
X82080000Y-64273000D01*
X82080000Y-64275000D01*
X82079000Y-64278000D01*
X82079000Y-64280000D01*
X82078000Y-64283000D01*
X82078000Y-64285000D01*
X82077000Y-64288000D01*
X82076000Y-64290000D01*
X82075000Y-64293000D01*
X82073000Y-64295000D01*
X82072000Y-64297000D01*
X82070000Y-64299000D01*
X82069000Y-64301000D01*
X82067000Y-64303000D01*
X82065000Y-64305000D01*
X82063000Y-64307000D01*
X82061000Y-64309000D01*
X82059000Y-64310000D01*
X82057000Y-64312000D01*
X82055000Y-64313000D01*
X82053000Y-64315000D01*
X82050000Y-64316000D01*
X82048000Y-64317000D01*
X82045000Y-64318000D01*
X82043000Y-64318000D01*
X82040000Y-64319000D01*
X82038000Y-64319000D01*
X82035000Y-64320000D01*
X82033000Y-64320000D01*
X82030000Y-64320000D01*
X81390000Y-64320000D01*
X81387000Y-64320000D01*
X81385000Y-64320000D01*
X81382000Y-64319000D01*
X81380000Y-64319000D01*
X81377000Y-64318000D01*
X81375000Y-64318000D01*
X81372000Y-64317000D01*
X81370000Y-64316000D01*
X81367000Y-64315000D01*
X81365000Y-64313000D01*
X81363000Y-64312000D01*
X81361000Y-64310000D01*
X81359000Y-64309000D01*
X81357000Y-64307000D01*
X81355000Y-64305000D01*
X81353000Y-64303000D01*
X81351000Y-64301000D01*
X81350000Y-64299000D01*
X81348000Y-64297000D01*
X81347000Y-64295000D01*
X81345000Y-64293000D01*
X81344000Y-64290000D01*
X81343000Y-64288000D01*
X81342000Y-64285000D01*
X81342000Y-64283000D01*
X81341000Y-64280000D01*
X81341000Y-64278000D01*
X81340000Y-64275000D01*
X81340000Y-64273000D01*
X81340000Y-64270000D01*
X81340000Y-63980000D01*
X81340000Y-63977000D01*
X81340000Y-63975000D01*
X81341000Y-63972000D01*
X81341000Y-63970000D01*
X81342000Y-63967000D01*
X81342000Y-63965000D01*
X81343000Y-63962000D01*
X81344000Y-63960000D01*
X81345000Y-63957000D01*
X81347000Y-63955000D01*
X81348000Y-63953000D01*
X81350000Y-63951000D01*
X81351000Y-63949000D01*
X81353000Y-63947000D01*
X81355000Y-63945000D01*
X81357000Y-63943000D01*
X81359000Y-63941000D01*
X81361000Y-63940000D01*
X81363000Y-63938000D01*
X81365000Y-63937000D01*
X81367000Y-63935000D01*
X81370000Y-63934000D01*
X81372000Y-63933000D01*
X81375000Y-63932000D01*
X81377000Y-63932000D01*
X81380000Y-63931000D01*
X81382000Y-63931000D01*
X81385000Y-63930000D01*
X81387000Y-63930000D01*
X81390000Y-63930000D01*
X82030000Y-63930000D01*
X82033000Y-63930000D01*
X82035000Y-63930000D01*
X82038000Y-63931000D01*
G36*
X82038000Y-63931000D02*
G01*
X82040000Y-63931000D01*
X82043000Y-63932000D01*
X82045000Y-63932000D01*
X82048000Y-63933000D01*
X82050000Y-63934000D01*
X82053000Y-63935000D01*
X82055000Y-63937000D01*
X82057000Y-63938000D01*
X82059000Y-63940000D01*
X82061000Y-63941000D01*
X82063000Y-63943000D01*
X82065000Y-63945000D01*
X82067000Y-63947000D01*
X82069000Y-63949000D01*
X82070000Y-63951000D01*
X82072000Y-63953000D01*
X82073000Y-63955000D01*
X82075000Y-63957000D01*
X82076000Y-63960000D01*
X82077000Y-63962000D01*
X82078000Y-63965000D01*
X82078000Y-63967000D01*
X82079000Y-63970000D01*
X82079000Y-63972000D01*
X82080000Y-63975000D01*
X82080000Y-63977000D01*
X82080000Y-63980000D01*
X82080000Y-64270000D01*
X82080000Y-64273000D01*
X82080000Y-64275000D01*
X82079000Y-64278000D01*
X82079000Y-64280000D01*
X82078000Y-64283000D01*
X82078000Y-64285000D01*
X82077000Y-64288000D01*
X82076000Y-64290000D01*
X82075000Y-64293000D01*
X82073000Y-64295000D01*
X82072000Y-64297000D01*
X82070000Y-64299000D01*
X82069000Y-64301000D01*
X82067000Y-64303000D01*
X82065000Y-64305000D01*
X82063000Y-64307000D01*
X82061000Y-64309000D01*
X82059000Y-64310000D01*
X82057000Y-64312000D01*
X82055000Y-64313000D01*
X82053000Y-64315000D01*
X82050000Y-64316000D01*
X82048000Y-64317000D01*
X82045000Y-64318000D01*
X82043000Y-64318000D01*
X82040000Y-64319000D01*
X82038000Y-64319000D01*
X82035000Y-64320000D01*
X82033000Y-64320000D01*
X82030000Y-64320000D01*
X81390000Y-64320000D01*
X81387000Y-64320000D01*
X81385000Y-64320000D01*
X81382000Y-64319000D01*
X81380000Y-64319000D01*
X81377000Y-64318000D01*
X81375000Y-64318000D01*
X81372000Y-64317000D01*
X81370000Y-64316000D01*
X81367000Y-64315000D01*
X81365000Y-64313000D01*
X81363000Y-64312000D01*
X81361000Y-64310000D01*
X81359000Y-64309000D01*
X81357000Y-64307000D01*
X81355000Y-64305000D01*
X81353000Y-64303000D01*
X81351000Y-64301000D01*
X81350000Y-64299000D01*
X81348000Y-64297000D01*
X81347000Y-64295000D01*
X81345000Y-64293000D01*
X81344000Y-64290000D01*
X81343000Y-64288000D01*
X81342000Y-64285000D01*
X81342000Y-64283000D01*
X81341000Y-64280000D01*
X81341000Y-64278000D01*
X81340000Y-64275000D01*
X81340000Y-64273000D01*
X81340000Y-64270000D01*
X81340000Y-63980000D01*
X81340000Y-63977000D01*
X81340000Y-63975000D01*
X81341000Y-63972000D01*
X81341000Y-63970000D01*
X81342000Y-63967000D01*
X81342000Y-63965000D01*
X81343000Y-63962000D01*
X81344000Y-63960000D01*
X81345000Y-63957000D01*
X81347000Y-63955000D01*
X81348000Y-63953000D01*
X81350000Y-63951000D01*
X81351000Y-63949000D01*
X81353000Y-63947000D01*
X81355000Y-63945000D01*
X81357000Y-63943000D01*
X81359000Y-63941000D01*
X81361000Y-63940000D01*
X81363000Y-63938000D01*
X81365000Y-63937000D01*
X81367000Y-63935000D01*
X81370000Y-63934000D01*
X81372000Y-63933000D01*
X81375000Y-63932000D01*
X81377000Y-63932000D01*
X81380000Y-63931000D01*
X81382000Y-63931000D01*
X81385000Y-63930000D01*
X81387000Y-63930000D01*
X81390000Y-63930000D01*
X82030000Y-63930000D01*
X82033000Y-63930000D01*
X82035000Y-63930000D01*
X82038000Y-63931000D01*
G37*
X82038000Y-64431000D02*
X82040000Y-64431000D01*
X82043000Y-64432000D01*
X82045000Y-64432000D01*
X82048000Y-64433000D01*
X82050000Y-64434000D01*
X82053000Y-64435000D01*
X82055000Y-64437000D01*
X82057000Y-64438000D01*
X82059000Y-64440000D01*
X82061000Y-64441000D01*
X82063000Y-64443000D01*
X82065000Y-64445000D01*
X82067000Y-64447000D01*
X82069000Y-64449000D01*
X82070000Y-64451000D01*
X82072000Y-64453000D01*
X82073000Y-64455000D01*
X82075000Y-64457000D01*
X82076000Y-64460000D01*
X82077000Y-64462000D01*
X82078000Y-64465000D01*
X82078000Y-64467000D01*
X82079000Y-64470000D01*
X82079000Y-64472000D01*
X82080000Y-64475000D01*
X82080000Y-64477000D01*
X82080000Y-64480000D01*
X82080000Y-64770000D01*
X82080000Y-64773000D01*
X82080000Y-64775000D01*
X82079000Y-64778000D01*
X82079000Y-64780000D01*
X82078000Y-64783000D01*
X82078000Y-64785000D01*
X82077000Y-64788000D01*
X82076000Y-64790000D01*
X82075000Y-64793000D01*
X82073000Y-64795000D01*
X82072000Y-64797000D01*
X82070000Y-64799000D01*
X82069000Y-64801000D01*
X82067000Y-64803000D01*
X82065000Y-64805000D01*
X82063000Y-64807000D01*
X82061000Y-64809000D01*
X82059000Y-64810000D01*
X82057000Y-64812000D01*
X82055000Y-64813000D01*
X82053000Y-64815000D01*
X82050000Y-64816000D01*
X82048000Y-64817000D01*
X82045000Y-64818000D01*
X82043000Y-64818000D01*
X82040000Y-64819000D01*
X82038000Y-64819000D01*
X82035000Y-64820000D01*
X82033000Y-64820000D01*
X82030000Y-64820000D01*
X81390000Y-64820000D01*
X81387000Y-64820000D01*
X81385000Y-64820000D01*
X81382000Y-64819000D01*
X81380000Y-64819000D01*
X81377000Y-64818000D01*
X81375000Y-64818000D01*
X81372000Y-64817000D01*
X81370000Y-64816000D01*
X81367000Y-64815000D01*
X81365000Y-64813000D01*
X81363000Y-64812000D01*
X81361000Y-64810000D01*
X81359000Y-64809000D01*
X81357000Y-64807000D01*
X81355000Y-64805000D01*
X81353000Y-64803000D01*
X81351000Y-64801000D01*
X81350000Y-64799000D01*
X81348000Y-64797000D01*
X81347000Y-64795000D01*
X81345000Y-64793000D01*
X81344000Y-64790000D01*
X81343000Y-64788000D01*
X81342000Y-64785000D01*
X81342000Y-64783000D01*
X81341000Y-64780000D01*
X81341000Y-64778000D01*
X81340000Y-64775000D01*
X81340000Y-64773000D01*
X81340000Y-64770000D01*
X81340000Y-64480000D01*
X81340000Y-64477000D01*
X81340000Y-64475000D01*
X81341000Y-64472000D01*
X81341000Y-64470000D01*
X81342000Y-64467000D01*
X81342000Y-64465000D01*
X81343000Y-64462000D01*
X81344000Y-64460000D01*
X81345000Y-64457000D01*
X81347000Y-64455000D01*
X81348000Y-64453000D01*
X81350000Y-64451000D01*
X81351000Y-64449000D01*
X81353000Y-64447000D01*
X81355000Y-64445000D01*
X81357000Y-64443000D01*
X81359000Y-64441000D01*
X81361000Y-64440000D01*
X81363000Y-64438000D01*
X81365000Y-64437000D01*
X81367000Y-64435000D01*
X81370000Y-64434000D01*
X81372000Y-64433000D01*
X81375000Y-64432000D01*
X81377000Y-64432000D01*
X81380000Y-64431000D01*
X81382000Y-64431000D01*
X81385000Y-64430000D01*
X81387000Y-64430000D01*
X81390000Y-64430000D01*
X82030000Y-64430000D01*
X82033000Y-64430000D01*
X82035000Y-64430000D01*
X82038000Y-64431000D01*
G36*
X82038000Y-64431000D02*
G01*
X82040000Y-64431000D01*
X82043000Y-64432000D01*
X82045000Y-64432000D01*
X82048000Y-64433000D01*
X82050000Y-64434000D01*
X82053000Y-64435000D01*
X82055000Y-64437000D01*
X82057000Y-64438000D01*
X82059000Y-64440000D01*
X82061000Y-64441000D01*
X82063000Y-64443000D01*
X82065000Y-64445000D01*
X82067000Y-64447000D01*
X82069000Y-64449000D01*
X82070000Y-64451000D01*
X82072000Y-64453000D01*
X82073000Y-64455000D01*
X82075000Y-64457000D01*
X82076000Y-64460000D01*
X82077000Y-64462000D01*
X82078000Y-64465000D01*
X82078000Y-64467000D01*
X82079000Y-64470000D01*
X82079000Y-64472000D01*
X82080000Y-64475000D01*
X82080000Y-64477000D01*
X82080000Y-64480000D01*
X82080000Y-64770000D01*
X82080000Y-64773000D01*
X82080000Y-64775000D01*
X82079000Y-64778000D01*
X82079000Y-64780000D01*
X82078000Y-64783000D01*
X82078000Y-64785000D01*
X82077000Y-64788000D01*
X82076000Y-64790000D01*
X82075000Y-64793000D01*
X82073000Y-64795000D01*
X82072000Y-64797000D01*
X82070000Y-64799000D01*
X82069000Y-64801000D01*
X82067000Y-64803000D01*
X82065000Y-64805000D01*
X82063000Y-64807000D01*
X82061000Y-64809000D01*
X82059000Y-64810000D01*
X82057000Y-64812000D01*
X82055000Y-64813000D01*
X82053000Y-64815000D01*
X82050000Y-64816000D01*
X82048000Y-64817000D01*
X82045000Y-64818000D01*
X82043000Y-64818000D01*
X82040000Y-64819000D01*
X82038000Y-64819000D01*
X82035000Y-64820000D01*
X82033000Y-64820000D01*
X82030000Y-64820000D01*
X81390000Y-64820000D01*
X81387000Y-64820000D01*
X81385000Y-64820000D01*
X81382000Y-64819000D01*
X81380000Y-64819000D01*
X81377000Y-64818000D01*
X81375000Y-64818000D01*
X81372000Y-64817000D01*
X81370000Y-64816000D01*
X81367000Y-64815000D01*
X81365000Y-64813000D01*
X81363000Y-64812000D01*
X81361000Y-64810000D01*
X81359000Y-64809000D01*
X81357000Y-64807000D01*
X81355000Y-64805000D01*
X81353000Y-64803000D01*
X81351000Y-64801000D01*
X81350000Y-64799000D01*
X81348000Y-64797000D01*
X81347000Y-64795000D01*
X81345000Y-64793000D01*
X81344000Y-64790000D01*
X81343000Y-64788000D01*
X81342000Y-64785000D01*
X81342000Y-64783000D01*
X81341000Y-64780000D01*
X81341000Y-64778000D01*
X81340000Y-64775000D01*
X81340000Y-64773000D01*
X81340000Y-64770000D01*
X81340000Y-64480000D01*
X81340000Y-64477000D01*
X81340000Y-64475000D01*
X81341000Y-64472000D01*
X81341000Y-64470000D01*
X81342000Y-64467000D01*
X81342000Y-64465000D01*
X81343000Y-64462000D01*
X81344000Y-64460000D01*
X81345000Y-64457000D01*
X81347000Y-64455000D01*
X81348000Y-64453000D01*
X81350000Y-64451000D01*
X81351000Y-64449000D01*
X81353000Y-64447000D01*
X81355000Y-64445000D01*
X81357000Y-64443000D01*
X81359000Y-64441000D01*
X81361000Y-64440000D01*
X81363000Y-64438000D01*
X81365000Y-64437000D01*
X81367000Y-64435000D01*
X81370000Y-64434000D01*
X81372000Y-64433000D01*
X81375000Y-64432000D01*
X81377000Y-64432000D01*
X81380000Y-64431000D01*
X81382000Y-64431000D01*
X81385000Y-64430000D01*
X81387000Y-64430000D01*
X81390000Y-64430000D01*
X82030000Y-64430000D01*
X82033000Y-64430000D01*
X82035000Y-64430000D01*
X82038000Y-64431000D01*
G37*
X82038000Y-64931000D02*
X82040000Y-64931000D01*
X82043000Y-64932000D01*
X82045000Y-64932000D01*
X82048000Y-64933000D01*
X82050000Y-64934000D01*
X82053000Y-64935000D01*
X82055000Y-64937000D01*
X82057000Y-64938000D01*
X82059000Y-64940000D01*
X82061000Y-64941000D01*
X82063000Y-64943000D01*
X82065000Y-64945000D01*
X82067000Y-64947000D01*
X82069000Y-64949000D01*
X82070000Y-64951000D01*
X82072000Y-64953000D01*
X82073000Y-64955000D01*
X82075000Y-64957000D01*
X82076000Y-64960000D01*
X82077000Y-64962000D01*
X82078000Y-64965000D01*
X82078000Y-64967000D01*
X82079000Y-64970000D01*
X82079000Y-64972000D01*
X82080000Y-64975000D01*
X82080000Y-64977000D01*
X82080000Y-64980000D01*
X82080000Y-65270000D01*
X82080000Y-65273000D01*
X82080000Y-65275000D01*
X82079000Y-65278000D01*
X82079000Y-65280000D01*
X82078000Y-65283000D01*
X82078000Y-65285000D01*
X82077000Y-65288000D01*
X82076000Y-65290000D01*
X82075000Y-65293000D01*
X82073000Y-65295000D01*
X82072000Y-65297000D01*
X82070000Y-65299000D01*
X82069000Y-65301000D01*
X82067000Y-65303000D01*
X82065000Y-65305000D01*
X82063000Y-65307000D01*
X82061000Y-65309000D01*
X82059000Y-65310000D01*
X82057000Y-65312000D01*
X82055000Y-65313000D01*
X82053000Y-65315000D01*
X82050000Y-65316000D01*
X82048000Y-65317000D01*
X82045000Y-65318000D01*
X82043000Y-65318000D01*
X82040000Y-65319000D01*
X82038000Y-65319000D01*
X82035000Y-65320000D01*
X82033000Y-65320000D01*
X82030000Y-65320000D01*
X81390000Y-65320000D01*
X81387000Y-65320000D01*
X81385000Y-65320000D01*
X81382000Y-65319000D01*
X81380000Y-65319000D01*
X81377000Y-65318000D01*
X81375000Y-65318000D01*
X81372000Y-65317000D01*
X81370000Y-65316000D01*
X81367000Y-65315000D01*
X81365000Y-65313000D01*
X81363000Y-65312000D01*
X81361000Y-65310000D01*
X81359000Y-65309000D01*
X81357000Y-65307000D01*
X81355000Y-65305000D01*
X81353000Y-65303000D01*
X81351000Y-65301000D01*
X81350000Y-65299000D01*
X81348000Y-65297000D01*
X81347000Y-65295000D01*
X81345000Y-65293000D01*
X81344000Y-65290000D01*
X81343000Y-65288000D01*
X81342000Y-65285000D01*
X81342000Y-65283000D01*
X81341000Y-65280000D01*
X81341000Y-65278000D01*
X81340000Y-65275000D01*
X81340000Y-65273000D01*
X81340000Y-65270000D01*
X81340000Y-64980000D01*
X81340000Y-64977000D01*
X81340000Y-64975000D01*
X81341000Y-64972000D01*
X81341000Y-64970000D01*
X81342000Y-64967000D01*
X81342000Y-64965000D01*
X81343000Y-64962000D01*
X81344000Y-64960000D01*
X81345000Y-64957000D01*
X81347000Y-64955000D01*
X81348000Y-64953000D01*
X81350000Y-64951000D01*
X81351000Y-64949000D01*
X81353000Y-64947000D01*
X81355000Y-64945000D01*
X81357000Y-64943000D01*
X81359000Y-64941000D01*
X81361000Y-64940000D01*
X81363000Y-64938000D01*
X81365000Y-64937000D01*
X81367000Y-64935000D01*
X81370000Y-64934000D01*
X81372000Y-64933000D01*
X81375000Y-64932000D01*
X81377000Y-64932000D01*
X81380000Y-64931000D01*
X81382000Y-64931000D01*
X81385000Y-64930000D01*
X81387000Y-64930000D01*
X81390000Y-64930000D01*
X82030000Y-64930000D01*
X82033000Y-64930000D01*
X82035000Y-64930000D01*
X82038000Y-64931000D01*
G36*
X82038000Y-64931000D02*
G01*
X82040000Y-64931000D01*
X82043000Y-64932000D01*
X82045000Y-64932000D01*
X82048000Y-64933000D01*
X82050000Y-64934000D01*
X82053000Y-64935000D01*
X82055000Y-64937000D01*
X82057000Y-64938000D01*
X82059000Y-64940000D01*
X82061000Y-64941000D01*
X82063000Y-64943000D01*
X82065000Y-64945000D01*
X82067000Y-64947000D01*
X82069000Y-64949000D01*
X82070000Y-64951000D01*
X82072000Y-64953000D01*
X82073000Y-64955000D01*
X82075000Y-64957000D01*
X82076000Y-64960000D01*
X82077000Y-64962000D01*
X82078000Y-64965000D01*
X82078000Y-64967000D01*
X82079000Y-64970000D01*
X82079000Y-64972000D01*
X82080000Y-64975000D01*
X82080000Y-64977000D01*
X82080000Y-64980000D01*
X82080000Y-65270000D01*
X82080000Y-65273000D01*
X82080000Y-65275000D01*
X82079000Y-65278000D01*
X82079000Y-65280000D01*
X82078000Y-65283000D01*
X82078000Y-65285000D01*
X82077000Y-65288000D01*
X82076000Y-65290000D01*
X82075000Y-65293000D01*
X82073000Y-65295000D01*
X82072000Y-65297000D01*
X82070000Y-65299000D01*
X82069000Y-65301000D01*
X82067000Y-65303000D01*
X82065000Y-65305000D01*
X82063000Y-65307000D01*
X82061000Y-65309000D01*
X82059000Y-65310000D01*
X82057000Y-65312000D01*
X82055000Y-65313000D01*
X82053000Y-65315000D01*
X82050000Y-65316000D01*
X82048000Y-65317000D01*
X82045000Y-65318000D01*
X82043000Y-65318000D01*
X82040000Y-65319000D01*
X82038000Y-65319000D01*
X82035000Y-65320000D01*
X82033000Y-65320000D01*
X82030000Y-65320000D01*
X81390000Y-65320000D01*
X81387000Y-65320000D01*
X81385000Y-65320000D01*
X81382000Y-65319000D01*
X81380000Y-65319000D01*
X81377000Y-65318000D01*
X81375000Y-65318000D01*
X81372000Y-65317000D01*
X81370000Y-65316000D01*
X81367000Y-65315000D01*
X81365000Y-65313000D01*
X81363000Y-65312000D01*
X81361000Y-65310000D01*
X81359000Y-65309000D01*
X81357000Y-65307000D01*
X81355000Y-65305000D01*
X81353000Y-65303000D01*
X81351000Y-65301000D01*
X81350000Y-65299000D01*
X81348000Y-65297000D01*
X81347000Y-65295000D01*
X81345000Y-65293000D01*
X81344000Y-65290000D01*
X81343000Y-65288000D01*
X81342000Y-65285000D01*
X81342000Y-65283000D01*
X81341000Y-65280000D01*
X81341000Y-65278000D01*
X81340000Y-65275000D01*
X81340000Y-65273000D01*
X81340000Y-65270000D01*
X81340000Y-64980000D01*
X81340000Y-64977000D01*
X81340000Y-64975000D01*
X81341000Y-64972000D01*
X81341000Y-64970000D01*
X81342000Y-64967000D01*
X81342000Y-64965000D01*
X81343000Y-64962000D01*
X81344000Y-64960000D01*
X81345000Y-64957000D01*
X81347000Y-64955000D01*
X81348000Y-64953000D01*
X81350000Y-64951000D01*
X81351000Y-64949000D01*
X81353000Y-64947000D01*
X81355000Y-64945000D01*
X81357000Y-64943000D01*
X81359000Y-64941000D01*
X81361000Y-64940000D01*
X81363000Y-64938000D01*
X81365000Y-64937000D01*
X81367000Y-64935000D01*
X81370000Y-64934000D01*
X81372000Y-64933000D01*
X81375000Y-64932000D01*
X81377000Y-64932000D01*
X81380000Y-64931000D01*
X81382000Y-64931000D01*
X81385000Y-64930000D01*
X81387000Y-64930000D01*
X81390000Y-64930000D01*
X82030000Y-64930000D01*
X82033000Y-64930000D01*
X82035000Y-64930000D01*
X82038000Y-64931000D01*
G37*
X82038000Y-65431000D02*
X82040000Y-65431000D01*
X82043000Y-65432000D01*
X82045000Y-65432000D01*
X82048000Y-65433000D01*
X82050000Y-65434000D01*
X82053000Y-65435000D01*
X82055000Y-65437000D01*
X82057000Y-65438000D01*
X82059000Y-65440000D01*
X82061000Y-65441000D01*
X82063000Y-65443000D01*
X82065000Y-65445000D01*
X82067000Y-65447000D01*
X82069000Y-65449000D01*
X82070000Y-65451000D01*
X82072000Y-65453000D01*
X82073000Y-65455000D01*
X82075000Y-65457000D01*
X82076000Y-65460000D01*
X82077000Y-65462000D01*
X82078000Y-65465000D01*
X82078000Y-65467000D01*
X82079000Y-65470000D01*
X82079000Y-65472000D01*
X82080000Y-65475000D01*
X82080000Y-65477000D01*
X82080000Y-65480000D01*
X82080000Y-65770000D01*
X82080000Y-65773000D01*
X82080000Y-65775000D01*
X82079000Y-65778000D01*
X82079000Y-65780000D01*
X82078000Y-65783000D01*
X82078000Y-65785000D01*
X82077000Y-65788000D01*
X82076000Y-65790000D01*
X82075000Y-65793000D01*
X82073000Y-65795000D01*
X82072000Y-65797000D01*
X82070000Y-65799000D01*
X82069000Y-65801000D01*
X82067000Y-65803000D01*
X82065000Y-65805000D01*
X82063000Y-65807000D01*
X82061000Y-65809000D01*
X82059000Y-65810000D01*
X82057000Y-65812000D01*
X82055000Y-65813000D01*
X82053000Y-65815000D01*
X82050000Y-65816000D01*
X82048000Y-65817000D01*
X82045000Y-65818000D01*
X82043000Y-65818000D01*
X82040000Y-65819000D01*
X82038000Y-65819000D01*
X82035000Y-65820000D01*
X82033000Y-65820000D01*
X82030000Y-65820000D01*
X81390000Y-65820000D01*
X81387000Y-65820000D01*
X81385000Y-65820000D01*
X81382000Y-65819000D01*
X81380000Y-65819000D01*
X81377000Y-65818000D01*
X81375000Y-65818000D01*
X81372000Y-65817000D01*
X81370000Y-65816000D01*
X81367000Y-65815000D01*
X81365000Y-65813000D01*
X81363000Y-65812000D01*
X81361000Y-65810000D01*
X81359000Y-65809000D01*
X81357000Y-65807000D01*
X81355000Y-65805000D01*
X81353000Y-65803000D01*
X81351000Y-65801000D01*
X81350000Y-65799000D01*
X81348000Y-65797000D01*
X81347000Y-65795000D01*
X81345000Y-65793000D01*
X81344000Y-65790000D01*
X81343000Y-65788000D01*
X81342000Y-65785000D01*
X81342000Y-65783000D01*
X81341000Y-65780000D01*
X81341000Y-65778000D01*
X81340000Y-65775000D01*
X81340000Y-65773000D01*
X81340000Y-65770000D01*
X81340000Y-65480000D01*
X81340000Y-65477000D01*
X81340000Y-65475000D01*
X81341000Y-65472000D01*
X81341000Y-65470000D01*
X81342000Y-65467000D01*
X81342000Y-65465000D01*
X81343000Y-65462000D01*
X81344000Y-65460000D01*
X81345000Y-65457000D01*
X81347000Y-65455000D01*
X81348000Y-65453000D01*
X81350000Y-65451000D01*
X81351000Y-65449000D01*
X81353000Y-65447000D01*
X81355000Y-65445000D01*
X81357000Y-65443000D01*
X81359000Y-65441000D01*
X81361000Y-65440000D01*
X81363000Y-65438000D01*
X81365000Y-65437000D01*
X81367000Y-65435000D01*
X81370000Y-65434000D01*
X81372000Y-65433000D01*
X81375000Y-65432000D01*
X81377000Y-65432000D01*
X81380000Y-65431000D01*
X81382000Y-65431000D01*
X81385000Y-65430000D01*
X81387000Y-65430000D01*
X81390000Y-65430000D01*
X82030000Y-65430000D01*
X82033000Y-65430000D01*
X82035000Y-65430000D01*
X82038000Y-65431000D01*
G36*
X82038000Y-65431000D02*
G01*
X82040000Y-65431000D01*
X82043000Y-65432000D01*
X82045000Y-65432000D01*
X82048000Y-65433000D01*
X82050000Y-65434000D01*
X82053000Y-65435000D01*
X82055000Y-65437000D01*
X82057000Y-65438000D01*
X82059000Y-65440000D01*
X82061000Y-65441000D01*
X82063000Y-65443000D01*
X82065000Y-65445000D01*
X82067000Y-65447000D01*
X82069000Y-65449000D01*
X82070000Y-65451000D01*
X82072000Y-65453000D01*
X82073000Y-65455000D01*
X82075000Y-65457000D01*
X82076000Y-65460000D01*
X82077000Y-65462000D01*
X82078000Y-65465000D01*
X82078000Y-65467000D01*
X82079000Y-65470000D01*
X82079000Y-65472000D01*
X82080000Y-65475000D01*
X82080000Y-65477000D01*
X82080000Y-65480000D01*
X82080000Y-65770000D01*
X82080000Y-65773000D01*
X82080000Y-65775000D01*
X82079000Y-65778000D01*
X82079000Y-65780000D01*
X82078000Y-65783000D01*
X82078000Y-65785000D01*
X82077000Y-65788000D01*
X82076000Y-65790000D01*
X82075000Y-65793000D01*
X82073000Y-65795000D01*
X82072000Y-65797000D01*
X82070000Y-65799000D01*
X82069000Y-65801000D01*
X82067000Y-65803000D01*
X82065000Y-65805000D01*
X82063000Y-65807000D01*
X82061000Y-65809000D01*
X82059000Y-65810000D01*
X82057000Y-65812000D01*
X82055000Y-65813000D01*
X82053000Y-65815000D01*
X82050000Y-65816000D01*
X82048000Y-65817000D01*
X82045000Y-65818000D01*
X82043000Y-65818000D01*
X82040000Y-65819000D01*
X82038000Y-65819000D01*
X82035000Y-65820000D01*
X82033000Y-65820000D01*
X82030000Y-65820000D01*
X81390000Y-65820000D01*
X81387000Y-65820000D01*
X81385000Y-65820000D01*
X81382000Y-65819000D01*
X81380000Y-65819000D01*
X81377000Y-65818000D01*
X81375000Y-65818000D01*
X81372000Y-65817000D01*
X81370000Y-65816000D01*
X81367000Y-65815000D01*
X81365000Y-65813000D01*
X81363000Y-65812000D01*
X81361000Y-65810000D01*
X81359000Y-65809000D01*
X81357000Y-65807000D01*
X81355000Y-65805000D01*
X81353000Y-65803000D01*
X81351000Y-65801000D01*
X81350000Y-65799000D01*
X81348000Y-65797000D01*
X81347000Y-65795000D01*
X81345000Y-65793000D01*
X81344000Y-65790000D01*
X81343000Y-65788000D01*
X81342000Y-65785000D01*
X81342000Y-65783000D01*
X81341000Y-65780000D01*
X81341000Y-65778000D01*
X81340000Y-65775000D01*
X81340000Y-65773000D01*
X81340000Y-65770000D01*
X81340000Y-65480000D01*
X81340000Y-65477000D01*
X81340000Y-65475000D01*
X81341000Y-65472000D01*
X81341000Y-65470000D01*
X81342000Y-65467000D01*
X81342000Y-65465000D01*
X81343000Y-65462000D01*
X81344000Y-65460000D01*
X81345000Y-65457000D01*
X81347000Y-65455000D01*
X81348000Y-65453000D01*
X81350000Y-65451000D01*
X81351000Y-65449000D01*
X81353000Y-65447000D01*
X81355000Y-65445000D01*
X81357000Y-65443000D01*
X81359000Y-65441000D01*
X81361000Y-65440000D01*
X81363000Y-65438000D01*
X81365000Y-65437000D01*
X81367000Y-65435000D01*
X81370000Y-65434000D01*
X81372000Y-65433000D01*
X81375000Y-65432000D01*
X81377000Y-65432000D01*
X81380000Y-65431000D01*
X81382000Y-65431000D01*
X81385000Y-65430000D01*
X81387000Y-65430000D01*
X81390000Y-65430000D01*
X82030000Y-65430000D01*
X82033000Y-65430000D01*
X82035000Y-65430000D01*
X82038000Y-65431000D01*
G37*
X82038000Y-65931000D02*
X82040000Y-65931000D01*
X82043000Y-65932000D01*
X82045000Y-65932000D01*
X82048000Y-65933000D01*
X82050000Y-65934000D01*
X82053000Y-65935000D01*
X82055000Y-65937000D01*
X82057000Y-65938000D01*
X82059000Y-65940000D01*
X82061000Y-65941000D01*
X82063000Y-65943000D01*
X82065000Y-65945000D01*
X82067000Y-65947000D01*
X82069000Y-65949000D01*
X82070000Y-65951000D01*
X82072000Y-65953000D01*
X82073000Y-65955000D01*
X82075000Y-65957000D01*
X82076000Y-65960000D01*
X82077000Y-65962000D01*
X82078000Y-65965000D01*
X82078000Y-65967000D01*
X82079000Y-65970000D01*
X82079000Y-65972000D01*
X82080000Y-65975000D01*
X82080000Y-65977000D01*
X82080000Y-65980000D01*
X82080000Y-66270000D01*
X82080000Y-66273000D01*
X82080000Y-66275000D01*
X82079000Y-66278000D01*
X82079000Y-66280000D01*
X82078000Y-66283000D01*
X82078000Y-66285000D01*
X82077000Y-66288000D01*
X82076000Y-66290000D01*
X82075000Y-66293000D01*
X82073000Y-66295000D01*
X82072000Y-66297000D01*
X82070000Y-66299000D01*
X82069000Y-66301000D01*
X82067000Y-66303000D01*
X82065000Y-66305000D01*
X82063000Y-66307000D01*
X82061000Y-66309000D01*
X82059000Y-66310000D01*
X82057000Y-66312000D01*
X82055000Y-66313000D01*
X82053000Y-66315000D01*
X82050000Y-66316000D01*
X82048000Y-66317000D01*
X82045000Y-66318000D01*
X82043000Y-66318000D01*
X82040000Y-66319000D01*
X82038000Y-66319000D01*
X82035000Y-66320000D01*
X82033000Y-66320000D01*
X82030000Y-66320000D01*
X81390000Y-66320000D01*
X81387000Y-66320000D01*
X81385000Y-66320000D01*
X81382000Y-66319000D01*
X81380000Y-66319000D01*
X81377000Y-66318000D01*
X81375000Y-66318000D01*
X81372000Y-66317000D01*
X81370000Y-66316000D01*
X81367000Y-66315000D01*
X81365000Y-66313000D01*
X81363000Y-66312000D01*
X81361000Y-66310000D01*
X81359000Y-66309000D01*
X81357000Y-66307000D01*
X81355000Y-66305000D01*
X81353000Y-66303000D01*
X81351000Y-66301000D01*
X81350000Y-66299000D01*
X81348000Y-66297000D01*
X81347000Y-66295000D01*
X81345000Y-66293000D01*
X81344000Y-66290000D01*
X81343000Y-66288000D01*
X81342000Y-66285000D01*
X81342000Y-66283000D01*
X81341000Y-66280000D01*
X81341000Y-66278000D01*
X81340000Y-66275000D01*
X81340000Y-66273000D01*
X81340000Y-66270000D01*
X81340000Y-65980000D01*
X81340000Y-65977000D01*
X81340000Y-65975000D01*
X81341000Y-65972000D01*
X81341000Y-65970000D01*
X81342000Y-65967000D01*
X81342000Y-65965000D01*
X81343000Y-65962000D01*
X81344000Y-65960000D01*
X81345000Y-65957000D01*
X81347000Y-65955000D01*
X81348000Y-65953000D01*
X81350000Y-65951000D01*
X81351000Y-65949000D01*
X81353000Y-65947000D01*
X81355000Y-65945000D01*
X81357000Y-65943000D01*
X81359000Y-65941000D01*
X81361000Y-65940000D01*
X81363000Y-65938000D01*
X81365000Y-65937000D01*
X81367000Y-65935000D01*
X81370000Y-65934000D01*
X81372000Y-65933000D01*
X81375000Y-65932000D01*
X81377000Y-65932000D01*
X81380000Y-65931000D01*
X81382000Y-65931000D01*
X81385000Y-65930000D01*
X81387000Y-65930000D01*
X81390000Y-65930000D01*
X82030000Y-65930000D01*
X82033000Y-65930000D01*
X82035000Y-65930000D01*
X82038000Y-65931000D01*
G36*
X82038000Y-65931000D02*
G01*
X82040000Y-65931000D01*
X82043000Y-65932000D01*
X82045000Y-65932000D01*
X82048000Y-65933000D01*
X82050000Y-65934000D01*
X82053000Y-65935000D01*
X82055000Y-65937000D01*
X82057000Y-65938000D01*
X82059000Y-65940000D01*
X82061000Y-65941000D01*
X82063000Y-65943000D01*
X82065000Y-65945000D01*
X82067000Y-65947000D01*
X82069000Y-65949000D01*
X82070000Y-65951000D01*
X82072000Y-65953000D01*
X82073000Y-65955000D01*
X82075000Y-65957000D01*
X82076000Y-65960000D01*
X82077000Y-65962000D01*
X82078000Y-65965000D01*
X82078000Y-65967000D01*
X82079000Y-65970000D01*
X82079000Y-65972000D01*
X82080000Y-65975000D01*
X82080000Y-65977000D01*
X82080000Y-65980000D01*
X82080000Y-66270000D01*
X82080000Y-66273000D01*
X82080000Y-66275000D01*
X82079000Y-66278000D01*
X82079000Y-66280000D01*
X82078000Y-66283000D01*
X82078000Y-66285000D01*
X82077000Y-66288000D01*
X82076000Y-66290000D01*
X82075000Y-66293000D01*
X82073000Y-66295000D01*
X82072000Y-66297000D01*
X82070000Y-66299000D01*
X82069000Y-66301000D01*
X82067000Y-66303000D01*
X82065000Y-66305000D01*
X82063000Y-66307000D01*
X82061000Y-66309000D01*
X82059000Y-66310000D01*
X82057000Y-66312000D01*
X82055000Y-66313000D01*
X82053000Y-66315000D01*
X82050000Y-66316000D01*
X82048000Y-66317000D01*
X82045000Y-66318000D01*
X82043000Y-66318000D01*
X82040000Y-66319000D01*
X82038000Y-66319000D01*
X82035000Y-66320000D01*
X82033000Y-66320000D01*
X82030000Y-66320000D01*
X81390000Y-66320000D01*
X81387000Y-66320000D01*
X81385000Y-66320000D01*
X81382000Y-66319000D01*
X81380000Y-66319000D01*
X81377000Y-66318000D01*
X81375000Y-66318000D01*
X81372000Y-66317000D01*
X81370000Y-66316000D01*
X81367000Y-66315000D01*
X81365000Y-66313000D01*
X81363000Y-66312000D01*
X81361000Y-66310000D01*
X81359000Y-66309000D01*
X81357000Y-66307000D01*
X81355000Y-66305000D01*
X81353000Y-66303000D01*
X81351000Y-66301000D01*
X81350000Y-66299000D01*
X81348000Y-66297000D01*
X81347000Y-66295000D01*
X81345000Y-66293000D01*
X81344000Y-66290000D01*
X81343000Y-66288000D01*
X81342000Y-66285000D01*
X81342000Y-66283000D01*
X81341000Y-66280000D01*
X81341000Y-66278000D01*
X81340000Y-66275000D01*
X81340000Y-66273000D01*
X81340000Y-66270000D01*
X81340000Y-65980000D01*
X81340000Y-65977000D01*
X81340000Y-65975000D01*
X81341000Y-65972000D01*
X81341000Y-65970000D01*
X81342000Y-65967000D01*
X81342000Y-65965000D01*
X81343000Y-65962000D01*
X81344000Y-65960000D01*
X81345000Y-65957000D01*
X81347000Y-65955000D01*
X81348000Y-65953000D01*
X81350000Y-65951000D01*
X81351000Y-65949000D01*
X81353000Y-65947000D01*
X81355000Y-65945000D01*
X81357000Y-65943000D01*
X81359000Y-65941000D01*
X81361000Y-65940000D01*
X81363000Y-65938000D01*
X81365000Y-65937000D01*
X81367000Y-65935000D01*
X81370000Y-65934000D01*
X81372000Y-65933000D01*
X81375000Y-65932000D01*
X81377000Y-65932000D01*
X81380000Y-65931000D01*
X81382000Y-65931000D01*
X81385000Y-65930000D01*
X81387000Y-65930000D01*
X81390000Y-65930000D01*
X82030000Y-65930000D01*
X82033000Y-65930000D01*
X82035000Y-65930000D01*
X82038000Y-65931000D01*
G37*
X82038000Y-66431000D02*
X82040000Y-66431000D01*
X82043000Y-66432000D01*
X82045000Y-66432000D01*
X82048000Y-66433000D01*
X82050000Y-66434000D01*
X82053000Y-66435000D01*
X82055000Y-66437000D01*
X82057000Y-66438000D01*
X82059000Y-66440000D01*
X82061000Y-66441000D01*
X82063000Y-66443000D01*
X82065000Y-66445000D01*
X82067000Y-66447000D01*
X82069000Y-66449000D01*
X82070000Y-66451000D01*
X82072000Y-66453000D01*
X82073000Y-66455000D01*
X82075000Y-66457000D01*
X82076000Y-66460000D01*
X82077000Y-66462000D01*
X82078000Y-66465000D01*
X82078000Y-66467000D01*
X82079000Y-66470000D01*
X82079000Y-66472000D01*
X82080000Y-66475000D01*
X82080000Y-66477000D01*
X82080000Y-66480000D01*
X82080000Y-66770000D01*
X82080000Y-66773000D01*
X82080000Y-66775000D01*
X82079000Y-66778000D01*
X82079000Y-66780000D01*
X82078000Y-66783000D01*
X82078000Y-66785000D01*
X82077000Y-66788000D01*
X82076000Y-66790000D01*
X82075000Y-66793000D01*
X82073000Y-66795000D01*
X82072000Y-66797000D01*
X82070000Y-66799000D01*
X82069000Y-66801000D01*
X82067000Y-66803000D01*
X82065000Y-66805000D01*
X82063000Y-66807000D01*
X82061000Y-66809000D01*
X82059000Y-66810000D01*
X82057000Y-66812000D01*
X82055000Y-66813000D01*
X82053000Y-66815000D01*
X82050000Y-66816000D01*
X82048000Y-66817000D01*
X82045000Y-66818000D01*
X82043000Y-66818000D01*
X82040000Y-66819000D01*
X82038000Y-66819000D01*
X82035000Y-66820000D01*
X82033000Y-66820000D01*
X82030000Y-66820000D01*
X81390000Y-66820000D01*
X81387000Y-66820000D01*
X81385000Y-66820000D01*
X81382000Y-66819000D01*
X81380000Y-66819000D01*
X81377000Y-66818000D01*
X81375000Y-66818000D01*
X81372000Y-66817000D01*
X81370000Y-66816000D01*
X81367000Y-66815000D01*
X81365000Y-66813000D01*
X81363000Y-66812000D01*
X81361000Y-66810000D01*
X81359000Y-66809000D01*
X81357000Y-66807000D01*
X81355000Y-66805000D01*
X81353000Y-66803000D01*
X81351000Y-66801000D01*
X81350000Y-66799000D01*
X81348000Y-66797000D01*
X81347000Y-66795000D01*
X81345000Y-66793000D01*
X81344000Y-66790000D01*
X81343000Y-66788000D01*
X81342000Y-66785000D01*
X81342000Y-66783000D01*
X81341000Y-66780000D01*
X81341000Y-66778000D01*
X81340000Y-66775000D01*
X81340000Y-66773000D01*
X81340000Y-66770000D01*
X81340000Y-66480000D01*
X81340000Y-66477000D01*
X81340000Y-66475000D01*
X81341000Y-66472000D01*
X81341000Y-66470000D01*
X81342000Y-66467000D01*
X81342000Y-66465000D01*
X81343000Y-66462000D01*
X81344000Y-66460000D01*
X81345000Y-66457000D01*
X81347000Y-66455000D01*
X81348000Y-66453000D01*
X81350000Y-66451000D01*
X81351000Y-66449000D01*
X81353000Y-66447000D01*
X81355000Y-66445000D01*
X81357000Y-66443000D01*
X81359000Y-66441000D01*
X81361000Y-66440000D01*
X81363000Y-66438000D01*
X81365000Y-66437000D01*
X81367000Y-66435000D01*
X81370000Y-66434000D01*
X81372000Y-66433000D01*
X81375000Y-66432000D01*
X81377000Y-66432000D01*
X81380000Y-66431000D01*
X81382000Y-66431000D01*
X81385000Y-66430000D01*
X81387000Y-66430000D01*
X81390000Y-66430000D01*
X82030000Y-66430000D01*
X82033000Y-66430000D01*
X82035000Y-66430000D01*
X82038000Y-66431000D01*
G36*
X82038000Y-66431000D02*
G01*
X82040000Y-66431000D01*
X82043000Y-66432000D01*
X82045000Y-66432000D01*
X82048000Y-66433000D01*
X82050000Y-66434000D01*
X82053000Y-66435000D01*
X82055000Y-66437000D01*
X82057000Y-66438000D01*
X82059000Y-66440000D01*
X82061000Y-66441000D01*
X82063000Y-66443000D01*
X82065000Y-66445000D01*
X82067000Y-66447000D01*
X82069000Y-66449000D01*
X82070000Y-66451000D01*
X82072000Y-66453000D01*
X82073000Y-66455000D01*
X82075000Y-66457000D01*
X82076000Y-66460000D01*
X82077000Y-66462000D01*
X82078000Y-66465000D01*
X82078000Y-66467000D01*
X82079000Y-66470000D01*
X82079000Y-66472000D01*
X82080000Y-66475000D01*
X82080000Y-66477000D01*
X82080000Y-66480000D01*
X82080000Y-66770000D01*
X82080000Y-66773000D01*
X82080000Y-66775000D01*
X82079000Y-66778000D01*
X82079000Y-66780000D01*
X82078000Y-66783000D01*
X82078000Y-66785000D01*
X82077000Y-66788000D01*
X82076000Y-66790000D01*
X82075000Y-66793000D01*
X82073000Y-66795000D01*
X82072000Y-66797000D01*
X82070000Y-66799000D01*
X82069000Y-66801000D01*
X82067000Y-66803000D01*
X82065000Y-66805000D01*
X82063000Y-66807000D01*
X82061000Y-66809000D01*
X82059000Y-66810000D01*
X82057000Y-66812000D01*
X82055000Y-66813000D01*
X82053000Y-66815000D01*
X82050000Y-66816000D01*
X82048000Y-66817000D01*
X82045000Y-66818000D01*
X82043000Y-66818000D01*
X82040000Y-66819000D01*
X82038000Y-66819000D01*
X82035000Y-66820000D01*
X82033000Y-66820000D01*
X82030000Y-66820000D01*
X81390000Y-66820000D01*
X81387000Y-66820000D01*
X81385000Y-66820000D01*
X81382000Y-66819000D01*
X81380000Y-66819000D01*
X81377000Y-66818000D01*
X81375000Y-66818000D01*
X81372000Y-66817000D01*
X81370000Y-66816000D01*
X81367000Y-66815000D01*
X81365000Y-66813000D01*
X81363000Y-66812000D01*
X81361000Y-66810000D01*
X81359000Y-66809000D01*
X81357000Y-66807000D01*
X81355000Y-66805000D01*
X81353000Y-66803000D01*
X81351000Y-66801000D01*
X81350000Y-66799000D01*
X81348000Y-66797000D01*
X81347000Y-66795000D01*
X81345000Y-66793000D01*
X81344000Y-66790000D01*
X81343000Y-66788000D01*
X81342000Y-66785000D01*
X81342000Y-66783000D01*
X81341000Y-66780000D01*
X81341000Y-66778000D01*
X81340000Y-66775000D01*
X81340000Y-66773000D01*
X81340000Y-66770000D01*
X81340000Y-66480000D01*
X81340000Y-66477000D01*
X81340000Y-66475000D01*
X81341000Y-66472000D01*
X81341000Y-66470000D01*
X81342000Y-66467000D01*
X81342000Y-66465000D01*
X81343000Y-66462000D01*
X81344000Y-66460000D01*
X81345000Y-66457000D01*
X81347000Y-66455000D01*
X81348000Y-66453000D01*
X81350000Y-66451000D01*
X81351000Y-66449000D01*
X81353000Y-66447000D01*
X81355000Y-66445000D01*
X81357000Y-66443000D01*
X81359000Y-66441000D01*
X81361000Y-66440000D01*
X81363000Y-66438000D01*
X81365000Y-66437000D01*
X81367000Y-66435000D01*
X81370000Y-66434000D01*
X81372000Y-66433000D01*
X81375000Y-66432000D01*
X81377000Y-66432000D01*
X81380000Y-66431000D01*
X81382000Y-66431000D01*
X81385000Y-66430000D01*
X81387000Y-66430000D01*
X81390000Y-66430000D01*
X82030000Y-66430000D01*
X82033000Y-66430000D01*
X82035000Y-66430000D01*
X82038000Y-66431000D01*
G37*
X82038000Y-66931000D02*
X82040000Y-66931000D01*
X82043000Y-66932000D01*
X82045000Y-66932000D01*
X82048000Y-66933000D01*
X82050000Y-66934000D01*
X82053000Y-66935000D01*
X82055000Y-66937000D01*
X82057000Y-66938000D01*
X82059000Y-66940000D01*
X82061000Y-66941000D01*
X82063000Y-66943000D01*
X82065000Y-66945000D01*
X82067000Y-66947000D01*
X82069000Y-66949000D01*
X82070000Y-66951000D01*
X82072000Y-66953000D01*
X82073000Y-66955000D01*
X82075000Y-66957000D01*
X82076000Y-66960000D01*
X82077000Y-66962000D01*
X82078000Y-66965000D01*
X82078000Y-66967000D01*
X82079000Y-66970000D01*
X82079000Y-66972000D01*
X82080000Y-66975000D01*
X82080000Y-66977000D01*
X82080000Y-66980000D01*
X82080000Y-67270000D01*
X82080000Y-67273000D01*
X82080000Y-67275000D01*
X82079000Y-67278000D01*
X82079000Y-67280000D01*
X82078000Y-67283000D01*
X82078000Y-67285000D01*
X82077000Y-67288000D01*
X82076000Y-67290000D01*
X82075000Y-67293000D01*
X82073000Y-67295000D01*
X82072000Y-67297000D01*
X82070000Y-67299000D01*
X82069000Y-67301000D01*
X82067000Y-67303000D01*
X82065000Y-67305000D01*
X82063000Y-67307000D01*
X82061000Y-67309000D01*
X82059000Y-67310000D01*
X82057000Y-67312000D01*
X82055000Y-67313000D01*
X82053000Y-67315000D01*
X82050000Y-67316000D01*
X82048000Y-67317000D01*
X82045000Y-67318000D01*
X82043000Y-67318000D01*
X82040000Y-67319000D01*
X82038000Y-67319000D01*
X82035000Y-67320000D01*
X82033000Y-67320000D01*
X82030000Y-67320000D01*
X81390000Y-67320000D01*
X81387000Y-67320000D01*
X81385000Y-67320000D01*
X81382000Y-67319000D01*
X81380000Y-67319000D01*
X81377000Y-67318000D01*
X81375000Y-67318000D01*
X81372000Y-67317000D01*
X81370000Y-67316000D01*
X81367000Y-67315000D01*
X81365000Y-67313000D01*
X81363000Y-67312000D01*
X81361000Y-67310000D01*
X81359000Y-67309000D01*
X81357000Y-67307000D01*
X81355000Y-67305000D01*
X81353000Y-67303000D01*
X81351000Y-67301000D01*
X81350000Y-67299000D01*
X81348000Y-67297000D01*
X81347000Y-67295000D01*
X81345000Y-67293000D01*
X81344000Y-67290000D01*
X81343000Y-67288000D01*
X81342000Y-67285000D01*
X81342000Y-67283000D01*
X81341000Y-67280000D01*
X81341000Y-67278000D01*
X81340000Y-67275000D01*
X81340000Y-67273000D01*
X81340000Y-67270000D01*
X81340000Y-66980000D01*
X81340000Y-66977000D01*
X81340000Y-66975000D01*
X81341000Y-66972000D01*
X81341000Y-66970000D01*
X81342000Y-66967000D01*
X81342000Y-66965000D01*
X81343000Y-66962000D01*
X81344000Y-66960000D01*
X81345000Y-66957000D01*
X81347000Y-66955000D01*
X81348000Y-66953000D01*
X81350000Y-66951000D01*
X81351000Y-66949000D01*
X81353000Y-66947000D01*
X81355000Y-66945000D01*
X81357000Y-66943000D01*
X81359000Y-66941000D01*
X81361000Y-66940000D01*
X81363000Y-66938000D01*
X81365000Y-66937000D01*
X81367000Y-66935000D01*
X81370000Y-66934000D01*
X81372000Y-66933000D01*
X81375000Y-66932000D01*
X81377000Y-66932000D01*
X81380000Y-66931000D01*
X81382000Y-66931000D01*
X81385000Y-66930000D01*
X81387000Y-66930000D01*
X81390000Y-66930000D01*
X82030000Y-66930000D01*
X82033000Y-66930000D01*
X82035000Y-66930000D01*
X82038000Y-66931000D01*
G36*
X82038000Y-66931000D02*
G01*
X82040000Y-66931000D01*
X82043000Y-66932000D01*
X82045000Y-66932000D01*
X82048000Y-66933000D01*
X82050000Y-66934000D01*
X82053000Y-66935000D01*
X82055000Y-66937000D01*
X82057000Y-66938000D01*
X82059000Y-66940000D01*
X82061000Y-66941000D01*
X82063000Y-66943000D01*
X82065000Y-66945000D01*
X82067000Y-66947000D01*
X82069000Y-66949000D01*
X82070000Y-66951000D01*
X82072000Y-66953000D01*
X82073000Y-66955000D01*
X82075000Y-66957000D01*
X82076000Y-66960000D01*
X82077000Y-66962000D01*
X82078000Y-66965000D01*
X82078000Y-66967000D01*
X82079000Y-66970000D01*
X82079000Y-66972000D01*
X82080000Y-66975000D01*
X82080000Y-66977000D01*
X82080000Y-66980000D01*
X82080000Y-67270000D01*
X82080000Y-67273000D01*
X82080000Y-67275000D01*
X82079000Y-67278000D01*
X82079000Y-67280000D01*
X82078000Y-67283000D01*
X82078000Y-67285000D01*
X82077000Y-67288000D01*
X82076000Y-67290000D01*
X82075000Y-67293000D01*
X82073000Y-67295000D01*
X82072000Y-67297000D01*
X82070000Y-67299000D01*
X82069000Y-67301000D01*
X82067000Y-67303000D01*
X82065000Y-67305000D01*
X82063000Y-67307000D01*
X82061000Y-67309000D01*
X82059000Y-67310000D01*
X82057000Y-67312000D01*
X82055000Y-67313000D01*
X82053000Y-67315000D01*
X82050000Y-67316000D01*
X82048000Y-67317000D01*
X82045000Y-67318000D01*
X82043000Y-67318000D01*
X82040000Y-67319000D01*
X82038000Y-67319000D01*
X82035000Y-67320000D01*
X82033000Y-67320000D01*
X82030000Y-67320000D01*
X81390000Y-67320000D01*
X81387000Y-67320000D01*
X81385000Y-67320000D01*
X81382000Y-67319000D01*
X81380000Y-67319000D01*
X81377000Y-67318000D01*
X81375000Y-67318000D01*
X81372000Y-67317000D01*
X81370000Y-67316000D01*
X81367000Y-67315000D01*
X81365000Y-67313000D01*
X81363000Y-67312000D01*
X81361000Y-67310000D01*
X81359000Y-67309000D01*
X81357000Y-67307000D01*
X81355000Y-67305000D01*
X81353000Y-67303000D01*
X81351000Y-67301000D01*
X81350000Y-67299000D01*
X81348000Y-67297000D01*
X81347000Y-67295000D01*
X81345000Y-67293000D01*
X81344000Y-67290000D01*
X81343000Y-67288000D01*
X81342000Y-67285000D01*
X81342000Y-67283000D01*
X81341000Y-67280000D01*
X81341000Y-67278000D01*
X81340000Y-67275000D01*
X81340000Y-67273000D01*
X81340000Y-67270000D01*
X81340000Y-66980000D01*
X81340000Y-66977000D01*
X81340000Y-66975000D01*
X81341000Y-66972000D01*
X81341000Y-66970000D01*
X81342000Y-66967000D01*
X81342000Y-66965000D01*
X81343000Y-66962000D01*
X81344000Y-66960000D01*
X81345000Y-66957000D01*
X81347000Y-66955000D01*
X81348000Y-66953000D01*
X81350000Y-66951000D01*
X81351000Y-66949000D01*
X81353000Y-66947000D01*
X81355000Y-66945000D01*
X81357000Y-66943000D01*
X81359000Y-66941000D01*
X81361000Y-66940000D01*
X81363000Y-66938000D01*
X81365000Y-66937000D01*
X81367000Y-66935000D01*
X81370000Y-66934000D01*
X81372000Y-66933000D01*
X81375000Y-66932000D01*
X81377000Y-66932000D01*
X81380000Y-66931000D01*
X81382000Y-66931000D01*
X81385000Y-66930000D01*
X81387000Y-66930000D01*
X81390000Y-66930000D01*
X82030000Y-66930000D01*
X82033000Y-66930000D01*
X82035000Y-66930000D01*
X82038000Y-66931000D01*
G37*
X82513000Y-62606000D02*
X82515000Y-62606000D01*
X82518000Y-62607000D01*
X82520000Y-62607000D01*
X82523000Y-62608000D01*
X82525000Y-62609000D01*
X82528000Y-62610000D01*
X82530000Y-62612000D01*
X82532000Y-62613000D01*
X82534000Y-62615000D01*
X82536000Y-62616000D01*
X82538000Y-62618000D01*
X82540000Y-62620000D01*
X82542000Y-62622000D01*
X82544000Y-62624000D01*
X82545000Y-62626000D01*
X82547000Y-62628000D01*
X82548000Y-62630000D01*
X82550000Y-62632000D01*
X82551000Y-62635000D01*
X82552000Y-62637000D01*
X82553000Y-62640000D01*
X82553000Y-62642000D01*
X82554000Y-62645000D01*
X82554000Y-62647000D01*
X82555000Y-62650000D01*
X82555000Y-62652000D01*
X82555000Y-62655000D01*
X82555000Y-63295000D01*
X82555000Y-63298000D01*
X82555000Y-63300000D01*
X82554000Y-63303000D01*
X82554000Y-63305000D01*
X82553000Y-63308000D01*
X82553000Y-63310000D01*
X82552000Y-63313000D01*
X82551000Y-63315000D01*
X82550000Y-63318000D01*
X82548000Y-63320000D01*
X82547000Y-63322000D01*
X82545000Y-63324000D01*
X82544000Y-63326000D01*
X82542000Y-63328000D01*
X82540000Y-63330000D01*
X82538000Y-63332000D01*
X82536000Y-63334000D01*
X82534000Y-63335000D01*
X82532000Y-63337000D01*
X82530000Y-63338000D01*
X82528000Y-63340000D01*
X82525000Y-63341000D01*
X82523000Y-63342000D01*
X82520000Y-63343000D01*
X82518000Y-63343000D01*
X82515000Y-63344000D01*
X82513000Y-63344000D01*
X82510000Y-63345000D01*
X82508000Y-63345000D01*
X82505000Y-63345000D01*
X82215000Y-63345000D01*
X82212000Y-63345000D01*
X82210000Y-63345000D01*
X82207000Y-63344000D01*
X82205000Y-63344000D01*
X82202000Y-63343000D01*
X82200000Y-63343000D01*
X82197000Y-63342000D01*
X82195000Y-63341000D01*
X82192000Y-63340000D01*
X82190000Y-63338000D01*
X82188000Y-63337000D01*
X82186000Y-63335000D01*
X82184000Y-63334000D01*
X82182000Y-63332000D01*
X82180000Y-63330000D01*
X82178000Y-63328000D01*
X82176000Y-63326000D01*
X82175000Y-63324000D01*
X82173000Y-63322000D01*
X82172000Y-63320000D01*
X82170000Y-63318000D01*
X82169000Y-63315000D01*
X82168000Y-63313000D01*
X82167000Y-63310000D01*
X82167000Y-63308000D01*
X82166000Y-63305000D01*
X82166000Y-63303000D01*
X82165000Y-63300000D01*
X82165000Y-63298000D01*
X82165000Y-63295000D01*
X82165000Y-62655000D01*
X82165000Y-62652000D01*
X82165000Y-62650000D01*
X82166000Y-62647000D01*
X82166000Y-62645000D01*
X82167000Y-62642000D01*
X82167000Y-62640000D01*
X82168000Y-62637000D01*
X82169000Y-62635000D01*
X82170000Y-62632000D01*
X82172000Y-62630000D01*
X82173000Y-62628000D01*
X82175000Y-62626000D01*
X82176000Y-62624000D01*
X82178000Y-62622000D01*
X82180000Y-62620000D01*
X82182000Y-62618000D01*
X82184000Y-62616000D01*
X82186000Y-62615000D01*
X82188000Y-62613000D01*
X82190000Y-62612000D01*
X82192000Y-62610000D01*
X82195000Y-62609000D01*
X82197000Y-62608000D01*
X82200000Y-62607000D01*
X82202000Y-62607000D01*
X82205000Y-62606000D01*
X82207000Y-62606000D01*
X82210000Y-62605000D01*
X82212000Y-62605000D01*
X82215000Y-62605000D01*
X82505000Y-62605000D01*
X82508000Y-62605000D01*
X82510000Y-62605000D01*
X82513000Y-62606000D01*
G36*
X82513000Y-62606000D02*
G01*
X82515000Y-62606000D01*
X82518000Y-62607000D01*
X82520000Y-62607000D01*
X82523000Y-62608000D01*
X82525000Y-62609000D01*
X82528000Y-62610000D01*
X82530000Y-62612000D01*
X82532000Y-62613000D01*
X82534000Y-62615000D01*
X82536000Y-62616000D01*
X82538000Y-62618000D01*
X82540000Y-62620000D01*
X82542000Y-62622000D01*
X82544000Y-62624000D01*
X82545000Y-62626000D01*
X82547000Y-62628000D01*
X82548000Y-62630000D01*
X82550000Y-62632000D01*
X82551000Y-62635000D01*
X82552000Y-62637000D01*
X82553000Y-62640000D01*
X82553000Y-62642000D01*
X82554000Y-62645000D01*
X82554000Y-62647000D01*
X82555000Y-62650000D01*
X82555000Y-62652000D01*
X82555000Y-62655000D01*
X82555000Y-63295000D01*
X82555000Y-63298000D01*
X82555000Y-63300000D01*
X82554000Y-63303000D01*
X82554000Y-63305000D01*
X82553000Y-63308000D01*
X82553000Y-63310000D01*
X82552000Y-63313000D01*
X82551000Y-63315000D01*
X82550000Y-63318000D01*
X82548000Y-63320000D01*
X82547000Y-63322000D01*
X82545000Y-63324000D01*
X82544000Y-63326000D01*
X82542000Y-63328000D01*
X82540000Y-63330000D01*
X82538000Y-63332000D01*
X82536000Y-63334000D01*
X82534000Y-63335000D01*
X82532000Y-63337000D01*
X82530000Y-63338000D01*
X82528000Y-63340000D01*
X82525000Y-63341000D01*
X82523000Y-63342000D01*
X82520000Y-63343000D01*
X82518000Y-63343000D01*
X82515000Y-63344000D01*
X82513000Y-63344000D01*
X82510000Y-63345000D01*
X82508000Y-63345000D01*
X82505000Y-63345000D01*
X82215000Y-63345000D01*
X82212000Y-63345000D01*
X82210000Y-63345000D01*
X82207000Y-63344000D01*
X82205000Y-63344000D01*
X82202000Y-63343000D01*
X82200000Y-63343000D01*
X82197000Y-63342000D01*
X82195000Y-63341000D01*
X82192000Y-63340000D01*
X82190000Y-63338000D01*
X82188000Y-63337000D01*
X82186000Y-63335000D01*
X82184000Y-63334000D01*
X82182000Y-63332000D01*
X82180000Y-63330000D01*
X82178000Y-63328000D01*
X82176000Y-63326000D01*
X82175000Y-63324000D01*
X82173000Y-63322000D01*
X82172000Y-63320000D01*
X82170000Y-63318000D01*
X82169000Y-63315000D01*
X82168000Y-63313000D01*
X82167000Y-63310000D01*
X82167000Y-63308000D01*
X82166000Y-63305000D01*
X82166000Y-63303000D01*
X82165000Y-63300000D01*
X82165000Y-63298000D01*
X82165000Y-63295000D01*
X82165000Y-62655000D01*
X82165000Y-62652000D01*
X82165000Y-62650000D01*
X82166000Y-62647000D01*
X82166000Y-62645000D01*
X82167000Y-62642000D01*
X82167000Y-62640000D01*
X82168000Y-62637000D01*
X82169000Y-62635000D01*
X82170000Y-62632000D01*
X82172000Y-62630000D01*
X82173000Y-62628000D01*
X82175000Y-62626000D01*
X82176000Y-62624000D01*
X82178000Y-62622000D01*
X82180000Y-62620000D01*
X82182000Y-62618000D01*
X82184000Y-62616000D01*
X82186000Y-62615000D01*
X82188000Y-62613000D01*
X82190000Y-62612000D01*
X82192000Y-62610000D01*
X82195000Y-62609000D01*
X82197000Y-62608000D01*
X82200000Y-62607000D01*
X82202000Y-62607000D01*
X82205000Y-62606000D01*
X82207000Y-62606000D01*
X82210000Y-62605000D01*
X82212000Y-62605000D01*
X82215000Y-62605000D01*
X82505000Y-62605000D01*
X82508000Y-62605000D01*
X82510000Y-62605000D01*
X82513000Y-62606000D01*
G37*
X82513000Y-67406000D02*
X82515000Y-67406000D01*
X82518000Y-67407000D01*
X82520000Y-67407000D01*
X82523000Y-67408000D01*
X82525000Y-67409000D01*
X82528000Y-67410000D01*
X82530000Y-67412000D01*
X82532000Y-67413000D01*
X82534000Y-67415000D01*
X82536000Y-67416000D01*
X82538000Y-67418000D01*
X82540000Y-67420000D01*
X82542000Y-67422000D01*
X82544000Y-67424000D01*
X82545000Y-67426000D01*
X82547000Y-67428000D01*
X82548000Y-67430000D01*
X82550000Y-67432000D01*
X82551000Y-67435000D01*
X82552000Y-67437000D01*
X82553000Y-67440000D01*
X82553000Y-67442000D01*
X82554000Y-67445000D01*
X82554000Y-67447000D01*
X82555000Y-67450000D01*
X82555000Y-67452000D01*
X82555000Y-67455000D01*
X82555000Y-68095000D01*
X82555000Y-68098000D01*
X82555000Y-68100000D01*
X82554000Y-68103000D01*
X82554000Y-68105000D01*
X82553000Y-68108000D01*
X82553000Y-68110000D01*
X82552000Y-68113000D01*
X82551000Y-68115000D01*
X82550000Y-68118000D01*
X82548000Y-68120000D01*
X82547000Y-68122000D01*
X82545000Y-68124000D01*
X82544000Y-68126000D01*
X82542000Y-68128000D01*
X82540000Y-68130000D01*
X82538000Y-68132000D01*
X82536000Y-68134000D01*
X82534000Y-68135000D01*
X82532000Y-68137000D01*
X82530000Y-68138000D01*
X82528000Y-68140000D01*
X82525000Y-68141000D01*
X82523000Y-68142000D01*
X82520000Y-68143000D01*
X82518000Y-68143000D01*
X82515000Y-68144000D01*
X82513000Y-68144000D01*
X82510000Y-68145000D01*
X82508000Y-68145000D01*
X82505000Y-68145000D01*
X82215000Y-68145000D01*
X82212000Y-68145000D01*
X82210000Y-68145000D01*
X82207000Y-68144000D01*
X82205000Y-68144000D01*
X82202000Y-68143000D01*
X82200000Y-68143000D01*
X82197000Y-68142000D01*
X82195000Y-68141000D01*
X82192000Y-68140000D01*
X82190000Y-68138000D01*
X82188000Y-68137000D01*
X82186000Y-68135000D01*
X82184000Y-68134000D01*
X82182000Y-68132000D01*
X82180000Y-68130000D01*
X82178000Y-68128000D01*
X82176000Y-68126000D01*
X82175000Y-68124000D01*
X82173000Y-68122000D01*
X82172000Y-68120000D01*
X82170000Y-68118000D01*
X82169000Y-68115000D01*
X82168000Y-68113000D01*
X82167000Y-68110000D01*
X82167000Y-68108000D01*
X82166000Y-68105000D01*
X82166000Y-68103000D01*
X82165000Y-68100000D01*
X82165000Y-68098000D01*
X82165000Y-68095000D01*
X82165000Y-67455000D01*
X82165000Y-67452000D01*
X82165000Y-67450000D01*
X82166000Y-67447000D01*
X82166000Y-67445000D01*
X82167000Y-67442000D01*
X82167000Y-67440000D01*
X82168000Y-67437000D01*
X82169000Y-67435000D01*
X82170000Y-67432000D01*
X82172000Y-67430000D01*
X82173000Y-67428000D01*
X82175000Y-67426000D01*
X82176000Y-67424000D01*
X82178000Y-67422000D01*
X82180000Y-67420000D01*
X82182000Y-67418000D01*
X82184000Y-67416000D01*
X82186000Y-67415000D01*
X82188000Y-67413000D01*
X82190000Y-67412000D01*
X82192000Y-67410000D01*
X82195000Y-67409000D01*
X82197000Y-67408000D01*
X82200000Y-67407000D01*
X82202000Y-67407000D01*
X82205000Y-67406000D01*
X82207000Y-67406000D01*
X82210000Y-67405000D01*
X82212000Y-67405000D01*
X82215000Y-67405000D01*
X82505000Y-67405000D01*
X82508000Y-67405000D01*
X82510000Y-67405000D01*
X82513000Y-67406000D01*
G36*
X82513000Y-67406000D02*
G01*
X82515000Y-67406000D01*
X82518000Y-67407000D01*
X82520000Y-67407000D01*
X82523000Y-67408000D01*
X82525000Y-67409000D01*
X82528000Y-67410000D01*
X82530000Y-67412000D01*
X82532000Y-67413000D01*
X82534000Y-67415000D01*
X82536000Y-67416000D01*
X82538000Y-67418000D01*
X82540000Y-67420000D01*
X82542000Y-67422000D01*
X82544000Y-67424000D01*
X82545000Y-67426000D01*
X82547000Y-67428000D01*
X82548000Y-67430000D01*
X82550000Y-67432000D01*
X82551000Y-67435000D01*
X82552000Y-67437000D01*
X82553000Y-67440000D01*
X82553000Y-67442000D01*
X82554000Y-67445000D01*
X82554000Y-67447000D01*
X82555000Y-67450000D01*
X82555000Y-67452000D01*
X82555000Y-67455000D01*
X82555000Y-68095000D01*
X82555000Y-68098000D01*
X82555000Y-68100000D01*
X82554000Y-68103000D01*
X82554000Y-68105000D01*
X82553000Y-68108000D01*
X82553000Y-68110000D01*
X82552000Y-68113000D01*
X82551000Y-68115000D01*
X82550000Y-68118000D01*
X82548000Y-68120000D01*
X82547000Y-68122000D01*
X82545000Y-68124000D01*
X82544000Y-68126000D01*
X82542000Y-68128000D01*
X82540000Y-68130000D01*
X82538000Y-68132000D01*
X82536000Y-68134000D01*
X82534000Y-68135000D01*
X82532000Y-68137000D01*
X82530000Y-68138000D01*
X82528000Y-68140000D01*
X82525000Y-68141000D01*
X82523000Y-68142000D01*
X82520000Y-68143000D01*
X82518000Y-68143000D01*
X82515000Y-68144000D01*
X82513000Y-68144000D01*
X82510000Y-68145000D01*
X82508000Y-68145000D01*
X82505000Y-68145000D01*
X82215000Y-68145000D01*
X82212000Y-68145000D01*
X82210000Y-68145000D01*
X82207000Y-68144000D01*
X82205000Y-68144000D01*
X82202000Y-68143000D01*
X82200000Y-68143000D01*
X82197000Y-68142000D01*
X82195000Y-68141000D01*
X82192000Y-68140000D01*
X82190000Y-68138000D01*
X82188000Y-68137000D01*
X82186000Y-68135000D01*
X82184000Y-68134000D01*
X82182000Y-68132000D01*
X82180000Y-68130000D01*
X82178000Y-68128000D01*
X82176000Y-68126000D01*
X82175000Y-68124000D01*
X82173000Y-68122000D01*
X82172000Y-68120000D01*
X82170000Y-68118000D01*
X82169000Y-68115000D01*
X82168000Y-68113000D01*
X82167000Y-68110000D01*
X82167000Y-68108000D01*
X82166000Y-68105000D01*
X82166000Y-68103000D01*
X82165000Y-68100000D01*
X82165000Y-68098000D01*
X82165000Y-68095000D01*
X82165000Y-67455000D01*
X82165000Y-67452000D01*
X82165000Y-67450000D01*
X82166000Y-67447000D01*
X82166000Y-67445000D01*
X82167000Y-67442000D01*
X82167000Y-67440000D01*
X82168000Y-67437000D01*
X82169000Y-67435000D01*
X82170000Y-67432000D01*
X82172000Y-67430000D01*
X82173000Y-67428000D01*
X82175000Y-67426000D01*
X82176000Y-67424000D01*
X82178000Y-67422000D01*
X82180000Y-67420000D01*
X82182000Y-67418000D01*
X82184000Y-67416000D01*
X82186000Y-67415000D01*
X82188000Y-67413000D01*
X82190000Y-67412000D01*
X82192000Y-67410000D01*
X82195000Y-67409000D01*
X82197000Y-67408000D01*
X82200000Y-67407000D01*
X82202000Y-67407000D01*
X82205000Y-67406000D01*
X82207000Y-67406000D01*
X82210000Y-67405000D01*
X82212000Y-67405000D01*
X82215000Y-67405000D01*
X82505000Y-67405000D01*
X82508000Y-67405000D01*
X82510000Y-67405000D01*
X82513000Y-67406000D01*
G37*
X83013000Y-62606000D02*
X83015000Y-62606000D01*
X83018000Y-62607000D01*
X83020000Y-62607000D01*
X83023000Y-62608000D01*
X83025000Y-62609000D01*
X83028000Y-62610000D01*
X83030000Y-62612000D01*
X83032000Y-62613000D01*
X83034000Y-62615000D01*
X83036000Y-62616000D01*
X83038000Y-62618000D01*
X83040000Y-62620000D01*
X83042000Y-62622000D01*
X83044000Y-62624000D01*
X83045000Y-62626000D01*
X83047000Y-62628000D01*
X83048000Y-62630000D01*
X83050000Y-62632000D01*
X83051000Y-62635000D01*
X83052000Y-62637000D01*
X83053000Y-62640000D01*
X83053000Y-62642000D01*
X83054000Y-62645000D01*
X83054000Y-62647000D01*
X83055000Y-62650000D01*
X83055000Y-62652000D01*
X83055000Y-62655000D01*
X83055000Y-63295000D01*
X83055000Y-63298000D01*
X83055000Y-63300000D01*
X83054000Y-63303000D01*
X83054000Y-63305000D01*
X83053000Y-63308000D01*
X83053000Y-63310000D01*
X83052000Y-63313000D01*
X83051000Y-63315000D01*
X83050000Y-63318000D01*
X83048000Y-63320000D01*
X83047000Y-63322000D01*
X83045000Y-63324000D01*
X83044000Y-63326000D01*
X83042000Y-63328000D01*
X83040000Y-63330000D01*
X83038000Y-63332000D01*
X83036000Y-63334000D01*
X83034000Y-63335000D01*
X83032000Y-63337000D01*
X83030000Y-63338000D01*
X83028000Y-63340000D01*
X83025000Y-63341000D01*
X83023000Y-63342000D01*
X83020000Y-63343000D01*
X83018000Y-63343000D01*
X83015000Y-63344000D01*
X83013000Y-63344000D01*
X83010000Y-63345000D01*
X83008000Y-63345000D01*
X83005000Y-63345000D01*
X82715000Y-63345000D01*
X82712000Y-63345000D01*
X82710000Y-63345000D01*
X82707000Y-63344000D01*
X82705000Y-63344000D01*
X82702000Y-63343000D01*
X82700000Y-63343000D01*
X82697000Y-63342000D01*
X82695000Y-63341000D01*
X82692000Y-63340000D01*
X82690000Y-63338000D01*
X82688000Y-63337000D01*
X82686000Y-63335000D01*
X82684000Y-63334000D01*
X82682000Y-63332000D01*
X82680000Y-63330000D01*
X82678000Y-63328000D01*
X82676000Y-63326000D01*
X82675000Y-63324000D01*
X82673000Y-63322000D01*
X82672000Y-63320000D01*
X82670000Y-63318000D01*
X82669000Y-63315000D01*
X82668000Y-63313000D01*
X82667000Y-63310000D01*
X82667000Y-63308000D01*
X82666000Y-63305000D01*
X82666000Y-63303000D01*
X82665000Y-63300000D01*
X82665000Y-63298000D01*
X82665000Y-63295000D01*
X82665000Y-62655000D01*
X82665000Y-62652000D01*
X82665000Y-62650000D01*
X82666000Y-62647000D01*
X82666000Y-62645000D01*
X82667000Y-62642000D01*
X82667000Y-62640000D01*
X82668000Y-62637000D01*
X82669000Y-62635000D01*
X82670000Y-62632000D01*
X82672000Y-62630000D01*
X82673000Y-62628000D01*
X82675000Y-62626000D01*
X82676000Y-62624000D01*
X82678000Y-62622000D01*
X82680000Y-62620000D01*
X82682000Y-62618000D01*
X82684000Y-62616000D01*
X82686000Y-62615000D01*
X82688000Y-62613000D01*
X82690000Y-62612000D01*
X82692000Y-62610000D01*
X82695000Y-62609000D01*
X82697000Y-62608000D01*
X82700000Y-62607000D01*
X82702000Y-62607000D01*
X82705000Y-62606000D01*
X82707000Y-62606000D01*
X82710000Y-62605000D01*
X82712000Y-62605000D01*
X82715000Y-62605000D01*
X83005000Y-62605000D01*
X83008000Y-62605000D01*
X83010000Y-62605000D01*
X83013000Y-62606000D01*
G36*
X83013000Y-62606000D02*
G01*
X83015000Y-62606000D01*
X83018000Y-62607000D01*
X83020000Y-62607000D01*
X83023000Y-62608000D01*
X83025000Y-62609000D01*
X83028000Y-62610000D01*
X83030000Y-62612000D01*
X83032000Y-62613000D01*
X83034000Y-62615000D01*
X83036000Y-62616000D01*
X83038000Y-62618000D01*
X83040000Y-62620000D01*
X83042000Y-62622000D01*
X83044000Y-62624000D01*
X83045000Y-62626000D01*
X83047000Y-62628000D01*
X83048000Y-62630000D01*
X83050000Y-62632000D01*
X83051000Y-62635000D01*
X83052000Y-62637000D01*
X83053000Y-62640000D01*
X83053000Y-62642000D01*
X83054000Y-62645000D01*
X83054000Y-62647000D01*
X83055000Y-62650000D01*
X83055000Y-62652000D01*
X83055000Y-62655000D01*
X83055000Y-63295000D01*
X83055000Y-63298000D01*
X83055000Y-63300000D01*
X83054000Y-63303000D01*
X83054000Y-63305000D01*
X83053000Y-63308000D01*
X83053000Y-63310000D01*
X83052000Y-63313000D01*
X83051000Y-63315000D01*
X83050000Y-63318000D01*
X83048000Y-63320000D01*
X83047000Y-63322000D01*
X83045000Y-63324000D01*
X83044000Y-63326000D01*
X83042000Y-63328000D01*
X83040000Y-63330000D01*
X83038000Y-63332000D01*
X83036000Y-63334000D01*
X83034000Y-63335000D01*
X83032000Y-63337000D01*
X83030000Y-63338000D01*
X83028000Y-63340000D01*
X83025000Y-63341000D01*
X83023000Y-63342000D01*
X83020000Y-63343000D01*
X83018000Y-63343000D01*
X83015000Y-63344000D01*
X83013000Y-63344000D01*
X83010000Y-63345000D01*
X83008000Y-63345000D01*
X83005000Y-63345000D01*
X82715000Y-63345000D01*
X82712000Y-63345000D01*
X82710000Y-63345000D01*
X82707000Y-63344000D01*
X82705000Y-63344000D01*
X82702000Y-63343000D01*
X82700000Y-63343000D01*
X82697000Y-63342000D01*
X82695000Y-63341000D01*
X82692000Y-63340000D01*
X82690000Y-63338000D01*
X82688000Y-63337000D01*
X82686000Y-63335000D01*
X82684000Y-63334000D01*
X82682000Y-63332000D01*
X82680000Y-63330000D01*
X82678000Y-63328000D01*
X82676000Y-63326000D01*
X82675000Y-63324000D01*
X82673000Y-63322000D01*
X82672000Y-63320000D01*
X82670000Y-63318000D01*
X82669000Y-63315000D01*
X82668000Y-63313000D01*
X82667000Y-63310000D01*
X82667000Y-63308000D01*
X82666000Y-63305000D01*
X82666000Y-63303000D01*
X82665000Y-63300000D01*
X82665000Y-63298000D01*
X82665000Y-63295000D01*
X82665000Y-62655000D01*
X82665000Y-62652000D01*
X82665000Y-62650000D01*
X82666000Y-62647000D01*
X82666000Y-62645000D01*
X82667000Y-62642000D01*
X82667000Y-62640000D01*
X82668000Y-62637000D01*
X82669000Y-62635000D01*
X82670000Y-62632000D01*
X82672000Y-62630000D01*
X82673000Y-62628000D01*
X82675000Y-62626000D01*
X82676000Y-62624000D01*
X82678000Y-62622000D01*
X82680000Y-62620000D01*
X82682000Y-62618000D01*
X82684000Y-62616000D01*
X82686000Y-62615000D01*
X82688000Y-62613000D01*
X82690000Y-62612000D01*
X82692000Y-62610000D01*
X82695000Y-62609000D01*
X82697000Y-62608000D01*
X82700000Y-62607000D01*
X82702000Y-62607000D01*
X82705000Y-62606000D01*
X82707000Y-62606000D01*
X82710000Y-62605000D01*
X82712000Y-62605000D01*
X82715000Y-62605000D01*
X83005000Y-62605000D01*
X83008000Y-62605000D01*
X83010000Y-62605000D01*
X83013000Y-62606000D01*
G37*
X83013000Y-67406000D02*
X83015000Y-67406000D01*
X83018000Y-67407000D01*
X83020000Y-67407000D01*
X83023000Y-67408000D01*
X83025000Y-67409000D01*
X83028000Y-67410000D01*
X83030000Y-67412000D01*
X83032000Y-67413000D01*
X83034000Y-67415000D01*
X83036000Y-67416000D01*
X83038000Y-67418000D01*
X83040000Y-67420000D01*
X83042000Y-67422000D01*
X83044000Y-67424000D01*
X83045000Y-67426000D01*
X83047000Y-67428000D01*
X83048000Y-67430000D01*
X83050000Y-67432000D01*
X83051000Y-67435000D01*
X83052000Y-67437000D01*
X83053000Y-67440000D01*
X83053000Y-67442000D01*
X83054000Y-67445000D01*
X83054000Y-67447000D01*
X83055000Y-67450000D01*
X83055000Y-67452000D01*
X83055000Y-67455000D01*
X83055000Y-68095000D01*
X83055000Y-68098000D01*
X83055000Y-68100000D01*
X83054000Y-68103000D01*
X83054000Y-68105000D01*
X83053000Y-68108000D01*
X83053000Y-68110000D01*
X83052000Y-68113000D01*
X83051000Y-68115000D01*
X83050000Y-68118000D01*
X83048000Y-68120000D01*
X83047000Y-68122000D01*
X83045000Y-68124000D01*
X83044000Y-68126000D01*
X83042000Y-68128000D01*
X83040000Y-68130000D01*
X83038000Y-68132000D01*
X83036000Y-68134000D01*
X83034000Y-68135000D01*
X83032000Y-68137000D01*
X83030000Y-68138000D01*
X83028000Y-68140000D01*
X83025000Y-68141000D01*
X83023000Y-68142000D01*
X83020000Y-68143000D01*
X83018000Y-68143000D01*
X83015000Y-68144000D01*
X83013000Y-68144000D01*
X83010000Y-68145000D01*
X83008000Y-68145000D01*
X83005000Y-68145000D01*
X82715000Y-68145000D01*
X82712000Y-68145000D01*
X82710000Y-68145000D01*
X82707000Y-68144000D01*
X82705000Y-68144000D01*
X82702000Y-68143000D01*
X82700000Y-68143000D01*
X82697000Y-68142000D01*
X82695000Y-68141000D01*
X82692000Y-68140000D01*
X82690000Y-68138000D01*
X82688000Y-68137000D01*
X82686000Y-68135000D01*
X82684000Y-68134000D01*
X82682000Y-68132000D01*
X82680000Y-68130000D01*
X82678000Y-68128000D01*
X82676000Y-68126000D01*
X82675000Y-68124000D01*
X82673000Y-68122000D01*
X82672000Y-68120000D01*
X82670000Y-68118000D01*
X82669000Y-68115000D01*
X82668000Y-68113000D01*
X82667000Y-68110000D01*
X82667000Y-68108000D01*
X82666000Y-68105000D01*
X82666000Y-68103000D01*
X82665000Y-68100000D01*
X82665000Y-68098000D01*
X82665000Y-68095000D01*
X82665000Y-67455000D01*
X82665000Y-67452000D01*
X82665000Y-67450000D01*
X82666000Y-67447000D01*
X82666000Y-67445000D01*
X82667000Y-67442000D01*
X82667000Y-67440000D01*
X82668000Y-67437000D01*
X82669000Y-67435000D01*
X82670000Y-67432000D01*
X82672000Y-67430000D01*
X82673000Y-67428000D01*
X82675000Y-67426000D01*
X82676000Y-67424000D01*
X82678000Y-67422000D01*
X82680000Y-67420000D01*
X82682000Y-67418000D01*
X82684000Y-67416000D01*
X82686000Y-67415000D01*
X82688000Y-67413000D01*
X82690000Y-67412000D01*
X82692000Y-67410000D01*
X82695000Y-67409000D01*
X82697000Y-67408000D01*
X82700000Y-67407000D01*
X82702000Y-67407000D01*
X82705000Y-67406000D01*
X82707000Y-67406000D01*
X82710000Y-67405000D01*
X82712000Y-67405000D01*
X82715000Y-67405000D01*
X83005000Y-67405000D01*
X83008000Y-67405000D01*
X83010000Y-67405000D01*
X83013000Y-67406000D01*
G36*
X83013000Y-67406000D02*
G01*
X83015000Y-67406000D01*
X83018000Y-67407000D01*
X83020000Y-67407000D01*
X83023000Y-67408000D01*
X83025000Y-67409000D01*
X83028000Y-67410000D01*
X83030000Y-67412000D01*
X83032000Y-67413000D01*
X83034000Y-67415000D01*
X83036000Y-67416000D01*
X83038000Y-67418000D01*
X83040000Y-67420000D01*
X83042000Y-67422000D01*
X83044000Y-67424000D01*
X83045000Y-67426000D01*
X83047000Y-67428000D01*
X83048000Y-67430000D01*
X83050000Y-67432000D01*
X83051000Y-67435000D01*
X83052000Y-67437000D01*
X83053000Y-67440000D01*
X83053000Y-67442000D01*
X83054000Y-67445000D01*
X83054000Y-67447000D01*
X83055000Y-67450000D01*
X83055000Y-67452000D01*
X83055000Y-67455000D01*
X83055000Y-68095000D01*
X83055000Y-68098000D01*
X83055000Y-68100000D01*
X83054000Y-68103000D01*
X83054000Y-68105000D01*
X83053000Y-68108000D01*
X83053000Y-68110000D01*
X83052000Y-68113000D01*
X83051000Y-68115000D01*
X83050000Y-68118000D01*
X83048000Y-68120000D01*
X83047000Y-68122000D01*
X83045000Y-68124000D01*
X83044000Y-68126000D01*
X83042000Y-68128000D01*
X83040000Y-68130000D01*
X83038000Y-68132000D01*
X83036000Y-68134000D01*
X83034000Y-68135000D01*
X83032000Y-68137000D01*
X83030000Y-68138000D01*
X83028000Y-68140000D01*
X83025000Y-68141000D01*
X83023000Y-68142000D01*
X83020000Y-68143000D01*
X83018000Y-68143000D01*
X83015000Y-68144000D01*
X83013000Y-68144000D01*
X83010000Y-68145000D01*
X83008000Y-68145000D01*
X83005000Y-68145000D01*
X82715000Y-68145000D01*
X82712000Y-68145000D01*
X82710000Y-68145000D01*
X82707000Y-68144000D01*
X82705000Y-68144000D01*
X82702000Y-68143000D01*
X82700000Y-68143000D01*
X82697000Y-68142000D01*
X82695000Y-68141000D01*
X82692000Y-68140000D01*
X82690000Y-68138000D01*
X82688000Y-68137000D01*
X82686000Y-68135000D01*
X82684000Y-68134000D01*
X82682000Y-68132000D01*
X82680000Y-68130000D01*
X82678000Y-68128000D01*
X82676000Y-68126000D01*
X82675000Y-68124000D01*
X82673000Y-68122000D01*
X82672000Y-68120000D01*
X82670000Y-68118000D01*
X82669000Y-68115000D01*
X82668000Y-68113000D01*
X82667000Y-68110000D01*
X82667000Y-68108000D01*
X82666000Y-68105000D01*
X82666000Y-68103000D01*
X82665000Y-68100000D01*
X82665000Y-68098000D01*
X82665000Y-68095000D01*
X82665000Y-67455000D01*
X82665000Y-67452000D01*
X82665000Y-67450000D01*
X82666000Y-67447000D01*
X82666000Y-67445000D01*
X82667000Y-67442000D01*
X82667000Y-67440000D01*
X82668000Y-67437000D01*
X82669000Y-67435000D01*
X82670000Y-67432000D01*
X82672000Y-67430000D01*
X82673000Y-67428000D01*
X82675000Y-67426000D01*
X82676000Y-67424000D01*
X82678000Y-67422000D01*
X82680000Y-67420000D01*
X82682000Y-67418000D01*
X82684000Y-67416000D01*
X82686000Y-67415000D01*
X82688000Y-67413000D01*
X82690000Y-67412000D01*
X82692000Y-67410000D01*
X82695000Y-67409000D01*
X82697000Y-67408000D01*
X82700000Y-67407000D01*
X82702000Y-67407000D01*
X82705000Y-67406000D01*
X82707000Y-67406000D01*
X82710000Y-67405000D01*
X82712000Y-67405000D01*
X82715000Y-67405000D01*
X83005000Y-67405000D01*
X83008000Y-67405000D01*
X83010000Y-67405000D01*
X83013000Y-67406000D01*
G37*
X83513000Y-62606000D02*
X83515000Y-62606000D01*
X83518000Y-62607000D01*
X83520000Y-62607000D01*
X83523000Y-62608000D01*
X83525000Y-62609000D01*
X83528000Y-62610000D01*
X83530000Y-62612000D01*
X83532000Y-62613000D01*
X83534000Y-62615000D01*
X83536000Y-62616000D01*
X83538000Y-62618000D01*
X83540000Y-62620000D01*
X83542000Y-62622000D01*
X83544000Y-62624000D01*
X83545000Y-62626000D01*
X83547000Y-62628000D01*
X83548000Y-62630000D01*
X83550000Y-62632000D01*
X83551000Y-62635000D01*
X83552000Y-62637000D01*
X83553000Y-62640000D01*
X83553000Y-62642000D01*
X83554000Y-62645000D01*
X83554000Y-62647000D01*
X83555000Y-62650000D01*
X83555000Y-62652000D01*
X83555000Y-62655000D01*
X83555000Y-63295000D01*
X83555000Y-63298000D01*
X83555000Y-63300000D01*
X83554000Y-63303000D01*
X83554000Y-63305000D01*
X83553000Y-63308000D01*
X83553000Y-63310000D01*
X83552000Y-63313000D01*
X83551000Y-63315000D01*
X83550000Y-63318000D01*
X83548000Y-63320000D01*
X83547000Y-63322000D01*
X83545000Y-63324000D01*
X83544000Y-63326000D01*
X83542000Y-63328000D01*
X83540000Y-63330000D01*
X83538000Y-63332000D01*
X83536000Y-63334000D01*
X83534000Y-63335000D01*
X83532000Y-63337000D01*
X83530000Y-63338000D01*
X83528000Y-63340000D01*
X83525000Y-63341000D01*
X83523000Y-63342000D01*
X83520000Y-63343000D01*
X83518000Y-63343000D01*
X83515000Y-63344000D01*
X83513000Y-63344000D01*
X83510000Y-63345000D01*
X83508000Y-63345000D01*
X83505000Y-63345000D01*
X83215000Y-63345000D01*
X83212000Y-63345000D01*
X83210000Y-63345000D01*
X83207000Y-63344000D01*
X83205000Y-63344000D01*
X83202000Y-63343000D01*
X83200000Y-63343000D01*
X83197000Y-63342000D01*
X83195000Y-63341000D01*
X83192000Y-63340000D01*
X83190000Y-63338000D01*
X83188000Y-63337000D01*
X83186000Y-63335000D01*
X83184000Y-63334000D01*
X83182000Y-63332000D01*
X83180000Y-63330000D01*
X83178000Y-63328000D01*
X83176000Y-63326000D01*
X83175000Y-63324000D01*
X83173000Y-63322000D01*
X83172000Y-63320000D01*
X83170000Y-63318000D01*
X83169000Y-63315000D01*
X83168000Y-63313000D01*
X83167000Y-63310000D01*
X83167000Y-63308000D01*
X83166000Y-63305000D01*
X83166000Y-63303000D01*
X83165000Y-63300000D01*
X83165000Y-63298000D01*
X83165000Y-63295000D01*
X83165000Y-62655000D01*
X83165000Y-62652000D01*
X83165000Y-62650000D01*
X83166000Y-62647000D01*
X83166000Y-62645000D01*
X83167000Y-62642000D01*
X83167000Y-62640000D01*
X83168000Y-62637000D01*
X83169000Y-62635000D01*
X83170000Y-62632000D01*
X83172000Y-62630000D01*
X83173000Y-62628000D01*
X83175000Y-62626000D01*
X83176000Y-62624000D01*
X83178000Y-62622000D01*
X83180000Y-62620000D01*
X83182000Y-62618000D01*
X83184000Y-62616000D01*
X83186000Y-62615000D01*
X83188000Y-62613000D01*
X83190000Y-62612000D01*
X83192000Y-62610000D01*
X83195000Y-62609000D01*
X83197000Y-62608000D01*
X83200000Y-62607000D01*
X83202000Y-62607000D01*
X83205000Y-62606000D01*
X83207000Y-62606000D01*
X83210000Y-62605000D01*
X83212000Y-62605000D01*
X83215000Y-62605000D01*
X83505000Y-62605000D01*
X83508000Y-62605000D01*
X83510000Y-62605000D01*
X83513000Y-62606000D01*
G36*
X83513000Y-62606000D02*
G01*
X83515000Y-62606000D01*
X83518000Y-62607000D01*
X83520000Y-62607000D01*
X83523000Y-62608000D01*
X83525000Y-62609000D01*
X83528000Y-62610000D01*
X83530000Y-62612000D01*
X83532000Y-62613000D01*
X83534000Y-62615000D01*
X83536000Y-62616000D01*
X83538000Y-62618000D01*
X83540000Y-62620000D01*
X83542000Y-62622000D01*
X83544000Y-62624000D01*
X83545000Y-62626000D01*
X83547000Y-62628000D01*
X83548000Y-62630000D01*
X83550000Y-62632000D01*
X83551000Y-62635000D01*
X83552000Y-62637000D01*
X83553000Y-62640000D01*
X83553000Y-62642000D01*
X83554000Y-62645000D01*
X83554000Y-62647000D01*
X83555000Y-62650000D01*
X83555000Y-62652000D01*
X83555000Y-62655000D01*
X83555000Y-63295000D01*
X83555000Y-63298000D01*
X83555000Y-63300000D01*
X83554000Y-63303000D01*
X83554000Y-63305000D01*
X83553000Y-63308000D01*
X83553000Y-63310000D01*
X83552000Y-63313000D01*
X83551000Y-63315000D01*
X83550000Y-63318000D01*
X83548000Y-63320000D01*
X83547000Y-63322000D01*
X83545000Y-63324000D01*
X83544000Y-63326000D01*
X83542000Y-63328000D01*
X83540000Y-63330000D01*
X83538000Y-63332000D01*
X83536000Y-63334000D01*
X83534000Y-63335000D01*
X83532000Y-63337000D01*
X83530000Y-63338000D01*
X83528000Y-63340000D01*
X83525000Y-63341000D01*
X83523000Y-63342000D01*
X83520000Y-63343000D01*
X83518000Y-63343000D01*
X83515000Y-63344000D01*
X83513000Y-63344000D01*
X83510000Y-63345000D01*
X83508000Y-63345000D01*
X83505000Y-63345000D01*
X83215000Y-63345000D01*
X83212000Y-63345000D01*
X83210000Y-63345000D01*
X83207000Y-63344000D01*
X83205000Y-63344000D01*
X83202000Y-63343000D01*
X83200000Y-63343000D01*
X83197000Y-63342000D01*
X83195000Y-63341000D01*
X83192000Y-63340000D01*
X83190000Y-63338000D01*
X83188000Y-63337000D01*
X83186000Y-63335000D01*
X83184000Y-63334000D01*
X83182000Y-63332000D01*
X83180000Y-63330000D01*
X83178000Y-63328000D01*
X83176000Y-63326000D01*
X83175000Y-63324000D01*
X83173000Y-63322000D01*
X83172000Y-63320000D01*
X83170000Y-63318000D01*
X83169000Y-63315000D01*
X83168000Y-63313000D01*
X83167000Y-63310000D01*
X83167000Y-63308000D01*
X83166000Y-63305000D01*
X83166000Y-63303000D01*
X83165000Y-63300000D01*
X83165000Y-63298000D01*
X83165000Y-63295000D01*
X83165000Y-62655000D01*
X83165000Y-62652000D01*
X83165000Y-62650000D01*
X83166000Y-62647000D01*
X83166000Y-62645000D01*
X83167000Y-62642000D01*
X83167000Y-62640000D01*
X83168000Y-62637000D01*
X83169000Y-62635000D01*
X83170000Y-62632000D01*
X83172000Y-62630000D01*
X83173000Y-62628000D01*
X83175000Y-62626000D01*
X83176000Y-62624000D01*
X83178000Y-62622000D01*
X83180000Y-62620000D01*
X83182000Y-62618000D01*
X83184000Y-62616000D01*
X83186000Y-62615000D01*
X83188000Y-62613000D01*
X83190000Y-62612000D01*
X83192000Y-62610000D01*
X83195000Y-62609000D01*
X83197000Y-62608000D01*
X83200000Y-62607000D01*
X83202000Y-62607000D01*
X83205000Y-62606000D01*
X83207000Y-62606000D01*
X83210000Y-62605000D01*
X83212000Y-62605000D01*
X83215000Y-62605000D01*
X83505000Y-62605000D01*
X83508000Y-62605000D01*
X83510000Y-62605000D01*
X83513000Y-62606000D01*
G37*
X83513000Y-67406000D02*
X83515000Y-67406000D01*
X83518000Y-67407000D01*
X83520000Y-67407000D01*
X83523000Y-67408000D01*
X83525000Y-67409000D01*
X83528000Y-67410000D01*
X83530000Y-67412000D01*
X83532000Y-67413000D01*
X83534000Y-67415000D01*
X83536000Y-67416000D01*
X83538000Y-67418000D01*
X83540000Y-67420000D01*
X83542000Y-67422000D01*
X83544000Y-67424000D01*
X83545000Y-67426000D01*
X83547000Y-67428000D01*
X83548000Y-67430000D01*
X83550000Y-67432000D01*
X83551000Y-67435000D01*
X83552000Y-67437000D01*
X83553000Y-67440000D01*
X83553000Y-67442000D01*
X83554000Y-67445000D01*
X83554000Y-67447000D01*
X83555000Y-67450000D01*
X83555000Y-67452000D01*
X83555000Y-67455000D01*
X83555000Y-68095000D01*
X83555000Y-68098000D01*
X83555000Y-68100000D01*
X83554000Y-68103000D01*
X83554000Y-68105000D01*
X83553000Y-68108000D01*
X83553000Y-68110000D01*
X83552000Y-68113000D01*
X83551000Y-68115000D01*
X83550000Y-68118000D01*
X83548000Y-68120000D01*
X83547000Y-68122000D01*
X83545000Y-68124000D01*
X83544000Y-68126000D01*
X83542000Y-68128000D01*
X83540000Y-68130000D01*
X83538000Y-68132000D01*
X83536000Y-68134000D01*
X83534000Y-68135000D01*
X83532000Y-68137000D01*
X83530000Y-68138000D01*
X83528000Y-68140000D01*
X83525000Y-68141000D01*
X83523000Y-68142000D01*
X83520000Y-68143000D01*
X83518000Y-68143000D01*
X83515000Y-68144000D01*
X83513000Y-68144000D01*
X83510000Y-68145000D01*
X83508000Y-68145000D01*
X83505000Y-68145000D01*
X83215000Y-68145000D01*
X83212000Y-68145000D01*
X83210000Y-68145000D01*
X83207000Y-68144000D01*
X83205000Y-68144000D01*
X83202000Y-68143000D01*
X83200000Y-68143000D01*
X83197000Y-68142000D01*
X83195000Y-68141000D01*
X83192000Y-68140000D01*
X83190000Y-68138000D01*
X83188000Y-68137000D01*
X83186000Y-68135000D01*
X83184000Y-68134000D01*
X83182000Y-68132000D01*
X83180000Y-68130000D01*
X83178000Y-68128000D01*
X83176000Y-68126000D01*
X83175000Y-68124000D01*
X83173000Y-68122000D01*
X83172000Y-68120000D01*
X83170000Y-68118000D01*
X83169000Y-68115000D01*
X83168000Y-68113000D01*
X83167000Y-68110000D01*
X83167000Y-68108000D01*
X83166000Y-68105000D01*
X83166000Y-68103000D01*
X83165000Y-68100000D01*
X83165000Y-68098000D01*
X83165000Y-68095000D01*
X83165000Y-67455000D01*
X83165000Y-67452000D01*
X83165000Y-67450000D01*
X83166000Y-67447000D01*
X83166000Y-67445000D01*
X83167000Y-67442000D01*
X83167000Y-67440000D01*
X83168000Y-67437000D01*
X83169000Y-67435000D01*
X83170000Y-67432000D01*
X83172000Y-67430000D01*
X83173000Y-67428000D01*
X83175000Y-67426000D01*
X83176000Y-67424000D01*
X83178000Y-67422000D01*
X83180000Y-67420000D01*
X83182000Y-67418000D01*
X83184000Y-67416000D01*
X83186000Y-67415000D01*
X83188000Y-67413000D01*
X83190000Y-67412000D01*
X83192000Y-67410000D01*
X83195000Y-67409000D01*
X83197000Y-67408000D01*
X83200000Y-67407000D01*
X83202000Y-67407000D01*
X83205000Y-67406000D01*
X83207000Y-67406000D01*
X83210000Y-67405000D01*
X83212000Y-67405000D01*
X83215000Y-67405000D01*
X83505000Y-67405000D01*
X83508000Y-67405000D01*
X83510000Y-67405000D01*
X83513000Y-67406000D01*
G36*
X83513000Y-67406000D02*
G01*
X83515000Y-67406000D01*
X83518000Y-67407000D01*
X83520000Y-67407000D01*
X83523000Y-67408000D01*
X83525000Y-67409000D01*
X83528000Y-67410000D01*
X83530000Y-67412000D01*
X83532000Y-67413000D01*
X83534000Y-67415000D01*
X83536000Y-67416000D01*
X83538000Y-67418000D01*
X83540000Y-67420000D01*
X83542000Y-67422000D01*
X83544000Y-67424000D01*
X83545000Y-67426000D01*
X83547000Y-67428000D01*
X83548000Y-67430000D01*
X83550000Y-67432000D01*
X83551000Y-67435000D01*
X83552000Y-67437000D01*
X83553000Y-67440000D01*
X83553000Y-67442000D01*
X83554000Y-67445000D01*
X83554000Y-67447000D01*
X83555000Y-67450000D01*
X83555000Y-67452000D01*
X83555000Y-67455000D01*
X83555000Y-68095000D01*
X83555000Y-68098000D01*
X83555000Y-68100000D01*
X83554000Y-68103000D01*
X83554000Y-68105000D01*
X83553000Y-68108000D01*
X83553000Y-68110000D01*
X83552000Y-68113000D01*
X83551000Y-68115000D01*
X83550000Y-68118000D01*
X83548000Y-68120000D01*
X83547000Y-68122000D01*
X83545000Y-68124000D01*
X83544000Y-68126000D01*
X83542000Y-68128000D01*
X83540000Y-68130000D01*
X83538000Y-68132000D01*
X83536000Y-68134000D01*
X83534000Y-68135000D01*
X83532000Y-68137000D01*
X83530000Y-68138000D01*
X83528000Y-68140000D01*
X83525000Y-68141000D01*
X83523000Y-68142000D01*
X83520000Y-68143000D01*
X83518000Y-68143000D01*
X83515000Y-68144000D01*
X83513000Y-68144000D01*
X83510000Y-68145000D01*
X83508000Y-68145000D01*
X83505000Y-68145000D01*
X83215000Y-68145000D01*
X83212000Y-68145000D01*
X83210000Y-68145000D01*
X83207000Y-68144000D01*
X83205000Y-68144000D01*
X83202000Y-68143000D01*
X83200000Y-68143000D01*
X83197000Y-68142000D01*
X83195000Y-68141000D01*
X83192000Y-68140000D01*
X83190000Y-68138000D01*
X83188000Y-68137000D01*
X83186000Y-68135000D01*
X83184000Y-68134000D01*
X83182000Y-68132000D01*
X83180000Y-68130000D01*
X83178000Y-68128000D01*
X83176000Y-68126000D01*
X83175000Y-68124000D01*
X83173000Y-68122000D01*
X83172000Y-68120000D01*
X83170000Y-68118000D01*
X83169000Y-68115000D01*
X83168000Y-68113000D01*
X83167000Y-68110000D01*
X83167000Y-68108000D01*
X83166000Y-68105000D01*
X83166000Y-68103000D01*
X83165000Y-68100000D01*
X83165000Y-68098000D01*
X83165000Y-68095000D01*
X83165000Y-67455000D01*
X83165000Y-67452000D01*
X83165000Y-67450000D01*
X83166000Y-67447000D01*
X83166000Y-67445000D01*
X83167000Y-67442000D01*
X83167000Y-67440000D01*
X83168000Y-67437000D01*
X83169000Y-67435000D01*
X83170000Y-67432000D01*
X83172000Y-67430000D01*
X83173000Y-67428000D01*
X83175000Y-67426000D01*
X83176000Y-67424000D01*
X83178000Y-67422000D01*
X83180000Y-67420000D01*
X83182000Y-67418000D01*
X83184000Y-67416000D01*
X83186000Y-67415000D01*
X83188000Y-67413000D01*
X83190000Y-67412000D01*
X83192000Y-67410000D01*
X83195000Y-67409000D01*
X83197000Y-67408000D01*
X83200000Y-67407000D01*
X83202000Y-67407000D01*
X83205000Y-67406000D01*
X83207000Y-67406000D01*
X83210000Y-67405000D01*
X83212000Y-67405000D01*
X83215000Y-67405000D01*
X83505000Y-67405000D01*
X83508000Y-67405000D01*
X83510000Y-67405000D01*
X83513000Y-67406000D01*
G37*
X84013000Y-62606000D02*
X84015000Y-62606000D01*
X84018000Y-62607000D01*
X84020000Y-62607000D01*
X84023000Y-62608000D01*
X84025000Y-62609000D01*
X84028000Y-62610000D01*
X84030000Y-62612000D01*
X84032000Y-62613000D01*
X84034000Y-62615000D01*
X84036000Y-62616000D01*
X84038000Y-62618000D01*
X84040000Y-62620000D01*
X84042000Y-62622000D01*
X84044000Y-62624000D01*
X84045000Y-62626000D01*
X84047000Y-62628000D01*
X84048000Y-62630000D01*
X84050000Y-62632000D01*
X84051000Y-62635000D01*
X84052000Y-62637000D01*
X84053000Y-62640000D01*
X84053000Y-62642000D01*
X84054000Y-62645000D01*
X84054000Y-62647000D01*
X84055000Y-62650000D01*
X84055000Y-62652000D01*
X84055000Y-62655000D01*
X84055000Y-63295000D01*
X84055000Y-63298000D01*
X84055000Y-63300000D01*
X84054000Y-63303000D01*
X84054000Y-63305000D01*
X84053000Y-63308000D01*
X84053000Y-63310000D01*
X84052000Y-63313000D01*
X84051000Y-63315000D01*
X84050000Y-63318000D01*
X84048000Y-63320000D01*
X84047000Y-63322000D01*
X84045000Y-63324000D01*
X84044000Y-63326000D01*
X84042000Y-63328000D01*
X84040000Y-63330000D01*
X84038000Y-63332000D01*
X84036000Y-63334000D01*
X84034000Y-63335000D01*
X84032000Y-63337000D01*
X84030000Y-63338000D01*
X84028000Y-63340000D01*
X84025000Y-63341000D01*
X84023000Y-63342000D01*
X84020000Y-63343000D01*
X84018000Y-63343000D01*
X84015000Y-63344000D01*
X84013000Y-63344000D01*
X84010000Y-63345000D01*
X84008000Y-63345000D01*
X84005000Y-63345000D01*
X83715000Y-63345000D01*
X83712000Y-63345000D01*
X83710000Y-63345000D01*
X83707000Y-63344000D01*
X83705000Y-63344000D01*
X83702000Y-63343000D01*
X83700000Y-63343000D01*
X83697000Y-63342000D01*
X83695000Y-63341000D01*
X83692000Y-63340000D01*
X83690000Y-63338000D01*
X83688000Y-63337000D01*
X83686000Y-63335000D01*
X83684000Y-63334000D01*
X83682000Y-63332000D01*
X83680000Y-63330000D01*
X83678000Y-63328000D01*
X83676000Y-63326000D01*
X83675000Y-63324000D01*
X83673000Y-63322000D01*
X83672000Y-63320000D01*
X83670000Y-63318000D01*
X83669000Y-63315000D01*
X83668000Y-63313000D01*
X83667000Y-63310000D01*
X83667000Y-63308000D01*
X83666000Y-63305000D01*
X83666000Y-63303000D01*
X83665000Y-63300000D01*
X83665000Y-63298000D01*
X83665000Y-63295000D01*
X83665000Y-62655000D01*
X83665000Y-62652000D01*
X83665000Y-62650000D01*
X83666000Y-62647000D01*
X83666000Y-62645000D01*
X83667000Y-62642000D01*
X83667000Y-62640000D01*
X83668000Y-62637000D01*
X83669000Y-62635000D01*
X83670000Y-62632000D01*
X83672000Y-62630000D01*
X83673000Y-62628000D01*
X83675000Y-62626000D01*
X83676000Y-62624000D01*
X83678000Y-62622000D01*
X83680000Y-62620000D01*
X83682000Y-62618000D01*
X83684000Y-62616000D01*
X83686000Y-62615000D01*
X83688000Y-62613000D01*
X83690000Y-62612000D01*
X83692000Y-62610000D01*
X83695000Y-62609000D01*
X83697000Y-62608000D01*
X83700000Y-62607000D01*
X83702000Y-62607000D01*
X83705000Y-62606000D01*
X83707000Y-62606000D01*
X83710000Y-62605000D01*
X83712000Y-62605000D01*
X83715000Y-62605000D01*
X84005000Y-62605000D01*
X84008000Y-62605000D01*
X84010000Y-62605000D01*
X84013000Y-62606000D01*
G36*
X84013000Y-62606000D02*
G01*
X84015000Y-62606000D01*
X84018000Y-62607000D01*
X84020000Y-62607000D01*
X84023000Y-62608000D01*
X84025000Y-62609000D01*
X84028000Y-62610000D01*
X84030000Y-62612000D01*
X84032000Y-62613000D01*
X84034000Y-62615000D01*
X84036000Y-62616000D01*
X84038000Y-62618000D01*
X84040000Y-62620000D01*
X84042000Y-62622000D01*
X84044000Y-62624000D01*
X84045000Y-62626000D01*
X84047000Y-62628000D01*
X84048000Y-62630000D01*
X84050000Y-62632000D01*
X84051000Y-62635000D01*
X84052000Y-62637000D01*
X84053000Y-62640000D01*
X84053000Y-62642000D01*
X84054000Y-62645000D01*
X84054000Y-62647000D01*
X84055000Y-62650000D01*
X84055000Y-62652000D01*
X84055000Y-62655000D01*
X84055000Y-63295000D01*
X84055000Y-63298000D01*
X84055000Y-63300000D01*
X84054000Y-63303000D01*
X84054000Y-63305000D01*
X84053000Y-63308000D01*
X84053000Y-63310000D01*
X84052000Y-63313000D01*
X84051000Y-63315000D01*
X84050000Y-63318000D01*
X84048000Y-63320000D01*
X84047000Y-63322000D01*
X84045000Y-63324000D01*
X84044000Y-63326000D01*
X84042000Y-63328000D01*
X84040000Y-63330000D01*
X84038000Y-63332000D01*
X84036000Y-63334000D01*
X84034000Y-63335000D01*
X84032000Y-63337000D01*
X84030000Y-63338000D01*
X84028000Y-63340000D01*
X84025000Y-63341000D01*
X84023000Y-63342000D01*
X84020000Y-63343000D01*
X84018000Y-63343000D01*
X84015000Y-63344000D01*
X84013000Y-63344000D01*
X84010000Y-63345000D01*
X84008000Y-63345000D01*
X84005000Y-63345000D01*
X83715000Y-63345000D01*
X83712000Y-63345000D01*
X83710000Y-63345000D01*
X83707000Y-63344000D01*
X83705000Y-63344000D01*
X83702000Y-63343000D01*
X83700000Y-63343000D01*
X83697000Y-63342000D01*
X83695000Y-63341000D01*
X83692000Y-63340000D01*
X83690000Y-63338000D01*
X83688000Y-63337000D01*
X83686000Y-63335000D01*
X83684000Y-63334000D01*
X83682000Y-63332000D01*
X83680000Y-63330000D01*
X83678000Y-63328000D01*
X83676000Y-63326000D01*
X83675000Y-63324000D01*
X83673000Y-63322000D01*
X83672000Y-63320000D01*
X83670000Y-63318000D01*
X83669000Y-63315000D01*
X83668000Y-63313000D01*
X83667000Y-63310000D01*
X83667000Y-63308000D01*
X83666000Y-63305000D01*
X83666000Y-63303000D01*
X83665000Y-63300000D01*
X83665000Y-63298000D01*
X83665000Y-63295000D01*
X83665000Y-62655000D01*
X83665000Y-62652000D01*
X83665000Y-62650000D01*
X83666000Y-62647000D01*
X83666000Y-62645000D01*
X83667000Y-62642000D01*
X83667000Y-62640000D01*
X83668000Y-62637000D01*
X83669000Y-62635000D01*
X83670000Y-62632000D01*
X83672000Y-62630000D01*
X83673000Y-62628000D01*
X83675000Y-62626000D01*
X83676000Y-62624000D01*
X83678000Y-62622000D01*
X83680000Y-62620000D01*
X83682000Y-62618000D01*
X83684000Y-62616000D01*
X83686000Y-62615000D01*
X83688000Y-62613000D01*
X83690000Y-62612000D01*
X83692000Y-62610000D01*
X83695000Y-62609000D01*
X83697000Y-62608000D01*
X83700000Y-62607000D01*
X83702000Y-62607000D01*
X83705000Y-62606000D01*
X83707000Y-62606000D01*
X83710000Y-62605000D01*
X83712000Y-62605000D01*
X83715000Y-62605000D01*
X84005000Y-62605000D01*
X84008000Y-62605000D01*
X84010000Y-62605000D01*
X84013000Y-62606000D01*
G37*
X84013000Y-67406000D02*
X84015000Y-67406000D01*
X84018000Y-67407000D01*
X84020000Y-67407000D01*
X84023000Y-67408000D01*
X84025000Y-67409000D01*
X84028000Y-67410000D01*
X84030000Y-67412000D01*
X84032000Y-67413000D01*
X84034000Y-67415000D01*
X84036000Y-67416000D01*
X84038000Y-67418000D01*
X84040000Y-67420000D01*
X84042000Y-67422000D01*
X84044000Y-67424000D01*
X84045000Y-67426000D01*
X84047000Y-67428000D01*
X84048000Y-67430000D01*
X84050000Y-67432000D01*
X84051000Y-67435000D01*
X84052000Y-67437000D01*
X84053000Y-67440000D01*
X84053000Y-67442000D01*
X84054000Y-67445000D01*
X84054000Y-67447000D01*
X84055000Y-67450000D01*
X84055000Y-67452000D01*
X84055000Y-67455000D01*
X84055000Y-68095000D01*
X84055000Y-68098000D01*
X84055000Y-68100000D01*
X84054000Y-68103000D01*
X84054000Y-68105000D01*
X84053000Y-68108000D01*
X84053000Y-68110000D01*
X84052000Y-68113000D01*
X84051000Y-68115000D01*
X84050000Y-68118000D01*
X84048000Y-68120000D01*
X84047000Y-68122000D01*
X84045000Y-68124000D01*
X84044000Y-68126000D01*
X84042000Y-68128000D01*
X84040000Y-68130000D01*
X84038000Y-68132000D01*
X84036000Y-68134000D01*
X84034000Y-68135000D01*
X84032000Y-68137000D01*
X84030000Y-68138000D01*
X84028000Y-68140000D01*
X84025000Y-68141000D01*
X84023000Y-68142000D01*
X84020000Y-68143000D01*
X84018000Y-68143000D01*
X84015000Y-68144000D01*
X84013000Y-68144000D01*
X84010000Y-68145000D01*
X84008000Y-68145000D01*
X84005000Y-68145000D01*
X83715000Y-68145000D01*
X83712000Y-68145000D01*
X83710000Y-68145000D01*
X83707000Y-68144000D01*
X83705000Y-68144000D01*
X83702000Y-68143000D01*
X83700000Y-68143000D01*
X83697000Y-68142000D01*
X83695000Y-68141000D01*
X83692000Y-68140000D01*
X83690000Y-68138000D01*
X83688000Y-68137000D01*
X83686000Y-68135000D01*
X83684000Y-68134000D01*
X83682000Y-68132000D01*
X83680000Y-68130000D01*
X83678000Y-68128000D01*
X83676000Y-68126000D01*
X83675000Y-68124000D01*
X83673000Y-68122000D01*
X83672000Y-68120000D01*
X83670000Y-68118000D01*
X83669000Y-68115000D01*
X83668000Y-68113000D01*
X83667000Y-68110000D01*
X83667000Y-68108000D01*
X83666000Y-68105000D01*
X83666000Y-68103000D01*
X83665000Y-68100000D01*
X83665000Y-68098000D01*
X83665000Y-68095000D01*
X83665000Y-67455000D01*
X83665000Y-67452000D01*
X83665000Y-67450000D01*
X83666000Y-67447000D01*
X83666000Y-67445000D01*
X83667000Y-67442000D01*
X83667000Y-67440000D01*
X83668000Y-67437000D01*
X83669000Y-67435000D01*
X83670000Y-67432000D01*
X83672000Y-67430000D01*
X83673000Y-67428000D01*
X83675000Y-67426000D01*
X83676000Y-67424000D01*
X83678000Y-67422000D01*
X83680000Y-67420000D01*
X83682000Y-67418000D01*
X83684000Y-67416000D01*
X83686000Y-67415000D01*
X83688000Y-67413000D01*
X83690000Y-67412000D01*
X83692000Y-67410000D01*
X83695000Y-67409000D01*
X83697000Y-67408000D01*
X83700000Y-67407000D01*
X83702000Y-67407000D01*
X83705000Y-67406000D01*
X83707000Y-67406000D01*
X83710000Y-67405000D01*
X83712000Y-67405000D01*
X83715000Y-67405000D01*
X84005000Y-67405000D01*
X84008000Y-67405000D01*
X84010000Y-67405000D01*
X84013000Y-67406000D01*
G36*
X84013000Y-67406000D02*
G01*
X84015000Y-67406000D01*
X84018000Y-67407000D01*
X84020000Y-67407000D01*
X84023000Y-67408000D01*
X84025000Y-67409000D01*
X84028000Y-67410000D01*
X84030000Y-67412000D01*
X84032000Y-67413000D01*
X84034000Y-67415000D01*
X84036000Y-67416000D01*
X84038000Y-67418000D01*
X84040000Y-67420000D01*
X84042000Y-67422000D01*
X84044000Y-67424000D01*
X84045000Y-67426000D01*
X84047000Y-67428000D01*
X84048000Y-67430000D01*
X84050000Y-67432000D01*
X84051000Y-67435000D01*
X84052000Y-67437000D01*
X84053000Y-67440000D01*
X84053000Y-67442000D01*
X84054000Y-67445000D01*
X84054000Y-67447000D01*
X84055000Y-67450000D01*
X84055000Y-67452000D01*
X84055000Y-67455000D01*
X84055000Y-68095000D01*
X84055000Y-68098000D01*
X84055000Y-68100000D01*
X84054000Y-68103000D01*
X84054000Y-68105000D01*
X84053000Y-68108000D01*
X84053000Y-68110000D01*
X84052000Y-68113000D01*
X84051000Y-68115000D01*
X84050000Y-68118000D01*
X84048000Y-68120000D01*
X84047000Y-68122000D01*
X84045000Y-68124000D01*
X84044000Y-68126000D01*
X84042000Y-68128000D01*
X84040000Y-68130000D01*
X84038000Y-68132000D01*
X84036000Y-68134000D01*
X84034000Y-68135000D01*
X84032000Y-68137000D01*
X84030000Y-68138000D01*
X84028000Y-68140000D01*
X84025000Y-68141000D01*
X84023000Y-68142000D01*
X84020000Y-68143000D01*
X84018000Y-68143000D01*
X84015000Y-68144000D01*
X84013000Y-68144000D01*
X84010000Y-68145000D01*
X84008000Y-68145000D01*
X84005000Y-68145000D01*
X83715000Y-68145000D01*
X83712000Y-68145000D01*
X83710000Y-68145000D01*
X83707000Y-68144000D01*
X83705000Y-68144000D01*
X83702000Y-68143000D01*
X83700000Y-68143000D01*
X83697000Y-68142000D01*
X83695000Y-68141000D01*
X83692000Y-68140000D01*
X83690000Y-68138000D01*
X83688000Y-68137000D01*
X83686000Y-68135000D01*
X83684000Y-68134000D01*
X83682000Y-68132000D01*
X83680000Y-68130000D01*
X83678000Y-68128000D01*
X83676000Y-68126000D01*
X83675000Y-68124000D01*
X83673000Y-68122000D01*
X83672000Y-68120000D01*
X83670000Y-68118000D01*
X83669000Y-68115000D01*
X83668000Y-68113000D01*
X83667000Y-68110000D01*
X83667000Y-68108000D01*
X83666000Y-68105000D01*
X83666000Y-68103000D01*
X83665000Y-68100000D01*
X83665000Y-68098000D01*
X83665000Y-68095000D01*
X83665000Y-67455000D01*
X83665000Y-67452000D01*
X83665000Y-67450000D01*
X83666000Y-67447000D01*
X83666000Y-67445000D01*
X83667000Y-67442000D01*
X83667000Y-67440000D01*
X83668000Y-67437000D01*
X83669000Y-67435000D01*
X83670000Y-67432000D01*
X83672000Y-67430000D01*
X83673000Y-67428000D01*
X83675000Y-67426000D01*
X83676000Y-67424000D01*
X83678000Y-67422000D01*
X83680000Y-67420000D01*
X83682000Y-67418000D01*
X83684000Y-67416000D01*
X83686000Y-67415000D01*
X83688000Y-67413000D01*
X83690000Y-67412000D01*
X83692000Y-67410000D01*
X83695000Y-67409000D01*
X83697000Y-67408000D01*
X83700000Y-67407000D01*
X83702000Y-67407000D01*
X83705000Y-67406000D01*
X83707000Y-67406000D01*
X83710000Y-67405000D01*
X83712000Y-67405000D01*
X83715000Y-67405000D01*
X84005000Y-67405000D01*
X84008000Y-67405000D01*
X84010000Y-67405000D01*
X84013000Y-67406000D01*
G37*
X84513000Y-62606000D02*
X84515000Y-62606000D01*
X84518000Y-62607000D01*
X84520000Y-62607000D01*
X84523000Y-62608000D01*
X84525000Y-62609000D01*
X84528000Y-62610000D01*
X84530000Y-62612000D01*
X84532000Y-62613000D01*
X84534000Y-62615000D01*
X84536000Y-62616000D01*
X84538000Y-62618000D01*
X84540000Y-62620000D01*
X84542000Y-62622000D01*
X84544000Y-62624000D01*
X84545000Y-62626000D01*
X84547000Y-62628000D01*
X84548000Y-62630000D01*
X84550000Y-62632000D01*
X84551000Y-62635000D01*
X84552000Y-62637000D01*
X84553000Y-62640000D01*
X84553000Y-62642000D01*
X84554000Y-62645000D01*
X84554000Y-62647000D01*
X84555000Y-62650000D01*
X84555000Y-62652000D01*
X84555000Y-62655000D01*
X84555000Y-63295000D01*
X84555000Y-63298000D01*
X84555000Y-63300000D01*
X84554000Y-63303000D01*
X84554000Y-63305000D01*
X84553000Y-63308000D01*
X84553000Y-63310000D01*
X84552000Y-63313000D01*
X84551000Y-63315000D01*
X84550000Y-63318000D01*
X84548000Y-63320000D01*
X84547000Y-63322000D01*
X84545000Y-63324000D01*
X84544000Y-63326000D01*
X84542000Y-63328000D01*
X84540000Y-63330000D01*
X84538000Y-63332000D01*
X84536000Y-63334000D01*
X84534000Y-63335000D01*
X84532000Y-63337000D01*
X84530000Y-63338000D01*
X84528000Y-63340000D01*
X84525000Y-63341000D01*
X84523000Y-63342000D01*
X84520000Y-63343000D01*
X84518000Y-63343000D01*
X84515000Y-63344000D01*
X84513000Y-63344000D01*
X84510000Y-63345000D01*
X84508000Y-63345000D01*
X84505000Y-63345000D01*
X84215000Y-63345000D01*
X84212000Y-63345000D01*
X84210000Y-63345000D01*
X84207000Y-63344000D01*
X84205000Y-63344000D01*
X84202000Y-63343000D01*
X84200000Y-63343000D01*
X84197000Y-63342000D01*
X84195000Y-63341000D01*
X84192000Y-63340000D01*
X84190000Y-63338000D01*
X84188000Y-63337000D01*
X84186000Y-63335000D01*
X84184000Y-63334000D01*
X84182000Y-63332000D01*
X84180000Y-63330000D01*
X84178000Y-63328000D01*
X84176000Y-63326000D01*
X84175000Y-63324000D01*
X84173000Y-63322000D01*
X84172000Y-63320000D01*
X84170000Y-63318000D01*
X84169000Y-63315000D01*
X84168000Y-63313000D01*
X84167000Y-63310000D01*
X84167000Y-63308000D01*
X84166000Y-63305000D01*
X84166000Y-63303000D01*
X84165000Y-63300000D01*
X84165000Y-63298000D01*
X84165000Y-63295000D01*
X84165000Y-62655000D01*
X84165000Y-62652000D01*
X84165000Y-62650000D01*
X84166000Y-62647000D01*
X84166000Y-62645000D01*
X84167000Y-62642000D01*
X84167000Y-62640000D01*
X84168000Y-62637000D01*
X84169000Y-62635000D01*
X84170000Y-62632000D01*
X84172000Y-62630000D01*
X84173000Y-62628000D01*
X84175000Y-62626000D01*
X84176000Y-62624000D01*
X84178000Y-62622000D01*
X84180000Y-62620000D01*
X84182000Y-62618000D01*
X84184000Y-62616000D01*
X84186000Y-62615000D01*
X84188000Y-62613000D01*
X84190000Y-62612000D01*
X84192000Y-62610000D01*
X84195000Y-62609000D01*
X84197000Y-62608000D01*
X84200000Y-62607000D01*
X84202000Y-62607000D01*
X84205000Y-62606000D01*
X84207000Y-62606000D01*
X84210000Y-62605000D01*
X84212000Y-62605000D01*
X84215000Y-62605000D01*
X84505000Y-62605000D01*
X84508000Y-62605000D01*
X84510000Y-62605000D01*
X84513000Y-62606000D01*
G36*
X84513000Y-62606000D02*
G01*
X84515000Y-62606000D01*
X84518000Y-62607000D01*
X84520000Y-62607000D01*
X84523000Y-62608000D01*
X84525000Y-62609000D01*
X84528000Y-62610000D01*
X84530000Y-62612000D01*
X84532000Y-62613000D01*
X84534000Y-62615000D01*
X84536000Y-62616000D01*
X84538000Y-62618000D01*
X84540000Y-62620000D01*
X84542000Y-62622000D01*
X84544000Y-62624000D01*
X84545000Y-62626000D01*
X84547000Y-62628000D01*
X84548000Y-62630000D01*
X84550000Y-62632000D01*
X84551000Y-62635000D01*
X84552000Y-62637000D01*
X84553000Y-62640000D01*
X84553000Y-62642000D01*
X84554000Y-62645000D01*
X84554000Y-62647000D01*
X84555000Y-62650000D01*
X84555000Y-62652000D01*
X84555000Y-62655000D01*
X84555000Y-63295000D01*
X84555000Y-63298000D01*
X84555000Y-63300000D01*
X84554000Y-63303000D01*
X84554000Y-63305000D01*
X84553000Y-63308000D01*
X84553000Y-63310000D01*
X84552000Y-63313000D01*
X84551000Y-63315000D01*
X84550000Y-63318000D01*
X84548000Y-63320000D01*
X84547000Y-63322000D01*
X84545000Y-63324000D01*
X84544000Y-63326000D01*
X84542000Y-63328000D01*
X84540000Y-63330000D01*
X84538000Y-63332000D01*
X84536000Y-63334000D01*
X84534000Y-63335000D01*
X84532000Y-63337000D01*
X84530000Y-63338000D01*
X84528000Y-63340000D01*
X84525000Y-63341000D01*
X84523000Y-63342000D01*
X84520000Y-63343000D01*
X84518000Y-63343000D01*
X84515000Y-63344000D01*
X84513000Y-63344000D01*
X84510000Y-63345000D01*
X84508000Y-63345000D01*
X84505000Y-63345000D01*
X84215000Y-63345000D01*
X84212000Y-63345000D01*
X84210000Y-63345000D01*
X84207000Y-63344000D01*
X84205000Y-63344000D01*
X84202000Y-63343000D01*
X84200000Y-63343000D01*
X84197000Y-63342000D01*
X84195000Y-63341000D01*
X84192000Y-63340000D01*
X84190000Y-63338000D01*
X84188000Y-63337000D01*
X84186000Y-63335000D01*
X84184000Y-63334000D01*
X84182000Y-63332000D01*
X84180000Y-63330000D01*
X84178000Y-63328000D01*
X84176000Y-63326000D01*
X84175000Y-63324000D01*
X84173000Y-63322000D01*
X84172000Y-63320000D01*
X84170000Y-63318000D01*
X84169000Y-63315000D01*
X84168000Y-63313000D01*
X84167000Y-63310000D01*
X84167000Y-63308000D01*
X84166000Y-63305000D01*
X84166000Y-63303000D01*
X84165000Y-63300000D01*
X84165000Y-63298000D01*
X84165000Y-63295000D01*
X84165000Y-62655000D01*
X84165000Y-62652000D01*
X84165000Y-62650000D01*
X84166000Y-62647000D01*
X84166000Y-62645000D01*
X84167000Y-62642000D01*
X84167000Y-62640000D01*
X84168000Y-62637000D01*
X84169000Y-62635000D01*
X84170000Y-62632000D01*
X84172000Y-62630000D01*
X84173000Y-62628000D01*
X84175000Y-62626000D01*
X84176000Y-62624000D01*
X84178000Y-62622000D01*
X84180000Y-62620000D01*
X84182000Y-62618000D01*
X84184000Y-62616000D01*
X84186000Y-62615000D01*
X84188000Y-62613000D01*
X84190000Y-62612000D01*
X84192000Y-62610000D01*
X84195000Y-62609000D01*
X84197000Y-62608000D01*
X84200000Y-62607000D01*
X84202000Y-62607000D01*
X84205000Y-62606000D01*
X84207000Y-62606000D01*
X84210000Y-62605000D01*
X84212000Y-62605000D01*
X84215000Y-62605000D01*
X84505000Y-62605000D01*
X84508000Y-62605000D01*
X84510000Y-62605000D01*
X84513000Y-62606000D01*
G37*
X84513000Y-67406000D02*
X84515000Y-67406000D01*
X84518000Y-67407000D01*
X84520000Y-67407000D01*
X84523000Y-67408000D01*
X84525000Y-67409000D01*
X84528000Y-67410000D01*
X84530000Y-67412000D01*
X84532000Y-67413000D01*
X84534000Y-67415000D01*
X84536000Y-67416000D01*
X84538000Y-67418000D01*
X84540000Y-67420000D01*
X84542000Y-67422000D01*
X84544000Y-67424000D01*
X84545000Y-67426000D01*
X84547000Y-67428000D01*
X84548000Y-67430000D01*
X84550000Y-67432000D01*
X84551000Y-67435000D01*
X84552000Y-67437000D01*
X84553000Y-67440000D01*
X84553000Y-67442000D01*
X84554000Y-67445000D01*
X84554000Y-67447000D01*
X84555000Y-67450000D01*
X84555000Y-67452000D01*
X84555000Y-67455000D01*
X84555000Y-68095000D01*
X84555000Y-68098000D01*
X84555000Y-68100000D01*
X84554000Y-68103000D01*
X84554000Y-68105000D01*
X84553000Y-68108000D01*
X84553000Y-68110000D01*
X84552000Y-68113000D01*
X84551000Y-68115000D01*
X84550000Y-68118000D01*
X84548000Y-68120000D01*
X84547000Y-68122000D01*
X84545000Y-68124000D01*
X84544000Y-68126000D01*
X84542000Y-68128000D01*
X84540000Y-68130000D01*
X84538000Y-68132000D01*
X84536000Y-68134000D01*
X84534000Y-68135000D01*
X84532000Y-68137000D01*
X84530000Y-68138000D01*
X84528000Y-68140000D01*
X84525000Y-68141000D01*
X84523000Y-68142000D01*
X84520000Y-68143000D01*
X84518000Y-68143000D01*
X84515000Y-68144000D01*
X84513000Y-68144000D01*
X84510000Y-68145000D01*
X84508000Y-68145000D01*
X84505000Y-68145000D01*
X84215000Y-68145000D01*
X84212000Y-68145000D01*
X84210000Y-68145000D01*
X84207000Y-68144000D01*
X84205000Y-68144000D01*
X84202000Y-68143000D01*
X84200000Y-68143000D01*
X84197000Y-68142000D01*
X84195000Y-68141000D01*
X84192000Y-68140000D01*
X84190000Y-68138000D01*
X84188000Y-68137000D01*
X84186000Y-68135000D01*
X84184000Y-68134000D01*
X84182000Y-68132000D01*
X84180000Y-68130000D01*
X84178000Y-68128000D01*
X84176000Y-68126000D01*
X84175000Y-68124000D01*
X84173000Y-68122000D01*
X84172000Y-68120000D01*
X84170000Y-68118000D01*
X84169000Y-68115000D01*
X84168000Y-68113000D01*
X84167000Y-68110000D01*
X84167000Y-68108000D01*
X84166000Y-68105000D01*
X84166000Y-68103000D01*
X84165000Y-68100000D01*
X84165000Y-68098000D01*
X84165000Y-68095000D01*
X84165000Y-67455000D01*
X84165000Y-67452000D01*
X84165000Y-67450000D01*
X84166000Y-67447000D01*
X84166000Y-67445000D01*
X84167000Y-67442000D01*
X84167000Y-67440000D01*
X84168000Y-67437000D01*
X84169000Y-67435000D01*
X84170000Y-67432000D01*
X84172000Y-67430000D01*
X84173000Y-67428000D01*
X84175000Y-67426000D01*
X84176000Y-67424000D01*
X84178000Y-67422000D01*
X84180000Y-67420000D01*
X84182000Y-67418000D01*
X84184000Y-67416000D01*
X84186000Y-67415000D01*
X84188000Y-67413000D01*
X84190000Y-67412000D01*
X84192000Y-67410000D01*
X84195000Y-67409000D01*
X84197000Y-67408000D01*
X84200000Y-67407000D01*
X84202000Y-67407000D01*
X84205000Y-67406000D01*
X84207000Y-67406000D01*
X84210000Y-67405000D01*
X84212000Y-67405000D01*
X84215000Y-67405000D01*
X84505000Y-67405000D01*
X84508000Y-67405000D01*
X84510000Y-67405000D01*
X84513000Y-67406000D01*
G36*
X84513000Y-67406000D02*
G01*
X84515000Y-67406000D01*
X84518000Y-67407000D01*
X84520000Y-67407000D01*
X84523000Y-67408000D01*
X84525000Y-67409000D01*
X84528000Y-67410000D01*
X84530000Y-67412000D01*
X84532000Y-67413000D01*
X84534000Y-67415000D01*
X84536000Y-67416000D01*
X84538000Y-67418000D01*
X84540000Y-67420000D01*
X84542000Y-67422000D01*
X84544000Y-67424000D01*
X84545000Y-67426000D01*
X84547000Y-67428000D01*
X84548000Y-67430000D01*
X84550000Y-67432000D01*
X84551000Y-67435000D01*
X84552000Y-67437000D01*
X84553000Y-67440000D01*
X84553000Y-67442000D01*
X84554000Y-67445000D01*
X84554000Y-67447000D01*
X84555000Y-67450000D01*
X84555000Y-67452000D01*
X84555000Y-67455000D01*
X84555000Y-68095000D01*
X84555000Y-68098000D01*
X84555000Y-68100000D01*
X84554000Y-68103000D01*
X84554000Y-68105000D01*
X84553000Y-68108000D01*
X84553000Y-68110000D01*
X84552000Y-68113000D01*
X84551000Y-68115000D01*
X84550000Y-68118000D01*
X84548000Y-68120000D01*
X84547000Y-68122000D01*
X84545000Y-68124000D01*
X84544000Y-68126000D01*
X84542000Y-68128000D01*
X84540000Y-68130000D01*
X84538000Y-68132000D01*
X84536000Y-68134000D01*
X84534000Y-68135000D01*
X84532000Y-68137000D01*
X84530000Y-68138000D01*
X84528000Y-68140000D01*
X84525000Y-68141000D01*
X84523000Y-68142000D01*
X84520000Y-68143000D01*
X84518000Y-68143000D01*
X84515000Y-68144000D01*
X84513000Y-68144000D01*
X84510000Y-68145000D01*
X84508000Y-68145000D01*
X84505000Y-68145000D01*
X84215000Y-68145000D01*
X84212000Y-68145000D01*
X84210000Y-68145000D01*
X84207000Y-68144000D01*
X84205000Y-68144000D01*
X84202000Y-68143000D01*
X84200000Y-68143000D01*
X84197000Y-68142000D01*
X84195000Y-68141000D01*
X84192000Y-68140000D01*
X84190000Y-68138000D01*
X84188000Y-68137000D01*
X84186000Y-68135000D01*
X84184000Y-68134000D01*
X84182000Y-68132000D01*
X84180000Y-68130000D01*
X84178000Y-68128000D01*
X84176000Y-68126000D01*
X84175000Y-68124000D01*
X84173000Y-68122000D01*
X84172000Y-68120000D01*
X84170000Y-68118000D01*
X84169000Y-68115000D01*
X84168000Y-68113000D01*
X84167000Y-68110000D01*
X84167000Y-68108000D01*
X84166000Y-68105000D01*
X84166000Y-68103000D01*
X84165000Y-68100000D01*
X84165000Y-68098000D01*
X84165000Y-68095000D01*
X84165000Y-67455000D01*
X84165000Y-67452000D01*
X84165000Y-67450000D01*
X84166000Y-67447000D01*
X84166000Y-67445000D01*
X84167000Y-67442000D01*
X84167000Y-67440000D01*
X84168000Y-67437000D01*
X84169000Y-67435000D01*
X84170000Y-67432000D01*
X84172000Y-67430000D01*
X84173000Y-67428000D01*
X84175000Y-67426000D01*
X84176000Y-67424000D01*
X84178000Y-67422000D01*
X84180000Y-67420000D01*
X84182000Y-67418000D01*
X84184000Y-67416000D01*
X84186000Y-67415000D01*
X84188000Y-67413000D01*
X84190000Y-67412000D01*
X84192000Y-67410000D01*
X84195000Y-67409000D01*
X84197000Y-67408000D01*
X84200000Y-67407000D01*
X84202000Y-67407000D01*
X84205000Y-67406000D01*
X84207000Y-67406000D01*
X84210000Y-67405000D01*
X84212000Y-67405000D01*
X84215000Y-67405000D01*
X84505000Y-67405000D01*
X84508000Y-67405000D01*
X84510000Y-67405000D01*
X84513000Y-67406000D01*
G37*
X85013000Y-62606000D02*
X85015000Y-62606000D01*
X85018000Y-62607000D01*
X85020000Y-62607000D01*
X85023000Y-62608000D01*
X85025000Y-62609000D01*
X85028000Y-62610000D01*
X85030000Y-62612000D01*
X85032000Y-62613000D01*
X85034000Y-62615000D01*
X85036000Y-62616000D01*
X85038000Y-62618000D01*
X85040000Y-62620000D01*
X85042000Y-62622000D01*
X85044000Y-62624000D01*
X85045000Y-62626000D01*
X85047000Y-62628000D01*
X85048000Y-62630000D01*
X85050000Y-62632000D01*
X85051000Y-62635000D01*
X85052000Y-62637000D01*
X85053000Y-62640000D01*
X85053000Y-62642000D01*
X85054000Y-62645000D01*
X85054000Y-62647000D01*
X85055000Y-62650000D01*
X85055000Y-62652000D01*
X85055000Y-62655000D01*
X85055000Y-63295000D01*
X85055000Y-63298000D01*
X85055000Y-63300000D01*
X85054000Y-63303000D01*
X85054000Y-63305000D01*
X85053000Y-63308000D01*
X85053000Y-63310000D01*
X85052000Y-63313000D01*
X85051000Y-63315000D01*
X85050000Y-63318000D01*
X85048000Y-63320000D01*
X85047000Y-63322000D01*
X85045000Y-63324000D01*
X85044000Y-63326000D01*
X85042000Y-63328000D01*
X85040000Y-63330000D01*
X85038000Y-63332000D01*
X85036000Y-63334000D01*
X85034000Y-63335000D01*
X85032000Y-63337000D01*
X85030000Y-63338000D01*
X85028000Y-63340000D01*
X85025000Y-63341000D01*
X85023000Y-63342000D01*
X85020000Y-63343000D01*
X85018000Y-63343000D01*
X85015000Y-63344000D01*
X85013000Y-63344000D01*
X85010000Y-63345000D01*
X85008000Y-63345000D01*
X85005000Y-63345000D01*
X84715000Y-63345000D01*
X84712000Y-63345000D01*
X84710000Y-63345000D01*
X84707000Y-63344000D01*
X84705000Y-63344000D01*
X84702000Y-63343000D01*
X84700000Y-63343000D01*
X84697000Y-63342000D01*
X84695000Y-63341000D01*
X84692000Y-63340000D01*
X84690000Y-63338000D01*
X84688000Y-63337000D01*
X84686000Y-63335000D01*
X84684000Y-63334000D01*
X84682000Y-63332000D01*
X84680000Y-63330000D01*
X84678000Y-63328000D01*
X84676000Y-63326000D01*
X84675000Y-63324000D01*
X84673000Y-63322000D01*
X84672000Y-63320000D01*
X84670000Y-63318000D01*
X84669000Y-63315000D01*
X84668000Y-63313000D01*
X84667000Y-63310000D01*
X84667000Y-63308000D01*
X84666000Y-63305000D01*
X84666000Y-63303000D01*
X84665000Y-63300000D01*
X84665000Y-63298000D01*
X84665000Y-63295000D01*
X84665000Y-62655000D01*
X84665000Y-62652000D01*
X84665000Y-62650000D01*
X84666000Y-62647000D01*
X84666000Y-62645000D01*
X84667000Y-62642000D01*
X84667000Y-62640000D01*
X84668000Y-62637000D01*
X84669000Y-62635000D01*
X84670000Y-62632000D01*
X84672000Y-62630000D01*
X84673000Y-62628000D01*
X84675000Y-62626000D01*
X84676000Y-62624000D01*
X84678000Y-62622000D01*
X84680000Y-62620000D01*
X84682000Y-62618000D01*
X84684000Y-62616000D01*
X84686000Y-62615000D01*
X84688000Y-62613000D01*
X84690000Y-62612000D01*
X84692000Y-62610000D01*
X84695000Y-62609000D01*
X84697000Y-62608000D01*
X84700000Y-62607000D01*
X84702000Y-62607000D01*
X84705000Y-62606000D01*
X84707000Y-62606000D01*
X84710000Y-62605000D01*
X84712000Y-62605000D01*
X84715000Y-62605000D01*
X85005000Y-62605000D01*
X85008000Y-62605000D01*
X85010000Y-62605000D01*
X85013000Y-62606000D01*
G36*
X85013000Y-62606000D02*
G01*
X85015000Y-62606000D01*
X85018000Y-62607000D01*
X85020000Y-62607000D01*
X85023000Y-62608000D01*
X85025000Y-62609000D01*
X85028000Y-62610000D01*
X85030000Y-62612000D01*
X85032000Y-62613000D01*
X85034000Y-62615000D01*
X85036000Y-62616000D01*
X85038000Y-62618000D01*
X85040000Y-62620000D01*
X85042000Y-62622000D01*
X85044000Y-62624000D01*
X85045000Y-62626000D01*
X85047000Y-62628000D01*
X85048000Y-62630000D01*
X85050000Y-62632000D01*
X85051000Y-62635000D01*
X85052000Y-62637000D01*
X85053000Y-62640000D01*
X85053000Y-62642000D01*
X85054000Y-62645000D01*
X85054000Y-62647000D01*
X85055000Y-62650000D01*
X85055000Y-62652000D01*
X85055000Y-62655000D01*
X85055000Y-63295000D01*
X85055000Y-63298000D01*
X85055000Y-63300000D01*
X85054000Y-63303000D01*
X85054000Y-63305000D01*
X85053000Y-63308000D01*
X85053000Y-63310000D01*
X85052000Y-63313000D01*
X85051000Y-63315000D01*
X85050000Y-63318000D01*
X85048000Y-63320000D01*
X85047000Y-63322000D01*
X85045000Y-63324000D01*
X85044000Y-63326000D01*
X85042000Y-63328000D01*
X85040000Y-63330000D01*
X85038000Y-63332000D01*
X85036000Y-63334000D01*
X85034000Y-63335000D01*
X85032000Y-63337000D01*
X85030000Y-63338000D01*
X85028000Y-63340000D01*
X85025000Y-63341000D01*
X85023000Y-63342000D01*
X85020000Y-63343000D01*
X85018000Y-63343000D01*
X85015000Y-63344000D01*
X85013000Y-63344000D01*
X85010000Y-63345000D01*
X85008000Y-63345000D01*
X85005000Y-63345000D01*
X84715000Y-63345000D01*
X84712000Y-63345000D01*
X84710000Y-63345000D01*
X84707000Y-63344000D01*
X84705000Y-63344000D01*
X84702000Y-63343000D01*
X84700000Y-63343000D01*
X84697000Y-63342000D01*
X84695000Y-63341000D01*
X84692000Y-63340000D01*
X84690000Y-63338000D01*
X84688000Y-63337000D01*
X84686000Y-63335000D01*
X84684000Y-63334000D01*
X84682000Y-63332000D01*
X84680000Y-63330000D01*
X84678000Y-63328000D01*
X84676000Y-63326000D01*
X84675000Y-63324000D01*
X84673000Y-63322000D01*
X84672000Y-63320000D01*
X84670000Y-63318000D01*
X84669000Y-63315000D01*
X84668000Y-63313000D01*
X84667000Y-63310000D01*
X84667000Y-63308000D01*
X84666000Y-63305000D01*
X84666000Y-63303000D01*
X84665000Y-63300000D01*
X84665000Y-63298000D01*
X84665000Y-63295000D01*
X84665000Y-62655000D01*
X84665000Y-62652000D01*
X84665000Y-62650000D01*
X84666000Y-62647000D01*
X84666000Y-62645000D01*
X84667000Y-62642000D01*
X84667000Y-62640000D01*
X84668000Y-62637000D01*
X84669000Y-62635000D01*
X84670000Y-62632000D01*
X84672000Y-62630000D01*
X84673000Y-62628000D01*
X84675000Y-62626000D01*
X84676000Y-62624000D01*
X84678000Y-62622000D01*
X84680000Y-62620000D01*
X84682000Y-62618000D01*
X84684000Y-62616000D01*
X84686000Y-62615000D01*
X84688000Y-62613000D01*
X84690000Y-62612000D01*
X84692000Y-62610000D01*
X84695000Y-62609000D01*
X84697000Y-62608000D01*
X84700000Y-62607000D01*
X84702000Y-62607000D01*
X84705000Y-62606000D01*
X84707000Y-62606000D01*
X84710000Y-62605000D01*
X84712000Y-62605000D01*
X84715000Y-62605000D01*
X85005000Y-62605000D01*
X85008000Y-62605000D01*
X85010000Y-62605000D01*
X85013000Y-62606000D01*
G37*
X85013000Y-67406000D02*
X85015000Y-67406000D01*
X85018000Y-67407000D01*
X85020000Y-67407000D01*
X85023000Y-67408000D01*
X85025000Y-67409000D01*
X85028000Y-67410000D01*
X85030000Y-67412000D01*
X85032000Y-67413000D01*
X85034000Y-67415000D01*
X85036000Y-67416000D01*
X85038000Y-67418000D01*
X85040000Y-67420000D01*
X85042000Y-67422000D01*
X85044000Y-67424000D01*
X85045000Y-67426000D01*
X85047000Y-67428000D01*
X85048000Y-67430000D01*
X85050000Y-67432000D01*
X85051000Y-67435000D01*
X85052000Y-67437000D01*
X85053000Y-67440000D01*
X85053000Y-67442000D01*
X85054000Y-67445000D01*
X85054000Y-67447000D01*
X85055000Y-67450000D01*
X85055000Y-67452000D01*
X85055000Y-67455000D01*
X85055000Y-68095000D01*
X85055000Y-68098000D01*
X85055000Y-68100000D01*
X85054000Y-68103000D01*
X85054000Y-68105000D01*
X85053000Y-68108000D01*
X85053000Y-68110000D01*
X85052000Y-68113000D01*
X85051000Y-68115000D01*
X85050000Y-68118000D01*
X85048000Y-68120000D01*
X85047000Y-68122000D01*
X85045000Y-68124000D01*
X85044000Y-68126000D01*
X85042000Y-68128000D01*
X85040000Y-68130000D01*
X85038000Y-68132000D01*
X85036000Y-68134000D01*
X85034000Y-68135000D01*
X85032000Y-68137000D01*
X85030000Y-68138000D01*
X85028000Y-68140000D01*
X85025000Y-68141000D01*
X85023000Y-68142000D01*
X85020000Y-68143000D01*
X85018000Y-68143000D01*
X85015000Y-68144000D01*
X85013000Y-68144000D01*
X85010000Y-68145000D01*
X85008000Y-68145000D01*
X85005000Y-68145000D01*
X84715000Y-68145000D01*
X84712000Y-68145000D01*
X84710000Y-68145000D01*
X84707000Y-68144000D01*
X84705000Y-68144000D01*
X84702000Y-68143000D01*
X84700000Y-68143000D01*
X84697000Y-68142000D01*
X84695000Y-68141000D01*
X84692000Y-68140000D01*
X84690000Y-68138000D01*
X84688000Y-68137000D01*
X84686000Y-68135000D01*
X84684000Y-68134000D01*
X84682000Y-68132000D01*
X84680000Y-68130000D01*
X84678000Y-68128000D01*
X84676000Y-68126000D01*
X84675000Y-68124000D01*
X84673000Y-68122000D01*
X84672000Y-68120000D01*
X84670000Y-68118000D01*
X84669000Y-68115000D01*
X84668000Y-68113000D01*
X84667000Y-68110000D01*
X84667000Y-68108000D01*
X84666000Y-68105000D01*
X84666000Y-68103000D01*
X84665000Y-68100000D01*
X84665000Y-68098000D01*
X84665000Y-68095000D01*
X84665000Y-67455000D01*
X84665000Y-67452000D01*
X84665000Y-67450000D01*
X84666000Y-67447000D01*
X84666000Y-67445000D01*
X84667000Y-67442000D01*
X84667000Y-67440000D01*
X84668000Y-67437000D01*
X84669000Y-67435000D01*
X84670000Y-67432000D01*
X84672000Y-67430000D01*
X84673000Y-67428000D01*
X84675000Y-67426000D01*
X84676000Y-67424000D01*
X84678000Y-67422000D01*
X84680000Y-67420000D01*
X84682000Y-67418000D01*
X84684000Y-67416000D01*
X84686000Y-67415000D01*
X84688000Y-67413000D01*
X84690000Y-67412000D01*
X84692000Y-67410000D01*
X84695000Y-67409000D01*
X84697000Y-67408000D01*
X84700000Y-67407000D01*
X84702000Y-67407000D01*
X84705000Y-67406000D01*
X84707000Y-67406000D01*
X84710000Y-67405000D01*
X84712000Y-67405000D01*
X84715000Y-67405000D01*
X85005000Y-67405000D01*
X85008000Y-67405000D01*
X85010000Y-67405000D01*
X85013000Y-67406000D01*
G36*
X85013000Y-67406000D02*
G01*
X85015000Y-67406000D01*
X85018000Y-67407000D01*
X85020000Y-67407000D01*
X85023000Y-67408000D01*
X85025000Y-67409000D01*
X85028000Y-67410000D01*
X85030000Y-67412000D01*
X85032000Y-67413000D01*
X85034000Y-67415000D01*
X85036000Y-67416000D01*
X85038000Y-67418000D01*
X85040000Y-67420000D01*
X85042000Y-67422000D01*
X85044000Y-67424000D01*
X85045000Y-67426000D01*
X85047000Y-67428000D01*
X85048000Y-67430000D01*
X85050000Y-67432000D01*
X85051000Y-67435000D01*
X85052000Y-67437000D01*
X85053000Y-67440000D01*
X85053000Y-67442000D01*
X85054000Y-67445000D01*
X85054000Y-67447000D01*
X85055000Y-67450000D01*
X85055000Y-67452000D01*
X85055000Y-67455000D01*
X85055000Y-68095000D01*
X85055000Y-68098000D01*
X85055000Y-68100000D01*
X85054000Y-68103000D01*
X85054000Y-68105000D01*
X85053000Y-68108000D01*
X85053000Y-68110000D01*
X85052000Y-68113000D01*
X85051000Y-68115000D01*
X85050000Y-68118000D01*
X85048000Y-68120000D01*
X85047000Y-68122000D01*
X85045000Y-68124000D01*
X85044000Y-68126000D01*
X85042000Y-68128000D01*
X85040000Y-68130000D01*
X85038000Y-68132000D01*
X85036000Y-68134000D01*
X85034000Y-68135000D01*
X85032000Y-68137000D01*
X85030000Y-68138000D01*
X85028000Y-68140000D01*
X85025000Y-68141000D01*
X85023000Y-68142000D01*
X85020000Y-68143000D01*
X85018000Y-68143000D01*
X85015000Y-68144000D01*
X85013000Y-68144000D01*
X85010000Y-68145000D01*
X85008000Y-68145000D01*
X85005000Y-68145000D01*
X84715000Y-68145000D01*
X84712000Y-68145000D01*
X84710000Y-68145000D01*
X84707000Y-68144000D01*
X84705000Y-68144000D01*
X84702000Y-68143000D01*
X84700000Y-68143000D01*
X84697000Y-68142000D01*
X84695000Y-68141000D01*
X84692000Y-68140000D01*
X84690000Y-68138000D01*
X84688000Y-68137000D01*
X84686000Y-68135000D01*
X84684000Y-68134000D01*
X84682000Y-68132000D01*
X84680000Y-68130000D01*
X84678000Y-68128000D01*
X84676000Y-68126000D01*
X84675000Y-68124000D01*
X84673000Y-68122000D01*
X84672000Y-68120000D01*
X84670000Y-68118000D01*
X84669000Y-68115000D01*
X84668000Y-68113000D01*
X84667000Y-68110000D01*
X84667000Y-68108000D01*
X84666000Y-68105000D01*
X84666000Y-68103000D01*
X84665000Y-68100000D01*
X84665000Y-68098000D01*
X84665000Y-68095000D01*
X84665000Y-67455000D01*
X84665000Y-67452000D01*
X84665000Y-67450000D01*
X84666000Y-67447000D01*
X84666000Y-67445000D01*
X84667000Y-67442000D01*
X84667000Y-67440000D01*
X84668000Y-67437000D01*
X84669000Y-67435000D01*
X84670000Y-67432000D01*
X84672000Y-67430000D01*
X84673000Y-67428000D01*
X84675000Y-67426000D01*
X84676000Y-67424000D01*
X84678000Y-67422000D01*
X84680000Y-67420000D01*
X84682000Y-67418000D01*
X84684000Y-67416000D01*
X84686000Y-67415000D01*
X84688000Y-67413000D01*
X84690000Y-67412000D01*
X84692000Y-67410000D01*
X84695000Y-67409000D01*
X84697000Y-67408000D01*
X84700000Y-67407000D01*
X84702000Y-67407000D01*
X84705000Y-67406000D01*
X84707000Y-67406000D01*
X84710000Y-67405000D01*
X84712000Y-67405000D01*
X84715000Y-67405000D01*
X85005000Y-67405000D01*
X85008000Y-67405000D01*
X85010000Y-67405000D01*
X85013000Y-67406000D01*
G37*
X85513000Y-62606000D02*
X85515000Y-62606000D01*
X85518000Y-62607000D01*
X85520000Y-62607000D01*
X85523000Y-62608000D01*
X85525000Y-62609000D01*
X85528000Y-62610000D01*
X85530000Y-62612000D01*
X85532000Y-62613000D01*
X85534000Y-62615000D01*
X85536000Y-62616000D01*
X85538000Y-62618000D01*
X85540000Y-62620000D01*
X85542000Y-62622000D01*
X85544000Y-62624000D01*
X85545000Y-62626000D01*
X85547000Y-62628000D01*
X85548000Y-62630000D01*
X85550000Y-62632000D01*
X85551000Y-62635000D01*
X85552000Y-62637000D01*
X85553000Y-62640000D01*
X85553000Y-62642000D01*
X85554000Y-62645000D01*
X85554000Y-62647000D01*
X85555000Y-62650000D01*
X85555000Y-62652000D01*
X85555000Y-62655000D01*
X85555000Y-63295000D01*
X85555000Y-63298000D01*
X85555000Y-63300000D01*
X85554000Y-63303000D01*
X85554000Y-63305000D01*
X85553000Y-63308000D01*
X85553000Y-63310000D01*
X85552000Y-63313000D01*
X85551000Y-63315000D01*
X85550000Y-63318000D01*
X85548000Y-63320000D01*
X85547000Y-63322000D01*
X85545000Y-63324000D01*
X85544000Y-63326000D01*
X85542000Y-63328000D01*
X85540000Y-63330000D01*
X85538000Y-63332000D01*
X85536000Y-63334000D01*
X85534000Y-63335000D01*
X85532000Y-63337000D01*
X85530000Y-63338000D01*
X85528000Y-63340000D01*
X85525000Y-63341000D01*
X85523000Y-63342000D01*
X85520000Y-63343000D01*
X85518000Y-63343000D01*
X85515000Y-63344000D01*
X85513000Y-63344000D01*
X85510000Y-63345000D01*
X85508000Y-63345000D01*
X85505000Y-63345000D01*
X85215000Y-63345000D01*
X85212000Y-63345000D01*
X85210000Y-63345000D01*
X85207000Y-63344000D01*
X85205000Y-63344000D01*
X85202000Y-63343000D01*
X85200000Y-63343000D01*
X85197000Y-63342000D01*
X85195000Y-63341000D01*
X85192000Y-63340000D01*
X85190000Y-63338000D01*
X85188000Y-63337000D01*
X85186000Y-63335000D01*
X85184000Y-63334000D01*
X85182000Y-63332000D01*
X85180000Y-63330000D01*
X85178000Y-63328000D01*
X85176000Y-63326000D01*
X85175000Y-63324000D01*
X85173000Y-63322000D01*
X85172000Y-63320000D01*
X85170000Y-63318000D01*
X85169000Y-63315000D01*
X85168000Y-63313000D01*
X85167000Y-63310000D01*
X85167000Y-63308000D01*
X85166000Y-63305000D01*
X85166000Y-63303000D01*
X85165000Y-63300000D01*
X85165000Y-63298000D01*
X85165000Y-63295000D01*
X85165000Y-62655000D01*
X85165000Y-62652000D01*
X85165000Y-62650000D01*
X85166000Y-62647000D01*
X85166000Y-62645000D01*
X85167000Y-62642000D01*
X85167000Y-62640000D01*
X85168000Y-62637000D01*
X85169000Y-62635000D01*
X85170000Y-62632000D01*
X85172000Y-62630000D01*
X85173000Y-62628000D01*
X85175000Y-62626000D01*
X85176000Y-62624000D01*
X85178000Y-62622000D01*
X85180000Y-62620000D01*
X85182000Y-62618000D01*
X85184000Y-62616000D01*
X85186000Y-62615000D01*
X85188000Y-62613000D01*
X85190000Y-62612000D01*
X85192000Y-62610000D01*
X85195000Y-62609000D01*
X85197000Y-62608000D01*
X85200000Y-62607000D01*
X85202000Y-62607000D01*
X85205000Y-62606000D01*
X85207000Y-62606000D01*
X85210000Y-62605000D01*
X85212000Y-62605000D01*
X85215000Y-62605000D01*
X85505000Y-62605000D01*
X85508000Y-62605000D01*
X85510000Y-62605000D01*
X85513000Y-62606000D01*
G36*
X85513000Y-62606000D02*
G01*
X85515000Y-62606000D01*
X85518000Y-62607000D01*
X85520000Y-62607000D01*
X85523000Y-62608000D01*
X85525000Y-62609000D01*
X85528000Y-62610000D01*
X85530000Y-62612000D01*
X85532000Y-62613000D01*
X85534000Y-62615000D01*
X85536000Y-62616000D01*
X85538000Y-62618000D01*
X85540000Y-62620000D01*
X85542000Y-62622000D01*
X85544000Y-62624000D01*
X85545000Y-62626000D01*
X85547000Y-62628000D01*
X85548000Y-62630000D01*
X85550000Y-62632000D01*
X85551000Y-62635000D01*
X85552000Y-62637000D01*
X85553000Y-62640000D01*
X85553000Y-62642000D01*
X85554000Y-62645000D01*
X85554000Y-62647000D01*
X85555000Y-62650000D01*
X85555000Y-62652000D01*
X85555000Y-62655000D01*
X85555000Y-63295000D01*
X85555000Y-63298000D01*
X85555000Y-63300000D01*
X85554000Y-63303000D01*
X85554000Y-63305000D01*
X85553000Y-63308000D01*
X85553000Y-63310000D01*
X85552000Y-63313000D01*
X85551000Y-63315000D01*
X85550000Y-63318000D01*
X85548000Y-63320000D01*
X85547000Y-63322000D01*
X85545000Y-63324000D01*
X85544000Y-63326000D01*
X85542000Y-63328000D01*
X85540000Y-63330000D01*
X85538000Y-63332000D01*
X85536000Y-63334000D01*
X85534000Y-63335000D01*
X85532000Y-63337000D01*
X85530000Y-63338000D01*
X85528000Y-63340000D01*
X85525000Y-63341000D01*
X85523000Y-63342000D01*
X85520000Y-63343000D01*
X85518000Y-63343000D01*
X85515000Y-63344000D01*
X85513000Y-63344000D01*
X85510000Y-63345000D01*
X85508000Y-63345000D01*
X85505000Y-63345000D01*
X85215000Y-63345000D01*
X85212000Y-63345000D01*
X85210000Y-63345000D01*
X85207000Y-63344000D01*
X85205000Y-63344000D01*
X85202000Y-63343000D01*
X85200000Y-63343000D01*
X85197000Y-63342000D01*
X85195000Y-63341000D01*
X85192000Y-63340000D01*
X85190000Y-63338000D01*
X85188000Y-63337000D01*
X85186000Y-63335000D01*
X85184000Y-63334000D01*
X85182000Y-63332000D01*
X85180000Y-63330000D01*
X85178000Y-63328000D01*
X85176000Y-63326000D01*
X85175000Y-63324000D01*
X85173000Y-63322000D01*
X85172000Y-63320000D01*
X85170000Y-63318000D01*
X85169000Y-63315000D01*
X85168000Y-63313000D01*
X85167000Y-63310000D01*
X85167000Y-63308000D01*
X85166000Y-63305000D01*
X85166000Y-63303000D01*
X85165000Y-63300000D01*
X85165000Y-63298000D01*
X85165000Y-63295000D01*
X85165000Y-62655000D01*
X85165000Y-62652000D01*
X85165000Y-62650000D01*
X85166000Y-62647000D01*
X85166000Y-62645000D01*
X85167000Y-62642000D01*
X85167000Y-62640000D01*
X85168000Y-62637000D01*
X85169000Y-62635000D01*
X85170000Y-62632000D01*
X85172000Y-62630000D01*
X85173000Y-62628000D01*
X85175000Y-62626000D01*
X85176000Y-62624000D01*
X85178000Y-62622000D01*
X85180000Y-62620000D01*
X85182000Y-62618000D01*
X85184000Y-62616000D01*
X85186000Y-62615000D01*
X85188000Y-62613000D01*
X85190000Y-62612000D01*
X85192000Y-62610000D01*
X85195000Y-62609000D01*
X85197000Y-62608000D01*
X85200000Y-62607000D01*
X85202000Y-62607000D01*
X85205000Y-62606000D01*
X85207000Y-62606000D01*
X85210000Y-62605000D01*
X85212000Y-62605000D01*
X85215000Y-62605000D01*
X85505000Y-62605000D01*
X85508000Y-62605000D01*
X85510000Y-62605000D01*
X85513000Y-62606000D01*
G37*
X85513000Y-67406000D02*
X85515000Y-67406000D01*
X85518000Y-67407000D01*
X85520000Y-67407000D01*
X85523000Y-67408000D01*
X85525000Y-67409000D01*
X85528000Y-67410000D01*
X85530000Y-67412000D01*
X85532000Y-67413000D01*
X85534000Y-67415000D01*
X85536000Y-67416000D01*
X85538000Y-67418000D01*
X85540000Y-67420000D01*
X85542000Y-67422000D01*
X85544000Y-67424000D01*
X85545000Y-67426000D01*
X85547000Y-67428000D01*
X85548000Y-67430000D01*
X85550000Y-67432000D01*
X85551000Y-67435000D01*
X85552000Y-67437000D01*
X85553000Y-67440000D01*
X85553000Y-67442000D01*
X85554000Y-67445000D01*
X85554000Y-67447000D01*
X85555000Y-67450000D01*
X85555000Y-67452000D01*
X85555000Y-67455000D01*
X85555000Y-68095000D01*
X85555000Y-68098000D01*
X85555000Y-68100000D01*
X85554000Y-68103000D01*
X85554000Y-68105000D01*
X85553000Y-68108000D01*
X85553000Y-68110000D01*
X85552000Y-68113000D01*
X85551000Y-68115000D01*
X85550000Y-68118000D01*
X85548000Y-68120000D01*
X85547000Y-68122000D01*
X85545000Y-68124000D01*
X85544000Y-68126000D01*
X85542000Y-68128000D01*
X85540000Y-68130000D01*
X85538000Y-68132000D01*
X85536000Y-68134000D01*
X85534000Y-68135000D01*
X85532000Y-68137000D01*
X85530000Y-68138000D01*
X85528000Y-68140000D01*
X85525000Y-68141000D01*
X85523000Y-68142000D01*
X85520000Y-68143000D01*
X85518000Y-68143000D01*
X85515000Y-68144000D01*
X85513000Y-68144000D01*
X85510000Y-68145000D01*
X85508000Y-68145000D01*
X85505000Y-68145000D01*
X85215000Y-68145000D01*
X85212000Y-68145000D01*
X85210000Y-68145000D01*
X85207000Y-68144000D01*
X85205000Y-68144000D01*
X85202000Y-68143000D01*
X85200000Y-68143000D01*
X85197000Y-68142000D01*
X85195000Y-68141000D01*
X85192000Y-68140000D01*
X85190000Y-68138000D01*
X85188000Y-68137000D01*
X85186000Y-68135000D01*
X85184000Y-68134000D01*
X85182000Y-68132000D01*
X85180000Y-68130000D01*
X85178000Y-68128000D01*
X85176000Y-68126000D01*
X85175000Y-68124000D01*
X85173000Y-68122000D01*
X85172000Y-68120000D01*
X85170000Y-68118000D01*
X85169000Y-68115000D01*
X85168000Y-68113000D01*
X85167000Y-68110000D01*
X85167000Y-68108000D01*
X85166000Y-68105000D01*
X85166000Y-68103000D01*
X85165000Y-68100000D01*
X85165000Y-68098000D01*
X85165000Y-68095000D01*
X85165000Y-67455000D01*
X85165000Y-67452000D01*
X85165000Y-67450000D01*
X85166000Y-67447000D01*
X85166000Y-67445000D01*
X85167000Y-67442000D01*
X85167000Y-67440000D01*
X85168000Y-67437000D01*
X85169000Y-67435000D01*
X85170000Y-67432000D01*
X85172000Y-67430000D01*
X85173000Y-67428000D01*
X85175000Y-67426000D01*
X85176000Y-67424000D01*
X85178000Y-67422000D01*
X85180000Y-67420000D01*
X85182000Y-67418000D01*
X85184000Y-67416000D01*
X85186000Y-67415000D01*
X85188000Y-67413000D01*
X85190000Y-67412000D01*
X85192000Y-67410000D01*
X85195000Y-67409000D01*
X85197000Y-67408000D01*
X85200000Y-67407000D01*
X85202000Y-67407000D01*
X85205000Y-67406000D01*
X85207000Y-67406000D01*
X85210000Y-67405000D01*
X85212000Y-67405000D01*
X85215000Y-67405000D01*
X85505000Y-67405000D01*
X85508000Y-67405000D01*
X85510000Y-67405000D01*
X85513000Y-67406000D01*
G36*
X85513000Y-67406000D02*
G01*
X85515000Y-67406000D01*
X85518000Y-67407000D01*
X85520000Y-67407000D01*
X85523000Y-67408000D01*
X85525000Y-67409000D01*
X85528000Y-67410000D01*
X85530000Y-67412000D01*
X85532000Y-67413000D01*
X85534000Y-67415000D01*
X85536000Y-67416000D01*
X85538000Y-67418000D01*
X85540000Y-67420000D01*
X85542000Y-67422000D01*
X85544000Y-67424000D01*
X85545000Y-67426000D01*
X85547000Y-67428000D01*
X85548000Y-67430000D01*
X85550000Y-67432000D01*
X85551000Y-67435000D01*
X85552000Y-67437000D01*
X85553000Y-67440000D01*
X85553000Y-67442000D01*
X85554000Y-67445000D01*
X85554000Y-67447000D01*
X85555000Y-67450000D01*
X85555000Y-67452000D01*
X85555000Y-67455000D01*
X85555000Y-68095000D01*
X85555000Y-68098000D01*
X85555000Y-68100000D01*
X85554000Y-68103000D01*
X85554000Y-68105000D01*
X85553000Y-68108000D01*
X85553000Y-68110000D01*
X85552000Y-68113000D01*
X85551000Y-68115000D01*
X85550000Y-68118000D01*
X85548000Y-68120000D01*
X85547000Y-68122000D01*
X85545000Y-68124000D01*
X85544000Y-68126000D01*
X85542000Y-68128000D01*
X85540000Y-68130000D01*
X85538000Y-68132000D01*
X85536000Y-68134000D01*
X85534000Y-68135000D01*
X85532000Y-68137000D01*
X85530000Y-68138000D01*
X85528000Y-68140000D01*
X85525000Y-68141000D01*
X85523000Y-68142000D01*
X85520000Y-68143000D01*
X85518000Y-68143000D01*
X85515000Y-68144000D01*
X85513000Y-68144000D01*
X85510000Y-68145000D01*
X85508000Y-68145000D01*
X85505000Y-68145000D01*
X85215000Y-68145000D01*
X85212000Y-68145000D01*
X85210000Y-68145000D01*
X85207000Y-68144000D01*
X85205000Y-68144000D01*
X85202000Y-68143000D01*
X85200000Y-68143000D01*
X85197000Y-68142000D01*
X85195000Y-68141000D01*
X85192000Y-68140000D01*
X85190000Y-68138000D01*
X85188000Y-68137000D01*
X85186000Y-68135000D01*
X85184000Y-68134000D01*
X85182000Y-68132000D01*
X85180000Y-68130000D01*
X85178000Y-68128000D01*
X85176000Y-68126000D01*
X85175000Y-68124000D01*
X85173000Y-68122000D01*
X85172000Y-68120000D01*
X85170000Y-68118000D01*
X85169000Y-68115000D01*
X85168000Y-68113000D01*
X85167000Y-68110000D01*
X85167000Y-68108000D01*
X85166000Y-68105000D01*
X85166000Y-68103000D01*
X85165000Y-68100000D01*
X85165000Y-68098000D01*
X85165000Y-68095000D01*
X85165000Y-67455000D01*
X85165000Y-67452000D01*
X85165000Y-67450000D01*
X85166000Y-67447000D01*
X85166000Y-67445000D01*
X85167000Y-67442000D01*
X85167000Y-67440000D01*
X85168000Y-67437000D01*
X85169000Y-67435000D01*
X85170000Y-67432000D01*
X85172000Y-67430000D01*
X85173000Y-67428000D01*
X85175000Y-67426000D01*
X85176000Y-67424000D01*
X85178000Y-67422000D01*
X85180000Y-67420000D01*
X85182000Y-67418000D01*
X85184000Y-67416000D01*
X85186000Y-67415000D01*
X85188000Y-67413000D01*
X85190000Y-67412000D01*
X85192000Y-67410000D01*
X85195000Y-67409000D01*
X85197000Y-67408000D01*
X85200000Y-67407000D01*
X85202000Y-67407000D01*
X85205000Y-67406000D01*
X85207000Y-67406000D01*
X85210000Y-67405000D01*
X85212000Y-67405000D01*
X85215000Y-67405000D01*
X85505000Y-67405000D01*
X85508000Y-67405000D01*
X85510000Y-67405000D01*
X85513000Y-67406000D01*
G37*
X86013000Y-62606000D02*
X86015000Y-62606000D01*
X86018000Y-62607000D01*
X86020000Y-62607000D01*
X86023000Y-62608000D01*
X86025000Y-62609000D01*
X86028000Y-62610000D01*
X86030000Y-62612000D01*
X86032000Y-62613000D01*
X86034000Y-62615000D01*
X86036000Y-62616000D01*
X86038000Y-62618000D01*
X86040000Y-62620000D01*
X86042000Y-62622000D01*
X86044000Y-62624000D01*
X86045000Y-62626000D01*
X86047000Y-62628000D01*
X86048000Y-62630000D01*
X86050000Y-62632000D01*
X86051000Y-62635000D01*
X86052000Y-62637000D01*
X86053000Y-62640000D01*
X86053000Y-62642000D01*
X86054000Y-62645000D01*
X86054000Y-62647000D01*
X86055000Y-62650000D01*
X86055000Y-62652000D01*
X86055000Y-62655000D01*
X86055000Y-63295000D01*
X86055000Y-63298000D01*
X86055000Y-63300000D01*
X86054000Y-63303000D01*
X86054000Y-63305000D01*
X86053000Y-63308000D01*
X86053000Y-63310000D01*
X86052000Y-63313000D01*
X86051000Y-63315000D01*
X86050000Y-63318000D01*
X86048000Y-63320000D01*
X86047000Y-63322000D01*
X86045000Y-63324000D01*
X86044000Y-63326000D01*
X86042000Y-63328000D01*
X86040000Y-63330000D01*
X86038000Y-63332000D01*
X86036000Y-63334000D01*
X86034000Y-63335000D01*
X86032000Y-63337000D01*
X86030000Y-63338000D01*
X86028000Y-63340000D01*
X86025000Y-63341000D01*
X86023000Y-63342000D01*
X86020000Y-63343000D01*
X86018000Y-63343000D01*
X86015000Y-63344000D01*
X86013000Y-63344000D01*
X86010000Y-63345000D01*
X86008000Y-63345000D01*
X86005000Y-63345000D01*
X85715000Y-63345000D01*
X85712000Y-63345000D01*
X85710000Y-63345000D01*
X85707000Y-63344000D01*
X85705000Y-63344000D01*
X85702000Y-63343000D01*
X85700000Y-63343000D01*
X85697000Y-63342000D01*
X85695000Y-63341000D01*
X85692000Y-63340000D01*
X85690000Y-63338000D01*
X85688000Y-63337000D01*
X85686000Y-63335000D01*
X85684000Y-63334000D01*
X85682000Y-63332000D01*
X85680000Y-63330000D01*
X85678000Y-63328000D01*
X85676000Y-63326000D01*
X85675000Y-63324000D01*
X85673000Y-63322000D01*
X85672000Y-63320000D01*
X85670000Y-63318000D01*
X85669000Y-63315000D01*
X85668000Y-63313000D01*
X85667000Y-63310000D01*
X85667000Y-63308000D01*
X85666000Y-63305000D01*
X85666000Y-63303000D01*
X85665000Y-63300000D01*
X85665000Y-63298000D01*
X85665000Y-63295000D01*
X85665000Y-62655000D01*
X85665000Y-62652000D01*
X85665000Y-62650000D01*
X85666000Y-62647000D01*
X85666000Y-62645000D01*
X85667000Y-62642000D01*
X85667000Y-62640000D01*
X85668000Y-62637000D01*
X85669000Y-62635000D01*
X85670000Y-62632000D01*
X85672000Y-62630000D01*
X85673000Y-62628000D01*
X85675000Y-62626000D01*
X85676000Y-62624000D01*
X85678000Y-62622000D01*
X85680000Y-62620000D01*
X85682000Y-62618000D01*
X85684000Y-62616000D01*
X85686000Y-62615000D01*
X85688000Y-62613000D01*
X85690000Y-62612000D01*
X85692000Y-62610000D01*
X85695000Y-62609000D01*
X85697000Y-62608000D01*
X85700000Y-62607000D01*
X85702000Y-62607000D01*
X85705000Y-62606000D01*
X85707000Y-62606000D01*
X85710000Y-62605000D01*
X85712000Y-62605000D01*
X85715000Y-62605000D01*
X86005000Y-62605000D01*
X86008000Y-62605000D01*
X86010000Y-62605000D01*
X86013000Y-62606000D01*
G36*
X86013000Y-62606000D02*
G01*
X86015000Y-62606000D01*
X86018000Y-62607000D01*
X86020000Y-62607000D01*
X86023000Y-62608000D01*
X86025000Y-62609000D01*
X86028000Y-62610000D01*
X86030000Y-62612000D01*
X86032000Y-62613000D01*
X86034000Y-62615000D01*
X86036000Y-62616000D01*
X86038000Y-62618000D01*
X86040000Y-62620000D01*
X86042000Y-62622000D01*
X86044000Y-62624000D01*
X86045000Y-62626000D01*
X86047000Y-62628000D01*
X86048000Y-62630000D01*
X86050000Y-62632000D01*
X86051000Y-62635000D01*
X86052000Y-62637000D01*
X86053000Y-62640000D01*
X86053000Y-62642000D01*
X86054000Y-62645000D01*
X86054000Y-62647000D01*
X86055000Y-62650000D01*
X86055000Y-62652000D01*
X86055000Y-62655000D01*
X86055000Y-63295000D01*
X86055000Y-63298000D01*
X86055000Y-63300000D01*
X86054000Y-63303000D01*
X86054000Y-63305000D01*
X86053000Y-63308000D01*
X86053000Y-63310000D01*
X86052000Y-63313000D01*
X86051000Y-63315000D01*
X86050000Y-63318000D01*
X86048000Y-63320000D01*
X86047000Y-63322000D01*
X86045000Y-63324000D01*
X86044000Y-63326000D01*
X86042000Y-63328000D01*
X86040000Y-63330000D01*
X86038000Y-63332000D01*
X86036000Y-63334000D01*
X86034000Y-63335000D01*
X86032000Y-63337000D01*
X86030000Y-63338000D01*
X86028000Y-63340000D01*
X86025000Y-63341000D01*
X86023000Y-63342000D01*
X86020000Y-63343000D01*
X86018000Y-63343000D01*
X86015000Y-63344000D01*
X86013000Y-63344000D01*
X86010000Y-63345000D01*
X86008000Y-63345000D01*
X86005000Y-63345000D01*
X85715000Y-63345000D01*
X85712000Y-63345000D01*
X85710000Y-63345000D01*
X85707000Y-63344000D01*
X85705000Y-63344000D01*
X85702000Y-63343000D01*
X85700000Y-63343000D01*
X85697000Y-63342000D01*
X85695000Y-63341000D01*
X85692000Y-63340000D01*
X85690000Y-63338000D01*
X85688000Y-63337000D01*
X85686000Y-63335000D01*
X85684000Y-63334000D01*
X85682000Y-63332000D01*
X85680000Y-63330000D01*
X85678000Y-63328000D01*
X85676000Y-63326000D01*
X85675000Y-63324000D01*
X85673000Y-63322000D01*
X85672000Y-63320000D01*
X85670000Y-63318000D01*
X85669000Y-63315000D01*
X85668000Y-63313000D01*
X85667000Y-63310000D01*
X85667000Y-63308000D01*
X85666000Y-63305000D01*
X85666000Y-63303000D01*
X85665000Y-63300000D01*
X85665000Y-63298000D01*
X85665000Y-63295000D01*
X85665000Y-62655000D01*
X85665000Y-62652000D01*
X85665000Y-62650000D01*
X85666000Y-62647000D01*
X85666000Y-62645000D01*
X85667000Y-62642000D01*
X85667000Y-62640000D01*
X85668000Y-62637000D01*
X85669000Y-62635000D01*
X85670000Y-62632000D01*
X85672000Y-62630000D01*
X85673000Y-62628000D01*
X85675000Y-62626000D01*
X85676000Y-62624000D01*
X85678000Y-62622000D01*
X85680000Y-62620000D01*
X85682000Y-62618000D01*
X85684000Y-62616000D01*
X85686000Y-62615000D01*
X85688000Y-62613000D01*
X85690000Y-62612000D01*
X85692000Y-62610000D01*
X85695000Y-62609000D01*
X85697000Y-62608000D01*
X85700000Y-62607000D01*
X85702000Y-62607000D01*
X85705000Y-62606000D01*
X85707000Y-62606000D01*
X85710000Y-62605000D01*
X85712000Y-62605000D01*
X85715000Y-62605000D01*
X86005000Y-62605000D01*
X86008000Y-62605000D01*
X86010000Y-62605000D01*
X86013000Y-62606000D01*
G37*
X86013000Y-67406000D02*
X86015000Y-67406000D01*
X86018000Y-67407000D01*
X86020000Y-67407000D01*
X86023000Y-67408000D01*
X86025000Y-67409000D01*
X86028000Y-67410000D01*
X86030000Y-67412000D01*
X86032000Y-67413000D01*
X86034000Y-67415000D01*
X86036000Y-67416000D01*
X86038000Y-67418000D01*
X86040000Y-67420000D01*
X86042000Y-67422000D01*
X86044000Y-67424000D01*
X86045000Y-67426000D01*
X86047000Y-67428000D01*
X86048000Y-67430000D01*
X86050000Y-67432000D01*
X86051000Y-67435000D01*
X86052000Y-67437000D01*
X86053000Y-67440000D01*
X86053000Y-67442000D01*
X86054000Y-67445000D01*
X86054000Y-67447000D01*
X86055000Y-67450000D01*
X86055000Y-67452000D01*
X86055000Y-67455000D01*
X86055000Y-68095000D01*
X86055000Y-68098000D01*
X86055000Y-68100000D01*
X86054000Y-68103000D01*
X86054000Y-68105000D01*
X86053000Y-68108000D01*
X86053000Y-68110000D01*
X86052000Y-68113000D01*
X86051000Y-68115000D01*
X86050000Y-68118000D01*
X86048000Y-68120000D01*
X86047000Y-68122000D01*
X86045000Y-68124000D01*
X86044000Y-68126000D01*
X86042000Y-68128000D01*
X86040000Y-68130000D01*
X86038000Y-68132000D01*
X86036000Y-68134000D01*
X86034000Y-68135000D01*
X86032000Y-68137000D01*
X86030000Y-68138000D01*
X86028000Y-68140000D01*
X86025000Y-68141000D01*
X86023000Y-68142000D01*
X86020000Y-68143000D01*
X86018000Y-68143000D01*
X86015000Y-68144000D01*
X86013000Y-68144000D01*
X86010000Y-68145000D01*
X86008000Y-68145000D01*
X86005000Y-68145000D01*
X85715000Y-68145000D01*
X85712000Y-68145000D01*
X85710000Y-68145000D01*
X85707000Y-68144000D01*
X85705000Y-68144000D01*
X85702000Y-68143000D01*
X85700000Y-68143000D01*
X85697000Y-68142000D01*
X85695000Y-68141000D01*
X85692000Y-68140000D01*
X85690000Y-68138000D01*
X85688000Y-68137000D01*
X85686000Y-68135000D01*
X85684000Y-68134000D01*
X85682000Y-68132000D01*
X85680000Y-68130000D01*
X85678000Y-68128000D01*
X85676000Y-68126000D01*
X85675000Y-68124000D01*
X85673000Y-68122000D01*
X85672000Y-68120000D01*
X85670000Y-68118000D01*
X85669000Y-68115000D01*
X85668000Y-68113000D01*
X85667000Y-68110000D01*
X85667000Y-68108000D01*
X85666000Y-68105000D01*
X85666000Y-68103000D01*
X85665000Y-68100000D01*
X85665000Y-68098000D01*
X85665000Y-68095000D01*
X85665000Y-67455000D01*
X85665000Y-67452000D01*
X85665000Y-67450000D01*
X85666000Y-67447000D01*
X85666000Y-67445000D01*
X85667000Y-67442000D01*
X85667000Y-67440000D01*
X85668000Y-67437000D01*
X85669000Y-67435000D01*
X85670000Y-67432000D01*
X85672000Y-67430000D01*
X85673000Y-67428000D01*
X85675000Y-67426000D01*
X85676000Y-67424000D01*
X85678000Y-67422000D01*
X85680000Y-67420000D01*
X85682000Y-67418000D01*
X85684000Y-67416000D01*
X85686000Y-67415000D01*
X85688000Y-67413000D01*
X85690000Y-67412000D01*
X85692000Y-67410000D01*
X85695000Y-67409000D01*
X85697000Y-67408000D01*
X85700000Y-67407000D01*
X85702000Y-67407000D01*
X85705000Y-67406000D01*
X85707000Y-67406000D01*
X85710000Y-67405000D01*
X85712000Y-67405000D01*
X85715000Y-67405000D01*
X86005000Y-67405000D01*
X86008000Y-67405000D01*
X86010000Y-67405000D01*
X86013000Y-67406000D01*
G36*
X86013000Y-67406000D02*
G01*
X86015000Y-67406000D01*
X86018000Y-67407000D01*
X86020000Y-67407000D01*
X86023000Y-67408000D01*
X86025000Y-67409000D01*
X86028000Y-67410000D01*
X86030000Y-67412000D01*
X86032000Y-67413000D01*
X86034000Y-67415000D01*
X86036000Y-67416000D01*
X86038000Y-67418000D01*
X86040000Y-67420000D01*
X86042000Y-67422000D01*
X86044000Y-67424000D01*
X86045000Y-67426000D01*
X86047000Y-67428000D01*
X86048000Y-67430000D01*
X86050000Y-67432000D01*
X86051000Y-67435000D01*
X86052000Y-67437000D01*
X86053000Y-67440000D01*
X86053000Y-67442000D01*
X86054000Y-67445000D01*
X86054000Y-67447000D01*
X86055000Y-67450000D01*
X86055000Y-67452000D01*
X86055000Y-67455000D01*
X86055000Y-68095000D01*
X86055000Y-68098000D01*
X86055000Y-68100000D01*
X86054000Y-68103000D01*
X86054000Y-68105000D01*
X86053000Y-68108000D01*
X86053000Y-68110000D01*
X86052000Y-68113000D01*
X86051000Y-68115000D01*
X86050000Y-68118000D01*
X86048000Y-68120000D01*
X86047000Y-68122000D01*
X86045000Y-68124000D01*
X86044000Y-68126000D01*
X86042000Y-68128000D01*
X86040000Y-68130000D01*
X86038000Y-68132000D01*
X86036000Y-68134000D01*
X86034000Y-68135000D01*
X86032000Y-68137000D01*
X86030000Y-68138000D01*
X86028000Y-68140000D01*
X86025000Y-68141000D01*
X86023000Y-68142000D01*
X86020000Y-68143000D01*
X86018000Y-68143000D01*
X86015000Y-68144000D01*
X86013000Y-68144000D01*
X86010000Y-68145000D01*
X86008000Y-68145000D01*
X86005000Y-68145000D01*
X85715000Y-68145000D01*
X85712000Y-68145000D01*
X85710000Y-68145000D01*
X85707000Y-68144000D01*
X85705000Y-68144000D01*
X85702000Y-68143000D01*
X85700000Y-68143000D01*
X85697000Y-68142000D01*
X85695000Y-68141000D01*
X85692000Y-68140000D01*
X85690000Y-68138000D01*
X85688000Y-68137000D01*
X85686000Y-68135000D01*
X85684000Y-68134000D01*
X85682000Y-68132000D01*
X85680000Y-68130000D01*
X85678000Y-68128000D01*
X85676000Y-68126000D01*
X85675000Y-68124000D01*
X85673000Y-68122000D01*
X85672000Y-68120000D01*
X85670000Y-68118000D01*
X85669000Y-68115000D01*
X85668000Y-68113000D01*
X85667000Y-68110000D01*
X85667000Y-68108000D01*
X85666000Y-68105000D01*
X85666000Y-68103000D01*
X85665000Y-68100000D01*
X85665000Y-68098000D01*
X85665000Y-68095000D01*
X85665000Y-67455000D01*
X85665000Y-67452000D01*
X85665000Y-67450000D01*
X85666000Y-67447000D01*
X85666000Y-67445000D01*
X85667000Y-67442000D01*
X85667000Y-67440000D01*
X85668000Y-67437000D01*
X85669000Y-67435000D01*
X85670000Y-67432000D01*
X85672000Y-67430000D01*
X85673000Y-67428000D01*
X85675000Y-67426000D01*
X85676000Y-67424000D01*
X85678000Y-67422000D01*
X85680000Y-67420000D01*
X85682000Y-67418000D01*
X85684000Y-67416000D01*
X85686000Y-67415000D01*
X85688000Y-67413000D01*
X85690000Y-67412000D01*
X85692000Y-67410000D01*
X85695000Y-67409000D01*
X85697000Y-67408000D01*
X85700000Y-67407000D01*
X85702000Y-67407000D01*
X85705000Y-67406000D01*
X85707000Y-67406000D01*
X85710000Y-67405000D01*
X85712000Y-67405000D01*
X85715000Y-67405000D01*
X86005000Y-67405000D01*
X86008000Y-67405000D01*
X86010000Y-67405000D01*
X86013000Y-67406000D01*
G37*
X86838000Y-63431000D02*
X86840000Y-63431000D01*
X86843000Y-63432000D01*
X86845000Y-63432000D01*
X86848000Y-63433000D01*
X86850000Y-63434000D01*
X86853000Y-63435000D01*
X86855000Y-63437000D01*
X86857000Y-63438000D01*
X86859000Y-63440000D01*
X86861000Y-63441000D01*
X86863000Y-63443000D01*
X86865000Y-63445000D01*
X86867000Y-63447000D01*
X86869000Y-63449000D01*
X86870000Y-63451000D01*
X86872000Y-63453000D01*
X86873000Y-63455000D01*
X86875000Y-63457000D01*
X86876000Y-63460000D01*
X86877000Y-63462000D01*
X86878000Y-63465000D01*
X86878000Y-63467000D01*
X86879000Y-63470000D01*
X86879000Y-63472000D01*
X86880000Y-63475000D01*
X86880000Y-63477000D01*
X86880000Y-63480000D01*
X86880000Y-63770000D01*
X86880000Y-63773000D01*
X86880000Y-63775000D01*
X86879000Y-63778000D01*
X86879000Y-63780000D01*
X86878000Y-63783000D01*
X86878000Y-63785000D01*
X86877000Y-63788000D01*
X86876000Y-63790000D01*
X86875000Y-63793000D01*
X86873000Y-63795000D01*
X86872000Y-63797000D01*
X86870000Y-63799000D01*
X86869000Y-63801000D01*
X86867000Y-63803000D01*
X86865000Y-63805000D01*
X86863000Y-63807000D01*
X86861000Y-63809000D01*
X86859000Y-63810000D01*
X86857000Y-63812000D01*
X86855000Y-63813000D01*
X86853000Y-63815000D01*
X86850000Y-63816000D01*
X86848000Y-63817000D01*
X86845000Y-63818000D01*
X86843000Y-63818000D01*
X86840000Y-63819000D01*
X86838000Y-63819000D01*
X86835000Y-63820000D01*
X86833000Y-63820000D01*
X86830000Y-63820000D01*
X86190000Y-63820000D01*
X86187000Y-63820000D01*
X86185000Y-63820000D01*
X86182000Y-63819000D01*
X86180000Y-63819000D01*
X86177000Y-63818000D01*
X86175000Y-63818000D01*
X86172000Y-63817000D01*
X86170000Y-63816000D01*
X86167000Y-63815000D01*
X86165000Y-63813000D01*
X86163000Y-63812000D01*
X86161000Y-63810000D01*
X86159000Y-63809000D01*
X86157000Y-63807000D01*
X86155000Y-63805000D01*
X86153000Y-63803000D01*
X86151000Y-63801000D01*
X86150000Y-63799000D01*
X86148000Y-63797000D01*
X86147000Y-63795000D01*
X86145000Y-63793000D01*
X86144000Y-63790000D01*
X86143000Y-63788000D01*
X86142000Y-63785000D01*
X86142000Y-63783000D01*
X86141000Y-63780000D01*
X86141000Y-63778000D01*
X86140000Y-63775000D01*
X86140000Y-63773000D01*
X86140000Y-63770000D01*
X86140000Y-63480000D01*
X86140000Y-63477000D01*
X86140000Y-63475000D01*
X86141000Y-63472000D01*
X86141000Y-63470000D01*
X86142000Y-63467000D01*
X86142000Y-63465000D01*
X86143000Y-63462000D01*
X86144000Y-63460000D01*
X86145000Y-63457000D01*
X86147000Y-63455000D01*
X86148000Y-63453000D01*
X86150000Y-63451000D01*
X86151000Y-63449000D01*
X86153000Y-63447000D01*
X86155000Y-63445000D01*
X86157000Y-63443000D01*
X86159000Y-63441000D01*
X86161000Y-63440000D01*
X86163000Y-63438000D01*
X86165000Y-63437000D01*
X86167000Y-63435000D01*
X86170000Y-63434000D01*
X86172000Y-63433000D01*
X86175000Y-63432000D01*
X86177000Y-63432000D01*
X86180000Y-63431000D01*
X86182000Y-63431000D01*
X86185000Y-63430000D01*
X86187000Y-63430000D01*
X86190000Y-63430000D01*
X86830000Y-63430000D01*
X86833000Y-63430000D01*
X86835000Y-63430000D01*
X86838000Y-63431000D01*
G36*
X86838000Y-63431000D02*
G01*
X86840000Y-63431000D01*
X86843000Y-63432000D01*
X86845000Y-63432000D01*
X86848000Y-63433000D01*
X86850000Y-63434000D01*
X86853000Y-63435000D01*
X86855000Y-63437000D01*
X86857000Y-63438000D01*
X86859000Y-63440000D01*
X86861000Y-63441000D01*
X86863000Y-63443000D01*
X86865000Y-63445000D01*
X86867000Y-63447000D01*
X86869000Y-63449000D01*
X86870000Y-63451000D01*
X86872000Y-63453000D01*
X86873000Y-63455000D01*
X86875000Y-63457000D01*
X86876000Y-63460000D01*
X86877000Y-63462000D01*
X86878000Y-63465000D01*
X86878000Y-63467000D01*
X86879000Y-63470000D01*
X86879000Y-63472000D01*
X86880000Y-63475000D01*
X86880000Y-63477000D01*
X86880000Y-63480000D01*
X86880000Y-63770000D01*
X86880000Y-63773000D01*
X86880000Y-63775000D01*
X86879000Y-63778000D01*
X86879000Y-63780000D01*
X86878000Y-63783000D01*
X86878000Y-63785000D01*
X86877000Y-63788000D01*
X86876000Y-63790000D01*
X86875000Y-63793000D01*
X86873000Y-63795000D01*
X86872000Y-63797000D01*
X86870000Y-63799000D01*
X86869000Y-63801000D01*
X86867000Y-63803000D01*
X86865000Y-63805000D01*
X86863000Y-63807000D01*
X86861000Y-63809000D01*
X86859000Y-63810000D01*
X86857000Y-63812000D01*
X86855000Y-63813000D01*
X86853000Y-63815000D01*
X86850000Y-63816000D01*
X86848000Y-63817000D01*
X86845000Y-63818000D01*
X86843000Y-63818000D01*
X86840000Y-63819000D01*
X86838000Y-63819000D01*
X86835000Y-63820000D01*
X86833000Y-63820000D01*
X86830000Y-63820000D01*
X86190000Y-63820000D01*
X86187000Y-63820000D01*
X86185000Y-63820000D01*
X86182000Y-63819000D01*
X86180000Y-63819000D01*
X86177000Y-63818000D01*
X86175000Y-63818000D01*
X86172000Y-63817000D01*
X86170000Y-63816000D01*
X86167000Y-63815000D01*
X86165000Y-63813000D01*
X86163000Y-63812000D01*
X86161000Y-63810000D01*
X86159000Y-63809000D01*
X86157000Y-63807000D01*
X86155000Y-63805000D01*
X86153000Y-63803000D01*
X86151000Y-63801000D01*
X86150000Y-63799000D01*
X86148000Y-63797000D01*
X86147000Y-63795000D01*
X86145000Y-63793000D01*
X86144000Y-63790000D01*
X86143000Y-63788000D01*
X86142000Y-63785000D01*
X86142000Y-63783000D01*
X86141000Y-63780000D01*
X86141000Y-63778000D01*
X86140000Y-63775000D01*
X86140000Y-63773000D01*
X86140000Y-63770000D01*
X86140000Y-63480000D01*
X86140000Y-63477000D01*
X86140000Y-63475000D01*
X86141000Y-63472000D01*
X86141000Y-63470000D01*
X86142000Y-63467000D01*
X86142000Y-63465000D01*
X86143000Y-63462000D01*
X86144000Y-63460000D01*
X86145000Y-63457000D01*
X86147000Y-63455000D01*
X86148000Y-63453000D01*
X86150000Y-63451000D01*
X86151000Y-63449000D01*
X86153000Y-63447000D01*
X86155000Y-63445000D01*
X86157000Y-63443000D01*
X86159000Y-63441000D01*
X86161000Y-63440000D01*
X86163000Y-63438000D01*
X86165000Y-63437000D01*
X86167000Y-63435000D01*
X86170000Y-63434000D01*
X86172000Y-63433000D01*
X86175000Y-63432000D01*
X86177000Y-63432000D01*
X86180000Y-63431000D01*
X86182000Y-63431000D01*
X86185000Y-63430000D01*
X86187000Y-63430000D01*
X86190000Y-63430000D01*
X86830000Y-63430000D01*
X86833000Y-63430000D01*
X86835000Y-63430000D01*
X86838000Y-63431000D01*
G37*
X86838000Y-63931000D02*
X86840000Y-63931000D01*
X86843000Y-63932000D01*
X86845000Y-63932000D01*
X86848000Y-63933000D01*
X86850000Y-63934000D01*
X86853000Y-63935000D01*
X86855000Y-63937000D01*
X86857000Y-63938000D01*
X86859000Y-63940000D01*
X86861000Y-63941000D01*
X86863000Y-63943000D01*
X86865000Y-63945000D01*
X86867000Y-63947000D01*
X86869000Y-63949000D01*
X86870000Y-63951000D01*
X86872000Y-63953000D01*
X86873000Y-63955000D01*
X86875000Y-63957000D01*
X86876000Y-63960000D01*
X86877000Y-63962000D01*
X86878000Y-63965000D01*
X86878000Y-63967000D01*
X86879000Y-63970000D01*
X86879000Y-63972000D01*
X86880000Y-63975000D01*
X86880000Y-63977000D01*
X86880000Y-63980000D01*
X86880000Y-64270000D01*
X86880000Y-64273000D01*
X86880000Y-64275000D01*
X86879000Y-64278000D01*
X86879000Y-64280000D01*
X86878000Y-64283000D01*
X86878000Y-64285000D01*
X86877000Y-64288000D01*
X86876000Y-64290000D01*
X86875000Y-64293000D01*
X86873000Y-64295000D01*
X86872000Y-64297000D01*
X86870000Y-64299000D01*
X86869000Y-64301000D01*
X86867000Y-64303000D01*
X86865000Y-64305000D01*
X86863000Y-64307000D01*
X86861000Y-64309000D01*
X86859000Y-64310000D01*
X86857000Y-64312000D01*
X86855000Y-64313000D01*
X86853000Y-64315000D01*
X86850000Y-64316000D01*
X86848000Y-64317000D01*
X86845000Y-64318000D01*
X86843000Y-64318000D01*
X86840000Y-64319000D01*
X86838000Y-64319000D01*
X86835000Y-64320000D01*
X86833000Y-64320000D01*
X86830000Y-64320000D01*
X86190000Y-64320000D01*
X86187000Y-64320000D01*
X86185000Y-64320000D01*
X86182000Y-64319000D01*
X86180000Y-64319000D01*
X86177000Y-64318000D01*
X86175000Y-64318000D01*
X86172000Y-64317000D01*
X86170000Y-64316000D01*
X86167000Y-64315000D01*
X86165000Y-64313000D01*
X86163000Y-64312000D01*
X86161000Y-64310000D01*
X86159000Y-64309000D01*
X86157000Y-64307000D01*
X86155000Y-64305000D01*
X86153000Y-64303000D01*
X86151000Y-64301000D01*
X86150000Y-64299000D01*
X86148000Y-64297000D01*
X86147000Y-64295000D01*
X86145000Y-64293000D01*
X86144000Y-64290000D01*
X86143000Y-64288000D01*
X86142000Y-64285000D01*
X86142000Y-64283000D01*
X86141000Y-64280000D01*
X86141000Y-64278000D01*
X86140000Y-64275000D01*
X86140000Y-64273000D01*
X86140000Y-64270000D01*
X86140000Y-63980000D01*
X86140000Y-63977000D01*
X86140000Y-63975000D01*
X86141000Y-63972000D01*
X86141000Y-63970000D01*
X86142000Y-63967000D01*
X86142000Y-63965000D01*
X86143000Y-63962000D01*
X86144000Y-63960000D01*
X86145000Y-63957000D01*
X86147000Y-63955000D01*
X86148000Y-63953000D01*
X86150000Y-63951000D01*
X86151000Y-63949000D01*
X86153000Y-63947000D01*
X86155000Y-63945000D01*
X86157000Y-63943000D01*
X86159000Y-63941000D01*
X86161000Y-63940000D01*
X86163000Y-63938000D01*
X86165000Y-63937000D01*
X86167000Y-63935000D01*
X86170000Y-63934000D01*
X86172000Y-63933000D01*
X86175000Y-63932000D01*
X86177000Y-63932000D01*
X86180000Y-63931000D01*
X86182000Y-63931000D01*
X86185000Y-63930000D01*
X86187000Y-63930000D01*
X86190000Y-63930000D01*
X86830000Y-63930000D01*
X86833000Y-63930000D01*
X86835000Y-63930000D01*
X86838000Y-63931000D01*
G36*
X86838000Y-63931000D02*
G01*
X86840000Y-63931000D01*
X86843000Y-63932000D01*
X86845000Y-63932000D01*
X86848000Y-63933000D01*
X86850000Y-63934000D01*
X86853000Y-63935000D01*
X86855000Y-63937000D01*
X86857000Y-63938000D01*
X86859000Y-63940000D01*
X86861000Y-63941000D01*
X86863000Y-63943000D01*
X86865000Y-63945000D01*
X86867000Y-63947000D01*
X86869000Y-63949000D01*
X86870000Y-63951000D01*
X86872000Y-63953000D01*
X86873000Y-63955000D01*
X86875000Y-63957000D01*
X86876000Y-63960000D01*
X86877000Y-63962000D01*
X86878000Y-63965000D01*
X86878000Y-63967000D01*
X86879000Y-63970000D01*
X86879000Y-63972000D01*
X86880000Y-63975000D01*
X86880000Y-63977000D01*
X86880000Y-63980000D01*
X86880000Y-64270000D01*
X86880000Y-64273000D01*
X86880000Y-64275000D01*
X86879000Y-64278000D01*
X86879000Y-64280000D01*
X86878000Y-64283000D01*
X86878000Y-64285000D01*
X86877000Y-64288000D01*
X86876000Y-64290000D01*
X86875000Y-64293000D01*
X86873000Y-64295000D01*
X86872000Y-64297000D01*
X86870000Y-64299000D01*
X86869000Y-64301000D01*
X86867000Y-64303000D01*
X86865000Y-64305000D01*
X86863000Y-64307000D01*
X86861000Y-64309000D01*
X86859000Y-64310000D01*
X86857000Y-64312000D01*
X86855000Y-64313000D01*
X86853000Y-64315000D01*
X86850000Y-64316000D01*
X86848000Y-64317000D01*
X86845000Y-64318000D01*
X86843000Y-64318000D01*
X86840000Y-64319000D01*
X86838000Y-64319000D01*
X86835000Y-64320000D01*
X86833000Y-64320000D01*
X86830000Y-64320000D01*
X86190000Y-64320000D01*
X86187000Y-64320000D01*
X86185000Y-64320000D01*
X86182000Y-64319000D01*
X86180000Y-64319000D01*
X86177000Y-64318000D01*
X86175000Y-64318000D01*
X86172000Y-64317000D01*
X86170000Y-64316000D01*
X86167000Y-64315000D01*
X86165000Y-64313000D01*
X86163000Y-64312000D01*
X86161000Y-64310000D01*
X86159000Y-64309000D01*
X86157000Y-64307000D01*
X86155000Y-64305000D01*
X86153000Y-64303000D01*
X86151000Y-64301000D01*
X86150000Y-64299000D01*
X86148000Y-64297000D01*
X86147000Y-64295000D01*
X86145000Y-64293000D01*
X86144000Y-64290000D01*
X86143000Y-64288000D01*
X86142000Y-64285000D01*
X86142000Y-64283000D01*
X86141000Y-64280000D01*
X86141000Y-64278000D01*
X86140000Y-64275000D01*
X86140000Y-64273000D01*
X86140000Y-64270000D01*
X86140000Y-63980000D01*
X86140000Y-63977000D01*
X86140000Y-63975000D01*
X86141000Y-63972000D01*
X86141000Y-63970000D01*
X86142000Y-63967000D01*
X86142000Y-63965000D01*
X86143000Y-63962000D01*
X86144000Y-63960000D01*
X86145000Y-63957000D01*
X86147000Y-63955000D01*
X86148000Y-63953000D01*
X86150000Y-63951000D01*
X86151000Y-63949000D01*
X86153000Y-63947000D01*
X86155000Y-63945000D01*
X86157000Y-63943000D01*
X86159000Y-63941000D01*
X86161000Y-63940000D01*
X86163000Y-63938000D01*
X86165000Y-63937000D01*
X86167000Y-63935000D01*
X86170000Y-63934000D01*
X86172000Y-63933000D01*
X86175000Y-63932000D01*
X86177000Y-63932000D01*
X86180000Y-63931000D01*
X86182000Y-63931000D01*
X86185000Y-63930000D01*
X86187000Y-63930000D01*
X86190000Y-63930000D01*
X86830000Y-63930000D01*
X86833000Y-63930000D01*
X86835000Y-63930000D01*
X86838000Y-63931000D01*
G37*
X86838000Y-64431000D02*
X86840000Y-64431000D01*
X86843000Y-64432000D01*
X86845000Y-64432000D01*
X86848000Y-64433000D01*
X86850000Y-64434000D01*
X86853000Y-64435000D01*
X86855000Y-64437000D01*
X86857000Y-64438000D01*
X86859000Y-64440000D01*
X86861000Y-64441000D01*
X86863000Y-64443000D01*
X86865000Y-64445000D01*
X86867000Y-64447000D01*
X86869000Y-64449000D01*
X86870000Y-64451000D01*
X86872000Y-64453000D01*
X86873000Y-64455000D01*
X86875000Y-64457000D01*
X86876000Y-64460000D01*
X86877000Y-64462000D01*
X86878000Y-64465000D01*
X86878000Y-64467000D01*
X86879000Y-64470000D01*
X86879000Y-64472000D01*
X86880000Y-64475000D01*
X86880000Y-64477000D01*
X86880000Y-64480000D01*
X86880000Y-64770000D01*
X86880000Y-64773000D01*
X86880000Y-64775000D01*
X86879000Y-64778000D01*
X86879000Y-64780000D01*
X86878000Y-64783000D01*
X86878000Y-64785000D01*
X86877000Y-64788000D01*
X86876000Y-64790000D01*
X86875000Y-64793000D01*
X86873000Y-64795000D01*
X86872000Y-64797000D01*
X86870000Y-64799000D01*
X86869000Y-64801000D01*
X86867000Y-64803000D01*
X86865000Y-64805000D01*
X86863000Y-64807000D01*
X86861000Y-64809000D01*
X86859000Y-64810000D01*
X86857000Y-64812000D01*
X86855000Y-64813000D01*
X86853000Y-64815000D01*
X86850000Y-64816000D01*
X86848000Y-64817000D01*
X86845000Y-64818000D01*
X86843000Y-64818000D01*
X86840000Y-64819000D01*
X86838000Y-64819000D01*
X86835000Y-64820000D01*
X86833000Y-64820000D01*
X86830000Y-64820000D01*
X86190000Y-64820000D01*
X86187000Y-64820000D01*
X86185000Y-64820000D01*
X86182000Y-64819000D01*
X86180000Y-64819000D01*
X86177000Y-64818000D01*
X86175000Y-64818000D01*
X86172000Y-64817000D01*
X86170000Y-64816000D01*
X86167000Y-64815000D01*
X86165000Y-64813000D01*
X86163000Y-64812000D01*
X86161000Y-64810000D01*
X86159000Y-64809000D01*
X86157000Y-64807000D01*
X86155000Y-64805000D01*
X86153000Y-64803000D01*
X86151000Y-64801000D01*
X86150000Y-64799000D01*
X86148000Y-64797000D01*
X86147000Y-64795000D01*
X86145000Y-64793000D01*
X86144000Y-64790000D01*
X86143000Y-64788000D01*
X86142000Y-64785000D01*
X86142000Y-64783000D01*
X86141000Y-64780000D01*
X86141000Y-64778000D01*
X86140000Y-64775000D01*
X86140000Y-64773000D01*
X86140000Y-64770000D01*
X86140000Y-64480000D01*
X86140000Y-64477000D01*
X86140000Y-64475000D01*
X86141000Y-64472000D01*
X86141000Y-64470000D01*
X86142000Y-64467000D01*
X86142000Y-64465000D01*
X86143000Y-64462000D01*
X86144000Y-64460000D01*
X86145000Y-64457000D01*
X86147000Y-64455000D01*
X86148000Y-64453000D01*
X86150000Y-64451000D01*
X86151000Y-64449000D01*
X86153000Y-64447000D01*
X86155000Y-64445000D01*
X86157000Y-64443000D01*
X86159000Y-64441000D01*
X86161000Y-64440000D01*
X86163000Y-64438000D01*
X86165000Y-64437000D01*
X86167000Y-64435000D01*
X86170000Y-64434000D01*
X86172000Y-64433000D01*
X86175000Y-64432000D01*
X86177000Y-64432000D01*
X86180000Y-64431000D01*
X86182000Y-64431000D01*
X86185000Y-64430000D01*
X86187000Y-64430000D01*
X86190000Y-64430000D01*
X86830000Y-64430000D01*
X86833000Y-64430000D01*
X86835000Y-64430000D01*
X86838000Y-64431000D01*
G36*
X86838000Y-64431000D02*
G01*
X86840000Y-64431000D01*
X86843000Y-64432000D01*
X86845000Y-64432000D01*
X86848000Y-64433000D01*
X86850000Y-64434000D01*
X86853000Y-64435000D01*
X86855000Y-64437000D01*
X86857000Y-64438000D01*
X86859000Y-64440000D01*
X86861000Y-64441000D01*
X86863000Y-64443000D01*
X86865000Y-64445000D01*
X86867000Y-64447000D01*
X86869000Y-64449000D01*
X86870000Y-64451000D01*
X86872000Y-64453000D01*
X86873000Y-64455000D01*
X86875000Y-64457000D01*
X86876000Y-64460000D01*
X86877000Y-64462000D01*
X86878000Y-64465000D01*
X86878000Y-64467000D01*
X86879000Y-64470000D01*
X86879000Y-64472000D01*
X86880000Y-64475000D01*
X86880000Y-64477000D01*
X86880000Y-64480000D01*
X86880000Y-64770000D01*
X86880000Y-64773000D01*
X86880000Y-64775000D01*
X86879000Y-64778000D01*
X86879000Y-64780000D01*
X86878000Y-64783000D01*
X86878000Y-64785000D01*
X86877000Y-64788000D01*
X86876000Y-64790000D01*
X86875000Y-64793000D01*
X86873000Y-64795000D01*
X86872000Y-64797000D01*
X86870000Y-64799000D01*
X86869000Y-64801000D01*
X86867000Y-64803000D01*
X86865000Y-64805000D01*
X86863000Y-64807000D01*
X86861000Y-64809000D01*
X86859000Y-64810000D01*
X86857000Y-64812000D01*
X86855000Y-64813000D01*
X86853000Y-64815000D01*
X86850000Y-64816000D01*
X86848000Y-64817000D01*
X86845000Y-64818000D01*
X86843000Y-64818000D01*
X86840000Y-64819000D01*
X86838000Y-64819000D01*
X86835000Y-64820000D01*
X86833000Y-64820000D01*
X86830000Y-64820000D01*
X86190000Y-64820000D01*
X86187000Y-64820000D01*
X86185000Y-64820000D01*
X86182000Y-64819000D01*
X86180000Y-64819000D01*
X86177000Y-64818000D01*
X86175000Y-64818000D01*
X86172000Y-64817000D01*
X86170000Y-64816000D01*
X86167000Y-64815000D01*
X86165000Y-64813000D01*
X86163000Y-64812000D01*
X86161000Y-64810000D01*
X86159000Y-64809000D01*
X86157000Y-64807000D01*
X86155000Y-64805000D01*
X86153000Y-64803000D01*
X86151000Y-64801000D01*
X86150000Y-64799000D01*
X86148000Y-64797000D01*
X86147000Y-64795000D01*
X86145000Y-64793000D01*
X86144000Y-64790000D01*
X86143000Y-64788000D01*
X86142000Y-64785000D01*
X86142000Y-64783000D01*
X86141000Y-64780000D01*
X86141000Y-64778000D01*
X86140000Y-64775000D01*
X86140000Y-64773000D01*
X86140000Y-64770000D01*
X86140000Y-64480000D01*
X86140000Y-64477000D01*
X86140000Y-64475000D01*
X86141000Y-64472000D01*
X86141000Y-64470000D01*
X86142000Y-64467000D01*
X86142000Y-64465000D01*
X86143000Y-64462000D01*
X86144000Y-64460000D01*
X86145000Y-64457000D01*
X86147000Y-64455000D01*
X86148000Y-64453000D01*
X86150000Y-64451000D01*
X86151000Y-64449000D01*
X86153000Y-64447000D01*
X86155000Y-64445000D01*
X86157000Y-64443000D01*
X86159000Y-64441000D01*
X86161000Y-64440000D01*
X86163000Y-64438000D01*
X86165000Y-64437000D01*
X86167000Y-64435000D01*
X86170000Y-64434000D01*
X86172000Y-64433000D01*
X86175000Y-64432000D01*
X86177000Y-64432000D01*
X86180000Y-64431000D01*
X86182000Y-64431000D01*
X86185000Y-64430000D01*
X86187000Y-64430000D01*
X86190000Y-64430000D01*
X86830000Y-64430000D01*
X86833000Y-64430000D01*
X86835000Y-64430000D01*
X86838000Y-64431000D01*
G37*
X86838000Y-64931000D02*
X86840000Y-64931000D01*
X86843000Y-64932000D01*
X86845000Y-64932000D01*
X86848000Y-64933000D01*
X86850000Y-64934000D01*
X86853000Y-64935000D01*
X86855000Y-64937000D01*
X86857000Y-64938000D01*
X86859000Y-64940000D01*
X86861000Y-64941000D01*
X86863000Y-64943000D01*
X86865000Y-64945000D01*
X86867000Y-64947000D01*
X86869000Y-64949000D01*
X86870000Y-64951000D01*
X86872000Y-64953000D01*
X86873000Y-64955000D01*
X86875000Y-64957000D01*
X86876000Y-64960000D01*
X86877000Y-64962000D01*
X86878000Y-64965000D01*
X86878000Y-64967000D01*
X86879000Y-64970000D01*
X86879000Y-64972000D01*
X86880000Y-64975000D01*
X86880000Y-64977000D01*
X86880000Y-64980000D01*
X86880000Y-65270000D01*
X86880000Y-65273000D01*
X86880000Y-65275000D01*
X86879000Y-65278000D01*
X86879000Y-65280000D01*
X86878000Y-65283000D01*
X86878000Y-65285000D01*
X86877000Y-65288000D01*
X86876000Y-65290000D01*
X86875000Y-65293000D01*
X86873000Y-65295000D01*
X86872000Y-65297000D01*
X86870000Y-65299000D01*
X86869000Y-65301000D01*
X86867000Y-65303000D01*
X86865000Y-65305000D01*
X86863000Y-65307000D01*
X86861000Y-65309000D01*
X86859000Y-65310000D01*
X86857000Y-65312000D01*
X86855000Y-65313000D01*
X86853000Y-65315000D01*
X86850000Y-65316000D01*
X86848000Y-65317000D01*
X86845000Y-65318000D01*
X86843000Y-65318000D01*
X86840000Y-65319000D01*
X86838000Y-65319000D01*
X86835000Y-65320000D01*
X86833000Y-65320000D01*
X86830000Y-65320000D01*
X86190000Y-65320000D01*
X86187000Y-65320000D01*
X86185000Y-65320000D01*
X86182000Y-65319000D01*
X86180000Y-65319000D01*
X86177000Y-65318000D01*
X86175000Y-65318000D01*
X86172000Y-65317000D01*
X86170000Y-65316000D01*
X86167000Y-65315000D01*
X86165000Y-65313000D01*
X86163000Y-65312000D01*
X86161000Y-65310000D01*
X86159000Y-65309000D01*
X86157000Y-65307000D01*
X86155000Y-65305000D01*
X86153000Y-65303000D01*
X86151000Y-65301000D01*
X86150000Y-65299000D01*
X86148000Y-65297000D01*
X86147000Y-65295000D01*
X86145000Y-65293000D01*
X86144000Y-65290000D01*
X86143000Y-65288000D01*
X86142000Y-65285000D01*
X86142000Y-65283000D01*
X86141000Y-65280000D01*
X86141000Y-65278000D01*
X86140000Y-65275000D01*
X86140000Y-65273000D01*
X86140000Y-65270000D01*
X86140000Y-64980000D01*
X86140000Y-64977000D01*
X86140000Y-64975000D01*
X86141000Y-64972000D01*
X86141000Y-64970000D01*
X86142000Y-64967000D01*
X86142000Y-64965000D01*
X86143000Y-64962000D01*
X86144000Y-64960000D01*
X86145000Y-64957000D01*
X86147000Y-64955000D01*
X86148000Y-64953000D01*
X86150000Y-64951000D01*
X86151000Y-64949000D01*
X86153000Y-64947000D01*
X86155000Y-64945000D01*
X86157000Y-64943000D01*
X86159000Y-64941000D01*
X86161000Y-64940000D01*
X86163000Y-64938000D01*
X86165000Y-64937000D01*
X86167000Y-64935000D01*
X86170000Y-64934000D01*
X86172000Y-64933000D01*
X86175000Y-64932000D01*
X86177000Y-64932000D01*
X86180000Y-64931000D01*
X86182000Y-64931000D01*
X86185000Y-64930000D01*
X86187000Y-64930000D01*
X86190000Y-64930000D01*
X86830000Y-64930000D01*
X86833000Y-64930000D01*
X86835000Y-64930000D01*
X86838000Y-64931000D01*
G36*
X86838000Y-64931000D02*
G01*
X86840000Y-64931000D01*
X86843000Y-64932000D01*
X86845000Y-64932000D01*
X86848000Y-64933000D01*
X86850000Y-64934000D01*
X86853000Y-64935000D01*
X86855000Y-64937000D01*
X86857000Y-64938000D01*
X86859000Y-64940000D01*
X86861000Y-64941000D01*
X86863000Y-64943000D01*
X86865000Y-64945000D01*
X86867000Y-64947000D01*
X86869000Y-64949000D01*
X86870000Y-64951000D01*
X86872000Y-64953000D01*
X86873000Y-64955000D01*
X86875000Y-64957000D01*
X86876000Y-64960000D01*
X86877000Y-64962000D01*
X86878000Y-64965000D01*
X86878000Y-64967000D01*
X86879000Y-64970000D01*
X86879000Y-64972000D01*
X86880000Y-64975000D01*
X86880000Y-64977000D01*
X86880000Y-64980000D01*
X86880000Y-65270000D01*
X86880000Y-65273000D01*
X86880000Y-65275000D01*
X86879000Y-65278000D01*
X86879000Y-65280000D01*
X86878000Y-65283000D01*
X86878000Y-65285000D01*
X86877000Y-65288000D01*
X86876000Y-65290000D01*
X86875000Y-65293000D01*
X86873000Y-65295000D01*
X86872000Y-65297000D01*
X86870000Y-65299000D01*
X86869000Y-65301000D01*
X86867000Y-65303000D01*
X86865000Y-65305000D01*
X86863000Y-65307000D01*
X86861000Y-65309000D01*
X86859000Y-65310000D01*
X86857000Y-65312000D01*
X86855000Y-65313000D01*
X86853000Y-65315000D01*
X86850000Y-65316000D01*
X86848000Y-65317000D01*
X86845000Y-65318000D01*
X86843000Y-65318000D01*
X86840000Y-65319000D01*
X86838000Y-65319000D01*
X86835000Y-65320000D01*
X86833000Y-65320000D01*
X86830000Y-65320000D01*
X86190000Y-65320000D01*
X86187000Y-65320000D01*
X86185000Y-65320000D01*
X86182000Y-65319000D01*
X86180000Y-65319000D01*
X86177000Y-65318000D01*
X86175000Y-65318000D01*
X86172000Y-65317000D01*
X86170000Y-65316000D01*
X86167000Y-65315000D01*
X86165000Y-65313000D01*
X86163000Y-65312000D01*
X86161000Y-65310000D01*
X86159000Y-65309000D01*
X86157000Y-65307000D01*
X86155000Y-65305000D01*
X86153000Y-65303000D01*
X86151000Y-65301000D01*
X86150000Y-65299000D01*
X86148000Y-65297000D01*
X86147000Y-65295000D01*
X86145000Y-65293000D01*
X86144000Y-65290000D01*
X86143000Y-65288000D01*
X86142000Y-65285000D01*
X86142000Y-65283000D01*
X86141000Y-65280000D01*
X86141000Y-65278000D01*
X86140000Y-65275000D01*
X86140000Y-65273000D01*
X86140000Y-65270000D01*
X86140000Y-64980000D01*
X86140000Y-64977000D01*
X86140000Y-64975000D01*
X86141000Y-64972000D01*
X86141000Y-64970000D01*
X86142000Y-64967000D01*
X86142000Y-64965000D01*
X86143000Y-64962000D01*
X86144000Y-64960000D01*
X86145000Y-64957000D01*
X86147000Y-64955000D01*
X86148000Y-64953000D01*
X86150000Y-64951000D01*
X86151000Y-64949000D01*
X86153000Y-64947000D01*
X86155000Y-64945000D01*
X86157000Y-64943000D01*
X86159000Y-64941000D01*
X86161000Y-64940000D01*
X86163000Y-64938000D01*
X86165000Y-64937000D01*
X86167000Y-64935000D01*
X86170000Y-64934000D01*
X86172000Y-64933000D01*
X86175000Y-64932000D01*
X86177000Y-64932000D01*
X86180000Y-64931000D01*
X86182000Y-64931000D01*
X86185000Y-64930000D01*
X86187000Y-64930000D01*
X86190000Y-64930000D01*
X86830000Y-64930000D01*
X86833000Y-64930000D01*
X86835000Y-64930000D01*
X86838000Y-64931000D01*
G37*
X86838000Y-65431000D02*
X86840000Y-65431000D01*
X86843000Y-65432000D01*
X86845000Y-65432000D01*
X86848000Y-65433000D01*
X86850000Y-65434000D01*
X86853000Y-65435000D01*
X86855000Y-65437000D01*
X86857000Y-65438000D01*
X86859000Y-65440000D01*
X86861000Y-65441000D01*
X86863000Y-65443000D01*
X86865000Y-65445000D01*
X86867000Y-65447000D01*
X86869000Y-65449000D01*
X86870000Y-65451000D01*
X86872000Y-65453000D01*
X86873000Y-65455000D01*
X86875000Y-65457000D01*
X86876000Y-65460000D01*
X86877000Y-65462000D01*
X86878000Y-65465000D01*
X86878000Y-65467000D01*
X86879000Y-65470000D01*
X86879000Y-65472000D01*
X86880000Y-65475000D01*
X86880000Y-65477000D01*
X86880000Y-65480000D01*
X86880000Y-65770000D01*
X86880000Y-65773000D01*
X86880000Y-65775000D01*
X86879000Y-65778000D01*
X86879000Y-65780000D01*
X86878000Y-65783000D01*
X86878000Y-65785000D01*
X86877000Y-65788000D01*
X86876000Y-65790000D01*
X86875000Y-65793000D01*
X86873000Y-65795000D01*
X86872000Y-65797000D01*
X86870000Y-65799000D01*
X86869000Y-65801000D01*
X86867000Y-65803000D01*
X86865000Y-65805000D01*
X86863000Y-65807000D01*
X86861000Y-65809000D01*
X86859000Y-65810000D01*
X86857000Y-65812000D01*
X86855000Y-65813000D01*
X86853000Y-65815000D01*
X86850000Y-65816000D01*
X86848000Y-65817000D01*
X86845000Y-65818000D01*
X86843000Y-65818000D01*
X86840000Y-65819000D01*
X86838000Y-65819000D01*
X86835000Y-65820000D01*
X86833000Y-65820000D01*
X86830000Y-65820000D01*
X86190000Y-65820000D01*
X86187000Y-65820000D01*
X86185000Y-65820000D01*
X86182000Y-65819000D01*
X86180000Y-65819000D01*
X86177000Y-65818000D01*
X86175000Y-65818000D01*
X86172000Y-65817000D01*
X86170000Y-65816000D01*
X86167000Y-65815000D01*
X86165000Y-65813000D01*
X86163000Y-65812000D01*
X86161000Y-65810000D01*
X86159000Y-65809000D01*
X86157000Y-65807000D01*
X86155000Y-65805000D01*
X86153000Y-65803000D01*
X86151000Y-65801000D01*
X86150000Y-65799000D01*
X86148000Y-65797000D01*
X86147000Y-65795000D01*
X86145000Y-65793000D01*
X86144000Y-65790000D01*
X86143000Y-65788000D01*
X86142000Y-65785000D01*
X86142000Y-65783000D01*
X86141000Y-65780000D01*
X86141000Y-65778000D01*
X86140000Y-65775000D01*
X86140000Y-65773000D01*
X86140000Y-65770000D01*
X86140000Y-65480000D01*
X86140000Y-65477000D01*
X86140000Y-65475000D01*
X86141000Y-65472000D01*
X86141000Y-65470000D01*
X86142000Y-65467000D01*
X86142000Y-65465000D01*
X86143000Y-65462000D01*
X86144000Y-65460000D01*
X86145000Y-65457000D01*
X86147000Y-65455000D01*
X86148000Y-65453000D01*
X86150000Y-65451000D01*
X86151000Y-65449000D01*
X86153000Y-65447000D01*
X86155000Y-65445000D01*
X86157000Y-65443000D01*
X86159000Y-65441000D01*
X86161000Y-65440000D01*
X86163000Y-65438000D01*
X86165000Y-65437000D01*
X86167000Y-65435000D01*
X86170000Y-65434000D01*
X86172000Y-65433000D01*
X86175000Y-65432000D01*
X86177000Y-65432000D01*
X86180000Y-65431000D01*
X86182000Y-65431000D01*
X86185000Y-65430000D01*
X86187000Y-65430000D01*
X86190000Y-65430000D01*
X86830000Y-65430000D01*
X86833000Y-65430000D01*
X86835000Y-65430000D01*
X86838000Y-65431000D01*
G36*
X86838000Y-65431000D02*
G01*
X86840000Y-65431000D01*
X86843000Y-65432000D01*
X86845000Y-65432000D01*
X86848000Y-65433000D01*
X86850000Y-65434000D01*
X86853000Y-65435000D01*
X86855000Y-65437000D01*
X86857000Y-65438000D01*
X86859000Y-65440000D01*
X86861000Y-65441000D01*
X86863000Y-65443000D01*
X86865000Y-65445000D01*
X86867000Y-65447000D01*
X86869000Y-65449000D01*
X86870000Y-65451000D01*
X86872000Y-65453000D01*
X86873000Y-65455000D01*
X86875000Y-65457000D01*
X86876000Y-65460000D01*
X86877000Y-65462000D01*
X86878000Y-65465000D01*
X86878000Y-65467000D01*
X86879000Y-65470000D01*
X86879000Y-65472000D01*
X86880000Y-65475000D01*
X86880000Y-65477000D01*
X86880000Y-65480000D01*
X86880000Y-65770000D01*
X86880000Y-65773000D01*
X86880000Y-65775000D01*
X86879000Y-65778000D01*
X86879000Y-65780000D01*
X86878000Y-65783000D01*
X86878000Y-65785000D01*
X86877000Y-65788000D01*
X86876000Y-65790000D01*
X86875000Y-65793000D01*
X86873000Y-65795000D01*
X86872000Y-65797000D01*
X86870000Y-65799000D01*
X86869000Y-65801000D01*
X86867000Y-65803000D01*
X86865000Y-65805000D01*
X86863000Y-65807000D01*
X86861000Y-65809000D01*
X86859000Y-65810000D01*
X86857000Y-65812000D01*
X86855000Y-65813000D01*
X86853000Y-65815000D01*
X86850000Y-65816000D01*
X86848000Y-65817000D01*
X86845000Y-65818000D01*
X86843000Y-65818000D01*
X86840000Y-65819000D01*
X86838000Y-65819000D01*
X86835000Y-65820000D01*
X86833000Y-65820000D01*
X86830000Y-65820000D01*
X86190000Y-65820000D01*
X86187000Y-65820000D01*
X86185000Y-65820000D01*
X86182000Y-65819000D01*
X86180000Y-65819000D01*
X86177000Y-65818000D01*
X86175000Y-65818000D01*
X86172000Y-65817000D01*
X86170000Y-65816000D01*
X86167000Y-65815000D01*
X86165000Y-65813000D01*
X86163000Y-65812000D01*
X86161000Y-65810000D01*
X86159000Y-65809000D01*
X86157000Y-65807000D01*
X86155000Y-65805000D01*
X86153000Y-65803000D01*
X86151000Y-65801000D01*
X86150000Y-65799000D01*
X86148000Y-65797000D01*
X86147000Y-65795000D01*
X86145000Y-65793000D01*
X86144000Y-65790000D01*
X86143000Y-65788000D01*
X86142000Y-65785000D01*
X86142000Y-65783000D01*
X86141000Y-65780000D01*
X86141000Y-65778000D01*
X86140000Y-65775000D01*
X86140000Y-65773000D01*
X86140000Y-65770000D01*
X86140000Y-65480000D01*
X86140000Y-65477000D01*
X86140000Y-65475000D01*
X86141000Y-65472000D01*
X86141000Y-65470000D01*
X86142000Y-65467000D01*
X86142000Y-65465000D01*
X86143000Y-65462000D01*
X86144000Y-65460000D01*
X86145000Y-65457000D01*
X86147000Y-65455000D01*
X86148000Y-65453000D01*
X86150000Y-65451000D01*
X86151000Y-65449000D01*
X86153000Y-65447000D01*
X86155000Y-65445000D01*
X86157000Y-65443000D01*
X86159000Y-65441000D01*
X86161000Y-65440000D01*
X86163000Y-65438000D01*
X86165000Y-65437000D01*
X86167000Y-65435000D01*
X86170000Y-65434000D01*
X86172000Y-65433000D01*
X86175000Y-65432000D01*
X86177000Y-65432000D01*
X86180000Y-65431000D01*
X86182000Y-65431000D01*
X86185000Y-65430000D01*
X86187000Y-65430000D01*
X86190000Y-65430000D01*
X86830000Y-65430000D01*
X86833000Y-65430000D01*
X86835000Y-65430000D01*
X86838000Y-65431000D01*
G37*
X86838000Y-65931000D02*
X86840000Y-65931000D01*
X86843000Y-65932000D01*
X86845000Y-65932000D01*
X86848000Y-65933000D01*
X86850000Y-65934000D01*
X86853000Y-65935000D01*
X86855000Y-65937000D01*
X86857000Y-65938000D01*
X86859000Y-65940000D01*
X86861000Y-65941000D01*
X86863000Y-65943000D01*
X86865000Y-65945000D01*
X86867000Y-65947000D01*
X86869000Y-65949000D01*
X86870000Y-65951000D01*
X86872000Y-65953000D01*
X86873000Y-65955000D01*
X86875000Y-65957000D01*
X86876000Y-65960000D01*
X86877000Y-65962000D01*
X86878000Y-65965000D01*
X86878000Y-65967000D01*
X86879000Y-65970000D01*
X86879000Y-65972000D01*
X86880000Y-65975000D01*
X86880000Y-65977000D01*
X86880000Y-65980000D01*
X86880000Y-66270000D01*
X86880000Y-66273000D01*
X86880000Y-66275000D01*
X86879000Y-66278000D01*
X86879000Y-66280000D01*
X86878000Y-66283000D01*
X86878000Y-66285000D01*
X86877000Y-66288000D01*
X86876000Y-66290000D01*
X86875000Y-66293000D01*
X86873000Y-66295000D01*
X86872000Y-66297000D01*
X86870000Y-66299000D01*
X86869000Y-66301000D01*
X86867000Y-66303000D01*
X86865000Y-66305000D01*
X86863000Y-66307000D01*
X86861000Y-66309000D01*
X86859000Y-66310000D01*
X86857000Y-66312000D01*
X86855000Y-66313000D01*
X86853000Y-66315000D01*
X86850000Y-66316000D01*
X86848000Y-66317000D01*
X86845000Y-66318000D01*
X86843000Y-66318000D01*
X86840000Y-66319000D01*
X86838000Y-66319000D01*
X86835000Y-66320000D01*
X86833000Y-66320000D01*
X86830000Y-66320000D01*
X86190000Y-66320000D01*
X86187000Y-66320000D01*
X86185000Y-66320000D01*
X86182000Y-66319000D01*
X86180000Y-66319000D01*
X86177000Y-66318000D01*
X86175000Y-66318000D01*
X86172000Y-66317000D01*
X86170000Y-66316000D01*
X86167000Y-66315000D01*
X86165000Y-66313000D01*
X86163000Y-66312000D01*
X86161000Y-66310000D01*
X86159000Y-66309000D01*
X86157000Y-66307000D01*
X86155000Y-66305000D01*
X86153000Y-66303000D01*
X86151000Y-66301000D01*
X86150000Y-66299000D01*
X86148000Y-66297000D01*
X86147000Y-66295000D01*
X86145000Y-66293000D01*
X86144000Y-66290000D01*
X86143000Y-66288000D01*
X86142000Y-66285000D01*
X86142000Y-66283000D01*
X86141000Y-66280000D01*
X86141000Y-66278000D01*
X86140000Y-66275000D01*
X86140000Y-66273000D01*
X86140000Y-66270000D01*
X86140000Y-65980000D01*
X86140000Y-65977000D01*
X86140000Y-65975000D01*
X86141000Y-65972000D01*
X86141000Y-65970000D01*
X86142000Y-65967000D01*
X86142000Y-65965000D01*
X86143000Y-65962000D01*
X86144000Y-65960000D01*
X86145000Y-65957000D01*
X86147000Y-65955000D01*
X86148000Y-65953000D01*
X86150000Y-65951000D01*
X86151000Y-65949000D01*
X86153000Y-65947000D01*
X86155000Y-65945000D01*
X86157000Y-65943000D01*
X86159000Y-65941000D01*
X86161000Y-65940000D01*
X86163000Y-65938000D01*
X86165000Y-65937000D01*
X86167000Y-65935000D01*
X86170000Y-65934000D01*
X86172000Y-65933000D01*
X86175000Y-65932000D01*
X86177000Y-65932000D01*
X86180000Y-65931000D01*
X86182000Y-65931000D01*
X86185000Y-65930000D01*
X86187000Y-65930000D01*
X86190000Y-65930000D01*
X86830000Y-65930000D01*
X86833000Y-65930000D01*
X86835000Y-65930000D01*
X86838000Y-65931000D01*
G36*
X86838000Y-65931000D02*
G01*
X86840000Y-65931000D01*
X86843000Y-65932000D01*
X86845000Y-65932000D01*
X86848000Y-65933000D01*
X86850000Y-65934000D01*
X86853000Y-65935000D01*
X86855000Y-65937000D01*
X86857000Y-65938000D01*
X86859000Y-65940000D01*
X86861000Y-65941000D01*
X86863000Y-65943000D01*
X86865000Y-65945000D01*
X86867000Y-65947000D01*
X86869000Y-65949000D01*
X86870000Y-65951000D01*
X86872000Y-65953000D01*
X86873000Y-65955000D01*
X86875000Y-65957000D01*
X86876000Y-65960000D01*
X86877000Y-65962000D01*
X86878000Y-65965000D01*
X86878000Y-65967000D01*
X86879000Y-65970000D01*
X86879000Y-65972000D01*
X86880000Y-65975000D01*
X86880000Y-65977000D01*
X86880000Y-65980000D01*
X86880000Y-66270000D01*
X86880000Y-66273000D01*
X86880000Y-66275000D01*
X86879000Y-66278000D01*
X86879000Y-66280000D01*
X86878000Y-66283000D01*
X86878000Y-66285000D01*
X86877000Y-66288000D01*
X86876000Y-66290000D01*
X86875000Y-66293000D01*
X86873000Y-66295000D01*
X86872000Y-66297000D01*
X86870000Y-66299000D01*
X86869000Y-66301000D01*
X86867000Y-66303000D01*
X86865000Y-66305000D01*
X86863000Y-66307000D01*
X86861000Y-66309000D01*
X86859000Y-66310000D01*
X86857000Y-66312000D01*
X86855000Y-66313000D01*
X86853000Y-66315000D01*
X86850000Y-66316000D01*
X86848000Y-66317000D01*
X86845000Y-66318000D01*
X86843000Y-66318000D01*
X86840000Y-66319000D01*
X86838000Y-66319000D01*
X86835000Y-66320000D01*
X86833000Y-66320000D01*
X86830000Y-66320000D01*
X86190000Y-66320000D01*
X86187000Y-66320000D01*
X86185000Y-66320000D01*
X86182000Y-66319000D01*
X86180000Y-66319000D01*
X86177000Y-66318000D01*
X86175000Y-66318000D01*
X86172000Y-66317000D01*
X86170000Y-66316000D01*
X86167000Y-66315000D01*
X86165000Y-66313000D01*
X86163000Y-66312000D01*
X86161000Y-66310000D01*
X86159000Y-66309000D01*
X86157000Y-66307000D01*
X86155000Y-66305000D01*
X86153000Y-66303000D01*
X86151000Y-66301000D01*
X86150000Y-66299000D01*
X86148000Y-66297000D01*
X86147000Y-66295000D01*
X86145000Y-66293000D01*
X86144000Y-66290000D01*
X86143000Y-66288000D01*
X86142000Y-66285000D01*
X86142000Y-66283000D01*
X86141000Y-66280000D01*
X86141000Y-66278000D01*
X86140000Y-66275000D01*
X86140000Y-66273000D01*
X86140000Y-66270000D01*
X86140000Y-65980000D01*
X86140000Y-65977000D01*
X86140000Y-65975000D01*
X86141000Y-65972000D01*
X86141000Y-65970000D01*
X86142000Y-65967000D01*
X86142000Y-65965000D01*
X86143000Y-65962000D01*
X86144000Y-65960000D01*
X86145000Y-65957000D01*
X86147000Y-65955000D01*
X86148000Y-65953000D01*
X86150000Y-65951000D01*
X86151000Y-65949000D01*
X86153000Y-65947000D01*
X86155000Y-65945000D01*
X86157000Y-65943000D01*
X86159000Y-65941000D01*
X86161000Y-65940000D01*
X86163000Y-65938000D01*
X86165000Y-65937000D01*
X86167000Y-65935000D01*
X86170000Y-65934000D01*
X86172000Y-65933000D01*
X86175000Y-65932000D01*
X86177000Y-65932000D01*
X86180000Y-65931000D01*
X86182000Y-65931000D01*
X86185000Y-65930000D01*
X86187000Y-65930000D01*
X86190000Y-65930000D01*
X86830000Y-65930000D01*
X86833000Y-65930000D01*
X86835000Y-65930000D01*
X86838000Y-65931000D01*
G37*
X86838000Y-66431000D02*
X86840000Y-66431000D01*
X86843000Y-66432000D01*
X86845000Y-66432000D01*
X86848000Y-66433000D01*
X86850000Y-66434000D01*
X86853000Y-66435000D01*
X86855000Y-66437000D01*
X86857000Y-66438000D01*
X86859000Y-66440000D01*
X86861000Y-66441000D01*
X86863000Y-66443000D01*
X86865000Y-66445000D01*
X86867000Y-66447000D01*
X86869000Y-66449000D01*
X86870000Y-66451000D01*
X86872000Y-66453000D01*
X86873000Y-66455000D01*
X86875000Y-66457000D01*
X86876000Y-66460000D01*
X86877000Y-66462000D01*
X86878000Y-66465000D01*
X86878000Y-66467000D01*
X86879000Y-66470000D01*
X86879000Y-66472000D01*
X86880000Y-66475000D01*
X86880000Y-66477000D01*
X86880000Y-66480000D01*
X86880000Y-66770000D01*
X86880000Y-66773000D01*
X86880000Y-66775000D01*
X86879000Y-66778000D01*
X86879000Y-66780000D01*
X86878000Y-66783000D01*
X86878000Y-66785000D01*
X86877000Y-66788000D01*
X86876000Y-66790000D01*
X86875000Y-66793000D01*
X86873000Y-66795000D01*
X86872000Y-66797000D01*
X86870000Y-66799000D01*
X86869000Y-66801000D01*
X86867000Y-66803000D01*
X86865000Y-66805000D01*
X86863000Y-66807000D01*
X86861000Y-66809000D01*
X86859000Y-66810000D01*
X86857000Y-66812000D01*
X86855000Y-66813000D01*
X86853000Y-66815000D01*
X86850000Y-66816000D01*
X86848000Y-66817000D01*
X86845000Y-66818000D01*
X86843000Y-66818000D01*
X86840000Y-66819000D01*
X86838000Y-66819000D01*
X86835000Y-66820000D01*
X86833000Y-66820000D01*
X86830000Y-66820000D01*
X86190000Y-66820000D01*
X86187000Y-66820000D01*
X86185000Y-66820000D01*
X86182000Y-66819000D01*
X86180000Y-66819000D01*
X86177000Y-66818000D01*
X86175000Y-66818000D01*
X86172000Y-66817000D01*
X86170000Y-66816000D01*
X86167000Y-66815000D01*
X86165000Y-66813000D01*
X86163000Y-66812000D01*
X86161000Y-66810000D01*
X86159000Y-66809000D01*
X86157000Y-66807000D01*
X86155000Y-66805000D01*
X86153000Y-66803000D01*
X86151000Y-66801000D01*
X86150000Y-66799000D01*
X86148000Y-66797000D01*
X86147000Y-66795000D01*
X86145000Y-66793000D01*
X86144000Y-66790000D01*
X86143000Y-66788000D01*
X86142000Y-66785000D01*
X86142000Y-66783000D01*
X86141000Y-66780000D01*
X86141000Y-66778000D01*
X86140000Y-66775000D01*
X86140000Y-66773000D01*
X86140000Y-66770000D01*
X86140000Y-66480000D01*
X86140000Y-66477000D01*
X86140000Y-66475000D01*
X86141000Y-66472000D01*
X86141000Y-66470000D01*
X86142000Y-66467000D01*
X86142000Y-66465000D01*
X86143000Y-66462000D01*
X86144000Y-66460000D01*
X86145000Y-66457000D01*
X86147000Y-66455000D01*
X86148000Y-66453000D01*
X86150000Y-66451000D01*
X86151000Y-66449000D01*
X86153000Y-66447000D01*
X86155000Y-66445000D01*
X86157000Y-66443000D01*
X86159000Y-66441000D01*
X86161000Y-66440000D01*
X86163000Y-66438000D01*
X86165000Y-66437000D01*
X86167000Y-66435000D01*
X86170000Y-66434000D01*
X86172000Y-66433000D01*
X86175000Y-66432000D01*
X86177000Y-66432000D01*
X86180000Y-66431000D01*
X86182000Y-66431000D01*
X86185000Y-66430000D01*
X86187000Y-66430000D01*
X86190000Y-66430000D01*
X86830000Y-66430000D01*
X86833000Y-66430000D01*
X86835000Y-66430000D01*
X86838000Y-66431000D01*
G36*
X86838000Y-66431000D02*
G01*
X86840000Y-66431000D01*
X86843000Y-66432000D01*
X86845000Y-66432000D01*
X86848000Y-66433000D01*
X86850000Y-66434000D01*
X86853000Y-66435000D01*
X86855000Y-66437000D01*
X86857000Y-66438000D01*
X86859000Y-66440000D01*
X86861000Y-66441000D01*
X86863000Y-66443000D01*
X86865000Y-66445000D01*
X86867000Y-66447000D01*
X86869000Y-66449000D01*
X86870000Y-66451000D01*
X86872000Y-66453000D01*
X86873000Y-66455000D01*
X86875000Y-66457000D01*
X86876000Y-66460000D01*
X86877000Y-66462000D01*
X86878000Y-66465000D01*
X86878000Y-66467000D01*
X86879000Y-66470000D01*
X86879000Y-66472000D01*
X86880000Y-66475000D01*
X86880000Y-66477000D01*
X86880000Y-66480000D01*
X86880000Y-66770000D01*
X86880000Y-66773000D01*
X86880000Y-66775000D01*
X86879000Y-66778000D01*
X86879000Y-66780000D01*
X86878000Y-66783000D01*
X86878000Y-66785000D01*
X86877000Y-66788000D01*
X86876000Y-66790000D01*
X86875000Y-66793000D01*
X86873000Y-66795000D01*
X86872000Y-66797000D01*
X86870000Y-66799000D01*
X86869000Y-66801000D01*
X86867000Y-66803000D01*
X86865000Y-66805000D01*
X86863000Y-66807000D01*
X86861000Y-66809000D01*
X86859000Y-66810000D01*
X86857000Y-66812000D01*
X86855000Y-66813000D01*
X86853000Y-66815000D01*
X86850000Y-66816000D01*
X86848000Y-66817000D01*
X86845000Y-66818000D01*
X86843000Y-66818000D01*
X86840000Y-66819000D01*
X86838000Y-66819000D01*
X86835000Y-66820000D01*
X86833000Y-66820000D01*
X86830000Y-66820000D01*
X86190000Y-66820000D01*
X86187000Y-66820000D01*
X86185000Y-66820000D01*
X86182000Y-66819000D01*
X86180000Y-66819000D01*
X86177000Y-66818000D01*
X86175000Y-66818000D01*
X86172000Y-66817000D01*
X86170000Y-66816000D01*
X86167000Y-66815000D01*
X86165000Y-66813000D01*
X86163000Y-66812000D01*
X86161000Y-66810000D01*
X86159000Y-66809000D01*
X86157000Y-66807000D01*
X86155000Y-66805000D01*
X86153000Y-66803000D01*
X86151000Y-66801000D01*
X86150000Y-66799000D01*
X86148000Y-66797000D01*
X86147000Y-66795000D01*
X86145000Y-66793000D01*
X86144000Y-66790000D01*
X86143000Y-66788000D01*
X86142000Y-66785000D01*
X86142000Y-66783000D01*
X86141000Y-66780000D01*
X86141000Y-66778000D01*
X86140000Y-66775000D01*
X86140000Y-66773000D01*
X86140000Y-66770000D01*
X86140000Y-66480000D01*
X86140000Y-66477000D01*
X86140000Y-66475000D01*
X86141000Y-66472000D01*
X86141000Y-66470000D01*
X86142000Y-66467000D01*
X86142000Y-66465000D01*
X86143000Y-66462000D01*
X86144000Y-66460000D01*
X86145000Y-66457000D01*
X86147000Y-66455000D01*
X86148000Y-66453000D01*
X86150000Y-66451000D01*
X86151000Y-66449000D01*
X86153000Y-66447000D01*
X86155000Y-66445000D01*
X86157000Y-66443000D01*
X86159000Y-66441000D01*
X86161000Y-66440000D01*
X86163000Y-66438000D01*
X86165000Y-66437000D01*
X86167000Y-66435000D01*
X86170000Y-66434000D01*
X86172000Y-66433000D01*
X86175000Y-66432000D01*
X86177000Y-66432000D01*
X86180000Y-66431000D01*
X86182000Y-66431000D01*
X86185000Y-66430000D01*
X86187000Y-66430000D01*
X86190000Y-66430000D01*
X86830000Y-66430000D01*
X86833000Y-66430000D01*
X86835000Y-66430000D01*
X86838000Y-66431000D01*
G37*
X86838000Y-66931000D02*
X86840000Y-66931000D01*
X86843000Y-66932000D01*
X86845000Y-66932000D01*
X86848000Y-66933000D01*
X86850000Y-66934000D01*
X86853000Y-66935000D01*
X86855000Y-66937000D01*
X86857000Y-66938000D01*
X86859000Y-66940000D01*
X86861000Y-66941000D01*
X86863000Y-66943000D01*
X86865000Y-66945000D01*
X86867000Y-66947000D01*
X86869000Y-66949000D01*
X86870000Y-66951000D01*
X86872000Y-66953000D01*
X86873000Y-66955000D01*
X86875000Y-66957000D01*
X86876000Y-66960000D01*
X86877000Y-66962000D01*
X86878000Y-66965000D01*
X86878000Y-66967000D01*
X86879000Y-66970000D01*
X86879000Y-66972000D01*
X86880000Y-66975000D01*
X86880000Y-66977000D01*
X86880000Y-66980000D01*
X86880000Y-67270000D01*
X86880000Y-67273000D01*
X86880000Y-67275000D01*
X86879000Y-67278000D01*
X86879000Y-67280000D01*
X86878000Y-67283000D01*
X86878000Y-67285000D01*
X86877000Y-67288000D01*
X86876000Y-67290000D01*
X86875000Y-67293000D01*
X86873000Y-67295000D01*
X86872000Y-67297000D01*
X86870000Y-67299000D01*
X86869000Y-67301000D01*
X86867000Y-67303000D01*
X86865000Y-67305000D01*
X86863000Y-67307000D01*
X86861000Y-67309000D01*
X86859000Y-67310000D01*
X86857000Y-67312000D01*
X86855000Y-67313000D01*
X86853000Y-67315000D01*
X86850000Y-67316000D01*
X86848000Y-67317000D01*
X86845000Y-67318000D01*
X86843000Y-67318000D01*
X86840000Y-67319000D01*
X86838000Y-67319000D01*
X86835000Y-67320000D01*
X86833000Y-67320000D01*
X86830000Y-67320000D01*
X86190000Y-67320000D01*
X86187000Y-67320000D01*
X86185000Y-67320000D01*
X86182000Y-67319000D01*
X86180000Y-67319000D01*
X86177000Y-67318000D01*
X86175000Y-67318000D01*
X86172000Y-67317000D01*
X86170000Y-67316000D01*
X86167000Y-67315000D01*
X86165000Y-67313000D01*
X86163000Y-67312000D01*
X86161000Y-67310000D01*
X86159000Y-67309000D01*
X86157000Y-67307000D01*
X86155000Y-67305000D01*
X86153000Y-67303000D01*
X86151000Y-67301000D01*
X86150000Y-67299000D01*
X86148000Y-67297000D01*
X86147000Y-67295000D01*
X86145000Y-67293000D01*
X86144000Y-67290000D01*
X86143000Y-67288000D01*
X86142000Y-67285000D01*
X86142000Y-67283000D01*
X86141000Y-67280000D01*
X86141000Y-67278000D01*
X86140000Y-67275000D01*
X86140000Y-67273000D01*
X86140000Y-67270000D01*
X86140000Y-66980000D01*
X86140000Y-66977000D01*
X86140000Y-66975000D01*
X86141000Y-66972000D01*
X86141000Y-66970000D01*
X86142000Y-66967000D01*
X86142000Y-66965000D01*
X86143000Y-66962000D01*
X86144000Y-66960000D01*
X86145000Y-66957000D01*
X86147000Y-66955000D01*
X86148000Y-66953000D01*
X86150000Y-66951000D01*
X86151000Y-66949000D01*
X86153000Y-66947000D01*
X86155000Y-66945000D01*
X86157000Y-66943000D01*
X86159000Y-66941000D01*
X86161000Y-66940000D01*
X86163000Y-66938000D01*
X86165000Y-66937000D01*
X86167000Y-66935000D01*
X86170000Y-66934000D01*
X86172000Y-66933000D01*
X86175000Y-66932000D01*
X86177000Y-66932000D01*
X86180000Y-66931000D01*
X86182000Y-66931000D01*
X86185000Y-66930000D01*
X86187000Y-66930000D01*
X86190000Y-66930000D01*
X86830000Y-66930000D01*
X86833000Y-66930000D01*
X86835000Y-66930000D01*
X86838000Y-66931000D01*
G36*
X86838000Y-66931000D02*
G01*
X86840000Y-66931000D01*
X86843000Y-66932000D01*
X86845000Y-66932000D01*
X86848000Y-66933000D01*
X86850000Y-66934000D01*
X86853000Y-66935000D01*
X86855000Y-66937000D01*
X86857000Y-66938000D01*
X86859000Y-66940000D01*
X86861000Y-66941000D01*
X86863000Y-66943000D01*
X86865000Y-66945000D01*
X86867000Y-66947000D01*
X86869000Y-66949000D01*
X86870000Y-66951000D01*
X86872000Y-66953000D01*
X86873000Y-66955000D01*
X86875000Y-66957000D01*
X86876000Y-66960000D01*
X86877000Y-66962000D01*
X86878000Y-66965000D01*
X86878000Y-66967000D01*
X86879000Y-66970000D01*
X86879000Y-66972000D01*
X86880000Y-66975000D01*
X86880000Y-66977000D01*
X86880000Y-66980000D01*
X86880000Y-67270000D01*
X86880000Y-67273000D01*
X86880000Y-67275000D01*
X86879000Y-67278000D01*
X86879000Y-67280000D01*
X86878000Y-67283000D01*
X86878000Y-67285000D01*
X86877000Y-67288000D01*
X86876000Y-67290000D01*
X86875000Y-67293000D01*
X86873000Y-67295000D01*
X86872000Y-67297000D01*
X86870000Y-67299000D01*
X86869000Y-67301000D01*
X86867000Y-67303000D01*
X86865000Y-67305000D01*
X86863000Y-67307000D01*
X86861000Y-67309000D01*
X86859000Y-67310000D01*
X86857000Y-67312000D01*
X86855000Y-67313000D01*
X86853000Y-67315000D01*
X86850000Y-67316000D01*
X86848000Y-67317000D01*
X86845000Y-67318000D01*
X86843000Y-67318000D01*
X86840000Y-67319000D01*
X86838000Y-67319000D01*
X86835000Y-67320000D01*
X86833000Y-67320000D01*
X86830000Y-67320000D01*
X86190000Y-67320000D01*
X86187000Y-67320000D01*
X86185000Y-67320000D01*
X86182000Y-67319000D01*
X86180000Y-67319000D01*
X86177000Y-67318000D01*
X86175000Y-67318000D01*
X86172000Y-67317000D01*
X86170000Y-67316000D01*
X86167000Y-67315000D01*
X86165000Y-67313000D01*
X86163000Y-67312000D01*
X86161000Y-67310000D01*
X86159000Y-67309000D01*
X86157000Y-67307000D01*
X86155000Y-67305000D01*
X86153000Y-67303000D01*
X86151000Y-67301000D01*
X86150000Y-67299000D01*
X86148000Y-67297000D01*
X86147000Y-67295000D01*
X86145000Y-67293000D01*
X86144000Y-67290000D01*
X86143000Y-67288000D01*
X86142000Y-67285000D01*
X86142000Y-67283000D01*
X86141000Y-67280000D01*
X86141000Y-67278000D01*
X86140000Y-67275000D01*
X86140000Y-67273000D01*
X86140000Y-67270000D01*
X86140000Y-66980000D01*
X86140000Y-66977000D01*
X86140000Y-66975000D01*
X86141000Y-66972000D01*
X86141000Y-66970000D01*
X86142000Y-66967000D01*
X86142000Y-66965000D01*
X86143000Y-66962000D01*
X86144000Y-66960000D01*
X86145000Y-66957000D01*
X86147000Y-66955000D01*
X86148000Y-66953000D01*
X86150000Y-66951000D01*
X86151000Y-66949000D01*
X86153000Y-66947000D01*
X86155000Y-66945000D01*
X86157000Y-66943000D01*
X86159000Y-66941000D01*
X86161000Y-66940000D01*
X86163000Y-66938000D01*
X86165000Y-66937000D01*
X86167000Y-66935000D01*
X86170000Y-66934000D01*
X86172000Y-66933000D01*
X86175000Y-66932000D01*
X86177000Y-66932000D01*
X86180000Y-66931000D01*
X86182000Y-66931000D01*
X86185000Y-66930000D01*
X86187000Y-66930000D01*
X86190000Y-66930000D01*
X86830000Y-66930000D01*
X86833000Y-66930000D01*
X86835000Y-66930000D01*
X86838000Y-66931000D01*
G37*
%TD*%
D11*
%TO.C,C16*%
X89160000Y-70800000D03*
X90710000Y-70800000D03*
%TD*%
%TO.C,C17*%
X89160000Y-66150000D03*
X90710000Y-66150000D03*
%TD*%
%TO.C,C12*%
X85750000Y-59725000D03*
X87300000Y-59725000D03*
%TD*%
D12*
%TO.C,R1*%
X80260000Y-67725000D03*
X78610000Y-67725000D03*
%TD*%
D13*
%TO.C,C2*%
X84167648Y-53350000D03*
X82617648Y-53350000D03*
%TD*%
D11*
%TO.C,C10*%
X89160000Y-67700000D03*
X90710000Y-67700000D03*
%TD*%
%TO.C,C14*%
X85750000Y-58200000D03*
X87300000Y-58200000D03*
%TD*%
%TO.C,C7*%
X85585000Y-72500000D03*
X87135000Y-72500000D03*
%TD*%
%TO.C,C11*%
X89160000Y-69225000D03*
X90710000Y-69225000D03*
%TD*%
D12*
%TO.C,R3*%
X84292648Y-55150000D03*
X82642648Y-55150000D03*
%TD*%
D11*
%TO.C,C6*%
X85585000Y-70975000D03*
X87135000Y-70975000D03*
%TD*%
D13*
%TO.C,C5*%
X83985000Y-70115000D03*
X82435000Y-70115000D03*
%TD*%
D14*
%TO.C,U2*%
X80340000Y-55200000D03*
X80840000Y-55200000D03*
X81340000Y-55200000D03*
X80340000Y-55700000D03*
X80840000Y-55700000D03*
X81340000Y-55700000D03*
X80340000Y-56200000D03*
X80840000Y-56200000D03*
X81340000Y-56200000D03*
%TD*%
D11*
%TO.C,C13*%
X88875000Y-58200000D03*
X90425000Y-58200000D03*
%TD*%
D13*
%TO.C,C9*%
X80935000Y-70115000D03*
X79385000Y-70115000D03*
%TD*%
D11*
%TO.C,C15*%
X88850000Y-59775000D03*
X90400000Y-59775000D03*
%TD*%
D15*
%TO.C,C3*%
X78775000Y-56700000D03*
X78775000Y-55150000D03*
%TD*%
D16*
%TO.C,R2*%
X82667648Y-56675000D03*
X84317648Y-56675000D03*
%TD*%
D13*
%TO.C,C1*%
X80210000Y-66175000D03*
X78660000Y-66175000D03*
%TD*%
%TO.C,C8*%
X80935000Y-71625000D03*
X79385000Y-71625000D03*
%TD*%
D17*
%TO.C,L1*%
X80980148Y-53425000D03*
X78855148Y-53425000D03*
%TD*%
D13*
%TO.C,C4*%
X83985000Y-71625000D03*
X82435000Y-71625000D03*
%TD*%
D18*
%TO.C,M1*%
X95500000Y-50650000D03*
D19*
X93800000Y-50650000D03*
D18*
X95500000Y-55730000D03*
D19*
X93800000Y-55730000D03*
D18*
X95500000Y-58270000D03*
D19*
X93800000Y-58270000D03*
D18*
X95500000Y-60810000D03*
D19*
X93800000Y-60810000D03*
D18*
X95500000Y-63350000D03*
D19*
X93800000Y-63350000D03*
D18*
X95500000Y-65890000D03*
D19*
X93800000Y-65890000D03*
D18*
X95500000Y-68430000D03*
D19*
X93800000Y-68430000D03*
D18*
X95500000Y-70970000D03*
D19*
X93800000Y-70970000D03*
D18*
X95500000Y-73510000D03*
D19*
X93800000Y-73510000D03*
D18*
X95500000Y-76050000D03*
D19*
X93800000Y-76050000D03*
X75200000Y-50650000D03*
D18*
X73500000Y-50650000D03*
D19*
X75200000Y-53190000D03*
D18*
X73500000Y-53190000D03*
D19*
X75200000Y-55730000D03*
D18*
X73500000Y-55730000D03*
D19*
X75200000Y-58270000D03*
D18*
X73500000Y-58270000D03*
D19*
X75200000Y-60810000D03*
D18*
X73500000Y-60810000D03*
D19*
X75200000Y-63350000D03*
D18*
X73500000Y-63350000D03*
D19*
X75200000Y-65890000D03*
D18*
X73500000Y-65890000D03*
D19*
X75200000Y-68430000D03*
D18*
X73500000Y-68430000D03*
D19*
X75200000Y-70970000D03*
D18*
X73500000Y-70970000D03*
D19*
X75200000Y-73510000D03*
D18*
X73500000Y-73510000D03*
D19*
X75200000Y-76050000D03*
D18*
X73500000Y-76050000D03*
%TD*%
M02*
