%TF.GenerationSoftware,KiCad,Pcbnew,9.0.1+dfsg-1*%
%TF.CreationDate,2025-05-01T10:53:58+02:00*%
%TF.ProjectId,audio-codec,61756469-6f2d-4636-9f64-65632e6b6963,rev?*%
%TF.SameCoordinates,Original*%
%TF.FileFunction,Copper,L1,Top*%
%TF.FilePolarity,Positive*%
%FSLAX46Y46*%
G04 Gerber Fmt 4.6, Leading zero omitted, Abs format (unit mm)*
G04 Created by KiCad (PCBNEW 9.0.1+dfsg-1) date 2025-05-01 10:53:58*
%MOMM*%
%LPD*%
G01*
G04 APERTURE LIST*
G04 Aperture macros list*
%AMRoundRect*
0 Rectangle with rounded corners*
0 $1 Rounding radius*
0 $2 $3 $4 $5 $6 $7 $8 $9 X,Y pos of 4 corners*
0 Add a 4 corners polygon primitive as box body*
4,1,4,$2,$3,$4,$5,$6,$7,$8,$9,$2,$3,0*
0 Add four circle primitives for the rounded corners*
1,1,$1+$1,$2,$3*
1,1,$1+$1,$4,$5*
1,1,$1+$1,$6,$7*
1,1,$1+$1,$8,$9*
0 Add four rect primitives between the rounded corners*
20,1,$1+$1,$2,$3,$4,$5,0*
20,1,$1+$1,$4,$5,$6,$7,0*
20,1,$1+$1,$6,$7,$8,$9,0*
20,1,$1+$1,$8,$9,$2,$3,0*%
G04 Aperture macros list end*
%TA.AperFunction,SMDPad,CuDef*%
%ADD10RoundRect,0.225000X-0.225000X-0.250000X0.225000X-0.250000X0.225000X0.250000X-0.225000X0.250000X0*%
%TD*%
%TA.AperFunction,SMDPad,CuDef*%
%ADD11RoundRect,0.200000X0.200000X0.275000X-0.200000X0.275000X-0.200000X-0.275000X0.200000X-0.275000X0*%
%TD*%
%TA.AperFunction,SMDPad,CuDef*%
%ADD12RoundRect,0.225000X0.225000X0.250000X-0.225000X0.250000X-0.225000X-0.250000X0.225000X-0.250000X0*%
%TD*%
%TA.AperFunction,SMDPad,CuDef*%
%ADD13C,0.260000*%
%TD*%
%TA.AperFunction,SMDPad,CuDef*%
%ADD14RoundRect,0.031250X-0.093750X0.268750X-0.093750X-0.268750X0.093750X-0.268750X0.093750X0.268750X0*%
%TD*%
%TA.AperFunction,SMDPad,CuDef*%
%ADD15RoundRect,0.031250X-0.268750X0.093750X-0.268750X-0.093750X0.268750X-0.093750X0.268750X0.093750X0*%
%TD*%
%TA.AperFunction,SMDPad,CuDef*%
%ADD16R,3.450000X3.450000*%
%TD*%
%TA.AperFunction,ComponentPad*%
%ADD17C,0.400000*%
%TD*%
%TA.AperFunction,SMDPad,CuDef*%
%ADD18RoundRect,0.225000X0.250000X-0.225000X0.250000X0.225000X-0.250000X0.225000X-0.250000X-0.225000X0*%
%TD*%
%TA.AperFunction,SMDPad,CuDef*%
%ADD19RoundRect,0.200000X-0.200000X-0.275000X0.200000X-0.275000X0.200000X0.275000X-0.200000X0.275000X0*%
%TD*%
%TA.AperFunction,SMDPad,CuDef*%
%ADD20RoundRect,0.218750X0.218750X0.381250X-0.218750X0.381250X-0.218750X-0.381250X0.218750X-0.381250X0*%
%TD*%
%TA.AperFunction,CastellatedPad*%
%ADD21R,2.540000X2.000000*%
%TD*%
%TA.AperFunction,ComponentPad*%
%ADD22RoundRect,0.250000X-0.375000X-0.375000X0.375000X-0.375000X0.375000X0.375000X-0.375000X0.375000X0*%
%TD*%
%TA.AperFunction,ViaPad*%
%ADD23C,0.600000*%
%TD*%
%TA.AperFunction,Conductor*%
%ADD24C,0.500000*%
%TD*%
%TA.AperFunction,Conductor*%
%ADD25C,0.200000*%
%TD*%
%TA.AperFunction,Conductor*%
%ADD26C,0.300000*%
%TD*%
G04 APERTURE END LIST*
D10*
%TO.P,C16,1*%
%TO.N,Net-(U1-HPL)*%
X89160000Y-70800000D03*
%TO.P,C16,2*%
%TO.N,3.5MM_LEFT*%
X90710000Y-70800000D03*
%TD*%
%TO.P,C17,1*%
%TO.N,Net-(U1-HPR)*%
X89160000Y-66150000D03*
%TO.P,C17,2*%
%TO.N,3.5MM_RIGHT*%
X90710000Y-66150000D03*
%TD*%
%TO.P,C12,1*%
%TO.N,DECOUPLE5*%
X85750000Y-59725000D03*
%TO.P,C12,2*%
%TO.N,GND*%
X87300000Y-59725000D03*
%TD*%
D11*
%TO.P,R1,1*%
%TO.N,Net-(U1-MICBIAS)*%
X80260000Y-67725000D03*
%TO.P,R1,2*%
%TO.N,3.5MM_MIC*%
X78610000Y-67725000D03*
%TD*%
D12*
%TO.P,C2,1*%
%TO.N,GND*%
X84167648Y-53350000D03*
%TO.P,C2,2*%
%TO.N,DECOUPLE4*%
X82617648Y-53350000D03*
%TD*%
D10*
%TO.P,C10,1*%
%TO.N,DECOUPLE4*%
X89160000Y-67700000D03*
%TO.P,C10,2*%
%TO.N,GND*%
X90710000Y-67700000D03*
%TD*%
%TO.P,C14,1*%
%TO.N,DECOUPLE5*%
X85750000Y-58200000D03*
%TO.P,C14,2*%
%TO.N,GND*%
X87300000Y-58200000D03*
%TD*%
%TO.P,C7,1*%
%TO.N,DECOUPLE1*%
X85585000Y-72500000D03*
%TO.P,C7,2*%
%TO.N,GND*%
X87135000Y-72500000D03*
%TD*%
%TO.P,C11,1*%
%TO.N,DECOUPLE4*%
X89160000Y-69225000D03*
%TO.P,C11,2*%
%TO.N,GND*%
X90710000Y-69225000D03*
%TD*%
D11*
%TO.P,R3,1*%
%TO.N,DECOUPLE4*%
X84292648Y-55150000D03*
%TO.P,R3,2*%
%TO.N,V1.8_MODE*%
X82642648Y-55150000D03*
%TD*%
D10*
%TO.P,C6,1*%
%TO.N,DECOUPLE1*%
X85585000Y-70975000D03*
%TO.P,C6,2*%
%TO.N,GND*%
X87135000Y-70975000D03*
%TD*%
D12*
%TO.P,C5,1*%
%TO.N,DECOUPLE1*%
X83985000Y-70115000D03*
%TO.P,C5,2*%
%TO.N,GND*%
X82435000Y-70115000D03*
%TD*%
D13*
%TO.P,U2,A1,SW*%
%TO.N,Net-(U2-SW)*%
X80340000Y-55200000D03*
%TO.P,U2,A2,PVIN*%
%TO.N,DECOUPLE4*%
X80840000Y-55200000D03*
%TO.P,U2,A3,EN*%
X81340000Y-55200000D03*
%TO.P,U2,B1,PGND*%
%TO.N,GND*%
X80340000Y-55700000D03*
%TO.P,U2,B2,AGND*%
X80840000Y-55700000D03*
%TO.P,U2,B3,SYNC/MODE*%
%TO.N,V1.8_MODE*%
X81340000Y-55700000D03*
%TO.P,U2,C1,VOUTOK*%
%TO.N,unconnected-(U2-VOUTOK-PadC1)*%
X80340000Y-56200000D03*
%TO.P,U2,C2,FB*%
%TO.N,DECOUPLE5*%
X80840000Y-56200000D03*
%TO.P,U2,C3,VID*%
%TO.N,Net-(U2-VID)*%
X81340000Y-56200000D03*
%TD*%
D14*
%TO.P,U1,1,IOVSS*%
%TO.N,GND*%
X85860000Y-62975000D03*
%TO.P,U1,2,IOVDD*%
%TO.N,DECOUPLE4*%
X85360000Y-62975000D03*
%TO.P,U1,3,DVDD*%
%TO.N,DECOUPLE5*%
X84860000Y-62975000D03*
%TO.P,U1,4,DOUT*%
%TO.N,I2S_DOUT*%
X84360000Y-62975000D03*
%TO.P,U1,5,DIN*%
%TO.N,I2S_DIN*%
X83860000Y-62975000D03*
%TO.P,U1,6,WCLK*%
%TO.N,WCLK*%
X83360000Y-62975000D03*
%TO.P,U1,7,BCLK*%
%TO.N,I2S_BCLK*%
X82860000Y-62975000D03*
%TO.P,U1,8,MCLK*%
%TO.N,I2S_MCLK*%
X82360000Y-62975000D03*
D15*
%TO.P,U1,9,SDA*%
%TO.N,SDA*%
X81710000Y-63625000D03*
%TO.P,U1,10,SCL*%
%TO.N,SCL*%
X81710000Y-64125000D03*
%TO.P,U1,11,VOL/MICDET*%
%TO.N,Net-(U1-MIC1RP)*%
X81710000Y-64625000D03*
%TO.P,U1,12,MICBIAS*%
%TO.N,Net-(U1-MICBIAS)*%
X81710000Y-65125000D03*
%TO.P,U1,13,MIC1LP*%
%TO.N,unconnected-(U1-MIC1LP-Pad13)*%
X81710000Y-65625000D03*
%TO.P,U1,14,MIC1RP*%
%TO.N,Net-(U1-MIC1RP)*%
X81710000Y-66125000D03*
%TO.P,U1,15,MIC1LM*%
%TO.N,unconnected-(U1-MIC1LM-Pad15)*%
X81710000Y-66625000D03*
%TO.P,U1,16,AVSS*%
%TO.N,GND*%
X81710000Y-67125000D03*
D14*
%TO.P,U1,17,AVDD*%
%TO.N,DECOUPLE1*%
X82360000Y-67775000D03*
%TO.P,U1,18,DVSS*%
%TO.N,GND*%
X82860000Y-67775000D03*
%TO.P,U1,19,SPLM*%
%TO.N,SPEAKER_L_M*%
X83360000Y-67775000D03*
%TO.P,U1,20,SPLVSS*%
%TO.N,GND*%
X83860000Y-67775000D03*
%TO.P,U1,21,SPLVDD*%
%TO.N,DECOUPLE1*%
X84360000Y-67775000D03*
%TO.P,U1,22,SPLP*%
%TO.N,SPEAKER_L_P*%
X84860000Y-67775000D03*
%TO.P,U1,23,SPRM*%
%TO.N,SPEAKER_R_M*%
X85360000Y-67775000D03*
%TO.P,U1,24,SPRVDD*%
%TO.N,DECOUPLE1*%
X85860000Y-67775000D03*
D15*
%TO.P,U1,25,SPRVSS*%
%TO.N,GND*%
X86510000Y-67125000D03*
%TO.P,U1,26,SPRP*%
%TO.N,SPEAKER_R_P*%
X86510000Y-66625000D03*
%TO.P,U1,27,HPL*%
%TO.N,Net-(U1-HPL)*%
X86510000Y-66125000D03*
%TO.P,U1,28,HPVDD*%
%TO.N,DECOUPLE4*%
X86510000Y-65625000D03*
%TO.P,U1,29,HPVSS*%
%TO.N,GND*%
X86510000Y-65125000D03*
%TO.P,U1,30,HPR*%
%TO.N,Net-(U1-HPR)*%
X86510000Y-64625000D03*
%TO.P,U1,31,~{RESET}*%
%TO.N,{slash}RESET*%
X86510000Y-64125000D03*
%TO.P,U1,32,GPIO1*%
%TO.N,GPIO1*%
X86510000Y-63625000D03*
D16*
%TO.P,U1,33,EP*%
%TO.N,GND*%
X84110000Y-65375000D03*
D17*
%TO.P,U1,34,GND*%
X84110000Y-65375000D03*
%TO.P,U1,35,GND*%
X85585000Y-65375000D03*
%TO.P,U1,36,GND*%
X84110000Y-63900000D03*
%TO.P,U1,37,GND*%
X82635000Y-65375000D03*
%TO.P,U1,38,GND*%
X84110000Y-66850000D03*
%TD*%
D10*
%TO.P,C13,1*%
%TO.N,DECOUPLE4*%
X88875000Y-58200000D03*
%TO.P,C13,2*%
%TO.N,GND*%
X90425000Y-58200000D03*
%TD*%
D12*
%TO.P,C9,1*%
%TO.N,DECOUPLE1*%
X80935000Y-70115000D03*
%TO.P,C9,2*%
%TO.N,GND*%
X79385000Y-70115000D03*
%TD*%
D10*
%TO.P,C15,1*%
%TO.N,DECOUPLE4*%
X88850000Y-59775000D03*
%TO.P,C15,2*%
%TO.N,GND*%
X90400000Y-59775000D03*
%TD*%
D18*
%TO.P,C3,1*%
%TO.N,DECOUPLE5*%
X78775000Y-56700000D03*
%TO.P,C3,2*%
%TO.N,GND*%
X78775000Y-55150000D03*
%TD*%
D19*
%TO.P,R2,1*%
%TO.N,Net-(U2-VID)*%
X82667648Y-56675000D03*
%TO.P,R2,2*%
%TO.N,GND*%
X84317648Y-56675000D03*
%TD*%
D12*
%TO.P,C1,1*%
%TO.N,Net-(U1-MIC1RP)*%
X80210000Y-66175000D03*
%TO.P,C1,2*%
%TO.N,3.5MM_MIC*%
X78660000Y-66175000D03*
%TD*%
%TO.P,C8,1*%
%TO.N,DECOUPLE1*%
X80935000Y-71625000D03*
%TO.P,C8,2*%
%TO.N,GND*%
X79385000Y-71625000D03*
%TD*%
D20*
%TO.P,L1,1,1*%
%TO.N,Net-(U2-SW)*%
X80980148Y-53425000D03*
%TO.P,L1,2,2*%
%TO.N,DECOUPLE5*%
X78855148Y-53425000D03*
%TD*%
D12*
%TO.P,C4,1*%
%TO.N,DECOUPLE1*%
X83985000Y-71625000D03*
%TO.P,C4,2*%
%TO.N,GND*%
X82435000Y-71625000D03*
%TD*%
D21*
%TO.P,M1,1,VCC*%
%TO.N,DECOUPLE1*%
X95500000Y-50650000D03*
D22*
X93800000Y-50650000D03*
D21*
%TO.P,M1,3*%
%TO.N,{slash}RESET*%
X95500000Y-55730000D03*
D22*
X93800000Y-55730000D03*
D21*
%TO.P,M1,4*%
%TO.N,V1.8_MODE*%
X95500000Y-58270000D03*
D22*
X93800000Y-58270000D03*
D21*
%TO.P,M1,5*%
%TO.N,3.5MM_RIGHT*%
X95500000Y-60810000D03*
D22*
X93800000Y-60810000D03*
D21*
%TO.P,M1,6*%
%TO.N,3.5MM_LEFT*%
X95500000Y-63350000D03*
D22*
X93800000Y-63350000D03*
D21*
%TO.P,M1,7*%
%TO.N,SPEAKER_R_P*%
X95500000Y-65890000D03*
D22*
X93800000Y-65890000D03*
D21*
%TO.P,M1,8*%
%TO.N,SPEAKER_R_M*%
X95500000Y-68430000D03*
D22*
X93800000Y-68430000D03*
D21*
%TO.P,M1,9*%
%TO.N,SPEAKER_L_P*%
X95500000Y-70970000D03*
D22*
X93800000Y-70970000D03*
D21*
%TO.P,M1,10*%
%TO.N,SPEAKER_L_M*%
X95500000Y-73510000D03*
D22*
X93800000Y-73510000D03*
D21*
%TO.P,M1,11,GND*%
%TO.N,GND*%
X95500000Y-76050000D03*
D22*
X93800000Y-76050000D03*
%TO.P,M1,12*%
%TO.N,DECOUPLE4*%
X75200000Y-50650000D03*
D21*
X73500000Y-50650000D03*
D22*
%TO.P,M1,13*%
%TO.N,GPIO1*%
X75200000Y-53190000D03*
D21*
X73500000Y-53190000D03*
D22*
%TO.P,M1,14*%
%TO.N,DECOUPLE5*%
X75200000Y-55730000D03*
D21*
X73500000Y-55730000D03*
D22*
%TO.P,M1,15*%
%TO.N,I2S_DOUT*%
X75200000Y-58270000D03*
D21*
X73500000Y-58270000D03*
D22*
%TO.P,M1,16*%
%TO.N,I2S_DIN*%
X75200000Y-60810000D03*
D21*
X73500000Y-60810000D03*
D22*
%TO.P,M1,17*%
%TO.N,WCLK*%
X75200000Y-63350000D03*
D21*
X73500000Y-63350000D03*
D22*
%TO.P,M1,18*%
%TO.N,I2S_BCLK*%
X75200000Y-65890000D03*
D21*
X73500000Y-65890000D03*
D22*
%TO.P,M1,19*%
%TO.N,I2S_MCLK*%
X75200000Y-68430000D03*
D21*
X73500000Y-68430000D03*
D22*
%TO.P,M1,20*%
%TO.N,SDA*%
X75200000Y-70970000D03*
D21*
X73500000Y-70970000D03*
D22*
%TO.P,M1,21*%
%TO.N,SCL*%
X75200000Y-73510000D03*
D21*
X73500000Y-73510000D03*
D22*
%TO.P,M1,22*%
%TO.N,3.5MM_MIC*%
X75200000Y-76050000D03*
D21*
X73500000Y-76050000D03*
%TD*%
D23*
%TO.N,DECOUPLE4*%
X88125000Y-57210000D03*
X88310000Y-65175000D03*
X88335000Y-62150000D03*
X87000000Y-54825000D03*
%TO.N,Net-(U1-MIC1RP)*%
X80199243Y-64200000D03*
X80084958Y-65423571D03*
%TO.N,GND*%
X87100000Y-60520000D03*
X81430000Y-61040000D03*
X89980000Y-66950000D03*
X75370000Y-59530000D03*
X81485000Y-67625000D03*
X93220000Y-72230000D03*
X87290000Y-57490000D03*
X78550000Y-58030000D03*
X92500000Y-64640000D03*
X89750000Y-52510000D03*
X84141926Y-54175000D03*
X78890000Y-64190000D03*
X77120000Y-59640000D03*
X92500000Y-54240000D03*
X77300000Y-73090000D03*
X83860000Y-68525000D03*
X75510000Y-54450000D03*
X87110000Y-52850000D03*
X89540000Y-76250000D03*
X93060000Y-62040000D03*
X75510000Y-62060000D03*
X78120000Y-55230000D03*
X87285000Y-65175000D03*
X82430000Y-69350000D03*
X82650000Y-68580000D03*
X79350000Y-69270000D03*
X76120000Y-74720000D03*
X75920000Y-69640000D03*
X88430000Y-53820000D03*
X86200000Y-56050000D03*
X77910000Y-61160000D03*
X75610000Y-57010000D03*
X86560000Y-67725000D03*
X86650000Y-70060000D03*
X86320000Y-62590000D03*
X89800000Y-51450000D03*
X75910000Y-72210000D03*
X90300000Y-57520000D03*
X82480000Y-72450000D03*
X90035000Y-68400000D03*
X75490000Y-64660000D03*
X75800000Y-67140000D03*
X93160000Y-69730000D03*
X92500000Y-52510000D03*
X90880000Y-76250000D03*
X75440000Y-51920000D03*
X90380000Y-60500000D03*
X92630000Y-74880000D03*
X92500000Y-59590000D03*
X84400000Y-59160000D03*
X93060000Y-56970000D03*
X87920000Y-72500000D03*
X93140000Y-67090000D03*
X79360000Y-72330000D03*
%TO.N,DECOUPLE1*%
X84435000Y-73940000D03*
X85590000Y-73170000D03*
X80935000Y-74850000D03*
%TO.N,{slash}RESET*%
X89710000Y-56440000D03*
X89780000Y-55140000D03*
%TO.N,SPEAKER_R_M*%
X85477107Y-69232893D03*
X86935000Y-68431666D03*
%TO.N,GPIO1*%
X90930000Y-57010000D03*
%TD*%
D24*
%TO.N,DECOUPLE4*%
X85425000Y-51950000D02*
X77875000Y-51950000D01*
D25*
X86935000Y-61690000D02*
X88850000Y-59775000D01*
X87810000Y-65775000D02*
X87036471Y-65775000D01*
X82167648Y-54375000D02*
X81342648Y-55200000D01*
X88125000Y-57450000D02*
X88875000Y-58200000D01*
X88335000Y-66300000D02*
X87810000Y-65775000D01*
X88400000Y-65265000D02*
X88310000Y-65175000D01*
X86886471Y-65625000D02*
X86510000Y-65625000D01*
X86313176Y-61690000D02*
X86935000Y-61690000D01*
X88335000Y-66300000D02*
X88400000Y-66235000D01*
X87036471Y-65775000D02*
X86886471Y-65625000D01*
X88410000Y-66375000D02*
X88335000Y-66300000D01*
D24*
X84292648Y-55150000D02*
X85067648Y-54375000D01*
D25*
X87000000Y-54825000D02*
X86675000Y-55150000D01*
X82617648Y-53825000D02*
X82617648Y-53350000D01*
X89160000Y-67700000D02*
X89160000Y-69225000D01*
X88335000Y-62150000D02*
X88850000Y-61635000D01*
X88850000Y-59775000D02*
X88850000Y-58225000D01*
X82167648Y-54275000D02*
X82617648Y-53825000D01*
X88850000Y-58225000D02*
X88875000Y-58200000D01*
X83217648Y-54375000D02*
X82167648Y-54375000D01*
D24*
X77875000Y-51950000D02*
X76275000Y-50350000D01*
D25*
X84292648Y-55150000D02*
X83992648Y-55150000D01*
X89160000Y-67700000D02*
X88410000Y-66950000D01*
X86675000Y-55150000D02*
X84292648Y-55150000D01*
X82167648Y-54375000D02*
X82167648Y-54275000D01*
D24*
X85067648Y-54375000D02*
X85067648Y-52979534D01*
D25*
X88850000Y-61635000D02*
X88850000Y-59775000D01*
D24*
X85425000Y-52622182D02*
X85425000Y-51950000D01*
D25*
X81342648Y-55200000D02*
X80842648Y-55200000D01*
X88410000Y-66950000D02*
X88410000Y-66375000D01*
X83992648Y-55150000D02*
X83217648Y-54375000D01*
D24*
X85067648Y-52979534D02*
X85425000Y-52622182D01*
X76275000Y-50350000D02*
X74505000Y-50350000D01*
D25*
X88400000Y-66235000D02*
X88400000Y-65265000D01*
X85360000Y-62975000D02*
X85360000Y-62643176D01*
X85360000Y-62643176D02*
X86313176Y-61690000D01*
X88125000Y-57210000D02*
X88125000Y-57450000D01*
%TO.N,Net-(U1-MIC1RP)*%
X80084958Y-66049958D02*
X80210000Y-66175000D01*
X80084958Y-65423571D02*
X80084958Y-66049958D01*
X80199243Y-64200000D02*
X80399243Y-64400000D01*
X80399243Y-64400000D02*
X80526989Y-64400000D01*
X80526989Y-64400000D02*
X80751989Y-64625000D01*
X80210000Y-66175000D02*
X81660000Y-66175000D01*
X81660000Y-66175000D02*
X81710000Y-66125000D01*
X80751989Y-64625000D02*
X81710000Y-64625000D01*
D24*
%TO.N,GND*%
X79385000Y-70115000D02*
X79385000Y-69305000D01*
D25*
X79467648Y-55700000D02*
X78917648Y-55150000D01*
D24*
X82435000Y-70115000D02*
X82430000Y-70110000D01*
X92500000Y-52510000D02*
X89750000Y-52510000D01*
D25*
X90425000Y-57895000D02*
X90425000Y-58200000D01*
X86510000Y-67125000D02*
X86510000Y-67675000D01*
D24*
X88440000Y-53820000D02*
X89750000Y-52510000D01*
D25*
X81710000Y-67125000D02*
X81710000Y-67400000D01*
X83860000Y-67775000D02*
X83885000Y-67775000D01*
X87300000Y-57500000D02*
X87300000Y-58200000D01*
X81710000Y-67400000D02*
X81485000Y-67625000D01*
X90710000Y-69225000D02*
X90710000Y-69075000D01*
X90710000Y-69075000D02*
X90035000Y-68400000D01*
D24*
X87135000Y-70625000D02*
X87135000Y-70975000D01*
D25*
X87290000Y-57490000D02*
X87300000Y-57500000D01*
X86510000Y-65125000D02*
X87235000Y-65125000D01*
D24*
X79385000Y-69305000D02*
X79350000Y-69270000D01*
D25*
X80842648Y-55700000D02*
X80342648Y-55700000D01*
D24*
X87920000Y-72500000D02*
X87135000Y-72500000D01*
D25*
X84942648Y-56050000D02*
X84317648Y-56675000D01*
X83885000Y-67775000D02*
X83910000Y-67800000D01*
X83860000Y-67850000D02*
X83860000Y-68525000D01*
X90710000Y-69225000D02*
X90710000Y-67700000D01*
X86510000Y-67675000D02*
X86560000Y-67725000D01*
D24*
X88430000Y-53820000D02*
X88440000Y-53820000D01*
D25*
X84141926Y-54175000D02*
X84167648Y-54149278D01*
X94825000Y-75750000D02*
X93675000Y-75750000D01*
X89980000Y-66970000D02*
X89980000Y-66950000D01*
D24*
X82435000Y-72405000D02*
X82480000Y-72450000D01*
D25*
X90400000Y-58225000D02*
X90425000Y-58200000D01*
D24*
X86650000Y-70060000D02*
X86650000Y-70140000D01*
D25*
X78350000Y-55150000D02*
X78917648Y-55150000D01*
D24*
X79385000Y-72305000D02*
X79360000Y-72330000D01*
D25*
X90300000Y-57520000D02*
X90300000Y-57770000D01*
X94825000Y-75750000D02*
X94675000Y-75900000D01*
X80342648Y-55700000D02*
X79467648Y-55700000D01*
X86200000Y-56050000D02*
X84942648Y-56050000D01*
X82650000Y-68580000D02*
X82860000Y-68370000D01*
X90300000Y-57770000D02*
X90425000Y-57895000D01*
X87235000Y-65125000D02*
X87285000Y-65175000D01*
X85935000Y-62975000D02*
X85860000Y-62975000D01*
D24*
X90400000Y-59775000D02*
X90400000Y-60480000D01*
X82435000Y-71625000D02*
X82435000Y-72405000D01*
X90400000Y-60480000D02*
X90380000Y-60500000D01*
X79385000Y-71625000D02*
X79385000Y-72305000D01*
X86650000Y-70140000D02*
X87135000Y-70625000D01*
X87300000Y-59725000D02*
X87300000Y-60320000D01*
X82430000Y-70110000D02*
X82430000Y-69350000D01*
D25*
X82860000Y-68370000D02*
X82860000Y-67775000D01*
X86320000Y-62590000D02*
X85935000Y-62975000D01*
X83910000Y-67800000D02*
X83860000Y-67850000D01*
X90710000Y-67700000D02*
X89980000Y-66970000D01*
D24*
X87300000Y-60320000D02*
X87100000Y-60520000D01*
D25*
X84167648Y-54149278D02*
X84167648Y-53350000D01*
%TO.N,DECOUPLE1*%
X85585000Y-70975000D02*
X85585000Y-70825000D01*
D24*
X83990000Y-73495000D02*
X83990000Y-71630000D01*
D25*
X85590000Y-73170000D02*
X85590000Y-72675000D01*
X85585000Y-70145000D02*
X86090000Y-69640000D01*
X85585000Y-72500000D02*
X85585000Y-70975000D01*
X82360000Y-67775000D02*
X80935000Y-69200000D01*
D24*
X83990000Y-71630000D02*
X83985000Y-71625000D01*
D25*
X80935000Y-70115000D02*
X80935000Y-71625000D01*
X80935000Y-69200000D02*
X80935000Y-70115000D01*
X85585000Y-70825000D02*
X85585000Y-70145000D01*
X84360000Y-67775000D02*
X84360000Y-68176471D01*
X85860000Y-68767257D02*
X85860000Y-67775000D01*
X84360000Y-68176471D02*
X84460000Y-68276471D01*
X86090000Y-69640000D02*
X86090000Y-68997257D01*
X84460000Y-68773529D02*
X83985000Y-69248529D01*
X94075000Y-50350000D02*
X94825000Y-50350000D01*
X85590000Y-72675000D02*
X85585000Y-72670000D01*
D24*
X80935000Y-74850000D02*
X80935000Y-71625000D01*
X84435000Y-73940000D02*
X83990000Y-73495000D01*
D25*
X86090000Y-68997257D02*
X85860000Y-68767257D01*
D24*
X85585000Y-72670000D02*
X85585000Y-70825000D01*
D25*
X83985000Y-69248529D02*
X83985000Y-70115000D01*
X83985000Y-70115000D02*
X83985000Y-71625000D01*
X84460000Y-68276471D02*
X84460000Y-68773529D01*
%TO.N,SPEAKER_L_P*%
X90560000Y-74020000D02*
X85570000Y-74020000D01*
X93610000Y-70970000D02*
X90560000Y-74020000D01*
X84835000Y-68964214D02*
X84860000Y-68939214D01*
X84860000Y-68939214D02*
X84860000Y-67775000D01*
X85570000Y-74020000D02*
X84835000Y-73285000D01*
X84835000Y-73285000D02*
X84835000Y-68964214D01*
X93800000Y-70970000D02*
X93610000Y-70970000D01*
%TO.N,Net-(U1-HPR)*%
X86560000Y-64575000D02*
X88585000Y-64575000D01*
X88585000Y-64575000D02*
X89160000Y-65150000D01*
X86510000Y-64625000D02*
X86560000Y-64575000D01*
X89160000Y-65150000D02*
X89160000Y-66150000D01*
%TO.N,I2S_MCLK*%
X82360000Y-62975000D02*
X82160000Y-62775000D01*
X76875000Y-67475000D02*
X75920000Y-68430000D01*
X76875000Y-64055000D02*
X76875000Y-67475000D01*
X82160000Y-62775000D02*
X78155000Y-62775000D01*
X78155000Y-62775000D02*
X76875000Y-64055000D01*
X75920000Y-68430000D02*
X75200000Y-68430000D01*
%TO.N,I2S_DOUT*%
X76820000Y-58270000D02*
X75200000Y-58270000D01*
X79810000Y-58800000D02*
X77350000Y-58800000D01*
X84360000Y-62975000D02*
X84360000Y-60580000D01*
X77350000Y-58800000D02*
X76820000Y-58270000D01*
X80310000Y-59300000D02*
X79810000Y-58800000D01*
X83080000Y-59300000D02*
X80310000Y-59300000D01*
X84360000Y-60580000D02*
X83080000Y-59300000D01*
%TO.N,{slash}RESET*%
X91600000Y-56820000D02*
X91600000Y-62585000D01*
X89780000Y-56370000D02*
X89840000Y-56370000D01*
X91020000Y-56240000D02*
X91600000Y-56820000D01*
X92540000Y-55150000D02*
X93120000Y-55730000D01*
X93120000Y-55730000D02*
X93800000Y-55730000D01*
X89710000Y-56440000D02*
X89780000Y-56370000D01*
X89840000Y-56370000D02*
X89970000Y-56240000D01*
X91600000Y-62585000D02*
X90060000Y-64125000D01*
X89780000Y-55140000D02*
X89790000Y-55150000D01*
X89970000Y-56240000D02*
X91020000Y-56240000D01*
X90060000Y-64125000D02*
X86510000Y-64125000D01*
X89790000Y-55150000D02*
X92540000Y-55150000D01*
%TO.N,Net-(U1-MICBIAS)*%
X80686304Y-65125000D02*
X80361304Y-64800000D01*
X81710000Y-65125000D02*
X80686304Y-65125000D01*
X79460000Y-66925000D02*
X80260000Y-67725000D01*
X79860000Y-64800000D02*
X79460000Y-65200000D01*
X79460000Y-65200000D02*
X79460000Y-66925000D01*
X80361304Y-64800000D02*
X79860000Y-64800000D01*
%TO.N,SPEAKER_R_P*%
X86841824Y-66625000D02*
X87600000Y-67383176D01*
X88870000Y-71860000D02*
X91310000Y-71860000D01*
X92050000Y-71120000D02*
X92050000Y-66720000D01*
X86510000Y-66625000D02*
X86841824Y-66625000D01*
X87600000Y-69465000D02*
X88375000Y-70240000D01*
X91310000Y-71860000D02*
X92050000Y-71120000D01*
X88375000Y-70240000D02*
X88375000Y-71365000D01*
X92880000Y-65890000D02*
X93800000Y-65890000D01*
X87600000Y-67383176D02*
X87600000Y-69465000D01*
X92050000Y-66720000D02*
X92880000Y-65890000D01*
X88375000Y-71365000D02*
X88870000Y-71860000D01*
D24*
%TO.N,DECOUPLE5*%
X77075000Y-56230000D02*
X76300000Y-56230000D01*
X78115000Y-53425000D02*
X75810000Y-55730000D01*
X75810000Y-55730000D02*
X75200000Y-55730000D01*
D25*
X80842648Y-56200000D02*
X80842648Y-56383847D01*
X80450760Y-56700000D02*
X80842648Y-56308112D01*
X78917648Y-56700000D02*
X80450760Y-56700000D01*
D24*
X78917648Y-56700000D02*
X77545000Y-56700000D01*
D25*
X80842648Y-56308112D02*
X80842648Y-56200000D01*
X84860000Y-60615000D02*
X85750000Y-59725000D01*
D24*
X77545000Y-56700000D02*
X77075000Y-56230000D01*
D25*
X85700000Y-59725000D02*
X85675000Y-59700000D01*
D24*
X75800000Y-55730000D02*
X75200000Y-55730000D01*
X76300000Y-56230000D02*
X75800000Y-55730000D01*
D25*
X84860000Y-62975000D02*
X84860000Y-60615000D01*
X80842648Y-56383847D02*
X82428801Y-57970000D01*
X85375000Y-60000000D02*
X85675000Y-59700000D01*
X82428801Y-57970000D02*
X85520000Y-57970000D01*
X85750000Y-59725000D02*
X85750000Y-58200000D01*
D24*
X78855148Y-53425000D02*
X78115000Y-53425000D01*
D25*
X85520000Y-57970000D02*
X85750000Y-58200000D01*
%TO.N,WCLK*%
X77715000Y-61975000D02*
X76340000Y-63350000D01*
X82757510Y-61975000D02*
X77715000Y-61975000D01*
X75200000Y-63350000D02*
X75075000Y-63350000D01*
X75075000Y-63350000D02*
X74775000Y-63050000D01*
X83360000Y-62577490D02*
X82757510Y-61975000D01*
X76340000Y-63350000D02*
X75200000Y-63350000D01*
X83360000Y-62975000D02*
X83360000Y-62577490D01*
%TO.N,SPEAKER_R_M*%
X85477107Y-69232893D02*
X85360000Y-69115786D01*
X86935000Y-68431666D02*
X87135000Y-68631666D01*
X91430000Y-72330000D02*
X92480000Y-71280000D01*
X92480000Y-68630000D02*
X92680000Y-68430000D01*
X92680000Y-68430000D02*
X93800000Y-68430000D01*
X87135000Y-69565000D02*
X87960000Y-70390000D01*
X87960000Y-71540000D02*
X88750000Y-72330000D01*
X87135000Y-68631666D02*
X87135000Y-69565000D01*
X92480000Y-71280000D02*
X92480000Y-68630000D01*
X87960000Y-70390000D02*
X87960000Y-71540000D01*
X88750000Y-72330000D02*
X91430000Y-72330000D01*
X85360000Y-69115786D02*
X85360000Y-67775000D01*
%TO.N,Net-(U1-HPL)*%
X86510000Y-66125000D02*
X86560000Y-66175000D01*
X88000000Y-69275000D02*
X88410000Y-69685000D01*
X88410000Y-69698696D02*
X88711304Y-70000000D01*
X88000000Y-66615000D02*
X88000000Y-69275000D01*
X88725000Y-70000000D02*
X89185000Y-70460000D01*
X88711304Y-70000000D02*
X88725000Y-70000000D01*
X89185000Y-70460000D02*
X89185000Y-70800000D01*
X86560000Y-66175000D02*
X87560000Y-66175000D01*
X88410000Y-69685000D02*
X88410000Y-69698696D01*
X87560000Y-66175000D02*
X88000000Y-66615000D01*
%TO.N,GPIO1*%
X91190000Y-57520000D02*
X91190000Y-62340000D01*
X91107500Y-62425000D02*
X89907500Y-63625000D01*
X90930000Y-57010000D02*
X90930000Y-57260000D01*
X90930000Y-57260000D02*
X91190000Y-57520000D01*
X91100000Y-62425000D02*
X91107500Y-62425000D01*
X91105000Y-62425000D02*
X91100000Y-62425000D01*
X89907500Y-63625000D02*
X86510000Y-63625000D01*
X91190000Y-62340000D02*
X91105000Y-62425000D01*
%TO.N,SPEAKER_L_M*%
X93800000Y-73510000D02*
X93760000Y-73550000D01*
X83235000Y-69641304D02*
X83485000Y-69391304D01*
X83485000Y-69391304D02*
X83485000Y-68998529D01*
X83260000Y-68773529D02*
X83260000Y-68206824D01*
X83360000Y-68106824D02*
X83360000Y-67775000D01*
X92070000Y-73550000D02*
X90900000Y-74720000D01*
X83970000Y-74720000D02*
X83235000Y-73985000D01*
X83235000Y-73985000D02*
X83235000Y-69641304D01*
X83485000Y-68998529D02*
X83260000Y-68773529D01*
X83260000Y-68206824D02*
X83360000Y-68106824D01*
X90900000Y-74720000D02*
X83970000Y-74720000D01*
X93760000Y-73550000D02*
X92070000Y-73550000D01*
%TO.N,I2S_BCLK*%
X82860000Y-62643176D02*
X82591824Y-62375000D01*
X82591824Y-62375000D02*
X77925000Y-62375000D01*
X76450000Y-65430000D02*
X75990000Y-65890000D01*
X77925000Y-62375000D02*
X76450000Y-63850000D01*
X82860000Y-62975000D02*
X82860000Y-62643176D01*
X82860000Y-62975000D02*
X82860000Y-62725000D01*
X76450000Y-63850000D02*
X76450000Y-65430000D01*
X75990000Y-65890000D02*
X75200000Y-65890000D01*
%TO.N,SCL*%
X75530000Y-73510000D02*
X77880000Y-71160000D01*
X77880000Y-71160000D02*
X77880000Y-64242057D01*
X75200000Y-73510000D02*
X75530000Y-73510000D01*
X77880000Y-64242057D02*
X78547057Y-63575000D01*
X81175000Y-64125000D02*
X81710000Y-64125000D01*
X78547057Y-63575000D02*
X80625000Y-63575000D01*
X80625000Y-63575000D02*
X81175000Y-64125000D01*
%TO.N,I2S_DIN*%
X83860000Y-61550000D02*
X82710000Y-60400000D01*
X82710000Y-60400000D02*
X75645000Y-60400000D01*
X75645000Y-60400000D02*
X75235000Y-60810000D01*
X83860000Y-62975000D02*
X83860000Y-61550000D01*
%TO.N,SDA*%
X78335000Y-63175000D02*
X77342843Y-64167157D01*
X75890000Y-70970000D02*
X75200000Y-70970000D01*
X81260000Y-63175000D02*
X78335000Y-63175000D01*
X77342843Y-64167157D02*
X77342843Y-69517157D01*
X81710000Y-63625000D02*
X81260000Y-63175000D01*
X77342843Y-69517157D02*
X75890000Y-70970000D01*
%TO.N,3.5MM_MIC*%
X78610000Y-73520000D02*
X76080000Y-76050000D01*
X76080000Y-76050000D02*
X75200000Y-76050000D01*
X78610000Y-67725000D02*
X78610000Y-73520000D01*
X78660000Y-66175000D02*
X78660000Y-67675000D01*
X78660000Y-67675000D02*
X78610000Y-67725000D01*
%TO.N,3.5MM_LEFT*%
X90735000Y-70800000D02*
X91630000Y-69905000D01*
X91630000Y-69905000D02*
X91630000Y-64240000D01*
X91630000Y-64240000D02*
X92520000Y-63350000D01*
X92520000Y-63350000D02*
X93800000Y-63350000D01*
%TO.N,3.5MM_RIGHT*%
X92030000Y-62980000D02*
X92030000Y-61495000D01*
X90710000Y-66150000D02*
X90710000Y-64300000D01*
X92715000Y-60810000D02*
X93800000Y-60810000D01*
X90710000Y-64300000D02*
X92030000Y-62980000D01*
X92030000Y-61495000D02*
X92715000Y-60810000D01*
%TO.N,Net-(U2-VID)*%
X81342648Y-56200000D02*
X82192648Y-56200000D01*
X82192648Y-56200000D02*
X82667648Y-56675000D01*
%TO.N,V1.8_MODE*%
X92080000Y-56550000D02*
X92080000Y-57730000D01*
X85741177Y-56700000D02*
X86451471Y-56700000D01*
X86451471Y-56700000D02*
X87371471Y-55780000D01*
X82642648Y-55150000D02*
X83617648Y-56125000D01*
X87371471Y-55780000D02*
X91310000Y-55780000D01*
X82092648Y-55700000D02*
X82642648Y-55150000D01*
X83617648Y-56125000D02*
X83617648Y-57162648D01*
X83617648Y-57162648D02*
X83905000Y-57450000D01*
X83905000Y-57450000D02*
X84991177Y-57450000D01*
X91310000Y-55780000D02*
X92080000Y-56550000D01*
X92620000Y-58270000D02*
X93800000Y-58270000D01*
X81342648Y-55700000D02*
X82092648Y-55700000D01*
X92080000Y-57730000D02*
X92620000Y-58270000D01*
X84991177Y-57450000D02*
X85741177Y-56700000D01*
D26*
%TO.N,Net-(U2-SW)*%
X80342648Y-54062500D02*
X80980148Y-53425000D01*
X80342648Y-55200000D02*
X80342648Y-54062500D01*
%TD*%
%TA.AperFunction,Conductor*%
%TO.N,GND*%
G36*
X79478332Y-68424837D02*
G01*
X79522680Y-68453338D01*
X79624811Y-68555469D01*
X79624813Y-68555470D01*
X79624815Y-68555472D01*
X79770394Y-68643478D01*
X79932804Y-68694086D01*
X80003384Y-68700500D01*
X80003387Y-68700500D01*
X80315214Y-68700500D01*
X80321038Y-68702210D01*
X80327000Y-68701061D01*
X80354175Y-68711940D01*
X80382253Y-68720185D01*
X80386227Y-68724772D01*
X80391865Y-68727029D01*
X80408845Y-68750874D01*
X80428008Y-68772989D01*
X80428871Y-68778996D01*
X80432394Y-68783943D01*
X80433786Y-68813179D01*
X80437952Y-68842147D01*
X80435503Y-68849220D01*
X80435719Y-68853734D01*
X80422601Y-68886500D01*
X80405190Y-68916657D01*
X80375423Y-68968215D01*
X80334499Y-69120943D01*
X80334499Y-69120945D01*
X80334499Y-69174995D01*
X80333416Y-69178681D01*
X80334276Y-69182425D01*
X80323650Y-69211941D01*
X80314814Y-69242034D01*
X80311534Y-69245597D01*
X80310610Y-69248165D01*
X80300959Y-69257087D01*
X80285940Y-69273405D01*
X80280938Y-69277239D01*
X80256956Y-69292032D01*
X80241565Y-69307422D01*
X80235087Y-69312389D01*
X80209795Y-69322153D01*
X80186000Y-69335146D01*
X80177685Y-69334551D01*
X80169907Y-69337554D01*
X80143348Y-69332093D01*
X80116308Y-69330159D01*
X80108016Y-69324830D01*
X80101468Y-69323484D01*
X80092915Y-69315124D01*
X80071965Y-69301660D01*
X80062732Y-69292427D01*
X80062728Y-69292424D01*
X79918492Y-69203457D01*
X79918481Y-69203452D01*
X79757606Y-69150144D01*
X79658322Y-69140000D01*
X79635000Y-69140000D01*
X79635000Y-72599999D01*
X79658308Y-72599999D01*
X79658322Y-72599998D01*
X79757607Y-72589855D01*
X79918481Y-72536547D01*
X79918488Y-72536544D01*
X79995402Y-72489102D01*
X80062794Y-72470661D01*
X80129458Y-72491583D01*
X80174228Y-72545224D01*
X80184500Y-72594640D01*
X80184500Y-74545396D01*
X80175062Y-74592844D01*
X80165263Y-74616503D01*
X80165262Y-74616506D01*
X80165260Y-74616511D01*
X80134500Y-74771153D01*
X80134500Y-74928846D01*
X80165261Y-75083489D01*
X80165264Y-75083501D01*
X80225602Y-75229172D01*
X80225609Y-75229185D01*
X80313210Y-75360288D01*
X80313213Y-75360292D01*
X80424707Y-75471786D01*
X80424711Y-75471789D01*
X80555814Y-75559390D01*
X80555827Y-75559397D01*
X80701498Y-75619735D01*
X80701503Y-75619737D01*
X80856153Y-75650499D01*
X80856156Y-75650500D01*
X80856158Y-75650500D01*
X81013844Y-75650500D01*
X81013845Y-75650499D01*
X81168497Y-75619737D01*
X81314179Y-75559394D01*
X81445289Y-75471789D01*
X81556789Y-75360289D01*
X81644394Y-75229179D01*
X81704737Y-75083497D01*
X81735500Y-74928842D01*
X81735500Y-74771158D01*
X81735500Y-74771155D01*
X81735499Y-74771153D01*
X81704739Y-74616511D01*
X81704738Y-74616508D01*
X81704737Y-74616503D01*
X81694937Y-74592844D01*
X81685500Y-74545396D01*
X81685500Y-72625481D01*
X81705185Y-72558442D01*
X81757989Y-72512687D01*
X81827147Y-72502743D01*
X81874598Y-72519943D01*
X81901512Y-72536544D01*
X81901518Y-72536547D01*
X82062393Y-72589855D01*
X82161683Y-72599999D01*
X82185000Y-72599998D01*
X82185000Y-69139999D01*
X82161693Y-69140000D01*
X82161667Y-69140002D01*
X82154855Y-69140698D01*
X82086163Y-69127927D01*
X82035279Y-69080046D01*
X82018360Y-69012255D01*
X82040777Y-68946080D01*
X82054572Y-68929662D01*
X82372416Y-68611819D01*
X82396621Y-68598602D01*
X82419020Y-68582501D01*
X82429323Y-68580744D01*
X82433739Y-68578334D01*
X82453646Y-68575668D01*
X82456871Y-68575500D01*
X82495378Y-68575500D01*
X82524881Y-68571957D01*
X82529048Y-68571740D01*
X82559132Y-68578896D01*
X82589621Y-68584007D01*
X82592818Y-68586910D01*
X82597021Y-68587910D01*
X82618457Y-68610192D01*
X82641346Y-68630977D01*
X82642540Y-68635225D01*
X82645461Y-68638262D01*
X82650337Y-68662972D01*
X82659499Y-68695572D01*
X82659499Y-68852583D01*
X82659498Y-68852583D01*
X82700423Y-69005313D01*
X82703532Y-69012818D01*
X82700296Y-69014158D01*
X82712974Y-69066433D01*
X82690116Y-69132458D01*
X82685000Y-69138505D01*
X82685000Y-69361733D01*
X82677080Y-69401549D01*
X82677527Y-69401669D01*
X82675700Y-69408484D01*
X82675562Y-69409182D01*
X82675425Y-69409511D01*
X82675423Y-69409519D01*
X82634499Y-69562247D01*
X82634499Y-69562249D01*
X82634499Y-69730350D01*
X82634500Y-69730363D01*
X82634500Y-73898330D01*
X82634499Y-73898348D01*
X82634499Y-74064054D01*
X82634498Y-74064054D01*
X82675423Y-74216785D01*
X82704358Y-74266900D01*
X82704359Y-74266904D01*
X82704360Y-74266904D01*
X82754445Y-74353656D01*
X82754479Y-74353714D01*
X82754481Y-74353717D01*
X82873349Y-74472585D01*
X82873355Y-74472590D01*
X83485139Y-75084374D01*
X83485149Y-75084385D01*
X83489479Y-75088715D01*
X83489480Y-75088716D01*
X83601284Y-75200520D01*
X83661619Y-75235354D01*
X83738215Y-75279577D01*
X83890943Y-75320501D01*
X83890946Y-75320501D01*
X84056653Y-75320501D01*
X84056669Y-75320500D01*
X90813331Y-75320500D01*
X90813347Y-75320501D01*
X90820943Y-75320501D01*
X90979054Y-75320501D01*
X90979057Y-75320501D01*
X91131785Y-75279577D01*
X91208381Y-75235354D01*
X91268716Y-75200520D01*
X91380520Y-75088716D01*
X91380520Y-75088714D01*
X91390724Y-75078511D01*
X91390727Y-75078506D01*
X92282416Y-74186819D01*
X92343739Y-74153334D01*
X92370097Y-74150500D01*
X92637774Y-74150500D01*
X92704813Y-74170185D01*
X92743311Y-74209401D01*
X92832288Y-74353656D01*
X92956344Y-74477712D01*
X93105666Y-74569814D01*
X93272203Y-74624999D01*
X93374991Y-74635500D01*
X93656533Y-74635499D01*
X93677779Y-74641737D01*
X93699866Y-74643317D01*
X93710647Y-74651388D01*
X93723572Y-74655183D01*
X93738074Y-74671919D01*
X93755799Y-74685188D01*
X93766411Y-74704622D01*
X93769327Y-74707987D01*
X93772714Y-74716164D01*
X93780627Y-74737379D01*
X93785612Y-74807071D01*
X93780626Y-74824051D01*
X93773059Y-74844337D01*
X93731186Y-74900269D01*
X93665721Y-74924684D01*
X93656879Y-74925000D01*
X93375029Y-74925000D01*
X93375012Y-74925001D01*
X93272302Y-74935494D01*
X93105878Y-74990642D01*
X93105873Y-74990644D01*
X93098651Y-74995098D01*
X93098650Y-74995099D01*
X93778551Y-75675000D01*
X93750630Y-75675000D01*
X93655255Y-75700556D01*
X93569745Y-75749925D01*
X93499925Y-75819745D01*
X93450556Y-75905255D01*
X93425000Y-76000630D01*
X93425000Y-76028551D01*
X92745099Y-75348650D01*
X92745098Y-75348651D01*
X92740644Y-75355873D01*
X92740642Y-75355877D01*
X92685494Y-75522302D01*
X92685493Y-75522309D01*
X92675000Y-75625013D01*
X92675000Y-76474971D01*
X92675001Y-76474987D01*
X92685493Y-76577695D01*
X92711606Y-76656495D01*
X92714008Y-76726324D01*
X92678277Y-76786366D01*
X92615756Y-76817559D01*
X92593900Y-76819500D01*
X76410962Y-76819500D01*
X76408032Y-76818639D01*
X76405064Y-76819360D01*
X76374714Y-76808856D01*
X76343923Y-76799815D01*
X76341924Y-76797508D01*
X76339037Y-76796509D01*
X76319183Y-76771263D01*
X76298168Y-76747011D01*
X76297733Y-76743989D01*
X76295845Y-76741588D01*
X76292791Y-76709621D01*
X76288224Y-76677853D01*
X76289492Y-76675075D01*
X76289202Y-76672035D01*
X76303914Y-76643495D01*
X76317249Y-76614297D01*
X76320239Y-76611827D01*
X76321217Y-76609932D01*
X76348960Y-76588114D01*
X76366827Y-76577798D01*
X76366829Y-76577797D01*
X76448716Y-76530520D01*
X76560520Y-76418716D01*
X76560520Y-76418714D01*
X76570724Y-76408511D01*
X76570728Y-76408506D01*
X78968506Y-74010728D01*
X78968511Y-74010724D01*
X78978714Y-74000520D01*
X78978716Y-74000520D01*
X79090520Y-73888716D01*
X79152257Y-73781784D01*
X79169577Y-73751785D01*
X79210500Y-73599058D01*
X79210500Y-73440943D01*
X79210500Y-68641519D01*
X79219145Y-68612075D01*
X79225668Y-68582093D01*
X79229422Y-68577077D01*
X79230185Y-68574480D01*
X79246813Y-68553843D01*
X79347321Y-68453335D01*
X79408640Y-68419853D01*
X79478332Y-68424837D01*
G37*
%TD.AperFunction*%
%TA.AperFunction,Conductor*%
G36*
X77928834Y-72062914D02*
G01*
X77984767Y-72104786D01*
X78009184Y-72170250D01*
X78009500Y-72179096D01*
X78009500Y-73219902D01*
X77989815Y-73286941D01*
X77973181Y-73307583D01*
X76208143Y-75072620D01*
X76146820Y-75106105D01*
X76077128Y-75101121D01*
X76049964Y-75085818D01*
X76049803Y-75086080D01*
X76043657Y-75082289D01*
X76043656Y-75082288D01*
X75942364Y-75019811D01*
X75894336Y-74990187D01*
X75894331Y-74990185D01*
X75892862Y-74989698D01*
X75727797Y-74935001D01*
X75727795Y-74935000D01*
X75625016Y-74924500D01*
X75625009Y-74924500D01*
X75343466Y-74924500D01*
X75322220Y-74918261D01*
X75300132Y-74916682D01*
X75289348Y-74908609D01*
X75276427Y-74904815D01*
X75261927Y-74888081D01*
X75244199Y-74874810D01*
X75233585Y-74855373D01*
X75230672Y-74852011D01*
X75227284Y-74843833D01*
X75219638Y-74823333D01*
X75214654Y-74753641D01*
X75219639Y-74736664D01*
X75227286Y-74716163D01*
X75269159Y-74660230D01*
X75334624Y-74635815D01*
X75343467Y-74635499D01*
X75625002Y-74635499D01*
X75625008Y-74635499D01*
X75727797Y-74624999D01*
X75894334Y-74569814D01*
X76043656Y-74477712D01*
X76167712Y-74353656D01*
X76259814Y-74204334D01*
X76314999Y-74037797D01*
X76325500Y-73935009D01*
X76325499Y-73615095D01*
X76345183Y-73548057D01*
X76361813Y-73527420D01*
X77797820Y-72091413D01*
X77859142Y-72057930D01*
X77928834Y-72062914D01*
G37*
%TD.AperFunction*%
%TA.AperFunction,Conductor*%
G36*
X87302539Y-70994685D02*
G01*
X87348294Y-71047489D01*
X87359500Y-71099000D01*
X87359500Y-71453330D01*
X87359499Y-71453348D01*
X87359499Y-71460943D01*
X87359499Y-71619057D01*
X87371631Y-71664334D01*
X87380775Y-71698458D01*
X87385000Y-71730552D01*
X87385000Y-72376000D01*
X87365315Y-72443039D01*
X87312511Y-72488794D01*
X87261000Y-72500000D01*
X87009000Y-72500000D01*
X86941961Y-72480315D01*
X86896206Y-72427511D01*
X86885000Y-72376000D01*
X86885000Y-71099000D01*
X86887550Y-71090314D01*
X86886262Y-71081353D01*
X86897240Y-71057312D01*
X86904685Y-71031961D01*
X86911525Y-71026033D01*
X86915287Y-71017797D01*
X86937521Y-71003507D01*
X86957489Y-70986206D01*
X86968003Y-70983918D01*
X86974065Y-70980023D01*
X87009000Y-70975000D01*
X87235500Y-70975000D01*
X87302539Y-70994685D01*
G37*
%TD.AperFunction*%
%TA.AperFunction,Conductor*%
G36*
X75926307Y-72095582D02*
G01*
X75957500Y-72158102D01*
X75949941Y-72227562D01*
X75923123Y-72267640D01*
X75831128Y-72359635D01*
X75769805Y-72393120D01*
X75730845Y-72395312D01*
X75625018Y-72384500D01*
X75625009Y-72384500D01*
X75343466Y-72384500D01*
X75322220Y-72378261D01*
X75300132Y-72376682D01*
X75289348Y-72368609D01*
X75276427Y-72364815D01*
X75261927Y-72348081D01*
X75244199Y-72334810D01*
X75233585Y-72315373D01*
X75230672Y-72312011D01*
X75227284Y-72303833D01*
X75219638Y-72283333D01*
X75214654Y-72213641D01*
X75219639Y-72196664D01*
X75227286Y-72176163D01*
X75269159Y-72120230D01*
X75334624Y-72095815D01*
X75343467Y-72095499D01*
X75625002Y-72095499D01*
X75625008Y-72095499D01*
X75727797Y-72084999D01*
X75796440Y-72062252D01*
X75866265Y-72059851D01*
X75926307Y-72095582D01*
G37*
%TD.AperFunction*%
%TA.AperFunction,Conductor*%
G36*
X93677778Y-72101737D02*
G01*
X93699862Y-72103316D01*
X93710646Y-72111388D01*
X93723572Y-72115184D01*
X93738070Y-72131916D01*
X93755797Y-72145185D01*
X93766413Y-72164625D01*
X93769327Y-72167988D01*
X93772713Y-72176161D01*
X93780360Y-72196662D01*
X93785347Y-72266352D01*
X93780361Y-72283335D01*
X93772714Y-72303836D01*
X93730841Y-72359769D01*
X93665376Y-72384184D01*
X93656533Y-72384500D01*
X93374999Y-72384500D01*
X93374975Y-72384502D01*
X93353897Y-72386655D01*
X93285204Y-72373884D01*
X93234321Y-72326002D01*
X93217402Y-72258212D01*
X93239819Y-72192036D01*
X93253611Y-72175622D01*
X93297417Y-72131816D01*
X93358738Y-72098333D01*
X93385086Y-72095499D01*
X93656533Y-72095499D01*
X93677778Y-72101737D01*
G37*
%TD.AperFunction*%
%TA.AperFunction,Conductor*%
G36*
X76661677Y-68640071D02*
G01*
X76717610Y-68681943D01*
X76742027Y-68747407D01*
X76742343Y-68756253D01*
X76742343Y-69217059D01*
X76722658Y-69284098D01*
X76706024Y-69304740D01*
X76091226Y-69919538D01*
X76029903Y-69953023D01*
X75960211Y-69948039D01*
X75938449Y-69937396D01*
X75894340Y-69910189D01*
X75894335Y-69910187D01*
X75894334Y-69910186D01*
X75727797Y-69855001D01*
X75727795Y-69855000D01*
X75625016Y-69844500D01*
X75625009Y-69844500D01*
X75343466Y-69844500D01*
X75322220Y-69838261D01*
X75300132Y-69836682D01*
X75289348Y-69828609D01*
X75276427Y-69824815D01*
X75261927Y-69808081D01*
X75244199Y-69794810D01*
X75233585Y-69775373D01*
X75230672Y-69772011D01*
X75227284Y-69763833D01*
X75219638Y-69743333D01*
X75214654Y-69673641D01*
X75219639Y-69656664D01*
X75220934Y-69653194D01*
X75227286Y-69636163D01*
X75269159Y-69580230D01*
X75334624Y-69555815D01*
X75343467Y-69555499D01*
X75625002Y-69555499D01*
X75625008Y-69555499D01*
X75727797Y-69544999D01*
X75894334Y-69489814D01*
X76043656Y-69397712D01*
X76167712Y-69273656D01*
X76259814Y-69124334D01*
X76314999Y-68957797D01*
X76318885Y-68919752D01*
X76328179Y-68896973D01*
X76333410Y-68872929D01*
X76343477Y-68859480D01*
X76345280Y-68855062D01*
X76354548Y-68844687D01*
X76400520Y-68798716D01*
X76400521Y-68798713D01*
X76530665Y-68668569D01*
X76591985Y-68635087D01*
X76661677Y-68640071D01*
G37*
%TD.AperFunction*%
%TA.AperFunction,Conductor*%
G36*
X93243498Y-69535487D02*
G01*
X93272203Y-69544999D01*
X93374991Y-69555500D01*
X93656533Y-69555499D01*
X93677779Y-69561737D01*
X93699862Y-69563316D01*
X93710644Y-69571387D01*
X93723572Y-69575183D01*
X93738073Y-69591918D01*
X93755797Y-69605185D01*
X93766412Y-69624623D01*
X93769327Y-69627987D01*
X93772713Y-69636161D01*
X93780360Y-69656662D01*
X93785347Y-69726352D01*
X93780361Y-69743335D01*
X93772714Y-69763836D01*
X93730841Y-69819769D01*
X93665376Y-69844184D01*
X93656533Y-69844500D01*
X93374999Y-69844500D01*
X93374980Y-69844501D01*
X93272203Y-69855000D01*
X93272202Y-69855001D01*
X93243502Y-69864511D01*
X93215038Y-69865489D01*
X93186853Y-69869542D01*
X93180572Y-69866673D01*
X93173674Y-69866911D01*
X93149202Y-69852347D01*
X93123297Y-69840517D01*
X93119564Y-69834709D01*
X93113632Y-69831179D01*
X93100917Y-69805694D01*
X93085523Y-69781739D01*
X93084128Y-69772040D01*
X93082441Y-69768658D01*
X93080500Y-69746804D01*
X93080500Y-69653194D01*
X93100185Y-69586155D01*
X93152989Y-69540400D01*
X93222147Y-69530456D01*
X93243498Y-69535487D01*
G37*
%TD.AperFunction*%
%TA.AperFunction,Conductor*%
G36*
X90903039Y-67719685D02*
G01*
X90948794Y-67772489D01*
X90960000Y-67824000D01*
X90960000Y-69101000D01*
X90940315Y-69168039D01*
X90887511Y-69213794D01*
X90836000Y-69225000D01*
X90584000Y-69225000D01*
X90516961Y-69205315D01*
X90471206Y-69152511D01*
X90460000Y-69101000D01*
X90460000Y-67824000D01*
X90479685Y-67756961D01*
X90532489Y-67711206D01*
X90584000Y-67700000D01*
X90836000Y-67700000D01*
X90903039Y-67719685D01*
G37*
%TD.AperFunction*%
%TA.AperFunction,Conductor*%
G36*
X92875907Y-66817595D02*
G01*
X92902267Y-66819481D01*
X92911320Y-66825299D01*
X92918360Y-66826831D01*
X92946614Y-66847982D01*
X92956344Y-66857712D01*
X93105666Y-66949814D01*
X93272203Y-67004999D01*
X93374991Y-67015500D01*
X93656533Y-67015499D01*
X93677779Y-67021737D01*
X93699862Y-67023316D01*
X93710644Y-67031387D01*
X93723572Y-67035183D01*
X93738073Y-67051918D01*
X93755797Y-67065185D01*
X93766412Y-67084623D01*
X93769327Y-67087987D01*
X93772713Y-67096161D01*
X93780360Y-67116662D01*
X93785347Y-67186352D01*
X93780361Y-67203335D01*
X93772714Y-67223836D01*
X93730841Y-67279769D01*
X93665376Y-67304184D01*
X93656533Y-67304500D01*
X93374999Y-67304500D01*
X93374980Y-67304501D01*
X93272203Y-67315000D01*
X93272200Y-67315001D01*
X93105668Y-67370185D01*
X93105663Y-67370187D01*
X92956342Y-67462289D01*
X92862181Y-67556451D01*
X92800858Y-67589936D01*
X92731166Y-67584952D01*
X92675233Y-67543080D01*
X92650816Y-67477616D01*
X92650500Y-67468770D01*
X92650500Y-67020096D01*
X92670185Y-66953057D01*
X92686815Y-66932419D01*
X92771252Y-66847981D01*
X92779197Y-66843643D01*
X92784623Y-66836396D01*
X92809382Y-66827161D01*
X92832575Y-66814497D01*
X92841604Y-66815142D01*
X92850087Y-66811979D01*
X92875907Y-66817595D01*
G37*
%TD.AperFunction*%
%TA.AperFunction,Conductor*%
G36*
X76193834Y-66810048D02*
G01*
X76249767Y-66851920D01*
X76274184Y-66917384D01*
X76274500Y-66926230D01*
X76274500Y-67174902D01*
X76254815Y-67241941D01*
X76238181Y-67262584D01*
X76109781Y-67390983D01*
X76048458Y-67424467D01*
X75978766Y-67419483D01*
X75957004Y-67408840D01*
X75894340Y-67370190D01*
X75894334Y-67370186D01*
X75727797Y-67315001D01*
X75727795Y-67315000D01*
X75625016Y-67304500D01*
X75625009Y-67304500D01*
X75343466Y-67304500D01*
X75322220Y-67298261D01*
X75300132Y-67296682D01*
X75289348Y-67288609D01*
X75276427Y-67284815D01*
X75261927Y-67268081D01*
X75244199Y-67254810D01*
X75233585Y-67235373D01*
X75230672Y-67232011D01*
X75227284Y-67223833D01*
X75219638Y-67203333D01*
X75214654Y-67133641D01*
X75219639Y-67116664D01*
X75227286Y-67096163D01*
X75269159Y-67040230D01*
X75334624Y-67015815D01*
X75343467Y-67015499D01*
X75625002Y-67015499D01*
X75625008Y-67015499D01*
X75727797Y-67004999D01*
X75894334Y-66949814D01*
X76043656Y-66857712D01*
X76062819Y-66838549D01*
X76124142Y-66805064D01*
X76193834Y-66810048D01*
G37*
%TD.AperFunction*%
%TA.AperFunction,Conductor*%
G36*
X92723103Y-64085465D02*
G01*
X92735403Y-64086345D01*
X92754020Y-64100281D01*
X92774993Y-64110333D01*
X92787559Y-64125389D01*
X92791336Y-64128217D01*
X92797605Y-64137425D01*
X92832288Y-64193656D01*
X92956344Y-64317712D01*
X93105666Y-64409814D01*
X93272203Y-64464999D01*
X93374991Y-64475500D01*
X93656533Y-64475499D01*
X93677779Y-64481737D01*
X93699862Y-64483316D01*
X93710644Y-64491387D01*
X93723572Y-64495183D01*
X93738073Y-64511918D01*
X93755797Y-64525185D01*
X93766412Y-64544623D01*
X93769327Y-64547987D01*
X93772713Y-64556161D01*
X93780360Y-64576662D01*
X93785347Y-64646352D01*
X93780361Y-64663335D01*
X93772714Y-64683836D01*
X93730841Y-64739769D01*
X93665376Y-64764184D01*
X93656533Y-64764500D01*
X93374999Y-64764500D01*
X93374980Y-64764501D01*
X93272203Y-64775000D01*
X93272200Y-64775001D01*
X93105668Y-64830185D01*
X93105663Y-64830187D01*
X92956342Y-64922289D01*
X92832289Y-65046342D01*
X92740184Y-65195668D01*
X92720901Y-65253859D01*
X92681127Y-65311304D01*
X92650663Y-65329408D01*
X92648223Y-65330418D01*
X92612672Y-65350944D01*
X92612671Y-65350943D01*
X92511287Y-65409477D01*
X92511282Y-65409481D01*
X92442181Y-65478583D01*
X92380858Y-65512068D01*
X92311166Y-65507084D01*
X92255233Y-65465212D01*
X92230816Y-65399748D01*
X92230500Y-65390902D01*
X92230500Y-64540096D01*
X92250185Y-64473057D01*
X92266815Y-64452419D01*
X92604388Y-64114845D01*
X92624799Y-64103700D01*
X92642655Y-64088798D01*
X92654890Y-64087269D01*
X92665711Y-64081361D01*
X92688907Y-64083019D01*
X92711985Y-64080137D01*
X92723103Y-64085465D01*
G37*
%TD.AperFunction*%
%TA.AperFunction,Conductor*%
G36*
X79343462Y-64195185D02*
G01*
X79389217Y-64247989D01*
X79398041Y-64275312D01*
X79407908Y-64324923D01*
X79401679Y-64394514D01*
X79373971Y-64436792D01*
X79091286Y-64719478D01*
X78979481Y-64831282D01*
X78979479Y-64831285D01*
X78939726Y-64900140D01*
X78939724Y-64900143D01*
X78934384Y-64909394D01*
X78900423Y-64968215D01*
X78861631Y-65112983D01*
X78859713Y-65118213D01*
X78842111Y-65141989D01*
X78826712Y-65167254D01*
X78821552Y-65169760D01*
X78818141Y-65174369D01*
X78790477Y-65184855D01*
X78763865Y-65197783D01*
X78754258Y-65198585D01*
X78752808Y-65199135D01*
X78751356Y-65198827D01*
X78743302Y-65199500D01*
X78604500Y-65199500D01*
X78537461Y-65179815D01*
X78491706Y-65127011D01*
X78480500Y-65075500D01*
X78480500Y-64542154D01*
X78500185Y-64475115D01*
X78516819Y-64454473D01*
X78759473Y-64211819D01*
X78820796Y-64178334D01*
X78847154Y-64175500D01*
X79276423Y-64175500D01*
X79343462Y-64195185D01*
G37*
%TD.AperFunction*%
%TA.AperFunction,Conductor*%
G36*
X75727971Y-64469322D02*
G01*
X75743147Y-64467140D01*
X75761622Y-64475577D01*
X75781590Y-64479289D01*
X75792755Y-64489795D01*
X75806703Y-64496165D01*
X75817684Y-64513252D01*
X75832475Y-64527170D01*
X75836751Y-64542921D01*
X75844477Y-64554943D01*
X75849500Y-64589878D01*
X75849500Y-64650120D01*
X75829815Y-64717159D01*
X75777011Y-64762914D01*
X75712898Y-64773478D01*
X75625018Y-64764500D01*
X75625009Y-64764500D01*
X75343466Y-64764500D01*
X75322220Y-64758261D01*
X75300132Y-64756682D01*
X75289348Y-64748609D01*
X75276427Y-64744815D01*
X75261927Y-64728081D01*
X75244199Y-64714810D01*
X75233585Y-64695373D01*
X75230672Y-64692011D01*
X75227284Y-64683833D01*
X75219638Y-64663333D01*
X75214654Y-64593641D01*
X75219639Y-64576664D01*
X75227286Y-64556163D01*
X75269159Y-64500230D01*
X75334624Y-64475815D01*
X75343467Y-64475499D01*
X75625002Y-64475499D01*
X75625008Y-64475499D01*
X75712900Y-64466520D01*
X75727971Y-64469322D01*
G37*
%TD.AperFunction*%
%TA.AperFunction,Conductor*%
G36*
X87430313Y-62120832D02*
G01*
X87454204Y-62122541D01*
X87463502Y-62129501D01*
X87474741Y-62132437D01*
X87490963Y-62150058D01*
X87510139Y-62164412D01*
X87514486Y-62175608D01*
X87522065Y-62183840D01*
X87525647Y-62204348D01*
X87532872Y-62222955D01*
X87533311Y-62222868D01*
X87533806Y-62225360D01*
X87534276Y-62226569D01*
X87534500Y-62228847D01*
X87565261Y-62383489D01*
X87565264Y-62383501D01*
X87625602Y-62529172D01*
X87625609Y-62529185D01*
X87713210Y-62660288D01*
X87713213Y-62660292D01*
X87824707Y-62771786D01*
X87824711Y-62771789D01*
X87863037Y-62797398D01*
X87907842Y-62851010D01*
X87916549Y-62920335D01*
X87886395Y-62983363D01*
X87826952Y-63020082D01*
X87794146Y-63024500D01*
X86966773Y-63024500D01*
X86921284Y-63015855D01*
X86918563Y-63014782D01*
X86905833Y-63009762D01*
X86820378Y-62999500D01*
X86609000Y-62999500D01*
X86541961Y-62979815D01*
X86496206Y-62927011D01*
X86485000Y-62875500D01*
X86485000Y-62664662D01*
X86474748Y-62579287D01*
X86447561Y-62510346D01*
X86445856Y-62491462D01*
X86439232Y-62473700D01*
X86442780Y-62457387D01*
X86441280Y-62440759D01*
X86450054Y-62423952D01*
X86454085Y-62405427D01*
X86472730Y-62380521D01*
X86473617Y-62378823D01*
X86475183Y-62377228D01*
X86500416Y-62351995D01*
X86525595Y-62326817D01*
X86586918Y-62293333D01*
X86613274Y-62290500D01*
X86848331Y-62290500D01*
X86848347Y-62290501D01*
X86855943Y-62290501D01*
X87014054Y-62290501D01*
X87014057Y-62290501D01*
X87166785Y-62249577D01*
X87208730Y-62225360D01*
X87224086Y-62216494D01*
X87224086Y-62216493D01*
X87228286Y-62214069D01*
X87303716Y-62170520D01*
X87331291Y-62142944D01*
X87340723Y-62136474D01*
X87363491Y-62129037D01*
X87384513Y-62117558D01*
X87396098Y-62118386D01*
X87407140Y-62114780D01*
X87430313Y-62120832D01*
G37*
%TD.AperFunction*%
%TA.AperFunction,Conductor*%
G36*
X90532539Y-58219685D02*
G01*
X90578294Y-58272489D01*
X90589500Y-58324000D01*
X90589500Y-62042403D01*
X90569815Y-62109442D01*
X90553181Y-62130084D01*
X89695084Y-62988181D01*
X89633761Y-63021666D01*
X89607403Y-63024500D01*
X88875854Y-63024500D01*
X88808815Y-63004815D01*
X88763060Y-62952011D01*
X88753116Y-62882853D01*
X88782141Y-62819297D01*
X88806963Y-62797398D01*
X88820300Y-62788485D01*
X88845289Y-62771789D01*
X88956789Y-62660289D01*
X89044394Y-62529179D01*
X89053853Y-62506344D01*
X89087980Y-62423952D01*
X89104737Y-62383497D01*
X89131376Y-62249576D01*
X89135638Y-62228151D01*
X89144402Y-62211395D01*
X89148422Y-62192917D01*
X89167167Y-62167875D01*
X89168023Y-62166240D01*
X89169573Y-62164662D01*
X89208503Y-62125731D01*
X89208508Y-62125727D01*
X89218714Y-62115520D01*
X89218716Y-62115520D01*
X89330520Y-62003716D01*
X89392743Y-61895942D01*
X89409577Y-61866785D01*
X89450501Y-61714057D01*
X89450501Y-61555943D01*
X89450501Y-61548348D01*
X89450500Y-61548330D01*
X89450500Y-60715004D01*
X89451582Y-60711317D01*
X89450723Y-60707574D01*
X89461348Y-60678057D01*
X89470185Y-60647965D01*
X89473464Y-60644401D01*
X89474389Y-60641834D01*
X89484037Y-60632914D01*
X89499059Y-60616594D01*
X89504050Y-60612767D01*
X89528044Y-60597968D01*
X89543442Y-60582569D01*
X89549912Y-60577610D01*
X89575200Y-60567846D01*
X89598987Y-60554856D01*
X89607307Y-60555450D01*
X89615092Y-60552445D01*
X89641642Y-60557903D01*
X89668679Y-60559835D01*
X89676977Y-60565167D01*
X89683531Y-60566515D01*
X89692087Y-60574878D01*
X89713034Y-60588339D01*
X89722267Y-60597572D01*
X89722271Y-60597575D01*
X89866507Y-60686542D01*
X89866518Y-60686547D01*
X90027393Y-60739855D01*
X90126683Y-60749999D01*
X90150000Y-60749998D01*
X90150000Y-58746362D01*
X90169685Y-58679323D01*
X90175000Y-58672727D01*
X90175000Y-58324000D01*
X90177550Y-58315314D01*
X90176262Y-58306353D01*
X90187240Y-58282312D01*
X90194685Y-58256961D01*
X90201525Y-58251033D01*
X90205287Y-58242797D01*
X90227521Y-58228507D01*
X90247489Y-58211206D01*
X90258003Y-58208918D01*
X90264065Y-58205023D01*
X90299000Y-58200000D01*
X90465500Y-58200000D01*
X90532539Y-58219685D01*
G37*
%TD.AperFunction*%
%TA.AperFunction,Conductor*%
G36*
X82476942Y-61020185D02*
G01*
X82497584Y-61036819D01*
X82623584Y-61162819D01*
X82657069Y-61224142D01*
X82652085Y-61293834D01*
X82610213Y-61349767D01*
X82544749Y-61374184D01*
X82535903Y-61374500D01*
X77801670Y-61374500D01*
X77801654Y-61374499D01*
X77794058Y-61374499D01*
X77635943Y-61374499D01*
X77562875Y-61394078D01*
X77483214Y-61415423D01*
X77483209Y-61415426D01*
X77346290Y-61494475D01*
X77346282Y-61494481D01*
X76338747Y-62502017D01*
X76277424Y-62535502D01*
X76207732Y-62530518D01*
X76163385Y-62502017D01*
X76043657Y-62382289D01*
X76043656Y-62382288D01*
X75894334Y-62290186D01*
X75727797Y-62235001D01*
X75727795Y-62235000D01*
X75625016Y-62224500D01*
X75625009Y-62224500D01*
X75343466Y-62224500D01*
X75322220Y-62218261D01*
X75300132Y-62216682D01*
X75289348Y-62208609D01*
X75276427Y-62204815D01*
X75261927Y-62188081D01*
X75244199Y-62174810D01*
X75233585Y-62155373D01*
X75230672Y-62152011D01*
X75227284Y-62143833D01*
X75219637Y-62123332D01*
X75214654Y-62053641D01*
X75219639Y-62036664D01*
X75227286Y-62016163D01*
X75269159Y-61960230D01*
X75334624Y-61935815D01*
X75343467Y-61935499D01*
X75625002Y-61935499D01*
X75625008Y-61935499D01*
X75727797Y-61924999D01*
X75894334Y-61869814D01*
X76043656Y-61777712D01*
X76167712Y-61653656D01*
X76259814Y-61504334D01*
X76314999Y-61337797D01*
X76325500Y-61235009D01*
X76325500Y-61124500D01*
X76345185Y-61057461D01*
X76397989Y-61011706D01*
X76449500Y-61000500D01*
X82409903Y-61000500D01*
X82476942Y-61020185D01*
G37*
%TD.AperFunction*%
%TA.AperFunction,Conductor*%
G36*
X92793404Y-61655095D02*
G01*
X92819764Y-61656980D01*
X92828819Y-61662799D01*
X92835860Y-61664331D01*
X92864114Y-61685482D01*
X92956344Y-61777712D01*
X93105666Y-61869814D01*
X93272203Y-61924999D01*
X93374991Y-61935500D01*
X93656533Y-61935499D01*
X93677779Y-61941737D01*
X93699862Y-61943316D01*
X93710644Y-61951387D01*
X93723572Y-61955183D01*
X93738073Y-61971918D01*
X93755797Y-61985185D01*
X93766412Y-62004623D01*
X93769327Y-62007987D01*
X93772713Y-62016161D01*
X93780360Y-62036662D01*
X93785347Y-62106352D01*
X93780361Y-62123335D01*
X93772714Y-62143836D01*
X93730841Y-62199769D01*
X93665376Y-62224184D01*
X93656533Y-62224500D01*
X93374999Y-62224500D01*
X93374980Y-62224501D01*
X93272203Y-62235000D01*
X93272200Y-62235001D01*
X93105668Y-62290185D01*
X93105663Y-62290187D01*
X92956342Y-62382289D01*
X92842181Y-62496451D01*
X92780858Y-62529936D01*
X92711166Y-62524952D01*
X92655233Y-62483080D01*
X92630816Y-62417616D01*
X92630500Y-62408770D01*
X92630500Y-61795097D01*
X92650185Y-61728058D01*
X92666817Y-61707418D01*
X92672621Y-61701613D01*
X92688751Y-61685483D01*
X92696696Y-61681144D01*
X92702123Y-61673896D01*
X92726878Y-61664662D01*
X92750072Y-61651997D01*
X92759104Y-61652642D01*
X92767587Y-61649479D01*
X92793404Y-61655095D01*
G37*
%TD.AperFunction*%
%TA.AperFunction,Conductor*%
G36*
X86568679Y-60509835D02*
G01*
X86613034Y-60538339D01*
X86622267Y-60547572D01*
X86622271Y-60547575D01*
X86766507Y-60636542D01*
X86766518Y-60636547D01*
X86855625Y-60666074D01*
X86913070Y-60705846D01*
X86939893Y-60770362D01*
X86927578Y-60839138D01*
X86904303Y-60871461D01*
X86823739Y-60952025D01*
X86722582Y-61053182D01*
X86661262Y-61086666D01*
X86634903Y-61089500D01*
X86234116Y-61089500D01*
X86193195Y-61100464D01*
X86193195Y-61100465D01*
X86155927Y-61110451D01*
X86081390Y-61130423D01*
X86081385Y-61130426D01*
X85944466Y-61209475D01*
X85944458Y-61209481D01*
X85672181Y-61481759D01*
X85610858Y-61515244D01*
X85541166Y-61510260D01*
X85485233Y-61468388D01*
X85460816Y-61402924D01*
X85460500Y-61394078D01*
X85460500Y-60915097D01*
X85469144Y-60885656D01*
X85475668Y-60855670D01*
X85479422Y-60850654D01*
X85480185Y-60848058D01*
X85496819Y-60827416D01*
X85587417Y-60736818D01*
X85648740Y-60703333D01*
X85675098Y-60700499D01*
X86023338Y-60700499D01*
X86023344Y-60700499D01*
X86023352Y-60700498D01*
X86023355Y-60700498D01*
X86077760Y-60694940D01*
X86122708Y-60690349D01*
X86283697Y-60637003D01*
X86428044Y-60547968D01*
X86437668Y-60538343D01*
X86498987Y-60504856D01*
X86568679Y-60509835D01*
G37*
%TD.AperFunction*%
%TA.AperFunction,Conductor*%
G36*
X92349224Y-58815685D02*
G01*
X92353739Y-58815471D01*
X92386503Y-58828588D01*
X92388215Y-58829577D01*
X92540942Y-58870500D01*
X92540943Y-58870500D01*
X92619551Y-58870500D01*
X92686590Y-58890185D01*
X92732345Y-58942989D01*
X92737256Y-58955493D01*
X92740186Y-58964334D01*
X92832288Y-59113656D01*
X92956344Y-59237712D01*
X93105666Y-59329814D01*
X93272203Y-59384999D01*
X93374991Y-59395500D01*
X93656533Y-59395499D01*
X93677779Y-59401737D01*
X93699862Y-59403316D01*
X93710644Y-59411387D01*
X93723572Y-59415183D01*
X93738073Y-59431918D01*
X93755797Y-59445185D01*
X93766412Y-59464623D01*
X93769327Y-59467987D01*
X93772713Y-59476161D01*
X93772898Y-59476656D01*
X93780360Y-59496662D01*
X93785347Y-59566352D01*
X93780361Y-59583335D01*
X93772714Y-59603836D01*
X93730841Y-59659769D01*
X93665376Y-59684184D01*
X93656533Y-59684500D01*
X93374999Y-59684500D01*
X93374980Y-59684501D01*
X93272203Y-59695000D01*
X93272200Y-59695001D01*
X93105668Y-59750185D01*
X93105663Y-59750187D01*
X92956342Y-59842289D01*
X92832289Y-59966342D01*
X92740184Y-60115669D01*
X92736878Y-60125646D01*
X92697104Y-60183089D01*
X92643447Y-60206110D01*
X92643792Y-60207397D01*
X92635943Y-60209500D01*
X92635942Y-60209500D01*
X92483215Y-60250423D01*
X92483214Y-60250423D01*
X92483212Y-60250424D01*
X92483209Y-60250425D01*
X92433096Y-60279359D01*
X92433095Y-60279360D01*
X92397551Y-60299881D01*
X92386499Y-60306262D01*
X92318599Y-60322733D01*
X92252572Y-60299881D01*
X92209382Y-60244959D01*
X92200500Y-60198874D01*
X92200500Y-58935974D01*
X92202211Y-58930146D01*
X92201062Y-58924182D01*
X92211941Y-58897009D01*
X92220185Y-58868935D01*
X92224774Y-58864958D01*
X92227032Y-58859319D01*
X92250877Y-58842340D01*
X92272989Y-58823180D01*
X92278999Y-58822315D01*
X92283948Y-58818792D01*
X92313180Y-58817400D01*
X92342147Y-58813236D01*
X92349224Y-58815685D01*
G37*
%TD.AperFunction*%
%TA.AperFunction,Conductor*%
G36*
X84778133Y-58590185D02*
G01*
X84823888Y-58642989D01*
X84828799Y-58655494D01*
X84833708Y-58670308D01*
X84862996Y-58758694D01*
X84863001Y-58758705D01*
X84948552Y-58897403D01*
X84966993Y-58964795D01*
X84948552Y-59027597D01*
X84863001Y-59166294D01*
X84862996Y-59166305D01*
X84809651Y-59327290D01*
X84799500Y-59426647D01*
X84799500Y-59774902D01*
X84790855Y-59804339D01*
X84784332Y-59834330D01*
X84780577Y-59839345D01*
X84779815Y-59841941D01*
X84763180Y-59862584D01*
X84715179Y-59910584D01*
X84653856Y-59944068D01*
X84584164Y-59939083D01*
X84539818Y-59910583D01*
X83567590Y-58938355D01*
X83567588Y-58938352D01*
X83448717Y-58819481D01*
X83448716Y-58819480D01*
X83418244Y-58801887D01*
X83370029Y-58751321D01*
X83356805Y-58682714D01*
X83382773Y-58617849D01*
X83439687Y-58577320D01*
X83480244Y-58570500D01*
X84711094Y-58570500D01*
X84778133Y-58590185D01*
G37*
%TD.AperFunction*%
%TA.AperFunction,Conductor*%
G36*
X76586942Y-58890185D02*
G01*
X76607584Y-58906819D01*
X76865139Y-59164374D01*
X76865149Y-59164385D01*
X76869479Y-59168715D01*
X76869480Y-59168716D01*
X76981284Y-59280520D01*
X77045983Y-59317873D01*
X77068095Y-59330639D01*
X77068097Y-59330641D01*
X77106151Y-59352611D01*
X77118215Y-59359577D01*
X77270943Y-59400500D01*
X77429057Y-59400500D01*
X79509903Y-59400500D01*
X79539343Y-59409144D01*
X79569330Y-59415668D01*
X79574345Y-59419422D01*
X79576942Y-59420185D01*
X79597584Y-59436819D01*
X79748584Y-59587819D01*
X79782069Y-59649142D01*
X79777085Y-59718834D01*
X79735213Y-59774767D01*
X79669749Y-59799184D01*
X79660903Y-59799500D01*
X76009452Y-59799500D01*
X75944356Y-59781039D01*
X75894340Y-59750190D01*
X75894334Y-59750186D01*
X75727797Y-59695001D01*
X75727795Y-59695000D01*
X75625016Y-59684500D01*
X75625009Y-59684500D01*
X75343466Y-59684500D01*
X75322220Y-59678261D01*
X75300132Y-59676682D01*
X75289348Y-59668609D01*
X75276427Y-59664815D01*
X75261927Y-59648081D01*
X75244199Y-59634810D01*
X75233585Y-59615373D01*
X75230672Y-59612011D01*
X75227284Y-59603833D01*
X75219637Y-59583332D01*
X75214654Y-59513641D01*
X75219639Y-59496664D01*
X75227286Y-59476163D01*
X75269159Y-59420230D01*
X75334624Y-59395815D01*
X75343467Y-59395499D01*
X75625002Y-59395499D01*
X75625008Y-59395499D01*
X75727797Y-59384999D01*
X75894334Y-59329814D01*
X76043656Y-59237712D01*
X76167712Y-59113656D01*
X76259814Y-58964334D01*
X76262744Y-58955493D01*
X76276614Y-58935461D01*
X76286736Y-58913297D01*
X76296148Y-58907247D01*
X76302518Y-58898049D01*
X76325016Y-58888696D01*
X76345514Y-58875523D01*
X76362619Y-58873063D01*
X76367035Y-58871228D01*
X76380449Y-58870500D01*
X76519903Y-58870500D01*
X76586942Y-58890185D01*
G37*
%TD.AperFunction*%
%TA.AperFunction,Conductor*%
G36*
X87280389Y-56822828D02*
G01*
X87336323Y-56864699D01*
X87360740Y-56930164D01*
X87356224Y-56970482D01*
X87356451Y-56970528D01*
X87355920Y-56973192D01*
X87355719Y-56974996D01*
X87355263Y-56976498D01*
X87324500Y-57131153D01*
X87324500Y-57288846D01*
X87355261Y-57443489D01*
X87355264Y-57443501D01*
X87415602Y-57589172D01*
X87415609Y-57589185D01*
X87503210Y-57720288D01*
X87503212Y-57720291D01*
X87513678Y-57730756D01*
X87547165Y-57792078D01*
X87550000Y-57818440D01*
X87550000Y-59601000D01*
X87530315Y-59668039D01*
X87477511Y-59713794D01*
X87426000Y-59725000D01*
X87174000Y-59725000D01*
X87106961Y-59705315D01*
X87061206Y-59652511D01*
X87050000Y-59601000D01*
X87050000Y-57224999D01*
X87042985Y-57217985D01*
X87031735Y-57217181D01*
X87020953Y-57209110D01*
X87008033Y-57205317D01*
X86993531Y-57188582D01*
X86975801Y-57175310D01*
X86971094Y-57162691D01*
X86962276Y-57152515D01*
X86959123Y-57130594D01*
X86951384Y-57109845D01*
X86954246Y-57096687D01*
X86952329Y-57083357D01*
X86961528Y-57063210D01*
X86966236Y-57041572D01*
X86979503Y-57023848D01*
X86981352Y-57019800D01*
X86987371Y-57013333D01*
X87149379Y-56851326D01*
X87210698Y-56817844D01*
X87280389Y-56822828D01*
G37*
%TD.AperFunction*%
%TA.AperFunction,Conductor*%
G36*
X75872932Y-56847260D02*
G01*
X75885262Y-56855499D01*
X75885265Y-56855501D01*
X75885264Y-56855501D01*
X75944498Y-56895080D01*
X75944511Y-56895087D01*
X76077782Y-56950289D01*
X76081087Y-56951658D01*
X76081091Y-56951658D01*
X76081092Y-56951659D01*
X76226079Y-56980500D01*
X76226082Y-56980500D01*
X76226083Y-56980500D01*
X76373918Y-56980500D01*
X76712770Y-56980500D01*
X76779809Y-57000185D01*
X76800451Y-57016819D01*
X77066580Y-57282948D01*
X77066584Y-57282951D01*
X77189498Y-57365080D01*
X77189511Y-57365087D01*
X77273645Y-57399936D01*
X77326087Y-57421658D01*
X77326091Y-57421658D01*
X77326092Y-57421659D01*
X77471079Y-57450500D01*
X77471082Y-57450500D01*
X77618917Y-57450500D01*
X77973126Y-57450500D01*
X78040165Y-57470185D01*
X78060807Y-57486819D01*
X78071955Y-57497967D01*
X78071959Y-57497970D01*
X78216294Y-57586998D01*
X78216297Y-57586999D01*
X78216303Y-57587003D01*
X78377292Y-57640349D01*
X78476655Y-57650500D01*
X79073344Y-57650499D01*
X79073352Y-57650498D01*
X79073355Y-57650498D01*
X79127760Y-57644940D01*
X79172708Y-57640349D01*
X79333697Y-57587003D01*
X79478044Y-57497968D01*
X79597968Y-57378044D01*
X79609465Y-57359403D01*
X79661412Y-57312679D01*
X79715004Y-57300500D01*
X80364091Y-57300500D01*
X80364107Y-57300501D01*
X80371703Y-57300501D01*
X80529814Y-57300501D01*
X80529817Y-57300501D01*
X80682545Y-57259577D01*
X80718443Y-57238850D01*
X80786339Y-57222378D01*
X80852366Y-57245229D01*
X80868123Y-57258557D01*
X81948279Y-58338713D01*
X81948281Y-58338716D01*
X82060085Y-58450520D01*
X82101549Y-58474459D01*
X82111026Y-58482899D01*
X82123068Y-58502210D01*
X82138772Y-58518679D01*
X82141202Y-58531287D01*
X82147998Y-58542185D01*
X82147688Y-58564938D01*
X82151996Y-58587286D01*
X82147222Y-58599209D01*
X82147048Y-58612048D01*
X82134486Y-58631022D01*
X82126028Y-58652151D01*
X82115568Y-58659599D01*
X82108479Y-58670308D01*
X82087650Y-58679479D01*
X82069114Y-58692680D01*
X82050607Y-58695792D01*
X82044535Y-58698466D01*
X82039462Y-58697666D01*
X82028557Y-58699500D01*
X80610098Y-58699500D01*
X80543059Y-58679815D01*
X80522417Y-58663181D01*
X80178717Y-58319481D01*
X80178716Y-58319480D01*
X80091904Y-58269360D01*
X80091904Y-58269359D01*
X80091900Y-58269358D01*
X80041785Y-58240423D01*
X79889057Y-58199499D01*
X79730943Y-58199499D01*
X79723347Y-58199499D01*
X79723331Y-58199500D01*
X77650097Y-58199500D01*
X77583058Y-58179815D01*
X77562416Y-58163181D01*
X77307590Y-57908355D01*
X77307588Y-57908352D01*
X77188717Y-57789481D01*
X77188712Y-57789477D01*
X77068876Y-57720291D01*
X77068871Y-57720288D01*
X77051785Y-57710423D01*
X77051782Y-57710422D01*
X77005131Y-57697922D01*
X76899057Y-57669499D01*
X76740943Y-57669499D01*
X76733347Y-57669499D01*
X76733331Y-57669500D01*
X76380449Y-57669500D01*
X76313410Y-57649815D01*
X76267655Y-57597011D01*
X76262744Y-57584507D01*
X76259814Y-57575667D01*
X76259814Y-57575666D01*
X76167712Y-57426344D01*
X76043656Y-57302288D01*
X75918350Y-57224999D01*
X75894336Y-57210187D01*
X75894331Y-57210185D01*
X75879640Y-57205317D01*
X75727797Y-57155001D01*
X75727795Y-57155000D01*
X75625016Y-57144500D01*
X75625009Y-57144500D01*
X75343466Y-57144500D01*
X75322220Y-57138261D01*
X75300132Y-57136682D01*
X75289348Y-57128609D01*
X75276427Y-57124815D01*
X75261927Y-57108081D01*
X75244199Y-57094810D01*
X75233585Y-57075373D01*
X75230672Y-57072011D01*
X75227284Y-57063833D01*
X75219638Y-57043333D01*
X75214654Y-56973641D01*
X75219639Y-56956664D01*
X75227286Y-56936163D01*
X75269159Y-56880230D01*
X75334624Y-56855815D01*
X75343467Y-56855499D01*
X75625002Y-56855499D01*
X75625008Y-56855499D01*
X75727797Y-56844999D01*
X75765038Y-56832657D01*
X75834864Y-56830255D01*
X75872932Y-56847260D01*
G37*
%TD.AperFunction*%
%TA.AperFunction,Conductor*%
G36*
X92808814Y-56600408D02*
G01*
X92822147Y-56598492D01*
X92842290Y-56607691D01*
X92863927Y-56612398D01*
X92881652Y-56625666D01*
X92885703Y-56627517D01*
X92892181Y-56633549D01*
X92956344Y-56697712D01*
X93105666Y-56789814D01*
X93272203Y-56844999D01*
X93374991Y-56855500D01*
X93656533Y-56855499D01*
X93677779Y-56861737D01*
X93699862Y-56863316D01*
X93710644Y-56871387D01*
X93723572Y-56875183D01*
X93738073Y-56891918D01*
X93755797Y-56905185D01*
X93766412Y-56924623D01*
X93769327Y-56927987D01*
X93772713Y-56936161D01*
X93780360Y-56956662D01*
X93785347Y-57026352D01*
X93780361Y-57043335D01*
X93772714Y-57063836D01*
X93730841Y-57119769D01*
X93665376Y-57144184D01*
X93656533Y-57144500D01*
X93374999Y-57144500D01*
X93374980Y-57144501D01*
X93272203Y-57155000D01*
X93272200Y-57155001D01*
X93105668Y-57210185D01*
X93105663Y-57210187D01*
X92956342Y-57302289D01*
X92892181Y-57366451D01*
X92830858Y-57399936D01*
X92761166Y-57394952D01*
X92705233Y-57353080D01*
X92680816Y-57287616D01*
X92680500Y-57278770D01*
X92680500Y-56721230D01*
X92686738Y-56699984D01*
X92688318Y-56677896D01*
X92696390Y-56667112D01*
X92700185Y-56654191D01*
X92716918Y-56639691D01*
X92730190Y-56621963D01*
X92742810Y-56617255D01*
X92752989Y-56608436D01*
X92774906Y-56605284D01*
X92795654Y-56597546D01*
X92808814Y-56600408D01*
G37*
%TD.AperFunction*%
%TA.AperFunction,Conductor*%
G36*
X86319413Y-55770185D02*
G01*
X86365168Y-55822989D01*
X86375112Y-55892147D01*
X86346087Y-55955703D01*
X86340055Y-55962181D01*
X86239055Y-56063181D01*
X86177732Y-56096666D01*
X86151374Y-56099500D01*
X85662120Y-56099500D01*
X85509390Y-56140423D01*
X85474401Y-56160625D01*
X85474369Y-56160643D01*
X85473851Y-56160943D01*
X85372461Y-56219480D01*
X85368827Y-56223113D01*
X85357588Y-56229766D01*
X85330658Y-56236608D01*
X85304736Y-56246628D01*
X85297262Y-56245094D01*
X85289870Y-56246973D01*
X85263513Y-56238169D01*
X85236292Y-56232584D01*
X85230835Y-56227254D01*
X85223600Y-56224838D01*
X85206186Y-56203181D01*
X85186306Y-56183766D01*
X85181377Y-56172328D01*
X85179817Y-56170388D01*
X85179579Y-56168156D01*
X85176042Y-56159947D01*
X85160665Y-56110600D01*
X85068842Y-55958707D01*
X85071132Y-55957322D01*
X85067738Y-55948798D01*
X85055449Y-55930782D01*
X85055070Y-55916974D01*
X85049962Y-55904143D01*
X85054130Y-55882739D01*
X85053532Y-55860938D01*
X85062491Y-55839803D01*
X85063318Y-55835562D01*
X85067308Y-55828444D01*
X85078248Y-55810348D01*
X85129776Y-55763161D01*
X85184363Y-55750500D01*
X86252374Y-55750500D01*
X86319413Y-55770185D01*
G37*
%TD.AperFunction*%
%TA.AperFunction,Conductor*%
G36*
X79635187Y-54919685D02*
G01*
X79680942Y-54972489D01*
X79692148Y-55024000D01*
X79692148Y-55270161D01*
X79690929Y-55270161D01*
X79679106Y-55332494D01*
X79631041Y-55383203D01*
X79568723Y-55400000D01*
X77800001Y-55400000D01*
X77800001Y-55423322D01*
X77810144Y-55522608D01*
X77834475Y-55596036D01*
X77836876Y-55665864D01*
X77801144Y-55725906D01*
X77738624Y-55757098D01*
X77669164Y-55749537D01*
X77629089Y-55722721D01*
X77553416Y-55647048D01*
X77437355Y-55569500D01*
X77430495Y-55564916D01*
X77321772Y-55519881D01*
X77320251Y-55519203D01*
X77294866Y-55497594D01*
X77268913Y-55476680D01*
X77268365Y-55475035D01*
X77267047Y-55473913D01*
X77257379Y-55442026D01*
X77246848Y-55410386D01*
X77247276Y-55408706D01*
X77246774Y-55407049D01*
X77255880Y-55374996D01*
X77264127Y-55342687D01*
X77265598Y-55340793D01*
X77265869Y-55339840D01*
X77267360Y-55338524D01*
X77283085Y-55318282D01*
X77665049Y-54936317D01*
X77726370Y-54902834D01*
X77752728Y-54900000D01*
X79568148Y-54900000D01*
X79635187Y-54919685D01*
G37*
%TD.AperFunction*%
%TA.AperFunction,Conductor*%
G36*
X92620696Y-49888522D02*
G01*
X92648733Y-49893543D01*
X92653792Y-49898240D01*
X92660413Y-49900185D01*
X92679058Y-49921703D01*
X92699932Y-49941086D01*
X92701648Y-49947772D01*
X92706168Y-49952989D01*
X92710220Y-49981175D01*
X92717301Y-50008763D01*
X92715574Y-50018406D01*
X92716112Y-50022147D01*
X92711081Y-50043496D01*
X92697880Y-50083335D01*
X92685000Y-50122204D01*
X92674500Y-50224983D01*
X92674500Y-51075001D01*
X92674501Y-51075019D01*
X92685000Y-51177796D01*
X92685001Y-51177799D01*
X92740185Y-51344331D01*
X92740187Y-51344336D01*
X92775069Y-51400888D01*
X92832288Y-51493656D01*
X92956344Y-51617712D01*
X93105666Y-51709814D01*
X93272203Y-51764999D01*
X93374991Y-51775500D01*
X93656533Y-51775499D01*
X93723572Y-51795183D01*
X93769327Y-51847987D01*
X93772714Y-51856164D01*
X93786204Y-51892332D01*
X93786205Y-51892334D01*
X93872452Y-52007544D01*
X93872455Y-52007547D01*
X93987664Y-52093793D01*
X93987671Y-52093797D01*
X94032618Y-52110561D01*
X94122517Y-52144091D01*
X94182127Y-52150500D01*
X94503003Y-52150499D01*
X94570040Y-52170183D01*
X94615795Y-52222987D01*
X94626984Y-52272466D01*
X94657004Y-54103467D01*
X94638421Y-54170820D01*
X94586375Y-54217435D01*
X94533021Y-54229500D01*
X94182130Y-54229500D01*
X94182123Y-54229501D01*
X94122516Y-54235908D01*
X93987671Y-54286202D01*
X93987664Y-54286206D01*
X93872455Y-54372452D01*
X93872452Y-54372455D01*
X93786205Y-54487665D01*
X93772714Y-54523836D01*
X93730841Y-54579769D01*
X93665376Y-54604184D01*
X93656533Y-54604500D01*
X93374999Y-54604500D01*
X93374980Y-54604501D01*
X93272203Y-54615000D01*
X93272200Y-54615001D01*
X93105668Y-54670185D01*
X93105659Y-54670189D01*
X93067736Y-54693581D01*
X93000344Y-54712021D01*
X92936029Y-54692632D01*
X92924569Y-54685333D01*
X92908716Y-54669480D01*
X92814355Y-54615001D01*
X92812016Y-54613650D01*
X92812001Y-54613641D01*
X92771790Y-54590425D01*
X92771789Y-54590424D01*
X92732024Y-54579769D01*
X92619057Y-54549499D01*
X92460943Y-54549499D01*
X92453347Y-54549499D01*
X92453331Y-54549500D01*
X90372783Y-54549500D01*
X90305744Y-54529815D01*
X90294118Y-54521353D01*
X90290289Y-54518210D01*
X90159185Y-54430609D01*
X90159172Y-54430602D01*
X90013501Y-54370264D01*
X90013489Y-54370261D01*
X89858845Y-54339500D01*
X89858842Y-54339500D01*
X89701158Y-54339500D01*
X89701155Y-54339500D01*
X89546510Y-54370261D01*
X89546498Y-54370264D01*
X89400827Y-54430602D01*
X89400814Y-54430609D01*
X89269711Y-54518210D01*
X89269707Y-54518213D01*
X89158213Y-54629707D01*
X89158210Y-54629711D01*
X89070609Y-54760814D01*
X89070602Y-54760827D01*
X89010264Y-54906498D01*
X89010261Y-54906510D01*
X88979500Y-55061153D01*
X88978903Y-55067218D01*
X88976139Y-55066945D01*
X88959815Y-55122539D01*
X88907011Y-55168294D01*
X88855500Y-55179500D01*
X87896763Y-55179500D01*
X87829724Y-55159815D01*
X87783969Y-55107011D01*
X87774025Y-55037853D01*
X87775146Y-55031309D01*
X87800499Y-54903846D01*
X87800500Y-54903844D01*
X87800500Y-54746155D01*
X87800499Y-54746153D01*
X87789853Y-54692632D01*
X87769737Y-54591503D01*
X87769735Y-54591498D01*
X87709397Y-54445827D01*
X87709390Y-54445814D01*
X87621789Y-54314711D01*
X87621786Y-54314707D01*
X87510292Y-54203213D01*
X87510288Y-54203210D01*
X87379185Y-54115609D01*
X87379172Y-54115602D01*
X87233501Y-54055264D01*
X87233489Y-54055261D01*
X87078845Y-54024500D01*
X87078842Y-54024500D01*
X86921158Y-54024500D01*
X86921155Y-54024500D01*
X86766510Y-54055261D01*
X86766498Y-54055264D01*
X86620827Y-54115602D01*
X86620814Y-54115609D01*
X86489711Y-54203210D01*
X86489707Y-54203213D01*
X86378213Y-54314707D01*
X86378210Y-54314711D01*
X86290609Y-54445814D01*
X86290606Y-54445821D01*
X86279367Y-54472954D01*
X86266823Y-54488519D01*
X86258519Y-54506703D01*
X86245348Y-54515167D01*
X86235525Y-54527357D01*
X86216557Y-54533669D01*
X86199741Y-54544477D01*
X86172178Y-54548439D01*
X86169231Y-54549421D01*
X86164806Y-54549500D01*
X85942148Y-54549500D01*
X85875109Y-54529815D01*
X85829354Y-54477011D01*
X85818148Y-54425500D01*
X85818148Y-53341764D01*
X85837833Y-53274725D01*
X85854462Y-53254087D01*
X86007952Y-53100598D01*
X86040653Y-53051656D01*
X86077955Y-52995830D01*
X86082016Y-52989750D01*
X86090084Y-52977677D01*
X86146658Y-52841095D01*
X86156562Y-52791303D01*
X86175500Y-52696102D01*
X86175500Y-51876079D01*
X86146659Y-51731092D01*
X86146658Y-51731091D01*
X86146658Y-51731087D01*
X86146656Y-51731082D01*
X86090087Y-51594511D01*
X86090080Y-51594498D01*
X86007951Y-51471584D01*
X86007948Y-51471580D01*
X85903419Y-51367051D01*
X85903415Y-51367048D01*
X85780501Y-51284919D01*
X85780488Y-51284912D01*
X85643917Y-51228343D01*
X85643907Y-51228340D01*
X85498920Y-51199500D01*
X85498918Y-51199500D01*
X78237230Y-51199500D01*
X78170191Y-51179815D01*
X78149549Y-51163181D01*
X77078549Y-50092181D01*
X77045064Y-50030858D01*
X77050048Y-49961166D01*
X77091920Y-49905233D01*
X77157384Y-49880816D01*
X77166230Y-49880500D01*
X92593374Y-49880500D01*
X92620696Y-49888522D01*
G37*
%TD.AperFunction*%
%TA.AperFunction,Conductor*%
G36*
X76027812Y-54281946D02*
G01*
X76059005Y-54344466D01*
X76051445Y-54413926D01*
X76024627Y-54454004D01*
X75883905Y-54594726D01*
X75822582Y-54628211D01*
X75757222Y-54624751D01*
X75727804Y-54615003D01*
X75727801Y-54615002D01*
X75727797Y-54615001D01*
X75727792Y-54615000D01*
X75727790Y-54615000D01*
X75625016Y-54604500D01*
X75625009Y-54604500D01*
X75343466Y-54604500D01*
X75322220Y-54598261D01*
X75300132Y-54596682D01*
X75289348Y-54588609D01*
X75276427Y-54584815D01*
X75261927Y-54568081D01*
X75244199Y-54554810D01*
X75233585Y-54535373D01*
X75230672Y-54532011D01*
X75227284Y-54523833D01*
X75219638Y-54503333D01*
X75214654Y-54433641D01*
X75219639Y-54416664D01*
X75220661Y-54413926D01*
X75227286Y-54396163D01*
X75269159Y-54340230D01*
X75334624Y-54315815D01*
X75343467Y-54315499D01*
X75625002Y-54315499D01*
X75625008Y-54315499D01*
X75727797Y-54304999D01*
X75894334Y-54249814D01*
X75894340Y-54249810D01*
X75897941Y-54248617D01*
X75967769Y-54246215D01*
X76027812Y-54281946D01*
G37*
%TD.AperFunction*%
%TA.AperFunction,Conductor*%
G36*
X76349947Y-51486315D02*
G01*
X77396586Y-52532954D01*
X77416853Y-52546495D01*
X77470270Y-52582186D01*
X77519505Y-52615084D01*
X77541127Y-52624040D01*
X77591328Y-52644834D01*
X77645731Y-52688676D01*
X77667795Y-52754970D01*
X77650515Y-52822669D01*
X77631555Y-52847076D01*
X76464004Y-54014627D01*
X76402681Y-54048112D01*
X76332989Y-54043128D01*
X76277056Y-54001256D01*
X76252639Y-53935792D01*
X76258617Y-53887941D01*
X76259810Y-53884340D01*
X76259814Y-53884334D01*
X76314999Y-53717797D01*
X76325500Y-53615009D01*
X76325499Y-52764992D01*
X76325052Y-52760621D01*
X76314999Y-52662203D01*
X76314998Y-52662200D01*
X76309243Y-52644834D01*
X76259814Y-52495666D01*
X76167712Y-52346344D01*
X76043656Y-52222288D01*
X75950888Y-52165069D01*
X75894336Y-52130187D01*
X75894331Y-52130185D01*
X75892862Y-52129698D01*
X75727797Y-52075001D01*
X75727795Y-52075000D01*
X75625016Y-52064500D01*
X75625009Y-52064500D01*
X75343466Y-52064500D01*
X75322220Y-52058261D01*
X75300132Y-52056682D01*
X75289348Y-52048609D01*
X75276427Y-52044815D01*
X75261927Y-52028081D01*
X75244199Y-52014810D01*
X75233585Y-51995373D01*
X75230672Y-51992011D01*
X75227284Y-51983833D01*
X75219638Y-51963333D01*
X75214654Y-51893641D01*
X75219639Y-51876664D01*
X75219858Y-51876079D01*
X75223327Y-51866774D01*
X75227286Y-51856163D01*
X75269159Y-51800230D01*
X75334624Y-51775815D01*
X75343467Y-51775499D01*
X75625002Y-51775499D01*
X75625008Y-51775499D01*
X75727797Y-51764999D01*
X75894334Y-51709814D01*
X76043656Y-51617712D01*
X76167712Y-51493656D01*
X76167712Y-51493655D01*
X76172819Y-51488549D01*
X76174577Y-51490307D01*
X76222006Y-51456714D01*
X76291805Y-51453566D01*
X76349947Y-51486315D01*
G37*
%TD.AperFunction*%
%TD*%
M02*
