%TF.GenerationSoftware,KiCad,Pcbnew,9.0.1+dfsg-1*%
%TF.CreationDate,2025-05-01T10:53:58+02:00*%
%TF.ProjectId,audio-codec,61756469-6f2d-4636-9f64-65632e6b6963,rev?*%
%TF.SameCoordinates,Original*%
%TF.FileFunction,Legend,Top*%
%TF.FilePolarity,Positive*%
%FSLAX46Y46*%
G04 Gerber Fmt 4.6, Leading zero omitted, Abs format (unit mm)*
G04 Created by KiCad (PCBNEW 9.0.1+dfsg-1) date 2025-05-01 10:53:58*
%MOMM*%
%LPD*%
G01*
G04 APERTURE LIST*
%ADD10C,0.150000*%
%ADD11C,0.100000*%
%ADD12C,0.120000*%
%ADD13C,0.127000*%
%ADD14C,0.200000*%
G04 APERTURE END LIST*
D10*
X90132142Y-72684580D02*
X90084523Y-72732200D01*
X90084523Y-72732200D02*
X89941666Y-72779819D01*
X89941666Y-72779819D02*
X89846428Y-72779819D01*
X89846428Y-72779819D02*
X89703571Y-72732200D01*
X89703571Y-72732200D02*
X89608333Y-72636961D01*
X89608333Y-72636961D02*
X89560714Y-72541723D01*
X89560714Y-72541723D02*
X89513095Y-72351247D01*
X89513095Y-72351247D02*
X89513095Y-72208390D01*
X89513095Y-72208390D02*
X89560714Y-72017914D01*
X89560714Y-72017914D02*
X89608333Y-71922676D01*
X89608333Y-71922676D02*
X89703571Y-71827438D01*
X89703571Y-71827438D02*
X89846428Y-71779819D01*
X89846428Y-71779819D02*
X89941666Y-71779819D01*
X89941666Y-71779819D02*
X90084523Y-71827438D01*
X90084523Y-71827438D02*
X90132142Y-71875057D01*
X91084523Y-72779819D02*
X90513095Y-72779819D01*
X90798809Y-72779819D02*
X90798809Y-71779819D01*
X90798809Y-71779819D02*
X90703571Y-71922676D01*
X90703571Y-71922676D02*
X90608333Y-72017914D01*
X90608333Y-72017914D02*
X90513095Y-72065533D01*
X91941666Y-71779819D02*
X91751190Y-71779819D01*
X91751190Y-71779819D02*
X91655952Y-71827438D01*
X91655952Y-71827438D02*
X91608333Y-71875057D01*
X91608333Y-71875057D02*
X91513095Y-72017914D01*
X91513095Y-72017914D02*
X91465476Y-72208390D01*
X91465476Y-72208390D02*
X91465476Y-72589342D01*
X91465476Y-72589342D02*
X91513095Y-72684580D01*
X91513095Y-72684580D02*
X91560714Y-72732200D01*
X91560714Y-72732200D02*
X91655952Y-72779819D01*
X91655952Y-72779819D02*
X91846428Y-72779819D01*
X91846428Y-72779819D02*
X91941666Y-72732200D01*
X91941666Y-72732200D02*
X91989285Y-72684580D01*
X91989285Y-72684580D02*
X92036904Y-72589342D01*
X92036904Y-72589342D02*
X92036904Y-72351247D01*
X92036904Y-72351247D02*
X91989285Y-72256009D01*
X91989285Y-72256009D02*
X91941666Y-72208390D01*
X91941666Y-72208390D02*
X91846428Y-72160771D01*
X91846428Y-72160771D02*
X91655952Y-72160771D01*
X91655952Y-72160771D02*
X91560714Y-72208390D01*
X91560714Y-72208390D02*
X91513095Y-72256009D01*
X91513095Y-72256009D02*
X91465476Y-72351247D01*
X89182142Y-65084580D02*
X89134523Y-65132200D01*
X89134523Y-65132200D02*
X88991666Y-65179819D01*
X88991666Y-65179819D02*
X88896428Y-65179819D01*
X88896428Y-65179819D02*
X88753571Y-65132200D01*
X88753571Y-65132200D02*
X88658333Y-65036961D01*
X88658333Y-65036961D02*
X88610714Y-64941723D01*
X88610714Y-64941723D02*
X88563095Y-64751247D01*
X88563095Y-64751247D02*
X88563095Y-64608390D01*
X88563095Y-64608390D02*
X88610714Y-64417914D01*
X88610714Y-64417914D02*
X88658333Y-64322676D01*
X88658333Y-64322676D02*
X88753571Y-64227438D01*
X88753571Y-64227438D02*
X88896428Y-64179819D01*
X88896428Y-64179819D02*
X88991666Y-64179819D01*
X88991666Y-64179819D02*
X89134523Y-64227438D01*
X89134523Y-64227438D02*
X89182142Y-64275057D01*
X90134523Y-65179819D02*
X89563095Y-65179819D01*
X89848809Y-65179819D02*
X89848809Y-64179819D01*
X89848809Y-64179819D02*
X89753571Y-64322676D01*
X89753571Y-64322676D02*
X89658333Y-64417914D01*
X89658333Y-64417914D02*
X89563095Y-64465533D01*
X90467857Y-64179819D02*
X91134523Y-64179819D01*
X91134523Y-64179819D02*
X90705952Y-65179819D01*
X85907142Y-61509580D02*
X85859523Y-61557200D01*
X85859523Y-61557200D02*
X85716666Y-61604819D01*
X85716666Y-61604819D02*
X85621428Y-61604819D01*
X85621428Y-61604819D02*
X85478571Y-61557200D01*
X85478571Y-61557200D02*
X85383333Y-61461961D01*
X85383333Y-61461961D02*
X85335714Y-61366723D01*
X85335714Y-61366723D02*
X85288095Y-61176247D01*
X85288095Y-61176247D02*
X85288095Y-61033390D01*
X85288095Y-61033390D02*
X85335714Y-60842914D01*
X85335714Y-60842914D02*
X85383333Y-60747676D01*
X85383333Y-60747676D02*
X85478571Y-60652438D01*
X85478571Y-60652438D02*
X85621428Y-60604819D01*
X85621428Y-60604819D02*
X85716666Y-60604819D01*
X85716666Y-60604819D02*
X85859523Y-60652438D01*
X85859523Y-60652438D02*
X85907142Y-60700057D01*
X86859523Y-61604819D02*
X86288095Y-61604819D01*
X86573809Y-61604819D02*
X86573809Y-60604819D01*
X86573809Y-60604819D02*
X86478571Y-60747676D01*
X86478571Y-60747676D02*
X86383333Y-60842914D01*
X86383333Y-60842914D02*
X86288095Y-60890533D01*
X87240476Y-60700057D02*
X87288095Y-60652438D01*
X87288095Y-60652438D02*
X87383333Y-60604819D01*
X87383333Y-60604819D02*
X87621428Y-60604819D01*
X87621428Y-60604819D02*
X87716666Y-60652438D01*
X87716666Y-60652438D02*
X87764285Y-60700057D01*
X87764285Y-60700057D02*
X87811904Y-60795295D01*
X87811904Y-60795295D02*
X87811904Y-60890533D01*
X87811904Y-60890533D02*
X87764285Y-61033390D01*
X87764285Y-61033390D02*
X87192857Y-61604819D01*
X87192857Y-61604819D02*
X87811904Y-61604819D01*
X76833333Y-68279819D02*
X76500000Y-67803628D01*
X76261905Y-68279819D02*
X76261905Y-67279819D01*
X76261905Y-67279819D02*
X76642857Y-67279819D01*
X76642857Y-67279819D02*
X76738095Y-67327438D01*
X76738095Y-67327438D02*
X76785714Y-67375057D01*
X76785714Y-67375057D02*
X76833333Y-67470295D01*
X76833333Y-67470295D02*
X76833333Y-67613152D01*
X76833333Y-67613152D02*
X76785714Y-67708390D01*
X76785714Y-67708390D02*
X76738095Y-67756009D01*
X76738095Y-67756009D02*
X76642857Y-67803628D01*
X76642857Y-67803628D02*
X76261905Y-67803628D01*
X77785714Y-68279819D02*
X77214286Y-68279819D01*
X77500000Y-68279819D02*
X77500000Y-67279819D01*
X77500000Y-67279819D02*
X77404762Y-67422676D01*
X77404762Y-67422676D02*
X77309524Y-67517914D01*
X77309524Y-67517914D02*
X77214286Y-67565533D01*
X85833333Y-53909580D02*
X85785714Y-53957200D01*
X85785714Y-53957200D02*
X85642857Y-54004819D01*
X85642857Y-54004819D02*
X85547619Y-54004819D01*
X85547619Y-54004819D02*
X85404762Y-53957200D01*
X85404762Y-53957200D02*
X85309524Y-53861961D01*
X85309524Y-53861961D02*
X85261905Y-53766723D01*
X85261905Y-53766723D02*
X85214286Y-53576247D01*
X85214286Y-53576247D02*
X85214286Y-53433390D01*
X85214286Y-53433390D02*
X85261905Y-53242914D01*
X85261905Y-53242914D02*
X85309524Y-53147676D01*
X85309524Y-53147676D02*
X85404762Y-53052438D01*
X85404762Y-53052438D02*
X85547619Y-53004819D01*
X85547619Y-53004819D02*
X85642857Y-53004819D01*
X85642857Y-53004819D02*
X85785714Y-53052438D01*
X85785714Y-53052438D02*
X85833333Y-53100057D01*
X86214286Y-53100057D02*
X86261905Y-53052438D01*
X86261905Y-53052438D02*
X86357143Y-53004819D01*
X86357143Y-53004819D02*
X86595238Y-53004819D01*
X86595238Y-53004819D02*
X86690476Y-53052438D01*
X86690476Y-53052438D02*
X86738095Y-53100057D01*
X86738095Y-53100057D02*
X86785714Y-53195295D01*
X86785714Y-53195295D02*
X86785714Y-53290533D01*
X86785714Y-53290533D02*
X86738095Y-53433390D01*
X86738095Y-53433390D02*
X86166667Y-54004819D01*
X86166667Y-54004819D02*
X86785714Y-54004819D01*
X88219580Y-68342857D02*
X88267200Y-68390476D01*
X88267200Y-68390476D02*
X88314819Y-68533333D01*
X88314819Y-68533333D02*
X88314819Y-68628571D01*
X88314819Y-68628571D02*
X88267200Y-68771428D01*
X88267200Y-68771428D02*
X88171961Y-68866666D01*
X88171961Y-68866666D02*
X88076723Y-68914285D01*
X88076723Y-68914285D02*
X87886247Y-68961904D01*
X87886247Y-68961904D02*
X87743390Y-68961904D01*
X87743390Y-68961904D02*
X87552914Y-68914285D01*
X87552914Y-68914285D02*
X87457676Y-68866666D01*
X87457676Y-68866666D02*
X87362438Y-68771428D01*
X87362438Y-68771428D02*
X87314819Y-68628571D01*
X87314819Y-68628571D02*
X87314819Y-68533333D01*
X87314819Y-68533333D02*
X87362438Y-68390476D01*
X87362438Y-68390476D02*
X87410057Y-68342857D01*
X88314819Y-67390476D02*
X88314819Y-67961904D01*
X88314819Y-67676190D02*
X87314819Y-67676190D01*
X87314819Y-67676190D02*
X87457676Y-67771428D01*
X87457676Y-67771428D02*
X87552914Y-67866666D01*
X87552914Y-67866666D02*
X87600533Y-67961904D01*
X87314819Y-66771428D02*
X87314819Y-66676190D01*
X87314819Y-66676190D02*
X87362438Y-66580952D01*
X87362438Y-66580952D02*
X87410057Y-66533333D01*
X87410057Y-66533333D02*
X87505295Y-66485714D01*
X87505295Y-66485714D02*
X87695771Y-66438095D01*
X87695771Y-66438095D02*
X87933866Y-66438095D01*
X87933866Y-66438095D02*
X88124342Y-66485714D01*
X88124342Y-66485714D02*
X88219580Y-66533333D01*
X88219580Y-66533333D02*
X88267200Y-66580952D01*
X88267200Y-66580952D02*
X88314819Y-66676190D01*
X88314819Y-66676190D02*
X88314819Y-66771428D01*
X88314819Y-66771428D02*
X88267200Y-66866666D01*
X88267200Y-66866666D02*
X88219580Y-66914285D01*
X88219580Y-66914285D02*
X88124342Y-66961904D01*
X88124342Y-66961904D02*
X87933866Y-67009523D01*
X87933866Y-67009523D02*
X87695771Y-67009523D01*
X87695771Y-67009523D02*
X87505295Y-66961904D01*
X87505295Y-66961904D02*
X87410057Y-66914285D01*
X87410057Y-66914285D02*
X87362438Y-66866666D01*
X87362438Y-66866666D02*
X87314819Y-66771428D01*
X85882142Y-57129580D02*
X85834523Y-57177200D01*
X85834523Y-57177200D02*
X85691666Y-57224819D01*
X85691666Y-57224819D02*
X85596428Y-57224819D01*
X85596428Y-57224819D02*
X85453571Y-57177200D01*
X85453571Y-57177200D02*
X85358333Y-57081961D01*
X85358333Y-57081961D02*
X85310714Y-56986723D01*
X85310714Y-56986723D02*
X85263095Y-56796247D01*
X85263095Y-56796247D02*
X85263095Y-56653390D01*
X85263095Y-56653390D02*
X85310714Y-56462914D01*
X85310714Y-56462914D02*
X85358333Y-56367676D01*
X85358333Y-56367676D02*
X85453571Y-56272438D01*
X85453571Y-56272438D02*
X85596428Y-56224819D01*
X85596428Y-56224819D02*
X85691666Y-56224819D01*
X85691666Y-56224819D02*
X85834523Y-56272438D01*
X85834523Y-56272438D02*
X85882142Y-56320057D01*
X86834523Y-57224819D02*
X86263095Y-57224819D01*
X86548809Y-57224819D02*
X86548809Y-56224819D01*
X86548809Y-56224819D02*
X86453571Y-56367676D01*
X86453571Y-56367676D02*
X86358333Y-56462914D01*
X86358333Y-56462914D02*
X86263095Y-56510533D01*
X87691666Y-56558152D02*
X87691666Y-57224819D01*
X87453571Y-56177200D02*
X87215476Y-56891485D01*
X87215476Y-56891485D02*
X87834523Y-56891485D01*
X88583333Y-73984580D02*
X88535714Y-74032200D01*
X88535714Y-74032200D02*
X88392857Y-74079819D01*
X88392857Y-74079819D02*
X88297619Y-74079819D01*
X88297619Y-74079819D02*
X88154762Y-74032200D01*
X88154762Y-74032200D02*
X88059524Y-73936961D01*
X88059524Y-73936961D02*
X88011905Y-73841723D01*
X88011905Y-73841723D02*
X87964286Y-73651247D01*
X87964286Y-73651247D02*
X87964286Y-73508390D01*
X87964286Y-73508390D02*
X88011905Y-73317914D01*
X88011905Y-73317914D02*
X88059524Y-73222676D01*
X88059524Y-73222676D02*
X88154762Y-73127438D01*
X88154762Y-73127438D02*
X88297619Y-73079819D01*
X88297619Y-73079819D02*
X88392857Y-73079819D01*
X88392857Y-73079819D02*
X88535714Y-73127438D01*
X88535714Y-73127438D02*
X88583333Y-73175057D01*
X88916667Y-73079819D02*
X89583333Y-73079819D01*
X89583333Y-73079819D02*
X89154762Y-74079819D01*
X92569580Y-69867857D02*
X92617200Y-69915476D01*
X92617200Y-69915476D02*
X92664819Y-70058333D01*
X92664819Y-70058333D02*
X92664819Y-70153571D01*
X92664819Y-70153571D02*
X92617200Y-70296428D01*
X92617200Y-70296428D02*
X92521961Y-70391666D01*
X92521961Y-70391666D02*
X92426723Y-70439285D01*
X92426723Y-70439285D02*
X92236247Y-70486904D01*
X92236247Y-70486904D02*
X92093390Y-70486904D01*
X92093390Y-70486904D02*
X91902914Y-70439285D01*
X91902914Y-70439285D02*
X91807676Y-70391666D01*
X91807676Y-70391666D02*
X91712438Y-70296428D01*
X91712438Y-70296428D02*
X91664819Y-70153571D01*
X91664819Y-70153571D02*
X91664819Y-70058333D01*
X91664819Y-70058333D02*
X91712438Y-69915476D01*
X91712438Y-69915476D02*
X91760057Y-69867857D01*
X92664819Y-68915476D02*
X92664819Y-69486904D01*
X92664819Y-69201190D02*
X91664819Y-69201190D01*
X91664819Y-69201190D02*
X91807676Y-69296428D01*
X91807676Y-69296428D02*
X91902914Y-69391666D01*
X91902914Y-69391666D02*
X91950533Y-69486904D01*
X92664819Y-67963095D02*
X92664819Y-68534523D01*
X92664819Y-68248809D02*
X91664819Y-68248809D01*
X91664819Y-68248809D02*
X91807676Y-68344047D01*
X91807676Y-68344047D02*
X91902914Y-68439285D01*
X91902914Y-68439285D02*
X91950533Y-68534523D01*
X82608333Y-58679819D02*
X82275000Y-58203628D01*
X82036905Y-58679819D02*
X82036905Y-57679819D01*
X82036905Y-57679819D02*
X82417857Y-57679819D01*
X82417857Y-57679819D02*
X82513095Y-57727438D01*
X82513095Y-57727438D02*
X82560714Y-57775057D01*
X82560714Y-57775057D02*
X82608333Y-57870295D01*
X82608333Y-57870295D02*
X82608333Y-58013152D01*
X82608333Y-58013152D02*
X82560714Y-58108390D01*
X82560714Y-58108390D02*
X82513095Y-58156009D01*
X82513095Y-58156009D02*
X82417857Y-58203628D01*
X82417857Y-58203628D02*
X82036905Y-58203628D01*
X82941667Y-57679819D02*
X83560714Y-57679819D01*
X83560714Y-57679819D02*
X83227381Y-58060771D01*
X83227381Y-58060771D02*
X83370238Y-58060771D01*
X83370238Y-58060771D02*
X83465476Y-58108390D01*
X83465476Y-58108390D02*
X83513095Y-58156009D01*
X83513095Y-58156009D02*
X83560714Y-58251247D01*
X83560714Y-58251247D02*
X83560714Y-58489342D01*
X83560714Y-58489342D02*
X83513095Y-58584580D01*
X83513095Y-58584580D02*
X83465476Y-58632200D01*
X83465476Y-58632200D02*
X83370238Y-58679819D01*
X83370238Y-58679819D02*
X83084524Y-58679819D01*
X83084524Y-58679819D02*
X82989286Y-58632200D01*
X82989286Y-58632200D02*
X82941667Y-58584580D01*
X86518333Y-70034580D02*
X86470714Y-70082200D01*
X86470714Y-70082200D02*
X86327857Y-70129819D01*
X86327857Y-70129819D02*
X86232619Y-70129819D01*
X86232619Y-70129819D02*
X86089762Y-70082200D01*
X86089762Y-70082200D02*
X85994524Y-69986961D01*
X85994524Y-69986961D02*
X85946905Y-69891723D01*
X85946905Y-69891723D02*
X85899286Y-69701247D01*
X85899286Y-69701247D02*
X85899286Y-69558390D01*
X85899286Y-69558390D02*
X85946905Y-69367914D01*
X85946905Y-69367914D02*
X85994524Y-69272676D01*
X85994524Y-69272676D02*
X86089762Y-69177438D01*
X86089762Y-69177438D02*
X86232619Y-69129819D01*
X86232619Y-69129819D02*
X86327857Y-69129819D01*
X86327857Y-69129819D02*
X86470714Y-69177438D01*
X86470714Y-69177438D02*
X86518333Y-69225057D01*
X87375476Y-69129819D02*
X87185000Y-69129819D01*
X87185000Y-69129819D02*
X87089762Y-69177438D01*
X87089762Y-69177438D02*
X87042143Y-69225057D01*
X87042143Y-69225057D02*
X86946905Y-69367914D01*
X86946905Y-69367914D02*
X86899286Y-69558390D01*
X86899286Y-69558390D02*
X86899286Y-69939342D01*
X86899286Y-69939342D02*
X86946905Y-70034580D01*
X86946905Y-70034580D02*
X86994524Y-70082200D01*
X86994524Y-70082200D02*
X87089762Y-70129819D01*
X87089762Y-70129819D02*
X87280238Y-70129819D01*
X87280238Y-70129819D02*
X87375476Y-70082200D01*
X87375476Y-70082200D02*
X87423095Y-70034580D01*
X87423095Y-70034580D02*
X87470714Y-69939342D01*
X87470714Y-69939342D02*
X87470714Y-69701247D01*
X87470714Y-69701247D02*
X87423095Y-69606009D01*
X87423095Y-69606009D02*
X87375476Y-69558390D01*
X87375476Y-69558390D02*
X87280238Y-69510771D01*
X87280238Y-69510771D02*
X87089762Y-69510771D01*
X87089762Y-69510771D02*
X86994524Y-69558390D01*
X86994524Y-69558390D02*
X86946905Y-69606009D01*
X86946905Y-69606009D02*
X86899286Y-69701247D01*
X81543333Y-69184580D02*
X81495714Y-69232200D01*
X81495714Y-69232200D02*
X81352857Y-69279819D01*
X81352857Y-69279819D02*
X81257619Y-69279819D01*
X81257619Y-69279819D02*
X81114762Y-69232200D01*
X81114762Y-69232200D02*
X81019524Y-69136961D01*
X81019524Y-69136961D02*
X80971905Y-69041723D01*
X80971905Y-69041723D02*
X80924286Y-68851247D01*
X80924286Y-68851247D02*
X80924286Y-68708390D01*
X80924286Y-68708390D02*
X80971905Y-68517914D01*
X80971905Y-68517914D02*
X81019524Y-68422676D01*
X81019524Y-68422676D02*
X81114762Y-68327438D01*
X81114762Y-68327438D02*
X81257619Y-68279819D01*
X81257619Y-68279819D02*
X81352857Y-68279819D01*
X81352857Y-68279819D02*
X81495714Y-68327438D01*
X81495714Y-68327438D02*
X81543333Y-68375057D01*
X82448095Y-68279819D02*
X81971905Y-68279819D01*
X81971905Y-68279819D02*
X81924286Y-68756009D01*
X81924286Y-68756009D02*
X81971905Y-68708390D01*
X81971905Y-68708390D02*
X82067143Y-68660771D01*
X82067143Y-68660771D02*
X82305238Y-68660771D01*
X82305238Y-68660771D02*
X82400476Y-68708390D01*
X82400476Y-68708390D02*
X82448095Y-68756009D01*
X82448095Y-68756009D02*
X82495714Y-68851247D01*
X82495714Y-68851247D02*
X82495714Y-69089342D01*
X82495714Y-69089342D02*
X82448095Y-69184580D01*
X82448095Y-69184580D02*
X82400476Y-69232200D01*
X82400476Y-69232200D02*
X82305238Y-69279819D01*
X82305238Y-69279819D02*
X82067143Y-69279819D01*
X82067143Y-69279819D02*
X81971905Y-69232200D01*
X81971905Y-69232200D02*
X81924286Y-69184580D01*
X80088095Y-57324819D02*
X80088095Y-58134342D01*
X80088095Y-58134342D02*
X80135714Y-58229580D01*
X80135714Y-58229580D02*
X80183333Y-58277200D01*
X80183333Y-58277200D02*
X80278571Y-58324819D01*
X80278571Y-58324819D02*
X80469047Y-58324819D01*
X80469047Y-58324819D02*
X80564285Y-58277200D01*
X80564285Y-58277200D02*
X80611904Y-58229580D01*
X80611904Y-58229580D02*
X80659523Y-58134342D01*
X80659523Y-58134342D02*
X80659523Y-57324819D01*
X81088095Y-57420057D02*
X81135714Y-57372438D01*
X81135714Y-57372438D02*
X81230952Y-57324819D01*
X81230952Y-57324819D02*
X81469047Y-57324819D01*
X81469047Y-57324819D02*
X81564285Y-57372438D01*
X81564285Y-57372438D02*
X81611904Y-57420057D01*
X81611904Y-57420057D02*
X81659523Y-57515295D01*
X81659523Y-57515295D02*
X81659523Y-57610533D01*
X81659523Y-57610533D02*
X81611904Y-57753390D01*
X81611904Y-57753390D02*
X81040476Y-58324819D01*
X81040476Y-58324819D02*
X81659523Y-58324819D01*
X82425476Y-61562295D02*
X82425476Y-62209914D01*
X82425476Y-62209914D02*
X82463571Y-62286104D01*
X82463571Y-62286104D02*
X82501666Y-62324200D01*
X82501666Y-62324200D02*
X82577857Y-62362295D01*
X82577857Y-62362295D02*
X82730238Y-62362295D01*
X82730238Y-62362295D02*
X82806428Y-62324200D01*
X82806428Y-62324200D02*
X82844523Y-62286104D01*
X82844523Y-62286104D02*
X82882619Y-62209914D01*
X82882619Y-62209914D02*
X82882619Y-61562295D01*
X83682618Y-62362295D02*
X83225475Y-62362295D01*
X83454047Y-62362295D02*
X83454047Y-61562295D01*
X83454047Y-61562295D02*
X83377856Y-61676580D01*
X83377856Y-61676580D02*
X83301666Y-61752771D01*
X83301666Y-61752771D02*
X83225475Y-61790866D01*
X89007142Y-57129580D02*
X88959523Y-57177200D01*
X88959523Y-57177200D02*
X88816666Y-57224819D01*
X88816666Y-57224819D02*
X88721428Y-57224819D01*
X88721428Y-57224819D02*
X88578571Y-57177200D01*
X88578571Y-57177200D02*
X88483333Y-57081961D01*
X88483333Y-57081961D02*
X88435714Y-56986723D01*
X88435714Y-56986723D02*
X88388095Y-56796247D01*
X88388095Y-56796247D02*
X88388095Y-56653390D01*
X88388095Y-56653390D02*
X88435714Y-56462914D01*
X88435714Y-56462914D02*
X88483333Y-56367676D01*
X88483333Y-56367676D02*
X88578571Y-56272438D01*
X88578571Y-56272438D02*
X88721428Y-56224819D01*
X88721428Y-56224819D02*
X88816666Y-56224819D01*
X88816666Y-56224819D02*
X88959523Y-56272438D01*
X88959523Y-56272438D02*
X89007142Y-56320057D01*
X89959523Y-57224819D02*
X89388095Y-57224819D01*
X89673809Y-57224819D02*
X89673809Y-56224819D01*
X89673809Y-56224819D02*
X89578571Y-56367676D01*
X89578571Y-56367676D02*
X89483333Y-56462914D01*
X89483333Y-56462914D02*
X89388095Y-56510533D01*
X90292857Y-56224819D02*
X90911904Y-56224819D01*
X90911904Y-56224819D02*
X90578571Y-56605771D01*
X90578571Y-56605771D02*
X90721428Y-56605771D01*
X90721428Y-56605771D02*
X90816666Y-56653390D01*
X90816666Y-56653390D02*
X90864285Y-56701009D01*
X90864285Y-56701009D02*
X90911904Y-56796247D01*
X90911904Y-56796247D02*
X90911904Y-57034342D01*
X90911904Y-57034342D02*
X90864285Y-57129580D01*
X90864285Y-57129580D02*
X90816666Y-57177200D01*
X90816666Y-57177200D02*
X90721428Y-57224819D01*
X90721428Y-57224819D02*
X90435714Y-57224819D01*
X90435714Y-57224819D02*
X90340476Y-57177200D01*
X90340476Y-57177200D02*
X90292857Y-57129580D01*
X76933333Y-70534580D02*
X76885714Y-70582200D01*
X76885714Y-70582200D02*
X76742857Y-70629819D01*
X76742857Y-70629819D02*
X76647619Y-70629819D01*
X76647619Y-70629819D02*
X76504762Y-70582200D01*
X76504762Y-70582200D02*
X76409524Y-70486961D01*
X76409524Y-70486961D02*
X76361905Y-70391723D01*
X76361905Y-70391723D02*
X76314286Y-70201247D01*
X76314286Y-70201247D02*
X76314286Y-70058390D01*
X76314286Y-70058390D02*
X76361905Y-69867914D01*
X76361905Y-69867914D02*
X76409524Y-69772676D01*
X76409524Y-69772676D02*
X76504762Y-69677438D01*
X76504762Y-69677438D02*
X76647619Y-69629819D01*
X76647619Y-69629819D02*
X76742857Y-69629819D01*
X76742857Y-69629819D02*
X76885714Y-69677438D01*
X76885714Y-69677438D02*
X76933333Y-69725057D01*
X77409524Y-70629819D02*
X77600000Y-70629819D01*
X77600000Y-70629819D02*
X77695238Y-70582200D01*
X77695238Y-70582200D02*
X77742857Y-70534580D01*
X77742857Y-70534580D02*
X77838095Y-70391723D01*
X77838095Y-70391723D02*
X77885714Y-70201247D01*
X77885714Y-70201247D02*
X77885714Y-69820295D01*
X77885714Y-69820295D02*
X77838095Y-69725057D01*
X77838095Y-69725057D02*
X77790476Y-69677438D01*
X77790476Y-69677438D02*
X77695238Y-69629819D01*
X77695238Y-69629819D02*
X77504762Y-69629819D01*
X77504762Y-69629819D02*
X77409524Y-69677438D01*
X77409524Y-69677438D02*
X77361905Y-69725057D01*
X77361905Y-69725057D02*
X77314286Y-69820295D01*
X77314286Y-69820295D02*
X77314286Y-70058390D01*
X77314286Y-70058390D02*
X77361905Y-70153628D01*
X77361905Y-70153628D02*
X77409524Y-70201247D01*
X77409524Y-70201247D02*
X77504762Y-70248866D01*
X77504762Y-70248866D02*
X77695238Y-70248866D01*
X77695238Y-70248866D02*
X77790476Y-70201247D01*
X77790476Y-70201247D02*
X77838095Y-70153628D01*
X77838095Y-70153628D02*
X77885714Y-70058390D01*
X88982142Y-61559580D02*
X88934523Y-61607200D01*
X88934523Y-61607200D02*
X88791666Y-61654819D01*
X88791666Y-61654819D02*
X88696428Y-61654819D01*
X88696428Y-61654819D02*
X88553571Y-61607200D01*
X88553571Y-61607200D02*
X88458333Y-61511961D01*
X88458333Y-61511961D02*
X88410714Y-61416723D01*
X88410714Y-61416723D02*
X88363095Y-61226247D01*
X88363095Y-61226247D02*
X88363095Y-61083390D01*
X88363095Y-61083390D02*
X88410714Y-60892914D01*
X88410714Y-60892914D02*
X88458333Y-60797676D01*
X88458333Y-60797676D02*
X88553571Y-60702438D01*
X88553571Y-60702438D02*
X88696428Y-60654819D01*
X88696428Y-60654819D02*
X88791666Y-60654819D01*
X88791666Y-60654819D02*
X88934523Y-60702438D01*
X88934523Y-60702438D02*
X88982142Y-60750057D01*
X89934523Y-61654819D02*
X89363095Y-61654819D01*
X89648809Y-61654819D02*
X89648809Y-60654819D01*
X89648809Y-60654819D02*
X89553571Y-60797676D01*
X89553571Y-60797676D02*
X89458333Y-60892914D01*
X89458333Y-60892914D02*
X89363095Y-60940533D01*
X90839285Y-60654819D02*
X90363095Y-60654819D01*
X90363095Y-60654819D02*
X90315476Y-61131009D01*
X90315476Y-61131009D02*
X90363095Y-61083390D01*
X90363095Y-61083390D02*
X90458333Y-61035771D01*
X90458333Y-61035771D02*
X90696428Y-61035771D01*
X90696428Y-61035771D02*
X90791666Y-61083390D01*
X90791666Y-61083390D02*
X90839285Y-61131009D01*
X90839285Y-61131009D02*
X90886904Y-61226247D01*
X90886904Y-61226247D02*
X90886904Y-61464342D01*
X90886904Y-61464342D02*
X90839285Y-61559580D01*
X90839285Y-61559580D02*
X90791666Y-61607200D01*
X90791666Y-61607200D02*
X90696428Y-61654819D01*
X90696428Y-61654819D02*
X90458333Y-61654819D01*
X90458333Y-61654819D02*
X90363095Y-61607200D01*
X90363095Y-61607200D02*
X90315476Y-61559580D01*
X77704580Y-56091666D02*
X77752200Y-56139285D01*
X77752200Y-56139285D02*
X77799819Y-56282142D01*
X77799819Y-56282142D02*
X77799819Y-56377380D01*
X77799819Y-56377380D02*
X77752200Y-56520237D01*
X77752200Y-56520237D02*
X77656961Y-56615475D01*
X77656961Y-56615475D02*
X77561723Y-56663094D01*
X77561723Y-56663094D02*
X77371247Y-56710713D01*
X77371247Y-56710713D02*
X77228390Y-56710713D01*
X77228390Y-56710713D02*
X77037914Y-56663094D01*
X77037914Y-56663094D02*
X76942676Y-56615475D01*
X76942676Y-56615475D02*
X76847438Y-56520237D01*
X76847438Y-56520237D02*
X76799819Y-56377380D01*
X76799819Y-56377380D02*
X76799819Y-56282142D01*
X76799819Y-56282142D02*
X76847438Y-56139285D01*
X76847438Y-56139285D02*
X76895057Y-56091666D01*
X76799819Y-55758332D02*
X76799819Y-55139285D01*
X76799819Y-55139285D02*
X77180771Y-55472618D01*
X77180771Y-55472618D02*
X77180771Y-55329761D01*
X77180771Y-55329761D02*
X77228390Y-55234523D01*
X77228390Y-55234523D02*
X77276009Y-55186904D01*
X77276009Y-55186904D02*
X77371247Y-55139285D01*
X77371247Y-55139285D02*
X77609342Y-55139285D01*
X77609342Y-55139285D02*
X77704580Y-55186904D01*
X77704580Y-55186904D02*
X77752200Y-55234523D01*
X77752200Y-55234523D02*
X77799819Y-55329761D01*
X77799819Y-55329761D02*
X77799819Y-55615475D01*
X77799819Y-55615475D02*
X77752200Y-55710713D01*
X77752200Y-55710713D02*
X77704580Y-55758332D01*
X85658333Y-55654819D02*
X85325000Y-55178628D01*
X85086905Y-55654819D02*
X85086905Y-54654819D01*
X85086905Y-54654819D02*
X85467857Y-54654819D01*
X85467857Y-54654819D02*
X85563095Y-54702438D01*
X85563095Y-54702438D02*
X85610714Y-54750057D01*
X85610714Y-54750057D02*
X85658333Y-54845295D01*
X85658333Y-54845295D02*
X85658333Y-54988152D01*
X85658333Y-54988152D02*
X85610714Y-55083390D01*
X85610714Y-55083390D02*
X85563095Y-55131009D01*
X85563095Y-55131009D02*
X85467857Y-55178628D01*
X85467857Y-55178628D02*
X85086905Y-55178628D01*
X86039286Y-54750057D02*
X86086905Y-54702438D01*
X86086905Y-54702438D02*
X86182143Y-54654819D01*
X86182143Y-54654819D02*
X86420238Y-54654819D01*
X86420238Y-54654819D02*
X86515476Y-54702438D01*
X86515476Y-54702438D02*
X86563095Y-54750057D01*
X86563095Y-54750057D02*
X86610714Y-54845295D01*
X86610714Y-54845295D02*
X86610714Y-54940533D01*
X86610714Y-54940533D02*
X86563095Y-55083390D01*
X86563095Y-55083390D02*
X85991667Y-55654819D01*
X85991667Y-55654819D02*
X86610714Y-55654819D01*
X76858333Y-66609580D02*
X76810714Y-66657200D01*
X76810714Y-66657200D02*
X76667857Y-66704819D01*
X76667857Y-66704819D02*
X76572619Y-66704819D01*
X76572619Y-66704819D02*
X76429762Y-66657200D01*
X76429762Y-66657200D02*
X76334524Y-66561961D01*
X76334524Y-66561961D02*
X76286905Y-66466723D01*
X76286905Y-66466723D02*
X76239286Y-66276247D01*
X76239286Y-66276247D02*
X76239286Y-66133390D01*
X76239286Y-66133390D02*
X76286905Y-65942914D01*
X76286905Y-65942914D02*
X76334524Y-65847676D01*
X76334524Y-65847676D02*
X76429762Y-65752438D01*
X76429762Y-65752438D02*
X76572619Y-65704819D01*
X76572619Y-65704819D02*
X76667857Y-65704819D01*
X76667857Y-65704819D02*
X76810714Y-65752438D01*
X76810714Y-65752438D02*
X76858333Y-65800057D01*
X77810714Y-66704819D02*
X77239286Y-66704819D01*
X77525000Y-66704819D02*
X77525000Y-65704819D01*
X77525000Y-65704819D02*
X77429762Y-65847676D01*
X77429762Y-65847676D02*
X77334524Y-65942914D01*
X77334524Y-65942914D02*
X77239286Y-65990533D01*
X79993333Y-73414580D02*
X79945714Y-73462200D01*
X79945714Y-73462200D02*
X79802857Y-73509819D01*
X79802857Y-73509819D02*
X79707619Y-73509819D01*
X79707619Y-73509819D02*
X79564762Y-73462200D01*
X79564762Y-73462200D02*
X79469524Y-73366961D01*
X79469524Y-73366961D02*
X79421905Y-73271723D01*
X79421905Y-73271723D02*
X79374286Y-73081247D01*
X79374286Y-73081247D02*
X79374286Y-72938390D01*
X79374286Y-72938390D02*
X79421905Y-72747914D01*
X79421905Y-72747914D02*
X79469524Y-72652676D01*
X79469524Y-72652676D02*
X79564762Y-72557438D01*
X79564762Y-72557438D02*
X79707619Y-72509819D01*
X79707619Y-72509819D02*
X79802857Y-72509819D01*
X79802857Y-72509819D02*
X79945714Y-72557438D01*
X79945714Y-72557438D02*
X79993333Y-72605057D01*
X80564762Y-72938390D02*
X80469524Y-72890771D01*
X80469524Y-72890771D02*
X80421905Y-72843152D01*
X80421905Y-72843152D02*
X80374286Y-72747914D01*
X80374286Y-72747914D02*
X80374286Y-72700295D01*
X80374286Y-72700295D02*
X80421905Y-72605057D01*
X80421905Y-72605057D02*
X80469524Y-72557438D01*
X80469524Y-72557438D02*
X80564762Y-72509819D01*
X80564762Y-72509819D02*
X80755238Y-72509819D01*
X80755238Y-72509819D02*
X80850476Y-72557438D01*
X80850476Y-72557438D02*
X80898095Y-72605057D01*
X80898095Y-72605057D02*
X80945714Y-72700295D01*
X80945714Y-72700295D02*
X80945714Y-72747914D01*
X80945714Y-72747914D02*
X80898095Y-72843152D01*
X80898095Y-72843152D02*
X80850476Y-72890771D01*
X80850476Y-72890771D02*
X80755238Y-72938390D01*
X80755238Y-72938390D02*
X80564762Y-72938390D01*
X80564762Y-72938390D02*
X80469524Y-72986009D01*
X80469524Y-72986009D02*
X80421905Y-73033628D01*
X80421905Y-73033628D02*
X80374286Y-73128866D01*
X80374286Y-73128866D02*
X80374286Y-73319342D01*
X80374286Y-73319342D02*
X80421905Y-73414580D01*
X80421905Y-73414580D02*
X80469524Y-73462200D01*
X80469524Y-73462200D02*
X80564762Y-73509819D01*
X80564762Y-73509819D02*
X80755238Y-73509819D01*
X80755238Y-73509819D02*
X80850476Y-73462200D01*
X80850476Y-73462200D02*
X80898095Y-73414580D01*
X80898095Y-73414580D02*
X80945714Y-73319342D01*
X80945714Y-73319342D02*
X80945714Y-73128866D01*
X80945714Y-73128866D02*
X80898095Y-73033628D01*
X80898095Y-73033628D02*
X80850476Y-72986009D01*
X80850476Y-72986009D02*
X80755238Y-72938390D01*
X76958333Y-53854819D02*
X76482143Y-53854819D01*
X76482143Y-53854819D02*
X76482143Y-52854819D01*
X77815476Y-53854819D02*
X77244048Y-53854819D01*
X77529762Y-53854819D02*
X77529762Y-52854819D01*
X77529762Y-52854819D02*
X77434524Y-52997676D01*
X77434524Y-52997676D02*
X77339286Y-53092914D01*
X77339286Y-53092914D02*
X77244048Y-53140533D01*
X82293333Y-73534580D02*
X82245714Y-73582200D01*
X82245714Y-73582200D02*
X82102857Y-73629819D01*
X82102857Y-73629819D02*
X82007619Y-73629819D01*
X82007619Y-73629819D02*
X81864762Y-73582200D01*
X81864762Y-73582200D02*
X81769524Y-73486961D01*
X81769524Y-73486961D02*
X81721905Y-73391723D01*
X81721905Y-73391723D02*
X81674286Y-73201247D01*
X81674286Y-73201247D02*
X81674286Y-73058390D01*
X81674286Y-73058390D02*
X81721905Y-72867914D01*
X81721905Y-72867914D02*
X81769524Y-72772676D01*
X81769524Y-72772676D02*
X81864762Y-72677438D01*
X81864762Y-72677438D02*
X82007619Y-72629819D01*
X82007619Y-72629819D02*
X82102857Y-72629819D01*
X82102857Y-72629819D02*
X82245714Y-72677438D01*
X82245714Y-72677438D02*
X82293333Y-72725057D01*
X83150476Y-72963152D02*
X83150476Y-73629819D01*
X82912381Y-72582200D02*
X82674286Y-73296485D01*
X82674286Y-73296485D02*
X83293333Y-73296485D01*
D11*
X83547619Y-76916895D02*
X83547619Y-76116895D01*
X83547619Y-76116895D02*
X83852381Y-76116895D01*
X83852381Y-76116895D02*
X83928571Y-76154990D01*
X83928571Y-76154990D02*
X83966666Y-76193085D01*
X83966666Y-76193085D02*
X84004762Y-76269276D01*
X84004762Y-76269276D02*
X84004762Y-76383561D01*
X84004762Y-76383561D02*
X83966666Y-76459752D01*
X83966666Y-76459752D02*
X83928571Y-76497847D01*
X83928571Y-76497847D02*
X83852381Y-76535942D01*
X83852381Y-76535942D02*
X83547619Y-76535942D01*
X84804762Y-76916895D02*
X84538095Y-76535942D01*
X84347619Y-76916895D02*
X84347619Y-76116895D01*
X84347619Y-76116895D02*
X84652381Y-76116895D01*
X84652381Y-76116895D02*
X84728571Y-76154990D01*
X84728571Y-76154990D02*
X84766666Y-76193085D01*
X84766666Y-76193085D02*
X84804762Y-76269276D01*
X84804762Y-76269276D02*
X84804762Y-76383561D01*
X84804762Y-76383561D02*
X84766666Y-76459752D01*
X84766666Y-76459752D02*
X84728571Y-76497847D01*
X84728571Y-76497847D02*
X84652381Y-76535942D01*
X84652381Y-76535942D02*
X84347619Y-76535942D01*
X85300000Y-76535942D02*
X85300000Y-76916895D01*
X85033333Y-76116895D02*
X85300000Y-76535942D01*
X85300000Y-76535942D02*
X85566666Y-76116895D01*
X83547619Y-50576895D02*
X83547619Y-49776895D01*
X83547619Y-49776895D02*
X83852381Y-49776895D01*
X83852381Y-49776895D02*
X83928571Y-49814990D01*
X83928571Y-49814990D02*
X83966666Y-49853085D01*
X83966666Y-49853085D02*
X84004762Y-49929276D01*
X84004762Y-49929276D02*
X84004762Y-50043561D01*
X84004762Y-50043561D02*
X83966666Y-50119752D01*
X83966666Y-50119752D02*
X83928571Y-50157847D01*
X83928571Y-50157847D02*
X83852381Y-50195942D01*
X83852381Y-50195942D02*
X83547619Y-50195942D01*
X84804762Y-50576895D02*
X84538095Y-50195942D01*
X84347619Y-50576895D02*
X84347619Y-49776895D01*
X84347619Y-49776895D02*
X84652381Y-49776895D01*
X84652381Y-49776895D02*
X84728571Y-49814990D01*
X84728571Y-49814990D02*
X84766666Y-49853085D01*
X84766666Y-49853085D02*
X84804762Y-49929276D01*
X84804762Y-49929276D02*
X84804762Y-50043561D01*
X84804762Y-50043561D02*
X84766666Y-50119752D01*
X84766666Y-50119752D02*
X84728571Y-50157847D01*
X84728571Y-50157847D02*
X84652381Y-50195942D01*
X84652381Y-50195942D02*
X84347619Y-50195942D01*
X85300000Y-50195942D02*
X85300000Y-50576895D01*
X85033333Y-49776895D02*
X85300000Y-50195942D01*
X85300000Y-50195942D02*
X85566666Y-49776895D01*
D12*
%TO.C,C16*%
X89794420Y-70290000D02*
X90075580Y-70290000D01*
X89794420Y-71310000D02*
X90075580Y-71310000D01*
%TO.C,C17*%
X89794420Y-65640000D02*
X90075580Y-65640000D01*
X89794420Y-66660000D02*
X90075580Y-66660000D01*
%TO.C,C12*%
X86384420Y-59215000D02*
X86665580Y-59215000D01*
X86384420Y-60235000D02*
X86665580Y-60235000D01*
%TO.C,R1*%
X79672258Y-67202500D02*
X79197742Y-67202500D01*
X79672258Y-68247500D02*
X79197742Y-68247500D01*
%TO.C,C2*%
X83533228Y-52840000D02*
X83252068Y-52840000D01*
X83533228Y-53860000D02*
X83252068Y-53860000D01*
%TO.C,C10*%
X89794420Y-67190000D02*
X90075580Y-67190000D01*
X89794420Y-68210000D02*
X90075580Y-68210000D01*
%TO.C,C14*%
X86384420Y-57690000D02*
X86665580Y-57690000D01*
X86384420Y-58710000D02*
X86665580Y-58710000D01*
%TO.C,C7*%
X86219420Y-71990000D02*
X86500580Y-71990000D01*
X86219420Y-73010000D02*
X86500580Y-73010000D01*
%TO.C,C11*%
X89794420Y-68715000D02*
X90075580Y-68715000D01*
X89794420Y-69735000D02*
X90075580Y-69735000D01*
%TO.C,R3*%
X83704906Y-54627500D02*
X83230390Y-54627500D01*
X83704906Y-55672500D02*
X83230390Y-55672500D01*
%TO.C,C6*%
X86219420Y-70465000D02*
X86500580Y-70465000D01*
X86219420Y-71485000D02*
X86500580Y-71485000D01*
%TO.C,C5*%
X83350580Y-69605000D02*
X83069420Y-69605000D01*
X83350580Y-70625000D02*
X83069420Y-70625000D01*
D13*
%TO.C,U2*%
X79845000Y-54705000D02*
X79845000Y-55202500D01*
X79845000Y-54705000D02*
X80342500Y-54705000D01*
X79845000Y-56695000D02*
X79845000Y-56197500D01*
X79845000Y-56695000D02*
X80342500Y-56695000D01*
X81835000Y-54705000D02*
X81337500Y-54705000D01*
X81835000Y-54705000D02*
X81835000Y-55202500D01*
X81835000Y-56695000D02*
X81337500Y-56695000D01*
X81835000Y-56695000D02*
X81835000Y-56197500D01*
D14*
X79595000Y-55200000D02*
G75*
G02*
X79395000Y-55200000I-100000J0D01*
G01*
X79395000Y-55200000D02*
G75*
G02*
X79595000Y-55200000I100000J0D01*
G01*
D13*
%TO.C,U1*%
X81610000Y-62875000D02*
X81610000Y-63170000D01*
X81610000Y-62875000D02*
X81905000Y-62875000D01*
X81610000Y-67875000D02*
X81610000Y-67580000D01*
X81610000Y-67875000D02*
X81905000Y-67875000D01*
X86610000Y-62875000D02*
X86315000Y-62875000D01*
X86610000Y-62875000D02*
X86610000Y-63170000D01*
X86610000Y-67875000D02*
X86315000Y-67875000D01*
X86610000Y-67875000D02*
X86610000Y-67580000D01*
D14*
X86260000Y-62080000D02*
G75*
G02*
X86060000Y-62080000I-100000J0D01*
G01*
X86060000Y-62080000D02*
G75*
G02*
X86260000Y-62080000I100000J0D01*
G01*
D12*
%TO.C,C13*%
X89509420Y-57690000D02*
X89790580Y-57690000D01*
X89509420Y-58710000D02*
X89790580Y-58710000D01*
%TO.C,C9*%
X80300580Y-69605000D02*
X80019420Y-69605000D01*
X80300580Y-70625000D02*
X80019420Y-70625000D01*
%TO.C,C15*%
X89484420Y-59265000D02*
X89765580Y-59265000D01*
X89484420Y-60285000D02*
X89765580Y-60285000D01*
%TO.C,C3*%
X78265000Y-56065580D02*
X78265000Y-55784420D01*
X79285000Y-56065580D02*
X79285000Y-55784420D01*
%TO.C,R2*%
X83255390Y-56152500D02*
X83729906Y-56152500D01*
X83255390Y-57197500D02*
X83729906Y-57197500D01*
%TO.C,C1*%
X79575580Y-65665000D02*
X79294420Y-65665000D01*
X79575580Y-66685000D02*
X79294420Y-66685000D01*
%TO.C,C8*%
X80300580Y-71115000D02*
X80019420Y-71115000D01*
X80300580Y-72135000D02*
X80019420Y-72135000D01*
%TO.C,L1*%
X80317270Y-52865000D02*
X79518026Y-52865000D01*
X80317270Y-53985000D02*
X79518026Y-53985000D01*
%TO.C,C4*%
X83350580Y-71115000D02*
X83069420Y-71115000D01*
X83350580Y-72135000D02*
X83069420Y-72135000D01*
%TO.C,M1*%
D11*
X86484241Y-50929000D02*
X82480484Y-50929000D01*
X82480484Y-49460000D01*
X86484241Y-49460000D01*
X86484241Y-50929000D01*
X86484241Y-75771000D02*
X82480484Y-75771000D01*
X82480484Y-77240000D01*
X86484241Y-77240000D01*
X86484241Y-75771000D01*
%TD*%
M02*
