%TF.GenerationSoftware,KiCad,Pcbnew,9.0.1+dfsg-1*%
%TF.CreationDate,2025-05-01T10:53:58+02:00*%
%TF.ProjectId,audio-codec,61756469-6f2d-4636-9f64-65632e6b6963,rev?*%
%TF.SameCoordinates,Original*%
%TF.FileFunction,Paste,Top*%
%TF.FilePolarity,Positive*%
%FSLAX46Y46*%
G04 Gerber Fmt 4.6, Leading zero omitted, Abs format (unit mm)*
G04 Created by KiCad (PCBNEW 9.0.1+dfsg-1) date 2025-05-01 10:53:58*
%MOMM*%
%LPD*%
G01*
G04 APERTURE LIST*
G04 Aperture macros list*
%AMRoundRect*
0 Rectangle with rounded corners*
0 $1 Rounding radius*
0 $2 $3 $4 $5 $6 $7 $8 $9 X,Y pos of 4 corners*
0 Add a 4 corners polygon primitive as box body*
4,1,4,$2,$3,$4,$5,$6,$7,$8,$9,$2,$3,0*
0 Add four circle primitives for the rounded corners*
1,1,$1+$1,$2,$3*
1,1,$1+$1,$4,$5*
1,1,$1+$1,$6,$7*
1,1,$1+$1,$8,$9*
0 Add four rect primitives between the rounded corners*
20,1,$1+$1,$2,$3,$4,$5,0*
20,1,$1+$1,$4,$5,$6,$7,0*
20,1,$1+$1,$6,$7,$8,$9,0*
20,1,$1+$1,$8,$9,$2,$3,0*%
G04 Aperture macros list end*
%ADD10C,0.010000*%
%ADD11RoundRect,0.225000X-0.225000X-0.250000X0.225000X-0.250000X0.225000X0.250000X-0.225000X0.250000X0*%
%ADD12RoundRect,0.200000X0.200000X0.275000X-0.200000X0.275000X-0.200000X-0.275000X0.200000X-0.275000X0*%
%ADD13RoundRect,0.225000X0.225000X0.250000X-0.225000X0.250000X-0.225000X-0.250000X0.225000X-0.250000X0*%
%ADD14C,0.260000*%
%ADD15RoundRect,0.031250X-0.093750X0.268750X-0.093750X-0.268750X0.093750X-0.268750X0.093750X0.268750X0*%
%ADD16RoundRect,0.031250X-0.268750X0.093750X-0.268750X-0.093750X0.268750X-0.093750X0.268750X0.093750X0*%
%ADD17RoundRect,0.225000X0.250000X-0.225000X0.250000X0.225000X-0.250000X0.225000X-0.250000X-0.225000X0*%
%ADD18RoundRect,0.200000X-0.200000X-0.275000X0.200000X-0.275000X0.200000X0.275000X-0.200000X0.275000X0*%
%ADD19RoundRect,0.218750X0.218750X0.381250X-0.218750X0.381250X-0.218750X-0.381250X0.218750X-0.381250X0*%
G04 APERTURE END LIST*
D10*
%TO.C,U1*%
X84010000Y-65275000D02*
X82520000Y-65275000D01*
X82520000Y-63785000D01*
X84010000Y-63785000D01*
X84010000Y-65275000D01*
G36*
X84010000Y-65275000D02*
G01*
X82520000Y-65275000D01*
X82520000Y-63785000D01*
X84010000Y-63785000D01*
X84010000Y-65275000D01*
G37*
X84010000Y-66965000D02*
X82520000Y-66965000D01*
X82520000Y-65475000D01*
X84010000Y-65475000D01*
X84010000Y-66965000D01*
G36*
X84010000Y-66965000D02*
G01*
X82520000Y-66965000D01*
X82520000Y-65475000D01*
X84010000Y-65475000D01*
X84010000Y-66965000D01*
G37*
X85700000Y-65275000D02*
X84210000Y-65275000D01*
X84210000Y-63785000D01*
X85700000Y-63785000D01*
X85700000Y-65275000D01*
G36*
X85700000Y-65275000D02*
G01*
X84210000Y-65275000D01*
X84210000Y-63785000D01*
X85700000Y-63785000D01*
X85700000Y-65275000D01*
G37*
X85700000Y-66965000D02*
X84210000Y-66965000D01*
X84210000Y-65475000D01*
X85700000Y-65475000D01*
X85700000Y-66965000D01*
G36*
X85700000Y-66965000D02*
G01*
X84210000Y-66965000D01*
X84210000Y-65475000D01*
X85700000Y-65475000D01*
X85700000Y-66965000D01*
G37*
%TD*%
D11*
%TO.C,C16*%
X89160000Y-70800000D03*
X90710000Y-70800000D03*
%TD*%
%TO.C,C17*%
X89160000Y-66150000D03*
X90710000Y-66150000D03*
%TD*%
%TO.C,C12*%
X85750000Y-59725000D03*
X87300000Y-59725000D03*
%TD*%
D12*
%TO.C,R1*%
X80260000Y-67725000D03*
X78610000Y-67725000D03*
%TD*%
D13*
%TO.C,C2*%
X84167648Y-53350000D03*
X82617648Y-53350000D03*
%TD*%
D11*
%TO.C,C10*%
X89160000Y-67700000D03*
X90710000Y-67700000D03*
%TD*%
%TO.C,C14*%
X85750000Y-58200000D03*
X87300000Y-58200000D03*
%TD*%
%TO.C,C7*%
X85585000Y-72500000D03*
X87135000Y-72500000D03*
%TD*%
%TO.C,C11*%
X89160000Y-69225000D03*
X90710000Y-69225000D03*
%TD*%
D12*
%TO.C,R3*%
X84292648Y-55150000D03*
X82642648Y-55150000D03*
%TD*%
D11*
%TO.C,C6*%
X85585000Y-70975000D03*
X87135000Y-70975000D03*
%TD*%
D13*
%TO.C,C5*%
X83985000Y-70115000D03*
X82435000Y-70115000D03*
%TD*%
D14*
%TO.C,U2*%
X80340000Y-55200000D03*
X80840000Y-55200000D03*
X81340000Y-55200000D03*
X80340000Y-55700000D03*
X80840000Y-55700000D03*
X81340000Y-55700000D03*
X80340000Y-56200000D03*
X80840000Y-56200000D03*
X81340000Y-56200000D03*
%TD*%
D15*
%TO.C,U1*%
X85860000Y-62975000D03*
X85360000Y-62975000D03*
X84860000Y-62975000D03*
X84360000Y-62975000D03*
X83860000Y-62975000D03*
X83360000Y-62975000D03*
X82860000Y-62975000D03*
X82360000Y-62975000D03*
D16*
X81710000Y-63625000D03*
X81710000Y-64125000D03*
X81710000Y-64625000D03*
X81710000Y-65125000D03*
X81710000Y-65625000D03*
X81710000Y-66125000D03*
X81710000Y-66625000D03*
X81710000Y-67125000D03*
D15*
X82360000Y-67775000D03*
X82860000Y-67775000D03*
X83360000Y-67775000D03*
X83860000Y-67775000D03*
X84360000Y-67775000D03*
X84860000Y-67775000D03*
X85360000Y-67775000D03*
X85860000Y-67775000D03*
D16*
X86510000Y-67125000D03*
X86510000Y-66625000D03*
X86510000Y-66125000D03*
X86510000Y-65625000D03*
X86510000Y-65125000D03*
X86510000Y-64625000D03*
X86510000Y-64125000D03*
X86510000Y-63625000D03*
%TD*%
D11*
%TO.C,C13*%
X88875000Y-58200000D03*
X90425000Y-58200000D03*
%TD*%
D13*
%TO.C,C9*%
X80935000Y-70115000D03*
X79385000Y-70115000D03*
%TD*%
D11*
%TO.C,C15*%
X88850000Y-59775000D03*
X90400000Y-59775000D03*
%TD*%
D17*
%TO.C,C3*%
X78775000Y-56700000D03*
X78775000Y-55150000D03*
%TD*%
D18*
%TO.C,R2*%
X82667648Y-56675000D03*
X84317648Y-56675000D03*
%TD*%
D13*
%TO.C,C1*%
X80210000Y-66175000D03*
X78660000Y-66175000D03*
%TD*%
%TO.C,C8*%
X80935000Y-71625000D03*
X79385000Y-71625000D03*
%TD*%
D19*
%TO.C,L1*%
X80980148Y-53425000D03*
X78855148Y-53425000D03*
%TD*%
D13*
%TO.C,C4*%
X83985000Y-71625000D03*
X82435000Y-71625000D03*
%TD*%
M02*
