M48
; DRILL file {KiCad 9.0.1+dfsg-1} date 2025-05-01T10:54:07+0200
; FORMAT={-:-/ absolute / metric / decimal}
; #@! TF.CreationDate,2025-05-01T10:54:07+02:00
; #@! TF.GenerationSoftware,Kicad,Pcbnew,9.0.1+dfsg-1
; #@! TF.FileFunction,Plated,1,2,PTH
FMAT,2
METRIC
; #@! TA.AperFunction,Plated,PTH,ComponentDrill
T1C0.200
; #@! TA.AperFunction,Plated,PTH,ViaDrill
T2C0.300
; #@! TA.AperFunction,Plated,PTH,ComponentDrill
T3C0.750
; #@! TA.AperFunction,Plated,PTH,ComponentDrill
T4C1.500
%
G90
G05
T1
X82.635Y-65.375
X84.11Y-63.9
X84.11Y-65.375
X84.11Y-66.85
X85.585Y-65.375
T2
X75.37Y-59.53
X75.44Y-51.92
X75.49Y-64.66
X75.51Y-54.45
X75.51Y-62.06
X75.61Y-57.01
X75.8Y-67.14
X75.91Y-72.21
X75.92Y-69.64
X76.12Y-74.72
X77.12Y-59.64
X77.3Y-73.09
X77.91Y-61.16
X78.12Y-55.23
X78.55Y-58.03
X78.89Y-64.19
X79.35Y-69.27
X79.36Y-72.33
X80.085Y-65.424
X80.199Y-64.2
X80.935Y-74.85
X81.43Y-61.04
X81.485Y-67.625
X82.43Y-69.35
X82.48Y-72.45
X82.65Y-68.58
X83.86Y-68.525
X84.142Y-54.175
X84.4Y-59.16
X84.435Y-73.94
X85.477Y-69.233
X85.59Y-73.17
X86.2Y-56.05
X86.32Y-62.59
X86.56Y-67.725
X86.65Y-70.06
X86.935Y-68.432
X87.0Y-54.825
X87.1Y-60.52
X87.11Y-52.85
X87.285Y-65.175
X87.29Y-57.49
X87.92Y-72.5
X88.125Y-57.21
X88.31Y-65.175
X88.335Y-62.15
X88.43Y-53.82
X89.54Y-76.25
X89.71Y-56.44
X89.75Y-52.51
X89.78Y-55.14
X89.8Y-51.45
X89.98Y-66.95
X90.035Y-68.4
X90.3Y-57.52
X90.38Y-60.5
X90.88Y-76.25
X90.93Y-57.01
X92.5Y-52.51
X92.5Y-54.24
X92.5Y-59.59
X92.5Y-64.64
X92.63Y-74.88
X93.06Y-56.97
X93.06Y-62.04
X93.14Y-67.09
X93.16Y-69.73
X93.22Y-72.23
T3
X75.2Y-50.65
X75.2Y-53.19
X75.2Y-55.73
X75.2Y-58.27
X75.2Y-60.81
X75.2Y-63.35
X75.2Y-65.89
X75.2Y-68.43
X75.2Y-70.97
X75.2Y-73.51
X75.2Y-76.05
X93.8Y-50.65
X93.8Y-55.73
X93.8Y-58.27
X93.8Y-60.81
X93.8Y-63.35
X93.8Y-65.89
X93.8Y-68.43
X93.8Y-70.97
X93.8Y-73.51
X93.8Y-76.05
T4
G00X73.75Y-50.65
M15
G01X73.25Y-50.65
M16
G05
G00X73.75Y-53.19
M15
G01X73.25Y-53.19
M16
G05
G00X73.75Y-55.73
M15
G01X73.25Y-55.73
M16
G05
G00X73.75Y-58.27
M15
G01X73.25Y-58.27
M16
G05
G00X73.75Y-60.81
M15
G01X73.25Y-60.81
M16
G05
G00X73.75Y-63.35
M15
G01X73.25Y-63.35
M16
G05
G00X73.75Y-65.89
M15
G01X73.25Y-65.89
M16
G05
G00X73.75Y-68.43
M15
G01X73.25Y-68.43
M16
G05
G00X73.75Y-70.97
M15
G01X73.25Y-70.97
M16
G05
G00X73.75Y-73.51
M15
G01X73.25Y-73.51
M16
G05
G00X73.75Y-76.05
M15
G01X73.25Y-76.05
M16
G05
G00X95.75Y-50.65
M15
G01X95.25Y-50.65
M16
G05
G00X95.75Y-55.73
M15
G01X95.25Y-55.73
M16
G05
G00X95.75Y-58.27
M15
G01X95.25Y-58.27
M16
G05
G00X95.75Y-60.81
M15
G01X95.25Y-60.81
M16
G05
G00X95.75Y-63.35
M15
G01X95.25Y-63.35
M16
G05
G00X95.75Y-65.89
M15
G01X95.25Y-65.89
M16
G05
G00X95.75Y-68.43
M15
G01X95.25Y-68.43
M16
G05
G00X95.75Y-70.97
M15
G01X95.25Y-70.97
M16
G05
G00X95.75Y-73.51
M15
G01X95.25Y-73.51
M16
G05
G00X95.75Y-76.05
M15
G01X95.25Y-76.05
M16
G05
M30
