G04 #@! TF.GenerationSoftware,KiCad,Pcbnew,9.0.1+1*
G04 #@! TF.CreationDate,2025-11-11T08:29:43+00:00*
G04 #@! TF.ProjectId,solar-and-dc-connectors,736f6c61-722d-4616-9e64-2d64632d636f,rev?*
G04 #@! TF.SameCoordinates,Original*
G04 #@! TF.FileFunction,Soldermask,Top*
G04 #@! TF.FilePolarity,Negative*
%FSLAX46Y46*%
G04 Gerber Fmt 4.6, Leading zero omitted, Abs format (unit mm)*
G04 Created by KiCad (PCBNEW 9.0.1+1) date 2025-11-11 08:29:43*
%MOMM*%
%LPD*%
G01*
G04 APERTURE LIST*
%ADD10C,1.320800*%
%ADD11R,2.540000X2.000000*%
%ADD12O,1.512000X2.820000*%
%ADD13O,1.864000X3.524000*%
G04 APERTURE END LIST*
D10*
X63084000Y-47979000D03*
X65084001Y-47979000D03*
D11*
X53973000Y-30453000D03*
G36*
G01*
X56298000Y-30078000D02*
X56298000Y-30828000D01*
G75*
G02*
X56048000Y-31078000I-250000J0D01*
G01*
X55298000Y-31078000D01*
G75*
G02*
X55048000Y-30828000I0J250000D01*
G01*
X55048000Y-30078000D01*
G75*
G02*
X55298000Y-29828000I250000J0D01*
G01*
X56048000Y-29828000D01*
G75*
G02*
X56298000Y-30078000I0J-250000D01*
G01*
G37*
X53973000Y-58393000D03*
G36*
G01*
X56298000Y-58018000D02*
X56298000Y-58768000D01*
G75*
G02*
X56048000Y-59018000I-250000J0D01*
G01*
X55298000Y-59018000D01*
G75*
G02*
X55048000Y-58768000I0J250000D01*
G01*
X55048000Y-58018000D01*
G75*
G02*
X55298000Y-57768000I250000J0D01*
G01*
X56048000Y-57768000D01*
G75*
G02*
X56298000Y-58018000I0J-250000D01*
G01*
G37*
G36*
G01*
X72898000Y-30078000D02*
X72898000Y-30828000D01*
G75*
G02*
X72648000Y-31078000I-250000J0D01*
G01*
X71898000Y-31078000D01*
G75*
G02*
X71648000Y-30828000I0J250000D01*
G01*
X71648000Y-30078000D01*
G75*
G02*
X71898000Y-29828000I250000J0D01*
G01*
X72648000Y-29828000D01*
G75*
G02*
X72898000Y-30078000I0J-250000D01*
G01*
G37*
X73973000Y-30453000D03*
G36*
G01*
X72898000Y-47858000D02*
X72898000Y-48608000D01*
G75*
G02*
X72648000Y-48858000I-250000J0D01*
G01*
X71898000Y-48858000D01*
G75*
G02*
X71648000Y-48608000I0J250000D01*
G01*
X71648000Y-47858000D01*
G75*
G02*
X71898000Y-47608000I250000J0D01*
G01*
X72648000Y-47608000D01*
G75*
G02*
X72898000Y-47858000I0J-250000D01*
G01*
G37*
X73973000Y-48233000D03*
G36*
G01*
X72898000Y-50398000D02*
X72898000Y-51148000D01*
G75*
G02*
X72648000Y-51398000I-250000J0D01*
G01*
X71898000Y-51398000D01*
G75*
G02*
X71648000Y-51148000I0J250000D01*
G01*
X71648000Y-50398000D01*
G75*
G02*
X71898000Y-50148000I250000J0D01*
G01*
X72648000Y-50148000D01*
G75*
G02*
X72898000Y-50398000I0J-250000D01*
G01*
G37*
X73973000Y-50773000D03*
G36*
G01*
X72898000Y-52938000D02*
X72898000Y-53688000D01*
G75*
G02*
X72648000Y-53938000I-250000J0D01*
G01*
X71898000Y-53938000D01*
G75*
G02*
X71648000Y-53688000I0J250000D01*
G01*
X71648000Y-52938000D01*
G75*
G02*
X71898000Y-52688000I250000J0D01*
G01*
X72648000Y-52688000D01*
G75*
G02*
X72898000Y-52938000I0J-250000D01*
G01*
G37*
X73973000Y-53313000D03*
G36*
G01*
X72898000Y-55478000D02*
X72898000Y-56228000D01*
G75*
G02*
X72648000Y-56478000I-250000J0D01*
G01*
X71898000Y-56478000D01*
G75*
G02*
X71648000Y-56228000I0J250000D01*
G01*
X71648000Y-55478000D01*
G75*
G02*
X71898000Y-55228000I250000J0D01*
G01*
X72648000Y-55228000D01*
G75*
G02*
X72898000Y-55478000I0J-250000D01*
G01*
G37*
X73973000Y-55853000D03*
G36*
G01*
X72898000Y-58018000D02*
X72898000Y-58768000D01*
G75*
G02*
X72648000Y-59018000I-250000J0D01*
G01*
X71898000Y-59018000D01*
G75*
G02*
X71648000Y-58768000I0J250000D01*
G01*
X71648000Y-58018000D01*
G75*
G02*
X71898000Y-57768000I250000J0D01*
G01*
X72648000Y-57768000D01*
G75*
G02*
X72898000Y-58018000I0J-250000D01*
G01*
G37*
X73973000Y-58393000D03*
D12*
X59420000Y-40674000D03*
X68020000Y-40674000D03*
X62820000Y-40674000D03*
D13*
X68920000Y-33374000D03*
X59020000Y-33374000D03*
M02*
