M48
; DRILL file {KiCad 9.0.1+1} date 2025-11-12T15:35:06+0000
; FORMAT={-:-/ absolute / inch / decimal}
; #@! TF.CreationDate,2025-11-12T15:35:06+00:00
; #@! TF.GenerationSoftware,Kicad,Pcbnew,9.0.1+1
; #@! TF.FileFunction,Plated,1,2,PTH
FMAT,2
INCH
; #@! TA.AperFunction,Plated,PTH,ViaDrill
T1C0.0118
; #@! TA.AperFunction,Plated,PTH,ComponentDrill
T2C0.0295
; #@! TA.AperFunction,Plated,PTH,ComponentDrill
T3C0.0315
; #@! TA.AperFunction,Plated,PTH,ComponentDrill
T4C0.0320
; #@! TA.AperFunction,Plated,PTH,ComponentDrill
T5C0.0591
%
G90
G05
T1
X2.176Y-2.2031
X2.1791Y-2.0783
X2.1835Y-1.9374
X2.1866Y-1.7571
X2.3039Y-1.7602
X2.4059Y-1.9433
X2.4689Y-2.0858
X2.5815Y-2.2453
X2.676Y-1.9866
X2.7717Y-2.1374
X2.8256Y-1.7756
T2
X2.1919Y-1.1989
X2.1919Y-2.2989
X2.8454Y-1.1989
X2.8454Y-1.8989
X2.8454Y-1.9989
X2.8454Y-2.0989
X2.8454Y-2.1989
X2.8454Y-2.2989
T4
X2.4836Y-1.8889
X2.5624Y-1.8889
T3
G00X2.3236Y-1.3435
M15
G01X2.3236Y-1.2844
M16
G05
G00X2.3394Y-1.625
M15
G01X2.3394Y-1.5777
M16
G05
G00X2.4732Y-1.625
M15
G01X2.4732Y-1.5777
M16
G05
G00X2.678Y-1.625
M15
G01X2.678Y-1.5777
M16
G05
G00X2.7134Y-1.3435
M15
G01X2.7134Y-1.2844
M16
G05
T5
G00X2.1151Y-1.1989
M15
G01X2.1348Y-1.1989
M16
G05
G00X2.1151Y-2.2989
M15
G01X2.1348Y-2.2989
M16
G05
G00X2.9025Y-1.1989
M15
G01X2.9222Y-1.1989
M16
G05
G00X2.9025Y-1.8989
M15
G01X2.9222Y-1.8989
M16
G05
G00X2.9025Y-1.9989
M15
G01X2.9222Y-1.9989
M16
G05
G00X2.9025Y-2.0989
M15
G01X2.9222Y-2.0989
M16
G05
G00X2.9025Y-2.1989
M15
G01X2.9222Y-2.1989
M16
G05
G00X2.9025Y-2.2989
M15
G01X2.9222Y-2.2989
M16
G05
M30
