%TF.GenerationSoftware,KiCad,Pcbnew,9.0.1+dfsg-1*%
%TF.CreationDate,2025-05-01T11:03:34+02:00*%
%TF.ProjectId,mems-microphone,6d656d73-2d6d-4696-9372-6f70686f6e65,rev?*%
%TF.SameCoordinates,Original*%
%TF.FileFunction,Copper,L2,Bot*%
%TF.FilePolarity,Positive*%
%FSLAX46Y46*%
G04 Gerber Fmt 4.6, Leading zero omitted, Abs format (unit mm)*
G04 Created by KiCad (PCBNEW 9.0.1+dfsg-1) date 2025-05-01 11:03:34*
%MOMM*%
%LPD*%
G01*
G04 APERTURE LIST*
G04 Aperture macros list*
%AMRoundRect*
0 Rectangle with rounded corners*
0 $1 Rounding radius*
0 $2 $3 $4 $5 $6 $7 $8 $9 X,Y pos of 4 corners*
0 Add a 4 corners polygon primitive as box body*
4,1,4,$2,$3,$4,$5,$6,$7,$8,$9,$2,$3,0*
0 Add four circle primitives for the rounded corners*
1,1,$1+$1,$2,$3*
1,1,$1+$1,$4,$5*
1,1,$1+$1,$6,$7*
1,1,$1+$1,$8,$9*
0 Add four rect primitives between the rounded corners*
20,1,$1+$1,$2,$3,$4,$5,0*
20,1,$1+$1,$4,$5,$6,$7,0*
20,1,$1+$1,$6,$7,$8,$9,0*
20,1,$1+$1,$8,$9,$2,$3,0*%
G04 Aperture macros list end*
%TA.AperFunction,CastellatedPad*%
%ADD10R,2.540000X2.000000*%
%TD*%
%TA.AperFunction,ComponentPad*%
%ADD11RoundRect,0.250000X-0.375000X-0.375000X0.375000X-0.375000X0.375000X0.375000X-0.375000X0.375000X0*%
%TD*%
%TA.AperFunction,ViaPad*%
%ADD12C,0.600000*%
%TD*%
%TA.AperFunction,Conductor*%
%ADD13C,0.200000*%
%TD*%
G04 APERTURE END LIST*
D10*
%TO.P,M1,1,VCC*%
%TO.N,VCC*%
X66950000Y-42545000D03*
D11*
X65250000Y-42545000D03*
D10*
%TO.P,M1,4*%
%TO.N,LR_SELECT*%
X66950000Y-50165000D03*
D11*
X65250000Y-50165000D03*
D10*
%TO.P,M1,5,GND*%
%TO.N,GND*%
X66950000Y-52705000D03*
D11*
X65250000Y-52705000D03*
%TO.P,M1,6*%
%TO.N,CLOCK*%
X58650000Y-42545000D03*
D10*
X56950000Y-42545000D03*
D11*
%TO.P,M1,10*%
%TO.N,DATA*%
X58650000Y-52705000D03*
D10*
X56950000Y-52705000D03*
%TD*%
D12*
%TO.N,*%
X65820000Y-45990000D03*
%TO.N,GND*%
X64220000Y-44360000D03*
X58700000Y-45570000D03*
X57880000Y-51100000D03*
X58220000Y-44080000D03*
X65330000Y-44010000D03*
X65240000Y-48630000D03*
X64140000Y-51140000D03*
X60500000Y-43270000D03*
X63860000Y-47200000D03*
%TO.N,LR_SELECT*%
X58840000Y-46560000D03*
%TD*%
D13*
%TO.N,LR_SELECT*%
X64610000Y-49525000D02*
X64610000Y-46910000D01*
X65250000Y-50165000D02*
X64610000Y-49525000D01*
X64610000Y-46910000D02*
X64260000Y-46560000D01*
X67000000Y-50460000D02*
X66430800Y-50460000D01*
X64260000Y-46560000D02*
X58840000Y-46560000D01*
%TD*%
%TA.AperFunction,Conductor*%
%TO.N,GND*%
G36*
X64429445Y-41795185D02*
G01*
X64475200Y-41847989D01*
X64485144Y-41917147D01*
X64475024Y-41948259D01*
X64475276Y-41948348D01*
X64427353Y-42085298D01*
X64427353Y-42085300D01*
X64424500Y-42115730D01*
X64424500Y-42974269D01*
X64427353Y-43004699D01*
X64427353Y-43004701D01*
X64472206Y-43132880D01*
X64472207Y-43132882D01*
X64552850Y-43242150D01*
X64662118Y-43322793D01*
X64704845Y-43337744D01*
X64790299Y-43367646D01*
X64820730Y-43370500D01*
X64820734Y-43370500D01*
X65355500Y-43370500D01*
X65422539Y-43390185D01*
X65468294Y-43442989D01*
X65479500Y-43494500D01*
X65479500Y-43564752D01*
X65491131Y-43623229D01*
X65491132Y-43623230D01*
X65535447Y-43689552D01*
X65601769Y-43733867D01*
X65601770Y-43733868D01*
X65660247Y-43745499D01*
X65660250Y-43745500D01*
X65660252Y-43745500D01*
X66325500Y-43745500D01*
X66392539Y-43765185D01*
X66438294Y-43817989D01*
X66449500Y-43869500D01*
X66449500Y-45616551D01*
X66429815Y-45683590D01*
X66377011Y-45729345D01*
X66307853Y-45739289D01*
X66244297Y-45710264D01*
X66226306Y-45688476D01*
X66225448Y-45689135D01*
X66220502Y-45682689D01*
X66220500Y-45682686D01*
X66127314Y-45589500D01*
X66070250Y-45556554D01*
X66013187Y-45523608D01*
X65949539Y-45506554D01*
X65885892Y-45489500D01*
X65754108Y-45489500D01*
X65626812Y-45523608D01*
X65512686Y-45589500D01*
X65512683Y-45589502D01*
X65419502Y-45682683D01*
X65419500Y-45682686D01*
X65353608Y-45796812D01*
X65319500Y-45924108D01*
X65319500Y-46055891D01*
X65353608Y-46183187D01*
X65376699Y-46223181D01*
X65419500Y-46297314D01*
X65512686Y-46390500D01*
X65626814Y-46456392D01*
X65754108Y-46490500D01*
X65754110Y-46490500D01*
X65885890Y-46490500D01*
X65885892Y-46490500D01*
X66013186Y-46456392D01*
X66127314Y-46390500D01*
X66220500Y-46297314D01*
X66220504Y-46297306D01*
X66225448Y-46290865D01*
X66227534Y-46292466D01*
X66268674Y-46253235D01*
X66337280Y-46240009D01*
X66402147Y-46265973D01*
X66442678Y-46322885D01*
X66449500Y-46363448D01*
X66449500Y-48840500D01*
X66429815Y-48907539D01*
X66377011Y-48953294D01*
X66325500Y-48964500D01*
X65660247Y-48964500D01*
X65601770Y-48976131D01*
X65601769Y-48976132D01*
X65535447Y-49020447D01*
X65491132Y-49086769D01*
X65491131Y-49086770D01*
X65479500Y-49145247D01*
X65479500Y-49215500D01*
X65459815Y-49282539D01*
X65407011Y-49328294D01*
X65355500Y-49339500D01*
X65034500Y-49339500D01*
X64967461Y-49319815D01*
X64921706Y-49267011D01*
X64910500Y-49215500D01*
X64910500Y-46870440D01*
X64910499Y-46870436D01*
X64909662Y-46867313D01*
X64902350Y-46840021D01*
X64890022Y-46794012D01*
X64850460Y-46725489D01*
X64444511Y-46319540D01*
X64444510Y-46319539D01*
X64444507Y-46319537D01*
X64435065Y-46314086D01*
X64435064Y-46314086D01*
X64375991Y-46279980D01*
X64375990Y-46279979D01*
X64350513Y-46273152D01*
X64299562Y-46259500D01*
X64299560Y-46259500D01*
X59298676Y-46259500D01*
X59231637Y-46239815D01*
X59210995Y-46223181D01*
X59147316Y-46159502D01*
X59147314Y-46159500D01*
X59090250Y-46126554D01*
X59033187Y-46093608D01*
X58969539Y-46076554D01*
X58905892Y-46059500D01*
X58774108Y-46059500D01*
X58646812Y-46093608D01*
X58532686Y-46159500D01*
X58532683Y-46159502D01*
X58439502Y-46252683D01*
X58439500Y-46252686D01*
X58373608Y-46366812D01*
X58339500Y-46494108D01*
X58339500Y-46625891D01*
X58373608Y-46753187D01*
X58397178Y-46794010D01*
X58439500Y-46867314D01*
X58532686Y-46960500D01*
X58646814Y-47026392D01*
X58774108Y-47060500D01*
X58774110Y-47060500D01*
X58905890Y-47060500D01*
X58905892Y-47060500D01*
X59033186Y-47026392D01*
X59147314Y-46960500D01*
X59210995Y-46896819D01*
X59272318Y-46863334D01*
X59298676Y-46860500D01*
X64084167Y-46860500D01*
X64113607Y-46869144D01*
X64143594Y-46875668D01*
X64148609Y-46879422D01*
X64151206Y-46880185D01*
X64171848Y-46896819D01*
X64273181Y-46998152D01*
X64306666Y-47059475D01*
X64309500Y-47085833D01*
X64309500Y-49564562D01*
X64323152Y-49615513D01*
X64329979Y-49640990D01*
X64329980Y-49640991D01*
X64367109Y-49705301D01*
X64369540Y-49709511D01*
X64369542Y-49709514D01*
X64388179Y-49728150D01*
X64421666Y-49789472D01*
X64424500Y-49815833D01*
X64424500Y-50594269D01*
X64427353Y-50624699D01*
X64427353Y-50624701D01*
X64472206Y-50752880D01*
X64472207Y-50752882D01*
X64552850Y-50862150D01*
X64662118Y-50942793D01*
X64704845Y-50957744D01*
X64790299Y-50987646D01*
X64820730Y-50990500D01*
X64820734Y-50990500D01*
X65355500Y-50990500D01*
X65422539Y-51010185D01*
X65468294Y-51062989D01*
X65476451Y-51087169D01*
X65479500Y-51100662D01*
X65479500Y-51184748D01*
X65491133Y-51243231D01*
X65522232Y-51289773D01*
X65527302Y-51312209D01*
X65526711Y-51321511D01*
X65564886Y-51329816D01*
X65574341Y-51335540D01*
X65601769Y-51353867D01*
X65601771Y-51353867D01*
X65601772Y-51353868D01*
X65601770Y-51353868D01*
X65660247Y-51365499D01*
X65660250Y-51365500D01*
X65660252Y-51365500D01*
X65912690Y-51365500D01*
X65979729Y-51385185D01*
X66000371Y-51401819D01*
X66413181Y-51814629D01*
X66446666Y-51875952D01*
X66449500Y-51902310D01*
X66449500Y-51996966D01*
X66344742Y-52040359D01*
X66221903Y-52122437D01*
X66117894Y-52226445D01*
X65417778Y-51526329D01*
X65384293Y-51465006D01*
X65384661Y-51459858D01*
X65370053Y-51453500D01*
X65347800Y-51448846D01*
X65338630Y-51439822D01*
X65326834Y-51434688D01*
X65318670Y-51427221D01*
X65287041Y-51395592D01*
X65236647Y-51462910D01*
X65223061Y-51499335D01*
X65181189Y-51555268D01*
X65115724Y-51579684D01*
X65106880Y-51580000D01*
X64825029Y-51580000D01*
X64825012Y-51580001D01*
X64722302Y-51590494D01*
X64555878Y-51645642D01*
X64555873Y-51645644D01*
X64548651Y-51650098D01*
X64548650Y-51650099D01*
X65228551Y-52330000D01*
X65200630Y-52330000D01*
X65105255Y-52355556D01*
X65019745Y-52404925D01*
X64949925Y-52474745D01*
X64900556Y-52560255D01*
X64875000Y-52655630D01*
X64875000Y-52683551D01*
X64195099Y-52003650D01*
X64195098Y-52003651D01*
X64190644Y-52010873D01*
X64190642Y-52010877D01*
X64135494Y-52177302D01*
X64135493Y-52177309D01*
X64125000Y-52280013D01*
X64125000Y-53129971D01*
X64125001Y-53129987D01*
X64135493Y-53232695D01*
X64161606Y-53311495D01*
X64164008Y-53381324D01*
X64128277Y-53441366D01*
X64065756Y-53472559D01*
X64043900Y-53474500D01*
X59537594Y-53474500D01*
X59470555Y-53454815D01*
X59424800Y-53402011D01*
X59414856Y-53332853D01*
X59424975Y-53301740D01*
X59424724Y-53301652D01*
X59472646Y-53164701D01*
X59472646Y-53164699D01*
X59475500Y-53134269D01*
X59475500Y-52275730D01*
X59472646Y-52245300D01*
X59472646Y-52245298D01*
X59427793Y-52117119D01*
X59427792Y-52117117D01*
X59347150Y-52007850D01*
X59237882Y-51927207D01*
X59237880Y-51927206D01*
X59109700Y-51882353D01*
X59079270Y-51879500D01*
X59079266Y-51879500D01*
X58544500Y-51879500D01*
X58477461Y-51859815D01*
X58431706Y-51807011D01*
X58420500Y-51755500D01*
X58420500Y-51685249D01*
X58420499Y-51685247D01*
X58408868Y-51626770D01*
X58408867Y-51626769D01*
X58364552Y-51560447D01*
X58298230Y-51516132D01*
X58298229Y-51516131D01*
X58239752Y-51504500D01*
X58239748Y-51504500D01*
X57574500Y-51504500D01*
X57507461Y-51484815D01*
X57461706Y-51432011D01*
X57450500Y-51380500D01*
X57450500Y-47796608D01*
X62132000Y-47796608D01*
X62132000Y-47928391D01*
X62166108Y-48055687D01*
X62199054Y-48112750D01*
X62232000Y-48169814D01*
X62325186Y-48263000D01*
X62439314Y-48328892D01*
X62566608Y-48363000D01*
X62566610Y-48363000D01*
X62698390Y-48363000D01*
X62698392Y-48363000D01*
X62825686Y-48328892D01*
X62939814Y-48263000D01*
X63033000Y-48169814D01*
X63098892Y-48055686D01*
X63133000Y-47928392D01*
X63133000Y-47796608D01*
X63098892Y-47669314D01*
X63033000Y-47555186D01*
X62939814Y-47462000D01*
X62882750Y-47429054D01*
X62825687Y-47396108D01*
X62762039Y-47379054D01*
X62698392Y-47362000D01*
X62566608Y-47362000D01*
X62439312Y-47396108D01*
X62325186Y-47462000D01*
X62325183Y-47462002D01*
X62232002Y-47555183D01*
X62232000Y-47555186D01*
X62166108Y-47669312D01*
X62132000Y-47796608D01*
X57450500Y-47796608D01*
X57450500Y-43869500D01*
X57470185Y-43802461D01*
X57522989Y-43756706D01*
X57574500Y-43745500D01*
X58239750Y-43745500D01*
X58239751Y-43745499D01*
X58254568Y-43742552D01*
X58298229Y-43733868D01*
X58298229Y-43733867D01*
X58298231Y-43733867D01*
X58364552Y-43689552D01*
X58408867Y-43623231D01*
X58408867Y-43623229D01*
X58408868Y-43623229D01*
X58420499Y-43564752D01*
X58420500Y-43564750D01*
X58420500Y-43494500D01*
X58440185Y-43427461D01*
X58492989Y-43381706D01*
X58544500Y-43370500D01*
X59079270Y-43370500D01*
X59109699Y-43367646D01*
X59109701Y-43367646D01*
X59173790Y-43345219D01*
X59237882Y-43322793D01*
X59347150Y-43242150D01*
X59427793Y-43132882D01*
X59450219Y-43068790D01*
X59472646Y-43004701D01*
X59472646Y-43004699D01*
X59475500Y-42974269D01*
X59475500Y-42115730D01*
X59472646Y-42085300D01*
X59472646Y-42085298D01*
X59424724Y-41948348D01*
X59426020Y-41947894D01*
X59414042Y-41888966D01*
X59439351Y-41823841D01*
X59495851Y-41782737D01*
X59537594Y-41775500D01*
X64362406Y-41775500D01*
X64429445Y-41795185D01*
G37*
%TD.AperFunction*%
%TD*%
M02*
