M48
; DRILL file {KiCad 9.0.1+dfsg-1} date 2025-05-01T11:03:37+0200
; FORMAT={-:-/ absolute / metric / decimal}
; #@! TF.CreationDate,2025-05-01T11:03:37+02:00
; #@! TF.GenerationSoftware,Kicad,Pcbnew,9.0.1+dfsg-1
; #@! TF.FileFunction,Plated,1,2,PTH
FMAT,2
METRIC
; #@! TA.AperFunction,Plated,PTH,ViaDrill
T1C0.300
; #@! TA.AperFunction,Plated,PTH,ComponentDrill
T2C0.750
; #@! TA.AperFunction,Plated,PTH,ComponentDrill
T3C1.500
%
G90
G05
T1
X57.88Y-51.1
X58.22Y-44.08
X58.7Y-45.57
X58.84Y-46.56
X60.5Y-43.27
X63.86Y-47.2
X64.14Y-51.14
X64.22Y-44.36
X65.24Y-48.63
X65.33Y-44.01
X65.82Y-45.99
T2
X58.65Y-42.545
X58.65Y-52.705
X65.25Y-42.545
X65.25Y-50.165
X65.25Y-52.705
T3
G00X57.2Y-42.545
M15
G01X56.7Y-42.545
M16
G05
G00X57.2Y-52.705
M15
G01X56.7Y-52.705
M16
G05
G00X67.2Y-42.545
M15
G01X66.7Y-42.545
M16
G05
G00X67.2Y-50.165
M15
G01X66.7Y-50.165
M16
G05
G00X67.2Y-52.705
M15
G01X66.7Y-52.705
M16
G05
M30
