%TF.GenerationSoftware,KiCad,Pcbnew,9.0.1+dfsg-1*%
%TF.CreationDate,2025-05-01T11:03:34+02:00*%
%TF.ProjectId,mems-microphone,6d656d73-2d6d-4696-9372-6f70686f6e65,rev?*%
%TF.SameCoordinates,Original*%
%TF.FileFunction,Copper,L1,Top*%
%TF.FilePolarity,Positive*%
%FSLAX46Y46*%
G04 Gerber Fmt 4.6, Leading zero omitted, Abs format (unit mm)*
G04 Created by KiCad (PCBNEW 9.0.1+dfsg-1) date 2025-05-01 11:03:34*
%MOMM*%
%LPD*%
G01*
G04 APERTURE LIST*
G04 Aperture macros list*
%AMRoundRect*
0 Rectangle with rounded corners*
0 $1 Rounding radius*
0 $2 $3 $4 $5 $6 $7 $8 $9 X,Y pos of 4 corners*
0 Add a 4 corners polygon primitive as box body*
4,1,4,$2,$3,$4,$5,$6,$7,$8,$9,$2,$3,0*
0 Add four circle primitives for the rounded corners*
1,1,$1+$1,$2,$3*
1,1,$1+$1,$4,$5*
1,1,$1+$1,$6,$7*
1,1,$1+$1,$8,$9*
0 Add four rect primitives between the rounded corners*
20,1,$1+$1,$2,$3,$4,$5,0*
20,1,$1+$1,$4,$5,$6,$7,0*
20,1,$1+$1,$6,$7,$8,$9,0*
20,1,$1+$1,$8,$9,$2,$3,0*%
%AMFreePoly0*
4,1,64,0.235856,1.440014,0.383010,1.379061,0.515445,1.290571,0.628071,1.177945,0.716561,1.045510,0.777514,0.898356,0.808588,0.742139,0.808588,0.582861,0.777514,0.426644,0.716561,0.279490,0.628071,0.147055,0.515445,0.034429,0.383010,-0.054061,0.235856,-0.115014,0.079639,-0.146088,0.031751,-0.146088,0.029264,-0.147118,-0.029264,-0.147118,-0.031751,-0.146088,-0.079639,-0.146088,
-0.235856,-0.115014,-0.383010,-0.054061,-0.515445,0.034429,-0.628071,0.147055,-0.716561,0.279490,-0.777514,0.426644,-0.808588,0.582861,-0.808588,0.729972,-0.512500,0.729972,-0.512500,0.595028,-0.477574,0.464683,-0.410102,0.347818,-0.314682,0.252398,-0.197817,0.184926,-0.067472,0.150000,0.067472,0.150000,0.197817,0.184926,0.314682,0.252398,0.410102,0.347818,0.477574,0.464683,
0.512500,0.595028,0.512500,0.729972,0.477574,0.860317,0.410102,0.977182,0.314682,1.072602,0.197817,1.140074,0.067472,1.175000,-0.067472,1.175000,-0.197817,1.140074,-0.314682,1.072602,-0.410102,0.977182,-0.477574,0.860317,-0.512500,0.729972,-0.808588,0.729972,-0.808588,0.742139,-0.777514,0.898356,-0.716561,1.045510,-0.628071,1.177945,-0.515445,1.290571,-0.383010,1.379061,
-0.235856,1.440014,-0.079639,1.471088,0.079639,1.471088,0.235856,1.440014,0.235856,1.440014,$1*%
G04 Aperture macros list end*
%TA.AperFunction,SMDPad,CuDef*%
%ADD10R,0.725000X0.522000*%
%TD*%
%TA.AperFunction,SMDPad,CuDef*%
%ADD11FreePoly0,180.000000*%
%TD*%
%TA.AperFunction,SMDPad,CuDef*%
%ADD12RoundRect,0.200000X0.275000X-0.200000X0.275000X0.200000X-0.275000X0.200000X-0.275000X-0.200000X0*%
%TD*%
%TA.AperFunction,SMDPad,CuDef*%
%ADD13RoundRect,0.200000X-0.200000X-0.275000X0.200000X-0.275000X0.200000X0.275000X-0.200000X0.275000X0*%
%TD*%
%TA.AperFunction,SMDPad,CuDef*%
%ADD14RoundRect,0.250000X-0.325000X-0.650000X0.325000X-0.650000X0.325000X0.650000X-0.325000X0.650000X0*%
%TD*%
%TA.AperFunction,SMDPad,CuDef*%
%ADD15RoundRect,0.200000X0.200000X0.275000X-0.200000X0.275000X-0.200000X-0.275000X0.200000X-0.275000X0*%
%TD*%
%TA.AperFunction,CastellatedPad*%
%ADD16R,2.540000X2.000000*%
%TD*%
%TA.AperFunction,ComponentPad*%
%ADD17RoundRect,0.250000X-0.375000X-0.375000X0.375000X-0.375000X0.375000X0.375000X-0.375000X0.375000X0*%
%TD*%
%TA.AperFunction,ViaPad*%
%ADD18C,0.600000*%
%TD*%
%TA.AperFunction,Conductor*%
%ADD19C,0.200000*%
%TD*%
%TA.AperFunction,Conductor*%
%ADD20C,0.500000*%
%TD*%
G04 APERTURE END LIST*
D10*
%TO.P,MK1,1,DATA*%
%TO.N,Net-(MK1-DATA)*%
X63470000Y-49936500D03*
%TO.P,MK1,2,SEL*%
%TO.N,LR_SELECT*%
X63470000Y-49114500D03*
D11*
%TO.P,MK1,3,GND*%
%TO.N,GND*%
X62632500Y-47200000D03*
D10*
%TO.P,MK1,4,CLOCK*%
%TO.N,Net-(MK1-CLOCK)*%
X61795000Y-49114500D03*
%TO.P,MK1,5,VDD*%
%TO.N,VCC*%
X61795000Y-49936500D03*
%TD*%
D12*
%TO.P,R3,1*%
%TO.N,LR_SELECT*%
X59650000Y-46545000D03*
%TO.P,R3,2*%
%TO.N,VCC*%
X59650000Y-44895000D03*
%TD*%
D13*
%TO.P,R1,1*%
%TO.N,DATA*%
X58325000Y-49560000D03*
%TO.P,R1,2*%
%TO.N,Net-(MK1-DATA)*%
X59975000Y-49560000D03*
%TD*%
D14*
%TO.P,C1,1*%
%TO.N,VCC*%
X61275000Y-45380000D03*
%TO.P,C1,2*%
%TO.N,GND*%
X64225000Y-45380000D03*
%TD*%
D15*
%TO.P,R2,1*%
%TO.N,Net-(MK1-CLOCK)*%
X59985000Y-48010000D03*
%TO.P,R2,2*%
%TO.N,CLOCK*%
X58335000Y-48010000D03*
%TD*%
D16*
%TO.P,M1,1,VCC*%
%TO.N,VCC*%
X66950000Y-42545000D03*
D17*
X65250000Y-42545000D03*
D16*
%TO.P,M1,4*%
%TO.N,LR_SELECT*%
X66950000Y-50165000D03*
D17*
X65250000Y-50165000D03*
D16*
%TO.P,M1,5,GND*%
%TO.N,GND*%
X66950000Y-52705000D03*
D17*
X65250000Y-52705000D03*
%TO.P,M1,6*%
%TO.N,CLOCK*%
X58650000Y-42545000D03*
D16*
X56950000Y-42545000D03*
D17*
%TO.P,M1,10*%
%TO.N,DATA*%
X58650000Y-52705000D03*
D16*
X56950000Y-52705000D03*
%TD*%
D18*
%TO.N,*%
X65820000Y-45990000D03*
%TO.N,GND*%
X64220000Y-44360000D03*
X58700000Y-45570000D03*
X57880000Y-51100000D03*
X58220000Y-44080000D03*
X65330000Y-44010000D03*
X65240000Y-48630000D03*
X64140000Y-51140000D03*
X60500000Y-43270000D03*
X63860000Y-47200000D03*
%TO.N,LR_SELECT*%
X58840000Y-46560000D03*
%TD*%
D19*
%TO.N,DATA*%
X58325000Y-49560000D02*
X58325000Y-50295000D01*
X59630000Y-52090000D02*
X59015000Y-52705000D01*
X58325000Y-50295000D02*
X59630000Y-51600000D01*
X59015000Y-52705000D02*
X58650000Y-52705000D01*
X59630000Y-51600000D02*
X59630000Y-52090000D01*
D20*
%TO.N,VCC*%
X65250000Y-42545000D02*
X65095000Y-42545000D01*
D19*
X61100000Y-49620000D02*
X61100000Y-45555000D01*
D20*
X60790000Y-44895000D02*
X61275000Y-45380000D01*
X61275000Y-43945000D02*
X61275000Y-45380000D01*
D19*
X61100000Y-45555000D02*
X61275000Y-45380000D01*
X61416500Y-49936500D02*
X61100000Y-49620000D01*
D20*
X59650000Y-44895000D02*
X60790000Y-44895000D01*
D19*
X61795000Y-49936500D02*
X61416500Y-49936500D01*
D20*
X65095000Y-42545000D02*
X64250000Y-43390000D01*
X61830000Y-43390000D02*
X61275000Y-43945000D01*
X64250000Y-43390000D02*
X61830000Y-43390000D01*
%TO.N,GND*%
X64225000Y-45380000D02*
X64225000Y-44365000D01*
X64225000Y-44365000D02*
X64220000Y-44360000D01*
D19*
X62632500Y-47200000D02*
X63860000Y-47200000D01*
%TO.N,LR_SELECT*%
X66115000Y-49575000D02*
X67000000Y-50460000D01*
X64199500Y-49114500D02*
X65250000Y-50165000D01*
X58840000Y-46560000D02*
X58960000Y-46680000D01*
X59170000Y-46680000D02*
X59300000Y-46550000D01*
X58960000Y-46680000D02*
X59170000Y-46680000D01*
X63470000Y-49114500D02*
X64199500Y-49114500D01*
X59645000Y-46550000D02*
X59650000Y-46545000D01*
X67000000Y-50460000D02*
X66670000Y-50460000D01*
X59300000Y-46550000D02*
X59645000Y-46550000D01*
%TO.N,CLOCK*%
X58650000Y-42545000D02*
X59305000Y-42545000D01*
X59760000Y-43000000D02*
X59760000Y-43510000D01*
X58080000Y-47755000D02*
X58335000Y-48010000D01*
X59760000Y-43510000D02*
X58080000Y-45190000D01*
X59305000Y-42545000D02*
X59760000Y-43000000D01*
X58080000Y-45190000D02*
X58080000Y-47755000D01*
%TO.N,Net-(MK1-CLOCK)*%
X62280000Y-50970000D02*
X61480000Y-50970000D01*
X62204500Y-49114500D02*
X62630000Y-49540000D01*
X61795000Y-49114500D02*
X62204500Y-49114500D01*
X62630000Y-50620000D02*
X62280000Y-50970000D01*
X60675000Y-48700000D02*
X59985000Y-48010000D01*
X61480000Y-50970000D02*
X60675000Y-50165000D01*
X60675000Y-50165000D02*
X60675000Y-48700000D01*
X62630000Y-49540000D02*
X62630000Y-50620000D01*
%TO.N,Net-(MK1-DATA)*%
X62445685Y-51370000D02*
X63470000Y-50345685D01*
X59975000Y-49560000D02*
X59975000Y-50125000D01*
X61220000Y-51370000D02*
X62445685Y-51370000D01*
X63470000Y-50345685D02*
X63470000Y-49936500D01*
X59975000Y-50125000D02*
X61220000Y-51370000D01*
%TD*%
%TA.AperFunction,Conductor*%
%TO.N,GND*%
G36*
X58566500Y-46980022D02*
G01*
X58572258Y-46983347D01*
X58646808Y-47026389D01*
X58646809Y-47026389D01*
X58646814Y-47026392D01*
X58774108Y-47060500D01*
X58774110Y-47060500D01*
X58905889Y-47060500D01*
X58905892Y-47060500D01*
X59008844Y-47032914D01*
X59078690Y-47034577D01*
X59128615Y-47065008D01*
X59136652Y-47073045D01*
X59136654Y-47073046D01*
X59136658Y-47073050D01*
X59249696Y-47130646D01*
X59249698Y-47130647D01*
X59343475Y-47145499D01*
X59343481Y-47145500D01*
X59543287Y-47145499D01*
X59610325Y-47165183D01*
X59656080Y-47217987D01*
X59666024Y-47287145D01*
X59636999Y-47350701D01*
X59599582Y-47379983D01*
X59546659Y-47406949D01*
X59546652Y-47406954D01*
X59456954Y-47496652D01*
X59456951Y-47496657D01*
X59399352Y-47609698D01*
X59384500Y-47703475D01*
X59384500Y-48316517D01*
X59391585Y-48361250D01*
X59399354Y-48410304D01*
X59456950Y-48523342D01*
X59456952Y-48523344D01*
X59456954Y-48523347D01*
X59546652Y-48613045D01*
X59546656Y-48613048D01*
X59546658Y-48613050D01*
X59659696Y-48670646D01*
X59659698Y-48670646D01*
X59663152Y-48672406D01*
X59713948Y-48720381D01*
X59730743Y-48788202D01*
X59708206Y-48854336D01*
X59658019Y-48894192D01*
X59658392Y-48894924D01*
X59654779Y-48896764D01*
X59653491Y-48897788D01*
X59650953Y-48898714D01*
X59649697Y-48899353D01*
X59649696Y-48899354D01*
X59536658Y-48956950D01*
X59536657Y-48956951D01*
X59536652Y-48956954D01*
X59446954Y-49046652D01*
X59446951Y-49046657D01*
X59389352Y-49159698D01*
X59374500Y-49253475D01*
X59374500Y-49866517D01*
X59385292Y-49934657D01*
X59389354Y-49960304D01*
X59446950Y-50073342D01*
X59446952Y-50073344D01*
X59446954Y-50073347D01*
X59536652Y-50163045D01*
X59536654Y-50163046D01*
X59536658Y-50163050D01*
X59649696Y-50220646D01*
X59649698Y-50220646D01*
X59658392Y-50225076D01*
X59657278Y-50227260D01*
X59668456Y-50234904D01*
X59692947Y-50247526D01*
X59699970Y-50256455D01*
X59703386Y-50258791D01*
X59714768Y-50275266D01*
X59714771Y-50275272D01*
X59714773Y-50275274D01*
X59718069Y-50280982D01*
X59718068Y-50280982D01*
X59718071Y-50280986D01*
X59718073Y-50280989D01*
X59734540Y-50309511D01*
X60979540Y-51554511D01*
X61035489Y-51610460D01*
X61035491Y-51610461D01*
X61035495Y-51610464D01*
X61096426Y-51645642D01*
X61104011Y-51650021D01*
X61180438Y-51670500D01*
X61180440Y-51670500D01*
X62485245Y-51670500D01*
X62485247Y-51670500D01*
X62561674Y-51650021D01*
X62630196Y-51610460D01*
X62686145Y-51554511D01*
X63710460Y-50530196D01*
X63728146Y-50499562D01*
X63730475Y-50495529D01*
X63739721Y-50479513D01*
X63750021Y-50461674D01*
X63750021Y-50461671D01*
X63750988Y-50459998D01*
X63801554Y-50411782D01*
X63846229Y-50398592D01*
X63852239Y-50398000D01*
X63852248Y-50398000D01*
X63852257Y-50397998D01*
X63852259Y-50397998D01*
X63910729Y-50386368D01*
X63910729Y-50386367D01*
X63910731Y-50386367D01*
X63977052Y-50342052D01*
X64021367Y-50275731D01*
X64021367Y-50275729D01*
X64021368Y-50275729D01*
X64032999Y-50217252D01*
X64033000Y-50217250D01*
X64033000Y-49672333D01*
X64039238Y-49651087D01*
X64040818Y-49628999D01*
X64048890Y-49618215D01*
X64052685Y-49605294D01*
X64069418Y-49590794D01*
X64082690Y-49573066D01*
X64095310Y-49568358D01*
X64105489Y-49559539D01*
X64127406Y-49556387D01*
X64148154Y-49548649D01*
X64161314Y-49551511D01*
X64174647Y-49549595D01*
X64194790Y-49558794D01*
X64216427Y-49563501D01*
X64234152Y-49576769D01*
X64238203Y-49578620D01*
X64244681Y-49584652D01*
X64388181Y-49728152D01*
X64421666Y-49789475D01*
X64424500Y-49815833D01*
X64424500Y-50594269D01*
X64427353Y-50624699D01*
X64427353Y-50624701D01*
X64472206Y-50752880D01*
X64472207Y-50752882D01*
X64552850Y-50862150D01*
X64662118Y-50942793D01*
X64704845Y-50957744D01*
X64790299Y-50987646D01*
X64820730Y-50990500D01*
X64820734Y-50990500D01*
X65355500Y-50990500D01*
X65422539Y-51010185D01*
X65468294Y-51062989D01*
X65476451Y-51087169D01*
X65479500Y-51100662D01*
X65479500Y-51184748D01*
X65491133Y-51243231D01*
X65522232Y-51289773D01*
X65527302Y-51312209D01*
X65526711Y-51321511D01*
X65564886Y-51329816D01*
X65574341Y-51335540D01*
X65601769Y-51353867D01*
X65601771Y-51353867D01*
X65601772Y-51353868D01*
X65601770Y-51353868D01*
X65660247Y-51365499D01*
X65660250Y-51365500D01*
X65660252Y-51365500D01*
X65912690Y-51365500D01*
X65979729Y-51385185D01*
X66000371Y-51401819D01*
X66413181Y-51814629D01*
X66446666Y-51875952D01*
X66449500Y-51902310D01*
X66449500Y-51996966D01*
X66344742Y-52040359D01*
X66221903Y-52122437D01*
X66117894Y-52226445D01*
X65417778Y-51526329D01*
X65384293Y-51465006D01*
X65384661Y-51459858D01*
X65370053Y-51453500D01*
X65347800Y-51448846D01*
X65338630Y-51439822D01*
X65326834Y-51434688D01*
X65318670Y-51427221D01*
X65287041Y-51395592D01*
X65236647Y-51462910D01*
X65223061Y-51499335D01*
X65181189Y-51555268D01*
X65115724Y-51579684D01*
X65106880Y-51580000D01*
X64825029Y-51580000D01*
X64825012Y-51580001D01*
X64722302Y-51590494D01*
X64555878Y-51645642D01*
X64555873Y-51645644D01*
X64548651Y-51650098D01*
X64548650Y-51650099D01*
X65228551Y-52330000D01*
X65200630Y-52330000D01*
X65105255Y-52355556D01*
X65019745Y-52404925D01*
X64949925Y-52474745D01*
X64900556Y-52560255D01*
X64875000Y-52655630D01*
X64875000Y-52683551D01*
X64195099Y-52003650D01*
X64195098Y-52003651D01*
X64190644Y-52010873D01*
X64190642Y-52010877D01*
X64135494Y-52177302D01*
X64135493Y-52177309D01*
X64125000Y-52280013D01*
X64125000Y-53129971D01*
X64125001Y-53129987D01*
X64135493Y-53232695D01*
X64161606Y-53311495D01*
X64164008Y-53381324D01*
X64128277Y-53441366D01*
X64065756Y-53472559D01*
X64043900Y-53474500D01*
X59537594Y-53474500D01*
X59470555Y-53454815D01*
X59424800Y-53402011D01*
X59414856Y-53332853D01*
X59424975Y-53301740D01*
X59424724Y-53301652D01*
X59472646Y-53164701D01*
X59472646Y-53164699D01*
X59475500Y-53134269D01*
X59475500Y-52720833D01*
X59495185Y-52653794D01*
X59511819Y-52633152D01*
X59670226Y-52474745D01*
X59870460Y-52274511D01*
X59902427Y-52219142D01*
X59910021Y-52205989D01*
X59930500Y-52129562D01*
X59930500Y-51560438D01*
X59928912Y-51554511D01*
X59910022Y-51484012D01*
X59870460Y-51415489D01*
X58778362Y-50323391D01*
X58744877Y-50262068D01*
X58749861Y-50192376D01*
X58778361Y-50148030D01*
X58853050Y-50073342D01*
X58910646Y-49960304D01*
X58910646Y-49960302D01*
X58910647Y-49960301D01*
X58925499Y-49866524D01*
X58925500Y-49866519D01*
X58925499Y-49253482D01*
X58910646Y-49159696D01*
X58853050Y-49046658D01*
X58853046Y-49046654D01*
X58853045Y-49046652D01*
X58763347Y-48956954D01*
X58763344Y-48956952D01*
X58763342Y-48956950D01*
X58650304Y-48899354D01*
X58650302Y-48899353D01*
X58646847Y-48897593D01*
X58596051Y-48849618D01*
X58579256Y-48781797D01*
X58601794Y-48715662D01*
X58651980Y-48675807D01*
X58651608Y-48675076D01*
X58655216Y-48673237D01*
X58656509Y-48672211D01*
X58659052Y-48671282D01*
X58660298Y-48670646D01*
X58660304Y-48670646D01*
X58773342Y-48613050D01*
X58863050Y-48523342D01*
X58920646Y-48410304D01*
X58920646Y-48410302D01*
X58920647Y-48410301D01*
X58935499Y-48316524D01*
X58935500Y-48316519D01*
X58935499Y-47703482D01*
X58920646Y-47609696D01*
X58863050Y-47496658D01*
X58863046Y-47496654D01*
X58863045Y-47496652D01*
X58773347Y-47406954D01*
X58773344Y-47406952D01*
X58773342Y-47406950D01*
X58662948Y-47350701D01*
X58660301Y-47349352D01*
X58566524Y-47334500D01*
X58566519Y-47334500D01*
X58504500Y-47334500D01*
X58495814Y-47331949D01*
X58486853Y-47333238D01*
X58462812Y-47322259D01*
X58437461Y-47314815D01*
X58431533Y-47307974D01*
X58423297Y-47304213D01*
X58409007Y-47281978D01*
X58391706Y-47262011D01*
X58389418Y-47251496D01*
X58385523Y-47245435D01*
X58380500Y-47210500D01*
X58380500Y-47087409D01*
X58400185Y-47020370D01*
X58452989Y-46974615D01*
X58522147Y-46964671D01*
X58566500Y-46980022D01*
G37*
%TD.AperFunction*%
%TA.AperFunction,Conductor*%
G36*
X59292905Y-43380335D02*
G01*
X59325133Y-43442328D01*
X59318729Y-43511904D01*
X59291136Y-43553892D01*
X57895489Y-44949540D01*
X57839541Y-45005487D01*
X57839535Y-45005495D01*
X57799982Y-45074004D01*
X57799979Y-45074009D01*
X57786326Y-45124962D01*
X57784977Y-45130000D01*
X57779500Y-45150439D01*
X57779500Y-47520761D01*
X57765986Y-47577054D01*
X57749352Y-47609699D01*
X57734500Y-47703475D01*
X57734500Y-48316517D01*
X57741585Y-48361250D01*
X57749354Y-48410304D01*
X57806950Y-48523342D01*
X57806952Y-48523344D01*
X57806954Y-48523347D01*
X57896652Y-48613045D01*
X57896656Y-48613048D01*
X57896658Y-48613050D01*
X58009696Y-48670646D01*
X58009698Y-48670646D01*
X58013152Y-48672406D01*
X58063948Y-48720381D01*
X58080743Y-48788202D01*
X58058206Y-48854336D01*
X58008019Y-48894192D01*
X58008392Y-48894924D01*
X58004779Y-48896764D01*
X58003491Y-48897788D01*
X58000953Y-48898714D01*
X57999697Y-48899353D01*
X57999696Y-48899354D01*
X57886658Y-48956950D01*
X57886657Y-48956951D01*
X57886652Y-48956954D01*
X57796954Y-49046652D01*
X57796951Y-49046657D01*
X57739352Y-49159698D01*
X57724500Y-49253475D01*
X57724500Y-49866517D01*
X57735292Y-49934657D01*
X57739354Y-49960304D01*
X57796950Y-50073342D01*
X57796952Y-50073344D01*
X57796954Y-50073347D01*
X57886652Y-50163045D01*
X57886654Y-50163046D01*
X57886658Y-50163050D01*
X57956796Y-50198787D01*
X58007591Y-50246761D01*
X58024500Y-50309271D01*
X58024500Y-50334562D01*
X58038152Y-50385513D01*
X58044979Y-50410990D01*
X58044980Y-50410991D01*
X58071448Y-50456835D01*
X58084540Y-50479511D01*
X58084542Y-50479513D01*
X59293181Y-51688152D01*
X59307884Y-51715079D01*
X59324477Y-51740898D01*
X59325368Y-51747098D01*
X59326666Y-51749475D01*
X59329500Y-51775833D01*
X59329500Y-51784503D01*
X59309815Y-51851542D01*
X59257011Y-51897297D01*
X59187853Y-51907241D01*
X59164546Y-51901545D01*
X59109697Y-51882353D01*
X59109699Y-51882353D01*
X59079270Y-51879500D01*
X59079266Y-51879500D01*
X58544500Y-51879500D01*
X58477461Y-51859815D01*
X58431706Y-51807011D01*
X58420500Y-51755500D01*
X58420500Y-51685249D01*
X58420499Y-51685247D01*
X58408868Y-51626770D01*
X58408867Y-51626769D01*
X58364552Y-51560447D01*
X58298230Y-51516132D01*
X58298229Y-51516131D01*
X58239752Y-51504500D01*
X58239748Y-51504500D01*
X57574500Y-51504500D01*
X57507461Y-51484815D01*
X57461706Y-51432011D01*
X57450500Y-51380500D01*
X57450500Y-43869500D01*
X57470185Y-43802461D01*
X57522989Y-43756706D01*
X57574500Y-43745500D01*
X58239750Y-43745500D01*
X58239751Y-43745499D01*
X58254568Y-43742552D01*
X58298229Y-43733868D01*
X58298229Y-43733867D01*
X58298231Y-43733867D01*
X58364552Y-43689552D01*
X58408867Y-43623231D01*
X58408867Y-43623229D01*
X58408868Y-43623229D01*
X58420499Y-43564752D01*
X58420500Y-43564750D01*
X58420500Y-43494500D01*
X58440185Y-43427461D01*
X58492989Y-43381706D01*
X58544500Y-43370500D01*
X59079270Y-43370500D01*
X59103612Y-43368216D01*
X59109699Y-43367646D01*
X59162500Y-43349169D01*
X59232277Y-43345607D01*
X59292905Y-43380335D01*
G37*
%TD.AperFunction*%
%TA.AperFunction,Conductor*%
G36*
X65422539Y-43390185D02*
G01*
X65468294Y-43442989D01*
X65479500Y-43494500D01*
X65479500Y-43564752D01*
X65491131Y-43623229D01*
X65491132Y-43623230D01*
X65535447Y-43689552D01*
X65601769Y-43733867D01*
X65601770Y-43733868D01*
X65660247Y-43745499D01*
X65660250Y-43745500D01*
X65660252Y-43745500D01*
X66325500Y-43745500D01*
X66392539Y-43765185D01*
X66438294Y-43817989D01*
X66449500Y-43869500D01*
X66449500Y-45616551D01*
X66429815Y-45683590D01*
X66377011Y-45729345D01*
X66307853Y-45739289D01*
X66244297Y-45710264D01*
X66226306Y-45688476D01*
X66225448Y-45689135D01*
X66220502Y-45682689D01*
X66220500Y-45682686D01*
X66127314Y-45589500D01*
X66070250Y-45556554D01*
X66013187Y-45523608D01*
X65949539Y-45506554D01*
X65885892Y-45489500D01*
X65754108Y-45489500D01*
X65626812Y-45523608D01*
X65512686Y-45589500D01*
X65512683Y-45589502D01*
X65473774Y-45628412D01*
X65412451Y-45661897D01*
X65342759Y-45656913D01*
X65300883Y-45630000D01*
X64475000Y-45630000D01*
X64475000Y-46779999D01*
X64599972Y-46779999D01*
X64599986Y-46779998D01*
X64702697Y-46769505D01*
X64869119Y-46714358D01*
X64869124Y-46714356D01*
X65018345Y-46622315D01*
X65142315Y-46498345D01*
X65234357Y-46349122D01*
X65234867Y-46348029D01*
X65235416Y-46347404D01*
X65238149Y-46342975D01*
X65238905Y-46343441D01*
X65281037Y-46295587D01*
X65348230Y-46276432D01*
X65415112Y-46296644D01*
X65434933Y-46312747D01*
X65512686Y-46390500D01*
X65595497Y-46438311D01*
X65623746Y-46454621D01*
X65626814Y-46456392D01*
X65754108Y-46490500D01*
X65754110Y-46490500D01*
X65885890Y-46490500D01*
X65885892Y-46490500D01*
X66013186Y-46456392D01*
X66127314Y-46390500D01*
X66220500Y-46297314D01*
X66220504Y-46297306D01*
X66225448Y-46290865D01*
X66227534Y-46292466D01*
X66268674Y-46253235D01*
X66337280Y-46240009D01*
X66402147Y-46265973D01*
X66442678Y-46322885D01*
X66449500Y-46363448D01*
X66449500Y-48840500D01*
X66429815Y-48907539D01*
X66377011Y-48953294D01*
X66325500Y-48964500D01*
X65660247Y-48964500D01*
X65601770Y-48976131D01*
X65601769Y-48976132D01*
X65535447Y-49020447D01*
X65491132Y-49086769D01*
X65491131Y-49086770D01*
X65479500Y-49145247D01*
X65479500Y-49215500D01*
X65459815Y-49282539D01*
X65407011Y-49328294D01*
X65355500Y-49339500D01*
X64900833Y-49339500D01*
X64833794Y-49319815D01*
X64813152Y-49303181D01*
X64384012Y-48874041D01*
X64384004Y-48874035D01*
X64315495Y-48834482D01*
X64315490Y-48834479D01*
X64278139Y-48824471D01*
X64239062Y-48814000D01*
X64239060Y-48814000D01*
X64113526Y-48814000D01*
X64046487Y-48794315D01*
X64010424Y-48758892D01*
X63977051Y-48708946D01*
X63910730Y-48664632D01*
X63910729Y-48664631D01*
X63852252Y-48653000D01*
X63852248Y-48653000D01*
X63560029Y-48653000D01*
X63492990Y-48633315D01*
X63447235Y-48580511D01*
X63437291Y-48511353D01*
X63456927Y-48460109D01*
X63522974Y-48361261D01*
X63522980Y-48361250D01*
X63541922Y-48325813D01*
X63541925Y-48325806D01*
X63603172Y-48177943D01*
X63614832Y-48139506D01*
X63614837Y-48139485D01*
X63646061Y-47982513D01*
X63650000Y-47942523D01*
X63650000Y-47782476D01*
X63646061Y-47742486D01*
X63614837Y-47585514D01*
X63614832Y-47585493D01*
X63603172Y-47547056D01*
X63541925Y-47399193D01*
X63541922Y-47399186D01*
X63522980Y-47363749D01*
X63522974Y-47363738D01*
X63434063Y-47230673D01*
X63434060Y-47230668D01*
X63408562Y-47199599D01*
X63295400Y-47086437D01*
X63264331Y-47060939D01*
X63264326Y-47060936D01*
X63131261Y-46972025D01*
X63131250Y-46972019D01*
X63095813Y-46953077D01*
X63095806Y-46953074D01*
X62947943Y-46891827D01*
X62909506Y-46880167D01*
X62909485Y-46880162D01*
X62752513Y-46848938D01*
X62712523Y-46845000D01*
X62552477Y-46845000D01*
X62512486Y-46848938D01*
X62355514Y-46880162D01*
X62355493Y-46880167D01*
X62317056Y-46891827D01*
X62169193Y-46953074D01*
X62169186Y-46953077D01*
X62133749Y-46972019D01*
X62133738Y-46972025D01*
X62000673Y-47060936D01*
X62000668Y-47060939D01*
X61969599Y-47086437D01*
X61856437Y-47199599D01*
X61830939Y-47230668D01*
X61830936Y-47230673D01*
X61742025Y-47363738D01*
X61742019Y-47363749D01*
X61723077Y-47399186D01*
X61723074Y-47399193D01*
X61661827Y-47547056D01*
X61650167Y-47585493D01*
X61650162Y-47585514D01*
X61646117Y-47605850D01*
X61613732Y-47667761D01*
X61553016Y-47702335D01*
X61483246Y-47698594D01*
X61426575Y-47657728D01*
X61400993Y-47592709D01*
X61400500Y-47581658D01*
X61400500Y-46604500D01*
X61420185Y-46537461D01*
X61472989Y-46491706D01*
X61524500Y-46480500D01*
X61654270Y-46480500D01*
X61684699Y-46477646D01*
X61684701Y-46477646D01*
X61750501Y-46454621D01*
X61812882Y-46432793D01*
X61922150Y-46352150D01*
X62002793Y-46242882D01*
X62033037Y-46156450D01*
X62047646Y-46114701D01*
X62047646Y-46114699D01*
X62050500Y-46084269D01*
X62050500Y-46079986D01*
X63150001Y-46079986D01*
X63160494Y-46182697D01*
X63215641Y-46349119D01*
X63215643Y-46349124D01*
X63307684Y-46498345D01*
X63431654Y-46622315D01*
X63580875Y-46714356D01*
X63580880Y-46714358D01*
X63747302Y-46769505D01*
X63747309Y-46769506D01*
X63850019Y-46779999D01*
X63974999Y-46779999D01*
X63975000Y-46779998D01*
X63975000Y-45630000D01*
X63150001Y-45630000D01*
X63150001Y-46079986D01*
X62050500Y-46079986D01*
X62050500Y-44675730D01*
X62047646Y-44645300D01*
X62047646Y-44645298D01*
X62002793Y-44517119D01*
X62002792Y-44517117D01*
X61922150Y-44407850D01*
X61812882Y-44327207D01*
X61808542Y-44325688D01*
X61789553Y-44312068D01*
X61768297Y-44302361D01*
X61761693Y-44292084D01*
X61751768Y-44284966D01*
X61743157Y-44263242D01*
X61730523Y-44243583D01*
X61727767Y-44224415D01*
X61726022Y-44220013D01*
X61725500Y-44208648D01*
X61725500Y-44182965D01*
X61745185Y-44115926D01*
X61761819Y-44095284D01*
X61980284Y-43876819D01*
X62041607Y-43843334D01*
X62067965Y-43840500D01*
X63476228Y-43840500D01*
X63543267Y-43860185D01*
X63589022Y-43912989D01*
X63598966Y-43982147D01*
X63569941Y-44045703D01*
X63541325Y-44070039D01*
X63431654Y-44137684D01*
X63307684Y-44261654D01*
X63215643Y-44410875D01*
X63215641Y-44410880D01*
X63160494Y-44577302D01*
X63160493Y-44577309D01*
X63150000Y-44680013D01*
X63150000Y-45130000D01*
X65299999Y-45130000D01*
X65299999Y-44680028D01*
X65299998Y-44680013D01*
X65289505Y-44577302D01*
X65234358Y-44410880D01*
X65234356Y-44410875D01*
X65142315Y-44261654D01*
X65018345Y-44137684D01*
X64869124Y-44045643D01*
X64869119Y-44045641D01*
X64702697Y-43990494D01*
X64702690Y-43990493D01*
X64599986Y-43980000D01*
X64591863Y-43980000D01*
X64524824Y-43960315D01*
X64479069Y-43907511D01*
X64469125Y-43838353D01*
X64498150Y-43774797D01*
X64520720Y-43756161D01*
X64520165Y-43755437D01*
X64526606Y-43750493D01*
X64526614Y-43750489D01*
X64870284Y-43406819D01*
X64931607Y-43373334D01*
X64957965Y-43370500D01*
X65355500Y-43370500D01*
X65422539Y-43390185D01*
G37*
%TD.AperFunction*%
%TA.AperFunction,Conductor*%
G36*
X58893833Y-44903649D02*
G01*
X58949767Y-44945520D01*
X58974184Y-45010985D01*
X58974500Y-45019830D01*
X58974500Y-45126517D01*
X58975052Y-45130000D01*
X58989354Y-45220304D01*
X59046950Y-45333342D01*
X59046952Y-45333344D01*
X59046954Y-45333347D01*
X59136652Y-45423045D01*
X59136654Y-45423046D01*
X59136658Y-45423050D01*
X59227821Y-45469500D01*
X59249698Y-45480647D01*
X59343475Y-45495499D01*
X59343481Y-45495500D01*
X59956518Y-45495499D01*
X60050304Y-45480646D01*
X60163342Y-45423050D01*
X60204572Y-45381820D01*
X60231500Y-45367115D01*
X60257319Y-45350523D01*
X60263518Y-45349631D01*
X60265895Y-45348334D01*
X60292254Y-45345500D01*
X60375500Y-45345500D01*
X60442539Y-45365185D01*
X60488294Y-45417989D01*
X60499500Y-45469500D01*
X60499500Y-46073846D01*
X60479815Y-46140885D01*
X60427011Y-46186640D01*
X60357853Y-46196584D01*
X60294297Y-46167559D01*
X60265016Y-46130142D01*
X60257147Y-46114699D01*
X60253050Y-46106658D01*
X60253047Y-46106655D01*
X60253045Y-46106652D01*
X60163347Y-46016954D01*
X60163344Y-46016952D01*
X60163342Y-46016950D01*
X60086517Y-45977805D01*
X60050301Y-45959352D01*
X59956524Y-45944500D01*
X59343482Y-45944500D01*
X59262519Y-45957323D01*
X59249696Y-45959354D01*
X59193177Y-45988152D01*
X59136657Y-46016950D01*
X59104953Y-46048654D01*
X59043629Y-46082137D01*
X58985181Y-46080745D01*
X58949307Y-46071133D01*
X58905892Y-46059500D01*
X58774108Y-46059500D01*
X58646814Y-46093608D01*
X58646813Y-46093608D01*
X58646811Y-46093609D01*
X58646810Y-46093609D01*
X58566500Y-46139977D01*
X58498600Y-46156450D01*
X58432573Y-46133598D01*
X58389382Y-46078676D01*
X58380500Y-46032590D01*
X58380500Y-45365832D01*
X58400185Y-45298793D01*
X58416815Y-45278155D01*
X58762821Y-44932148D01*
X58824142Y-44898665D01*
X58893833Y-44903649D01*
G37*
%TD.AperFunction*%
%TA.AperFunction,Conductor*%
G36*
X64429445Y-41795185D02*
G01*
X64475200Y-41847989D01*
X64485144Y-41917147D01*
X64475024Y-41948259D01*
X64475276Y-41948348D01*
X64427353Y-42085298D01*
X64427353Y-42085300D01*
X64424500Y-42115730D01*
X64424500Y-42527035D01*
X64404815Y-42594074D01*
X64388181Y-42614716D01*
X64099716Y-42903181D01*
X64038393Y-42936666D01*
X64012035Y-42939500D01*
X61770691Y-42939500D01*
X61701944Y-42957920D01*
X61656112Y-42970201D01*
X61656107Y-42970204D01*
X61553393Y-43029505D01*
X61553385Y-43029511D01*
X60914513Y-43668383D01*
X60914509Y-43668389D01*
X60855201Y-43771112D01*
X60855200Y-43771117D01*
X60824500Y-43885691D01*
X60824500Y-44208648D01*
X60804815Y-44275687D01*
X60771349Y-44310415D01*
X60757447Y-44320093D01*
X60737118Y-44327207D01*
X60627850Y-44407850D01*
X60624104Y-44412925D01*
X60610686Y-44422267D01*
X60587573Y-44429991D01*
X60566186Y-44441668D01*
X60546217Y-44443814D01*
X60544420Y-44444415D01*
X60543292Y-44444128D01*
X60539837Y-44444500D01*
X60292254Y-44444500D01*
X60225215Y-44424815D01*
X60204572Y-44408180D01*
X60163346Y-44366953D01*
X60163344Y-44366952D01*
X60163342Y-44366950D01*
X60055631Y-44312068D01*
X60050301Y-44309352D01*
X59956524Y-44294500D01*
X59956519Y-44294500D01*
X59699832Y-44294500D01*
X59632793Y-44274815D01*
X59587038Y-44222011D01*
X59577094Y-44152853D01*
X59606119Y-44089297D01*
X59612151Y-44082819D01*
X59649329Y-44045641D01*
X60000460Y-43694511D01*
X60040022Y-43625988D01*
X60060500Y-43549562D01*
X60060500Y-43470438D01*
X60060500Y-42960438D01*
X60040021Y-42884011D01*
X60040017Y-42884004D01*
X60000464Y-42815495D01*
X60000458Y-42815487D01*
X59511819Y-42326848D01*
X59478334Y-42265525D01*
X59475500Y-42239167D01*
X59475500Y-42115730D01*
X59472646Y-42085300D01*
X59472646Y-42085298D01*
X59424724Y-41948348D01*
X59426020Y-41947894D01*
X59414042Y-41888966D01*
X59439351Y-41823841D01*
X59495851Y-41782737D01*
X59537594Y-41775500D01*
X64362406Y-41775500D01*
X64429445Y-41795185D01*
G37*
%TD.AperFunction*%
%TD*%
M02*
