M48
; DRILL file {KiCad 9.0.1+dfsg-1} date 2025-05-01T11:06:46+0200
; FORMAT={-:-/ absolute / metric / decimal}
; #@! TF.CreationDate,2025-05-01T11:06:46+02:00
; #@! TF.GenerationSoftware,Kicad,Pcbnew,9.0.1+dfsg-1
; #@! TF.FileFunction,Plated,1,2,PTH
FMAT,2
METRIC
; #@! TA.AperFunction,Plated,PTH,ViaDrill
T1C0.300
; #@! TA.AperFunction,Plated,PTH,ComponentDrill
T2C0.750
; #@! TA.AperFunction,Plated,PTH,ComponentDrill
T3C0.800
; #@! TA.AperFunction,Plated,PTH,ComponentDrill
T4C0.813
; #@! TA.AperFunction,Plated,PTH,ComponentDrill
T5C1.500
%
G90
G05
T1
X54.67Y-55.86
X54.75Y-52.69
X54.86Y-49.11
X54.94Y-44.53
X57.92Y-44.61
X60.51Y-49.26
X62.11Y-52.88
X64.97Y-56.93
X67.37Y-50.36
X69.8Y-54.19
X71.17Y-45.0
T2
X55.073Y-30.353
X55.073Y-58.293
X71.673Y-30.353
X71.673Y-48.133
X71.673Y-50.673
X71.673Y-53.213
X71.673Y-55.753
X71.673Y-58.293
T4
X62.484Y-47.879
X64.484Y-47.879
T3
G00X58.42Y-34.024
M15
G01X58.42Y-32.524
M16
G05
G00X58.82Y-41.174
M15
G01X58.82Y-39.974
M16
G05
G00X62.22Y-41.174
M15
G01X62.22Y-39.974
M16
G05
G00X67.42Y-41.174
M15
G01X67.42Y-39.974
M16
G05
G00X68.32Y-34.024
M15
G01X68.32Y-32.524
M16
G05
T5
G00X53.123Y-30.353
M15
G01X53.623Y-30.353
M16
G05
G00X53.123Y-58.293
M15
G01X53.623Y-58.293
M16
G05
G00X73.123Y-30.353
M15
G01X73.623Y-30.353
M16
G05
G00X73.123Y-48.133
M15
G01X73.623Y-48.133
M16
G05
G00X73.123Y-50.673
M15
G01X73.623Y-50.673
M16
G05
G00X73.123Y-53.213
M15
G01X73.623Y-53.213
M16
G05
G00X73.123Y-55.753
M15
G01X73.623Y-55.753
M16
G05
G00X73.123Y-58.293
M15
G01X73.623Y-58.293
M16
G05
M30
