G04 #@! TF.GenerationSoftware,KiCad,Pcbnew,9.0.1+1*
G04 #@! TF.CreationDate,2025-11-12T15:11:57+00:00*
G04 #@! TF.ProjectId,battery-connector,62617474-6572-4792-9d63-6f6e6e656374,rev?*
G04 #@! TF.SameCoordinates,Original*
G04 #@! TF.FileFunction,Legend,Bot*
G04 #@! TF.FilePolarity,Positive*
%FSLAX46Y46*%
G04 Gerber Fmt 4.6, Leading zero omitted, Abs format (unit mm)*
G04 Created by KiCad (PCBNEW 9.0.1+1) date 2025-11-12 15:11:57*
%MOMM*%
%LPD*%
G01*
G04 APERTURE LIST*
%ADD10C,0.100000*%
%ADD11C,2.154000*%
%ADD12R,2.540000X2.000000*%
G04 APERTURE END LIST*
D10*
X64725495Y-58772608D02*
X64344542Y-58505941D01*
X64725495Y-58315465D02*
X63925495Y-58315465D01*
X63925495Y-58315465D02*
X63925495Y-58620227D01*
X63925495Y-58620227D02*
X63963590Y-58696417D01*
X63963590Y-58696417D02*
X64001685Y-58734512D01*
X64001685Y-58734512D02*
X64077876Y-58772608D01*
X64077876Y-58772608D02*
X64192161Y-58772608D01*
X64192161Y-58772608D02*
X64268352Y-58734512D01*
X64268352Y-58734512D02*
X64306447Y-58696417D01*
X64306447Y-58696417D02*
X64344542Y-58620227D01*
X64344542Y-58620227D02*
X64344542Y-58315465D01*
X64001685Y-59077369D02*
X63963590Y-59115465D01*
X63963590Y-59115465D02*
X63925495Y-59191655D01*
X63925495Y-59191655D02*
X63925495Y-59382131D01*
X63925495Y-59382131D02*
X63963590Y-59458322D01*
X63963590Y-59458322D02*
X64001685Y-59496417D01*
X64001685Y-59496417D02*
X64077876Y-59534512D01*
X64077876Y-59534512D02*
X64154066Y-59534512D01*
X64154066Y-59534512D02*
X64268352Y-59496417D01*
X64268352Y-59496417D02*
X64725495Y-59039274D01*
X64725495Y-59039274D02*
X64725495Y-59534512D01*
X63925495Y-60029751D02*
X63925495Y-60105941D01*
X63925495Y-60105941D02*
X63963590Y-60182132D01*
X63963590Y-60182132D02*
X64001685Y-60220227D01*
X64001685Y-60220227D02*
X64077876Y-60258322D01*
X64077876Y-60258322D02*
X64230257Y-60296417D01*
X64230257Y-60296417D02*
X64420733Y-60296417D01*
X64420733Y-60296417D02*
X64573114Y-60258322D01*
X64573114Y-60258322D02*
X64649304Y-60220227D01*
X64649304Y-60220227D02*
X64687400Y-60182132D01*
X64687400Y-60182132D02*
X64725495Y-60105941D01*
X64725495Y-60105941D02*
X64725495Y-60029751D01*
X64725495Y-60029751D02*
X64687400Y-59953560D01*
X64687400Y-59953560D02*
X64649304Y-59915465D01*
X64649304Y-59915465D02*
X64573114Y-59877370D01*
X64573114Y-59877370D02*
X64420733Y-59839274D01*
X64420733Y-59839274D02*
X64230257Y-59839274D01*
X64230257Y-59839274D02*
X64077876Y-59877370D01*
X64077876Y-59877370D02*
X64001685Y-59915465D01*
X64001685Y-59915465D02*
X63963590Y-59953560D01*
X63963590Y-59953560D02*
X63925495Y-60029751D01*
X64001685Y-60601179D02*
X63963590Y-60639275D01*
X63963590Y-60639275D02*
X63925495Y-60715465D01*
X63925495Y-60715465D02*
X63925495Y-60905941D01*
X63925495Y-60905941D02*
X63963590Y-60982132D01*
X63963590Y-60982132D02*
X64001685Y-61020227D01*
X64001685Y-61020227D02*
X64077876Y-61058322D01*
X64077876Y-61058322D02*
X64154066Y-61058322D01*
X64154066Y-61058322D02*
X64268352Y-61020227D01*
X64268352Y-61020227D02*
X64725495Y-60563084D01*
X64725495Y-60563084D02*
X64725495Y-61058322D01*
X63925495Y-61782132D02*
X63925495Y-61401180D01*
X63925495Y-61401180D02*
X64306447Y-61363084D01*
X64306447Y-61363084D02*
X64268352Y-61401180D01*
X64268352Y-61401180D02*
X64230257Y-61477370D01*
X64230257Y-61477370D02*
X64230257Y-61667846D01*
X64230257Y-61667846D02*
X64268352Y-61744037D01*
X64268352Y-61744037D02*
X64306447Y-61782132D01*
X64306447Y-61782132D02*
X64382638Y-61820227D01*
X64382638Y-61820227D02*
X64573114Y-61820227D01*
X64573114Y-61820227D02*
X64649304Y-61782132D01*
X64649304Y-61782132D02*
X64687400Y-61744037D01*
X64687400Y-61744037D02*
X64725495Y-61667846D01*
X64725495Y-61667846D02*
X64725495Y-61477370D01*
X64725495Y-61477370D02*
X64687400Y-61401180D01*
X64687400Y-61401180D02*
X64649304Y-61363084D01*
X63925495Y-62315466D02*
X63925495Y-62391656D01*
X63925495Y-62391656D02*
X63963590Y-62467847D01*
X63963590Y-62467847D02*
X64001685Y-62505942D01*
X64001685Y-62505942D02*
X64077876Y-62544037D01*
X64077876Y-62544037D02*
X64230257Y-62582132D01*
X64230257Y-62582132D02*
X64420733Y-62582132D01*
X64420733Y-62582132D02*
X64573114Y-62544037D01*
X64573114Y-62544037D02*
X64649304Y-62505942D01*
X64649304Y-62505942D02*
X64687400Y-62467847D01*
X64687400Y-62467847D02*
X64725495Y-62391656D01*
X64725495Y-62391656D02*
X64725495Y-62315466D01*
X64725495Y-62315466D02*
X64687400Y-62239275D01*
X64687400Y-62239275D02*
X64649304Y-62201180D01*
X64649304Y-62201180D02*
X64573114Y-62163085D01*
X64573114Y-62163085D02*
X64420733Y-62124989D01*
X64420733Y-62124989D02*
X64230257Y-62124989D01*
X64230257Y-62124989D02*
X64077876Y-62163085D01*
X64077876Y-62163085D02*
X64001685Y-62201180D01*
X64001685Y-62201180D02*
X63963590Y-62239275D01*
X63963590Y-62239275D02*
X63925495Y-62315466D01*
X64192161Y-63267847D02*
X64725495Y-63267847D01*
X63887400Y-63077371D02*
X64458828Y-62886894D01*
X64458828Y-62886894D02*
X64458828Y-63382133D01*
X63925495Y-63839276D02*
X63925495Y-63915466D01*
X63925495Y-63915466D02*
X63963590Y-63991657D01*
X63963590Y-63991657D02*
X64001685Y-64029752D01*
X64001685Y-64029752D02*
X64077876Y-64067847D01*
X64077876Y-64067847D02*
X64230257Y-64105942D01*
X64230257Y-64105942D02*
X64420733Y-64105942D01*
X64420733Y-64105942D02*
X64573114Y-64067847D01*
X64573114Y-64067847D02*
X64649304Y-64029752D01*
X64649304Y-64029752D02*
X64687400Y-63991657D01*
X64687400Y-63991657D02*
X64725495Y-63915466D01*
X64725495Y-63915466D02*
X64725495Y-63839276D01*
X64725495Y-63839276D02*
X64687400Y-63763085D01*
X64687400Y-63763085D02*
X64649304Y-63724990D01*
X64649304Y-63724990D02*
X64573114Y-63686895D01*
X64573114Y-63686895D02*
X64420733Y-63648799D01*
X64420733Y-63648799D02*
X64230257Y-63648799D01*
X64230257Y-63648799D02*
X64077876Y-63686895D01*
X64077876Y-63686895D02*
X64001685Y-63724990D01*
X64001685Y-63724990D02*
X63963590Y-63763085D01*
X63963590Y-63763085D02*
X63925495Y-63839276D01*
X63925495Y-64829752D02*
X63925495Y-64448800D01*
X63925495Y-64448800D02*
X64306447Y-64410704D01*
X64306447Y-64410704D02*
X64268352Y-64448800D01*
X64268352Y-64448800D02*
X64230257Y-64524990D01*
X64230257Y-64524990D02*
X64230257Y-64715466D01*
X64230257Y-64715466D02*
X64268352Y-64791657D01*
X64268352Y-64791657D02*
X64306447Y-64829752D01*
X64306447Y-64829752D02*
X64382638Y-64867847D01*
X64382638Y-64867847D02*
X64573114Y-64867847D01*
X64573114Y-64867847D02*
X64649304Y-64829752D01*
X64649304Y-64829752D02*
X64687400Y-64791657D01*
X64687400Y-64791657D02*
X64725495Y-64715466D01*
X64725495Y-64715466D02*
X64725495Y-64524990D01*
X64725495Y-64524990D02*
X64687400Y-64448800D01*
X64687400Y-64448800D02*
X64649304Y-64410704D01*
X71312523Y-67392419D02*
X71312523Y-66392419D01*
X71312523Y-66392419D02*
X70979190Y-67106704D01*
X70979190Y-67106704D02*
X70645857Y-66392419D01*
X70645857Y-66392419D02*
X70645857Y-67392419D01*
X69645857Y-67392419D02*
X70217285Y-67392419D01*
X69931571Y-67392419D02*
X69931571Y-66392419D01*
X69931571Y-66392419D02*
X70026809Y-66535276D01*
X70026809Y-66535276D02*
X70122047Y-66630514D01*
X70122047Y-66630514D02*
X70217285Y-66678133D01*
%LPC*%
D11*
X66505000Y-61285000D03*
X69045000Y-61285000D03*
D12*
X75055000Y-56205000D03*
G36*
G01*
X72730000Y-56580000D02*
X72730000Y-55830000D01*
G75*
G02*
X72980000Y-55580000I250000J0D01*
G01*
X73730000Y-55580000D01*
G75*
G02*
X73980000Y-55830000I0J-250000D01*
G01*
X73980000Y-56580000D01*
G75*
G02*
X73730000Y-56830000I-250000J0D01*
G01*
X72980000Y-56830000D01*
G75*
G02*
X72730000Y-56580000I0J250000D01*
G01*
G37*
X75055000Y-66365000D03*
G36*
G01*
X72730000Y-66740000D02*
X72730000Y-65990000D01*
G75*
G02*
X72980000Y-65740000I250000J0D01*
G01*
X73730000Y-65740000D01*
G75*
G02*
X73980000Y-65990000I0J-250000D01*
G01*
X73980000Y-66740000D01*
G75*
G02*
X73730000Y-66990000I-250000J0D01*
G01*
X72980000Y-66990000D01*
G75*
G02*
X72730000Y-66740000I0J250000D01*
G01*
G37*
G36*
G01*
X61130000Y-56580000D02*
X61130000Y-55830000D01*
G75*
G02*
X61380000Y-55580000I250000J0D01*
G01*
X62130000Y-55580000D01*
G75*
G02*
X62380000Y-55830000I0J-250000D01*
G01*
X62380000Y-56580000D01*
G75*
G02*
X62130000Y-56830000I-250000J0D01*
G01*
X61380000Y-56830000D01*
G75*
G02*
X61130000Y-56580000I0J250000D01*
G01*
G37*
X60055000Y-56205000D03*
G36*
G01*
X61130000Y-64200000D02*
X61130000Y-63450000D01*
G75*
G02*
X61380000Y-63200000I250000J0D01*
G01*
X62130000Y-63200000D01*
G75*
G02*
X62380000Y-63450000I0J-250000D01*
G01*
X62380000Y-64200000D01*
G75*
G02*
X62130000Y-64450000I-250000J0D01*
G01*
X61380000Y-64450000D01*
G75*
G02*
X61130000Y-64200000I0J250000D01*
G01*
G37*
X60055000Y-63825000D03*
G36*
G01*
X61130000Y-66740000D02*
X61130000Y-65990000D01*
G75*
G02*
X61380000Y-65740000I250000J0D01*
G01*
X62130000Y-65740000D01*
G75*
G02*
X62380000Y-65990000I0J-250000D01*
G01*
X62380000Y-66740000D01*
G75*
G02*
X62130000Y-66990000I-250000J0D01*
G01*
X61380000Y-66990000D01*
G75*
G02*
X61130000Y-66740000I0J250000D01*
G01*
G37*
X60055000Y-66365000D03*
%LPD*%
M02*
