G04 #@! TF.GenerationSoftware,KiCad,Pcbnew,9.0.1+1*
G04 #@! TF.CreationDate,2025-11-12T15:34:37+00:00*
G04 #@! TF.ProjectId,battery-connector,62617474-6572-4792-9d63-6f6e6e656374,rev?*
G04 #@! TF.SameCoordinates,Original*
G04 #@! TF.FileFunction,Legend,Top*
G04 #@! TF.FilePolarity,Positive*
%FSLAX46Y46*%
G04 Gerber Fmt 4.6, Leading zero omitted, Abs format (unit mm)*
G04 Created by KiCad (PCBNEW 9.0.1+1) date 2025-11-12 15:34:37*
%MOMM*%
%LPD*%
G01*
G04 APERTURE LIST*
%ADD10C,0.100000*%
%ADD11C,0.150000*%
%ADD12C,0.200000*%
%ADD13C,0.400000*%
%ADD14C,2.154000*%
%ADD15R,2.540000X2.000000*%
G04 APERTURE END LIST*
D10*
X71634884Y-61284466D02*
X72396789Y-61284466D01*
X62998884Y-61284466D02*
X63760789Y-61284466D01*
X63379836Y-61665419D02*
X63379836Y-60903514D01*
D11*
X70089666Y-55969819D02*
X70089666Y-56684104D01*
X70089666Y-56684104D02*
X70042047Y-56826961D01*
X70042047Y-56826961D02*
X69946809Y-56922200D01*
X69946809Y-56922200D02*
X69803952Y-56969819D01*
X69803952Y-56969819D02*
X69708714Y-56969819D01*
X71089666Y-56969819D02*
X70518238Y-56969819D01*
X70803952Y-56969819D02*
X70803952Y-55969819D01*
X70803952Y-55969819D02*
X70708714Y-56112676D01*
X70708714Y-56112676D02*
X70613476Y-56207914D01*
X70613476Y-56207914D02*
X70518238Y-56255533D01*
D10*
X66602619Y-56131895D02*
X66602619Y-55331895D01*
X66602619Y-55331895D02*
X66907381Y-55331895D01*
X66907381Y-55331895D02*
X66983571Y-55369990D01*
X66983571Y-55369990D02*
X67021666Y-55408085D01*
X67021666Y-55408085D02*
X67059762Y-55484276D01*
X67059762Y-55484276D02*
X67059762Y-55598561D01*
X67059762Y-55598561D02*
X67021666Y-55674752D01*
X67021666Y-55674752D02*
X66983571Y-55712847D01*
X66983571Y-55712847D02*
X66907381Y-55750942D01*
X66907381Y-55750942D02*
X66602619Y-55750942D01*
X67859762Y-56131895D02*
X67593095Y-55750942D01*
X67402619Y-56131895D02*
X67402619Y-55331895D01*
X67402619Y-55331895D02*
X67707381Y-55331895D01*
X67707381Y-55331895D02*
X67783571Y-55369990D01*
X67783571Y-55369990D02*
X67821666Y-55408085D01*
X67821666Y-55408085D02*
X67859762Y-55484276D01*
X67859762Y-55484276D02*
X67859762Y-55598561D01*
X67859762Y-55598561D02*
X67821666Y-55674752D01*
X67821666Y-55674752D02*
X67783571Y-55712847D01*
X67783571Y-55712847D02*
X67707381Y-55750942D01*
X67707381Y-55750942D02*
X67402619Y-55750942D01*
X68355000Y-55750942D02*
X68355000Y-56131895D01*
X68088333Y-55331895D02*
X68355000Y-55750942D01*
X68355000Y-55750942D02*
X68621666Y-55331895D01*
X66602619Y-67231895D02*
X66602619Y-66431895D01*
X66602619Y-66431895D02*
X66907381Y-66431895D01*
X66907381Y-66431895D02*
X66983571Y-66469990D01*
X66983571Y-66469990D02*
X67021666Y-66508085D01*
X67021666Y-66508085D02*
X67059762Y-66584276D01*
X67059762Y-66584276D02*
X67059762Y-66698561D01*
X67059762Y-66698561D02*
X67021666Y-66774752D01*
X67021666Y-66774752D02*
X66983571Y-66812847D01*
X66983571Y-66812847D02*
X66907381Y-66850942D01*
X66907381Y-66850942D02*
X66602619Y-66850942D01*
X67859762Y-67231895D02*
X67593095Y-66850942D01*
X67402619Y-67231895D02*
X67402619Y-66431895D01*
X67402619Y-66431895D02*
X67707381Y-66431895D01*
X67707381Y-66431895D02*
X67783571Y-66469990D01*
X67783571Y-66469990D02*
X67821666Y-66508085D01*
X67821666Y-66508085D02*
X67859762Y-66584276D01*
X67859762Y-66584276D02*
X67859762Y-66698561D01*
X67859762Y-66698561D02*
X67821666Y-66774752D01*
X67821666Y-66774752D02*
X67783571Y-66812847D01*
X67783571Y-66812847D02*
X67707381Y-66850942D01*
X67707381Y-66850942D02*
X67402619Y-66850942D01*
X68355000Y-66850942D02*
X68355000Y-67231895D01*
X68088333Y-66431895D02*
X68355000Y-66850942D01*
X68355000Y-66850942D02*
X68621666Y-66431895D01*
D12*
X64935000Y-57935000D02*
X70615000Y-57935000D01*
X64935000Y-64635000D02*
X64935000Y-57935000D01*
X70615000Y-57935000D02*
X70615000Y-64635000D01*
X70615000Y-64635000D02*
X64935000Y-64635000D01*
D13*
X65675000Y-59585000D02*
G75*
G02*
X65475000Y-59585000I-100000J0D01*
G01*
X65475000Y-59585000D02*
G75*
G02*
X65675000Y-59585000I100000J0D01*
G01*
D10*
X69539241Y-56484000D02*
X65535484Y-56484000D01*
X65535484Y-55015000D01*
X69539241Y-55015000D01*
X69539241Y-56484000D01*
X69539241Y-66086000D02*
X65535484Y-66086000D01*
X65535484Y-67555000D01*
X69539241Y-67555000D01*
X69539241Y-66086000D01*
%LPC*%
D14*
X66505000Y-61285000D03*
X69045000Y-61285000D03*
D15*
X75055000Y-56205000D03*
G36*
G01*
X72730000Y-56580000D02*
X72730000Y-55830000D01*
G75*
G02*
X72980000Y-55580000I250000J0D01*
G01*
X73730000Y-55580000D01*
G75*
G02*
X73980000Y-55830000I0J-250000D01*
G01*
X73980000Y-56580000D01*
G75*
G02*
X73730000Y-56830000I-250000J0D01*
G01*
X72980000Y-56830000D01*
G75*
G02*
X72730000Y-56580000I0J250000D01*
G01*
G37*
X75055000Y-66365000D03*
G36*
G01*
X72730000Y-66740000D02*
X72730000Y-65990000D01*
G75*
G02*
X72980000Y-65740000I250000J0D01*
G01*
X73730000Y-65740000D01*
G75*
G02*
X73980000Y-65990000I0J-250000D01*
G01*
X73980000Y-66740000D01*
G75*
G02*
X73730000Y-66990000I-250000J0D01*
G01*
X72980000Y-66990000D01*
G75*
G02*
X72730000Y-66740000I0J250000D01*
G01*
G37*
G36*
G01*
X61130000Y-56580000D02*
X61130000Y-55830000D01*
G75*
G02*
X61380000Y-55580000I250000J0D01*
G01*
X62130000Y-55580000D01*
G75*
G02*
X62380000Y-55830000I0J-250000D01*
G01*
X62380000Y-56580000D01*
G75*
G02*
X62130000Y-56830000I-250000J0D01*
G01*
X61380000Y-56830000D01*
G75*
G02*
X61130000Y-56580000I0J250000D01*
G01*
G37*
X60055000Y-56205000D03*
G36*
G01*
X61130000Y-64200000D02*
X61130000Y-63450000D01*
G75*
G02*
X61380000Y-63200000I250000J0D01*
G01*
X62130000Y-63200000D01*
G75*
G02*
X62380000Y-63450000I0J-250000D01*
G01*
X62380000Y-64200000D01*
G75*
G02*
X62130000Y-64450000I-250000J0D01*
G01*
X61380000Y-64450000D01*
G75*
G02*
X61130000Y-64200000I0J250000D01*
G01*
G37*
X60055000Y-63825000D03*
G36*
G01*
X61130000Y-66740000D02*
X61130000Y-65990000D01*
G75*
G02*
X61380000Y-65740000I250000J0D01*
G01*
X62130000Y-65740000D01*
G75*
G02*
X62380000Y-65990000I0J-250000D01*
G01*
X62380000Y-66740000D01*
G75*
G02*
X62130000Y-66990000I-250000J0D01*
G01*
X61380000Y-66990000D01*
G75*
G02*
X61130000Y-66740000I0J250000D01*
G01*
G37*
X60055000Y-66365000D03*
%LPD*%
M02*
