G04 #@! TF.GenerationSoftware,KiCad,Pcbnew,9.0.1+1*
G04 #@! TF.CreationDate,2025-11-12T15:11:57+00:00*
G04 #@! TF.ProjectId,battery-connector,62617474-6572-4792-9d63-6f6e6e656374,rev?*
G04 #@! TF.SameCoordinates,Original*
G04 #@! TF.FileFunction,Soldermask,Bot*
G04 #@! TF.FilePolarity,Negative*
%FSLAX46Y46*%
G04 Gerber Fmt 4.6, Leading zero omitted, Abs format (unit mm)*
G04 Created by KiCad (PCBNEW 9.0.1+1) date 2025-11-12 15:11:57*
%MOMM*%
%LPD*%
G01*
G04 APERTURE LIST*
%ADD10C,2.154000*%
%ADD11R,2.540000X2.000000*%
G04 APERTURE END LIST*
D10*
X66505000Y-61285000D03*
X69045000Y-61285000D03*
D11*
X75055000Y-56205000D03*
G36*
G01*
X72730000Y-56580000D02*
X72730000Y-55830000D01*
G75*
G02*
X72980000Y-55580000I250000J0D01*
G01*
X73730000Y-55580000D01*
G75*
G02*
X73980000Y-55830000I0J-250000D01*
G01*
X73980000Y-56580000D01*
G75*
G02*
X73730000Y-56830000I-250000J0D01*
G01*
X72980000Y-56830000D01*
G75*
G02*
X72730000Y-56580000I0J250000D01*
G01*
G37*
X75055000Y-66365000D03*
G36*
G01*
X72730000Y-66740000D02*
X72730000Y-65990000D01*
G75*
G02*
X72980000Y-65740000I250000J0D01*
G01*
X73730000Y-65740000D01*
G75*
G02*
X73980000Y-65990000I0J-250000D01*
G01*
X73980000Y-66740000D01*
G75*
G02*
X73730000Y-66990000I-250000J0D01*
G01*
X72980000Y-66990000D01*
G75*
G02*
X72730000Y-66740000I0J250000D01*
G01*
G37*
G36*
G01*
X61130000Y-56580000D02*
X61130000Y-55830000D01*
G75*
G02*
X61380000Y-55580000I250000J0D01*
G01*
X62130000Y-55580000D01*
G75*
G02*
X62380000Y-55830000I0J-250000D01*
G01*
X62380000Y-56580000D01*
G75*
G02*
X62130000Y-56830000I-250000J0D01*
G01*
X61380000Y-56830000D01*
G75*
G02*
X61130000Y-56580000I0J250000D01*
G01*
G37*
X60055000Y-56205000D03*
G36*
G01*
X61130000Y-64200000D02*
X61130000Y-63450000D01*
G75*
G02*
X61380000Y-63200000I250000J0D01*
G01*
X62130000Y-63200000D01*
G75*
G02*
X62380000Y-63450000I0J-250000D01*
G01*
X62380000Y-64200000D01*
G75*
G02*
X62130000Y-64450000I-250000J0D01*
G01*
X61380000Y-64450000D01*
G75*
G02*
X61130000Y-64200000I0J250000D01*
G01*
G37*
X60055000Y-63825000D03*
G36*
G01*
X61130000Y-66740000D02*
X61130000Y-65990000D01*
G75*
G02*
X61380000Y-65740000I250000J0D01*
G01*
X62130000Y-65740000D01*
G75*
G02*
X62380000Y-65990000I0J-250000D01*
G01*
X62380000Y-66740000D01*
G75*
G02*
X62130000Y-66990000I-250000J0D01*
G01*
X61380000Y-66990000D01*
G75*
G02*
X61130000Y-66740000I0J250000D01*
G01*
G37*
X60055000Y-66365000D03*
M02*
