G04 #@! TF.GenerationSoftware,KiCad,Pcbnew,9.0.1+1*
G04 #@! TF.CreationDate,2025-11-11T08:29:23+00:00*
G04 #@! TF.ProjectId,battery-connector,62617474-6572-4792-9d63-6f6e6e656374,rev?*
G04 #@! TF.SameCoordinates,Original*
G04 #@! TF.FileFunction,Copper,L2,Bot*
G04 #@! TF.FilePolarity,Positive*
%FSLAX46Y46*%
G04 Gerber Fmt 4.6, Leading zero omitted, Abs format (unit mm)*
G04 Created by KiCad (PCBNEW 9.0.1+1) date 2025-11-11 08:29:23*
%MOMM*%
%LPD*%
G01*
G04 APERTURE LIST*
G04 #@! TA.AperFunction,ComponentPad*
%ADD10C,1.950000*%
G04 #@! TD*
G04 #@! TA.AperFunction,CastellatedPad*
%ADD11R,2.540000X2.000000*%
G04 #@! TD*
G04 #@! TA.AperFunction,Conductor*
%ADD12C,1.000000*%
G04 #@! TD*
G04 APERTURE END LIST*
D10*
X66505000Y-61285000D03*
X69045000Y-61285000D03*
D11*
X75055000Y-56205000D03*
G04 #@! TA.AperFunction,ComponentPad*
G36*
G01*
X72730000Y-56580000D02*
X72730000Y-55830000D01*
G75*
G02*
X72980000Y-55580000I250000J0D01*
G01*
X73730000Y-55580000D01*
G75*
G02*
X73980000Y-55830000I0J-250000D01*
G01*
X73980000Y-56580000D01*
G75*
G02*
X73730000Y-56830000I-250000J0D01*
G01*
X72980000Y-56830000D01*
G75*
G02*
X72730000Y-56580000I0J250000D01*
G01*
G37*
G04 #@! TD.AperFunction*
X75055000Y-66365000D03*
G04 #@! TA.AperFunction,ComponentPad*
G36*
G01*
X72730000Y-66740000D02*
X72730000Y-65990000D01*
G75*
G02*
X72980000Y-65740000I250000J0D01*
G01*
X73730000Y-65740000D01*
G75*
G02*
X73980000Y-65990000I0J-250000D01*
G01*
X73980000Y-66740000D01*
G75*
G02*
X73730000Y-66990000I-250000J0D01*
G01*
X72980000Y-66990000D01*
G75*
G02*
X72730000Y-66740000I0J250000D01*
G01*
G37*
G04 #@! TD.AperFunction*
G04 #@! TA.AperFunction,ComponentPad*
G36*
G01*
X61130000Y-56580000D02*
X61130000Y-55830000D01*
G75*
G02*
X61380000Y-55580000I250000J0D01*
G01*
X62130000Y-55580000D01*
G75*
G02*
X62380000Y-55830000I0J-250000D01*
G01*
X62380000Y-56580000D01*
G75*
G02*
X62130000Y-56830000I-250000J0D01*
G01*
X61380000Y-56830000D01*
G75*
G02*
X61130000Y-56580000I0J250000D01*
G01*
G37*
G04 #@! TD.AperFunction*
X60055000Y-56205000D03*
G04 #@! TA.AperFunction,ComponentPad*
G36*
G01*
X61130000Y-64200000D02*
X61130000Y-63450000D01*
G75*
G02*
X61380000Y-63200000I250000J0D01*
G01*
X62130000Y-63200000D01*
G75*
G02*
X62380000Y-63450000I0J-250000D01*
G01*
X62380000Y-64200000D01*
G75*
G02*
X62130000Y-64450000I-250000J0D01*
G01*
X61380000Y-64450000D01*
G75*
G02*
X61130000Y-64200000I0J250000D01*
G01*
G37*
G04 #@! TD.AperFunction*
X60055000Y-63825000D03*
G04 #@! TA.AperFunction,ComponentPad*
G36*
G01*
X61130000Y-66740000D02*
X61130000Y-65990000D01*
G75*
G02*
X61380000Y-65740000I250000J0D01*
G01*
X62130000Y-65740000D01*
G75*
G02*
X62380000Y-65990000I0J-250000D01*
G01*
X62380000Y-66740000D01*
G75*
G02*
X62130000Y-66990000I-250000J0D01*
G01*
X61380000Y-66990000D01*
G75*
G02*
X61130000Y-66740000I0J250000D01*
G01*
G37*
G04 #@! TD.AperFunction*
X60055000Y-66365000D03*
D12*
X72855000Y-66365000D02*
X70823000Y-66365000D01*
G04 #@! TA.AperFunction,Conductor*
G36*
X72215413Y-55455185D02*
G01*
X72261168Y-55507989D01*
X72271112Y-55577147D01*
X72266081Y-55598496D01*
X72252880Y-55638335D01*
X72240000Y-55677204D01*
X72229500Y-55779983D01*
X72229500Y-56630001D01*
X72229501Y-56630019D01*
X72240000Y-56732796D01*
X72240001Y-56732799D01*
X72295185Y-56899331D01*
X72295186Y-56899334D01*
X72387288Y-57048656D01*
X72511344Y-57172712D01*
X72660666Y-57264814D01*
X72827203Y-57319999D01*
X72929991Y-57330500D01*
X73211533Y-57330499D01*
X73278572Y-57350183D01*
X73324327Y-57402987D01*
X73327714Y-57411164D01*
X73341204Y-57447332D01*
X73341205Y-57447334D01*
X73427452Y-57562544D01*
X73427455Y-57562547D01*
X73542664Y-57648793D01*
X73542671Y-57648797D01*
X73677517Y-57699091D01*
X73677516Y-57699091D01*
X73684444Y-57699835D01*
X73737127Y-57705500D01*
X74430500Y-57705499D01*
X74497539Y-57725183D01*
X74543294Y-57777987D01*
X74554500Y-57829499D01*
X74554500Y-64741000D01*
X74534815Y-64808039D01*
X74482011Y-64853794D01*
X74430500Y-64865000D01*
X73908551Y-64865000D01*
X74518181Y-65474629D01*
X74551666Y-65535952D01*
X74554500Y-65562310D01*
X74554500Y-65656966D01*
X74449742Y-65700359D01*
X74326903Y-65782437D01*
X74222894Y-65886445D01*
X73392041Y-65055592D01*
X73341647Y-65122910D01*
X73328061Y-65159335D01*
X73286189Y-65215268D01*
X73220724Y-65239684D01*
X73211880Y-65240000D01*
X72930029Y-65240000D01*
X72930012Y-65240001D01*
X72827302Y-65250494D01*
X72660878Y-65305642D01*
X72660873Y-65305644D01*
X72653651Y-65310098D01*
X72653650Y-65310099D01*
X73333551Y-65990000D01*
X73305630Y-65990000D01*
X73210255Y-66015556D01*
X73124745Y-66064925D01*
X73054925Y-66134745D01*
X73005556Y-66220255D01*
X72980000Y-66315630D01*
X72980000Y-66343551D01*
X72300099Y-65663650D01*
X72300098Y-65663651D01*
X72295644Y-65670873D01*
X72295642Y-65670877D01*
X72240494Y-65837302D01*
X72240493Y-65837309D01*
X72230000Y-65940013D01*
X72230000Y-66789971D01*
X72230001Y-66789987D01*
X72240493Y-66892695D01*
X72266606Y-66971495D01*
X72269008Y-67041324D01*
X72233277Y-67101366D01*
X72170756Y-67132559D01*
X72148900Y-67134500D01*
X62961626Y-67134500D01*
X62894587Y-67114815D01*
X62848832Y-67062011D01*
X62838888Y-66992853D01*
X62843918Y-66971503D01*
X62869999Y-66892797D01*
X62880500Y-66790009D01*
X62880499Y-65939992D01*
X62869999Y-65837203D01*
X62814814Y-65670666D01*
X62722712Y-65521344D01*
X62598656Y-65397288D01*
X62468694Y-65317127D01*
X62449336Y-65305187D01*
X62449331Y-65305185D01*
X62447862Y-65304698D01*
X62282797Y-65250001D01*
X62282795Y-65250000D01*
X62180016Y-65239500D01*
X62180009Y-65239500D01*
X61898466Y-65239500D01*
X61877220Y-65233261D01*
X61855132Y-65231682D01*
X61844348Y-65223609D01*
X61831427Y-65219815D01*
X61816927Y-65203081D01*
X61799199Y-65189810D01*
X61788585Y-65170373D01*
X61785672Y-65167011D01*
X61782284Y-65158833D01*
X61774638Y-65138333D01*
X61769654Y-65068641D01*
X61774639Y-65051664D01*
X61782286Y-65031163D01*
X61824159Y-64975230D01*
X61889624Y-64950815D01*
X61898467Y-64950499D01*
X62180002Y-64950499D01*
X62180008Y-64950499D01*
X62282797Y-64939999D01*
X62449334Y-64884814D01*
X62598656Y-64792712D01*
X62722712Y-64668656D01*
X62814814Y-64519334D01*
X62869999Y-64352797D01*
X62880500Y-64250009D01*
X62880499Y-63399992D01*
X62869999Y-63297203D01*
X62814814Y-63130666D01*
X62722712Y-62981344D01*
X62598656Y-62857288D01*
X62449334Y-62765186D01*
X62282797Y-62710001D01*
X62282795Y-62710000D01*
X62180016Y-62699500D01*
X62180009Y-62699500D01*
X61898467Y-62699500D01*
X61831428Y-62679815D01*
X61785673Y-62627011D01*
X61782285Y-62618834D01*
X61768796Y-62582669D01*
X61768793Y-62582664D01*
X61682547Y-62467455D01*
X61682544Y-62467452D01*
X61567335Y-62381206D01*
X61567328Y-62381202D01*
X61432482Y-62330908D01*
X61432483Y-62330908D01*
X61372883Y-62324501D01*
X61372881Y-62324500D01*
X61372873Y-62324500D01*
X61372865Y-62324500D01*
X60679500Y-62324500D01*
X60612461Y-62304815D01*
X60566706Y-62252011D01*
X60555500Y-62200500D01*
X60555500Y-61168870D01*
X65029500Y-61168870D01*
X65029500Y-61401129D01*
X65065831Y-61630514D01*
X65137601Y-61851400D01*
X65242907Y-62058071D01*
X65243039Y-62058331D01*
X65379551Y-62246224D01*
X65543776Y-62410449D01*
X65731669Y-62546961D01*
X65801740Y-62582664D01*
X65938599Y-62652398D01*
X65938601Y-62652398D01*
X65938604Y-62652400D01*
X66159486Y-62724169D01*
X66277668Y-62742886D01*
X66388871Y-62760500D01*
X66388876Y-62760500D01*
X66621129Y-62760500D01*
X66722502Y-62744443D01*
X66850514Y-62724169D01*
X67071396Y-62652400D01*
X67278331Y-62546961D01*
X67466224Y-62410449D01*
X67630449Y-62246224D01*
X67676588Y-62182718D01*
X67731915Y-62140055D01*
X67786634Y-62131988D01*
X67840238Y-62136207D01*
X68443958Y-61532487D01*
X68468978Y-61592890D01*
X68540112Y-61699351D01*
X68630649Y-61789888D01*
X68737110Y-61861022D01*
X68797510Y-61886041D01*
X68193791Y-62489759D01*
X68193791Y-62489760D01*
X68271935Y-62546534D01*
X68478794Y-62651934D01*
X68699606Y-62723681D01*
X68928910Y-62760000D01*
X69161090Y-62760000D01*
X69390393Y-62723681D01*
X69611205Y-62651934D01*
X69818071Y-62546530D01*
X69896207Y-62489762D01*
X69896208Y-62489760D01*
X69292488Y-61886041D01*
X69352890Y-61861022D01*
X69459351Y-61789888D01*
X69549888Y-61699351D01*
X69621022Y-61592890D01*
X69646041Y-61532489D01*
X70249760Y-62136208D01*
X70249762Y-62136207D01*
X70306530Y-62058071D01*
X70411934Y-61851205D01*
X70483681Y-61630393D01*
X70520000Y-61401090D01*
X70520000Y-61168909D01*
X70483681Y-60939606D01*
X70411934Y-60718794D01*
X70306534Y-60511935D01*
X70249760Y-60433791D01*
X70249759Y-60433791D01*
X69646041Y-61037510D01*
X69621022Y-60977110D01*
X69549888Y-60870649D01*
X69459351Y-60780112D01*
X69352890Y-60708978D01*
X69292487Y-60683957D01*
X69896207Y-60080238D01*
X69818064Y-60023465D01*
X69611205Y-59918065D01*
X69390393Y-59846318D01*
X69161090Y-59810000D01*
X68928910Y-59810000D01*
X68699606Y-59846318D01*
X68478794Y-59918065D01*
X68271925Y-60023470D01*
X68193791Y-60080237D01*
X68193791Y-60080238D01*
X68797511Y-60683958D01*
X68737110Y-60708978D01*
X68630649Y-60780112D01*
X68540112Y-60870649D01*
X68468978Y-60977110D01*
X68443958Y-61037511D01*
X67840238Y-60433791D01*
X67786632Y-60438010D01*
X67718255Y-60423646D01*
X67676585Y-60387277D01*
X67630451Y-60323779D01*
X67630446Y-60323773D01*
X67466226Y-60159553D01*
X67466224Y-60159551D01*
X67278331Y-60023039D01*
X67071400Y-59917601D01*
X66850514Y-59845831D01*
X66621129Y-59809500D01*
X66621124Y-59809500D01*
X66388876Y-59809500D01*
X66388871Y-59809500D01*
X66159485Y-59845831D01*
X65938599Y-59917601D01*
X65731668Y-60023039D01*
X65543773Y-60159553D01*
X65379553Y-60323773D01*
X65243039Y-60511668D01*
X65137601Y-60718599D01*
X65065831Y-60939485D01*
X65029500Y-61168870D01*
X60555500Y-61168870D01*
X60555500Y-57829499D01*
X60575185Y-57762460D01*
X60627989Y-57716705D01*
X60679500Y-57705499D01*
X61372871Y-57705499D01*
X61372872Y-57705499D01*
X61432483Y-57699091D01*
X61567331Y-57648796D01*
X61682546Y-57562546D01*
X61768796Y-57447331D01*
X61782285Y-57411166D01*
X61824156Y-57355232D01*
X61889620Y-57330815D01*
X61898467Y-57330499D01*
X62180002Y-57330499D01*
X62180008Y-57330499D01*
X62282797Y-57319999D01*
X62449334Y-57264814D01*
X62598656Y-57172712D01*
X62722712Y-57048656D01*
X62814814Y-56899334D01*
X62869999Y-56732797D01*
X62880500Y-56630009D01*
X62880499Y-55779992D01*
X62869999Y-55677203D01*
X62843921Y-55598504D01*
X62841519Y-55528676D01*
X62877251Y-55468634D01*
X62939771Y-55437441D01*
X62961627Y-55435500D01*
X72148374Y-55435500D01*
X72215413Y-55455185D01*
G37*
G04 #@! TD.AperFunction*
M02*
