M48
; DRILL file {KiCad 9.0.1+dfsg-1} date 2025-05-01T11:00:44+0200
; FORMAT={-:-/ absolute / metric / decimal}
; #@! TF.CreationDate,2025-05-01T11:00:44+02:00
; #@! TF.GenerationSoftware,Kicad,Pcbnew,9.0.1+dfsg-1
; #@! TF.FileFunction,Plated,1,4,PTH
FMAT,2
METRIC
; #@! TA.AperFunction,Plated,PTH,ViaDrill
T1C0.300
; #@! TA.AperFunction,Plated,PTH,ComponentDrill
T2C0.750
; #@! TA.AperFunction,Plated,PTH,ComponentDrill
T3C1.118
; #@! TA.AperFunction,Plated,PTH,ComponentDrill
T4C1.500
; #@! TA.AperFunction,Plated,PTH,ComponentDrill
T5C1.626
%
G90
G05
T1
X69.71Y-38.7
X70.11Y-94.15
X70.15Y-99.25
X70.26Y-96.69
X70.54Y-41.06
X70.58Y-43.37
X70.61Y-101.76
X70.65Y-89.36
X70.79Y-91.73
X71.14Y-36.91
X71.552Y-61.9
X71.958Y-104.343
X72.466Y-45.745
X72.898Y-59.461
X73.431Y-57.531
X73.609Y-76.759
X73.66Y-39.065
X73.838Y-88.392
X74.768Y-78.74
X75.032Y-79.654
X75.32Y-74.3
X75.38Y-69.77
X75.53Y-65.95
X75.72Y-48.72
X75.743Y-81.178
X75.94Y-104.42
X76.15Y-74.74
X76.74Y-100.11
X77.28Y-96.4
X77.807Y-88.721
X78.1Y-41.13
X78.14Y-100.07
X78.28Y-48.68
X78.466Y-77.927
X78.511Y-88.113
X79.019Y-96.393
X79.1Y-57.46
X79.91Y-85.094
X79.985Y-91.77
X80.035Y-96.571
X80.12Y-100.05
X80.34Y-87.3
X80.493Y-51.841
X80.716Y-80.97
X80.794Y-94.466
X80.886Y-91.858
X81.304Y-86.488
X81.63Y-100.09
X81.686Y-91.821
X81.81Y-87.989
X82.01Y-96.31
X82.042Y-76.2
X82.042Y-79.71
X82.4Y-83.05
X82.509Y-91.797
X82.53Y-61.08
X82.88Y-96.342
X82.931Y-93.447
X82.934Y-63.824
X83.35Y-92.09
X84.25Y-39.1
X84.252Y-65.202
X84.303Y-77.241
X84.84Y-81.45
X85.344Y-78.232
X85.496Y-60.63
X85.674Y-75.336
X86.04Y-104.42
X86.081Y-93.574
X86.385Y-88.401
X86.411Y-87.173
X86.86Y-100.11
X86.868Y-56.896
X86.92Y-96.48
X87.274Y-88.316
X87.325Y-91.872
X87.736Y-86.355
X88.189Y-96.139
X88.26Y-71.47
X88.265Y-78.105
X88.31Y-91.84
X88.316Y-54.483
X88.646Y-100.33
X88.697Y-83.464
X88.849Y-61.722
X88.912Y-94.488
X89.246Y-87.351
X89.662Y-38.964
X89.662Y-91.948
X89.85Y-103.13
X90.03Y-74.03
X90.103Y-87.62
X90.214Y-95.479
X90.5Y-92.65
X90.594Y-93.471
X90.856Y-84.506
X90.88Y-69.06
X90.9Y-94.336
X90.932Y-96.768
X91.059Y-100.228
X91.465Y-86.182
X91.669Y-76.479
X91.875Y-87.83
X91.93Y-52.09
X92.04Y-79.95
X92.126Y-93.783
X92.202Y-80.772
X92.253Y-100.203
X92.348Y-91.999
X92.83Y-87.89
X93.095Y-91.91
X94.437Y-100.355
X94.48Y-83.96
X95.453Y-92.024
X95.5Y-55.83
X95.63Y-100.17
X95.67Y-78.39
X95.896Y-58.406
X95.98Y-69.69
X96.02Y-77.47
X96.51Y-100.23
X96.55Y-96.63
X96.91Y-91.73
X97.282Y-75.184
X97.3Y-101.04
X97.45Y-88.12
X98.09Y-100.27
X98.4Y-88.12
X98.84Y-100.28
X99.162Y-74.295
X99.339Y-91.999
X99.78Y-100.25
X99.98Y-45.41
X100.025Y-78.22
X100.1Y-55.88
X100.152Y-88.494
X100.62Y-100.29
X101.75Y-86.18
X102.18Y-41.11
X102.235Y-73.076
X102.52Y-45.45
X102.89Y-91.43
X103.124Y-79.756
X103.5Y-104.43
X104.013Y-76.987
X104.826Y-38.633
X106.299Y-76.454
X106.426Y-87.325
X106.451Y-75.717
X106.47Y-91.51
X107.59Y-81.03
X107.67Y-60.4
X107.69Y-86.44
X107.7Y-57.82
X107.72Y-49.13
X107.72Y-65.55
X107.74Y-73.08
X107.77Y-55.56
X107.77Y-68.02
X107.77Y-104.02
X107.78Y-62.94
X107.79Y-70.54
X107.8Y-51.6
X107.85Y-38.64
X107.85Y-75.49
X107.87Y-41.21
X107.89Y-89.07
X108.02Y-94.28
X108.03Y-43.47
X108.03Y-99.29
X108.07Y-46.04
X108.08Y-101.87
X108.09Y-91.63
X108.22Y-96.71
T2
X69.645Y-37.033
X69.645Y-42.113
X69.645Y-44.653
X69.645Y-90.373
X69.645Y-92.913
X69.645Y-95.453
X69.645Y-97.993
X69.645Y-100.533
X69.645Y-103.073
X69.645Y-105.613
X109.045Y-37.033
X109.045Y-39.573
X109.045Y-42.113
X109.045Y-44.653
X109.045Y-47.193
X109.045Y-49.733
X109.045Y-52.273
X109.045Y-54.813
X109.045Y-57.353
X109.045Y-59.893
X109.045Y-62.433
X109.045Y-64.973
X109.045Y-67.513
X109.045Y-70.053
X109.045Y-72.593
X109.045Y-75.133
X109.045Y-77.673
X109.045Y-80.213
X109.045Y-82.753
X109.045Y-85.293
X109.045Y-87.833
X109.045Y-90.373
X109.045Y-92.913
X109.045Y-95.453
X109.045Y-97.993
X109.045Y-100.533
X109.045Y-103.073
X109.045Y-105.613
T3
X101.612Y-94.188
T5
X76.612Y-94.188
T4
G00X67.695Y-37.033
M15
G01X68.195Y-37.033
M16
G05
G00X67.695Y-42.113
M15
G01X68.195Y-42.113
M16
G05
G00X67.695Y-44.653
M15
G01X68.195Y-44.653
M16
G05
G00X67.695Y-90.373
M15
G01X68.195Y-90.373
M16
G05
G00X67.695Y-92.913
M15
G01X68.195Y-92.913
M16
G05
G00X67.695Y-95.453
M15
G01X68.195Y-95.453
M16
G05
G00X67.695Y-97.993
M15
G01X68.195Y-97.993
M16
G05
G00X67.695Y-100.533
M15
G01X68.195Y-100.533
M16
G05
G00X67.695Y-103.073
M15
G01X68.195Y-103.073
M16
G05
G00X67.695Y-105.613
M15
G01X68.195Y-105.613
M16
G05
G00X110.495Y-37.033
M15
G01X110.995Y-37.033
M16
G05
G00X110.495Y-39.573
M15
G01X110.995Y-39.573
M16
G05
G00X110.495Y-42.113
M15
G01X110.995Y-42.113
M16
G05
G00X110.495Y-44.653
M15
G01X110.995Y-44.653
M16
G05
G00X110.495Y-47.193
M15
G01X110.995Y-47.193
M16
G05
G00X110.495Y-49.733
M15
G01X110.995Y-49.733
M16
G05
G00X110.495Y-52.273
M15
G01X110.995Y-52.273
M16
G05
G00X110.495Y-54.813
M15
G01X110.995Y-54.813
M16
G05
G00X110.495Y-57.353
M15
G01X110.995Y-57.353
M16
G05
G00X110.495Y-59.893
M15
G01X110.995Y-59.893
M16
G05
G00X110.495Y-62.433
M15
G01X110.995Y-62.433
M16
G05
G00X110.495Y-64.973
M15
G01X110.995Y-64.973
M16
G05
G00X110.495Y-67.513
M15
G01X110.995Y-67.513
M16
G05
G00X110.495Y-70.053
M15
G01X110.995Y-70.053
M16
G05
G00X110.495Y-72.593
M15
G01X110.995Y-72.593
M16
G05
G00X110.495Y-75.133
M15
G01X110.995Y-75.133
M16
G05
G00X110.495Y-77.673
M15
G01X110.995Y-77.673
M16
G05
G00X110.495Y-80.213
M15
G01X110.995Y-80.213
M16
G05
G00X110.495Y-82.753
M15
G01X110.995Y-82.753
M16
G05
G00X110.495Y-85.293
M15
G01X110.995Y-85.293
M16
G05
G00X110.495Y-87.833
M15
G01X110.995Y-87.833
M16
G05
G00X110.495Y-90.373
M15
G01X110.995Y-90.373
M16
G05
G00X110.495Y-92.913
M15
G01X110.995Y-92.913
M16
G05
G00X110.495Y-95.453
M15
G01X110.995Y-95.453
M16
G05
G00X110.495Y-97.993
M15
G01X110.995Y-97.993
M16
G05
G00X110.495Y-100.533
M15
G01X110.995Y-100.533
M16
G05
G00X110.495Y-103.073
M15
G01X110.995Y-103.073
M16
G05
G00X110.495Y-105.613
M15
G01X110.995Y-105.613
M16
G05
M30
