%TF.GenerationSoftware,KiCad,Pcbnew,9.0.1+dfsg-1*%
%TF.CreationDate,2025-05-01T11:00:42+02:00*%
%TF.ProjectId,cellular-modem,63656c6c-756c-4617-922d-6d6f64656d2e,rev?*%
%TF.SameCoordinates,Original*%
%TF.FileFunction,Copper,L4,Bot*%
%TF.FilePolarity,Positive*%
%FSLAX46Y46*%
G04 Gerber Fmt 4.6, Leading zero omitted, Abs format (unit mm)*
G04 Created by KiCad (PCBNEW 9.0.1+dfsg-1) date 2025-05-01 11:00:42*
%MOMM*%
%LPD*%
G01*
G04 APERTURE LIST*
G04 Aperture macros list*
%AMRoundRect*
0 Rectangle with rounded corners*
0 $1 Rounding radius*
0 $2 $3 $4 $5 $6 $7 $8 $9 X,Y pos of 4 corners*
0 Add a 4 corners polygon primitive as box body*
4,1,4,$2,$3,$4,$5,$6,$7,$8,$9,$2,$3,0*
0 Add four circle primitives for the rounded corners*
1,1,$1+$1,$2,$3*
1,1,$1+$1,$4,$5*
1,1,$1+$1,$6,$7*
1,1,$1+$1,$8,$9*
0 Add four rect primitives between the rounded corners*
20,1,$1+$1,$2,$3,$4,$5,0*
20,1,$1+$1,$4,$5,$6,$7,0*
20,1,$1+$1,$6,$7,$8,$9,0*
20,1,$1+$1,$8,$9,$2,$3,0*%
G04 Aperture macros list end*
%TA.AperFunction,ComponentPad*%
%ADD10C,2.133600*%
%TD*%
%TA.AperFunction,ComponentPad*%
%ADD11C,1.625600*%
%TD*%
%TA.AperFunction,CastellatedPad*%
%ADD12R,2.540000X2.000000*%
%TD*%
%TA.AperFunction,ComponentPad*%
%ADD13RoundRect,0.250000X0.375000X0.375000X-0.375000X0.375000X-0.375000X-0.375000X0.375000X-0.375000X0*%
%TD*%
%TA.AperFunction,ViaPad*%
%ADD14C,0.600000*%
%TD*%
%TA.AperFunction,Conductor*%
%ADD15C,0.200000*%
%TD*%
%TA.AperFunction,Conductor*%
%ADD16C,0.500000*%
%TD*%
G04 APERTURE END LIST*
D10*
%TO.P,J1,55,GND*%
%TO.N,GND*%
X76611599Y-94188465D03*
D11*
%TO.P,J1,56,GND*%
X101611601Y-94188399D03*
%TD*%
D12*
%TO.P,M1,1,VCC*%
%TO.N,VBAT*%
X67945200Y-37033200D03*
D13*
X69645200Y-37033200D03*
D12*
%TO.P,M1,3*%
%TO.N,1V8*%
X67945200Y-42113200D03*
D13*
X69645200Y-42113200D03*
D12*
%TO.P,M1,4*%
%TO.N,3V3*%
X67945200Y-44653200D03*
D13*
X69645200Y-44653200D03*
D12*
%TO.P,M1,22*%
%TO.N,USIM_VDD*%
X67945200Y-90373200D03*
D13*
X69645200Y-90373200D03*
D12*
%TO.P,M1,23*%
%TO.N,USIM_DATA*%
X67945200Y-92913200D03*
D13*
X69645200Y-92913200D03*
D12*
%TO.P,M1,24*%
%TO.N,USIM_CLK*%
X67945200Y-95453200D03*
D13*
X69645200Y-95453200D03*
D12*
%TO.P,M1,25*%
%TO.N,{slash}USIM_RESET*%
X67945200Y-97993200D03*
D13*
X69645200Y-97993200D03*
D12*
%TO.P,M1,26*%
%TO.N,USIM_VPP*%
X67945200Y-100533200D03*
D13*
X69645200Y-100533200D03*
D12*
%TO.P,M1,27*%
%TO.N,{slash}CLKREQ*%
X67945200Y-103073200D03*
D13*
X69645200Y-103073200D03*
D12*
%TO.P,M1,28,GND*%
%TO.N,GND*%
X67945200Y-105613200D03*
D13*
X69645200Y-105613200D03*
%TO.P,M1,29*%
%TO.N,EN*%
X109045200Y-37033200D03*
D12*
X110745200Y-37033200D03*
D13*
%TO.P,M1,30*%
%TO.N,COEX_UART_RX_3V3*%
X109045200Y-39573200D03*
D12*
X110745200Y-39573200D03*
D13*
%TO.P,M1,31*%
%TO.N,UART_RX_3V3*%
X109045200Y-42113200D03*
D12*
X110745200Y-42113200D03*
D13*
%TO.P,M1,32*%
%TO.N,UART_CTS_3V3*%
X109045200Y-44653200D03*
D12*
X110745200Y-44653200D03*
D13*
%TO.P,M1,33*%
%TO.N,{slash}W_DISABLE_3V3*%
X109045200Y-47193200D03*
D12*
X110745200Y-47193200D03*
D13*
%TO.P,M1,34*%
%TO.N,{slash}DTR_SLEEP_MODE_3V3*%
X109045200Y-49733200D03*
D12*
X110745200Y-49733200D03*
D13*
%TO.P,M1,35*%
%TO.N,PCM_DIN_3V3*%
X109045200Y-52273200D03*
D12*
X110745200Y-52273200D03*
D13*
%TO.P,M1,36*%
%TO.N,{slash}RESET_3V3*%
X109045200Y-54813200D03*
D12*
X110745200Y-54813200D03*
D13*
%TO.P,M1,37*%
%TO.N,UART_TX_3V3*%
X109045200Y-57353200D03*
D12*
X110745200Y-57353200D03*
D13*
%TO.P,M1,38*%
%TO.N,COEX_UART_TX_3V3*%
X109045200Y-59893200D03*
D12*
X110745200Y-59893200D03*
D13*
%TO.P,M1,39*%
%TO.N,{slash}WAKE_3V3*%
X109045200Y-62433200D03*
D12*
X110745200Y-62433200D03*
D13*
%TO.P,M1,40*%
%TO.N,RI_HOST_WAKE_3V3*%
X109045200Y-64973200D03*
D12*
X110745200Y-64973200D03*
D13*
%TO.P,M1,41*%
%TO.N,PCM_DOUT_3V3*%
X109045200Y-67513200D03*
D12*
X110745200Y-67513200D03*
D13*
%TO.P,M1,42*%
%TO.N,PCM_CLK_3V3*%
X109045200Y-70053200D03*
D12*
X110745200Y-70053200D03*
D13*
%TO.P,M1,43*%
%TO.N,PCM_SYNC_3V#*%
X109045200Y-72593200D03*
D12*
X110745200Y-72593200D03*
D13*
%TO.P,M1,44*%
%TO.N,PCM_CLK_DIR*%
X109045200Y-75133200D03*
D12*
X110745200Y-75133200D03*
D13*
%TO.P,M1,45*%
%TO.N,unconnected-(M1-Pad45)*%
X109045200Y-77673200D03*
D12*
X110745200Y-77673200D03*
D13*
%TO.P,M1,46*%
%TO.N,unconnected-(M1-Pad46)*%
X109045200Y-80213200D03*
D12*
X110745200Y-80213200D03*
D13*
%TO.P,M1,47*%
%TO.N,USB_D-*%
X109045200Y-82753200D03*
D12*
X110745200Y-82753200D03*
D13*
%TO.P,M1,48*%
%TO.N,USB_D+*%
X109045200Y-85293200D03*
D12*
X110745200Y-85293200D03*
D13*
%TO.P,M1,49*%
%TO.N,RESERVED_PIN46*%
X109045200Y-87833200D03*
D12*
X110745200Y-87833200D03*
D13*
%TO.P,M1,50*%
%TO.N,USIM_SIM_PRESENT_IN*%
X109045200Y-90373200D03*
D12*
X110745200Y-90373200D03*
D13*
%TO.P,M1,51*%
%TO.N,{slash}LED_WWAN_OC_OUT*%
X109045200Y-92913200D03*
D12*
X110745200Y-92913200D03*
D13*
%TO.P,M1,52*%
%TO.N,I2C_DATA_1V8*%
X109045200Y-95453200D03*
D12*
X110745200Y-95453200D03*
D13*
%TO.P,M1,53*%
%TO.N,I2C_SCL_1V8*%
X109045200Y-97993200D03*
D12*
X110745200Y-97993200D03*
D13*
%TO.P,M1,54*%
%TO.N,PETp0*%
X109045200Y-100533200D03*
D12*
X110745200Y-100533200D03*
D13*
%TO.P,M1,55*%
%TO.N,PERp0*%
X109045200Y-103073200D03*
D12*
X110745200Y-103073200D03*
D13*
%TO.P,M1,56*%
%TO.N,RESERVED_PIN19*%
X109045200Y-105613200D03*
D12*
X110745200Y-105613200D03*
%TD*%
D14*
%TO.N,{slash}CLKREQ*%
X79019400Y-96393000D03*
%TO.N,I2C_DATA_1V8*%
X93095197Y-91910448D03*
%TO.N,GND*%
X94437200Y-100355400D03*
X88260000Y-71470000D03*
X102180000Y-41110000D03*
X95980000Y-69690000D03*
X107800000Y-51600000D03*
X97282000Y-75184000D03*
X84840000Y-81450000D03*
X89850000Y-103130000D03*
X90880000Y-69060000D03*
X78466000Y-77927200D03*
X107670000Y-60400000D03*
X106451400Y-75717400D03*
X86860000Y-100110000D03*
X107790000Y-70540000D03*
X80492600Y-51841400D03*
X107770000Y-68020000D03*
X86868000Y-56896000D03*
X78140000Y-100070000D03*
X107780000Y-62940000D03*
X107740000Y-73080000D03*
X92830000Y-87890000D03*
X70650000Y-89360000D03*
X75031600Y-79654400D03*
X91930000Y-52090000D03*
X99780000Y-100250000D03*
X95896328Y-58405928D03*
X108030000Y-43470000D03*
X77280000Y-96400000D03*
X98090000Y-100270000D03*
X69710000Y-38700000D03*
X106426000Y-87325200D03*
X82010000Y-96310000D03*
X108090000Y-91630000D03*
X70150000Y-99250000D03*
X104825800Y-38633400D03*
X78100000Y-41130000D03*
X98840000Y-100280000D03*
X98400000Y-88120000D03*
X88188800Y-96139000D03*
X87325200Y-91871800D03*
X96510000Y-100230000D03*
X88696800Y-83464400D03*
X100100000Y-55880000D03*
X75380000Y-69770000D03*
X99161600Y-74295000D03*
X107720000Y-65550000D03*
X107700000Y-57820000D03*
X107850000Y-75490000D03*
X103500000Y-104430000D03*
X107890000Y-89070000D03*
X95630000Y-100170000D03*
X88646000Y-100330000D03*
X88310000Y-91840000D03*
X82400000Y-83050000D03*
X70110000Y-94150000D03*
X82530000Y-61080000D03*
X70540000Y-41060000D03*
X96020000Y-77470000D03*
X97300000Y-101040000D03*
X107770000Y-55560000D03*
X82042000Y-76200000D03*
X84251800Y-65201800D03*
X86920000Y-96480000D03*
X81630000Y-100090000D03*
X91669000Y-76479000D03*
X85496400Y-60629800D03*
X108070000Y-46040000D03*
X76150000Y-74740000D03*
X95452600Y-92024200D03*
X95500000Y-55830000D03*
X107770000Y-104020000D03*
X86040000Y-104420000D03*
X107850000Y-38640000D03*
X88265000Y-78105000D03*
X71551800Y-61899800D03*
X80716001Y-80970001D03*
X92040000Y-79950000D03*
X80120000Y-100050000D03*
X84250000Y-39100000D03*
X95670000Y-78390000D03*
X100025200Y-78220001D03*
X80035400Y-96570800D03*
X78280000Y-48680000D03*
X82880200Y-96342200D03*
X92252800Y-100203000D03*
X107720000Y-49130000D03*
X97450000Y-88120000D03*
X78511400Y-88112600D03*
X108220000Y-96710000D03*
X91875218Y-87829782D03*
X73660000Y-39065200D03*
X107590000Y-81030000D03*
X70610000Y-101760000D03*
X70790000Y-91730000D03*
X86080600Y-93573600D03*
X94480000Y-83960000D03*
X70260000Y-96690000D03*
X96550000Y-96630000D03*
X85674200Y-75336400D03*
X107690000Y-86440000D03*
X89662000Y-38963600D03*
X90932000Y-96767600D03*
X108020000Y-94280000D03*
X75530000Y-65950000D03*
X101750000Y-86180000D03*
X82931000Y-93446600D03*
X88849200Y-61722000D03*
X82934028Y-63824428D03*
X75720000Y-48720000D03*
X75940000Y-104420000D03*
X108080000Y-101870000D03*
X75742800Y-81178400D03*
X100620000Y-100290000D03*
X79100000Y-57460000D03*
X70580000Y-43370000D03*
X106299000Y-76454000D03*
X99980000Y-45410000D03*
X91465400Y-86182200D03*
X76740000Y-100110000D03*
X71140000Y-36910000D03*
X102235000Y-73075800D03*
X100152200Y-88493600D03*
X91059000Y-100228400D03*
X107870000Y-41210000D03*
X108030000Y-99290000D03*
X102520000Y-45450000D03*
X73431400Y-57531000D03*
X102890000Y-91430000D03*
X90030000Y-74030000D03*
X71958200Y-104343200D03*
X106470000Y-91510000D03*
X82042000Y-79710000D03*
%TO.N,/PCM_SYNC_1V8_IO*%
X87736390Y-86355210D03*
X90500200Y-92650400D03*
%TO.N,3V3*%
X75320000Y-74300000D03*
X72466200Y-45745400D03*
X84302600Y-77241400D03*
X89662000Y-91948000D03*
X72898000Y-59461400D03*
X104013000Y-76987400D03*
X73609200Y-76758800D03*
X77806600Y-88721221D03*
X73837800Y-88392000D03*
X90213800Y-95478600D03*
%TO.N,I2C_SCL_1V8*%
X92348000Y-91998800D03*
%TO.N,/PCM_DOUT_1V8_OUT*%
X90900200Y-94335600D03*
X90103406Y-87620394D03*
%TO.N,/PCM_CLK_1V8_IO*%
X90855800Y-84505800D03*
X90594162Y-93470858D03*
X92202000Y-80772000D03*
X89246003Y-87350600D03*
%TO.N,USIM_SIM_PRESENT_IN*%
X99339400Y-91998800D03*
%TO.N,USIM_VDD*%
X79984600Y-91770200D03*
%TO.N,/PCM_DIN_1V8_IN*%
X79909801Y-85093707D03*
X92125800Y-93783200D03*
%TO.N,USIM_DATA*%
X80885512Y-91858312D03*
%TO.N,{slash}LED_WWAN_OC_OUT*%
X96910000Y-91730000D03*
%TO.N,/{slash}RESET_1V8_IN*%
X86410800Y-87172800D03*
X81304247Y-86488153D03*
%TO.N,/{slash}W_DISABLE_1V8_IN*%
X80340200Y-87299800D03*
X87274400Y-88315800D03*
%TO.N,{slash}USIM_RESET*%
X82509000Y-91797248D03*
%TO.N,USIM_CLK*%
X81686400Y-91821000D03*
%TO.N,/{slash}DTR_SLEEP_MODE_1V8_IN*%
X81810306Y-87988694D03*
X86385400Y-88401321D03*
%TO.N,/UART_CTS_1V8_IN*%
X80794331Y-94465669D03*
X88912000Y-94488000D03*
%TO.N,USIM_VPP*%
X83350000Y-92090000D03*
%TO.N,1V8*%
X74768000Y-78740000D03*
X85344000Y-78232000D03*
X88315800Y-54483000D03*
X103124000Y-79756000D03*
%TD*%
D15*
%TO.N,{slash}CLKREQ*%
X79019400Y-96912198D02*
X73061598Y-102870000D01*
X73061598Y-102870000D02*
X69366000Y-102870000D01*
X79019400Y-96393000D02*
X79019400Y-96912198D01*
%TO.N,I2C_DATA_1V8*%
X93095197Y-91910448D02*
X94259400Y-93074651D01*
X108620032Y-95250000D02*
X108966000Y-95250000D01*
X93449800Y-98860000D02*
X105010032Y-98860000D01*
X105010032Y-98860000D02*
X108620032Y-95250000D01*
X94259400Y-93074651D02*
X94259400Y-98050400D01*
X94259400Y-98050400D02*
X93449800Y-98860000D01*
%TO.N,GND*%
X71551800Y-59410600D02*
X71551800Y-61899800D01*
D16*
X87325200Y-91871800D02*
X87325200Y-92329000D01*
X87325200Y-92329000D02*
X86080600Y-93573600D01*
D15*
X106451400Y-75717400D02*
X105003600Y-75717400D01*
X88823800Y-83540600D02*
X91465400Y-86182200D01*
D16*
X100279200Y-88620600D02*
X105130600Y-88620600D01*
D15*
X86868000Y-56896000D02*
X86868000Y-59740800D01*
X73431400Y-57531000D02*
X71551800Y-59410600D01*
D16*
X95165376Y-91119940D02*
X95165376Y-91736976D01*
D15*
X102362000Y-73075800D02*
X102235000Y-73075800D01*
X86868000Y-59740800D02*
X88849200Y-61722000D01*
D16*
X82934028Y-63824428D02*
X82934028Y-63884028D01*
X100152200Y-88493600D02*
X100279200Y-88620600D01*
X105130600Y-88620600D02*
X106426000Y-87325200D01*
D15*
X88696800Y-83464400D02*
X88773000Y-83540600D01*
X105003600Y-75717400D02*
X102362000Y-73075800D01*
X88773000Y-83540600D02*
X88823800Y-83540600D01*
D16*
X95165376Y-91736976D02*
X95452600Y-92024200D01*
D15*
X92252800Y-100203000D02*
X94284800Y-100203000D01*
D16*
X82934028Y-63884028D02*
X84251800Y-65201800D01*
D15*
X94284800Y-100203000D02*
X94437200Y-100355400D01*
D16*
X91875218Y-87829782D02*
X95165376Y-91119940D01*
D15*
%TO.N,/PCM_SYNC_1V8_IO*%
X87736390Y-86720390D02*
X90449400Y-89433400D01*
X90449400Y-89433400D02*
X90449400Y-92599600D01*
X87736390Y-86355210D02*
X87736390Y-86720390D01*
X90449400Y-92599600D02*
X90500200Y-92650400D01*
%TO.N,3V3*%
X84302600Y-77241400D02*
X84302600Y-72923400D01*
D16*
X87782400Y-90068400D02*
X89662000Y-91948000D01*
X90213800Y-95478600D02*
X89662000Y-94926800D01*
D15*
X76722000Y-72898000D02*
X84277200Y-72898000D01*
X104013000Y-76987400D02*
X99923600Y-72898000D01*
D16*
X72466200Y-45745400D02*
X70637400Y-45745400D01*
X73609200Y-76758800D02*
X72898000Y-76047600D01*
X70637400Y-45745400D02*
X69545200Y-44653200D01*
D15*
X99923600Y-72898000D02*
X84277200Y-72898000D01*
D16*
X79153779Y-90068400D02*
X87782400Y-90068400D01*
X73837800Y-88392000D02*
X77477379Y-88392000D01*
X77477379Y-88392000D02*
X77806600Y-88721221D01*
X77806600Y-88721221D02*
X79153779Y-90068400D01*
X89662000Y-94926800D02*
X89662000Y-91948000D01*
D15*
X75320000Y-74300000D02*
X76722000Y-72898000D01*
D16*
X72898000Y-76047600D02*
X72898000Y-59461400D01*
D15*
X84302600Y-72923400D02*
X84277200Y-72898000D01*
%TO.N,I2C_SCL_1V8*%
X93065600Y-99212400D02*
X105156000Y-99212400D01*
X105156000Y-99212400D02*
X106375200Y-97993200D01*
X106375200Y-97993200D02*
X108762800Y-97993200D01*
X92348000Y-91998800D02*
X93065600Y-92716400D01*
X108762800Y-97993200D02*
X108966000Y-97790000D01*
X93065600Y-92716400D02*
X93065600Y-99212400D01*
%TO.N,/PCM_DOUT_1V8_OUT*%
X91405000Y-93830800D02*
X90900200Y-94335600D01*
X91405000Y-88921988D02*
X91405000Y-93830800D01*
X90103406Y-87620394D02*
X91405000Y-88921988D01*
%TO.N,/PCM_CLK_1V8_IO*%
X89246003Y-87350600D02*
X89246003Y-87544203D01*
X89246003Y-87544203D02*
X90801800Y-89100000D01*
X90855800Y-82118200D02*
X90855800Y-84505800D01*
X91052600Y-93012420D02*
X90594162Y-93470858D01*
X90801800Y-92170788D02*
X91052600Y-92421588D01*
X91052600Y-92421588D02*
X91052600Y-93012420D01*
X91948000Y-81026000D02*
X90855800Y-82118200D01*
X92202000Y-80772000D02*
X91948000Y-81026000D01*
X90801800Y-89100000D02*
X90801800Y-92170788D01*
%TO.N,USIM_SIM_PRESENT_IN*%
X99339400Y-91998800D02*
X101168200Y-90170000D01*
X101168200Y-90170000D02*
X108966000Y-90170000D01*
%TO.N,USIM_VDD*%
X74824188Y-91084400D02*
X70280400Y-91084400D01*
X79984600Y-91668600D02*
X79629000Y-91313000D01*
X75052788Y-91313000D02*
X74824188Y-91084400D01*
X70280400Y-91084400D02*
X69366000Y-90170000D01*
X79984600Y-91770200D02*
X79984600Y-91668600D01*
X79629000Y-91313000D02*
X75052788Y-91313000D01*
%TO.N,/PCM_DIN_1V8_IN*%
X91795600Y-93453000D02*
X92125800Y-93783200D01*
X88836388Y-86979003D02*
X89017191Y-86798200D01*
X87507578Y-85802810D02*
X87965202Y-85802810D01*
X80955988Y-86055200D02*
X81075435Y-85935753D01*
X88288790Y-86126398D02*
X88288790Y-86612390D01*
X79909801Y-85093707D02*
X80871294Y-86055200D01*
X88288790Y-86612390D02*
X88655403Y-86979003D01*
X81075435Y-85935753D02*
X81533059Y-85935753D01*
X91795600Y-88531376D02*
X91795600Y-93453000D01*
X87965202Y-85802810D02*
X88288790Y-86126398D01*
X88655403Y-86979003D02*
X88836388Y-86979003D01*
X87255188Y-86055200D02*
X87507578Y-85802810D01*
X81533059Y-85935753D02*
X81652506Y-86055200D01*
X89017191Y-86798200D02*
X90062424Y-86798200D01*
X81652506Y-86055200D02*
X87255188Y-86055200D01*
X90062424Y-86798200D02*
X91795600Y-88531376D01*
X80871294Y-86055200D02*
X80955988Y-86055200D01*
%TO.N,USIM_DATA*%
X72704600Y-91665400D02*
X71660000Y-92710000D01*
X78514336Y-91665400D02*
X72704600Y-91665400D01*
X80885512Y-91858312D02*
X80306824Y-92437000D01*
X71660000Y-92710000D02*
X69366000Y-92710000D01*
X79285936Y-92437000D02*
X78514336Y-91665400D01*
X80306824Y-92437000D02*
X79285936Y-92437000D01*
%TO.N,{slash}LED_WWAN_OC_OUT*%
X96910000Y-91730000D02*
X97890000Y-92710000D01*
X97890000Y-92710000D02*
X108966000Y-92710000D01*
%TO.N,/{slash}RESET_1V8_IN*%
X86156800Y-87426800D02*
X82242894Y-87426800D01*
X82242894Y-87426800D02*
X81304247Y-86488153D01*
X86410800Y-87172800D02*
X86156800Y-87426800D01*
%TO.N,/{slash}W_DISABLE_1V8_IN*%
X86636479Y-88953721D02*
X81994121Y-88953721D01*
X81994121Y-88953721D02*
X80340200Y-87299800D01*
X87274400Y-88315800D02*
X86636479Y-88953721D01*
%TO.N,{slash}USIM_RESET*%
X82509000Y-91797248D02*
X81164448Y-93141800D01*
X70866000Y-97993200D02*
X69545200Y-97993200D01*
X71348600Y-97510600D02*
X70866000Y-97993200D01*
X73329800Y-92430600D02*
X71241600Y-94518800D01*
X69636000Y-97790000D02*
X69366000Y-97790000D01*
X71241600Y-97403600D02*
X71348600Y-97510600D01*
X71241600Y-94518800D02*
X71241600Y-97403600D01*
X81164448Y-93141800D02*
X78994000Y-93141800D01*
X78282800Y-92430600D02*
X73329800Y-92430600D01*
X78994000Y-93141800D02*
X78282800Y-92430600D01*
%TO.N,USIM_CLK*%
X79139968Y-92789400D02*
X78368368Y-92017800D01*
X81686400Y-91821000D02*
X81686400Y-91838636D01*
X78368368Y-92017800D02*
X73234600Y-92017800D01*
X70002400Y-95250000D02*
X69366000Y-95250000D01*
X73234600Y-92017800D02*
X70002400Y-95250000D01*
X81686400Y-91838636D02*
X80735636Y-92789400D01*
X80735636Y-92789400D02*
X79139968Y-92789400D01*
%TO.N,/{slash}DTR_SLEEP_MODE_1V8_IN*%
X85972773Y-87988694D02*
X86385400Y-88401321D01*
X81810306Y-87988694D02*
X85972773Y-87988694D01*
%TO.N,/UART_CTS_1V8_IN*%
X80794331Y-94465669D02*
X88889669Y-94465669D01*
X88889669Y-94465669D02*
X88912000Y-94488000D01*
%TO.N,USIM_VPP*%
X73475768Y-92783000D02*
X72059800Y-94198968D01*
X72059800Y-94198968D02*
X72059800Y-98288600D01*
X78867000Y-93548200D02*
X78101800Y-92783000D01*
X81891800Y-93548200D02*
X78867000Y-93548200D01*
X83350000Y-92090000D02*
X81891800Y-93548200D01*
X78101800Y-92783000D02*
X73475768Y-92783000D01*
X69815200Y-100533200D02*
X69545200Y-100533200D01*
X69600800Y-100330000D02*
X69366000Y-100330000D01*
X72059800Y-98288600D02*
X69815200Y-100533200D01*
D16*
%TO.N,1V8*%
X74768000Y-78740000D02*
X84836000Y-78740000D01*
X104715400Y-76696456D02*
X104715400Y-78164600D01*
X86842600Y-53771800D02*
X86842600Y-49542600D01*
X88315800Y-54483000D02*
X88315800Y-55245000D01*
X88315800Y-55245000D02*
X90576400Y-57505600D01*
X90576400Y-57505600D02*
X90576400Y-62557456D01*
X86842600Y-49542600D02*
X79413200Y-42113200D01*
X90576400Y-62557456D02*
X104715400Y-76696456D01*
X84836000Y-78740000D02*
X85344000Y-78232000D01*
X102616000Y-79248000D02*
X103124000Y-79756000D01*
X86360000Y-79248000D02*
X102616000Y-79248000D01*
X104715400Y-78164600D02*
X103124000Y-79756000D01*
X88315800Y-55245000D02*
X86842600Y-53771800D01*
X85344000Y-78232000D02*
X86360000Y-79248000D01*
X79413200Y-42113200D02*
X69545200Y-42113200D01*
%TD*%
%TA.AperFunction,Conductor*%
%TO.N,GND*%
G36*
X75877372Y-93102407D02*
G01*
X75889185Y-93112496D01*
X76239509Y-93462820D01*
X76226594Y-93468171D01*
X76093469Y-93557122D01*
X75980256Y-93670335D01*
X75891305Y-93803460D01*
X75885954Y-93816375D01*
X75555892Y-93486313D01*
X75528131Y-93524523D01*
X75437608Y-93702186D01*
X75437606Y-93702189D01*
X75375992Y-93891816D01*
X75375991Y-93891820D01*
X75344799Y-94088762D01*
X75344799Y-94288167D01*
X75375991Y-94485109D01*
X75375992Y-94485113D01*
X75437606Y-94674740D01*
X75437608Y-94674743D01*
X75528134Y-94852412D01*
X75528138Y-94852418D01*
X75555891Y-94890616D01*
X75885954Y-94560552D01*
X75891305Y-94573470D01*
X75980256Y-94706595D01*
X76093469Y-94819808D01*
X76226594Y-94908759D01*
X76239508Y-94914108D01*
X75909446Y-95244171D01*
X75947646Y-95271925D01*
X75947651Y-95271929D01*
X76125320Y-95362455D01*
X76125323Y-95362457D01*
X76314950Y-95424071D01*
X76314954Y-95424072D01*
X76511897Y-95455265D01*
X76711301Y-95455265D01*
X76908243Y-95424072D01*
X76908247Y-95424071D01*
X77097874Y-95362457D01*
X77097877Y-95362455D01*
X77275540Y-95271932D01*
X77275548Y-95271927D01*
X77313750Y-95244171D01*
X76983688Y-94914109D01*
X76996604Y-94908759D01*
X77129729Y-94819808D01*
X77242942Y-94706595D01*
X77331893Y-94573470D01*
X77337243Y-94560554D01*
X77667305Y-94890616D01*
X77695061Y-94852414D01*
X77695066Y-94852406D01*
X77785589Y-94674743D01*
X77785591Y-94674740D01*
X77847205Y-94485113D01*
X77847206Y-94485109D01*
X77878399Y-94288167D01*
X77878399Y-94088762D01*
X77847206Y-93891820D01*
X77847205Y-93891816D01*
X77785591Y-93702189D01*
X77785589Y-93702186D01*
X77695063Y-93524517D01*
X77695059Y-93524512D01*
X77667305Y-93486312D01*
X77337242Y-93816374D01*
X77331893Y-93803460D01*
X77242942Y-93670335D01*
X77129729Y-93557122D01*
X76996604Y-93468171D01*
X76983686Y-93462820D01*
X77334012Y-93112496D01*
X77388529Y-93084719D01*
X77404016Y-93083500D01*
X77936321Y-93083500D01*
X77994512Y-93102407D01*
X78006325Y-93112496D01*
X78626540Y-93732711D01*
X78626539Y-93732711D01*
X78682489Y-93788660D01*
X78751007Y-93828219D01*
X78751011Y-93828221D01*
X78827435Y-93848699D01*
X78827437Y-93848700D01*
X80492479Y-93848700D01*
X80550670Y-93867607D01*
X80586634Y-93917107D01*
X80586634Y-93978293D01*
X80550670Y-94027793D01*
X80541984Y-94033433D01*
X80525082Y-94043192D01*
X80487018Y-94065168D01*
X80393827Y-94158359D01*
X80327940Y-94272478D01*
X80308870Y-94343647D01*
X80293831Y-94399777D01*
X80293831Y-94531561D01*
X80314525Y-94608793D01*
X80327940Y-94658859D01*
X80393827Y-94772978D01*
X80393829Y-94772980D01*
X80393831Y-94772983D01*
X80487017Y-94866169D01*
X80487019Y-94866170D01*
X80487021Y-94866172D01*
X80601141Y-94932059D01*
X80601139Y-94932059D01*
X80601143Y-94932060D01*
X80601145Y-94932061D01*
X80728439Y-94966169D01*
X80728441Y-94966169D01*
X80860221Y-94966169D01*
X80860223Y-94966169D01*
X80987517Y-94932061D01*
X80987519Y-94932059D01*
X80987521Y-94932059D01*
X81101640Y-94866172D01*
X81101640Y-94866171D01*
X81101645Y-94866169D01*
X81172650Y-94795163D01*
X81227165Y-94767388D01*
X81242652Y-94766169D01*
X88441348Y-94766169D01*
X88499539Y-94785076D01*
X88511352Y-94795165D01*
X88511498Y-94795311D01*
X88511500Y-94795314D01*
X88604686Y-94888500D01*
X88604688Y-94888501D01*
X88604690Y-94888503D01*
X88718810Y-94954390D01*
X88718808Y-94954390D01*
X88718812Y-94954391D01*
X88718814Y-94954392D01*
X88846108Y-94988500D01*
X88846110Y-94988500D01*
X88977890Y-94988500D01*
X88977892Y-94988500D01*
X89100826Y-94955560D01*
X89116480Y-94956380D01*
X89131623Y-94952323D01*
X89146260Y-94957941D01*
X89161923Y-94958762D01*
X89174109Y-94968630D01*
X89188745Y-94974248D01*
X89197285Y-94987397D01*
X89209473Y-94997267D01*
X89222071Y-95025561D01*
X89229816Y-95054462D01*
X89229817Y-95054468D01*
X89242198Y-95100681D01*
X89242203Y-95100692D01*
X89301507Y-95203409D01*
X89301511Y-95203414D01*
X89720424Y-95622328D01*
X89746045Y-95666703D01*
X89747406Y-95671782D01*
X89747409Y-95671789D01*
X89813296Y-95785909D01*
X89813298Y-95785911D01*
X89813300Y-95785914D01*
X89906486Y-95879100D01*
X89906488Y-95879101D01*
X89906490Y-95879103D01*
X90020610Y-95944990D01*
X90020608Y-95944990D01*
X90020612Y-95944991D01*
X90020614Y-95944992D01*
X90147908Y-95979100D01*
X90147910Y-95979100D01*
X90279690Y-95979100D01*
X90279692Y-95979100D01*
X90406986Y-95944992D01*
X90406988Y-95944990D01*
X90406990Y-95944990D01*
X90521109Y-95879103D01*
X90521109Y-95879102D01*
X90521114Y-95879100D01*
X90614300Y-95785914D01*
X90680192Y-95671786D01*
X90714300Y-95544492D01*
X90714300Y-95412708D01*
X90680192Y-95285414D01*
X90680190Y-95285411D01*
X90680190Y-95285409D01*
X90614303Y-95171290D01*
X90614301Y-95171288D01*
X90614300Y-95171286D01*
X90521114Y-95078100D01*
X90521111Y-95078098D01*
X90521109Y-95078096D01*
X90406989Y-95012209D01*
X90406982Y-95012206D01*
X90401903Y-95010845D01*
X90357527Y-94985224D01*
X90141496Y-94769193D01*
X90113719Y-94714676D01*
X90112500Y-94699189D01*
X90112500Y-93936017D01*
X90131407Y-93877826D01*
X90180907Y-93841862D01*
X90242093Y-93841862D01*
X90261106Y-93850342D01*
X90272331Y-93856841D01*
X90286848Y-93871358D01*
X90400976Y-93937250D01*
X90420018Y-93942352D01*
X90431351Y-93948914D01*
X90443470Y-93962407D01*
X90458681Y-93972285D01*
X90463412Y-93984610D01*
X90472236Y-93994434D01*
X90474109Y-94012475D01*
X90480609Y-94029406D01*
X90477299Y-94043192D01*
X90478556Y-94055292D01*
X90471447Y-94067568D01*
X90467482Y-94084089D01*
X90433808Y-94142412D01*
X90421486Y-94188399D01*
X90399700Y-94269708D01*
X90399700Y-94401492D01*
X90406286Y-94426071D01*
X90433809Y-94528790D01*
X90499696Y-94642909D01*
X90499698Y-94642911D01*
X90499700Y-94642914D01*
X90592886Y-94736100D01*
X90592888Y-94736101D01*
X90592890Y-94736103D01*
X90707010Y-94801990D01*
X90707008Y-94801990D01*
X90707012Y-94801991D01*
X90707014Y-94801992D01*
X90834308Y-94836100D01*
X90834310Y-94836100D01*
X90966090Y-94836100D01*
X90966092Y-94836100D01*
X91093386Y-94801992D01*
X91093388Y-94801990D01*
X91093390Y-94801990D01*
X91207509Y-94736103D01*
X91207509Y-94736102D01*
X91207514Y-94736100D01*
X91300700Y-94642914D01*
X91305934Y-94633849D01*
X91366590Y-94528790D01*
X91366590Y-94528788D01*
X91366592Y-94528786D01*
X91400700Y-94401492D01*
X91400700Y-94301077D01*
X91419607Y-94242886D01*
X91429696Y-94231074D01*
X91502415Y-94158355D01*
X91578162Y-94082608D01*
X91632676Y-94054832D01*
X91693108Y-94064403D01*
X91719929Y-94086707D01*
X91720712Y-94085925D01*
X91725298Y-94090511D01*
X91725300Y-94090514D01*
X91818486Y-94183700D01*
X91818488Y-94183701D01*
X91818490Y-94183703D01*
X91932610Y-94249590D01*
X91932608Y-94249590D01*
X91932612Y-94249591D01*
X91932614Y-94249592D01*
X92059908Y-94283700D01*
X92059910Y-94283700D01*
X92191690Y-94283700D01*
X92191692Y-94283700D01*
X92318986Y-94249592D01*
X92318988Y-94249590D01*
X92318990Y-94249590D01*
X92433109Y-94183703D01*
X92433109Y-94183702D01*
X92433114Y-94183700D01*
X92526300Y-94090514D01*
X92528040Y-94087500D01*
X92580364Y-93996874D01*
X92625833Y-93955933D01*
X92686683Y-93949537D01*
X92739671Y-93980130D01*
X92764558Y-94036026D01*
X92765100Y-94046374D01*
X92765100Y-99251964D01*
X92785578Y-99328388D01*
X92785580Y-99328392D01*
X92820368Y-99388646D01*
X92825140Y-99396911D01*
X92881089Y-99452860D01*
X92881091Y-99452861D01*
X92949607Y-99492419D01*
X92949611Y-99492421D01*
X93026035Y-99512899D01*
X93026037Y-99512900D01*
X93026038Y-99512900D01*
X105195563Y-99512900D01*
X105195563Y-99512899D01*
X105271989Y-99492421D01*
X105340511Y-99452860D01*
X105396460Y-99396911D01*
X106470675Y-98322696D01*
X106525192Y-98294919D01*
X106540679Y-98293700D01*
X108120700Y-98293700D01*
X108178891Y-98312607D01*
X108214855Y-98362107D01*
X108219700Y-98392700D01*
X108219700Y-98422474D01*
X108222553Y-98452894D01*
X108222555Y-98452903D01*
X108267407Y-98581083D01*
X108348045Y-98690344D01*
X108348047Y-98690346D01*
X108348050Y-98690350D01*
X108348053Y-98690352D01*
X108348055Y-98690354D01*
X108457316Y-98770992D01*
X108457317Y-98770992D01*
X108457318Y-98770993D01*
X108585501Y-98815846D01*
X108615925Y-98818699D01*
X108615927Y-98818700D01*
X108615934Y-98818700D01*
X109175700Y-98818700D01*
X109233891Y-98837607D01*
X109269855Y-98887107D01*
X109274700Y-98917700D01*
X109274700Y-99012946D01*
X109274701Y-99012958D01*
X109286332Y-99071427D01*
X109286333Y-99071431D01*
X109330648Y-99137752D01*
X109330651Y-99137754D01*
X109395200Y-99180885D01*
X109433079Y-99228935D01*
X109435481Y-99290073D01*
X109401488Y-99340947D01*
X109395200Y-99345515D01*
X109330651Y-99388645D01*
X109330645Y-99388651D01*
X109286334Y-99454966D01*
X109286332Y-99454972D01*
X109274701Y-99513441D01*
X109274700Y-99513453D01*
X109274700Y-99608700D01*
X109255793Y-99666891D01*
X109206293Y-99702855D01*
X109175700Y-99707700D01*
X108615925Y-99707700D01*
X108585505Y-99710553D01*
X108585496Y-99710555D01*
X108457316Y-99755407D01*
X108348055Y-99836045D01*
X108348045Y-99836055D01*
X108267407Y-99945316D01*
X108222555Y-100073496D01*
X108222553Y-100073505D01*
X108219700Y-100103925D01*
X108219700Y-100962474D01*
X108222553Y-100992894D01*
X108222555Y-100992903D01*
X108267407Y-101121083D01*
X108348045Y-101230344D01*
X108348047Y-101230346D01*
X108348050Y-101230350D01*
X108348053Y-101230352D01*
X108348055Y-101230354D01*
X108457316Y-101310992D01*
X108457317Y-101310992D01*
X108457318Y-101310993D01*
X108585501Y-101355846D01*
X108615925Y-101358699D01*
X108615927Y-101358700D01*
X108615934Y-101358700D01*
X109175700Y-101358700D01*
X109233891Y-101377607D01*
X109269855Y-101427107D01*
X109274700Y-101457700D01*
X109274700Y-101552946D01*
X109274701Y-101552958D01*
X109286332Y-101611427D01*
X109286333Y-101611431D01*
X109330648Y-101677752D01*
X109330651Y-101677754D01*
X109395200Y-101720885D01*
X109433079Y-101768935D01*
X109435481Y-101830073D01*
X109401488Y-101880947D01*
X109395200Y-101885515D01*
X109330651Y-101928645D01*
X109330645Y-101928651D01*
X109286334Y-101994966D01*
X109286332Y-101994972D01*
X109274701Y-102053441D01*
X109274700Y-102053453D01*
X109274700Y-102148700D01*
X109255793Y-102206891D01*
X109206293Y-102242855D01*
X109175700Y-102247700D01*
X108615925Y-102247700D01*
X108585505Y-102250553D01*
X108585496Y-102250555D01*
X108457316Y-102295407D01*
X108348055Y-102376045D01*
X108348045Y-102376055D01*
X108267407Y-102485316D01*
X108222555Y-102613496D01*
X108222553Y-102613505D01*
X108219700Y-102643925D01*
X108219700Y-103502474D01*
X108222553Y-103532894D01*
X108222555Y-103532903D01*
X108267407Y-103661083D01*
X108348045Y-103770344D01*
X108348047Y-103770346D01*
X108348050Y-103770350D01*
X108348053Y-103770352D01*
X108348055Y-103770354D01*
X108457316Y-103850992D01*
X108457317Y-103850992D01*
X108457318Y-103850993D01*
X108585501Y-103895846D01*
X108615925Y-103898699D01*
X108615927Y-103898700D01*
X108615934Y-103898700D01*
X109175700Y-103898700D01*
X109233891Y-103917607D01*
X109269855Y-103967107D01*
X109274700Y-103997700D01*
X109274700Y-104092946D01*
X109274701Y-104092958D01*
X109286332Y-104151427D01*
X109286333Y-104151431D01*
X109330648Y-104217752D01*
X109330651Y-104217754D01*
X109395200Y-104260885D01*
X109433079Y-104308935D01*
X109435481Y-104370073D01*
X109401488Y-104420947D01*
X109395200Y-104425515D01*
X109330651Y-104468645D01*
X109330645Y-104468651D01*
X109286334Y-104534966D01*
X109286332Y-104534972D01*
X109274701Y-104593441D01*
X109274700Y-104593453D01*
X109274700Y-104688700D01*
X109255793Y-104746891D01*
X109206293Y-104782855D01*
X109175700Y-104787700D01*
X108615925Y-104787700D01*
X108585505Y-104790553D01*
X108585496Y-104790555D01*
X108457316Y-104835407D01*
X108348055Y-104916045D01*
X108348045Y-104916055D01*
X108267407Y-105025316D01*
X108222555Y-105153496D01*
X108222553Y-105153505D01*
X108219700Y-105183925D01*
X108219700Y-106042474D01*
X108222553Y-106072894D01*
X108222555Y-106072903D01*
X108267406Y-106201081D01*
X108284995Y-106224913D01*
X108304336Y-106282961D01*
X108285864Y-106341292D01*
X108236634Y-106377624D01*
X108205339Y-106382701D01*
X70484439Y-106382701D01*
X70426248Y-106363794D01*
X70390284Y-106314294D01*
X70390284Y-106253108D01*
X70404784Y-106224912D01*
X70422545Y-106200847D01*
X70467349Y-106072801D01*
X70470199Y-106042411D01*
X70470199Y-105183996D01*
X70467349Y-105153595D01*
X70465018Y-105146933D01*
X70465017Y-105146933D01*
X70020200Y-105591750D01*
X70020200Y-105563830D01*
X69994644Y-105468455D01*
X69945275Y-105382945D01*
X69875455Y-105313125D01*
X69789945Y-105263756D01*
X69694570Y-105238200D01*
X69666646Y-105238200D01*
X70111465Y-104793381D01*
X70111465Y-104793380D01*
X70104804Y-104791050D01*
X70104805Y-104791050D01*
X70074411Y-104788200D01*
X69514200Y-104788200D01*
X69456009Y-104769293D01*
X69420045Y-104719793D01*
X69415200Y-104689200D01*
X69415200Y-104593502D01*
X69415199Y-104593499D01*
X69403596Y-104535163D01*
X69359393Y-104469010D01*
X69359388Y-104469005D01*
X69294750Y-104425815D01*
X69256871Y-104377765D01*
X69254469Y-104316627D01*
X69288462Y-104265753D01*
X69294738Y-104261193D01*
X69359752Y-104217752D01*
X69404067Y-104151431D01*
X69415700Y-104092948D01*
X69415700Y-103997700D01*
X69434607Y-103939509D01*
X69484107Y-103903545D01*
X69514700Y-103898700D01*
X70074473Y-103898700D01*
X70074473Y-103898699D01*
X70104899Y-103895846D01*
X70233082Y-103850993D01*
X70342350Y-103770350D01*
X70422993Y-103661082D01*
X70467846Y-103532899D01*
X70470699Y-103502473D01*
X70470700Y-103502473D01*
X70470700Y-103269500D01*
X70489607Y-103211309D01*
X70539107Y-103175345D01*
X70569700Y-103170500D01*
X73101161Y-103170500D01*
X73101161Y-103170499D01*
X73177587Y-103150021D01*
X73246109Y-103110460D01*
X73302058Y-103054511D01*
X79259860Y-97096709D01*
X79299421Y-97028187D01*
X79319900Y-96951760D01*
X79319900Y-96841321D01*
X79338807Y-96783130D01*
X79348890Y-96771323D01*
X79419900Y-96700314D01*
X79453529Y-96642067D01*
X79485790Y-96586190D01*
X79485790Y-96586188D01*
X79485792Y-96586186D01*
X79519900Y-96458892D01*
X79519900Y-96327108D01*
X79485792Y-96199814D01*
X79485790Y-96199811D01*
X79485790Y-96199809D01*
X79419903Y-96085690D01*
X79419901Y-96085688D01*
X79419900Y-96085686D01*
X79326714Y-95992500D01*
X79326711Y-95992498D01*
X79326709Y-95992496D01*
X79212589Y-95926609D01*
X79212591Y-95926609D01*
X79161404Y-95912894D01*
X79085292Y-95892500D01*
X78953508Y-95892500D01*
X78877396Y-95912894D01*
X78826209Y-95926609D01*
X78712090Y-95992496D01*
X78618896Y-96085690D01*
X78553009Y-96199809D01*
X78553008Y-96199814D01*
X78518900Y-96327108D01*
X78518900Y-96458892D01*
X78522669Y-96472958D01*
X78553009Y-96586190D01*
X78618896Y-96700309D01*
X78618898Y-96700311D01*
X78618900Y-96700314D01*
X78642603Y-96724017D01*
X78670379Y-96778532D01*
X78660808Y-96838964D01*
X78642602Y-96864023D01*
X72966123Y-102540504D01*
X72911606Y-102568281D01*
X72896119Y-102569500D01*
X70522694Y-102569500D01*
X70464503Y-102550593D01*
X70429250Y-102503199D01*
X70422992Y-102485315D01*
X70342354Y-102376055D01*
X70342352Y-102376053D01*
X70342350Y-102376050D01*
X70342346Y-102376047D01*
X70342344Y-102376045D01*
X70233083Y-102295407D01*
X70104903Y-102250555D01*
X70104894Y-102250553D01*
X70074474Y-102247700D01*
X70074466Y-102247700D01*
X69514700Y-102247700D01*
X69456509Y-102228793D01*
X69420545Y-102179293D01*
X69415700Y-102148700D01*
X69415700Y-102053453D01*
X69415698Y-102053441D01*
X69412911Y-102039431D01*
X69404067Y-101994969D01*
X69359752Y-101928648D01*
X69295197Y-101885513D01*
X69257320Y-101837465D01*
X69254918Y-101776327D01*
X69288911Y-101725454D01*
X69295188Y-101720892D01*
X69359752Y-101677752D01*
X69404067Y-101611431D01*
X69415700Y-101552948D01*
X69415700Y-101457700D01*
X69434607Y-101399509D01*
X69484107Y-101363545D01*
X69514700Y-101358700D01*
X70074473Y-101358700D01*
X70074473Y-101358699D01*
X70104899Y-101355846D01*
X70233082Y-101310993D01*
X70342350Y-101230350D01*
X70422993Y-101121082D01*
X70467846Y-100992899D01*
X70470699Y-100962473D01*
X70470700Y-100962473D01*
X70470700Y-100343678D01*
X70489607Y-100285487D01*
X70499690Y-100273680D01*
X72300260Y-98473111D01*
X72311927Y-98452903D01*
X72339820Y-98404592D01*
X72339820Y-98404590D01*
X72339822Y-98404588D01*
X72360300Y-98328162D01*
X72360300Y-98249038D01*
X72360300Y-94364447D01*
X72379207Y-94306256D01*
X72389296Y-94294443D01*
X73571243Y-93112496D01*
X73625760Y-93084719D01*
X73641247Y-93083500D01*
X75819181Y-93083500D01*
X75877372Y-93102407D01*
G37*
%TD.AperFunction*%
%TA.AperFunction,Conductor*%
G36*
X71705245Y-97675668D02*
G01*
X71748510Y-97718933D01*
X71759300Y-97763878D01*
X71759300Y-98123120D01*
X71740393Y-98181311D01*
X71730304Y-98193124D01*
X70228871Y-99694556D01*
X70174354Y-99722333D01*
X70126171Y-99717997D01*
X70118645Y-99715363D01*
X70104899Y-99710554D01*
X70104897Y-99710553D01*
X70104898Y-99710553D01*
X70074474Y-99707700D01*
X70074466Y-99707700D01*
X69514700Y-99707700D01*
X69456509Y-99688793D01*
X69420545Y-99639293D01*
X69415700Y-99608700D01*
X69415700Y-99513453D01*
X69415698Y-99513441D01*
X69411516Y-99492419D01*
X69404067Y-99454969D01*
X69359752Y-99388648D01*
X69295197Y-99345513D01*
X69257320Y-99297465D01*
X69254918Y-99236327D01*
X69288911Y-99185454D01*
X69295188Y-99180892D01*
X69359752Y-99137752D01*
X69404067Y-99071431D01*
X69415700Y-99012948D01*
X69415700Y-98917700D01*
X69434607Y-98859509D01*
X69484107Y-98823545D01*
X69514700Y-98818700D01*
X70074473Y-98818700D01*
X70074473Y-98818699D01*
X70104899Y-98815846D01*
X70233082Y-98770993D01*
X70342350Y-98690350D01*
X70422993Y-98581082D01*
X70467846Y-98452899D01*
X70470699Y-98422473D01*
X70470700Y-98422473D01*
X70470700Y-98392700D01*
X70489607Y-98334509D01*
X70539107Y-98298545D01*
X70569700Y-98293700D01*
X70905563Y-98293700D01*
X70905563Y-98293699D01*
X70981989Y-98273221D01*
X71050511Y-98233660D01*
X71091047Y-98193124D01*
X71106461Y-98177711D01*
X71590296Y-97693875D01*
X71644813Y-97666097D01*
X71705245Y-97675668D01*
G37*
%TD.AperFunction*%
%TA.AperFunction,Conductor*%
G36*
X108220595Y-36268655D02*
G01*
X108236634Y-36268776D01*
X108248958Y-36277871D01*
X108263530Y-36282606D01*
X108272959Y-36295584D01*
X108285864Y-36305108D01*
X108290488Y-36319710D01*
X108299494Y-36332106D01*
X108299494Y-36348148D01*
X108304336Y-36363439D01*
X108299494Y-36377971D01*
X108299494Y-36393292D01*
X108284995Y-36421487D01*
X108267406Y-36445318D01*
X108222555Y-36573496D01*
X108222553Y-36573505D01*
X108219700Y-36603925D01*
X108219700Y-37462474D01*
X108222553Y-37492894D01*
X108222555Y-37492903D01*
X108267407Y-37621083D01*
X108348045Y-37730344D01*
X108348047Y-37730346D01*
X108348050Y-37730350D01*
X108348053Y-37730352D01*
X108348055Y-37730354D01*
X108457316Y-37810992D01*
X108457317Y-37810992D01*
X108457318Y-37810993D01*
X108585501Y-37855846D01*
X108615925Y-37858699D01*
X108615927Y-37858700D01*
X108615934Y-37858700D01*
X109175700Y-37858700D01*
X109233891Y-37877607D01*
X109269855Y-37927107D01*
X109274700Y-37957700D01*
X109274700Y-38052946D01*
X109274701Y-38052958D01*
X109286332Y-38111427D01*
X109286333Y-38111431D01*
X109330648Y-38177752D01*
X109330651Y-38177754D01*
X109395200Y-38220885D01*
X109433079Y-38268935D01*
X109435481Y-38330073D01*
X109401488Y-38380947D01*
X109395200Y-38385515D01*
X109330651Y-38428645D01*
X109330645Y-38428651D01*
X109286334Y-38494966D01*
X109286332Y-38494972D01*
X109274701Y-38553441D01*
X109274700Y-38553453D01*
X109274700Y-38648700D01*
X109255793Y-38706891D01*
X109206293Y-38742855D01*
X109175700Y-38747700D01*
X108615925Y-38747700D01*
X108585505Y-38750553D01*
X108585496Y-38750555D01*
X108457316Y-38795407D01*
X108348055Y-38876045D01*
X108348045Y-38876055D01*
X108267407Y-38985316D01*
X108222555Y-39113496D01*
X108222553Y-39113505D01*
X108219700Y-39143925D01*
X108219700Y-40002474D01*
X108222553Y-40032894D01*
X108222555Y-40032903D01*
X108267407Y-40161083D01*
X108348045Y-40270344D01*
X108348047Y-40270346D01*
X108348050Y-40270350D01*
X108348053Y-40270352D01*
X108348055Y-40270354D01*
X108457316Y-40350992D01*
X108457317Y-40350992D01*
X108457318Y-40350993D01*
X108585501Y-40395846D01*
X108615925Y-40398699D01*
X108615927Y-40398700D01*
X108615934Y-40398700D01*
X109175700Y-40398700D01*
X109233891Y-40417607D01*
X109269855Y-40467107D01*
X109274700Y-40497700D01*
X109274700Y-40592946D01*
X109274701Y-40592958D01*
X109286332Y-40651427D01*
X109286333Y-40651431D01*
X109330648Y-40717752D01*
X109330651Y-40717754D01*
X109395200Y-40760885D01*
X109433079Y-40808935D01*
X109435481Y-40870073D01*
X109401488Y-40920947D01*
X109395200Y-40925515D01*
X109330651Y-40968645D01*
X109330645Y-40968651D01*
X109286334Y-41034966D01*
X109286332Y-41034972D01*
X109274701Y-41093441D01*
X109274700Y-41093453D01*
X109274700Y-41188700D01*
X109255793Y-41246891D01*
X109206293Y-41282855D01*
X109175700Y-41287700D01*
X108615925Y-41287700D01*
X108585505Y-41290553D01*
X108585496Y-41290555D01*
X108457316Y-41335407D01*
X108348055Y-41416045D01*
X108348045Y-41416055D01*
X108267407Y-41525316D01*
X108222555Y-41653496D01*
X108222553Y-41653505D01*
X108219700Y-41683925D01*
X108219700Y-42542474D01*
X108222553Y-42572894D01*
X108222555Y-42572903D01*
X108267407Y-42701083D01*
X108348045Y-42810344D01*
X108348047Y-42810346D01*
X108348050Y-42810350D01*
X108348053Y-42810352D01*
X108348055Y-42810354D01*
X108457316Y-42890992D01*
X108457317Y-42890992D01*
X108457318Y-42890993D01*
X108585501Y-42935846D01*
X108615925Y-42938699D01*
X108615927Y-42938700D01*
X108615934Y-42938700D01*
X109175700Y-42938700D01*
X109233891Y-42957607D01*
X109269855Y-43007107D01*
X109274700Y-43037700D01*
X109274700Y-43132946D01*
X109274701Y-43132958D01*
X109286332Y-43191427D01*
X109286334Y-43191433D01*
X109296442Y-43206560D01*
X109330648Y-43257752D01*
X109330651Y-43257754D01*
X109395200Y-43300885D01*
X109433079Y-43348935D01*
X109435481Y-43410073D01*
X109401488Y-43460947D01*
X109395200Y-43465515D01*
X109330651Y-43508645D01*
X109330645Y-43508651D01*
X109286334Y-43574966D01*
X109286332Y-43574972D01*
X109274701Y-43633441D01*
X109274700Y-43633453D01*
X109274700Y-43728700D01*
X109255793Y-43786891D01*
X109206293Y-43822855D01*
X109175700Y-43827700D01*
X108615925Y-43827700D01*
X108585505Y-43830553D01*
X108585496Y-43830555D01*
X108457316Y-43875407D01*
X108348055Y-43956045D01*
X108348045Y-43956055D01*
X108267407Y-44065316D01*
X108222555Y-44193496D01*
X108222553Y-44193505D01*
X108219700Y-44223925D01*
X108219700Y-45082474D01*
X108222553Y-45112894D01*
X108222555Y-45112903D01*
X108267407Y-45241083D01*
X108348045Y-45350344D01*
X108348047Y-45350346D01*
X108348050Y-45350350D01*
X108348053Y-45350352D01*
X108348055Y-45350354D01*
X108457316Y-45430992D01*
X108457317Y-45430992D01*
X108457318Y-45430993D01*
X108585501Y-45475846D01*
X108615925Y-45478699D01*
X108615927Y-45478700D01*
X108615934Y-45478700D01*
X109175700Y-45478700D01*
X109233891Y-45497607D01*
X109269855Y-45547107D01*
X109274700Y-45577700D01*
X109274700Y-45672946D01*
X109274701Y-45672958D01*
X109286332Y-45731427D01*
X109286333Y-45731431D01*
X109330648Y-45797752D01*
X109330651Y-45797754D01*
X109395200Y-45840885D01*
X109433079Y-45888935D01*
X109435481Y-45950073D01*
X109401488Y-46000947D01*
X109395200Y-46005515D01*
X109330651Y-46048645D01*
X109330645Y-46048651D01*
X109286334Y-46114966D01*
X109286332Y-46114972D01*
X109274701Y-46173441D01*
X109274700Y-46173453D01*
X109274700Y-46268700D01*
X109255793Y-46326891D01*
X109206293Y-46362855D01*
X109175700Y-46367700D01*
X108615925Y-46367700D01*
X108585505Y-46370553D01*
X108585496Y-46370555D01*
X108457316Y-46415407D01*
X108348055Y-46496045D01*
X108348045Y-46496055D01*
X108267407Y-46605316D01*
X108222555Y-46733496D01*
X108222553Y-46733505D01*
X108219700Y-46763925D01*
X108219700Y-47622474D01*
X108222553Y-47652894D01*
X108222555Y-47652903D01*
X108267407Y-47781083D01*
X108348045Y-47890344D01*
X108348047Y-47890346D01*
X108348050Y-47890350D01*
X108348053Y-47890352D01*
X108348055Y-47890354D01*
X108457316Y-47970992D01*
X108457317Y-47970992D01*
X108457318Y-47970993D01*
X108585501Y-48015846D01*
X108615925Y-48018699D01*
X108615927Y-48018700D01*
X108615934Y-48018700D01*
X109175700Y-48018700D01*
X109233891Y-48037607D01*
X109269855Y-48087107D01*
X109274700Y-48117700D01*
X109274700Y-48212946D01*
X109274701Y-48212958D01*
X109286332Y-48271427D01*
X109286333Y-48271431D01*
X109330648Y-48337752D01*
X109330651Y-48337754D01*
X109395200Y-48380885D01*
X109433079Y-48428935D01*
X109435481Y-48490073D01*
X109401488Y-48540947D01*
X109395200Y-48545515D01*
X109330651Y-48588645D01*
X109330645Y-48588651D01*
X109286334Y-48654966D01*
X109286332Y-48654972D01*
X109274701Y-48713441D01*
X109274700Y-48713453D01*
X109274700Y-48808700D01*
X109255793Y-48866891D01*
X109206293Y-48902855D01*
X109175700Y-48907700D01*
X108615925Y-48907700D01*
X108585505Y-48910553D01*
X108585496Y-48910555D01*
X108457316Y-48955407D01*
X108348055Y-49036045D01*
X108348045Y-49036055D01*
X108267407Y-49145316D01*
X108222555Y-49273496D01*
X108222553Y-49273505D01*
X108219700Y-49303925D01*
X108219700Y-50162474D01*
X108222553Y-50192894D01*
X108222555Y-50192903D01*
X108267407Y-50321083D01*
X108348045Y-50430344D01*
X108348047Y-50430346D01*
X108348050Y-50430350D01*
X108348053Y-50430352D01*
X108348055Y-50430354D01*
X108457316Y-50510992D01*
X108457317Y-50510992D01*
X108457318Y-50510993D01*
X108585501Y-50555846D01*
X108615925Y-50558699D01*
X108615927Y-50558700D01*
X108615934Y-50558700D01*
X109175700Y-50558700D01*
X109233891Y-50577607D01*
X109269855Y-50627107D01*
X109274700Y-50657700D01*
X109274700Y-50752946D01*
X109274701Y-50752958D01*
X109286332Y-50811427D01*
X109286333Y-50811431D01*
X109330648Y-50877752D01*
X109330651Y-50877754D01*
X109395200Y-50920885D01*
X109433079Y-50968935D01*
X109435481Y-51030073D01*
X109401488Y-51080947D01*
X109395200Y-51085515D01*
X109330651Y-51128645D01*
X109330645Y-51128651D01*
X109286334Y-51194966D01*
X109286332Y-51194972D01*
X109274701Y-51253441D01*
X109274700Y-51253453D01*
X109274700Y-51348700D01*
X109255793Y-51406891D01*
X109206293Y-51442855D01*
X109175700Y-51447700D01*
X108615925Y-51447700D01*
X108585505Y-51450553D01*
X108585496Y-51450555D01*
X108457316Y-51495407D01*
X108348055Y-51576045D01*
X108348045Y-51576055D01*
X108267407Y-51685316D01*
X108222555Y-51813496D01*
X108222553Y-51813505D01*
X108219700Y-51843925D01*
X108219700Y-52702474D01*
X108222553Y-52732894D01*
X108222555Y-52732903D01*
X108267407Y-52861083D01*
X108348045Y-52970344D01*
X108348047Y-52970346D01*
X108348050Y-52970350D01*
X108348053Y-52970352D01*
X108348055Y-52970354D01*
X108457316Y-53050992D01*
X108457317Y-53050992D01*
X108457318Y-53050993D01*
X108585501Y-53095846D01*
X108615925Y-53098699D01*
X108615927Y-53098700D01*
X108615934Y-53098700D01*
X109175700Y-53098700D01*
X109233891Y-53117607D01*
X109269855Y-53167107D01*
X109274700Y-53197700D01*
X109274700Y-53292946D01*
X109274701Y-53292958D01*
X109286332Y-53351427D01*
X109286333Y-53351431D01*
X109330648Y-53417752D01*
X109330651Y-53417754D01*
X109395200Y-53460885D01*
X109433079Y-53508935D01*
X109435481Y-53570073D01*
X109401488Y-53620947D01*
X109395200Y-53625515D01*
X109330651Y-53668645D01*
X109330645Y-53668651D01*
X109286334Y-53734966D01*
X109286332Y-53734972D01*
X109274701Y-53793441D01*
X109274700Y-53793453D01*
X109274700Y-53888700D01*
X109255793Y-53946891D01*
X109206293Y-53982855D01*
X109175700Y-53987700D01*
X108615925Y-53987700D01*
X108585505Y-53990553D01*
X108585496Y-53990555D01*
X108457316Y-54035407D01*
X108348055Y-54116045D01*
X108348045Y-54116055D01*
X108267407Y-54225316D01*
X108222555Y-54353496D01*
X108222553Y-54353505D01*
X108219700Y-54383925D01*
X108219700Y-55242474D01*
X108222553Y-55272894D01*
X108222555Y-55272903D01*
X108267407Y-55401083D01*
X108348045Y-55510344D01*
X108348047Y-55510346D01*
X108348050Y-55510350D01*
X108348053Y-55510352D01*
X108348055Y-55510354D01*
X108457316Y-55590992D01*
X108457317Y-55590992D01*
X108457318Y-55590993D01*
X108585501Y-55635846D01*
X108615925Y-55638699D01*
X108615927Y-55638700D01*
X108615934Y-55638700D01*
X109175700Y-55638700D01*
X109233891Y-55657607D01*
X109269855Y-55707107D01*
X109274700Y-55737700D01*
X109274700Y-55832946D01*
X109274701Y-55832958D01*
X109286332Y-55891427D01*
X109286333Y-55891431D01*
X109330648Y-55957752D01*
X109330651Y-55957754D01*
X109395200Y-56000885D01*
X109433079Y-56048935D01*
X109435481Y-56110073D01*
X109401488Y-56160947D01*
X109395200Y-56165515D01*
X109330651Y-56208645D01*
X109330645Y-56208651D01*
X109286334Y-56274966D01*
X109286332Y-56274972D01*
X109274701Y-56333441D01*
X109274700Y-56333453D01*
X109274700Y-56428700D01*
X109255793Y-56486891D01*
X109206293Y-56522855D01*
X109175700Y-56527700D01*
X108615925Y-56527700D01*
X108585505Y-56530553D01*
X108585496Y-56530555D01*
X108457316Y-56575407D01*
X108348055Y-56656045D01*
X108348045Y-56656055D01*
X108267407Y-56765316D01*
X108222555Y-56893496D01*
X108222553Y-56893505D01*
X108219700Y-56923925D01*
X108219700Y-57782474D01*
X108222553Y-57812894D01*
X108222555Y-57812903D01*
X108267407Y-57941083D01*
X108348045Y-58050344D01*
X108348047Y-58050346D01*
X108348050Y-58050350D01*
X108348053Y-58050352D01*
X108348055Y-58050354D01*
X108457316Y-58130992D01*
X108457317Y-58130992D01*
X108457318Y-58130993D01*
X108585501Y-58175846D01*
X108615925Y-58178699D01*
X108615927Y-58178700D01*
X108615934Y-58178700D01*
X109175700Y-58178700D01*
X109233891Y-58197607D01*
X109269855Y-58247107D01*
X109274700Y-58277700D01*
X109274700Y-58372946D01*
X109274701Y-58372958D01*
X109286332Y-58431427D01*
X109286333Y-58431431D01*
X109330648Y-58497752D01*
X109330651Y-58497754D01*
X109395200Y-58540885D01*
X109433079Y-58588935D01*
X109435481Y-58650073D01*
X109401488Y-58700947D01*
X109395200Y-58705515D01*
X109330651Y-58748645D01*
X109330645Y-58748651D01*
X109286334Y-58814966D01*
X109286332Y-58814972D01*
X109274701Y-58873441D01*
X109274700Y-58873453D01*
X109274700Y-58968700D01*
X109255793Y-59026891D01*
X109206293Y-59062855D01*
X109175700Y-59067700D01*
X108615925Y-59067700D01*
X108585505Y-59070553D01*
X108585496Y-59070555D01*
X108457316Y-59115407D01*
X108348055Y-59196045D01*
X108348045Y-59196055D01*
X108267407Y-59305316D01*
X108222555Y-59433496D01*
X108222553Y-59433505D01*
X108219700Y-59463925D01*
X108219700Y-60322474D01*
X108222553Y-60352894D01*
X108222555Y-60352903D01*
X108267407Y-60481083D01*
X108348045Y-60590344D01*
X108348047Y-60590346D01*
X108348050Y-60590350D01*
X108348053Y-60590352D01*
X108348055Y-60590354D01*
X108457316Y-60670992D01*
X108457317Y-60670992D01*
X108457318Y-60670993D01*
X108585501Y-60715846D01*
X108615925Y-60718699D01*
X108615927Y-60718700D01*
X108615934Y-60718700D01*
X109175700Y-60718700D01*
X109233891Y-60737607D01*
X109269855Y-60787107D01*
X109274700Y-60817700D01*
X109274700Y-60912946D01*
X109274701Y-60912958D01*
X109286332Y-60971427D01*
X109286333Y-60971431D01*
X109330648Y-61037752D01*
X109330651Y-61037754D01*
X109395200Y-61080885D01*
X109433079Y-61128935D01*
X109435481Y-61190073D01*
X109401488Y-61240947D01*
X109395200Y-61245515D01*
X109330651Y-61288645D01*
X109330645Y-61288651D01*
X109286334Y-61354966D01*
X109286332Y-61354972D01*
X109274701Y-61413441D01*
X109274700Y-61413453D01*
X109274700Y-61508700D01*
X109255793Y-61566891D01*
X109206293Y-61602855D01*
X109175700Y-61607700D01*
X108615925Y-61607700D01*
X108585505Y-61610553D01*
X108585496Y-61610555D01*
X108457316Y-61655407D01*
X108348055Y-61736045D01*
X108348045Y-61736055D01*
X108267407Y-61845316D01*
X108222555Y-61973496D01*
X108222553Y-61973505D01*
X108219700Y-62003925D01*
X108219700Y-62862474D01*
X108222553Y-62892894D01*
X108222555Y-62892903D01*
X108267407Y-63021083D01*
X108348045Y-63130344D01*
X108348047Y-63130346D01*
X108348050Y-63130350D01*
X108348053Y-63130352D01*
X108348055Y-63130354D01*
X108457316Y-63210992D01*
X108457317Y-63210992D01*
X108457318Y-63210993D01*
X108585501Y-63255846D01*
X108615925Y-63258699D01*
X108615927Y-63258700D01*
X108615934Y-63258700D01*
X109175700Y-63258700D01*
X109233891Y-63277607D01*
X109269855Y-63327107D01*
X109274700Y-63357700D01*
X109274700Y-63452946D01*
X109274701Y-63452958D01*
X109286332Y-63511427D01*
X109286333Y-63511431D01*
X109330648Y-63577752D01*
X109330651Y-63577754D01*
X109395200Y-63620885D01*
X109433079Y-63668935D01*
X109435481Y-63730073D01*
X109401488Y-63780947D01*
X109395200Y-63785515D01*
X109330651Y-63828645D01*
X109330645Y-63828651D01*
X109286334Y-63894966D01*
X109286332Y-63894972D01*
X109274701Y-63953441D01*
X109274700Y-63953453D01*
X109274700Y-64048700D01*
X109255793Y-64106891D01*
X109206293Y-64142855D01*
X109175700Y-64147700D01*
X108615925Y-64147700D01*
X108585505Y-64150553D01*
X108585496Y-64150555D01*
X108457316Y-64195407D01*
X108348055Y-64276045D01*
X108348045Y-64276055D01*
X108267407Y-64385316D01*
X108222555Y-64513496D01*
X108222553Y-64513505D01*
X108219700Y-64543925D01*
X108219700Y-65402474D01*
X108222553Y-65432894D01*
X108222555Y-65432903D01*
X108267407Y-65561083D01*
X108348045Y-65670344D01*
X108348047Y-65670346D01*
X108348050Y-65670350D01*
X108348053Y-65670352D01*
X108348055Y-65670354D01*
X108457316Y-65750992D01*
X108457317Y-65750992D01*
X108457318Y-65750993D01*
X108585501Y-65795846D01*
X108615925Y-65798699D01*
X108615927Y-65798700D01*
X108615934Y-65798700D01*
X109175700Y-65798700D01*
X109233891Y-65817607D01*
X109269855Y-65867107D01*
X109274700Y-65897700D01*
X109274700Y-65992946D01*
X109274701Y-65992958D01*
X109286332Y-66051427D01*
X109286333Y-66051431D01*
X109330648Y-66117752D01*
X109330651Y-66117754D01*
X109395200Y-66160885D01*
X109433079Y-66208935D01*
X109435481Y-66270073D01*
X109401488Y-66320947D01*
X109395200Y-66325515D01*
X109330651Y-66368645D01*
X109330645Y-66368651D01*
X109286334Y-66434966D01*
X109286332Y-66434972D01*
X109274701Y-66493441D01*
X109274700Y-66493453D01*
X109274700Y-66588700D01*
X109255793Y-66646891D01*
X109206293Y-66682855D01*
X109175700Y-66687700D01*
X108615925Y-66687700D01*
X108585505Y-66690553D01*
X108585496Y-66690555D01*
X108457316Y-66735407D01*
X108348055Y-66816045D01*
X108348045Y-66816055D01*
X108267407Y-66925316D01*
X108222555Y-67053496D01*
X108222553Y-67053505D01*
X108219700Y-67083925D01*
X108219700Y-67942474D01*
X108222553Y-67972894D01*
X108222555Y-67972903D01*
X108267407Y-68101083D01*
X108348045Y-68210344D01*
X108348047Y-68210346D01*
X108348050Y-68210350D01*
X108348053Y-68210352D01*
X108348055Y-68210354D01*
X108457316Y-68290992D01*
X108457317Y-68290992D01*
X108457318Y-68290993D01*
X108585501Y-68335846D01*
X108615925Y-68338699D01*
X108615927Y-68338700D01*
X108615934Y-68338700D01*
X109175700Y-68338700D01*
X109233891Y-68357607D01*
X109269855Y-68407107D01*
X109274700Y-68437700D01*
X109274700Y-68532946D01*
X109274701Y-68532958D01*
X109286332Y-68591427D01*
X109286333Y-68591431D01*
X109330648Y-68657752D01*
X109330651Y-68657754D01*
X109395200Y-68700885D01*
X109433079Y-68748935D01*
X109435481Y-68810073D01*
X109401488Y-68860947D01*
X109395200Y-68865515D01*
X109330651Y-68908645D01*
X109330645Y-68908651D01*
X109286334Y-68974966D01*
X109286332Y-68974972D01*
X109274701Y-69033441D01*
X109274700Y-69033453D01*
X109274700Y-69128700D01*
X109255793Y-69186891D01*
X109206293Y-69222855D01*
X109175700Y-69227700D01*
X108615925Y-69227700D01*
X108585505Y-69230553D01*
X108585496Y-69230555D01*
X108457316Y-69275407D01*
X108348055Y-69356045D01*
X108348045Y-69356055D01*
X108267407Y-69465316D01*
X108222555Y-69593496D01*
X108222553Y-69593505D01*
X108219700Y-69623925D01*
X108219700Y-70482474D01*
X108222553Y-70512894D01*
X108222555Y-70512903D01*
X108267407Y-70641083D01*
X108348045Y-70750344D01*
X108348047Y-70750346D01*
X108348050Y-70750350D01*
X108348053Y-70750352D01*
X108348055Y-70750354D01*
X108457316Y-70830992D01*
X108457317Y-70830992D01*
X108457318Y-70830993D01*
X108585501Y-70875846D01*
X108615925Y-70878699D01*
X108615927Y-70878700D01*
X108615934Y-70878700D01*
X109175700Y-70878700D01*
X109233891Y-70897607D01*
X109269855Y-70947107D01*
X109274700Y-70977700D01*
X109274700Y-71072946D01*
X109274701Y-71072958D01*
X109286332Y-71131427D01*
X109286333Y-71131431D01*
X109330648Y-71197752D01*
X109330651Y-71197754D01*
X109395200Y-71240885D01*
X109433079Y-71288935D01*
X109435481Y-71350073D01*
X109401488Y-71400947D01*
X109395200Y-71405515D01*
X109330651Y-71448645D01*
X109330645Y-71448651D01*
X109286334Y-71514966D01*
X109286332Y-71514972D01*
X109274701Y-71573441D01*
X109274700Y-71573453D01*
X109274700Y-71668700D01*
X109255793Y-71726891D01*
X109206293Y-71762855D01*
X109175700Y-71767700D01*
X108615925Y-71767700D01*
X108585505Y-71770553D01*
X108585496Y-71770555D01*
X108457316Y-71815407D01*
X108348055Y-71896045D01*
X108348045Y-71896055D01*
X108267407Y-72005316D01*
X108222555Y-72133496D01*
X108222553Y-72133505D01*
X108219700Y-72163925D01*
X108219700Y-73022474D01*
X108222553Y-73052894D01*
X108222555Y-73052903D01*
X108267407Y-73181083D01*
X108348045Y-73290344D01*
X108348047Y-73290346D01*
X108348050Y-73290350D01*
X108348053Y-73290352D01*
X108348055Y-73290354D01*
X108457316Y-73370992D01*
X108457317Y-73370992D01*
X108457318Y-73370993D01*
X108585501Y-73415846D01*
X108615925Y-73418699D01*
X108615927Y-73418700D01*
X108615934Y-73418700D01*
X109175700Y-73418700D01*
X109233891Y-73437607D01*
X109269855Y-73487107D01*
X109274700Y-73517700D01*
X109274700Y-73612946D01*
X109274701Y-73612958D01*
X109286332Y-73671427D01*
X109286333Y-73671431D01*
X109330648Y-73737752D01*
X109330651Y-73737754D01*
X109395200Y-73780885D01*
X109433079Y-73828935D01*
X109435481Y-73890073D01*
X109401488Y-73940947D01*
X109395200Y-73945515D01*
X109330651Y-73988645D01*
X109330645Y-73988651D01*
X109286334Y-74054966D01*
X109286332Y-74054972D01*
X109274701Y-74113441D01*
X109274700Y-74113453D01*
X109274700Y-74208700D01*
X109255793Y-74266891D01*
X109206293Y-74302855D01*
X109175700Y-74307700D01*
X108615925Y-74307700D01*
X108585505Y-74310553D01*
X108585496Y-74310555D01*
X108457316Y-74355407D01*
X108348055Y-74436045D01*
X108348045Y-74436055D01*
X108267407Y-74545316D01*
X108222555Y-74673496D01*
X108222553Y-74673505D01*
X108219700Y-74703925D01*
X108219700Y-75562474D01*
X108222553Y-75592894D01*
X108222555Y-75592903D01*
X108267407Y-75721083D01*
X108348045Y-75830344D01*
X108348047Y-75830346D01*
X108348050Y-75830350D01*
X108348053Y-75830352D01*
X108348055Y-75830354D01*
X108457316Y-75910992D01*
X108457317Y-75910992D01*
X108457318Y-75910993D01*
X108585501Y-75955846D01*
X108615925Y-75958699D01*
X108615927Y-75958700D01*
X108615934Y-75958700D01*
X109175700Y-75958700D01*
X109233891Y-75977607D01*
X109269855Y-76027107D01*
X109274700Y-76057700D01*
X109274700Y-76152946D01*
X109274701Y-76152958D01*
X109286332Y-76211427D01*
X109286334Y-76211433D01*
X109330645Y-76277748D01*
X109330648Y-76277752D01*
X109330651Y-76277754D01*
X109395200Y-76320885D01*
X109433079Y-76368935D01*
X109435481Y-76430073D01*
X109401488Y-76480947D01*
X109395200Y-76485515D01*
X109330651Y-76528645D01*
X109330645Y-76528651D01*
X109286334Y-76594966D01*
X109286332Y-76594972D01*
X109274701Y-76653441D01*
X109274700Y-76653453D01*
X109274700Y-76748700D01*
X109255793Y-76806891D01*
X109206293Y-76842855D01*
X109175700Y-76847700D01*
X108615925Y-76847700D01*
X108585505Y-76850553D01*
X108585496Y-76850555D01*
X108457316Y-76895407D01*
X108348055Y-76976045D01*
X108348045Y-76976055D01*
X108267407Y-77085316D01*
X108222555Y-77213496D01*
X108222553Y-77213505D01*
X108219700Y-77243925D01*
X108219700Y-78102474D01*
X108222553Y-78132894D01*
X108222555Y-78132903D01*
X108267407Y-78261083D01*
X108348045Y-78370344D01*
X108348047Y-78370346D01*
X108348050Y-78370350D01*
X108348053Y-78370352D01*
X108348055Y-78370354D01*
X108457316Y-78450992D01*
X108457317Y-78450992D01*
X108457318Y-78450993D01*
X108585501Y-78495846D01*
X108615925Y-78498699D01*
X108615927Y-78498700D01*
X108615934Y-78498700D01*
X109175700Y-78498700D01*
X109233891Y-78517607D01*
X109269855Y-78567107D01*
X109274700Y-78597700D01*
X109274700Y-78692946D01*
X109274701Y-78692958D01*
X109286332Y-78751427D01*
X109286334Y-78751433D01*
X109322722Y-78805890D01*
X109330648Y-78817752D01*
X109330651Y-78817754D01*
X109395200Y-78860885D01*
X109433079Y-78908935D01*
X109435481Y-78970073D01*
X109401488Y-79020947D01*
X109395200Y-79025515D01*
X109330651Y-79068645D01*
X109330645Y-79068651D01*
X109286334Y-79134966D01*
X109286332Y-79134972D01*
X109274701Y-79193441D01*
X109274700Y-79193453D01*
X109274700Y-79288700D01*
X109255793Y-79346891D01*
X109206293Y-79382855D01*
X109175700Y-79387700D01*
X108615925Y-79387700D01*
X108585505Y-79390553D01*
X108585496Y-79390555D01*
X108457316Y-79435407D01*
X108348055Y-79516045D01*
X108348045Y-79516055D01*
X108267407Y-79625316D01*
X108222555Y-79753496D01*
X108222553Y-79753505D01*
X108219700Y-79783925D01*
X108219700Y-80642474D01*
X108222553Y-80672894D01*
X108222555Y-80672903D01*
X108267407Y-80801083D01*
X108348045Y-80910344D01*
X108348047Y-80910346D01*
X108348050Y-80910350D01*
X108348053Y-80910352D01*
X108348055Y-80910354D01*
X108457316Y-80990992D01*
X108457317Y-80990992D01*
X108457318Y-80990993D01*
X108585501Y-81035846D01*
X108615925Y-81038699D01*
X108615927Y-81038700D01*
X108615934Y-81038700D01*
X109175700Y-81038700D01*
X109233891Y-81057607D01*
X109269855Y-81107107D01*
X109274700Y-81137700D01*
X109274700Y-81232946D01*
X109274701Y-81232958D01*
X109286332Y-81291427D01*
X109286333Y-81291431D01*
X109330648Y-81357752D01*
X109330651Y-81357754D01*
X109395200Y-81400885D01*
X109433079Y-81448935D01*
X109435481Y-81510073D01*
X109401488Y-81560947D01*
X109395200Y-81565515D01*
X109330651Y-81608645D01*
X109330645Y-81608651D01*
X109286334Y-81674966D01*
X109286332Y-81674972D01*
X109274701Y-81733441D01*
X109274700Y-81733453D01*
X109274700Y-81828700D01*
X109255793Y-81886891D01*
X109206293Y-81922855D01*
X109175700Y-81927700D01*
X108615925Y-81927700D01*
X108585505Y-81930553D01*
X108585496Y-81930555D01*
X108457316Y-81975407D01*
X108348055Y-82056045D01*
X108348045Y-82056055D01*
X108267407Y-82165316D01*
X108222555Y-82293496D01*
X108222553Y-82293505D01*
X108219700Y-82323925D01*
X108219700Y-83182474D01*
X108222553Y-83212894D01*
X108222555Y-83212903D01*
X108267407Y-83341083D01*
X108348045Y-83450344D01*
X108348047Y-83450346D01*
X108348050Y-83450350D01*
X108348053Y-83450352D01*
X108348055Y-83450354D01*
X108457316Y-83530992D01*
X108457317Y-83530992D01*
X108457318Y-83530993D01*
X108585501Y-83575846D01*
X108615925Y-83578699D01*
X108615927Y-83578700D01*
X108615934Y-83578700D01*
X109175700Y-83578700D01*
X109233891Y-83597607D01*
X109269855Y-83647107D01*
X109274700Y-83677700D01*
X109274700Y-83772946D01*
X109274701Y-83772958D01*
X109286332Y-83831427D01*
X109286333Y-83831431D01*
X109330648Y-83897752D01*
X109330651Y-83897754D01*
X109395200Y-83940885D01*
X109433079Y-83988935D01*
X109435481Y-84050073D01*
X109401488Y-84100947D01*
X109395200Y-84105515D01*
X109330651Y-84148645D01*
X109330645Y-84148651D01*
X109286334Y-84214966D01*
X109286332Y-84214972D01*
X109274701Y-84273441D01*
X109274700Y-84273453D01*
X109274700Y-84368700D01*
X109255793Y-84426891D01*
X109206293Y-84462855D01*
X109175700Y-84467700D01*
X108615925Y-84467700D01*
X108585505Y-84470553D01*
X108585496Y-84470555D01*
X108457316Y-84515407D01*
X108348055Y-84596045D01*
X108348045Y-84596055D01*
X108267407Y-84705316D01*
X108222555Y-84833496D01*
X108222553Y-84833505D01*
X108219700Y-84863925D01*
X108219700Y-85722474D01*
X108222553Y-85752894D01*
X108222555Y-85752903D01*
X108267407Y-85881083D01*
X108348045Y-85990344D01*
X108348047Y-85990346D01*
X108348050Y-85990350D01*
X108348053Y-85990352D01*
X108348055Y-85990354D01*
X108457316Y-86070992D01*
X108457317Y-86070992D01*
X108457318Y-86070993D01*
X108585501Y-86115846D01*
X108615925Y-86118699D01*
X108615927Y-86118700D01*
X108615934Y-86118700D01*
X109175700Y-86118700D01*
X109233891Y-86137607D01*
X109269855Y-86187107D01*
X109274700Y-86217700D01*
X109274700Y-86312946D01*
X109274701Y-86312958D01*
X109286332Y-86371427D01*
X109286334Y-86371433D01*
X109324851Y-86429077D01*
X109330648Y-86437752D01*
X109330651Y-86437754D01*
X109395200Y-86480885D01*
X109433079Y-86528935D01*
X109435481Y-86590073D01*
X109401488Y-86640947D01*
X109395200Y-86645515D01*
X109330651Y-86688645D01*
X109330645Y-86688651D01*
X109286334Y-86754966D01*
X109286332Y-86754972D01*
X109274701Y-86813441D01*
X109274700Y-86813453D01*
X109274700Y-86908700D01*
X109255793Y-86966891D01*
X109206293Y-87002855D01*
X109175700Y-87007700D01*
X108615925Y-87007700D01*
X108585505Y-87010553D01*
X108585496Y-87010555D01*
X108457316Y-87055407D01*
X108348055Y-87136045D01*
X108348045Y-87136055D01*
X108267407Y-87245316D01*
X108222555Y-87373496D01*
X108222553Y-87373505D01*
X108219700Y-87403925D01*
X108219700Y-88262474D01*
X108222553Y-88292894D01*
X108222555Y-88292903D01*
X108267407Y-88421083D01*
X108348045Y-88530344D01*
X108348047Y-88530346D01*
X108348050Y-88530350D01*
X108348053Y-88530352D01*
X108348055Y-88530354D01*
X108457316Y-88610992D01*
X108457317Y-88610992D01*
X108457318Y-88610993D01*
X108585501Y-88655846D01*
X108615925Y-88658699D01*
X108615927Y-88658700D01*
X108615934Y-88658700D01*
X109175700Y-88658700D01*
X109233891Y-88677607D01*
X109269855Y-88727107D01*
X109274700Y-88757700D01*
X109274700Y-88852946D01*
X109274701Y-88852958D01*
X109286332Y-88911427D01*
X109286334Y-88911433D01*
X109330645Y-88977748D01*
X109330648Y-88977752D01*
X109330651Y-88977754D01*
X109395200Y-89020885D01*
X109433079Y-89068935D01*
X109435481Y-89130073D01*
X109401488Y-89180947D01*
X109395200Y-89185515D01*
X109330651Y-89228645D01*
X109330645Y-89228651D01*
X109286334Y-89294966D01*
X109286332Y-89294972D01*
X109274701Y-89353441D01*
X109274700Y-89353453D01*
X109274700Y-89448700D01*
X109255793Y-89506891D01*
X109206293Y-89542855D01*
X109175700Y-89547700D01*
X108615925Y-89547700D01*
X108585505Y-89550553D01*
X108585496Y-89550555D01*
X108457316Y-89595407D01*
X108348055Y-89676045D01*
X108348045Y-89676055D01*
X108267407Y-89785315D01*
X108261150Y-89803199D01*
X108224084Y-89851879D01*
X108167706Y-89869500D01*
X101207762Y-89869500D01*
X101128638Y-89869500D01*
X101081861Y-89882033D01*
X101052207Y-89889979D01*
X100983693Y-89929536D01*
X100983692Y-89929537D01*
X99443924Y-91469304D01*
X99389407Y-91497081D01*
X99373920Y-91498300D01*
X99273508Y-91498300D01*
X99200908Y-91517753D01*
X99146209Y-91532409D01*
X99032090Y-91598296D01*
X98938896Y-91691490D01*
X98873009Y-91805609D01*
X98862573Y-91844557D01*
X98838900Y-91932908D01*
X98838900Y-92064692D01*
X98873008Y-92191986D01*
X98873009Y-92191988D01*
X98912853Y-92260999D01*
X98925575Y-92320848D01*
X98900689Y-92376743D01*
X98847701Y-92407336D01*
X98827117Y-92409500D01*
X98055479Y-92409500D01*
X97997288Y-92390593D01*
X97985475Y-92380504D01*
X97439496Y-91834525D01*
X97411719Y-91780008D01*
X97410500Y-91764521D01*
X97410500Y-91664109D01*
X97409571Y-91660642D01*
X97376392Y-91536814D01*
X97376390Y-91536811D01*
X97376390Y-91536809D01*
X97310503Y-91422690D01*
X97310501Y-91422688D01*
X97310500Y-91422686D01*
X97217314Y-91329500D01*
X97217311Y-91329498D01*
X97217309Y-91329496D01*
X97103189Y-91263609D01*
X97103191Y-91263609D01*
X97053799Y-91250375D01*
X96975892Y-91229500D01*
X96844108Y-91229500D01*
X96766200Y-91250375D01*
X96716809Y-91263609D01*
X96602690Y-91329496D01*
X96509496Y-91422690D01*
X96443609Y-91536809D01*
X96429491Y-91589500D01*
X96409500Y-91664108D01*
X96409500Y-91795892D01*
X96422540Y-91844557D01*
X96443609Y-91923190D01*
X96509496Y-92037309D01*
X96509498Y-92037311D01*
X96509500Y-92037314D01*
X96602686Y-92130500D01*
X96602688Y-92130501D01*
X96602690Y-92130503D01*
X96716810Y-92196390D01*
X96716808Y-92196390D01*
X96716812Y-92196391D01*
X96716814Y-92196392D01*
X96844108Y-92230500D01*
X96844110Y-92230500D01*
X96944521Y-92230500D01*
X97002712Y-92249407D01*
X97014525Y-92259496D01*
X97649540Y-92894511D01*
X97649539Y-92894511D01*
X97705489Y-92950460D01*
X97774007Y-92990019D01*
X97774011Y-92990021D01*
X97850435Y-93010499D01*
X97850437Y-93010500D01*
X97850438Y-93010500D01*
X101336692Y-93010500D01*
X101394883Y-93029407D01*
X101430847Y-93078907D01*
X101430847Y-93140093D01*
X101394883Y-93189593D01*
X101356006Y-93206598D01*
X101316179Y-93214519D01*
X101131862Y-93290866D01*
X101093353Y-93316596D01*
X101434182Y-93657425D01*
X101395912Y-93667680D01*
X101268490Y-93741248D01*
X101164450Y-93845288D01*
X101090882Y-93972710D01*
X101080627Y-94010980D01*
X100739798Y-93670151D01*
X100714068Y-93708660D01*
X100637721Y-93892977D01*
X100598801Y-94088644D01*
X100598801Y-94288153D01*
X100637722Y-94483821D01*
X100637722Y-94483823D01*
X100714067Y-94668137D01*
X100739797Y-94706645D01*
X101080627Y-94365815D01*
X101090882Y-94404088D01*
X101164450Y-94531510D01*
X101268490Y-94635550D01*
X101395912Y-94709118D01*
X101434181Y-94719372D01*
X101093352Y-95060201D01*
X101131862Y-95085932D01*
X101316177Y-95162277D01*
X101511846Y-95201198D01*
X101511850Y-95201199D01*
X101711352Y-95201199D01*
X101711355Y-95201198D01*
X101907023Y-95162277D01*
X101907025Y-95162277D01*
X102091339Y-95085932D01*
X102129848Y-95060200D01*
X101789020Y-94719372D01*
X101827290Y-94709118D01*
X101954712Y-94635550D01*
X102058752Y-94531510D01*
X102132320Y-94404088D01*
X102142574Y-94365818D01*
X102483402Y-94706646D01*
X102509134Y-94668137D01*
X102585479Y-94483823D01*
X102585479Y-94483821D01*
X102624400Y-94288153D01*
X102624401Y-94288149D01*
X102624401Y-94088648D01*
X102624400Y-94088644D01*
X102585479Y-93892976D01*
X102585479Y-93892974D01*
X102509134Y-93708660D01*
X102483403Y-93670150D01*
X102142574Y-94010979D01*
X102132320Y-93972710D01*
X102058752Y-93845288D01*
X101954712Y-93741248D01*
X101827290Y-93667680D01*
X101789017Y-93657425D01*
X102129848Y-93316595D01*
X102091339Y-93290865D01*
X101907024Y-93214520D01*
X101867196Y-93206598D01*
X101813812Y-93176701D01*
X101788196Y-93121136D01*
X101800133Y-93061127D01*
X101845063Y-93019594D01*
X101886510Y-93010500D01*
X108120700Y-93010500D01*
X108178891Y-93029407D01*
X108214855Y-93078907D01*
X108219700Y-93109500D01*
X108219700Y-93342474D01*
X108222553Y-93372894D01*
X108222555Y-93372903D01*
X108267407Y-93501083D01*
X108348045Y-93610344D01*
X108348047Y-93610346D01*
X108348050Y-93610350D01*
X108348053Y-93610352D01*
X108348055Y-93610354D01*
X108457316Y-93690992D01*
X108457317Y-93690992D01*
X108457318Y-93690993D01*
X108585501Y-93735846D01*
X108615925Y-93738699D01*
X108615927Y-93738700D01*
X108615934Y-93738700D01*
X109175700Y-93738700D01*
X109233891Y-93757607D01*
X109269855Y-93807107D01*
X109274700Y-93837700D01*
X109274700Y-93932946D01*
X109274701Y-93932958D01*
X109286332Y-93991427D01*
X109286334Y-93991433D01*
X109310959Y-94028286D01*
X109330648Y-94057752D01*
X109330651Y-94057754D01*
X109395200Y-94100885D01*
X109433079Y-94148935D01*
X109435481Y-94210073D01*
X109401488Y-94260947D01*
X109395200Y-94265515D01*
X109330651Y-94308645D01*
X109330645Y-94308651D01*
X109286334Y-94374966D01*
X109286332Y-94374972D01*
X109274701Y-94433441D01*
X109274700Y-94433453D01*
X109274700Y-94528700D01*
X109255793Y-94586891D01*
X109206293Y-94622855D01*
X109175700Y-94627700D01*
X108615925Y-94627700D01*
X108585505Y-94630553D01*
X108585496Y-94630555D01*
X108457316Y-94675407D01*
X108348055Y-94756045D01*
X108348045Y-94756055D01*
X108267407Y-94865316D01*
X108222555Y-94993496D01*
X108222553Y-94993505D01*
X108219700Y-95023925D01*
X108219700Y-95184353D01*
X108200793Y-95242544D01*
X108190704Y-95254357D01*
X104914557Y-98530504D01*
X104860040Y-98558281D01*
X104844553Y-98559500D01*
X94414278Y-98559500D01*
X94356087Y-98540593D01*
X94320123Y-98491093D01*
X94320123Y-98429907D01*
X94344272Y-98390498D01*
X94499860Y-98234911D01*
X94530806Y-98181311D01*
X94535828Y-98172613D01*
X94537462Y-98169780D01*
X94539421Y-98166389D01*
X94559900Y-98089962D01*
X94559900Y-93035089D01*
X94558377Y-93029407D01*
X94553311Y-93010500D01*
X94553310Y-93010496D01*
X94539424Y-92958668D01*
X94539423Y-92958666D01*
X94539422Y-92958665D01*
X94539422Y-92958663D01*
X94499860Y-92890140D01*
X93624693Y-92014973D01*
X93596916Y-91960456D01*
X93595697Y-91944969D01*
X93595697Y-91844557D01*
X93593429Y-91836092D01*
X93561589Y-91717262D01*
X93561587Y-91717259D01*
X93561587Y-91717257D01*
X93495700Y-91603138D01*
X93495698Y-91603136D01*
X93495697Y-91603134D01*
X93402511Y-91509948D01*
X93402508Y-91509946D01*
X93402506Y-91509944D01*
X93288386Y-91444057D01*
X93288388Y-91444057D01*
X93217040Y-91424940D01*
X93161089Y-91409948D01*
X93029305Y-91409948D01*
X92973354Y-91424940D01*
X92902006Y-91444057D01*
X92787887Y-91509944D01*
X92787881Y-91509948D01*
X92737061Y-91560769D01*
X92682544Y-91588546D01*
X92622112Y-91578974D01*
X92617558Y-91576501D01*
X92541189Y-91532409D01*
X92541191Y-91532409D01*
X92486492Y-91517753D01*
X92413892Y-91498300D01*
X92282108Y-91498300D01*
X92244775Y-91508303D01*
X92220722Y-91514748D01*
X92159621Y-91511545D01*
X92112071Y-91473040D01*
X92096100Y-91419121D01*
X92096100Y-88491813D01*
X92096099Y-88491811D01*
X92086258Y-88455086D01*
X92075621Y-88415387D01*
X92036060Y-88346865D01*
X92009912Y-88320717D01*
X91980111Y-88290915D01*
X91980111Y-88290916D01*
X90246935Y-86557740D01*
X90246932Y-86557738D01*
X90240535Y-86554044D01*
X90240535Y-86554045D01*
X90178413Y-86518179D01*
X90178412Y-86518178D01*
X90178411Y-86518178D01*
X90101988Y-86497700D01*
X90101986Y-86497700D01*
X88977629Y-86497700D01*
X88977626Y-86497700D01*
X88901203Y-86518178D01*
X88839080Y-86554045D01*
X88839079Y-86554044D01*
X88832679Y-86557740D01*
X88815895Y-86574523D01*
X88801926Y-86581639D01*
X88790840Y-86592726D01*
X88775349Y-86595179D01*
X88761377Y-86602298D01*
X88745891Y-86599844D01*
X88730408Y-86602297D01*
X88716435Y-86595178D01*
X88700946Y-86592724D01*
X88675891Y-86574520D01*
X88618286Y-86516915D01*
X88590509Y-86462398D01*
X88589290Y-86446911D01*
X88589290Y-86086837D01*
X88589290Y-86086836D01*
X88580682Y-86054710D01*
X88580682Y-86054709D01*
X88580682Y-86054708D01*
X88568812Y-86010410D01*
X88568810Y-86010406D01*
X88529253Y-85941891D01*
X88529251Y-85941889D01*
X88529250Y-85941887D01*
X88149713Y-85562350D01*
X88145814Y-85560099D01*
X88081191Y-85522789D01*
X88081190Y-85522788D01*
X88081189Y-85522788D01*
X88004766Y-85502310D01*
X88004764Y-85502310D01*
X87468016Y-85502310D01*
X87468013Y-85502310D01*
X87391590Y-85522788D01*
X87326966Y-85560099D01*
X87326965Y-85560098D01*
X87323074Y-85562344D01*
X87323063Y-85562353D01*
X87159712Y-85725704D01*
X87105196Y-85753481D01*
X87089709Y-85754700D01*
X81817985Y-85754700D01*
X81759794Y-85735793D01*
X81747982Y-85725705D01*
X81744743Y-85722466D01*
X81717570Y-85695293D01*
X81702896Y-85686821D01*
X81649048Y-85655732D01*
X81649047Y-85655731D01*
X81649046Y-85655731D01*
X81572623Y-85635253D01*
X81572621Y-85635253D01*
X81114997Y-85635253D01*
X81035873Y-85635253D01*
X81009595Y-85642294D01*
X80965245Y-85654177D01*
X80904144Y-85650974D01*
X80869619Y-85628554D01*
X80439297Y-85198232D01*
X80411520Y-85143715D01*
X80410301Y-85128228D01*
X80410301Y-85027816D01*
X80377741Y-84906300D01*
X80376193Y-84900521D01*
X80376191Y-84900518D01*
X80376191Y-84900516D01*
X80310304Y-84786397D01*
X80310302Y-84786395D01*
X80310301Y-84786393D01*
X80217115Y-84693207D01*
X80217112Y-84693205D01*
X80217110Y-84693203D01*
X80102990Y-84627316D01*
X80102992Y-84627316D01*
X80053600Y-84614082D01*
X79975693Y-84593207D01*
X79843909Y-84593207D01*
X79766001Y-84614082D01*
X79716610Y-84627316D01*
X79602491Y-84693203D01*
X79509297Y-84786397D01*
X79443410Y-84900516D01*
X79424340Y-84971685D01*
X79409301Y-85027815D01*
X79409301Y-85159599D01*
X79419653Y-85198232D01*
X79443410Y-85286897D01*
X79509297Y-85401016D01*
X79509299Y-85401018D01*
X79509301Y-85401021D01*
X79602487Y-85494207D01*
X79602489Y-85494208D01*
X79602491Y-85494210D01*
X79716611Y-85560097D01*
X79716609Y-85560097D01*
X79716613Y-85560098D01*
X79716615Y-85560099D01*
X79843909Y-85594207D01*
X79843911Y-85594207D01*
X79944322Y-85594207D01*
X80002513Y-85613114D01*
X80014326Y-85623203D01*
X80630834Y-86239711D01*
X80630833Y-86239711D01*
X80686780Y-86295657D01*
X80686783Y-86295660D01*
X80754249Y-86334611D01*
X80795188Y-86380079D01*
X80803747Y-86420346D01*
X80803747Y-86554042D01*
X80803746Y-86554042D01*
X80837856Y-86681343D01*
X80903743Y-86795462D01*
X80903745Y-86795464D01*
X80903747Y-86795467D01*
X80996933Y-86888653D01*
X80996935Y-86888654D01*
X80996937Y-86888656D01*
X81111057Y-86954543D01*
X81111055Y-86954543D01*
X81111059Y-86954544D01*
X81111061Y-86954545D01*
X81238355Y-86988653D01*
X81238357Y-86988653D01*
X81338768Y-86988653D01*
X81396959Y-87007560D01*
X81408772Y-87017649D01*
X81729558Y-87338435D01*
X81757335Y-87392952D01*
X81747764Y-87453384D01*
X81704499Y-87496649D01*
X81685178Y-87504065D01*
X81617120Y-87522301D01*
X81617116Y-87522303D01*
X81502996Y-87588190D01*
X81409804Y-87681382D01*
X81378030Y-87736416D01*
X81332560Y-87777356D01*
X81271710Y-87783751D01*
X81222290Y-87756919D01*
X80869696Y-87404325D01*
X80841919Y-87349808D01*
X80840700Y-87334321D01*
X80840700Y-87233909D01*
X80836945Y-87219894D01*
X80806592Y-87106614D01*
X80806590Y-87106611D01*
X80806590Y-87106609D01*
X80740703Y-86992490D01*
X80740701Y-86992488D01*
X80740700Y-86992486D01*
X80647514Y-86899300D01*
X80647511Y-86899298D01*
X80647509Y-86899296D01*
X80533389Y-86833409D01*
X80533391Y-86833409D01*
X80458867Y-86813441D01*
X80406092Y-86799300D01*
X80274308Y-86799300D01*
X80221533Y-86813441D01*
X80147009Y-86833409D01*
X80032890Y-86899296D01*
X79939696Y-86992490D01*
X79873809Y-87106609D01*
X79860196Y-87157414D01*
X79839700Y-87233908D01*
X79839700Y-87365692D01*
X79849947Y-87403934D01*
X79873809Y-87492990D01*
X79939696Y-87607109D01*
X79939698Y-87607111D01*
X79939700Y-87607114D01*
X80032886Y-87700300D01*
X80032888Y-87700301D01*
X80032890Y-87700303D01*
X80147010Y-87766190D01*
X80147008Y-87766190D01*
X80147012Y-87766191D01*
X80147014Y-87766192D01*
X80274308Y-87800300D01*
X80274310Y-87800300D01*
X80374721Y-87800300D01*
X80432912Y-87819207D01*
X80444725Y-87829296D01*
X81809610Y-89194181D01*
X81809612Y-89194182D01*
X81809613Y-89194183D01*
X81809614Y-89194184D01*
X81878129Y-89233741D01*
X81878127Y-89233741D01*
X81878131Y-89233742D01*
X81878133Y-89233743D01*
X81954559Y-89254221D01*
X81954561Y-89254221D01*
X86676042Y-89254221D01*
X86676042Y-89254220D01*
X86752468Y-89233742D01*
X86820990Y-89194181D01*
X86861378Y-89153793D01*
X86876940Y-89138232D01*
X87169873Y-88845297D01*
X87224390Y-88817519D01*
X87239877Y-88816300D01*
X87340290Y-88816300D01*
X87340292Y-88816300D01*
X87467586Y-88782192D01*
X87467588Y-88782190D01*
X87467590Y-88782190D01*
X87581709Y-88716303D01*
X87581709Y-88716302D01*
X87581714Y-88716300D01*
X87674900Y-88623114D01*
X87693106Y-88591580D01*
X87740790Y-88508990D01*
X87740790Y-88508988D01*
X87740792Y-88508986D01*
X87774900Y-88381692D01*
X87774900Y-88249908D01*
X87740792Y-88122614D01*
X87740790Y-88122611D01*
X87740790Y-88122609D01*
X87674903Y-88008490D01*
X87674901Y-88008488D01*
X87674900Y-88008486D01*
X87581714Y-87915300D01*
X87581711Y-87915298D01*
X87581709Y-87915296D01*
X87467589Y-87849409D01*
X87467591Y-87849409D01*
X87392526Y-87829296D01*
X87340292Y-87815300D01*
X87208508Y-87815300D01*
X87156274Y-87829296D01*
X87081209Y-87849409D01*
X86967090Y-87915296D01*
X86873897Y-88008489D01*
X86869949Y-88013635D01*
X86868501Y-88012524D01*
X86829402Y-88047711D01*
X86768550Y-88054090D01*
X86719157Y-88027264D01*
X86692714Y-88000821D01*
X86692711Y-88000819D01*
X86692709Y-88000817D01*
X86578589Y-87934930D01*
X86578591Y-87934930D01*
X86529199Y-87921696D01*
X86451292Y-87900821D01*
X86350879Y-87900821D01*
X86343281Y-87898352D01*
X86335392Y-87899602D01*
X86314736Y-87889077D01*
X86292688Y-87881914D01*
X86280875Y-87871825D01*
X86264537Y-87855487D01*
X86236760Y-87800970D01*
X86246331Y-87740538D01*
X86285040Y-87699747D01*
X86307876Y-87686562D01*
X86357375Y-87673300D01*
X86476690Y-87673300D01*
X86476692Y-87673300D01*
X86603986Y-87639192D01*
X86603988Y-87639190D01*
X86603990Y-87639190D01*
X86718109Y-87573303D01*
X86718109Y-87573302D01*
X86718114Y-87573300D01*
X86811300Y-87480114D01*
X86877192Y-87365986D01*
X86911300Y-87238692D01*
X86911300Y-87106908D01*
X86877192Y-86979614D01*
X86877190Y-86979610D01*
X86877190Y-86979609D01*
X86811303Y-86865490D01*
X86811301Y-86865488D01*
X86811300Y-86865486D01*
X86718114Y-86772300D01*
X86718111Y-86772298D01*
X86718109Y-86772296D01*
X86603989Y-86706409D01*
X86603991Y-86706409D01*
X86537693Y-86688645D01*
X86476692Y-86672300D01*
X86344908Y-86672300D01*
X86283907Y-86688645D01*
X86217609Y-86706409D01*
X86103490Y-86772296D01*
X86010296Y-86865490D01*
X85944409Y-86979610D01*
X85944408Y-86979614D01*
X85924764Y-87052923D01*
X85891442Y-87104237D01*
X85834321Y-87126164D01*
X85829139Y-87126300D01*
X82408373Y-87126300D01*
X82350182Y-87107393D01*
X82338369Y-87097304D01*
X81833743Y-86592678D01*
X81830116Y-86585560D01*
X81823654Y-86580865D01*
X81816490Y-86558816D01*
X81805966Y-86538161D01*
X81804747Y-86522674D01*
X81804747Y-86454700D01*
X81823654Y-86396509D01*
X81873154Y-86360545D01*
X81903747Y-86355700D01*
X87142400Y-86355700D01*
X87200591Y-86374607D01*
X87236555Y-86424107D01*
X87238025Y-86429072D01*
X87246955Y-86462398D01*
X87269999Y-86548400D01*
X87335886Y-86662519D01*
X87335888Y-86662521D01*
X87335890Y-86662524D01*
X87418075Y-86744709D01*
X87443696Y-86789086D01*
X87456368Y-86836378D01*
X87456369Y-86836379D01*
X87477108Y-86872300D01*
X87495930Y-86904901D01*
X90119905Y-89528876D01*
X90147681Y-89583391D01*
X90148900Y-89598878D01*
X90148900Y-91488079D01*
X90129993Y-91546270D01*
X90080493Y-91582234D01*
X90019307Y-91582234D01*
X89979898Y-91558084D01*
X89969314Y-91547500D01*
X89855186Y-91481608D01*
X89850105Y-91480246D01*
X89805728Y-91454625D01*
X89036003Y-90684900D01*
X88059014Y-89707911D01*
X88059011Y-89707909D01*
X88059010Y-89707908D01*
X88059009Y-89707907D01*
X87956290Y-89648602D01*
X87956286Y-89648600D01*
X87932073Y-89642112D01*
X87932073Y-89642113D01*
X87841709Y-89617900D01*
X87841707Y-89617900D01*
X79381391Y-89617900D01*
X79323200Y-89598993D01*
X79311387Y-89588904D01*
X78299974Y-88577492D01*
X78274351Y-88533108D01*
X78272992Y-88528035D01*
X78207100Y-88413907D01*
X78113914Y-88320721D01*
X78113911Y-88320719D01*
X78113909Y-88320717D01*
X77999789Y-88254830D01*
X77999782Y-88254827D01*
X77994703Y-88253466D01*
X77950328Y-88227845D01*
X77753993Y-88031511D01*
X77753988Y-88031507D01*
X77651269Y-87972202D01*
X77651265Y-87972200D01*
X77627052Y-87965712D01*
X77627052Y-87965713D01*
X77536688Y-87941500D01*
X77536686Y-87941500D01*
X74085039Y-87941500D01*
X74035541Y-87928238D01*
X74030986Y-87925608D01*
X73903692Y-87891500D01*
X73771908Y-87891500D01*
X73694000Y-87912375D01*
X73644609Y-87925609D01*
X73530490Y-87991496D01*
X73437296Y-88084690D01*
X73371409Y-88198809D01*
X73352339Y-88269978D01*
X73337300Y-88326108D01*
X73337300Y-88457892D01*
X73367379Y-88570151D01*
X73371409Y-88585190D01*
X73437296Y-88699309D01*
X73437298Y-88699311D01*
X73437300Y-88699314D01*
X73530486Y-88792500D01*
X73530488Y-88792501D01*
X73530490Y-88792503D01*
X73644610Y-88858390D01*
X73644608Y-88858390D01*
X73644612Y-88858391D01*
X73644614Y-88858392D01*
X73771908Y-88892500D01*
X73771910Y-88892500D01*
X73903690Y-88892500D01*
X73903692Y-88892500D01*
X74030986Y-88858392D01*
X74035541Y-88855761D01*
X74085039Y-88842500D01*
X77244975Y-88842500D01*
X77303166Y-88861407D01*
X77337412Y-88908542D01*
X77337725Y-88908413D01*
X77338264Y-88909716D01*
X77339130Y-88910907D01*
X77340062Y-88914055D01*
X77340209Y-88914410D01*
X77406096Y-89028530D01*
X77406098Y-89028532D01*
X77406100Y-89028535D01*
X77499286Y-89121721D01*
X77613414Y-89187613D01*
X77618487Y-89188972D01*
X77662870Y-89214594D01*
X78877165Y-90428890D01*
X78979892Y-90488199D01*
X79004099Y-90494684D01*
X79004104Y-90494687D01*
X79004105Y-90494686D01*
X79094467Y-90518899D01*
X79094469Y-90518900D01*
X79094470Y-90518900D01*
X87554789Y-90518900D01*
X87612980Y-90537807D01*
X87624793Y-90547896D01*
X89168625Y-92091728D01*
X89190085Y-92123846D01*
X89192568Y-92129840D01*
X89195608Y-92141186D01*
X89201481Y-92151359D01*
X89203964Y-92157352D01*
X89205052Y-92171176D01*
X89211500Y-92195238D01*
X89211500Y-93921075D01*
X89192593Y-93979266D01*
X89143093Y-94015230D01*
X89086878Y-94016702D01*
X89019561Y-93998665D01*
X88977892Y-93987500D01*
X88846108Y-93987500D01*
X88779994Y-94005215D01*
X88718809Y-94021609D01*
X88604690Y-94087496D01*
X88604684Y-94087500D01*
X88556012Y-94136173D01*
X88501495Y-94163950D01*
X88486009Y-94165169D01*
X81242652Y-94165169D01*
X81240109Y-94164342D01*
X81237528Y-94165036D01*
X81224757Y-94159354D01*
X81184461Y-94146262D01*
X81180393Y-94143142D01*
X81176338Y-94139862D01*
X81101645Y-94065169D01*
X81039959Y-94029554D01*
X81033924Y-94024673D01*
X81021272Y-94005215D01*
X81005742Y-93987967D01*
X81004909Y-93980051D01*
X81000571Y-93973378D01*
X81001772Y-93950200D01*
X80999346Y-93927117D01*
X81003326Y-93920223D01*
X81003738Y-93912275D01*
X81018333Y-93894229D01*
X81029939Y-93874129D01*
X81037210Y-93870891D01*
X81042216Y-93864703D01*
X81064629Y-93858683D01*
X81085835Y-93849242D01*
X81096183Y-93848700D01*
X81931363Y-93848700D01*
X81931363Y-93848699D01*
X82007789Y-93828221D01*
X82076311Y-93788660D01*
X82132260Y-93732711D01*
X83245474Y-92619495D01*
X83299991Y-92591719D01*
X83315478Y-92590500D01*
X83415890Y-92590500D01*
X83415892Y-92590500D01*
X83543186Y-92556392D01*
X83543188Y-92556390D01*
X83543190Y-92556390D01*
X83657309Y-92490503D01*
X83657309Y-92490502D01*
X83657314Y-92490500D01*
X83750500Y-92397314D01*
X83753638Y-92391879D01*
X83816390Y-92283190D01*
X83816390Y-92283188D01*
X83816392Y-92283186D01*
X83850500Y-92155892D01*
X83850500Y-92024108D01*
X83816392Y-91896814D01*
X83816390Y-91896811D01*
X83816390Y-91896809D01*
X83750503Y-91782690D01*
X83750501Y-91782688D01*
X83750500Y-91782686D01*
X83657314Y-91689500D01*
X83657311Y-91689498D01*
X83657309Y-91689496D01*
X83543189Y-91623609D01*
X83543191Y-91623609D01*
X83488309Y-91608904D01*
X83415892Y-91589500D01*
X83284108Y-91589500D01*
X83183054Y-91616577D01*
X83156810Y-91623609D01*
X83114701Y-91647921D01*
X83054853Y-91660642D01*
X82998957Y-91635755D01*
X82979983Y-91608904D01*
X82978636Y-91609682D01*
X82975392Y-91604064D01*
X82975392Y-91604062D01*
X82909500Y-91489934D01*
X82816314Y-91396748D01*
X82816311Y-91396746D01*
X82816309Y-91396744D01*
X82702189Y-91330857D01*
X82702191Y-91330857D01*
X82652799Y-91317623D01*
X82574892Y-91296748D01*
X82443108Y-91296748D01*
X82365200Y-91317623D01*
X82315809Y-91330857D01*
X82201690Y-91396744D01*
X82201689Y-91396745D01*
X82201686Y-91396747D01*
X82201686Y-91396748D01*
X82155825Y-91442608D01*
X82101311Y-91470384D01*
X82040879Y-91460813D01*
X82015823Y-91442609D01*
X81993714Y-91420500D01*
X81993711Y-91420498D01*
X81993709Y-91420496D01*
X81879589Y-91354609D01*
X81879591Y-91354609D01*
X81830199Y-91341375D01*
X81752292Y-91320500D01*
X81620508Y-91320500D01*
X81542600Y-91341375D01*
X81493209Y-91354609D01*
X81379090Y-91420496D01*
X81379084Y-91420500D01*
X81337303Y-91462282D01*
X81282786Y-91490059D01*
X81222354Y-91480487D01*
X81197300Y-91462285D01*
X81192828Y-91457814D01*
X81192821Y-91457808D01*
X81078701Y-91391921D01*
X81078703Y-91391921D01*
X81029311Y-91378687D01*
X80951404Y-91357812D01*
X80819620Y-91357812D01*
X80741712Y-91378687D01*
X80692321Y-91391921D01*
X80578202Y-91457808D01*
X80545151Y-91490859D01*
X80490634Y-91518635D01*
X80430202Y-91509063D01*
X80389411Y-91470353D01*
X80385100Y-91462886D01*
X80291914Y-91369700D01*
X80291911Y-91369698D01*
X80291909Y-91369696D01*
X80177789Y-91303809D01*
X80177791Y-91303809D01*
X80050489Y-91269699D01*
X80044058Y-91268853D01*
X80044263Y-91267290D01*
X79993488Y-91250793D01*
X79981676Y-91240704D01*
X79813513Y-91072542D01*
X79813511Y-91072540D01*
X79765529Y-91044838D01*
X79744989Y-91032979D01*
X79744986Y-91032978D01*
X79668564Y-91012500D01*
X79668562Y-91012500D01*
X75218267Y-91012500D01*
X75160076Y-90993593D01*
X75148264Y-90983504D01*
X75008698Y-90843939D01*
X74999137Y-90838419D01*
X74989576Y-90832899D01*
X74989574Y-90832898D01*
X74958256Y-90814817D01*
X74940176Y-90804378D01*
X74863752Y-90783900D01*
X74863750Y-90783900D01*
X70569700Y-90783900D01*
X70511509Y-90764993D01*
X70475545Y-90715493D01*
X70470700Y-90684900D01*
X70470700Y-89943927D01*
X70470699Y-89943925D01*
X70469350Y-89929537D01*
X70467846Y-89913501D01*
X70422993Y-89785318D01*
X70365864Y-89707911D01*
X70342354Y-89676055D01*
X70342352Y-89676053D01*
X70342350Y-89676050D01*
X70342346Y-89676047D01*
X70342344Y-89676045D01*
X70233083Y-89595407D01*
X70104903Y-89550555D01*
X70104894Y-89550553D01*
X70074474Y-89547700D01*
X70074466Y-89547700D01*
X69514700Y-89547700D01*
X69456509Y-89528793D01*
X69420545Y-89479293D01*
X69415700Y-89448700D01*
X69415700Y-89353453D01*
X69415698Y-89353441D01*
X69412911Y-89339431D01*
X69404067Y-89294969D01*
X69359752Y-89228648D01*
X69308174Y-89194184D01*
X69293433Y-89184334D01*
X69293431Y-89184333D01*
X69293428Y-89184332D01*
X69293427Y-89184332D01*
X69234958Y-89172701D01*
X69234948Y-89172700D01*
X69234947Y-89172700D01*
X68544700Y-89172700D01*
X68486509Y-89153793D01*
X68450545Y-89104293D01*
X68445700Y-89073700D01*
X68445700Y-84439908D01*
X90355300Y-84439908D01*
X90355300Y-84571692D01*
X90385379Y-84683951D01*
X90389409Y-84698990D01*
X90455296Y-84813109D01*
X90455298Y-84813111D01*
X90455300Y-84813114D01*
X90548486Y-84906300D01*
X90548488Y-84906301D01*
X90548490Y-84906303D01*
X90662610Y-84972190D01*
X90662608Y-84972190D01*
X90662612Y-84972191D01*
X90662614Y-84972192D01*
X90789908Y-85006300D01*
X90789910Y-85006300D01*
X90921690Y-85006300D01*
X90921692Y-85006300D01*
X91048986Y-84972192D01*
X91048988Y-84972190D01*
X91048990Y-84972190D01*
X91163109Y-84906303D01*
X91163109Y-84906302D01*
X91163114Y-84906300D01*
X91256300Y-84813114D01*
X91271725Y-84786397D01*
X91322190Y-84698990D01*
X91322190Y-84698988D01*
X91322192Y-84698986D01*
X91356300Y-84571692D01*
X91356300Y-84439908D01*
X91322192Y-84312614D01*
X91322190Y-84312611D01*
X91322190Y-84312609D01*
X91256303Y-84198490D01*
X91256301Y-84198488D01*
X91256300Y-84198486D01*
X91185294Y-84127480D01*
X91157519Y-84072966D01*
X91156300Y-84057479D01*
X91156300Y-82283678D01*
X91175207Y-82225487D01*
X91185290Y-82213680D01*
X92097474Y-81301495D01*
X92151991Y-81273719D01*
X92167478Y-81272500D01*
X92267890Y-81272500D01*
X92267892Y-81272500D01*
X92395186Y-81238392D01*
X92395188Y-81238390D01*
X92395190Y-81238390D01*
X92509309Y-81172503D01*
X92509309Y-81172502D01*
X92509314Y-81172500D01*
X92602500Y-81079314D01*
X92625949Y-81038699D01*
X92668390Y-80965190D01*
X92668390Y-80965188D01*
X92668392Y-80965186D01*
X92702500Y-80837892D01*
X92702500Y-80706108D01*
X92668392Y-80578814D01*
X92668390Y-80578811D01*
X92668390Y-80578809D01*
X92602503Y-80464690D01*
X92602501Y-80464688D01*
X92602500Y-80464686D01*
X92509314Y-80371500D01*
X92509311Y-80371498D01*
X92509309Y-80371496D01*
X92395189Y-80305609D01*
X92395191Y-80305609D01*
X92345799Y-80292375D01*
X92267892Y-80271500D01*
X92136108Y-80271500D01*
X92058200Y-80292375D01*
X92008809Y-80305609D01*
X91894690Y-80371496D01*
X91801496Y-80464690D01*
X91735609Y-80578809D01*
X91701500Y-80706109D01*
X91701500Y-80806520D01*
X91682593Y-80864711D01*
X91672504Y-80876524D01*
X90671289Y-81877740D01*
X90671288Y-81877739D01*
X90615339Y-81933689D01*
X90575780Y-82002207D01*
X90575778Y-82002211D01*
X90555300Y-82078635D01*
X90555300Y-84057479D01*
X90536393Y-84115670D01*
X90526309Y-84127476D01*
X90455300Y-84198486D01*
X90455297Y-84198489D01*
X90455296Y-84198490D01*
X90389409Y-84312609D01*
X90389408Y-84312614D01*
X90355300Y-84439908D01*
X68445700Y-84439908D01*
X68445700Y-59395508D01*
X72397500Y-59395508D01*
X72397500Y-59527292D01*
X72431608Y-59654586D01*
X72434234Y-59659135D01*
X72447500Y-59708638D01*
X72447500Y-76106909D01*
X72471713Y-76197273D01*
X72471712Y-76197273D01*
X72478200Y-76221486D01*
X72478202Y-76221490D01*
X72537507Y-76324209D01*
X72537511Y-76324214D01*
X73115824Y-76902529D01*
X73141445Y-76946902D01*
X73142807Y-76951984D01*
X73142809Y-76951989D01*
X73208696Y-77066109D01*
X73208698Y-77066111D01*
X73208700Y-77066114D01*
X73301886Y-77159300D01*
X73301888Y-77159301D01*
X73301890Y-77159303D01*
X73416010Y-77225190D01*
X73416008Y-77225190D01*
X73416012Y-77225191D01*
X73416014Y-77225192D01*
X73543308Y-77259300D01*
X73543310Y-77259300D01*
X73675090Y-77259300D01*
X73675092Y-77259300D01*
X73802386Y-77225192D01*
X73802388Y-77225190D01*
X73802390Y-77225190D01*
X73916509Y-77159303D01*
X73916509Y-77159302D01*
X73916514Y-77159300D01*
X74009700Y-77066114D01*
X74020035Y-77048214D01*
X74075590Y-76951990D01*
X74075590Y-76951988D01*
X74075592Y-76951986D01*
X74109700Y-76824692D01*
X74109700Y-76692908D01*
X74075592Y-76565614D01*
X74075590Y-76565611D01*
X74075590Y-76565609D01*
X74009703Y-76451490D01*
X74009701Y-76451488D01*
X74009700Y-76451486D01*
X73916514Y-76358300D01*
X73916511Y-76358298D01*
X73916509Y-76358296D01*
X73802389Y-76292409D01*
X73802384Y-76292407D01*
X73797302Y-76291045D01*
X73752928Y-76265424D01*
X73377496Y-75889992D01*
X73349719Y-75835475D01*
X73348500Y-75819988D01*
X73348500Y-59708638D01*
X73361765Y-59659135D01*
X73364392Y-59654586D01*
X73398500Y-59527292D01*
X73398500Y-59395508D01*
X73364392Y-59268214D01*
X73364390Y-59268211D01*
X73364390Y-59268209D01*
X73298503Y-59154090D01*
X73298501Y-59154088D01*
X73298500Y-59154086D01*
X73205314Y-59060900D01*
X73205311Y-59060898D01*
X73205309Y-59060896D01*
X73091189Y-58995009D01*
X73091191Y-58995009D01*
X73041799Y-58981775D01*
X72963892Y-58960900D01*
X72832108Y-58960900D01*
X72754200Y-58981775D01*
X72704809Y-58995009D01*
X72590690Y-59060896D01*
X72497496Y-59154090D01*
X72431609Y-59268209D01*
X72421666Y-59305318D01*
X72397500Y-59395508D01*
X68445700Y-59395508D01*
X68445700Y-45952700D01*
X68464607Y-45894509D01*
X68514107Y-45858545D01*
X68544700Y-45853700D01*
X69234947Y-45853700D01*
X69234948Y-45853700D01*
X69293431Y-45842067D01*
X69359752Y-45797752D01*
X69404067Y-45731431D01*
X69415700Y-45672948D01*
X69415700Y-45577700D01*
X69420545Y-45562788D01*
X69420545Y-45547107D01*
X69429761Y-45534421D01*
X69434607Y-45519509D01*
X69447292Y-45510292D01*
X69456509Y-45497607D01*
X69471421Y-45492761D01*
X69484107Y-45483545D01*
X69514700Y-45478700D01*
X69692589Y-45478700D01*
X69750780Y-45497607D01*
X69762593Y-45507696D01*
X70360786Y-46105889D01*
X70360788Y-46105890D01*
X70360789Y-46105891D01*
X70360790Y-46105892D01*
X70463507Y-46165196D01*
X70463509Y-46165197D01*
X70463513Y-46165199D01*
X70487722Y-46171684D01*
X70487725Y-46171687D01*
X70487726Y-46171686D01*
X70578088Y-46195899D01*
X70578090Y-46195900D01*
X70578091Y-46195900D01*
X72218961Y-46195900D01*
X72268458Y-46209161D01*
X72273014Y-46211792D01*
X72400308Y-46245900D01*
X72400310Y-46245900D01*
X72532090Y-46245900D01*
X72532092Y-46245900D01*
X72659386Y-46211792D01*
X72659388Y-46211790D01*
X72659390Y-46211790D01*
X72773509Y-46145903D01*
X72773509Y-46145902D01*
X72773514Y-46145900D01*
X72866700Y-46052714D01*
X72869049Y-46048645D01*
X72932590Y-45938590D01*
X72932590Y-45938588D01*
X72932592Y-45938586D01*
X72966700Y-45811292D01*
X72966700Y-45679508D01*
X72932592Y-45552214D01*
X72932590Y-45552211D01*
X72932590Y-45552209D01*
X72866703Y-45438090D01*
X72866701Y-45438088D01*
X72866700Y-45438086D01*
X72773514Y-45344900D01*
X72773511Y-45344898D01*
X72773509Y-45344896D01*
X72659389Y-45279009D01*
X72659391Y-45279009D01*
X72609999Y-45265775D01*
X72532092Y-45244900D01*
X72400308Y-45244900D01*
X72321919Y-45265904D01*
X72273013Y-45279008D01*
X72268459Y-45281638D01*
X72218961Y-45294900D01*
X70865011Y-45294900D01*
X70806820Y-45275993D01*
X70795007Y-45265904D01*
X70499696Y-44970593D01*
X70471919Y-44916076D01*
X70470700Y-44900589D01*
X70470700Y-44223927D01*
X70470699Y-44223925D01*
X70467846Y-44193505D01*
X70467846Y-44193501D01*
X70422993Y-44065318D01*
X70342350Y-43956050D01*
X70342346Y-43956047D01*
X70342344Y-43956045D01*
X70233087Y-43875410D01*
X70233078Y-43875405D01*
X70104903Y-43830555D01*
X70104894Y-43830553D01*
X70074474Y-43827700D01*
X70074466Y-43827700D01*
X69514700Y-43827700D01*
X69456509Y-43808793D01*
X69444884Y-43792793D01*
X75986100Y-43792793D01*
X75986100Y-43994804D01*
X76025508Y-44192923D01*
X76025510Y-44192929D01*
X76102813Y-44379554D01*
X76215039Y-44547513D01*
X76215042Y-44547517D01*
X76357882Y-44690357D01*
X76525844Y-44802585D01*
X76712473Y-44879890D01*
X76910597Y-44919299D01*
X76910598Y-44919299D01*
X77112602Y-44919299D01*
X77112603Y-44919299D01*
X77310727Y-44879890D01*
X77497356Y-44802585D01*
X77665318Y-44690357D01*
X77808158Y-44547517D01*
X77920386Y-44379555D01*
X77997691Y-44192926D01*
X78037100Y-43994802D01*
X78037100Y-43792796D01*
X77997691Y-43594672D01*
X77920386Y-43408043D01*
X77808158Y-43240081D01*
X77665318Y-43097241D01*
X77665314Y-43097238D01*
X77497355Y-42985012D01*
X77310730Y-42907709D01*
X77310724Y-42907707D01*
X77112605Y-42868299D01*
X77112603Y-42868299D01*
X76910597Y-42868299D01*
X76910594Y-42868299D01*
X76712475Y-42907707D01*
X76712469Y-42907709D01*
X76525844Y-42985012D01*
X76357885Y-43097238D01*
X76215039Y-43240084D01*
X76102813Y-43408043D01*
X76025510Y-43594668D01*
X76025508Y-43594674D01*
X75986100Y-43792793D01*
X69444884Y-43792793D01*
X69420545Y-43759293D01*
X69415700Y-43728700D01*
X69415700Y-43633453D01*
X69415698Y-43633441D01*
X69412911Y-43619431D01*
X69404067Y-43574969D01*
X69359752Y-43508648D01*
X69295197Y-43465513D01*
X69257320Y-43417465D01*
X69254918Y-43356327D01*
X69288911Y-43305454D01*
X69295188Y-43300892D01*
X69359752Y-43257752D01*
X69404067Y-43191431D01*
X69415700Y-43132948D01*
X69415700Y-43037700D01*
X69434607Y-42979509D01*
X69484107Y-42943545D01*
X69514700Y-42938700D01*
X70074473Y-42938700D01*
X70074473Y-42938699D01*
X70104899Y-42935846D01*
X70233082Y-42890993D01*
X70342350Y-42810350D01*
X70422993Y-42701082D01*
X70447865Y-42630002D01*
X70484930Y-42581322D01*
X70541309Y-42563700D01*
X79185589Y-42563700D01*
X79243780Y-42582607D01*
X79255593Y-42592696D01*
X86363104Y-49700207D01*
X86390881Y-49754724D01*
X86392100Y-49770211D01*
X86392100Y-53831109D01*
X86416313Y-53921473D01*
X86416312Y-53921473D01*
X86422800Y-53945686D01*
X86422802Y-53945690D01*
X86482107Y-54048409D01*
X86482108Y-54048410D01*
X86482109Y-54048411D01*
X86482111Y-54048414D01*
X87451086Y-55017389D01*
X87955310Y-55521613D01*
X90096904Y-57663207D01*
X90124681Y-57717724D01*
X90125900Y-57733211D01*
X90125900Y-62616765D01*
X90150113Y-62707129D01*
X90150112Y-62707129D01*
X90156600Y-62731342D01*
X90156602Y-62731346D01*
X90215907Y-62834065D01*
X90215908Y-62834066D01*
X90215909Y-62834067D01*
X90215911Y-62834070D01*
X95324307Y-67942466D01*
X99810337Y-72428496D01*
X99838114Y-72483013D01*
X99828543Y-72543445D01*
X99785278Y-72586710D01*
X99740333Y-72597500D01*
X76682435Y-72597500D01*
X76606011Y-72617978D01*
X76606007Y-72617980D01*
X76537491Y-72657538D01*
X75424524Y-73770504D01*
X75370007Y-73798281D01*
X75354520Y-73799500D01*
X75254108Y-73799500D01*
X75176200Y-73820375D01*
X75126809Y-73833609D01*
X75012690Y-73899496D01*
X74919496Y-73992690D01*
X74853609Y-74106809D01*
X74853608Y-74106814D01*
X74819500Y-74234108D01*
X74819500Y-74365892D01*
X74838297Y-74436045D01*
X74853609Y-74493190D01*
X74919496Y-74607309D01*
X74919498Y-74607311D01*
X74919500Y-74607314D01*
X75012686Y-74700500D01*
X75012688Y-74700501D01*
X75012690Y-74700503D01*
X75126810Y-74766390D01*
X75126808Y-74766390D01*
X75126812Y-74766391D01*
X75126814Y-74766392D01*
X75254108Y-74800500D01*
X75254110Y-74800500D01*
X75385890Y-74800500D01*
X75385892Y-74800500D01*
X75513186Y-74766392D01*
X75513188Y-74766390D01*
X75513190Y-74766390D01*
X75627309Y-74700503D01*
X75627309Y-74700502D01*
X75627314Y-74700500D01*
X75720500Y-74607314D01*
X75720503Y-74607309D01*
X75786390Y-74493190D01*
X75786390Y-74493188D01*
X75786392Y-74493186D01*
X75820500Y-74365892D01*
X75820500Y-74265478D01*
X75839407Y-74207287D01*
X75849496Y-74195474D01*
X76817475Y-73227496D01*
X76871992Y-73199719D01*
X76887479Y-73198500D01*
X83903100Y-73198500D01*
X83961291Y-73217407D01*
X83997255Y-73266907D01*
X84002100Y-73297500D01*
X84002100Y-76793079D01*
X83983193Y-76851270D01*
X83973109Y-76863076D01*
X83933657Y-76902529D01*
X83902097Y-76934089D01*
X83902096Y-76934090D01*
X83836209Y-77048209D01*
X83826266Y-77085318D01*
X83802100Y-77175508D01*
X83802100Y-77307292D01*
X83832179Y-77419551D01*
X83836209Y-77434590D01*
X83902096Y-77548709D01*
X83902098Y-77548711D01*
X83902100Y-77548714D01*
X83995286Y-77641900D01*
X83995288Y-77641901D01*
X83995290Y-77641903D01*
X84109410Y-77707790D01*
X84109408Y-77707790D01*
X84109412Y-77707791D01*
X84109414Y-77707792D01*
X84236708Y-77741900D01*
X84236710Y-77741900D01*
X84368490Y-77741900D01*
X84368492Y-77741900D01*
X84495786Y-77707792D01*
X84495788Y-77707790D01*
X84495790Y-77707790D01*
X84609909Y-77641903D01*
X84609909Y-77641902D01*
X84609914Y-77641900D01*
X84703100Y-77548714D01*
X84747708Y-77471451D01*
X84768990Y-77434590D01*
X84768990Y-77434588D01*
X84768992Y-77434586D01*
X84803100Y-77307292D01*
X84803100Y-77175508D01*
X84768992Y-77048214D01*
X84768990Y-77048211D01*
X84768990Y-77048209D01*
X84703103Y-76934090D01*
X84703101Y-76934088D01*
X84703100Y-76934086D01*
X84632094Y-76863080D01*
X84604319Y-76808566D01*
X84603100Y-76793079D01*
X84603100Y-73297500D01*
X84622007Y-73239309D01*
X84671507Y-73203345D01*
X84702100Y-73198500D01*
X99758121Y-73198500D01*
X99816312Y-73217407D01*
X99828125Y-73227496D01*
X103483504Y-76882875D01*
X103511281Y-76937392D01*
X103512500Y-76952879D01*
X103512500Y-77053292D01*
X103540905Y-77159303D01*
X103546609Y-77180590D01*
X103612496Y-77294709D01*
X103612498Y-77294711D01*
X103612500Y-77294714D01*
X103705686Y-77387900D01*
X103705688Y-77387901D01*
X103705690Y-77387903D01*
X103819810Y-77453790D01*
X103819808Y-77453790D01*
X103819812Y-77453791D01*
X103819814Y-77453792D01*
X103947108Y-77487900D01*
X103947110Y-77487900D01*
X104078889Y-77487900D01*
X104078892Y-77487900D01*
X104140280Y-77471451D01*
X104201378Y-77474653D01*
X104248928Y-77513158D01*
X104264900Y-77567078D01*
X104264900Y-77936989D01*
X104245993Y-77995180D01*
X104235904Y-78006993D01*
X103194003Y-79048893D01*
X103139486Y-79076670D01*
X103079054Y-79067099D01*
X103053998Y-79048895D01*
X102892614Y-78887511D01*
X102892611Y-78887509D01*
X102892609Y-78887507D01*
X102789890Y-78828202D01*
X102789886Y-78828200D01*
X102765673Y-78821712D01*
X102765673Y-78821713D01*
X102675309Y-78797500D01*
X102675307Y-78797500D01*
X86587611Y-78797500D01*
X86529420Y-78778593D01*
X86517607Y-78768504D01*
X85837374Y-78088271D01*
X85811751Y-78043887D01*
X85810392Y-78038815D01*
X85810392Y-78038814D01*
X85744500Y-77924686D01*
X85651314Y-77831500D01*
X85651311Y-77831498D01*
X85651309Y-77831496D01*
X85537189Y-77765609D01*
X85537191Y-77765609D01*
X85487799Y-77752375D01*
X85409892Y-77731500D01*
X85278108Y-77731500D01*
X85200200Y-77752375D01*
X85150809Y-77765609D01*
X85036690Y-77831496D01*
X84943496Y-77924690D01*
X84877609Y-78038810D01*
X84877607Y-78038815D01*
X84876245Y-78043898D01*
X84850624Y-78088271D01*
X84678394Y-78260503D01*
X84623878Y-78288281D01*
X84608390Y-78289500D01*
X75015239Y-78289500D01*
X74965741Y-78276238D01*
X74961186Y-78273608D01*
X74833892Y-78239500D01*
X74702108Y-78239500D01*
X74624200Y-78260375D01*
X74574809Y-78273609D01*
X74460690Y-78339496D01*
X74367496Y-78432690D01*
X74301609Y-78546809D01*
X74287973Y-78597700D01*
X74267500Y-78674108D01*
X74267500Y-78805892D01*
X74297579Y-78918151D01*
X74301609Y-78933190D01*
X74367496Y-79047309D01*
X74367498Y-79047311D01*
X74367500Y-79047314D01*
X74460686Y-79140500D01*
X74460688Y-79140501D01*
X74460690Y-79140503D01*
X74574810Y-79206390D01*
X74574808Y-79206390D01*
X74574812Y-79206391D01*
X74574814Y-79206392D01*
X74702108Y-79240500D01*
X74702110Y-79240500D01*
X74833890Y-79240500D01*
X74833892Y-79240500D01*
X74961186Y-79206392D01*
X74965741Y-79203761D01*
X75015239Y-79190500D01*
X84895309Y-79190500D01*
X84985669Y-79166287D01*
X84985672Y-79166287D01*
X84998903Y-79162741D01*
X85009887Y-79159799D01*
X85112614Y-79100489D01*
X85273997Y-78939105D01*
X85328512Y-78911329D01*
X85388944Y-78920900D01*
X85414003Y-78939106D01*
X86083386Y-79608489D01*
X86083388Y-79608490D01*
X86083389Y-79608491D01*
X86083390Y-79608492D01*
X86186107Y-79667796D01*
X86186109Y-79667797D01*
X86186113Y-79667799D01*
X86210322Y-79674284D01*
X86210325Y-79674287D01*
X86210326Y-79674286D01*
X86300688Y-79698499D01*
X86300690Y-79698500D01*
X86300691Y-79698500D01*
X102388389Y-79698500D01*
X102446580Y-79717407D01*
X102458393Y-79727496D01*
X102630624Y-79899727D01*
X102656245Y-79944103D01*
X102657606Y-79949182D01*
X102657609Y-79949189D01*
X102723496Y-80063309D01*
X102723498Y-80063311D01*
X102723500Y-80063314D01*
X102816686Y-80156500D01*
X102816688Y-80156501D01*
X102816690Y-80156503D01*
X102930810Y-80222390D01*
X102930808Y-80222390D01*
X102930812Y-80222391D01*
X102930814Y-80222392D01*
X103058108Y-80256500D01*
X103058110Y-80256500D01*
X103189890Y-80256500D01*
X103189892Y-80256500D01*
X103317186Y-80222392D01*
X103317188Y-80222390D01*
X103317190Y-80222390D01*
X103431309Y-80156503D01*
X103431309Y-80156502D01*
X103431314Y-80156500D01*
X103524500Y-80063314D01*
X103590392Y-79949186D01*
X103591750Y-79944114D01*
X103617373Y-79899728D01*
X105075889Y-78441214D01*
X105116800Y-78370354D01*
X105118857Y-78366792D01*
X105127027Y-78352639D01*
X105135199Y-78338486D01*
X105165900Y-78223909D01*
X105165900Y-76637147D01*
X105135199Y-76522570D01*
X105134300Y-76521014D01*
X105134299Y-76521007D01*
X105134298Y-76521008D01*
X105075891Y-76419845D01*
X105075890Y-76419843D01*
X91055896Y-62399849D01*
X91028119Y-62345332D01*
X91026900Y-62329845D01*
X91026900Y-57446292D01*
X90996199Y-57331714D01*
X90996199Y-57331712D01*
X90936892Y-57228990D01*
X90936891Y-57228989D01*
X90936890Y-57228988D01*
X90936889Y-57228986D01*
X88795296Y-55087393D01*
X88767519Y-55032876D01*
X88766300Y-55017389D01*
X88766300Y-54730238D01*
X88779565Y-54680735D01*
X88782192Y-54676186D01*
X88816300Y-54548892D01*
X88816300Y-54417108D01*
X88782192Y-54289814D01*
X88782190Y-54289811D01*
X88782190Y-54289809D01*
X88716303Y-54175690D01*
X88716301Y-54175688D01*
X88716300Y-54175686D01*
X88623114Y-54082500D01*
X88623111Y-54082498D01*
X88623109Y-54082496D01*
X88508989Y-54016609D01*
X88508991Y-54016609D01*
X88459599Y-54003375D01*
X88381692Y-53982500D01*
X88249908Y-53982500D01*
X88172000Y-54003375D01*
X88122609Y-54016609D01*
X88008490Y-54082496D01*
X88008489Y-54082497D01*
X88008486Y-54082499D01*
X88008486Y-54082500D01*
X87969446Y-54121539D01*
X87914932Y-54149315D01*
X87854500Y-54139744D01*
X87829441Y-54121538D01*
X87322096Y-53614193D01*
X87294319Y-53559676D01*
X87293100Y-53544189D01*
X87293100Y-49483292D01*
X87262399Y-49368714D01*
X87262399Y-49368712D01*
X87203092Y-49265990D01*
X87203090Y-49265988D01*
X87203089Y-49265986D01*
X81754519Y-43817416D01*
X100436100Y-43817416D01*
X100436100Y-43970181D01*
X100465902Y-44120003D01*
X100465902Y-44120005D01*
X100524359Y-44261133D01*
X100524359Y-44261134D01*
X100566649Y-44324425D01*
X100609230Y-44388151D01*
X100717248Y-44496169D01*
X100844263Y-44581038D01*
X100985395Y-44639497D01*
X101135220Y-44669299D01*
X101135221Y-44669299D01*
X101287979Y-44669299D01*
X101287980Y-44669299D01*
X101437805Y-44639497D01*
X101578937Y-44581038D01*
X101705952Y-44496169D01*
X101813970Y-44388151D01*
X101898839Y-44261136D01*
X101957298Y-44120004D01*
X101987100Y-43970179D01*
X101987100Y-43817419D01*
X101957298Y-43667594D01*
X101898840Y-43526464D01*
X101898840Y-43526463D01*
X101858115Y-43465515D01*
X101813970Y-43399447D01*
X101705952Y-43291429D01*
X101578937Y-43206560D01*
X101578936Y-43206559D01*
X101578934Y-43206558D01*
X101437805Y-43148101D01*
X101287982Y-43118299D01*
X101287980Y-43118299D01*
X101135220Y-43118299D01*
X101135217Y-43118299D01*
X100985395Y-43148101D01*
X100985393Y-43148101D01*
X100844265Y-43206558D01*
X100844264Y-43206558D01*
X100717248Y-43291429D01*
X100717244Y-43291432D01*
X100609233Y-43399443D01*
X100609230Y-43399447D01*
X100524359Y-43526463D01*
X100524359Y-43526464D01*
X100465902Y-43667592D01*
X100465902Y-43667594D01*
X100436100Y-43817416D01*
X81754519Y-43817416D01*
X79689814Y-41752711D01*
X79689811Y-41752709D01*
X79689809Y-41752707D01*
X79587090Y-41693402D01*
X79587086Y-41693400D01*
X79562873Y-41686912D01*
X79562873Y-41686913D01*
X79472509Y-41662700D01*
X79472507Y-41662700D01*
X70541309Y-41662700D01*
X70483118Y-41643793D01*
X70447865Y-41596398D01*
X70422992Y-41525316D01*
X70342354Y-41416055D01*
X70342352Y-41416053D01*
X70342350Y-41416050D01*
X70342346Y-41416047D01*
X70342344Y-41416045D01*
X70233083Y-41335407D01*
X70104903Y-41290555D01*
X70104894Y-41290553D01*
X70074474Y-41287700D01*
X70074466Y-41287700D01*
X69514700Y-41287700D01*
X69456509Y-41268793D01*
X69420545Y-41219293D01*
X69415700Y-41188700D01*
X69415700Y-41093453D01*
X69415698Y-41093441D01*
X69412911Y-41079431D01*
X69404067Y-41034969D01*
X69359752Y-40968648D01*
X69295200Y-40925515D01*
X69293433Y-40924334D01*
X69293431Y-40924333D01*
X69293428Y-40924332D01*
X69293427Y-40924332D01*
X69234958Y-40912701D01*
X69234948Y-40912700D01*
X69234947Y-40912700D01*
X68544700Y-40912700D01*
X68486509Y-40893793D01*
X68450545Y-40844293D01*
X68445700Y-40813700D01*
X68445700Y-38332700D01*
X68464607Y-38274509D01*
X68514107Y-38238545D01*
X68544700Y-38233700D01*
X69234947Y-38233700D01*
X69234948Y-38233700D01*
X69293431Y-38222067D01*
X69359752Y-38177752D01*
X69404067Y-38111431D01*
X69415700Y-38052948D01*
X69415700Y-37957700D01*
X69434607Y-37899509D01*
X69484107Y-37863545D01*
X69514700Y-37858700D01*
X70074473Y-37858700D01*
X70074473Y-37858699D01*
X70104899Y-37855846D01*
X70233082Y-37810993D01*
X70342350Y-37730350D01*
X70422993Y-37621082D01*
X70467846Y-37492899D01*
X70470699Y-37462473D01*
X70470700Y-37462473D01*
X70470700Y-36603927D01*
X70470699Y-36603925D01*
X70467846Y-36573505D01*
X70467846Y-36573501D01*
X70422993Y-36445318D01*
X70405404Y-36421486D01*
X70386064Y-36363439D01*
X70404536Y-36305108D01*
X70453766Y-36268776D01*
X70485061Y-36263699D01*
X108205339Y-36263699D01*
X108220595Y-36268655D01*
G37*
%TD.AperFunction*%
%TA.AperFunction,Conductor*%
G36*
X70887045Y-94887069D02*
G01*
X70930310Y-94930334D01*
X70941100Y-94975279D01*
X70941100Y-97449651D01*
X70938552Y-97449651D01*
X70929384Y-97499082D01*
X70912391Y-97521836D01*
X70770526Y-97663703D01*
X70763409Y-97667329D01*
X70758713Y-97673793D01*
X70736663Y-97680957D01*
X70716010Y-97691481D01*
X70700522Y-97692700D01*
X70569700Y-97692700D01*
X70511509Y-97673793D01*
X70475545Y-97624293D01*
X70470700Y-97593700D01*
X70470700Y-97563927D01*
X70470699Y-97563925D01*
X70467846Y-97533505D01*
X70467846Y-97533501D01*
X70422993Y-97405318D01*
X70342350Y-97296050D01*
X70342346Y-97296047D01*
X70342344Y-97296045D01*
X70233083Y-97215407D01*
X70104903Y-97170555D01*
X70104894Y-97170553D01*
X70074474Y-97167700D01*
X70074466Y-97167700D01*
X69514700Y-97167700D01*
X69456509Y-97148793D01*
X69420545Y-97099293D01*
X69415700Y-97068700D01*
X69415700Y-96973453D01*
X69415698Y-96973441D01*
X69412911Y-96959431D01*
X69404067Y-96914969D01*
X69359752Y-96848648D01*
X69295197Y-96805513D01*
X69257320Y-96757465D01*
X69254918Y-96696327D01*
X69288911Y-96645454D01*
X69295188Y-96640892D01*
X69359752Y-96597752D01*
X69404067Y-96531431D01*
X69415700Y-96472948D01*
X69415700Y-96377700D01*
X69434607Y-96319509D01*
X69484107Y-96283545D01*
X69514700Y-96278700D01*
X70074473Y-96278700D01*
X70074473Y-96278699D01*
X70104899Y-96275846D01*
X70233082Y-96230993D01*
X70342350Y-96150350D01*
X70422993Y-96041082D01*
X70467846Y-95912899D01*
X70470699Y-95882473D01*
X70470700Y-95882473D01*
X70470700Y-95247679D01*
X70489607Y-95189488D01*
X70499696Y-95177675D01*
X70772096Y-94905275D01*
X70826613Y-94877498D01*
X70887045Y-94887069D01*
G37*
%TD.AperFunction*%
%TA.AperFunction,Conductor*%
G36*
X108257397Y-96090461D02*
G01*
X108280226Y-96090291D01*
X108287025Y-96095154D01*
X108295283Y-96096462D01*
X108329993Y-96125884D01*
X108348045Y-96150344D01*
X108348047Y-96150346D01*
X108348050Y-96150350D01*
X108348053Y-96150352D01*
X108348055Y-96150354D01*
X108457316Y-96230992D01*
X108457317Y-96230992D01*
X108457318Y-96230993D01*
X108585501Y-96275846D01*
X108615925Y-96278699D01*
X108615927Y-96278700D01*
X108615934Y-96278700D01*
X109175700Y-96278700D01*
X109233891Y-96297607D01*
X109269855Y-96347107D01*
X109274700Y-96377700D01*
X109274700Y-96472946D01*
X109274701Y-96472958D01*
X109286332Y-96531427D01*
X109286334Y-96531433D01*
X109322922Y-96586190D01*
X109330648Y-96597752D01*
X109330651Y-96597754D01*
X109395200Y-96640885D01*
X109433079Y-96688935D01*
X109435481Y-96750073D01*
X109401488Y-96800947D01*
X109395200Y-96805515D01*
X109330651Y-96848645D01*
X109330645Y-96848651D01*
X109286334Y-96914966D01*
X109286332Y-96914972D01*
X109274701Y-96973441D01*
X109274700Y-96973453D01*
X109274700Y-97068700D01*
X109255793Y-97126891D01*
X109206293Y-97162855D01*
X109175700Y-97167700D01*
X108615925Y-97167700D01*
X108585505Y-97170553D01*
X108585496Y-97170555D01*
X108457316Y-97215407D01*
X108348055Y-97296045D01*
X108348045Y-97296055D01*
X108267407Y-97405316D01*
X108222555Y-97533496D01*
X108222553Y-97533505D01*
X108219700Y-97563925D01*
X108219700Y-97593700D01*
X108200793Y-97651891D01*
X108151293Y-97687855D01*
X108120700Y-97692700D01*
X106841311Y-97692700D01*
X106783120Y-97673793D01*
X106747156Y-97624293D01*
X106747156Y-97563107D01*
X106771307Y-97523696D01*
X108180334Y-96114668D01*
X108200676Y-96104303D01*
X108219042Y-96090749D01*
X108227401Y-96090686D01*
X108234851Y-96086891D01*
X108257397Y-96090461D01*
G37*
%TD.AperFunction*%
%TA.AperFunction,Conductor*%
G36*
X71636112Y-93029407D02*
G01*
X71672076Y-93078907D01*
X71672076Y-93140093D01*
X71647925Y-93179502D01*
X71270306Y-93557122D01*
X70217018Y-94610409D01*
X70162501Y-94638186D01*
X70114315Y-94633849D01*
X70104899Y-94630554D01*
X70104894Y-94630553D01*
X70074474Y-94627700D01*
X70074466Y-94627700D01*
X69514700Y-94627700D01*
X69456509Y-94608793D01*
X69420545Y-94559293D01*
X69415700Y-94528700D01*
X69415700Y-94433453D01*
X69415698Y-94433441D01*
X69409002Y-94399778D01*
X69404067Y-94374969D01*
X69359752Y-94308648D01*
X69295197Y-94265513D01*
X69257320Y-94217465D01*
X69254918Y-94156327D01*
X69288911Y-94105454D01*
X69295188Y-94100892D01*
X69359752Y-94057752D01*
X69404067Y-93991431D01*
X69415700Y-93932948D01*
X69415700Y-93837700D01*
X69434607Y-93779509D01*
X69484107Y-93743545D01*
X69514700Y-93738700D01*
X70074473Y-93738700D01*
X70074473Y-93738699D01*
X70104899Y-93735846D01*
X70233082Y-93690993D01*
X70342350Y-93610350D01*
X70422993Y-93501082D01*
X70467846Y-93372899D01*
X70470699Y-93342473D01*
X70470700Y-93342473D01*
X70470700Y-93109500D01*
X70489607Y-93051309D01*
X70539107Y-93015345D01*
X70569700Y-93010500D01*
X71577921Y-93010500D01*
X71636112Y-93029407D01*
G37*
%TD.AperFunction*%
%TA.AperFunction,Conductor*%
G36*
X69986912Y-91217607D02*
G01*
X69998725Y-91227696D01*
X70039940Y-91268911D01*
X70039939Y-91268911D01*
X70095889Y-91324860D01*
X70164407Y-91364419D01*
X70164411Y-91364421D01*
X70240835Y-91384899D01*
X70240837Y-91384900D01*
X70240838Y-91384900D01*
X70319962Y-91384900D01*
X72321122Y-91384900D01*
X72379313Y-91403807D01*
X72415277Y-91453307D01*
X72415277Y-91514493D01*
X72391127Y-91553901D01*
X71968689Y-91976340D01*
X71564525Y-92380504D01*
X71510008Y-92408281D01*
X71494521Y-92409500D01*
X70522694Y-92409500D01*
X70464503Y-92390593D01*
X70429250Y-92343199D01*
X70422992Y-92325315D01*
X70342354Y-92216055D01*
X70342352Y-92216053D01*
X70342350Y-92216050D01*
X70342346Y-92216047D01*
X70342344Y-92216045D01*
X70233083Y-92135407D01*
X70104903Y-92090555D01*
X70104894Y-92090553D01*
X70074474Y-92087700D01*
X70074466Y-92087700D01*
X69514700Y-92087700D01*
X69456509Y-92068793D01*
X69420545Y-92019293D01*
X69415700Y-91988700D01*
X69415700Y-91893453D01*
X69415698Y-91893441D01*
X69404290Y-91836092D01*
X69404067Y-91834969D01*
X69359752Y-91768648D01*
X69295197Y-91725513D01*
X69257320Y-91677465D01*
X69254918Y-91616327D01*
X69288911Y-91565454D01*
X69295188Y-91560892D01*
X69359752Y-91517752D01*
X69404067Y-91451431D01*
X69415700Y-91392948D01*
X69415700Y-91297700D01*
X69434607Y-91239509D01*
X69484107Y-91203545D01*
X69514700Y-91198700D01*
X69928721Y-91198700D01*
X69986912Y-91217607D01*
G37*
%TD.AperFunction*%
%TA.AperFunction,Conductor*%
G36*
X108178891Y-90489407D02*
G01*
X108214855Y-90538907D01*
X108219700Y-90569500D01*
X108219700Y-90802474D01*
X108222553Y-90832894D01*
X108222554Y-90832900D01*
X108267407Y-90961083D01*
X108348045Y-91070344D01*
X108348047Y-91070346D01*
X108348050Y-91070350D01*
X108348053Y-91070352D01*
X108348055Y-91070354D01*
X108457316Y-91150992D01*
X108457317Y-91150992D01*
X108457318Y-91150993D01*
X108585501Y-91195846D01*
X108615925Y-91198699D01*
X108615927Y-91198700D01*
X108615934Y-91198700D01*
X109175700Y-91198700D01*
X109233891Y-91217607D01*
X109269855Y-91267107D01*
X109274700Y-91297700D01*
X109274700Y-91392946D01*
X109274701Y-91392958D01*
X109286332Y-91451427D01*
X109286334Y-91451433D01*
X109330645Y-91517748D01*
X109330648Y-91517752D01*
X109330651Y-91517754D01*
X109395200Y-91560885D01*
X109433079Y-91608935D01*
X109435481Y-91670073D01*
X109401488Y-91720947D01*
X109395200Y-91725515D01*
X109330651Y-91768645D01*
X109330645Y-91768651D01*
X109286334Y-91834966D01*
X109286332Y-91834972D01*
X109274701Y-91893441D01*
X109274700Y-91893453D01*
X109274700Y-91988700D01*
X109255793Y-92046891D01*
X109206293Y-92082855D01*
X109175700Y-92087700D01*
X108615925Y-92087700D01*
X108585505Y-92090553D01*
X108585496Y-92090555D01*
X108457316Y-92135407D01*
X108348055Y-92216045D01*
X108348045Y-92216055D01*
X108267407Y-92325315D01*
X108261150Y-92343199D01*
X108224084Y-92391879D01*
X108167706Y-92409500D01*
X99851683Y-92409500D01*
X99793492Y-92390593D01*
X99757528Y-92341093D01*
X99757528Y-92279907D01*
X99765947Y-92260999D01*
X99772640Y-92249407D01*
X99805792Y-92191986D01*
X99839900Y-92064692D01*
X99839900Y-91964278D01*
X99858807Y-91906087D01*
X99868896Y-91894274D01*
X101263675Y-90499496D01*
X101318192Y-90471719D01*
X101333679Y-90470500D01*
X108120700Y-90470500D01*
X108178891Y-90489407D01*
G37*
%TD.AperFunction*%
%TD*%
M02*
