%TF.GenerationSoftware,KiCad,Pcbnew,9.0.1+dfsg-1*%
%TF.CreationDate,2025-05-01T11:00:42+02:00*%
%TF.ProjectId,cellular-modem,63656c6c-756c-4617-922d-6d6f64656d2e,rev?*%
%TF.SameCoordinates,Original*%
%TF.FileFunction,Legend,Top*%
%TF.FilePolarity,Positive*%
%FSLAX46Y46*%
G04 Gerber Fmt 4.6, Leading zero omitted, Abs format (unit mm)*
G04 Created by KiCad (PCBNEW 9.0.1+dfsg-1) date 2025-05-01 11:00:42*
%MOMM*%
%LPD*%
G01*
G04 APERTURE LIST*
%ADD10C,0.100000*%
%ADD11C,0.150000*%
%ADD12C,0.152400*%
%ADD13C,0.000000*%
%ADD14C,0.127000*%
%ADD15C,0.200000*%
%ADD16C,0.120000*%
G04 APERTURE END LIST*
D10*
X99974400Y-50901600D02*
X97459800Y-53111400D01*
X103761265Y-101065095D02*
X103761265Y-100265095D01*
X103761265Y-100265095D02*
X104066027Y-100265095D01*
X104066027Y-100265095D02*
X104142217Y-100303190D01*
X104142217Y-100303190D02*
X104180312Y-100341285D01*
X104180312Y-100341285D02*
X104218408Y-100417476D01*
X104218408Y-100417476D02*
X104218408Y-100531761D01*
X104218408Y-100531761D02*
X104180312Y-100607952D01*
X104180312Y-100607952D02*
X104142217Y-100646047D01*
X104142217Y-100646047D02*
X104066027Y-100684142D01*
X104066027Y-100684142D02*
X103761265Y-100684142D01*
X104561265Y-100646047D02*
X104827931Y-100646047D01*
X104942217Y-101065095D02*
X104561265Y-101065095D01*
X104561265Y-101065095D02*
X104561265Y-100265095D01*
X104561265Y-100265095D02*
X104942217Y-100265095D01*
X105170789Y-100265095D02*
X105627932Y-100265095D01*
X105399360Y-101065095D02*
X105399360Y-100265095D01*
X105894599Y-100531761D02*
X105894599Y-101331761D01*
X105894599Y-100569857D02*
X105970789Y-100531761D01*
X105970789Y-100531761D02*
X106123170Y-100531761D01*
X106123170Y-100531761D02*
X106199361Y-100569857D01*
X106199361Y-100569857D02*
X106237456Y-100607952D01*
X106237456Y-100607952D02*
X106275551Y-100684142D01*
X106275551Y-100684142D02*
X106275551Y-100912714D01*
X106275551Y-100912714D02*
X106237456Y-100988904D01*
X106237456Y-100988904D02*
X106199361Y-101027000D01*
X106199361Y-101027000D02*
X106123170Y-101065095D01*
X106123170Y-101065095D02*
X105970789Y-101065095D01*
X105970789Y-101065095D02*
X105894599Y-101027000D01*
X106770790Y-100265095D02*
X106846980Y-100265095D01*
X106846980Y-100265095D02*
X106923171Y-100303190D01*
X106923171Y-100303190D02*
X106961266Y-100341285D01*
X106961266Y-100341285D02*
X106999361Y-100417476D01*
X106999361Y-100417476D02*
X107037456Y-100569857D01*
X107037456Y-100569857D02*
X107037456Y-100760333D01*
X107037456Y-100760333D02*
X106999361Y-100912714D01*
X106999361Y-100912714D02*
X106961266Y-100988904D01*
X106961266Y-100988904D02*
X106923171Y-101027000D01*
X106923171Y-101027000D02*
X106846980Y-101065095D01*
X106846980Y-101065095D02*
X106770790Y-101065095D01*
X106770790Y-101065095D02*
X106694599Y-101027000D01*
X106694599Y-101027000D02*
X106656504Y-100988904D01*
X106656504Y-100988904D02*
X106618409Y-100912714D01*
X106618409Y-100912714D02*
X106580313Y-100760333D01*
X106580313Y-100760333D02*
X106580313Y-100569857D01*
X106580313Y-100569857D02*
X106618409Y-100417476D01*
X106618409Y-100417476D02*
X106656504Y-100341285D01*
X106656504Y-100341285D02*
X106694599Y-100303190D01*
X106694599Y-100303190D02*
X106770790Y-100265095D01*
X105247093Y-91877845D02*
X104561379Y-92906416D01*
X105894712Y-92715940D02*
X105513760Y-92715940D01*
X105513760Y-92715940D02*
X105513760Y-91915940D01*
X106161379Y-92296892D02*
X106428045Y-92296892D01*
X106542331Y-92715940D02*
X106161379Y-92715940D01*
X106161379Y-92715940D02*
X106161379Y-91915940D01*
X106161379Y-91915940D02*
X106542331Y-91915940D01*
X106885189Y-92715940D02*
X106885189Y-91915940D01*
X106885189Y-91915940D02*
X107075665Y-91915940D01*
X107075665Y-91915940D02*
X107189951Y-91954035D01*
X107189951Y-91954035D02*
X107266141Y-92030225D01*
X107266141Y-92030225D02*
X107304236Y-92106416D01*
X107304236Y-92106416D02*
X107342332Y-92258797D01*
X107342332Y-92258797D02*
X107342332Y-92373083D01*
X107342332Y-92373083D02*
X107304236Y-92525464D01*
X107304236Y-92525464D02*
X107266141Y-92601654D01*
X107266141Y-92601654D02*
X107189951Y-92677845D01*
X107189951Y-92677845D02*
X107075665Y-92715940D01*
X107075665Y-92715940D02*
X106885189Y-92715940D01*
X104599474Y-93203895D02*
X104789950Y-94003895D01*
X104789950Y-94003895D02*
X104942331Y-93432466D01*
X104942331Y-93432466D02*
X105094712Y-94003895D01*
X105094712Y-94003895D02*
X105285189Y-93203895D01*
X105513760Y-93203895D02*
X105704236Y-94003895D01*
X105704236Y-94003895D02*
X105856617Y-93432466D01*
X105856617Y-93432466D02*
X106008998Y-94003895D01*
X106008998Y-94003895D02*
X106199475Y-93203895D01*
X106466141Y-93775323D02*
X106847094Y-93775323D01*
X106389951Y-94003895D02*
X106656618Y-93203895D01*
X106656618Y-93203895D02*
X106923284Y-94003895D01*
X107189951Y-94003895D02*
X107189951Y-93203895D01*
X107189951Y-93203895D02*
X107647094Y-94003895D01*
X107647094Y-94003895D02*
X107647094Y-93203895D01*
X71046065Y-94303540D02*
X71046065Y-94951159D01*
X71046065Y-94951159D02*
X71084160Y-95027349D01*
X71084160Y-95027349D02*
X71122255Y-95065445D01*
X71122255Y-95065445D02*
X71198446Y-95103540D01*
X71198446Y-95103540D02*
X71350827Y-95103540D01*
X71350827Y-95103540D02*
X71427017Y-95065445D01*
X71427017Y-95065445D02*
X71465112Y-95027349D01*
X71465112Y-95027349D02*
X71503208Y-94951159D01*
X71503208Y-94951159D02*
X71503208Y-94303540D01*
X71846064Y-95065445D02*
X71960350Y-95103540D01*
X71960350Y-95103540D02*
X72150826Y-95103540D01*
X72150826Y-95103540D02*
X72227017Y-95065445D01*
X72227017Y-95065445D02*
X72265112Y-95027349D01*
X72265112Y-95027349D02*
X72303207Y-94951159D01*
X72303207Y-94951159D02*
X72303207Y-94874968D01*
X72303207Y-94874968D02*
X72265112Y-94798778D01*
X72265112Y-94798778D02*
X72227017Y-94760683D01*
X72227017Y-94760683D02*
X72150826Y-94722587D01*
X72150826Y-94722587D02*
X71998445Y-94684492D01*
X71998445Y-94684492D02*
X71922255Y-94646397D01*
X71922255Y-94646397D02*
X71884160Y-94608302D01*
X71884160Y-94608302D02*
X71846064Y-94532111D01*
X71846064Y-94532111D02*
X71846064Y-94455921D01*
X71846064Y-94455921D02*
X71884160Y-94379730D01*
X71884160Y-94379730D02*
X71922255Y-94341635D01*
X71922255Y-94341635D02*
X71998445Y-94303540D01*
X71998445Y-94303540D02*
X72188922Y-94303540D01*
X72188922Y-94303540D02*
X72303207Y-94341635D01*
X72646065Y-95103540D02*
X72646065Y-94303540D01*
X73027017Y-95103540D02*
X73027017Y-94303540D01*
X73027017Y-94303540D02*
X73293683Y-94874968D01*
X73293683Y-94874968D02*
X73560350Y-94303540D01*
X73560350Y-94303540D02*
X73560350Y-95103540D01*
X71503208Y-96315304D02*
X71465112Y-96353400D01*
X71465112Y-96353400D02*
X71350827Y-96391495D01*
X71350827Y-96391495D02*
X71274636Y-96391495D01*
X71274636Y-96391495D02*
X71160350Y-96353400D01*
X71160350Y-96353400D02*
X71084160Y-96277209D01*
X71084160Y-96277209D02*
X71046065Y-96201019D01*
X71046065Y-96201019D02*
X71007969Y-96048638D01*
X71007969Y-96048638D02*
X71007969Y-95934352D01*
X71007969Y-95934352D02*
X71046065Y-95781971D01*
X71046065Y-95781971D02*
X71084160Y-95705780D01*
X71084160Y-95705780D02*
X71160350Y-95629590D01*
X71160350Y-95629590D02*
X71274636Y-95591495D01*
X71274636Y-95591495D02*
X71350827Y-95591495D01*
X71350827Y-95591495D02*
X71465112Y-95629590D01*
X71465112Y-95629590D02*
X71503208Y-95667685D01*
X72227017Y-96391495D02*
X71846065Y-96391495D01*
X71846065Y-96391495D02*
X71846065Y-95591495D01*
X72493684Y-96391495D02*
X72493684Y-95591495D01*
X72950827Y-96391495D02*
X72607969Y-95934352D01*
X72950827Y-95591495D02*
X72493684Y-96048638D01*
X102313465Y-52678095D02*
X102313465Y-51878095D01*
X102313465Y-51878095D02*
X102618227Y-51878095D01*
X102618227Y-51878095D02*
X102694417Y-51916190D01*
X102694417Y-51916190D02*
X102732512Y-51954285D01*
X102732512Y-51954285D02*
X102770608Y-52030476D01*
X102770608Y-52030476D02*
X102770608Y-52144761D01*
X102770608Y-52144761D02*
X102732512Y-52220952D01*
X102732512Y-52220952D02*
X102694417Y-52259047D01*
X102694417Y-52259047D02*
X102618227Y-52297142D01*
X102618227Y-52297142D02*
X102313465Y-52297142D01*
X103570608Y-52601904D02*
X103532512Y-52640000D01*
X103532512Y-52640000D02*
X103418227Y-52678095D01*
X103418227Y-52678095D02*
X103342036Y-52678095D01*
X103342036Y-52678095D02*
X103227750Y-52640000D01*
X103227750Y-52640000D02*
X103151560Y-52563809D01*
X103151560Y-52563809D02*
X103113465Y-52487619D01*
X103113465Y-52487619D02*
X103075369Y-52335238D01*
X103075369Y-52335238D02*
X103075369Y-52220952D01*
X103075369Y-52220952D02*
X103113465Y-52068571D01*
X103113465Y-52068571D02*
X103151560Y-51992380D01*
X103151560Y-51992380D02*
X103227750Y-51916190D01*
X103227750Y-51916190D02*
X103342036Y-51878095D01*
X103342036Y-51878095D02*
X103418227Y-51878095D01*
X103418227Y-51878095D02*
X103532512Y-51916190D01*
X103532512Y-51916190D02*
X103570608Y-51954285D01*
X103913465Y-52678095D02*
X103913465Y-51878095D01*
X103913465Y-51878095D02*
X104180131Y-52449523D01*
X104180131Y-52449523D02*
X104446798Y-51878095D01*
X104446798Y-51878095D02*
X104446798Y-52678095D01*
X104637275Y-52754285D02*
X105246798Y-52754285D01*
X105437275Y-52678095D02*
X105437275Y-51878095D01*
X105437275Y-51878095D02*
X105627751Y-51878095D01*
X105627751Y-51878095D02*
X105742037Y-51916190D01*
X105742037Y-51916190D02*
X105818227Y-51992380D01*
X105818227Y-51992380D02*
X105856322Y-52068571D01*
X105856322Y-52068571D02*
X105894418Y-52220952D01*
X105894418Y-52220952D02*
X105894418Y-52335238D01*
X105894418Y-52335238D02*
X105856322Y-52487619D01*
X105856322Y-52487619D02*
X105818227Y-52563809D01*
X105818227Y-52563809D02*
X105742037Y-52640000D01*
X105742037Y-52640000D02*
X105627751Y-52678095D01*
X105627751Y-52678095D02*
X105437275Y-52678095D01*
X106237275Y-52678095D02*
X106237275Y-51878095D01*
X106618227Y-52678095D02*
X106618227Y-51878095D01*
X106618227Y-51878095D02*
X107075370Y-52678095D01*
X107075370Y-52678095D02*
X107075370Y-51878095D01*
X71528674Y-44156495D02*
X72023912Y-44156495D01*
X72023912Y-44156495D02*
X71757246Y-44461257D01*
X71757246Y-44461257D02*
X71871531Y-44461257D01*
X71871531Y-44461257D02*
X71947722Y-44499352D01*
X71947722Y-44499352D02*
X71985817Y-44537447D01*
X71985817Y-44537447D02*
X72023912Y-44613638D01*
X72023912Y-44613638D02*
X72023912Y-44804114D01*
X72023912Y-44804114D02*
X71985817Y-44880304D01*
X71985817Y-44880304D02*
X71947722Y-44918400D01*
X71947722Y-44918400D02*
X71871531Y-44956495D01*
X71871531Y-44956495D02*
X71642960Y-44956495D01*
X71642960Y-44956495D02*
X71566769Y-44918400D01*
X71566769Y-44918400D02*
X71528674Y-44880304D01*
X72366770Y-44880304D02*
X72404865Y-44918400D01*
X72404865Y-44918400D02*
X72366770Y-44956495D01*
X72366770Y-44956495D02*
X72328674Y-44918400D01*
X72328674Y-44918400D02*
X72366770Y-44880304D01*
X72366770Y-44880304D02*
X72366770Y-44956495D01*
X72671531Y-44156495D02*
X73166769Y-44156495D01*
X73166769Y-44156495D02*
X72900103Y-44461257D01*
X72900103Y-44461257D02*
X73014388Y-44461257D01*
X73014388Y-44461257D02*
X73090579Y-44499352D01*
X73090579Y-44499352D02*
X73128674Y-44537447D01*
X73128674Y-44537447D02*
X73166769Y-44613638D01*
X73166769Y-44613638D02*
X73166769Y-44804114D01*
X73166769Y-44804114D02*
X73128674Y-44880304D01*
X73128674Y-44880304D02*
X73090579Y-44918400D01*
X73090579Y-44918400D02*
X73014388Y-44956495D01*
X73014388Y-44956495D02*
X72785817Y-44956495D01*
X72785817Y-44956495D02*
X72709626Y-44918400D01*
X72709626Y-44918400D02*
X72671531Y-44880304D01*
X73395341Y-44156495D02*
X73662008Y-44956495D01*
X73662008Y-44956495D02*
X73928674Y-44156495D01*
X71490579Y-36511095D02*
X71757246Y-37311095D01*
X71757246Y-37311095D02*
X72023912Y-36511095D01*
X72557245Y-36892047D02*
X72671531Y-36930142D01*
X72671531Y-36930142D02*
X72709626Y-36968238D01*
X72709626Y-36968238D02*
X72747722Y-37044428D01*
X72747722Y-37044428D02*
X72747722Y-37158714D01*
X72747722Y-37158714D02*
X72709626Y-37234904D01*
X72709626Y-37234904D02*
X72671531Y-37273000D01*
X72671531Y-37273000D02*
X72595341Y-37311095D01*
X72595341Y-37311095D02*
X72290579Y-37311095D01*
X72290579Y-37311095D02*
X72290579Y-36511095D01*
X72290579Y-36511095D02*
X72557245Y-36511095D01*
X72557245Y-36511095D02*
X72633436Y-36549190D01*
X72633436Y-36549190D02*
X72671531Y-36587285D01*
X72671531Y-36587285D02*
X72709626Y-36663476D01*
X72709626Y-36663476D02*
X72709626Y-36739666D01*
X72709626Y-36739666D02*
X72671531Y-36815857D01*
X72671531Y-36815857D02*
X72633436Y-36853952D01*
X72633436Y-36853952D02*
X72557245Y-36892047D01*
X72557245Y-36892047D02*
X72290579Y-36892047D01*
X73052483Y-37082523D02*
X73433436Y-37082523D01*
X72976293Y-37311095D02*
X73242960Y-36511095D01*
X73242960Y-36511095D02*
X73509626Y-37311095D01*
X73662007Y-36511095D02*
X74119150Y-36511095D01*
X73890578Y-37311095D02*
X73890578Y-36511095D01*
X74995341Y-37311095D02*
X74995341Y-36777761D01*
X74995341Y-36511095D02*
X74957245Y-36549190D01*
X74957245Y-36549190D02*
X74995341Y-36587285D01*
X74995341Y-36587285D02*
X75033436Y-36549190D01*
X75033436Y-36549190D02*
X74995341Y-36511095D01*
X74995341Y-36511095D02*
X74995341Y-36587285D01*
X75376293Y-36777761D02*
X75376293Y-37311095D01*
X75376293Y-36853952D02*
X75414388Y-36815857D01*
X75414388Y-36815857D02*
X75490578Y-36777761D01*
X75490578Y-36777761D02*
X75604864Y-36777761D01*
X75604864Y-36777761D02*
X75681055Y-36815857D01*
X75681055Y-36815857D02*
X75719150Y-36892047D01*
X75719150Y-36892047D02*
X75719150Y-37311095D01*
X101195865Y-67994295D02*
X101195865Y-67194295D01*
X101195865Y-67194295D02*
X101500627Y-67194295D01*
X101500627Y-67194295D02*
X101576817Y-67232390D01*
X101576817Y-67232390D02*
X101614912Y-67270485D01*
X101614912Y-67270485D02*
X101653008Y-67346676D01*
X101653008Y-67346676D02*
X101653008Y-67460961D01*
X101653008Y-67460961D02*
X101614912Y-67537152D01*
X101614912Y-67537152D02*
X101576817Y-67575247D01*
X101576817Y-67575247D02*
X101500627Y-67613342D01*
X101500627Y-67613342D02*
X101195865Y-67613342D01*
X102453008Y-67918104D02*
X102414912Y-67956200D01*
X102414912Y-67956200D02*
X102300627Y-67994295D01*
X102300627Y-67994295D02*
X102224436Y-67994295D01*
X102224436Y-67994295D02*
X102110150Y-67956200D01*
X102110150Y-67956200D02*
X102033960Y-67880009D01*
X102033960Y-67880009D02*
X101995865Y-67803819D01*
X101995865Y-67803819D02*
X101957769Y-67651438D01*
X101957769Y-67651438D02*
X101957769Y-67537152D01*
X101957769Y-67537152D02*
X101995865Y-67384771D01*
X101995865Y-67384771D02*
X102033960Y-67308580D01*
X102033960Y-67308580D02*
X102110150Y-67232390D01*
X102110150Y-67232390D02*
X102224436Y-67194295D01*
X102224436Y-67194295D02*
X102300627Y-67194295D01*
X102300627Y-67194295D02*
X102414912Y-67232390D01*
X102414912Y-67232390D02*
X102453008Y-67270485D01*
X102795865Y-67994295D02*
X102795865Y-67194295D01*
X102795865Y-67194295D02*
X103062531Y-67765723D01*
X103062531Y-67765723D02*
X103329198Y-67194295D01*
X103329198Y-67194295D02*
X103329198Y-67994295D01*
X103519675Y-68070485D02*
X104129198Y-68070485D01*
X104319675Y-67994295D02*
X104319675Y-67194295D01*
X104319675Y-67194295D02*
X104510151Y-67194295D01*
X104510151Y-67194295D02*
X104624437Y-67232390D01*
X104624437Y-67232390D02*
X104700627Y-67308580D01*
X104700627Y-67308580D02*
X104738722Y-67384771D01*
X104738722Y-67384771D02*
X104776818Y-67537152D01*
X104776818Y-67537152D02*
X104776818Y-67651438D01*
X104776818Y-67651438D02*
X104738722Y-67803819D01*
X104738722Y-67803819D02*
X104700627Y-67880009D01*
X104700627Y-67880009D02*
X104624437Y-67956200D01*
X104624437Y-67956200D02*
X104510151Y-67994295D01*
X104510151Y-67994295D02*
X104319675Y-67994295D01*
X105272056Y-67194295D02*
X105424437Y-67194295D01*
X105424437Y-67194295D02*
X105500627Y-67232390D01*
X105500627Y-67232390D02*
X105576818Y-67308580D01*
X105576818Y-67308580D02*
X105614913Y-67460961D01*
X105614913Y-67460961D02*
X105614913Y-67727628D01*
X105614913Y-67727628D02*
X105576818Y-67880009D01*
X105576818Y-67880009D02*
X105500627Y-67956200D01*
X105500627Y-67956200D02*
X105424437Y-67994295D01*
X105424437Y-67994295D02*
X105272056Y-67994295D01*
X105272056Y-67994295D02*
X105195865Y-67956200D01*
X105195865Y-67956200D02*
X105119675Y-67880009D01*
X105119675Y-67880009D02*
X105081579Y-67727628D01*
X105081579Y-67727628D02*
X105081579Y-67460961D01*
X105081579Y-67460961D02*
X105119675Y-67308580D01*
X105119675Y-67308580D02*
X105195865Y-67232390D01*
X105195865Y-67232390D02*
X105272056Y-67194295D01*
X105957770Y-67194295D02*
X105957770Y-67841914D01*
X105957770Y-67841914D02*
X105995865Y-67918104D01*
X105995865Y-67918104D02*
X106033960Y-67956200D01*
X106033960Y-67956200D02*
X106110151Y-67994295D01*
X106110151Y-67994295D02*
X106262532Y-67994295D01*
X106262532Y-67994295D02*
X106338722Y-67956200D01*
X106338722Y-67956200D02*
X106376817Y-67918104D01*
X106376817Y-67918104D02*
X106414913Y-67841914D01*
X106414913Y-67841914D02*
X106414913Y-67194295D01*
X106681579Y-67194295D02*
X107138722Y-67194295D01*
X106910150Y-67994295D02*
X106910150Y-67194295D01*
X106301208Y-42543495D02*
X106034541Y-42162542D01*
X105844065Y-42543495D02*
X105844065Y-41743495D01*
X105844065Y-41743495D02*
X106148827Y-41743495D01*
X106148827Y-41743495D02*
X106225017Y-41781590D01*
X106225017Y-41781590D02*
X106263112Y-41819685D01*
X106263112Y-41819685D02*
X106301208Y-41895876D01*
X106301208Y-41895876D02*
X106301208Y-42010161D01*
X106301208Y-42010161D02*
X106263112Y-42086352D01*
X106263112Y-42086352D02*
X106225017Y-42124447D01*
X106225017Y-42124447D02*
X106148827Y-42162542D01*
X106148827Y-42162542D02*
X105844065Y-42162542D01*
X106567874Y-41743495D02*
X107101208Y-42543495D01*
X107101208Y-41743495D02*
X106567874Y-42543495D01*
X104472465Y-89426740D02*
X104472465Y-90074359D01*
X104472465Y-90074359D02*
X104510560Y-90150549D01*
X104510560Y-90150549D02*
X104548655Y-90188645D01*
X104548655Y-90188645D02*
X104624846Y-90226740D01*
X104624846Y-90226740D02*
X104777227Y-90226740D01*
X104777227Y-90226740D02*
X104853417Y-90188645D01*
X104853417Y-90188645D02*
X104891512Y-90150549D01*
X104891512Y-90150549D02*
X104929608Y-90074359D01*
X104929608Y-90074359D02*
X104929608Y-89426740D01*
X105272464Y-90188645D02*
X105386750Y-90226740D01*
X105386750Y-90226740D02*
X105577226Y-90226740D01*
X105577226Y-90226740D02*
X105653417Y-90188645D01*
X105653417Y-90188645D02*
X105691512Y-90150549D01*
X105691512Y-90150549D02*
X105729607Y-90074359D01*
X105729607Y-90074359D02*
X105729607Y-89998168D01*
X105729607Y-89998168D02*
X105691512Y-89921978D01*
X105691512Y-89921978D02*
X105653417Y-89883883D01*
X105653417Y-89883883D02*
X105577226Y-89845787D01*
X105577226Y-89845787D02*
X105424845Y-89807692D01*
X105424845Y-89807692D02*
X105348655Y-89769597D01*
X105348655Y-89769597D02*
X105310560Y-89731502D01*
X105310560Y-89731502D02*
X105272464Y-89655311D01*
X105272464Y-89655311D02*
X105272464Y-89579121D01*
X105272464Y-89579121D02*
X105310560Y-89502930D01*
X105310560Y-89502930D02*
X105348655Y-89464835D01*
X105348655Y-89464835D02*
X105424845Y-89426740D01*
X105424845Y-89426740D02*
X105615322Y-89426740D01*
X105615322Y-89426740D02*
X105729607Y-89464835D01*
X106072465Y-90226740D02*
X106072465Y-89426740D01*
X106453417Y-90226740D02*
X106453417Y-89426740D01*
X106453417Y-89426740D02*
X106720083Y-89998168D01*
X106720083Y-89998168D02*
X106986750Y-89426740D01*
X106986750Y-89426740D02*
X106986750Y-90226740D01*
X107177227Y-90302930D02*
X107786750Y-90302930D01*
X104472465Y-91514695D02*
X104472465Y-90714695D01*
X104472465Y-90714695D02*
X104662941Y-90714695D01*
X104662941Y-90714695D02*
X104777227Y-90752790D01*
X104777227Y-90752790D02*
X104853417Y-90828980D01*
X104853417Y-90828980D02*
X104891512Y-90905171D01*
X104891512Y-90905171D02*
X104929608Y-91057552D01*
X104929608Y-91057552D02*
X104929608Y-91171838D01*
X104929608Y-91171838D02*
X104891512Y-91324219D01*
X104891512Y-91324219D02*
X104853417Y-91400409D01*
X104853417Y-91400409D02*
X104777227Y-91476600D01*
X104777227Y-91476600D02*
X104662941Y-91514695D01*
X104662941Y-91514695D02*
X104472465Y-91514695D01*
X105158179Y-90714695D02*
X105615322Y-90714695D01*
X105386750Y-91514695D02*
X105386750Y-90714695D01*
X105881989Y-91095647D02*
X106148655Y-91095647D01*
X106262941Y-91514695D02*
X105881989Y-91514695D01*
X105881989Y-91514695D02*
X105881989Y-90714695D01*
X105881989Y-90714695D02*
X106262941Y-90714695D01*
X107062942Y-91438504D02*
X107024846Y-91476600D01*
X107024846Y-91476600D02*
X106910561Y-91514695D01*
X106910561Y-91514695D02*
X106834370Y-91514695D01*
X106834370Y-91514695D02*
X106720084Y-91476600D01*
X106720084Y-91476600D02*
X106643894Y-91400409D01*
X106643894Y-91400409D02*
X106605799Y-91324219D01*
X106605799Y-91324219D02*
X106567703Y-91171838D01*
X106567703Y-91171838D02*
X106567703Y-91057552D01*
X106567703Y-91057552D02*
X106605799Y-90905171D01*
X106605799Y-90905171D02*
X106643894Y-90828980D01*
X106643894Y-90828980D02*
X106720084Y-90752790D01*
X106720084Y-90752790D02*
X106834370Y-90714695D01*
X106834370Y-90714695D02*
X106910561Y-90714695D01*
X106910561Y-90714695D02*
X107024846Y-90752790D01*
X107024846Y-90752790D02*
X107062942Y-90790885D01*
X107291513Y-90714695D02*
X107748656Y-90714695D01*
X107520084Y-91514695D02*
X107520084Y-90714695D01*
X72074712Y-105230790D02*
X71998522Y-105192695D01*
X71998522Y-105192695D02*
X71884236Y-105192695D01*
X71884236Y-105192695D02*
X71769950Y-105230790D01*
X71769950Y-105230790D02*
X71693760Y-105306980D01*
X71693760Y-105306980D02*
X71655665Y-105383171D01*
X71655665Y-105383171D02*
X71617569Y-105535552D01*
X71617569Y-105535552D02*
X71617569Y-105649838D01*
X71617569Y-105649838D02*
X71655665Y-105802219D01*
X71655665Y-105802219D02*
X71693760Y-105878409D01*
X71693760Y-105878409D02*
X71769950Y-105954600D01*
X71769950Y-105954600D02*
X71884236Y-105992695D01*
X71884236Y-105992695D02*
X71960427Y-105992695D01*
X71960427Y-105992695D02*
X72074712Y-105954600D01*
X72074712Y-105954600D02*
X72112808Y-105916504D01*
X72112808Y-105916504D02*
X72112808Y-105649838D01*
X72112808Y-105649838D02*
X71960427Y-105649838D01*
X72455665Y-105992695D02*
X72455665Y-105192695D01*
X72455665Y-105192695D02*
X72912808Y-105992695D01*
X72912808Y-105992695D02*
X72912808Y-105192695D01*
X73293760Y-105992695D02*
X73293760Y-105192695D01*
X73293760Y-105192695D02*
X73484236Y-105192695D01*
X73484236Y-105192695D02*
X73598522Y-105230790D01*
X73598522Y-105230790D02*
X73674712Y-105306980D01*
X73674712Y-105306980D02*
X73712807Y-105383171D01*
X73712807Y-105383171D02*
X73750903Y-105535552D01*
X73750903Y-105535552D02*
X73750903Y-105649838D01*
X73750903Y-105649838D02*
X73712807Y-105802219D01*
X73712807Y-105802219D02*
X73674712Y-105878409D01*
X73674712Y-105878409D02*
X73598522Y-105954600D01*
X73598522Y-105954600D02*
X73484236Y-105992695D01*
X73484236Y-105992695D02*
X73293760Y-105992695D01*
X71173065Y-89299740D02*
X71173065Y-89947359D01*
X71173065Y-89947359D02*
X71211160Y-90023549D01*
X71211160Y-90023549D02*
X71249255Y-90061645D01*
X71249255Y-90061645D02*
X71325446Y-90099740D01*
X71325446Y-90099740D02*
X71477827Y-90099740D01*
X71477827Y-90099740D02*
X71554017Y-90061645D01*
X71554017Y-90061645D02*
X71592112Y-90023549D01*
X71592112Y-90023549D02*
X71630208Y-89947359D01*
X71630208Y-89947359D02*
X71630208Y-89299740D01*
X71973064Y-90061645D02*
X72087350Y-90099740D01*
X72087350Y-90099740D02*
X72277826Y-90099740D01*
X72277826Y-90099740D02*
X72354017Y-90061645D01*
X72354017Y-90061645D02*
X72392112Y-90023549D01*
X72392112Y-90023549D02*
X72430207Y-89947359D01*
X72430207Y-89947359D02*
X72430207Y-89871168D01*
X72430207Y-89871168D02*
X72392112Y-89794978D01*
X72392112Y-89794978D02*
X72354017Y-89756883D01*
X72354017Y-89756883D02*
X72277826Y-89718787D01*
X72277826Y-89718787D02*
X72125445Y-89680692D01*
X72125445Y-89680692D02*
X72049255Y-89642597D01*
X72049255Y-89642597D02*
X72011160Y-89604502D01*
X72011160Y-89604502D02*
X71973064Y-89528311D01*
X71973064Y-89528311D02*
X71973064Y-89452121D01*
X71973064Y-89452121D02*
X72011160Y-89375930D01*
X72011160Y-89375930D02*
X72049255Y-89337835D01*
X72049255Y-89337835D02*
X72125445Y-89299740D01*
X72125445Y-89299740D02*
X72315922Y-89299740D01*
X72315922Y-89299740D02*
X72430207Y-89337835D01*
X72773065Y-90099740D02*
X72773065Y-89299740D01*
X73154017Y-90099740D02*
X73154017Y-89299740D01*
X73154017Y-89299740D02*
X73420683Y-89871168D01*
X73420683Y-89871168D02*
X73687350Y-89299740D01*
X73687350Y-89299740D02*
X73687350Y-90099740D01*
X71058779Y-90587695D02*
X71325446Y-91387695D01*
X71325446Y-91387695D02*
X71592112Y-90587695D01*
X71858779Y-91387695D02*
X71858779Y-90587695D01*
X71858779Y-90587695D02*
X72049255Y-90587695D01*
X72049255Y-90587695D02*
X72163541Y-90625790D01*
X72163541Y-90625790D02*
X72239731Y-90701980D01*
X72239731Y-90701980D02*
X72277826Y-90778171D01*
X72277826Y-90778171D02*
X72315922Y-90930552D01*
X72315922Y-90930552D02*
X72315922Y-91044838D01*
X72315922Y-91044838D02*
X72277826Y-91197219D01*
X72277826Y-91197219D02*
X72239731Y-91273409D01*
X72239731Y-91273409D02*
X72163541Y-91349600D01*
X72163541Y-91349600D02*
X72049255Y-91387695D01*
X72049255Y-91387695D02*
X71858779Y-91387695D01*
X72658779Y-91387695D02*
X72658779Y-90587695D01*
X72658779Y-90587695D02*
X72849255Y-90587695D01*
X72849255Y-90587695D02*
X72963541Y-90625790D01*
X72963541Y-90625790D02*
X73039731Y-90701980D01*
X73039731Y-90701980D02*
X73077826Y-90778171D01*
X73077826Y-90778171D02*
X73115922Y-90930552D01*
X73115922Y-90930552D02*
X73115922Y-91044838D01*
X73115922Y-91044838D02*
X73077826Y-91197219D01*
X73077826Y-91197219D02*
X73039731Y-91273409D01*
X73039731Y-91273409D02*
X72963541Y-91349600D01*
X72963541Y-91349600D02*
X72849255Y-91387695D01*
X72849255Y-91387695D02*
X72658779Y-91387695D01*
X105132865Y-88466695D02*
X105132865Y-87666695D01*
X105132865Y-87666695D02*
X105437627Y-87666695D01*
X105437627Y-87666695D02*
X105513817Y-87704790D01*
X105513817Y-87704790D02*
X105551912Y-87742885D01*
X105551912Y-87742885D02*
X105590008Y-87819076D01*
X105590008Y-87819076D02*
X105590008Y-87933361D01*
X105590008Y-87933361D02*
X105551912Y-88009552D01*
X105551912Y-88009552D02*
X105513817Y-88047647D01*
X105513817Y-88047647D02*
X105437627Y-88085742D01*
X105437627Y-88085742D02*
X105132865Y-88085742D01*
X106275722Y-87933361D02*
X106275722Y-88466695D01*
X106085246Y-87628600D02*
X105894769Y-88200028D01*
X105894769Y-88200028D02*
X106390008Y-88200028D01*
X106732865Y-88466695D02*
X106885246Y-88466695D01*
X106885246Y-88466695D02*
X106961436Y-88428600D01*
X106961436Y-88428600D02*
X106999532Y-88390504D01*
X106999532Y-88390504D02*
X107075722Y-88276219D01*
X107075722Y-88276219D02*
X107113817Y-88123838D01*
X107113817Y-88123838D02*
X107113817Y-87819076D01*
X107113817Y-87819076D02*
X107075722Y-87742885D01*
X107075722Y-87742885D02*
X107037627Y-87704790D01*
X107037627Y-87704790D02*
X106961436Y-87666695D01*
X106961436Y-87666695D02*
X106809055Y-87666695D01*
X106809055Y-87666695D02*
X106732865Y-87704790D01*
X106732865Y-87704790D02*
X106694770Y-87742885D01*
X106694770Y-87742885D02*
X106656674Y-87819076D01*
X106656674Y-87819076D02*
X106656674Y-88009552D01*
X106656674Y-88009552D02*
X106694770Y-88085742D01*
X106694770Y-88085742D02*
X106732865Y-88123838D01*
X106732865Y-88123838D02*
X106809055Y-88161933D01*
X106809055Y-88161933D02*
X106961436Y-88161933D01*
X106961436Y-88161933D02*
X107037627Y-88123838D01*
X107037627Y-88123838D02*
X107075722Y-88085742D01*
X107075722Y-88085742D02*
X107113817Y-88009552D01*
X72165363Y-47941512D02*
X72117744Y-47893893D01*
X72117744Y-47893893D02*
X72070124Y-47751036D01*
X72070124Y-47751036D02*
X72070124Y-47655798D01*
X72070124Y-47655798D02*
X72117744Y-47512941D01*
X72117744Y-47512941D02*
X72212982Y-47417703D01*
X72212982Y-47417703D02*
X72308220Y-47370084D01*
X72308220Y-47370084D02*
X72498696Y-47322465D01*
X72498696Y-47322465D02*
X72641553Y-47322465D01*
X72641553Y-47322465D02*
X72832029Y-47370084D01*
X72832029Y-47370084D02*
X72927267Y-47417703D01*
X72927267Y-47417703D02*
X73022505Y-47512941D01*
X73022505Y-47512941D02*
X73070124Y-47655798D01*
X73070124Y-47655798D02*
X73070124Y-47751036D01*
X73070124Y-47751036D02*
X73022505Y-47893893D01*
X73022505Y-47893893D02*
X72974886Y-47941512D01*
X72117744Y-48751036D02*
X72070124Y-48655798D01*
X72070124Y-48655798D02*
X72070124Y-48465322D01*
X72070124Y-48465322D02*
X72117744Y-48370084D01*
X72117744Y-48370084D02*
X72212982Y-48322465D01*
X72212982Y-48322465D02*
X72593934Y-48322465D01*
X72593934Y-48322465D02*
X72689172Y-48370084D01*
X72689172Y-48370084D02*
X72736791Y-48465322D01*
X72736791Y-48465322D02*
X72736791Y-48655798D01*
X72736791Y-48655798D02*
X72689172Y-48751036D01*
X72689172Y-48751036D02*
X72593934Y-48798655D01*
X72593934Y-48798655D02*
X72498696Y-48798655D01*
X72498696Y-48798655D02*
X72403458Y-48322465D01*
X72070124Y-49370084D02*
X72117744Y-49274846D01*
X72117744Y-49274846D02*
X72212982Y-49227227D01*
X72212982Y-49227227D02*
X73070124Y-49227227D01*
X72070124Y-49893894D02*
X72117744Y-49798656D01*
X72117744Y-49798656D02*
X72212982Y-49751037D01*
X72212982Y-49751037D02*
X73070124Y-49751037D01*
X72736791Y-50703418D02*
X72070124Y-50703418D01*
X72736791Y-50274847D02*
X72212982Y-50274847D01*
X72212982Y-50274847D02*
X72117744Y-50322466D01*
X72117744Y-50322466D02*
X72070124Y-50417704D01*
X72070124Y-50417704D02*
X72070124Y-50560561D01*
X72070124Y-50560561D02*
X72117744Y-50655799D01*
X72117744Y-50655799D02*
X72165363Y-50703418D01*
X72070124Y-51322466D02*
X72117744Y-51227228D01*
X72117744Y-51227228D02*
X72212982Y-51179609D01*
X72212982Y-51179609D02*
X73070124Y-51179609D01*
X72070124Y-52131990D02*
X72593934Y-52131990D01*
X72593934Y-52131990D02*
X72689172Y-52084371D01*
X72689172Y-52084371D02*
X72736791Y-51989133D01*
X72736791Y-51989133D02*
X72736791Y-51798657D01*
X72736791Y-51798657D02*
X72689172Y-51703419D01*
X72117744Y-52131990D02*
X72070124Y-52036752D01*
X72070124Y-52036752D02*
X72070124Y-51798657D01*
X72070124Y-51798657D02*
X72117744Y-51703419D01*
X72117744Y-51703419D02*
X72212982Y-51655800D01*
X72212982Y-51655800D02*
X72308220Y-51655800D01*
X72308220Y-51655800D02*
X72403458Y-51703419D01*
X72403458Y-51703419D02*
X72451077Y-51798657D01*
X72451077Y-51798657D02*
X72451077Y-52036752D01*
X72451077Y-52036752D02*
X72498696Y-52131990D01*
X72070124Y-52608181D02*
X72736791Y-52608181D01*
X72546315Y-52608181D02*
X72641553Y-52655800D01*
X72641553Y-52655800D02*
X72689172Y-52703419D01*
X72689172Y-52703419D02*
X72736791Y-52798657D01*
X72736791Y-52798657D02*
X72736791Y-52893895D01*
X72070124Y-53989134D02*
X73070124Y-53989134D01*
X73070124Y-53989134D02*
X72355839Y-54322467D01*
X72355839Y-54322467D02*
X73070124Y-54655800D01*
X73070124Y-54655800D02*
X72070124Y-54655800D01*
X72070124Y-55274848D02*
X72117744Y-55179610D01*
X72117744Y-55179610D02*
X72165363Y-55131991D01*
X72165363Y-55131991D02*
X72260601Y-55084372D01*
X72260601Y-55084372D02*
X72546315Y-55084372D01*
X72546315Y-55084372D02*
X72641553Y-55131991D01*
X72641553Y-55131991D02*
X72689172Y-55179610D01*
X72689172Y-55179610D02*
X72736791Y-55274848D01*
X72736791Y-55274848D02*
X72736791Y-55417705D01*
X72736791Y-55417705D02*
X72689172Y-55512943D01*
X72689172Y-55512943D02*
X72641553Y-55560562D01*
X72641553Y-55560562D02*
X72546315Y-55608181D01*
X72546315Y-55608181D02*
X72260601Y-55608181D01*
X72260601Y-55608181D02*
X72165363Y-55560562D01*
X72165363Y-55560562D02*
X72117744Y-55512943D01*
X72117744Y-55512943D02*
X72070124Y-55417705D01*
X72070124Y-55417705D02*
X72070124Y-55274848D01*
X72070124Y-56465324D02*
X73070124Y-56465324D01*
X72117744Y-56465324D02*
X72070124Y-56370086D01*
X72070124Y-56370086D02*
X72070124Y-56179610D01*
X72070124Y-56179610D02*
X72117744Y-56084372D01*
X72117744Y-56084372D02*
X72165363Y-56036753D01*
X72165363Y-56036753D02*
X72260601Y-55989134D01*
X72260601Y-55989134D02*
X72546315Y-55989134D01*
X72546315Y-55989134D02*
X72641553Y-56036753D01*
X72641553Y-56036753D02*
X72689172Y-56084372D01*
X72689172Y-56084372D02*
X72736791Y-56179610D01*
X72736791Y-56179610D02*
X72736791Y-56370086D01*
X72736791Y-56370086D02*
X72689172Y-56465324D01*
X72117744Y-57322467D02*
X72070124Y-57227229D01*
X72070124Y-57227229D02*
X72070124Y-57036753D01*
X72070124Y-57036753D02*
X72117744Y-56941515D01*
X72117744Y-56941515D02*
X72212982Y-56893896D01*
X72212982Y-56893896D02*
X72593934Y-56893896D01*
X72593934Y-56893896D02*
X72689172Y-56941515D01*
X72689172Y-56941515D02*
X72736791Y-57036753D01*
X72736791Y-57036753D02*
X72736791Y-57227229D01*
X72736791Y-57227229D02*
X72689172Y-57322467D01*
X72689172Y-57322467D02*
X72593934Y-57370086D01*
X72593934Y-57370086D02*
X72498696Y-57370086D01*
X72498696Y-57370086D02*
X72403458Y-56893896D01*
X72070124Y-57798658D02*
X72736791Y-57798658D01*
X72641553Y-57798658D02*
X72689172Y-57846277D01*
X72689172Y-57846277D02*
X72736791Y-57941515D01*
X72736791Y-57941515D02*
X72736791Y-58084372D01*
X72736791Y-58084372D02*
X72689172Y-58179610D01*
X72689172Y-58179610D02*
X72593934Y-58227229D01*
X72593934Y-58227229D02*
X72070124Y-58227229D01*
X72593934Y-58227229D02*
X72689172Y-58274848D01*
X72689172Y-58274848D02*
X72736791Y-58370086D01*
X72736791Y-58370086D02*
X72736791Y-58512943D01*
X72736791Y-58512943D02*
X72689172Y-58608182D01*
X72689172Y-58608182D02*
X72593934Y-58655801D01*
X72593934Y-58655801D02*
X72070124Y-58655801D01*
X72165363Y-60465324D02*
X72117744Y-60417705D01*
X72117744Y-60417705D02*
X72070124Y-60274848D01*
X72070124Y-60274848D02*
X72070124Y-60179610D01*
X72070124Y-60179610D02*
X72117744Y-60036753D01*
X72117744Y-60036753D02*
X72212982Y-59941515D01*
X72212982Y-59941515D02*
X72308220Y-59893896D01*
X72308220Y-59893896D02*
X72498696Y-59846277D01*
X72498696Y-59846277D02*
X72641553Y-59846277D01*
X72641553Y-59846277D02*
X72832029Y-59893896D01*
X72832029Y-59893896D02*
X72927267Y-59941515D01*
X72927267Y-59941515D02*
X73022505Y-60036753D01*
X73022505Y-60036753D02*
X73070124Y-60179610D01*
X73070124Y-60179610D02*
X73070124Y-60274848D01*
X73070124Y-60274848D02*
X73022505Y-60417705D01*
X73022505Y-60417705D02*
X72974886Y-60465324D01*
X72070124Y-61322467D02*
X72593934Y-61322467D01*
X72593934Y-61322467D02*
X72689172Y-61274848D01*
X72689172Y-61274848D02*
X72736791Y-61179610D01*
X72736791Y-61179610D02*
X72736791Y-60989134D01*
X72736791Y-60989134D02*
X72689172Y-60893896D01*
X72117744Y-61322467D02*
X72070124Y-61227229D01*
X72070124Y-61227229D02*
X72070124Y-60989134D01*
X72070124Y-60989134D02*
X72117744Y-60893896D01*
X72117744Y-60893896D02*
X72212982Y-60846277D01*
X72212982Y-60846277D02*
X72308220Y-60846277D01*
X72308220Y-60846277D02*
X72403458Y-60893896D01*
X72403458Y-60893896D02*
X72451077Y-60989134D01*
X72451077Y-60989134D02*
X72451077Y-61227229D01*
X72451077Y-61227229D02*
X72498696Y-61322467D01*
X72070124Y-61798658D02*
X72736791Y-61798658D01*
X72546315Y-61798658D02*
X72641553Y-61846277D01*
X72641553Y-61846277D02*
X72689172Y-61893896D01*
X72689172Y-61893896D02*
X72736791Y-61989134D01*
X72736791Y-61989134D02*
X72736791Y-62084372D01*
X72070124Y-62417706D02*
X72736791Y-62417706D01*
X72546315Y-62417706D02*
X72641553Y-62465325D01*
X72641553Y-62465325D02*
X72689172Y-62512944D01*
X72689172Y-62512944D02*
X72736791Y-62608182D01*
X72736791Y-62608182D02*
X72736791Y-62703420D01*
X72070124Y-63036754D02*
X72736791Y-63036754D01*
X73070124Y-63036754D02*
X73022505Y-62989135D01*
X73022505Y-62989135D02*
X72974886Y-63036754D01*
X72974886Y-63036754D02*
X73022505Y-63084373D01*
X73022505Y-63084373D02*
X73070124Y-63036754D01*
X73070124Y-63036754D02*
X72974886Y-63036754D01*
X72117744Y-63893896D02*
X72070124Y-63798658D01*
X72070124Y-63798658D02*
X72070124Y-63608182D01*
X72070124Y-63608182D02*
X72117744Y-63512944D01*
X72117744Y-63512944D02*
X72212982Y-63465325D01*
X72212982Y-63465325D02*
X72593934Y-63465325D01*
X72593934Y-63465325D02*
X72689172Y-63512944D01*
X72689172Y-63512944D02*
X72736791Y-63608182D01*
X72736791Y-63608182D02*
X72736791Y-63798658D01*
X72736791Y-63798658D02*
X72689172Y-63893896D01*
X72689172Y-63893896D02*
X72593934Y-63941515D01*
X72593934Y-63941515D02*
X72498696Y-63941515D01*
X72498696Y-63941515D02*
X72403458Y-63465325D01*
X72070124Y-64370087D02*
X72736791Y-64370087D01*
X72546315Y-64370087D02*
X72641553Y-64417706D01*
X72641553Y-64417706D02*
X72689172Y-64465325D01*
X72689172Y-64465325D02*
X72736791Y-64560563D01*
X72736791Y-64560563D02*
X72736791Y-64655801D01*
X72070124Y-65751040D02*
X73070124Y-65751040D01*
X73070124Y-65751040D02*
X72355839Y-66084373D01*
X72355839Y-66084373D02*
X73070124Y-66417706D01*
X73070124Y-66417706D02*
X72070124Y-66417706D01*
X72070124Y-67036754D02*
X72117744Y-66941516D01*
X72117744Y-66941516D02*
X72165363Y-66893897D01*
X72165363Y-66893897D02*
X72260601Y-66846278D01*
X72260601Y-66846278D02*
X72546315Y-66846278D01*
X72546315Y-66846278D02*
X72641553Y-66893897D01*
X72641553Y-66893897D02*
X72689172Y-66941516D01*
X72689172Y-66941516D02*
X72736791Y-67036754D01*
X72736791Y-67036754D02*
X72736791Y-67179611D01*
X72736791Y-67179611D02*
X72689172Y-67274849D01*
X72689172Y-67274849D02*
X72641553Y-67322468D01*
X72641553Y-67322468D02*
X72546315Y-67370087D01*
X72546315Y-67370087D02*
X72260601Y-67370087D01*
X72260601Y-67370087D02*
X72165363Y-67322468D01*
X72165363Y-67322468D02*
X72117744Y-67274849D01*
X72117744Y-67274849D02*
X72070124Y-67179611D01*
X72070124Y-67179611D02*
X72070124Y-67036754D01*
X72070124Y-68227230D02*
X73070124Y-68227230D01*
X72117744Y-68227230D02*
X72070124Y-68131992D01*
X72070124Y-68131992D02*
X72070124Y-67941516D01*
X72070124Y-67941516D02*
X72117744Y-67846278D01*
X72117744Y-67846278D02*
X72165363Y-67798659D01*
X72165363Y-67798659D02*
X72260601Y-67751040D01*
X72260601Y-67751040D02*
X72546315Y-67751040D01*
X72546315Y-67751040D02*
X72641553Y-67798659D01*
X72641553Y-67798659D02*
X72689172Y-67846278D01*
X72689172Y-67846278D02*
X72736791Y-67941516D01*
X72736791Y-67941516D02*
X72736791Y-68131992D01*
X72736791Y-68131992D02*
X72689172Y-68227230D01*
X72736791Y-69131992D02*
X72070124Y-69131992D01*
X72736791Y-68703421D02*
X72212982Y-68703421D01*
X72212982Y-68703421D02*
X72117744Y-68751040D01*
X72117744Y-68751040D02*
X72070124Y-68846278D01*
X72070124Y-68846278D02*
X72070124Y-68989135D01*
X72070124Y-68989135D02*
X72117744Y-69084373D01*
X72117744Y-69084373D02*
X72165363Y-69131992D01*
X72070124Y-69751040D02*
X72117744Y-69655802D01*
X72117744Y-69655802D02*
X72212982Y-69608183D01*
X72212982Y-69608183D02*
X73070124Y-69608183D01*
X72117744Y-70512945D02*
X72070124Y-70417707D01*
X72070124Y-70417707D02*
X72070124Y-70227231D01*
X72070124Y-70227231D02*
X72117744Y-70131993D01*
X72117744Y-70131993D02*
X72212982Y-70084374D01*
X72212982Y-70084374D02*
X72593934Y-70084374D01*
X72593934Y-70084374D02*
X72689172Y-70131993D01*
X72689172Y-70131993D02*
X72736791Y-70227231D01*
X72736791Y-70227231D02*
X72736791Y-70417707D01*
X72736791Y-70417707D02*
X72689172Y-70512945D01*
X72689172Y-70512945D02*
X72593934Y-70560564D01*
X72593934Y-70560564D02*
X72498696Y-70560564D01*
X72498696Y-70560564D02*
X72403458Y-70084374D01*
X72070124Y-72322469D02*
X72546315Y-71989136D01*
X72070124Y-71751041D02*
X73070124Y-71751041D01*
X73070124Y-71751041D02*
X73070124Y-72131993D01*
X73070124Y-72131993D02*
X73022505Y-72227231D01*
X73022505Y-72227231D02*
X72974886Y-72274850D01*
X72974886Y-72274850D02*
X72879648Y-72322469D01*
X72879648Y-72322469D02*
X72736791Y-72322469D01*
X72736791Y-72322469D02*
X72641553Y-72274850D01*
X72641553Y-72274850D02*
X72593934Y-72227231D01*
X72593934Y-72227231D02*
X72546315Y-72131993D01*
X72546315Y-72131993D02*
X72546315Y-71751041D01*
X72974886Y-72703422D02*
X73022505Y-72751041D01*
X73022505Y-72751041D02*
X73070124Y-72846279D01*
X73070124Y-72846279D02*
X73070124Y-73084374D01*
X73070124Y-73084374D02*
X73022505Y-73179612D01*
X73022505Y-73179612D02*
X72974886Y-73227231D01*
X72974886Y-73227231D02*
X72879648Y-73274850D01*
X72879648Y-73274850D02*
X72784410Y-73274850D01*
X72784410Y-73274850D02*
X72641553Y-73227231D01*
X72641553Y-73227231D02*
X72070124Y-72655803D01*
X72070124Y-72655803D02*
X72070124Y-73274850D01*
X73070124Y-73893898D02*
X73070124Y-73989136D01*
X73070124Y-73989136D02*
X73022505Y-74084374D01*
X73022505Y-74084374D02*
X72974886Y-74131993D01*
X72974886Y-74131993D02*
X72879648Y-74179612D01*
X72879648Y-74179612D02*
X72689172Y-74227231D01*
X72689172Y-74227231D02*
X72451077Y-74227231D01*
X72451077Y-74227231D02*
X72260601Y-74179612D01*
X72260601Y-74179612D02*
X72165363Y-74131993D01*
X72165363Y-74131993D02*
X72117744Y-74084374D01*
X72117744Y-74084374D02*
X72070124Y-73989136D01*
X72070124Y-73989136D02*
X72070124Y-73893898D01*
X72070124Y-73893898D02*
X72117744Y-73798660D01*
X72117744Y-73798660D02*
X72165363Y-73751041D01*
X72165363Y-73751041D02*
X72260601Y-73703422D01*
X72260601Y-73703422D02*
X72451077Y-73655803D01*
X72451077Y-73655803D02*
X72689172Y-73655803D01*
X72689172Y-73655803D02*
X72879648Y-73703422D01*
X72879648Y-73703422D02*
X72974886Y-73751041D01*
X72974886Y-73751041D02*
X73022505Y-73798660D01*
X73022505Y-73798660D02*
X73070124Y-73893898D01*
X72974886Y-74608184D02*
X73022505Y-74655803D01*
X73022505Y-74655803D02*
X73070124Y-74751041D01*
X73070124Y-74751041D02*
X73070124Y-74989136D01*
X73070124Y-74989136D02*
X73022505Y-75084374D01*
X73022505Y-75084374D02*
X72974886Y-75131993D01*
X72974886Y-75131993D02*
X72879648Y-75179612D01*
X72879648Y-75179612D02*
X72784410Y-75179612D01*
X72784410Y-75179612D02*
X72641553Y-75131993D01*
X72641553Y-75131993D02*
X72070124Y-74560565D01*
X72070124Y-74560565D02*
X72070124Y-75179612D01*
X73070124Y-76084374D02*
X73070124Y-75608184D01*
X73070124Y-75608184D02*
X72593934Y-75560565D01*
X72593934Y-75560565D02*
X72641553Y-75608184D01*
X72641553Y-75608184D02*
X72689172Y-75703422D01*
X72689172Y-75703422D02*
X72689172Y-75941517D01*
X72689172Y-75941517D02*
X72641553Y-76036755D01*
X72641553Y-76036755D02*
X72593934Y-76084374D01*
X72593934Y-76084374D02*
X72498696Y-76131993D01*
X72498696Y-76131993D02*
X72260601Y-76131993D01*
X72260601Y-76131993D02*
X72165363Y-76084374D01*
X72165363Y-76084374D02*
X72117744Y-76036755D01*
X72117744Y-76036755D02*
X72070124Y-75941517D01*
X72070124Y-75941517D02*
X72070124Y-75703422D01*
X72070124Y-75703422D02*
X72117744Y-75608184D01*
X72117744Y-75608184D02*
X72165363Y-75560565D01*
X73070124Y-76751041D02*
X73070124Y-76846279D01*
X73070124Y-76846279D02*
X73022505Y-76941517D01*
X73022505Y-76941517D02*
X72974886Y-76989136D01*
X72974886Y-76989136D02*
X72879648Y-77036755D01*
X72879648Y-77036755D02*
X72689172Y-77084374D01*
X72689172Y-77084374D02*
X72451077Y-77084374D01*
X72451077Y-77084374D02*
X72260601Y-77036755D01*
X72260601Y-77036755D02*
X72165363Y-76989136D01*
X72165363Y-76989136D02*
X72117744Y-76941517D01*
X72117744Y-76941517D02*
X72070124Y-76846279D01*
X72070124Y-76846279D02*
X72070124Y-76751041D01*
X72070124Y-76751041D02*
X72117744Y-76655803D01*
X72117744Y-76655803D02*
X72165363Y-76608184D01*
X72165363Y-76608184D02*
X72260601Y-76560565D01*
X72260601Y-76560565D02*
X72451077Y-76512946D01*
X72451077Y-76512946D02*
X72689172Y-76512946D01*
X72689172Y-76512946D02*
X72879648Y-76560565D01*
X72879648Y-76560565D02*
X72974886Y-76608184D01*
X72974886Y-76608184D02*
X73022505Y-76655803D01*
X73022505Y-76655803D02*
X73070124Y-76751041D01*
X72974886Y-77465327D02*
X73022505Y-77512946D01*
X73022505Y-77512946D02*
X73070124Y-77608184D01*
X73070124Y-77608184D02*
X73070124Y-77846279D01*
X73070124Y-77846279D02*
X73022505Y-77941517D01*
X73022505Y-77941517D02*
X72974886Y-77989136D01*
X72974886Y-77989136D02*
X72879648Y-78036755D01*
X72879648Y-78036755D02*
X72784410Y-78036755D01*
X72784410Y-78036755D02*
X72641553Y-77989136D01*
X72641553Y-77989136D02*
X72070124Y-77417708D01*
X72070124Y-77417708D02*
X72070124Y-78036755D01*
X72974886Y-78417708D02*
X73022505Y-78465327D01*
X73022505Y-78465327D02*
X73070124Y-78560565D01*
X73070124Y-78560565D02*
X73070124Y-78798660D01*
X73070124Y-78798660D02*
X73022505Y-78893898D01*
X73022505Y-78893898D02*
X72974886Y-78941517D01*
X72974886Y-78941517D02*
X72879648Y-78989136D01*
X72879648Y-78989136D02*
X72784410Y-78989136D01*
X72784410Y-78989136D02*
X72641553Y-78941517D01*
X72641553Y-78941517D02*
X72070124Y-78370089D01*
X72070124Y-78370089D02*
X72070124Y-78989136D01*
X73070124Y-79893898D02*
X73070124Y-79417708D01*
X73070124Y-79417708D02*
X72593934Y-79370089D01*
X72593934Y-79370089D02*
X72641553Y-79417708D01*
X72641553Y-79417708D02*
X72689172Y-79512946D01*
X72689172Y-79512946D02*
X72689172Y-79751041D01*
X72689172Y-79751041D02*
X72641553Y-79846279D01*
X72641553Y-79846279D02*
X72593934Y-79893898D01*
X72593934Y-79893898D02*
X72498696Y-79941517D01*
X72498696Y-79941517D02*
X72260601Y-79941517D01*
X72260601Y-79941517D02*
X72165363Y-79893898D01*
X72165363Y-79893898D02*
X72117744Y-79846279D01*
X72117744Y-79846279D02*
X72070124Y-79751041D01*
X72070124Y-79751041D02*
X72070124Y-79512946D01*
X72070124Y-79512946D02*
X72117744Y-79417708D01*
X72117744Y-79417708D02*
X72165363Y-79370089D01*
X70460180Y-47370084D02*
X71460180Y-47370084D01*
X70460180Y-47798655D02*
X70983990Y-47798655D01*
X70983990Y-47798655D02*
X71079228Y-47751036D01*
X71079228Y-47751036D02*
X71126847Y-47655798D01*
X71126847Y-47655798D02*
X71126847Y-47512941D01*
X71126847Y-47512941D02*
X71079228Y-47417703D01*
X71079228Y-47417703D02*
X71031609Y-47370084D01*
X71126847Y-48131989D02*
X71126847Y-48512941D01*
X71460180Y-48274846D02*
X70603038Y-48274846D01*
X70603038Y-48274846D02*
X70507800Y-48322465D01*
X70507800Y-48322465D02*
X70460180Y-48417703D01*
X70460180Y-48417703D02*
X70460180Y-48512941D01*
X71126847Y-48703418D02*
X71126847Y-49084370D01*
X71460180Y-48846275D02*
X70603038Y-48846275D01*
X70603038Y-48846275D02*
X70507800Y-48893894D01*
X70507800Y-48893894D02*
X70460180Y-48989132D01*
X70460180Y-48989132D02*
X70460180Y-49084370D01*
X71126847Y-49417704D02*
X70126847Y-49417704D01*
X71079228Y-49417704D02*
X71126847Y-49512942D01*
X71126847Y-49512942D02*
X71126847Y-49703418D01*
X71126847Y-49703418D02*
X71079228Y-49798656D01*
X71079228Y-49798656D02*
X71031609Y-49846275D01*
X71031609Y-49846275D02*
X70936371Y-49893894D01*
X70936371Y-49893894D02*
X70650657Y-49893894D01*
X70650657Y-49893894D02*
X70555419Y-49846275D01*
X70555419Y-49846275D02*
X70507800Y-49798656D01*
X70507800Y-49798656D02*
X70460180Y-49703418D01*
X70460180Y-49703418D02*
X70460180Y-49512942D01*
X70460180Y-49512942D02*
X70507800Y-49417704D01*
X70507800Y-50274847D02*
X70460180Y-50370085D01*
X70460180Y-50370085D02*
X70460180Y-50560561D01*
X70460180Y-50560561D02*
X70507800Y-50655799D01*
X70507800Y-50655799D02*
X70603038Y-50703418D01*
X70603038Y-50703418D02*
X70650657Y-50703418D01*
X70650657Y-50703418D02*
X70745895Y-50655799D01*
X70745895Y-50655799D02*
X70793514Y-50560561D01*
X70793514Y-50560561D02*
X70793514Y-50417704D01*
X70793514Y-50417704D02*
X70841133Y-50322466D01*
X70841133Y-50322466D02*
X70936371Y-50274847D01*
X70936371Y-50274847D02*
X70983990Y-50274847D01*
X70983990Y-50274847D02*
X71079228Y-50322466D01*
X71079228Y-50322466D02*
X71126847Y-50417704D01*
X71126847Y-50417704D02*
X71126847Y-50560561D01*
X71126847Y-50560561D02*
X71079228Y-50655799D01*
X70555419Y-51131990D02*
X70507800Y-51179609D01*
X70507800Y-51179609D02*
X70460180Y-51131990D01*
X70460180Y-51131990D02*
X70507800Y-51084371D01*
X70507800Y-51084371D02*
X70555419Y-51131990D01*
X70555419Y-51131990D02*
X70460180Y-51131990D01*
X71079228Y-51131990D02*
X71031609Y-51179609D01*
X71031609Y-51179609D02*
X70983990Y-51131990D01*
X70983990Y-51131990D02*
X71031609Y-51084371D01*
X71031609Y-51084371D02*
X71079228Y-51131990D01*
X71079228Y-51131990D02*
X70983990Y-51131990D01*
X71507800Y-52322465D02*
X70222085Y-51465323D01*
X71507800Y-53370084D02*
X70222085Y-52512942D01*
X71126847Y-54131989D02*
X70317323Y-54131989D01*
X70317323Y-54131989D02*
X70222085Y-54084370D01*
X70222085Y-54084370D02*
X70174466Y-54036751D01*
X70174466Y-54036751D02*
X70126847Y-53941513D01*
X70126847Y-53941513D02*
X70126847Y-53798656D01*
X70126847Y-53798656D02*
X70174466Y-53703418D01*
X70507800Y-54131989D02*
X70460180Y-54036751D01*
X70460180Y-54036751D02*
X70460180Y-53846275D01*
X70460180Y-53846275D02*
X70507800Y-53751037D01*
X70507800Y-53751037D02*
X70555419Y-53703418D01*
X70555419Y-53703418D02*
X70650657Y-53655799D01*
X70650657Y-53655799D02*
X70936371Y-53655799D01*
X70936371Y-53655799D02*
X71031609Y-53703418D01*
X71031609Y-53703418D02*
X71079228Y-53751037D01*
X71079228Y-53751037D02*
X71126847Y-53846275D01*
X71126847Y-53846275D02*
X71126847Y-54036751D01*
X71126847Y-54036751D02*
X71079228Y-54131989D01*
X70460180Y-54608180D02*
X71126847Y-54608180D01*
X71460180Y-54608180D02*
X71412561Y-54560561D01*
X71412561Y-54560561D02*
X71364942Y-54608180D01*
X71364942Y-54608180D02*
X71412561Y-54655799D01*
X71412561Y-54655799D02*
X71460180Y-54608180D01*
X71460180Y-54608180D02*
X71364942Y-54608180D01*
X71126847Y-54941513D02*
X71126847Y-55322465D01*
X71460180Y-55084370D02*
X70603038Y-55084370D01*
X70603038Y-55084370D02*
X70507800Y-55131989D01*
X70507800Y-55131989D02*
X70460180Y-55227227D01*
X70460180Y-55227227D02*
X70460180Y-55322465D01*
X70460180Y-55655799D02*
X71460180Y-55655799D01*
X70460180Y-56084370D02*
X70983990Y-56084370D01*
X70983990Y-56084370D02*
X71079228Y-56036751D01*
X71079228Y-56036751D02*
X71126847Y-55941513D01*
X71126847Y-55941513D02*
X71126847Y-55798656D01*
X71126847Y-55798656D02*
X71079228Y-55703418D01*
X71079228Y-55703418D02*
X71031609Y-55655799D01*
X71126847Y-56989132D02*
X70460180Y-56989132D01*
X71126847Y-56560561D02*
X70603038Y-56560561D01*
X70603038Y-56560561D02*
X70507800Y-56608180D01*
X70507800Y-56608180D02*
X70460180Y-56703418D01*
X70460180Y-56703418D02*
X70460180Y-56846275D01*
X70460180Y-56846275D02*
X70507800Y-56941513D01*
X70507800Y-56941513D02*
X70555419Y-56989132D01*
X70460180Y-57465323D02*
X71460180Y-57465323D01*
X71079228Y-57465323D02*
X71126847Y-57560561D01*
X71126847Y-57560561D02*
X71126847Y-57751037D01*
X71126847Y-57751037D02*
X71079228Y-57846275D01*
X71079228Y-57846275D02*
X71031609Y-57893894D01*
X71031609Y-57893894D02*
X70936371Y-57941513D01*
X70936371Y-57941513D02*
X70650657Y-57941513D01*
X70650657Y-57941513D02*
X70555419Y-57893894D01*
X70555419Y-57893894D02*
X70507800Y-57846275D01*
X70507800Y-57846275D02*
X70460180Y-57751037D01*
X70460180Y-57751037D02*
X70460180Y-57560561D01*
X70460180Y-57560561D02*
X70507800Y-57465323D01*
X70555419Y-58370085D02*
X70507800Y-58417704D01*
X70507800Y-58417704D02*
X70460180Y-58370085D01*
X70460180Y-58370085D02*
X70507800Y-58322466D01*
X70507800Y-58322466D02*
X70555419Y-58370085D01*
X70555419Y-58370085D02*
X70460180Y-58370085D01*
X70507800Y-59274846D02*
X70460180Y-59179608D01*
X70460180Y-59179608D02*
X70460180Y-58989132D01*
X70460180Y-58989132D02*
X70507800Y-58893894D01*
X70507800Y-58893894D02*
X70555419Y-58846275D01*
X70555419Y-58846275D02*
X70650657Y-58798656D01*
X70650657Y-58798656D02*
X70936371Y-58798656D01*
X70936371Y-58798656D02*
X71031609Y-58846275D01*
X71031609Y-58846275D02*
X71079228Y-58893894D01*
X71079228Y-58893894D02*
X71126847Y-58989132D01*
X71126847Y-58989132D02*
X71126847Y-59179608D01*
X71126847Y-59179608D02*
X71079228Y-59274846D01*
X70460180Y-59846275D02*
X70507800Y-59751037D01*
X70507800Y-59751037D02*
X70555419Y-59703418D01*
X70555419Y-59703418D02*
X70650657Y-59655799D01*
X70650657Y-59655799D02*
X70936371Y-59655799D01*
X70936371Y-59655799D02*
X71031609Y-59703418D01*
X71031609Y-59703418D02*
X71079228Y-59751037D01*
X71079228Y-59751037D02*
X71126847Y-59846275D01*
X71126847Y-59846275D02*
X71126847Y-59989132D01*
X71126847Y-59989132D02*
X71079228Y-60084370D01*
X71079228Y-60084370D02*
X71031609Y-60131989D01*
X71031609Y-60131989D02*
X70936371Y-60179608D01*
X70936371Y-60179608D02*
X70650657Y-60179608D01*
X70650657Y-60179608D02*
X70555419Y-60131989D01*
X70555419Y-60131989D02*
X70507800Y-60084370D01*
X70507800Y-60084370D02*
X70460180Y-59989132D01*
X70460180Y-59989132D02*
X70460180Y-59846275D01*
X70460180Y-60608180D02*
X71126847Y-60608180D01*
X71031609Y-60608180D02*
X71079228Y-60655799D01*
X71079228Y-60655799D02*
X71126847Y-60751037D01*
X71126847Y-60751037D02*
X71126847Y-60893894D01*
X71126847Y-60893894D02*
X71079228Y-60989132D01*
X71079228Y-60989132D02*
X70983990Y-61036751D01*
X70983990Y-61036751D02*
X70460180Y-61036751D01*
X70983990Y-61036751D02*
X71079228Y-61084370D01*
X71079228Y-61084370D02*
X71126847Y-61179608D01*
X71126847Y-61179608D02*
X71126847Y-61322465D01*
X71126847Y-61322465D02*
X71079228Y-61417704D01*
X71079228Y-61417704D02*
X70983990Y-61465323D01*
X70983990Y-61465323D02*
X70460180Y-61465323D01*
X71507800Y-62655798D02*
X70222085Y-61798656D01*
X71126847Y-63417703D02*
X70317323Y-63417703D01*
X70317323Y-63417703D02*
X70222085Y-63370084D01*
X70222085Y-63370084D02*
X70174466Y-63322465D01*
X70174466Y-63322465D02*
X70126847Y-63227227D01*
X70126847Y-63227227D02*
X70126847Y-63084370D01*
X70126847Y-63084370D02*
X70174466Y-62989132D01*
X70507800Y-63417703D02*
X70460180Y-63322465D01*
X70460180Y-63322465D02*
X70460180Y-63131989D01*
X70460180Y-63131989D02*
X70507800Y-63036751D01*
X70507800Y-63036751D02*
X70555419Y-62989132D01*
X70555419Y-62989132D02*
X70650657Y-62941513D01*
X70650657Y-62941513D02*
X70936371Y-62941513D01*
X70936371Y-62941513D02*
X71031609Y-62989132D01*
X71031609Y-62989132D02*
X71079228Y-63036751D01*
X71079228Y-63036751D02*
X71126847Y-63131989D01*
X71126847Y-63131989D02*
X71126847Y-63322465D01*
X71126847Y-63322465D02*
X71079228Y-63417703D01*
X70460180Y-64322465D02*
X70983990Y-64322465D01*
X70983990Y-64322465D02*
X71079228Y-64274846D01*
X71079228Y-64274846D02*
X71126847Y-64179608D01*
X71126847Y-64179608D02*
X71126847Y-63989132D01*
X71126847Y-63989132D02*
X71079228Y-63893894D01*
X70507800Y-64322465D02*
X70460180Y-64227227D01*
X70460180Y-64227227D02*
X70460180Y-63989132D01*
X70460180Y-63989132D02*
X70507800Y-63893894D01*
X70507800Y-63893894D02*
X70603038Y-63846275D01*
X70603038Y-63846275D02*
X70698276Y-63846275D01*
X70698276Y-63846275D02*
X70793514Y-63893894D01*
X70793514Y-63893894D02*
X70841133Y-63989132D01*
X70841133Y-63989132D02*
X70841133Y-64227227D01*
X70841133Y-64227227D02*
X70888752Y-64322465D01*
X70460180Y-64798656D02*
X71126847Y-64798656D01*
X70936371Y-64798656D02*
X71031609Y-64846275D01*
X71031609Y-64846275D02*
X71079228Y-64893894D01*
X71079228Y-64893894D02*
X71126847Y-64989132D01*
X71126847Y-64989132D02*
X71126847Y-65084370D01*
X70460180Y-65846275D02*
X71460180Y-65846275D01*
X70507800Y-65846275D02*
X70460180Y-65751037D01*
X70460180Y-65751037D02*
X70460180Y-65560561D01*
X70460180Y-65560561D02*
X70507800Y-65465323D01*
X70507800Y-65465323D02*
X70555419Y-65417704D01*
X70555419Y-65417704D02*
X70650657Y-65370085D01*
X70650657Y-65370085D02*
X70936371Y-65370085D01*
X70936371Y-65370085D02*
X71031609Y-65417704D01*
X71031609Y-65417704D02*
X71079228Y-65465323D01*
X71079228Y-65465323D02*
X71126847Y-65560561D01*
X71126847Y-65560561D02*
X71126847Y-65751037D01*
X71126847Y-65751037D02*
X71079228Y-65846275D01*
X71126847Y-66322466D02*
X70460180Y-66322466D01*
X71031609Y-66322466D02*
X71079228Y-66370085D01*
X71079228Y-66370085D02*
X71126847Y-66465323D01*
X71126847Y-66465323D02*
X71126847Y-66608180D01*
X71126847Y-66608180D02*
X71079228Y-66703418D01*
X71079228Y-66703418D02*
X70983990Y-66751037D01*
X70983990Y-66751037D02*
X70460180Y-66751037D01*
X70507800Y-67608180D02*
X70460180Y-67512942D01*
X70460180Y-67512942D02*
X70460180Y-67322466D01*
X70460180Y-67322466D02*
X70507800Y-67227228D01*
X70507800Y-67227228D02*
X70603038Y-67179609D01*
X70603038Y-67179609D02*
X70983990Y-67179609D01*
X70983990Y-67179609D02*
X71079228Y-67227228D01*
X71079228Y-67227228D02*
X71126847Y-67322466D01*
X71126847Y-67322466D02*
X71126847Y-67512942D01*
X71126847Y-67512942D02*
X71079228Y-67608180D01*
X71079228Y-67608180D02*
X70983990Y-67655799D01*
X70983990Y-67655799D02*
X70888752Y-67655799D01*
X70888752Y-67655799D02*
X70793514Y-67179609D01*
X70460180Y-68084371D02*
X71126847Y-68084371D01*
X70936371Y-68084371D02*
X71031609Y-68131990D01*
X71031609Y-68131990D02*
X71079228Y-68179609D01*
X71079228Y-68179609D02*
X71126847Y-68274847D01*
X71126847Y-68274847D02*
X71126847Y-68370085D01*
X70507800Y-68655800D02*
X70460180Y-68751038D01*
X70460180Y-68751038D02*
X70460180Y-68941514D01*
X70460180Y-68941514D02*
X70507800Y-69036752D01*
X70507800Y-69036752D02*
X70603038Y-69084371D01*
X70603038Y-69084371D02*
X70650657Y-69084371D01*
X70650657Y-69084371D02*
X70745895Y-69036752D01*
X70745895Y-69036752D02*
X70793514Y-68941514D01*
X70793514Y-68941514D02*
X70793514Y-68798657D01*
X70793514Y-68798657D02*
X70841133Y-68703419D01*
X70841133Y-68703419D02*
X70936371Y-68655800D01*
X70936371Y-68655800D02*
X70983990Y-68655800D01*
X70983990Y-68655800D02*
X71079228Y-68703419D01*
X71079228Y-68703419D02*
X71126847Y-68798657D01*
X71126847Y-68798657D02*
X71126847Y-68941514D01*
X71126847Y-68941514D02*
X71079228Y-69036752D01*
X71507800Y-70227228D02*
X70222085Y-69370086D01*
X70460180Y-70560562D02*
X71126847Y-70560562D01*
X71031609Y-70560562D02*
X71079228Y-70608181D01*
X71079228Y-70608181D02*
X71126847Y-70703419D01*
X71126847Y-70703419D02*
X71126847Y-70846276D01*
X71126847Y-70846276D02*
X71079228Y-70941514D01*
X71079228Y-70941514D02*
X70983990Y-70989133D01*
X70983990Y-70989133D02*
X70460180Y-70989133D01*
X70983990Y-70989133D02*
X71079228Y-71036752D01*
X71079228Y-71036752D02*
X71126847Y-71131990D01*
X71126847Y-71131990D02*
X71126847Y-71274847D01*
X71126847Y-71274847D02*
X71079228Y-71370086D01*
X71079228Y-71370086D02*
X70983990Y-71417705D01*
X70983990Y-71417705D02*
X70460180Y-71417705D01*
X70507800Y-72274847D02*
X70460180Y-72179609D01*
X70460180Y-72179609D02*
X70460180Y-71989133D01*
X70460180Y-71989133D02*
X70507800Y-71893895D01*
X70507800Y-71893895D02*
X70603038Y-71846276D01*
X70603038Y-71846276D02*
X70983990Y-71846276D01*
X70983990Y-71846276D02*
X71079228Y-71893895D01*
X71079228Y-71893895D02*
X71126847Y-71989133D01*
X71126847Y-71989133D02*
X71126847Y-72179609D01*
X71126847Y-72179609D02*
X71079228Y-72274847D01*
X71079228Y-72274847D02*
X70983990Y-72322466D01*
X70983990Y-72322466D02*
X70888752Y-72322466D01*
X70888752Y-72322466D02*
X70793514Y-71846276D01*
X71126847Y-73179609D02*
X70317323Y-73179609D01*
X70317323Y-73179609D02*
X70222085Y-73131990D01*
X70222085Y-73131990D02*
X70174466Y-73084371D01*
X70174466Y-73084371D02*
X70126847Y-72989133D01*
X70126847Y-72989133D02*
X70126847Y-72846276D01*
X70126847Y-72846276D02*
X70174466Y-72751038D01*
X70507800Y-73179609D02*
X70460180Y-73084371D01*
X70460180Y-73084371D02*
X70460180Y-72893895D01*
X70460180Y-72893895D02*
X70507800Y-72798657D01*
X70507800Y-72798657D02*
X70555419Y-72751038D01*
X70555419Y-72751038D02*
X70650657Y-72703419D01*
X70650657Y-72703419D02*
X70936371Y-72703419D01*
X70936371Y-72703419D02*
X71031609Y-72751038D01*
X71031609Y-72751038D02*
X71079228Y-72798657D01*
X71079228Y-72798657D02*
X71126847Y-72893895D01*
X71126847Y-72893895D02*
X71126847Y-73084371D01*
X71126847Y-73084371D02*
X71079228Y-73179609D01*
X70460180Y-74084371D02*
X70983990Y-74084371D01*
X70983990Y-74084371D02*
X71079228Y-74036752D01*
X71079228Y-74036752D02*
X71126847Y-73941514D01*
X71126847Y-73941514D02*
X71126847Y-73751038D01*
X71126847Y-73751038D02*
X71079228Y-73655800D01*
X70507800Y-74084371D02*
X70460180Y-73989133D01*
X70460180Y-73989133D02*
X70460180Y-73751038D01*
X70460180Y-73751038D02*
X70507800Y-73655800D01*
X70507800Y-73655800D02*
X70603038Y-73608181D01*
X70603038Y-73608181D02*
X70698276Y-73608181D01*
X70698276Y-73608181D02*
X70793514Y-73655800D01*
X70793514Y-73655800D02*
X70841133Y-73751038D01*
X70841133Y-73751038D02*
X70841133Y-73989133D01*
X70841133Y-73989133D02*
X70888752Y-74084371D01*
X71126847Y-74560562D02*
X70126847Y-74560562D01*
X71079228Y-74560562D02*
X71126847Y-74655800D01*
X71126847Y-74655800D02*
X71126847Y-74846276D01*
X71126847Y-74846276D02*
X71079228Y-74941514D01*
X71079228Y-74941514D02*
X71031609Y-74989133D01*
X71031609Y-74989133D02*
X70936371Y-75036752D01*
X70936371Y-75036752D02*
X70650657Y-75036752D01*
X70650657Y-75036752D02*
X70555419Y-74989133D01*
X70555419Y-74989133D02*
X70507800Y-74941514D01*
X70507800Y-74941514D02*
X70460180Y-74846276D01*
X70460180Y-74846276D02*
X70460180Y-74655800D01*
X70460180Y-74655800D02*
X70507800Y-74560562D01*
X70460180Y-75465324D02*
X71460180Y-75465324D01*
X70460180Y-75893895D02*
X70983990Y-75893895D01*
X70983990Y-75893895D02*
X71079228Y-75846276D01*
X71079228Y-75846276D02*
X71126847Y-75751038D01*
X71126847Y-75751038D02*
X71126847Y-75608181D01*
X71126847Y-75608181D02*
X71079228Y-75512943D01*
X71079228Y-75512943D02*
X71031609Y-75465324D01*
X70460180Y-76512943D02*
X70507800Y-76417705D01*
X70507800Y-76417705D02*
X70555419Y-76370086D01*
X70555419Y-76370086D02*
X70650657Y-76322467D01*
X70650657Y-76322467D02*
X70936371Y-76322467D01*
X70936371Y-76322467D02*
X71031609Y-76370086D01*
X71031609Y-76370086D02*
X71079228Y-76417705D01*
X71079228Y-76417705D02*
X71126847Y-76512943D01*
X71126847Y-76512943D02*
X71126847Y-76655800D01*
X71126847Y-76655800D02*
X71079228Y-76751038D01*
X71079228Y-76751038D02*
X71031609Y-76798657D01*
X71031609Y-76798657D02*
X70936371Y-76846276D01*
X70936371Y-76846276D02*
X70650657Y-76846276D01*
X70650657Y-76846276D02*
X70555419Y-76798657D01*
X70555419Y-76798657D02*
X70507800Y-76751038D01*
X70507800Y-76751038D02*
X70460180Y-76655800D01*
X70460180Y-76655800D02*
X70460180Y-76512943D01*
X71126847Y-77274848D02*
X70460180Y-77274848D01*
X71031609Y-77274848D02*
X71079228Y-77322467D01*
X71079228Y-77322467D02*
X71126847Y-77417705D01*
X71126847Y-77417705D02*
X71126847Y-77560562D01*
X71126847Y-77560562D02*
X71079228Y-77655800D01*
X71079228Y-77655800D02*
X70983990Y-77703419D01*
X70983990Y-77703419D02*
X70460180Y-77703419D01*
X70507800Y-78560562D02*
X70460180Y-78465324D01*
X70460180Y-78465324D02*
X70460180Y-78274848D01*
X70460180Y-78274848D02*
X70507800Y-78179610D01*
X70507800Y-78179610D02*
X70603038Y-78131991D01*
X70603038Y-78131991D02*
X70983990Y-78131991D01*
X70983990Y-78131991D02*
X71079228Y-78179610D01*
X71079228Y-78179610D02*
X71126847Y-78274848D01*
X71126847Y-78274848D02*
X71126847Y-78465324D01*
X71126847Y-78465324D02*
X71079228Y-78560562D01*
X71079228Y-78560562D02*
X70983990Y-78608181D01*
X70983990Y-78608181D02*
X70888752Y-78608181D01*
X70888752Y-78608181D02*
X70793514Y-78131991D01*
X70841133Y-79036753D02*
X70841133Y-79798658D01*
X70460180Y-80274848D02*
X71126847Y-80274848D01*
X70936371Y-80274848D02*
X71031609Y-80322467D01*
X71031609Y-80322467D02*
X71079228Y-80370086D01*
X71079228Y-80370086D02*
X71126847Y-80465324D01*
X71126847Y-80465324D02*
X71126847Y-80560562D01*
X71460180Y-81370086D02*
X71460180Y-80893896D01*
X71460180Y-80893896D02*
X70983990Y-80846277D01*
X70983990Y-80846277D02*
X71031609Y-80893896D01*
X71031609Y-80893896D02*
X71079228Y-80989134D01*
X71079228Y-80989134D02*
X71079228Y-81227229D01*
X71079228Y-81227229D02*
X71031609Y-81322467D01*
X71031609Y-81322467D02*
X70983990Y-81370086D01*
X70983990Y-81370086D02*
X70888752Y-81417705D01*
X70888752Y-81417705D02*
X70650657Y-81417705D01*
X70650657Y-81417705D02*
X70555419Y-81370086D01*
X70555419Y-81370086D02*
X70507800Y-81322467D01*
X70507800Y-81322467D02*
X70460180Y-81227229D01*
X70460180Y-81227229D02*
X70460180Y-80989134D01*
X70460180Y-80989134D02*
X70507800Y-80893896D01*
X70507800Y-80893896D02*
X70555419Y-80846277D01*
X70841133Y-81846277D02*
X70841133Y-82608182D01*
X70460180Y-83084372D02*
X71126847Y-83084372D01*
X71031609Y-83084372D02*
X71079228Y-83131991D01*
X71079228Y-83131991D02*
X71126847Y-83227229D01*
X71126847Y-83227229D02*
X71126847Y-83370086D01*
X71126847Y-83370086D02*
X71079228Y-83465324D01*
X71079228Y-83465324D02*
X70983990Y-83512943D01*
X70983990Y-83512943D02*
X70460180Y-83512943D01*
X70983990Y-83512943D02*
X71079228Y-83560562D01*
X71079228Y-83560562D02*
X71126847Y-83655800D01*
X71126847Y-83655800D02*
X71126847Y-83798657D01*
X71126847Y-83798657D02*
X71079228Y-83893896D01*
X71079228Y-83893896D02*
X70983990Y-83941515D01*
X70983990Y-83941515D02*
X70460180Y-83941515D01*
X70460180Y-84560562D02*
X70507800Y-84465324D01*
X70507800Y-84465324D02*
X70555419Y-84417705D01*
X70555419Y-84417705D02*
X70650657Y-84370086D01*
X70650657Y-84370086D02*
X70936371Y-84370086D01*
X70936371Y-84370086D02*
X71031609Y-84417705D01*
X71031609Y-84417705D02*
X71079228Y-84465324D01*
X71079228Y-84465324D02*
X71126847Y-84560562D01*
X71126847Y-84560562D02*
X71126847Y-84703419D01*
X71126847Y-84703419D02*
X71079228Y-84798657D01*
X71079228Y-84798657D02*
X71031609Y-84846276D01*
X71031609Y-84846276D02*
X70936371Y-84893895D01*
X70936371Y-84893895D02*
X70650657Y-84893895D01*
X70650657Y-84893895D02*
X70555419Y-84846276D01*
X70555419Y-84846276D02*
X70507800Y-84798657D01*
X70507800Y-84798657D02*
X70460180Y-84703419D01*
X70460180Y-84703419D02*
X70460180Y-84560562D01*
X70460180Y-85751038D02*
X71460180Y-85751038D01*
X70507800Y-85751038D02*
X70460180Y-85655800D01*
X70460180Y-85655800D02*
X70460180Y-85465324D01*
X70460180Y-85465324D02*
X70507800Y-85370086D01*
X70507800Y-85370086D02*
X70555419Y-85322467D01*
X70555419Y-85322467D02*
X70650657Y-85274848D01*
X70650657Y-85274848D02*
X70936371Y-85274848D01*
X70936371Y-85274848D02*
X71031609Y-85322467D01*
X71031609Y-85322467D02*
X71079228Y-85370086D01*
X71079228Y-85370086D02*
X71126847Y-85465324D01*
X71126847Y-85465324D02*
X71126847Y-85655800D01*
X71126847Y-85655800D02*
X71079228Y-85751038D01*
X71126847Y-86655800D02*
X70460180Y-86655800D01*
X71126847Y-86227229D02*
X70603038Y-86227229D01*
X70603038Y-86227229D02*
X70507800Y-86274848D01*
X70507800Y-86274848D02*
X70460180Y-86370086D01*
X70460180Y-86370086D02*
X70460180Y-86512943D01*
X70460180Y-86512943D02*
X70507800Y-86608181D01*
X70507800Y-86608181D02*
X70555419Y-86655800D01*
X70460180Y-87274848D02*
X70507800Y-87179610D01*
X70507800Y-87179610D02*
X70603038Y-87131991D01*
X70603038Y-87131991D02*
X71460180Y-87131991D01*
X70460180Y-88084372D02*
X70983990Y-88084372D01*
X70983990Y-88084372D02*
X71079228Y-88036753D01*
X71079228Y-88036753D02*
X71126847Y-87941515D01*
X71126847Y-87941515D02*
X71126847Y-87751039D01*
X71126847Y-87751039D02*
X71079228Y-87655801D01*
X70507800Y-88084372D02*
X70460180Y-87989134D01*
X70460180Y-87989134D02*
X70460180Y-87751039D01*
X70460180Y-87751039D02*
X70507800Y-87655801D01*
X70507800Y-87655801D02*
X70603038Y-87608182D01*
X70603038Y-87608182D02*
X70698276Y-87608182D01*
X70698276Y-87608182D02*
X70793514Y-87655801D01*
X70793514Y-87655801D02*
X70841133Y-87751039D01*
X70841133Y-87751039D02*
X70841133Y-87989134D01*
X70841133Y-87989134D02*
X70888752Y-88084372D01*
X70460180Y-88560563D02*
X71126847Y-88560563D01*
X70936371Y-88560563D02*
X71031609Y-88608182D01*
X71031609Y-88608182D02*
X71079228Y-88655801D01*
X71079228Y-88655801D02*
X71126847Y-88751039D01*
X71126847Y-88751039D02*
X71126847Y-88846277D01*
X105437665Y-95281340D02*
X105437665Y-94481340D01*
X105780521Y-94557530D02*
X105818617Y-94519435D01*
X105818617Y-94519435D02*
X105894807Y-94481340D01*
X105894807Y-94481340D02*
X106085283Y-94481340D01*
X106085283Y-94481340D02*
X106161474Y-94519435D01*
X106161474Y-94519435D02*
X106199569Y-94557530D01*
X106199569Y-94557530D02*
X106237664Y-94633721D01*
X106237664Y-94633721D02*
X106237664Y-94709911D01*
X106237664Y-94709911D02*
X106199569Y-94824197D01*
X106199569Y-94824197D02*
X105742426Y-95281340D01*
X105742426Y-95281340D02*
X106237664Y-95281340D01*
X107037665Y-95205149D02*
X106999569Y-95243245D01*
X106999569Y-95243245D02*
X106885284Y-95281340D01*
X106885284Y-95281340D02*
X106809093Y-95281340D01*
X106809093Y-95281340D02*
X106694807Y-95243245D01*
X106694807Y-95243245D02*
X106618617Y-95167054D01*
X106618617Y-95167054D02*
X106580522Y-95090864D01*
X106580522Y-95090864D02*
X106542426Y-94938483D01*
X106542426Y-94938483D02*
X106542426Y-94824197D01*
X106542426Y-94824197D02*
X106580522Y-94671816D01*
X106580522Y-94671816D02*
X106618617Y-94595625D01*
X106618617Y-94595625D02*
X106694807Y-94519435D01*
X106694807Y-94519435D02*
X106809093Y-94481340D01*
X106809093Y-94481340D02*
X106885284Y-94481340D01*
X106885284Y-94481340D02*
X106999569Y-94519435D01*
X106999569Y-94519435D02*
X107037665Y-94557530D01*
X105437665Y-96569295D02*
X105437665Y-95769295D01*
X105437665Y-95769295D02*
X105628141Y-95769295D01*
X105628141Y-95769295D02*
X105742427Y-95807390D01*
X105742427Y-95807390D02*
X105818617Y-95883580D01*
X105818617Y-95883580D02*
X105856712Y-95959771D01*
X105856712Y-95959771D02*
X105894808Y-96112152D01*
X105894808Y-96112152D02*
X105894808Y-96226438D01*
X105894808Y-96226438D02*
X105856712Y-96378819D01*
X105856712Y-96378819D02*
X105818617Y-96455009D01*
X105818617Y-96455009D02*
X105742427Y-96531200D01*
X105742427Y-96531200D02*
X105628141Y-96569295D01*
X105628141Y-96569295D02*
X105437665Y-96569295D01*
X106199569Y-96340723D02*
X106580522Y-96340723D01*
X106123379Y-96569295D02*
X106390046Y-95769295D01*
X106390046Y-95769295D02*
X106656712Y-96569295D01*
X106809093Y-95769295D02*
X107266236Y-95769295D01*
X107037664Y-96569295D02*
X107037664Y-95769295D01*
X104751808Y-39978104D02*
X104713712Y-40016200D01*
X104713712Y-40016200D02*
X104599427Y-40054295D01*
X104599427Y-40054295D02*
X104523236Y-40054295D01*
X104523236Y-40054295D02*
X104408950Y-40016200D01*
X104408950Y-40016200D02*
X104332760Y-39940009D01*
X104332760Y-39940009D02*
X104294665Y-39863819D01*
X104294665Y-39863819D02*
X104256569Y-39711438D01*
X104256569Y-39711438D02*
X104256569Y-39597152D01*
X104256569Y-39597152D02*
X104294665Y-39444771D01*
X104294665Y-39444771D02*
X104332760Y-39368580D01*
X104332760Y-39368580D02*
X104408950Y-39292390D01*
X104408950Y-39292390D02*
X104523236Y-39254295D01*
X104523236Y-39254295D02*
X104599427Y-39254295D01*
X104599427Y-39254295D02*
X104713712Y-39292390D01*
X104713712Y-39292390D02*
X104751808Y-39330485D01*
X105094665Y-39254295D02*
X105094665Y-39901914D01*
X105094665Y-39901914D02*
X105132760Y-39978104D01*
X105132760Y-39978104D02*
X105170855Y-40016200D01*
X105170855Y-40016200D02*
X105247046Y-40054295D01*
X105247046Y-40054295D02*
X105399427Y-40054295D01*
X105399427Y-40054295D02*
X105475617Y-40016200D01*
X105475617Y-40016200D02*
X105513712Y-39978104D01*
X105513712Y-39978104D02*
X105551808Y-39901914D01*
X105551808Y-39901914D02*
X105551808Y-39254295D01*
X106389903Y-40054295D02*
X106123236Y-39673342D01*
X105932760Y-40054295D02*
X105932760Y-39254295D01*
X105932760Y-39254295D02*
X106237522Y-39254295D01*
X106237522Y-39254295D02*
X106313712Y-39292390D01*
X106313712Y-39292390D02*
X106351807Y-39330485D01*
X106351807Y-39330485D02*
X106389903Y-39406676D01*
X106389903Y-39406676D02*
X106389903Y-39520961D01*
X106389903Y-39520961D02*
X106351807Y-39597152D01*
X106351807Y-39597152D02*
X106313712Y-39635247D01*
X106313712Y-39635247D02*
X106237522Y-39673342D01*
X106237522Y-39673342D02*
X105932760Y-39673342D01*
X106656569Y-39254295D02*
X107189903Y-40054295D01*
X107189903Y-39254295D02*
X106656569Y-40054295D01*
X105666265Y-80643495D02*
X105666265Y-79843495D01*
X105666265Y-79843495D02*
X106123408Y-80643495D01*
X106123408Y-80643495D02*
X106123408Y-79843495D01*
X106961503Y-80567304D02*
X106923407Y-80605400D01*
X106923407Y-80605400D02*
X106809122Y-80643495D01*
X106809122Y-80643495D02*
X106732931Y-80643495D01*
X106732931Y-80643495D02*
X106618645Y-80605400D01*
X106618645Y-80605400D02*
X106542455Y-80529209D01*
X106542455Y-80529209D02*
X106504360Y-80453019D01*
X106504360Y-80453019D02*
X106466264Y-80300638D01*
X106466264Y-80300638D02*
X106466264Y-80186352D01*
X106466264Y-80186352D02*
X106504360Y-80033971D01*
X106504360Y-80033971D02*
X106542455Y-79957780D01*
X106542455Y-79957780D02*
X106618645Y-79881590D01*
X106618645Y-79881590D02*
X106732931Y-79843495D01*
X106732931Y-79843495D02*
X106809122Y-79843495D01*
X106809122Y-79843495D02*
X106923407Y-79881590D01*
X106923407Y-79881590D02*
X106961503Y-79919685D01*
X105818608Y-45058104D02*
X105780512Y-45096200D01*
X105780512Y-45096200D02*
X105666227Y-45134295D01*
X105666227Y-45134295D02*
X105590036Y-45134295D01*
X105590036Y-45134295D02*
X105475750Y-45096200D01*
X105475750Y-45096200D02*
X105399560Y-45020009D01*
X105399560Y-45020009D02*
X105361465Y-44943819D01*
X105361465Y-44943819D02*
X105323369Y-44791438D01*
X105323369Y-44791438D02*
X105323369Y-44677152D01*
X105323369Y-44677152D02*
X105361465Y-44524771D01*
X105361465Y-44524771D02*
X105399560Y-44448580D01*
X105399560Y-44448580D02*
X105475750Y-44372390D01*
X105475750Y-44372390D02*
X105590036Y-44334295D01*
X105590036Y-44334295D02*
X105666227Y-44334295D01*
X105666227Y-44334295D02*
X105780512Y-44372390D01*
X105780512Y-44372390D02*
X105818608Y-44410485D01*
X106047179Y-44334295D02*
X106504322Y-44334295D01*
X106275750Y-45134295D02*
X106275750Y-44334295D01*
X106732893Y-45096200D02*
X106847179Y-45134295D01*
X106847179Y-45134295D02*
X107037655Y-45134295D01*
X107037655Y-45134295D02*
X107113846Y-45096200D01*
X107113846Y-45096200D02*
X107151941Y-45058104D01*
X107151941Y-45058104D02*
X107190036Y-44981914D01*
X107190036Y-44981914D02*
X107190036Y-44905723D01*
X107190036Y-44905723D02*
X107151941Y-44829533D01*
X107151941Y-44829533D02*
X107113846Y-44791438D01*
X107113846Y-44791438D02*
X107037655Y-44753342D01*
X107037655Y-44753342D02*
X106885274Y-44715247D01*
X106885274Y-44715247D02*
X106809084Y-44677152D01*
X106809084Y-44677152D02*
X106770989Y-44639057D01*
X106770989Y-44639057D02*
X106732893Y-44562866D01*
X106732893Y-44562866D02*
X106732893Y-44486676D01*
X106732893Y-44486676D02*
X106770989Y-44410485D01*
X106770989Y-44410485D02*
X106809084Y-44372390D01*
X106809084Y-44372390D02*
X106885274Y-44334295D01*
X106885274Y-44334295D02*
X107075751Y-44334295D01*
X107075751Y-44334295D02*
X107190036Y-44372390D01*
X72455693Y-102487600D02*
X71769979Y-103516171D01*
X73179503Y-103249504D02*
X73141407Y-103287600D01*
X73141407Y-103287600D02*
X73027122Y-103325695D01*
X73027122Y-103325695D02*
X72950931Y-103325695D01*
X72950931Y-103325695D02*
X72836645Y-103287600D01*
X72836645Y-103287600D02*
X72760455Y-103211409D01*
X72760455Y-103211409D02*
X72722360Y-103135219D01*
X72722360Y-103135219D02*
X72684264Y-102982838D01*
X72684264Y-102982838D02*
X72684264Y-102868552D01*
X72684264Y-102868552D02*
X72722360Y-102716171D01*
X72722360Y-102716171D02*
X72760455Y-102639980D01*
X72760455Y-102639980D02*
X72836645Y-102563790D01*
X72836645Y-102563790D02*
X72950931Y-102525695D01*
X72950931Y-102525695D02*
X73027122Y-102525695D01*
X73027122Y-102525695D02*
X73141407Y-102563790D01*
X73141407Y-102563790D02*
X73179503Y-102601885D01*
X73903312Y-103325695D02*
X73522360Y-103325695D01*
X73522360Y-103325695D02*
X73522360Y-102525695D01*
X74169979Y-103325695D02*
X74169979Y-102525695D01*
X74627122Y-103325695D02*
X74284264Y-102868552D01*
X74627122Y-102525695D02*
X74169979Y-102982838D01*
X75427122Y-103325695D02*
X75160455Y-102944742D01*
X74969979Y-103325695D02*
X74969979Y-102525695D01*
X74969979Y-102525695D02*
X75274741Y-102525695D01*
X75274741Y-102525695D02*
X75350931Y-102563790D01*
X75350931Y-102563790D02*
X75389026Y-102601885D01*
X75389026Y-102601885D02*
X75427122Y-102678076D01*
X75427122Y-102678076D02*
X75427122Y-102792361D01*
X75427122Y-102792361D02*
X75389026Y-102868552D01*
X75389026Y-102868552D02*
X75350931Y-102906647D01*
X75350931Y-102906647D02*
X75274741Y-102944742D01*
X75274741Y-102944742D02*
X74969979Y-102944742D01*
X75769979Y-102906647D02*
X76036645Y-102906647D01*
X76150931Y-103325695D02*
X75769979Y-103325695D01*
X75769979Y-103325695D02*
X75769979Y-102525695D01*
X75769979Y-102525695D02*
X76150931Y-102525695D01*
X77027122Y-103401885D02*
X76950932Y-103363790D01*
X76950932Y-103363790D02*
X76874741Y-103287600D01*
X76874741Y-103287600D02*
X76760455Y-103173314D01*
X76760455Y-103173314D02*
X76684265Y-103135219D01*
X76684265Y-103135219D02*
X76608074Y-103135219D01*
X76646170Y-103325695D02*
X76569979Y-103287600D01*
X76569979Y-103287600D02*
X76493789Y-103211409D01*
X76493789Y-103211409D02*
X76455693Y-103059028D01*
X76455693Y-103059028D02*
X76455693Y-102792361D01*
X76455693Y-102792361D02*
X76493789Y-102639980D01*
X76493789Y-102639980D02*
X76569979Y-102563790D01*
X76569979Y-102563790D02*
X76646170Y-102525695D01*
X76646170Y-102525695D02*
X76798551Y-102525695D01*
X76798551Y-102525695D02*
X76874741Y-102563790D01*
X76874741Y-102563790D02*
X76950932Y-102639980D01*
X76950932Y-102639980D02*
X76989027Y-102792361D01*
X76989027Y-102792361D02*
X76989027Y-103059028D01*
X76989027Y-103059028D02*
X76950932Y-103211409D01*
X76950932Y-103211409D02*
X76874741Y-103287600D01*
X76874741Y-103287600D02*
X76798551Y-103325695D01*
X76798551Y-103325695D02*
X76646170Y-103325695D01*
X102618265Y-82358095D02*
X102618265Y-83005714D01*
X102618265Y-83005714D02*
X102656360Y-83081904D01*
X102656360Y-83081904D02*
X102694455Y-83120000D01*
X102694455Y-83120000D02*
X102770646Y-83158095D01*
X102770646Y-83158095D02*
X102923027Y-83158095D01*
X102923027Y-83158095D02*
X102999217Y-83120000D01*
X102999217Y-83120000D02*
X103037312Y-83081904D01*
X103037312Y-83081904D02*
X103075408Y-83005714D01*
X103075408Y-83005714D02*
X103075408Y-82358095D01*
X103418264Y-83120000D02*
X103532550Y-83158095D01*
X103532550Y-83158095D02*
X103723026Y-83158095D01*
X103723026Y-83158095D02*
X103799217Y-83120000D01*
X103799217Y-83120000D02*
X103837312Y-83081904D01*
X103837312Y-83081904D02*
X103875407Y-83005714D01*
X103875407Y-83005714D02*
X103875407Y-82929523D01*
X103875407Y-82929523D02*
X103837312Y-82853333D01*
X103837312Y-82853333D02*
X103799217Y-82815238D01*
X103799217Y-82815238D02*
X103723026Y-82777142D01*
X103723026Y-82777142D02*
X103570645Y-82739047D01*
X103570645Y-82739047D02*
X103494455Y-82700952D01*
X103494455Y-82700952D02*
X103456360Y-82662857D01*
X103456360Y-82662857D02*
X103418264Y-82586666D01*
X103418264Y-82586666D02*
X103418264Y-82510476D01*
X103418264Y-82510476D02*
X103456360Y-82434285D01*
X103456360Y-82434285D02*
X103494455Y-82396190D01*
X103494455Y-82396190D02*
X103570645Y-82358095D01*
X103570645Y-82358095D02*
X103761122Y-82358095D01*
X103761122Y-82358095D02*
X103875407Y-82396190D01*
X104484931Y-82739047D02*
X104599217Y-82777142D01*
X104599217Y-82777142D02*
X104637312Y-82815238D01*
X104637312Y-82815238D02*
X104675408Y-82891428D01*
X104675408Y-82891428D02*
X104675408Y-83005714D01*
X104675408Y-83005714D02*
X104637312Y-83081904D01*
X104637312Y-83081904D02*
X104599217Y-83120000D01*
X104599217Y-83120000D02*
X104523027Y-83158095D01*
X104523027Y-83158095D02*
X104218265Y-83158095D01*
X104218265Y-83158095D02*
X104218265Y-82358095D01*
X104218265Y-82358095D02*
X104484931Y-82358095D01*
X104484931Y-82358095D02*
X104561122Y-82396190D01*
X104561122Y-82396190D02*
X104599217Y-82434285D01*
X104599217Y-82434285D02*
X104637312Y-82510476D01*
X104637312Y-82510476D02*
X104637312Y-82586666D01*
X104637312Y-82586666D02*
X104599217Y-82662857D01*
X104599217Y-82662857D02*
X104561122Y-82700952D01*
X104561122Y-82700952D02*
X104484931Y-82739047D01*
X104484931Y-82739047D02*
X104218265Y-82739047D01*
X104827789Y-83234285D02*
X105437312Y-83234285D01*
X105627789Y-83158095D02*
X105627789Y-82358095D01*
X105627789Y-82358095D02*
X105818265Y-82358095D01*
X105818265Y-82358095D02*
X105932551Y-82396190D01*
X105932551Y-82396190D02*
X106008741Y-82472380D01*
X106008741Y-82472380D02*
X106046836Y-82548571D01*
X106046836Y-82548571D02*
X106084932Y-82700952D01*
X106084932Y-82700952D02*
X106084932Y-82815238D01*
X106084932Y-82815238D02*
X106046836Y-82967619D01*
X106046836Y-82967619D02*
X106008741Y-83043809D01*
X106008741Y-83043809D02*
X105932551Y-83120000D01*
X105932551Y-83120000D02*
X105818265Y-83158095D01*
X105818265Y-83158095D02*
X105627789Y-83158095D01*
X106427789Y-82853333D02*
X107037313Y-82853333D01*
X104345465Y-75215340D02*
X104345465Y-74415340D01*
X104345465Y-74415340D02*
X104650227Y-74415340D01*
X104650227Y-74415340D02*
X104726417Y-74453435D01*
X104726417Y-74453435D02*
X104764512Y-74491530D01*
X104764512Y-74491530D02*
X104802608Y-74567721D01*
X104802608Y-74567721D02*
X104802608Y-74682006D01*
X104802608Y-74682006D02*
X104764512Y-74758197D01*
X104764512Y-74758197D02*
X104726417Y-74796292D01*
X104726417Y-74796292D02*
X104650227Y-74834387D01*
X104650227Y-74834387D02*
X104345465Y-74834387D01*
X105602608Y-75139149D02*
X105564512Y-75177245D01*
X105564512Y-75177245D02*
X105450227Y-75215340D01*
X105450227Y-75215340D02*
X105374036Y-75215340D01*
X105374036Y-75215340D02*
X105259750Y-75177245D01*
X105259750Y-75177245D02*
X105183560Y-75101054D01*
X105183560Y-75101054D02*
X105145465Y-75024864D01*
X105145465Y-75024864D02*
X105107369Y-74872483D01*
X105107369Y-74872483D02*
X105107369Y-74758197D01*
X105107369Y-74758197D02*
X105145465Y-74605816D01*
X105145465Y-74605816D02*
X105183560Y-74529625D01*
X105183560Y-74529625D02*
X105259750Y-74453435D01*
X105259750Y-74453435D02*
X105374036Y-74415340D01*
X105374036Y-74415340D02*
X105450227Y-74415340D01*
X105450227Y-74415340D02*
X105564512Y-74453435D01*
X105564512Y-74453435D02*
X105602608Y-74491530D01*
X105945465Y-75215340D02*
X105945465Y-74415340D01*
X105945465Y-74415340D02*
X106212131Y-74986768D01*
X106212131Y-74986768D02*
X106478798Y-74415340D01*
X106478798Y-74415340D02*
X106478798Y-75215340D01*
X106669275Y-75291530D02*
X107278798Y-75291530D01*
X104345465Y-76503295D02*
X104345465Y-75703295D01*
X104345465Y-75703295D02*
X104535941Y-75703295D01*
X104535941Y-75703295D02*
X104650227Y-75741390D01*
X104650227Y-75741390D02*
X104726417Y-75817580D01*
X104726417Y-75817580D02*
X104764512Y-75893771D01*
X104764512Y-75893771D02*
X104802608Y-76046152D01*
X104802608Y-76046152D02*
X104802608Y-76160438D01*
X104802608Y-76160438D02*
X104764512Y-76312819D01*
X104764512Y-76312819D02*
X104726417Y-76389009D01*
X104726417Y-76389009D02*
X104650227Y-76465200D01*
X104650227Y-76465200D02*
X104535941Y-76503295D01*
X104535941Y-76503295D02*
X104345465Y-76503295D01*
X105145465Y-76503295D02*
X105145465Y-75703295D01*
X105983560Y-76503295D02*
X105716893Y-76122342D01*
X105526417Y-76503295D02*
X105526417Y-75703295D01*
X105526417Y-75703295D02*
X105831179Y-75703295D01*
X105831179Y-75703295D02*
X105907369Y-75741390D01*
X105907369Y-75741390D02*
X105945464Y-75779485D01*
X105945464Y-75779485D02*
X105983560Y-75855676D01*
X105983560Y-75855676D02*
X105983560Y-75969961D01*
X105983560Y-75969961D02*
X105945464Y-76046152D01*
X105945464Y-76046152D02*
X105907369Y-76084247D01*
X105907369Y-76084247D02*
X105831179Y-76122342D01*
X105831179Y-76122342D02*
X105526417Y-76122342D01*
X95760265Y-37343940D02*
X95760265Y-36543940D01*
X95760265Y-36543940D02*
X96026931Y-37115368D01*
X96026931Y-37115368D02*
X96293598Y-36543940D01*
X96293598Y-36543940D02*
X96293598Y-37343940D01*
X96788836Y-37343940D02*
X96712646Y-37305845D01*
X96712646Y-37305845D02*
X96674551Y-37267749D01*
X96674551Y-37267749D02*
X96636455Y-37191559D01*
X96636455Y-37191559D02*
X96636455Y-36962987D01*
X96636455Y-36962987D02*
X96674551Y-36886797D01*
X96674551Y-36886797D02*
X96712646Y-36848702D01*
X96712646Y-36848702D02*
X96788836Y-36810606D01*
X96788836Y-36810606D02*
X96903122Y-36810606D01*
X96903122Y-36810606D02*
X96979313Y-36848702D01*
X96979313Y-36848702D02*
X97017408Y-36886797D01*
X97017408Y-36886797D02*
X97055503Y-36962987D01*
X97055503Y-36962987D02*
X97055503Y-37191559D01*
X97055503Y-37191559D02*
X97017408Y-37267749D01*
X97017408Y-37267749D02*
X96979313Y-37305845D01*
X96979313Y-37305845D02*
X96903122Y-37343940D01*
X96903122Y-37343940D02*
X96788836Y-37343940D01*
X97741218Y-37343940D02*
X97741218Y-36543940D01*
X97741218Y-37305845D02*
X97665027Y-37343940D01*
X97665027Y-37343940D02*
X97512646Y-37343940D01*
X97512646Y-37343940D02*
X97436456Y-37305845D01*
X97436456Y-37305845D02*
X97398361Y-37267749D01*
X97398361Y-37267749D02*
X97360265Y-37191559D01*
X97360265Y-37191559D02*
X97360265Y-36962987D01*
X97360265Y-36962987D02*
X97398361Y-36886797D01*
X97398361Y-36886797D02*
X97436456Y-36848702D01*
X97436456Y-36848702D02*
X97512646Y-36810606D01*
X97512646Y-36810606D02*
X97665027Y-36810606D01*
X97665027Y-36810606D02*
X97741218Y-36848702D01*
X98465028Y-36810606D02*
X98465028Y-37343940D01*
X98122171Y-36810606D02*
X98122171Y-37229654D01*
X98122171Y-37229654D02*
X98160266Y-37305845D01*
X98160266Y-37305845D02*
X98236456Y-37343940D01*
X98236456Y-37343940D02*
X98350742Y-37343940D01*
X98350742Y-37343940D02*
X98426933Y-37305845D01*
X98426933Y-37305845D02*
X98465028Y-37267749D01*
X98960266Y-37343940D02*
X98884076Y-37305845D01*
X98884076Y-37305845D02*
X98845981Y-37229654D01*
X98845981Y-37229654D02*
X98845981Y-36543940D01*
X99569791Y-37305845D02*
X99493600Y-37343940D01*
X99493600Y-37343940D02*
X99341219Y-37343940D01*
X99341219Y-37343940D02*
X99265029Y-37305845D01*
X99265029Y-37305845D02*
X99226933Y-37229654D01*
X99226933Y-37229654D02*
X99226933Y-36924892D01*
X99226933Y-36924892D02*
X99265029Y-36848702D01*
X99265029Y-36848702D02*
X99341219Y-36810606D01*
X99341219Y-36810606D02*
X99493600Y-36810606D01*
X99493600Y-36810606D02*
X99569791Y-36848702D01*
X99569791Y-36848702D02*
X99607886Y-36924892D01*
X99607886Y-36924892D02*
X99607886Y-37001083D01*
X99607886Y-37001083D02*
X99226933Y-37077273D01*
X100560267Y-36924892D02*
X100826933Y-36924892D01*
X100941219Y-37343940D02*
X100560267Y-37343940D01*
X100560267Y-37343940D02*
X100560267Y-36543940D01*
X100560267Y-36543940D02*
X100941219Y-36543940D01*
X101284077Y-37343940D02*
X101284077Y-36543940D01*
X101284077Y-36543940D02*
X101741220Y-37343940D01*
X101741220Y-37343940D02*
X101741220Y-36543940D01*
X102731696Y-37343940D02*
X102731696Y-36543940D01*
X102731696Y-36543940D02*
X103036458Y-36543940D01*
X103036458Y-36543940D02*
X103112648Y-36582035D01*
X103112648Y-36582035D02*
X103150743Y-36620130D01*
X103150743Y-36620130D02*
X103188839Y-36696321D01*
X103188839Y-36696321D02*
X103188839Y-36810606D01*
X103188839Y-36810606D02*
X103150743Y-36886797D01*
X103150743Y-36886797D02*
X103112648Y-36924892D01*
X103112648Y-36924892D02*
X103036458Y-36962987D01*
X103036458Y-36962987D02*
X102731696Y-36962987D01*
X103645981Y-37343940D02*
X103569791Y-37305845D01*
X103569791Y-37305845D02*
X103531696Y-37267749D01*
X103531696Y-37267749D02*
X103493600Y-37191559D01*
X103493600Y-37191559D02*
X103493600Y-36962987D01*
X103493600Y-36962987D02*
X103531696Y-36886797D01*
X103531696Y-36886797D02*
X103569791Y-36848702D01*
X103569791Y-36848702D02*
X103645981Y-36810606D01*
X103645981Y-36810606D02*
X103760267Y-36810606D01*
X103760267Y-36810606D02*
X103836458Y-36848702D01*
X103836458Y-36848702D02*
X103874553Y-36886797D01*
X103874553Y-36886797D02*
X103912648Y-36962987D01*
X103912648Y-36962987D02*
X103912648Y-37191559D01*
X103912648Y-37191559D02*
X103874553Y-37267749D01*
X103874553Y-37267749D02*
X103836458Y-37305845D01*
X103836458Y-37305845D02*
X103760267Y-37343940D01*
X103760267Y-37343940D02*
X103645981Y-37343940D01*
X104179315Y-36810606D02*
X104331696Y-37343940D01*
X104331696Y-37343940D02*
X104484077Y-36962987D01*
X104484077Y-36962987D02*
X104636458Y-37343940D01*
X104636458Y-37343940D02*
X104788839Y-36810606D01*
X105398363Y-37305845D02*
X105322172Y-37343940D01*
X105322172Y-37343940D02*
X105169791Y-37343940D01*
X105169791Y-37343940D02*
X105093601Y-37305845D01*
X105093601Y-37305845D02*
X105055505Y-37229654D01*
X105055505Y-37229654D02*
X105055505Y-36924892D01*
X105055505Y-36924892D02*
X105093601Y-36848702D01*
X105093601Y-36848702D02*
X105169791Y-36810606D01*
X105169791Y-36810606D02*
X105322172Y-36810606D01*
X105322172Y-36810606D02*
X105398363Y-36848702D01*
X105398363Y-36848702D02*
X105436458Y-36924892D01*
X105436458Y-36924892D02*
X105436458Y-37001083D01*
X105436458Y-37001083D02*
X105055505Y-37077273D01*
X105779315Y-37343940D02*
X105779315Y-36810606D01*
X105779315Y-36962987D02*
X105817410Y-36886797D01*
X105817410Y-36886797D02*
X105855505Y-36848702D01*
X105855505Y-36848702D02*
X105931696Y-36810606D01*
X105931696Y-36810606D02*
X106007886Y-36810606D01*
X95988836Y-38936657D02*
X95950741Y-38898561D01*
X95950741Y-38898561D02*
X95874550Y-38784276D01*
X95874550Y-38784276D02*
X95836455Y-38708085D01*
X95836455Y-38708085D02*
X95798360Y-38593800D01*
X95798360Y-38593800D02*
X95760265Y-38403323D01*
X95760265Y-38403323D02*
X95760265Y-38250942D01*
X95760265Y-38250942D02*
X95798360Y-38060466D01*
X95798360Y-38060466D02*
X95836455Y-37946180D01*
X95836455Y-37946180D02*
X95874550Y-37869990D01*
X95874550Y-37869990D02*
X95950741Y-37755704D01*
X95950741Y-37755704D02*
X95988836Y-37717609D01*
X96255502Y-38403323D02*
X96636455Y-38403323D01*
X96179312Y-38631895D02*
X96445979Y-37831895D01*
X96445979Y-37831895D02*
X96712645Y-38631895D01*
X97322169Y-38593800D02*
X97245978Y-38631895D01*
X97245978Y-38631895D02*
X97093597Y-38631895D01*
X97093597Y-38631895D02*
X97017407Y-38593800D01*
X97017407Y-38593800D02*
X96979312Y-38555704D01*
X96979312Y-38555704D02*
X96941216Y-38479514D01*
X96941216Y-38479514D02*
X96941216Y-38250942D01*
X96941216Y-38250942D02*
X96979312Y-38174752D01*
X96979312Y-38174752D02*
X97017407Y-38136657D01*
X97017407Y-38136657D02*
X97093597Y-38098561D01*
X97093597Y-38098561D02*
X97245978Y-38098561D01*
X97245978Y-38098561D02*
X97322169Y-38136657D01*
X97550740Y-38098561D02*
X97855502Y-38098561D01*
X97665026Y-37831895D02*
X97665026Y-38517609D01*
X97665026Y-38517609D02*
X97703121Y-38593800D01*
X97703121Y-38593800D02*
X97779311Y-38631895D01*
X97779311Y-38631895D02*
X97855502Y-38631895D01*
X98122169Y-38631895D02*
X98122169Y-38098561D01*
X98122169Y-37831895D02*
X98084073Y-37869990D01*
X98084073Y-37869990D02*
X98122169Y-37908085D01*
X98122169Y-37908085D02*
X98160264Y-37869990D01*
X98160264Y-37869990D02*
X98122169Y-37831895D01*
X98122169Y-37831895D02*
X98122169Y-37908085D01*
X98426930Y-38098561D02*
X98617406Y-38631895D01*
X98617406Y-38631895D02*
X98807883Y-38098561D01*
X99417407Y-38593800D02*
X99341216Y-38631895D01*
X99341216Y-38631895D02*
X99188835Y-38631895D01*
X99188835Y-38631895D02*
X99112645Y-38593800D01*
X99112645Y-38593800D02*
X99074549Y-38517609D01*
X99074549Y-38517609D02*
X99074549Y-38212847D01*
X99074549Y-38212847D02*
X99112645Y-38136657D01*
X99112645Y-38136657D02*
X99188835Y-38098561D01*
X99188835Y-38098561D02*
X99341216Y-38098561D01*
X99341216Y-38098561D02*
X99417407Y-38136657D01*
X99417407Y-38136657D02*
X99455502Y-38212847D01*
X99455502Y-38212847D02*
X99455502Y-38289038D01*
X99455502Y-38289038D02*
X99074549Y-38365228D01*
X100407883Y-38631895D02*
X100407883Y-37831895D01*
X100407883Y-38212847D02*
X100865026Y-38212847D01*
X100865026Y-38631895D02*
X100865026Y-37831895D01*
X101245978Y-38631895D02*
X101245978Y-38098561D01*
X101245978Y-37831895D02*
X101207882Y-37869990D01*
X101207882Y-37869990D02*
X101245978Y-37908085D01*
X101245978Y-37908085D02*
X101284073Y-37869990D01*
X101284073Y-37869990D02*
X101245978Y-37831895D01*
X101245978Y-37831895D02*
X101245978Y-37908085D01*
X101969787Y-38098561D02*
X101969787Y-38746180D01*
X101969787Y-38746180D02*
X101931692Y-38822371D01*
X101931692Y-38822371D02*
X101893596Y-38860466D01*
X101893596Y-38860466D02*
X101817406Y-38898561D01*
X101817406Y-38898561D02*
X101703120Y-38898561D01*
X101703120Y-38898561D02*
X101626930Y-38860466D01*
X101969787Y-38593800D02*
X101893596Y-38631895D01*
X101893596Y-38631895D02*
X101741215Y-38631895D01*
X101741215Y-38631895D02*
X101665025Y-38593800D01*
X101665025Y-38593800D02*
X101626930Y-38555704D01*
X101626930Y-38555704D02*
X101588834Y-38479514D01*
X101588834Y-38479514D02*
X101588834Y-38250942D01*
X101588834Y-38250942D02*
X101626930Y-38174752D01*
X101626930Y-38174752D02*
X101665025Y-38136657D01*
X101665025Y-38136657D02*
X101741215Y-38098561D01*
X101741215Y-38098561D02*
X101893596Y-38098561D01*
X101893596Y-38098561D02*
X101969787Y-38136657D01*
X102350740Y-38631895D02*
X102350740Y-37831895D01*
X102693597Y-38631895D02*
X102693597Y-38212847D01*
X102693597Y-38212847D02*
X102655502Y-38136657D01*
X102655502Y-38136657D02*
X102579311Y-38098561D01*
X102579311Y-38098561D02*
X102465025Y-38098561D01*
X102465025Y-38098561D02*
X102388835Y-38136657D01*
X102388835Y-38136657D02*
X102350740Y-38174752D01*
X102998359Y-38936657D02*
X103036454Y-38898561D01*
X103036454Y-38898561D02*
X103112645Y-38784276D01*
X103112645Y-38784276D02*
X103150740Y-38708085D01*
X103150740Y-38708085D02*
X103188835Y-38593800D01*
X103188835Y-38593800D02*
X103226931Y-38403323D01*
X103226931Y-38403323D02*
X103226931Y-38250942D01*
X103226931Y-38250942D02*
X103188835Y-38060466D01*
X103188835Y-38060466D02*
X103150740Y-37946180D01*
X103150740Y-37946180D02*
X103112645Y-37869990D01*
X103112645Y-37869990D02*
X103036454Y-37755704D01*
X103036454Y-37755704D02*
X102998359Y-37717609D01*
X104002493Y-62025400D02*
X103316779Y-63053971D01*
X104192969Y-62063495D02*
X104383445Y-62863495D01*
X104383445Y-62863495D02*
X104535826Y-62292066D01*
X104535826Y-62292066D02*
X104688207Y-62863495D01*
X104688207Y-62863495D02*
X104878684Y-62063495D01*
X105145350Y-62634923D02*
X105526303Y-62634923D01*
X105069160Y-62863495D02*
X105335827Y-62063495D01*
X105335827Y-62063495D02*
X105602493Y-62863495D01*
X105869160Y-62863495D02*
X105869160Y-62063495D01*
X106326303Y-62863495D02*
X105983445Y-62406352D01*
X106326303Y-62063495D02*
X105869160Y-62520638D01*
X106669160Y-62444447D02*
X106935826Y-62444447D01*
X107050112Y-62863495D02*
X106669160Y-62863495D01*
X106669160Y-62863495D02*
X106669160Y-62063495D01*
X106669160Y-62063495D02*
X107050112Y-62063495D01*
X104853408Y-60171104D02*
X104815312Y-60209200D01*
X104815312Y-60209200D02*
X104701027Y-60247295D01*
X104701027Y-60247295D02*
X104624836Y-60247295D01*
X104624836Y-60247295D02*
X104510550Y-60209200D01*
X104510550Y-60209200D02*
X104434360Y-60133009D01*
X104434360Y-60133009D02*
X104396265Y-60056819D01*
X104396265Y-60056819D02*
X104358169Y-59904438D01*
X104358169Y-59904438D02*
X104358169Y-59790152D01*
X104358169Y-59790152D02*
X104396265Y-59637771D01*
X104396265Y-59637771D02*
X104434360Y-59561580D01*
X104434360Y-59561580D02*
X104510550Y-59485390D01*
X104510550Y-59485390D02*
X104624836Y-59447295D01*
X104624836Y-59447295D02*
X104701027Y-59447295D01*
X104701027Y-59447295D02*
X104815312Y-59485390D01*
X104815312Y-59485390D02*
X104853408Y-59523485D01*
X105196265Y-59447295D02*
X105196265Y-60094914D01*
X105196265Y-60094914D02*
X105234360Y-60171104D01*
X105234360Y-60171104D02*
X105272455Y-60209200D01*
X105272455Y-60209200D02*
X105348646Y-60247295D01*
X105348646Y-60247295D02*
X105501027Y-60247295D01*
X105501027Y-60247295D02*
X105577217Y-60209200D01*
X105577217Y-60209200D02*
X105615312Y-60171104D01*
X105615312Y-60171104D02*
X105653408Y-60094914D01*
X105653408Y-60094914D02*
X105653408Y-59447295D01*
X105920074Y-59447295D02*
X106377217Y-59447295D01*
X106148645Y-60247295D02*
X106148645Y-59447295D01*
X106567693Y-59447295D02*
X107101027Y-60247295D01*
X107101027Y-59447295D02*
X106567693Y-60247295D01*
X102542065Y-84948895D02*
X102542065Y-85596514D01*
X102542065Y-85596514D02*
X102580160Y-85672704D01*
X102580160Y-85672704D02*
X102618255Y-85710800D01*
X102618255Y-85710800D02*
X102694446Y-85748895D01*
X102694446Y-85748895D02*
X102846827Y-85748895D01*
X102846827Y-85748895D02*
X102923017Y-85710800D01*
X102923017Y-85710800D02*
X102961112Y-85672704D01*
X102961112Y-85672704D02*
X102999208Y-85596514D01*
X102999208Y-85596514D02*
X102999208Y-84948895D01*
X103342064Y-85710800D02*
X103456350Y-85748895D01*
X103456350Y-85748895D02*
X103646826Y-85748895D01*
X103646826Y-85748895D02*
X103723017Y-85710800D01*
X103723017Y-85710800D02*
X103761112Y-85672704D01*
X103761112Y-85672704D02*
X103799207Y-85596514D01*
X103799207Y-85596514D02*
X103799207Y-85520323D01*
X103799207Y-85520323D02*
X103761112Y-85444133D01*
X103761112Y-85444133D02*
X103723017Y-85406038D01*
X103723017Y-85406038D02*
X103646826Y-85367942D01*
X103646826Y-85367942D02*
X103494445Y-85329847D01*
X103494445Y-85329847D02*
X103418255Y-85291752D01*
X103418255Y-85291752D02*
X103380160Y-85253657D01*
X103380160Y-85253657D02*
X103342064Y-85177466D01*
X103342064Y-85177466D02*
X103342064Y-85101276D01*
X103342064Y-85101276D02*
X103380160Y-85025085D01*
X103380160Y-85025085D02*
X103418255Y-84986990D01*
X103418255Y-84986990D02*
X103494445Y-84948895D01*
X103494445Y-84948895D02*
X103684922Y-84948895D01*
X103684922Y-84948895D02*
X103799207Y-84986990D01*
X104408731Y-85329847D02*
X104523017Y-85367942D01*
X104523017Y-85367942D02*
X104561112Y-85406038D01*
X104561112Y-85406038D02*
X104599208Y-85482228D01*
X104599208Y-85482228D02*
X104599208Y-85596514D01*
X104599208Y-85596514D02*
X104561112Y-85672704D01*
X104561112Y-85672704D02*
X104523017Y-85710800D01*
X104523017Y-85710800D02*
X104446827Y-85748895D01*
X104446827Y-85748895D02*
X104142065Y-85748895D01*
X104142065Y-85748895D02*
X104142065Y-84948895D01*
X104142065Y-84948895D02*
X104408731Y-84948895D01*
X104408731Y-84948895D02*
X104484922Y-84986990D01*
X104484922Y-84986990D02*
X104523017Y-85025085D01*
X104523017Y-85025085D02*
X104561112Y-85101276D01*
X104561112Y-85101276D02*
X104561112Y-85177466D01*
X104561112Y-85177466D02*
X104523017Y-85253657D01*
X104523017Y-85253657D02*
X104484922Y-85291752D01*
X104484922Y-85291752D02*
X104408731Y-85329847D01*
X104408731Y-85329847D02*
X104142065Y-85329847D01*
X104751589Y-85825085D02*
X105361112Y-85825085D01*
X105551589Y-85748895D02*
X105551589Y-84948895D01*
X105551589Y-84948895D02*
X105742065Y-84948895D01*
X105742065Y-84948895D02*
X105856351Y-84986990D01*
X105856351Y-84986990D02*
X105932541Y-85063180D01*
X105932541Y-85063180D02*
X105970636Y-85139371D01*
X105970636Y-85139371D02*
X106008732Y-85291752D01*
X106008732Y-85291752D02*
X106008732Y-85406038D01*
X106008732Y-85406038D02*
X105970636Y-85558419D01*
X105970636Y-85558419D02*
X105932541Y-85634609D01*
X105932541Y-85634609D02*
X105856351Y-85710800D01*
X105856351Y-85710800D02*
X105742065Y-85748895D01*
X105742065Y-85748895D02*
X105551589Y-85748895D01*
X106351589Y-85444133D02*
X106961113Y-85444133D01*
X106656351Y-85748895D02*
X106656351Y-85139371D01*
X102008665Y-70407295D02*
X102008665Y-69607295D01*
X102008665Y-69607295D02*
X102313427Y-69607295D01*
X102313427Y-69607295D02*
X102389617Y-69645390D01*
X102389617Y-69645390D02*
X102427712Y-69683485D01*
X102427712Y-69683485D02*
X102465808Y-69759676D01*
X102465808Y-69759676D02*
X102465808Y-69873961D01*
X102465808Y-69873961D02*
X102427712Y-69950152D01*
X102427712Y-69950152D02*
X102389617Y-69988247D01*
X102389617Y-69988247D02*
X102313427Y-70026342D01*
X102313427Y-70026342D02*
X102008665Y-70026342D01*
X103265808Y-70331104D02*
X103227712Y-70369200D01*
X103227712Y-70369200D02*
X103113427Y-70407295D01*
X103113427Y-70407295D02*
X103037236Y-70407295D01*
X103037236Y-70407295D02*
X102922950Y-70369200D01*
X102922950Y-70369200D02*
X102846760Y-70293009D01*
X102846760Y-70293009D02*
X102808665Y-70216819D01*
X102808665Y-70216819D02*
X102770569Y-70064438D01*
X102770569Y-70064438D02*
X102770569Y-69950152D01*
X102770569Y-69950152D02*
X102808665Y-69797771D01*
X102808665Y-69797771D02*
X102846760Y-69721580D01*
X102846760Y-69721580D02*
X102922950Y-69645390D01*
X102922950Y-69645390D02*
X103037236Y-69607295D01*
X103037236Y-69607295D02*
X103113427Y-69607295D01*
X103113427Y-69607295D02*
X103227712Y-69645390D01*
X103227712Y-69645390D02*
X103265808Y-69683485D01*
X103608665Y-70407295D02*
X103608665Y-69607295D01*
X103608665Y-69607295D02*
X103875331Y-70178723D01*
X103875331Y-70178723D02*
X104141998Y-69607295D01*
X104141998Y-69607295D02*
X104141998Y-70407295D01*
X104332475Y-70483485D02*
X104941998Y-70483485D01*
X105589618Y-70331104D02*
X105551522Y-70369200D01*
X105551522Y-70369200D02*
X105437237Y-70407295D01*
X105437237Y-70407295D02*
X105361046Y-70407295D01*
X105361046Y-70407295D02*
X105246760Y-70369200D01*
X105246760Y-70369200D02*
X105170570Y-70293009D01*
X105170570Y-70293009D02*
X105132475Y-70216819D01*
X105132475Y-70216819D02*
X105094379Y-70064438D01*
X105094379Y-70064438D02*
X105094379Y-69950152D01*
X105094379Y-69950152D02*
X105132475Y-69797771D01*
X105132475Y-69797771D02*
X105170570Y-69721580D01*
X105170570Y-69721580D02*
X105246760Y-69645390D01*
X105246760Y-69645390D02*
X105361046Y-69607295D01*
X105361046Y-69607295D02*
X105437237Y-69607295D01*
X105437237Y-69607295D02*
X105551522Y-69645390D01*
X105551522Y-69645390D02*
X105589618Y-69683485D01*
X106313427Y-70407295D02*
X105932475Y-70407295D01*
X105932475Y-70407295D02*
X105932475Y-69607295D01*
X106580094Y-70407295D02*
X106580094Y-69607295D01*
X107037237Y-70407295D02*
X106694379Y-69950152D01*
X107037237Y-69607295D02*
X106580094Y-70064438D01*
X103659665Y-103478095D02*
X103659665Y-102678095D01*
X103659665Y-102678095D02*
X103964427Y-102678095D01*
X103964427Y-102678095D02*
X104040617Y-102716190D01*
X104040617Y-102716190D02*
X104078712Y-102754285D01*
X104078712Y-102754285D02*
X104116808Y-102830476D01*
X104116808Y-102830476D02*
X104116808Y-102944761D01*
X104116808Y-102944761D02*
X104078712Y-103020952D01*
X104078712Y-103020952D02*
X104040617Y-103059047D01*
X104040617Y-103059047D02*
X103964427Y-103097142D01*
X103964427Y-103097142D02*
X103659665Y-103097142D01*
X104459665Y-103059047D02*
X104726331Y-103059047D01*
X104840617Y-103478095D02*
X104459665Y-103478095D01*
X104459665Y-103478095D02*
X104459665Y-102678095D01*
X104459665Y-102678095D02*
X104840617Y-102678095D01*
X105640618Y-103478095D02*
X105373951Y-103097142D01*
X105183475Y-103478095D02*
X105183475Y-102678095D01*
X105183475Y-102678095D02*
X105488237Y-102678095D01*
X105488237Y-102678095D02*
X105564427Y-102716190D01*
X105564427Y-102716190D02*
X105602522Y-102754285D01*
X105602522Y-102754285D02*
X105640618Y-102830476D01*
X105640618Y-102830476D02*
X105640618Y-102944761D01*
X105640618Y-102944761D02*
X105602522Y-103020952D01*
X105602522Y-103020952D02*
X105564427Y-103059047D01*
X105564427Y-103059047D02*
X105488237Y-103097142D01*
X105488237Y-103097142D02*
X105183475Y-103097142D01*
X105983475Y-102944761D02*
X105983475Y-103744761D01*
X105983475Y-102982857D02*
X106059665Y-102944761D01*
X106059665Y-102944761D02*
X106212046Y-102944761D01*
X106212046Y-102944761D02*
X106288237Y-102982857D01*
X106288237Y-102982857D02*
X106326332Y-103020952D01*
X106326332Y-103020952D02*
X106364427Y-103097142D01*
X106364427Y-103097142D02*
X106364427Y-103325714D01*
X106364427Y-103325714D02*
X106326332Y-103401904D01*
X106326332Y-103401904D02*
X106288237Y-103440000D01*
X106288237Y-103440000D02*
X106212046Y-103478095D01*
X106212046Y-103478095D02*
X106059665Y-103478095D01*
X106059665Y-103478095D02*
X105983475Y-103440000D01*
X106859666Y-102678095D02*
X106935856Y-102678095D01*
X106935856Y-102678095D02*
X107012047Y-102716190D01*
X107012047Y-102716190D02*
X107050142Y-102754285D01*
X107050142Y-102754285D02*
X107088237Y-102830476D01*
X107088237Y-102830476D02*
X107126332Y-102982857D01*
X107126332Y-102982857D02*
X107126332Y-103173333D01*
X107126332Y-103173333D02*
X107088237Y-103325714D01*
X107088237Y-103325714D02*
X107050142Y-103401904D01*
X107050142Y-103401904D02*
X107012047Y-103440000D01*
X107012047Y-103440000D02*
X106935856Y-103478095D01*
X106935856Y-103478095D02*
X106859666Y-103478095D01*
X106859666Y-103478095D02*
X106783475Y-103440000D01*
X106783475Y-103440000D02*
X106745380Y-103401904D01*
X106745380Y-103401904D02*
X106707285Y-103325714D01*
X106707285Y-103325714D02*
X106669189Y-103173333D01*
X106669189Y-103173333D02*
X106669189Y-102982857D01*
X106669189Y-102982857D02*
X106707285Y-102830476D01*
X106707285Y-102830476D02*
X106745380Y-102754285D01*
X106745380Y-102754285D02*
X106783475Y-102716190D01*
X106783475Y-102716190D02*
X106859666Y-102678095D01*
X103545293Y-54507000D02*
X102859579Y-55535571D01*
X104269103Y-55345095D02*
X104002436Y-54964142D01*
X103811960Y-55345095D02*
X103811960Y-54545095D01*
X103811960Y-54545095D02*
X104116722Y-54545095D01*
X104116722Y-54545095D02*
X104192912Y-54583190D01*
X104192912Y-54583190D02*
X104231007Y-54621285D01*
X104231007Y-54621285D02*
X104269103Y-54697476D01*
X104269103Y-54697476D02*
X104269103Y-54811761D01*
X104269103Y-54811761D02*
X104231007Y-54887952D01*
X104231007Y-54887952D02*
X104192912Y-54926047D01*
X104192912Y-54926047D02*
X104116722Y-54964142D01*
X104116722Y-54964142D02*
X103811960Y-54964142D01*
X104611960Y-54926047D02*
X104878626Y-54926047D01*
X104992912Y-55345095D02*
X104611960Y-55345095D01*
X104611960Y-55345095D02*
X104611960Y-54545095D01*
X104611960Y-54545095D02*
X104992912Y-54545095D01*
X105297674Y-55307000D02*
X105411960Y-55345095D01*
X105411960Y-55345095D02*
X105602436Y-55345095D01*
X105602436Y-55345095D02*
X105678627Y-55307000D01*
X105678627Y-55307000D02*
X105716722Y-55268904D01*
X105716722Y-55268904D02*
X105754817Y-55192714D01*
X105754817Y-55192714D02*
X105754817Y-55116523D01*
X105754817Y-55116523D02*
X105716722Y-55040333D01*
X105716722Y-55040333D02*
X105678627Y-55002238D01*
X105678627Y-55002238D02*
X105602436Y-54964142D01*
X105602436Y-54964142D02*
X105450055Y-54926047D01*
X105450055Y-54926047D02*
X105373865Y-54887952D01*
X105373865Y-54887952D02*
X105335770Y-54849857D01*
X105335770Y-54849857D02*
X105297674Y-54773666D01*
X105297674Y-54773666D02*
X105297674Y-54697476D01*
X105297674Y-54697476D02*
X105335770Y-54621285D01*
X105335770Y-54621285D02*
X105373865Y-54583190D01*
X105373865Y-54583190D02*
X105450055Y-54545095D01*
X105450055Y-54545095D02*
X105640532Y-54545095D01*
X105640532Y-54545095D02*
X105754817Y-54583190D01*
X106097675Y-54926047D02*
X106364341Y-54926047D01*
X106478627Y-55345095D02*
X106097675Y-55345095D01*
X106097675Y-55345095D02*
X106097675Y-54545095D01*
X106097675Y-54545095D02*
X106478627Y-54545095D01*
X106707199Y-54545095D02*
X107164342Y-54545095D01*
X106935770Y-55345095D02*
X106935770Y-54545095D01*
X71096865Y-91788940D02*
X71096865Y-92436559D01*
X71096865Y-92436559D02*
X71134960Y-92512749D01*
X71134960Y-92512749D02*
X71173055Y-92550845D01*
X71173055Y-92550845D02*
X71249246Y-92588940D01*
X71249246Y-92588940D02*
X71401627Y-92588940D01*
X71401627Y-92588940D02*
X71477817Y-92550845D01*
X71477817Y-92550845D02*
X71515912Y-92512749D01*
X71515912Y-92512749D02*
X71554008Y-92436559D01*
X71554008Y-92436559D02*
X71554008Y-91788940D01*
X71896864Y-92550845D02*
X72011150Y-92588940D01*
X72011150Y-92588940D02*
X72201626Y-92588940D01*
X72201626Y-92588940D02*
X72277817Y-92550845D01*
X72277817Y-92550845D02*
X72315912Y-92512749D01*
X72315912Y-92512749D02*
X72354007Y-92436559D01*
X72354007Y-92436559D02*
X72354007Y-92360368D01*
X72354007Y-92360368D02*
X72315912Y-92284178D01*
X72315912Y-92284178D02*
X72277817Y-92246083D01*
X72277817Y-92246083D02*
X72201626Y-92207987D01*
X72201626Y-92207987D02*
X72049245Y-92169892D01*
X72049245Y-92169892D02*
X71973055Y-92131797D01*
X71973055Y-92131797D02*
X71934960Y-92093702D01*
X71934960Y-92093702D02*
X71896864Y-92017511D01*
X71896864Y-92017511D02*
X71896864Y-91941321D01*
X71896864Y-91941321D02*
X71934960Y-91865130D01*
X71934960Y-91865130D02*
X71973055Y-91827035D01*
X71973055Y-91827035D02*
X72049245Y-91788940D01*
X72049245Y-91788940D02*
X72239722Y-91788940D01*
X72239722Y-91788940D02*
X72354007Y-91827035D01*
X72696865Y-92588940D02*
X72696865Y-91788940D01*
X73077817Y-92588940D02*
X73077817Y-91788940D01*
X73077817Y-91788940D02*
X73344483Y-92360368D01*
X73344483Y-92360368D02*
X73611150Y-91788940D01*
X73611150Y-91788940D02*
X73611150Y-92588940D01*
X71096865Y-93876895D02*
X71096865Y-93076895D01*
X71096865Y-93076895D02*
X71287341Y-93076895D01*
X71287341Y-93076895D02*
X71401627Y-93114990D01*
X71401627Y-93114990D02*
X71477817Y-93191180D01*
X71477817Y-93191180D02*
X71515912Y-93267371D01*
X71515912Y-93267371D02*
X71554008Y-93419752D01*
X71554008Y-93419752D02*
X71554008Y-93534038D01*
X71554008Y-93534038D02*
X71515912Y-93686419D01*
X71515912Y-93686419D02*
X71477817Y-93762609D01*
X71477817Y-93762609D02*
X71401627Y-93838800D01*
X71401627Y-93838800D02*
X71287341Y-93876895D01*
X71287341Y-93876895D02*
X71096865Y-93876895D01*
X71858769Y-93648323D02*
X72239722Y-93648323D01*
X71782579Y-93876895D02*
X72049246Y-93076895D01*
X72049246Y-93076895D02*
X72315912Y-93876895D01*
X72468293Y-93076895D02*
X72925436Y-93076895D01*
X72696864Y-93876895D02*
X72696864Y-93076895D01*
X73154007Y-93648323D02*
X73534960Y-93648323D01*
X73077817Y-93876895D02*
X73344484Y-93076895D01*
X73344484Y-93076895D02*
X73611150Y-93876895D01*
X105831379Y-57085095D02*
X106288522Y-57085095D01*
X106059950Y-57885095D02*
X106059950Y-57085095D01*
X106478998Y-57085095D02*
X107012332Y-57885095D01*
X107012332Y-57085095D02*
X106478998Y-57885095D01*
X105158265Y-105891095D02*
X105158265Y-105091095D01*
X105158265Y-105091095D02*
X105463027Y-105091095D01*
X105463027Y-105091095D02*
X105539217Y-105129190D01*
X105539217Y-105129190D02*
X105577312Y-105167285D01*
X105577312Y-105167285D02*
X105615408Y-105243476D01*
X105615408Y-105243476D02*
X105615408Y-105357761D01*
X105615408Y-105357761D02*
X105577312Y-105433952D01*
X105577312Y-105433952D02*
X105539217Y-105472047D01*
X105539217Y-105472047D02*
X105463027Y-105510142D01*
X105463027Y-105510142D02*
X105158265Y-105510142D01*
X106377312Y-105891095D02*
X105920169Y-105891095D01*
X106148741Y-105891095D02*
X106148741Y-105091095D01*
X106148741Y-105091095D02*
X106072550Y-105205380D01*
X106072550Y-105205380D02*
X105996360Y-105281571D01*
X105996360Y-105281571D02*
X105920169Y-105319666D01*
X106758265Y-105891095D02*
X106910646Y-105891095D01*
X106910646Y-105891095D02*
X106986836Y-105853000D01*
X106986836Y-105853000D02*
X107024932Y-105814904D01*
X107024932Y-105814904D02*
X107101122Y-105700619D01*
X107101122Y-105700619D02*
X107139217Y-105548238D01*
X107139217Y-105548238D02*
X107139217Y-105243476D01*
X107139217Y-105243476D02*
X107101122Y-105167285D01*
X107101122Y-105167285D02*
X107063027Y-105129190D01*
X107063027Y-105129190D02*
X106986836Y-105091095D01*
X106986836Y-105091095D02*
X106834455Y-105091095D01*
X106834455Y-105091095D02*
X106758265Y-105129190D01*
X106758265Y-105129190D02*
X106720170Y-105167285D01*
X106720170Y-105167285D02*
X106682074Y-105243476D01*
X106682074Y-105243476D02*
X106682074Y-105433952D01*
X106682074Y-105433952D02*
X106720170Y-105510142D01*
X106720170Y-105510142D02*
X106758265Y-105548238D01*
X106758265Y-105548238D02*
X106834455Y-105586333D01*
X106834455Y-105586333D02*
X106986836Y-105586333D01*
X106986836Y-105586333D02*
X107063027Y-105548238D01*
X107063027Y-105548238D02*
X107101122Y-105510142D01*
X107101122Y-105510142D02*
X107139217Y-105433952D01*
X103621493Y-49401600D02*
X102935779Y-50430171D01*
X103850064Y-50201600D02*
X103964350Y-50239695D01*
X103964350Y-50239695D02*
X104154826Y-50239695D01*
X104154826Y-50239695D02*
X104231017Y-50201600D01*
X104231017Y-50201600D02*
X104269112Y-50163504D01*
X104269112Y-50163504D02*
X104307207Y-50087314D01*
X104307207Y-50087314D02*
X104307207Y-50011123D01*
X104307207Y-50011123D02*
X104269112Y-49934933D01*
X104269112Y-49934933D02*
X104231017Y-49896838D01*
X104231017Y-49896838D02*
X104154826Y-49858742D01*
X104154826Y-49858742D02*
X104002445Y-49820647D01*
X104002445Y-49820647D02*
X103926255Y-49782552D01*
X103926255Y-49782552D02*
X103888160Y-49744457D01*
X103888160Y-49744457D02*
X103850064Y-49668266D01*
X103850064Y-49668266D02*
X103850064Y-49592076D01*
X103850064Y-49592076D02*
X103888160Y-49515885D01*
X103888160Y-49515885D02*
X103926255Y-49477790D01*
X103926255Y-49477790D02*
X104002445Y-49439695D01*
X104002445Y-49439695D02*
X104192922Y-49439695D01*
X104192922Y-49439695D02*
X104307207Y-49477790D01*
X105031017Y-50239695D02*
X104650065Y-50239695D01*
X104650065Y-50239695D02*
X104650065Y-49439695D01*
X105297684Y-49820647D02*
X105564350Y-49820647D01*
X105678636Y-50239695D02*
X105297684Y-50239695D01*
X105297684Y-50239695D02*
X105297684Y-49439695D01*
X105297684Y-49439695D02*
X105678636Y-49439695D01*
X106021494Y-49820647D02*
X106288160Y-49820647D01*
X106402446Y-50239695D02*
X106021494Y-50239695D01*
X106021494Y-50239695D02*
X106021494Y-49439695D01*
X106021494Y-49439695D02*
X106402446Y-49439695D01*
X106745304Y-50239695D02*
X106745304Y-49439695D01*
X106745304Y-49439695D02*
X107050066Y-49439695D01*
X107050066Y-49439695D02*
X107126256Y-49477790D01*
X107126256Y-49477790D02*
X107164351Y-49515885D01*
X107164351Y-49515885D02*
X107202447Y-49592076D01*
X107202447Y-49592076D02*
X107202447Y-49706361D01*
X107202447Y-49706361D02*
X107164351Y-49782552D01*
X107164351Y-49782552D02*
X107126256Y-49820647D01*
X107126256Y-49820647D02*
X107050066Y-49858742D01*
X107050066Y-49858742D02*
X106745304Y-49858742D01*
X105463065Y-97745140D02*
X105463065Y-96945140D01*
X105805921Y-97021330D02*
X105844017Y-96983235D01*
X105844017Y-96983235D02*
X105920207Y-96945140D01*
X105920207Y-96945140D02*
X106110683Y-96945140D01*
X106110683Y-96945140D02*
X106186874Y-96983235D01*
X106186874Y-96983235D02*
X106224969Y-97021330D01*
X106224969Y-97021330D02*
X106263064Y-97097521D01*
X106263064Y-97097521D02*
X106263064Y-97173711D01*
X106263064Y-97173711D02*
X106224969Y-97287997D01*
X106224969Y-97287997D02*
X105767826Y-97745140D01*
X105767826Y-97745140D02*
X106263064Y-97745140D01*
X107063065Y-97668949D02*
X107024969Y-97707045D01*
X107024969Y-97707045D02*
X106910684Y-97745140D01*
X106910684Y-97745140D02*
X106834493Y-97745140D01*
X106834493Y-97745140D02*
X106720207Y-97707045D01*
X106720207Y-97707045D02*
X106644017Y-97630854D01*
X106644017Y-97630854D02*
X106605922Y-97554664D01*
X106605922Y-97554664D02*
X106567826Y-97402283D01*
X106567826Y-97402283D02*
X106567826Y-97287997D01*
X106567826Y-97287997D02*
X106605922Y-97135616D01*
X106605922Y-97135616D02*
X106644017Y-97059425D01*
X106644017Y-97059425D02*
X106720207Y-96983235D01*
X106720207Y-96983235D02*
X106834493Y-96945140D01*
X106834493Y-96945140D02*
X106910684Y-96945140D01*
X106910684Y-96945140D02*
X107024969Y-96983235D01*
X107024969Y-96983235D02*
X107063065Y-97021330D01*
X105424969Y-98995000D02*
X105539255Y-99033095D01*
X105539255Y-99033095D02*
X105729731Y-99033095D01*
X105729731Y-99033095D02*
X105805922Y-98995000D01*
X105805922Y-98995000D02*
X105844017Y-98956904D01*
X105844017Y-98956904D02*
X105882112Y-98880714D01*
X105882112Y-98880714D02*
X105882112Y-98804523D01*
X105882112Y-98804523D02*
X105844017Y-98728333D01*
X105844017Y-98728333D02*
X105805922Y-98690238D01*
X105805922Y-98690238D02*
X105729731Y-98652142D01*
X105729731Y-98652142D02*
X105577350Y-98614047D01*
X105577350Y-98614047D02*
X105501160Y-98575952D01*
X105501160Y-98575952D02*
X105463065Y-98537857D01*
X105463065Y-98537857D02*
X105424969Y-98461666D01*
X105424969Y-98461666D02*
X105424969Y-98385476D01*
X105424969Y-98385476D02*
X105463065Y-98309285D01*
X105463065Y-98309285D02*
X105501160Y-98271190D01*
X105501160Y-98271190D02*
X105577350Y-98233095D01*
X105577350Y-98233095D02*
X105767827Y-98233095D01*
X105767827Y-98233095D02*
X105882112Y-98271190D01*
X106682113Y-98956904D02*
X106644017Y-98995000D01*
X106644017Y-98995000D02*
X106529732Y-99033095D01*
X106529732Y-99033095D02*
X106453541Y-99033095D01*
X106453541Y-99033095D02*
X106339255Y-98995000D01*
X106339255Y-98995000D02*
X106263065Y-98918809D01*
X106263065Y-98918809D02*
X106224970Y-98842619D01*
X106224970Y-98842619D02*
X106186874Y-98690238D01*
X106186874Y-98690238D02*
X106186874Y-98575952D01*
X106186874Y-98575952D02*
X106224970Y-98423571D01*
X106224970Y-98423571D02*
X106263065Y-98347380D01*
X106263065Y-98347380D02*
X106339255Y-98271190D01*
X106339255Y-98271190D02*
X106453541Y-98233095D01*
X106453541Y-98233095D02*
X106529732Y-98233095D01*
X106529732Y-98233095D02*
X106644017Y-98271190D01*
X106644017Y-98271190D02*
X106682113Y-98309285D01*
X107405922Y-99033095D02*
X107024970Y-99033095D01*
X107024970Y-99033095D02*
X107024970Y-98233095D01*
X104320065Y-72370540D02*
X104320065Y-71570540D01*
X104320065Y-71570540D02*
X104624827Y-71570540D01*
X104624827Y-71570540D02*
X104701017Y-71608635D01*
X104701017Y-71608635D02*
X104739112Y-71646730D01*
X104739112Y-71646730D02*
X104777208Y-71722921D01*
X104777208Y-71722921D02*
X104777208Y-71837206D01*
X104777208Y-71837206D02*
X104739112Y-71913397D01*
X104739112Y-71913397D02*
X104701017Y-71951492D01*
X104701017Y-71951492D02*
X104624827Y-71989587D01*
X104624827Y-71989587D02*
X104320065Y-71989587D01*
X105577208Y-72294349D02*
X105539112Y-72332445D01*
X105539112Y-72332445D02*
X105424827Y-72370540D01*
X105424827Y-72370540D02*
X105348636Y-72370540D01*
X105348636Y-72370540D02*
X105234350Y-72332445D01*
X105234350Y-72332445D02*
X105158160Y-72256254D01*
X105158160Y-72256254D02*
X105120065Y-72180064D01*
X105120065Y-72180064D02*
X105081969Y-72027683D01*
X105081969Y-72027683D02*
X105081969Y-71913397D01*
X105081969Y-71913397D02*
X105120065Y-71761016D01*
X105120065Y-71761016D02*
X105158160Y-71684825D01*
X105158160Y-71684825D02*
X105234350Y-71608635D01*
X105234350Y-71608635D02*
X105348636Y-71570540D01*
X105348636Y-71570540D02*
X105424827Y-71570540D01*
X105424827Y-71570540D02*
X105539112Y-71608635D01*
X105539112Y-71608635D02*
X105577208Y-71646730D01*
X105920065Y-72370540D02*
X105920065Y-71570540D01*
X105920065Y-71570540D02*
X106186731Y-72141968D01*
X106186731Y-72141968D02*
X106453398Y-71570540D01*
X106453398Y-71570540D02*
X106453398Y-72370540D01*
X106643875Y-72446730D02*
X107253398Y-72446730D01*
X104281969Y-73620400D02*
X104396255Y-73658495D01*
X104396255Y-73658495D02*
X104586731Y-73658495D01*
X104586731Y-73658495D02*
X104662922Y-73620400D01*
X104662922Y-73620400D02*
X104701017Y-73582304D01*
X104701017Y-73582304D02*
X104739112Y-73506114D01*
X104739112Y-73506114D02*
X104739112Y-73429923D01*
X104739112Y-73429923D02*
X104701017Y-73353733D01*
X104701017Y-73353733D02*
X104662922Y-73315638D01*
X104662922Y-73315638D02*
X104586731Y-73277542D01*
X104586731Y-73277542D02*
X104434350Y-73239447D01*
X104434350Y-73239447D02*
X104358160Y-73201352D01*
X104358160Y-73201352D02*
X104320065Y-73163257D01*
X104320065Y-73163257D02*
X104281969Y-73087066D01*
X104281969Y-73087066D02*
X104281969Y-73010876D01*
X104281969Y-73010876D02*
X104320065Y-72934685D01*
X104320065Y-72934685D02*
X104358160Y-72896590D01*
X104358160Y-72896590D02*
X104434350Y-72858495D01*
X104434350Y-72858495D02*
X104624827Y-72858495D01*
X104624827Y-72858495D02*
X104739112Y-72896590D01*
X105234351Y-73277542D02*
X105234351Y-73658495D01*
X104967684Y-72858495D02*
X105234351Y-73277542D01*
X105234351Y-73277542D02*
X105501017Y-72858495D01*
X105767684Y-73658495D02*
X105767684Y-72858495D01*
X105767684Y-72858495D02*
X106224827Y-73658495D01*
X106224827Y-73658495D02*
X106224827Y-72858495D01*
X107062922Y-73582304D02*
X107024826Y-73620400D01*
X107024826Y-73620400D02*
X106910541Y-73658495D01*
X106910541Y-73658495D02*
X106834350Y-73658495D01*
X106834350Y-73658495D02*
X106720064Y-73620400D01*
X106720064Y-73620400D02*
X106643874Y-73544209D01*
X106643874Y-73544209D02*
X106605779Y-73468019D01*
X106605779Y-73468019D02*
X106567683Y-73315638D01*
X106567683Y-73315638D02*
X106567683Y-73201352D01*
X106567683Y-73201352D02*
X106605779Y-73048971D01*
X106605779Y-73048971D02*
X106643874Y-72972780D01*
X106643874Y-72972780D02*
X106720064Y-72896590D01*
X106720064Y-72896590D02*
X106834350Y-72858495D01*
X106834350Y-72858495D02*
X106910541Y-72858495D01*
X106910541Y-72858495D02*
X107024826Y-72896590D01*
X107024826Y-72896590D02*
X107062922Y-72934685D01*
X70960940Y-99260934D02*
X71608559Y-99260934D01*
X71608559Y-99260934D02*
X71684749Y-99222839D01*
X71684749Y-99222839D02*
X71722845Y-99184744D01*
X71722845Y-99184744D02*
X71760940Y-99108553D01*
X71760940Y-99108553D02*
X71760940Y-98956172D01*
X71760940Y-98956172D02*
X71722845Y-98879982D01*
X71722845Y-98879982D02*
X71684749Y-98841887D01*
X71684749Y-98841887D02*
X71608559Y-98803791D01*
X71608559Y-98803791D02*
X70960940Y-98803791D01*
X71722845Y-98460935D02*
X71760940Y-98346649D01*
X71760940Y-98346649D02*
X71760940Y-98156173D01*
X71760940Y-98156173D02*
X71722845Y-98079982D01*
X71722845Y-98079982D02*
X71684749Y-98041887D01*
X71684749Y-98041887D02*
X71608559Y-98003792D01*
X71608559Y-98003792D02*
X71532368Y-98003792D01*
X71532368Y-98003792D02*
X71456178Y-98041887D01*
X71456178Y-98041887D02*
X71418083Y-98079982D01*
X71418083Y-98079982D02*
X71379987Y-98156173D01*
X71379987Y-98156173D02*
X71341892Y-98308554D01*
X71341892Y-98308554D02*
X71303797Y-98384744D01*
X71303797Y-98384744D02*
X71265702Y-98422839D01*
X71265702Y-98422839D02*
X71189511Y-98460935D01*
X71189511Y-98460935D02*
X71113321Y-98460935D01*
X71113321Y-98460935D02*
X71037130Y-98422839D01*
X71037130Y-98422839D02*
X70999035Y-98384744D01*
X70999035Y-98384744D02*
X70960940Y-98308554D01*
X70960940Y-98308554D02*
X70960940Y-98118077D01*
X70960940Y-98118077D02*
X70999035Y-98003792D01*
X71760940Y-97660934D02*
X70960940Y-97660934D01*
X71760940Y-97279982D02*
X70960940Y-97279982D01*
X70960940Y-97279982D02*
X71532368Y-97013316D01*
X71532368Y-97013316D02*
X70960940Y-96746649D01*
X70960940Y-96746649D02*
X71760940Y-96746649D01*
X72210800Y-98689506D02*
X73239371Y-99375220D01*
X73048895Y-97965696D02*
X72667942Y-98232363D01*
X73048895Y-98422839D02*
X72248895Y-98422839D01*
X72248895Y-98422839D02*
X72248895Y-98118077D01*
X72248895Y-98118077D02*
X72286990Y-98041887D01*
X72286990Y-98041887D02*
X72325085Y-98003792D01*
X72325085Y-98003792D02*
X72401276Y-97965696D01*
X72401276Y-97965696D02*
X72515561Y-97965696D01*
X72515561Y-97965696D02*
X72591752Y-98003792D01*
X72591752Y-98003792D02*
X72629847Y-98041887D01*
X72629847Y-98041887D02*
X72667942Y-98118077D01*
X72667942Y-98118077D02*
X72667942Y-98422839D01*
X73010800Y-97660935D02*
X73048895Y-97546649D01*
X73048895Y-97546649D02*
X73048895Y-97356173D01*
X73048895Y-97356173D02*
X73010800Y-97279982D01*
X73010800Y-97279982D02*
X72972704Y-97241887D01*
X72972704Y-97241887D02*
X72896514Y-97203792D01*
X72896514Y-97203792D02*
X72820323Y-97203792D01*
X72820323Y-97203792D02*
X72744133Y-97241887D01*
X72744133Y-97241887D02*
X72706038Y-97279982D01*
X72706038Y-97279982D02*
X72667942Y-97356173D01*
X72667942Y-97356173D02*
X72629847Y-97508554D01*
X72629847Y-97508554D02*
X72591752Y-97584744D01*
X72591752Y-97584744D02*
X72553657Y-97622839D01*
X72553657Y-97622839D02*
X72477466Y-97660935D01*
X72477466Y-97660935D02*
X72401276Y-97660935D01*
X72401276Y-97660935D02*
X72325085Y-97622839D01*
X72325085Y-97622839D02*
X72286990Y-97584744D01*
X72286990Y-97584744D02*
X72248895Y-97508554D01*
X72248895Y-97508554D02*
X72248895Y-97318077D01*
X72248895Y-97318077D02*
X72286990Y-97203792D01*
X72248895Y-96975220D02*
X72248895Y-96518077D01*
X73048895Y-96746649D02*
X72248895Y-96746649D01*
X71198465Y-99764540D02*
X71198465Y-100412159D01*
X71198465Y-100412159D02*
X71236560Y-100488349D01*
X71236560Y-100488349D02*
X71274655Y-100526445D01*
X71274655Y-100526445D02*
X71350846Y-100564540D01*
X71350846Y-100564540D02*
X71503227Y-100564540D01*
X71503227Y-100564540D02*
X71579417Y-100526445D01*
X71579417Y-100526445D02*
X71617512Y-100488349D01*
X71617512Y-100488349D02*
X71655608Y-100412159D01*
X71655608Y-100412159D02*
X71655608Y-99764540D01*
X71998464Y-100526445D02*
X72112750Y-100564540D01*
X72112750Y-100564540D02*
X72303226Y-100564540D01*
X72303226Y-100564540D02*
X72379417Y-100526445D01*
X72379417Y-100526445D02*
X72417512Y-100488349D01*
X72417512Y-100488349D02*
X72455607Y-100412159D01*
X72455607Y-100412159D02*
X72455607Y-100335968D01*
X72455607Y-100335968D02*
X72417512Y-100259778D01*
X72417512Y-100259778D02*
X72379417Y-100221683D01*
X72379417Y-100221683D02*
X72303226Y-100183587D01*
X72303226Y-100183587D02*
X72150845Y-100145492D01*
X72150845Y-100145492D02*
X72074655Y-100107397D01*
X72074655Y-100107397D02*
X72036560Y-100069302D01*
X72036560Y-100069302D02*
X71998464Y-99993111D01*
X71998464Y-99993111D02*
X71998464Y-99916921D01*
X71998464Y-99916921D02*
X72036560Y-99840730D01*
X72036560Y-99840730D02*
X72074655Y-99802635D01*
X72074655Y-99802635D02*
X72150845Y-99764540D01*
X72150845Y-99764540D02*
X72341322Y-99764540D01*
X72341322Y-99764540D02*
X72455607Y-99802635D01*
X72798465Y-100564540D02*
X72798465Y-99764540D01*
X73179417Y-100564540D02*
X73179417Y-99764540D01*
X73179417Y-99764540D02*
X73446083Y-100335968D01*
X73446083Y-100335968D02*
X73712750Y-99764540D01*
X73712750Y-99764540D02*
X73712750Y-100564540D01*
X71084179Y-101052495D02*
X71350846Y-101852495D01*
X71350846Y-101852495D02*
X71617512Y-101052495D01*
X71884179Y-101852495D02*
X71884179Y-101052495D01*
X71884179Y-101052495D02*
X72188941Y-101052495D01*
X72188941Y-101052495D02*
X72265131Y-101090590D01*
X72265131Y-101090590D02*
X72303226Y-101128685D01*
X72303226Y-101128685D02*
X72341322Y-101204876D01*
X72341322Y-101204876D02*
X72341322Y-101319161D01*
X72341322Y-101319161D02*
X72303226Y-101395352D01*
X72303226Y-101395352D02*
X72265131Y-101433447D01*
X72265131Y-101433447D02*
X72188941Y-101471542D01*
X72188941Y-101471542D02*
X71884179Y-101471542D01*
X72684179Y-101852495D02*
X72684179Y-101052495D01*
X72684179Y-101052495D02*
X72988941Y-101052495D01*
X72988941Y-101052495D02*
X73065131Y-101090590D01*
X73065131Y-101090590D02*
X73103226Y-101128685D01*
X73103226Y-101128685D02*
X73141322Y-101204876D01*
X73141322Y-101204876D02*
X73141322Y-101319161D01*
X73141322Y-101319161D02*
X73103226Y-101395352D01*
X73103226Y-101395352D02*
X73065131Y-101433447D01*
X73065131Y-101433447D02*
X72988941Y-101471542D01*
X72988941Y-101471542D02*
X72684179Y-101471542D01*
X105717065Y-78103495D02*
X105717065Y-77303495D01*
X105717065Y-77303495D02*
X106174208Y-78103495D01*
X106174208Y-78103495D02*
X106174208Y-77303495D01*
X107012303Y-78027304D02*
X106974207Y-78065400D01*
X106974207Y-78065400D02*
X106859922Y-78103495D01*
X106859922Y-78103495D02*
X106783731Y-78103495D01*
X106783731Y-78103495D02*
X106669445Y-78065400D01*
X106669445Y-78065400D02*
X106593255Y-77989209D01*
X106593255Y-77989209D02*
X106555160Y-77913019D01*
X106555160Y-77913019D02*
X106517064Y-77760638D01*
X106517064Y-77760638D02*
X106517064Y-77646352D01*
X106517064Y-77646352D02*
X106555160Y-77493971D01*
X106555160Y-77493971D02*
X106593255Y-77417780D01*
X106593255Y-77417780D02*
X106669445Y-77341590D01*
X106669445Y-77341590D02*
X106783731Y-77303495D01*
X106783731Y-77303495D02*
X106859922Y-77303495D01*
X106859922Y-77303495D02*
X106974207Y-77341590D01*
X106974207Y-77341590D02*
X107012303Y-77379685D01*
X98541493Y-64540000D02*
X97855779Y-65568571D01*
X99265303Y-65378095D02*
X98998636Y-64997142D01*
X98808160Y-65378095D02*
X98808160Y-64578095D01*
X98808160Y-64578095D02*
X99112922Y-64578095D01*
X99112922Y-64578095D02*
X99189112Y-64616190D01*
X99189112Y-64616190D02*
X99227207Y-64654285D01*
X99227207Y-64654285D02*
X99265303Y-64730476D01*
X99265303Y-64730476D02*
X99265303Y-64844761D01*
X99265303Y-64844761D02*
X99227207Y-64920952D01*
X99227207Y-64920952D02*
X99189112Y-64959047D01*
X99189112Y-64959047D02*
X99112922Y-64997142D01*
X99112922Y-64997142D02*
X98808160Y-64997142D01*
X99608160Y-65378095D02*
X99608160Y-64578095D01*
X99798636Y-65454285D02*
X100408159Y-65454285D01*
X100598636Y-65378095D02*
X100598636Y-64578095D01*
X100598636Y-64959047D02*
X101055779Y-64959047D01*
X101055779Y-65378095D02*
X101055779Y-64578095D01*
X101589112Y-64578095D02*
X101741493Y-64578095D01*
X101741493Y-64578095D02*
X101817683Y-64616190D01*
X101817683Y-64616190D02*
X101893874Y-64692380D01*
X101893874Y-64692380D02*
X101931969Y-64844761D01*
X101931969Y-64844761D02*
X101931969Y-65111428D01*
X101931969Y-65111428D02*
X101893874Y-65263809D01*
X101893874Y-65263809D02*
X101817683Y-65340000D01*
X101817683Y-65340000D02*
X101741493Y-65378095D01*
X101741493Y-65378095D02*
X101589112Y-65378095D01*
X101589112Y-65378095D02*
X101512921Y-65340000D01*
X101512921Y-65340000D02*
X101436731Y-65263809D01*
X101436731Y-65263809D02*
X101398635Y-65111428D01*
X101398635Y-65111428D02*
X101398635Y-64844761D01*
X101398635Y-64844761D02*
X101436731Y-64692380D01*
X101436731Y-64692380D02*
X101512921Y-64616190D01*
X101512921Y-64616190D02*
X101589112Y-64578095D01*
X102236730Y-65340000D02*
X102351016Y-65378095D01*
X102351016Y-65378095D02*
X102541492Y-65378095D01*
X102541492Y-65378095D02*
X102617683Y-65340000D01*
X102617683Y-65340000D02*
X102655778Y-65301904D01*
X102655778Y-65301904D02*
X102693873Y-65225714D01*
X102693873Y-65225714D02*
X102693873Y-65149523D01*
X102693873Y-65149523D02*
X102655778Y-65073333D01*
X102655778Y-65073333D02*
X102617683Y-65035238D01*
X102617683Y-65035238D02*
X102541492Y-64997142D01*
X102541492Y-64997142D02*
X102389111Y-64959047D01*
X102389111Y-64959047D02*
X102312921Y-64920952D01*
X102312921Y-64920952D02*
X102274826Y-64882857D01*
X102274826Y-64882857D02*
X102236730Y-64806666D01*
X102236730Y-64806666D02*
X102236730Y-64730476D01*
X102236730Y-64730476D02*
X102274826Y-64654285D01*
X102274826Y-64654285D02*
X102312921Y-64616190D01*
X102312921Y-64616190D02*
X102389111Y-64578095D01*
X102389111Y-64578095D02*
X102579588Y-64578095D01*
X102579588Y-64578095D02*
X102693873Y-64616190D01*
X102922445Y-64578095D02*
X103379588Y-64578095D01*
X103151016Y-65378095D02*
X103151016Y-64578095D01*
X103455779Y-65454285D02*
X104065302Y-65454285D01*
X104179588Y-64578095D02*
X104370064Y-65378095D01*
X104370064Y-65378095D02*
X104522445Y-64806666D01*
X104522445Y-64806666D02*
X104674826Y-65378095D01*
X104674826Y-65378095D02*
X104865303Y-64578095D01*
X105131969Y-65149523D02*
X105512922Y-65149523D01*
X105055779Y-65378095D02*
X105322446Y-64578095D01*
X105322446Y-64578095D02*
X105589112Y-65378095D01*
X105855779Y-65378095D02*
X105855779Y-64578095D01*
X106312922Y-65378095D02*
X105970064Y-64920952D01*
X106312922Y-64578095D02*
X105855779Y-65035238D01*
X106655779Y-64959047D02*
X106922445Y-64959047D01*
X107036731Y-65378095D02*
X106655779Y-65378095D01*
X106655779Y-65378095D02*
X106655779Y-64578095D01*
X106655779Y-64578095D02*
X107036731Y-64578095D01*
X94303540Y-80731620D02*
X94303540Y-80274477D01*
X95103540Y-80503049D02*
X94303540Y-80503049D01*
X95103540Y-80007810D02*
X94303540Y-80007810D01*
X95103540Y-79664953D02*
X94684492Y-79664953D01*
X94684492Y-79664953D02*
X94608302Y-79703048D01*
X94608302Y-79703048D02*
X94570206Y-79779239D01*
X94570206Y-79779239D02*
X94570206Y-79893525D01*
X94570206Y-79893525D02*
X94608302Y-79969715D01*
X94608302Y-79969715D02*
X94646397Y-80007810D01*
X95103540Y-79284000D02*
X94570206Y-79284000D01*
X94303540Y-79284000D02*
X94341635Y-79322096D01*
X94341635Y-79322096D02*
X94379730Y-79284000D01*
X94379730Y-79284000D02*
X94341635Y-79245905D01*
X94341635Y-79245905D02*
X94303540Y-79284000D01*
X94303540Y-79284000D02*
X94379730Y-79284000D01*
X95065445Y-78941144D02*
X95103540Y-78864953D01*
X95103540Y-78864953D02*
X95103540Y-78712572D01*
X95103540Y-78712572D02*
X95065445Y-78636382D01*
X95065445Y-78636382D02*
X94989254Y-78598286D01*
X94989254Y-78598286D02*
X94951159Y-78598286D01*
X94951159Y-78598286D02*
X94874968Y-78636382D01*
X94874968Y-78636382D02*
X94836873Y-78712572D01*
X94836873Y-78712572D02*
X94836873Y-78826858D01*
X94836873Y-78826858D02*
X94798778Y-78903048D01*
X94798778Y-78903048D02*
X94722587Y-78941144D01*
X94722587Y-78941144D02*
X94684492Y-78941144D01*
X94684492Y-78941144D02*
X94608302Y-78903048D01*
X94608302Y-78903048D02*
X94570206Y-78826858D01*
X94570206Y-78826858D02*
X94570206Y-78712572D01*
X94570206Y-78712572D02*
X94608302Y-78636382D01*
X95103540Y-77531620D02*
X95065445Y-77607810D01*
X95065445Y-77607810D02*
X95027349Y-77645905D01*
X95027349Y-77645905D02*
X94951159Y-77684001D01*
X94951159Y-77684001D02*
X94722587Y-77684001D01*
X94722587Y-77684001D02*
X94646397Y-77645905D01*
X94646397Y-77645905D02*
X94608302Y-77607810D01*
X94608302Y-77607810D02*
X94570206Y-77531620D01*
X94570206Y-77531620D02*
X94570206Y-77417334D01*
X94570206Y-77417334D02*
X94608302Y-77341143D01*
X94608302Y-77341143D02*
X94646397Y-77303048D01*
X94646397Y-77303048D02*
X94722587Y-77264953D01*
X94722587Y-77264953D02*
X94951159Y-77264953D01*
X94951159Y-77264953D02*
X95027349Y-77303048D01*
X95027349Y-77303048D02*
X95065445Y-77341143D01*
X95065445Y-77341143D02*
X95103540Y-77417334D01*
X95103540Y-77417334D02*
X95103540Y-77531620D01*
X94570206Y-76922095D02*
X95103540Y-76922095D01*
X94646397Y-76922095D02*
X94608302Y-76884000D01*
X94608302Y-76884000D02*
X94570206Y-76807810D01*
X94570206Y-76807810D02*
X94570206Y-76693524D01*
X94570206Y-76693524D02*
X94608302Y-76617333D01*
X94608302Y-76617333D02*
X94684492Y-76579238D01*
X94684492Y-76579238D02*
X95103540Y-76579238D01*
X95065445Y-75893523D02*
X95103540Y-75969714D01*
X95103540Y-75969714D02*
X95103540Y-76122095D01*
X95103540Y-76122095D02*
X95065445Y-76198285D01*
X95065445Y-76198285D02*
X94989254Y-76236381D01*
X94989254Y-76236381D02*
X94684492Y-76236381D01*
X94684492Y-76236381D02*
X94608302Y-76198285D01*
X94608302Y-76198285D02*
X94570206Y-76122095D01*
X94570206Y-76122095D02*
X94570206Y-75969714D01*
X94570206Y-75969714D02*
X94608302Y-75893523D01*
X94608302Y-75893523D02*
X94684492Y-75855428D01*
X94684492Y-75855428D02*
X94760683Y-75855428D01*
X94760683Y-75855428D02*
X94836873Y-76236381D01*
X95103540Y-74903047D02*
X94570206Y-74903047D01*
X94303540Y-74903047D02*
X94341635Y-74941143D01*
X94341635Y-74941143D02*
X94379730Y-74903047D01*
X94379730Y-74903047D02*
X94341635Y-74864952D01*
X94341635Y-74864952D02*
X94303540Y-74903047D01*
X94303540Y-74903047D02*
X94379730Y-74903047D01*
X95065445Y-74560191D02*
X95103540Y-74484000D01*
X95103540Y-74484000D02*
X95103540Y-74331619D01*
X95103540Y-74331619D02*
X95065445Y-74255429D01*
X95065445Y-74255429D02*
X94989254Y-74217333D01*
X94989254Y-74217333D02*
X94951159Y-74217333D01*
X94951159Y-74217333D02*
X94874968Y-74255429D01*
X94874968Y-74255429D02*
X94836873Y-74331619D01*
X94836873Y-74331619D02*
X94836873Y-74445905D01*
X94836873Y-74445905D02*
X94798778Y-74522095D01*
X94798778Y-74522095D02*
X94722587Y-74560191D01*
X94722587Y-74560191D02*
X94684492Y-74560191D01*
X94684492Y-74560191D02*
X94608302Y-74522095D01*
X94608302Y-74522095D02*
X94570206Y-74445905D01*
X94570206Y-74445905D02*
X94570206Y-74331619D01*
X94570206Y-74331619D02*
X94608302Y-74255429D01*
X96391495Y-80617334D02*
X95858161Y-80617334D01*
X96010542Y-80617334D02*
X95934352Y-80579239D01*
X95934352Y-80579239D02*
X95896257Y-80541144D01*
X95896257Y-80541144D02*
X95858161Y-80464953D01*
X95858161Y-80464953D02*
X95858161Y-80388763D01*
X96391495Y-80007811D02*
X96353400Y-80084001D01*
X96353400Y-80084001D02*
X96315304Y-80122096D01*
X96315304Y-80122096D02*
X96239114Y-80160192D01*
X96239114Y-80160192D02*
X96010542Y-80160192D01*
X96010542Y-80160192D02*
X95934352Y-80122096D01*
X95934352Y-80122096D02*
X95896257Y-80084001D01*
X95896257Y-80084001D02*
X95858161Y-80007811D01*
X95858161Y-80007811D02*
X95858161Y-79893525D01*
X95858161Y-79893525D02*
X95896257Y-79817334D01*
X95896257Y-79817334D02*
X95934352Y-79779239D01*
X95934352Y-79779239D02*
X96010542Y-79741144D01*
X96010542Y-79741144D02*
X96239114Y-79741144D01*
X96239114Y-79741144D02*
X96315304Y-79779239D01*
X96315304Y-79779239D02*
X96353400Y-79817334D01*
X96353400Y-79817334D02*
X96391495Y-79893525D01*
X96391495Y-79893525D02*
X96391495Y-80007811D01*
X95858161Y-79512572D02*
X95858161Y-79207810D01*
X95591495Y-79398286D02*
X96277209Y-79398286D01*
X96277209Y-79398286D02*
X96353400Y-79360191D01*
X96353400Y-79360191D02*
X96391495Y-79284001D01*
X96391495Y-79284001D02*
X96391495Y-79207810D01*
X96391495Y-78598286D02*
X95972447Y-78598286D01*
X95972447Y-78598286D02*
X95896257Y-78636381D01*
X95896257Y-78636381D02*
X95858161Y-78712572D01*
X95858161Y-78712572D02*
X95858161Y-78864953D01*
X95858161Y-78864953D02*
X95896257Y-78941143D01*
X96353400Y-78598286D02*
X96391495Y-78674477D01*
X96391495Y-78674477D02*
X96391495Y-78864953D01*
X96391495Y-78864953D02*
X96353400Y-78941143D01*
X96353400Y-78941143D02*
X96277209Y-78979239D01*
X96277209Y-78979239D02*
X96201019Y-78979239D01*
X96201019Y-78979239D02*
X96124828Y-78941143D01*
X96124828Y-78941143D02*
X96086733Y-78864953D01*
X96086733Y-78864953D02*
X96086733Y-78674477D01*
X96086733Y-78674477D02*
X96048638Y-78598286D01*
X95858161Y-78331619D02*
X95858161Y-78026857D01*
X95591495Y-78217333D02*
X96277209Y-78217333D01*
X96277209Y-78217333D02*
X96353400Y-78179238D01*
X96353400Y-78179238D02*
X96391495Y-78103048D01*
X96391495Y-78103048D02*
X96391495Y-78026857D01*
X96353400Y-77455428D02*
X96391495Y-77531619D01*
X96391495Y-77531619D02*
X96391495Y-77684000D01*
X96391495Y-77684000D02*
X96353400Y-77760190D01*
X96353400Y-77760190D02*
X96277209Y-77798286D01*
X96277209Y-77798286D02*
X95972447Y-77798286D01*
X95972447Y-77798286D02*
X95896257Y-77760190D01*
X95896257Y-77760190D02*
X95858161Y-77684000D01*
X95858161Y-77684000D02*
X95858161Y-77531619D01*
X95858161Y-77531619D02*
X95896257Y-77455428D01*
X95896257Y-77455428D02*
X95972447Y-77417333D01*
X95972447Y-77417333D02*
X96048638Y-77417333D01*
X96048638Y-77417333D02*
X96124828Y-77798286D01*
X96391495Y-76731619D02*
X95591495Y-76731619D01*
X96353400Y-76731619D02*
X96391495Y-76807810D01*
X96391495Y-76807810D02*
X96391495Y-76960191D01*
X96391495Y-76960191D02*
X96353400Y-77036381D01*
X96353400Y-77036381D02*
X96315304Y-77074476D01*
X96315304Y-77074476D02*
X96239114Y-77112572D01*
X96239114Y-77112572D02*
X96010542Y-77112572D01*
X96010542Y-77112572D02*
X95934352Y-77074476D01*
X95934352Y-77074476D02*
X95896257Y-77036381D01*
X95896257Y-77036381D02*
X95858161Y-76960191D01*
X95858161Y-76960191D02*
X95858161Y-76807810D01*
X95858161Y-76807810D02*
X95896257Y-76731619D01*
X96315304Y-76350666D02*
X96353400Y-76312571D01*
X96353400Y-76312571D02*
X96391495Y-76350666D01*
X96391495Y-76350666D02*
X96353400Y-76388762D01*
X96353400Y-76388762D02*
X96315304Y-76350666D01*
X96315304Y-76350666D02*
X96391495Y-76350666D01*
X96086733Y-76350666D02*
X95629590Y-76388762D01*
X95629590Y-76388762D02*
X95591495Y-76350666D01*
X95591495Y-76350666D02*
X95629590Y-76312571D01*
X95629590Y-76312571D02*
X96086733Y-76350666D01*
X96086733Y-76350666D02*
X95591495Y-76350666D01*
X105018493Y-46607600D02*
X104332779Y-47636171D01*
X105208969Y-46645695D02*
X105399445Y-47445695D01*
X105399445Y-47445695D02*
X105551826Y-46874266D01*
X105551826Y-46874266D02*
X105704207Y-47445695D01*
X105704207Y-47445695D02*
X105894684Y-46645695D01*
X106008970Y-47521885D02*
X106618493Y-47521885D01*
X106808970Y-47445695D02*
X106808970Y-46645695D01*
X106808970Y-46645695D02*
X106999446Y-46645695D01*
X106999446Y-46645695D02*
X107113732Y-46683790D01*
X107113732Y-46683790D02*
X107189922Y-46759980D01*
X107189922Y-46759980D02*
X107228017Y-46836171D01*
X107228017Y-46836171D02*
X107266113Y-46988552D01*
X107266113Y-46988552D02*
X107266113Y-47102838D01*
X107266113Y-47102838D02*
X107228017Y-47255219D01*
X107228017Y-47255219D02*
X107189922Y-47331409D01*
X107189922Y-47331409D02*
X107113732Y-47407600D01*
X107113732Y-47407600D02*
X106999446Y-47445695D01*
X106999446Y-47445695D02*
X106808970Y-47445695D01*
X72176312Y-42467295D02*
X71719169Y-42467295D01*
X71947741Y-42467295D02*
X71947741Y-41667295D01*
X71947741Y-41667295D02*
X71871550Y-41781580D01*
X71871550Y-41781580D02*
X71795360Y-41857771D01*
X71795360Y-41857771D02*
X71719169Y-41895866D01*
X72519170Y-42391104D02*
X72557265Y-42429200D01*
X72557265Y-42429200D02*
X72519170Y-42467295D01*
X72519170Y-42467295D02*
X72481074Y-42429200D01*
X72481074Y-42429200D02*
X72519170Y-42391104D01*
X72519170Y-42391104D02*
X72519170Y-42467295D01*
X73014407Y-42010152D02*
X72938217Y-41972057D01*
X72938217Y-41972057D02*
X72900122Y-41933961D01*
X72900122Y-41933961D02*
X72862026Y-41857771D01*
X72862026Y-41857771D02*
X72862026Y-41819676D01*
X72862026Y-41819676D02*
X72900122Y-41743485D01*
X72900122Y-41743485D02*
X72938217Y-41705390D01*
X72938217Y-41705390D02*
X73014407Y-41667295D01*
X73014407Y-41667295D02*
X73166788Y-41667295D01*
X73166788Y-41667295D02*
X73242979Y-41705390D01*
X73242979Y-41705390D02*
X73281074Y-41743485D01*
X73281074Y-41743485D02*
X73319169Y-41819676D01*
X73319169Y-41819676D02*
X73319169Y-41857771D01*
X73319169Y-41857771D02*
X73281074Y-41933961D01*
X73281074Y-41933961D02*
X73242979Y-41972057D01*
X73242979Y-41972057D02*
X73166788Y-42010152D01*
X73166788Y-42010152D02*
X73014407Y-42010152D01*
X73014407Y-42010152D02*
X72938217Y-42048247D01*
X72938217Y-42048247D02*
X72900122Y-42086342D01*
X72900122Y-42086342D02*
X72862026Y-42162533D01*
X72862026Y-42162533D02*
X72862026Y-42314914D01*
X72862026Y-42314914D02*
X72900122Y-42391104D01*
X72900122Y-42391104D02*
X72938217Y-42429200D01*
X72938217Y-42429200D02*
X73014407Y-42467295D01*
X73014407Y-42467295D02*
X73166788Y-42467295D01*
X73166788Y-42467295D02*
X73242979Y-42429200D01*
X73242979Y-42429200D02*
X73281074Y-42391104D01*
X73281074Y-42391104D02*
X73319169Y-42314914D01*
X73319169Y-42314914D02*
X73319169Y-42162533D01*
X73319169Y-42162533D02*
X73281074Y-42086342D01*
X73281074Y-42086342D02*
X73242979Y-42048247D01*
X73242979Y-42048247D02*
X73166788Y-42010152D01*
X73547741Y-41667295D02*
X73814408Y-42467295D01*
X73814408Y-42467295D02*
X74081074Y-41667295D01*
D11*
X104645180Y-78008095D02*
X103835657Y-78008095D01*
X103835657Y-78008095D02*
X103740419Y-78055714D01*
X103740419Y-78055714D02*
X103692800Y-78103333D01*
X103692800Y-78103333D02*
X103645180Y-78198571D01*
X103645180Y-78198571D02*
X103645180Y-78389047D01*
X103645180Y-78389047D02*
X103692800Y-78484285D01*
X103692800Y-78484285D02*
X103740419Y-78531904D01*
X103740419Y-78531904D02*
X103835657Y-78579523D01*
X103835657Y-78579523D02*
X104645180Y-78579523D01*
X104645180Y-78960476D02*
X104645180Y-79579523D01*
X104645180Y-79579523D02*
X104264228Y-79246190D01*
X104264228Y-79246190D02*
X104264228Y-79389047D01*
X104264228Y-79389047D02*
X104216609Y-79484285D01*
X104216609Y-79484285D02*
X104168990Y-79531904D01*
X104168990Y-79531904D02*
X104073752Y-79579523D01*
X104073752Y-79579523D02*
X103835657Y-79579523D01*
X103835657Y-79579523D02*
X103740419Y-79531904D01*
X103740419Y-79531904D02*
X103692800Y-79484285D01*
X103692800Y-79484285D02*
X103645180Y-79389047D01*
X103645180Y-79389047D02*
X103645180Y-79103333D01*
X103645180Y-79103333D02*
X103692800Y-79008095D01*
X103692800Y-79008095D02*
X103740419Y-78960476D01*
X104481980Y-77470001D02*
X104243885Y-77470001D01*
X104339123Y-77231906D02*
X104243885Y-77470001D01*
X104243885Y-77470001D02*
X104339123Y-77708096D01*
X104053409Y-77327144D02*
X104243885Y-77470001D01*
X104243885Y-77470001D02*
X104053409Y-77612858D01*
D10*
X78711295Y-62864923D02*
X79358914Y-62864923D01*
X79358914Y-62864923D02*
X79435104Y-62826828D01*
X79435104Y-62826828D02*
X79473200Y-62788733D01*
X79473200Y-62788733D02*
X79511295Y-62712542D01*
X79511295Y-62712542D02*
X79511295Y-62560161D01*
X79511295Y-62560161D02*
X79473200Y-62483971D01*
X79473200Y-62483971D02*
X79435104Y-62445876D01*
X79435104Y-62445876D02*
X79358914Y-62407780D01*
X79358914Y-62407780D02*
X78711295Y-62407780D01*
X78977961Y-61683971D02*
X79511295Y-61683971D01*
X78673200Y-61874447D02*
X79244628Y-62064924D01*
X79244628Y-62064924D02*
X79244628Y-61569685D01*
D11*
X75290619Y-61960406D02*
X75290619Y-62436596D01*
X75290619Y-62436596D02*
X74290619Y-62436596D01*
X75290619Y-61103263D02*
X75290619Y-61674691D01*
X75290619Y-61388977D02*
X74290619Y-61388977D01*
X74290619Y-61388977D02*
X74433476Y-61484215D01*
X74433476Y-61484215D02*
X74528714Y-61579453D01*
X74528714Y-61579453D02*
X74576333Y-61674691D01*
X100834619Y-54751266D02*
X100358428Y-55084599D01*
X100834619Y-55322694D02*
X99834619Y-55322694D01*
X99834619Y-55322694D02*
X99834619Y-54941742D01*
X99834619Y-54941742D02*
X99882238Y-54846504D01*
X99882238Y-54846504D02*
X99929857Y-54798885D01*
X99929857Y-54798885D02*
X100025095Y-54751266D01*
X100025095Y-54751266D02*
X100167952Y-54751266D01*
X100167952Y-54751266D02*
X100263190Y-54798885D01*
X100263190Y-54798885D02*
X100310809Y-54846504D01*
X100310809Y-54846504D02*
X100358428Y-54941742D01*
X100358428Y-54941742D02*
X100358428Y-55322694D01*
X99834619Y-54417932D02*
X99834619Y-53751266D01*
X99834619Y-53751266D02*
X100834619Y-54179837D01*
X93853933Y-60662780D02*
X93806314Y-60710400D01*
X93806314Y-60710400D02*
X93663457Y-60758019D01*
X93663457Y-60758019D02*
X93568219Y-60758019D01*
X93568219Y-60758019D02*
X93425362Y-60710400D01*
X93425362Y-60710400D02*
X93330124Y-60615161D01*
X93330124Y-60615161D02*
X93282505Y-60519923D01*
X93282505Y-60519923D02*
X93234886Y-60329447D01*
X93234886Y-60329447D02*
X93234886Y-60186590D01*
X93234886Y-60186590D02*
X93282505Y-59996114D01*
X93282505Y-59996114D02*
X93330124Y-59900876D01*
X93330124Y-59900876D02*
X93425362Y-59805638D01*
X93425362Y-59805638D02*
X93568219Y-59758019D01*
X93568219Y-59758019D02*
X93663457Y-59758019D01*
X93663457Y-59758019D02*
X93806314Y-59805638D01*
X93806314Y-59805638D02*
X93853933Y-59853257D01*
X94806314Y-60758019D02*
X94234886Y-60758019D01*
X94520600Y-60758019D02*
X94520600Y-59758019D01*
X94520600Y-59758019D02*
X94425362Y-59900876D01*
X94425362Y-59900876D02*
X94330124Y-59996114D01*
X94330124Y-59996114D02*
X94234886Y-60043733D01*
X97432019Y-59526466D02*
X96955828Y-59859799D01*
X97432019Y-60097894D02*
X96432019Y-60097894D01*
X96432019Y-60097894D02*
X96432019Y-59716942D01*
X96432019Y-59716942D02*
X96479638Y-59621704D01*
X96479638Y-59621704D02*
X96527257Y-59574085D01*
X96527257Y-59574085D02*
X96622495Y-59526466D01*
X96622495Y-59526466D02*
X96765352Y-59526466D01*
X96765352Y-59526466D02*
X96860590Y-59574085D01*
X96860590Y-59574085D02*
X96908209Y-59621704D01*
X96908209Y-59621704D02*
X96955828Y-59716942D01*
X96955828Y-59716942D02*
X96955828Y-60097894D01*
X96432019Y-58621704D02*
X96432019Y-59097894D01*
X96432019Y-59097894D02*
X96908209Y-59145513D01*
X96908209Y-59145513D02*
X96860590Y-59097894D01*
X96860590Y-59097894D02*
X96812971Y-59002656D01*
X96812971Y-59002656D02*
X96812971Y-58764561D01*
X96812971Y-58764561D02*
X96860590Y-58669323D01*
X96860590Y-58669323D02*
X96908209Y-58621704D01*
X96908209Y-58621704D02*
X97003447Y-58574085D01*
X97003447Y-58574085D02*
X97241542Y-58574085D01*
X97241542Y-58574085D02*
X97336780Y-58621704D01*
X97336780Y-58621704D02*
X97384400Y-58669323D01*
X97384400Y-58669323D02*
X97432019Y-58764561D01*
X97432019Y-58764561D02*
X97432019Y-59002656D01*
X97432019Y-59002656D02*
X97384400Y-59097894D01*
X97384400Y-59097894D02*
X97336780Y-59145513D01*
X77203266Y-38463618D02*
X77203266Y-39177903D01*
X77203266Y-39177903D02*
X77155647Y-39320760D01*
X77155647Y-39320760D02*
X77060409Y-39415999D01*
X77060409Y-39415999D02*
X76917552Y-39463618D01*
X76917552Y-39463618D02*
X76822314Y-39463618D01*
X77631838Y-38558856D02*
X77679457Y-38511237D01*
X77679457Y-38511237D02*
X77774695Y-38463618D01*
X77774695Y-38463618D02*
X78012790Y-38463618D01*
X78012790Y-38463618D02*
X78108028Y-38511237D01*
X78108028Y-38511237D02*
X78155647Y-38558856D01*
X78155647Y-38558856D02*
X78203266Y-38654094D01*
X78203266Y-38654094D02*
X78203266Y-38749332D01*
X78203266Y-38749332D02*
X78155647Y-38892189D01*
X78155647Y-38892189D02*
X77584219Y-39463618D01*
X77584219Y-39463618D02*
X78203266Y-39463618D01*
X100849133Y-50797619D02*
X100515800Y-50321428D01*
X100277705Y-50797619D02*
X100277705Y-49797619D01*
X100277705Y-49797619D02*
X100658657Y-49797619D01*
X100658657Y-49797619D02*
X100753895Y-49845238D01*
X100753895Y-49845238D02*
X100801514Y-49892857D01*
X100801514Y-49892857D02*
X100849133Y-49988095D01*
X100849133Y-49988095D02*
X100849133Y-50130952D01*
X100849133Y-50130952D02*
X100801514Y-50226190D01*
X100801514Y-50226190D02*
X100753895Y-50273809D01*
X100753895Y-50273809D02*
X100658657Y-50321428D01*
X100658657Y-50321428D02*
X100277705Y-50321428D01*
X101420562Y-50226190D02*
X101325324Y-50178571D01*
X101325324Y-50178571D02*
X101277705Y-50130952D01*
X101277705Y-50130952D02*
X101230086Y-50035714D01*
X101230086Y-50035714D02*
X101230086Y-49988095D01*
X101230086Y-49988095D02*
X101277705Y-49892857D01*
X101277705Y-49892857D02*
X101325324Y-49845238D01*
X101325324Y-49845238D02*
X101420562Y-49797619D01*
X101420562Y-49797619D02*
X101611038Y-49797619D01*
X101611038Y-49797619D02*
X101706276Y-49845238D01*
X101706276Y-49845238D02*
X101753895Y-49892857D01*
X101753895Y-49892857D02*
X101801514Y-49988095D01*
X101801514Y-49988095D02*
X101801514Y-50035714D01*
X101801514Y-50035714D02*
X101753895Y-50130952D01*
X101753895Y-50130952D02*
X101706276Y-50178571D01*
X101706276Y-50178571D02*
X101611038Y-50226190D01*
X101611038Y-50226190D02*
X101420562Y-50226190D01*
X101420562Y-50226190D02*
X101325324Y-50273809D01*
X101325324Y-50273809D02*
X101277705Y-50321428D01*
X101277705Y-50321428D02*
X101230086Y-50416666D01*
X101230086Y-50416666D02*
X101230086Y-50607142D01*
X101230086Y-50607142D02*
X101277705Y-50702380D01*
X101277705Y-50702380D02*
X101325324Y-50750000D01*
X101325324Y-50750000D02*
X101420562Y-50797619D01*
X101420562Y-50797619D02*
X101611038Y-50797619D01*
X101611038Y-50797619D02*
X101706276Y-50750000D01*
X101706276Y-50750000D02*
X101753895Y-50702380D01*
X101753895Y-50702380D02*
X101801514Y-50607142D01*
X101801514Y-50607142D02*
X101801514Y-50416666D01*
X101801514Y-50416666D02*
X101753895Y-50321428D01*
X101753895Y-50321428D02*
X101706276Y-50273809D01*
X101706276Y-50273809D02*
X101611038Y-50226190D01*
X88846066Y-100115019D02*
X88846066Y-100829304D01*
X88846066Y-100829304D02*
X88798447Y-100972161D01*
X88798447Y-100972161D02*
X88703209Y-101067400D01*
X88703209Y-101067400D02*
X88560352Y-101115019D01*
X88560352Y-101115019D02*
X88465114Y-101115019D01*
X89846066Y-101115019D02*
X89274638Y-101115019D01*
X89560352Y-101115019D02*
X89560352Y-100115019D01*
X89560352Y-100115019D02*
X89465114Y-100257876D01*
X89465114Y-100257876D02*
X89369876Y-100353114D01*
X89369876Y-100353114D02*
X89274638Y-100400733D01*
X74771601Y-89543216D02*
X74771601Y-89781311D01*
X74533506Y-89686073D02*
X74771601Y-89781311D01*
X74771601Y-89781311D02*
X75009696Y-89686073D01*
X74628744Y-89971787D02*
X74771601Y-89781311D01*
X74771601Y-89781311D02*
X74914458Y-89971787D01*
X88371619Y-57158366D02*
X88371619Y-57634556D01*
X88371619Y-57634556D02*
X87371619Y-57634556D01*
X87466857Y-56872651D02*
X87419238Y-56825032D01*
X87419238Y-56825032D02*
X87371619Y-56729794D01*
X87371619Y-56729794D02*
X87371619Y-56491699D01*
X87371619Y-56491699D02*
X87419238Y-56396461D01*
X87419238Y-56396461D02*
X87466857Y-56348842D01*
X87466857Y-56348842D02*
X87562095Y-56301223D01*
X87562095Y-56301223D02*
X87657333Y-56301223D01*
X87657333Y-56301223D02*
X87800190Y-56348842D01*
X87800190Y-56348842D02*
X88371619Y-56920270D01*
X88371619Y-56920270D02*
X88371619Y-56301223D01*
X75061866Y-55893619D02*
X75061866Y-56607904D01*
X75061866Y-56607904D02*
X75014247Y-56750761D01*
X75014247Y-56750761D02*
X74919009Y-56846000D01*
X74919009Y-56846000D02*
X74776152Y-56893619D01*
X74776152Y-56893619D02*
X74680914Y-56893619D01*
X75538057Y-56893619D02*
X75538057Y-55893619D01*
X75538057Y-55893619D02*
X75919009Y-55893619D01*
X75919009Y-55893619D02*
X76014247Y-55941238D01*
X76014247Y-55941238D02*
X76061866Y-55988857D01*
X76061866Y-55988857D02*
X76109485Y-56084095D01*
X76109485Y-56084095D02*
X76109485Y-56226952D01*
X76109485Y-56226952D02*
X76061866Y-56322190D01*
X76061866Y-56322190D02*
X76014247Y-56369809D01*
X76014247Y-56369809D02*
X75919009Y-56417428D01*
X75919009Y-56417428D02*
X75538057Y-56417428D01*
X77061866Y-56893619D02*
X76490438Y-56893619D01*
X76776152Y-56893619D02*
X76776152Y-55893619D01*
X76776152Y-55893619D02*
X76680914Y-56036476D01*
X76680914Y-56036476D02*
X76585676Y-56131714D01*
X76585676Y-56131714D02*
X76490438Y-56179333D01*
X83544819Y-78341904D02*
X84354342Y-78341904D01*
X84354342Y-78341904D02*
X84449580Y-78294285D01*
X84449580Y-78294285D02*
X84497200Y-78246666D01*
X84497200Y-78246666D02*
X84544819Y-78151428D01*
X84544819Y-78151428D02*
X84544819Y-77960952D01*
X84544819Y-77960952D02*
X84497200Y-77865714D01*
X84497200Y-77865714D02*
X84449580Y-77818095D01*
X84449580Y-77818095D02*
X84354342Y-77770476D01*
X84354342Y-77770476D02*
X83544819Y-77770476D01*
X83640057Y-77341904D02*
X83592438Y-77294285D01*
X83592438Y-77294285D02*
X83544819Y-77199047D01*
X83544819Y-77199047D02*
X83544819Y-76960952D01*
X83544819Y-76960952D02*
X83592438Y-76865714D01*
X83592438Y-76865714D02*
X83640057Y-76818095D01*
X83640057Y-76818095D02*
X83735295Y-76770476D01*
X83735295Y-76770476D02*
X83830533Y-76770476D01*
X83830533Y-76770476D02*
X83973390Y-76818095D01*
X83973390Y-76818095D02*
X84544819Y-77389523D01*
X84544819Y-77389523D02*
X84544819Y-76770476D01*
X83808219Y-78854999D02*
X84046314Y-78854999D01*
X83951076Y-79093094D02*
X84046314Y-78854999D01*
X84046314Y-78854999D02*
X83951076Y-78616904D01*
X84236790Y-78997856D02*
X84046314Y-78854999D01*
X84046314Y-78854999D02*
X84236790Y-78712142D01*
X95818033Y-50493819D02*
X95484700Y-50017628D01*
X95246605Y-50493819D02*
X95246605Y-49493819D01*
X95246605Y-49493819D02*
X95627557Y-49493819D01*
X95627557Y-49493819D02*
X95722795Y-49541438D01*
X95722795Y-49541438D02*
X95770414Y-49589057D01*
X95770414Y-49589057D02*
X95818033Y-49684295D01*
X95818033Y-49684295D02*
X95818033Y-49827152D01*
X95818033Y-49827152D02*
X95770414Y-49922390D01*
X95770414Y-49922390D02*
X95722795Y-49970009D01*
X95722795Y-49970009D02*
X95627557Y-50017628D01*
X95627557Y-50017628D02*
X95246605Y-50017628D01*
X96675176Y-49493819D02*
X96484700Y-49493819D01*
X96484700Y-49493819D02*
X96389462Y-49541438D01*
X96389462Y-49541438D02*
X96341843Y-49589057D01*
X96341843Y-49589057D02*
X96246605Y-49731914D01*
X96246605Y-49731914D02*
X96198986Y-49922390D01*
X96198986Y-49922390D02*
X96198986Y-50303342D01*
X96198986Y-50303342D02*
X96246605Y-50398580D01*
X96246605Y-50398580D02*
X96294224Y-50446200D01*
X96294224Y-50446200D02*
X96389462Y-50493819D01*
X96389462Y-50493819D02*
X96579938Y-50493819D01*
X96579938Y-50493819D02*
X96675176Y-50446200D01*
X96675176Y-50446200D02*
X96722795Y-50398580D01*
X96722795Y-50398580D02*
X96770414Y-50303342D01*
X96770414Y-50303342D02*
X96770414Y-50065247D01*
X96770414Y-50065247D02*
X96722795Y-49970009D01*
X96722795Y-49970009D02*
X96675176Y-49922390D01*
X96675176Y-49922390D02*
X96579938Y-49874771D01*
X96579938Y-49874771D02*
X96389462Y-49874771D01*
X96389462Y-49874771D02*
X96294224Y-49922390D01*
X96294224Y-49922390D02*
X96246605Y-49970009D01*
X96246605Y-49970009D02*
X96198986Y-50065247D01*
X84872533Y-58064459D02*
X84539200Y-57588268D01*
X84301105Y-58064459D02*
X84301105Y-57064459D01*
X84301105Y-57064459D02*
X84682057Y-57064459D01*
X84682057Y-57064459D02*
X84777295Y-57112078D01*
X84777295Y-57112078D02*
X84824914Y-57159697D01*
X84824914Y-57159697D02*
X84872533Y-57254935D01*
X84872533Y-57254935D02*
X84872533Y-57397792D01*
X84872533Y-57397792D02*
X84824914Y-57493030D01*
X84824914Y-57493030D02*
X84777295Y-57540649D01*
X84777295Y-57540649D02*
X84682057Y-57588268D01*
X84682057Y-57588268D02*
X84301105Y-57588268D01*
X85205867Y-57064459D02*
X85824914Y-57064459D01*
X85824914Y-57064459D02*
X85491581Y-57445411D01*
X85491581Y-57445411D02*
X85634438Y-57445411D01*
X85634438Y-57445411D02*
X85729676Y-57493030D01*
X85729676Y-57493030D02*
X85777295Y-57540649D01*
X85777295Y-57540649D02*
X85824914Y-57635887D01*
X85824914Y-57635887D02*
X85824914Y-57873982D01*
X85824914Y-57873982D02*
X85777295Y-57969220D01*
X85777295Y-57969220D02*
X85729676Y-58016840D01*
X85729676Y-58016840D02*
X85634438Y-58064459D01*
X85634438Y-58064459D02*
X85348724Y-58064459D01*
X85348724Y-58064459D02*
X85253486Y-58016840D01*
X85253486Y-58016840D02*
X85205867Y-57969220D01*
X86179819Y-62146006D02*
X85703628Y-62479339D01*
X86179819Y-62717434D02*
X85179819Y-62717434D01*
X85179819Y-62717434D02*
X85179819Y-62336482D01*
X85179819Y-62336482D02*
X85227438Y-62241244D01*
X85227438Y-62241244D02*
X85275057Y-62193625D01*
X85275057Y-62193625D02*
X85370295Y-62146006D01*
X85370295Y-62146006D02*
X85513152Y-62146006D01*
X85513152Y-62146006D02*
X85608390Y-62193625D01*
X85608390Y-62193625D02*
X85656009Y-62241244D01*
X85656009Y-62241244D02*
X85703628Y-62336482D01*
X85703628Y-62336482D02*
X85703628Y-62717434D01*
X86179819Y-61193625D02*
X86179819Y-61765053D01*
X86179819Y-61479339D02*
X85179819Y-61479339D01*
X85179819Y-61479339D02*
X85322676Y-61574577D01*
X85322676Y-61574577D02*
X85417914Y-61669815D01*
X85417914Y-61669815D02*
X85465533Y-61765053D01*
D10*
X88535676Y-109340619D02*
X88535676Y-108340619D01*
X88535676Y-108340619D02*
X88869009Y-109054904D01*
X88869009Y-109054904D02*
X89202342Y-108340619D01*
X89202342Y-108340619D02*
X89202342Y-109340619D01*
X90202342Y-109340619D02*
X89630914Y-109340619D01*
X89916628Y-109340619D02*
X89916628Y-108340619D01*
X89916628Y-108340619D02*
X89821390Y-108483476D01*
X89821390Y-108483476D02*
X89726152Y-108578714D01*
X89726152Y-108578714D02*
X89630914Y-108626333D01*
D11*
X83004819Y-56046666D02*
X82528628Y-56379999D01*
X83004819Y-56618094D02*
X82004819Y-56618094D01*
X82004819Y-56618094D02*
X82004819Y-56237142D01*
X82004819Y-56237142D02*
X82052438Y-56141904D01*
X82052438Y-56141904D02*
X82100057Y-56094285D01*
X82100057Y-56094285D02*
X82195295Y-56046666D01*
X82195295Y-56046666D02*
X82338152Y-56046666D01*
X82338152Y-56046666D02*
X82433390Y-56094285D01*
X82433390Y-56094285D02*
X82481009Y-56141904D01*
X82481009Y-56141904D02*
X82528628Y-56237142D01*
X82528628Y-56237142D02*
X82528628Y-56618094D01*
X82100057Y-55665713D02*
X82052438Y-55618094D01*
X82052438Y-55618094D02*
X82004819Y-55522856D01*
X82004819Y-55522856D02*
X82004819Y-55284761D01*
X82004819Y-55284761D02*
X82052438Y-55189523D01*
X82052438Y-55189523D02*
X82100057Y-55141904D01*
X82100057Y-55141904D02*
X82195295Y-55094285D01*
X82195295Y-55094285D02*
X82290533Y-55094285D01*
X82290533Y-55094285D02*
X82433390Y-55141904D01*
X82433390Y-55141904D02*
X83004819Y-55713332D01*
X83004819Y-55713332D02*
X83004819Y-55094285D01*
D10*
X91766895Y-57403923D02*
X92414514Y-57403923D01*
X92414514Y-57403923D02*
X92490704Y-57365828D01*
X92490704Y-57365828D02*
X92528800Y-57327733D01*
X92528800Y-57327733D02*
X92566895Y-57251542D01*
X92566895Y-57251542D02*
X92566895Y-57099161D01*
X92566895Y-57099161D02*
X92528800Y-57022971D01*
X92528800Y-57022971D02*
X92490704Y-56984876D01*
X92490704Y-56984876D02*
X92414514Y-56946780D01*
X92414514Y-56946780D02*
X91766895Y-56946780D01*
X91766895Y-56184876D02*
X91766895Y-56565828D01*
X91766895Y-56565828D02*
X92147847Y-56603924D01*
X92147847Y-56603924D02*
X92109752Y-56565828D01*
X92109752Y-56565828D02*
X92071657Y-56489638D01*
X92071657Y-56489638D02*
X92071657Y-56299162D01*
X92071657Y-56299162D02*
X92109752Y-56222971D01*
X92109752Y-56222971D02*
X92147847Y-56184876D01*
X92147847Y-56184876D02*
X92224038Y-56146781D01*
X92224038Y-56146781D02*
X92414514Y-56146781D01*
X92414514Y-56146781D02*
X92490704Y-56184876D01*
X92490704Y-56184876D02*
X92528800Y-56222971D01*
X92528800Y-56222971D02*
X92566895Y-56299162D01*
X92566895Y-56299162D02*
X92566895Y-56489638D01*
X92566895Y-56489638D02*
X92528800Y-56565828D01*
X92528800Y-56565828D02*
X92490704Y-56603924D01*
D11*
X88930266Y-50991419D02*
X88930266Y-51705704D01*
X88930266Y-51705704D02*
X88882647Y-51848561D01*
X88882647Y-51848561D02*
X88787409Y-51943800D01*
X88787409Y-51943800D02*
X88644552Y-51991419D01*
X88644552Y-51991419D02*
X88549314Y-51991419D01*
X89406457Y-51991419D02*
X89406457Y-50991419D01*
X89406457Y-50991419D02*
X89787409Y-50991419D01*
X89787409Y-50991419D02*
X89882647Y-51039038D01*
X89882647Y-51039038D02*
X89930266Y-51086657D01*
X89930266Y-51086657D02*
X89977885Y-51181895D01*
X89977885Y-51181895D02*
X89977885Y-51324752D01*
X89977885Y-51324752D02*
X89930266Y-51419990D01*
X89930266Y-51419990D02*
X89882647Y-51467609D01*
X89882647Y-51467609D02*
X89787409Y-51515228D01*
X89787409Y-51515228D02*
X89406457Y-51515228D01*
X90358838Y-51086657D02*
X90406457Y-51039038D01*
X90406457Y-51039038D02*
X90501695Y-50991419D01*
X90501695Y-50991419D02*
X90739790Y-50991419D01*
X90739790Y-50991419D02*
X90835028Y-51039038D01*
X90835028Y-51039038D02*
X90882647Y-51086657D01*
X90882647Y-51086657D02*
X90930266Y-51181895D01*
X90930266Y-51181895D02*
X90930266Y-51277133D01*
X90930266Y-51277133D02*
X90882647Y-51419990D01*
X90882647Y-51419990D02*
X90311219Y-51991419D01*
X90311219Y-51991419D02*
X90930266Y-51991419D01*
X78943580Y-58679506D02*
X78991200Y-58727125D01*
X78991200Y-58727125D02*
X79038819Y-58869982D01*
X79038819Y-58869982D02*
X79038819Y-58965220D01*
X79038819Y-58965220D02*
X78991200Y-59108077D01*
X78991200Y-59108077D02*
X78895961Y-59203315D01*
X78895961Y-59203315D02*
X78800723Y-59250934D01*
X78800723Y-59250934D02*
X78610247Y-59298553D01*
X78610247Y-59298553D02*
X78467390Y-59298553D01*
X78467390Y-59298553D02*
X78276914Y-59250934D01*
X78276914Y-59250934D02*
X78181676Y-59203315D01*
X78181676Y-59203315D02*
X78086438Y-59108077D01*
X78086438Y-59108077D02*
X78038819Y-58965220D01*
X78038819Y-58965220D02*
X78038819Y-58869982D01*
X78038819Y-58869982D02*
X78086438Y-58727125D01*
X78086438Y-58727125D02*
X78134057Y-58679506D01*
X78134057Y-58298553D02*
X78086438Y-58250934D01*
X78086438Y-58250934D02*
X78038819Y-58155696D01*
X78038819Y-58155696D02*
X78038819Y-57917601D01*
X78038819Y-57917601D02*
X78086438Y-57822363D01*
X78086438Y-57822363D02*
X78134057Y-57774744D01*
X78134057Y-57774744D02*
X78229295Y-57727125D01*
X78229295Y-57727125D02*
X78324533Y-57727125D01*
X78324533Y-57727125D02*
X78467390Y-57774744D01*
X78467390Y-57774744D02*
X79038819Y-58346172D01*
X79038819Y-58346172D02*
X79038819Y-57727125D01*
X73884819Y-78051904D02*
X74694342Y-78051904D01*
X74694342Y-78051904D02*
X74789580Y-78004285D01*
X74789580Y-78004285D02*
X74837200Y-77956666D01*
X74837200Y-77956666D02*
X74884819Y-77861428D01*
X74884819Y-77861428D02*
X74884819Y-77670952D01*
X74884819Y-77670952D02*
X74837200Y-77575714D01*
X74837200Y-77575714D02*
X74789580Y-77528095D01*
X74789580Y-77528095D02*
X74694342Y-77480476D01*
X74694342Y-77480476D02*
X73884819Y-77480476D01*
X74884819Y-76480476D02*
X74884819Y-77051904D01*
X74884819Y-76766190D02*
X73884819Y-76766190D01*
X73884819Y-76766190D02*
X74027676Y-76861428D01*
X74027676Y-76861428D02*
X74122914Y-76956666D01*
X74122914Y-76956666D02*
X74170533Y-77051904D01*
X74009219Y-78677199D02*
X74247314Y-78677199D01*
X74152076Y-78915294D02*
X74247314Y-78677199D01*
X74247314Y-78677199D02*
X74152076Y-78439104D01*
X74437790Y-78820056D02*
X74247314Y-78677199D01*
X74247314Y-78677199D02*
X74437790Y-78534342D01*
X92924333Y-51083380D02*
X92876714Y-51131000D01*
X92876714Y-51131000D02*
X92733857Y-51178619D01*
X92733857Y-51178619D02*
X92638619Y-51178619D01*
X92638619Y-51178619D02*
X92495762Y-51131000D01*
X92495762Y-51131000D02*
X92400524Y-51035761D01*
X92400524Y-51035761D02*
X92352905Y-50940523D01*
X92352905Y-50940523D02*
X92305286Y-50750047D01*
X92305286Y-50750047D02*
X92305286Y-50607190D01*
X92305286Y-50607190D02*
X92352905Y-50416714D01*
X92352905Y-50416714D02*
X92400524Y-50321476D01*
X92400524Y-50321476D02*
X92495762Y-50226238D01*
X92495762Y-50226238D02*
X92638619Y-50178619D01*
X92638619Y-50178619D02*
X92733857Y-50178619D01*
X92733857Y-50178619D02*
X92876714Y-50226238D01*
X92876714Y-50226238D02*
X92924333Y-50273857D01*
X93781476Y-50511952D02*
X93781476Y-51178619D01*
X93543381Y-50131000D02*
X93305286Y-50845285D01*
X93305286Y-50845285D02*
X93924333Y-50845285D01*
X80894933Y-66125220D02*
X80847314Y-66172840D01*
X80847314Y-66172840D02*
X80704457Y-66220459D01*
X80704457Y-66220459D02*
X80609219Y-66220459D01*
X80609219Y-66220459D02*
X80466362Y-66172840D01*
X80466362Y-66172840D02*
X80371124Y-66077601D01*
X80371124Y-66077601D02*
X80323505Y-65982363D01*
X80323505Y-65982363D02*
X80275886Y-65791887D01*
X80275886Y-65791887D02*
X80275886Y-65649030D01*
X80275886Y-65649030D02*
X80323505Y-65458554D01*
X80323505Y-65458554D02*
X80371124Y-65363316D01*
X80371124Y-65363316D02*
X80466362Y-65268078D01*
X80466362Y-65268078D02*
X80609219Y-65220459D01*
X80609219Y-65220459D02*
X80704457Y-65220459D01*
X80704457Y-65220459D02*
X80847314Y-65268078D01*
X80847314Y-65268078D02*
X80894933Y-65315697D01*
X81228267Y-65220459D02*
X81847314Y-65220459D01*
X81847314Y-65220459D02*
X81513981Y-65601411D01*
X81513981Y-65601411D02*
X81656838Y-65601411D01*
X81656838Y-65601411D02*
X81752076Y-65649030D01*
X81752076Y-65649030D02*
X81799695Y-65696649D01*
X81799695Y-65696649D02*
X81847314Y-65791887D01*
X81847314Y-65791887D02*
X81847314Y-66029982D01*
X81847314Y-66029982D02*
X81799695Y-66125220D01*
X81799695Y-66125220D02*
X81752076Y-66172840D01*
X81752076Y-66172840D02*
X81656838Y-66220459D01*
X81656838Y-66220459D02*
X81371124Y-66220459D01*
X81371124Y-66220459D02*
X81275886Y-66172840D01*
X81275886Y-66172840D02*
X81228267Y-66125220D01*
D12*
%TO.C,U3*%
X97078800Y-76264201D02*
X97078800Y-77010260D01*
X97078800Y-77929740D02*
X97078800Y-78510262D01*
X97078800Y-79429742D02*
X97078800Y-80175801D01*
X102971600Y-77010260D02*
X102971600Y-76264201D01*
X102971600Y-78510262D02*
X102971600Y-77929740D01*
X102971600Y-80175801D02*
X102971600Y-79429742D01*
D13*
G36*
X98465701Y-75832401D02*
G01*
X98084701Y-75832401D01*
X98084701Y-75578401D01*
X98465701Y-75578401D01*
X98465701Y-75832401D01*
G37*
G36*
X100965701Y-80861601D02*
G01*
X100584701Y-80861601D01*
X100584701Y-80607601D01*
X100965701Y-80607601D01*
X100965701Y-80861601D01*
G37*
D14*
%TO.C,U4*%
X80870200Y-60616840D02*
X81040200Y-60616840D01*
X81040200Y-62716840D02*
X80870200Y-62716840D01*
D15*
X79455200Y-60916840D02*
G75*
G02*
X79255200Y-60916840I-100000J0D01*
G01*
X79255200Y-60916840D02*
G75*
G02*
X79455200Y-60916840I100000J0D01*
G01*
D16*
%TO.C,L1*%
X75775800Y-62054992D02*
X75775800Y-61532488D01*
X77995800Y-62054992D02*
X77995800Y-61532488D01*
%TO.C,R7*%
X97994800Y-54357536D02*
X97994800Y-54811664D01*
X99464800Y-54357536D02*
X99464800Y-54811664D01*
%TO.C,C1*%
X94281852Y-57888200D02*
X93759348Y-57888200D01*
X94281852Y-59358200D02*
X93759348Y-59358200D01*
%TO.C,R5*%
X95962800Y-56841764D02*
X95962800Y-56387636D01*
X97432800Y-56841764D02*
X97432800Y-56387636D01*
D14*
%TO.C,J2*%
X74611600Y-39943799D02*
X103611600Y-39943799D01*
X74611600Y-47843799D02*
X74611600Y-39943799D01*
X74761600Y-47843799D02*
X74611600Y-47843799D01*
X79261600Y-47843799D02*
X98961600Y-47843799D01*
X103611600Y-39943799D02*
X103611600Y-47843799D01*
X103611600Y-47843799D02*
X103461600Y-47843799D01*
D16*
%TO.C,R8*%
X95659836Y-53113000D02*
X96113964Y-53113000D01*
X95659836Y-54583000D02*
X96113964Y-54583000D01*
D12*
%TO.C,J1*%
X73985900Y-88961399D02*
X73985900Y-95679260D01*
X76082824Y-99426199D02*
X76659360Y-99426199D01*
X77056744Y-88961399D02*
X73985900Y-88961399D01*
X83563840Y-99426199D02*
X86259359Y-99426199D01*
X86656745Y-88961399D02*
X83966458Y-88961399D01*
X101163838Y-99426199D02*
X102140376Y-99426199D01*
X104237300Y-88961399D02*
X101566456Y-88961399D01*
X104237300Y-95679260D02*
X104237300Y-88961399D01*
D16*
%TO.C,L2*%
X88856800Y-57252952D02*
X88856800Y-56730448D01*
X91076800Y-57252952D02*
X91076800Y-56730448D01*
%TO.C,JP1*%
X74454800Y-58567600D02*
X74454800Y-57967600D01*
X75154800Y-57267600D02*
X76554800Y-57267600D01*
X76554800Y-59267600D02*
X75154800Y-59267600D01*
X77254800Y-57967600D02*
X77254800Y-58567600D01*
X74454800Y-57967600D02*
G75*
G02*
X75154800Y-57267600I700000J0D01*
G01*
X75154800Y-59267600D02*
G75*
G02*
X74454800Y-58567600I0J700000D01*
G01*
X76554800Y-57267600D02*
G75*
G02*
X77254800Y-57967600I1J-699999D01*
G01*
X77254800Y-58567600D02*
G75*
G02*
X76554800Y-59267600I-699999J-1D01*
G01*
D12*
%TO.C,U2*%
X85318600Y-76149200D02*
X85318600Y-76895259D01*
X85318600Y-77814739D02*
X85318600Y-78395261D01*
X85318600Y-79314741D02*
X85318600Y-80060800D01*
X91211400Y-76895259D02*
X91211400Y-76149200D01*
X91211400Y-78395261D02*
X91211400Y-77814739D01*
X91211400Y-80060800D02*
X91211400Y-79314741D01*
D13*
G36*
X87705499Y-75717400D02*
G01*
X87324499Y-75717400D01*
X87324499Y-75463400D01*
X87705499Y-75463400D01*
X87705499Y-75717400D01*
G37*
G36*
X90205499Y-80746600D02*
G01*
X89824499Y-80746600D01*
X89824499Y-80492600D01*
X90205499Y-80492600D01*
X90205499Y-80746600D01*
G37*
D16*
%TO.C,R6*%
X95757636Y-50954000D02*
X96211764Y-50954000D01*
X95757636Y-52424000D02*
X96211764Y-52424000D01*
%TO.C,R3*%
X84812136Y-58524640D02*
X85266264Y-58524640D01*
X84812136Y-59994640D02*
X85266264Y-59994640D01*
%TO.C,R1*%
X82983400Y-62206404D02*
X82983400Y-61752276D01*
X84453400Y-62206404D02*
X84453400Y-61752276D01*
%TO.C,R2*%
X81586400Y-58294076D02*
X81586400Y-58748204D01*
X83056400Y-58294076D02*
X83056400Y-58748204D01*
D14*
%TO.C,U5*%
X93918800Y-55173600D02*
X94088800Y-55173600D01*
X94088800Y-57273600D02*
X93918800Y-57273600D01*
D15*
X92503800Y-55473600D02*
G75*
G02*
X92303800Y-55473600I-100000J0D01*
G01*
X92303800Y-55473600D02*
G75*
G02*
X92503800Y-55473600I100000J0D01*
G01*
D16*
%TO.C,JP2*%
X88505600Y-53767000D02*
X88505600Y-53167000D01*
X89205600Y-52467000D02*
X90605600Y-52467000D01*
X90605600Y-54467000D02*
X89205600Y-54467000D01*
X91305600Y-53167000D02*
X91305600Y-53767000D01*
X88505600Y-53167000D02*
G75*
G02*
X89205600Y-52467000I700000J0D01*
G01*
X89205600Y-54467000D02*
G75*
G02*
X88505600Y-53767000I0J700000D01*
G01*
X90605600Y-52467000D02*
G75*
G02*
X91305600Y-53167000I1J-699999D01*
G01*
X91305600Y-53767000D02*
G75*
G02*
X90605600Y-54467000I-699999J-1D01*
G01*
%TO.C,C2*%
X79529000Y-58774092D02*
X79529000Y-58251588D01*
X80999000Y-58774092D02*
X80999000Y-58251588D01*
D12*
%TO.C,U1*%
X75519600Y-75971400D02*
X75519600Y-76717459D01*
X75519600Y-77636939D02*
X75519600Y-78217461D01*
X75519600Y-79136941D02*
X75519600Y-79883000D01*
X81412400Y-76717459D02*
X81412400Y-75971400D01*
X81412400Y-78217461D02*
X81412400Y-77636939D01*
X81412400Y-79883000D02*
X81412400Y-79136941D01*
D13*
G36*
X77906499Y-75539600D02*
G01*
X77525499Y-75539600D01*
X77525499Y-75285600D01*
X77906499Y-75285600D01*
X77906499Y-75539600D01*
G37*
G36*
X80406499Y-80568800D02*
G01*
X80025499Y-80568800D01*
X80025499Y-80314800D01*
X80406499Y-80314800D01*
X80406499Y-80568800D01*
G37*
D16*
%TO.C,C4*%
X92406800Y-53362452D02*
X92406800Y-52839948D01*
X93876800Y-53362452D02*
X93876800Y-52839948D01*
%TO.C,C3*%
X81322852Y-63350640D02*
X80800348Y-63350640D01*
X81322852Y-64820640D02*
X80800348Y-64820640D01*
%TD*%
M02*
