M48
; DRILL file {KiCad 9.0.1+dfsg-1} date 2025-05-01T11:04:44+0200
; FORMAT={-:-/ absolute / metric / decimal}
; #@! TF.CreationDate,2025-05-01T11:04:44+02:00
; #@! TF.GenerationSoftware,Kicad,Pcbnew,9.0.1+dfsg-1
; #@! TF.FileFunction,Plated,1,2,PTH
FMAT,2
METRIC
; #@! TA.AperFunction,Plated,PTH,ViaDrill
T1C0.300
; #@! TA.AperFunction,Plated,PTH,ComponentDrill
T2C0.400
; #@! TA.AperFunction,Plated,PTH,ComponentDrill
T3C0.750
; #@! TA.AperFunction,Plated,PTH,ComponentDrill
T4C1.500
%
G90
G05
T1
X52.385Y-42.915
X53.416Y-53.95
X53.594Y-53.061
X53.694Y-44.298
X54.194Y-52.222
X64.541Y-52.883
X64.75Y-48.389
X64.75Y-49.227
X64.75Y-50.343
X64.795Y-47.269
X64.872Y-51.58
X65.557Y-54.491
X65.565Y-53.627
X65.614Y-52.829
X66.396Y-38.71
T3
X50.421Y-37.389
X50.421Y-39.929
X50.421Y-42.469
X50.421Y-45.009
X50.421Y-47.549
X50.421Y-50.089
X50.421Y-52.629
X50.421Y-55.169
X50.421Y-57.709
X50.421Y-60.249
X69.021Y-37.389
X69.021Y-39.929
X69.021Y-42.469
X69.021Y-45.009
X69.021Y-47.549
X69.021Y-50.089
X69.021Y-52.629
X69.021Y-55.169
X69.021Y-60.249
T2
G00X53.155Y-59.57
M15
G01X53.155Y-60.47
M16
G05
G00X66.065Y-60.47
M15
G01X66.065Y-59.57
M16
G05
T4
G00X48.971Y-37.389
M15
G01X48.471Y-37.389
M16
G05
G00X48.971Y-39.929
M15
G01X48.471Y-39.929
M16
G05
G00X48.971Y-42.469
M15
G01X48.471Y-42.469
M16
G05
G00X48.971Y-45.009
M15
G01X48.471Y-45.009
M16
G05
G00X48.971Y-47.549
M15
G01X48.471Y-47.549
M16
G05
G00X48.971Y-50.089
M15
G01X48.471Y-50.089
M16
G05
G00X48.971Y-52.629
M15
G01X48.471Y-52.629
M16
G05
G00X48.971Y-55.169
M15
G01X48.471Y-55.169
M16
G05
G00X48.971Y-57.709
M15
G01X48.471Y-57.709
M16
G05
G00X48.971Y-60.249
M15
G01X48.471Y-60.249
M16
G05
G00X70.971Y-37.389
M15
G01X70.471Y-37.389
M16
G05
G00X70.971Y-39.929
M15
G01X70.471Y-39.929
M16
G05
G00X70.971Y-42.469
M15
G01X70.471Y-42.469
M16
G05
G00X70.971Y-45.009
M15
G01X70.471Y-45.009
M16
G05
G00X70.971Y-47.549
M15
G01X70.471Y-47.549
M16
G05
G00X70.971Y-50.089
M15
G01X70.471Y-50.089
M16
G05
G00X70.971Y-52.629
M15
G01X70.471Y-52.629
M16
G05
G00X70.971Y-55.169
M15
G01X70.471Y-55.169
M16
G05
G00X70.971Y-60.249
M15
G01X70.471Y-60.249
M16
G05
M30
