G04 #@! TF.GenerationSoftware,KiCad,Pcbnew,9.0.1+1*
G04 #@! TF.CreationDate,2025-11-11T08:29:29+00:00*
G04 #@! TF.ProjectId,high-efficiency_dc-dc_converter,68696768-2d65-4666-9669-6369656e6379,rev?*
G04 #@! TF.SameCoordinates,Original*
G04 #@! TF.FileFunction,Copper,L2,Bot*
G04 #@! TF.FilePolarity,Positive*
%FSLAX46Y46*%
G04 Gerber Fmt 4.6, Leading zero omitted, Abs format (unit mm)*
G04 Created by KiCad (PCBNEW 9.0.1+1) date 2025-11-11 08:29:29*
%MOMM*%
%LPD*%
G01*
G04 APERTURE LIST*
G04 #@! TA.AperFunction,CastellatedPad*
%ADD10R,2.000000X2.540000*%
G04 #@! TD*
G04 #@! TA.AperFunction,ViaPad*
%ADD11C,0.600000*%
G04 #@! TD*
G04 #@! TA.AperFunction,Conductor*
%ADD12C,1.500000*%
G04 #@! TD*
G04 #@! TA.AperFunction,Conductor*
%ADD13C,0.200000*%
G04 #@! TD*
G04 APERTURE END LIST*
D10*
X76200000Y-48655000D03*
G04 #@! TA.AperFunction,ComponentPad*
G36*
G01*
X75825000Y-46330000D02*
X76575000Y-46330000D01*
G75*
G02*
X76825000Y-46580000I0J-250000D01*
G01*
X76825000Y-47330000D01*
G75*
G02*
X76575000Y-47580000I-250000J0D01*
G01*
X75825000Y-47580000D01*
G75*
G02*
X75575000Y-47330000I0J250000D01*
G01*
X75575000Y-46580000D01*
G75*
G02*
X75825000Y-46330000I250000J0D01*
G01*
G37*
G04 #@! TD.AperFunction*
X71120000Y-48655000D03*
G04 #@! TA.AperFunction,ComponentPad*
G36*
G01*
X70745000Y-46330000D02*
X71495000Y-46330000D01*
G75*
G02*
X71745000Y-46580000I0J-250000D01*
G01*
X71745000Y-47330000D01*
G75*
G02*
X71495000Y-47580000I-250000J0D01*
G01*
X70745000Y-47580000D01*
G75*
G02*
X70495000Y-47330000I0J250000D01*
G01*
X70495000Y-46580000D01*
G75*
G02*
X70745000Y-46330000I250000J0D01*
G01*
G37*
G04 #@! TD.AperFunction*
X53340000Y-48655000D03*
G04 #@! TA.AperFunction,ComponentPad*
G36*
G01*
X52965000Y-46330000D02*
X53715000Y-46330000D01*
G75*
G02*
X53965000Y-46580000I0J-250000D01*
G01*
X53965000Y-47330000D01*
G75*
G02*
X53715000Y-47580000I-250000J0D01*
G01*
X52965000Y-47580000D01*
G75*
G02*
X52715000Y-47330000I0J250000D01*
G01*
X52715000Y-46580000D01*
G75*
G02*
X52965000Y-46330000I250000J0D01*
G01*
G37*
G04 #@! TD.AperFunction*
X50800000Y-48655000D03*
G04 #@! TA.AperFunction,ComponentPad*
G36*
G01*
X50425000Y-46330000D02*
X51175000Y-46330000D01*
G75*
G02*
X51425000Y-46580000I0J-250000D01*
G01*
X51425000Y-47330000D01*
G75*
G02*
X51175000Y-47580000I-250000J0D01*
G01*
X50425000Y-47580000D01*
G75*
G02*
X50175000Y-47330000I0J250000D01*
G01*
X50175000Y-46580000D01*
G75*
G02*
X50425000Y-46330000I250000J0D01*
G01*
G37*
G04 #@! TD.AperFunction*
G04 #@! TA.AperFunction,ComponentPad*
G36*
G01*
X75825000Y-33990000D02*
X76575000Y-33990000D01*
G75*
G02*
X76825000Y-34240000I0J-250000D01*
G01*
X76825000Y-34990000D01*
G75*
G02*
X76575000Y-35240000I-250000J0D01*
G01*
X75825000Y-35240000D01*
G75*
G02*
X75575000Y-34990000I0J250000D01*
G01*
X75575000Y-34240000D01*
G75*
G02*
X75825000Y-33990000I250000J0D01*
G01*
G37*
G04 #@! TD.AperFunction*
X76200000Y-32915000D03*
G04 #@! TA.AperFunction,ComponentPad*
G36*
G01*
X73285000Y-33990000D02*
X74035000Y-33990000D01*
G75*
G02*
X74285000Y-34240000I0J-250000D01*
G01*
X74285000Y-34990000D01*
G75*
G02*
X74035000Y-35240000I-250000J0D01*
G01*
X73285000Y-35240000D01*
G75*
G02*
X73035000Y-34990000I0J250000D01*
G01*
X73035000Y-34240000D01*
G75*
G02*
X73285000Y-33990000I250000J0D01*
G01*
G37*
G04 #@! TD.AperFunction*
X73660000Y-32915000D03*
G04 #@! TA.AperFunction,ComponentPad*
G36*
G01*
X52965000Y-33990000D02*
X53715000Y-33990000D01*
G75*
G02*
X53965000Y-34240000I0J-250000D01*
G01*
X53965000Y-34990000D01*
G75*
G02*
X53715000Y-35240000I-250000J0D01*
G01*
X52965000Y-35240000D01*
G75*
G02*
X52715000Y-34990000I0J250000D01*
G01*
X52715000Y-34240000D01*
G75*
G02*
X52965000Y-33990000I250000J0D01*
G01*
G37*
G04 #@! TD.AperFunction*
X53340000Y-32915000D03*
G04 #@! TA.AperFunction,ComponentPad*
G36*
G01*
X50425000Y-33990000D02*
X51175000Y-33990000D01*
G75*
G02*
X51425000Y-34240000I0J-250000D01*
G01*
X51425000Y-34990000D01*
G75*
G02*
X51175000Y-35240000I-250000J0D01*
G01*
X50425000Y-35240000D01*
G75*
G02*
X50175000Y-34990000I0J250000D01*
G01*
X50175000Y-34240000D01*
G75*
G02*
X50425000Y-33990000I250000J0D01*
G01*
G37*
G04 #@! TD.AperFunction*
X50800000Y-32915000D03*
D11*
X69580000Y-46200000D03*
X57430000Y-42865000D03*
X65390000Y-40410000D03*
X61595000Y-39370000D03*
X72450000Y-46560000D03*
X76350000Y-45530000D03*
X55080000Y-47020000D03*
X61595000Y-40640000D03*
X62230000Y-40005000D03*
X62865000Y-39370000D03*
X65080000Y-39550000D03*
X54250000Y-36010000D03*
X66040000Y-38100000D03*
X60890000Y-44540000D03*
X68690000Y-42190000D03*
X54480000Y-41130000D03*
X64130000Y-35120000D03*
X73025000Y-39370000D03*
X71810000Y-34550000D03*
X66070000Y-42250000D03*
X55680000Y-42840000D03*
X62865000Y-40640000D03*
X74900000Y-35860000D03*
X57270000Y-36330000D03*
X73660000Y-42545000D03*
X63290000Y-43540000D03*
X69850000Y-36195000D03*
X59330000Y-40040000D03*
X72200000Y-35360000D03*
X65150000Y-45570000D03*
X64220000Y-44030000D03*
D12*
X50800000Y-47762233D02*
X50800000Y-46990000D01*
D13*
X54620000Y-45970000D02*
X54620000Y-45960000D01*
X65150000Y-45570000D02*
X64320000Y-46400000D01*
X52105000Y-35920000D02*
X50800000Y-34615000D01*
X55050000Y-46400000D02*
X54620000Y-45970000D01*
X64320000Y-46400000D02*
X55050000Y-46400000D01*
X54620000Y-45960000D02*
X52105000Y-43445000D01*
X52105000Y-43445000D02*
X52105000Y-35920000D01*
X64220000Y-44030000D02*
X65830000Y-44030000D01*
X68755000Y-46955000D02*
X71120000Y-46955000D01*
X65830000Y-44030000D02*
X68755000Y-46955000D01*
G04 #@! TA.AperFunction,Conductor*
G36*
X72402539Y-33435185D02*
G01*
X72448294Y-33487989D01*
X72459500Y-33539500D01*
X72459500Y-34204752D01*
X72471131Y-34263229D01*
X72471132Y-34263230D01*
X72515447Y-34329552D01*
X72581769Y-34373867D01*
X72581770Y-34373868D01*
X72640247Y-34385499D01*
X72640250Y-34385500D01*
X72640252Y-34385500D01*
X72710500Y-34385500D01*
X72777539Y-34405185D01*
X72823294Y-34457989D01*
X72834500Y-34509500D01*
X72834500Y-35044269D01*
X72837353Y-35074699D01*
X72837353Y-35074701D01*
X72882206Y-35202880D01*
X72882207Y-35202882D01*
X72962850Y-35312150D01*
X73072118Y-35392793D01*
X73105123Y-35404342D01*
X73200299Y-35437646D01*
X73230730Y-35440500D01*
X73230734Y-35440500D01*
X74089270Y-35440500D01*
X74119699Y-35437646D01*
X74119701Y-35437646D01*
X74183790Y-35415219D01*
X74247882Y-35392793D01*
X74357150Y-35312150D01*
X74437793Y-35202882D01*
X74460219Y-35138790D01*
X74482646Y-35074701D01*
X74482646Y-35074699D01*
X74485500Y-35044269D01*
X74485500Y-34509500D01*
X74505185Y-34442461D01*
X74557989Y-34396706D01*
X74609500Y-34385500D01*
X74679750Y-34385500D01*
X74679751Y-34385499D01*
X74694568Y-34382552D01*
X74738229Y-34373868D01*
X74738229Y-34373867D01*
X74738231Y-34373867D01*
X74804552Y-34329552D01*
X74826898Y-34296108D01*
X74880510Y-34251304D01*
X74949834Y-34242597D01*
X75012862Y-34272751D01*
X75033100Y-34296106D01*
X75055448Y-34329552D01*
X75121769Y-34373867D01*
X75121770Y-34373868D01*
X75180247Y-34385499D01*
X75180250Y-34385500D01*
X75180252Y-34385500D01*
X75250500Y-34385500D01*
X75317539Y-34405185D01*
X75363294Y-34457989D01*
X75374500Y-34509500D01*
X75374500Y-35044269D01*
X75377353Y-35074699D01*
X75377353Y-35074701D01*
X75422206Y-35202880D01*
X75422207Y-35202882D01*
X75502850Y-35312150D01*
X75612118Y-35392793D01*
X75645123Y-35404342D01*
X75740299Y-35437646D01*
X75770730Y-35440500D01*
X75770734Y-35440500D01*
X76629270Y-35440500D01*
X76659699Y-35437646D01*
X76659701Y-35437646D01*
X76759970Y-35402559D01*
X76787882Y-35392793D01*
X76787882Y-35392792D01*
X76796652Y-35389724D01*
X76797106Y-35391022D01*
X76856022Y-35379040D01*
X76921149Y-35404342D01*
X76962259Y-35460839D01*
X76969500Y-35502593D01*
X76969500Y-46067406D01*
X76949815Y-46134445D01*
X76897011Y-46180200D01*
X76827853Y-46190144D01*
X76796740Y-46180024D01*
X76796652Y-46180276D01*
X76659700Y-46132353D01*
X76629270Y-46129500D01*
X76629266Y-46129500D01*
X75770734Y-46129500D01*
X75770730Y-46129500D01*
X75740300Y-46132353D01*
X75740298Y-46132353D01*
X75612119Y-46177206D01*
X75612117Y-46177207D01*
X75502850Y-46257850D01*
X75422207Y-46367117D01*
X75422206Y-46367119D01*
X75377353Y-46495298D01*
X75377353Y-46495300D01*
X75374500Y-46525730D01*
X75374500Y-47060500D01*
X75354815Y-47127539D01*
X75302011Y-47173294D01*
X75250500Y-47184500D01*
X75180247Y-47184500D01*
X75121770Y-47196131D01*
X75121769Y-47196132D01*
X75055447Y-47240447D01*
X75011132Y-47306769D01*
X75011131Y-47306770D01*
X74999500Y-47365247D01*
X74999500Y-48030500D01*
X74979815Y-48097539D01*
X74927011Y-48143294D01*
X74875500Y-48154500D01*
X72444500Y-48154500D01*
X72377461Y-48134815D01*
X72331706Y-48082011D01*
X72320500Y-48030500D01*
X72320500Y-47365249D01*
X72320499Y-47365247D01*
X72308868Y-47306770D01*
X72308867Y-47306769D01*
X72264552Y-47240447D01*
X72198230Y-47196132D01*
X72198229Y-47196131D01*
X72139752Y-47184500D01*
X72139748Y-47184500D01*
X72069500Y-47184500D01*
X72002461Y-47164815D01*
X71956706Y-47112011D01*
X71945500Y-47060500D01*
X71945500Y-46525730D01*
X71942646Y-46495300D01*
X71942646Y-46495298D01*
X71897793Y-46367119D01*
X71897792Y-46367117D01*
X71817150Y-46257850D01*
X71707882Y-46177207D01*
X71707880Y-46177206D01*
X71579700Y-46132353D01*
X71549270Y-46129500D01*
X71549266Y-46129500D01*
X70690734Y-46129500D01*
X70690730Y-46129500D01*
X70660300Y-46132353D01*
X70660298Y-46132353D01*
X70532119Y-46177206D01*
X70532117Y-46177207D01*
X70422850Y-46257850D01*
X70342207Y-46367117D01*
X70342206Y-46367119D01*
X70297353Y-46495298D01*
X70297353Y-46495300D01*
X70294500Y-46525730D01*
X70294500Y-46530500D01*
X70274815Y-46597539D01*
X70222011Y-46643294D01*
X70170500Y-46654500D01*
X68930833Y-46654500D01*
X68863794Y-46634815D01*
X68843152Y-46618181D01*
X66014512Y-43789541D01*
X66014507Y-43789537D01*
X66005065Y-43784086D01*
X66005064Y-43784086D01*
X65945991Y-43749980D01*
X65945990Y-43749979D01*
X65920513Y-43743152D01*
X65869562Y-43729500D01*
X65869560Y-43729500D01*
X64678676Y-43729500D01*
X64611637Y-43709815D01*
X64590995Y-43693181D01*
X64527316Y-43629502D01*
X64527314Y-43629500D01*
X64470250Y-43596554D01*
X64413187Y-43563608D01*
X64349539Y-43546554D01*
X64285892Y-43529500D01*
X64154108Y-43529500D01*
X64026812Y-43563608D01*
X63912686Y-43629500D01*
X63912683Y-43629502D01*
X63819502Y-43722683D01*
X63819500Y-43722686D01*
X63753608Y-43836812D01*
X63719500Y-43964108D01*
X63719500Y-44095891D01*
X63753608Y-44223187D01*
X63786554Y-44280250D01*
X63819500Y-44337314D01*
X63912686Y-44430500D01*
X64026814Y-44496392D01*
X64154108Y-44530500D01*
X64154110Y-44530500D01*
X64285890Y-44530500D01*
X64285892Y-44530500D01*
X64413186Y-44496392D01*
X64527314Y-44430500D01*
X64590995Y-44366819D01*
X64652318Y-44333334D01*
X64678676Y-44330500D01*
X65654167Y-44330500D01*
X65721206Y-44350185D01*
X65741848Y-44366819D01*
X68570489Y-47195460D01*
X68629829Y-47229720D01*
X68634302Y-47232303D01*
X68639012Y-47235022D01*
X68715438Y-47255500D01*
X69795500Y-47255500D01*
X69862539Y-47275185D01*
X69908294Y-47327989D01*
X69919500Y-47379500D01*
X69919500Y-48030500D01*
X69899815Y-48097539D01*
X69847011Y-48143294D01*
X69795500Y-48154500D01*
X54664500Y-48154500D01*
X54597461Y-48134815D01*
X54551706Y-48082011D01*
X54540500Y-48030500D01*
X54540500Y-47365249D01*
X54540499Y-47365247D01*
X54528868Y-47306770D01*
X54528867Y-47306769D01*
X54484552Y-47240447D01*
X54418230Y-47196132D01*
X54418229Y-47196131D01*
X54359752Y-47184500D01*
X54359748Y-47184500D01*
X54289500Y-47184500D01*
X54222461Y-47164815D01*
X54176706Y-47112011D01*
X54165500Y-47060500D01*
X54165500Y-46525730D01*
X54162646Y-46495300D01*
X54162646Y-46495298D01*
X54117793Y-46367119D01*
X54117792Y-46367117D01*
X54037150Y-46257850D01*
X53927882Y-46177207D01*
X53927880Y-46177206D01*
X53799700Y-46132353D01*
X53769270Y-46129500D01*
X53769266Y-46129500D01*
X52910734Y-46129500D01*
X52910730Y-46129500D01*
X52880300Y-46132353D01*
X52880298Y-46132353D01*
X52752119Y-46177206D01*
X52752117Y-46177207D01*
X52642850Y-46257850D01*
X52562207Y-46367117D01*
X52562206Y-46367119D01*
X52517353Y-46495298D01*
X52517353Y-46495300D01*
X52514500Y-46525730D01*
X52514500Y-47060500D01*
X52494815Y-47127539D01*
X52442011Y-47173294D01*
X52417831Y-47181450D01*
X52404334Y-47184500D01*
X52320252Y-47184500D01*
X52261769Y-47196133D01*
X52215226Y-47227232D01*
X52192787Y-47232303D01*
X52183488Y-47231713D01*
X52175185Y-47269883D01*
X52169456Y-47279346D01*
X52151132Y-47306770D01*
X52151131Y-47306770D01*
X52139500Y-47365247D01*
X52139500Y-47617690D01*
X52119815Y-47684729D01*
X52103181Y-47705371D01*
X51690371Y-48118181D01*
X51629048Y-48151666D01*
X51602690Y-48154500D01*
X51508034Y-48154500D01*
X51464641Y-48049742D01*
X51382563Y-47926903D01*
X51278553Y-47822893D01*
X51978672Y-47122775D01*
X52039995Y-47089290D01*
X52045139Y-47089657D01*
X52051496Y-47075052D01*
X52056150Y-47052803D01*
X52065173Y-47043633D01*
X52070309Y-47031835D01*
X52077775Y-47023671D01*
X52109405Y-46992040D01*
X52042088Y-46941647D01*
X52005664Y-46928061D01*
X51949731Y-46886190D01*
X51925315Y-46820725D01*
X51924999Y-46811880D01*
X51924999Y-46530028D01*
X51924998Y-46530013D01*
X51914505Y-46427302D01*
X51859357Y-46260875D01*
X51854900Y-46253650D01*
X51175000Y-46933550D01*
X51175000Y-46905630D01*
X51149444Y-46810255D01*
X51100075Y-46724745D01*
X51030255Y-46654925D01*
X50944745Y-46605556D01*
X50849370Y-46580000D01*
X50821446Y-46580000D01*
X51501347Y-45900099D01*
X51494124Y-45895643D01*
X51494119Y-45895641D01*
X51327697Y-45840494D01*
X51327690Y-45840493D01*
X51224980Y-45830000D01*
X50375028Y-45830000D01*
X50375012Y-45830001D01*
X50272301Y-45840494D01*
X50193503Y-45866605D01*
X50123675Y-45869007D01*
X50063633Y-45833275D01*
X50032441Y-45770754D01*
X50030500Y-45748899D01*
X50030500Y-35502593D01*
X50050185Y-35435554D01*
X50102989Y-35389799D01*
X50172147Y-35379855D01*
X50203259Y-35389976D01*
X50203348Y-35389724D01*
X50212117Y-35392792D01*
X50212118Y-35392793D01*
X50240029Y-35402559D01*
X50340299Y-35437646D01*
X50370730Y-35440500D01*
X50370734Y-35440500D01*
X51149167Y-35440500D01*
X51216206Y-35460185D01*
X51236848Y-35476819D01*
X51768181Y-36008152D01*
X51801666Y-36069475D01*
X51804500Y-36095833D01*
X51804500Y-43484562D01*
X51814739Y-43522775D01*
X51824979Y-43560991D01*
X51824980Y-43560992D01*
X51863775Y-43628186D01*
X51864456Y-43629399D01*
X51864538Y-43629509D01*
X54354335Y-46119306D01*
X54374041Y-46144987D01*
X54379537Y-46154507D01*
X54379539Y-46154510D01*
X54379540Y-46154511D01*
X54809540Y-46584511D01*
X54865489Y-46640460D01*
X54865491Y-46640461D01*
X54865495Y-46640464D01*
X54890543Y-46654925D01*
X54934011Y-46680021D01*
X55010438Y-46700500D01*
X55010440Y-46700500D01*
X64359560Y-46700500D01*
X64359562Y-46700500D01*
X64435989Y-46680021D01*
X64504511Y-46640460D01*
X64560460Y-46584511D01*
X65038151Y-46106818D01*
X65099474Y-46073334D01*
X65125832Y-46070500D01*
X65215890Y-46070500D01*
X65215892Y-46070500D01*
X65343186Y-46036392D01*
X65457314Y-45970500D01*
X65550500Y-45877314D01*
X65616392Y-45763186D01*
X65650500Y-45635892D01*
X65650500Y-45504108D01*
X65616392Y-45376814D01*
X65550500Y-45262686D01*
X65457314Y-45169500D01*
X65400250Y-45136554D01*
X65343187Y-45103608D01*
X65279539Y-45086554D01*
X65215892Y-45069500D01*
X65084108Y-45069500D01*
X64956812Y-45103608D01*
X64842686Y-45169500D01*
X64842683Y-45169502D01*
X64749502Y-45262683D01*
X64749500Y-45262686D01*
X64683608Y-45376812D01*
X64649500Y-45504108D01*
X64649500Y-45594166D01*
X64629815Y-45661205D01*
X64613181Y-45681847D01*
X64231848Y-46063181D01*
X64170525Y-46096666D01*
X64144167Y-46099500D01*
X55225833Y-46099500D01*
X55158794Y-46079815D01*
X55138152Y-46063181D01*
X54885664Y-45810693D01*
X54865959Y-45785014D01*
X54860460Y-45775489D01*
X54804511Y-45719540D01*
X52441819Y-43356848D01*
X52408334Y-43295525D01*
X52405500Y-43269167D01*
X52405500Y-35880440D01*
X52405500Y-35880438D01*
X52385022Y-35804012D01*
X52345460Y-35735489D01*
X51661819Y-35051848D01*
X51628334Y-34990525D01*
X51625500Y-34964167D01*
X51625500Y-34509500D01*
X51645185Y-34442461D01*
X51697989Y-34396706D01*
X51749500Y-34385500D01*
X51819750Y-34385500D01*
X51819751Y-34385499D01*
X51834568Y-34382552D01*
X51878229Y-34373868D01*
X51878229Y-34373867D01*
X51878231Y-34373867D01*
X51944552Y-34329552D01*
X51966898Y-34296108D01*
X52020510Y-34251304D01*
X52089834Y-34242597D01*
X52152862Y-34272751D01*
X52173100Y-34296106D01*
X52195448Y-34329552D01*
X52261769Y-34373867D01*
X52261770Y-34373868D01*
X52320247Y-34385499D01*
X52320250Y-34385500D01*
X52320252Y-34385500D01*
X52390500Y-34385500D01*
X52457539Y-34405185D01*
X52503294Y-34457989D01*
X52514500Y-34509500D01*
X52514500Y-35044269D01*
X52517353Y-35074699D01*
X52517353Y-35074701D01*
X52562206Y-35202880D01*
X52562207Y-35202882D01*
X52642850Y-35312150D01*
X52752118Y-35392793D01*
X52785123Y-35404342D01*
X52880299Y-35437646D01*
X52910730Y-35440500D01*
X52910734Y-35440500D01*
X53769270Y-35440500D01*
X53799699Y-35437646D01*
X53799701Y-35437646D01*
X53863790Y-35415219D01*
X53927882Y-35392793D01*
X54037150Y-35312150D01*
X54117793Y-35202882D01*
X54140219Y-35138790D01*
X54162646Y-35074701D01*
X54162646Y-35074699D01*
X54165500Y-35044269D01*
X54165500Y-34509500D01*
X54185185Y-34442461D01*
X54237989Y-34396706D01*
X54289500Y-34385500D01*
X54359750Y-34385500D01*
X54359751Y-34385499D01*
X54374568Y-34382552D01*
X54418229Y-34373868D01*
X54418229Y-34373867D01*
X54418231Y-34373867D01*
X54484552Y-34329552D01*
X54528867Y-34263231D01*
X54528867Y-34263229D01*
X54528868Y-34263229D01*
X54540499Y-34204752D01*
X54540500Y-34204750D01*
X54540500Y-33539500D01*
X54560185Y-33472461D01*
X54612989Y-33426706D01*
X54664500Y-33415500D01*
X72335500Y-33415500D01*
X72402539Y-33435185D01*
G37*
G04 #@! TD.AperFunction*
M02*
