M48
; DRILL file {KiCad 9.0.1+1} date 2025-11-12T15:34:44+0000
; FORMAT={-:-/ absolute / inch / decimal}
; #@! TF.CreationDate,2025-11-12T15:34:44+00:00
; #@! TF.GenerationSoftware,Kicad,Pcbnew,9.0.1+1
; #@! TF.FileFunction,Plated,1,2,PTH
FMAT,2
INCH
; #@! TA.AperFunction,Plated,PTH,ViaDrill
T1C0.0118
; #@! TA.AperFunction,Plated,PTH,ComponentDrill
T2C0.0295
; #@! TA.AperFunction,Plated,PTH,ComponentDrill
T3C0.0591
%
G90
G05
T1
X2.1358Y-1.4177
X2.1449Y-1.6193
X2.1685Y-1.8512
X2.1921Y-1.6866
X2.2547Y-1.4303
X2.261Y-1.6876
X2.3358Y-1.5764
X2.3972Y-1.7535
X2.425Y-1.55
X2.425Y-1.6
X2.45Y-1.575
X2.475Y-1.55
X2.475Y-1.6
X2.4917Y-1.7142
X2.5248Y-1.3827
X2.5283Y-1.7335
X2.5622Y-1.5571
X2.565Y-1.7941
X2.5744Y-1.5909
X2.6Y-1.5
X2.6012Y-1.6634
X2.7043Y-1.661
X2.7394Y-1.8189
X2.75Y-1.425
X2.8272Y-1.3602
X2.8425Y-1.3921
X2.8524Y-1.8331
X2.875Y-1.55
X2.9Y-1.675
X2.9488Y-1.4118
X3.0059Y-1.7925
T2
X2.0Y-1.3628
X2.0Y-1.8486
X2.1Y-1.3628
X2.1Y-1.8486
X2.8Y-1.8486
X2.9Y-1.3628
X3.0Y-1.3628
X3.0Y-1.8486
T3
G00X2.0Y-1.3057
M15
G01X2.0Y-1.286
M16
G05
G00X2.0Y-1.9254
M15
G01X2.0Y-1.9057
M16
G05
G00X2.1Y-1.3057
M15
G01X2.1Y-1.286
M16
G05
G00X2.1Y-1.9254
M15
G01X2.1Y-1.9057
M16
G05
G00X2.8Y-1.9254
M15
G01X2.8Y-1.9057
M16
G05
G00X2.9Y-1.3057
M15
G01X2.9Y-1.286
M16
G05
G00X3.0Y-1.3057
M15
G01X3.0Y-1.286
M16
G05
G00X3.0Y-1.9254
M15
G01X3.0Y-1.9057
M16
G05
M30
