G04 #@! TF.GenerationSoftware,KiCad,Pcbnew,9.0.1+1*
G04 #@! TF.CreationDate,2025-11-11T08:29:29+00:00*
G04 #@! TF.ProjectId,high-efficiency_dc-dc_converter,68696768-2d65-4666-9669-6369656e6379,rev?*
G04 #@! TF.SameCoordinates,Original*
G04 #@! TF.FileFunction,Copper,L1,Top*
G04 #@! TF.FilePolarity,Positive*
%FSLAX46Y46*%
G04 Gerber Fmt 4.6, Leading zero omitted, Abs format (unit mm)*
G04 Created by KiCad (PCBNEW 9.0.1+1) date 2025-11-11 08:29:29*
%MOMM*%
%LPD*%
G01*
G04 APERTURE LIST*
G04 #@! TA.AperFunction,SMDPad,CuDef*
%ADD10R,2.640000X2.640000*%
G04 #@! TD*
G04 #@! TA.AperFunction,CastellatedPad*
%ADD11R,2.000000X2.540000*%
G04 #@! TD*
G04 #@! TA.AperFunction,ViaPad*
%ADD12C,0.600000*%
G04 #@! TD*
G04 #@! TA.AperFunction,Conductor*
%ADD13C,0.500000*%
G04 #@! TD*
G04 #@! TA.AperFunction,Conductor*
%ADD14C,1.000000*%
G04 #@! TD*
G04 #@! TA.AperFunction,Conductor*
%ADD15C,0.200000*%
G04 #@! TD*
G04 #@! TA.AperFunction,Conductor*
%ADD16C,0.750000*%
G04 #@! TD*
G04 APERTURE END LIST*
G04 #@! TA.AperFunction,SMDPad,CuDef*
G36*
G01*
X58895000Y-45265000D02*
X57945000Y-45265000D01*
G75*
G02*
X57695000Y-45015000I0J250000D01*
G01*
X57695000Y-44515000D01*
G75*
G02*
X57945000Y-44265000I250000J0D01*
G01*
X58895000Y-44265000D01*
G75*
G02*
X59145000Y-44515000I0J-250000D01*
G01*
X59145000Y-45015000D01*
G75*
G02*
X58895000Y-45265000I-250000J0D01*
G01*
G37*
G04 #@! TD.AperFunction*
G04 #@! TA.AperFunction,SMDPad,CuDef*
G36*
G01*
X58895000Y-43365000D02*
X57945000Y-43365000D01*
G75*
G02*
X57695000Y-43115000I0J250000D01*
G01*
X57695000Y-42615000D01*
G75*
G02*
X57945000Y-42365000I250000J0D01*
G01*
X58895000Y-42365000D01*
G75*
G02*
X59145000Y-42615000I0J-250000D01*
G01*
X59145000Y-43115000D01*
G75*
G02*
X58895000Y-43365000I-250000J0D01*
G01*
G37*
G04 #@! TD.AperFunction*
G04 #@! TA.AperFunction,SMDPad,CuDef*
G36*
G01*
X71480000Y-40685000D02*
X72030000Y-40685000D01*
G75*
G02*
X72230000Y-40885000I0J-200000D01*
G01*
X72230000Y-41285000D01*
G75*
G02*
X72030000Y-41485000I-200000J0D01*
G01*
X71480000Y-41485000D01*
G75*
G02*
X71280000Y-41285000I0J200000D01*
G01*
X71280000Y-40885000D01*
G75*
G02*
X71480000Y-40685000I200000J0D01*
G01*
G37*
G04 #@! TD.AperFunction*
G04 #@! TA.AperFunction,SMDPad,CuDef*
G36*
G01*
X71480000Y-42335000D02*
X72030000Y-42335000D01*
G75*
G02*
X72230000Y-42535000I0J-200000D01*
G01*
X72230000Y-42935000D01*
G75*
G02*
X72030000Y-43135000I-200000J0D01*
G01*
X71480000Y-43135000D01*
G75*
G02*
X71280000Y-42935000I0J200000D01*
G01*
X71280000Y-42535000D01*
G75*
G02*
X71480000Y-42335000I200000J0D01*
G01*
G37*
G04 #@! TD.AperFunction*
G04 #@! TA.AperFunction,SMDPad,CuDef*
G36*
G01*
X59885000Y-39346250D02*
X59885000Y-39143750D01*
G75*
G02*
X59918750Y-39110000I33750J0D01*
G01*
X60681250Y-39110000D01*
G75*
G02*
X60715000Y-39143750I0J-33750D01*
G01*
X60715000Y-39346250D01*
G75*
G02*
X60681250Y-39380000I-33750J0D01*
G01*
X59918750Y-39380000D01*
G75*
G02*
X59885000Y-39346250I0J33750D01*
G01*
G37*
G04 #@! TD.AperFunction*
G04 #@! TA.AperFunction,SMDPad,CuDef*
G36*
G01*
X59885000Y-39846250D02*
X59885000Y-39643750D01*
G75*
G02*
X59918750Y-39610000I33750J0D01*
G01*
X60681250Y-39610000D01*
G75*
G02*
X60715000Y-39643750I0J-33750D01*
G01*
X60715000Y-39846250D01*
G75*
G02*
X60681250Y-39880000I-33750J0D01*
G01*
X59918750Y-39880000D01*
G75*
G02*
X59885000Y-39846250I0J33750D01*
G01*
G37*
G04 #@! TD.AperFunction*
G04 #@! TA.AperFunction,SMDPad,CuDef*
G36*
G01*
X59885000Y-40346250D02*
X59885000Y-40143750D01*
G75*
G02*
X59918750Y-40110000I33750J0D01*
G01*
X60681250Y-40110000D01*
G75*
G02*
X60715000Y-40143750I0J-33750D01*
G01*
X60715000Y-40346250D01*
G75*
G02*
X60681250Y-40380000I-33750J0D01*
G01*
X59918750Y-40380000D01*
G75*
G02*
X59885000Y-40346250I0J33750D01*
G01*
G37*
G04 #@! TD.AperFunction*
G04 #@! TA.AperFunction,SMDPad,CuDef*
G36*
G01*
X59885000Y-40846250D02*
X59885000Y-40643750D01*
G75*
G02*
X59918750Y-40610000I33750J0D01*
G01*
X60681250Y-40610000D01*
G75*
G02*
X60715000Y-40643750I0J-33750D01*
G01*
X60715000Y-40846250D01*
G75*
G02*
X60681250Y-40880000I-33750J0D01*
G01*
X59918750Y-40880000D01*
G75*
G02*
X59885000Y-40846250I0J33750D01*
G01*
G37*
G04 #@! TD.AperFunction*
G04 #@! TA.AperFunction,SMDPad,CuDef*
G36*
G01*
X59885000Y-41346250D02*
X59885000Y-41143750D01*
G75*
G02*
X59918750Y-41110000I33750J0D01*
G01*
X60681250Y-41110000D01*
G75*
G02*
X60715000Y-41143750I0J-33750D01*
G01*
X60715000Y-41346250D01*
G75*
G02*
X60681250Y-41380000I-33750J0D01*
G01*
X59918750Y-41380000D01*
G75*
G02*
X59885000Y-41346250I0J33750D01*
G01*
G37*
G04 #@! TD.AperFunction*
G04 #@! TA.AperFunction,SMDPad,CuDef*
G36*
G01*
X61100000Y-42561250D02*
X61100000Y-41798750D01*
G75*
G02*
X61133750Y-41765000I33750J0D01*
G01*
X61336250Y-41765000D01*
G75*
G02*
X61370000Y-41798750I0J-33750D01*
G01*
X61370000Y-42561250D01*
G75*
G02*
X61336250Y-42595000I-33750J0D01*
G01*
X61133750Y-42595000D01*
G75*
G02*
X61100000Y-42561250I0J33750D01*
G01*
G37*
G04 #@! TD.AperFunction*
G04 #@! TA.AperFunction,SMDPad,CuDef*
G36*
G01*
X61600000Y-42561250D02*
X61600000Y-41798750D01*
G75*
G02*
X61633750Y-41765000I33750J0D01*
G01*
X61836250Y-41765000D01*
G75*
G02*
X61870000Y-41798750I0J-33750D01*
G01*
X61870000Y-42561250D01*
G75*
G02*
X61836250Y-42595000I-33750J0D01*
G01*
X61633750Y-42595000D01*
G75*
G02*
X61600000Y-42561250I0J33750D01*
G01*
G37*
G04 #@! TD.AperFunction*
G04 #@! TA.AperFunction,SMDPad,CuDef*
G36*
G01*
X62100000Y-42561250D02*
X62100000Y-41798750D01*
G75*
G02*
X62133750Y-41765000I33750J0D01*
G01*
X62336250Y-41765000D01*
G75*
G02*
X62370000Y-41798750I0J-33750D01*
G01*
X62370000Y-42561250D01*
G75*
G02*
X62336250Y-42595000I-33750J0D01*
G01*
X62133750Y-42595000D01*
G75*
G02*
X62100000Y-42561250I0J33750D01*
G01*
G37*
G04 #@! TD.AperFunction*
G04 #@! TA.AperFunction,SMDPad,CuDef*
G36*
G01*
X62600000Y-42561250D02*
X62600000Y-41798750D01*
G75*
G02*
X62633750Y-41765000I33750J0D01*
G01*
X62836250Y-41765000D01*
G75*
G02*
X62870000Y-41798750I0J-33750D01*
G01*
X62870000Y-42561250D01*
G75*
G02*
X62836250Y-42595000I-33750J0D01*
G01*
X62633750Y-42595000D01*
G75*
G02*
X62600000Y-42561250I0J33750D01*
G01*
G37*
G04 #@! TD.AperFunction*
G04 #@! TA.AperFunction,SMDPad,CuDef*
G36*
G01*
X63100000Y-42561250D02*
X63100000Y-41798750D01*
G75*
G02*
X63133750Y-41765000I33750J0D01*
G01*
X63336250Y-41765000D01*
G75*
G02*
X63370000Y-41798750I0J-33750D01*
G01*
X63370000Y-42561250D01*
G75*
G02*
X63336250Y-42595000I-33750J0D01*
G01*
X63133750Y-42595000D01*
G75*
G02*
X63100000Y-42561250I0J33750D01*
G01*
G37*
G04 #@! TD.AperFunction*
G04 #@! TA.AperFunction,SMDPad,CuDef*
G36*
G01*
X63755000Y-41346250D02*
X63755000Y-41143750D01*
G75*
G02*
X63788750Y-41110000I33750J0D01*
G01*
X64551250Y-41110000D01*
G75*
G02*
X64585000Y-41143750I0J-33750D01*
G01*
X64585000Y-41346250D01*
G75*
G02*
X64551250Y-41380000I-33750J0D01*
G01*
X63788750Y-41380000D01*
G75*
G02*
X63755000Y-41346250I0J33750D01*
G01*
G37*
G04 #@! TD.AperFunction*
G04 #@! TA.AperFunction,SMDPad,CuDef*
G36*
G01*
X63755000Y-40846250D02*
X63755000Y-40643750D01*
G75*
G02*
X63788750Y-40610000I33750J0D01*
G01*
X64551250Y-40610000D01*
G75*
G02*
X64585000Y-40643750I0J-33750D01*
G01*
X64585000Y-40846250D01*
G75*
G02*
X64551250Y-40880000I-33750J0D01*
G01*
X63788750Y-40880000D01*
G75*
G02*
X63755000Y-40846250I0J33750D01*
G01*
G37*
G04 #@! TD.AperFunction*
G04 #@! TA.AperFunction,SMDPad,CuDef*
G36*
G01*
X63755000Y-40346250D02*
X63755000Y-40143750D01*
G75*
G02*
X63788750Y-40110000I33750J0D01*
G01*
X64551250Y-40110000D01*
G75*
G02*
X64585000Y-40143750I0J-33750D01*
G01*
X64585000Y-40346250D01*
G75*
G02*
X64551250Y-40380000I-33750J0D01*
G01*
X63788750Y-40380000D01*
G75*
G02*
X63755000Y-40346250I0J33750D01*
G01*
G37*
G04 #@! TD.AperFunction*
G04 #@! TA.AperFunction,SMDPad,CuDef*
G36*
G01*
X63755000Y-39846250D02*
X63755000Y-39643750D01*
G75*
G02*
X63788750Y-39610000I33750J0D01*
G01*
X64551250Y-39610000D01*
G75*
G02*
X64585000Y-39643750I0J-33750D01*
G01*
X64585000Y-39846250D01*
G75*
G02*
X64551250Y-39880000I-33750J0D01*
G01*
X63788750Y-39880000D01*
G75*
G02*
X63755000Y-39846250I0J33750D01*
G01*
G37*
G04 #@! TD.AperFunction*
G04 #@! TA.AperFunction,SMDPad,CuDef*
G36*
G01*
X63755000Y-39346250D02*
X63755000Y-39143750D01*
G75*
G02*
X63788750Y-39110000I33750J0D01*
G01*
X64551250Y-39110000D01*
G75*
G02*
X64585000Y-39143750I0J-33750D01*
G01*
X64585000Y-39346250D01*
G75*
G02*
X64551250Y-39380000I-33750J0D01*
G01*
X63788750Y-39380000D01*
G75*
G02*
X63755000Y-39346250I0J33750D01*
G01*
G37*
G04 #@! TD.AperFunction*
G04 #@! TA.AperFunction,SMDPad,CuDef*
G36*
G01*
X63100000Y-38691250D02*
X63100000Y-37928750D01*
G75*
G02*
X63133750Y-37895000I33750J0D01*
G01*
X63336250Y-37895000D01*
G75*
G02*
X63370000Y-37928750I0J-33750D01*
G01*
X63370000Y-38691250D01*
G75*
G02*
X63336250Y-38725000I-33750J0D01*
G01*
X63133750Y-38725000D01*
G75*
G02*
X63100000Y-38691250I0J33750D01*
G01*
G37*
G04 #@! TD.AperFunction*
G04 #@! TA.AperFunction,SMDPad,CuDef*
G36*
G01*
X62600000Y-38691250D02*
X62600000Y-37928750D01*
G75*
G02*
X62633750Y-37895000I33750J0D01*
G01*
X62836250Y-37895000D01*
G75*
G02*
X62870000Y-37928750I0J-33750D01*
G01*
X62870000Y-38691250D01*
G75*
G02*
X62836250Y-38725000I-33750J0D01*
G01*
X62633750Y-38725000D01*
G75*
G02*
X62600000Y-38691250I0J33750D01*
G01*
G37*
G04 #@! TD.AperFunction*
G04 #@! TA.AperFunction,SMDPad,CuDef*
G36*
G01*
X62100000Y-38691250D02*
X62100000Y-37928750D01*
G75*
G02*
X62133750Y-37895000I33750J0D01*
G01*
X62336250Y-37895000D01*
G75*
G02*
X62370000Y-37928750I0J-33750D01*
G01*
X62370000Y-38691250D01*
G75*
G02*
X62336250Y-38725000I-33750J0D01*
G01*
X62133750Y-38725000D01*
G75*
G02*
X62100000Y-38691250I0J33750D01*
G01*
G37*
G04 #@! TD.AperFunction*
G04 #@! TA.AperFunction,SMDPad,CuDef*
G36*
G01*
X61600000Y-38691250D02*
X61600000Y-37928750D01*
G75*
G02*
X61633750Y-37895000I33750J0D01*
G01*
X61836250Y-37895000D01*
G75*
G02*
X61870000Y-37928750I0J-33750D01*
G01*
X61870000Y-38691250D01*
G75*
G02*
X61836250Y-38725000I-33750J0D01*
G01*
X61633750Y-38725000D01*
G75*
G02*
X61600000Y-38691250I0J33750D01*
G01*
G37*
G04 #@! TD.AperFunction*
G04 #@! TA.AperFunction,SMDPad,CuDef*
G36*
G01*
X61100000Y-38691250D02*
X61100000Y-37928750D01*
G75*
G02*
X61133750Y-37895000I33750J0D01*
G01*
X61336250Y-37895000D01*
G75*
G02*
X61370000Y-37928750I0J-33750D01*
G01*
X61370000Y-38691250D01*
G75*
G02*
X61336250Y-38725000I-33750J0D01*
G01*
X61133750Y-38725000D01*
G75*
G02*
X61100000Y-38691250I0J33750D01*
G01*
G37*
G04 #@! TD.AperFunction*
D10*
X62235000Y-40245000D03*
G04 #@! TA.AperFunction,SMDPad,CuDef*
G36*
G01*
X55085000Y-45265000D02*
X54135000Y-45265000D01*
G75*
G02*
X53885000Y-45015000I0J250000D01*
G01*
X53885000Y-44515000D01*
G75*
G02*
X54135000Y-44265000I250000J0D01*
G01*
X55085000Y-44265000D01*
G75*
G02*
X55335000Y-44515000I0J-250000D01*
G01*
X55335000Y-45015000D01*
G75*
G02*
X55085000Y-45265000I-250000J0D01*
G01*
G37*
G04 #@! TD.AperFunction*
G04 #@! TA.AperFunction,SMDPad,CuDef*
G36*
G01*
X55085000Y-43365000D02*
X54135000Y-43365000D01*
G75*
G02*
X53885000Y-43115000I0J250000D01*
G01*
X53885000Y-42615000D01*
G75*
G02*
X54135000Y-42365000I250000J0D01*
G01*
X55085000Y-42365000D01*
G75*
G02*
X55335000Y-42615000I0J-250000D01*
G01*
X55335000Y-43115000D01*
G75*
G02*
X55085000Y-43365000I-250000J0D01*
G01*
G37*
G04 #@! TD.AperFunction*
G04 #@! TA.AperFunction,SMDPad,CuDef*
G36*
G01*
X60505000Y-35720000D02*
X60505000Y-36670000D01*
G75*
G02*
X60255000Y-36920000I-250000J0D01*
G01*
X59755000Y-36920000D01*
G75*
G02*
X59505000Y-36670000I0J250000D01*
G01*
X59505000Y-35720000D01*
G75*
G02*
X59755000Y-35470000I250000J0D01*
G01*
X60255000Y-35470000D01*
G75*
G02*
X60505000Y-35720000I0J-250000D01*
G01*
G37*
G04 #@! TD.AperFunction*
G04 #@! TA.AperFunction,SMDPad,CuDef*
G36*
G01*
X58605000Y-35720000D02*
X58605000Y-36670000D01*
G75*
G02*
X58355000Y-36920000I-250000J0D01*
G01*
X57855000Y-36920000D01*
G75*
G02*
X57605000Y-36670000I0J250000D01*
G01*
X57605000Y-35720000D01*
G75*
G02*
X57855000Y-35470000I250000J0D01*
G01*
X58355000Y-35470000D01*
G75*
G02*
X58605000Y-35720000I0J-250000D01*
G01*
G37*
G04 #@! TD.AperFunction*
G04 #@! TA.AperFunction,SMDPad,CuDef*
G36*
X69170000Y-44000000D02*
G01*
X68670000Y-44000000D01*
X68670000Y-43995722D01*
X68604737Y-43995722D01*
X68478658Y-43961940D01*
X68365619Y-43896677D01*
X68273323Y-43804381D01*
X68208060Y-43691342D01*
X68174278Y-43565263D01*
X68174278Y-43500000D01*
X68170000Y-43500000D01*
X68170000Y-43000000D01*
X68174278Y-43000000D01*
X68174278Y-42934737D01*
X68208060Y-42808658D01*
X68273323Y-42695619D01*
X68365619Y-42603323D01*
X68478658Y-42538060D01*
X68604737Y-42504278D01*
X68670000Y-42504278D01*
X68670000Y-42500000D01*
X69170000Y-42500000D01*
X69170000Y-44000000D01*
G37*
G04 #@! TD.AperFunction*
G04 #@! TA.AperFunction,SMDPad,CuDef*
G36*
X69970000Y-42504278D02*
G01*
X70035263Y-42504278D01*
X70161342Y-42538060D01*
X70274381Y-42603323D01*
X70366677Y-42695619D01*
X70431940Y-42808658D01*
X70465722Y-42934737D01*
X70465722Y-43000000D01*
X70470000Y-43000000D01*
X70470000Y-43500000D01*
X70465722Y-43500000D01*
X70465722Y-43565263D01*
X70431940Y-43691342D01*
X70366677Y-43804381D01*
X70274381Y-43896677D01*
X70161342Y-43961940D01*
X70035263Y-43995722D01*
X69970000Y-43995722D01*
X69970000Y-44000000D01*
X69470000Y-44000000D01*
X69470000Y-42500000D01*
X69970000Y-42500000D01*
X69970000Y-42504278D01*
G37*
G04 #@! TD.AperFunction*
G04 #@! TA.AperFunction,SMDPad,CuDef*
G36*
G01*
X66605000Y-40125000D02*
X67155000Y-40125000D01*
G75*
G02*
X67355000Y-40325000I0J-200000D01*
G01*
X67355000Y-40725000D01*
G75*
G02*
X67155000Y-40925000I-200000J0D01*
G01*
X66605000Y-40925000D01*
G75*
G02*
X66405000Y-40725000I0J200000D01*
G01*
X66405000Y-40325000D01*
G75*
G02*
X66605000Y-40125000I200000J0D01*
G01*
G37*
G04 #@! TD.AperFunction*
G04 #@! TA.AperFunction,SMDPad,CuDef*
G36*
G01*
X66605000Y-41775000D02*
X67155000Y-41775000D01*
G75*
G02*
X67355000Y-41975000I0J-200000D01*
G01*
X67355000Y-42375000D01*
G75*
G02*
X67155000Y-42575000I-200000J0D01*
G01*
X66605000Y-42575000D01*
G75*
G02*
X66405000Y-42375000I0J200000D01*
G01*
X66405000Y-41975000D01*
G75*
G02*
X66605000Y-41775000I200000J0D01*
G01*
G37*
G04 #@! TD.AperFunction*
G04 #@! TA.AperFunction,SMDPad,CuDef*
G36*
G01*
X61730000Y-36670000D02*
X61730000Y-35720000D01*
G75*
G02*
X61980000Y-35470000I250000J0D01*
G01*
X62480000Y-35470000D01*
G75*
G02*
X62730000Y-35720000I0J-250000D01*
G01*
X62730000Y-36670000D01*
G75*
G02*
X62480000Y-36920000I-250000J0D01*
G01*
X61980000Y-36920000D01*
G75*
G02*
X61730000Y-36670000I0J250000D01*
G01*
G37*
G04 #@! TD.AperFunction*
G04 #@! TA.AperFunction,SMDPad,CuDef*
G36*
G01*
X63630000Y-36670000D02*
X63630000Y-35720000D01*
G75*
G02*
X63880000Y-35470000I250000J0D01*
G01*
X64380000Y-35470000D01*
G75*
G02*
X64630000Y-35720000I0J-250000D01*
G01*
X64630000Y-36670000D01*
G75*
G02*
X64380000Y-36920000I-250000J0D01*
G01*
X63880000Y-36920000D01*
G75*
G02*
X63630000Y-36670000I0J250000D01*
G01*
G37*
G04 #@! TD.AperFunction*
G04 #@! TA.AperFunction,SMDPad,CuDef*
G36*
G01*
X63075000Y-45235000D02*
X63075000Y-44685000D01*
G75*
G02*
X63275000Y-44485000I200000J0D01*
G01*
X63675000Y-44485000D01*
G75*
G02*
X63875000Y-44685000I0J-200000D01*
G01*
X63875000Y-45235000D01*
G75*
G02*
X63675000Y-45435000I-200000J0D01*
G01*
X63275000Y-45435000D01*
G75*
G02*
X63075000Y-45235000I0J200000D01*
G01*
G37*
G04 #@! TD.AperFunction*
G04 #@! TA.AperFunction,SMDPad,CuDef*
G36*
G01*
X64725000Y-45235000D02*
X64725000Y-44685000D01*
G75*
G02*
X64925000Y-44485000I200000J0D01*
G01*
X65325000Y-44485000D01*
G75*
G02*
X65525000Y-44685000I0J-200000D01*
G01*
X65525000Y-45235000D01*
G75*
G02*
X65325000Y-45435000I-200000J0D01*
G01*
X64925000Y-45435000D01*
G75*
G02*
X64725000Y-45235000I0J200000D01*
G01*
G37*
G04 #@! TD.AperFunction*
G04 #@! TA.AperFunction,SMDPad,CuDef*
G36*
G01*
X67670000Y-37065000D02*
X68220000Y-37065000D01*
G75*
G02*
X68420000Y-37265000I0J-200000D01*
G01*
X68420000Y-37665000D01*
G75*
G02*
X68220000Y-37865000I-200000J0D01*
G01*
X67670000Y-37865000D01*
G75*
G02*
X67470000Y-37665000I0J200000D01*
G01*
X67470000Y-37265000D01*
G75*
G02*
X67670000Y-37065000I200000J0D01*
G01*
G37*
G04 #@! TD.AperFunction*
G04 #@! TA.AperFunction,SMDPad,CuDef*
G36*
G01*
X67670000Y-38715000D02*
X68220000Y-38715000D01*
G75*
G02*
X68420000Y-38915000I0J-200000D01*
G01*
X68420000Y-39315000D01*
G75*
G02*
X68220000Y-39515000I-200000J0D01*
G01*
X67670000Y-39515000D01*
G75*
G02*
X67470000Y-39315000I0J200000D01*
G01*
X67470000Y-38915000D01*
G75*
G02*
X67670000Y-38715000I200000J0D01*
G01*
G37*
G04 #@! TD.AperFunction*
G04 #@! TA.AperFunction,SMDPad,CuDef*
G36*
G01*
X58000000Y-41265000D02*
X56300000Y-41265000D01*
G75*
G02*
X56050000Y-41015000I0J250000D01*
G01*
X56050000Y-40265000D01*
G75*
G02*
X56300000Y-40015000I250000J0D01*
G01*
X58000000Y-40015000D01*
G75*
G02*
X58250000Y-40265000I0J-250000D01*
G01*
X58250000Y-41015000D01*
G75*
G02*
X58000000Y-41265000I-250000J0D01*
G01*
G37*
G04 #@! TD.AperFunction*
G04 #@! TA.AperFunction,SMDPad,CuDef*
G36*
G01*
X58000000Y-39115000D02*
X56300000Y-39115000D01*
G75*
G02*
X56050000Y-38865000I0J250000D01*
G01*
X56050000Y-38115000D01*
G75*
G02*
X56300000Y-37865000I250000J0D01*
G01*
X58000000Y-37865000D01*
G75*
G02*
X58250000Y-38115000I0J-250000D01*
G01*
X58250000Y-38865000D01*
G75*
G02*
X58000000Y-39115000I-250000J0D01*
G01*
G37*
G04 #@! TD.AperFunction*
G04 #@! TA.AperFunction,SMDPad,CuDef*
G36*
G01*
X70645000Y-36965000D02*
X71595000Y-36965000D01*
G75*
G02*
X71845000Y-37215000I0J-250000D01*
G01*
X71845000Y-37715000D01*
G75*
G02*
X71595000Y-37965000I-250000J0D01*
G01*
X70645000Y-37965000D01*
G75*
G02*
X70395000Y-37715000I0J250000D01*
G01*
X70395000Y-37215000D01*
G75*
G02*
X70645000Y-36965000I250000J0D01*
G01*
G37*
G04 #@! TD.AperFunction*
G04 #@! TA.AperFunction,SMDPad,CuDef*
G36*
G01*
X70645000Y-38865000D02*
X71595000Y-38865000D01*
G75*
G02*
X71845000Y-39115000I0J-250000D01*
G01*
X71845000Y-39615000D01*
G75*
G02*
X71595000Y-39865000I-250000J0D01*
G01*
X70645000Y-39865000D01*
G75*
G02*
X70395000Y-39615000I0J250000D01*
G01*
X70395000Y-39115000D01*
G75*
G02*
X70645000Y-38865000I250000J0D01*
G01*
G37*
G04 #@! TD.AperFunction*
D11*
X76200000Y-48655000D03*
G04 #@! TA.AperFunction,ComponentPad*
G36*
G01*
X75825000Y-46330000D02*
X76575000Y-46330000D01*
G75*
G02*
X76825000Y-46580000I0J-250000D01*
G01*
X76825000Y-47330000D01*
G75*
G02*
X76575000Y-47580000I-250000J0D01*
G01*
X75825000Y-47580000D01*
G75*
G02*
X75575000Y-47330000I0J250000D01*
G01*
X75575000Y-46580000D01*
G75*
G02*
X75825000Y-46330000I250000J0D01*
G01*
G37*
G04 #@! TD.AperFunction*
X71120000Y-48655000D03*
G04 #@! TA.AperFunction,ComponentPad*
G36*
G01*
X70745000Y-46330000D02*
X71495000Y-46330000D01*
G75*
G02*
X71745000Y-46580000I0J-250000D01*
G01*
X71745000Y-47330000D01*
G75*
G02*
X71495000Y-47580000I-250000J0D01*
G01*
X70745000Y-47580000D01*
G75*
G02*
X70495000Y-47330000I0J250000D01*
G01*
X70495000Y-46580000D01*
G75*
G02*
X70745000Y-46330000I250000J0D01*
G01*
G37*
G04 #@! TD.AperFunction*
X53340000Y-48655000D03*
G04 #@! TA.AperFunction,ComponentPad*
G36*
G01*
X52965000Y-46330000D02*
X53715000Y-46330000D01*
G75*
G02*
X53965000Y-46580000I0J-250000D01*
G01*
X53965000Y-47330000D01*
G75*
G02*
X53715000Y-47580000I-250000J0D01*
G01*
X52965000Y-47580000D01*
G75*
G02*
X52715000Y-47330000I0J250000D01*
G01*
X52715000Y-46580000D01*
G75*
G02*
X52965000Y-46330000I250000J0D01*
G01*
G37*
G04 #@! TD.AperFunction*
X50800000Y-48655000D03*
G04 #@! TA.AperFunction,ComponentPad*
G36*
G01*
X50425000Y-46330000D02*
X51175000Y-46330000D01*
G75*
G02*
X51425000Y-46580000I0J-250000D01*
G01*
X51425000Y-47330000D01*
G75*
G02*
X51175000Y-47580000I-250000J0D01*
G01*
X50425000Y-47580000D01*
G75*
G02*
X50175000Y-47330000I0J250000D01*
G01*
X50175000Y-46580000D01*
G75*
G02*
X50425000Y-46330000I250000J0D01*
G01*
G37*
G04 #@! TD.AperFunction*
G04 #@! TA.AperFunction,ComponentPad*
G36*
G01*
X75825000Y-33990000D02*
X76575000Y-33990000D01*
G75*
G02*
X76825000Y-34240000I0J-250000D01*
G01*
X76825000Y-34990000D01*
G75*
G02*
X76575000Y-35240000I-250000J0D01*
G01*
X75825000Y-35240000D01*
G75*
G02*
X75575000Y-34990000I0J250000D01*
G01*
X75575000Y-34240000D01*
G75*
G02*
X75825000Y-33990000I250000J0D01*
G01*
G37*
G04 #@! TD.AperFunction*
X76200000Y-32915000D03*
G04 #@! TA.AperFunction,ComponentPad*
G36*
G01*
X73285000Y-33990000D02*
X74035000Y-33990000D01*
G75*
G02*
X74285000Y-34240000I0J-250000D01*
G01*
X74285000Y-34990000D01*
G75*
G02*
X74035000Y-35240000I-250000J0D01*
G01*
X73285000Y-35240000D01*
G75*
G02*
X73035000Y-34990000I0J250000D01*
G01*
X73035000Y-34240000D01*
G75*
G02*
X73285000Y-33990000I250000J0D01*
G01*
G37*
G04 #@! TD.AperFunction*
X73660000Y-32915000D03*
G04 #@! TA.AperFunction,ComponentPad*
G36*
G01*
X52965000Y-33990000D02*
X53715000Y-33990000D01*
G75*
G02*
X53965000Y-34240000I0J-250000D01*
G01*
X53965000Y-34990000D01*
G75*
G02*
X53715000Y-35240000I-250000J0D01*
G01*
X52965000Y-35240000D01*
G75*
G02*
X52715000Y-34990000I0J250000D01*
G01*
X52715000Y-34240000D01*
G75*
G02*
X52965000Y-33990000I250000J0D01*
G01*
G37*
G04 #@! TD.AperFunction*
X53340000Y-32915000D03*
G04 #@! TA.AperFunction,ComponentPad*
G36*
G01*
X50425000Y-33990000D02*
X51175000Y-33990000D01*
G75*
G02*
X51425000Y-34240000I0J-250000D01*
G01*
X51425000Y-34990000D01*
G75*
G02*
X51175000Y-35240000I-250000J0D01*
G01*
X50425000Y-35240000D01*
G75*
G02*
X50175000Y-34990000I0J250000D01*
G01*
X50175000Y-34240000D01*
G75*
G02*
X50425000Y-33990000I250000J0D01*
G01*
G37*
G04 #@! TD.AperFunction*
X50800000Y-32915000D03*
D12*
X69580000Y-46200000D03*
X57430000Y-42865000D03*
X65390000Y-40410000D03*
X61595000Y-39370000D03*
X72450000Y-46560000D03*
X76350000Y-45530000D03*
X55080000Y-47020000D03*
X61595000Y-40640000D03*
X62230000Y-40005000D03*
X62865000Y-39370000D03*
X65080000Y-39550000D03*
X54250000Y-36010000D03*
X66040000Y-38100000D03*
X60890000Y-44540000D03*
X68690000Y-42190000D03*
X54480000Y-41130000D03*
X64130000Y-35120000D03*
X73025000Y-39370000D03*
X71810000Y-34550000D03*
X66070000Y-42250000D03*
X55680000Y-42840000D03*
X62865000Y-40640000D03*
X74900000Y-35860000D03*
X57270000Y-36330000D03*
X73660000Y-42545000D03*
X63290000Y-43540000D03*
X69850000Y-36195000D03*
X59330000Y-40040000D03*
X72200000Y-35360000D03*
X65150000Y-45570000D03*
X64220000Y-44030000D03*
D13*
X62235000Y-45090000D02*
X63345000Y-45090000D01*
D14*
X62230000Y-45095000D02*
X62230000Y-45690000D01*
X58420000Y-44765000D02*
X58735000Y-44765000D01*
D15*
X61005000Y-42180000D02*
X61235000Y-42180000D01*
X63235000Y-45455000D02*
X63475000Y-45215000D01*
D16*
X61235000Y-42180000D02*
X62235000Y-42180000D01*
D15*
X63235000Y-42180000D02*
X62735000Y-42180000D01*
D14*
X63500000Y-47625000D02*
X65775000Y-47625000D01*
X62230000Y-46355000D02*
X63500000Y-47625000D01*
X58735000Y-44765000D02*
X61235000Y-42265000D01*
D15*
X63475000Y-45215000D02*
X63475000Y-44960000D01*
D14*
X65775000Y-47625000D02*
X68330000Y-45070000D01*
X62235000Y-42265000D02*
X62235000Y-45090000D01*
X62235000Y-45090000D02*
X62230000Y-45095000D01*
D13*
X63345000Y-45090000D02*
X63475000Y-44960000D01*
D14*
X62230000Y-45690000D02*
X62230000Y-46355000D01*
X68330000Y-45070000D02*
X74315000Y-45070000D01*
X54610000Y-44765000D02*
X58420000Y-44765000D01*
X74315000Y-45070000D02*
X76200000Y-46955000D01*
D15*
X65080000Y-39580000D02*
X65160000Y-39660000D01*
X65160000Y-39730000D02*
X65145000Y-39745000D01*
X64170000Y-40245000D02*
X65225000Y-40245000D01*
D13*
X64130000Y-36195000D02*
X64130000Y-35120000D01*
X57430000Y-42865000D02*
X58420000Y-42865000D01*
D15*
X66400000Y-42290000D02*
X66765000Y-42290000D01*
X59330000Y-40040000D02*
X59510000Y-40040000D01*
X65160000Y-39660000D02*
X65160000Y-39730000D01*
D13*
X55655000Y-42865000D02*
X55680000Y-42840000D01*
D15*
X65225000Y-40245000D02*
X65390000Y-40410000D01*
X66765000Y-42290000D02*
X66880000Y-42175000D01*
X59715000Y-40245000D02*
X60300000Y-40245000D01*
X65080000Y-39550000D02*
X65080000Y-39580000D01*
X59510000Y-40040000D02*
X59715000Y-40245000D01*
D13*
X54610000Y-42865000D02*
X55655000Y-42865000D01*
D15*
X66360000Y-42250000D02*
X66400000Y-42290000D01*
D13*
X57405000Y-36195000D02*
X58105000Y-36195000D01*
D15*
X66070000Y-42250000D02*
X66360000Y-42250000D01*
D13*
X57270000Y-36330000D02*
X57405000Y-36195000D01*
D15*
X65145000Y-39745000D02*
X64170000Y-39745000D01*
D13*
X66675000Y-36830000D02*
X66675000Y-35925000D01*
D14*
X62230000Y-37465000D02*
X62230000Y-38220000D01*
X62230000Y-38220000D02*
X62235000Y-38225000D01*
D13*
X61105000Y-34160000D02*
X60650000Y-34615000D01*
X64910000Y-34160000D02*
X61105000Y-34160000D01*
D14*
X60650000Y-34615000D02*
X62230000Y-36195000D01*
X53340000Y-34615000D02*
X60650000Y-34615000D01*
D13*
X73660000Y-35270000D02*
X71465000Y-37465000D01*
D14*
X53120000Y-46770000D02*
X53305000Y-46955000D01*
D13*
X71755000Y-37465000D02*
X67310000Y-37465000D01*
D14*
X62230000Y-36195000D02*
X62230000Y-37465000D01*
X61820000Y-38225000D02*
X61735000Y-38225000D01*
X53340000Y-34615000D02*
X53120000Y-34835000D01*
D15*
X62235000Y-36200000D02*
X62230000Y-36195000D01*
D14*
X62230000Y-37815000D02*
X61820000Y-38225000D01*
X60005000Y-36195000D02*
X62230000Y-36195000D01*
X62230000Y-37465000D02*
X62230000Y-37815000D01*
D13*
X67310000Y-37465000D02*
X66675000Y-36830000D01*
X66675000Y-35925000D02*
X64910000Y-34160000D01*
D14*
X53120000Y-34835000D02*
X53120000Y-46770000D01*
D13*
X73660000Y-34615000D02*
X73660000Y-35270000D01*
X71465000Y-37465000D02*
X71120000Y-37465000D01*
D14*
X53305000Y-46955000D02*
X53340000Y-46955000D01*
D15*
X67310000Y-39115000D02*
X71505000Y-39115000D01*
X67075000Y-38880000D02*
X64535000Y-38880000D01*
X67310000Y-39115000D02*
X67310000Y-40285000D01*
X71310000Y-40640000D02*
X71755000Y-41085000D01*
X67310000Y-39115000D02*
X67075000Y-38880000D01*
X66880000Y-40525000D02*
X66970000Y-40525000D01*
X67085000Y-40640000D02*
X71310000Y-40640000D01*
X66970000Y-40525000D02*
X67085000Y-40640000D01*
X67070000Y-40525000D02*
X66880000Y-40525000D01*
X67310000Y-40285000D02*
X67070000Y-40525000D01*
X71505000Y-39115000D02*
X71755000Y-39365000D01*
X64535000Y-38880000D02*
X64170000Y-39245000D01*
X74930000Y-37465000D02*
X75920297Y-36474703D01*
X74380000Y-43760000D02*
X74930000Y-43210000D01*
X71580000Y-42735000D02*
X71755000Y-42735000D01*
X75920297Y-36474703D02*
X75920297Y-34894703D01*
X71755000Y-42735000D02*
X71395000Y-42735000D01*
X75920297Y-34894703D02*
X76200000Y-34615000D01*
X70880000Y-43250000D02*
X69970000Y-43250000D01*
X70480000Y-43760000D02*
X74380000Y-43760000D01*
X74930000Y-43210000D02*
X74930000Y-37465000D01*
X71395000Y-42735000D02*
X70880000Y-43250000D01*
X69970000Y-43250000D02*
X70480000Y-43760000D01*
D13*
X57150000Y-40640000D02*
X57340000Y-40830000D01*
X60300000Y-40830000D02*
X60300000Y-41245000D01*
X57340000Y-40830000D02*
X60300000Y-40830000D01*
X59545000Y-38490000D02*
X60300000Y-39245000D01*
X57150000Y-38490000D02*
X59545000Y-38490000D01*
X60300000Y-39245000D02*
X60300000Y-39660000D01*
D15*
X65150000Y-41150000D02*
X65150000Y-44935000D01*
X64745000Y-40745000D02*
X65150000Y-41150000D01*
X65150000Y-44985000D02*
X65125000Y-44960000D01*
X64170000Y-40745000D02*
X64745000Y-40745000D01*
X65150000Y-45570000D02*
X65150000Y-44985000D01*
X65150000Y-44935000D02*
X65125000Y-44960000D01*
X64170000Y-44070000D02*
X64180000Y-44070000D01*
X64170000Y-44070000D02*
X64170000Y-41245000D01*
X64180000Y-44070000D02*
X64220000Y-44030000D01*
G04 #@! TA.AperFunction,Conductor*
G36*
X70022346Y-46090185D02*
G01*
X70068101Y-46142989D01*
X70078045Y-46212147D01*
X70062890Y-46253955D01*
X70063240Y-46254118D01*
X70061404Y-46258054D01*
X70060845Y-46259596D01*
X70060186Y-46260666D01*
X70005001Y-46427203D01*
X70005001Y-46427204D01*
X70005000Y-46427204D01*
X69994500Y-46529983D01*
X69994500Y-46811533D01*
X69974815Y-46878572D01*
X69922011Y-46924327D01*
X69913836Y-46927714D01*
X69877665Y-46941205D01*
X69812484Y-46990000D01*
X67824920Y-46990000D01*
X68708102Y-46106819D01*
X68769425Y-46073334D01*
X68795783Y-46070500D01*
X69955307Y-46070500D01*
X70022346Y-46090185D01*
G37*
G04 #@! TD.AperFunction*
G04 #@! TA.AperFunction,Conductor*
G36*
X73916257Y-46090185D02*
G01*
X73936899Y-46106819D01*
X74295000Y-46464920D01*
X74295000Y-46990000D01*
X72427515Y-46990000D01*
X72362334Y-46941205D01*
X72362332Y-46941204D01*
X72326164Y-46927714D01*
X72270231Y-46885842D01*
X72245815Y-46820377D01*
X72245499Y-46811533D01*
X72245499Y-46529998D01*
X72245498Y-46529981D01*
X72234999Y-46427203D01*
X72234998Y-46427200D01*
X72216209Y-46370500D01*
X72179814Y-46260666D01*
X72179154Y-46259597D01*
X72178927Y-46258766D01*
X72176760Y-46254118D01*
X72177554Y-46253747D01*
X72160714Y-46192206D01*
X72181636Y-46125542D01*
X72235277Y-46080772D01*
X72284693Y-46070500D01*
X73849218Y-46070500D01*
X73916257Y-46090185D01*
G37*
G04 #@! TD.AperFunction*
G04 #@! TA.AperFunction,Conductor*
G36*
X70724108Y-41260185D02*
G01*
X70769863Y-41312989D01*
X70780560Y-41353278D01*
X70785913Y-41412192D01*
X70785913Y-41412194D01*
X70785914Y-41412196D01*
X70836522Y-41574606D01*
X70913512Y-41701963D01*
X70924530Y-41720188D01*
X71026661Y-41822319D01*
X71060146Y-41883642D01*
X71055162Y-41953334D01*
X71026661Y-41997681D01*
X70924531Y-42099810D01*
X70924530Y-42099811D01*
X70843376Y-42234056D01*
X70791848Y-42281244D01*
X70722988Y-42293082D01*
X70658660Y-42265813D01*
X70649580Y-42257590D01*
X70634449Y-42242459D01*
X70620768Y-42231961D01*
X70529767Y-42162132D01*
X70529749Y-42162120D01*
X70415751Y-42096303D01*
X70415750Y-42096302D01*
X70293829Y-42045800D01*
X70166658Y-42011724D01*
X70035833Y-41994500D01*
X70035826Y-41994500D01*
X69470000Y-41994500D01*
X69469997Y-41994500D01*
X69398059Y-41999644D01*
X69260005Y-42040182D01*
X69138969Y-42117967D01*
X69138965Y-42117971D01*
X69044750Y-42226700D01*
X69044744Y-42226709D01*
X68984976Y-42357580D01*
X68984975Y-42357585D01*
X68964500Y-42499999D01*
X68964500Y-43945500D01*
X68944815Y-44012539D01*
X68892011Y-44058294D01*
X68840500Y-44069500D01*
X68231454Y-44069500D01*
X68199391Y-44075876D01*
X68199392Y-44075877D01*
X68038170Y-44107946D01*
X68038164Y-44107948D01*
X67856088Y-44183366D01*
X67856079Y-44183371D01*
X67692219Y-44292859D01*
X67692215Y-44292862D01*
X66143766Y-45841312D01*
X66118481Y-45855118D01*
X66094746Y-45871450D01*
X66088194Y-45871656D01*
X66082443Y-45874797D01*
X66053704Y-45872741D01*
X66024911Y-45873648D01*
X66019289Y-45870280D01*
X66012751Y-45869813D01*
X65989686Y-45852546D01*
X65964973Y-45837742D01*
X65962063Y-45831868D01*
X65956818Y-45827941D01*
X65946751Y-45800951D01*
X65933963Y-45775131D01*
X65934053Y-45766908D01*
X65932401Y-45762477D01*
X65932853Y-45739854D01*
X65933438Y-45734613D01*
X65950500Y-45648842D01*
X65950500Y-45582004D01*
X65951268Y-45575135D01*
X65960442Y-45553248D01*
X65966396Y-45531893D01*
X65965400Y-45531445D01*
X65968345Y-45524900D01*
X65968384Y-45524760D01*
X65968478Y-45524606D01*
X66019086Y-45362196D01*
X66025500Y-45291616D01*
X66025500Y-44628384D01*
X66019086Y-44557804D01*
X65968478Y-44395394D01*
X65880472Y-44249815D01*
X65880470Y-44249813D01*
X65880469Y-44249811D01*
X65786819Y-44156161D01*
X65753334Y-44094838D01*
X65750500Y-44068480D01*
X65750500Y-42759374D01*
X65770185Y-42692335D01*
X65822989Y-42646580D01*
X65892147Y-42636636D01*
X65955703Y-42665661D01*
X65980617Y-42695224D01*
X66049927Y-42809877D01*
X66170122Y-42930072D01*
X66315604Y-43018019D01*
X66315603Y-43018019D01*
X66477894Y-43068590D01*
X66477892Y-43068590D01*
X66548418Y-43074999D01*
X67130000Y-43074999D01*
X67211581Y-43074999D01*
X67282102Y-43068591D01*
X67282107Y-43068590D01*
X67444396Y-43018018D01*
X67589877Y-42930072D01*
X67710072Y-42809877D01*
X67798019Y-42664395D01*
X67848590Y-42502106D01*
X67855000Y-42431572D01*
X67855000Y-42425000D01*
X67130000Y-42425000D01*
X67130000Y-43074999D01*
X66548418Y-43074999D01*
X66629999Y-43074998D01*
X66630000Y-43074998D01*
X66630000Y-42299000D01*
X66649685Y-42231961D01*
X66702489Y-42186206D01*
X66754000Y-42175000D01*
X66880000Y-42175000D01*
X66880000Y-42049000D01*
X66899685Y-41981961D01*
X66952489Y-41936206D01*
X67004000Y-41925000D01*
X67854999Y-41925000D01*
X67854999Y-41918417D01*
X67848591Y-41847897D01*
X67848590Y-41847892D01*
X67798018Y-41685603D01*
X67710072Y-41540122D01*
X67622131Y-41452181D01*
X67588646Y-41390858D01*
X67593630Y-41321166D01*
X67635502Y-41265233D01*
X67700966Y-41240816D01*
X67709812Y-41240500D01*
X70657069Y-41240500D01*
X70724108Y-41260185D01*
G37*
G04 #@! TD.AperFunction*
G04 #@! TA.AperFunction,Conductor*
G36*
X74295000Y-42995765D02*
G01*
X74167584Y-43123181D01*
X74106261Y-43156666D01*
X74079903Y-43159500D01*
X72851023Y-43159500D01*
X72783984Y-43139815D01*
X72738229Y-43087011D01*
X72727532Y-43024279D01*
X72730500Y-42991614D01*
X72730500Y-42478386D01*
X72726246Y-42431572D01*
X72724086Y-42407804D01*
X72673478Y-42245394D01*
X72585472Y-42099815D01*
X72585470Y-42099813D01*
X72585469Y-42099811D01*
X72483339Y-41997681D01*
X72449854Y-41936358D01*
X72454838Y-41866666D01*
X72483339Y-41822319D01*
X72585468Y-41720189D01*
X72585469Y-41720188D01*
X72585472Y-41720185D01*
X72673478Y-41574606D01*
X72724086Y-41412196D01*
X72730500Y-41341616D01*
X72730500Y-40828384D01*
X72724086Y-40757804D01*
X72673478Y-40595394D01*
X72585472Y-40449815D01*
X72585470Y-40449813D01*
X72585469Y-40449811D01*
X72465188Y-40329530D01*
X72465185Y-40329528D01*
X72319606Y-40241522D01*
X72319603Y-40241521D01*
X72279808Y-40229120D01*
X72221660Y-40190382D01*
X72193687Y-40126357D01*
X72204769Y-40057371D01*
X72211156Y-40045645D01*
X72279814Y-39934334D01*
X72334999Y-39767797D01*
X72345500Y-39665009D01*
X72345499Y-39497703D01*
X72349726Y-39465605D01*
X72355499Y-39444060D01*
X72355500Y-39444059D01*
X72355500Y-39285943D01*
X72355499Y-39285939D01*
X72349724Y-39264384D01*
X72345499Y-39232292D01*
X72345499Y-39064998D01*
X72345498Y-39064981D01*
X72334999Y-38962203D01*
X72334998Y-38962200D01*
X72279814Y-38795666D01*
X72187712Y-38646344D01*
X72063656Y-38522288D01*
X72060819Y-38520538D01*
X72059283Y-38518830D01*
X72057989Y-38517807D01*
X72058163Y-38517585D01*
X72014096Y-38468594D01*
X72002872Y-38399632D01*
X72030713Y-38335549D01*
X72060817Y-38309462D01*
X72063656Y-38307712D01*
X72187712Y-38183656D01*
X72279814Y-38034334D01*
X72286815Y-38013204D01*
X72316842Y-37964523D01*
X72337951Y-37943416D01*
X72420084Y-37820495D01*
X72476658Y-37683913D01*
X72505500Y-37538918D01*
X72505500Y-37537230D01*
X72505750Y-37536377D01*
X72506097Y-37532858D01*
X72506764Y-37532923D01*
X72525185Y-37470191D01*
X72541819Y-37449549D01*
X73369846Y-36621522D01*
X74242952Y-35748416D01*
X74250775Y-35736707D01*
X74266232Y-35723787D01*
X74278060Y-35707474D01*
X74295000Y-35698461D01*
X74295000Y-42995765D01*
G37*
G04 #@! TD.AperFunction*
G04 #@! TA.AperFunction,Conductor*
G36*
X66270155Y-39500185D02*
G01*
X66315910Y-39552989D01*
X66325854Y-39622147D01*
X66296829Y-39685703D01*
X66267267Y-39710615D01*
X66231839Y-39732033D01*
X66169811Y-39769530D01*
X66049530Y-39889811D01*
X65961522Y-40035393D01*
X65910913Y-40197807D01*
X65904500Y-40268386D01*
X65904500Y-40781614D01*
X65904619Y-40782924D01*
X65904570Y-40783169D01*
X65904627Y-40784413D01*
X65904500Y-40784418D01*
X65904500Y-40784426D01*
X65904322Y-40784426D01*
X65891082Y-40851470D01*
X65842635Y-40901815D01*
X65774660Y-40917976D01*
X65708739Y-40894822D01*
X65673741Y-40856145D01*
X65630522Y-40781287D01*
X65630521Y-40781286D01*
X65630520Y-40781284D01*
X65518716Y-40669480D01*
X65518715Y-40669479D01*
X65514385Y-40665149D01*
X65514374Y-40665139D01*
X65405000Y-40555765D01*
X65405000Y-39480500D01*
X66203116Y-39480500D01*
X66270155Y-39500185D01*
G37*
G04 #@! TD.AperFunction*
G04 #@! TA.AperFunction,Conductor*
G36*
X65888181Y-36199549D02*
G01*
X65921666Y-36260872D01*
X65924500Y-36287230D01*
X65924500Y-36903918D01*
X65924500Y-36903920D01*
X65924499Y-36903920D01*
X65953340Y-37048907D01*
X65953343Y-37048917D01*
X66009912Y-37185488D01*
X66009921Y-37185504D01*
X66025207Y-37208380D01*
X66025208Y-37208384D01*
X66025209Y-37208384D01*
X66092046Y-37308414D01*
X66092052Y-37308421D01*
X66604121Y-37820488D01*
X66727049Y-37943416D01*
X66831584Y-38047951D01*
X66847251Y-38058419D01*
X66855086Y-38065918D01*
X66867311Y-38087186D01*
X66883044Y-38106010D01*
X66884416Y-38116941D01*
X66889907Y-38126492D01*
X66888693Y-38150994D01*
X66891751Y-38175335D01*
X66886996Y-38185271D01*
X66886452Y-38196277D01*
X66872183Y-38216234D01*
X66861597Y-38238362D01*
X66852224Y-38244151D01*
X66845816Y-38253115D01*
X66823025Y-38262189D01*
X66802154Y-38275082D01*
X66784759Y-38277424D01*
X66780903Y-38278960D01*
X66777817Y-38278359D01*
X66769348Y-38279500D01*
X65405000Y-38279500D01*
X65405000Y-35716368D01*
X65888181Y-36199549D01*
G37*
G04 #@! TD.AperFunction*
G04 #@! TA.AperFunction,Conductor*
G36*
X72534501Y-35040008D02*
G01*
X72545001Y-35142797D01*
X72568588Y-35213979D01*
X72570132Y-35222234D01*
X72567427Y-35248986D01*
X72568351Y-35275850D01*
X72563927Y-35283606D01*
X72563104Y-35291749D01*
X72549603Y-35308721D01*
X72535925Y-35332705D01*
X71440449Y-36428181D01*
X71379126Y-36461666D01*
X71352768Y-36464500D01*
X70594998Y-36464500D01*
X70594980Y-36464501D01*
X70492203Y-36475000D01*
X70492200Y-36475001D01*
X70325668Y-36530185D01*
X70325663Y-36530187D01*
X70176342Y-36622289D01*
X70120451Y-36678181D01*
X70059128Y-36711666D01*
X70032770Y-36714500D01*
X68697977Y-36714500D01*
X68633828Y-36696617D01*
X68509606Y-36621522D01*
X68347196Y-36570914D01*
X68347194Y-36570913D01*
X68347192Y-36570913D01*
X68297778Y-36566423D01*
X68276616Y-36564500D01*
X67613384Y-36564500D01*
X67560720Y-36569285D01*
X67492175Y-36555748D01*
X67441829Y-36507300D01*
X67425500Y-36445794D01*
X67425500Y-35851079D01*
X67396659Y-35706092D01*
X67396658Y-35706091D01*
X67396658Y-35706087D01*
X67393499Y-35698461D01*
X67340086Y-35569508D01*
X67287295Y-35490500D01*
X67287295Y-35490499D01*
X67257956Y-35446589D01*
X67257952Y-35446584D01*
X66736368Y-34925000D01*
X72534501Y-34925000D01*
X72534501Y-35040008D01*
G37*
G04 #@! TD.AperFunction*
G04 #@! TA.AperFunction,Conductor*
G36*
X52152862Y-34272751D02*
G01*
X52173100Y-34296106D01*
X52195448Y-34329552D01*
X52261769Y-34373867D01*
X52261770Y-34373868D01*
X52320247Y-34385499D01*
X52320250Y-34385500D01*
X52320252Y-34385500D01*
X52362395Y-34385500D01*
X52389162Y-34393359D01*
X52416678Y-34398013D01*
X52422230Y-34403069D01*
X52429434Y-34405185D01*
X52447703Y-34426269D01*
X52468335Y-34445059D01*
X52470271Y-34452314D01*
X52475189Y-34457989D01*
X52479160Y-34485607D01*
X52486357Y-34512565D01*
X52484379Y-34521903D01*
X52485133Y-34527147D01*
X52480472Y-34547365D01*
X52478912Y-34552227D01*
X52446420Y-34630672D01*
X52435814Y-34683994D01*
X52434435Y-34690924D01*
X52434433Y-34690932D01*
X52419500Y-34766004D01*
X52419500Y-34766007D01*
X52419500Y-46701006D01*
X52419500Y-46838994D01*
X52419500Y-46838996D01*
X52419499Y-46838996D01*
X52446418Y-46974322D01*
X52446421Y-46974332D01*
X52462458Y-47013048D01*
X52469927Y-47082517D01*
X52438652Y-47144996D01*
X52381191Y-47179947D01*
X52364857Y-47184500D01*
X52320252Y-47184500D01*
X52261769Y-47196133D01*
X52217857Y-47225473D01*
X52198750Y-47230800D01*
X52183732Y-47230593D01*
X52175185Y-47269883D01*
X52169456Y-47279346D01*
X52151132Y-47306770D01*
X52151131Y-47306770D01*
X52139500Y-47365247D01*
X52139500Y-47617690D01*
X52119815Y-47684729D01*
X52103181Y-47705371D01*
X51690371Y-48118181D01*
X51629048Y-48151666D01*
X51602690Y-48154500D01*
X51508034Y-48154500D01*
X51464641Y-48049742D01*
X51382563Y-47926903D01*
X51278553Y-47822893D01*
X51978672Y-47122775D01*
X52039995Y-47089290D01*
X52045139Y-47089657D01*
X52050302Y-47077796D01*
X52053381Y-47058294D01*
X52063961Y-47046418D01*
X52070309Y-47031835D01*
X52077775Y-47023671D01*
X52109405Y-46992040D01*
X52042088Y-46941647D01*
X52005664Y-46928061D01*
X51949731Y-46886190D01*
X51925315Y-46820725D01*
X51924999Y-46811880D01*
X51924999Y-46530028D01*
X51924998Y-46530013D01*
X51914505Y-46427302D01*
X51859357Y-46260875D01*
X51854900Y-46253650D01*
X51175000Y-46933550D01*
X51175000Y-46905630D01*
X51149444Y-46810255D01*
X51100075Y-46724745D01*
X51030255Y-46654925D01*
X50944745Y-46605556D01*
X50849370Y-46580000D01*
X50821446Y-46580000D01*
X51501347Y-45900099D01*
X51494124Y-45895643D01*
X51494119Y-45895641D01*
X51327697Y-45840494D01*
X51327690Y-45840493D01*
X51224980Y-45830000D01*
X50375028Y-45830000D01*
X50375012Y-45830001D01*
X50272301Y-45840494D01*
X50193503Y-45866605D01*
X50123675Y-45869007D01*
X50063633Y-45833275D01*
X50032441Y-45770754D01*
X50030500Y-45748899D01*
X50030500Y-35502593D01*
X50050185Y-35435554D01*
X50102989Y-35389799D01*
X50172147Y-35379855D01*
X50203259Y-35389976D01*
X50203348Y-35389724D01*
X50212117Y-35392792D01*
X50212118Y-35392793D01*
X50240029Y-35402559D01*
X50340299Y-35437646D01*
X50370730Y-35440500D01*
X50370734Y-35440500D01*
X51229270Y-35440500D01*
X51259699Y-35437646D01*
X51259701Y-35437646D01*
X51331365Y-35412569D01*
X51387882Y-35392793D01*
X51497150Y-35312150D01*
X51577793Y-35202882D01*
X51604106Y-35127684D01*
X51622646Y-35074701D01*
X51622646Y-35074699D01*
X51625500Y-35044269D01*
X51625500Y-34509500D01*
X51645185Y-34442461D01*
X51697989Y-34396706D01*
X51749500Y-34385500D01*
X51819750Y-34385500D01*
X51819751Y-34385499D01*
X51834568Y-34382552D01*
X51878229Y-34373868D01*
X51878229Y-34373867D01*
X51878231Y-34373867D01*
X51944552Y-34329552D01*
X51966898Y-34296108D01*
X52020510Y-34251304D01*
X52089834Y-34242597D01*
X52152862Y-34272751D01*
G37*
G04 #@! TD.AperFunction*
G04 #@! TA.AperFunction,Conductor*
G36*
X61453834Y-43139336D02*
G01*
X61509767Y-43181208D01*
X61534184Y-43246672D01*
X61534500Y-43255518D01*
X61534500Y-44988658D01*
X61532116Y-45012850D01*
X61529500Y-45026007D01*
X61529500Y-45621007D01*
X61529500Y-46286006D01*
X61529500Y-46423994D01*
X61529500Y-46423996D01*
X61529499Y-46423996D01*
X61556418Y-46559322D01*
X61556421Y-46559332D01*
X61609222Y-46686807D01*
X61685887Y-46801545D01*
X61685888Y-46801546D01*
X62827162Y-47942819D01*
X62860647Y-48004142D01*
X62855663Y-48073834D01*
X62813791Y-48129767D01*
X62748327Y-48154184D01*
X62739481Y-48154500D01*
X54664500Y-48154500D01*
X54597461Y-48134815D01*
X54551706Y-48082011D01*
X54540500Y-48030500D01*
X54540500Y-47365249D01*
X54540499Y-47365247D01*
X54528868Y-47306770D01*
X54528867Y-47306769D01*
X54484552Y-47240447D01*
X54418230Y-47196132D01*
X54418229Y-47196131D01*
X54359752Y-47184500D01*
X54359748Y-47184500D01*
X54289500Y-47184500D01*
X54222461Y-47164815D01*
X54176706Y-47112011D01*
X54165500Y-47060500D01*
X54165500Y-46525730D01*
X54162646Y-46495300D01*
X54162646Y-46495298D01*
X54117793Y-46367119D01*
X54117792Y-46367117D01*
X54037150Y-46257850D01*
X53927882Y-46177207D01*
X53927880Y-46177206D01*
X53903542Y-46168689D01*
X53846767Y-46127966D01*
X53821022Y-46063013D01*
X53820500Y-46051649D01*
X53820500Y-45556996D01*
X53840185Y-45489957D01*
X53892989Y-45444202D01*
X53962147Y-45434258D01*
X53985448Y-45439953D01*
X54050301Y-45462646D01*
X54050300Y-45462646D01*
X54080730Y-45465500D01*
X54080734Y-45465500D01*
X58949270Y-45465500D01*
X58979699Y-45462646D01*
X58979701Y-45462646D01*
X59044546Y-45439955D01*
X59107882Y-45417793D01*
X59217150Y-45337150D01*
X59297793Y-45227882D01*
X59307294Y-45200727D01*
X59336652Y-45154003D01*
X61322820Y-43167835D01*
X61384142Y-43134352D01*
X61453834Y-43139336D01*
G37*
G04 #@! TD.AperFunction*
G04 #@! TA.AperFunction,Conductor*
G36*
X70294500Y-47060500D02*
G01*
X70274815Y-47127539D01*
X70222011Y-47173294D01*
X70170500Y-47184500D01*
X70100247Y-47184500D01*
X70041770Y-47196131D01*
X70041769Y-47196132D01*
X69975447Y-47240447D01*
X69931132Y-47306769D01*
X69931131Y-47306770D01*
X69919500Y-47365247D01*
X69919500Y-48030500D01*
X69899815Y-48097539D01*
X69847011Y-48143294D01*
X69795500Y-48154500D01*
X66535519Y-48154500D01*
X66468480Y-48134815D01*
X66422725Y-48082011D01*
X66412781Y-48012853D01*
X66441806Y-47949297D01*
X66447838Y-47942819D01*
X67400657Y-46990000D01*
X70294500Y-46990000D01*
X70294500Y-47060500D01*
G37*
G04 #@! TD.AperFunction*
G04 #@! TA.AperFunction,Conductor*
G36*
X75231899Y-46977556D02*
G01*
X75265384Y-47038879D01*
X75260400Y-47108571D01*
X75218528Y-47164504D01*
X75168411Y-47186854D01*
X75121769Y-47196132D01*
X75055447Y-47240447D01*
X75011132Y-47306769D01*
X75011131Y-47306770D01*
X74999500Y-47365247D01*
X74999500Y-48030500D01*
X74979815Y-48097539D01*
X74927011Y-48143294D01*
X74875500Y-48154500D01*
X72444500Y-48154500D01*
X72377461Y-48134815D01*
X72331706Y-48082011D01*
X72320500Y-48030500D01*
X72320500Y-47365249D01*
X72320499Y-47365247D01*
X72308868Y-47306770D01*
X72308867Y-47306769D01*
X72264552Y-47240447D01*
X72198230Y-47196132D01*
X72198229Y-47196131D01*
X72139752Y-47184500D01*
X72139748Y-47184500D01*
X72069500Y-47184500D01*
X72002461Y-47164815D01*
X71956706Y-47112011D01*
X71945500Y-47060500D01*
X71945500Y-46990000D01*
X74295000Y-46990000D01*
X74295000Y-46040657D01*
X75231899Y-46977556D01*
G37*
G04 #@! TD.AperFunction*
G04 #@! TA.AperFunction,Conductor*
G36*
X76921149Y-35404342D02*
G01*
X76962259Y-35460839D01*
X76969500Y-35502593D01*
X76969500Y-46067406D01*
X76949815Y-46134445D01*
X76897011Y-46180200D01*
X76827853Y-46190144D01*
X76796740Y-46180024D01*
X76796652Y-46180276D01*
X76659700Y-46132353D01*
X76629270Y-46129500D01*
X76629266Y-46129500D01*
X76416519Y-46129500D01*
X76349480Y-46109815D01*
X76328838Y-46093181D01*
X74761546Y-44525888D01*
X74761545Y-44525887D01*
X74646807Y-44449222D01*
X74519332Y-44396421D01*
X74519322Y-44396418D01*
X74383996Y-44369500D01*
X74383994Y-44369500D01*
X74383993Y-44369500D01*
X74295000Y-44369500D01*
X74295000Y-44060500D01*
X74419560Y-44060500D01*
X74419562Y-44060500D01*
X74495989Y-44040021D01*
X74564511Y-44000460D01*
X74620460Y-43944511D01*
X75170460Y-43394511D01*
X75186927Y-43365989D01*
X75210021Y-43325989D01*
X75230500Y-43249562D01*
X75230500Y-37640833D01*
X75250185Y-37573794D01*
X75266819Y-37553152D01*
X75713358Y-37106613D01*
X76160757Y-36659214D01*
X76170960Y-36641542D01*
X76200318Y-36590692D01*
X76220797Y-36514265D01*
X76220797Y-35564500D01*
X76240482Y-35497461D01*
X76293286Y-35451706D01*
X76344797Y-35440500D01*
X76629270Y-35440500D01*
X76659699Y-35437646D01*
X76659701Y-35437646D01*
X76759970Y-35402559D01*
X76787882Y-35392793D01*
X76787882Y-35392792D01*
X76796652Y-35389724D01*
X76797106Y-35391022D01*
X76856022Y-35379040D01*
X76921149Y-35404342D01*
G37*
G04 #@! TD.AperFunction*
G04 #@! TA.AperFunction,Conductor*
G36*
X63772384Y-42039060D02*
G01*
X63772985Y-42039023D01*
X63803050Y-42055805D01*
X63833181Y-42072258D01*
X63833468Y-42072784D01*
X63833994Y-42073078D01*
X63850200Y-42103427D01*
X63866666Y-42133581D01*
X63866757Y-42134431D01*
X63866906Y-42134710D01*
X63866855Y-42135339D01*
X63869500Y-42159939D01*
X63869500Y-43621324D01*
X63849815Y-43688363D01*
X63833181Y-43709005D01*
X63819502Y-43722683D01*
X63819500Y-43722686D01*
X63753608Y-43836812D01*
X63719500Y-43964108D01*
X63719500Y-44095896D01*
X63728212Y-44128409D01*
X63726548Y-44198258D01*
X63687385Y-44256120D01*
X63623156Y-44283623D01*
X63608437Y-44284500D01*
X63243482Y-44284500D01*
X63149695Y-44299354D01*
X63115794Y-44316628D01*
X63047125Y-44329524D01*
X62982385Y-44303247D01*
X62942128Y-44246141D01*
X62935500Y-44206143D01*
X62935500Y-42911749D01*
X62955185Y-42844710D01*
X63007989Y-42798955D01*
X63077147Y-42789011D01*
X63083692Y-42790132D01*
X63110677Y-42795500D01*
X63110680Y-42795500D01*
X63359322Y-42795500D01*
X63427650Y-42781908D01*
X63435501Y-42776662D01*
X63505135Y-42730135D01*
X63556908Y-42652650D01*
X63569322Y-42590243D01*
X63570500Y-42584322D01*
X63570500Y-42178422D01*
X63576896Y-42156637D01*
X63578727Y-42134009D01*
X63586551Y-42123756D01*
X63590185Y-42111383D01*
X63607340Y-42096517D01*
X63621117Y-42078467D01*
X63636222Y-42071491D01*
X63642989Y-42065628D01*
X63652250Y-42061842D01*
X63703250Y-42043359D01*
X63737579Y-42041224D01*
X63771858Y-42038773D01*
X63772384Y-42039060D01*
G37*
G04 #@! TD.AperFunction*
G04 #@! TA.AperFunction,Conductor*
G36*
X57094253Y-35335185D02*
G01*
X57140008Y-35387989D01*
X57149952Y-35457147D01*
X57144920Y-35478504D01*
X57115494Y-35567302D01*
X57115493Y-35567309D01*
X57105000Y-35670013D01*
X57105000Y-35945000D01*
X57981000Y-35945000D01*
X58048039Y-35964685D01*
X58093794Y-36017489D01*
X58105000Y-36069000D01*
X58105000Y-36195000D01*
X58231000Y-36195000D01*
X58298039Y-36214685D01*
X58343794Y-36267489D01*
X58355000Y-36319000D01*
X58355000Y-37419999D01*
X58404972Y-37419999D01*
X58404986Y-37419998D01*
X58507697Y-37409505D01*
X58674119Y-37354358D01*
X58674124Y-37354356D01*
X58823345Y-37262315D01*
X58947315Y-37138345D01*
X59039356Y-36989124D01*
X59039359Y-36989117D01*
X59095094Y-36820918D01*
X59134866Y-36763473D01*
X59199382Y-36736649D01*
X59268158Y-36748964D01*
X59319358Y-36796506D01*
X59329841Y-36818965D01*
X59352207Y-36882882D01*
X59432850Y-36992150D01*
X59542118Y-37072793D01*
X59584845Y-37087744D01*
X59670299Y-37117646D01*
X59700730Y-37120500D01*
X59700734Y-37120500D01*
X60309270Y-37120500D01*
X60339699Y-37117646D01*
X60339701Y-37117646D01*
X60403790Y-37095219D01*
X60467882Y-37072793D01*
X60577150Y-36992150D01*
X60611308Y-36945866D01*
X60666956Y-36903616D01*
X60711079Y-36895500D01*
X61405500Y-36895500D01*
X61472539Y-36915185D01*
X61518294Y-36967989D01*
X61529500Y-37019500D01*
X61529500Y-37469050D01*
X61526147Y-37480466D01*
X61527299Y-37492311D01*
X61516484Y-37513376D01*
X61509815Y-37536089D01*
X61500021Y-37545443D01*
X61495388Y-37554468D01*
X61478251Y-37566236D01*
X61467682Y-37576332D01*
X61460555Y-37580462D01*
X61403189Y-37604225D01*
X61296070Y-37675799D01*
X61292650Y-37677782D01*
X61262398Y-37685174D01*
X61232681Y-37694480D01*
X61230468Y-37694500D01*
X61110678Y-37694500D01*
X61042349Y-37708091D01*
X60964865Y-37759865D01*
X60913091Y-37837349D01*
X60899500Y-37905677D01*
X60899500Y-38311577D01*
X60879815Y-38378616D01*
X60827011Y-38424371D01*
X60814837Y-38428545D01*
X60814892Y-38428691D01*
X60672913Y-38481645D01*
X60672906Y-38481649D01*
X60557812Y-38567809D01*
X60516035Y-38623616D01*
X60460101Y-38665486D01*
X60390409Y-38670470D01*
X60329088Y-38636985D01*
X59821616Y-38129513D01*
X59821614Y-38129511D01*
X59770250Y-38099856D01*
X59718888Y-38070201D01*
X59701342Y-38065500D01*
X59694673Y-38063713D01*
X59694670Y-38063712D01*
X59645906Y-38050646D01*
X59604309Y-38039500D01*
X59604308Y-38039500D01*
X58538847Y-38039500D01*
X58471808Y-38019815D01*
X58426053Y-37967011D01*
X58421812Y-37956471D01*
X58402793Y-37902118D01*
X58322150Y-37792850D01*
X58212882Y-37712207D01*
X58212880Y-37712206D01*
X58084700Y-37667353D01*
X58054270Y-37664500D01*
X58054266Y-37664500D01*
X56245734Y-37664500D01*
X56245730Y-37664500D01*
X56215300Y-37667353D01*
X56215298Y-37667353D01*
X56087119Y-37712206D01*
X56087117Y-37712207D01*
X55977850Y-37792850D01*
X55897207Y-37902117D01*
X55897206Y-37902119D01*
X55852353Y-38030298D01*
X55852353Y-38030300D01*
X55849500Y-38060730D01*
X55849500Y-38919269D01*
X55852353Y-38949699D01*
X55852353Y-38949701D01*
X55897206Y-39077880D01*
X55897207Y-39077882D01*
X55977850Y-39187150D01*
X56087118Y-39267793D01*
X56129845Y-39282744D01*
X56215299Y-39312646D01*
X56245730Y-39315500D01*
X56245734Y-39315500D01*
X58054270Y-39315500D01*
X58084699Y-39312646D01*
X58084701Y-39312646D01*
X58154796Y-39288118D01*
X58212882Y-39267793D01*
X58322150Y-39187150D01*
X58402793Y-39077882D01*
X58421806Y-39023543D01*
X58462527Y-38966769D01*
X58527480Y-38941022D01*
X58538847Y-38940500D01*
X59307035Y-38940500D01*
X59374074Y-38960185D01*
X59394716Y-38976819D01*
X59648181Y-39230284D01*
X59681666Y-39291607D01*
X59683069Y-39299182D01*
X59684500Y-39308519D01*
X59684500Y-39369320D01*
X59698092Y-39437650D01*
X59706132Y-39449684D01*
X59710199Y-39476217D01*
X59707462Y-39496586D01*
X59709659Y-39517019D01*
X59702192Y-39542451D01*
X59698091Y-39552350D01*
X59686457Y-39610836D01*
X59654071Y-39672746D01*
X59639766Y-39685445D01*
X59537783Y-39762781D01*
X59449128Y-39879691D01*
X59449127Y-39879693D01*
X59395301Y-40016188D01*
X59395300Y-40016190D01*
X59385000Y-40101964D01*
X59385000Y-40110000D01*
X60176000Y-40110000D01*
X60184685Y-40112550D01*
X60193647Y-40111262D01*
X60217687Y-40122240D01*
X60243039Y-40129685D01*
X60248966Y-40136525D01*
X60257203Y-40140287D01*
X60271492Y-40162521D01*
X60288794Y-40182489D01*
X60291081Y-40193003D01*
X60294977Y-40199065D01*
X60300000Y-40234000D01*
X60300000Y-40255500D01*
X60280315Y-40322539D01*
X60227511Y-40368294D01*
X60176000Y-40379500D01*
X58574500Y-40379500D01*
X58507461Y-40359815D01*
X58461706Y-40307011D01*
X58450500Y-40255500D01*
X58450500Y-40210730D01*
X58447646Y-40180300D01*
X58447646Y-40180298D01*
X58407968Y-40066908D01*
X58402793Y-40052118D01*
X58322150Y-39942850D01*
X58212882Y-39862207D01*
X58212880Y-39862206D01*
X58084700Y-39817353D01*
X58054270Y-39814500D01*
X58054266Y-39814500D01*
X56245734Y-39814500D01*
X56245730Y-39814500D01*
X56215300Y-39817353D01*
X56215298Y-39817353D01*
X56087119Y-39862206D01*
X56087117Y-39862207D01*
X55977850Y-39942850D01*
X55897207Y-40052117D01*
X55897206Y-40052119D01*
X55852353Y-40180298D01*
X55852353Y-40180300D01*
X55849500Y-40210730D01*
X55849500Y-41069269D01*
X55852353Y-41099699D01*
X55852353Y-41099701D01*
X55897206Y-41227880D01*
X55897207Y-41227882D01*
X55977850Y-41337150D01*
X56087118Y-41417793D01*
X56129845Y-41432744D01*
X56215299Y-41462646D01*
X56245730Y-41465500D01*
X56245734Y-41465500D01*
X58054270Y-41465500D01*
X58084699Y-41462646D01*
X58084701Y-41462646D01*
X58156134Y-41437650D01*
X58212882Y-41417793D01*
X58322150Y-41337150D01*
X58326786Y-41330867D01*
X58382433Y-41288616D01*
X58426557Y-41280500D01*
X59565068Y-41280500D01*
X59632107Y-41300185D01*
X59677862Y-41352989D01*
X59686685Y-41380308D01*
X59698091Y-41437649D01*
X59698092Y-41437650D01*
X59749865Y-41515135D01*
X59791066Y-41542664D01*
X59827349Y-41566908D01*
X59895677Y-41580500D01*
X59895680Y-41580500D01*
X59948729Y-41580500D01*
X60015768Y-41600185D01*
X60022965Y-41605245D01*
X60023386Y-41605488D01*
X60023387Y-41605489D01*
X60126114Y-41664799D01*
X60240691Y-41695500D01*
X60240694Y-41695500D01*
X60343932Y-41695500D01*
X60410971Y-41715185D01*
X60451076Y-41757080D01*
X60513858Y-41864845D01*
X60520586Y-41892112D01*
X60530398Y-41918419D01*
X60528842Y-41925571D01*
X60530596Y-41932680D01*
X60521514Y-41959253D01*
X60515546Y-41986692D01*
X60509276Y-41995067D01*
X60508002Y-41998796D01*
X60504270Y-42001754D01*
X60494395Y-42014946D01*
X59856680Y-42652662D01*
X59795357Y-42686147D01*
X59725666Y-42681163D01*
X59669732Y-42639292D01*
X59645315Y-42573827D01*
X59645004Y-42565139D01*
X59644998Y-42565013D01*
X59634505Y-42462302D01*
X59579358Y-42295880D01*
X59579356Y-42295875D01*
X59487315Y-42146654D01*
X59363345Y-42022684D01*
X59214124Y-41930643D01*
X59214119Y-41930641D01*
X59047697Y-41875494D01*
X59047690Y-41875493D01*
X58944986Y-41865000D01*
X58670000Y-41865000D01*
X58670000Y-42741000D01*
X58650315Y-42808039D01*
X58597511Y-42853794D01*
X58546000Y-42865000D01*
X58420000Y-42865000D01*
X58420000Y-42991000D01*
X58400315Y-43058039D01*
X58347511Y-43103794D01*
X58296000Y-43115000D01*
X57195001Y-43115000D01*
X57195001Y-43164986D01*
X57205494Y-43267697D01*
X57260641Y-43434119D01*
X57260643Y-43434124D01*
X57352684Y-43583345D01*
X57476654Y-43707315D01*
X57625875Y-43799356D01*
X57625880Y-43799358D01*
X57696605Y-43822794D01*
X57754050Y-43862566D01*
X57780873Y-43927082D01*
X57768558Y-43995858D01*
X57721015Y-44047058D01*
X57657601Y-44064500D01*
X55372400Y-44064500D01*
X55305361Y-44044815D01*
X55259606Y-43992011D01*
X55249662Y-43922853D01*
X55278687Y-43859297D01*
X55333396Y-43822794D01*
X55404119Y-43799358D01*
X55404124Y-43799356D01*
X55553345Y-43707315D01*
X55677315Y-43583345D01*
X55769356Y-43434124D01*
X55769358Y-43434119D01*
X55824505Y-43267697D01*
X55824506Y-43267690D01*
X55834999Y-43164986D01*
X55835000Y-43164973D01*
X55835000Y-43115000D01*
X54734000Y-43115000D01*
X54666961Y-43095315D01*
X54621206Y-43042511D01*
X54610000Y-42991000D01*
X54610000Y-42865000D01*
X54484000Y-42865000D01*
X54416961Y-42845315D01*
X54371206Y-42792511D01*
X54360000Y-42741000D01*
X54360000Y-42615000D01*
X54860000Y-42615000D01*
X55834999Y-42615000D01*
X55834999Y-42565029D01*
X55834998Y-42565013D01*
X57195000Y-42565013D01*
X57195000Y-42615000D01*
X58170000Y-42615000D01*
X58170000Y-41865000D01*
X57895029Y-41865000D01*
X57895012Y-41865001D01*
X57792302Y-41875494D01*
X57625880Y-41930641D01*
X57625875Y-41930643D01*
X57476654Y-42022684D01*
X57352684Y-42146654D01*
X57260643Y-42295875D01*
X57260641Y-42295880D01*
X57205494Y-42462302D01*
X57205493Y-42462309D01*
X57195000Y-42565013D01*
X55834998Y-42565013D01*
X55834998Y-42565012D01*
X55824505Y-42462302D01*
X55769358Y-42295880D01*
X55769356Y-42295875D01*
X55677315Y-42146654D01*
X55553345Y-42022684D01*
X55404124Y-41930643D01*
X55404119Y-41930641D01*
X55237697Y-41875494D01*
X55237690Y-41875493D01*
X55134986Y-41865000D01*
X54860000Y-41865000D01*
X54860000Y-42615000D01*
X54360000Y-42615000D01*
X54360000Y-41865000D01*
X54085029Y-41865000D01*
X54085012Y-41865001D01*
X53982298Y-41875494D01*
X53975681Y-41876911D01*
X53975352Y-41875376D01*
X53913674Y-41877497D01*
X53853633Y-41841765D01*
X53822441Y-41779244D01*
X53820500Y-41757390D01*
X53820500Y-36719986D01*
X57105001Y-36719986D01*
X57115494Y-36822697D01*
X57170641Y-36989119D01*
X57170643Y-36989124D01*
X57262684Y-37138345D01*
X57386654Y-37262315D01*
X57535875Y-37354356D01*
X57535880Y-37354358D01*
X57702302Y-37409505D01*
X57702309Y-37409506D01*
X57770761Y-37416500D01*
X57855000Y-37416500D01*
X57855000Y-36445000D01*
X57105001Y-36445000D01*
X57105001Y-36719986D01*
X53820500Y-36719986D01*
X53820500Y-35518350D01*
X53840185Y-35451311D01*
X53879798Y-35412569D01*
X53891072Y-35405673D01*
X53927882Y-35392793D01*
X54004120Y-35336526D01*
X54008711Y-35333719D01*
X54037449Y-35325970D01*
X54065408Y-35315759D01*
X54073413Y-35315500D01*
X57027214Y-35315500D01*
X57094253Y-35335185D01*
G37*
G04 #@! TD.AperFunction*
G04 #@! TA.AperFunction,Conductor*
G36*
X75012862Y-34272751D02*
G01*
X75033100Y-34296106D01*
X75055448Y-34329552D01*
X75121769Y-34373867D01*
X75121770Y-34373868D01*
X75180247Y-34385499D01*
X75180250Y-34385500D01*
X75180252Y-34385500D01*
X75250500Y-34385500D01*
X75317539Y-34405185D01*
X75363294Y-34457989D01*
X75374500Y-34509500D01*
X75374500Y-35044269D01*
X75377353Y-35074699D01*
X75377353Y-35074701D01*
X75422206Y-35202880D01*
X75422207Y-35202882D01*
X75502849Y-35312149D01*
X75502851Y-35312151D01*
X75569430Y-35361288D01*
X75611681Y-35416935D01*
X75619797Y-35461058D01*
X75619797Y-36298870D01*
X75600112Y-36365909D01*
X75583478Y-36386551D01*
X74689541Y-37280487D01*
X74689535Y-37280495D01*
X74649982Y-37349004D01*
X74649979Y-37349009D01*
X74648546Y-37354358D01*
X74630958Y-37419999D01*
X74629500Y-37425439D01*
X74629500Y-43034167D01*
X74609815Y-43101206D01*
X74593181Y-43121848D01*
X74295000Y-43420029D01*
X74295000Y-35358018D01*
X74357150Y-35312150D01*
X74437793Y-35202882D01*
X74464106Y-35127684D01*
X74482646Y-35074701D01*
X74482646Y-35074699D01*
X74485500Y-35044269D01*
X74485500Y-34509500D01*
X74505185Y-34442461D01*
X74557989Y-34396706D01*
X74609500Y-34385500D01*
X74679750Y-34385500D01*
X74679751Y-34385499D01*
X74694568Y-34382552D01*
X74738229Y-34373868D01*
X74738229Y-34373867D01*
X74738231Y-34373867D01*
X74804552Y-34329552D01*
X74826898Y-34296108D01*
X74880510Y-34251304D01*
X74949834Y-34242597D01*
X75012862Y-34272751D01*
G37*
G04 #@! TD.AperFunction*
G04 #@! TA.AperFunction,Conductor*
G36*
X65405000Y-40990673D02*
G01*
X65391497Y-40967285D01*
X65390464Y-40965495D01*
X65390458Y-40965487D01*
X65082456Y-40657485D01*
X65048971Y-40596162D01*
X65053955Y-40526470D01*
X65054783Y-40524313D01*
X65074698Y-40473813D01*
X65074699Y-40473808D01*
X65085000Y-40388035D01*
X65085000Y-40380000D01*
X64294000Y-40380000D01*
X64285314Y-40377449D01*
X64276353Y-40378738D01*
X64252312Y-40367759D01*
X64226961Y-40360315D01*
X64221033Y-40353474D01*
X64212797Y-40349713D01*
X64198507Y-40327478D01*
X64181206Y-40307511D01*
X64178918Y-40296996D01*
X64175023Y-40290935D01*
X64170000Y-40256000D01*
X64170000Y-40234000D01*
X64189685Y-40166961D01*
X64242489Y-40121206D01*
X64294000Y-40110000D01*
X65084999Y-40110000D01*
X65084999Y-40101972D01*
X65073929Y-40009779D01*
X65073930Y-39980210D01*
X65085000Y-39888034D01*
X65085000Y-39880000D01*
X64294000Y-39880000D01*
X64285314Y-39877449D01*
X64276353Y-39878738D01*
X64252312Y-39867759D01*
X64226961Y-39860315D01*
X64221033Y-39853474D01*
X64212797Y-39849713D01*
X64198507Y-39827478D01*
X64181206Y-39807511D01*
X64178918Y-39796996D01*
X64175023Y-39790935D01*
X64170000Y-39756000D01*
X64170000Y-39734000D01*
X64189685Y-39666961D01*
X64242489Y-39621206D01*
X64294000Y-39610000D01*
X65084999Y-39610000D01*
X65084999Y-39601972D01*
X65074699Y-39516190D01*
X65020872Y-39379694D01*
X65020671Y-39379428D01*
X65020561Y-39379140D01*
X65016715Y-39372299D01*
X65017741Y-39371721D01*
X64995846Y-39314117D01*
X65010273Y-39245753D01*
X65059369Y-39196040D01*
X65119473Y-39180500D01*
X65405000Y-39180500D01*
X65405000Y-40990673D01*
G37*
G04 #@! TD.AperFunction*
G04 #@! TA.AperFunction,Conductor*
G36*
X64739074Y-34630185D02*
G01*
X64759716Y-34646819D01*
X65405000Y-35292103D01*
X65405000Y-38579500D01*
X64495438Y-38579500D01*
X64467620Y-38586954D01*
X64419009Y-38599979D01*
X64419004Y-38599982D01*
X64350495Y-38639535D01*
X64350491Y-38639538D01*
X64218666Y-38771363D01*
X64157343Y-38804847D01*
X64087651Y-38799863D01*
X64031718Y-38757991D01*
X64014803Y-38727014D01*
X63998354Y-38682913D01*
X63998350Y-38682906D01*
X63912190Y-38567812D01*
X63912187Y-38567809D01*
X63797093Y-38481649D01*
X63797086Y-38481645D01*
X63655108Y-38428691D01*
X63655915Y-38426525D01*
X63605253Y-38397664D01*
X63572878Y-38335747D01*
X63570500Y-38311577D01*
X63570500Y-37905677D01*
X63556908Y-37837349D01*
X63533545Y-37802384D01*
X63505135Y-37759865D01*
X63474098Y-37739127D01*
X63427650Y-37708091D01*
X63359322Y-37694500D01*
X63359320Y-37694500D01*
X63110680Y-37694500D01*
X63078690Y-37700863D01*
X63009099Y-37694634D01*
X62953922Y-37651771D01*
X62930678Y-37585881D01*
X62930500Y-37579245D01*
X62930500Y-36957400D01*
X62950185Y-36890361D01*
X63002989Y-36844606D01*
X63072147Y-36834662D01*
X63135703Y-36863687D01*
X63172206Y-36918396D01*
X63195641Y-36989119D01*
X63195643Y-36989124D01*
X63287684Y-37138345D01*
X63411654Y-37262315D01*
X63560875Y-37354356D01*
X63560880Y-37354358D01*
X63727302Y-37409505D01*
X63727309Y-37409506D01*
X63830019Y-37419999D01*
X64380000Y-37419999D01*
X64429972Y-37419999D01*
X64429986Y-37419998D01*
X64532697Y-37409505D01*
X64699119Y-37354358D01*
X64699124Y-37354356D01*
X64848345Y-37262315D01*
X64972315Y-37138345D01*
X65064356Y-36989124D01*
X65064358Y-36989119D01*
X65119505Y-36822697D01*
X65119506Y-36822690D01*
X65129999Y-36719986D01*
X65130000Y-36719973D01*
X65130000Y-36445000D01*
X64380000Y-36445000D01*
X64380000Y-37419999D01*
X63830019Y-37419999D01*
X63879999Y-37419998D01*
X63880000Y-37419998D01*
X63880000Y-35945000D01*
X64380000Y-35945000D01*
X65129999Y-35945000D01*
X65129999Y-35670028D01*
X65129998Y-35670013D01*
X65119505Y-35567302D01*
X65064358Y-35400880D01*
X65064356Y-35400875D01*
X64972315Y-35251654D01*
X64848345Y-35127684D01*
X64699124Y-35035643D01*
X64699119Y-35035641D01*
X64532697Y-34980494D01*
X64532690Y-34980493D01*
X64429986Y-34970000D01*
X64380000Y-34970000D01*
X64380000Y-35945000D01*
X63880000Y-35945000D01*
X63880000Y-34970000D01*
X63879999Y-34969999D01*
X63830029Y-34970000D01*
X63830011Y-34970001D01*
X63727302Y-34980494D01*
X63560880Y-35035641D01*
X63560875Y-35035643D01*
X63411654Y-35127684D01*
X63287684Y-35251654D01*
X63195643Y-35400875D01*
X63195641Y-35400880D01*
X63139905Y-35569082D01*
X63100132Y-35626527D01*
X63035617Y-35653350D01*
X62966841Y-35641035D01*
X62915641Y-35593492D01*
X62905158Y-35571033D01*
X62882793Y-35507119D01*
X62882792Y-35507117D01*
X62848799Y-35461058D01*
X62802150Y-35397850D01*
X62692882Y-35317207D01*
X62692880Y-35317206D01*
X62564700Y-35272353D01*
X62534270Y-35269500D01*
X62534266Y-35269500D01*
X62346518Y-35269500D01*
X62279479Y-35249815D01*
X62258837Y-35233181D01*
X61847838Y-34822181D01*
X61814353Y-34760858D01*
X61819337Y-34691166D01*
X61861209Y-34635233D01*
X61926673Y-34610816D01*
X61935519Y-34610500D01*
X64672035Y-34610500D01*
X64739074Y-34630185D01*
G37*
G04 #@! TD.AperFunction*
G04 #@! TA.AperFunction,Conductor*
G36*
X72402539Y-33435185D02*
G01*
X72448294Y-33487989D01*
X72459500Y-33539500D01*
X72459500Y-34204752D01*
X72471131Y-34263229D01*
X72471132Y-34263230D01*
X72515447Y-34329552D01*
X72581769Y-34373867D01*
X72581770Y-34373868D01*
X72640247Y-34385499D01*
X72640250Y-34385500D01*
X72640252Y-34385500D01*
X72710500Y-34385500D01*
X72777539Y-34405185D01*
X72823294Y-34457989D01*
X72834500Y-34509500D01*
X72834500Y-34925000D01*
X66312103Y-34925000D01*
X65186614Y-33799511D01*
X65135250Y-33769856D01*
X65083888Y-33740201D01*
X65071780Y-33736957D01*
X65059673Y-33733713D01*
X65059670Y-33733712D01*
X65021478Y-33723478D01*
X64969309Y-33709500D01*
X61045691Y-33709500D01*
X60955325Y-33733713D01*
X60955324Y-33733712D01*
X60931116Y-33740199D01*
X60931113Y-33740200D01*
X60828386Y-33799511D01*
X60828383Y-33799513D01*
X60749716Y-33878181D01*
X60688393Y-33911666D01*
X60662035Y-33914500D01*
X54664500Y-33914500D01*
X54597461Y-33894815D01*
X54551706Y-33842011D01*
X54540500Y-33790500D01*
X54540500Y-33539500D01*
X54560185Y-33472461D01*
X54612989Y-33426706D01*
X54664500Y-33415500D01*
X72335500Y-33415500D01*
X72402539Y-33435185D01*
G37*
G04 #@! TD.AperFunction*
M02*
