G04 #@! TF.GenerationSoftware,KiCad,Pcbnew,9.0.1+1*
G04 #@! TF.CreationDate,2025-11-12T15:34:36+00:00*
G04 #@! TF.ProjectId,audio-jack,61756469-6f2d-46a6-9163-6b2e6b696361,rev?*
G04 #@! TF.SameCoordinates,Original*
G04 #@! TF.FileFunction,Copper,L2,Bot*
G04 #@! TF.FilePolarity,Positive*
%FSLAX46Y46*%
G04 Gerber Fmt 4.6, Leading zero omitted, Abs format (unit mm)*
G04 Created by KiCad (PCBNEW 9.0.1+1) date 2025-11-12 15:34:36*
%MOMM*%
%LPD*%
G01*
G04 APERTURE LIST*
G04 #@! TA.AperFunction,EtchedComponent*
%ADD10C,0.000000*%
G04 #@! TD*
G04 #@! TA.AperFunction,CastellatedPad*
%ADD11R,2.000000X2.540000*%
G04 #@! TD*
G04 #@! TA.AperFunction,ViaPad*
%ADD12C,0.600000*%
G04 #@! TD*
G04 #@! TA.AperFunction,Conductor*
%ADD13C,0.200000*%
G04 #@! TD*
G04 APERTURE END LIST*
D10*
G04 #@! TA.AperFunction,EtchedComponent*
G36*
X42565156Y-31011969D02*
G01*
X42065156Y-31011969D01*
X42065156Y-30411969D01*
X42565156Y-30411969D01*
X42565156Y-31011969D01*
G37*
G04 #@! TD.AperFunction*
D11*
X39515156Y-44261969D03*
G04 #@! TA.AperFunction,ComponentPad*
G36*
G01*
X39140156Y-41936969D02*
X39890156Y-41936969D01*
G75*
G02*
X40140156Y-42186969I0J-250000D01*
G01*
X40140156Y-42936969D01*
G75*
G02*
X39890156Y-43186969I-250000J0D01*
G01*
X39140156Y-43186969D01*
G75*
G02*
X38890156Y-42936969I0J250000D01*
G01*
X38890156Y-42186969D01*
G75*
G02*
X39140156Y-41936969I250000J0D01*
G01*
G37*
G04 #@! TD.AperFunction*
X54755156Y-44261969D03*
G04 #@! TA.AperFunction,ComponentPad*
G36*
G01*
X54380156Y-41936969D02*
X55130156Y-41936969D01*
G75*
G02*
X55380156Y-42186969I0J-250000D01*
G01*
X55380156Y-42936969D01*
G75*
G02*
X55130156Y-43186969I-250000J0D01*
G01*
X54380156Y-43186969D01*
G75*
G02*
X54130156Y-42936969I0J250000D01*
G01*
X54130156Y-42186969D01*
G75*
G02*
X54380156Y-41936969I250000J0D01*
G01*
G37*
G04 #@! TD.AperFunction*
G04 #@! TA.AperFunction,ComponentPad*
G36*
G01*
X39140156Y-30336969D02*
X39890156Y-30336969D01*
G75*
G02*
X40140156Y-30586969I0J-250000D01*
G01*
X40140156Y-31336969D01*
G75*
G02*
X39890156Y-31586969I-250000J0D01*
G01*
X39140156Y-31586969D01*
G75*
G02*
X38890156Y-31336969I0J250000D01*
G01*
X38890156Y-30586969D01*
G75*
G02*
X39140156Y-30336969I250000J0D01*
G01*
G37*
G04 #@! TD.AperFunction*
X39515156Y-29261969D03*
G04 #@! TA.AperFunction,ComponentPad*
G36*
G01*
X49300156Y-30336969D02*
X50050156Y-30336969D01*
G75*
G02*
X50300156Y-30586969I0J-250000D01*
G01*
X50300156Y-31336969D01*
G75*
G02*
X50050156Y-31586969I-250000J0D01*
G01*
X49300156Y-31586969D01*
G75*
G02*
X49050156Y-31336969I0J250000D01*
G01*
X49050156Y-30586969D01*
G75*
G02*
X49300156Y-30336969I250000J0D01*
G01*
G37*
G04 #@! TD.AperFunction*
X49675156Y-29261969D03*
G04 #@! TA.AperFunction,ComponentPad*
G36*
G01*
X54380156Y-30336969D02*
X55130156Y-30336969D01*
G75*
G02*
X55380156Y-30586969I0J-250000D01*
G01*
X55380156Y-31336969D01*
G75*
G02*
X55130156Y-31586969I-250000J0D01*
G01*
X54380156Y-31586969D01*
G75*
G02*
X54130156Y-31336969I0J250000D01*
G01*
X54130156Y-30586969D01*
G75*
G02*
X54380156Y-30336969I250000J0D01*
G01*
G37*
G04 #@! TD.AperFunction*
X54755156Y-29261969D03*
G04 #@! TA.AperFunction,SMDPad,CuDef*
G36*
X42165156Y-31461969D02*
G01*
X41665156Y-31461969D01*
X41665156Y-31457691D01*
X41599893Y-31457691D01*
X41473814Y-31423909D01*
X41360775Y-31358646D01*
X41268479Y-31266350D01*
X41203216Y-31153311D01*
X41169434Y-31027232D01*
X41169434Y-30961969D01*
X41165156Y-30961969D01*
X41165156Y-30461969D01*
X41169434Y-30461969D01*
X41169434Y-30396706D01*
X41203216Y-30270627D01*
X41268479Y-30157588D01*
X41360775Y-30065292D01*
X41473814Y-30000029D01*
X41599893Y-29966247D01*
X41665156Y-29966247D01*
X41665156Y-29961969D01*
X42165156Y-29961969D01*
X42165156Y-31461969D01*
G37*
G04 #@! TD.AperFunction*
G04 #@! TA.AperFunction,SMDPad,CuDef*
G36*
X42965156Y-29966247D02*
G01*
X43030419Y-29966247D01*
X43156498Y-30000029D01*
X43269537Y-30065292D01*
X43361833Y-30157588D01*
X43427096Y-30270627D01*
X43460878Y-30396706D01*
X43460878Y-30461969D01*
X43465156Y-30461969D01*
X43465156Y-30961969D01*
X43460878Y-30961969D01*
X43460878Y-31027232D01*
X43427096Y-31153311D01*
X43361833Y-31266350D01*
X43269537Y-31358646D01*
X43156498Y-31423909D01*
X43030419Y-31457691D01*
X42965156Y-31457691D01*
X42965156Y-31461969D01*
X42465156Y-31461969D01*
X42465156Y-29961969D01*
X42965156Y-29961969D01*
X42965156Y-29966247D01*
G37*
G04 #@! TD.AperFunction*
D12*
X42905156Y-31811969D03*
X44235156Y-42121969D03*
X41655156Y-31881969D03*
D13*
X42905156Y-30771969D02*
X42965156Y-30711969D01*
X42905156Y-31811969D02*
X42905156Y-30771969D01*
X41665156Y-30711969D02*
X41665156Y-31871969D01*
X41665156Y-31871969D02*
X41655156Y-31881969D01*
G04 #@! TA.AperFunction,Conductor*
G36*
X48117696Y-29782154D02*
G01*
X48163451Y-29834958D01*
X48174657Y-29886469D01*
X48174657Y-30579845D01*
X48181064Y-30639452D01*
X48231358Y-30774297D01*
X48231362Y-30774304D01*
X48317608Y-30889513D01*
X48317611Y-30889516D01*
X48432820Y-30975762D01*
X48432825Y-30975765D01*
X48468988Y-30989253D01*
X48524922Y-31031123D01*
X48549340Y-31096587D01*
X48549656Y-31105435D01*
X48549656Y-31386969D01*
X48549657Y-31386988D01*
X48560156Y-31489765D01*
X48560157Y-31489768D01*
X48605439Y-31626418D01*
X48615342Y-31656303D01*
X48707444Y-31805625D01*
X48831500Y-31929681D01*
X48980822Y-32021783D01*
X49147359Y-32076968D01*
X49250147Y-32087469D01*
X50100164Y-32087468D01*
X50100172Y-32087467D01*
X50100175Y-32087467D01*
X50156458Y-32081717D01*
X50202953Y-32076968D01*
X50369490Y-32021783D01*
X50518812Y-31929681D01*
X50642868Y-31805625D01*
X50734970Y-31656303D01*
X50790155Y-31489766D01*
X50800656Y-31386978D01*
X50800655Y-31105434D01*
X50820339Y-31038396D01*
X50873143Y-30992641D01*
X50881305Y-30989259D01*
X50917487Y-30975765D01*
X51032702Y-30889515D01*
X51118952Y-30774300D01*
X51169247Y-30639452D01*
X51175656Y-30579842D01*
X51175656Y-29886469D01*
X51195341Y-29819430D01*
X51248145Y-29773675D01*
X51299656Y-29762469D01*
X53130657Y-29762469D01*
X53197696Y-29782154D01*
X53243451Y-29834958D01*
X53254657Y-29886469D01*
X53254657Y-30579845D01*
X53261064Y-30639452D01*
X53311358Y-30774297D01*
X53311362Y-30774304D01*
X53397608Y-30889513D01*
X53397611Y-30889516D01*
X53512820Y-30975762D01*
X53512825Y-30975765D01*
X53548988Y-30989253D01*
X53604922Y-31031123D01*
X53629340Y-31096587D01*
X53629656Y-31105435D01*
X53629656Y-31386969D01*
X53629657Y-31386988D01*
X53640156Y-31489765D01*
X53640157Y-31489768D01*
X53685439Y-31626418D01*
X53695342Y-31656303D01*
X53787444Y-31805625D01*
X53911500Y-31929681D01*
X54060822Y-32021783D01*
X54227359Y-32076968D01*
X54330147Y-32087469D01*
X55180164Y-32087468D01*
X55180172Y-32087467D01*
X55180175Y-32087467D01*
X55236458Y-32081717D01*
X55282953Y-32076968D01*
X55361654Y-32050888D01*
X55431479Y-32048487D01*
X55491521Y-32084218D01*
X55522714Y-32146738D01*
X55524656Y-32168595D01*
X55524656Y-41355869D01*
X55504971Y-41422908D01*
X55452167Y-41468663D01*
X55383009Y-41478607D01*
X55361652Y-41473575D01*
X55282853Y-41447463D01*
X55282846Y-41447462D01*
X55180136Y-41436969D01*
X54330184Y-41436969D01*
X54330168Y-41436970D01*
X54227458Y-41447463D01*
X54061034Y-41502611D01*
X54061029Y-41502613D01*
X54053807Y-41507067D01*
X54053806Y-41507068D01*
X54733707Y-42186969D01*
X54705786Y-42186969D01*
X54610411Y-42212525D01*
X54524901Y-42261894D01*
X54455081Y-42331714D01*
X54405712Y-42417224D01*
X54380156Y-42512599D01*
X54380156Y-42540520D01*
X53700255Y-41860619D01*
X53700254Y-41860620D01*
X53695800Y-41867842D01*
X53695798Y-41867846D01*
X53640650Y-42034271D01*
X53640649Y-42034278D01*
X53630156Y-42136982D01*
X53630156Y-42418849D01*
X53610471Y-42485888D01*
X53557667Y-42531643D01*
X53549491Y-42535030D01*
X53513066Y-42548616D01*
X53445748Y-42599010D01*
X54276601Y-43429863D01*
X54172593Y-43533872D01*
X54090515Y-43656711D01*
X54047122Y-43761469D01*
X53952466Y-43761469D01*
X53885427Y-43741784D01*
X53864785Y-43725150D01*
X53255156Y-43115520D01*
X53255156Y-43637469D01*
X53235471Y-43704508D01*
X53182667Y-43750263D01*
X53131156Y-43761469D01*
X41139655Y-43761469D01*
X41072616Y-43741784D01*
X41026861Y-43688980D01*
X41015655Y-43637469D01*
X41015655Y-42944098D01*
X41015654Y-42944092D01*
X41014888Y-42936969D01*
X41009247Y-42884486D01*
X40958952Y-42749638D01*
X40958951Y-42749637D01*
X40958949Y-42749633D01*
X40872703Y-42634424D01*
X40872700Y-42634421D01*
X40757490Y-42548174D01*
X40757488Y-42548173D01*
X40721320Y-42534683D01*
X40665387Y-42492811D01*
X40640971Y-42427346D01*
X40640655Y-42418502D01*
X40640655Y-42136967D01*
X40640654Y-42136950D01*
X40630155Y-42034172D01*
X40630154Y-42034169D01*
X40574970Y-41867635D01*
X40482868Y-41718313D01*
X40358812Y-41594257D01*
X40266044Y-41537038D01*
X40209492Y-41502156D01*
X40209487Y-41502154D01*
X40208018Y-41501667D01*
X40042953Y-41446970D01*
X40042951Y-41446969D01*
X39940166Y-41436469D01*
X39090154Y-41436469D01*
X39090136Y-41436470D01*
X38987359Y-41446969D01*
X38987356Y-41446970D01*
X38908660Y-41473048D01*
X38838832Y-41475450D01*
X38778790Y-41439718D01*
X38747597Y-41377198D01*
X38745656Y-41355342D01*
X38745656Y-36367482D01*
X43164656Y-36367482D01*
X43164656Y-36556455D01*
X43194215Y-36743087D01*
X43252610Y-36922805D01*
X43338396Y-37091168D01*
X43449466Y-37244042D01*
X43583083Y-37377659D01*
X43735957Y-37488729D01*
X43815503Y-37529259D01*
X43904319Y-37574514D01*
X43904321Y-37574514D01*
X43904324Y-37574516D01*
X44000653Y-37605815D01*
X44084037Y-37632909D01*
X44270670Y-37662469D01*
X44270675Y-37662469D01*
X44459642Y-37662469D01*
X44646274Y-37632909D01*
X44825988Y-37574516D01*
X44994355Y-37488729D01*
X45147229Y-37377659D01*
X45280846Y-37244042D01*
X45391916Y-37091168D01*
X45477703Y-36922801D01*
X45536096Y-36743087D01*
X45565656Y-36556455D01*
X45565656Y-36367482D01*
X50164656Y-36367482D01*
X50164656Y-36556455D01*
X50194215Y-36743087D01*
X50252610Y-36922805D01*
X50338396Y-37091168D01*
X50449466Y-37244042D01*
X50583083Y-37377659D01*
X50735957Y-37488729D01*
X50815503Y-37529259D01*
X50904319Y-37574514D01*
X50904321Y-37574514D01*
X50904324Y-37574516D01*
X51000653Y-37605815D01*
X51084037Y-37632909D01*
X51270670Y-37662469D01*
X51270675Y-37662469D01*
X51459642Y-37662469D01*
X51646274Y-37632909D01*
X51825988Y-37574516D01*
X51994355Y-37488729D01*
X52147229Y-37377659D01*
X52280846Y-37244042D01*
X52391916Y-37091168D01*
X52477703Y-36922801D01*
X52536096Y-36743087D01*
X52565656Y-36556455D01*
X52565656Y-36367482D01*
X52536096Y-36180850D01*
X52477701Y-36001132D01*
X52391915Y-35832769D01*
X52280846Y-35679896D01*
X52147229Y-35546279D01*
X51994355Y-35435209D01*
X51825992Y-35349423D01*
X51646274Y-35291028D01*
X51459642Y-35261469D01*
X51459637Y-35261469D01*
X51270675Y-35261469D01*
X51270670Y-35261469D01*
X51084037Y-35291028D01*
X50904319Y-35349423D01*
X50735956Y-35435209D01*
X50648735Y-35498579D01*
X50583083Y-35546279D01*
X50583081Y-35546281D01*
X50583080Y-35546281D01*
X50449468Y-35679893D01*
X50449468Y-35679894D01*
X50449466Y-35679896D01*
X50401766Y-35745548D01*
X50338396Y-35832769D01*
X50252610Y-36001132D01*
X50194215Y-36180850D01*
X50164656Y-36367482D01*
X45565656Y-36367482D01*
X45536096Y-36180850D01*
X45477701Y-36001132D01*
X45391915Y-35832769D01*
X45280846Y-35679896D01*
X45147229Y-35546279D01*
X44994355Y-35435209D01*
X44825992Y-35349423D01*
X44646274Y-35291028D01*
X44459642Y-35261469D01*
X44459637Y-35261469D01*
X44270675Y-35261469D01*
X44270670Y-35261469D01*
X44084037Y-35291028D01*
X43904319Y-35349423D01*
X43735956Y-35435209D01*
X43648735Y-35498579D01*
X43583083Y-35546279D01*
X43583081Y-35546281D01*
X43583080Y-35546281D01*
X43449468Y-35679893D01*
X43449468Y-35679894D01*
X43449466Y-35679896D01*
X43401766Y-35745548D01*
X43338396Y-35832769D01*
X43252610Y-36001132D01*
X43194215Y-36180850D01*
X43164656Y-36367482D01*
X38745656Y-36367482D01*
X38745656Y-32168595D01*
X38765341Y-32101556D01*
X38818145Y-32055801D01*
X38887303Y-32045857D01*
X38908652Y-32050887D01*
X38987359Y-32076968D01*
X39090147Y-32087469D01*
X39940164Y-32087468D01*
X39940172Y-32087467D01*
X39940175Y-32087467D01*
X39996458Y-32081717D01*
X40042953Y-32076968D01*
X40209490Y-32021783D01*
X40358812Y-31929681D01*
X40482868Y-31805625D01*
X40574970Y-31656303D01*
X40608604Y-31554800D01*
X40614653Y-31546063D01*
X40616792Y-31535651D01*
X40634197Y-31517834D01*
X40648375Y-31497358D01*
X40658189Y-31493277D01*
X40665618Y-31485674D01*
X40689892Y-31480096D01*
X40712891Y-31470534D01*
X40723353Y-31472407D01*
X40733713Y-31470027D01*
X40757150Y-31478459D01*
X40781667Y-31482849D01*
X40791194Y-31490707D01*
X40799458Y-31493680D01*
X40817305Y-31512241D01*
X40824704Y-31518344D01*
X40827229Y-31521637D01*
X40827281Y-31521726D01*
X40859096Y-31563188D01*
X40859288Y-31563438D01*
X40872373Y-31597310D01*
X40884463Y-31628583D01*
X40884461Y-31628603D01*
X40884466Y-31628614D01*
X40884459Y-31628645D01*
X40882510Y-31663091D01*
X40854656Y-31803122D01*
X40854656Y-31960815D01*
X40885417Y-32115458D01*
X40885420Y-32115470D01*
X40945758Y-32261141D01*
X40945765Y-32261154D01*
X41033366Y-32392257D01*
X41033369Y-32392261D01*
X41144863Y-32503755D01*
X41144867Y-32503758D01*
X41275970Y-32591359D01*
X41275983Y-32591366D01*
X41421654Y-32651704D01*
X41421659Y-32651706D01*
X41576309Y-32682468D01*
X41576312Y-32682469D01*
X41576314Y-32682469D01*
X41734000Y-32682469D01*
X41734001Y-32682468D01*
X41888653Y-32651706D01*
X42034335Y-32591363D01*
X42165445Y-32503758D01*
X42227836Y-32441366D01*
X42289157Y-32407883D01*
X42358849Y-32412867D01*
X42389656Y-32430591D01*
X42389802Y-32430374D01*
X42393044Y-32432540D01*
X42394175Y-32433191D01*
X42394863Y-32433756D01*
X42525970Y-32521359D01*
X42525983Y-32521366D01*
X42671654Y-32581704D01*
X42671659Y-32581706D01*
X42826309Y-32612468D01*
X42826312Y-32612469D01*
X42826314Y-32612469D01*
X42984000Y-32612469D01*
X42984001Y-32612468D01*
X43138653Y-32581706D01*
X43284335Y-32521363D01*
X43415445Y-32433758D01*
X43526945Y-32322258D01*
X43614550Y-32191148D01*
X43674893Y-32045466D01*
X43705656Y-31890811D01*
X43705656Y-31733127D01*
X43703269Y-31721126D01*
X43709496Y-31651535D01*
X43726507Y-31621451D01*
X43803031Y-31521726D01*
X43868857Y-31407712D01*
X43919356Y-31285798D01*
X43953431Y-31158631D01*
X43970656Y-31027795D01*
X43970656Y-30396143D01*
X43953431Y-30265307D01*
X43919356Y-30138140D01*
X43868857Y-30016226D01*
X43868854Y-30016221D01*
X43868853Y-30016218D01*
X43868852Y-30016217D01*
X43829738Y-29948469D01*
X43813265Y-29880569D01*
X43836118Y-29814542D01*
X43891039Y-29771351D01*
X43937125Y-29762469D01*
X48050657Y-29762469D01*
X48117696Y-29782154D01*
G37*
G04 #@! TD.AperFunction*
M02*
