G04 #@! TF.GenerationSoftware,KiCad,Pcbnew,9.0.1+1*
G04 #@! TF.CreationDate,2025-11-12T15:11:55+00:00*
G04 #@! TF.ProjectId,audio-jack,61756469-6f2d-46a6-9163-6b2e6b696361,rev?*
G04 #@! TF.SameCoordinates,Original*
G04 #@! TF.FileFunction,Legend,Top*
G04 #@! TF.FilePolarity,Positive*
%FSLAX46Y46*%
G04 Gerber Fmt 4.6, Leading zero omitted, Abs format (unit mm)*
G04 Created by KiCad (PCBNEW 9.0.1+1) date 2025-11-12 15:11:55*
%MOMM*%
%LPD*%
G01*
G04 APERTURE LIST*
%ADD10C,0.150000*%
%ADD11C,0.100000*%
%ADD12C,0.120000*%
%ADD13C,0.127000*%
%ADD14C,0.200000*%
%ADD15C,1.900000*%
%ADD16R,2.000000X2.540000*%
G04 APERTURE END LIST*
D10*
X40271822Y-32226788D02*
X40271822Y-32941073D01*
X40271822Y-32941073D02*
X40224203Y-33083930D01*
X40224203Y-33083930D02*
X40128965Y-33179169D01*
X40128965Y-33179169D02*
X39986108Y-33226788D01*
X39986108Y-33226788D02*
X39890870Y-33226788D01*
X41271822Y-33226788D02*
X40700394Y-33226788D01*
X40986108Y-33226788D02*
X40986108Y-32226788D01*
X40986108Y-32226788D02*
X40890870Y-32369645D01*
X40890870Y-32369645D02*
X40795632Y-32464883D01*
X40795632Y-32464883D02*
X40700394Y-32512502D01*
D11*
X52432575Y-32921492D02*
X51432575Y-32921492D01*
X51432575Y-32921492D02*
X52146860Y-32588159D01*
X52146860Y-32588159D02*
X51432575Y-32254826D01*
X51432575Y-32254826D02*
X52432575Y-32254826D01*
X52432575Y-31254826D02*
X52432575Y-31826254D01*
X52432575Y-31540540D02*
X51432575Y-31540540D01*
X51432575Y-31540540D02*
X51575432Y-31635778D01*
X51575432Y-31635778D02*
X51670670Y-31731016D01*
X51670670Y-31731016D02*
X51718289Y-31826254D01*
D10*
X49621822Y-40426788D02*
X49621822Y-41141073D01*
X49621822Y-41141073D02*
X49574203Y-41283930D01*
X49574203Y-41283930D02*
X49478965Y-41379169D01*
X49478965Y-41379169D02*
X49336108Y-41426788D01*
X49336108Y-41426788D02*
X49240870Y-41426788D01*
X50098013Y-41426788D02*
X50098013Y-40426788D01*
X50098013Y-40426788D02*
X50478965Y-40426788D01*
X50478965Y-40426788D02*
X50574203Y-40474407D01*
X50574203Y-40474407D02*
X50621822Y-40522026D01*
X50621822Y-40522026D02*
X50669441Y-40617264D01*
X50669441Y-40617264D02*
X50669441Y-40760121D01*
X50669441Y-40760121D02*
X50621822Y-40855359D01*
X50621822Y-40855359D02*
X50574203Y-40902978D01*
X50574203Y-40902978D02*
X50478965Y-40950597D01*
X50478965Y-40950597D02*
X50098013Y-40950597D01*
X51050394Y-40522026D02*
X51098013Y-40474407D01*
X51098013Y-40474407D02*
X51193251Y-40426788D01*
X51193251Y-40426788D02*
X51431346Y-40426788D01*
X51431346Y-40426788D02*
X51526584Y-40474407D01*
X51526584Y-40474407D02*
X51574203Y-40522026D01*
X51574203Y-40522026D02*
X51621822Y-40617264D01*
X51621822Y-40617264D02*
X51621822Y-40712502D01*
X51621822Y-40712502D02*
X51574203Y-40855359D01*
X51574203Y-40855359D02*
X51002775Y-41426788D01*
X51002775Y-41426788D02*
X51621822Y-41426788D01*
X45481822Y-40506788D02*
X45481822Y-41221073D01*
X45481822Y-41221073D02*
X45434203Y-41363930D01*
X45434203Y-41363930D02*
X45338965Y-41459169D01*
X45338965Y-41459169D02*
X45196108Y-41506788D01*
X45196108Y-41506788D02*
X45100870Y-41506788D01*
X45958013Y-41506788D02*
X45958013Y-40506788D01*
X45958013Y-40506788D02*
X46338965Y-40506788D01*
X46338965Y-40506788D02*
X46434203Y-40554407D01*
X46434203Y-40554407D02*
X46481822Y-40602026D01*
X46481822Y-40602026D02*
X46529441Y-40697264D01*
X46529441Y-40697264D02*
X46529441Y-40840121D01*
X46529441Y-40840121D02*
X46481822Y-40935359D01*
X46481822Y-40935359D02*
X46434203Y-40982978D01*
X46434203Y-40982978D02*
X46338965Y-41030597D01*
X46338965Y-41030597D02*
X45958013Y-41030597D01*
X47481822Y-41506788D02*
X46910394Y-41506788D01*
X47196108Y-41506788D02*
X47196108Y-40506788D01*
X47196108Y-40506788D02*
X47100870Y-40649645D01*
X47100870Y-40649645D02*
X47005632Y-40744883D01*
X47005632Y-40744883D02*
X46910394Y-40792502D01*
D12*
X41475156Y-43301969D02*
X41475156Y-42701969D01*
X42175156Y-42001969D02*
X43575156Y-42001969D01*
X43575156Y-44001969D02*
X42175156Y-44001969D01*
X44275156Y-42701969D02*
X44275156Y-43301969D01*
X41475156Y-42701969D02*
G75*
G02*
X42175156Y-42001969I699999J1D01*
G01*
X42175156Y-44001969D02*
G75*
G02*
X41475156Y-43301969I-1J699999D01*
G01*
X43575156Y-42001969D02*
G75*
G02*
X44275156Y-42701969I0J-700000D01*
G01*
X44275156Y-43301969D02*
G75*
G02*
X43575156Y-44001969I-700000J0D01*
G01*
D13*
X39865156Y-33461969D02*
X39865156Y-38141969D01*
X43815156Y-33461969D02*
X39865156Y-33461969D01*
X44685156Y-40261969D02*
X45865156Y-40261969D01*
X45865156Y-39461969D02*
X51545156Y-39461969D01*
X45865156Y-40261969D02*
X45865156Y-39461969D01*
X54185156Y-39461969D02*
X55365156Y-39461969D01*
X55365156Y-33461969D02*
X46485156Y-33461969D01*
X55365156Y-39461969D02*
X55365156Y-33461969D01*
D14*
X40565156Y-42461969D02*
G75*
G02*
X40365156Y-42461969I-100000J0D01*
G01*
X40365156Y-42461969D02*
G75*
G02*
X40565156Y-42461969I100000J0D01*
G01*
D12*
X49505156Y-43271969D02*
X49505156Y-42671969D01*
X50205156Y-41971969D02*
X51605156Y-41971969D01*
X51605156Y-43971969D02*
X50205156Y-43971969D01*
X52305156Y-42671969D02*
X52305156Y-43271969D01*
X49505156Y-42671969D02*
G75*
G02*
X50205156Y-41971969I699999J1D01*
G01*
X50205156Y-43971969D02*
G75*
G02*
X49505156Y-43271969I-1J699999D01*
G01*
X51605156Y-41971969D02*
G75*
G02*
X52305156Y-42671969I0J-700000D01*
G01*
X52305156Y-43271969D02*
G75*
G02*
X51605156Y-43971969I-700000J0D01*
G01*
X44855156Y-43281969D02*
X44855156Y-42681969D01*
X45555156Y-41981969D02*
X46955156Y-41981969D01*
X46955156Y-43981969D02*
X45555156Y-43981969D01*
X47655156Y-42681969D02*
X47655156Y-43281969D01*
X44855156Y-42681969D02*
G75*
G02*
X45555156Y-41981969I699999J1D01*
G01*
X45555156Y-43981969D02*
G75*
G02*
X44855156Y-43281969I-1J699999D01*
G01*
X46955156Y-41981969D02*
G75*
G02*
X47655156Y-42681969I0J-700000D01*
G01*
X47655156Y-43281969D02*
G75*
G02*
X46955156Y-43981969I-700000J0D01*
G01*
%LPC*%
G36*
X42725156Y-42251969D02*
G01*
X43025156Y-42251969D01*
X43025156Y-43751969D01*
X42725156Y-43751969D01*
X42725156Y-42251969D01*
G37*
G36*
X50755156Y-42221969D02*
G01*
X51055156Y-42221969D01*
X51055156Y-43721969D01*
X50755156Y-43721969D01*
X50755156Y-42221969D01*
G37*
G36*
X46105156Y-42231969D02*
G01*
X46405156Y-42231969D01*
X46405156Y-43731969D01*
X46105156Y-43731969D01*
X46105156Y-42231969D01*
G37*
G36*
X42725156Y-43751969D02*
G01*
X42225156Y-43751969D01*
X42225156Y-43747691D01*
X42159893Y-43747691D01*
X42033814Y-43713909D01*
X41920775Y-43648646D01*
X41828479Y-43556350D01*
X41763216Y-43443311D01*
X41729434Y-43317232D01*
X41729434Y-43251969D01*
X41725156Y-43251969D01*
X41725156Y-42751969D01*
X41729434Y-42751969D01*
X41729434Y-42686706D01*
X41763216Y-42560627D01*
X41828479Y-42447588D01*
X41920775Y-42355292D01*
X42033814Y-42290029D01*
X42159893Y-42256247D01*
X42225156Y-42256247D01*
X42225156Y-42251969D01*
X42725156Y-42251969D01*
X42725156Y-43751969D01*
G37*
G36*
X43525156Y-42256247D02*
G01*
X43590419Y-42256247D01*
X43716498Y-42290029D01*
X43829537Y-42355292D01*
X43921833Y-42447588D01*
X43987096Y-42560627D01*
X44020878Y-42686706D01*
X44020878Y-42751969D01*
X44025156Y-42751969D01*
X44025156Y-43251969D01*
X44020878Y-43251969D01*
X44020878Y-43317232D01*
X43987096Y-43443311D01*
X43921833Y-43556350D01*
X43829537Y-43648646D01*
X43716498Y-43713909D01*
X43590419Y-43747691D01*
X43525156Y-43747691D01*
X43525156Y-43751969D01*
X43025156Y-43751969D01*
X43025156Y-42251969D01*
X43525156Y-42251969D01*
X43525156Y-42256247D01*
G37*
D15*
X44365156Y-36461969D03*
X51365156Y-36461969D03*
G36*
G01*
X39363156Y-41461969D02*
X39363156Y-38461969D01*
G75*
G02*
X39465156Y-38359969I102000J0D01*
G01*
X41465156Y-38359969D01*
G75*
G02*
X41567156Y-38461969I0J-102000D01*
G01*
X41567156Y-41461969D01*
G75*
G02*
X41465156Y-41563969I-102000J0D01*
G01*
X39465156Y-41563969D01*
G75*
G02*
X39363156Y-41461969I0J102000D01*
G01*
G37*
G36*
G01*
X51763156Y-41461969D02*
X51763156Y-38461969D01*
G75*
G02*
X51865156Y-38359969I102000J0D01*
G01*
X53865156Y-38359969D01*
G75*
G02*
X53967156Y-38461969I0J-102000D01*
G01*
X53967156Y-41461969D01*
G75*
G02*
X53865156Y-41563969I-102000J0D01*
G01*
X51865156Y-41563969D01*
G75*
G02*
X51763156Y-41461969I0J102000D01*
G01*
G37*
G36*
G01*
X44063156Y-34461969D02*
X44063156Y-31461969D01*
G75*
G02*
X44165156Y-31359969I102000J0D01*
G01*
X46165156Y-31359969D01*
G75*
G02*
X46267156Y-31461969I0J-102000D01*
G01*
X46267156Y-34461969D01*
G75*
G02*
X46165156Y-34563969I-102000J0D01*
G01*
X44165156Y-34563969D01*
G75*
G02*
X44063156Y-34461969I0J102000D01*
G01*
G37*
G36*
G01*
X42263156Y-41461969D02*
X42263156Y-38461969D01*
G75*
G02*
X42365156Y-38359969I102000J0D01*
G01*
X44365156Y-38359969D01*
G75*
G02*
X44467156Y-38461969I0J-102000D01*
G01*
X44467156Y-41461969D01*
G75*
G02*
X44365156Y-41563969I-102000J0D01*
G01*
X42365156Y-41563969D01*
G75*
G02*
X42263156Y-41461969I0J102000D01*
G01*
G37*
D16*
X39515156Y-44261969D03*
G36*
G01*
X39140156Y-41936969D02*
X39890156Y-41936969D01*
G75*
G02*
X40140156Y-42186969I0J-250000D01*
G01*
X40140156Y-42936969D01*
G75*
G02*
X39890156Y-43186969I-250000J0D01*
G01*
X39140156Y-43186969D01*
G75*
G02*
X38890156Y-42936969I0J250000D01*
G01*
X38890156Y-42186969D01*
G75*
G02*
X39140156Y-41936969I250000J0D01*
G01*
G37*
X54755156Y-44261969D03*
G36*
G01*
X54380156Y-41936969D02*
X55130156Y-41936969D01*
G75*
G02*
X55380156Y-42186969I0J-250000D01*
G01*
X55380156Y-42936969D01*
G75*
G02*
X55130156Y-43186969I-250000J0D01*
G01*
X54380156Y-43186969D01*
G75*
G02*
X54130156Y-42936969I0J250000D01*
G01*
X54130156Y-42186969D01*
G75*
G02*
X54380156Y-41936969I250000J0D01*
G01*
G37*
G36*
G01*
X39140156Y-30336969D02*
X39890156Y-30336969D01*
G75*
G02*
X40140156Y-30586969I0J-250000D01*
G01*
X40140156Y-31336969D01*
G75*
G02*
X39890156Y-31586969I-250000J0D01*
G01*
X39140156Y-31586969D01*
G75*
G02*
X38890156Y-31336969I0J250000D01*
G01*
X38890156Y-30586969D01*
G75*
G02*
X39140156Y-30336969I250000J0D01*
G01*
G37*
X39515156Y-29261969D03*
G36*
G01*
X49300156Y-30336969D02*
X50050156Y-30336969D01*
G75*
G02*
X50300156Y-30586969I0J-250000D01*
G01*
X50300156Y-31336969D01*
G75*
G02*
X50050156Y-31586969I-250000J0D01*
G01*
X49300156Y-31586969D01*
G75*
G02*
X49050156Y-31336969I0J250000D01*
G01*
X49050156Y-30586969D01*
G75*
G02*
X49300156Y-30336969I250000J0D01*
G01*
G37*
X49675156Y-29261969D03*
G36*
G01*
X54380156Y-30336969D02*
X55130156Y-30336969D01*
G75*
G02*
X55380156Y-30586969I0J-250000D01*
G01*
X55380156Y-31336969D01*
G75*
G02*
X55130156Y-31586969I-250000J0D01*
G01*
X54380156Y-31586969D01*
G75*
G02*
X54130156Y-31336969I0J250000D01*
G01*
X54130156Y-30586969D01*
G75*
G02*
X54380156Y-30336969I250000J0D01*
G01*
G37*
X54755156Y-29261969D03*
G36*
X50755156Y-43721969D02*
G01*
X50255156Y-43721969D01*
X50255156Y-43717691D01*
X50189893Y-43717691D01*
X50063814Y-43683909D01*
X49950775Y-43618646D01*
X49858479Y-43526350D01*
X49793216Y-43413311D01*
X49759434Y-43287232D01*
X49759434Y-43221969D01*
X49755156Y-43221969D01*
X49755156Y-42721969D01*
X49759434Y-42721969D01*
X49759434Y-42656706D01*
X49793216Y-42530627D01*
X49858479Y-42417588D01*
X49950775Y-42325292D01*
X50063814Y-42260029D01*
X50189893Y-42226247D01*
X50255156Y-42226247D01*
X50255156Y-42221969D01*
X50755156Y-42221969D01*
X50755156Y-43721969D01*
G37*
G36*
X51555156Y-42226247D02*
G01*
X51620419Y-42226247D01*
X51746498Y-42260029D01*
X51859537Y-42325292D01*
X51951833Y-42417588D01*
X52017096Y-42530627D01*
X52050878Y-42656706D01*
X52050878Y-42721969D01*
X52055156Y-42721969D01*
X52055156Y-43221969D01*
X52050878Y-43221969D01*
X52050878Y-43287232D01*
X52017096Y-43413311D01*
X51951833Y-43526350D01*
X51859537Y-43618646D01*
X51746498Y-43683909D01*
X51620419Y-43717691D01*
X51555156Y-43717691D01*
X51555156Y-43721969D01*
X51055156Y-43721969D01*
X51055156Y-42221969D01*
X51555156Y-42221969D01*
X51555156Y-42226247D01*
G37*
G36*
X46105156Y-43731969D02*
G01*
X45605156Y-43731969D01*
X45605156Y-43727691D01*
X45539893Y-43727691D01*
X45413814Y-43693909D01*
X45300775Y-43628646D01*
X45208479Y-43536350D01*
X45143216Y-43423311D01*
X45109434Y-43297232D01*
X45109434Y-43231969D01*
X45105156Y-43231969D01*
X45105156Y-42731969D01*
X45109434Y-42731969D01*
X45109434Y-42666706D01*
X45143216Y-42540627D01*
X45208479Y-42427588D01*
X45300775Y-42335292D01*
X45413814Y-42270029D01*
X45539893Y-42236247D01*
X45605156Y-42236247D01*
X45605156Y-42231969D01*
X46105156Y-42231969D01*
X46105156Y-43731969D01*
G37*
G36*
X46905156Y-42236247D02*
G01*
X46970419Y-42236247D01*
X47096498Y-42270029D01*
X47209537Y-42335292D01*
X47301833Y-42427588D01*
X47367096Y-42540627D01*
X47400878Y-42666706D01*
X47400878Y-42731969D01*
X47405156Y-42731969D01*
X47405156Y-43231969D01*
X47400878Y-43231969D01*
X47400878Y-43297232D01*
X47367096Y-43423311D01*
X47301833Y-43536350D01*
X47209537Y-43628646D01*
X47096498Y-43693909D01*
X46970419Y-43727691D01*
X46905156Y-43727691D01*
X46905156Y-43731969D01*
X46405156Y-43731969D01*
X46405156Y-42231969D01*
X46905156Y-42231969D01*
X46905156Y-42236247D01*
G37*
%LPD*%
M02*
