M48
; DRILL file {KiCad 9.0.1+1} date 2025-11-25T11:40:30+0000
; FORMAT={-:-/ absolute / inch / decimal}
; #@! TF.CreationDate,2025-11-25T11:40:30+00:00
; #@! TF.GenerationSoftware,Kicad,Pcbnew,9.0.1+1
; #@! TF.FileFunction,Plated,1,2,PTH
FMAT,2
INCH
; #@! TA.AperFunction,Plated,PTH,ComponentDrill
T1C0.0394
; #@! TA.AperFunction,Plated,PTH,ComponentDrill
T2C0.0591
%
G90
G05
T1
X-0.3Y0.0
X-0.3Y-0.1
X-0.3Y-0.2
X-0.3Y-0.3
X-0.3Y-0.4
X-0.3Y-0.5
X-0.25Y-0.7283
X-0.25Y-0.8283
X-0.15Y-0.7283
X-0.15Y-0.8283
X-0.05Y-0.7283
X-0.05Y-0.8283
X0.05Y-0.7283
X0.05Y-0.8283
X0.15Y-0.7283
X0.15Y-0.8283
X0.25Y-0.7283
X0.25Y-0.8283
X0.3Y0.0
X0.3Y-0.1
X0.3Y-0.2
X0.3Y-0.3
X0.3Y-0.4
X0.3Y-0.5
T2
G00X-0.4823Y0.7157
M15
G01X-0.4626Y0.7157
M16
G05
G00X-0.4823Y-0.9843
M15
G01X-0.4626Y-0.9843
M16
G05
G00X0.4626Y0.7157
M15
G01X0.4823Y0.7157
M16
G05
G00X0.4626Y0.4157
M15
G01X0.4823Y0.4157
M16
G05
G00X0.4626Y0.3157
M15
G01X0.4823Y0.3157
M16
G05
G00X0.4626Y0.2157
M15
G01X0.4823Y0.2157
M16
G05
G00X0.4626Y0.1157
M15
G01X0.4823Y0.1157
M16
G05
G00X0.4626Y0.0157
M15
G01X0.4823Y0.0157
M16
G05
G00X0.4626Y-0.0843
M15
G01X0.4823Y-0.0843
M16
G05
G00X0.4626Y-0.1843
M15
G01X0.4823Y-0.1843
M16
G05
G00X0.4626Y-0.2843
M15
G01X0.4823Y-0.2843
M16
G05
G00X0.4626Y-0.3843
M15
G01X0.4823Y-0.3843
M16
G05
G00X0.4626Y-0.4843
M15
G01X0.4823Y-0.4843
M16
G05
G00X0.4626Y-0.5843
M15
G01X0.4823Y-0.5843
M16
G05
G00X0.4626Y-0.6843
M15
G01X0.4823Y-0.6843
M16
G05
G00X0.4626Y-0.7843
M15
G01X0.4823Y-0.7843
M16
G05
G00X0.4626Y-0.8843
M15
G01X0.4823Y-0.8843
M16
G05
G00X0.4626Y-0.9843
M15
G01X0.4823Y-0.9843
M16
G05
M30
