G04 #@! TF.GenerationSoftware,KiCad,Pcbnew,9.0.1+1*
G04 #@! TF.CreationDate,2025-11-25T11:40:30+00:00*
G04 #@! TF.ProjectId,icesugar-nano-carrier,69636573-7567-4617-922d-6e616e6f2d63,rev?*
G04 #@! TF.SameCoordinates,Original*
G04 #@! TF.FileFunction,Legend,Top*
G04 #@! TF.FilePolarity,Positive*
%FSLAX46Y46*%
G04 Gerber Fmt 4.6, Leading zero omitted, Abs format (unit mm)*
G04 Created by KiCad (PCBNEW 9.0.1+1) date 2025-11-25 11:40:30*
%MOMM*%
%LPD*%
G01*
G04 APERTURE LIST*
%ADD10C,0.100000*%
%ADD11C,0.150000*%
%ADD12C,0.120000*%
%ADD13R,1.700000X1.700000*%
%ADD14C,1.700000*%
%ADD15R,2.540000X2.000000*%
G04 APERTURE END LIST*
D10*
X10086704Y-2743734D02*
X10086704Y-2267544D01*
X10372419Y-2838972D02*
X9372419Y-2505639D01*
X9372419Y-2505639D02*
X10372419Y-2172306D01*
X9372419Y-1934210D02*
X9372419Y-1315163D01*
X9372419Y-1315163D02*
X9753371Y-1648496D01*
X9753371Y-1648496D02*
X9753371Y-1505639D01*
X9753371Y-1505639D02*
X9800990Y-1410401D01*
X9800990Y-1410401D02*
X9848609Y-1362782D01*
X9848609Y-1362782D02*
X9943847Y-1315163D01*
X9943847Y-1315163D02*
X10181942Y-1315163D01*
X10181942Y-1315163D02*
X10277180Y-1362782D01*
X10277180Y-1362782D02*
X10324800Y-1410401D01*
X10324800Y-1410401D02*
X10372419Y-1505639D01*
X10372419Y-1505639D02*
X10372419Y-1791353D01*
X10372419Y-1791353D02*
X10324800Y-1886591D01*
X10324800Y-1886591D02*
X10277180Y-1934210D01*
X8756265Y17913295D02*
X9232455Y17913295D01*
X8661027Y17627580D02*
X8994360Y18627580D01*
X8994360Y18627580D02*
X9327693Y17627580D01*
X10184836Y17627580D02*
X9613408Y17627580D01*
X9899122Y17627580D02*
X9899122Y18627580D01*
X9899122Y18627580D02*
X9803884Y18484723D01*
X9803884Y18484723D02*
X9708646Y18389485D01*
X9708646Y18389485D02*
X9613408Y18341866D01*
X8256265Y-25086704D02*
X8732455Y-25086704D01*
X8161027Y-25372419D02*
X8494360Y-24372419D01*
X8494360Y-24372419D02*
X8827693Y-25372419D01*
X9684836Y-25372419D02*
X9113408Y-25372419D01*
X9399122Y-25372419D02*
X9399122Y-24372419D01*
X9399122Y-24372419D02*
X9303884Y-24515276D01*
X9303884Y-24515276D02*
X9208646Y-24610514D01*
X9208646Y-24610514D02*
X9113408Y-24658133D01*
X10161027Y-24372419D02*
X10065789Y-24562895D01*
X9848609Y137217D02*
X9896228Y280074D01*
X9896228Y280074D02*
X9943847Y327693D01*
X9943847Y327693D02*
X10039085Y375312D01*
X10039085Y375312D02*
X10181942Y375312D01*
X10181942Y375312D02*
X10277180Y327693D01*
X10277180Y327693D02*
X10324800Y280074D01*
X10324800Y280074D02*
X10372419Y184836D01*
X10372419Y184836D02*
X10372419Y-196115D01*
X10372419Y-196115D02*
X9372419Y-196115D01*
X9372419Y-196115D02*
X9372419Y137217D01*
X9372419Y137217D02*
X9420038Y232455D01*
X9420038Y232455D02*
X9467657Y280074D01*
X9467657Y280074D02*
X9562895Y327693D01*
X9562895Y327693D02*
X9658133Y327693D01*
X9658133Y327693D02*
X9753371Y280074D01*
X9753371Y280074D02*
X9800990Y232455D01*
X9800990Y232455D02*
X9848609Y137217D01*
X9848609Y137217D02*
X9848609Y-196115D01*
X9372419Y1232455D02*
X9372419Y1041979D01*
X9372419Y1041979D02*
X9420038Y946741D01*
X9420038Y946741D02*
X9467657Y899122D01*
X9467657Y899122D02*
X9610514Y803884D01*
X9610514Y803884D02*
X9800990Y756265D01*
X9800990Y756265D02*
X10181942Y756265D01*
X10181942Y756265D02*
X10277180Y803884D01*
X10277180Y803884D02*
X10324800Y851503D01*
X10324800Y851503D02*
X10372419Y946741D01*
X10372419Y946741D02*
X10372419Y1137217D01*
X10372419Y1137217D02*
X10324800Y1232455D01*
X10324800Y1232455D02*
X10277180Y1280074D01*
X10277180Y1280074D02*
X10181942Y1327693D01*
X10181942Y1327693D02*
X9943847Y1327693D01*
X9943847Y1327693D02*
X9848609Y1280074D01*
X9848609Y1280074D02*
X9800990Y1232455D01*
X9800990Y1232455D02*
X9753371Y1137217D01*
X9753371Y1137217D02*
X9753371Y946741D01*
X9753371Y946741D02*
X9800990Y851503D01*
X9800990Y851503D02*
X9848609Y803884D01*
X9848609Y803884D02*
X9943847Y756265D01*
X9375312Y2722819D02*
X9327693Y2675200D01*
X9327693Y2675200D02*
X9184836Y2627580D01*
X9184836Y2627580D02*
X9089598Y2627580D01*
X9089598Y2627580D02*
X8946741Y2675200D01*
X8946741Y2675200D02*
X8851503Y2770438D01*
X8851503Y2770438D02*
X8803884Y2865676D01*
X8803884Y2865676D02*
X8756265Y3056152D01*
X8756265Y3056152D02*
X8756265Y3199009D01*
X8756265Y3199009D02*
X8803884Y3389485D01*
X8803884Y3389485D02*
X8851503Y3484723D01*
X8851503Y3484723D02*
X8946741Y3579961D01*
X8946741Y3579961D02*
X9089598Y3627580D01*
X9089598Y3627580D02*
X9184836Y3627580D01*
X9184836Y3627580D02*
X9327693Y3579961D01*
X9327693Y3579961D02*
X9375312Y3532342D01*
X10280074Y3627580D02*
X9803884Y3627580D01*
X9803884Y3627580D02*
X9756265Y3151390D01*
X9756265Y3151390D02*
X9803884Y3199009D01*
X9803884Y3199009D02*
X9899122Y3246628D01*
X9899122Y3246628D02*
X10137217Y3246628D01*
X10137217Y3246628D02*
X10232455Y3199009D01*
X10232455Y3199009D02*
X10280074Y3151390D01*
X10280074Y3151390D02*
X10327693Y3056152D01*
X10327693Y3056152D02*
X10327693Y2818057D01*
X10327693Y2818057D02*
X10280074Y2722819D01*
X10280074Y2722819D02*
X10232455Y2675200D01*
X10232455Y2675200D02*
X10137217Y2627580D01*
X10137217Y2627580D02*
X9899122Y2627580D01*
X9899122Y2627580D02*
X9803884Y2675200D01*
X9803884Y2675200D02*
X9756265Y2722819D01*
X-10291353Y18627580D02*
X-9672306Y18627580D01*
X-9672306Y18627580D02*
X-10005639Y18246628D01*
X-10005639Y18246628D02*
X-9862782Y18246628D01*
X-9862782Y18246628D02*
X-9767544Y18199009D01*
X-9767544Y18199009D02*
X-9719925Y18151390D01*
X-9719925Y18151390D02*
X-9672306Y18056152D01*
X-9672306Y18056152D02*
X-9672306Y17818057D01*
X-9672306Y17818057D02*
X-9719925Y17722819D01*
X-9719925Y17722819D02*
X-9767544Y17675200D01*
X-9767544Y17675200D02*
X-9862782Y17627580D01*
X-9862782Y17627580D02*
X-10148496Y17627580D01*
X-10148496Y17627580D02*
X-10243734Y17675200D01*
X-10243734Y17675200D02*
X-10291353Y17722819D01*
X-9243734Y17722819D02*
X-9196115Y17675200D01*
X-9196115Y17675200D02*
X-9243734Y17627580D01*
X-9243734Y17627580D02*
X-9291353Y17675200D01*
X-9291353Y17675200D02*
X-9243734Y17722819D01*
X-9243734Y17722819D02*
X-9243734Y17627580D01*
X-8862782Y18627580D02*
X-8243735Y18627580D01*
X-8243735Y18627580D02*
X-8577068Y18246628D01*
X-8577068Y18246628D02*
X-8434211Y18246628D01*
X-8434211Y18246628D02*
X-8338973Y18199009D01*
X-8338973Y18199009D02*
X-8291354Y18151390D01*
X-8291354Y18151390D02*
X-8243735Y18056152D01*
X-8243735Y18056152D02*
X-8243735Y17818057D01*
X-8243735Y17818057D02*
X-8291354Y17722819D01*
X-8291354Y17722819D02*
X-8338973Y17675200D01*
X-8338973Y17675200D02*
X-8434211Y17627580D01*
X-8434211Y17627580D02*
X-8719925Y17627580D01*
X-8719925Y17627580D02*
X-8815163Y17675200D01*
X-8815163Y17675200D02*
X-8862782Y17722819D01*
X-7958020Y18627580D02*
X-7624687Y17627580D01*
X-7624687Y17627580D02*
X-7291354Y18627580D01*
X9375312Y-22777180D02*
X9327693Y-22824800D01*
X9327693Y-22824800D02*
X9184836Y-22872419D01*
X9184836Y-22872419D02*
X9089598Y-22872419D01*
X9089598Y-22872419D02*
X8946741Y-22824800D01*
X8946741Y-22824800D02*
X8851503Y-22729561D01*
X8851503Y-22729561D02*
X8803884Y-22634323D01*
X8803884Y-22634323D02*
X8756265Y-22443847D01*
X8756265Y-22443847D02*
X8756265Y-22300990D01*
X8756265Y-22300990D02*
X8803884Y-22110514D01*
X8803884Y-22110514D02*
X8851503Y-22015276D01*
X8851503Y-22015276D02*
X8946741Y-21920038D01*
X8946741Y-21920038D02*
X9089598Y-21872419D01*
X9089598Y-21872419D02*
X9184836Y-21872419D01*
X9184836Y-21872419D02*
X9327693Y-21920038D01*
X9327693Y-21920038D02*
X9375312Y-21967657D01*
X9756265Y-21967657D02*
X9803884Y-21920038D01*
X9803884Y-21920038D02*
X9899122Y-21872419D01*
X9899122Y-21872419D02*
X10137217Y-21872419D01*
X10137217Y-21872419D02*
X10232455Y-21920038D01*
X10232455Y-21920038D02*
X10280074Y-21967657D01*
X10280074Y-21967657D02*
X10327693Y-22062895D01*
X10327693Y-22062895D02*
X10327693Y-22158133D01*
X10327693Y-22158133D02*
X10280074Y-22300990D01*
X10280074Y-22300990D02*
X9708646Y-22872419D01*
X9708646Y-22872419D02*
X10327693Y-22872419D01*
X9137217Y-14848609D02*
X9280074Y-14896228D01*
X9280074Y-14896228D02*
X9327693Y-14943847D01*
X9327693Y-14943847D02*
X9375312Y-15039085D01*
X9375312Y-15039085D02*
X9375312Y-15181942D01*
X9375312Y-15181942D02*
X9327693Y-15277180D01*
X9327693Y-15277180D02*
X9280074Y-15324800D01*
X9280074Y-15324800D02*
X9184836Y-15372419D01*
X9184836Y-15372419D02*
X8803884Y-15372419D01*
X8803884Y-15372419D02*
X8803884Y-14372419D01*
X8803884Y-14372419D02*
X9137217Y-14372419D01*
X9137217Y-14372419D02*
X9232455Y-14420038D01*
X9232455Y-14420038D02*
X9280074Y-14467657D01*
X9280074Y-14467657D02*
X9327693Y-14562895D01*
X9327693Y-14562895D02*
X9327693Y-14658133D01*
X9327693Y-14658133D02*
X9280074Y-14753371D01*
X9280074Y-14753371D02*
X9232455Y-14800990D01*
X9232455Y-14800990D02*
X9137217Y-14848609D01*
X9137217Y-14848609D02*
X8803884Y-14848609D01*
X10232455Y-14705752D02*
X10232455Y-15372419D01*
X9994360Y-14324800D02*
X9756265Y-15039085D01*
X9756265Y-15039085D02*
X10375312Y-15039085D01*
X9848609Y-12862782D02*
X9896228Y-12719925D01*
X9896228Y-12719925D02*
X9943847Y-12672306D01*
X9943847Y-12672306D02*
X10039085Y-12624687D01*
X10039085Y-12624687D02*
X10181942Y-12624687D01*
X10181942Y-12624687D02*
X10277180Y-12672306D01*
X10277180Y-12672306D02*
X10324800Y-12719925D01*
X10324800Y-12719925D02*
X10372419Y-12815163D01*
X10372419Y-12815163D02*
X10372419Y-13196115D01*
X10372419Y-13196115D02*
X9372419Y-13196115D01*
X9372419Y-13196115D02*
X9372419Y-12862782D01*
X9372419Y-12862782D02*
X9420038Y-12767544D01*
X9420038Y-12767544D02*
X9467657Y-12719925D01*
X9467657Y-12719925D02*
X9562895Y-12672306D01*
X9562895Y-12672306D02*
X9658133Y-12672306D01*
X9658133Y-12672306D02*
X9753371Y-12719925D01*
X9753371Y-12719925D02*
X9800990Y-12767544D01*
X9800990Y-12767544D02*
X9848609Y-12862782D01*
X9848609Y-12862782D02*
X9848609Y-13196115D01*
X9372419Y-11719925D02*
X9372419Y-12196115D01*
X9372419Y-12196115D02*
X9848609Y-12243734D01*
X9848609Y-12243734D02*
X9800990Y-12196115D01*
X9800990Y-12196115D02*
X9753371Y-12100877D01*
X9753371Y-12100877D02*
X9753371Y-11862782D01*
X9753371Y-11862782D02*
X9800990Y-11767544D01*
X9800990Y-11767544D02*
X9848609Y-11719925D01*
X9848609Y-11719925D02*
X9943847Y-11672306D01*
X9943847Y-11672306D02*
X10181942Y-11672306D01*
X10181942Y-11672306D02*
X10277180Y-11719925D01*
X10277180Y-11719925D02*
X10324800Y-11767544D01*
X10324800Y-11767544D02*
X10372419Y-11862782D01*
X10372419Y-11862782D02*
X10372419Y-12100877D01*
X10372419Y-12100877D02*
X10324800Y-12196115D01*
X10324800Y-12196115D02*
X10277180Y-12243734D01*
X8803884Y-19848609D02*
X9137217Y-19848609D01*
X9280074Y-20372419D02*
X8803884Y-20372419D01*
X8803884Y-20372419D02*
X8803884Y-19372419D01*
X8803884Y-19372419D02*
X9280074Y-19372419D01*
X9613408Y-19372419D02*
X10232455Y-19372419D01*
X10232455Y-19372419D02*
X9899122Y-19753371D01*
X9899122Y-19753371D02*
X10041979Y-19753371D01*
X10041979Y-19753371D02*
X10137217Y-19800990D01*
X10137217Y-19800990D02*
X10184836Y-19848609D01*
X10184836Y-19848609D02*
X10232455Y-19943847D01*
X10232455Y-19943847D02*
X10232455Y-20181942D01*
X10232455Y-20181942D02*
X10184836Y-20277180D01*
X10184836Y-20277180D02*
X10137217Y-20324800D01*
X10137217Y-20324800D02*
X10041979Y-20372419D01*
X10041979Y-20372419D02*
X9756265Y-20372419D01*
X9756265Y-20372419D02*
X9661027Y-20324800D01*
X9661027Y-20324800D02*
X9613408Y-20277180D01*
X-10243734Y15618789D02*
X-10243734Y16418789D01*
X-10243734Y16418789D02*
X-9977068Y15847361D01*
X-9977068Y15847361D02*
X-9710401Y16418789D01*
X-9710401Y16418789D02*
X-9710401Y15618789D01*
X-9329448Y16037837D02*
X-9062782Y16037837D01*
X-8948496Y15618789D02*
X-9329448Y15618789D01*
X-9329448Y15618789D02*
X-9329448Y16418789D01*
X-9329448Y16418789D02*
X-8948496Y16418789D01*
X-8186591Y16380694D02*
X-8262781Y16418789D01*
X-8262781Y16418789D02*
X-8377067Y16418789D01*
X-8377067Y16418789D02*
X-8491353Y16380694D01*
X-8491353Y16380694D02*
X-8567543Y16304504D01*
X-8567543Y16304504D02*
X-8605638Y16228313D01*
X-8605638Y16228313D02*
X-8643734Y16075932D01*
X-8643734Y16075932D02*
X-8643734Y15961646D01*
X-8643734Y15961646D02*
X-8605638Y15809265D01*
X-8605638Y15809265D02*
X-8567543Y15733075D01*
X-8567543Y15733075D02*
X-8491353Y15656885D01*
X-8491353Y15656885D02*
X-8377067Y15618789D01*
X-8377067Y15618789D02*
X-8300876Y15618789D01*
X-8300876Y15618789D02*
X-8186591Y15656885D01*
X-8186591Y15656885D02*
X-8148495Y15694980D01*
X-8148495Y15694980D02*
X-8148495Y15961646D01*
X-8148495Y15961646D02*
X-8300876Y15961646D01*
X-7843734Y15847361D02*
X-7462781Y15847361D01*
X-7919924Y15618789D02*
X-7653257Y16418789D01*
X-7653257Y16418789D02*
X-7386591Y15618789D01*
X-7119924Y16152123D02*
X-7119924Y15352123D01*
X-7119924Y16114027D02*
X-7043734Y16152123D01*
X-7043734Y16152123D02*
X-6891353Y16152123D01*
X-6891353Y16152123D02*
X-6815162Y16114027D01*
X-6815162Y16114027D02*
X-6777067Y16075932D01*
X-6777067Y16075932D02*
X-6738972Y15999742D01*
X-6738972Y15999742D02*
X-6738972Y15771170D01*
X-6738972Y15771170D02*
X-6777067Y15694980D01*
X-6777067Y15694980D02*
X-6815162Y15656885D01*
X-6815162Y15656885D02*
X-6891353Y15618789D01*
X-6891353Y15618789D02*
X-7043734Y15618789D01*
X-7043734Y15618789D02*
X-7119924Y15656885D01*
X-6396114Y15618789D02*
X-6396114Y16418789D01*
X-6053257Y15618789D02*
X-6053257Y16037837D01*
X-6053257Y16037837D02*
X-6091352Y16114027D01*
X-6091352Y16114027D02*
X-6167543Y16152123D01*
X-6167543Y16152123D02*
X-6281829Y16152123D01*
X-6281829Y16152123D02*
X-6358019Y16114027D01*
X-6358019Y16114027D02*
X-6396114Y16075932D01*
X-5558019Y15618789D02*
X-5634209Y15656885D01*
X-5634209Y15656885D02*
X-5672304Y15694980D01*
X-5672304Y15694980D02*
X-5710400Y15771170D01*
X-5710400Y15771170D02*
X-5710400Y15999742D01*
X-5710400Y15999742D02*
X-5672304Y16075932D01*
X-5672304Y16075932D02*
X-5634209Y16114027D01*
X-5634209Y16114027D02*
X-5558019Y16152123D01*
X-5558019Y16152123D02*
X-5443733Y16152123D01*
X-5443733Y16152123D02*
X-5367542Y16114027D01*
X-5367542Y16114027D02*
X-5329447Y16075932D01*
X-5329447Y16075932D02*
X-5291352Y15999742D01*
X-5291352Y15999742D02*
X-5291352Y15771170D01*
X-5291352Y15771170D02*
X-5329447Y15694980D01*
X-5329447Y15694980D02*
X-5367542Y15656885D01*
X-5367542Y15656885D02*
X-5443733Y15618789D01*
X-5443733Y15618789D02*
X-5558019Y15618789D01*
X-4948494Y16152123D02*
X-4948494Y15618789D01*
X-4948494Y16075932D02*
X-4910399Y16114027D01*
X-4910399Y16114027D02*
X-4834209Y16152123D01*
X-4834209Y16152123D02*
X-4719923Y16152123D01*
X-4719923Y16152123D02*
X-4643732Y16114027D01*
X-4643732Y16114027D02*
X-4605637Y16037837D01*
X-4605637Y16037837D02*
X-4605637Y15618789D01*
X-3919922Y15656885D02*
X-3996113Y15618789D01*
X-3996113Y15618789D02*
X-4148494Y15618789D01*
X-4148494Y15618789D02*
X-4224684Y15656885D01*
X-4224684Y15656885D02*
X-4262780Y15733075D01*
X-4262780Y15733075D02*
X-4262780Y16037837D01*
X-4262780Y16037837D02*
X-4224684Y16114027D01*
X-4224684Y16114027D02*
X-4148494Y16152123D01*
X-4148494Y16152123D02*
X-3996113Y16152123D01*
X-3996113Y16152123D02*
X-3919922Y16114027D01*
X-3919922Y16114027D02*
X-3881827Y16037837D01*
X-3881827Y16037837D02*
X-3881827Y15961646D01*
X-3881827Y15961646D02*
X-4262780Y15885456D01*
X-2929446Y15618789D02*
X-2929446Y16152123D01*
X-2929446Y16418789D02*
X-2967542Y16380694D01*
X-2967542Y16380694D02*
X-2929446Y16342599D01*
X-2929446Y16342599D02*
X-2891351Y16380694D01*
X-2891351Y16380694D02*
X-2929446Y16418789D01*
X-2929446Y16418789D02*
X-2929446Y16342599D01*
X-2091351Y15694980D02*
X-2129447Y15656885D01*
X-2129447Y15656885D02*
X-2243732Y15618789D01*
X-2243732Y15618789D02*
X-2319923Y15618789D01*
X-2319923Y15618789D02*
X-2434209Y15656885D01*
X-2434209Y15656885D02*
X-2510399Y15733075D01*
X-2510399Y15733075D02*
X-2548494Y15809265D01*
X-2548494Y15809265D02*
X-2586590Y15961646D01*
X-2586590Y15961646D02*
X-2586590Y16075932D01*
X-2586590Y16075932D02*
X-2548494Y16228313D01*
X-2548494Y16228313D02*
X-2510399Y16304504D01*
X-2510399Y16304504D02*
X-2434209Y16380694D01*
X-2434209Y16380694D02*
X-2319923Y16418789D01*
X-2319923Y16418789D02*
X-2243732Y16418789D01*
X-2243732Y16418789D02*
X-2129447Y16380694D01*
X-2129447Y16380694D02*
X-2091351Y16342599D01*
X-1748494Y16037837D02*
X-1481828Y16037837D01*
X-1367542Y15618789D02*
X-1748494Y15618789D01*
X-1748494Y15618789D02*
X-1748494Y16418789D01*
X-1748494Y16418789D02*
X-1367542Y16418789D01*
X-1062780Y15656885D02*
X-948494Y15618789D01*
X-948494Y15618789D02*
X-758018Y15618789D01*
X-758018Y15618789D02*
X-681827Y15656885D01*
X-681827Y15656885D02*
X-643732Y15694980D01*
X-643732Y15694980D02*
X-605637Y15771170D01*
X-605637Y15771170D02*
X-605637Y15847361D01*
X-605637Y15847361D02*
X-643732Y15923551D01*
X-643732Y15923551D02*
X-681827Y15961646D01*
X-681827Y15961646D02*
X-758018Y15999742D01*
X-758018Y15999742D02*
X-910399Y16037837D01*
X-910399Y16037837D02*
X-986589Y16075932D01*
X-986589Y16075932D02*
X-1024684Y16114027D01*
X-1024684Y16114027D02*
X-1062780Y16190218D01*
X-1062780Y16190218D02*
X-1062780Y16266408D01*
X-1062780Y16266408D02*
X-1024684Y16342599D01*
X-1024684Y16342599D02*
X-986589Y16380694D01*
X-986589Y16380694D02*
X-910399Y16418789D01*
X-910399Y16418789D02*
X-719922Y16418789D01*
X-719922Y16418789D02*
X-605637Y16380694D01*
X80077Y16152123D02*
X80077Y15618789D01*
X-262779Y16152123D02*
X-262779Y15733075D01*
X-262779Y15733075D02*
X-224684Y15656885D01*
X-224684Y15656885D02*
X-148494Y15618789D01*
X-148494Y15618789D02*
X-34208Y15618789D01*
X-34208Y15618789D02*
X41982Y15656885D01*
X41982Y15656885D02*
X80077Y15694980D01*
X803887Y16152123D02*
X803887Y15504504D01*
X803887Y15504504D02*
X765792Y15428313D01*
X765792Y15428313D02*
X727696Y15390218D01*
X727696Y15390218D02*
X651506Y15352123D01*
X651506Y15352123D02*
X537220Y15352123D01*
X537220Y15352123D02*
X461030Y15390218D01*
X803887Y15656885D02*
X727696Y15618789D01*
X727696Y15618789D02*
X575315Y15618789D01*
X575315Y15618789D02*
X499125Y15656885D01*
X499125Y15656885D02*
X461030Y15694980D01*
X461030Y15694980D02*
X422934Y15771170D01*
X422934Y15771170D02*
X422934Y15999742D01*
X422934Y15999742D02*
X461030Y16075932D01*
X461030Y16075932D02*
X499125Y16114027D01*
X499125Y16114027D02*
X575315Y16152123D01*
X575315Y16152123D02*
X727696Y16152123D01*
X727696Y16152123D02*
X803887Y16114027D01*
X1527697Y15618789D02*
X1527697Y16037837D01*
X1527697Y16037837D02*
X1489602Y16114027D01*
X1489602Y16114027D02*
X1413411Y16152123D01*
X1413411Y16152123D02*
X1261030Y16152123D01*
X1261030Y16152123D02*
X1184840Y16114027D01*
X1527697Y15656885D02*
X1451506Y15618789D01*
X1451506Y15618789D02*
X1261030Y15618789D01*
X1261030Y15618789D02*
X1184840Y15656885D01*
X1184840Y15656885D02*
X1146744Y15733075D01*
X1146744Y15733075D02*
X1146744Y15809265D01*
X1146744Y15809265D02*
X1184840Y15885456D01*
X1184840Y15885456D02*
X1261030Y15923551D01*
X1261030Y15923551D02*
X1451506Y15923551D01*
X1451506Y15923551D02*
X1527697Y15961646D01*
X1908650Y15618789D02*
X1908650Y16152123D01*
X1908650Y15999742D02*
X1946745Y16075932D01*
X1946745Y16075932D02*
X1984840Y16114027D01*
X1984840Y16114027D02*
X2061031Y16152123D01*
X2061031Y16152123D02*
X2137221Y16152123D01*
X3013412Y15618789D02*
X3013412Y16418789D01*
X3013412Y16418789D02*
X3470555Y15618789D01*
X3470555Y15618789D02*
X3470555Y16418789D01*
X4194364Y15618789D02*
X4194364Y16037837D01*
X4194364Y16037837D02*
X4156269Y16114027D01*
X4156269Y16114027D02*
X4080078Y16152123D01*
X4080078Y16152123D02*
X3927697Y16152123D01*
X3927697Y16152123D02*
X3851507Y16114027D01*
X4194364Y15656885D02*
X4118173Y15618789D01*
X4118173Y15618789D02*
X3927697Y15618789D01*
X3927697Y15618789D02*
X3851507Y15656885D01*
X3851507Y15656885D02*
X3813411Y15733075D01*
X3813411Y15733075D02*
X3813411Y15809265D01*
X3813411Y15809265D02*
X3851507Y15885456D01*
X3851507Y15885456D02*
X3927697Y15923551D01*
X3927697Y15923551D02*
X4118173Y15923551D01*
X4118173Y15923551D02*
X4194364Y15961646D01*
X4575317Y16152123D02*
X4575317Y15618789D01*
X4575317Y16075932D02*
X4613412Y16114027D01*
X4613412Y16114027D02*
X4689602Y16152123D01*
X4689602Y16152123D02*
X4803888Y16152123D01*
X4803888Y16152123D02*
X4880079Y16114027D01*
X4880079Y16114027D02*
X4918174Y16037837D01*
X4918174Y16037837D02*
X4918174Y15618789D01*
X5413412Y15618789D02*
X5337222Y15656885D01*
X5337222Y15656885D02*
X5299127Y15694980D01*
X5299127Y15694980D02*
X5261031Y15771170D01*
X5261031Y15771170D02*
X5261031Y15999742D01*
X5261031Y15999742D02*
X5299127Y16075932D01*
X5299127Y16075932D02*
X5337222Y16114027D01*
X5337222Y16114027D02*
X5413412Y16152123D01*
X5413412Y16152123D02*
X5527698Y16152123D01*
X5527698Y16152123D02*
X5603889Y16114027D01*
X5603889Y16114027D02*
X5641984Y16075932D01*
X5641984Y16075932D02*
X5680079Y15999742D01*
X5680079Y15999742D02*
X5680079Y15771170D01*
X5680079Y15771170D02*
X5641984Y15694980D01*
X5641984Y15694980D02*
X5603889Y15656885D01*
X5603889Y15656885D02*
X5527698Y15618789D01*
X5527698Y15618789D02*
X5413412Y15618789D01*
X-9786591Y14407025D02*
X-9824687Y14368930D01*
X-9824687Y14368930D02*
X-9938972Y14330834D01*
X-9938972Y14330834D02*
X-10015163Y14330834D01*
X-10015163Y14330834D02*
X-10129449Y14368930D01*
X-10129449Y14368930D02*
X-10205639Y14445120D01*
X-10205639Y14445120D02*
X-10243734Y14521310D01*
X-10243734Y14521310D02*
X-10281830Y14673691D01*
X-10281830Y14673691D02*
X-10281830Y14787977D01*
X-10281830Y14787977D02*
X-10243734Y14940358D01*
X-10243734Y14940358D02*
X-10205639Y15016549D01*
X-10205639Y15016549D02*
X-10129449Y15092739D01*
X-10129449Y15092739D02*
X-10015163Y15130834D01*
X-10015163Y15130834D02*
X-9938972Y15130834D01*
X-9938972Y15130834D02*
X-9824687Y15092739D01*
X-9824687Y15092739D02*
X-9786591Y15054644D01*
X-9100877Y14330834D02*
X-9100877Y14749882D01*
X-9100877Y14749882D02*
X-9138972Y14826072D01*
X-9138972Y14826072D02*
X-9215163Y14864168D01*
X-9215163Y14864168D02*
X-9367544Y14864168D01*
X-9367544Y14864168D02*
X-9443734Y14826072D01*
X-9100877Y14368930D02*
X-9177068Y14330834D01*
X-9177068Y14330834D02*
X-9367544Y14330834D01*
X-9367544Y14330834D02*
X-9443734Y14368930D01*
X-9443734Y14368930D02*
X-9481830Y14445120D01*
X-9481830Y14445120D02*
X-9481830Y14521310D01*
X-9481830Y14521310D02*
X-9443734Y14597501D01*
X-9443734Y14597501D02*
X-9367544Y14635596D01*
X-9367544Y14635596D02*
X-9177068Y14635596D01*
X-9177068Y14635596D02*
X-9100877Y14673691D01*
X-8719924Y14330834D02*
X-8719924Y14864168D01*
X-8719924Y14711787D02*
X-8681829Y14787977D01*
X-8681829Y14787977D02*
X-8643734Y14826072D01*
X-8643734Y14826072D02*
X-8567543Y14864168D01*
X-8567543Y14864168D02*
X-8491353Y14864168D01*
X-8224686Y14330834D02*
X-8224686Y14864168D01*
X-8224686Y14711787D02*
X-8186591Y14787977D01*
X-8186591Y14787977D02*
X-8148496Y14826072D01*
X-8148496Y14826072D02*
X-8072305Y14864168D01*
X-8072305Y14864168D02*
X-7996115Y14864168D01*
X-7729448Y14330834D02*
X-7729448Y14864168D01*
X-7729448Y15130834D02*
X-7767544Y15092739D01*
X-7767544Y15092739D02*
X-7729448Y15054644D01*
X-7729448Y15054644D02*
X-7691353Y15092739D01*
X-7691353Y15092739D02*
X-7729448Y15130834D01*
X-7729448Y15130834D02*
X-7729448Y15054644D01*
X-7043734Y14368930D02*
X-7119925Y14330834D01*
X-7119925Y14330834D02*
X-7272306Y14330834D01*
X-7272306Y14330834D02*
X-7348496Y14368930D01*
X-7348496Y14368930D02*
X-7386592Y14445120D01*
X-7386592Y14445120D02*
X-7386592Y14749882D01*
X-7386592Y14749882D02*
X-7348496Y14826072D01*
X-7348496Y14826072D02*
X-7272306Y14864168D01*
X-7272306Y14864168D02*
X-7119925Y14864168D01*
X-7119925Y14864168D02*
X-7043734Y14826072D01*
X-7043734Y14826072D02*
X-7005639Y14749882D01*
X-7005639Y14749882D02*
X-7005639Y14673691D01*
X-7005639Y14673691D02*
X-7386592Y14597501D01*
X-6662782Y14330834D02*
X-6662782Y14864168D01*
X-6662782Y14711787D02*
X-6624687Y14787977D01*
X-6624687Y14787977D02*
X-6586592Y14826072D01*
X-6586592Y14826072D02*
X-6510401Y14864168D01*
X-6510401Y14864168D02*
X-6434211Y14864168D01*
X-5596116Y15054644D02*
X-5558020Y15092739D01*
X-5558020Y15092739D02*
X-5481830Y15130834D01*
X-5481830Y15130834D02*
X-5291354Y15130834D01*
X-5291354Y15130834D02*
X-5215163Y15092739D01*
X-5215163Y15092739D02*
X-5177068Y15054644D01*
X-5177068Y15054644D02*
X-5138973Y14978453D01*
X-5138973Y14978453D02*
X-5138973Y14902263D01*
X-5138973Y14902263D02*
X-5177068Y14787977D01*
X-5177068Y14787977D02*
X-5634211Y14330834D01*
X-5634211Y14330834D02*
X-5138973Y14330834D01*
X-4643734Y15130834D02*
X-4567544Y15130834D01*
X-4567544Y15130834D02*
X-4491353Y15092739D01*
X-4491353Y15092739D02*
X-4453258Y15054644D01*
X-4453258Y15054644D02*
X-4415163Y14978453D01*
X-4415163Y14978453D02*
X-4377068Y14826072D01*
X-4377068Y14826072D02*
X-4377068Y14635596D01*
X-4377068Y14635596D02*
X-4415163Y14483215D01*
X-4415163Y14483215D02*
X-4453258Y14407025D01*
X-4453258Y14407025D02*
X-4491353Y14368930D01*
X-4491353Y14368930D02*
X-4567544Y14330834D01*
X-4567544Y14330834D02*
X-4643734Y14330834D01*
X-4643734Y14330834D02*
X-4719925Y14368930D01*
X-4719925Y14368930D02*
X-4758020Y14407025D01*
X-4758020Y14407025D02*
X-4796115Y14483215D01*
X-4796115Y14483215D02*
X-4834211Y14635596D01*
X-4834211Y14635596D02*
X-4834211Y14826072D01*
X-4834211Y14826072D02*
X-4796115Y14978453D01*
X-4796115Y14978453D02*
X-4758020Y15054644D01*
X-4758020Y15054644D02*
X-4719925Y15092739D01*
X-4719925Y15092739D02*
X-4643734Y15130834D01*
X-4072306Y15054644D02*
X-4034210Y15092739D01*
X-4034210Y15092739D02*
X-3958020Y15130834D01*
X-3958020Y15130834D02*
X-3767544Y15130834D01*
X-3767544Y15130834D02*
X-3691353Y15092739D01*
X-3691353Y15092739D02*
X-3653258Y15054644D01*
X-3653258Y15054644D02*
X-3615163Y14978453D01*
X-3615163Y14978453D02*
X-3615163Y14902263D01*
X-3615163Y14902263D02*
X-3653258Y14787977D01*
X-3653258Y14787977D02*
X-4110401Y14330834D01*
X-4110401Y14330834D02*
X-3615163Y14330834D01*
X-2891353Y15130834D02*
X-3272305Y15130834D01*
X-3272305Y15130834D02*
X-3310401Y14749882D01*
X-3310401Y14749882D02*
X-3272305Y14787977D01*
X-3272305Y14787977D02*
X-3196115Y14826072D01*
X-3196115Y14826072D02*
X-3005639Y14826072D01*
X-3005639Y14826072D02*
X-2929448Y14787977D01*
X-2929448Y14787977D02*
X-2891353Y14749882D01*
X-2891353Y14749882D02*
X-2853258Y14673691D01*
X-2853258Y14673691D02*
X-2853258Y14483215D01*
X-2853258Y14483215D02*
X-2891353Y14407025D01*
X-2891353Y14407025D02*
X-2929448Y14368930D01*
X-2929448Y14368930D02*
X-3005639Y14330834D01*
X-3005639Y14330834D02*
X-3196115Y14330834D01*
X-3196115Y14330834D02*
X-3272305Y14368930D01*
X-3272305Y14368930D02*
X-3310401Y14407025D01*
X-2358019Y15130834D02*
X-2281829Y15130834D01*
X-2281829Y15130834D02*
X-2205638Y15092739D01*
X-2205638Y15092739D02*
X-2167543Y15054644D01*
X-2167543Y15054644D02*
X-2129448Y14978453D01*
X-2129448Y14978453D02*
X-2091353Y14826072D01*
X-2091353Y14826072D02*
X-2091353Y14635596D01*
X-2091353Y14635596D02*
X-2129448Y14483215D01*
X-2129448Y14483215D02*
X-2167543Y14407025D01*
X-2167543Y14407025D02*
X-2205638Y14368930D01*
X-2205638Y14368930D02*
X-2281829Y14330834D01*
X-2281829Y14330834D02*
X-2358019Y14330834D01*
X-2358019Y14330834D02*
X-2434210Y14368930D01*
X-2434210Y14368930D02*
X-2472305Y14407025D01*
X-2472305Y14407025D02*
X-2510400Y14483215D01*
X-2510400Y14483215D02*
X-2548496Y14635596D01*
X-2548496Y14635596D02*
X-2548496Y14826072D01*
X-2548496Y14826072D02*
X-2510400Y14978453D01*
X-2510400Y14978453D02*
X-2472305Y15054644D01*
X-2472305Y15054644D02*
X-2434210Y15092739D01*
X-2434210Y15092739D02*
X-2358019Y15130834D01*
X-1634210Y14787977D02*
X-1710400Y14826072D01*
X-1710400Y14826072D02*
X-1748495Y14864168D01*
X-1748495Y14864168D02*
X-1786591Y14940358D01*
X-1786591Y14940358D02*
X-1786591Y14978453D01*
X-1786591Y14978453D02*
X-1748495Y15054644D01*
X-1748495Y15054644D02*
X-1710400Y15092739D01*
X-1710400Y15092739D02*
X-1634210Y15130834D01*
X-1634210Y15130834D02*
X-1481829Y15130834D01*
X-1481829Y15130834D02*
X-1405638Y15092739D01*
X-1405638Y15092739D02*
X-1367543Y15054644D01*
X-1367543Y15054644D02*
X-1329448Y14978453D01*
X-1329448Y14978453D02*
X-1329448Y14940358D01*
X-1329448Y14940358D02*
X-1367543Y14864168D01*
X-1367543Y14864168D02*
X-1405638Y14826072D01*
X-1405638Y14826072D02*
X-1481829Y14787977D01*
X-1481829Y14787977D02*
X-1634210Y14787977D01*
X-1634210Y14787977D02*
X-1710400Y14749882D01*
X-1710400Y14749882D02*
X-1748495Y14711787D01*
X-1748495Y14711787D02*
X-1786591Y14635596D01*
X-1786591Y14635596D02*
X-1786591Y14483215D01*
X-1786591Y14483215D02*
X-1748495Y14407025D01*
X-1748495Y14407025D02*
X-1710400Y14368930D01*
X-1710400Y14368930D02*
X-1634210Y14330834D01*
X-1634210Y14330834D02*
X-1481829Y14330834D01*
X-1481829Y14330834D02*
X-1405638Y14368930D01*
X-1405638Y14368930D02*
X-1367543Y14407025D01*
X-1367543Y14407025D02*
X-1329448Y14483215D01*
X-1329448Y14483215D02*
X-1329448Y14635596D01*
X-1329448Y14635596D02*
X-1367543Y14711787D01*
X-1367543Y14711787D02*
X-1405638Y14749882D01*
X-1405638Y14749882D02*
X-1481829Y14787977D01*
X-834209Y15130834D02*
X-758019Y15130834D01*
X-758019Y15130834D02*
X-681828Y15092739D01*
X-681828Y15092739D02*
X-643733Y15054644D01*
X-643733Y15054644D02*
X-605638Y14978453D01*
X-605638Y14978453D02*
X-567543Y14826072D01*
X-567543Y14826072D02*
X-567543Y14635596D01*
X-567543Y14635596D02*
X-605638Y14483215D01*
X-605638Y14483215D02*
X-643733Y14407025D01*
X-643733Y14407025D02*
X-681828Y14368930D01*
X-681828Y14368930D02*
X-758019Y14330834D01*
X-758019Y14330834D02*
X-834209Y14330834D01*
X-834209Y14330834D02*
X-910400Y14368930D01*
X-910400Y14368930D02*
X-948495Y14407025D01*
X-948495Y14407025D02*
X-986590Y14483215D01*
X-986590Y14483215D02*
X-1024686Y14635596D01*
X-1024686Y14635596D02*
X-1024686Y14826072D01*
X-1024686Y14826072D02*
X-986590Y14978453D01*
X-986590Y14978453D02*
X-948495Y15054644D01*
X-948495Y15054644D02*
X-910400Y15092739D01*
X-910400Y15092739D02*
X-834209Y15130834D01*
X118171Y15130834D02*
X-34209Y15130834D01*
X-34209Y15130834D02*
X-110400Y15092739D01*
X-110400Y15092739D02*
X-148495Y15054644D01*
X-148495Y15054644D02*
X-224685Y14940358D01*
X-224685Y14940358D02*
X-262781Y14787977D01*
X-262781Y14787977D02*
X-262781Y14483215D01*
X-262781Y14483215D02*
X-224685Y14407025D01*
X-224685Y14407025D02*
X-186590Y14368930D01*
X-186590Y14368930D02*
X-110400Y14330834D01*
X-110400Y14330834D02*
X41980Y14330834D01*
X41980Y14330834D02*
X118171Y14368930D01*
X118171Y14368930D02*
X156266Y14407025D01*
X156266Y14407025D02*
X194361Y14483215D01*
X194361Y14483215D02*
X194361Y14673691D01*
X194361Y14673691D02*
X156266Y14749882D01*
X156266Y14749882D02*
X118171Y14787977D01*
X118171Y14787977D02*
X41980Y14826072D01*
X41980Y14826072D02*
X-110400Y14826072D01*
X-110400Y14826072D02*
X-186590Y14787977D01*
X-186590Y14787977D02*
X-224685Y14749882D01*
X-224685Y14749882D02*
X-262781Y14673691D01*
X-9786591Y11754924D02*
X-10053258Y12135877D01*
X-10243734Y11754924D02*
X-10243734Y12554924D01*
X-10243734Y12554924D02*
X-9938972Y12554924D01*
X-9938972Y12554924D02*
X-9862782Y12516829D01*
X-9862782Y12516829D02*
X-9824687Y12478734D01*
X-9824687Y12478734D02*
X-9786591Y12402543D01*
X-9786591Y12402543D02*
X-9786591Y12288258D01*
X-9786591Y12288258D02*
X-9824687Y12212067D01*
X-9824687Y12212067D02*
X-9862782Y12173972D01*
X-9862782Y12173972D02*
X-9938972Y12135877D01*
X-9938972Y12135877D02*
X-10243734Y12135877D01*
X-9443734Y12173972D02*
X-9177068Y12173972D01*
X-9062782Y11754924D02*
X-9443734Y11754924D01*
X-9443734Y11754924D02*
X-9443734Y12554924D01*
X-9443734Y12554924D02*
X-9062782Y12554924D01*
X-8719924Y11754924D02*
X-8719924Y12554924D01*
X-8719924Y12554924D02*
X-8453258Y11983496D01*
X-8453258Y11983496D02*
X-8186591Y12554924D01*
X-8186591Y12554924D02*
X-8186591Y11754924D01*
X-7653257Y12554924D02*
X-7500876Y12554924D01*
X-7500876Y12554924D02*
X-7424686Y12516829D01*
X-7424686Y12516829D02*
X-7348495Y12440639D01*
X-7348495Y12440639D02*
X-7310400Y12288258D01*
X-7310400Y12288258D02*
X-7310400Y12021591D01*
X-7310400Y12021591D02*
X-7348495Y11869210D01*
X-7348495Y11869210D02*
X-7424686Y11793020D01*
X-7424686Y11793020D02*
X-7500876Y11754924D01*
X-7500876Y11754924D02*
X-7653257Y11754924D01*
X-7653257Y11754924D02*
X-7729448Y11793020D01*
X-7729448Y11793020D02*
X-7805638Y11869210D01*
X-7805638Y11869210D02*
X-7843734Y12021591D01*
X-7843734Y12021591D02*
X-7843734Y12288258D01*
X-7843734Y12288258D02*
X-7805638Y12440639D01*
X-7805638Y12440639D02*
X-7729448Y12516829D01*
X-7729448Y12516829D02*
X-7653257Y12554924D01*
X-7081829Y12554924D02*
X-6815162Y11754924D01*
X-6815162Y11754924D02*
X-6548496Y12554924D01*
X-6281829Y12173972D02*
X-6015163Y12173972D01*
X-5900877Y11754924D02*
X-6281829Y11754924D01*
X-6281829Y11754924D02*
X-6281829Y12554924D01*
X-6281829Y12554924D02*
X-5900877Y12554924D01*
X-4948495Y12554924D02*
X-4948495Y11907305D01*
X-4948495Y11907305D02*
X-4910400Y11831115D01*
X-4910400Y11831115D02*
X-4872305Y11793020D01*
X-4872305Y11793020D02*
X-4796114Y11754924D01*
X-4796114Y11754924D02*
X-4643733Y11754924D01*
X-4643733Y11754924D02*
X-4567543Y11793020D01*
X-4567543Y11793020D02*
X-4529448Y11831115D01*
X-4529448Y11831115D02*
X-4491352Y11907305D01*
X-4491352Y11907305D02*
X-4491352Y12554924D01*
X-3767543Y12554924D02*
X-3919924Y12554924D01*
X-3919924Y12554924D02*
X-3996115Y12516829D01*
X-3996115Y12516829D02*
X-4034210Y12478734D01*
X-4034210Y12478734D02*
X-4110400Y12364448D01*
X-4110400Y12364448D02*
X-4148496Y12212067D01*
X-4148496Y12212067D02*
X-4148496Y11907305D01*
X-4148496Y11907305D02*
X-4110400Y11831115D01*
X-4110400Y11831115D02*
X-4072305Y11793020D01*
X-4072305Y11793020D02*
X-3996115Y11754924D01*
X-3996115Y11754924D02*
X-3843734Y11754924D01*
X-3843734Y11754924D02*
X-3767543Y11793020D01*
X-3767543Y11793020D02*
X-3729448Y11831115D01*
X-3729448Y11831115D02*
X-3691353Y11907305D01*
X-3691353Y11907305D02*
X-3691353Y12097781D01*
X-3691353Y12097781D02*
X-3729448Y12173972D01*
X-3729448Y12173972D02*
X-3767543Y12212067D01*
X-3767543Y12212067D02*
X-3843734Y12250162D01*
X-3843734Y12250162D02*
X-3996115Y12250162D01*
X-3996115Y12250162D02*
X-4072305Y12212067D01*
X-4072305Y12212067D02*
X-4110400Y12173972D01*
X-4110400Y12173972D02*
X-4148496Y12097781D01*
X-3310400Y11793020D02*
X-3310400Y11754924D01*
X-3310400Y11754924D02*
X-3348495Y11678734D01*
X-3348495Y11678734D02*
X-3386591Y11640639D01*
X-2358019Y11754924D02*
X-2358019Y12554924D01*
X-2358019Y12250162D02*
X-2281829Y12288258D01*
X-2281829Y12288258D02*
X-2129448Y12288258D01*
X-2129448Y12288258D02*
X-2053257Y12250162D01*
X-2053257Y12250162D02*
X-2015162Y12212067D01*
X-2015162Y12212067D02*
X-1977067Y12135877D01*
X-1977067Y12135877D02*
X-1977067Y11907305D01*
X-1977067Y11907305D02*
X-2015162Y11831115D01*
X-2015162Y11831115D02*
X-2053257Y11793020D01*
X-2053257Y11793020D02*
X-2129448Y11754924D01*
X-2129448Y11754924D02*
X-2281829Y11754924D01*
X-2281829Y11754924D02*
X-2358019Y11793020D01*
X-1634209Y11754924D02*
X-1634209Y12288258D01*
X-1634209Y12135877D02*
X-1596114Y12212067D01*
X-1596114Y12212067D02*
X-1558019Y12250162D01*
X-1558019Y12250162D02*
X-1481828Y12288258D01*
X-1481828Y12288258D02*
X-1405638Y12288258D01*
X-1138971Y11754924D02*
X-1138971Y12288258D01*
X-1138971Y12554924D02*
X-1177067Y12516829D01*
X-1177067Y12516829D02*
X-1138971Y12478734D01*
X-1138971Y12478734D02*
X-1100876Y12516829D01*
X-1100876Y12516829D02*
X-1138971Y12554924D01*
X-1138971Y12554924D02*
X-1138971Y12478734D01*
X-415162Y11754924D02*
X-415162Y12554924D01*
X-415162Y11793020D02*
X-491353Y11754924D01*
X-491353Y11754924D02*
X-643734Y11754924D01*
X-643734Y11754924D02*
X-719924Y11793020D01*
X-719924Y11793020D02*
X-758019Y11831115D01*
X-758019Y11831115D02*
X-796115Y11907305D01*
X-796115Y11907305D02*
X-796115Y12135877D01*
X-796115Y12135877D02*
X-758019Y12212067D01*
X-758019Y12212067D02*
X-719924Y12250162D01*
X-719924Y12250162D02*
X-643734Y12288258D01*
X-643734Y12288258D02*
X-491353Y12288258D01*
X-491353Y12288258D02*
X-415162Y12250162D01*
X308647Y12288258D02*
X308647Y11640639D01*
X308647Y11640639D02*
X270552Y11564448D01*
X270552Y11564448D02*
X232456Y11526353D01*
X232456Y11526353D02*
X156266Y11488258D01*
X156266Y11488258D02*
X41980Y11488258D01*
X41980Y11488258D02*
X-34209Y11526353D01*
X308647Y11793020D02*
X232456Y11754924D01*
X232456Y11754924D02*
X80075Y11754924D01*
X80075Y11754924D02*
X3885Y11793020D01*
X3885Y11793020D02*
X-34209Y11831115D01*
X-34209Y11831115D02*
X-72305Y11907305D01*
X-72305Y11907305D02*
X-72305Y12135877D01*
X-72305Y12135877D02*
X-34209Y12212067D01*
X-34209Y12212067D02*
X3885Y12250162D01*
X3885Y12250162D02*
X80075Y12288258D01*
X80075Y12288258D02*
X232456Y12288258D01*
X232456Y12288258D02*
X308647Y12250162D01*
X994362Y11793020D02*
X918171Y11754924D01*
X918171Y11754924D02*
X765790Y11754924D01*
X765790Y11754924D02*
X689600Y11793020D01*
X689600Y11793020D02*
X651504Y11869210D01*
X651504Y11869210D02*
X651504Y12173972D01*
X651504Y12173972D02*
X689600Y12250162D01*
X689600Y12250162D02*
X765790Y12288258D01*
X765790Y12288258D02*
X918171Y12288258D01*
X918171Y12288258D02*
X994362Y12250162D01*
X994362Y12250162D02*
X1032457Y12173972D01*
X1032457Y12173972D02*
X1032457Y12097781D01*
X1032457Y12097781D02*
X651504Y12021591D01*
X1908647Y12288258D02*
X2061028Y11754924D01*
X2061028Y11754924D02*
X2213409Y12135877D01*
X2213409Y12135877D02*
X2365790Y11754924D01*
X2365790Y11754924D02*
X2518171Y12288258D01*
X2822933Y11754924D02*
X2822933Y12288258D01*
X2822933Y12554924D02*
X2784837Y12516829D01*
X2784837Y12516829D02*
X2822933Y12478734D01*
X2822933Y12478734D02*
X2861028Y12516829D01*
X2861028Y12516829D02*
X2822933Y12554924D01*
X2822933Y12554924D02*
X2822933Y12478734D01*
X3089599Y12288258D02*
X3394361Y12288258D01*
X3203885Y12554924D02*
X3203885Y11869210D01*
X3203885Y11869210D02*
X3241980Y11793020D01*
X3241980Y11793020D02*
X3318170Y11754924D01*
X3318170Y11754924D02*
X3394361Y11754924D01*
X3661028Y11754924D02*
X3661028Y12554924D01*
X4003885Y11754924D02*
X4003885Y12173972D01*
X4003885Y12173972D02*
X3965790Y12250162D01*
X3965790Y12250162D02*
X3889599Y12288258D01*
X3889599Y12288258D02*
X3775313Y12288258D01*
X3775313Y12288258D02*
X3699123Y12250162D01*
X3699123Y12250162D02*
X3661028Y12212067D01*
X-9900877Y10466969D02*
X-9900877Y11266969D01*
X-9900877Y10505065D02*
X-9977068Y10466969D01*
X-9977068Y10466969D02*
X-10129449Y10466969D01*
X-10129449Y10466969D02*
X-10205639Y10505065D01*
X-10205639Y10505065D02*
X-10243734Y10543160D01*
X-10243734Y10543160D02*
X-10281830Y10619350D01*
X-10281830Y10619350D02*
X-10281830Y10847922D01*
X-10281830Y10847922D02*
X-10243734Y10924112D01*
X-10243734Y10924112D02*
X-10205639Y10962207D01*
X-10205639Y10962207D02*
X-10129449Y11000303D01*
X-10129449Y11000303D02*
X-9977068Y11000303D01*
X-9977068Y11000303D02*
X-9900877Y10962207D01*
X-9519924Y10466969D02*
X-9519924Y11000303D01*
X-9519924Y11266969D02*
X-9558020Y11228874D01*
X-9558020Y11228874D02*
X-9519924Y11190779D01*
X-9519924Y11190779D02*
X-9481829Y11228874D01*
X-9481829Y11228874D02*
X-9519924Y11266969D01*
X-9519924Y11266969D02*
X-9519924Y11190779D01*
X-9024687Y10466969D02*
X-9100877Y10505065D01*
X-9100877Y10505065D02*
X-9138972Y10543160D01*
X-9138972Y10543160D02*
X-9177068Y10619350D01*
X-9177068Y10619350D02*
X-9177068Y10847922D01*
X-9177068Y10847922D02*
X-9138972Y10924112D01*
X-9138972Y10924112D02*
X-9100877Y10962207D01*
X-9100877Y10962207D02*
X-9024687Y11000303D01*
X-9024687Y11000303D02*
X-8910401Y11000303D01*
X-8910401Y11000303D02*
X-8834210Y10962207D01*
X-8834210Y10962207D02*
X-8796115Y10924112D01*
X-8796115Y10924112D02*
X-8758020Y10847922D01*
X-8758020Y10847922D02*
X-8758020Y10619350D01*
X-8758020Y10619350D02*
X-8796115Y10543160D01*
X-8796115Y10543160D02*
X-8834210Y10505065D01*
X-8834210Y10505065D02*
X-8910401Y10466969D01*
X-8910401Y10466969D02*
X-9024687Y10466969D01*
X-8072305Y10466969D02*
X-8072305Y11266969D01*
X-8072305Y10505065D02*
X-8148496Y10466969D01*
X-8148496Y10466969D02*
X-8300877Y10466969D01*
X-8300877Y10466969D02*
X-8377067Y10505065D01*
X-8377067Y10505065D02*
X-8415162Y10543160D01*
X-8415162Y10543160D02*
X-8453258Y10619350D01*
X-8453258Y10619350D02*
X-8453258Y10847922D01*
X-8453258Y10847922D02*
X-8415162Y10924112D01*
X-8415162Y10924112D02*
X-8377067Y10962207D01*
X-8377067Y10962207D02*
X-8300877Y11000303D01*
X-8300877Y11000303D02*
X-8148496Y11000303D01*
X-8148496Y11000303D02*
X-8072305Y10962207D01*
X-7386590Y10505065D02*
X-7462781Y10466969D01*
X-7462781Y10466969D02*
X-7615162Y10466969D01*
X-7615162Y10466969D02*
X-7691352Y10505065D01*
X-7691352Y10505065D02*
X-7729448Y10581255D01*
X-7729448Y10581255D02*
X-7729448Y10886017D01*
X-7729448Y10886017D02*
X-7691352Y10962207D01*
X-7691352Y10962207D02*
X-7615162Y11000303D01*
X-7615162Y11000303D02*
X-7462781Y11000303D01*
X-7462781Y11000303D02*
X-7386590Y10962207D01*
X-7386590Y10962207D02*
X-7348495Y10886017D01*
X-7348495Y10886017D02*
X-7348495Y10809826D01*
X-7348495Y10809826D02*
X-7729448Y10733636D01*
X-6510400Y11000303D02*
X-6205638Y11000303D01*
X-6396114Y11266969D02*
X-6396114Y10581255D01*
X-6396114Y10581255D02*
X-6358019Y10505065D01*
X-6358019Y10505065D02*
X-6281829Y10466969D01*
X-6281829Y10466969D02*
X-6205638Y10466969D01*
X-5824686Y10466969D02*
X-5900876Y10505065D01*
X-5900876Y10505065D02*
X-5938971Y10543160D01*
X-5938971Y10543160D02*
X-5977067Y10619350D01*
X-5977067Y10619350D02*
X-5977067Y10847922D01*
X-5977067Y10847922D02*
X-5938971Y10924112D01*
X-5938971Y10924112D02*
X-5900876Y10962207D01*
X-5900876Y10962207D02*
X-5824686Y11000303D01*
X-5824686Y11000303D02*
X-5710400Y11000303D01*
X-5710400Y11000303D02*
X-5634209Y10962207D01*
X-5634209Y10962207D02*
X-5596114Y10924112D01*
X-5596114Y10924112D02*
X-5558019Y10847922D01*
X-5558019Y10847922D02*
X-5558019Y10619350D01*
X-5558019Y10619350D02*
X-5596114Y10543160D01*
X-5596114Y10543160D02*
X-5634209Y10505065D01*
X-5634209Y10505065D02*
X-5710400Y10466969D01*
X-5710400Y10466969D02*
X-5824686Y10466969D01*
X-4605637Y11000303D02*
X-4605637Y10200303D01*
X-4605637Y10962207D02*
X-4529447Y11000303D01*
X-4529447Y11000303D02*
X-4377066Y11000303D01*
X-4377066Y11000303D02*
X-4300875Y10962207D01*
X-4300875Y10962207D02*
X-4262780Y10924112D01*
X-4262780Y10924112D02*
X-4224685Y10847922D01*
X-4224685Y10847922D02*
X-4224685Y10619350D01*
X-4224685Y10619350D02*
X-4262780Y10543160D01*
X-4262780Y10543160D02*
X-4300875Y10505065D01*
X-4300875Y10505065D02*
X-4377066Y10466969D01*
X-4377066Y10466969D02*
X-4529447Y10466969D01*
X-4529447Y10466969D02*
X-4605637Y10505065D01*
X-3767542Y10466969D02*
X-3843732Y10505065D01*
X-3843732Y10505065D02*
X-3881827Y10543160D01*
X-3881827Y10543160D02*
X-3919923Y10619350D01*
X-3919923Y10619350D02*
X-3919923Y10847922D01*
X-3919923Y10847922D02*
X-3881827Y10924112D01*
X-3881827Y10924112D02*
X-3843732Y10962207D01*
X-3843732Y10962207D02*
X-3767542Y11000303D01*
X-3767542Y11000303D02*
X-3653256Y11000303D01*
X-3653256Y11000303D02*
X-3577065Y10962207D01*
X-3577065Y10962207D02*
X-3538970Y10924112D01*
X-3538970Y10924112D02*
X-3500875Y10847922D01*
X-3500875Y10847922D02*
X-3500875Y10619350D01*
X-3500875Y10619350D02*
X-3538970Y10543160D01*
X-3538970Y10543160D02*
X-3577065Y10505065D01*
X-3577065Y10505065D02*
X-3653256Y10466969D01*
X-3653256Y10466969D02*
X-3767542Y10466969D01*
X-3234208Y11000303D02*
X-3081827Y10466969D01*
X-3081827Y10466969D02*
X-2929446Y10847922D01*
X-2929446Y10847922D02*
X-2777065Y10466969D01*
X-2777065Y10466969D02*
X-2624684Y11000303D01*
X-2015160Y10505065D02*
X-2091351Y10466969D01*
X-2091351Y10466969D02*
X-2243732Y10466969D01*
X-2243732Y10466969D02*
X-2319922Y10505065D01*
X-2319922Y10505065D02*
X-2358018Y10581255D01*
X-2358018Y10581255D02*
X-2358018Y10886017D01*
X-2358018Y10886017D02*
X-2319922Y10962207D01*
X-2319922Y10962207D02*
X-2243732Y11000303D01*
X-2243732Y11000303D02*
X-2091351Y11000303D01*
X-2091351Y11000303D02*
X-2015160Y10962207D01*
X-2015160Y10962207D02*
X-1977065Y10886017D01*
X-1977065Y10886017D02*
X-1977065Y10809826D01*
X-1977065Y10809826D02*
X-2358018Y10733636D01*
X-1634208Y10466969D02*
X-1634208Y11000303D01*
X-1634208Y10847922D02*
X-1596113Y10924112D01*
X-1596113Y10924112D02*
X-1558018Y10962207D01*
X-1558018Y10962207D02*
X-1481827Y11000303D01*
X-1481827Y11000303D02*
X-1405637Y11000303D01*
X-643732Y11000303D02*
X-338970Y11000303D01*
X-529446Y10466969D02*
X-529446Y11152684D01*
X-529446Y11152684D02*
X-491351Y11228874D01*
X-491351Y11228874D02*
X-415161Y11266969D01*
X-415161Y11266969D02*
X-338970Y11266969D01*
X-72303Y10466969D02*
X-72303Y11000303D01*
X-72303Y10847922D02*
X-34208Y10924112D01*
X-34208Y10924112D02*
X3886Y10962207D01*
X3886Y10962207D02*
X80077Y11000303D01*
X80077Y11000303D02*
X156267Y11000303D01*
X537219Y10466969D02*
X461029Y10505065D01*
X461029Y10505065D02*
X422934Y10543160D01*
X422934Y10543160D02*
X384838Y10619350D01*
X384838Y10619350D02*
X384838Y10847922D01*
X384838Y10847922D02*
X422934Y10924112D01*
X422934Y10924112D02*
X461029Y10962207D01*
X461029Y10962207D02*
X537219Y11000303D01*
X537219Y11000303D02*
X651505Y11000303D01*
X651505Y11000303D02*
X727696Y10962207D01*
X727696Y10962207D02*
X765791Y10924112D01*
X765791Y10924112D02*
X803886Y10847922D01*
X803886Y10847922D02*
X803886Y10619350D01*
X803886Y10619350D02*
X765791Y10543160D01*
X765791Y10543160D02*
X727696Y10505065D01*
X727696Y10505065D02*
X651505Y10466969D01*
X651505Y10466969D02*
X537219Y10466969D01*
X1146744Y10466969D02*
X1146744Y11000303D01*
X1146744Y10924112D02*
X1184839Y10962207D01*
X1184839Y10962207D02*
X1261029Y11000303D01*
X1261029Y11000303D02*
X1375315Y11000303D01*
X1375315Y11000303D02*
X1451506Y10962207D01*
X1451506Y10962207D02*
X1489601Y10886017D01*
X1489601Y10886017D02*
X1489601Y10466969D01*
X1489601Y10886017D02*
X1527696Y10962207D01*
X1527696Y10962207D02*
X1603887Y11000303D01*
X1603887Y11000303D02*
X1718172Y11000303D01*
X1718172Y11000303D02*
X1794363Y10962207D01*
X1794363Y10962207D02*
X1832458Y10886017D01*
X1832458Y10886017D02*
X1832458Y10466969D01*
X2746744Y11266969D02*
X3241982Y11266969D01*
X3241982Y11266969D02*
X2975316Y10962207D01*
X2975316Y10962207D02*
X3089601Y10962207D01*
X3089601Y10962207D02*
X3165792Y10924112D01*
X3165792Y10924112D02*
X3203887Y10886017D01*
X3203887Y10886017D02*
X3241982Y10809826D01*
X3241982Y10809826D02*
X3241982Y10619350D01*
X3241982Y10619350D02*
X3203887Y10543160D01*
X3203887Y10543160D02*
X3165792Y10505065D01*
X3165792Y10505065D02*
X3089601Y10466969D01*
X3089601Y10466969D02*
X2861030Y10466969D01*
X2861030Y10466969D02*
X2784839Y10505065D01*
X2784839Y10505065D02*
X2746744Y10543160D01*
X3584840Y10543160D02*
X3622935Y10505065D01*
X3622935Y10505065D02*
X3584840Y10466969D01*
X3584840Y10466969D02*
X3546744Y10505065D01*
X3546744Y10505065D02*
X3584840Y10543160D01*
X3584840Y10543160D02*
X3584840Y10466969D01*
X3889601Y11266969D02*
X4384839Y11266969D01*
X4384839Y11266969D02*
X4118173Y10962207D01*
X4118173Y10962207D02*
X4232458Y10962207D01*
X4232458Y10962207D02*
X4308649Y10924112D01*
X4308649Y10924112D02*
X4346744Y10886017D01*
X4346744Y10886017D02*
X4384839Y10809826D01*
X4384839Y10809826D02*
X4384839Y10619350D01*
X4384839Y10619350D02*
X4346744Y10543160D01*
X4346744Y10543160D02*
X4308649Y10505065D01*
X4308649Y10505065D02*
X4232458Y10466969D01*
X4232458Y10466969D02*
X4003887Y10466969D01*
X4003887Y10466969D02*
X3927696Y10505065D01*
X3927696Y10505065D02*
X3889601Y10543160D01*
X4613411Y11266969D02*
X4880078Y10466969D01*
X4880078Y10466969D02*
X5146744Y11266969D01*
X-10243734Y7891059D02*
X-10243734Y8691059D01*
X-9977068Y8424393D02*
X-9672306Y8424393D01*
X-9862782Y7891059D02*
X-9862782Y8576774D01*
X-9862782Y8576774D02*
X-9824687Y8652964D01*
X-9824687Y8652964D02*
X-9748497Y8691059D01*
X-9748497Y8691059D02*
X-9672306Y8691059D01*
X-8796115Y8424393D02*
X-8796115Y7891059D01*
X-8796115Y8348202D02*
X-8758020Y8386297D01*
X-8758020Y8386297D02*
X-8681830Y8424393D01*
X-8681830Y8424393D02*
X-8567544Y8424393D01*
X-8567544Y8424393D02*
X-8491353Y8386297D01*
X-8491353Y8386297D02*
X-8453258Y8310107D01*
X-8453258Y8310107D02*
X-8453258Y7891059D01*
X-7958020Y7891059D02*
X-8034210Y7929155D01*
X-8034210Y7929155D02*
X-8072305Y7967250D01*
X-8072305Y7967250D02*
X-8110401Y8043440D01*
X-8110401Y8043440D02*
X-8110401Y8272012D01*
X-8110401Y8272012D02*
X-8072305Y8348202D01*
X-8072305Y8348202D02*
X-8034210Y8386297D01*
X-8034210Y8386297D02*
X-7958020Y8424393D01*
X-7958020Y8424393D02*
X-7843734Y8424393D01*
X-7843734Y8424393D02*
X-7767543Y8386297D01*
X-7767543Y8386297D02*
X-7729448Y8348202D01*
X-7729448Y8348202D02*
X-7691353Y8272012D01*
X-7691353Y8272012D02*
X-7691353Y8043440D01*
X-7691353Y8043440D02*
X-7729448Y7967250D01*
X-7729448Y7967250D02*
X-7767543Y7929155D01*
X-7767543Y7929155D02*
X-7843734Y7891059D01*
X-7843734Y7891059D02*
X-7958020Y7891059D01*
X-7462781Y8424393D02*
X-7158019Y8424393D01*
X-7348495Y8691059D02*
X-7348495Y8005345D01*
X-7348495Y8005345D02*
X-7310400Y7929155D01*
X-7310400Y7929155D02*
X-7234210Y7891059D01*
X-7234210Y7891059D02*
X-7158019Y7891059D01*
X-6853257Y7929155D02*
X-6853257Y7891059D01*
X-6853257Y7891059D02*
X-6891352Y7814869D01*
X-6891352Y7814869D02*
X-6929448Y7776774D01*
X-5977067Y8691059D02*
X-5481829Y8691059D01*
X-5481829Y8691059D02*
X-5748495Y8386297D01*
X-5748495Y8386297D02*
X-5634210Y8386297D01*
X-5634210Y8386297D02*
X-5558019Y8348202D01*
X-5558019Y8348202D02*
X-5519924Y8310107D01*
X-5519924Y8310107D02*
X-5481829Y8233916D01*
X-5481829Y8233916D02*
X-5481829Y8043440D01*
X-5481829Y8043440D02*
X-5519924Y7967250D01*
X-5519924Y7967250D02*
X-5558019Y7929155D01*
X-5558019Y7929155D02*
X-5634210Y7891059D01*
X-5634210Y7891059D02*
X-5862781Y7891059D01*
X-5862781Y7891059D02*
X-5938972Y7929155D01*
X-5938972Y7929155D02*
X-5977067Y7967250D01*
X-5138971Y7967250D02*
X-5100876Y7929155D01*
X-5100876Y7929155D02*
X-5138971Y7891059D01*
X-5138971Y7891059D02*
X-5177067Y7929155D01*
X-5177067Y7929155D02*
X-5138971Y7967250D01*
X-5138971Y7967250D02*
X-5138971Y7891059D01*
X-4834210Y8691059D02*
X-4338972Y8691059D01*
X-4338972Y8691059D02*
X-4605638Y8386297D01*
X-4605638Y8386297D02*
X-4491353Y8386297D01*
X-4491353Y8386297D02*
X-4415162Y8348202D01*
X-4415162Y8348202D02*
X-4377067Y8310107D01*
X-4377067Y8310107D02*
X-4338972Y8233916D01*
X-4338972Y8233916D02*
X-4338972Y8043440D01*
X-4338972Y8043440D02*
X-4377067Y7967250D01*
X-4377067Y7967250D02*
X-4415162Y7929155D01*
X-4415162Y7929155D02*
X-4491353Y7891059D01*
X-4491353Y7891059D02*
X-4719924Y7891059D01*
X-4719924Y7891059D02*
X-4796115Y7929155D01*
X-4796115Y7929155D02*
X-4834210Y7967250D01*
X-4110400Y8691059D02*
X-3843733Y7891059D01*
X-3843733Y7891059D02*
X-3577067Y8691059D01*
X-2700876Y7891059D02*
X-2700876Y8424393D01*
X-2700876Y8691059D02*
X-2738972Y8652964D01*
X-2738972Y8652964D02*
X-2700876Y8614869D01*
X-2700876Y8614869D02*
X-2662781Y8652964D01*
X-2662781Y8652964D02*
X-2700876Y8691059D01*
X-2700876Y8691059D02*
X-2700876Y8614869D01*
X-2358020Y7929155D02*
X-2281829Y7891059D01*
X-2281829Y7891059D02*
X-2129448Y7891059D01*
X-2129448Y7891059D02*
X-2053258Y7929155D01*
X-2053258Y7929155D02*
X-2015162Y8005345D01*
X-2015162Y8005345D02*
X-2015162Y8043440D01*
X-2015162Y8043440D02*
X-2053258Y8119631D01*
X-2053258Y8119631D02*
X-2129448Y8157726D01*
X-2129448Y8157726D02*
X-2243734Y8157726D01*
X-2243734Y8157726D02*
X-2319924Y8195821D01*
X-2319924Y8195821D02*
X-2358020Y8272012D01*
X-2358020Y8272012D02*
X-2358020Y8310107D01*
X-2358020Y8310107D02*
X-2319924Y8386297D01*
X-2319924Y8386297D02*
X-2243734Y8424393D01*
X-2243734Y8424393D02*
X-2129448Y8424393D01*
X-2129448Y8424393D02*
X-2053258Y8386297D01*
X-910400Y8691059D02*
X-758019Y8691059D01*
X-758019Y8691059D02*
X-681829Y8652964D01*
X-681829Y8652964D02*
X-605638Y8576774D01*
X-605638Y8576774D02*
X-567543Y8424393D01*
X-567543Y8424393D02*
X-567543Y8157726D01*
X-567543Y8157726D02*
X-605638Y8005345D01*
X-605638Y8005345D02*
X-681829Y7929155D01*
X-681829Y7929155D02*
X-758019Y7891059D01*
X-758019Y7891059D02*
X-910400Y7891059D01*
X-910400Y7891059D02*
X-986591Y7929155D01*
X-986591Y7929155D02*
X-1062781Y8005345D01*
X-1062781Y8005345D02*
X-1100877Y8157726D01*
X-1100877Y8157726D02*
X-1100877Y8424393D01*
X-1100877Y8424393D02*
X-1062781Y8576774D01*
X-1062781Y8576774D02*
X-986591Y8652964D01*
X-986591Y8652964D02*
X-910400Y8691059D01*
X-224686Y8691059D02*
X-224686Y8043440D01*
X-224686Y8043440D02*
X-186591Y7967250D01*
X-186591Y7967250D02*
X-148496Y7929155D01*
X-148496Y7929155D02*
X-72305Y7891059D01*
X-72305Y7891059D02*
X80075Y7891059D01*
X80075Y7891059D02*
X156265Y7929155D01*
X156265Y7929155D02*
X194360Y7967250D01*
X194360Y7967250D02*
X232456Y8043440D01*
X232456Y8043440D02*
X232456Y8691059D01*
X499122Y8691059D02*
X956265Y8691059D01*
X727693Y7891059D02*
X727693Y8691059D01*
X1222932Y7891059D02*
X1222932Y8691059D01*
X1222932Y8691059D02*
X1527694Y8691059D01*
X1527694Y8691059D02*
X1603884Y8652964D01*
X1603884Y8652964D02*
X1641979Y8614869D01*
X1641979Y8614869D02*
X1680075Y8538678D01*
X1680075Y8538678D02*
X1680075Y8424393D01*
X1680075Y8424393D02*
X1641979Y8348202D01*
X1641979Y8348202D02*
X1603884Y8310107D01*
X1603884Y8310107D02*
X1527694Y8272012D01*
X1527694Y8272012D02*
X1222932Y8272012D01*
X2022932Y8691059D02*
X2022932Y8043440D01*
X2022932Y8043440D02*
X2061027Y7967250D01*
X2061027Y7967250D02*
X2099122Y7929155D01*
X2099122Y7929155D02*
X2175313Y7891059D01*
X2175313Y7891059D02*
X2327694Y7891059D01*
X2327694Y7891059D02*
X2403884Y7929155D01*
X2403884Y7929155D02*
X2441979Y7967250D01*
X2441979Y7967250D02*
X2480075Y8043440D01*
X2480075Y8043440D02*
X2480075Y8691059D01*
X2746741Y8691059D02*
X3203884Y8691059D01*
X2975312Y7891059D02*
X2975312Y8691059D01*
X4080075Y8424393D02*
X4080075Y7891059D01*
X4080075Y8348202D02*
X4118170Y8386297D01*
X4118170Y8386297D02*
X4194360Y8424393D01*
X4194360Y8424393D02*
X4308646Y8424393D01*
X4308646Y8424393D02*
X4384837Y8386297D01*
X4384837Y8386297D02*
X4422932Y8310107D01*
X4422932Y8310107D02*
X4422932Y7891059D01*
X4918170Y7891059D02*
X4841980Y7929155D01*
X4841980Y7929155D02*
X4803885Y7967250D01*
X4803885Y7967250D02*
X4765789Y8043440D01*
X4765789Y8043440D02*
X4765789Y8272012D01*
X4765789Y8272012D02*
X4803885Y8348202D01*
X4803885Y8348202D02*
X4841980Y8386297D01*
X4841980Y8386297D02*
X4918170Y8424393D01*
X4918170Y8424393D02*
X5032456Y8424393D01*
X5032456Y8424393D02*
X5108647Y8386297D01*
X5108647Y8386297D02*
X5146742Y8348202D01*
X5146742Y8348202D02*
X5184837Y8272012D01*
X5184837Y8272012D02*
X5184837Y8043440D01*
X5184837Y8043440D02*
X5146742Y7967250D01*
X5146742Y7967250D02*
X5108647Y7929155D01*
X5108647Y7929155D02*
X5032456Y7891059D01*
X5032456Y7891059D02*
X4918170Y7891059D01*
X5413409Y8424393D02*
X5718171Y8424393D01*
X5527695Y8691059D02*
X5527695Y8005345D01*
X5527695Y8005345D02*
X5565790Y7929155D01*
X5565790Y7929155D02*
X5641980Y7891059D01*
X5641980Y7891059D02*
X5718171Y7891059D01*
X-10243734Y6603104D02*
X-10243734Y7403104D01*
X-9862782Y6603104D02*
X-9862782Y7403104D01*
X-9862782Y7403104D02*
X-9405639Y6603104D01*
X-9405639Y6603104D02*
X-9405639Y7403104D01*
X-9024687Y6603104D02*
X-9024687Y7403104D01*
X-9024687Y7403104D02*
X-8719925Y7403104D01*
X-8719925Y7403104D02*
X-8643735Y7365009D01*
X-8643735Y7365009D02*
X-8605640Y7326914D01*
X-8605640Y7326914D02*
X-8567544Y7250723D01*
X-8567544Y7250723D02*
X-8567544Y7136438D01*
X-8567544Y7136438D02*
X-8605640Y7060247D01*
X-8605640Y7060247D02*
X-8643735Y7022152D01*
X-8643735Y7022152D02*
X-8719925Y6984057D01*
X-8719925Y6984057D02*
X-9024687Y6984057D01*
X-8224687Y7403104D02*
X-8224687Y6755485D01*
X-8224687Y6755485D02*
X-8186592Y6679295D01*
X-8186592Y6679295D02*
X-8148497Y6641200D01*
X-8148497Y6641200D02*
X-8072306Y6603104D01*
X-8072306Y6603104D02*
X-7919925Y6603104D01*
X-7919925Y6603104D02*
X-7843735Y6641200D01*
X-7843735Y6641200D02*
X-7805640Y6679295D01*
X-7805640Y6679295D02*
X-7767544Y6755485D01*
X-7767544Y6755485D02*
X-7767544Y7403104D01*
X-7500878Y7403104D02*
X-7043735Y7403104D01*
X-7272307Y6603104D02*
X-7272307Y7403104D01*
X-6777068Y6679295D02*
X-6738973Y6641200D01*
X-6738973Y6641200D02*
X-6777068Y6603104D01*
X-6777068Y6603104D02*
X-6815164Y6641200D01*
X-6815164Y6641200D02*
X-6777068Y6679295D01*
X-6777068Y6679295D02*
X-6777068Y6603104D01*
X-6777068Y6907866D02*
X-6815164Y7365009D01*
X-6815164Y7365009D02*
X-6777068Y7403104D01*
X-6777068Y7403104D02*
X-6738973Y7365009D01*
X-6738973Y7365009D02*
X-6777068Y6907866D01*
X-6777068Y6907866D02*
X-6777068Y7403104D01*
X-6396116Y6679295D02*
X-6358021Y6641200D01*
X-6358021Y6641200D02*
X-6396116Y6603104D01*
X-6396116Y6603104D02*
X-6434212Y6641200D01*
X-6434212Y6641200D02*
X-6396116Y6679295D01*
X-6396116Y6679295D02*
X-6396116Y6603104D01*
X-6396116Y6907866D02*
X-6434212Y7365009D01*
X-6434212Y7365009D02*
X-6396116Y7403104D01*
X-6396116Y7403104D02*
X-6358021Y7365009D01*
X-6358021Y7365009D02*
X-6396116Y6907866D01*
X-6396116Y6907866D02*
X-6396116Y7403104D01*
X-6015164Y6679295D02*
X-5977069Y6641200D01*
X-5977069Y6641200D02*
X-6015164Y6603104D01*
X-6015164Y6603104D02*
X-6053260Y6641200D01*
X-6053260Y6641200D02*
X-6015164Y6679295D01*
X-6015164Y6679295D02*
X-6015164Y6603104D01*
X-6015164Y6907866D02*
X-6053260Y7365009D01*
X-6053260Y7365009D02*
X-6015164Y7403104D01*
X-6015164Y7403104D02*
X-5977069Y7365009D01*
X-5977069Y7365009D02*
X-6015164Y6907866D01*
X-6015164Y6907866D02*
X-6015164Y7403104D01*
X9848609Y-7862782D02*
X9896228Y-7719925D01*
X9896228Y-7719925D02*
X9943847Y-7672306D01*
X9943847Y-7672306D02*
X10039085Y-7624687D01*
X10039085Y-7624687D02*
X10181942Y-7624687D01*
X10181942Y-7624687D02*
X10277180Y-7672306D01*
X10277180Y-7672306D02*
X10324800Y-7719925D01*
X10324800Y-7719925D02*
X10372419Y-7815163D01*
X10372419Y-7815163D02*
X10372419Y-8196115D01*
X10372419Y-8196115D02*
X9372419Y-8196115D01*
X9372419Y-8196115D02*
X9372419Y-7862782D01*
X9372419Y-7862782D02*
X9420038Y-7767544D01*
X9420038Y-7767544D02*
X9467657Y-7719925D01*
X9467657Y-7719925D02*
X9562895Y-7672306D01*
X9562895Y-7672306D02*
X9658133Y-7672306D01*
X9658133Y-7672306D02*
X9753371Y-7719925D01*
X9753371Y-7719925D02*
X9800990Y-7767544D01*
X9800990Y-7767544D02*
X9848609Y-7862782D01*
X9848609Y-7862782D02*
X9848609Y-8196115D01*
X10372419Y-6672306D02*
X10372419Y-7243734D01*
X10372419Y-6958020D02*
X9372419Y-6958020D01*
X9372419Y-6958020D02*
X9515276Y-7053258D01*
X9515276Y-7053258D02*
X9610514Y-7148496D01*
X9610514Y-7148496D02*
X9658133Y-7243734D01*
X9372419Y-6196115D02*
X9562895Y-6291353D01*
X9375312Y-17587180D02*
X9327693Y-17634800D01*
X9327693Y-17634800D02*
X9184836Y-17682419D01*
X9184836Y-17682419D02*
X9089598Y-17682419D01*
X9089598Y-17682419D02*
X8946741Y-17634800D01*
X8946741Y-17634800D02*
X8851503Y-17539561D01*
X8851503Y-17539561D02*
X8803884Y-17444323D01*
X8803884Y-17444323D02*
X8756265Y-17253847D01*
X8756265Y-17253847D02*
X8756265Y-17110990D01*
X8756265Y-17110990D02*
X8803884Y-16920514D01*
X8803884Y-16920514D02*
X8851503Y-16825276D01*
X8851503Y-16825276D02*
X8946741Y-16730038D01*
X8946741Y-16730038D02*
X9089598Y-16682419D01*
X9089598Y-16682419D02*
X9184836Y-16682419D01*
X9184836Y-16682419D02*
X9327693Y-16730038D01*
X9327693Y-16730038D02*
X9375312Y-16777657D01*
X10232455Y-16682419D02*
X10041979Y-16682419D01*
X10041979Y-16682419D02*
X9946741Y-16730038D01*
X9946741Y-16730038D02*
X9899122Y-16777657D01*
X9899122Y-16777657D02*
X9803884Y-16920514D01*
X9803884Y-16920514D02*
X9756265Y-17110990D01*
X9756265Y-17110990D02*
X9756265Y-17491942D01*
X9756265Y-17491942D02*
X9803884Y-17587180D01*
X9803884Y-17587180D02*
X9851503Y-17634800D01*
X9851503Y-17634800D02*
X9946741Y-17682419D01*
X9946741Y-17682419D02*
X10137217Y-17682419D01*
X10137217Y-17682419D02*
X10232455Y-17634800D01*
X10232455Y-17634800D02*
X10280074Y-17587180D01*
X10280074Y-17587180D02*
X10327693Y-17491942D01*
X10327693Y-17491942D02*
X10327693Y-17253847D01*
X10327693Y-17253847D02*
X10280074Y-17158609D01*
X10280074Y-17158609D02*
X10232455Y-17110990D01*
X10232455Y-17110990D02*
X10137217Y-17063371D01*
X10137217Y-17063371D02*
X9946741Y-17063371D01*
X9946741Y-17063371D02*
X9851503Y-17110990D01*
X9851503Y-17110990D02*
X9803884Y-17158609D01*
X9803884Y-17158609D02*
X9756265Y-17253847D01*
X8803884Y7627580D02*
X8803884Y8627580D01*
X8803884Y8627580D02*
X9041979Y8627580D01*
X9041979Y8627580D02*
X9184836Y8579961D01*
X9184836Y8579961D02*
X9280074Y8484723D01*
X9280074Y8484723D02*
X9327693Y8389485D01*
X9327693Y8389485D02*
X9375312Y8199009D01*
X9375312Y8199009D02*
X9375312Y8056152D01*
X9375312Y8056152D02*
X9327693Y7865676D01*
X9327693Y7865676D02*
X9280074Y7770438D01*
X9280074Y7770438D02*
X9184836Y7675200D01*
X9184836Y7675200D02*
X9041979Y7627580D01*
X9041979Y7627580D02*
X8803884Y7627580D01*
X10327693Y7627580D02*
X9756265Y7627580D01*
X10041979Y7627580D02*
X10041979Y8627580D01*
X10041979Y8627580D02*
X9946741Y8484723D01*
X9946741Y8484723D02*
X9851503Y8389485D01*
X9851503Y8389485D02*
X9756265Y8341866D01*
X-9672306Y-24420038D02*
X-9767544Y-24372419D01*
X-9767544Y-24372419D02*
X-9910401Y-24372419D01*
X-9910401Y-24372419D02*
X-10053258Y-24420038D01*
X-10053258Y-24420038D02*
X-10148496Y-24515276D01*
X-10148496Y-24515276D02*
X-10196115Y-24610514D01*
X-10196115Y-24610514D02*
X-10243734Y-24800990D01*
X-10243734Y-24800990D02*
X-10243734Y-24943847D01*
X-10243734Y-24943847D02*
X-10196115Y-25134323D01*
X-10196115Y-25134323D02*
X-10148496Y-25229561D01*
X-10148496Y-25229561D02*
X-10053258Y-25324800D01*
X-10053258Y-25324800D02*
X-9910401Y-25372419D01*
X-9910401Y-25372419D02*
X-9815163Y-25372419D01*
X-9815163Y-25372419D02*
X-9672306Y-25324800D01*
X-9672306Y-25324800D02*
X-9624687Y-25277180D01*
X-9624687Y-25277180D02*
X-9624687Y-24943847D01*
X-9624687Y-24943847D02*
X-9815163Y-24943847D01*
X-9196115Y-25372419D02*
X-9196115Y-24372419D01*
X-9196115Y-24372419D02*
X-8624687Y-25372419D01*
X-8624687Y-25372419D02*
X-8624687Y-24372419D01*
X-8148496Y-25372419D02*
X-8148496Y-24372419D01*
X-8148496Y-24372419D02*
X-7910401Y-24372419D01*
X-7910401Y-24372419D02*
X-7767544Y-24420038D01*
X-7767544Y-24420038D02*
X-7672306Y-24515276D01*
X-7672306Y-24515276D02*
X-7624687Y-24610514D01*
X-7624687Y-24610514D02*
X-7577068Y-24800990D01*
X-7577068Y-24800990D02*
X-7577068Y-24943847D01*
X-7577068Y-24943847D02*
X-7624687Y-25134323D01*
X-7624687Y-25134323D02*
X-7672306Y-25229561D01*
X-7672306Y-25229561D02*
X-7767544Y-25324800D01*
X-7767544Y-25324800D02*
X-7910401Y-25372419D01*
X-7910401Y-25372419D02*
X-8148496Y-25372419D01*
X9848609Y-10196115D02*
X9848609Y-9862782D01*
X10372419Y-9719925D02*
X10372419Y-10196115D01*
X10372419Y-10196115D02*
X9372419Y-10196115D01*
X9372419Y-10196115D02*
X9372419Y-9719925D01*
X10372419Y-8767544D02*
X10372419Y-9338972D01*
X10372419Y-9053258D02*
X9372419Y-9053258D01*
X9372419Y-9053258D02*
X9515276Y-9148496D01*
X9515276Y-9148496D02*
X9610514Y-9243734D01*
X9610514Y-9243734D02*
X9658133Y-9338972D01*
X9848609Y-5362782D02*
X9896228Y-5219925D01*
X9896228Y-5219925D02*
X9943847Y-5172306D01*
X9943847Y-5172306D02*
X10039085Y-5124687D01*
X10039085Y-5124687D02*
X10181942Y-5124687D01*
X10181942Y-5124687D02*
X10277180Y-5172306D01*
X10277180Y-5172306D02*
X10324800Y-5219925D01*
X10324800Y-5219925D02*
X10372419Y-5315163D01*
X10372419Y-5315163D02*
X10372419Y-5696115D01*
X10372419Y-5696115D02*
X9372419Y-5696115D01*
X9372419Y-5696115D02*
X9372419Y-5362782D01*
X9372419Y-5362782D02*
X9420038Y-5267544D01*
X9420038Y-5267544D02*
X9467657Y-5219925D01*
X9467657Y-5219925D02*
X9562895Y-5172306D01*
X9562895Y-5172306D02*
X9658133Y-5172306D01*
X9658133Y-5172306D02*
X9753371Y-5219925D01*
X9753371Y-5219925D02*
X9800990Y-5267544D01*
X9800990Y-5267544D02*
X9848609Y-5362782D01*
X9848609Y-5362782D02*
X9848609Y-5696115D01*
X9372419Y-4791353D02*
X9372419Y-4172306D01*
X9372419Y-4172306D02*
X9753371Y-4505639D01*
X9753371Y-4505639D02*
X9753371Y-4362782D01*
X9753371Y-4362782D02*
X9800990Y-4267544D01*
X9800990Y-4267544D02*
X9848609Y-4219925D01*
X9848609Y-4219925D02*
X9943847Y-4172306D01*
X9943847Y-4172306D02*
X10181942Y-4172306D01*
X10181942Y-4172306D02*
X10277180Y-4219925D01*
X10277180Y-4219925D02*
X10324800Y-4267544D01*
X10324800Y-4267544D02*
X10372419Y-4362782D01*
X10372419Y-4362782D02*
X10372419Y-4648496D01*
X10372419Y-4648496D02*
X10324800Y-4743734D01*
X10324800Y-4743734D02*
X10277180Y-4791353D01*
X8803884Y5651390D02*
X9137217Y5651390D01*
X9280074Y5127580D02*
X8803884Y5127580D01*
X8803884Y5127580D02*
X8803884Y6127580D01*
X8803884Y6127580D02*
X9280074Y6127580D01*
X9661027Y6032342D02*
X9708646Y6079961D01*
X9708646Y6079961D02*
X9803884Y6127580D01*
X9803884Y6127580D02*
X10041979Y6127580D01*
X10041979Y6127580D02*
X10137217Y6079961D01*
X10137217Y6079961D02*
X10184836Y6032342D01*
X10184836Y6032342D02*
X10232455Y5937104D01*
X10232455Y5937104D02*
X10232455Y5841866D01*
X10232455Y5841866D02*
X10184836Y5699009D01*
X10184836Y5699009D02*
X9613408Y5127580D01*
X9613408Y5127580D02*
X10232455Y5127580D01*
X9137217Y10651390D02*
X9280074Y10603771D01*
X9280074Y10603771D02*
X9327693Y10556152D01*
X9327693Y10556152D02*
X9375312Y10460914D01*
X9375312Y10460914D02*
X9375312Y10318057D01*
X9375312Y10318057D02*
X9327693Y10222819D01*
X9327693Y10222819D02*
X9280074Y10175200D01*
X9280074Y10175200D02*
X9184836Y10127580D01*
X9184836Y10127580D02*
X8803884Y10127580D01*
X8803884Y10127580D02*
X8803884Y11127580D01*
X8803884Y11127580D02*
X9137217Y11127580D01*
X9137217Y11127580D02*
X9232455Y11079961D01*
X9232455Y11079961D02*
X9280074Y11032342D01*
X9280074Y11032342D02*
X9327693Y10937104D01*
X9327693Y10937104D02*
X9327693Y10841866D01*
X9327693Y10841866D02*
X9280074Y10746628D01*
X9280074Y10746628D02*
X9232455Y10699009D01*
X9232455Y10699009D02*
X9137217Y10651390D01*
X9137217Y10651390D02*
X8803884Y10651390D01*
X10327693Y10127580D02*
X9756265Y10127580D01*
X10041979Y10127580D02*
X10041979Y11127580D01*
X10041979Y11127580D02*
X9946741Y10984723D01*
X9946741Y10984723D02*
X9851503Y10889485D01*
X9851503Y10889485D02*
X9756265Y10841866D01*
D11*
X-9045180Y-20103333D02*
X-8330895Y-20103333D01*
X-8330895Y-20103333D02*
X-8188038Y-20150952D01*
X-8188038Y-20150952D02*
X-8092800Y-20246190D01*
X-8092800Y-20246190D02*
X-8045180Y-20389047D01*
X-8045180Y-20389047D02*
X-8045180Y-20484285D01*
X-9045180Y-19722380D02*
X-9045180Y-19103333D01*
X-9045180Y-19103333D02*
X-8664228Y-19436666D01*
X-8664228Y-19436666D02*
X-8664228Y-19293809D01*
X-8664228Y-19293809D02*
X-8616609Y-19198571D01*
X-8616609Y-19198571D02*
X-8568990Y-19150952D01*
X-8568990Y-19150952D02*
X-8473752Y-19103333D01*
X-8473752Y-19103333D02*
X-8235657Y-19103333D01*
X-8235657Y-19103333D02*
X-8140419Y-19150952D01*
X-8140419Y-19150952D02*
X-8092800Y-19198571D01*
X-8092800Y-19198571D02*
X-8045180Y-19293809D01*
X-8045180Y-19293809D02*
X-8045180Y-19579523D01*
X-8045180Y-19579523D02*
X-8092800Y-19674761D01*
X-8092800Y-19674761D02*
X-8140419Y-19722380D01*
X-7953333Y2925180D02*
X-7953333Y2210895D01*
X-7953333Y2210895D02*
X-8000952Y2068038D01*
X-8000952Y2068038D02*
X-8096190Y1972800D01*
X-8096190Y1972800D02*
X-8239047Y1925180D01*
X-8239047Y1925180D02*
X-8334285Y1925180D01*
X-6953333Y1925180D02*
X-7524761Y1925180D01*
X-7239047Y1925180D02*
X-7239047Y2925180D01*
X-7239047Y2925180D02*
X-7334285Y2782323D01*
X-7334285Y2782323D02*
X-7429523Y2687085D01*
X-7429523Y2687085D02*
X-7524761Y2639466D01*
X6166666Y-14454819D02*
X6166666Y-15169104D01*
X6166666Y-15169104D02*
X6119047Y-15311961D01*
X6119047Y-15311961D02*
X6023809Y-15407200D01*
X6023809Y-15407200D02*
X5880952Y-15454819D01*
X5880952Y-15454819D02*
X5785714Y-15454819D01*
X6595238Y-14550057D02*
X6642857Y-14502438D01*
X6642857Y-14502438D02*
X6738095Y-14454819D01*
X6738095Y-14454819D02*
X6976190Y-14454819D01*
X6976190Y-14454819D02*
X7071428Y-14502438D01*
X7071428Y-14502438D02*
X7119047Y-14550057D01*
X7119047Y-14550057D02*
X7166666Y-14645295D01*
X7166666Y-14645295D02*
X7166666Y-14740533D01*
X7166666Y-14740533D02*
X7119047Y-14883390D01*
X7119047Y-14883390D02*
X6547619Y-15454819D01*
X6547619Y-15454819D02*
X7166666Y-15454819D01*
D10*
X-809523Y-28727419D02*
X-809523Y-27727419D01*
X-809523Y-27727419D02*
X-476190Y-28441704D01*
X-476190Y-28441704D02*
X-142857Y-27727419D01*
X-142857Y-27727419D02*
X-142857Y-28727419D01*
X857142Y-28727419D02*
X285714Y-28727419D01*
X571428Y-28727419D02*
X571428Y-27727419D01*
X571428Y-27727419D02*
X476190Y-27870276D01*
X476190Y-27870276D02*
X380952Y-27965514D01*
X380952Y-27965514D02*
X285714Y-28013133D01*
D12*
X-7730000Y-17120000D02*
X-7730000Y-22420000D01*
X5080000Y-17120000D02*
X-7730000Y-17120000D01*
X5080000Y-17120000D02*
X5080000Y-19770000D01*
X5080000Y-19770000D02*
X7730000Y-19770000D01*
X6350000Y-17120000D02*
X7730000Y-17120000D01*
X7730000Y-17120000D02*
X7730000Y-18500000D01*
X7730000Y-19770000D02*
X7730000Y-22420000D01*
X7730000Y-22420000D02*
X-7730000Y-22420000D01*
X-9000000Y1380000D02*
X-7620000Y1380000D01*
X-9000000Y0D02*
X-9000000Y1380000D01*
X-9000000Y-1270000D02*
X-9000000Y-14080000D01*
X-9000000Y-1270000D02*
X-6240000Y-1270000D01*
X-9000000Y-14080000D02*
X-6240000Y-14080000D01*
X-6240000Y-1270000D02*
X-6240000Y-14080000D01*
X6240000Y-11430000D02*
X6240000Y1380000D01*
X9000000Y1380000D02*
X6240000Y1380000D01*
X9000000Y-11430000D02*
X6240000Y-11430000D01*
X9000000Y-11430000D02*
X9000000Y1380000D01*
X9000000Y-12700000D02*
X9000000Y-14080000D01*
X9000000Y-14080000D02*
X7620000Y-14080000D01*
%LPC*%
D13*
X6350000Y-18500000D03*
D14*
X6350000Y-21040000D03*
X3810000Y-18500000D03*
X3810000Y-21040000D03*
X1270000Y-18500000D03*
X1270000Y-21040000D03*
X-1270000Y-18500000D03*
X-1270000Y-21040000D03*
X-3810000Y-18500000D03*
X-3810000Y-21040000D03*
X-6350000Y-18500000D03*
X-6350000Y-21040000D03*
D13*
X-7620000Y0D03*
D14*
X-7620000Y-2540000D03*
X-7620000Y-5080000D03*
X-7620000Y-7620000D03*
X-7620000Y-10160000D03*
X-7620000Y-12700000D03*
D13*
X7620000Y-12700000D03*
D14*
X7620000Y-10160000D03*
X7620000Y-7620000D03*
X7620000Y-5080000D03*
X7620000Y-2540000D03*
X7620000Y0D03*
D15*
X-12000000Y18180000D03*
X-12000000Y-25000000D03*
X12000000Y18180000D03*
X12000000Y10560000D03*
X12000000Y8020000D03*
X12000000Y5480000D03*
X12000000Y2940000D03*
X12000000Y400000D03*
X12000000Y-2140000D03*
X12000000Y-4680000D03*
X12000000Y-7220000D03*
X12000000Y-9760000D03*
X12000000Y-12300000D03*
X12000000Y-14840000D03*
X12000000Y-17380000D03*
X12000000Y-19920000D03*
X12000000Y-22460000D03*
X12000000Y-25000000D03*
%LPD*%
M02*
