G04 #@! TF.GenerationSoftware,KiCad,Pcbnew,9.0.1+1*
G04 #@! TF.CreationDate,2025-11-25T11:40:30+00:00*
G04 #@! TF.ProjectId,icesugar-nano-carrier,69636573-7567-4617-922d-6e616e6f2d63,rev?*
G04 #@! TF.SameCoordinates,Original*
G04 #@! TF.FileFunction,Copper,L2,Bot*
G04 #@! TF.FilePolarity,Positive*
%FSLAX46Y46*%
G04 Gerber Fmt 4.6, Leading zero omitted, Abs format (unit mm)*
G04 Created by KiCad (PCBNEW 9.0.1+1) date 2025-11-25 11:40:30*
%MOMM*%
%LPD*%
G01*
G04 APERTURE LIST*
G04 #@! TA.AperFunction,ComponentPad*
%ADD10R,1.700000X1.700000*%
G04 #@! TD*
G04 #@! TA.AperFunction,ComponentPad*
%ADD11C,1.700000*%
G04 #@! TD*
G04 #@! TA.AperFunction,CastellatedPad*
%ADD12R,2.540000X2.000000*%
G04 #@! TD*
G04 #@! TA.AperFunction,Conductor*
%ADD13C,0.250000*%
G04 #@! TD*
G04 APERTURE END LIST*
D10*
X6350000Y-18500000D03*
D11*
X6350000Y-21040000D03*
X3810000Y-18500000D03*
X3810000Y-21040000D03*
X1270000Y-18500000D03*
X1270000Y-21040000D03*
X-1270000Y-18500000D03*
X-1270000Y-21040000D03*
X-3810000Y-18500000D03*
X-3810000Y-21040000D03*
X-6350000Y-18500000D03*
X-6350000Y-21040000D03*
D10*
X-7620000Y0D03*
D11*
X-7620000Y-2540000D03*
X-7620000Y-5080000D03*
X-7620000Y-7620000D03*
X-7620000Y-10160000D03*
X-7620000Y-12700000D03*
D10*
X7620000Y-12700000D03*
D11*
X7620000Y-10160000D03*
X7620000Y-7620000D03*
X7620000Y-5080000D03*
X7620000Y-2540000D03*
X7620000Y0D03*
D12*
X-12000000Y18180000D03*
X-12000000Y-25000000D03*
X12000000Y18180000D03*
X12000000Y10560000D03*
X12000000Y8020000D03*
X12000000Y5480000D03*
X12000000Y2940000D03*
X12000000Y400000D03*
X12000000Y-2140000D03*
X12000000Y-4680000D03*
X12000000Y-7220000D03*
X12000000Y-9760000D03*
X12000000Y-12300000D03*
X12000000Y-14840000D03*
X12000000Y-17380000D03*
X12000000Y-19920000D03*
X12000000Y-22460000D03*
X12000000Y-25000000D03*
D13*
X-12000000Y-25000000D02*
X-9000000Y-25000000D01*
G04 #@! TA.AperFunction,Conductor*
G36*
X-2694728Y-19261716D02*
G01*
X-2655373Y-19207547D01*
X-2655372Y-19207547D01*
X-2650763Y-19198500D01*
X-2602788Y-19147706D01*
X-2534966Y-19130912D01*
X-2468832Y-19153451D01*
X-2429793Y-19198508D01*
X-2425051Y-19207816D01*
X-2385890Y-19261717D01*
X-2300109Y-19379786D01*
X-2300106Y-19379788D01*
X-2300104Y-19379792D01*
X-2149792Y-19530104D01*
X-2149788Y-19530106D01*
X-2149786Y-19530109D01*
X-2064138Y-19592335D01*
X-1977816Y-19655051D01*
X-1969054Y-19659514D01*
X-1918259Y-19707488D01*
X-1901463Y-19775308D01*
X-1923999Y-19841444D01*
X-1969054Y-19880484D01*
X-1977115Y-19884591D01*
X-1977820Y-19884951D01*
X-2149786Y-20009890D01*
X-2300109Y-20160213D01*
X-2425048Y-20332179D01*
X-2425049Y-20332181D01*
X-2425051Y-20332184D01*
X-2429794Y-20341493D01*
X-2477766Y-20392290D01*
X-2545587Y-20409087D01*
X-2611722Y-20386552D01*
X-2650760Y-20341505D01*
X-2655376Y-20332446D01*
X-2655380Y-20332440D01*
X-2694727Y-20278282D01*
X-2694728Y-20278282D01*
X-3327037Y-20910591D01*
X-3344075Y-20847007D01*
X-3409901Y-20732993D01*
X-3502993Y-20639901D01*
X-3617007Y-20574075D01*
X-3680591Y-20557037D01*
X-3048282Y-19924728D01*
X-3048282Y-19924727D01*
X-3102440Y-19885380D01*
X-3112051Y-19880483D01*
X-3162845Y-19832506D01*
X-3179638Y-19764684D01*
X-3157098Y-19698550D01*
X-3112048Y-19659516D01*
X-3102452Y-19654626D01*
X-3048282Y-19615270D01*
X-3048282Y-19615269D01*
X-3680590Y-18982962D01*
X-3617007Y-18965925D01*
X-3502993Y-18900099D01*
X-3409901Y-18807007D01*
X-3344075Y-18692993D01*
X-3327037Y-18629408D01*
X-2694728Y-19261716D01*
G37*
G04 #@! TD.AperFunction*
G04 #@! TA.AperFunction,Conductor*
G36*
X-4275925Y-18692993D02*
G01*
X-4210099Y-18807007D01*
X-4117007Y-18900099D01*
X-4002993Y-18965925D01*
X-3939408Y-18982962D01*
X-4540027Y-19583581D01*
X-4461288Y-19700895D01*
X-4460078Y-19704728D01*
X-4457157Y-19707488D01*
X-4449656Y-19737774D01*
X-4440272Y-19767529D01*
X-4441327Y-19771406D01*
X-4440361Y-19775308D01*
X-4450424Y-19804839D01*
X-4458616Y-19834947D01*
X-4461600Y-19837638D01*
X-4462897Y-19841444D01*
X-4507954Y-19880486D01*
X-4517550Y-19885375D01*
X-4571716Y-19924728D01*
X-3939409Y-20557037D01*
X-4002993Y-20574075D01*
X-4117007Y-20639901D01*
X-4210099Y-20732993D01*
X-4275925Y-20847007D01*
X-4292962Y-20910590D01*
X-4925269Y-20278282D01*
X-4925270Y-20278282D01*
X-4964626Y-20332452D01*
X-4969234Y-20341495D01*
X-5017208Y-20392292D01*
X-5085029Y-20409087D01*
X-5151164Y-20386550D01*
X-5190202Y-20341499D01*
X-5194949Y-20332182D01*
X-5319890Y-20160213D01*
X-5470213Y-20009890D01*
X-5642182Y-19884949D01*
X-5650946Y-19880484D01*
X-5701742Y-19832509D01*
X-5718536Y-19764688D01*
X-5695998Y-19698553D01*
X-5650946Y-19659516D01*
X-5642182Y-19655050D01*
X-5470213Y-19530109D01*
X-5319890Y-19379786D01*
X-5194949Y-19207817D01*
X-5190204Y-19198504D01*
X-5142230Y-19147707D01*
X-5074409Y-19130912D01*
X-5008274Y-19153449D01*
X-4969232Y-19198507D01*
X-4964622Y-19207555D01*
X-4925270Y-19261716D01*
X-4925270Y-19261717D01*
X-4292962Y-18629409D01*
X-4275925Y-18692993D01*
G37*
G04 #@! TD.AperFunction*
G04 #@! TA.AperFunction,Conductor*
G36*
X10172539Y18929816D02*
G01*
X10218294Y18877012D01*
X10229500Y18825501D01*
X10229500Y17132129D01*
X10229501Y17132123D01*
X10235908Y17072516D01*
X10286202Y16937671D01*
X10286206Y16937664D01*
X10372452Y16822455D01*
X10372455Y16822452D01*
X10487664Y16736206D01*
X10487671Y16736202D01*
X10622517Y16685908D01*
X10622516Y16685908D01*
X10682116Y16679501D01*
X10682119Y16679500D01*
X10682127Y16679500D01*
X11375500Y16679500D01*
X11442539Y16659815D01*
X11488294Y16607011D01*
X11499500Y16555500D01*
X11499500Y12184499D01*
X11479815Y12117460D01*
X11427011Y12071705D01*
X11375500Y12060499D01*
X10682128Y12060499D01*
X10633757Y12055299D01*
X10622516Y12054091D01*
X10487671Y12003797D01*
X10487664Y12003793D01*
X10372455Y11917547D01*
X10372452Y11917544D01*
X10286206Y11802335D01*
X10286202Y11802328D01*
X10235908Y11667482D01*
X10229501Y11607883D01*
X10229500Y11607864D01*
X10229500Y9512129D01*
X10229501Y9512123D01*
X10235908Y9452516D01*
X10280361Y9333333D01*
X10285345Y9263641D01*
X10280361Y9246667D01*
X10235908Y9127482D01*
X10229501Y9067883D01*
X10229500Y9067864D01*
X10229500Y6972129D01*
X10229501Y6972123D01*
X10235908Y6912516D01*
X10280361Y6793333D01*
X10285345Y6723641D01*
X10280361Y6706667D01*
X10235908Y6587482D01*
X10229501Y6527883D01*
X10229500Y6527864D01*
X10229500Y4432129D01*
X10229501Y4432123D01*
X10235908Y4372516D01*
X10280361Y4253333D01*
X10285345Y4183641D01*
X10280361Y4166667D01*
X10235908Y4047482D01*
X10229501Y3987883D01*
X10229500Y3987864D01*
X10229500Y1892129D01*
X10229501Y1892123D01*
X10235908Y1832516D01*
X10280361Y1713333D01*
X10285345Y1643641D01*
X10280361Y1626667D01*
X10235908Y1507482D01*
X10229501Y1447883D01*
X10229500Y1447864D01*
X10229500Y-647870D01*
X10229501Y-647876D01*
X10235908Y-707483D01*
X10280361Y-826667D01*
X10285345Y-896359D01*
X10280361Y-913333D01*
X10235908Y-1032517D01*
X10229501Y-1092116D01*
X10229500Y-1092135D01*
X10229500Y-3187870D01*
X10229501Y-3187876D01*
X10235908Y-3247483D01*
X10280361Y-3366667D01*
X10285345Y-3436359D01*
X10280361Y-3453333D01*
X10235908Y-3572517D01*
X10229501Y-3632116D01*
X10229500Y-3632135D01*
X10229500Y-5727870D01*
X10229501Y-5727876D01*
X10235908Y-5787483D01*
X10280361Y-5906667D01*
X10285345Y-5976359D01*
X10280361Y-5993333D01*
X10235908Y-6112517D01*
X10229501Y-6172116D01*
X10229500Y-6172135D01*
X10229500Y-8267870D01*
X10229501Y-8267876D01*
X10235908Y-8327483D01*
X10280361Y-8446667D01*
X10285345Y-8516359D01*
X10280361Y-8533333D01*
X10235908Y-8652517D01*
X10229501Y-8712116D01*
X10229500Y-8712135D01*
X10229500Y-10807870D01*
X10229501Y-10807876D01*
X10235908Y-10867483D01*
X10280361Y-10986667D01*
X10285345Y-11056359D01*
X10280361Y-11073333D01*
X10235908Y-11192517D01*
X10229501Y-11252116D01*
X10229500Y-11252135D01*
X10229500Y-13347870D01*
X10229501Y-13347876D01*
X10235908Y-13407483D01*
X10280361Y-13526667D01*
X10285345Y-13596359D01*
X10280361Y-13613333D01*
X10235908Y-13732517D01*
X10229501Y-13792116D01*
X10229500Y-13792135D01*
X10229500Y-15887870D01*
X10229501Y-15887876D01*
X10235908Y-15947483D01*
X10280361Y-16066667D01*
X10285345Y-16136359D01*
X10280361Y-16153333D01*
X10235908Y-16272517D01*
X10229501Y-16332116D01*
X10229500Y-16332135D01*
X10229500Y-18427870D01*
X10229501Y-18427876D01*
X10235908Y-18487483D01*
X10280361Y-18606667D01*
X10285345Y-18676359D01*
X10280361Y-18693333D01*
X10235908Y-18812517D01*
X10229501Y-18872116D01*
X10229500Y-18872135D01*
X10229500Y-20967870D01*
X10229501Y-20967876D01*
X10235908Y-21027483D01*
X10280361Y-21146667D01*
X10285345Y-21216359D01*
X10280361Y-21233333D01*
X10235908Y-21352517D01*
X10229501Y-21412116D01*
X10229500Y-21412135D01*
X10229500Y-23507870D01*
X10229501Y-23507876D01*
X10235908Y-23567483D01*
X10280361Y-23686667D01*
X10285345Y-23756359D01*
X10280361Y-23773333D01*
X10235908Y-23892517D01*
X10229501Y-23952116D01*
X10229500Y-23952135D01*
X10229501Y-25645501D01*
X10209816Y-25712540D01*
X10157013Y-25758295D01*
X10105501Y-25769501D01*
X-10106000Y-25769501D01*
X-10173039Y-25749816D01*
X-10218794Y-25697012D01*
X-10230000Y-25645501D01*
X-10230000Y-23952155D01*
X-10236401Y-23892627D01*
X-10236403Y-23892620D01*
X-10286645Y-23757913D01*
X-10286646Y-23757911D01*
X-10337041Y-23690592D01*
X-11167894Y-24521445D01*
X-11271903Y-24417437D01*
X-11394742Y-24335359D01*
X-11499500Y-24291966D01*
X-11499500Y-24197310D01*
X-11479815Y-24130271D01*
X-11463181Y-24109629D01*
X-10853551Y-23500000D01*
X-11375500Y-23500000D01*
X-11442539Y-23480315D01*
X-11488294Y-23427511D01*
X-11499500Y-23376000D01*
X-11499500Y-18393713D01*
X-7700500Y-18393713D01*
X-7700500Y-18606287D01*
X-7667246Y-18816243D01*
X-7601557Y-19018412D01*
X-7505051Y-19207816D01*
X-7505048Y-19207820D01*
X-7380109Y-19379786D01*
X-7380106Y-19379788D01*
X-7380104Y-19379792D01*
X-7229792Y-19530104D01*
X-7229788Y-19530106D01*
X-7229786Y-19530109D01*
X-7144138Y-19592335D01*
X-7057816Y-19655051D01*
X-7049054Y-19659514D01*
X-6998259Y-19707488D01*
X-6981463Y-19775308D01*
X-7003999Y-19841444D01*
X-7049054Y-19880484D01*
X-7057115Y-19884591D01*
X-7057820Y-19884951D01*
X-7229786Y-20009890D01*
X-7380109Y-20160213D01*
X-7505048Y-20332179D01*
X-7505049Y-20332181D01*
X-7505051Y-20332184D01*
X-7601557Y-20521588D01*
X-7667246Y-20723757D01*
X-7700500Y-20933713D01*
X-7700500Y-21146287D01*
X-7667246Y-21356243D01*
X-7601557Y-21558412D01*
X-7505051Y-21747816D01*
X-7505048Y-21747820D01*
X-7380109Y-21919786D01*
X-7380106Y-21919788D01*
X-7380104Y-21919792D01*
X-7229792Y-22070104D01*
X-7229788Y-22070106D01*
X-7229786Y-22070109D01*
X-7112572Y-22155269D01*
X-7057816Y-22195051D01*
X-6868412Y-22291557D01*
X-6666243Y-22357246D01*
X-6456287Y-22390500D01*
X-6456286Y-22390500D01*
X-6243714Y-22390500D01*
X-6243713Y-22390500D01*
X-6033757Y-22357246D01*
X-5831588Y-22291557D01*
X-5642184Y-22195051D01*
X-5642181Y-22195049D01*
X-5642179Y-22195048D01*
X-5470213Y-22070109D01*
X-5319890Y-21919786D01*
X-5194949Y-21747817D01*
X-5190204Y-21738504D01*
X-5142230Y-21687707D01*
X-5074409Y-21670912D01*
X-5008274Y-21693449D01*
X-4969232Y-21738507D01*
X-4964622Y-21747555D01*
X-4925270Y-21801716D01*
X-4925270Y-21801717D01*
X-4292962Y-21169409D01*
X-4275925Y-21232993D01*
X-4210099Y-21347007D01*
X-4117007Y-21440099D01*
X-4002993Y-21505925D01*
X-3939408Y-21522962D01*
X-4571717Y-22155270D01*
X-4517554Y-22194622D01*
X-4328217Y-22291095D01*
X-4126129Y-22356757D01*
X-3916246Y-22390000D01*
X-3703754Y-22390000D01*
X-3493872Y-22356757D01*
X-3493869Y-22356757D01*
X-3291782Y-22291095D01*
X-3102449Y-22194624D01*
X-3048282Y-22155270D01*
X-3048282Y-22155269D01*
X-3680590Y-21522962D01*
X-3617007Y-21505925D01*
X-3502993Y-21440099D01*
X-3409901Y-21347007D01*
X-3344075Y-21232993D01*
X-3327037Y-21169408D01*
X-2694728Y-21801716D01*
X-2655373Y-21747547D01*
X-2655372Y-21747547D01*
X-2650763Y-21738500D01*
X-2602788Y-21687706D01*
X-2534966Y-21670912D01*
X-2468832Y-21693451D01*
X-2429793Y-21738508D01*
X-2425051Y-21747816D01*
X-2385890Y-21801717D01*
X-2300109Y-21919786D01*
X-2300106Y-21919788D01*
X-2300104Y-21919792D01*
X-2149792Y-22070104D01*
X-2149788Y-22070106D01*
X-2149786Y-22070109D01*
X-2032572Y-22155269D01*
X-1977816Y-22195051D01*
X-1788412Y-22291557D01*
X-1586243Y-22357246D01*
X-1376287Y-22390500D01*
X-1376286Y-22390500D01*
X-1163714Y-22390500D01*
X-1163713Y-22390500D01*
X-953757Y-22357246D01*
X-751588Y-22291557D01*
X-562184Y-22195051D01*
X-562181Y-22195049D01*
X-562179Y-22195048D01*
X-390213Y-22070109D01*
X-239890Y-21919786D01*
X-114951Y-21747820D01*
X-110486Y-21739056D01*
X-62512Y-21688259D01*
X5308Y-21671463D01*
X71444Y-21693999D01*
X110486Y-21739056D01*
X114951Y-21747820D01*
X239890Y-21919786D01*
X390213Y-22070109D01*
X562179Y-22195048D01*
X562181Y-22195049D01*
X562184Y-22195051D01*
X751588Y-22291557D01*
X953757Y-22357246D01*
X1163713Y-22390500D01*
X1163714Y-22390500D01*
X1376286Y-22390500D01*
X1376287Y-22390500D01*
X1586243Y-22357246D01*
X1788412Y-22291557D01*
X1977816Y-22195051D01*
X2032572Y-22155269D01*
X2149786Y-22070109D01*
X2149788Y-22070106D01*
X2149792Y-22070104D01*
X2300104Y-21919792D01*
X2300106Y-21919788D01*
X2300109Y-21919786D01*
X2425048Y-21747820D01*
X2425047Y-21747820D01*
X2425051Y-21747816D01*
X2429514Y-21739054D01*
X2477488Y-21688259D01*
X2545308Y-21671463D01*
X2611444Y-21693999D01*
X2650486Y-21739056D01*
X2654951Y-21747820D01*
X2779890Y-21919786D01*
X2930213Y-22070109D01*
X3102179Y-22195048D01*
X3102181Y-22195049D01*
X3102184Y-22195051D01*
X3291588Y-22291557D01*
X3493757Y-22357246D01*
X3703713Y-22390500D01*
X3703714Y-22390500D01*
X3916286Y-22390500D01*
X3916287Y-22390500D01*
X4126243Y-22357246D01*
X4328412Y-22291557D01*
X4517816Y-22195051D01*
X4572572Y-22155269D01*
X4689786Y-22070109D01*
X4689788Y-22070106D01*
X4689792Y-22070104D01*
X4840104Y-21919792D01*
X4840106Y-21919788D01*
X4840109Y-21919786D01*
X4965048Y-21747820D01*
X4965047Y-21747820D01*
X4965051Y-21747816D01*
X4969514Y-21739054D01*
X5017488Y-21688259D01*
X5085308Y-21671463D01*
X5151444Y-21693999D01*
X5190486Y-21739056D01*
X5194951Y-21747820D01*
X5319890Y-21919786D01*
X5470213Y-22070109D01*
X5642179Y-22195048D01*
X5642181Y-22195049D01*
X5642184Y-22195051D01*
X5831588Y-22291557D01*
X6033757Y-22357246D01*
X6243713Y-22390500D01*
X6243714Y-22390500D01*
X6456286Y-22390500D01*
X6456287Y-22390500D01*
X6666243Y-22357246D01*
X6868412Y-22291557D01*
X7057816Y-22195051D01*
X7112572Y-22155269D01*
X7229786Y-22070109D01*
X7229788Y-22070106D01*
X7229792Y-22070104D01*
X7380104Y-21919792D01*
X7380106Y-21919788D01*
X7380109Y-21919786D01*
X7505048Y-21747820D01*
X7505047Y-21747820D01*
X7505051Y-21747816D01*
X7601557Y-21558412D01*
X7667246Y-21356243D01*
X7700500Y-21146287D01*
X7700500Y-20933713D01*
X7667246Y-20723757D01*
X7601557Y-20521588D01*
X7505051Y-20332184D01*
X7505049Y-20332181D01*
X7505048Y-20332179D01*
X7380109Y-20160213D01*
X7266569Y-20046673D01*
X7233084Y-19985350D01*
X7238068Y-19915658D01*
X7279940Y-19859725D01*
X7310915Y-19842810D01*
X7442331Y-19793796D01*
X7557546Y-19707546D01*
X7643796Y-19592331D01*
X7694091Y-19457483D01*
X7700500Y-19397873D01*
X7700499Y-17602128D01*
X7694091Y-17542517D01*
X7692810Y-17539083D01*
X7643797Y-17407671D01*
X7643793Y-17407664D01*
X7557547Y-17292455D01*
X7557544Y-17292452D01*
X7442335Y-17206206D01*
X7442328Y-17206202D01*
X7307482Y-17155908D01*
X7307483Y-17155908D01*
X7247883Y-17149501D01*
X7247881Y-17149500D01*
X7247873Y-17149500D01*
X7247864Y-17149500D01*
X5452129Y-17149500D01*
X5452123Y-17149501D01*
X5392516Y-17155908D01*
X5257671Y-17206202D01*
X5257664Y-17206206D01*
X5142455Y-17292452D01*
X5142452Y-17292455D01*
X5056206Y-17407664D01*
X5056203Y-17407669D01*
X5007189Y-17539083D01*
X4965317Y-17595016D01*
X4899853Y-17619433D01*
X4831580Y-17604581D01*
X4803326Y-17583430D01*
X4689786Y-17469890D01*
X4517820Y-17344951D01*
X4328414Y-17248444D01*
X4328413Y-17248443D01*
X4328412Y-17248443D01*
X4126243Y-17182754D01*
X4126241Y-17182753D01*
X4126240Y-17182753D01*
X3964957Y-17157208D01*
X3916287Y-17149500D01*
X3703713Y-17149500D01*
X3655042Y-17157208D01*
X3493760Y-17182753D01*
X3291585Y-17248444D01*
X3102179Y-17344951D01*
X2930213Y-17469890D01*
X2779890Y-17620213D01*
X2654949Y-17792182D01*
X2650484Y-17800946D01*
X2602509Y-17851742D01*
X2534688Y-17868536D01*
X2468553Y-17845998D01*
X2429516Y-17800946D01*
X2425050Y-17792182D01*
X2300109Y-17620213D01*
X2149786Y-17469890D01*
X1977820Y-17344951D01*
X1788414Y-17248444D01*
X1788413Y-17248443D01*
X1788412Y-17248443D01*
X1586243Y-17182754D01*
X1586241Y-17182753D01*
X1586240Y-17182753D01*
X1424957Y-17157208D01*
X1376287Y-17149500D01*
X1163713Y-17149500D01*
X1115042Y-17157208D01*
X953760Y-17182753D01*
X751585Y-17248444D01*
X562179Y-17344951D01*
X390213Y-17469890D01*
X239890Y-17620213D01*
X114949Y-17792182D01*
X110484Y-17800946D01*
X62509Y-17851742D01*
X-5312Y-17868536D01*
X-71447Y-17845998D01*
X-110484Y-17800946D01*
X-114949Y-17792182D01*
X-239890Y-17620213D01*
X-390213Y-17469890D01*
X-562179Y-17344951D01*
X-751585Y-17248444D01*
X-953760Y-17182753D01*
X-953759Y-17182753D01*
X-1124202Y-17155757D01*
X-1163713Y-17149500D01*
X-1376287Y-17149500D01*
X-1439644Y-17159534D01*
X-1586239Y-17182753D01*
X-1586241Y-17182753D01*
X-1586243Y-17182754D01*
X-1788412Y-17248443D01*
X-1788413Y-17248443D01*
X-1788414Y-17248444D01*
X-1977820Y-17344951D01*
X-2149786Y-17469890D01*
X-2300109Y-17620213D01*
X-2425048Y-17792179D01*
X-2425049Y-17792181D01*
X-2425051Y-17792184D01*
X-2429794Y-17801493D01*
X-2477766Y-17852290D01*
X-2545587Y-17869087D01*
X-2611722Y-17846552D01*
X-2650760Y-17801505D01*
X-2655376Y-17792446D01*
X-2655380Y-17792440D01*
X-2694727Y-17738282D01*
X-2694728Y-17738282D01*
X-3327037Y-18370591D01*
X-3344075Y-18307007D01*
X-3409901Y-18192993D01*
X-3502993Y-18099901D01*
X-3617007Y-18034075D01*
X-3680591Y-18017037D01*
X-3048282Y-17384728D01*
X-3048282Y-17384727D01*
X-3102439Y-17345380D01*
X-3291782Y-17248904D01*
X-3493870Y-17183242D01*
X-3703754Y-17150000D01*
X-3916246Y-17150000D01*
X-4126127Y-17183242D01*
X-4126130Y-17183242D01*
X-4328217Y-17248904D01*
X-4517550Y-17345375D01*
X-4571716Y-17384728D01*
X-3939409Y-18017037D01*
X-4002993Y-18034075D01*
X-4117007Y-18099901D01*
X-4210099Y-18192993D01*
X-4275925Y-18307007D01*
X-4292962Y-18370590D01*
X-4925269Y-17738282D01*
X-4925270Y-17738282D01*
X-4964626Y-17792452D01*
X-4969234Y-17801495D01*
X-5017208Y-17852292D01*
X-5085029Y-17869087D01*
X-5151164Y-17846550D01*
X-5190202Y-17801499D01*
X-5194949Y-17792182D01*
X-5319890Y-17620213D01*
X-5319894Y-17620209D01*
X-5420436Y-17519668D01*
X-5470209Y-17469894D01*
X-5470213Y-17469890D01*
X-5642179Y-17344951D01*
X-5831585Y-17248444D01*
X-6033760Y-17182753D01*
X-6033759Y-17182753D01*
X-6204202Y-17155757D01*
X-6243713Y-17149500D01*
X-6456287Y-17149500D01*
X-6519644Y-17159534D01*
X-6666239Y-17182753D01*
X-6666241Y-17182753D01*
X-6666243Y-17182754D01*
X-6868412Y-17248443D01*
X-6868413Y-17248443D01*
X-6868414Y-17248444D01*
X-7057820Y-17344951D01*
X-7229786Y-17469890D01*
X-7380109Y-17620213D01*
X-7505048Y-17792179D01*
X-7505049Y-17792181D01*
X-7505051Y-17792184D01*
X-7601557Y-17981588D01*
X-7667246Y-18183757D01*
X-7700500Y-18393713D01*
X-11499500Y-18393713D01*
X-11499500Y897873D01*
X-8970500Y897873D01*
X-8970499Y-897872D01*
X-8964091Y-957483D01*
X-8913796Y-1092331D01*
X-8827546Y-1207546D01*
X-8712331Y-1293796D01*
X-8577483Y-1344091D01*
X-8517873Y-1350500D01*
X-8507312Y-1350499D01*
X-8440275Y-1370179D01*
X-8419626Y-1386818D01*
X-7749409Y-2057037D01*
X-7812993Y-2074075D01*
X-7927007Y-2139901D01*
X-8020099Y-2232993D01*
X-8085925Y-2347007D01*
X-8102962Y-2410590D01*
X-8735269Y-1778282D01*
X-8735270Y-1778282D01*
X-8774624Y-1832449D01*
X-8871095Y-2021782D01*
X-8936757Y-2223869D01*
X-8936757Y-2223872D01*
X-8970000Y-2433753D01*
X-8970000Y-2646246D01*
X-8936757Y-2856127D01*
X-8936757Y-2856130D01*
X-8871095Y-3058217D01*
X-8774622Y-3247554D01*
X-8735270Y-3301716D01*
X-8735270Y-3301717D01*
X-8102962Y-2669408D01*
X-8085925Y-2732993D01*
X-8020099Y-2847007D01*
X-7927007Y-2940099D01*
X-7812993Y-3005925D01*
X-7749408Y-3022962D01*
X-8381717Y-3655270D01*
X-8327555Y-3694622D01*
X-8318507Y-3699232D01*
X-8267709Y-3747205D01*
X-8250912Y-3815025D01*
X-8273447Y-3881161D01*
X-8318504Y-3920204D01*
X-8327817Y-3924949D01*
X-8499786Y-4049890D01*
X-8650109Y-4200213D01*
X-8775048Y-4372179D01*
X-8775049Y-4372181D01*
X-8775051Y-4372184D01*
X-8871557Y-4561588D01*
X-8937246Y-4763757D01*
X-8970500Y-4973713D01*
X-8970500Y-5186287D01*
X-8937246Y-5396243D01*
X-8871557Y-5598412D01*
X-8775051Y-5787816D01*
X-8775048Y-5787820D01*
X-8650109Y-5959786D01*
X-8650106Y-5959788D01*
X-8650104Y-5959792D01*
X-8499792Y-6110104D01*
X-8499788Y-6110106D01*
X-8499786Y-6110109D01*
X-8414424Y-6172127D01*
X-8327816Y-6235051D01*
X-8319054Y-6239514D01*
X-8268259Y-6287488D01*
X-8251463Y-6355308D01*
X-8273999Y-6421444D01*
X-8319054Y-6460484D01*
X-8327115Y-6464591D01*
X-8327820Y-6464951D01*
X-8499786Y-6589890D01*
X-8650109Y-6740213D01*
X-8775048Y-6912179D01*
X-8775049Y-6912181D01*
X-8775051Y-6912184D01*
X-8871557Y-7101588D01*
X-8937246Y-7303757D01*
X-8970500Y-7513713D01*
X-8970500Y-7726287D01*
X-8937246Y-7936243D01*
X-8871557Y-8138412D01*
X-8775051Y-8327816D01*
X-8775048Y-8327820D01*
X-8650109Y-8499786D01*
X-8650106Y-8499788D01*
X-8650104Y-8499792D01*
X-8499792Y-8650104D01*
X-8499788Y-8650106D01*
X-8499786Y-8650109D01*
X-8414424Y-8712127D01*
X-8327816Y-8775051D01*
X-8319054Y-8779514D01*
X-8268259Y-8827488D01*
X-8251463Y-8895308D01*
X-8273999Y-8961444D01*
X-8319054Y-9000484D01*
X-8327115Y-9004591D01*
X-8327820Y-9004951D01*
X-8499786Y-9129890D01*
X-8650109Y-9280213D01*
X-8775048Y-9452179D01*
X-8775049Y-9452181D01*
X-8775051Y-9452184D01*
X-8871557Y-9641588D01*
X-8937246Y-9843757D01*
X-8970500Y-10053713D01*
X-8970500Y-10266287D01*
X-8937246Y-10476243D01*
X-8871557Y-10678412D01*
X-8775051Y-10867816D01*
X-8775048Y-10867820D01*
X-8650109Y-11039786D01*
X-8650106Y-11039788D01*
X-8650104Y-11039792D01*
X-8499792Y-11190104D01*
X-8499788Y-11190106D01*
X-8499786Y-11190109D01*
X-8414424Y-11252127D01*
X-8327816Y-11315051D01*
X-8319054Y-11319514D01*
X-8268259Y-11367488D01*
X-8251463Y-11435308D01*
X-8273999Y-11501444D01*
X-8319054Y-11540484D01*
X-8327115Y-11544591D01*
X-8327820Y-11544951D01*
X-8499786Y-11669890D01*
X-8650109Y-11820213D01*
X-8775048Y-11992179D01*
X-8775049Y-11992181D01*
X-8775051Y-11992184D01*
X-8871557Y-12181588D01*
X-8937246Y-12383757D01*
X-8970500Y-12593713D01*
X-8970500Y-12806287D01*
X-8937246Y-13016243D01*
X-8871557Y-13218412D01*
X-8775051Y-13407816D01*
X-8775048Y-13407820D01*
X-8650109Y-13579786D01*
X-8650106Y-13579788D01*
X-8650104Y-13579792D01*
X-8499792Y-13730104D01*
X-8499788Y-13730106D01*
X-8499786Y-13730109D01*
X-8414138Y-13792335D01*
X-8327816Y-13855051D01*
X-8138412Y-13951557D01*
X-7936243Y-14017246D01*
X-7726287Y-14050500D01*
X-7726286Y-14050500D01*
X-7513714Y-14050500D01*
X-7513713Y-14050500D01*
X-7303757Y-14017246D01*
X-7101588Y-13951557D01*
X-6912184Y-13855051D01*
X-6912181Y-13855049D01*
X-6912179Y-13855048D01*
X-6740213Y-13730109D01*
X-6589890Y-13579786D01*
X-6464951Y-13407820D01*
X-6368444Y-13218414D01*
X-6302753Y-13016239D01*
X-6269500Y-12806286D01*
X-6269500Y-12593713D01*
X-6302753Y-12383760D01*
X-6368444Y-12181585D01*
X-6464951Y-11992179D01*
X-6589890Y-11820213D01*
X-6740213Y-11669890D01*
X-6912182Y-11544949D01*
X-6920946Y-11540484D01*
X-6971742Y-11492509D01*
X-6988536Y-11424688D01*
X-6965998Y-11358553D01*
X-6920946Y-11319516D01*
X-6912182Y-11315050D01*
X-6740213Y-11190109D01*
X-6589890Y-11039786D01*
X-6464951Y-10867820D01*
X-6368444Y-10678414D01*
X-6302753Y-10476239D01*
X-6269500Y-10266286D01*
X-6269500Y-10053713D01*
X-6302753Y-9843760D01*
X-6368444Y-9641585D01*
X-6464951Y-9452179D01*
X-6589890Y-9280213D01*
X-6740213Y-9129890D01*
X-6912182Y-9004949D01*
X-6920946Y-9000484D01*
X-6971742Y-8952509D01*
X-6988536Y-8884688D01*
X-6965998Y-8818553D01*
X-6920946Y-8779516D01*
X-6912182Y-8775050D01*
X-6740213Y-8650109D01*
X-6589890Y-8499786D01*
X-6464951Y-8327820D01*
X-6368444Y-8138414D01*
X-6302753Y-7936239D01*
X-6269500Y-7726286D01*
X-6269500Y-7513713D01*
X-6302753Y-7303760D01*
X-6368444Y-7101585D01*
X-6464951Y-6912179D01*
X-6589890Y-6740213D01*
X-6740213Y-6589890D01*
X-6912182Y-6464949D01*
X-6920946Y-6460484D01*
X-6971742Y-6412509D01*
X-6988536Y-6344688D01*
X-6965998Y-6278553D01*
X-6920946Y-6239516D01*
X-6912182Y-6235050D01*
X-6740213Y-6110109D01*
X-6589890Y-5959786D01*
X-6464951Y-5787820D01*
X-6368444Y-5598414D01*
X-6302753Y-5396239D01*
X-6269500Y-5186286D01*
X-6269500Y-4973713D01*
X-6302753Y-4763760D01*
X-6368444Y-4561585D01*
X-6464951Y-4372179D01*
X-6589890Y-4200213D01*
X-6740213Y-4049890D01*
X-6912182Y-3924949D01*
X-6921499Y-3920202D01*
X-6972293Y-3872227D01*
X-6989087Y-3804405D01*
X-6966548Y-3738271D01*
X-6921495Y-3699234D01*
X-6912452Y-3694626D01*
X-6858282Y-3655270D01*
X-6858282Y-3655269D01*
X-7490590Y-3022962D01*
X-7427007Y-3005925D01*
X-7312993Y-2940099D01*
X-7219901Y-2847007D01*
X-7154075Y-2732993D01*
X-7137037Y-2669408D01*
X-6504728Y-3301716D01*
X-6465375Y-3247550D01*
X-6368904Y-3058217D01*
X-6303242Y-2856130D01*
X-6303242Y-2856127D01*
X-6270000Y-2646246D01*
X-6270000Y-2433753D01*
X-6303242Y-2223872D01*
X-6303242Y-2223869D01*
X-6368904Y-2021782D01*
X-6465380Y-1832439D01*
X-6504727Y-1778282D01*
X-6504728Y-1778282D01*
X-7137037Y-2410591D01*
X-7154075Y-2347007D01*
X-7219901Y-2232993D01*
X-7312993Y-2139901D01*
X-7427007Y-2074075D01*
X-7490591Y-2057037D01*
X-6820372Y-1386818D01*
X-6759049Y-1353333D01*
X-6732691Y-1350499D01*
X-6722128Y-1350499D01*
X-6673757Y-1345299D01*
X-6662516Y-1344091D01*
X-6527671Y-1293797D01*
X-6527664Y-1293793D01*
X-6412455Y-1207547D01*
X-6412452Y-1207544D01*
X-6326206Y-1092335D01*
X-6326202Y-1092328D01*
X-6275908Y-957482D01*
X-6269501Y-897883D01*
X-6269500Y-897881D01*
X-6269500Y-897873D01*
X-6269501Y106286D01*
X6269500Y106286D01*
X6269500Y-106286D01*
X6302753Y-316239D01*
X6368444Y-518414D01*
X6464951Y-707820D01*
X6589890Y-879786D01*
X6740213Y-1030109D01*
X6912179Y-1155048D01*
X6912181Y-1155049D01*
X6912184Y-1155051D01*
X6921493Y-1159794D01*
X6972290Y-1207766D01*
X6989087Y-1275587D01*
X6966552Y-1341722D01*
X6921505Y-1380760D01*
X6912446Y-1385376D01*
X6912440Y-1385380D01*
X6858282Y-1424727D01*
X6858282Y-1424728D01*
X7490591Y-2057037D01*
X7427007Y-2074075D01*
X7312993Y-2139901D01*
X7219901Y-2232993D01*
X7154075Y-2347007D01*
X7137037Y-2410591D01*
X6504728Y-1778282D01*
X6504727Y-1778282D01*
X6465380Y-1832439D01*
X6368904Y-2021782D01*
X6303242Y-2223869D01*
X6303242Y-2223872D01*
X6270000Y-2433753D01*
X6270000Y-2646246D01*
X6303242Y-2856127D01*
X6303242Y-2856130D01*
X6368904Y-3058217D01*
X6465375Y-3247550D01*
X6504728Y-3301716D01*
X7137037Y-2669408D01*
X7154075Y-2732993D01*
X7219901Y-2847007D01*
X7312993Y-2940099D01*
X7427007Y-3005925D01*
X7490590Y-3022962D01*
X6858282Y-3655269D01*
X6858282Y-3655270D01*
X6912452Y-3694626D01*
X6912451Y-3694626D01*
X6921495Y-3699234D01*
X6972292Y-3747208D01*
X6989087Y-3815029D01*
X6966550Y-3881164D01*
X6921499Y-3920202D01*
X6912182Y-3924949D01*
X6740213Y-4049890D01*
X6589890Y-4200213D01*
X6464951Y-4372179D01*
X6368444Y-4561585D01*
X6302753Y-4763760D01*
X6269500Y-4973713D01*
X6269500Y-5186286D01*
X6302753Y-5396239D01*
X6368444Y-5598414D01*
X6464951Y-5787820D01*
X6589890Y-5959786D01*
X6740213Y-6110109D01*
X6912182Y-6235050D01*
X6920946Y-6239516D01*
X6971742Y-6287491D01*
X6988536Y-6355312D01*
X6965998Y-6421447D01*
X6920946Y-6460484D01*
X6912182Y-6464949D01*
X6740213Y-6589890D01*
X6589890Y-6740213D01*
X6464951Y-6912179D01*
X6368444Y-7101585D01*
X6302753Y-7303760D01*
X6269500Y-7513713D01*
X6269500Y-7726286D01*
X6302753Y-7936239D01*
X6368444Y-8138414D01*
X6464951Y-8327820D01*
X6589890Y-8499786D01*
X6740213Y-8650109D01*
X6912182Y-8775050D01*
X6920946Y-8779516D01*
X6971742Y-8827491D01*
X6988536Y-8895312D01*
X6965998Y-8961447D01*
X6920946Y-9000484D01*
X6912182Y-9004949D01*
X6740213Y-9129890D01*
X6589890Y-9280213D01*
X6464951Y-9452179D01*
X6368444Y-9641585D01*
X6302753Y-9843760D01*
X6269500Y-10053713D01*
X6269500Y-10266286D01*
X6302753Y-10476239D01*
X6368444Y-10678414D01*
X6464951Y-10867820D01*
X6589890Y-11039786D01*
X6703430Y-11153326D01*
X6736915Y-11214649D01*
X6731931Y-11284341D01*
X6690059Y-11340274D01*
X6659083Y-11357189D01*
X6527669Y-11406203D01*
X6527664Y-11406206D01*
X6412455Y-11492452D01*
X6412452Y-11492455D01*
X6326206Y-11607664D01*
X6326202Y-11607671D01*
X6275908Y-11742517D01*
X6269501Y-11802116D01*
X6269501Y-11802123D01*
X6269500Y-11802135D01*
X6269500Y-13597870D01*
X6269501Y-13597876D01*
X6275908Y-13657483D01*
X6326202Y-13792328D01*
X6326206Y-13792335D01*
X6412452Y-13907544D01*
X6412455Y-13907547D01*
X6527664Y-13993793D01*
X6527671Y-13993797D01*
X6662517Y-14044091D01*
X6662516Y-14044091D01*
X6669444Y-14044835D01*
X6722127Y-14050500D01*
X8517872Y-14050499D01*
X8577483Y-14044091D01*
X8712331Y-13993796D01*
X8827546Y-13907546D01*
X8913796Y-13792331D01*
X8964091Y-13657483D01*
X8970500Y-13597873D01*
X8970499Y-11802128D01*
X8964091Y-11742517D01*
X8913796Y-11607669D01*
X8913795Y-11607668D01*
X8913793Y-11607664D01*
X8827547Y-11492455D01*
X8827544Y-11492452D01*
X8712335Y-11406206D01*
X8712328Y-11406202D01*
X8580917Y-11357189D01*
X8524983Y-11315318D01*
X8500566Y-11249853D01*
X8515418Y-11181580D01*
X8536563Y-11153332D01*
X8650104Y-11039792D01*
X8775051Y-10867816D01*
X8871557Y-10678412D01*
X8937246Y-10476243D01*
X8970500Y-10266287D01*
X8970500Y-10053713D01*
X8937246Y-9843757D01*
X8871557Y-9641588D01*
X8775051Y-9452184D01*
X8775049Y-9452181D01*
X8775048Y-9452179D01*
X8650109Y-9280213D01*
X8499786Y-9129890D01*
X8327820Y-9004951D01*
X8327115Y-9004591D01*
X8319054Y-9000485D01*
X8268259Y-8952512D01*
X8251463Y-8884692D01*
X8273999Y-8818556D01*
X8319054Y-8779515D01*
X8327816Y-8775051D01*
X8414424Y-8712127D01*
X8499786Y-8650109D01*
X8499788Y-8650106D01*
X8499792Y-8650104D01*
X8650104Y-8499792D01*
X8650106Y-8499788D01*
X8650109Y-8499786D01*
X8775048Y-8327820D01*
X8775047Y-8327820D01*
X8775051Y-8327816D01*
X8871557Y-8138412D01*
X8937246Y-7936243D01*
X8970500Y-7726287D01*
X8970500Y-7513713D01*
X8937246Y-7303757D01*
X8871557Y-7101588D01*
X8775051Y-6912184D01*
X8775049Y-6912181D01*
X8775048Y-6912179D01*
X8650109Y-6740213D01*
X8499786Y-6589890D01*
X8327820Y-6464951D01*
X8327115Y-6464591D01*
X8319054Y-6460485D01*
X8268259Y-6412512D01*
X8251463Y-6344692D01*
X8273999Y-6278556D01*
X8319054Y-6239515D01*
X8327816Y-6235051D01*
X8414424Y-6172127D01*
X8499786Y-6110109D01*
X8499788Y-6110106D01*
X8499792Y-6110104D01*
X8650104Y-5959792D01*
X8650106Y-5959788D01*
X8650109Y-5959786D01*
X8775048Y-5787820D01*
X8775047Y-5787820D01*
X8775051Y-5787816D01*
X8871557Y-5598412D01*
X8937246Y-5396243D01*
X8970500Y-5186287D01*
X8970500Y-4973713D01*
X8937246Y-4763757D01*
X8871557Y-4561588D01*
X8775051Y-4372184D01*
X8775049Y-4372181D01*
X8775048Y-4372179D01*
X8650109Y-4200213D01*
X8499786Y-4049890D01*
X8327817Y-3924949D01*
X8318504Y-3920204D01*
X8267707Y-3872230D01*
X8250912Y-3804409D01*
X8273449Y-3738274D01*
X8318507Y-3699232D01*
X8327555Y-3694622D01*
X8381716Y-3655270D01*
X8381717Y-3655270D01*
X7749408Y-3022962D01*
X7812993Y-3005925D01*
X7927007Y-2940099D01*
X8020099Y-2847007D01*
X8085925Y-2732993D01*
X8102962Y-2669408D01*
X8735270Y-3301717D01*
X8735270Y-3301716D01*
X8774622Y-3247554D01*
X8871095Y-3058217D01*
X8936757Y-2856130D01*
X8936757Y-2856127D01*
X8970000Y-2646246D01*
X8970000Y-2433753D01*
X8936757Y-2223872D01*
X8936757Y-2223869D01*
X8871095Y-2021782D01*
X8774624Y-1832449D01*
X8735270Y-1778282D01*
X8735269Y-1778282D01*
X8102962Y-2410590D01*
X8085925Y-2347007D01*
X8020099Y-2232993D01*
X7927007Y-2139901D01*
X7812993Y-2074075D01*
X7749409Y-2057037D01*
X8381716Y-1424728D01*
X8327547Y-1385373D01*
X8327547Y-1385372D01*
X8318500Y-1380763D01*
X8267706Y-1332788D01*
X8250912Y-1264966D01*
X8273451Y-1198832D01*
X8318508Y-1159793D01*
X8327816Y-1155051D01*
X8414439Y-1092116D01*
X8499786Y-1030109D01*
X8499788Y-1030106D01*
X8499792Y-1030104D01*
X8650104Y-879792D01*
X8650106Y-879788D01*
X8650109Y-879786D01*
X8775048Y-707820D01*
X8775047Y-707820D01*
X8775051Y-707816D01*
X8871557Y-518412D01*
X8937246Y-316243D01*
X8970500Y-106287D01*
X8970500Y106287D01*
X8937246Y316243D01*
X8871557Y518412D01*
X8775051Y707816D01*
X8759086Y729789D01*
X8650109Y879786D01*
X8650106Y879788D01*
X8650104Y879792D01*
X8499792Y1030104D01*
X8499788Y1030106D01*
X8499786Y1030109D01*
X8327820Y1155048D01*
X8327816Y1155051D01*
X8138412Y1251557D01*
X7936243Y1317246D01*
X7726287Y1350500D01*
X7513713Y1350500D01*
X7303757Y1317246D01*
X7101588Y1251557D01*
X6912184Y1155051D01*
X6912181Y1155049D01*
X6912179Y1155048D01*
X6740213Y1030109D01*
X6589890Y879786D01*
X6464951Y707820D01*
X6368444Y518414D01*
X6302753Y316239D01*
X6269500Y106286D01*
X-6269501Y106286D01*
X-6269501Y897872D01*
X-6269502Y897883D01*
X-6275908Y957483D01*
X-6326202Y1092328D01*
X-6326206Y1092335D01*
X-6412452Y1207544D01*
X-6412455Y1207547D01*
X-6527664Y1293793D01*
X-6527671Y1293797D01*
X-6662517Y1344091D01*
X-6662516Y1344091D01*
X-6668925Y1344779D01*
X-6722127Y1350500D01*
X-8517872Y1350499D01*
X-8577483Y1344091D01*
X-8712331Y1293796D01*
X-8827546Y1207546D01*
X-8913796Y1092331D01*
X-8964091Y957483D01*
X-8970500Y897873D01*
X-11499500Y897873D01*
X-11499500Y16555500D01*
X-11479815Y16622539D01*
X-11427011Y16668294D01*
X-11375500Y16679500D01*
X-10682129Y16679500D01*
X-10682123Y16679501D01*
X-10622516Y16685908D01*
X-10487671Y16736202D01*
X-10487664Y16736206D01*
X-10372455Y16822452D01*
X-10372452Y16822455D01*
X-10286206Y16937664D01*
X-10286202Y16937671D01*
X-10235908Y17072517D01*
X-10229501Y17132116D01*
X-10229500Y17132119D01*
X-10229500Y17132127D01*
X-10229500Y18825501D01*
X-10209816Y18892540D01*
X-10157013Y18938295D01*
X-10105501Y18949501D01*
X10105500Y18949501D01*
X10172539Y18929816D01*
G37*
G04 #@! TD.AperFunction*
M02*
