M48
; DRILL file {KiCad 9.0.1+dfsg-1} date 2025-05-01T10:59:27+0200
; FORMAT={-:-/ absolute / metric / decimal}
; #@! TF.CreationDate,2025-05-01T10:59:27+02:00
; #@! TF.GenerationSoftware,Kicad,Pcbnew,9.0.1+dfsg-1
; #@! TF.FileFunction,Plated,1,2,PTH
FMAT,2
METRIC
; #@! TA.AperFunction,Plated,PTH,ViaDrill
T1C0.300
; #@! TA.AperFunction,Plated,PTH,ComponentDrill
T2C0.750
; #@! TA.AperFunction,Plated,PTH,ComponentDrill
T3C1.500
%
G90
G05
T1
X100.51Y-73.71
X100.685Y-84.735
X101.55Y-81.98
X103.18Y-81.98
X103.45Y-76.25
X103.46Y-67.61
X103.52Y-57.72
X103.52Y-72.53
X103.54Y-59.44
X103.54Y-60.5
X103.54Y-61.43
X104.37Y-85.47
X105.97Y-57.87
X106.553Y-79.629
X107.03Y-81.93
X107.65Y-76.53
X109.71Y-76.54
X110.75Y-76.54
X111.07Y-82.92
X111.82Y-76.5
X112.66Y-81.78
X112.7Y-76.56
X113.72Y-76.49
X113.852Y-68.011
X114.53Y-83.06
X114.56Y-85.5
X114.75Y-73.55
X114.82Y-65.57
X114.84Y-66.39
X114.91Y-75.31
X114.98Y-76.52
X115.09Y-58.58
X115.1Y-59.58
X115.1Y-60.59
X115.1Y-61.55
X115.1Y-64.59
X116.98Y-80.91
X117.602Y-57.531
T2
X98.669Y-57.658
X98.669Y-65.278
X98.669Y-67.818
X98.669Y-70.358
X98.669Y-72.898
X98.669Y-75.438
X98.669Y-77.978
X98.669Y-80.518
X98.669Y-83.058
X98.669Y-85.598
X119.269Y-57.658
X119.269Y-60.198
X119.269Y-62.738
X119.269Y-65.278
X119.269Y-67.818
X119.269Y-70.358
X119.269Y-72.898
X119.269Y-75.438
X119.269Y-77.978
X119.269Y-80.518
X119.269Y-83.058
X119.269Y-85.598
T3
G00X96.719Y-57.658
M15
G01X97.219Y-57.658
M16
G05
G00X96.719Y-65.278
M15
G01X97.219Y-65.278
M16
G05
G00X96.719Y-67.818
M15
G01X97.219Y-67.818
M16
G05
G00X96.719Y-70.358
M15
G01X97.219Y-70.358
M16
G05
G00X96.719Y-72.898
M15
G01X97.219Y-72.898
M16
G05
G00X96.719Y-75.438
M15
G01X97.219Y-75.438
M16
G05
G00X96.719Y-77.978
M15
G01X97.219Y-77.978
M16
G05
G00X96.719Y-80.518
M15
G01X97.219Y-80.518
M16
G05
G00X96.719Y-83.058
M15
G01X97.219Y-83.058
M16
G05
G00X96.719Y-85.598
M15
G01X97.219Y-85.598
M16
G05
G00X120.719Y-57.658
M15
G01X121.219Y-57.658
M16
G05
G00X120.719Y-60.198
M15
G01X121.219Y-60.198
M16
G05
G00X120.719Y-62.738
M15
G01X121.219Y-62.738
M16
G05
G00X120.719Y-65.278
M15
G01X121.219Y-65.278
M16
G05
G00X120.719Y-67.818
M15
G01X121.219Y-67.818
M16
G05
G00X120.719Y-70.358
M15
G01X121.219Y-70.358
M16
G05
G00X120.719Y-72.898
M15
G01X121.219Y-72.898
M16
G05
G00X120.719Y-75.438
M15
G01X121.219Y-75.438
M16
G05
G00X120.719Y-77.978
M15
G01X121.219Y-77.978
M16
G05
G00X120.719Y-80.518
M15
G01X121.219Y-80.518
M16
G05
G00X120.719Y-83.058
M15
G01X121.219Y-83.058
M16
G05
G00X120.719Y-85.598
M15
G01X121.219Y-85.598
M16
G05
M30
