%TF.GenerationSoftware,KiCad,Pcbnew,9.0.1+dfsg-1*%
%TF.CreationDate,2025-05-01T10:59:25+02:00*%
%TF.ProjectId,bluetooth,626c7565-746f-46f7-9468-2e6b69636164,rev?*%
%TF.SameCoordinates,Original*%
%TF.FileFunction,Copper,L1,Top*%
%TF.FilePolarity,Positive*%
%FSLAX46Y46*%
G04 Gerber Fmt 4.6, Leading zero omitted, Abs format (unit mm)*
G04 Created by KiCad (PCBNEW 9.0.1+dfsg-1) date 2025-05-01 10:59:25*
%MOMM*%
%LPD*%
G01*
G04 APERTURE LIST*
G04 Aperture macros list*
%AMRoundRect*
0 Rectangle with rounded corners*
0 $1 Rounding radius*
0 $2 $3 $4 $5 $6 $7 $8 $9 X,Y pos of 4 corners*
0 Add a 4 corners polygon primitive as box body*
4,1,4,$2,$3,$4,$5,$6,$7,$8,$9,$2,$3,0*
0 Add four circle primitives for the rounded corners*
1,1,$1+$1,$2,$3*
1,1,$1+$1,$4,$5*
1,1,$1+$1,$6,$7*
1,1,$1+$1,$8,$9*
0 Add four rect primitives between the rounded corners*
20,1,$1+$1,$2,$3,$4,$5,0*
20,1,$1+$1,$4,$5,$6,$7,0*
20,1,$1+$1,$6,$7,$8,$9,0*
20,1,$1+$1,$8,$9,$2,$3,0*%
G04 Aperture macros list end*
%TA.AperFunction,SMDPad,CuDef*%
%ADD10RoundRect,0.150000X-0.600000X-0.150000X0.600000X-0.150000X0.600000X0.150000X-0.600000X0.150000X0*%
%TD*%
%TA.AperFunction,SMDPad,CuDef*%
%ADD11RoundRect,0.150000X-0.150000X-0.600000X0.150000X-0.600000X0.150000X0.600000X-0.150000X0.600000X0*%
%TD*%
%TA.AperFunction,SMDPad,CuDef*%
%ADD12RoundRect,0.250000X-0.640000X-0.640000X0.640000X-0.640000X0.640000X0.640000X-0.640000X0.640000X0*%
%TD*%
%TA.AperFunction,SMDPad,CuDef*%
%ADD13RoundRect,0.190000X-1.205000X-0.190000X1.205000X-0.190000X1.205000X0.190000X-1.205000X0.190000X0*%
%TD*%
%TA.AperFunction,CastellatedPad*%
%ADD14R,2.540000X2.000000*%
%TD*%
%TA.AperFunction,ComponentPad*%
%ADD15RoundRect,0.250000X0.375000X0.375000X-0.375000X0.375000X-0.375000X-0.375000X0.375000X-0.375000X0*%
%TD*%
%TA.AperFunction,ViaPad*%
%ADD16C,0.600000*%
%TD*%
%TA.AperFunction,Conductor*%
%ADD17C,0.200000*%
%TD*%
%TA.AperFunction,Conductor*%
%ADD18C,0.500000*%
%TD*%
G04 APERTURE END LIST*
D10*
%TO.P,U1,1,DR1*%
%TO.N,DR1*%
X102010000Y-57550000D03*
%TO.P,U1,2,RFS1*%
%TO.N,RFS1*%
X102010000Y-58550000D03*
%TO.P,U1,3,SCLK1*%
%TO.N,SCLK1*%
X102010000Y-59550000D03*
%TO.P,U1,4,DT1*%
%TO.N,DT1*%
X102010000Y-60550000D03*
%TO.P,U1,5,MCLK1*%
%TO.N,MCLK1*%
X102010000Y-61550000D03*
%TO.P,U1,6,AOHPR*%
%TO.N,unconnected-(U1-AOHPR-Pad6)*%
X102010000Y-62550000D03*
%TO.P,U1,7,AOHPM*%
%TO.N,unconnected-(U1-AOHPM-Pad7)*%
X102010000Y-63550000D03*
%TO.P,U1,8,AOHPL*%
%TO.N,unconnected-(U1-AOHPL-Pad8)*%
X102010000Y-64550000D03*
%TO.P,U1,9,MICN2*%
%TO.N,unconnected-(U1-MICN2-Pad9)*%
X102010000Y-65550000D03*
%TO.P,U1,10,MICP2*%
%TO.N,unconnected-(U1-MICP2-Pad10)*%
X102010000Y-66550000D03*
%TO.P,U1,11,AIR*%
%TO.N,unconnected-(U1-AIR-Pad11)*%
X102010000Y-67550000D03*
%TO.P,U1,12,AIL*%
%TO.N,unconnected-(U1-AIL-Pad12)*%
X102010000Y-68550000D03*
%TO.P,U1,13,MICN1*%
%TO.N,unconnected-(U1-MICN1-Pad13)*%
X102010000Y-69550000D03*
%TO.P,U1,14,MICP1*%
%TO.N,unconnected-(U1-MICP1-Pad14)*%
X102010000Y-70550000D03*
%TO.P,U1,15,MICBIAS*%
%TO.N,unconnected-(U1-MICBIAS-Pad15)*%
X102010000Y-71550000D03*
%TO.P,U1,16,GND*%
%TO.N,GND*%
X102010000Y-72550000D03*
%TO.P,U1,17,DMIC_CLK*%
%TO.N,unconnected-(U1-DMIC_CLK-Pad17)*%
X102010000Y-73550000D03*
%TO.P,U1,18,DMIC1_R*%
%TO.N,unconnected-(U1-DMIC1_R-Pad18)*%
X102010000Y-74550000D03*
%TO.P,U1,19,DMIC1_L*%
%TO.N,unconnected-(U1-DMIC1_L-Pad19)*%
X102010000Y-75550000D03*
%TO.P,U1,20,P3_2*%
%TO.N,unconnected-(U1-P3_2-Pad20)*%
X102010000Y-76550000D03*
D11*
%TO.P,U1,21,P2_6*%
%TO.N,unconnected-(U1-P2_6-Pad21)*%
X104760000Y-78200000D03*
%TO.P,U1,22,ADAP_IN*%
%TO.N,unconnected-(U1-ADAP_IN-Pad22)*%
X105760000Y-78200000D03*
%TO.P,U1,23,BAT_IN*%
%TO.N,VCC_3V3*%
X106760000Y-78200000D03*
%TO.P,U1,24,SYS_PWR*%
%TO.N,unconnected-(U1-SYS_PWR-Pad24)*%
X107760000Y-78200000D03*
%TO.P,U1,25,VDD_IO*%
%TO.N,unconnected-(U1-VDD_IO-Pad25)*%
X108760000Y-78200000D03*
%TO.P,U1,26,PWR(MFB)*%
%TO.N,MFB*%
X109760000Y-78200000D03*
%TO.P,U1,27,SK1_AMB_DET*%
%TO.N,TEMP1*%
X110760000Y-78200000D03*
%TO.P,U1,28,SK2_KEY_AD*%
%TO.N,TEMP2*%
X111760000Y-78200000D03*
%TO.P,U1,29,P8_6/UART_RXD*%
%TO.N,UART_RXD*%
X112760000Y-78200000D03*
%TO.P,U1,30,P8_5/UART_TXD*%
%TO.N,UART_TXD*%
X113760000Y-78200000D03*
D10*
%TO.P,U1,31,P3_4/UART_RTS*%
%TO.N,UART_RTS*%
X116510000Y-76550000D03*
%TO.P,U1,32,LED1*%
%TO.N,LED1*%
X116510000Y-75550000D03*
%TO.P,U1,33,P0_2*%
%TO.N,unconnected-(U1-P0_2-Pad33)*%
X116510000Y-74550000D03*
%TO.P,U1,34,LED2*%
%TO.N,LED2*%
X116510000Y-73550000D03*
%TO.P,U1,35,P0_6*%
%TO.N,unconnected-(U1-P0_6-Pad35)*%
X116510000Y-72550000D03*
%TO.P,U1,36,DM*%
%TO.N,unconnected-(U1-DM-Pad36)*%
X116510000Y-71550000D03*
%TO.P,U1,37,DP*%
%TO.N,unconnected-(U1-DP-Pad37)*%
X116510000Y-70550000D03*
%TO.P,U1,38,P0_3*%
%TO.N,unconnected-(U1-P0_3-Pad38)*%
X116510000Y-69550000D03*
%TO.P,U1,39,P2_7*%
%TO.N,unconnected-(U1-P2_7-Pad39)*%
X116510000Y-68550000D03*
%TO.P,U1,40,P0_5*%
%TO.N,unconnected-(U1-P0_5-Pad40)*%
X116510000Y-67550000D03*
%TO.P,U1,41,P1_6/PWM1*%
%TO.N,PWM*%
X116510000Y-66550000D03*
%TO.P,U1,42,P2_3*%
%TO.N,GPIO_P2_3*%
X116510000Y-65550000D03*
%TO.P,U1,43,~{RST}*%
%TO.N,{slash}RESET*%
X116510000Y-64550000D03*
%TO.P,U1,44,P0_1*%
%TO.N,unconnected-(U1-P0_1-Pad44)*%
X116510000Y-63550000D03*
%TO.P,U1,45,P0_7*%
%TO.N,unconnected-(U1-P0_7-Pad45)*%
X116510000Y-62550000D03*
%TO.P,U1,46,P1_2/TDI_CPU/SCL*%
%TO.N,SCL*%
X116510000Y-61550000D03*
%TO.P,U1,47,P1_3/TCK_CPU/SDA*%
%TO.N,SDA*%
X116510000Y-60550000D03*
%TO.P,U1,48,P3_7/UART_CTS*%
%TO.N,UART_CTS*%
X116510000Y-59550000D03*
%TO.P,U1,49,P0_0/UART_TX_IND*%
%TO.N,UART_TX_IND*%
X116510000Y-58550000D03*
%TO.P,U1,50,GND*%
%TO.N,GND*%
X116510000Y-57550000D03*
D12*
%TO.P,U1,56,GND*%
X114030000Y-67980000D03*
D13*
%TO.P,U1,57,GND*%
X105970000Y-57870000D03*
%TD*%
D14*
%TO.P,M1,1,VCC*%
%TO.N,VCC_3V3*%
X96969000Y-57658000D03*
D15*
X98669000Y-57658000D03*
D14*
%TO.P,M1,4*%
%TO.N,DR1*%
X96969000Y-65278000D03*
D15*
X98669000Y-65278000D03*
D14*
%TO.P,M1,5*%
%TO.N,RFS1*%
X96969000Y-67818000D03*
D15*
X98669000Y-67818000D03*
D14*
%TO.P,M1,6*%
%TO.N,SCLK1*%
X96969000Y-70358000D03*
D15*
X98669000Y-70358000D03*
D14*
%TO.P,M1,7*%
%TO.N,DT1*%
X96969000Y-72898000D03*
D15*
X98669000Y-72898000D03*
D14*
%TO.P,M1,8*%
%TO.N,MCLK1*%
X96969000Y-75438000D03*
D15*
X98669000Y-75438000D03*
D14*
%TO.P,M1,9*%
%TO.N,MFB*%
X96969000Y-77978000D03*
D15*
X98669000Y-77978000D03*
D14*
%TO.P,M1,10*%
%TO.N,TEMP1*%
X96969000Y-80518000D03*
D15*
X98669000Y-80518000D03*
D14*
%TO.P,M1,11*%
%TO.N,TEMP2*%
X96969000Y-83058000D03*
D15*
X98669000Y-83058000D03*
D14*
%TO.P,M1,12,GND*%
%TO.N,GND*%
X96969000Y-85598000D03*
D15*
X98669000Y-85598000D03*
%TO.P,M1,13*%
%TO.N,UART_TX_IND*%
X119269000Y-57658000D03*
D14*
X120969000Y-57658000D03*
D15*
%TO.P,M1,14*%
%TO.N,UART_CTS*%
X119269000Y-60198000D03*
D14*
X120969000Y-60198000D03*
D15*
%TO.P,M1,15*%
%TO.N,SDA*%
X119269000Y-62738000D03*
D14*
X120969000Y-62738000D03*
D15*
%TO.P,M1,16*%
%TO.N,SCL*%
X119269000Y-65278000D03*
D14*
X120969000Y-65278000D03*
D15*
%TO.P,M1,17*%
%TO.N,{slash}RESET*%
X119269000Y-67818000D03*
D14*
X120969000Y-67818000D03*
D15*
%TO.P,M1,18*%
%TO.N,GPIO_P2_3*%
X119269000Y-70358000D03*
D14*
X120969000Y-70358000D03*
D15*
%TO.P,M1,19*%
%TO.N,PWM*%
X119269000Y-72898000D03*
D14*
X120969000Y-72898000D03*
D15*
%TO.P,M1,20*%
%TO.N,LED2*%
X119269000Y-75438000D03*
D14*
X120969000Y-75438000D03*
D15*
%TO.P,M1,21*%
%TO.N,LED1*%
X119269000Y-77978000D03*
D14*
X120969000Y-77978000D03*
D15*
%TO.P,M1,22*%
%TO.N,UART_RTS*%
X119269000Y-80518000D03*
D14*
X120969000Y-80518000D03*
D15*
%TO.P,M1,23*%
%TO.N,UART_TXD*%
X119269000Y-83058000D03*
D14*
X120969000Y-83058000D03*
D15*
%TO.P,M1,24*%
%TO.N,UART_RXD*%
X119269000Y-85598000D03*
D14*
X120969000Y-85598000D03*
%TD*%
D16*
%TO.N,GND*%
X103540000Y-61430000D03*
X115100000Y-59580000D03*
X100510000Y-73710000D03*
X107030000Y-81930000D03*
X103540000Y-60500000D03*
X114820000Y-65570000D03*
X111820000Y-76500000D03*
X109710000Y-76540000D03*
X113852000Y-68011000D03*
X101550000Y-81980000D03*
X114530000Y-83060000D03*
X104370000Y-85470000D03*
X103520000Y-57720000D03*
X114980000Y-76520000D03*
X100685000Y-84735000D03*
X103180000Y-81980000D03*
X114750000Y-73550000D03*
X116980000Y-80910000D03*
X103520000Y-72530000D03*
X112660000Y-81780000D03*
X115100000Y-61550000D03*
X105970000Y-57870000D03*
X117602000Y-57531000D03*
X103450000Y-76250000D03*
X115100000Y-60590000D03*
X107650000Y-76530000D03*
X114910000Y-75310000D03*
X115090000Y-58580000D03*
X114840000Y-66390000D03*
X103460000Y-67610000D03*
X112700000Y-76560000D03*
X115100000Y-64590000D03*
X114560000Y-85500000D03*
X110750000Y-76540000D03*
X111070000Y-82920000D03*
X103540000Y-59440000D03*
X113720000Y-76490000D03*
%TO.N,VCC_3V3*%
X106553000Y-79629000D03*
%TD*%
D17*
%TO.N,UART_CTS*%
X118652000Y-59581000D02*
X116541000Y-59581000D01*
X119269000Y-60198000D02*
X118652000Y-59581000D01*
X116541000Y-59581000D02*
X116510000Y-59550000D01*
X120269000Y-60198000D02*
X119269000Y-60198000D01*
%TO.N,UART_RXD*%
X120269000Y-85598000D02*
X118799000Y-85598000D01*
X112760000Y-79559000D02*
X112760000Y-78200000D01*
X118799000Y-85598000D02*
X112760000Y-79559000D01*
%TO.N,UART_TX_IND*%
X119002000Y-57658000D02*
X118079000Y-58581000D01*
X116541000Y-58581000D02*
X116510000Y-58550000D01*
X118079000Y-58581000D02*
X116541000Y-58581000D01*
X120269000Y-57658000D02*
X119002000Y-57658000D01*
%TO.N,LED2*%
X116541000Y-73581000D02*
X116510000Y-73550000D01*
X120269000Y-75438000D02*
X119269000Y-75438000D01*
X119208000Y-75438000D02*
X117351000Y-73581000D01*
X119269000Y-75438000D02*
X119208000Y-75438000D01*
X117351000Y-73581000D02*
X116541000Y-73581000D01*
%TO.N,PWM*%
X119269000Y-72898000D02*
X119188000Y-72898000D01*
X116541000Y-66581000D02*
X116510000Y-66550000D01*
X117900000Y-71610000D02*
X117900000Y-66930000D01*
X117551000Y-66581000D02*
X116541000Y-66581000D01*
X119188000Y-72898000D02*
X117900000Y-71610000D01*
X120269000Y-72898000D02*
X119269000Y-72898000D01*
X117900000Y-66930000D02*
X117551000Y-66581000D01*
%TO.N,SDA*%
X118550000Y-61820000D02*
X117311000Y-60581000D01*
X118550000Y-62019000D02*
X118550000Y-61820000D01*
X119269000Y-62738000D02*
X118550000Y-62019000D01*
X116541000Y-60581000D02*
X116510000Y-60550000D01*
X117311000Y-60581000D02*
X116541000Y-60581000D01*
X120269000Y-62738000D02*
X119269000Y-62738000D01*
%TO.N,SCL*%
X116541000Y-61581000D02*
X116510000Y-61550000D01*
X117461000Y-61581000D02*
X116541000Y-61581000D01*
X117970000Y-63979000D02*
X117970000Y-62090000D01*
X119269000Y-65278000D02*
X117970000Y-63979000D01*
X117970000Y-62090000D02*
X117461000Y-61581000D01*
X120269000Y-65278000D02*
X119269000Y-65278000D01*
%TO.N,DR1*%
X97669000Y-65278000D02*
X97790000Y-65278000D01*
X98806000Y-65141000D02*
X98806000Y-59857001D01*
X101082001Y-57581000D02*
X101979000Y-57581000D01*
X101979000Y-57581000D02*
X102010000Y-57550000D01*
X98806000Y-59857001D02*
X101082001Y-57581000D01*
X98669000Y-65278000D02*
X98806000Y-65141000D01*
D18*
%TO.N,GND*%
X116510000Y-57550000D02*
X116541000Y-57581000D01*
X117552000Y-57581000D02*
X117602000Y-57531000D01*
X101979000Y-72581000D02*
X102010000Y-72550000D01*
X100510000Y-73710000D02*
X100510000Y-73190000D01*
X116541000Y-57581000D02*
X117552000Y-57581000D01*
X100510000Y-73190000D02*
X101119000Y-72581000D01*
X101119000Y-72581000D02*
X101979000Y-72581000D01*
D17*
%TO.N,TEMP1*%
X110770000Y-79120000D02*
X110770000Y-78210000D01*
X110770000Y-78210000D02*
X110760000Y-78200000D01*
X109261000Y-80629000D02*
X110770000Y-79120000D01*
X97669000Y-80518000D02*
X97780000Y-80629000D01*
X97780000Y-80629000D02*
X109261000Y-80629000D01*
%TO.N,UART_TXD*%
X113760000Y-79400000D02*
X113760000Y-78200000D01*
X117418000Y-83058000D02*
X113760000Y-79400000D01*
X120269000Y-83058000D02*
X117418000Y-83058000D01*
%TO.N,MCLK1*%
X100930000Y-62070000D02*
X100930000Y-71770000D01*
X100930000Y-71770000D02*
X99840000Y-72860000D01*
X99840000Y-74267000D02*
X98669000Y-75438000D01*
X98669000Y-75438000D02*
X97669000Y-75438000D01*
X101419000Y-61581000D02*
X100930000Y-62070000D01*
X99840000Y-72860000D02*
X99840000Y-74267000D01*
X102010000Y-61550000D02*
X101979000Y-61581000D01*
X101979000Y-61581000D02*
X101419000Y-61581000D01*
%TO.N,RFS1*%
X99362000Y-67818000D02*
X98669000Y-67818000D01*
X101979000Y-58581000D02*
X101082001Y-58581000D01*
X98669000Y-67818000D02*
X97669000Y-67818000D01*
X102010000Y-58550000D02*
X101979000Y-58581000D01*
X99671501Y-59991500D02*
X99671500Y-59991500D01*
X99671500Y-59991500D02*
X99671500Y-65788500D01*
X99670000Y-67510000D02*
X99362000Y-67818000D01*
X99671500Y-65788500D02*
X99670000Y-65790000D01*
X101082001Y-58581000D02*
X99671501Y-59991500D01*
X99670000Y-65790000D02*
X99670000Y-67510000D01*
%TO.N,GPIO_P2_3*%
X118310000Y-68981000D02*
X118310000Y-66570000D01*
X116541000Y-65581000D02*
X116510000Y-65550000D01*
X118310000Y-66570000D02*
X117321000Y-65581000D01*
X117321000Y-65581000D02*
X116541000Y-65581000D01*
X119687000Y-70358000D02*
X118310000Y-68981000D01*
X120269000Y-70358000D02*
X119687000Y-70358000D01*
%TO.N,SCLK1*%
X100080000Y-60583001D02*
X100080000Y-69430000D01*
X102010000Y-59550000D02*
X101979000Y-59581000D01*
X99152000Y-70358000D02*
X97669000Y-70358000D01*
X101082001Y-59581000D02*
X100080000Y-60583001D01*
X100080000Y-69430000D02*
X99152000Y-70358000D01*
X101979000Y-59581000D02*
X101082001Y-59581000D01*
%TO.N,MFB*%
X109770000Y-79220000D02*
X109770000Y-78210000D01*
X101699000Y-80229000D02*
X108761000Y-80229000D01*
X99448000Y-77978000D02*
X101699000Y-80229000D01*
X108761000Y-80229000D02*
X109770000Y-79220000D01*
X109770000Y-78210000D02*
X109760000Y-78200000D01*
X97669000Y-77978000D02*
X99448000Y-77978000D01*
%TO.N,UART_RTS*%
X120269000Y-80518000D02*
X118698000Y-80518000D01*
X118080000Y-79900000D02*
X118080000Y-78120000D01*
X118698000Y-80518000D02*
X118080000Y-79900000D01*
X118080000Y-78120000D02*
X116510000Y-76550000D01*
%TO.N,{slash}RESET*%
X118060000Y-65210000D02*
X117431000Y-64581000D01*
X117431000Y-64581000D02*
X116541000Y-64581000D01*
X118060000Y-65640000D02*
X118060000Y-65210000D01*
X120238000Y-67818000D02*
X118060000Y-65640000D01*
X120269000Y-67818000D02*
X120238000Y-67818000D01*
X116541000Y-64581000D02*
X116510000Y-64550000D01*
%TO.N,TEMP2*%
X108682000Y-83058000D02*
X111760000Y-79980000D01*
X111760000Y-79980000D02*
X111760000Y-78200000D01*
X97669000Y-83058000D02*
X108682000Y-83058000D01*
%TO.N,DT1*%
X102010000Y-60550000D02*
X101979000Y-60581000D01*
X101082001Y-60581000D02*
X100510000Y-61153001D01*
X100510000Y-71260000D02*
X98872000Y-72898000D01*
X101979000Y-60581000D02*
X101082001Y-60581000D01*
X98872000Y-72898000D02*
X97669000Y-72898000D01*
X100510000Y-61153001D02*
X100510000Y-71260000D01*
%TO.N,LED1*%
X119528000Y-77978000D02*
X117131000Y-75581000D01*
X116541000Y-75581000D02*
X116510000Y-75550000D01*
X117131000Y-75581000D02*
X116541000Y-75581000D01*
X120269000Y-77978000D02*
X119528000Y-77978000D01*
D18*
%TO.N,VCC_3V3*%
X106760000Y-78200000D02*
X106760000Y-79422000D01*
X106760000Y-79422000D02*
X106553000Y-79629000D01*
%TD*%
%TA.AperFunction,Conductor*%
%TO.N,GND*%
G36*
X112497837Y-80151525D02*
G01*
X112522258Y-80170493D01*
X118107181Y-85755417D01*
X118140666Y-85816740D01*
X118143500Y-85843097D01*
X118143500Y-86023000D01*
X118143501Y-86023019D01*
X118154000Y-86125796D01*
X118154001Y-86125799D01*
X118180079Y-86204496D01*
X118182481Y-86274324D01*
X118146749Y-86334366D01*
X118084229Y-86365559D01*
X118062373Y-86367500D01*
X99875100Y-86367500D01*
X99808061Y-86347815D01*
X99762306Y-86295011D01*
X99752362Y-86225853D01*
X99757394Y-86204496D01*
X99783505Y-86125697D01*
X99783506Y-86125690D01*
X99793999Y-86022986D01*
X99793999Y-85173028D01*
X99793998Y-85173012D01*
X99783505Y-85070302D01*
X99728357Y-84903875D01*
X99723900Y-84896650D01*
X99044000Y-85576550D01*
X99044000Y-85548630D01*
X99018444Y-85453255D01*
X98969075Y-85367745D01*
X98899255Y-85297925D01*
X98813745Y-85248556D01*
X98718370Y-85223000D01*
X98690446Y-85223000D01*
X99370347Y-84543099D01*
X99363124Y-84538643D01*
X99363119Y-84538641D01*
X99196697Y-84483494D01*
X99196690Y-84483493D01*
X99093986Y-84473000D01*
X98812120Y-84473000D01*
X98790875Y-84466761D01*
X98768790Y-84465183D01*
X98758005Y-84457109D01*
X98745081Y-84453315D01*
X98730582Y-84436582D01*
X98712855Y-84423313D01*
X98702239Y-84403873D01*
X98699326Y-84400511D01*
X98695940Y-84392337D01*
X98688373Y-84372051D01*
X98683386Y-84302360D01*
X98688369Y-84285387D01*
X98696285Y-84264163D01*
X98738156Y-84208231D01*
X98803621Y-84183815D01*
X98812466Y-84183499D01*
X99094002Y-84183499D01*
X99094008Y-84183499D01*
X99196797Y-84172999D01*
X99363334Y-84117814D01*
X99512656Y-84025712D01*
X99636712Y-83901656D01*
X99728814Y-83752334D01*
X99731744Y-83743493D01*
X99771518Y-83686049D01*
X99836035Y-83659228D01*
X99849449Y-83658500D01*
X108595331Y-83658500D01*
X108595347Y-83658501D01*
X108602943Y-83658501D01*
X108761054Y-83658501D01*
X108761057Y-83658501D01*
X108913785Y-83617577D01*
X108925418Y-83610860D01*
X108968828Y-83585798D01*
X108968829Y-83585797D01*
X109050716Y-83538520D01*
X109162520Y-83426716D01*
X109162520Y-83426714D01*
X109172724Y-83416511D01*
X109172728Y-83416506D01*
X112118506Y-80470728D01*
X112118511Y-80470724D01*
X112128714Y-80460520D01*
X112128716Y-80460520D01*
X112240520Y-80348716D01*
X112319577Y-80211784D01*
X112319580Y-80211770D01*
X112320010Y-80210735D01*
X112320621Y-80209975D01*
X112323641Y-80204746D01*
X112324455Y-80205216D01*
X112363845Y-80156326D01*
X112430136Y-80134254D01*
X112497837Y-80151525D01*
G37*
%TD.AperFunction*%
%TA.AperFunction,Conductor*%
G36*
X109389366Y-81234962D02*
G01*
X109416823Y-81239242D01*
X109422530Y-81244307D01*
X109429873Y-81246376D01*
X109448295Y-81267170D01*
X109469083Y-81285618D01*
X109471146Y-81292964D01*
X109476205Y-81298675D01*
X109480460Y-81326135D01*
X109487973Y-81352886D01*
X109485737Y-81360179D01*
X109486906Y-81367720D01*
X109475641Y-81393120D01*
X109467498Y-81419688D01*
X109459521Y-81429466D01*
X109458580Y-81431590D01*
X109456873Y-81432713D01*
X109451663Y-81439101D01*
X108469584Y-82421181D01*
X108408261Y-82454666D01*
X108381903Y-82457500D01*
X99849449Y-82457500D01*
X99782410Y-82437815D01*
X99736655Y-82385011D01*
X99731744Y-82372507D01*
X99728814Y-82363667D01*
X99728814Y-82363666D01*
X99636712Y-82214344D01*
X99512656Y-82090288D01*
X99363334Y-81998186D01*
X99196797Y-81943001D01*
X99196795Y-81943000D01*
X99094016Y-81932500D01*
X99094009Y-81932500D01*
X98812466Y-81932500D01*
X98791220Y-81926261D01*
X98769132Y-81924682D01*
X98758348Y-81916609D01*
X98745427Y-81912815D01*
X98730927Y-81896081D01*
X98713199Y-81882810D01*
X98702585Y-81863373D01*
X98699672Y-81860011D01*
X98696284Y-81851833D01*
X98688638Y-81831333D01*
X98683654Y-81761641D01*
X98688639Y-81744664D01*
X98696286Y-81724163D01*
X98738159Y-81668230D01*
X98803624Y-81643815D01*
X98812467Y-81643499D01*
X99094002Y-81643499D01*
X99094008Y-81643499D01*
X99196797Y-81632999D01*
X99363334Y-81577814D01*
X99512656Y-81485712D01*
X99636712Y-81361656D01*
X99681894Y-81288404D01*
X99733842Y-81241679D01*
X99787433Y-81229500D01*
X109181939Y-81229500D01*
X109181943Y-81229501D01*
X109340057Y-81229501D01*
X109347164Y-81227596D01*
X109362622Y-81227427D01*
X109389366Y-81234962D01*
G37*
%TD.AperFunction*%
%TA.AperFunction,Conductor*%
G36*
X116965203Y-77854884D02*
G01*
X116971681Y-77860916D01*
X117443181Y-78332416D01*
X117476666Y-78393739D01*
X117479500Y-78420097D01*
X117479500Y-79813330D01*
X117479499Y-79813348D01*
X117479499Y-79979054D01*
X117479498Y-79979054D01*
X117520424Y-80131789D01*
X117520425Y-80131790D01*
X117543929Y-80172499D01*
X117543930Y-80172501D01*
X117599475Y-80268709D01*
X117599481Y-80268717D01*
X117718349Y-80387585D01*
X117718355Y-80387590D01*
X118107181Y-80776416D01*
X118140666Y-80837739D01*
X118143500Y-80864095D01*
X118143500Y-80943000D01*
X118143501Y-80943019D01*
X118154000Y-81045796D01*
X118154001Y-81045799D01*
X118209185Y-81212331D01*
X118209187Y-81212336D01*
X118223143Y-81234962D01*
X118301288Y-81361656D01*
X118425344Y-81485712D01*
X118574666Y-81577814D01*
X118741203Y-81632999D01*
X118843991Y-81643500D01*
X119125533Y-81643499D01*
X119146779Y-81649737D01*
X119168862Y-81651316D01*
X119179644Y-81659387D01*
X119192572Y-81663183D01*
X119207073Y-81679918D01*
X119224797Y-81693185D01*
X119235412Y-81712623D01*
X119238327Y-81715987D01*
X119241713Y-81724161D01*
X119249360Y-81744662D01*
X119254347Y-81814352D01*
X119249361Y-81831335D01*
X119241714Y-81851836D01*
X119199841Y-81907769D01*
X119134376Y-81932184D01*
X119125533Y-81932500D01*
X118843999Y-81932500D01*
X118843980Y-81932501D01*
X118741203Y-81943000D01*
X118741200Y-81943001D01*
X118574668Y-81998185D01*
X118574663Y-81998187D01*
X118425342Y-82090289D01*
X118301289Y-82214342D01*
X118209185Y-82363667D01*
X118206256Y-82372507D01*
X118166482Y-82429951D01*
X118101965Y-82456772D01*
X118088551Y-82457500D01*
X117718097Y-82457500D01*
X117651058Y-82437815D01*
X117630416Y-82421181D01*
X114489782Y-79280547D01*
X114456297Y-79219224D01*
X114461281Y-79149532D01*
X114470727Y-79129753D01*
X114511744Y-79060398D01*
X114557598Y-78902569D01*
X114560500Y-78865694D01*
X114560500Y-78574000D01*
X114580185Y-78506961D01*
X114632989Y-78461206D01*
X114684500Y-78450000D01*
X116760000Y-78450000D01*
X116760000Y-77948597D01*
X116779685Y-77881558D01*
X116832489Y-77835803D01*
X116901647Y-77825859D01*
X116965203Y-77854884D01*
G37*
%TD.AperFunction*%
%TA.AperFunction,Conductor*%
G36*
X100745055Y-72906691D02*
G01*
X100800989Y-72948562D01*
X100808454Y-72959752D01*
X100824206Y-72986387D01*
X100841389Y-73054110D01*
X100824207Y-73112627D01*
X100808258Y-73139595D01*
X100808254Y-73139605D01*
X100762402Y-73297426D01*
X100762401Y-73297432D01*
X100759500Y-73334298D01*
X100759500Y-73765701D01*
X100762401Y-73802567D01*
X100762402Y-73802573D01*
X100808253Y-73960393D01*
X100823918Y-73986881D01*
X100841098Y-74054606D01*
X100823918Y-74113119D01*
X100808253Y-74139606D01*
X100762402Y-74297426D01*
X100762401Y-74297432D01*
X100759500Y-74334298D01*
X100759500Y-74765701D01*
X100762401Y-74802567D01*
X100762402Y-74802573D01*
X100808253Y-74960393D01*
X100823918Y-74986881D01*
X100841098Y-75054606D01*
X100823918Y-75113119D01*
X100808253Y-75139606D01*
X100762402Y-75297426D01*
X100762401Y-75297432D01*
X100759500Y-75334298D01*
X100759500Y-75765701D01*
X100762401Y-75802567D01*
X100762402Y-75802573D01*
X100808253Y-75960393D01*
X100823918Y-75986881D01*
X100841098Y-76054606D01*
X100823918Y-76113119D01*
X100808253Y-76139606D01*
X100762402Y-76297426D01*
X100762401Y-76297432D01*
X100759500Y-76334298D01*
X100759500Y-76765701D01*
X100762401Y-76802567D01*
X100762402Y-76802573D01*
X100808254Y-76960393D01*
X100808255Y-76960396D01*
X100891917Y-77101862D01*
X100891923Y-77101870D01*
X101008129Y-77218076D01*
X101008133Y-77218079D01*
X101008135Y-77218081D01*
X101149602Y-77301744D01*
X101191224Y-77313836D01*
X101307426Y-77347597D01*
X101307429Y-77347597D01*
X101307431Y-77347598D01*
X101344306Y-77350500D01*
X101636000Y-77350500D01*
X101703039Y-77370185D01*
X101748794Y-77422989D01*
X101760000Y-77474500D01*
X101760000Y-78450000D01*
X103835500Y-78450000D01*
X103902539Y-78469685D01*
X103948294Y-78522489D01*
X103959500Y-78574000D01*
X103959500Y-78865701D01*
X103962401Y-78902567D01*
X103962402Y-78902573D01*
X104008254Y-79060393D01*
X104008255Y-79060396D01*
X104091917Y-79201862D01*
X104091923Y-79201870D01*
X104208129Y-79318076D01*
X104208133Y-79318079D01*
X104208135Y-79318081D01*
X104320752Y-79384682D01*
X104342879Y-79397768D01*
X104390562Y-79448837D01*
X104403066Y-79517579D01*
X104376421Y-79582168D01*
X104319086Y-79622098D01*
X104279758Y-79628500D01*
X101999098Y-79628500D01*
X101932059Y-79608815D01*
X101911417Y-79592181D01*
X99935590Y-77616355D01*
X99928521Y-77609286D01*
X99928520Y-77609284D01*
X99816716Y-77497480D01*
X99816713Y-77497478D01*
X99811995Y-77492760D01*
X99811987Y-77492745D01*
X99781971Y-77444083D01*
X99774981Y-77422989D01*
X99728814Y-77283666D01*
X99636712Y-77134344D01*
X99512656Y-77010288D01*
X99363334Y-76918186D01*
X99196797Y-76863001D01*
X99196795Y-76863000D01*
X99094016Y-76852500D01*
X99094009Y-76852500D01*
X98812466Y-76852500D01*
X98791220Y-76846261D01*
X98769132Y-76844682D01*
X98758348Y-76836609D01*
X98745427Y-76832815D01*
X98730927Y-76816081D01*
X98713199Y-76802810D01*
X98702585Y-76783373D01*
X98699672Y-76780011D01*
X98696284Y-76771833D01*
X98693997Y-76765701D01*
X98688637Y-76751332D01*
X98683654Y-76681641D01*
X98688639Y-76664664D01*
X98696286Y-76644163D01*
X98738159Y-76588230D01*
X98803624Y-76563815D01*
X98812467Y-76563499D01*
X99094002Y-76563499D01*
X99094008Y-76563499D01*
X99196797Y-76552999D01*
X99363334Y-76497814D01*
X99512656Y-76405712D01*
X99636712Y-76281656D01*
X99728814Y-76132334D01*
X99783999Y-75965797D01*
X99794500Y-75863009D01*
X99794499Y-75213095D01*
X99814183Y-75146057D01*
X99830813Y-75125420D01*
X100208713Y-74747521D01*
X100208716Y-74747520D01*
X100320520Y-74635716D01*
X100370639Y-74548904D01*
X100399577Y-74498785D01*
X100440500Y-74346057D01*
X100440500Y-74187943D01*
X100440500Y-73160096D01*
X100460185Y-73093057D01*
X100476809Y-73072425D01*
X100614046Y-72935188D01*
X100675363Y-72901707D01*
X100745055Y-72906691D01*
G37*
%TD.AperFunction*%
%TA.AperFunction,Conductor*%
G36*
X104173039Y-56908185D02*
G01*
X104218794Y-56960989D01*
X104230000Y-57012500D01*
X104230000Y-57196677D01*
X104212117Y-57260826D01*
X104131169Y-57394732D01*
X104131166Y-57394738D01*
X104081318Y-57554705D01*
X104081316Y-57554712D01*
X104075000Y-57624230D01*
X104075000Y-58115769D01*
X104081316Y-58185287D01*
X104081318Y-58185294D01*
X104131166Y-58345261D01*
X104131168Y-58345266D01*
X104212117Y-58479173D01*
X104230000Y-58543322D01*
X104230000Y-76926000D01*
X104210315Y-76993039D01*
X104157511Y-77038794D01*
X104106000Y-77050000D01*
X103350865Y-77050000D01*
X103283826Y-77030315D01*
X103238071Y-76977511D01*
X103228127Y-76908353D01*
X103231789Y-76891405D01*
X103257597Y-76802573D01*
X103257598Y-76802567D01*
X103260500Y-76765694D01*
X103260500Y-76334306D01*
X103257598Y-76297431D01*
X103253015Y-76281657D01*
X103211745Y-76139606D01*
X103211744Y-76139602D01*
X103196084Y-76113122D01*
X103178900Y-76045399D01*
X103196084Y-75986878D01*
X103211742Y-75960401D01*
X103211744Y-75960398D01*
X103257598Y-75802569D01*
X103260500Y-75765694D01*
X103260500Y-75334306D01*
X103257598Y-75297431D01*
X103245230Y-75254862D01*
X103211745Y-75139606D01*
X103211744Y-75139602D01*
X103211742Y-75139598D01*
X103196084Y-75113122D01*
X103178900Y-75045399D01*
X103196084Y-74986878D01*
X103211742Y-74960401D01*
X103211744Y-74960398D01*
X103257598Y-74802569D01*
X103260500Y-74765694D01*
X103260500Y-74334306D01*
X103257598Y-74297431D01*
X103225788Y-74187943D01*
X103211745Y-74139606D01*
X103211744Y-74139602D01*
X103196084Y-74113122D01*
X103178900Y-74045399D01*
X103196084Y-73986878D01*
X103211742Y-73960401D01*
X103211744Y-73960398D01*
X103257598Y-73802569D01*
X103260500Y-73765694D01*
X103260500Y-73334306D01*
X103257598Y-73297431D01*
X103256003Y-73291942D01*
X103211745Y-73139606D01*
X103211745Y-73139605D01*
X103211744Y-73139604D01*
X103211744Y-73139602D01*
X103195791Y-73112627D01*
X103178611Y-73044905D01*
X103195794Y-72986386D01*
X103211282Y-72960197D01*
X103211283Y-72960194D01*
X103257099Y-72802495D01*
X103257100Y-72802489D01*
X103259999Y-72765649D01*
X103260000Y-72765634D01*
X103260000Y-72334365D01*
X103259999Y-72334350D01*
X103257100Y-72297510D01*
X103257099Y-72297504D01*
X103211283Y-72139806D01*
X103211282Y-72139803D01*
X103195792Y-72113610D01*
X103178611Y-72045886D01*
X103195793Y-71987369D01*
X103211744Y-71960398D01*
X103257598Y-71802569D01*
X103260500Y-71765694D01*
X103260500Y-71334306D01*
X103257598Y-71297431D01*
X103211744Y-71139602D01*
X103196084Y-71113122D01*
X103178900Y-71045399D01*
X103196084Y-70986878D01*
X103211742Y-70960401D01*
X103211744Y-70960398D01*
X103257598Y-70802569D01*
X103260500Y-70765694D01*
X103260500Y-70334306D01*
X103257598Y-70297431D01*
X103211744Y-70139602D01*
X103196084Y-70113122D01*
X103178900Y-70045399D01*
X103196084Y-69986878D01*
X103211742Y-69960401D01*
X103211744Y-69960398D01*
X103257598Y-69802569D01*
X103260500Y-69765694D01*
X103260500Y-69334306D01*
X103257598Y-69297431D01*
X103251778Y-69277400D01*
X103211745Y-69139606D01*
X103211744Y-69139602D01*
X103196084Y-69113122D01*
X103178900Y-69045399D01*
X103196084Y-68986878D01*
X103211742Y-68960401D01*
X103211744Y-68960398D01*
X103257598Y-68802569D01*
X103260500Y-68765694D01*
X103260500Y-68334306D01*
X103257598Y-68297431D01*
X103211744Y-68139602D01*
X103196084Y-68113122D01*
X103178900Y-68045399D01*
X103196084Y-67986878D01*
X103211742Y-67960401D01*
X103211744Y-67960398D01*
X103257598Y-67802569D01*
X103260500Y-67765694D01*
X103260500Y-67334306D01*
X103257598Y-67297431D01*
X103211744Y-67139602D01*
X103196084Y-67113122D01*
X103178900Y-67045399D01*
X103196084Y-66986878D01*
X103211742Y-66960401D01*
X103211744Y-66960398D01*
X103257598Y-66802569D01*
X103260500Y-66765694D01*
X103260500Y-66334306D01*
X103257598Y-66297431D01*
X103211744Y-66139602D01*
X103196084Y-66113122D01*
X103178900Y-66045399D01*
X103196084Y-65986878D01*
X103211742Y-65960401D01*
X103211744Y-65960398D01*
X103257598Y-65802569D01*
X103260500Y-65765694D01*
X103260500Y-65334306D01*
X103257598Y-65297431D01*
X103211744Y-65139602D01*
X103196084Y-65113122D01*
X103178900Y-65045399D01*
X103196084Y-64986878D01*
X103211742Y-64960401D01*
X103211744Y-64960398D01*
X103257598Y-64802569D01*
X103260500Y-64765694D01*
X103260500Y-64334306D01*
X103257598Y-64297431D01*
X103238044Y-64230128D01*
X103211745Y-64139606D01*
X103211744Y-64139602D01*
X103196084Y-64113122D01*
X103178900Y-64045399D01*
X103196084Y-63986878D01*
X103211742Y-63960401D01*
X103211744Y-63960398D01*
X103257598Y-63802569D01*
X103260500Y-63765694D01*
X103260500Y-63334306D01*
X103257598Y-63297431D01*
X103211744Y-63139602D01*
X103196084Y-63113122D01*
X103178900Y-63045399D01*
X103196084Y-62986878D01*
X103211742Y-62960401D01*
X103211744Y-62960398D01*
X103257598Y-62802569D01*
X103260500Y-62765694D01*
X103260500Y-62334306D01*
X103257598Y-62297431D01*
X103211744Y-62139602D01*
X103196084Y-62113122D01*
X103178900Y-62045399D01*
X103196084Y-61986878D01*
X103211742Y-61960401D01*
X103211744Y-61960398D01*
X103257598Y-61802569D01*
X103260500Y-61765694D01*
X103260500Y-61334306D01*
X103257598Y-61297431D01*
X103211744Y-61139602D01*
X103196084Y-61113122D01*
X103178900Y-61045399D01*
X103196084Y-60986878D01*
X103211742Y-60960401D01*
X103211744Y-60960398D01*
X103257598Y-60802569D01*
X103260500Y-60765694D01*
X103260500Y-60334306D01*
X103257598Y-60297431D01*
X103211744Y-60139602D01*
X103196084Y-60113122D01*
X103178900Y-60045399D01*
X103196084Y-59986878D01*
X103211742Y-59960401D01*
X103211744Y-59960398D01*
X103257598Y-59802569D01*
X103260500Y-59765694D01*
X103260500Y-59334306D01*
X103257598Y-59297431D01*
X103211744Y-59139602D01*
X103196084Y-59113122D01*
X103178900Y-59045399D01*
X103196084Y-58986878D01*
X103211742Y-58960401D01*
X103211744Y-58960398D01*
X103257598Y-58802569D01*
X103260500Y-58765694D01*
X103260500Y-58334306D01*
X103257598Y-58297431D01*
X103211744Y-58139602D01*
X103196084Y-58113122D01*
X103178900Y-58045399D01*
X103196084Y-57986878D01*
X103211742Y-57960401D01*
X103211744Y-57960398D01*
X103257598Y-57802569D01*
X103260500Y-57765694D01*
X103260500Y-57334306D01*
X103257598Y-57297431D01*
X103238878Y-57232998D01*
X103211745Y-57139606D01*
X103211744Y-57139603D01*
X103211744Y-57139602D01*
X103173906Y-57075621D01*
X103156723Y-57007897D01*
X103178883Y-56941634D01*
X103233349Y-56897871D01*
X103280638Y-56888500D01*
X104106000Y-56888500D01*
X104173039Y-56908185D01*
G37*
%TD.AperFunction*%
%TA.AperFunction,Conductor*%
G36*
X115204458Y-69256704D02*
G01*
X115249228Y-69310346D01*
X115259500Y-69359761D01*
X115259500Y-69765701D01*
X115262401Y-69802567D01*
X115262402Y-69802573D01*
X115308253Y-69960393D01*
X115323918Y-69986881D01*
X115341098Y-70054606D01*
X115323918Y-70113119D01*
X115308253Y-70139606D01*
X115262402Y-70297426D01*
X115262401Y-70297432D01*
X115259500Y-70334298D01*
X115259500Y-70765701D01*
X115262401Y-70802567D01*
X115262402Y-70802573D01*
X115308253Y-70960393D01*
X115323918Y-70986881D01*
X115341098Y-71054606D01*
X115323918Y-71113119D01*
X115308253Y-71139606D01*
X115262402Y-71297426D01*
X115262401Y-71297432D01*
X115259500Y-71334298D01*
X115259500Y-71765701D01*
X115262401Y-71802567D01*
X115262402Y-71802573D01*
X115308253Y-71960393D01*
X115323918Y-71986881D01*
X115341098Y-72054606D01*
X115323918Y-72113118D01*
X115321121Y-72117847D01*
X115308253Y-72139606D01*
X115262402Y-72297426D01*
X115262401Y-72297432D01*
X115259500Y-72334298D01*
X115259500Y-72765701D01*
X115262401Y-72802567D01*
X115262402Y-72802573D01*
X115308253Y-72960393D01*
X115323918Y-72986881D01*
X115341098Y-73054606D01*
X115323918Y-73113119D01*
X115308253Y-73139606D01*
X115262402Y-73297426D01*
X115262401Y-73297432D01*
X115259500Y-73334298D01*
X115259500Y-73765701D01*
X115262401Y-73802567D01*
X115262402Y-73802573D01*
X115308253Y-73960393D01*
X115323918Y-73986881D01*
X115341098Y-74054606D01*
X115323918Y-74113119D01*
X115308253Y-74139606D01*
X115262402Y-74297426D01*
X115262401Y-74297432D01*
X115259500Y-74334298D01*
X115259500Y-74765701D01*
X115262401Y-74802567D01*
X115262402Y-74802573D01*
X115308253Y-74960393D01*
X115323918Y-74986881D01*
X115341098Y-75054606D01*
X115323918Y-75113119D01*
X115308253Y-75139606D01*
X115262402Y-75297426D01*
X115262401Y-75297432D01*
X115259500Y-75334298D01*
X115259500Y-75765701D01*
X115262401Y-75802567D01*
X115262402Y-75802573D01*
X115308253Y-75960393D01*
X115323918Y-75986881D01*
X115341098Y-76054606D01*
X115323918Y-76113119D01*
X115308253Y-76139606D01*
X115262402Y-76297426D01*
X115262401Y-76297432D01*
X115259500Y-76334298D01*
X115259500Y-76765701D01*
X115262401Y-76802567D01*
X115262402Y-76802573D01*
X115288211Y-76891405D01*
X115288012Y-76961274D01*
X115250070Y-77019944D01*
X115186432Y-77048788D01*
X115169135Y-77050000D01*
X114534000Y-77050000D01*
X114466961Y-77030315D01*
X114421206Y-76977511D01*
X114410000Y-76926000D01*
X114410000Y-69493999D01*
X114429685Y-69426960D01*
X114482489Y-69381205D01*
X114534000Y-69369999D01*
X114719972Y-69369999D01*
X114719986Y-69369998D01*
X114822697Y-69359505D01*
X114989119Y-69304358D01*
X114989126Y-69304355D01*
X115070402Y-69254223D01*
X115137795Y-69235782D01*
X115204458Y-69256704D01*
G37*
%TD.AperFunction*%
%TA.AperFunction,Conductor*%
G36*
X114203039Y-75479685D02*
G01*
X114248794Y-75532489D01*
X114260000Y-75584000D01*
X114260000Y-76859134D01*
X114240315Y-76926173D01*
X114187511Y-76971928D01*
X114118353Y-76981872D01*
X114101406Y-76978211D01*
X114012567Y-76952401D01*
X113975701Y-76949500D01*
X113975694Y-76949500D01*
X113544306Y-76949500D01*
X113544298Y-76949500D01*
X113507432Y-76952401D01*
X113507426Y-76952402D01*
X113349606Y-76998253D01*
X113323119Y-77013918D01*
X113255394Y-77031098D01*
X113196881Y-77013918D01*
X113170393Y-76998253D01*
X113012573Y-76952402D01*
X113012567Y-76952401D01*
X112975701Y-76949500D01*
X112975694Y-76949500D01*
X112544306Y-76949500D01*
X112544298Y-76949500D01*
X112507432Y-76952401D01*
X112507426Y-76952402D01*
X112349606Y-76998253D01*
X112323119Y-77013918D01*
X112255394Y-77031098D01*
X112196881Y-77013918D01*
X112170393Y-76998253D01*
X112012573Y-76952402D01*
X112012567Y-76952401D01*
X111975701Y-76949500D01*
X111975694Y-76949500D01*
X111544306Y-76949500D01*
X111544298Y-76949500D01*
X111507432Y-76952401D01*
X111507426Y-76952402D01*
X111349606Y-76998253D01*
X111323119Y-77013918D01*
X111255394Y-77031098D01*
X111196881Y-77013918D01*
X111170393Y-76998253D01*
X111012573Y-76952402D01*
X111012567Y-76952401D01*
X110975701Y-76949500D01*
X110975694Y-76949500D01*
X110544306Y-76949500D01*
X110544298Y-76949500D01*
X110507432Y-76952401D01*
X110507426Y-76952402D01*
X110349606Y-76998253D01*
X110323119Y-77013918D01*
X110255394Y-77031098D01*
X110196881Y-77013918D01*
X110170393Y-76998253D01*
X110012573Y-76952402D01*
X110012567Y-76952401D01*
X109975701Y-76949500D01*
X109975694Y-76949500D01*
X109544306Y-76949500D01*
X109544298Y-76949500D01*
X109507432Y-76952401D01*
X109507426Y-76952402D01*
X109349606Y-76998253D01*
X109323119Y-77013918D01*
X109255394Y-77031098D01*
X109196881Y-77013918D01*
X109170393Y-76998253D01*
X109012573Y-76952402D01*
X109012567Y-76952401D01*
X108975701Y-76949500D01*
X108975694Y-76949500D01*
X108544306Y-76949500D01*
X108544298Y-76949500D01*
X108507432Y-76952401D01*
X108507426Y-76952402D01*
X108349606Y-76998253D01*
X108323119Y-77013918D01*
X108255394Y-77031098D01*
X108196881Y-77013918D01*
X108170393Y-76998253D01*
X108012573Y-76952402D01*
X108012567Y-76952401D01*
X107975701Y-76949500D01*
X107975694Y-76949500D01*
X107544306Y-76949500D01*
X107544298Y-76949500D01*
X107507432Y-76952401D01*
X107507426Y-76952402D01*
X107349606Y-76998253D01*
X107323119Y-77013918D01*
X107255394Y-77031098D01*
X107196881Y-77013918D01*
X107170393Y-76998253D01*
X107012573Y-76952402D01*
X107012567Y-76952401D01*
X106975701Y-76949500D01*
X106975694Y-76949500D01*
X106544306Y-76949500D01*
X106544298Y-76949500D01*
X106507432Y-76952401D01*
X106507426Y-76952402D01*
X106349606Y-76998253D01*
X106323119Y-77013918D01*
X106255394Y-77031098D01*
X106196881Y-77013918D01*
X106170393Y-76998253D01*
X106012573Y-76952402D01*
X106012567Y-76952401D01*
X105975701Y-76949500D01*
X105975694Y-76949500D01*
X105544306Y-76949500D01*
X105544298Y-76949500D01*
X105507432Y-76952401D01*
X105507426Y-76952402D01*
X105349606Y-76998253D01*
X105323119Y-77013918D01*
X105255394Y-77031098D01*
X105196881Y-77013918D01*
X105170393Y-76998253D01*
X105012573Y-76952402D01*
X105012567Y-76952401D01*
X104975701Y-76949500D01*
X104975694Y-76949500D01*
X104544306Y-76949500D01*
X104544298Y-76949500D01*
X104507432Y-76952401D01*
X104418594Y-76978211D01*
X104348725Y-76978011D01*
X104290055Y-76940068D01*
X104261212Y-76876429D01*
X104260000Y-76859134D01*
X104260000Y-75584000D01*
X104279685Y-75516961D01*
X104332489Y-75471206D01*
X104384000Y-75460000D01*
X114136000Y-75460000D01*
X114203039Y-75479685D01*
G37*
%TD.AperFunction*%
%TA.AperFunction,Conductor*%
G36*
X115246400Y-56890396D02*
G01*
X115253022Y-56889192D01*
X115279499Y-56900115D01*
X115306982Y-56908185D01*
X115311389Y-56913271D01*
X115317611Y-56915838D01*
X115333980Y-56939343D01*
X115352737Y-56960989D01*
X115353694Y-56967650D01*
X115357541Y-56973173D01*
X115358604Y-57001794D01*
X115362681Y-57030147D01*
X115359946Y-57037916D01*
X115360135Y-57042995D01*
X115346675Y-57075621D01*
X115308717Y-57139803D01*
X115308716Y-57139806D01*
X115262900Y-57297504D01*
X115262899Y-57297510D01*
X115260000Y-57334350D01*
X115260000Y-57765649D01*
X115262899Y-57802489D01*
X115262900Y-57802495D01*
X115308716Y-57960193D01*
X115308717Y-57960196D01*
X115324207Y-57986388D01*
X115341389Y-58054112D01*
X115324207Y-58112627D01*
X115308258Y-58139595D01*
X115308254Y-58139605D01*
X115262402Y-58297426D01*
X115262401Y-58297432D01*
X115259500Y-58334298D01*
X115259500Y-58765701D01*
X115262401Y-58802567D01*
X115262402Y-58802573D01*
X115308253Y-58960393D01*
X115323918Y-58986881D01*
X115341098Y-59054606D01*
X115323918Y-59113119D01*
X115308253Y-59139606D01*
X115262402Y-59297426D01*
X115262401Y-59297432D01*
X115259500Y-59334298D01*
X115259500Y-59765701D01*
X115262401Y-59802567D01*
X115262402Y-59802573D01*
X115308253Y-59960393D01*
X115323918Y-59986881D01*
X115341098Y-60054606D01*
X115323918Y-60113119D01*
X115308253Y-60139606D01*
X115262402Y-60297426D01*
X115262401Y-60297432D01*
X115259500Y-60334298D01*
X115259500Y-60765701D01*
X115262401Y-60802567D01*
X115262402Y-60802573D01*
X115308253Y-60960393D01*
X115323918Y-60986881D01*
X115341098Y-61054606D01*
X115323918Y-61113119D01*
X115308253Y-61139606D01*
X115262402Y-61297426D01*
X115262401Y-61297432D01*
X115259500Y-61334298D01*
X115259500Y-61765701D01*
X115262401Y-61802567D01*
X115262402Y-61802573D01*
X115308253Y-61960393D01*
X115323918Y-61986881D01*
X115341098Y-62054606D01*
X115323918Y-62113119D01*
X115308253Y-62139606D01*
X115262402Y-62297426D01*
X115262401Y-62297432D01*
X115259500Y-62334298D01*
X115259500Y-62765701D01*
X115262401Y-62802567D01*
X115262402Y-62802573D01*
X115308253Y-62960393D01*
X115323918Y-62986881D01*
X115341098Y-63054606D01*
X115323918Y-63113119D01*
X115308253Y-63139606D01*
X115262402Y-63297426D01*
X115262401Y-63297432D01*
X115259500Y-63334298D01*
X115259500Y-63765701D01*
X115262401Y-63802567D01*
X115262402Y-63802573D01*
X115308253Y-63960393D01*
X115323918Y-63986881D01*
X115341098Y-64054606D01*
X115323918Y-64113119D01*
X115308253Y-64139606D01*
X115262402Y-64297426D01*
X115262401Y-64297432D01*
X115259500Y-64334298D01*
X115259500Y-64765701D01*
X115262401Y-64802567D01*
X115262402Y-64802573D01*
X115308253Y-64960393D01*
X115323918Y-64986881D01*
X115341098Y-65054606D01*
X115323918Y-65113119D01*
X115308253Y-65139606D01*
X115262402Y-65297426D01*
X115262401Y-65297432D01*
X115259500Y-65334298D01*
X115259500Y-65765701D01*
X115262401Y-65802567D01*
X115262402Y-65802573D01*
X115308253Y-65960393D01*
X115323918Y-65986881D01*
X115341098Y-66054606D01*
X115323918Y-66113119D01*
X115308253Y-66139606D01*
X115262402Y-66297426D01*
X115262401Y-66297432D01*
X115259500Y-66334298D01*
X115259500Y-66600238D01*
X115239815Y-66667277D01*
X115187011Y-66713032D01*
X115117853Y-66722976D01*
X115070403Y-66705777D01*
X114989124Y-66655643D01*
X114989119Y-66655641D01*
X114822697Y-66600494D01*
X114822690Y-66600493D01*
X114719986Y-66590000D01*
X114534000Y-66590000D01*
X114466961Y-66570315D01*
X114421206Y-66517511D01*
X114410000Y-66466000D01*
X114410000Y-57012500D01*
X114429685Y-56945461D01*
X114482489Y-56899706D01*
X114534000Y-56888500D01*
X115239943Y-56888500D01*
X115246400Y-56890396D01*
G37*
%TD.AperFunction*%
%TA.AperFunction,Conductor*%
G36*
X118089696Y-56896522D02*
G01*
X118117733Y-56901543D01*
X118122792Y-56906240D01*
X118129413Y-56908185D01*
X118148058Y-56929703D01*
X118168932Y-56949086D01*
X118170648Y-56955772D01*
X118175168Y-56960989D01*
X118179220Y-56989175D01*
X118186301Y-57016763D01*
X118184574Y-57026406D01*
X118185112Y-57030147D01*
X118180081Y-57051496D01*
X118172088Y-57075621D01*
X118154000Y-57130204D01*
X118143500Y-57232983D01*
X118143500Y-57615902D01*
X118134855Y-57645342D01*
X118128332Y-57675329D01*
X118124577Y-57680344D01*
X118123815Y-57682941D01*
X118107181Y-57703583D01*
X117971681Y-57839083D01*
X117910358Y-57872568D01*
X117840666Y-57867584D01*
X117784733Y-57825712D01*
X117760316Y-57760248D01*
X117760000Y-57751402D01*
X117760000Y-57334365D01*
X117759999Y-57334350D01*
X117757100Y-57297510D01*
X117757099Y-57297504D01*
X117711283Y-57139806D01*
X117711282Y-57139803D01*
X117673325Y-57075621D01*
X117656142Y-57007897D01*
X117678302Y-56941635D01*
X117732768Y-56897871D01*
X117780057Y-56888500D01*
X118062374Y-56888500D01*
X118089696Y-56896522D01*
G37*
%TD.AperFunction*%
%TD*%
M02*
