%TF.GenerationSoftware,KiCad,Pcbnew,9.0.1+dfsg-1*%
%TF.CreationDate,2025-05-01T10:59:25+02:00*%
%TF.ProjectId,bluetooth,626c7565-746f-46f7-9468-2e6b69636164,rev?*%
%TF.SameCoordinates,Original*%
%TF.FileFunction,Soldermask,Bot*%
%TF.FilePolarity,Negative*%
%FSLAX46Y46*%
G04 Gerber Fmt 4.6, Leading zero omitted, Abs format (unit mm)*
G04 Created by KiCad (PCBNEW 9.0.1+dfsg-1) date 2025-05-01 10:59:25*
%MOMM*%
%LPD*%
G01*
G04 APERTURE LIST*
G04 Aperture macros list*
%AMRoundRect*
0 Rectangle with rounded corners*
0 $1 Rounding radius*
0 $2 $3 $4 $5 $6 $7 $8 $9 X,Y pos of 4 corners*
0 Add a 4 corners polygon primitive as box body*
4,1,4,$2,$3,$4,$5,$6,$7,$8,$9,$2,$3,0*
0 Add four circle primitives for the rounded corners*
1,1,$1+$1,$2,$3*
1,1,$1+$1,$4,$5*
1,1,$1+$1,$6,$7*
1,1,$1+$1,$8,$9*
0 Add four rect primitives between the rounded corners*
20,1,$1+$1,$2,$3,$4,$5,0*
20,1,$1+$1,$4,$5,$6,$7,0*
20,1,$1+$1,$6,$7,$8,$9,0*
20,1,$1+$1,$8,$9,$2,$3,0*%
G04 Aperture macros list end*
%ADD10R,2.540000X2.000000*%
%ADD11RoundRect,0.250000X0.375000X0.375000X-0.375000X0.375000X-0.375000X-0.375000X0.375000X-0.375000X0*%
G04 APERTURE END LIST*
D10*
%TO.C,M1*%
X96969000Y-57658000D03*
D11*
X98669000Y-57658000D03*
D10*
X96969000Y-65278000D03*
D11*
X98669000Y-65278000D03*
D10*
X96969000Y-67818000D03*
D11*
X98669000Y-67818000D03*
D10*
X96969000Y-70358000D03*
D11*
X98669000Y-70358000D03*
D10*
X96969000Y-72898000D03*
D11*
X98669000Y-72898000D03*
D10*
X96969000Y-75438000D03*
D11*
X98669000Y-75438000D03*
D10*
X96969000Y-77978000D03*
D11*
X98669000Y-77978000D03*
D10*
X96969000Y-80518000D03*
D11*
X98669000Y-80518000D03*
D10*
X96969000Y-83058000D03*
D11*
X98669000Y-83058000D03*
D10*
X96969000Y-85598000D03*
D11*
X98669000Y-85598000D03*
X119269000Y-57658000D03*
D10*
X120969000Y-57658000D03*
D11*
X119269000Y-60198000D03*
D10*
X120969000Y-60198000D03*
D11*
X119269000Y-62738000D03*
D10*
X120969000Y-62738000D03*
D11*
X119269000Y-65278000D03*
D10*
X120969000Y-65278000D03*
D11*
X119269000Y-67818000D03*
D10*
X120969000Y-67818000D03*
D11*
X119269000Y-70358000D03*
D10*
X120969000Y-70358000D03*
D11*
X119269000Y-72898000D03*
D10*
X120969000Y-72898000D03*
D11*
X119269000Y-75438000D03*
D10*
X120969000Y-75438000D03*
D11*
X119269000Y-77978000D03*
D10*
X120969000Y-77978000D03*
D11*
X119269000Y-80518000D03*
D10*
X120969000Y-80518000D03*
D11*
X119269000Y-83058000D03*
D10*
X120969000Y-83058000D03*
D11*
X119269000Y-85598000D03*
D10*
X120969000Y-85598000D03*
%TD*%
M02*
