G04 #@! TF.GenerationSoftware,KiCad,Pcbnew,9.0.1+1*
G04 #@! TF.CreationDate,2025-11-11T08:29:37+00:00*
G04 #@! TF.ProjectId,megaphone-low-current-dc-dc-converter,6d656761-7068-46f6-9e65-2d6c6f772d63,0.2*
G04 #@! TF.SameCoordinates,Original*
G04 #@! TF.FileFunction,Legend,Bot*
G04 #@! TF.FilePolarity,Positive*
%FSLAX46Y46*%
G04 Gerber Fmt 4.6, Leading zero omitted, Abs format (unit mm)*
G04 Created by KiCad (PCBNEW 9.0.1+1) date 2025-11-11 08:29:37*
%MOMM*%
%LPD*%
G01*
G04 APERTURE LIST*
%ADD10C,0.100000*%
%ADD11R,2.540000X2.000000*%
G04 APERTURE END LIST*
D10*
X118491000Y-84328000D02*
X118511000Y-84328000D01*
X118911000Y-84328000D02*
X118931000Y-84328000D01*
X119331000Y-84328000D02*
X119351000Y-84328000D01*
X119751000Y-84328000D02*
X119771000Y-84328000D01*
X120171000Y-84328000D02*
X120191000Y-84328000D01*
X120591000Y-84328000D02*
X120611000Y-84328000D01*
X120777000Y-84328000D02*
X120777000Y-84308000D01*
X120777000Y-83908000D02*
X120777000Y-83888000D01*
X120777000Y-83488000D02*
X120777000Y-83468000D01*
X120777000Y-83068000D02*
X120777000Y-83048000D01*
X120777000Y-82648000D02*
X120777000Y-82628000D01*
X120777000Y-82228000D02*
X120777000Y-82208000D01*
X120777000Y-81808000D02*
X120777000Y-81788000D01*
X120777000Y-81388000D02*
X120777000Y-81368000D01*
X120777000Y-80968000D02*
X120777000Y-80948000D01*
X120777000Y-80548000D02*
X120777000Y-80528000D01*
X120777000Y-80128000D02*
X120777000Y-80108000D01*
X120777000Y-79708000D02*
X120777000Y-79688000D01*
X120777000Y-79288000D02*
X120777000Y-79268000D01*
X120777000Y-78868000D02*
X120777000Y-78848000D01*
X120777000Y-78448000D02*
X120777000Y-78428000D01*
X120777000Y-78028000D02*
X120777000Y-78008000D01*
X120777000Y-77608000D02*
X120777000Y-77588000D01*
X120777000Y-77188000D02*
X120777000Y-77168000D01*
X120777000Y-76768000D02*
X120777000Y-76748000D01*
X120777000Y-76348000D02*
X120777000Y-76328000D01*
X120777000Y-75928000D02*
X120777000Y-75908000D01*
X120777000Y-75508000D02*
X120777000Y-75488000D01*
X120777000Y-75088000D02*
X120777000Y-75068000D01*
X120777000Y-74668000D02*
X120777000Y-74648000D01*
X120777000Y-74248000D02*
X120777000Y-74228000D01*
X120777000Y-73828000D02*
X120777000Y-73808000D01*
X120777000Y-73408000D02*
X120777000Y-73388000D01*
X120777000Y-72988000D02*
X120777000Y-72968000D01*
X120777000Y-72568000D02*
X120777000Y-72548000D01*
X120777000Y-72148000D02*
X120777000Y-72128000D01*
X120777000Y-71728000D02*
X120777000Y-71708000D01*
X120777000Y-71308000D02*
X120777000Y-71288000D01*
X120777000Y-70888000D02*
X120777000Y-70868000D01*
X120777000Y-70468000D02*
X120777000Y-70448000D01*
X120777000Y-70048000D02*
X120777000Y-70028000D01*
X120777000Y-69628000D02*
X120777000Y-69608000D01*
X120777000Y-69208000D02*
X120777000Y-69188000D01*
X120777000Y-68788000D02*
X120777000Y-68768000D01*
X120777000Y-68368000D02*
X120777000Y-68348000D01*
X120777000Y-67948000D02*
X120777000Y-67928000D01*
X120777000Y-67528000D02*
X120777000Y-67508000D01*
X120777000Y-67108000D02*
X120777000Y-67088000D01*
X120777000Y-66929000D02*
X120757000Y-66929000D01*
X120357000Y-66929000D02*
X120337000Y-66929000D01*
X119937000Y-66929000D02*
X119917000Y-66929000D01*
X119517000Y-66929000D02*
X119497000Y-66929000D01*
X119097000Y-66929000D02*
X119077000Y-66929000D01*
X124080950Y-66290695D02*
X123814283Y-67090695D01*
X123814283Y-67090695D02*
X123547617Y-66290695D01*
X123014284Y-66671647D02*
X122899998Y-66709742D01*
X122899998Y-66709742D02*
X122861903Y-66747838D01*
X122861903Y-66747838D02*
X122823807Y-66824028D01*
X122823807Y-66824028D02*
X122823807Y-66938314D01*
X122823807Y-66938314D02*
X122861903Y-67014504D01*
X122861903Y-67014504D02*
X122899998Y-67052600D01*
X122899998Y-67052600D02*
X122976188Y-67090695D01*
X122976188Y-67090695D02*
X123280950Y-67090695D01*
X123280950Y-67090695D02*
X123280950Y-66290695D01*
X123280950Y-66290695D02*
X123014284Y-66290695D01*
X123014284Y-66290695D02*
X122938093Y-66328790D01*
X122938093Y-66328790D02*
X122899998Y-66366885D01*
X122899998Y-66366885D02*
X122861903Y-66443076D01*
X122861903Y-66443076D02*
X122861903Y-66519266D01*
X122861903Y-66519266D02*
X122899998Y-66595457D01*
X122899998Y-66595457D02*
X122938093Y-66633552D01*
X122938093Y-66633552D02*
X123014284Y-66671647D01*
X123014284Y-66671647D02*
X123280950Y-66671647D01*
X122519046Y-66862123D02*
X122138093Y-66862123D01*
X122595236Y-67090695D02*
X122328569Y-66290695D01*
X122328569Y-66290695D02*
X122061903Y-67090695D01*
X121909522Y-66290695D02*
X121452379Y-66290695D01*
X121680951Y-67090695D02*
X121680951Y-66290695D01*
X117590789Y-84145918D02*
X118047932Y-84145918D01*
X117819360Y-84145918D02*
X117819360Y-83345918D01*
X117819360Y-83345918D02*
X117895551Y-83460203D01*
X117895551Y-83460203D02*
X117971741Y-83536394D01*
X117971741Y-83536394D02*
X118047932Y-83574489D01*
X117362217Y-83345918D02*
X117095550Y-84145918D01*
X117095550Y-84145918D02*
X116828884Y-83345918D01*
X116447932Y-83688775D02*
X116524122Y-83650680D01*
X116524122Y-83650680D02*
X116562217Y-83612584D01*
X116562217Y-83612584D02*
X116600313Y-83536394D01*
X116600313Y-83536394D02*
X116600313Y-83498299D01*
X116600313Y-83498299D02*
X116562217Y-83422108D01*
X116562217Y-83422108D02*
X116524122Y-83384013D01*
X116524122Y-83384013D02*
X116447932Y-83345918D01*
X116447932Y-83345918D02*
X116295551Y-83345918D01*
X116295551Y-83345918D02*
X116219360Y-83384013D01*
X116219360Y-83384013D02*
X116181265Y-83422108D01*
X116181265Y-83422108D02*
X116143170Y-83498299D01*
X116143170Y-83498299D02*
X116143170Y-83536394D01*
X116143170Y-83536394D02*
X116181265Y-83612584D01*
X116181265Y-83612584D02*
X116219360Y-83650680D01*
X116219360Y-83650680D02*
X116295551Y-83688775D01*
X116295551Y-83688775D02*
X116447932Y-83688775D01*
X116447932Y-83688775D02*
X116524122Y-83726870D01*
X116524122Y-83726870D02*
X116562217Y-83764965D01*
X116562217Y-83764965D02*
X116600313Y-83841156D01*
X116600313Y-83841156D02*
X116600313Y-83993537D01*
X116600313Y-83993537D02*
X116562217Y-84069727D01*
X116562217Y-84069727D02*
X116524122Y-84107823D01*
X116524122Y-84107823D02*
X116447932Y-84145918D01*
X116447932Y-84145918D02*
X116295551Y-84145918D01*
X116295551Y-84145918D02*
X116219360Y-84107823D01*
X116219360Y-84107823D02*
X116181265Y-84069727D01*
X116181265Y-84069727D02*
X116143170Y-83993537D01*
X116143170Y-83993537D02*
X116143170Y-83841156D01*
X116143170Y-83841156D02*
X116181265Y-83764965D01*
X116181265Y-83764965D02*
X116219360Y-83726870D01*
X116219360Y-83726870D02*
X116295551Y-83688775D01*
X117971742Y-85395778D02*
X117857456Y-85433873D01*
X117857456Y-85433873D02*
X117666980Y-85433873D01*
X117666980Y-85433873D02*
X117590789Y-85395778D01*
X117590789Y-85395778D02*
X117552694Y-85357682D01*
X117552694Y-85357682D02*
X117514599Y-85281492D01*
X117514599Y-85281492D02*
X117514599Y-85205301D01*
X117514599Y-85205301D02*
X117552694Y-85129111D01*
X117552694Y-85129111D02*
X117590789Y-85091016D01*
X117590789Y-85091016D02*
X117666980Y-85052920D01*
X117666980Y-85052920D02*
X117819361Y-85014825D01*
X117819361Y-85014825D02*
X117895551Y-84976730D01*
X117895551Y-84976730D02*
X117933646Y-84938635D01*
X117933646Y-84938635D02*
X117971742Y-84862444D01*
X117971742Y-84862444D02*
X117971742Y-84786254D01*
X117971742Y-84786254D02*
X117933646Y-84710063D01*
X117933646Y-84710063D02*
X117895551Y-84671968D01*
X117895551Y-84671968D02*
X117819361Y-84633873D01*
X117819361Y-84633873D02*
X117628884Y-84633873D01*
X117628884Y-84633873D02*
X117514599Y-84671968D01*
X117171741Y-85014825D02*
X116905075Y-85014825D01*
X116790789Y-85433873D02*
X117171741Y-85433873D01*
X117171741Y-85433873D02*
X117171741Y-84633873D01*
X117171741Y-84633873D02*
X116790789Y-84633873D01*
X116066979Y-85433873D02*
X116447931Y-85433873D01*
X116447931Y-85433873D02*
X116447931Y-84633873D01*
X124719360Y-84177990D02*
X124795550Y-84139895D01*
X124795550Y-84139895D02*
X124909836Y-84139895D01*
X124909836Y-84139895D02*
X125024122Y-84177990D01*
X125024122Y-84177990D02*
X125100312Y-84254180D01*
X125100312Y-84254180D02*
X125138407Y-84330371D01*
X125138407Y-84330371D02*
X125176503Y-84482752D01*
X125176503Y-84482752D02*
X125176503Y-84597038D01*
X125176503Y-84597038D02*
X125138407Y-84749419D01*
X125138407Y-84749419D02*
X125100312Y-84825609D01*
X125100312Y-84825609D02*
X125024122Y-84901800D01*
X125024122Y-84901800D02*
X124909836Y-84939895D01*
X124909836Y-84939895D02*
X124833645Y-84939895D01*
X124833645Y-84939895D02*
X124719360Y-84901800D01*
X124719360Y-84901800D02*
X124681264Y-84863704D01*
X124681264Y-84863704D02*
X124681264Y-84597038D01*
X124681264Y-84597038D02*
X124833645Y-84597038D01*
X124338407Y-84939895D02*
X124338407Y-84139895D01*
X124338407Y-84139895D02*
X123881264Y-84939895D01*
X123881264Y-84939895D02*
X123881264Y-84139895D01*
X123500312Y-84939895D02*
X123500312Y-84139895D01*
X123500312Y-84139895D02*
X123309836Y-84139895D01*
X123309836Y-84139895D02*
X123195550Y-84177990D01*
X123195550Y-84177990D02*
X123119360Y-84254180D01*
X123119360Y-84254180D02*
X123081265Y-84330371D01*
X123081265Y-84330371D02*
X123043169Y-84482752D01*
X123043169Y-84482752D02*
X123043169Y-84597038D01*
X123043169Y-84597038D02*
X123081265Y-84749419D01*
X123081265Y-84749419D02*
X123119360Y-84825609D01*
X123119360Y-84825609D02*
X123195550Y-84901800D01*
X123195550Y-84901800D02*
X123309836Y-84939895D01*
X123309836Y-84939895D02*
X123500312Y-84939895D01*
X114546895Y-69188408D02*
X114165942Y-68921741D01*
X114546895Y-68731265D02*
X113746895Y-68731265D01*
X113746895Y-68731265D02*
X113746895Y-69036027D01*
X113746895Y-69036027D02*
X113784990Y-69112217D01*
X113784990Y-69112217D02*
X113823085Y-69150312D01*
X113823085Y-69150312D02*
X113899276Y-69188408D01*
X113899276Y-69188408D02*
X114013561Y-69188408D01*
X114013561Y-69188408D02*
X114089752Y-69150312D01*
X114089752Y-69150312D02*
X114127847Y-69112217D01*
X114127847Y-69112217D02*
X114165942Y-69036027D01*
X114165942Y-69036027D02*
X114165942Y-68731265D01*
X113823085Y-69493169D02*
X113784990Y-69531265D01*
X113784990Y-69531265D02*
X113746895Y-69607455D01*
X113746895Y-69607455D02*
X113746895Y-69797931D01*
X113746895Y-69797931D02*
X113784990Y-69874122D01*
X113784990Y-69874122D02*
X113823085Y-69912217D01*
X113823085Y-69912217D02*
X113899276Y-69950312D01*
X113899276Y-69950312D02*
X113975466Y-69950312D01*
X113975466Y-69950312D02*
X114089752Y-69912217D01*
X114089752Y-69912217D02*
X114546895Y-69455074D01*
X114546895Y-69455074D02*
X114546895Y-69950312D01*
X113746895Y-70445551D02*
X113746895Y-70521741D01*
X113746895Y-70521741D02*
X113784990Y-70597932D01*
X113784990Y-70597932D02*
X113823085Y-70636027D01*
X113823085Y-70636027D02*
X113899276Y-70674122D01*
X113899276Y-70674122D02*
X114051657Y-70712217D01*
X114051657Y-70712217D02*
X114242133Y-70712217D01*
X114242133Y-70712217D02*
X114394514Y-70674122D01*
X114394514Y-70674122D02*
X114470704Y-70636027D01*
X114470704Y-70636027D02*
X114508800Y-70597932D01*
X114508800Y-70597932D02*
X114546895Y-70521741D01*
X114546895Y-70521741D02*
X114546895Y-70445551D01*
X114546895Y-70445551D02*
X114508800Y-70369360D01*
X114508800Y-70369360D02*
X114470704Y-70331265D01*
X114470704Y-70331265D02*
X114394514Y-70293170D01*
X114394514Y-70293170D02*
X114242133Y-70255074D01*
X114242133Y-70255074D02*
X114051657Y-70255074D01*
X114051657Y-70255074D02*
X113899276Y-70293170D01*
X113899276Y-70293170D02*
X113823085Y-70331265D01*
X113823085Y-70331265D02*
X113784990Y-70369360D01*
X113784990Y-70369360D02*
X113746895Y-70445551D01*
X113823085Y-71016979D02*
X113784990Y-71055075D01*
X113784990Y-71055075D02*
X113746895Y-71131265D01*
X113746895Y-71131265D02*
X113746895Y-71321741D01*
X113746895Y-71321741D02*
X113784990Y-71397932D01*
X113784990Y-71397932D02*
X113823085Y-71436027D01*
X113823085Y-71436027D02*
X113899276Y-71474122D01*
X113899276Y-71474122D02*
X113975466Y-71474122D01*
X113975466Y-71474122D02*
X114089752Y-71436027D01*
X114089752Y-71436027D02*
X114546895Y-70978884D01*
X114546895Y-70978884D02*
X114546895Y-71474122D01*
X113746895Y-72197932D02*
X113746895Y-71816980D01*
X113746895Y-71816980D02*
X114127847Y-71778884D01*
X114127847Y-71778884D02*
X114089752Y-71816980D01*
X114089752Y-71816980D02*
X114051657Y-71893170D01*
X114051657Y-71893170D02*
X114051657Y-72083646D01*
X114051657Y-72083646D02*
X114089752Y-72159837D01*
X114089752Y-72159837D02*
X114127847Y-72197932D01*
X114127847Y-72197932D02*
X114204038Y-72236027D01*
X114204038Y-72236027D02*
X114394514Y-72236027D01*
X114394514Y-72236027D02*
X114470704Y-72197932D01*
X114470704Y-72197932D02*
X114508800Y-72159837D01*
X114508800Y-72159837D02*
X114546895Y-72083646D01*
X114546895Y-72083646D02*
X114546895Y-71893170D01*
X114546895Y-71893170D02*
X114508800Y-71816980D01*
X114508800Y-71816980D02*
X114470704Y-71778884D01*
X113746895Y-72731266D02*
X113746895Y-72807456D01*
X113746895Y-72807456D02*
X113784990Y-72883647D01*
X113784990Y-72883647D02*
X113823085Y-72921742D01*
X113823085Y-72921742D02*
X113899276Y-72959837D01*
X113899276Y-72959837D02*
X114051657Y-72997932D01*
X114051657Y-72997932D02*
X114242133Y-72997932D01*
X114242133Y-72997932D02*
X114394514Y-72959837D01*
X114394514Y-72959837D02*
X114470704Y-72921742D01*
X114470704Y-72921742D02*
X114508800Y-72883647D01*
X114508800Y-72883647D02*
X114546895Y-72807456D01*
X114546895Y-72807456D02*
X114546895Y-72731266D01*
X114546895Y-72731266D02*
X114508800Y-72655075D01*
X114508800Y-72655075D02*
X114470704Y-72616980D01*
X114470704Y-72616980D02*
X114394514Y-72578885D01*
X114394514Y-72578885D02*
X114242133Y-72540789D01*
X114242133Y-72540789D02*
X114051657Y-72540789D01*
X114051657Y-72540789D02*
X113899276Y-72578885D01*
X113899276Y-72578885D02*
X113823085Y-72616980D01*
X113823085Y-72616980D02*
X113784990Y-72655075D01*
X113784990Y-72655075D02*
X113746895Y-72731266D01*
X113823085Y-73302694D02*
X113784990Y-73340790D01*
X113784990Y-73340790D02*
X113746895Y-73416980D01*
X113746895Y-73416980D02*
X113746895Y-73607456D01*
X113746895Y-73607456D02*
X113784990Y-73683647D01*
X113784990Y-73683647D02*
X113823085Y-73721742D01*
X113823085Y-73721742D02*
X113899276Y-73759837D01*
X113899276Y-73759837D02*
X113975466Y-73759837D01*
X113975466Y-73759837D02*
X114089752Y-73721742D01*
X114089752Y-73721742D02*
X114546895Y-73264599D01*
X114546895Y-73264599D02*
X114546895Y-73759837D01*
X113823085Y-74064599D02*
X113784990Y-74102695D01*
X113784990Y-74102695D02*
X113746895Y-74178885D01*
X113746895Y-74178885D02*
X113746895Y-74369361D01*
X113746895Y-74369361D02*
X113784990Y-74445552D01*
X113784990Y-74445552D02*
X113823085Y-74483647D01*
X113823085Y-74483647D02*
X113899276Y-74521742D01*
X113899276Y-74521742D02*
X113975466Y-74521742D01*
X113975466Y-74521742D02*
X114089752Y-74483647D01*
X114089752Y-74483647D02*
X114546895Y-74026504D01*
X114546895Y-74026504D02*
X114546895Y-74521742D01*
X113823085Y-74826504D02*
X113784990Y-74864600D01*
X113784990Y-74864600D02*
X113746895Y-74940790D01*
X113746895Y-74940790D02*
X113746895Y-75131266D01*
X113746895Y-75131266D02*
X113784990Y-75207457D01*
X113784990Y-75207457D02*
X113823085Y-75245552D01*
X113823085Y-75245552D02*
X113899276Y-75283647D01*
X113899276Y-75283647D02*
X113975466Y-75283647D01*
X113975466Y-75283647D02*
X114089752Y-75245552D01*
X114089752Y-75245552D02*
X114546895Y-74788409D01*
X114546895Y-74788409D02*
X114546895Y-75283647D01*
X117212217Y-79395847D02*
X116945551Y-79395847D01*
X116831265Y-79814895D02*
X117212217Y-79814895D01*
X117212217Y-79814895D02*
X117212217Y-79014895D01*
X117212217Y-79014895D02*
X116831265Y-79014895D01*
X116488407Y-79814895D02*
X116488407Y-79014895D01*
X116488407Y-79014895D02*
X116031264Y-79814895D01*
X116031264Y-79814895D02*
X116031264Y-79014895D01*
X120153104Y-85233020D02*
X120153104Y-84775877D01*
X119353104Y-85004449D02*
X120153104Y-85004449D01*
X119353104Y-84509210D02*
X119886438Y-84509210D01*
X120153104Y-84509210D02*
X120115009Y-84547306D01*
X120115009Y-84547306D02*
X120076914Y-84509210D01*
X120076914Y-84509210D02*
X120115009Y-84471115D01*
X120115009Y-84471115D02*
X120153104Y-84509210D01*
X120153104Y-84509210D02*
X120076914Y-84509210D01*
X119391200Y-83823496D02*
X119353104Y-83899687D01*
X119353104Y-83899687D02*
X119353104Y-84052068D01*
X119353104Y-84052068D02*
X119391200Y-84128258D01*
X119391200Y-84128258D02*
X119467390Y-84166354D01*
X119467390Y-84166354D02*
X119772152Y-84166354D01*
X119772152Y-84166354D02*
X119848342Y-84128258D01*
X119848342Y-84128258D02*
X119886438Y-84052068D01*
X119886438Y-84052068D02*
X119886438Y-83899687D01*
X119886438Y-83899687D02*
X119848342Y-83823496D01*
X119848342Y-83823496D02*
X119772152Y-83785401D01*
X119772152Y-83785401D02*
X119695961Y-83785401D01*
X119695961Y-83785401D02*
X119619771Y-84166354D01*
X119886438Y-82947306D02*
X119886438Y-82642544D01*
X119353104Y-82833020D02*
X120038819Y-82833020D01*
X120038819Y-82833020D02*
X120115009Y-82794925D01*
X120115009Y-82794925D02*
X120153104Y-82718735D01*
X120153104Y-82718735D02*
X120153104Y-82642544D01*
X119353104Y-82261592D02*
X119391200Y-82337782D01*
X119391200Y-82337782D02*
X119429295Y-82375877D01*
X119429295Y-82375877D02*
X119505485Y-82413973D01*
X119505485Y-82413973D02*
X119734057Y-82413973D01*
X119734057Y-82413973D02*
X119810247Y-82375877D01*
X119810247Y-82375877D02*
X119848342Y-82337782D01*
X119848342Y-82337782D02*
X119886438Y-82261592D01*
X119886438Y-82261592D02*
X119886438Y-82147306D01*
X119886438Y-82147306D02*
X119848342Y-82071115D01*
X119848342Y-82071115D02*
X119810247Y-82033020D01*
X119810247Y-82033020D02*
X119734057Y-81994925D01*
X119734057Y-81994925D02*
X119505485Y-81994925D01*
X119505485Y-81994925D02*
X119429295Y-82033020D01*
X119429295Y-82033020D02*
X119391200Y-82071115D01*
X119391200Y-82071115D02*
X119353104Y-82147306D01*
X119353104Y-82147306D02*
X119353104Y-82261592D01*
X119353104Y-81652067D02*
X119886438Y-81652067D01*
X119734057Y-81652067D02*
X119810247Y-81613972D01*
X119810247Y-81613972D02*
X119848342Y-81575877D01*
X119848342Y-81575877D02*
X119886438Y-81499686D01*
X119886438Y-81499686D02*
X119886438Y-81423496D01*
X119353104Y-80128258D02*
X119353104Y-80585401D01*
X119353104Y-80356829D02*
X120153104Y-80356829D01*
X120153104Y-80356829D02*
X120038819Y-80433020D01*
X120038819Y-80433020D02*
X119962628Y-80509210D01*
X119962628Y-80509210D02*
X119924533Y-80585401D01*
X120153104Y-79899686D02*
X119353104Y-79633019D01*
X119353104Y-79633019D02*
X120153104Y-79366353D01*
X119810247Y-78985401D02*
X119848342Y-79061591D01*
X119848342Y-79061591D02*
X119886438Y-79099686D01*
X119886438Y-79099686D02*
X119962628Y-79137782D01*
X119962628Y-79137782D02*
X120000723Y-79137782D01*
X120000723Y-79137782D02*
X120076914Y-79099686D01*
X120076914Y-79099686D02*
X120115009Y-79061591D01*
X120115009Y-79061591D02*
X120153104Y-78985401D01*
X120153104Y-78985401D02*
X120153104Y-78833020D01*
X120153104Y-78833020D02*
X120115009Y-78756829D01*
X120115009Y-78756829D02*
X120076914Y-78718734D01*
X120076914Y-78718734D02*
X120000723Y-78680639D01*
X120000723Y-78680639D02*
X119962628Y-78680639D01*
X119962628Y-78680639D02*
X119886438Y-78718734D01*
X119886438Y-78718734D02*
X119848342Y-78756829D01*
X119848342Y-78756829D02*
X119810247Y-78833020D01*
X119810247Y-78833020D02*
X119810247Y-78985401D01*
X119810247Y-78985401D02*
X119772152Y-79061591D01*
X119772152Y-79061591D02*
X119734057Y-79099686D01*
X119734057Y-79099686D02*
X119657866Y-79137782D01*
X119657866Y-79137782D02*
X119505485Y-79137782D01*
X119505485Y-79137782D02*
X119429295Y-79099686D01*
X119429295Y-79099686D02*
X119391200Y-79061591D01*
X119391200Y-79061591D02*
X119353104Y-78985401D01*
X119353104Y-78985401D02*
X119353104Y-78833020D01*
X119353104Y-78833020D02*
X119391200Y-78756829D01*
X119391200Y-78756829D02*
X119429295Y-78718734D01*
X119429295Y-78718734D02*
X119505485Y-78680639D01*
X119505485Y-78680639D02*
X119657866Y-78680639D01*
X119657866Y-78680639D02*
X119734057Y-78718734D01*
X119734057Y-78718734D02*
X119772152Y-78756829D01*
X119772152Y-78756829D02*
X119810247Y-78833020D01*
X125613561Y-69074122D02*
X126261180Y-69074122D01*
X126261180Y-69074122D02*
X126337371Y-69036027D01*
X126337371Y-69036027D02*
X126375466Y-68997931D01*
X126375466Y-68997931D02*
X126413561Y-68921741D01*
X126413561Y-68921741D02*
X126413561Y-68807455D01*
X126413561Y-68807455D02*
X126375466Y-68731265D01*
X126108800Y-69074122D02*
X126146895Y-68997931D01*
X126146895Y-68997931D02*
X126146895Y-68845550D01*
X126146895Y-68845550D02*
X126108800Y-68769360D01*
X126108800Y-68769360D02*
X126070704Y-68731265D01*
X126070704Y-68731265D02*
X125994514Y-68693169D01*
X125994514Y-68693169D02*
X125765942Y-68693169D01*
X125765942Y-68693169D02*
X125689752Y-68731265D01*
X125689752Y-68731265D02*
X125651657Y-68769360D01*
X125651657Y-68769360D02*
X125613561Y-68845550D01*
X125613561Y-68845550D02*
X125613561Y-68997931D01*
X125613561Y-68997931D02*
X125651657Y-69074122D01*
X126146895Y-69455075D02*
X125613561Y-69455075D01*
X125346895Y-69455075D02*
X125384990Y-69416979D01*
X125384990Y-69416979D02*
X125423085Y-69455075D01*
X125423085Y-69455075D02*
X125384990Y-69493170D01*
X125384990Y-69493170D02*
X125346895Y-69455075D01*
X125346895Y-69455075D02*
X125423085Y-69455075D01*
X125613561Y-69721741D02*
X125613561Y-70026503D01*
X125346895Y-69836027D02*
X126032609Y-69836027D01*
X126032609Y-69836027D02*
X126108800Y-69874122D01*
X126108800Y-69874122D02*
X126146895Y-69950312D01*
X126146895Y-69950312D02*
X126146895Y-70026503D01*
X126146895Y-70293170D02*
X125346895Y-70293170D01*
X126146895Y-70636027D02*
X125727847Y-70636027D01*
X125727847Y-70636027D02*
X125651657Y-70597932D01*
X125651657Y-70597932D02*
X125613561Y-70521741D01*
X125613561Y-70521741D02*
X125613561Y-70407455D01*
X125613561Y-70407455D02*
X125651657Y-70331265D01*
X125651657Y-70331265D02*
X125689752Y-70293170D01*
X125613561Y-71359837D02*
X126146895Y-71359837D01*
X125613561Y-71016980D02*
X126032609Y-71016980D01*
X126032609Y-71016980D02*
X126108800Y-71055075D01*
X126108800Y-71055075D02*
X126146895Y-71131265D01*
X126146895Y-71131265D02*
X126146895Y-71245551D01*
X126146895Y-71245551D02*
X126108800Y-71321742D01*
X126108800Y-71321742D02*
X126070704Y-71359837D01*
X126146895Y-71740790D02*
X125346895Y-71740790D01*
X125651657Y-71740790D02*
X125613561Y-71816980D01*
X125613561Y-71816980D02*
X125613561Y-71969361D01*
X125613561Y-71969361D02*
X125651657Y-72045552D01*
X125651657Y-72045552D02*
X125689752Y-72083647D01*
X125689752Y-72083647D02*
X125765942Y-72121742D01*
X125765942Y-72121742D02*
X125994514Y-72121742D01*
X125994514Y-72121742D02*
X126070704Y-72083647D01*
X126070704Y-72083647D02*
X126108800Y-72045552D01*
X126108800Y-72045552D02*
X126146895Y-71969361D01*
X126146895Y-71969361D02*
X126146895Y-71816980D01*
X126146895Y-71816980D02*
X126108800Y-71740790D01*
X126070704Y-72464600D02*
X126108800Y-72502695D01*
X126108800Y-72502695D02*
X126146895Y-72464600D01*
X126146895Y-72464600D02*
X126108800Y-72426504D01*
X126108800Y-72426504D02*
X126070704Y-72464600D01*
X126070704Y-72464600D02*
X126146895Y-72464600D01*
X126108800Y-73188409D02*
X126146895Y-73112218D01*
X126146895Y-73112218D02*
X126146895Y-72959837D01*
X126146895Y-72959837D02*
X126108800Y-72883647D01*
X126108800Y-72883647D02*
X126070704Y-72845552D01*
X126070704Y-72845552D02*
X125994514Y-72807456D01*
X125994514Y-72807456D02*
X125765942Y-72807456D01*
X125765942Y-72807456D02*
X125689752Y-72845552D01*
X125689752Y-72845552D02*
X125651657Y-72883647D01*
X125651657Y-72883647D02*
X125613561Y-72959837D01*
X125613561Y-72959837D02*
X125613561Y-73112218D01*
X125613561Y-73112218D02*
X125651657Y-73188409D01*
X126146895Y-73645551D02*
X126108800Y-73569361D01*
X126108800Y-73569361D02*
X126070704Y-73531266D01*
X126070704Y-73531266D02*
X125994514Y-73493170D01*
X125994514Y-73493170D02*
X125765942Y-73493170D01*
X125765942Y-73493170D02*
X125689752Y-73531266D01*
X125689752Y-73531266D02*
X125651657Y-73569361D01*
X125651657Y-73569361D02*
X125613561Y-73645551D01*
X125613561Y-73645551D02*
X125613561Y-73759837D01*
X125613561Y-73759837D02*
X125651657Y-73836028D01*
X125651657Y-73836028D02*
X125689752Y-73874123D01*
X125689752Y-73874123D02*
X125765942Y-73912218D01*
X125765942Y-73912218D02*
X125994514Y-73912218D01*
X125994514Y-73912218D02*
X126070704Y-73874123D01*
X126070704Y-73874123D02*
X126108800Y-73836028D01*
X126108800Y-73836028D02*
X126146895Y-73759837D01*
X126146895Y-73759837D02*
X126146895Y-73645551D01*
X126146895Y-74255076D02*
X125613561Y-74255076D01*
X125689752Y-74255076D02*
X125651657Y-74293171D01*
X125651657Y-74293171D02*
X125613561Y-74369361D01*
X125613561Y-74369361D02*
X125613561Y-74483647D01*
X125613561Y-74483647D02*
X125651657Y-74559838D01*
X125651657Y-74559838D02*
X125727847Y-74597933D01*
X125727847Y-74597933D02*
X126146895Y-74597933D01*
X125727847Y-74597933D02*
X125651657Y-74636028D01*
X125651657Y-74636028D02*
X125613561Y-74712219D01*
X125613561Y-74712219D02*
X125613561Y-74826504D01*
X125613561Y-74826504D02*
X125651657Y-74902695D01*
X125651657Y-74902695D02*
X125727847Y-74940790D01*
X125727847Y-74940790D02*
X126146895Y-74940790D01*
X125308800Y-75893171D02*
X126337371Y-75207457D01*
X125613561Y-76502695D02*
X126261180Y-76502695D01*
X126261180Y-76502695D02*
X126337371Y-76464600D01*
X126337371Y-76464600D02*
X126375466Y-76426504D01*
X126375466Y-76426504D02*
X126413561Y-76350314D01*
X126413561Y-76350314D02*
X126413561Y-76236028D01*
X126413561Y-76236028D02*
X126375466Y-76159838D01*
X126108800Y-76502695D02*
X126146895Y-76426504D01*
X126146895Y-76426504D02*
X126146895Y-76274123D01*
X126146895Y-76274123D02*
X126108800Y-76197933D01*
X126108800Y-76197933D02*
X126070704Y-76159838D01*
X126070704Y-76159838D02*
X125994514Y-76121742D01*
X125994514Y-76121742D02*
X125765942Y-76121742D01*
X125765942Y-76121742D02*
X125689752Y-76159838D01*
X125689752Y-76159838D02*
X125651657Y-76197933D01*
X125651657Y-76197933D02*
X125613561Y-76274123D01*
X125613561Y-76274123D02*
X125613561Y-76426504D01*
X125613561Y-76426504D02*
X125651657Y-76502695D01*
X126146895Y-77226505D02*
X125727847Y-77226505D01*
X125727847Y-77226505D02*
X125651657Y-77188410D01*
X125651657Y-77188410D02*
X125613561Y-77112219D01*
X125613561Y-77112219D02*
X125613561Y-76959838D01*
X125613561Y-76959838D02*
X125651657Y-76883648D01*
X126108800Y-77226505D02*
X126146895Y-77150314D01*
X126146895Y-77150314D02*
X126146895Y-76959838D01*
X126146895Y-76959838D02*
X126108800Y-76883648D01*
X126108800Y-76883648D02*
X126032609Y-76845552D01*
X126032609Y-76845552D02*
X125956419Y-76845552D01*
X125956419Y-76845552D02*
X125880228Y-76883648D01*
X125880228Y-76883648D02*
X125842133Y-76959838D01*
X125842133Y-76959838D02*
X125842133Y-77150314D01*
X125842133Y-77150314D02*
X125804038Y-77226505D01*
X126146895Y-77607458D02*
X125613561Y-77607458D01*
X125765942Y-77607458D02*
X125689752Y-77645553D01*
X125689752Y-77645553D02*
X125651657Y-77683648D01*
X125651657Y-77683648D02*
X125613561Y-77759839D01*
X125613561Y-77759839D02*
X125613561Y-77836029D01*
X126146895Y-78445553D02*
X125346895Y-78445553D01*
X126108800Y-78445553D02*
X126146895Y-78369362D01*
X126146895Y-78369362D02*
X126146895Y-78216981D01*
X126146895Y-78216981D02*
X126108800Y-78140791D01*
X126108800Y-78140791D02*
X126070704Y-78102696D01*
X126070704Y-78102696D02*
X125994514Y-78064600D01*
X125994514Y-78064600D02*
X125765942Y-78064600D01*
X125765942Y-78064600D02*
X125689752Y-78102696D01*
X125689752Y-78102696D02*
X125651657Y-78140791D01*
X125651657Y-78140791D02*
X125613561Y-78216981D01*
X125613561Y-78216981D02*
X125613561Y-78369362D01*
X125613561Y-78369362D02*
X125651657Y-78445553D01*
X125613561Y-78826506D02*
X126146895Y-78826506D01*
X125689752Y-78826506D02*
X125651657Y-78864601D01*
X125651657Y-78864601D02*
X125613561Y-78940791D01*
X125613561Y-78940791D02*
X125613561Y-79055077D01*
X125613561Y-79055077D02*
X125651657Y-79131268D01*
X125651657Y-79131268D02*
X125727847Y-79169363D01*
X125727847Y-79169363D02*
X126146895Y-79169363D01*
X126108800Y-79855078D02*
X126146895Y-79778887D01*
X126146895Y-79778887D02*
X126146895Y-79626506D01*
X126146895Y-79626506D02*
X126108800Y-79550316D01*
X126108800Y-79550316D02*
X126032609Y-79512220D01*
X126032609Y-79512220D02*
X125727847Y-79512220D01*
X125727847Y-79512220D02*
X125651657Y-79550316D01*
X125651657Y-79550316D02*
X125613561Y-79626506D01*
X125613561Y-79626506D02*
X125613561Y-79778887D01*
X125613561Y-79778887D02*
X125651657Y-79855078D01*
X125651657Y-79855078D02*
X125727847Y-79893173D01*
X125727847Y-79893173D02*
X125804038Y-79893173D01*
X125804038Y-79893173D02*
X125880228Y-79512220D01*
X126146895Y-80236030D02*
X125613561Y-80236030D01*
X125765942Y-80236030D02*
X125689752Y-80274125D01*
X125689752Y-80274125D02*
X125651657Y-80312220D01*
X125651657Y-80312220D02*
X125613561Y-80388411D01*
X125613561Y-80388411D02*
X125613561Y-80464601D01*
X126108800Y-80693172D02*
X126146895Y-80769363D01*
X126146895Y-80769363D02*
X126146895Y-80921744D01*
X126146895Y-80921744D02*
X126108800Y-80997934D01*
X126108800Y-80997934D02*
X126032609Y-81036030D01*
X126032609Y-81036030D02*
X125994514Y-81036030D01*
X125994514Y-81036030D02*
X125918323Y-80997934D01*
X125918323Y-80997934D02*
X125880228Y-80921744D01*
X125880228Y-80921744D02*
X125880228Y-80807458D01*
X125880228Y-80807458D02*
X125842133Y-80731268D01*
X125842133Y-80731268D02*
X125765942Y-80693172D01*
X125765942Y-80693172D02*
X125727847Y-80693172D01*
X125727847Y-80693172D02*
X125651657Y-80731268D01*
X125651657Y-80731268D02*
X125613561Y-80807458D01*
X125613561Y-80807458D02*
X125613561Y-80921744D01*
X125613561Y-80921744D02*
X125651657Y-80997934D01*
X118543827Y-65722918D02*
X118048589Y-65722918D01*
X118048589Y-65722918D02*
X118315255Y-66027680D01*
X118315255Y-66027680D02*
X118200970Y-66027680D01*
X118200970Y-66027680D02*
X118124779Y-66065775D01*
X118124779Y-66065775D02*
X118086684Y-66103870D01*
X118086684Y-66103870D02*
X118048589Y-66180061D01*
X118048589Y-66180061D02*
X118048589Y-66370537D01*
X118048589Y-66370537D02*
X118086684Y-66446727D01*
X118086684Y-66446727D02*
X118124779Y-66484823D01*
X118124779Y-66484823D02*
X118200970Y-66522918D01*
X118200970Y-66522918D02*
X118429541Y-66522918D01*
X118429541Y-66522918D02*
X118505732Y-66484823D01*
X118505732Y-66484823D02*
X118543827Y-66446727D01*
X117820017Y-65722918D02*
X117553350Y-66522918D01*
X117553350Y-66522918D02*
X117286684Y-65722918D01*
X117096208Y-65722918D02*
X116600970Y-65722918D01*
X116600970Y-65722918D02*
X116867636Y-66027680D01*
X116867636Y-66027680D02*
X116753351Y-66027680D01*
X116753351Y-66027680D02*
X116677160Y-66065775D01*
X116677160Y-66065775D02*
X116639065Y-66103870D01*
X116639065Y-66103870D02*
X116600970Y-66180061D01*
X116600970Y-66180061D02*
X116600970Y-66370537D01*
X116600970Y-66370537D02*
X116639065Y-66446727D01*
X116639065Y-66446727D02*
X116677160Y-66484823D01*
X116677160Y-66484823D02*
X116753351Y-66522918D01*
X116753351Y-66522918D02*
X116981922Y-66522918D01*
X116981922Y-66522918D02*
X117058113Y-66484823D01*
X117058113Y-66484823D02*
X117096208Y-66446727D01*
X118391445Y-67010873D02*
X118239064Y-67010873D01*
X118239064Y-67010873D02*
X118162874Y-67048968D01*
X118162874Y-67048968D02*
X118086683Y-67125158D01*
X118086683Y-67125158D02*
X118048588Y-67277539D01*
X118048588Y-67277539D02*
X118048588Y-67544206D01*
X118048588Y-67544206D02*
X118086683Y-67696587D01*
X118086683Y-67696587D02*
X118162874Y-67772778D01*
X118162874Y-67772778D02*
X118239064Y-67810873D01*
X118239064Y-67810873D02*
X118391445Y-67810873D01*
X118391445Y-67810873D02*
X118467636Y-67772778D01*
X118467636Y-67772778D02*
X118543826Y-67696587D01*
X118543826Y-67696587D02*
X118581922Y-67544206D01*
X118581922Y-67544206D02*
X118581922Y-67277539D01*
X118581922Y-67277539D02*
X118543826Y-67125158D01*
X118543826Y-67125158D02*
X118467636Y-67048968D01*
X118467636Y-67048968D02*
X118391445Y-67010873D01*
X117705731Y-67010873D02*
X117705731Y-67658492D01*
X117705731Y-67658492D02*
X117667636Y-67734682D01*
X117667636Y-67734682D02*
X117629541Y-67772778D01*
X117629541Y-67772778D02*
X117553350Y-67810873D01*
X117553350Y-67810873D02*
X117400969Y-67810873D01*
X117400969Y-67810873D02*
X117324779Y-67772778D01*
X117324779Y-67772778D02*
X117286684Y-67734682D01*
X117286684Y-67734682D02*
X117248588Y-67658492D01*
X117248588Y-67658492D02*
X117248588Y-67010873D01*
X116981922Y-67010873D02*
X116524779Y-67010873D01*
X116753351Y-67810873D02*
X116753351Y-67010873D01*
X118851503Y-82289895D02*
X118851503Y-81489895D01*
X118851503Y-81489895D02*
X118584837Y-82061323D01*
X118584837Y-82061323D02*
X118318170Y-81489895D01*
X118318170Y-81489895D02*
X118318170Y-82289895D01*
X117784836Y-81489895D02*
X117632455Y-81489895D01*
X117632455Y-81489895D02*
X117556265Y-81527990D01*
X117556265Y-81527990D02*
X117480074Y-81604180D01*
X117480074Y-81604180D02*
X117441979Y-81756561D01*
X117441979Y-81756561D02*
X117441979Y-82023228D01*
X117441979Y-82023228D02*
X117480074Y-82175609D01*
X117480074Y-82175609D02*
X117556265Y-82251800D01*
X117556265Y-82251800D02*
X117632455Y-82289895D01*
X117632455Y-82289895D02*
X117784836Y-82289895D01*
X117784836Y-82289895D02*
X117861027Y-82251800D01*
X117861027Y-82251800D02*
X117937217Y-82175609D01*
X117937217Y-82175609D02*
X117975313Y-82023228D01*
X117975313Y-82023228D02*
X117975313Y-81756561D01*
X117975313Y-81756561D02*
X117937217Y-81604180D01*
X117937217Y-81604180D02*
X117861027Y-81527990D01*
X117861027Y-81527990D02*
X117784836Y-81489895D01*
X117099122Y-82289895D02*
X117099122Y-81489895D01*
X117099122Y-81489895D02*
X116908646Y-81489895D01*
X116908646Y-81489895D02*
X116794360Y-81527990D01*
X116794360Y-81527990D02*
X116718170Y-81604180D01*
X116718170Y-81604180D02*
X116680075Y-81680371D01*
X116680075Y-81680371D02*
X116641979Y-81832752D01*
X116641979Y-81832752D02*
X116641979Y-81947038D01*
X116641979Y-81947038D02*
X116680075Y-82099419D01*
X116680075Y-82099419D02*
X116718170Y-82175609D01*
X116718170Y-82175609D02*
X116794360Y-82251800D01*
X116794360Y-82251800D02*
X116908646Y-82289895D01*
X116908646Y-82289895D02*
X117099122Y-82289895D01*
X116299122Y-81870847D02*
X116032456Y-81870847D01*
X115918170Y-82289895D02*
X116299122Y-82289895D01*
X116299122Y-82289895D02*
X116299122Y-81489895D01*
X116299122Y-81489895D02*
X115918170Y-81489895D01*
%LPC*%
D11*
X127735000Y-66675000D03*
G36*
G01*
X125410000Y-67050000D02*
X125410000Y-66300000D01*
G75*
G02*
X125660000Y-66050000I250000J0D01*
G01*
X126410000Y-66050000D01*
G75*
G02*
X126660000Y-66300000I0J-250000D01*
G01*
X126660000Y-67050000D01*
G75*
G02*
X126410000Y-67300000I-250000J0D01*
G01*
X125660000Y-67300000D01*
G75*
G02*
X125410000Y-67050000I0J250000D01*
G01*
G37*
X127735000Y-84455000D03*
G36*
G01*
X125410000Y-84830000D02*
X125410000Y-84080000D01*
G75*
G02*
X125660000Y-83830000I250000J0D01*
G01*
X126410000Y-83830000D01*
G75*
G02*
X126660000Y-84080000I0J-250000D01*
G01*
X126660000Y-84830000D01*
G75*
G02*
X126410000Y-85080000I-250000J0D01*
G01*
X125660000Y-85080000D01*
G75*
G02*
X125410000Y-84830000I0J250000D01*
G01*
G37*
G36*
G01*
X113810000Y-67050000D02*
X113810000Y-66300000D01*
G75*
G02*
X114060000Y-66050000I250000J0D01*
G01*
X114810000Y-66050000D01*
G75*
G02*
X115060000Y-66300000I0J-250000D01*
G01*
X115060000Y-67050000D01*
G75*
G02*
X114810000Y-67300000I-250000J0D01*
G01*
X114060000Y-67300000D01*
G75*
G02*
X113810000Y-67050000I0J250000D01*
G01*
G37*
X112735000Y-66675000D03*
G36*
G01*
X113810000Y-79750000D02*
X113810000Y-79000000D01*
G75*
G02*
X114060000Y-78750000I250000J0D01*
G01*
X114810000Y-78750000D01*
G75*
G02*
X115060000Y-79000000I0J-250000D01*
G01*
X115060000Y-79750000D01*
G75*
G02*
X114810000Y-80000000I-250000J0D01*
G01*
X114060000Y-80000000D01*
G75*
G02*
X113810000Y-79750000I0J250000D01*
G01*
G37*
X112735000Y-79375000D03*
G36*
G01*
X113810000Y-82290000D02*
X113810000Y-81540000D01*
G75*
G02*
X114060000Y-81290000I250000J0D01*
G01*
X114810000Y-81290000D01*
G75*
G02*
X115060000Y-81540000I0J-250000D01*
G01*
X115060000Y-82290000D01*
G75*
G02*
X114810000Y-82540000I-250000J0D01*
G01*
X114060000Y-82540000D01*
G75*
G02*
X113810000Y-82290000I0J250000D01*
G01*
G37*
X112735000Y-81915000D03*
G36*
G01*
X113810000Y-84830000D02*
X113810000Y-84080000D01*
G75*
G02*
X114060000Y-83830000I250000J0D01*
G01*
X114810000Y-83830000D01*
G75*
G02*
X115060000Y-84080000I0J-250000D01*
G01*
X115060000Y-84830000D01*
G75*
G02*
X114810000Y-85080000I-250000J0D01*
G01*
X114060000Y-85080000D01*
G75*
G02*
X113810000Y-84830000I0J250000D01*
G01*
G37*
X112735000Y-84455000D03*
%LPD*%
M02*
