M48
; DRILL file {KiCad 9.0.1+1} date 2025-11-12T15:34:57+0000
; FORMAT={-:-/ absolute / inch / decimal}
; #@! TF.CreationDate,2025-11-12T15:34:57+00:00
; #@! TF.GenerationSoftware,Kicad,Pcbnew,9.0.1+1
; #@! TF.FileFunction,Plated,1,2,PTH
FMAT,2
INCH
; #@! TA.AperFunction,Plated,PTH,ViaDrill
T1C0.0098
; #@! TA.AperFunction,Plated,PTH,ViaDrill
T2C0.0118
; #@! TA.AperFunction,Plated,PTH,ComponentDrill
T3C0.0295
; #@! TA.AperFunction,Plated,PTH,ComponentDrill
T4C0.0591
%
G90
G05
T1
X4.4715Y-2.75
X4.4764Y-2.9852
X4.4774Y-2.8061
X4.4774Y-2.9055
X4.4774Y-3.0453
X4.4961Y-2.6904
X4.5256Y-2.6904
X4.5315Y-3.0079
X4.5315Y-3.0787
X4.5325Y-2.9518
X4.5541Y-2.8406
X4.5551Y-2.6904
X4.5659Y-3.249
X4.5837Y-3.1122
X4.5886Y-2.753
X4.5935Y-2.692
X4.6162Y-2.7225
X4.6162Y-2.752
X4.628Y-2.8169
X4.6368Y-2.9252
X4.6447Y-3.2598
X4.6516Y-3.1122
X4.6663Y-3.0069
X4.6693Y-2.938
X4.6742Y-3.2598
X4.6811Y-3.1122
X4.6831Y-2.8996
X4.686Y-2.875
X4.7037Y-2.7667
X4.7037Y-3.2598
X4.7047Y-2.9114
X4.7106Y-3.1122
X4.7116Y-2.8888
X4.7352Y-2.7441
X4.7382Y-3.1122
X4.7461Y-2.8189
X4.747Y-2.9409
X4.749Y-3.0089
X4.7677Y-3.1122
X4.7854Y-2.7815
X4.7972Y-3.1122
X4.8543Y-2.747
X4.8543Y-2.7766
X4.874Y-2.9803
X4.874Y-3.0098
X4.874Y-3.0394
X4.8839Y-2.747
X4.8839Y-2.7766
X4.8858Y-2.6831
X4.9035Y-2.9803
X4.9035Y-3.0098
X4.9035Y-3.0394
X4.9134Y-2.747
X4.9134Y-2.7766
X4.9154Y-2.6831
X4.9449Y-2.6831
T2
X4.9167Y-3.1583
T3
X4.5053Y-2.625
X4.5053Y-3.125
X4.5053Y-3.225
X4.5053Y-3.325
X4.962Y-2.625
X4.962Y-3.325
T4
G00X4.4482Y-2.625
M15
G01X4.4285Y-2.625
M16
G05
G00X4.4482Y-3.125
M15
G01X4.4285Y-3.125
M16
G05
G00X4.4482Y-3.225
M15
G01X4.4285Y-3.225
M16
G05
G00X4.4482Y-3.325
M15
G01X4.4285Y-3.325
M16
G05
G00X5.0388Y-2.625
M15
G01X5.0191Y-2.625
M16
G05
G00X5.0388Y-3.325
M15
G01X5.0191Y-3.325
M16
G05
M30
