G04 #@! TF.GenerationSoftware,KiCad,Pcbnew,9.0.1+1*
G04 #@! TF.CreationDate,2025-11-11T08:29:37+00:00*
G04 #@! TF.ProjectId,megaphone-low-current-dc-dc-converter,6d656761-7068-46f6-9e65-2d6c6f772d63,0.2*
G04 #@! TF.SameCoordinates,Original*
G04 #@! TF.FileFunction,Soldermask,Top*
G04 #@! TF.FilePolarity,Negative*
%FSLAX46Y46*%
G04 Gerber Fmt 4.6, Leading zero omitted, Abs format (unit mm)*
G04 Created by KiCad (PCBNEW 9.0.1+1) date 2025-11-11 08:29:37*
%MOMM*%
%LPD*%
G01*
G04 APERTURE LIST*
%ADD10C,0.010000*%
%ADD11R,2.540000X2.000000*%
G04 APERTURE END LIST*
D10*
X121241000Y-72675000D02*
X120481000Y-72675000D01*
X120481000Y-72255000D01*
X121241000Y-72255000D01*
X121241000Y-72675000D01*
G36*
X121241000Y-72675000D02*
G01*
X120481000Y-72675000D01*
X120481000Y-72255000D01*
X121241000Y-72255000D01*
X121241000Y-72675000D01*
G37*
X121241000Y-73175000D02*
X120481000Y-73175000D01*
X120481000Y-72755000D01*
X121241000Y-72755000D01*
X121241000Y-73175000D01*
G36*
X121241000Y-73175000D02*
G01*
X120481000Y-73175000D01*
X120481000Y-72755000D01*
X121241000Y-72755000D01*
X121241000Y-73175000D01*
G37*
X121241000Y-73675000D02*
X120481000Y-73675000D01*
X120481000Y-73255000D01*
X121241000Y-73255000D01*
X121241000Y-73675000D01*
G36*
X121241000Y-73675000D02*
G01*
X120481000Y-73675000D01*
X120481000Y-73255000D01*
X121241000Y-73255000D01*
X121241000Y-73675000D01*
G37*
X121241000Y-74175000D02*
X120481000Y-74175000D01*
X120481000Y-73755000D01*
X121241000Y-73755000D01*
X121241000Y-74175000D01*
G36*
X121241000Y-74175000D02*
G01*
X120481000Y-74175000D01*
X120481000Y-73755000D01*
X121241000Y-73755000D01*
X121241000Y-74175000D01*
G37*
X122711000Y-72675000D02*
X121951000Y-72675000D01*
X121951000Y-72255000D01*
X122711000Y-72255000D01*
X122711000Y-72675000D01*
G36*
X122711000Y-72675000D02*
G01*
X121951000Y-72675000D01*
X121951000Y-72255000D01*
X122711000Y-72255000D01*
X122711000Y-72675000D01*
G37*
X122711000Y-73175000D02*
X121951000Y-73175000D01*
X121951000Y-72755000D01*
X122711000Y-72755000D01*
X122711000Y-73175000D01*
G36*
X122711000Y-73175000D02*
G01*
X121951000Y-73175000D01*
X121951000Y-72755000D01*
X122711000Y-72755000D01*
X122711000Y-73175000D01*
G37*
X122711000Y-73675000D02*
X121951000Y-73675000D01*
X121951000Y-73255000D01*
X122711000Y-73255000D01*
X122711000Y-73675000D01*
G36*
X122711000Y-73675000D02*
G01*
X121951000Y-73675000D01*
X121951000Y-73255000D01*
X122711000Y-73255000D01*
X122711000Y-73675000D01*
G37*
X122711000Y-74175000D02*
X121951000Y-74175000D01*
X121951000Y-73755000D01*
X122711000Y-73755000D01*
X122711000Y-74175000D01*
G36*
X122711000Y-74175000D02*
G01*
X121951000Y-74175000D01*
X121951000Y-73755000D01*
X122711000Y-73755000D01*
X122711000Y-74175000D01*
G37*
G36*
G01*
X119738000Y-71125000D02*
X119738000Y-70175000D01*
G75*
G02*
X119988000Y-69925000I250000J0D01*
G01*
X120488000Y-69925000D01*
G75*
G02*
X120738000Y-70175000I0J-250000D01*
G01*
X120738000Y-71125000D01*
G75*
G02*
X120488000Y-71375000I-250000J0D01*
G01*
X119988000Y-71375000D01*
G75*
G02*
X119738000Y-71125000I0J250000D01*
G01*
G37*
G36*
G01*
X121638000Y-71125000D02*
X121638000Y-70175000D01*
G75*
G02*
X121888000Y-69925000I250000J0D01*
G01*
X122388000Y-69925000D01*
G75*
G02*
X122638000Y-70175000I0J-250000D01*
G01*
X122638000Y-71125000D01*
G75*
G02*
X122388000Y-71375000I-250000J0D01*
G01*
X121888000Y-71375000D01*
G75*
G02*
X121638000Y-71125000I0J250000D01*
G01*
G37*
G36*
G01*
X123800001Y-71220500D02*
X125499999Y-71220500D01*
G75*
G02*
X125750000Y-71470501I0J-250001D01*
G01*
X125750000Y-72395499D01*
G75*
G02*
X125499999Y-72645500I-250001J0D01*
G01*
X123800001Y-72645500D01*
G75*
G02*
X123550000Y-72395499I0J250001D01*
G01*
X123550000Y-71470501D01*
G75*
G02*
X123800001Y-71220500I250001J0D01*
G01*
G37*
G36*
G01*
X123800001Y-73545500D02*
X125499999Y-73545500D01*
G75*
G02*
X125750000Y-73795501I0J-250001D01*
G01*
X125750000Y-74720499D01*
G75*
G02*
X125499999Y-74970500I-250001J0D01*
G01*
X123800001Y-74970500D01*
G75*
G02*
X123550000Y-74720499I0J250001D01*
G01*
X123550000Y-73795501D01*
G75*
G02*
X123800001Y-73545500I250001J0D01*
G01*
G37*
G36*
G01*
X122975000Y-75100000D02*
X122975000Y-76050000D01*
G75*
G02*
X122725000Y-76300000I-250000J0D01*
G01*
X122225000Y-76300000D01*
G75*
G02*
X121975000Y-76050000I0J250000D01*
G01*
X121975000Y-75100000D01*
G75*
G02*
X122225000Y-74850000I250000J0D01*
G01*
X122725000Y-74850000D01*
G75*
G02*
X122975000Y-75100000I0J-250000D01*
G01*
G37*
G36*
G01*
X121075000Y-75100000D02*
X121075000Y-76050000D01*
G75*
G02*
X120825000Y-76300000I-250000J0D01*
G01*
X120325000Y-76300000D01*
G75*
G02*
X120075000Y-76050000I0J250000D01*
G01*
X120075000Y-75100000D01*
G75*
G02*
X120325000Y-74850000I250000J0D01*
G01*
X120825000Y-74850000D01*
G75*
G02*
X121075000Y-75100000I0J-250000D01*
G01*
G37*
G36*
G01*
X116275000Y-78100000D02*
X116275000Y-77200000D01*
G75*
G02*
X116525000Y-76950000I250000J0D01*
G01*
X117050000Y-76950000D01*
G75*
G02*
X117300000Y-77200000I0J-250000D01*
G01*
X117300000Y-78100000D01*
G75*
G02*
X117050000Y-78350000I-250000J0D01*
G01*
X116525000Y-78350000D01*
G75*
G02*
X116275000Y-78100000I0J250000D01*
G01*
G37*
G36*
G01*
X118100000Y-78100000D02*
X118100000Y-77200000D01*
G75*
G02*
X118350000Y-76950000I250000J0D01*
G01*
X118875000Y-76950000D01*
G75*
G02*
X119125000Y-77200000I0J-250000D01*
G01*
X119125000Y-78100000D01*
G75*
G02*
X118875000Y-78350000I-250000J0D01*
G01*
X118350000Y-78350000D01*
G75*
G02*
X118100000Y-78100000I0J250000D01*
G01*
G37*
G36*
G01*
X122975000Y-77200000D02*
X122975000Y-78100000D01*
G75*
G02*
X122725000Y-78350000I-250000J0D01*
G01*
X122200000Y-78350000D01*
G75*
G02*
X121950000Y-78100000I0J250000D01*
G01*
X121950000Y-77200000D01*
G75*
G02*
X122200000Y-76950000I250000J0D01*
G01*
X122725000Y-76950000D01*
G75*
G02*
X122975000Y-77200000I0J-250000D01*
G01*
G37*
G36*
G01*
X121150000Y-77200000D02*
X121150000Y-78100000D01*
G75*
G02*
X120900000Y-78350000I-250000J0D01*
G01*
X120375000Y-78350000D01*
G75*
G02*
X120125000Y-78100000I0J250000D01*
G01*
X120125000Y-77200000D01*
G75*
G02*
X120375000Y-76950000I250000J0D01*
G01*
X120900000Y-76950000D01*
G75*
G02*
X121150000Y-77200000I0J-250000D01*
G01*
G37*
G36*
G01*
X116225000Y-75950000D02*
X116225000Y-75050000D01*
G75*
G02*
X116475000Y-74800000I250000J0D01*
G01*
X117000000Y-74800000D01*
G75*
G02*
X117250000Y-75050000I0J-250000D01*
G01*
X117250000Y-75950000D01*
G75*
G02*
X117000000Y-76200000I-250000J0D01*
G01*
X116475000Y-76200000D01*
G75*
G02*
X116225000Y-75950000I0J250000D01*
G01*
G37*
G36*
G01*
X118050000Y-75950000D02*
X118050000Y-75050000D01*
G75*
G02*
X118300000Y-74800000I250000J0D01*
G01*
X118825000Y-74800000D01*
G75*
G02*
X119075000Y-75050000I0J-250000D01*
G01*
X119075000Y-75950000D01*
G75*
G02*
X118825000Y-76200000I-250000J0D01*
G01*
X118300000Y-76200000D01*
G75*
G02*
X118050000Y-75950000I0J250000D01*
G01*
G37*
G36*
G01*
X118350000Y-73050000D02*
X118350000Y-73950000D01*
G75*
G02*
X118100000Y-74200000I-250000J0D01*
G01*
X117575000Y-74200000D01*
G75*
G02*
X117325000Y-73950000I0J250000D01*
G01*
X117325000Y-73050000D01*
G75*
G02*
X117575000Y-72800000I250000J0D01*
G01*
X118100000Y-72800000D01*
G75*
G02*
X118350000Y-73050000I0J-250000D01*
G01*
G37*
G36*
G01*
X116525000Y-73050000D02*
X116525000Y-73950000D01*
G75*
G02*
X116275000Y-74200000I-250000J0D01*
G01*
X115750000Y-74200000D01*
G75*
G02*
X115500000Y-73950000I0J250000D01*
G01*
X115500000Y-73050000D01*
G75*
G02*
X115750000Y-72800000I250000J0D01*
G01*
X116275000Y-72800000D01*
G75*
G02*
X116525000Y-73050000I0J-250000D01*
G01*
G37*
D11*
X127735000Y-66675000D03*
G36*
G01*
X125410000Y-67050000D02*
X125410000Y-66300000D01*
G75*
G02*
X125660000Y-66050000I250000J0D01*
G01*
X126410000Y-66050000D01*
G75*
G02*
X126660000Y-66300000I0J-250000D01*
G01*
X126660000Y-67050000D01*
G75*
G02*
X126410000Y-67300000I-250000J0D01*
G01*
X125660000Y-67300000D01*
G75*
G02*
X125410000Y-67050000I0J250000D01*
G01*
G37*
X127735000Y-84455000D03*
G36*
G01*
X125410000Y-84830000D02*
X125410000Y-84080000D01*
G75*
G02*
X125660000Y-83830000I250000J0D01*
G01*
X126410000Y-83830000D01*
G75*
G02*
X126660000Y-84080000I0J-250000D01*
G01*
X126660000Y-84830000D01*
G75*
G02*
X126410000Y-85080000I-250000J0D01*
G01*
X125660000Y-85080000D01*
G75*
G02*
X125410000Y-84830000I0J250000D01*
G01*
G37*
G36*
G01*
X113810000Y-67050000D02*
X113810000Y-66300000D01*
G75*
G02*
X114060000Y-66050000I250000J0D01*
G01*
X114810000Y-66050000D01*
G75*
G02*
X115060000Y-66300000I0J-250000D01*
G01*
X115060000Y-67050000D01*
G75*
G02*
X114810000Y-67300000I-250000J0D01*
G01*
X114060000Y-67300000D01*
G75*
G02*
X113810000Y-67050000I0J250000D01*
G01*
G37*
X112735000Y-66675000D03*
G36*
G01*
X113810000Y-79750000D02*
X113810000Y-79000000D01*
G75*
G02*
X114060000Y-78750000I250000J0D01*
G01*
X114810000Y-78750000D01*
G75*
G02*
X115060000Y-79000000I0J-250000D01*
G01*
X115060000Y-79750000D01*
G75*
G02*
X114810000Y-80000000I-250000J0D01*
G01*
X114060000Y-80000000D01*
G75*
G02*
X113810000Y-79750000I0J250000D01*
G01*
G37*
X112735000Y-79375000D03*
G36*
G01*
X113810000Y-82290000D02*
X113810000Y-81540000D01*
G75*
G02*
X114060000Y-81290000I250000J0D01*
G01*
X114810000Y-81290000D01*
G75*
G02*
X115060000Y-81540000I0J-250000D01*
G01*
X115060000Y-82290000D01*
G75*
G02*
X114810000Y-82540000I-250000J0D01*
G01*
X114060000Y-82540000D01*
G75*
G02*
X113810000Y-82290000I0J250000D01*
G01*
G37*
X112735000Y-81915000D03*
G36*
G01*
X113810000Y-84830000D02*
X113810000Y-84080000D01*
G75*
G02*
X114060000Y-83830000I250000J0D01*
G01*
X114810000Y-83830000D01*
G75*
G02*
X115060000Y-84080000I0J-250000D01*
G01*
X115060000Y-84830000D01*
G75*
G02*
X114810000Y-85080000I-250000J0D01*
G01*
X114060000Y-85080000D01*
G75*
G02*
X113810000Y-84830000I0J250000D01*
G01*
G37*
X112735000Y-84455000D03*
M02*
