G04 #@! TF.GenerationSoftware,KiCad,Pcbnew,9.0.1+1*
G04 #@! TF.CreationDate,2025-11-12T15:12:14+00:00*
G04 #@! TF.ProjectId,megaphone-low-current-dc-dc-converter,6d656761-7068-46f6-9e65-2d6c6f772d63,0.2*
G04 #@! TF.SameCoordinates,Original*
G04 #@! TF.FileFunction,Soldermask,Bot*
G04 #@! TF.FilePolarity,Negative*
%FSLAX46Y46*%
G04 Gerber Fmt 4.6, Leading zero omitted, Abs format (unit mm)*
G04 Created by KiCad (PCBNEW 9.0.1+1) date 2025-11-12 15:12:14*
%MOMM*%
%LPD*%
G01*
G04 APERTURE LIST*
%ADD10R,2.540000X2.000000*%
G04 APERTURE END LIST*
D10*
X127735000Y-66675000D03*
G36*
G01*
X125410000Y-67050000D02*
X125410000Y-66300000D01*
G75*
G02*
X125660000Y-66050000I250000J0D01*
G01*
X126410000Y-66050000D01*
G75*
G02*
X126660000Y-66300000I0J-250000D01*
G01*
X126660000Y-67050000D01*
G75*
G02*
X126410000Y-67300000I-250000J0D01*
G01*
X125660000Y-67300000D01*
G75*
G02*
X125410000Y-67050000I0J250000D01*
G01*
G37*
X127735000Y-84455000D03*
G36*
G01*
X125410000Y-84830000D02*
X125410000Y-84080000D01*
G75*
G02*
X125660000Y-83830000I250000J0D01*
G01*
X126410000Y-83830000D01*
G75*
G02*
X126660000Y-84080000I0J-250000D01*
G01*
X126660000Y-84830000D01*
G75*
G02*
X126410000Y-85080000I-250000J0D01*
G01*
X125660000Y-85080000D01*
G75*
G02*
X125410000Y-84830000I0J250000D01*
G01*
G37*
G36*
G01*
X113810000Y-67050000D02*
X113810000Y-66300000D01*
G75*
G02*
X114060000Y-66050000I250000J0D01*
G01*
X114810000Y-66050000D01*
G75*
G02*
X115060000Y-66300000I0J-250000D01*
G01*
X115060000Y-67050000D01*
G75*
G02*
X114810000Y-67300000I-250000J0D01*
G01*
X114060000Y-67300000D01*
G75*
G02*
X113810000Y-67050000I0J250000D01*
G01*
G37*
X112735000Y-66675000D03*
G36*
G01*
X113810000Y-79750000D02*
X113810000Y-79000000D01*
G75*
G02*
X114060000Y-78750000I250000J0D01*
G01*
X114810000Y-78750000D01*
G75*
G02*
X115060000Y-79000000I0J-250000D01*
G01*
X115060000Y-79750000D01*
G75*
G02*
X114810000Y-80000000I-250000J0D01*
G01*
X114060000Y-80000000D01*
G75*
G02*
X113810000Y-79750000I0J250000D01*
G01*
G37*
X112735000Y-79375000D03*
G36*
G01*
X113810000Y-82290000D02*
X113810000Y-81540000D01*
G75*
G02*
X114060000Y-81290000I250000J0D01*
G01*
X114810000Y-81290000D01*
G75*
G02*
X115060000Y-81540000I0J-250000D01*
G01*
X115060000Y-82290000D01*
G75*
G02*
X114810000Y-82540000I-250000J0D01*
G01*
X114060000Y-82540000D01*
G75*
G02*
X113810000Y-82290000I0J250000D01*
G01*
G37*
X112735000Y-81915000D03*
G36*
G01*
X113810000Y-84830000D02*
X113810000Y-84080000D01*
G75*
G02*
X114060000Y-83830000I250000J0D01*
G01*
X114810000Y-83830000D01*
G75*
G02*
X115060000Y-84080000I0J-250000D01*
G01*
X115060000Y-84830000D01*
G75*
G02*
X114810000Y-85080000I-250000J0D01*
G01*
X114060000Y-85080000D01*
G75*
G02*
X113810000Y-84830000I0J250000D01*
G01*
G37*
X112735000Y-84455000D03*
M02*
