G04 #@! TF.GenerationSoftware,KiCad,Pcbnew,9.0.1+1*
G04 #@! TF.CreationDate,2025-11-11T08:29:37+00:00*
G04 #@! TF.ProjectId,megaphone-low-current-dc-dc-converter,6d656761-7068-46f6-9e65-2d6c6f772d63,0.2*
G04 #@! TF.SameCoordinates,Original*
G04 #@! TF.FileFunction,Legend,Top*
G04 #@! TF.FilePolarity,Positive*
%FSLAX46Y46*%
G04 Gerber Fmt 4.6, Leading zero omitted, Abs format (unit mm)*
G04 Created by KiCad (PCBNEW 9.0.1+1) date 2025-11-11 08:29:37*
%MOMM*%
%LPD*%
G01*
G04 APERTURE LIST*
%ADD10C,0.100000*%
%ADD11C,0.150000*%
%ADD12C,0.120000*%
%ADD13C,0.127000*%
%ADD14C,0.200000*%
%ADD15C,0.010000*%
%ADD16R,2.540000X2.000000*%
G04 APERTURE END LIST*
D10*
X127171895Y-80112782D02*
X127171895Y-80493734D01*
X127171895Y-80493734D02*
X126371895Y-80493734D01*
X127171895Y-79731830D02*
X127133800Y-79808020D01*
X127133800Y-79808020D02*
X127095704Y-79846115D01*
X127095704Y-79846115D02*
X127019514Y-79884211D01*
X127019514Y-79884211D02*
X126790942Y-79884211D01*
X126790942Y-79884211D02*
X126714752Y-79846115D01*
X126714752Y-79846115D02*
X126676657Y-79808020D01*
X126676657Y-79808020D02*
X126638561Y-79731830D01*
X126638561Y-79731830D02*
X126638561Y-79617544D01*
X126638561Y-79617544D02*
X126676657Y-79541353D01*
X126676657Y-79541353D02*
X126714752Y-79503258D01*
X126714752Y-79503258D02*
X126790942Y-79465163D01*
X126790942Y-79465163D02*
X127019514Y-79465163D01*
X127019514Y-79465163D02*
X127095704Y-79503258D01*
X127095704Y-79503258D02*
X127133800Y-79541353D01*
X127133800Y-79541353D02*
X127171895Y-79617544D01*
X127171895Y-79617544D02*
X127171895Y-79731830D01*
X126638561Y-79198496D02*
X127171895Y-79046115D01*
X127171895Y-79046115D02*
X126790942Y-78893734D01*
X126790942Y-78893734D02*
X127171895Y-78741353D01*
X127171895Y-78741353D02*
X126638561Y-78588972D01*
X126867133Y-78284210D02*
X126867133Y-77674687D01*
X127095704Y-76836591D02*
X127133800Y-76874687D01*
X127133800Y-76874687D02*
X127171895Y-76988972D01*
X127171895Y-76988972D02*
X127171895Y-77065163D01*
X127171895Y-77065163D02*
X127133800Y-77179449D01*
X127133800Y-77179449D02*
X127057609Y-77255639D01*
X127057609Y-77255639D02*
X126981419Y-77293734D01*
X126981419Y-77293734D02*
X126829038Y-77331830D01*
X126829038Y-77331830D02*
X126714752Y-77331830D01*
X126714752Y-77331830D02*
X126562371Y-77293734D01*
X126562371Y-77293734D02*
X126486180Y-77255639D01*
X126486180Y-77255639D02*
X126409990Y-77179449D01*
X126409990Y-77179449D02*
X126371895Y-77065163D01*
X126371895Y-77065163D02*
X126371895Y-76988972D01*
X126371895Y-76988972D02*
X126409990Y-76874687D01*
X126409990Y-76874687D02*
X126448085Y-76836591D01*
X126638561Y-76150877D02*
X127171895Y-76150877D01*
X126638561Y-76493734D02*
X127057609Y-76493734D01*
X127057609Y-76493734D02*
X127133800Y-76455639D01*
X127133800Y-76455639D02*
X127171895Y-76379449D01*
X127171895Y-76379449D02*
X127171895Y-76265163D01*
X127171895Y-76265163D02*
X127133800Y-76188972D01*
X127133800Y-76188972D02*
X127095704Y-76150877D01*
X127171895Y-75769924D02*
X126638561Y-75769924D01*
X126790942Y-75769924D02*
X126714752Y-75731829D01*
X126714752Y-75731829D02*
X126676657Y-75693734D01*
X126676657Y-75693734D02*
X126638561Y-75617543D01*
X126638561Y-75617543D02*
X126638561Y-75541353D01*
X127171895Y-75274686D02*
X126638561Y-75274686D01*
X126790942Y-75274686D02*
X126714752Y-75236591D01*
X126714752Y-75236591D02*
X126676657Y-75198496D01*
X126676657Y-75198496D02*
X126638561Y-75122305D01*
X126638561Y-75122305D02*
X126638561Y-75046115D01*
X127133800Y-74474686D02*
X127171895Y-74550877D01*
X127171895Y-74550877D02*
X127171895Y-74703258D01*
X127171895Y-74703258D02*
X127133800Y-74779448D01*
X127133800Y-74779448D02*
X127057609Y-74817544D01*
X127057609Y-74817544D02*
X126752847Y-74817544D01*
X126752847Y-74817544D02*
X126676657Y-74779448D01*
X126676657Y-74779448D02*
X126638561Y-74703258D01*
X126638561Y-74703258D02*
X126638561Y-74550877D01*
X126638561Y-74550877D02*
X126676657Y-74474686D01*
X126676657Y-74474686D02*
X126752847Y-74436591D01*
X126752847Y-74436591D02*
X126829038Y-74436591D01*
X126829038Y-74436591D02*
X126905228Y-74817544D01*
X126638561Y-74093734D02*
X127171895Y-74093734D01*
X126714752Y-74093734D02*
X126676657Y-74055639D01*
X126676657Y-74055639D02*
X126638561Y-73979449D01*
X126638561Y-73979449D02*
X126638561Y-73865163D01*
X126638561Y-73865163D02*
X126676657Y-73788972D01*
X126676657Y-73788972D02*
X126752847Y-73750877D01*
X126752847Y-73750877D02*
X127171895Y-73750877D01*
X126638561Y-73484210D02*
X126638561Y-73179448D01*
X126371895Y-73369924D02*
X127057609Y-73369924D01*
X127057609Y-73369924D02*
X127133800Y-73331829D01*
X127133800Y-73331829D02*
X127171895Y-73255639D01*
X127171895Y-73255639D02*
X127171895Y-73179448D01*
X127171895Y-72303257D02*
X126371895Y-72303257D01*
X126371895Y-72303257D02*
X126371895Y-72112781D01*
X126371895Y-72112781D02*
X126409990Y-71998495D01*
X126409990Y-71998495D02*
X126486180Y-71922305D01*
X126486180Y-71922305D02*
X126562371Y-71884210D01*
X126562371Y-71884210D02*
X126714752Y-71846114D01*
X126714752Y-71846114D02*
X126829038Y-71846114D01*
X126829038Y-71846114D02*
X126981419Y-71884210D01*
X126981419Y-71884210D02*
X127057609Y-71922305D01*
X127057609Y-71922305D02*
X127133800Y-71998495D01*
X127133800Y-71998495D02*
X127171895Y-72112781D01*
X127171895Y-72112781D02*
X127171895Y-72303257D01*
X127095704Y-71046114D02*
X127133800Y-71084210D01*
X127133800Y-71084210D02*
X127171895Y-71198495D01*
X127171895Y-71198495D02*
X127171895Y-71274686D01*
X127171895Y-71274686D02*
X127133800Y-71388972D01*
X127133800Y-71388972D02*
X127057609Y-71465162D01*
X127057609Y-71465162D02*
X126981419Y-71503257D01*
X126981419Y-71503257D02*
X126829038Y-71541353D01*
X126829038Y-71541353D02*
X126714752Y-71541353D01*
X126714752Y-71541353D02*
X126562371Y-71503257D01*
X126562371Y-71503257D02*
X126486180Y-71465162D01*
X126486180Y-71465162D02*
X126409990Y-71388972D01*
X126409990Y-71388972D02*
X126371895Y-71274686D01*
X126371895Y-71274686D02*
X126371895Y-71198495D01*
X126371895Y-71198495D02*
X126409990Y-71084210D01*
X126409990Y-71084210D02*
X126448085Y-71046114D01*
X127095704Y-70703257D02*
X127133800Y-70665162D01*
X127133800Y-70665162D02*
X127171895Y-70703257D01*
X127171895Y-70703257D02*
X127133800Y-70741353D01*
X127133800Y-70741353D02*
X127095704Y-70703257D01*
X127095704Y-70703257D02*
X127171895Y-70703257D01*
X126676657Y-70703257D02*
X126714752Y-70665162D01*
X126714752Y-70665162D02*
X126752847Y-70703257D01*
X126752847Y-70703257D02*
X126714752Y-70741353D01*
X126714752Y-70741353D02*
X126676657Y-70703257D01*
X126676657Y-70703257D02*
X126752847Y-70703257D01*
X127171895Y-70322305D02*
X126371895Y-70322305D01*
X126371895Y-70322305D02*
X126371895Y-70131829D01*
X126371895Y-70131829D02*
X126409990Y-70017543D01*
X126409990Y-70017543D02*
X126486180Y-69941353D01*
X126486180Y-69941353D02*
X126562371Y-69903258D01*
X126562371Y-69903258D02*
X126714752Y-69865162D01*
X126714752Y-69865162D02*
X126829038Y-69865162D01*
X126829038Y-69865162D02*
X126981419Y-69903258D01*
X126981419Y-69903258D02*
X127057609Y-69941353D01*
X127057609Y-69941353D02*
X127133800Y-70017543D01*
X127133800Y-70017543D02*
X127171895Y-70131829D01*
X127171895Y-70131829D02*
X127171895Y-70322305D01*
X127095704Y-69065162D02*
X127133800Y-69103258D01*
X127133800Y-69103258D02*
X127171895Y-69217543D01*
X127171895Y-69217543D02*
X127171895Y-69293734D01*
X127171895Y-69293734D02*
X127133800Y-69408020D01*
X127133800Y-69408020D02*
X127057609Y-69484210D01*
X127057609Y-69484210D02*
X126981419Y-69522305D01*
X126981419Y-69522305D02*
X126829038Y-69560401D01*
X126829038Y-69560401D02*
X126714752Y-69560401D01*
X126714752Y-69560401D02*
X126562371Y-69522305D01*
X126562371Y-69522305D02*
X126486180Y-69484210D01*
X126486180Y-69484210D02*
X126409990Y-69408020D01*
X126409990Y-69408020D02*
X126371895Y-69293734D01*
X126371895Y-69293734D02*
X126371895Y-69217543D01*
X126371895Y-69217543D02*
X126409990Y-69103258D01*
X126409990Y-69103258D02*
X126448085Y-69065162D01*
D11*
X118834580Y-70716666D02*
X118882200Y-70764285D01*
X118882200Y-70764285D02*
X118929819Y-70907142D01*
X118929819Y-70907142D02*
X118929819Y-71002380D01*
X118929819Y-71002380D02*
X118882200Y-71145237D01*
X118882200Y-71145237D02*
X118786961Y-71240475D01*
X118786961Y-71240475D02*
X118691723Y-71288094D01*
X118691723Y-71288094D02*
X118501247Y-71335713D01*
X118501247Y-71335713D02*
X118358390Y-71335713D01*
X118358390Y-71335713D02*
X118167914Y-71288094D01*
X118167914Y-71288094D02*
X118072676Y-71240475D01*
X118072676Y-71240475D02*
X117977438Y-71145237D01*
X117977438Y-71145237D02*
X117929819Y-71002380D01*
X117929819Y-71002380D02*
X117929819Y-70907142D01*
X117929819Y-70907142D02*
X117977438Y-70764285D01*
X117977438Y-70764285D02*
X118025057Y-70716666D01*
X118929819Y-69764285D02*
X118929819Y-70335713D01*
X118929819Y-70049999D02*
X117929819Y-70049999D01*
X117929819Y-70049999D02*
X118072676Y-70145237D01*
X118072676Y-70145237D02*
X118167914Y-70240475D01*
X118167914Y-70240475D02*
X118215533Y-70335713D01*
X124533333Y-70579819D02*
X124057143Y-70579819D01*
X124057143Y-70579819D02*
X124057143Y-69579819D01*
X125390476Y-70579819D02*
X124819048Y-70579819D01*
X125104762Y-70579819D02*
X125104762Y-69579819D01*
X125104762Y-69579819D02*
X125009524Y-69722676D01*
X125009524Y-69722676D02*
X124914286Y-69817914D01*
X124914286Y-69817914D02*
X124819048Y-69865533D01*
X124133333Y-76284580D02*
X124085714Y-76332200D01*
X124085714Y-76332200D02*
X123942857Y-76379819D01*
X123942857Y-76379819D02*
X123847619Y-76379819D01*
X123847619Y-76379819D02*
X123704762Y-76332200D01*
X123704762Y-76332200D02*
X123609524Y-76236961D01*
X123609524Y-76236961D02*
X123561905Y-76141723D01*
X123561905Y-76141723D02*
X123514286Y-75951247D01*
X123514286Y-75951247D02*
X123514286Y-75808390D01*
X123514286Y-75808390D02*
X123561905Y-75617914D01*
X123561905Y-75617914D02*
X123609524Y-75522676D01*
X123609524Y-75522676D02*
X123704762Y-75427438D01*
X123704762Y-75427438D02*
X123847619Y-75379819D01*
X123847619Y-75379819D02*
X123942857Y-75379819D01*
X123942857Y-75379819D02*
X124085714Y-75427438D01*
X124085714Y-75427438D02*
X124133333Y-75475057D01*
X124752381Y-75379819D02*
X124847619Y-75379819D01*
X124847619Y-75379819D02*
X124942857Y-75427438D01*
X124942857Y-75427438D02*
X124990476Y-75475057D01*
X124990476Y-75475057D02*
X125038095Y-75570295D01*
X125038095Y-75570295D02*
X125085714Y-75760771D01*
X125085714Y-75760771D02*
X125085714Y-75998866D01*
X125085714Y-75998866D02*
X125038095Y-76189342D01*
X125038095Y-76189342D02*
X124990476Y-76284580D01*
X124990476Y-76284580D02*
X124942857Y-76332200D01*
X124942857Y-76332200D02*
X124847619Y-76379819D01*
X124847619Y-76379819D02*
X124752381Y-76379819D01*
X124752381Y-76379819D02*
X124657143Y-76332200D01*
X124657143Y-76332200D02*
X124609524Y-76284580D01*
X124609524Y-76284580D02*
X124561905Y-76189342D01*
X124561905Y-76189342D02*
X124514286Y-75998866D01*
X124514286Y-75998866D02*
X124514286Y-75760771D01*
X124514286Y-75760771D02*
X124561905Y-75570295D01*
X124561905Y-75570295D02*
X124609524Y-75475057D01*
X124609524Y-75475057D02*
X124657143Y-75427438D01*
X124657143Y-75427438D02*
X124752381Y-75379819D01*
X114808333Y-78079819D02*
X114475000Y-77603628D01*
X114236905Y-78079819D02*
X114236905Y-77079819D01*
X114236905Y-77079819D02*
X114617857Y-77079819D01*
X114617857Y-77079819D02*
X114713095Y-77127438D01*
X114713095Y-77127438D02*
X114760714Y-77175057D01*
X114760714Y-77175057D02*
X114808333Y-77270295D01*
X114808333Y-77270295D02*
X114808333Y-77413152D01*
X114808333Y-77413152D02*
X114760714Y-77508390D01*
X114760714Y-77508390D02*
X114713095Y-77556009D01*
X114713095Y-77556009D02*
X114617857Y-77603628D01*
X114617857Y-77603628D02*
X114236905Y-77603628D01*
X115665476Y-77413152D02*
X115665476Y-78079819D01*
X115427381Y-77032200D02*
X115189286Y-77746485D01*
X115189286Y-77746485D02*
X115808333Y-77746485D01*
X121433333Y-79754819D02*
X121100000Y-79278628D01*
X120861905Y-79754819D02*
X120861905Y-78754819D01*
X120861905Y-78754819D02*
X121242857Y-78754819D01*
X121242857Y-78754819D02*
X121338095Y-78802438D01*
X121338095Y-78802438D02*
X121385714Y-78850057D01*
X121385714Y-78850057D02*
X121433333Y-78945295D01*
X121433333Y-78945295D02*
X121433333Y-79088152D01*
X121433333Y-79088152D02*
X121385714Y-79183390D01*
X121385714Y-79183390D02*
X121338095Y-79231009D01*
X121338095Y-79231009D02*
X121242857Y-79278628D01*
X121242857Y-79278628D02*
X120861905Y-79278628D01*
X122385714Y-79754819D02*
X121814286Y-79754819D01*
X122100000Y-79754819D02*
X122100000Y-78754819D01*
X122100000Y-78754819D02*
X122004762Y-78897676D01*
X122004762Y-78897676D02*
X121909524Y-78992914D01*
X121909524Y-78992914D02*
X121814286Y-79040533D01*
X119062380Y-71773276D02*
X119062380Y-72291371D01*
X119062380Y-72291371D02*
X119092857Y-72352323D01*
X119092857Y-72352323D02*
X119123333Y-72382800D01*
X119123333Y-72382800D02*
X119184285Y-72413276D01*
X119184285Y-72413276D02*
X119306190Y-72413276D01*
X119306190Y-72413276D02*
X119367142Y-72382800D01*
X119367142Y-72382800D02*
X119397619Y-72352323D01*
X119397619Y-72352323D02*
X119428095Y-72291371D01*
X119428095Y-72291371D02*
X119428095Y-71773276D01*
X120068095Y-72413276D02*
X119702380Y-72413276D01*
X119885237Y-72413276D02*
X119885237Y-71773276D01*
X119885237Y-71773276D02*
X119824285Y-71864704D01*
X119824285Y-71864704D02*
X119763333Y-71925657D01*
X119763333Y-71925657D02*
X119702380Y-71956133D01*
X114758333Y-76029819D02*
X114425000Y-75553628D01*
X114186905Y-76029819D02*
X114186905Y-75029819D01*
X114186905Y-75029819D02*
X114567857Y-75029819D01*
X114567857Y-75029819D02*
X114663095Y-75077438D01*
X114663095Y-75077438D02*
X114710714Y-75125057D01*
X114710714Y-75125057D02*
X114758333Y-75220295D01*
X114758333Y-75220295D02*
X114758333Y-75363152D01*
X114758333Y-75363152D02*
X114710714Y-75458390D01*
X114710714Y-75458390D02*
X114663095Y-75506009D01*
X114663095Y-75506009D02*
X114567857Y-75553628D01*
X114567857Y-75553628D02*
X114186905Y-75553628D01*
X115139286Y-75125057D02*
X115186905Y-75077438D01*
X115186905Y-75077438D02*
X115282143Y-75029819D01*
X115282143Y-75029819D02*
X115520238Y-75029819D01*
X115520238Y-75029819D02*
X115615476Y-75077438D01*
X115615476Y-75077438D02*
X115663095Y-75125057D01*
X115663095Y-75125057D02*
X115710714Y-75220295D01*
X115710714Y-75220295D02*
X115710714Y-75315533D01*
X115710714Y-75315533D02*
X115663095Y-75458390D01*
X115663095Y-75458390D02*
X115091667Y-76029819D01*
X115091667Y-76029819D02*
X115710714Y-76029819D01*
X116058333Y-72279819D02*
X115725000Y-71803628D01*
X115486905Y-72279819D02*
X115486905Y-71279819D01*
X115486905Y-71279819D02*
X115867857Y-71279819D01*
X115867857Y-71279819D02*
X115963095Y-71327438D01*
X115963095Y-71327438D02*
X116010714Y-71375057D01*
X116010714Y-71375057D02*
X116058333Y-71470295D01*
X116058333Y-71470295D02*
X116058333Y-71613152D01*
X116058333Y-71613152D02*
X116010714Y-71708390D01*
X116010714Y-71708390D02*
X115963095Y-71756009D01*
X115963095Y-71756009D02*
X115867857Y-71803628D01*
X115867857Y-71803628D02*
X115486905Y-71803628D01*
X116391667Y-71279819D02*
X117010714Y-71279819D01*
X117010714Y-71279819D02*
X116677381Y-71660771D01*
X116677381Y-71660771D02*
X116820238Y-71660771D01*
X116820238Y-71660771D02*
X116915476Y-71708390D01*
X116915476Y-71708390D02*
X116963095Y-71756009D01*
X116963095Y-71756009D02*
X117010714Y-71851247D01*
X117010714Y-71851247D02*
X117010714Y-72089342D01*
X117010714Y-72089342D02*
X116963095Y-72184580D01*
X116963095Y-72184580D02*
X116915476Y-72232200D01*
X116915476Y-72232200D02*
X116820238Y-72279819D01*
X116820238Y-72279819D02*
X116534524Y-72279819D01*
X116534524Y-72279819D02*
X116439286Y-72232200D01*
X116439286Y-72232200D02*
X116391667Y-72184580D01*
D10*
X119282619Y-66601895D02*
X119282619Y-65801895D01*
X119282619Y-65801895D02*
X119587381Y-65801895D01*
X119587381Y-65801895D02*
X119663571Y-65839990D01*
X119663571Y-65839990D02*
X119701666Y-65878085D01*
X119701666Y-65878085D02*
X119739762Y-65954276D01*
X119739762Y-65954276D02*
X119739762Y-66068561D01*
X119739762Y-66068561D02*
X119701666Y-66144752D01*
X119701666Y-66144752D02*
X119663571Y-66182847D01*
X119663571Y-66182847D02*
X119587381Y-66220942D01*
X119587381Y-66220942D02*
X119282619Y-66220942D01*
X120539762Y-66601895D02*
X120273095Y-66220942D01*
X120082619Y-66601895D02*
X120082619Y-65801895D01*
X120082619Y-65801895D02*
X120387381Y-65801895D01*
X120387381Y-65801895D02*
X120463571Y-65839990D01*
X120463571Y-65839990D02*
X120501666Y-65878085D01*
X120501666Y-65878085D02*
X120539762Y-65954276D01*
X120539762Y-65954276D02*
X120539762Y-66068561D01*
X120539762Y-66068561D02*
X120501666Y-66144752D01*
X120501666Y-66144752D02*
X120463571Y-66182847D01*
X120463571Y-66182847D02*
X120387381Y-66220942D01*
X120387381Y-66220942D02*
X120082619Y-66220942D01*
X121035000Y-66220942D02*
X121035000Y-66601895D01*
X120768333Y-65801895D02*
X121035000Y-66220942D01*
X121035000Y-66220942D02*
X121301666Y-65801895D01*
X119282619Y-85321895D02*
X119282619Y-84521895D01*
X119282619Y-84521895D02*
X119587381Y-84521895D01*
X119587381Y-84521895D02*
X119663571Y-84559990D01*
X119663571Y-84559990D02*
X119701666Y-84598085D01*
X119701666Y-84598085D02*
X119739762Y-84674276D01*
X119739762Y-84674276D02*
X119739762Y-84788561D01*
X119739762Y-84788561D02*
X119701666Y-84864752D01*
X119701666Y-84864752D02*
X119663571Y-84902847D01*
X119663571Y-84902847D02*
X119587381Y-84940942D01*
X119587381Y-84940942D02*
X119282619Y-84940942D01*
X120539762Y-85321895D02*
X120273095Y-84940942D01*
X120082619Y-85321895D02*
X120082619Y-84521895D01*
X120082619Y-84521895D02*
X120387381Y-84521895D01*
X120387381Y-84521895D02*
X120463571Y-84559990D01*
X120463571Y-84559990D02*
X120501666Y-84598085D01*
X120501666Y-84598085D02*
X120539762Y-84674276D01*
X120539762Y-84674276D02*
X120539762Y-84788561D01*
X120539762Y-84788561D02*
X120501666Y-84864752D01*
X120501666Y-84864752D02*
X120463571Y-84902847D01*
X120463571Y-84902847D02*
X120387381Y-84940942D01*
X120387381Y-84940942D02*
X120082619Y-84940942D01*
X121035000Y-84940942D02*
X121035000Y-85321895D01*
X120768333Y-84521895D02*
X121035000Y-84940942D01*
X121035000Y-84940942D02*
X121301666Y-84521895D01*
D12*
X120926748Y-69915000D02*
X121449252Y-69915000D01*
X120926748Y-71385000D02*
X121449252Y-71385000D01*
X123540000Y-72834248D02*
X123540000Y-73356752D01*
X125760000Y-72834248D02*
X125760000Y-73356752D01*
X121786252Y-74840000D02*
X121263748Y-74840000D01*
X121786252Y-76310000D02*
X121263748Y-76310000D01*
X117472936Y-76915000D02*
X117927064Y-76915000D01*
X117472936Y-78385000D02*
X117927064Y-78385000D01*
X121777064Y-76915000D02*
X121322936Y-76915000D01*
X121777064Y-78385000D02*
X121322936Y-78385000D01*
D13*
X121511000Y-72165000D02*
X121681000Y-72165000D01*
X121681000Y-74265000D02*
X121511000Y-74265000D01*
D14*
X123296000Y-73965000D02*
G75*
G02*
X123096000Y-73965000I-100000J0D01*
G01*
X123096000Y-73965000D02*
G75*
G02*
X123296000Y-73965000I100000J0D01*
G01*
D12*
X117422936Y-74765000D02*
X117877064Y-74765000D01*
X117422936Y-76235000D02*
X117877064Y-76235000D01*
X117152064Y-72765000D02*
X116697936Y-72765000D01*
X117152064Y-74235000D02*
X116697936Y-74235000D01*
D10*
X122219241Y-66954000D02*
X118215484Y-66954000D01*
X118215484Y-65485000D01*
X122219241Y-65485000D01*
X122219241Y-66954000D01*
X122219241Y-84176000D02*
X118215484Y-84176000D01*
X118215484Y-85645000D01*
X122219241Y-85645000D01*
X122219241Y-84176000D01*
%LPC*%
D15*
X121241000Y-72675000D02*
X120481000Y-72675000D01*
X120481000Y-72255000D01*
X121241000Y-72255000D01*
X121241000Y-72675000D01*
G36*
X121241000Y-72675000D02*
G01*
X120481000Y-72675000D01*
X120481000Y-72255000D01*
X121241000Y-72255000D01*
X121241000Y-72675000D01*
G37*
X121241000Y-73175000D02*
X120481000Y-73175000D01*
X120481000Y-72755000D01*
X121241000Y-72755000D01*
X121241000Y-73175000D01*
G36*
X121241000Y-73175000D02*
G01*
X120481000Y-73175000D01*
X120481000Y-72755000D01*
X121241000Y-72755000D01*
X121241000Y-73175000D01*
G37*
X121241000Y-73675000D02*
X120481000Y-73675000D01*
X120481000Y-73255000D01*
X121241000Y-73255000D01*
X121241000Y-73675000D01*
G36*
X121241000Y-73675000D02*
G01*
X120481000Y-73675000D01*
X120481000Y-73255000D01*
X121241000Y-73255000D01*
X121241000Y-73675000D01*
G37*
X121241000Y-74175000D02*
X120481000Y-74175000D01*
X120481000Y-73755000D01*
X121241000Y-73755000D01*
X121241000Y-74175000D01*
G36*
X121241000Y-74175000D02*
G01*
X120481000Y-74175000D01*
X120481000Y-73755000D01*
X121241000Y-73755000D01*
X121241000Y-74175000D01*
G37*
X122711000Y-72675000D02*
X121951000Y-72675000D01*
X121951000Y-72255000D01*
X122711000Y-72255000D01*
X122711000Y-72675000D01*
G36*
X122711000Y-72675000D02*
G01*
X121951000Y-72675000D01*
X121951000Y-72255000D01*
X122711000Y-72255000D01*
X122711000Y-72675000D01*
G37*
X122711000Y-73175000D02*
X121951000Y-73175000D01*
X121951000Y-72755000D01*
X122711000Y-72755000D01*
X122711000Y-73175000D01*
G36*
X122711000Y-73175000D02*
G01*
X121951000Y-73175000D01*
X121951000Y-72755000D01*
X122711000Y-72755000D01*
X122711000Y-73175000D01*
G37*
X122711000Y-73675000D02*
X121951000Y-73675000D01*
X121951000Y-73255000D01*
X122711000Y-73255000D01*
X122711000Y-73675000D01*
G36*
X122711000Y-73675000D02*
G01*
X121951000Y-73675000D01*
X121951000Y-73255000D01*
X122711000Y-73255000D01*
X122711000Y-73675000D01*
G37*
X122711000Y-74175000D02*
X121951000Y-74175000D01*
X121951000Y-73755000D01*
X122711000Y-73755000D01*
X122711000Y-74175000D01*
G36*
X122711000Y-74175000D02*
G01*
X121951000Y-74175000D01*
X121951000Y-73755000D01*
X122711000Y-73755000D01*
X122711000Y-74175000D01*
G37*
G36*
G01*
X119738000Y-71125000D02*
X119738000Y-70175000D01*
G75*
G02*
X119988000Y-69925000I250000J0D01*
G01*
X120488000Y-69925000D01*
G75*
G02*
X120738000Y-70175000I0J-250000D01*
G01*
X120738000Y-71125000D01*
G75*
G02*
X120488000Y-71375000I-250000J0D01*
G01*
X119988000Y-71375000D01*
G75*
G02*
X119738000Y-71125000I0J250000D01*
G01*
G37*
G36*
G01*
X121638000Y-71125000D02*
X121638000Y-70175000D01*
G75*
G02*
X121888000Y-69925000I250000J0D01*
G01*
X122388000Y-69925000D01*
G75*
G02*
X122638000Y-70175000I0J-250000D01*
G01*
X122638000Y-71125000D01*
G75*
G02*
X122388000Y-71375000I-250000J0D01*
G01*
X121888000Y-71375000D01*
G75*
G02*
X121638000Y-71125000I0J250000D01*
G01*
G37*
G36*
G01*
X123800001Y-71220500D02*
X125499999Y-71220500D01*
G75*
G02*
X125750000Y-71470501I0J-250001D01*
G01*
X125750000Y-72395499D01*
G75*
G02*
X125499999Y-72645500I-250001J0D01*
G01*
X123800001Y-72645500D01*
G75*
G02*
X123550000Y-72395499I0J250001D01*
G01*
X123550000Y-71470501D01*
G75*
G02*
X123800001Y-71220500I250001J0D01*
G01*
G37*
G36*
G01*
X123800001Y-73545500D02*
X125499999Y-73545500D01*
G75*
G02*
X125750000Y-73795501I0J-250001D01*
G01*
X125750000Y-74720499D01*
G75*
G02*
X125499999Y-74970500I-250001J0D01*
G01*
X123800001Y-74970500D01*
G75*
G02*
X123550000Y-74720499I0J250001D01*
G01*
X123550000Y-73795501D01*
G75*
G02*
X123800001Y-73545500I250001J0D01*
G01*
G37*
G36*
G01*
X122975000Y-75100000D02*
X122975000Y-76050000D01*
G75*
G02*
X122725000Y-76300000I-250000J0D01*
G01*
X122225000Y-76300000D01*
G75*
G02*
X121975000Y-76050000I0J250000D01*
G01*
X121975000Y-75100000D01*
G75*
G02*
X122225000Y-74850000I250000J0D01*
G01*
X122725000Y-74850000D01*
G75*
G02*
X122975000Y-75100000I0J-250000D01*
G01*
G37*
G36*
G01*
X121075000Y-75100000D02*
X121075000Y-76050000D01*
G75*
G02*
X120825000Y-76300000I-250000J0D01*
G01*
X120325000Y-76300000D01*
G75*
G02*
X120075000Y-76050000I0J250000D01*
G01*
X120075000Y-75100000D01*
G75*
G02*
X120325000Y-74850000I250000J0D01*
G01*
X120825000Y-74850000D01*
G75*
G02*
X121075000Y-75100000I0J-250000D01*
G01*
G37*
G36*
G01*
X116275000Y-78100000D02*
X116275000Y-77200000D01*
G75*
G02*
X116525000Y-76950000I250000J0D01*
G01*
X117050000Y-76950000D01*
G75*
G02*
X117300000Y-77200000I0J-250000D01*
G01*
X117300000Y-78100000D01*
G75*
G02*
X117050000Y-78350000I-250000J0D01*
G01*
X116525000Y-78350000D01*
G75*
G02*
X116275000Y-78100000I0J250000D01*
G01*
G37*
G36*
G01*
X118100000Y-78100000D02*
X118100000Y-77200000D01*
G75*
G02*
X118350000Y-76950000I250000J0D01*
G01*
X118875000Y-76950000D01*
G75*
G02*
X119125000Y-77200000I0J-250000D01*
G01*
X119125000Y-78100000D01*
G75*
G02*
X118875000Y-78350000I-250000J0D01*
G01*
X118350000Y-78350000D01*
G75*
G02*
X118100000Y-78100000I0J250000D01*
G01*
G37*
G36*
G01*
X122975000Y-77200000D02*
X122975000Y-78100000D01*
G75*
G02*
X122725000Y-78350000I-250000J0D01*
G01*
X122200000Y-78350000D01*
G75*
G02*
X121950000Y-78100000I0J250000D01*
G01*
X121950000Y-77200000D01*
G75*
G02*
X122200000Y-76950000I250000J0D01*
G01*
X122725000Y-76950000D01*
G75*
G02*
X122975000Y-77200000I0J-250000D01*
G01*
G37*
G36*
G01*
X121150000Y-77200000D02*
X121150000Y-78100000D01*
G75*
G02*
X120900000Y-78350000I-250000J0D01*
G01*
X120375000Y-78350000D01*
G75*
G02*
X120125000Y-78100000I0J250000D01*
G01*
X120125000Y-77200000D01*
G75*
G02*
X120375000Y-76950000I250000J0D01*
G01*
X120900000Y-76950000D01*
G75*
G02*
X121150000Y-77200000I0J-250000D01*
G01*
G37*
G36*
G01*
X116225000Y-75950000D02*
X116225000Y-75050000D01*
G75*
G02*
X116475000Y-74800000I250000J0D01*
G01*
X117000000Y-74800000D01*
G75*
G02*
X117250000Y-75050000I0J-250000D01*
G01*
X117250000Y-75950000D01*
G75*
G02*
X117000000Y-76200000I-250000J0D01*
G01*
X116475000Y-76200000D01*
G75*
G02*
X116225000Y-75950000I0J250000D01*
G01*
G37*
G36*
G01*
X118050000Y-75950000D02*
X118050000Y-75050000D01*
G75*
G02*
X118300000Y-74800000I250000J0D01*
G01*
X118825000Y-74800000D01*
G75*
G02*
X119075000Y-75050000I0J-250000D01*
G01*
X119075000Y-75950000D01*
G75*
G02*
X118825000Y-76200000I-250000J0D01*
G01*
X118300000Y-76200000D01*
G75*
G02*
X118050000Y-75950000I0J250000D01*
G01*
G37*
G36*
G01*
X118350000Y-73050000D02*
X118350000Y-73950000D01*
G75*
G02*
X118100000Y-74200000I-250000J0D01*
G01*
X117575000Y-74200000D01*
G75*
G02*
X117325000Y-73950000I0J250000D01*
G01*
X117325000Y-73050000D01*
G75*
G02*
X117575000Y-72800000I250000J0D01*
G01*
X118100000Y-72800000D01*
G75*
G02*
X118350000Y-73050000I0J-250000D01*
G01*
G37*
G36*
G01*
X116525000Y-73050000D02*
X116525000Y-73950000D01*
G75*
G02*
X116275000Y-74200000I-250000J0D01*
G01*
X115750000Y-74200000D01*
G75*
G02*
X115500000Y-73950000I0J250000D01*
G01*
X115500000Y-73050000D01*
G75*
G02*
X115750000Y-72800000I250000J0D01*
G01*
X116275000Y-72800000D01*
G75*
G02*
X116525000Y-73050000I0J-250000D01*
G01*
G37*
D16*
X127735000Y-66675000D03*
G36*
G01*
X125410000Y-67050000D02*
X125410000Y-66300000D01*
G75*
G02*
X125660000Y-66050000I250000J0D01*
G01*
X126410000Y-66050000D01*
G75*
G02*
X126660000Y-66300000I0J-250000D01*
G01*
X126660000Y-67050000D01*
G75*
G02*
X126410000Y-67300000I-250000J0D01*
G01*
X125660000Y-67300000D01*
G75*
G02*
X125410000Y-67050000I0J250000D01*
G01*
G37*
X127735000Y-84455000D03*
G36*
G01*
X125410000Y-84830000D02*
X125410000Y-84080000D01*
G75*
G02*
X125660000Y-83830000I250000J0D01*
G01*
X126410000Y-83830000D01*
G75*
G02*
X126660000Y-84080000I0J-250000D01*
G01*
X126660000Y-84830000D01*
G75*
G02*
X126410000Y-85080000I-250000J0D01*
G01*
X125660000Y-85080000D01*
G75*
G02*
X125410000Y-84830000I0J250000D01*
G01*
G37*
G36*
G01*
X113810000Y-67050000D02*
X113810000Y-66300000D01*
G75*
G02*
X114060000Y-66050000I250000J0D01*
G01*
X114810000Y-66050000D01*
G75*
G02*
X115060000Y-66300000I0J-250000D01*
G01*
X115060000Y-67050000D01*
G75*
G02*
X114810000Y-67300000I-250000J0D01*
G01*
X114060000Y-67300000D01*
G75*
G02*
X113810000Y-67050000I0J250000D01*
G01*
G37*
X112735000Y-66675000D03*
G36*
G01*
X113810000Y-79750000D02*
X113810000Y-79000000D01*
G75*
G02*
X114060000Y-78750000I250000J0D01*
G01*
X114810000Y-78750000D01*
G75*
G02*
X115060000Y-79000000I0J-250000D01*
G01*
X115060000Y-79750000D01*
G75*
G02*
X114810000Y-80000000I-250000J0D01*
G01*
X114060000Y-80000000D01*
G75*
G02*
X113810000Y-79750000I0J250000D01*
G01*
G37*
X112735000Y-79375000D03*
G36*
G01*
X113810000Y-82290000D02*
X113810000Y-81540000D01*
G75*
G02*
X114060000Y-81290000I250000J0D01*
G01*
X114810000Y-81290000D01*
G75*
G02*
X115060000Y-81540000I0J-250000D01*
G01*
X115060000Y-82290000D01*
G75*
G02*
X114810000Y-82540000I-250000J0D01*
G01*
X114060000Y-82540000D01*
G75*
G02*
X113810000Y-82290000I0J250000D01*
G01*
G37*
X112735000Y-81915000D03*
G36*
G01*
X113810000Y-84830000D02*
X113810000Y-84080000D01*
G75*
G02*
X114060000Y-83830000I250000J0D01*
G01*
X114810000Y-83830000D01*
G75*
G02*
X115060000Y-84080000I0J-250000D01*
G01*
X115060000Y-84830000D01*
G75*
G02*
X114810000Y-85080000I-250000J0D01*
G01*
X114060000Y-85080000D01*
G75*
G02*
X113810000Y-84830000I0J250000D01*
G01*
G37*
X112735000Y-84455000D03*
%LPD*%
M02*
