M48
; DRILL file {KiCad 9.0.1+1} date 2025-11-12T15:34:47+0000
; FORMAT={-:-/ absolute / inch / decimal}
; #@! TF.CreationDate,2025-11-12T15:34:47+00:00
; #@! TF.GenerationSoftware,Kicad,Pcbnew,9.0.1+1
; #@! TF.FileFunction,Plated,1,2,PTH
FMAT,2
INCH
; #@! TA.AperFunction,Plated,PTH,ViaDrill
T1C0.0118
; #@! TA.AperFunction,Plated,PTH,ComponentDrill
T2C0.0295
; #@! TA.AperFunction,Plated,PTH,ComponentDrill
T3C0.0472
; #@! TA.AperFunction,Plated,PTH,ComponentDrill
T4C0.0591
%
G90
G05
T1
X0.9658Y-1.6355
X1.0908Y-0.8555
X1.1658Y-1.5305
X1.2208Y-1.2555
X1.2458Y-2.4605
X1.3808Y-2.4455
X1.3908Y-1.8705
X1.4567Y-1.5624
X1.5281Y-1.6184
X1.8508Y-2.3105
X1.9291Y-2.2404
X1.9951Y-2.1724
X2.1003Y-1.5674
X2.1101Y-1.4835
X2.1551Y-2.2174
X2.1801Y-1.3724
X2.2101Y-2.1024
X2.2458Y-2.5105
X2.2701Y-1.5824
X2.3051Y-1.8424
X2.3265Y-2.2696
X2.3301Y-2.0424
X2.3307Y-1.9888
X2.3401Y-1.6824
X2.3401Y-1.7524
X2.3401Y-2.3724
X2.3551Y-1.5924
X2.3637Y-2.2934
X2.3737Y-2.2224
X2.396Y-1.9811
X2.4137Y-2.096
X2.4158Y-2.3605
X2.4551Y-2.1674
X2.5201Y-1.8624
X2.5301Y-1.9174
X2.5758Y-2.3755
X2.6245Y-1.858
X2.6301Y-1.9324
X2.6551Y-1.5924
X2.7301Y-1.8955
X2.8001Y-2.0124
X2.8658Y-2.4305
X3.0258Y-2.1305
X3.1908Y-2.4455
T2
X0.9058Y-0.7999
X0.9058Y-2.5164
X1.3058Y-0.7999
X1.3058Y-2.5164
X1.4058Y-0.7999
X1.7058Y-2.5164
X2.1058Y-2.5164
X2.6058Y-2.5164
X2.7058Y-2.5164
X2.8058Y-2.5164
X2.9058Y-2.5164
X3.0058Y-2.5164
X3.2058Y-0.7999
X3.2058Y-2.5164
T3
X1.7317Y-1.3874
X1.7317Y-1.7811
T4
G00X0.9058Y-0.7428
M15
G01X0.9058Y-0.7231
M16
G05
G00X0.9058Y-2.5932
M15
G01X0.9058Y-2.5735
M16
G05
G00X1.3058Y-0.7428
M15
G01X1.3058Y-0.7231
M16
G05
G00X1.3058Y-2.5932
M15
G01X1.3058Y-2.5735
M16
G05
G00X1.4058Y-0.7428
M15
G01X1.4058Y-0.7231
M16
G05
G00X1.7058Y-2.5932
M15
G01X1.7058Y-2.5735
M16
G05
G00X2.1058Y-2.5932
M15
G01X2.1058Y-2.5735
M16
G05
G00X2.6058Y-2.5932
M15
G01X2.6058Y-2.5735
M16
G05
G00X2.7058Y-2.5932
M15
G01X2.7058Y-2.5735
M16
G05
G00X2.8058Y-2.5932
M15
G01X2.8058Y-2.5735
M16
G05
G00X2.9058Y-2.5932
M15
G01X2.9058Y-2.5735
M16
G05
G00X3.0058Y-2.5932
M15
G01X3.0058Y-2.5735
M16
G05
G00X3.2058Y-0.7428
M15
G01X3.2058Y-0.7231
M16
G05
G00X3.2058Y-2.5932
M15
G01X3.2058Y-2.5735
M16
G05
M30
