G04 #@! TF.GenerationSoftware,KiCad,Pcbnew,9.0.1+1*
G04 #@! TF.CreationDate,2025-11-12T15:12:06+00:00*
G04 #@! TF.ProjectId,input-power-selector,696e7075-742d-4706-9f77-65722d73656c,rev?*
G04 #@! TF.SameCoordinates,Original*
G04 #@! TF.FileFunction,Legend,Bot*
G04 #@! TF.FilePolarity,Positive*
%FSLAX46Y46*%
G04 Gerber Fmt 4.6, Leading zero omitted, Abs format (unit mm)*
G04 Created by KiCad (PCBNEW 9.0.1+1) date 2025-11-12 15:12:06*
%MOMM*%
%LPD*%
G01*
G04 APERTURE LIST*
%ADD10C,0.100000*%
%ADD11C,0.150000*%
%ADD12C,0.254000*%
%ADD13C,0.120000*%
%ADD14C,0.152400*%
%ADD15C,0.127000*%
%ADD16C,0.200000*%
%ADD17C,0.000000*%
%ADD18R,2.000000X2.540000*%
%ADD19R,1.460500X0.558800*%
%ADD20R,1.200000X0.400000*%
%ADD21R,4.600000X0.800000*%
%ADD22R,9.400000X10.800000*%
%ADD23R,0.842900X0.736600*%
%ADD24R,2.032000X1.778000*%
%ADD25R,0.533400X0.685800*%
G04 APERTURE END LIST*
D10*
X52933653Y-24116585D02*
X52781272Y-24116585D01*
X52781272Y-24116585D02*
X52705082Y-24154680D01*
X52705082Y-24154680D02*
X52628891Y-24230870D01*
X52628891Y-24230870D02*
X52590796Y-24383251D01*
X52590796Y-24383251D02*
X52590796Y-24649918D01*
X52590796Y-24649918D02*
X52628891Y-24802299D01*
X52628891Y-24802299D02*
X52705082Y-24878490D01*
X52705082Y-24878490D02*
X52781272Y-24916585D01*
X52781272Y-24916585D02*
X52933653Y-24916585D01*
X52933653Y-24916585D02*
X53009844Y-24878490D01*
X53009844Y-24878490D02*
X53086034Y-24802299D01*
X53086034Y-24802299D02*
X53124130Y-24649918D01*
X53124130Y-24649918D02*
X53124130Y-24383251D01*
X53124130Y-24383251D02*
X53086034Y-24230870D01*
X53086034Y-24230870D02*
X53009844Y-24154680D01*
X53009844Y-24154680D02*
X52933653Y-24116585D01*
X52324130Y-24383251D02*
X52133654Y-24916585D01*
X52133654Y-24916585D02*
X51943177Y-24383251D01*
X51333653Y-24878490D02*
X51409844Y-24916585D01*
X51409844Y-24916585D02*
X51562225Y-24916585D01*
X51562225Y-24916585D02*
X51638415Y-24878490D01*
X51638415Y-24878490D02*
X51676511Y-24802299D01*
X51676511Y-24802299D02*
X51676511Y-24497537D01*
X51676511Y-24497537D02*
X51638415Y-24421347D01*
X51638415Y-24421347D02*
X51562225Y-24383251D01*
X51562225Y-24383251D02*
X51409844Y-24383251D01*
X51409844Y-24383251D02*
X51333653Y-24421347D01*
X51333653Y-24421347D02*
X51295558Y-24497537D01*
X51295558Y-24497537D02*
X51295558Y-24573728D01*
X51295558Y-24573728D02*
X51676511Y-24649918D01*
X50952701Y-24916585D02*
X50952701Y-24383251D01*
X50952701Y-24535632D02*
X50914606Y-24459442D01*
X50914606Y-24459442D02*
X50876511Y-24421347D01*
X50876511Y-24421347D02*
X50800320Y-24383251D01*
X50800320Y-24383251D02*
X50724130Y-24383251D01*
X50533654Y-24383251D02*
X50343178Y-24916585D01*
X50343178Y-24916585D02*
X50152701Y-24383251D01*
X49733654Y-24916585D02*
X49809844Y-24878490D01*
X49809844Y-24878490D02*
X49847939Y-24840394D01*
X49847939Y-24840394D02*
X49886035Y-24764204D01*
X49886035Y-24764204D02*
X49886035Y-24535632D01*
X49886035Y-24535632D02*
X49847939Y-24459442D01*
X49847939Y-24459442D02*
X49809844Y-24421347D01*
X49809844Y-24421347D02*
X49733654Y-24383251D01*
X49733654Y-24383251D02*
X49619368Y-24383251D01*
X49619368Y-24383251D02*
X49543177Y-24421347D01*
X49543177Y-24421347D02*
X49505082Y-24459442D01*
X49505082Y-24459442D02*
X49466987Y-24535632D01*
X49466987Y-24535632D02*
X49466987Y-24764204D01*
X49466987Y-24764204D02*
X49505082Y-24840394D01*
X49505082Y-24840394D02*
X49543177Y-24878490D01*
X49543177Y-24878490D02*
X49619368Y-24916585D01*
X49619368Y-24916585D02*
X49733654Y-24916585D01*
X49009844Y-24916585D02*
X49086034Y-24878490D01*
X49086034Y-24878490D02*
X49124129Y-24802299D01*
X49124129Y-24802299D02*
X49124129Y-24116585D01*
X48819367Y-24383251D02*
X48514605Y-24383251D01*
X48705081Y-24116585D02*
X48705081Y-24802299D01*
X48705081Y-24802299D02*
X48666986Y-24878490D01*
X48666986Y-24878490D02*
X48590796Y-24916585D01*
X48590796Y-24916585D02*
X48514605Y-24916585D01*
X47905081Y-24916585D02*
X47905081Y-24497537D01*
X47905081Y-24497537D02*
X47943176Y-24421347D01*
X47943176Y-24421347D02*
X48019367Y-24383251D01*
X48019367Y-24383251D02*
X48171748Y-24383251D01*
X48171748Y-24383251D02*
X48247938Y-24421347D01*
X47905081Y-24878490D02*
X47981272Y-24916585D01*
X47981272Y-24916585D02*
X48171748Y-24916585D01*
X48171748Y-24916585D02*
X48247938Y-24878490D01*
X48247938Y-24878490D02*
X48286034Y-24802299D01*
X48286034Y-24802299D02*
X48286034Y-24726109D01*
X48286034Y-24726109D02*
X48247938Y-24649918D01*
X48247938Y-24649918D02*
X48171748Y-24611823D01*
X48171748Y-24611823D02*
X47981272Y-24611823D01*
X47981272Y-24611823D02*
X47905081Y-24573728D01*
X47181271Y-24383251D02*
X47181271Y-25030870D01*
X47181271Y-25030870D02*
X47219366Y-25107061D01*
X47219366Y-25107061D02*
X47257462Y-25145156D01*
X47257462Y-25145156D02*
X47333652Y-25183251D01*
X47333652Y-25183251D02*
X47447938Y-25183251D01*
X47447938Y-25183251D02*
X47524128Y-25145156D01*
X47181271Y-24878490D02*
X47257462Y-24916585D01*
X47257462Y-24916585D02*
X47409843Y-24916585D01*
X47409843Y-24916585D02*
X47486033Y-24878490D01*
X47486033Y-24878490D02*
X47524128Y-24840394D01*
X47524128Y-24840394D02*
X47562224Y-24764204D01*
X47562224Y-24764204D02*
X47562224Y-24535632D01*
X47562224Y-24535632D02*
X47524128Y-24459442D01*
X47524128Y-24459442D02*
X47486033Y-24421347D01*
X47486033Y-24421347D02*
X47409843Y-24383251D01*
X47409843Y-24383251D02*
X47257462Y-24383251D01*
X47257462Y-24383251D02*
X47181271Y-24421347D01*
X46495556Y-24878490D02*
X46571747Y-24916585D01*
X46571747Y-24916585D02*
X46724128Y-24916585D01*
X46724128Y-24916585D02*
X46800318Y-24878490D01*
X46800318Y-24878490D02*
X46838414Y-24802299D01*
X46838414Y-24802299D02*
X46838414Y-24497537D01*
X46838414Y-24497537D02*
X46800318Y-24421347D01*
X46800318Y-24421347D02*
X46724128Y-24383251D01*
X46724128Y-24383251D02*
X46571747Y-24383251D01*
X46571747Y-24383251D02*
X46495556Y-24421347D01*
X46495556Y-24421347D02*
X46457461Y-24497537D01*
X46457461Y-24497537D02*
X46457461Y-24573728D01*
X46457461Y-24573728D02*
X46838414Y-24649918D01*
X53086034Y-26204540D02*
X53086034Y-25404540D01*
X53086034Y-25404540D02*
X52781272Y-25404540D01*
X52781272Y-25404540D02*
X52705082Y-25442635D01*
X52705082Y-25442635D02*
X52666987Y-25480730D01*
X52666987Y-25480730D02*
X52628891Y-25556921D01*
X52628891Y-25556921D02*
X52628891Y-25671206D01*
X52628891Y-25671206D02*
X52666987Y-25747397D01*
X52666987Y-25747397D02*
X52705082Y-25785492D01*
X52705082Y-25785492D02*
X52781272Y-25823587D01*
X52781272Y-25823587D02*
X53086034Y-25823587D01*
X52286034Y-26204540D02*
X52286034Y-25671206D01*
X52286034Y-25823587D02*
X52247939Y-25747397D01*
X52247939Y-25747397D02*
X52209844Y-25709302D01*
X52209844Y-25709302D02*
X52133653Y-25671206D01*
X52133653Y-25671206D02*
X52057463Y-25671206D01*
X51676511Y-26204540D02*
X51752701Y-26166445D01*
X51752701Y-26166445D02*
X51790796Y-26128349D01*
X51790796Y-26128349D02*
X51828892Y-26052159D01*
X51828892Y-26052159D02*
X51828892Y-25823587D01*
X51828892Y-25823587D02*
X51790796Y-25747397D01*
X51790796Y-25747397D02*
X51752701Y-25709302D01*
X51752701Y-25709302D02*
X51676511Y-25671206D01*
X51676511Y-25671206D02*
X51562225Y-25671206D01*
X51562225Y-25671206D02*
X51486034Y-25709302D01*
X51486034Y-25709302D02*
X51447939Y-25747397D01*
X51447939Y-25747397D02*
X51409844Y-25823587D01*
X51409844Y-25823587D02*
X51409844Y-26052159D01*
X51409844Y-26052159D02*
X51447939Y-26128349D01*
X51447939Y-26128349D02*
X51486034Y-26166445D01*
X51486034Y-26166445D02*
X51562225Y-26204540D01*
X51562225Y-26204540D02*
X51676511Y-26204540D01*
X51181272Y-25671206D02*
X50876510Y-25671206D01*
X51066986Y-25404540D02*
X51066986Y-26090254D01*
X51066986Y-26090254D02*
X51028891Y-26166445D01*
X51028891Y-26166445D02*
X50952701Y-26204540D01*
X50952701Y-26204540D02*
X50876510Y-26204540D01*
X50305081Y-26166445D02*
X50381272Y-26204540D01*
X50381272Y-26204540D02*
X50533653Y-26204540D01*
X50533653Y-26204540D02*
X50609843Y-26166445D01*
X50609843Y-26166445D02*
X50647939Y-26090254D01*
X50647939Y-26090254D02*
X50647939Y-25785492D01*
X50647939Y-25785492D02*
X50609843Y-25709302D01*
X50609843Y-25709302D02*
X50533653Y-25671206D01*
X50533653Y-25671206D02*
X50381272Y-25671206D01*
X50381272Y-25671206D02*
X50305081Y-25709302D01*
X50305081Y-25709302D02*
X50266986Y-25785492D01*
X50266986Y-25785492D02*
X50266986Y-25861683D01*
X50266986Y-25861683D02*
X50647939Y-25937873D01*
X49581272Y-26166445D02*
X49657463Y-26204540D01*
X49657463Y-26204540D02*
X49809844Y-26204540D01*
X49809844Y-26204540D02*
X49886034Y-26166445D01*
X49886034Y-26166445D02*
X49924129Y-26128349D01*
X49924129Y-26128349D02*
X49962225Y-26052159D01*
X49962225Y-26052159D02*
X49962225Y-25823587D01*
X49962225Y-25823587D02*
X49924129Y-25747397D01*
X49924129Y-25747397D02*
X49886034Y-25709302D01*
X49886034Y-25709302D02*
X49809844Y-25671206D01*
X49809844Y-25671206D02*
X49657463Y-25671206D01*
X49657463Y-25671206D02*
X49581272Y-25709302D01*
X49352701Y-25671206D02*
X49047939Y-25671206D01*
X49238415Y-25404540D02*
X49238415Y-26090254D01*
X49238415Y-26090254D02*
X49200320Y-26166445D01*
X49200320Y-26166445D02*
X49124130Y-26204540D01*
X49124130Y-26204540D02*
X49047939Y-26204540D01*
X48781272Y-26204540D02*
X48781272Y-25671206D01*
X48781272Y-25404540D02*
X48819368Y-25442635D01*
X48819368Y-25442635D02*
X48781272Y-25480730D01*
X48781272Y-25480730D02*
X48743177Y-25442635D01*
X48743177Y-25442635D02*
X48781272Y-25404540D01*
X48781272Y-25404540D02*
X48781272Y-25480730D01*
X48286035Y-26204540D02*
X48362225Y-26166445D01*
X48362225Y-26166445D02*
X48400320Y-26128349D01*
X48400320Y-26128349D02*
X48438416Y-26052159D01*
X48438416Y-26052159D02*
X48438416Y-25823587D01*
X48438416Y-25823587D02*
X48400320Y-25747397D01*
X48400320Y-25747397D02*
X48362225Y-25709302D01*
X48362225Y-25709302D02*
X48286035Y-25671206D01*
X48286035Y-25671206D02*
X48171749Y-25671206D01*
X48171749Y-25671206D02*
X48095558Y-25709302D01*
X48095558Y-25709302D02*
X48057463Y-25747397D01*
X48057463Y-25747397D02*
X48019368Y-25823587D01*
X48019368Y-25823587D02*
X48019368Y-26052159D01*
X48019368Y-26052159D02*
X48057463Y-26128349D01*
X48057463Y-26128349D02*
X48095558Y-26166445D01*
X48095558Y-26166445D02*
X48171749Y-26204540D01*
X48171749Y-26204540D02*
X48286035Y-26204540D01*
X47676510Y-25671206D02*
X47676510Y-26204540D01*
X47676510Y-25747397D02*
X47638415Y-25709302D01*
X47638415Y-25709302D02*
X47562225Y-25671206D01*
X47562225Y-25671206D02*
X47447939Y-25671206D01*
X47447939Y-25671206D02*
X47371748Y-25709302D01*
X47371748Y-25709302D02*
X47333653Y-25785492D01*
X47333653Y-25785492D02*
X47333653Y-26204540D01*
X52819368Y-27073447D02*
X52705082Y-27111542D01*
X52705082Y-27111542D02*
X52666987Y-27149638D01*
X52666987Y-27149638D02*
X52628891Y-27225828D01*
X52628891Y-27225828D02*
X52628891Y-27340114D01*
X52628891Y-27340114D02*
X52666987Y-27416304D01*
X52666987Y-27416304D02*
X52705082Y-27454400D01*
X52705082Y-27454400D02*
X52781272Y-27492495D01*
X52781272Y-27492495D02*
X53086034Y-27492495D01*
X53086034Y-27492495D02*
X53086034Y-26692495D01*
X53086034Y-26692495D02*
X52819368Y-26692495D01*
X52819368Y-26692495D02*
X52743177Y-26730590D01*
X52743177Y-26730590D02*
X52705082Y-26768685D01*
X52705082Y-26768685D02*
X52666987Y-26844876D01*
X52666987Y-26844876D02*
X52666987Y-26921066D01*
X52666987Y-26921066D02*
X52705082Y-26997257D01*
X52705082Y-26997257D02*
X52743177Y-27035352D01*
X52743177Y-27035352D02*
X52819368Y-27073447D01*
X52819368Y-27073447D02*
X53086034Y-27073447D01*
X52362225Y-26959161D02*
X52171749Y-27492495D01*
X51981272Y-26959161D02*
X52171749Y-27492495D01*
X52171749Y-27492495D02*
X52247939Y-27682971D01*
X52247939Y-27682971D02*
X52286034Y-27721066D01*
X52286034Y-27721066D02*
X52362225Y-27759161D01*
X51676510Y-26959161D02*
X51676510Y-27759161D01*
X51676510Y-26997257D02*
X51600320Y-26959161D01*
X51600320Y-26959161D02*
X51447939Y-26959161D01*
X51447939Y-26959161D02*
X51371748Y-26997257D01*
X51371748Y-26997257D02*
X51333653Y-27035352D01*
X51333653Y-27035352D02*
X51295558Y-27111542D01*
X51295558Y-27111542D02*
X51295558Y-27340114D01*
X51295558Y-27340114D02*
X51333653Y-27416304D01*
X51333653Y-27416304D02*
X51371748Y-27454400D01*
X51371748Y-27454400D02*
X51447939Y-27492495D01*
X51447939Y-27492495D02*
X51600320Y-27492495D01*
X51600320Y-27492495D02*
X51676510Y-27454400D01*
X50609843Y-27492495D02*
X50609843Y-27073447D01*
X50609843Y-27073447D02*
X50647938Y-26997257D01*
X50647938Y-26997257D02*
X50724129Y-26959161D01*
X50724129Y-26959161D02*
X50876510Y-26959161D01*
X50876510Y-26959161D02*
X50952700Y-26997257D01*
X50609843Y-27454400D02*
X50686034Y-27492495D01*
X50686034Y-27492495D02*
X50876510Y-27492495D01*
X50876510Y-27492495D02*
X50952700Y-27454400D01*
X50952700Y-27454400D02*
X50990796Y-27378209D01*
X50990796Y-27378209D02*
X50990796Y-27302019D01*
X50990796Y-27302019D02*
X50952700Y-27225828D01*
X50952700Y-27225828D02*
X50876510Y-27187733D01*
X50876510Y-27187733D02*
X50686034Y-27187733D01*
X50686034Y-27187733D02*
X50609843Y-27149638D01*
X50266986Y-27454400D02*
X50190795Y-27492495D01*
X50190795Y-27492495D02*
X50038414Y-27492495D01*
X50038414Y-27492495D02*
X49962224Y-27454400D01*
X49962224Y-27454400D02*
X49924128Y-27378209D01*
X49924128Y-27378209D02*
X49924128Y-27340114D01*
X49924128Y-27340114D02*
X49962224Y-27263923D01*
X49962224Y-27263923D02*
X50038414Y-27225828D01*
X50038414Y-27225828D02*
X50152700Y-27225828D01*
X50152700Y-27225828D02*
X50228890Y-27187733D01*
X50228890Y-27187733D02*
X50266986Y-27111542D01*
X50266986Y-27111542D02*
X50266986Y-27073447D01*
X50266986Y-27073447D02*
X50228890Y-26997257D01*
X50228890Y-26997257D02*
X50152700Y-26959161D01*
X50152700Y-26959161D02*
X50038414Y-26959161D01*
X50038414Y-26959161D02*
X49962224Y-26997257D01*
X49619367Y-27454400D02*
X49543176Y-27492495D01*
X49543176Y-27492495D02*
X49390795Y-27492495D01*
X49390795Y-27492495D02*
X49314605Y-27454400D01*
X49314605Y-27454400D02*
X49276509Y-27378209D01*
X49276509Y-27378209D02*
X49276509Y-27340114D01*
X49276509Y-27340114D02*
X49314605Y-27263923D01*
X49314605Y-27263923D02*
X49390795Y-27225828D01*
X49390795Y-27225828D02*
X49505081Y-27225828D01*
X49505081Y-27225828D02*
X49581271Y-27187733D01*
X49581271Y-27187733D02*
X49619367Y-27111542D01*
X49619367Y-27111542D02*
X49619367Y-27073447D01*
X49619367Y-27073447D02*
X49581271Y-26997257D01*
X49581271Y-26997257D02*
X49505081Y-26959161D01*
X49505081Y-26959161D02*
X49390795Y-26959161D01*
X49390795Y-26959161D02*
X49314605Y-26997257D01*
X46070415Y-55634587D02*
X46070415Y-54634587D01*
X46070415Y-54634587D02*
X45689463Y-54634587D01*
X45689463Y-54634587D02*
X45594225Y-54682206D01*
X45594225Y-54682206D02*
X45546606Y-54729825D01*
X45546606Y-54729825D02*
X45498987Y-54825063D01*
X45498987Y-54825063D02*
X45498987Y-54967920D01*
X45498987Y-54967920D02*
X45546606Y-55063158D01*
X45546606Y-55063158D02*
X45594225Y-55110777D01*
X45594225Y-55110777D02*
X45689463Y-55158396D01*
X45689463Y-55158396D02*
X46070415Y-55158396D01*
X44927558Y-55634587D02*
X45022796Y-55586968D01*
X45022796Y-55586968D02*
X45070415Y-55539348D01*
X45070415Y-55539348D02*
X45118034Y-55444110D01*
X45118034Y-55444110D02*
X45118034Y-55158396D01*
X45118034Y-55158396D02*
X45070415Y-55063158D01*
X45070415Y-55063158D02*
X45022796Y-55015539D01*
X45022796Y-55015539D02*
X44927558Y-54967920D01*
X44927558Y-54967920D02*
X44784701Y-54967920D01*
X44784701Y-54967920D02*
X44689463Y-55015539D01*
X44689463Y-55015539D02*
X44641844Y-55063158D01*
X44641844Y-55063158D02*
X44594225Y-55158396D01*
X44594225Y-55158396D02*
X44594225Y-55444110D01*
X44594225Y-55444110D02*
X44641844Y-55539348D01*
X44641844Y-55539348D02*
X44689463Y-55586968D01*
X44689463Y-55586968D02*
X44784701Y-55634587D01*
X44784701Y-55634587D02*
X44927558Y-55634587D01*
X44260891Y-54967920D02*
X44070415Y-55634587D01*
X44070415Y-55634587D02*
X43879939Y-55158396D01*
X43879939Y-55158396D02*
X43689463Y-55634587D01*
X43689463Y-55634587D02*
X43498987Y-54967920D01*
X42737082Y-55586968D02*
X42832320Y-55634587D01*
X42832320Y-55634587D02*
X43022796Y-55634587D01*
X43022796Y-55634587D02*
X43118034Y-55586968D01*
X43118034Y-55586968D02*
X43165653Y-55491729D01*
X43165653Y-55491729D02*
X43165653Y-55110777D01*
X43165653Y-55110777D02*
X43118034Y-55015539D01*
X43118034Y-55015539D02*
X43022796Y-54967920D01*
X43022796Y-54967920D02*
X42832320Y-54967920D01*
X42832320Y-54967920D02*
X42737082Y-55015539D01*
X42737082Y-55015539D02*
X42689463Y-55110777D01*
X42689463Y-55110777D02*
X42689463Y-55206015D01*
X42689463Y-55206015D02*
X43165653Y-55301253D01*
X42260891Y-55634587D02*
X42260891Y-54967920D01*
X42260891Y-55158396D02*
X42213272Y-55063158D01*
X42213272Y-55063158D02*
X42165653Y-55015539D01*
X42165653Y-55015539D02*
X42070415Y-54967920D01*
X42070415Y-54967920D02*
X41975177Y-54967920D01*
X40879938Y-55634587D02*
X40879938Y-54634587D01*
X40403748Y-54967920D02*
X40403748Y-55634587D01*
X40403748Y-55063158D02*
X40356129Y-55015539D01*
X40356129Y-55015539D02*
X40260891Y-54967920D01*
X40260891Y-54967920D02*
X40118034Y-54967920D01*
X40118034Y-54967920D02*
X40022796Y-55015539D01*
X40022796Y-55015539D02*
X39975177Y-55110777D01*
X39975177Y-55110777D02*
X39975177Y-55634587D01*
X39498986Y-54967920D02*
X39498986Y-55967920D01*
X39498986Y-55015539D02*
X39403748Y-54967920D01*
X39403748Y-54967920D02*
X39213272Y-54967920D01*
X39213272Y-54967920D02*
X39118034Y-55015539D01*
X39118034Y-55015539D02*
X39070415Y-55063158D01*
X39070415Y-55063158D02*
X39022796Y-55158396D01*
X39022796Y-55158396D02*
X39022796Y-55444110D01*
X39022796Y-55444110D02*
X39070415Y-55539348D01*
X39070415Y-55539348D02*
X39118034Y-55586968D01*
X39118034Y-55586968D02*
X39213272Y-55634587D01*
X39213272Y-55634587D02*
X39403748Y-55634587D01*
X39403748Y-55634587D02*
X39498986Y-55586968D01*
X38165653Y-54967920D02*
X38165653Y-55634587D01*
X38594224Y-54967920D02*
X38594224Y-55491729D01*
X38594224Y-55491729D02*
X38546605Y-55586968D01*
X38546605Y-55586968D02*
X38451367Y-55634587D01*
X38451367Y-55634587D02*
X38308510Y-55634587D01*
X38308510Y-55634587D02*
X38213272Y-55586968D01*
X38213272Y-55586968D02*
X38165653Y-55539348D01*
X37832319Y-54967920D02*
X37451367Y-54967920D01*
X37689462Y-54634587D02*
X37689462Y-55491729D01*
X37689462Y-55491729D02*
X37641843Y-55586968D01*
X37641843Y-55586968D02*
X37546605Y-55634587D01*
X37546605Y-55634587D02*
X37451367Y-55634587D01*
X36403747Y-55586968D02*
X36260890Y-55634587D01*
X36260890Y-55634587D02*
X36022795Y-55634587D01*
X36022795Y-55634587D02*
X35927557Y-55586968D01*
X35927557Y-55586968D02*
X35879938Y-55539348D01*
X35879938Y-55539348D02*
X35832319Y-55444110D01*
X35832319Y-55444110D02*
X35832319Y-55348872D01*
X35832319Y-55348872D02*
X35879938Y-55253634D01*
X35879938Y-55253634D02*
X35927557Y-55206015D01*
X35927557Y-55206015D02*
X36022795Y-55158396D01*
X36022795Y-55158396D02*
X36213271Y-55110777D01*
X36213271Y-55110777D02*
X36308509Y-55063158D01*
X36308509Y-55063158D02*
X36356128Y-55015539D01*
X36356128Y-55015539D02*
X36403747Y-54920301D01*
X36403747Y-54920301D02*
X36403747Y-54825063D01*
X36403747Y-54825063D02*
X36356128Y-54729825D01*
X36356128Y-54729825D02*
X36308509Y-54682206D01*
X36308509Y-54682206D02*
X36213271Y-54634587D01*
X36213271Y-54634587D02*
X35975176Y-54634587D01*
X35975176Y-54634587D02*
X35832319Y-54682206D01*
X35022795Y-55586968D02*
X35118033Y-55634587D01*
X35118033Y-55634587D02*
X35308509Y-55634587D01*
X35308509Y-55634587D02*
X35403747Y-55586968D01*
X35403747Y-55586968D02*
X35451366Y-55491729D01*
X35451366Y-55491729D02*
X35451366Y-55110777D01*
X35451366Y-55110777D02*
X35403747Y-55015539D01*
X35403747Y-55015539D02*
X35308509Y-54967920D01*
X35308509Y-54967920D02*
X35118033Y-54967920D01*
X35118033Y-54967920D02*
X35022795Y-55015539D01*
X35022795Y-55015539D02*
X34975176Y-55110777D01*
X34975176Y-55110777D02*
X34975176Y-55206015D01*
X34975176Y-55206015D02*
X35451366Y-55301253D01*
X34403747Y-55634587D02*
X34498985Y-55586968D01*
X34498985Y-55586968D02*
X34546604Y-55491729D01*
X34546604Y-55491729D02*
X34546604Y-54634587D01*
X33641842Y-55586968D02*
X33737080Y-55634587D01*
X33737080Y-55634587D02*
X33927556Y-55634587D01*
X33927556Y-55634587D02*
X34022794Y-55586968D01*
X34022794Y-55586968D02*
X34070413Y-55491729D01*
X34070413Y-55491729D02*
X34070413Y-55110777D01*
X34070413Y-55110777D02*
X34022794Y-55015539D01*
X34022794Y-55015539D02*
X33927556Y-54967920D01*
X33927556Y-54967920D02*
X33737080Y-54967920D01*
X33737080Y-54967920D02*
X33641842Y-55015539D01*
X33641842Y-55015539D02*
X33594223Y-55110777D01*
X33594223Y-55110777D02*
X33594223Y-55206015D01*
X33594223Y-55206015D02*
X34070413Y-55301253D01*
X32737080Y-55586968D02*
X32832318Y-55634587D01*
X32832318Y-55634587D02*
X33022794Y-55634587D01*
X33022794Y-55634587D02*
X33118032Y-55586968D01*
X33118032Y-55586968D02*
X33165651Y-55539348D01*
X33165651Y-55539348D02*
X33213270Y-55444110D01*
X33213270Y-55444110D02*
X33213270Y-55158396D01*
X33213270Y-55158396D02*
X33165651Y-55063158D01*
X33165651Y-55063158D02*
X33118032Y-55015539D01*
X33118032Y-55015539D02*
X33022794Y-54967920D01*
X33022794Y-54967920D02*
X32832318Y-54967920D01*
X32832318Y-54967920D02*
X32737080Y-55015539D01*
X32451365Y-54967920D02*
X32070413Y-54967920D01*
X32308508Y-54634587D02*
X32308508Y-55491729D01*
X32308508Y-55491729D02*
X32260889Y-55586968D01*
X32260889Y-55586968D02*
X32165651Y-55634587D01*
X32165651Y-55634587D02*
X32070413Y-55634587D01*
X31594222Y-55634587D02*
X31689460Y-55586968D01*
X31689460Y-55586968D02*
X31737079Y-55539348D01*
X31737079Y-55539348D02*
X31784698Y-55444110D01*
X31784698Y-55444110D02*
X31784698Y-55158396D01*
X31784698Y-55158396D02*
X31737079Y-55063158D01*
X31737079Y-55063158D02*
X31689460Y-55015539D01*
X31689460Y-55015539D02*
X31594222Y-54967920D01*
X31594222Y-54967920D02*
X31451365Y-54967920D01*
X31451365Y-54967920D02*
X31356127Y-55015539D01*
X31356127Y-55015539D02*
X31308508Y-55063158D01*
X31308508Y-55063158D02*
X31260889Y-55158396D01*
X31260889Y-55158396D02*
X31260889Y-55444110D01*
X31260889Y-55444110D02*
X31308508Y-55539348D01*
X31308508Y-55539348D02*
X31356127Y-55586968D01*
X31356127Y-55586968D02*
X31451365Y-55634587D01*
X31451365Y-55634587D02*
X31594222Y-55634587D01*
X30832317Y-55634587D02*
X30832317Y-54967920D01*
X30832317Y-55158396D02*
X30784698Y-55063158D01*
X30784698Y-55063158D02*
X30737079Y-55015539D01*
X30737079Y-55015539D02*
X30641841Y-54967920D01*
X30641841Y-54967920D02*
X30546603Y-54967920D01*
X29451364Y-55634587D02*
X29451364Y-54634587D01*
X29451364Y-54634587D02*
X29118031Y-55348872D01*
X29118031Y-55348872D02*
X28784698Y-54634587D01*
X28784698Y-54634587D02*
X28784698Y-55634587D01*
X28165650Y-55634587D02*
X28260888Y-55586968D01*
X28260888Y-55586968D02*
X28308507Y-55539348D01*
X28308507Y-55539348D02*
X28356126Y-55444110D01*
X28356126Y-55444110D02*
X28356126Y-55158396D01*
X28356126Y-55158396D02*
X28308507Y-55063158D01*
X28308507Y-55063158D02*
X28260888Y-55015539D01*
X28260888Y-55015539D02*
X28165650Y-54967920D01*
X28165650Y-54967920D02*
X28022793Y-54967920D01*
X28022793Y-54967920D02*
X27927555Y-55015539D01*
X27927555Y-55015539D02*
X27879936Y-55063158D01*
X27879936Y-55063158D02*
X27832317Y-55158396D01*
X27832317Y-55158396D02*
X27832317Y-55444110D01*
X27832317Y-55444110D02*
X27879936Y-55539348D01*
X27879936Y-55539348D02*
X27927555Y-55586968D01*
X27927555Y-55586968D02*
X28022793Y-55634587D01*
X28022793Y-55634587D02*
X28165650Y-55634587D01*
X26975174Y-55634587D02*
X26975174Y-54634587D01*
X26975174Y-55586968D02*
X27070412Y-55634587D01*
X27070412Y-55634587D02*
X27260888Y-55634587D01*
X27260888Y-55634587D02*
X27356126Y-55586968D01*
X27356126Y-55586968D02*
X27403745Y-55539348D01*
X27403745Y-55539348D02*
X27451364Y-55444110D01*
X27451364Y-55444110D02*
X27451364Y-55158396D01*
X27451364Y-55158396D02*
X27403745Y-55063158D01*
X27403745Y-55063158D02*
X27356126Y-55015539D01*
X27356126Y-55015539D02*
X27260888Y-54967920D01*
X27260888Y-54967920D02*
X27070412Y-54967920D01*
X27070412Y-54967920D02*
X26975174Y-55015539D01*
X26070412Y-54967920D02*
X26070412Y-55634587D01*
X26498983Y-54967920D02*
X26498983Y-55491729D01*
X26498983Y-55491729D02*
X26451364Y-55586968D01*
X26451364Y-55586968D02*
X26356126Y-55634587D01*
X26356126Y-55634587D02*
X26213269Y-55634587D01*
X26213269Y-55634587D02*
X26118031Y-55586968D01*
X26118031Y-55586968D02*
X26070412Y-55539348D01*
X25451364Y-55634587D02*
X25546602Y-55586968D01*
X25546602Y-55586968D02*
X25594221Y-55491729D01*
X25594221Y-55491729D02*
X25594221Y-54634587D01*
X24689459Y-55586968D02*
X24784697Y-55634587D01*
X24784697Y-55634587D02*
X24975173Y-55634587D01*
X24975173Y-55634587D02*
X25070411Y-55586968D01*
X25070411Y-55586968D02*
X25118030Y-55491729D01*
X25118030Y-55491729D02*
X25118030Y-55110777D01*
X25118030Y-55110777D02*
X25070411Y-55015539D01*
X25070411Y-55015539D02*
X24975173Y-54967920D01*
X24975173Y-54967920D02*
X24784697Y-54967920D01*
X24784697Y-54967920D02*
X24689459Y-55015539D01*
X24689459Y-55015539D02*
X24641840Y-55110777D01*
X24641840Y-55110777D02*
X24641840Y-55206015D01*
X24641840Y-55206015D02*
X25118030Y-55301253D01*
X45498987Y-57244531D02*
X45832320Y-56768340D01*
X46070415Y-57244531D02*
X46070415Y-56244531D01*
X46070415Y-56244531D02*
X45689463Y-56244531D01*
X45689463Y-56244531D02*
X45594225Y-56292150D01*
X45594225Y-56292150D02*
X45546606Y-56339769D01*
X45546606Y-56339769D02*
X45498987Y-56435007D01*
X45498987Y-56435007D02*
X45498987Y-56577864D01*
X45498987Y-56577864D02*
X45546606Y-56673102D01*
X45546606Y-56673102D02*
X45594225Y-56720721D01*
X45594225Y-56720721D02*
X45689463Y-56768340D01*
X45689463Y-56768340D02*
X46070415Y-56768340D01*
X45118034Y-56339769D02*
X45070415Y-56292150D01*
X45070415Y-56292150D02*
X44975177Y-56244531D01*
X44975177Y-56244531D02*
X44737082Y-56244531D01*
X44737082Y-56244531D02*
X44641844Y-56292150D01*
X44641844Y-56292150D02*
X44594225Y-56339769D01*
X44594225Y-56339769D02*
X44546606Y-56435007D01*
X44546606Y-56435007D02*
X44546606Y-56530245D01*
X44546606Y-56530245D02*
X44594225Y-56673102D01*
X44594225Y-56673102D02*
X45165653Y-57244531D01*
X45165653Y-57244531D02*
X44546606Y-57244531D01*
X43927558Y-56244531D02*
X43832320Y-56244531D01*
X43832320Y-56244531D02*
X43737082Y-56292150D01*
X43737082Y-56292150D02*
X43689463Y-56339769D01*
X43689463Y-56339769D02*
X43641844Y-56435007D01*
X43641844Y-56435007D02*
X43594225Y-56625483D01*
X43594225Y-56625483D02*
X43594225Y-56863578D01*
X43594225Y-56863578D02*
X43641844Y-57054054D01*
X43641844Y-57054054D02*
X43689463Y-57149292D01*
X43689463Y-57149292D02*
X43737082Y-57196912D01*
X43737082Y-57196912D02*
X43832320Y-57244531D01*
X43832320Y-57244531D02*
X43927558Y-57244531D01*
X43927558Y-57244531D02*
X44022796Y-57196912D01*
X44022796Y-57196912D02*
X44070415Y-57149292D01*
X44070415Y-57149292D02*
X44118034Y-57054054D01*
X44118034Y-57054054D02*
X44165653Y-56863578D01*
X44165653Y-56863578D02*
X44165653Y-56625483D01*
X44165653Y-56625483D02*
X44118034Y-56435007D01*
X44118034Y-56435007D02*
X44070415Y-56339769D01*
X44070415Y-56339769D02*
X44022796Y-56292150D01*
X44022796Y-56292150D02*
X43927558Y-56244531D01*
X43213272Y-56339769D02*
X43165653Y-56292150D01*
X43165653Y-56292150D02*
X43070415Y-56244531D01*
X43070415Y-56244531D02*
X42832320Y-56244531D01*
X42832320Y-56244531D02*
X42737082Y-56292150D01*
X42737082Y-56292150D02*
X42689463Y-56339769D01*
X42689463Y-56339769D02*
X42641844Y-56435007D01*
X42641844Y-56435007D02*
X42641844Y-56530245D01*
X42641844Y-56530245D02*
X42689463Y-56673102D01*
X42689463Y-56673102D02*
X43260891Y-57244531D01*
X43260891Y-57244531D02*
X42641844Y-57244531D01*
X41737082Y-56244531D02*
X42213272Y-56244531D01*
X42213272Y-56244531D02*
X42260891Y-56720721D01*
X42260891Y-56720721D02*
X42213272Y-56673102D01*
X42213272Y-56673102D02*
X42118034Y-56625483D01*
X42118034Y-56625483D02*
X41879939Y-56625483D01*
X41879939Y-56625483D02*
X41784701Y-56673102D01*
X41784701Y-56673102D02*
X41737082Y-56720721D01*
X41737082Y-56720721D02*
X41689463Y-56815959D01*
X41689463Y-56815959D02*
X41689463Y-57054054D01*
X41689463Y-57054054D02*
X41737082Y-57149292D01*
X41737082Y-57149292D02*
X41784701Y-57196912D01*
X41784701Y-57196912D02*
X41879939Y-57244531D01*
X41879939Y-57244531D02*
X42118034Y-57244531D01*
X42118034Y-57244531D02*
X42213272Y-57196912D01*
X42213272Y-57196912D02*
X42260891Y-57149292D01*
X41070415Y-56244531D02*
X40975177Y-56244531D01*
X40975177Y-56244531D02*
X40879939Y-56292150D01*
X40879939Y-56292150D02*
X40832320Y-56339769D01*
X40832320Y-56339769D02*
X40784701Y-56435007D01*
X40784701Y-56435007D02*
X40737082Y-56625483D01*
X40737082Y-56625483D02*
X40737082Y-56863578D01*
X40737082Y-56863578D02*
X40784701Y-57054054D01*
X40784701Y-57054054D02*
X40832320Y-57149292D01*
X40832320Y-57149292D02*
X40879939Y-57196912D01*
X40879939Y-57196912D02*
X40975177Y-57244531D01*
X40975177Y-57244531D02*
X41070415Y-57244531D01*
X41070415Y-57244531D02*
X41165653Y-57196912D01*
X41165653Y-57196912D02*
X41213272Y-57149292D01*
X41213272Y-57149292D02*
X41260891Y-57054054D01*
X41260891Y-57054054D02*
X41308510Y-56863578D01*
X41308510Y-56863578D02*
X41308510Y-56625483D01*
X41308510Y-56625483D02*
X41260891Y-56435007D01*
X41260891Y-56435007D02*
X41213272Y-56339769D01*
X41213272Y-56339769D02*
X41165653Y-56292150D01*
X41165653Y-56292150D02*
X41070415Y-56244531D01*
X39879939Y-56577864D02*
X39879939Y-57244531D01*
X40118034Y-56196912D02*
X40356129Y-56911197D01*
X40356129Y-56911197D02*
X39737082Y-56911197D01*
X39165653Y-56244531D02*
X39070415Y-56244531D01*
X39070415Y-56244531D02*
X38975177Y-56292150D01*
X38975177Y-56292150D02*
X38927558Y-56339769D01*
X38927558Y-56339769D02*
X38879939Y-56435007D01*
X38879939Y-56435007D02*
X38832320Y-56625483D01*
X38832320Y-56625483D02*
X38832320Y-56863578D01*
X38832320Y-56863578D02*
X38879939Y-57054054D01*
X38879939Y-57054054D02*
X38927558Y-57149292D01*
X38927558Y-57149292D02*
X38975177Y-57196912D01*
X38975177Y-57196912D02*
X39070415Y-57244531D01*
X39070415Y-57244531D02*
X39165653Y-57244531D01*
X39165653Y-57244531D02*
X39260891Y-57196912D01*
X39260891Y-57196912D02*
X39308510Y-57149292D01*
X39308510Y-57149292D02*
X39356129Y-57054054D01*
X39356129Y-57054054D02*
X39403748Y-56863578D01*
X39403748Y-56863578D02*
X39403748Y-56625483D01*
X39403748Y-56625483D02*
X39356129Y-56435007D01*
X39356129Y-56435007D02*
X39308510Y-56339769D01*
X39308510Y-56339769D02*
X39260891Y-56292150D01*
X39260891Y-56292150D02*
X39165653Y-56244531D01*
X37927558Y-56244531D02*
X38403748Y-56244531D01*
X38403748Y-56244531D02*
X38451367Y-56720721D01*
X38451367Y-56720721D02*
X38403748Y-56673102D01*
X38403748Y-56673102D02*
X38308510Y-56625483D01*
X38308510Y-56625483D02*
X38070415Y-56625483D01*
X38070415Y-56625483D02*
X37975177Y-56673102D01*
X37975177Y-56673102D02*
X37927558Y-56720721D01*
X37927558Y-56720721D02*
X37879939Y-56815959D01*
X37879939Y-56815959D02*
X37879939Y-57054054D01*
X37879939Y-57054054D02*
X37927558Y-57149292D01*
X37927558Y-57149292D02*
X37975177Y-57196912D01*
X37975177Y-57196912D02*
X38070415Y-57244531D01*
X38070415Y-57244531D02*
X38308510Y-57244531D01*
X38308510Y-57244531D02*
X38403748Y-57196912D01*
X38403748Y-57196912D02*
X38451367Y-57149292D01*
X45641844Y-58187808D02*
X45641844Y-58997332D01*
X45641844Y-58997332D02*
X45689463Y-59092570D01*
X45689463Y-59092570D02*
X45737082Y-59140189D01*
X45737082Y-59140189D02*
X45832320Y-59187808D01*
X45832320Y-59187808D02*
X45975177Y-59187808D01*
X45975177Y-59187808D02*
X46070415Y-59140189D01*
X45641844Y-58806856D02*
X45737082Y-58854475D01*
X45737082Y-58854475D02*
X45927558Y-58854475D01*
X45927558Y-58854475D02*
X46022796Y-58806856D01*
X46022796Y-58806856D02*
X46070415Y-58759236D01*
X46070415Y-58759236D02*
X46118034Y-58663998D01*
X46118034Y-58663998D02*
X46118034Y-58378284D01*
X46118034Y-58378284D02*
X46070415Y-58283046D01*
X46070415Y-58283046D02*
X46022796Y-58235427D01*
X46022796Y-58235427D02*
X45927558Y-58187808D01*
X45927558Y-58187808D02*
X45737082Y-58187808D01*
X45737082Y-58187808D02*
X45641844Y-58235427D01*
X45165653Y-58854475D02*
X45165653Y-58187808D01*
X45165653Y-57854475D02*
X45213272Y-57902094D01*
X45213272Y-57902094D02*
X45165653Y-57949713D01*
X45165653Y-57949713D02*
X45118034Y-57902094D01*
X45118034Y-57902094D02*
X45165653Y-57854475D01*
X45165653Y-57854475D02*
X45165653Y-57949713D01*
X44832320Y-58187808D02*
X44451368Y-58187808D01*
X44689463Y-57854475D02*
X44689463Y-58711617D01*
X44689463Y-58711617D02*
X44641844Y-58806856D01*
X44641844Y-58806856D02*
X44546606Y-58854475D01*
X44546606Y-58854475D02*
X44451368Y-58854475D01*
X44118034Y-58854475D02*
X44118034Y-57854475D01*
X43689463Y-58854475D02*
X43689463Y-58330665D01*
X43689463Y-58330665D02*
X43737082Y-58235427D01*
X43737082Y-58235427D02*
X43832320Y-58187808D01*
X43832320Y-58187808D02*
X43975177Y-58187808D01*
X43975177Y-58187808D02*
X44070415Y-58235427D01*
X44070415Y-58235427D02*
X44118034Y-58283046D01*
X42784701Y-58187808D02*
X42784701Y-58854475D01*
X43213272Y-58187808D02*
X43213272Y-58711617D01*
X43213272Y-58711617D02*
X43165653Y-58806856D01*
X43165653Y-58806856D02*
X43070415Y-58854475D01*
X43070415Y-58854475D02*
X42927558Y-58854475D01*
X42927558Y-58854475D02*
X42832320Y-58806856D01*
X42832320Y-58806856D02*
X42784701Y-58759236D01*
X42308510Y-58854475D02*
X42308510Y-57854475D01*
X42308510Y-58235427D02*
X42213272Y-58187808D01*
X42213272Y-58187808D02*
X42022796Y-58187808D01*
X42022796Y-58187808D02*
X41927558Y-58235427D01*
X41927558Y-58235427D02*
X41879939Y-58283046D01*
X41879939Y-58283046D02*
X41832320Y-58378284D01*
X41832320Y-58378284D02*
X41832320Y-58663998D01*
X41832320Y-58663998D02*
X41879939Y-58759236D01*
X41879939Y-58759236D02*
X41927558Y-58806856D01*
X41927558Y-58806856D02*
X42022796Y-58854475D01*
X42022796Y-58854475D02*
X42213272Y-58854475D01*
X42213272Y-58854475D02*
X42308510Y-58806856D01*
X41403748Y-58759236D02*
X41356129Y-58806856D01*
X41356129Y-58806856D02*
X41403748Y-58854475D01*
X41403748Y-58854475D02*
X41451367Y-58806856D01*
X41451367Y-58806856D02*
X41403748Y-58759236D01*
X41403748Y-58759236D02*
X41403748Y-58854475D01*
X40498987Y-58806856D02*
X40594225Y-58854475D01*
X40594225Y-58854475D02*
X40784701Y-58854475D01*
X40784701Y-58854475D02*
X40879939Y-58806856D01*
X40879939Y-58806856D02*
X40927558Y-58759236D01*
X40927558Y-58759236D02*
X40975177Y-58663998D01*
X40975177Y-58663998D02*
X40975177Y-58378284D01*
X40975177Y-58378284D02*
X40927558Y-58283046D01*
X40927558Y-58283046D02*
X40879939Y-58235427D01*
X40879939Y-58235427D02*
X40784701Y-58187808D01*
X40784701Y-58187808D02*
X40594225Y-58187808D01*
X40594225Y-58187808D02*
X40498987Y-58235427D01*
X39927558Y-58854475D02*
X40022796Y-58806856D01*
X40022796Y-58806856D02*
X40070415Y-58759236D01*
X40070415Y-58759236D02*
X40118034Y-58663998D01*
X40118034Y-58663998D02*
X40118034Y-58378284D01*
X40118034Y-58378284D02*
X40070415Y-58283046D01*
X40070415Y-58283046D02*
X40022796Y-58235427D01*
X40022796Y-58235427D02*
X39927558Y-58187808D01*
X39927558Y-58187808D02*
X39784701Y-58187808D01*
X39784701Y-58187808D02*
X39689463Y-58235427D01*
X39689463Y-58235427D02*
X39641844Y-58283046D01*
X39641844Y-58283046D02*
X39594225Y-58378284D01*
X39594225Y-58378284D02*
X39594225Y-58663998D01*
X39594225Y-58663998D02*
X39641844Y-58759236D01*
X39641844Y-58759236D02*
X39689463Y-58806856D01*
X39689463Y-58806856D02*
X39784701Y-58854475D01*
X39784701Y-58854475D02*
X39927558Y-58854475D01*
X39165653Y-58854475D02*
X39165653Y-58187808D01*
X39165653Y-58283046D02*
X39118034Y-58235427D01*
X39118034Y-58235427D02*
X39022796Y-58187808D01*
X39022796Y-58187808D02*
X38879939Y-58187808D01*
X38879939Y-58187808D02*
X38784701Y-58235427D01*
X38784701Y-58235427D02*
X38737082Y-58330665D01*
X38737082Y-58330665D02*
X38737082Y-58854475D01*
X38737082Y-58330665D02*
X38689463Y-58235427D01*
X38689463Y-58235427D02*
X38594225Y-58187808D01*
X38594225Y-58187808D02*
X38451368Y-58187808D01*
X38451368Y-58187808D02*
X38356129Y-58235427D01*
X38356129Y-58235427D02*
X38308510Y-58330665D01*
X38308510Y-58330665D02*
X38308510Y-58854475D01*
X37118035Y-57806856D02*
X37975177Y-59092570D01*
X36784701Y-58854475D02*
X36784701Y-58187808D01*
X36784701Y-58283046D02*
X36737082Y-58235427D01*
X36737082Y-58235427D02*
X36641844Y-58187808D01*
X36641844Y-58187808D02*
X36498987Y-58187808D01*
X36498987Y-58187808D02*
X36403749Y-58235427D01*
X36403749Y-58235427D02*
X36356130Y-58330665D01*
X36356130Y-58330665D02*
X36356130Y-58854475D01*
X36356130Y-58330665D02*
X36308511Y-58235427D01*
X36308511Y-58235427D02*
X36213273Y-58187808D01*
X36213273Y-58187808D02*
X36070416Y-58187808D01*
X36070416Y-58187808D02*
X35975177Y-58235427D01*
X35975177Y-58235427D02*
X35927558Y-58330665D01*
X35927558Y-58330665D02*
X35927558Y-58854475D01*
X35070416Y-58806856D02*
X35165654Y-58854475D01*
X35165654Y-58854475D02*
X35356130Y-58854475D01*
X35356130Y-58854475D02*
X35451368Y-58806856D01*
X35451368Y-58806856D02*
X35498987Y-58711617D01*
X35498987Y-58711617D02*
X35498987Y-58330665D01*
X35498987Y-58330665D02*
X35451368Y-58235427D01*
X35451368Y-58235427D02*
X35356130Y-58187808D01*
X35356130Y-58187808D02*
X35165654Y-58187808D01*
X35165654Y-58187808D02*
X35070416Y-58235427D01*
X35070416Y-58235427D02*
X35022797Y-58330665D01*
X35022797Y-58330665D02*
X35022797Y-58425903D01*
X35022797Y-58425903D02*
X35498987Y-58521141D01*
X34165654Y-58187808D02*
X34165654Y-58997332D01*
X34165654Y-58997332D02*
X34213273Y-59092570D01*
X34213273Y-59092570D02*
X34260892Y-59140189D01*
X34260892Y-59140189D02*
X34356130Y-59187808D01*
X34356130Y-59187808D02*
X34498987Y-59187808D01*
X34498987Y-59187808D02*
X34594225Y-59140189D01*
X34165654Y-58806856D02*
X34260892Y-58854475D01*
X34260892Y-58854475D02*
X34451368Y-58854475D01*
X34451368Y-58854475D02*
X34546606Y-58806856D01*
X34546606Y-58806856D02*
X34594225Y-58759236D01*
X34594225Y-58759236D02*
X34641844Y-58663998D01*
X34641844Y-58663998D02*
X34641844Y-58378284D01*
X34641844Y-58378284D02*
X34594225Y-58283046D01*
X34594225Y-58283046D02*
X34546606Y-58235427D01*
X34546606Y-58235427D02*
X34451368Y-58187808D01*
X34451368Y-58187808D02*
X34260892Y-58187808D01*
X34260892Y-58187808D02*
X34165654Y-58235427D01*
X33260892Y-58854475D02*
X33260892Y-58330665D01*
X33260892Y-58330665D02*
X33308511Y-58235427D01*
X33308511Y-58235427D02*
X33403749Y-58187808D01*
X33403749Y-58187808D02*
X33594225Y-58187808D01*
X33594225Y-58187808D02*
X33689463Y-58235427D01*
X33260892Y-58806856D02*
X33356130Y-58854475D01*
X33356130Y-58854475D02*
X33594225Y-58854475D01*
X33594225Y-58854475D02*
X33689463Y-58806856D01*
X33689463Y-58806856D02*
X33737082Y-58711617D01*
X33737082Y-58711617D02*
X33737082Y-58616379D01*
X33737082Y-58616379D02*
X33689463Y-58521141D01*
X33689463Y-58521141D02*
X33594225Y-58473522D01*
X33594225Y-58473522D02*
X33356130Y-58473522D01*
X33356130Y-58473522D02*
X33260892Y-58425903D01*
X32356130Y-57854475D02*
X32546606Y-57854475D01*
X32546606Y-57854475D02*
X32641844Y-57902094D01*
X32641844Y-57902094D02*
X32689463Y-57949713D01*
X32689463Y-57949713D02*
X32784701Y-58092570D01*
X32784701Y-58092570D02*
X32832320Y-58283046D01*
X32832320Y-58283046D02*
X32832320Y-58663998D01*
X32832320Y-58663998D02*
X32784701Y-58759236D01*
X32784701Y-58759236D02*
X32737082Y-58806856D01*
X32737082Y-58806856D02*
X32641844Y-58854475D01*
X32641844Y-58854475D02*
X32451368Y-58854475D01*
X32451368Y-58854475D02*
X32356130Y-58806856D01*
X32356130Y-58806856D02*
X32308511Y-58759236D01*
X32308511Y-58759236D02*
X32260892Y-58663998D01*
X32260892Y-58663998D02*
X32260892Y-58425903D01*
X32260892Y-58425903D02*
X32308511Y-58330665D01*
X32308511Y-58330665D02*
X32356130Y-58283046D01*
X32356130Y-58283046D02*
X32451368Y-58235427D01*
X32451368Y-58235427D02*
X32641844Y-58235427D01*
X32641844Y-58235427D02*
X32737082Y-58283046D01*
X32737082Y-58283046D02*
X32784701Y-58330665D01*
X32784701Y-58330665D02*
X32832320Y-58425903D01*
X31356130Y-57854475D02*
X31832320Y-57854475D01*
X31832320Y-57854475D02*
X31879939Y-58330665D01*
X31879939Y-58330665D02*
X31832320Y-58283046D01*
X31832320Y-58283046D02*
X31737082Y-58235427D01*
X31737082Y-58235427D02*
X31498987Y-58235427D01*
X31498987Y-58235427D02*
X31403749Y-58283046D01*
X31403749Y-58283046D02*
X31356130Y-58330665D01*
X31356130Y-58330665D02*
X31308511Y-58425903D01*
X31308511Y-58425903D02*
X31308511Y-58663998D01*
X31308511Y-58663998D02*
X31356130Y-58759236D01*
X31356130Y-58759236D02*
X31403749Y-58806856D01*
X31403749Y-58806856D02*
X31498987Y-58854475D01*
X31498987Y-58854475D02*
X31737082Y-58854475D01*
X31737082Y-58854475D02*
X31832320Y-58806856D01*
X31832320Y-58806856D02*
X31879939Y-58759236D01*
X30165654Y-57806856D02*
X31022796Y-59092570D01*
X46070415Y-60464419D02*
X46070415Y-59797752D01*
X46070415Y-59892990D02*
X46022796Y-59845371D01*
X46022796Y-59845371D02*
X45927558Y-59797752D01*
X45927558Y-59797752D02*
X45784701Y-59797752D01*
X45784701Y-59797752D02*
X45689463Y-59845371D01*
X45689463Y-59845371D02*
X45641844Y-59940609D01*
X45641844Y-59940609D02*
X45641844Y-60464419D01*
X45641844Y-59940609D02*
X45594225Y-59845371D01*
X45594225Y-59845371D02*
X45498987Y-59797752D01*
X45498987Y-59797752D02*
X45356130Y-59797752D01*
X45356130Y-59797752D02*
X45260891Y-59845371D01*
X45260891Y-59845371D02*
X45213272Y-59940609D01*
X45213272Y-59940609D02*
X45213272Y-60464419D01*
X44356130Y-60416800D02*
X44451368Y-60464419D01*
X44451368Y-60464419D02*
X44641844Y-60464419D01*
X44641844Y-60464419D02*
X44737082Y-60416800D01*
X44737082Y-60416800D02*
X44784701Y-60321561D01*
X44784701Y-60321561D02*
X44784701Y-59940609D01*
X44784701Y-59940609D02*
X44737082Y-59845371D01*
X44737082Y-59845371D02*
X44641844Y-59797752D01*
X44641844Y-59797752D02*
X44451368Y-59797752D01*
X44451368Y-59797752D02*
X44356130Y-59845371D01*
X44356130Y-59845371D02*
X44308511Y-59940609D01*
X44308511Y-59940609D02*
X44308511Y-60035847D01*
X44308511Y-60035847D02*
X44784701Y-60131085D01*
X43451368Y-59797752D02*
X43451368Y-60607276D01*
X43451368Y-60607276D02*
X43498987Y-60702514D01*
X43498987Y-60702514D02*
X43546606Y-60750133D01*
X43546606Y-60750133D02*
X43641844Y-60797752D01*
X43641844Y-60797752D02*
X43784701Y-60797752D01*
X43784701Y-60797752D02*
X43879939Y-60750133D01*
X43451368Y-60416800D02*
X43546606Y-60464419D01*
X43546606Y-60464419D02*
X43737082Y-60464419D01*
X43737082Y-60464419D02*
X43832320Y-60416800D01*
X43832320Y-60416800D02*
X43879939Y-60369180D01*
X43879939Y-60369180D02*
X43927558Y-60273942D01*
X43927558Y-60273942D02*
X43927558Y-59988228D01*
X43927558Y-59988228D02*
X43879939Y-59892990D01*
X43879939Y-59892990D02*
X43832320Y-59845371D01*
X43832320Y-59845371D02*
X43737082Y-59797752D01*
X43737082Y-59797752D02*
X43546606Y-59797752D01*
X43546606Y-59797752D02*
X43451368Y-59845371D01*
X42546606Y-60464419D02*
X42546606Y-59940609D01*
X42546606Y-59940609D02*
X42594225Y-59845371D01*
X42594225Y-59845371D02*
X42689463Y-59797752D01*
X42689463Y-59797752D02*
X42879939Y-59797752D01*
X42879939Y-59797752D02*
X42975177Y-59845371D01*
X42546606Y-60416800D02*
X42641844Y-60464419D01*
X42641844Y-60464419D02*
X42879939Y-60464419D01*
X42879939Y-60464419D02*
X42975177Y-60416800D01*
X42975177Y-60416800D02*
X43022796Y-60321561D01*
X43022796Y-60321561D02*
X43022796Y-60226323D01*
X43022796Y-60226323D02*
X42975177Y-60131085D01*
X42975177Y-60131085D02*
X42879939Y-60083466D01*
X42879939Y-60083466D02*
X42641844Y-60083466D01*
X42641844Y-60083466D02*
X42546606Y-60035847D01*
X42070415Y-59797752D02*
X42070415Y-60797752D01*
X42070415Y-59845371D02*
X41975177Y-59797752D01*
X41975177Y-59797752D02*
X41784701Y-59797752D01*
X41784701Y-59797752D02*
X41689463Y-59845371D01*
X41689463Y-59845371D02*
X41641844Y-59892990D01*
X41641844Y-59892990D02*
X41594225Y-59988228D01*
X41594225Y-59988228D02*
X41594225Y-60273942D01*
X41594225Y-60273942D02*
X41641844Y-60369180D01*
X41641844Y-60369180D02*
X41689463Y-60416800D01*
X41689463Y-60416800D02*
X41784701Y-60464419D01*
X41784701Y-60464419D02*
X41975177Y-60464419D01*
X41975177Y-60464419D02*
X42070415Y-60416800D01*
X41165653Y-60464419D02*
X41165653Y-59464419D01*
X40737082Y-60464419D02*
X40737082Y-59940609D01*
X40737082Y-59940609D02*
X40784701Y-59845371D01*
X40784701Y-59845371D02*
X40879939Y-59797752D01*
X40879939Y-59797752D02*
X41022796Y-59797752D01*
X41022796Y-59797752D02*
X41118034Y-59845371D01*
X41118034Y-59845371D02*
X41165653Y-59892990D01*
X40118034Y-60464419D02*
X40213272Y-60416800D01*
X40213272Y-60416800D02*
X40260891Y-60369180D01*
X40260891Y-60369180D02*
X40308510Y-60273942D01*
X40308510Y-60273942D02*
X40308510Y-59988228D01*
X40308510Y-59988228D02*
X40260891Y-59892990D01*
X40260891Y-59892990D02*
X40213272Y-59845371D01*
X40213272Y-59845371D02*
X40118034Y-59797752D01*
X40118034Y-59797752D02*
X39975177Y-59797752D01*
X39975177Y-59797752D02*
X39879939Y-59845371D01*
X39879939Y-59845371D02*
X39832320Y-59892990D01*
X39832320Y-59892990D02*
X39784701Y-59988228D01*
X39784701Y-59988228D02*
X39784701Y-60273942D01*
X39784701Y-60273942D02*
X39832320Y-60369180D01*
X39832320Y-60369180D02*
X39879939Y-60416800D01*
X39879939Y-60416800D02*
X39975177Y-60464419D01*
X39975177Y-60464419D02*
X40118034Y-60464419D01*
X39356129Y-59797752D02*
X39356129Y-60464419D01*
X39356129Y-59892990D02*
X39308510Y-59845371D01*
X39308510Y-59845371D02*
X39213272Y-59797752D01*
X39213272Y-59797752D02*
X39070415Y-59797752D01*
X39070415Y-59797752D02*
X38975177Y-59845371D01*
X38975177Y-59845371D02*
X38927558Y-59940609D01*
X38927558Y-59940609D02*
X38927558Y-60464419D01*
X38070415Y-60416800D02*
X38165653Y-60464419D01*
X38165653Y-60464419D02*
X38356129Y-60464419D01*
X38356129Y-60464419D02*
X38451367Y-60416800D01*
X38451367Y-60416800D02*
X38498986Y-60321561D01*
X38498986Y-60321561D02*
X38498986Y-59940609D01*
X38498986Y-59940609D02*
X38451367Y-59845371D01*
X38451367Y-59845371D02*
X38356129Y-59797752D01*
X38356129Y-59797752D02*
X38165653Y-59797752D01*
X38165653Y-59797752D02*
X38070415Y-59845371D01*
X38070415Y-59845371D02*
X38022796Y-59940609D01*
X38022796Y-59940609D02*
X38022796Y-60035847D01*
X38022796Y-60035847D02*
X38498986Y-60131085D01*
X37594224Y-60083466D02*
X36832320Y-60083466D01*
X36356129Y-60464419D02*
X36356129Y-59797752D01*
X36356129Y-59892990D02*
X36308510Y-59845371D01*
X36308510Y-59845371D02*
X36213272Y-59797752D01*
X36213272Y-59797752D02*
X36070415Y-59797752D01*
X36070415Y-59797752D02*
X35975177Y-59845371D01*
X35975177Y-59845371D02*
X35927558Y-59940609D01*
X35927558Y-59940609D02*
X35927558Y-60464419D01*
X35927558Y-59940609D02*
X35879939Y-59845371D01*
X35879939Y-59845371D02*
X35784701Y-59797752D01*
X35784701Y-59797752D02*
X35641844Y-59797752D01*
X35641844Y-59797752D02*
X35546605Y-59845371D01*
X35546605Y-59845371D02*
X35498986Y-59940609D01*
X35498986Y-59940609D02*
X35498986Y-60464419D01*
X34879939Y-60464419D02*
X34975177Y-60416800D01*
X34975177Y-60416800D02*
X35022796Y-60369180D01*
X35022796Y-60369180D02*
X35070415Y-60273942D01*
X35070415Y-60273942D02*
X35070415Y-59988228D01*
X35070415Y-59988228D02*
X35022796Y-59892990D01*
X35022796Y-59892990D02*
X34975177Y-59845371D01*
X34975177Y-59845371D02*
X34879939Y-59797752D01*
X34879939Y-59797752D02*
X34737082Y-59797752D01*
X34737082Y-59797752D02*
X34641844Y-59845371D01*
X34641844Y-59845371D02*
X34594225Y-59892990D01*
X34594225Y-59892990D02*
X34546606Y-59988228D01*
X34546606Y-59988228D02*
X34546606Y-60273942D01*
X34546606Y-60273942D02*
X34594225Y-60369180D01*
X34594225Y-60369180D02*
X34641844Y-60416800D01*
X34641844Y-60416800D02*
X34737082Y-60464419D01*
X34737082Y-60464419D02*
X34879939Y-60464419D01*
X33689463Y-60464419D02*
X33689463Y-59464419D01*
X33689463Y-60416800D02*
X33784701Y-60464419D01*
X33784701Y-60464419D02*
X33975177Y-60464419D01*
X33975177Y-60464419D02*
X34070415Y-60416800D01*
X34070415Y-60416800D02*
X34118034Y-60369180D01*
X34118034Y-60369180D02*
X34165653Y-60273942D01*
X34165653Y-60273942D02*
X34165653Y-59988228D01*
X34165653Y-59988228D02*
X34118034Y-59892990D01*
X34118034Y-59892990D02*
X34070415Y-59845371D01*
X34070415Y-59845371D02*
X33975177Y-59797752D01*
X33975177Y-59797752D02*
X33784701Y-59797752D01*
X33784701Y-59797752D02*
X33689463Y-59845371D01*
X32784701Y-59797752D02*
X32784701Y-60464419D01*
X33213272Y-59797752D02*
X33213272Y-60321561D01*
X33213272Y-60321561D02*
X33165653Y-60416800D01*
X33165653Y-60416800D02*
X33070415Y-60464419D01*
X33070415Y-60464419D02*
X32927558Y-60464419D01*
X32927558Y-60464419D02*
X32832320Y-60416800D01*
X32832320Y-60416800D02*
X32784701Y-60369180D01*
X32165653Y-60464419D02*
X32260891Y-60416800D01*
X32260891Y-60416800D02*
X32308510Y-60321561D01*
X32308510Y-60321561D02*
X32308510Y-59464419D01*
X31356129Y-60464419D02*
X31356129Y-59940609D01*
X31356129Y-59940609D02*
X31403748Y-59845371D01*
X31403748Y-59845371D02*
X31498986Y-59797752D01*
X31498986Y-59797752D02*
X31689462Y-59797752D01*
X31689462Y-59797752D02*
X31784700Y-59845371D01*
X31356129Y-60416800D02*
X31451367Y-60464419D01*
X31451367Y-60464419D02*
X31689462Y-60464419D01*
X31689462Y-60464419D02*
X31784700Y-60416800D01*
X31784700Y-60416800D02*
X31832319Y-60321561D01*
X31832319Y-60321561D02*
X31832319Y-60226323D01*
X31832319Y-60226323D02*
X31784700Y-60131085D01*
X31784700Y-60131085D02*
X31689462Y-60083466D01*
X31689462Y-60083466D02*
X31451367Y-60083466D01*
X31451367Y-60083466D02*
X31356129Y-60035847D01*
X30879938Y-60464419D02*
X30879938Y-59797752D01*
X30879938Y-59988228D02*
X30832319Y-59892990D01*
X30832319Y-59892990D02*
X30784700Y-59845371D01*
X30784700Y-59845371D02*
X30689462Y-59797752D01*
X30689462Y-59797752D02*
X30594224Y-59797752D01*
X37338091Y-45701230D02*
X37604758Y-45320277D01*
X37795234Y-45701230D02*
X37795234Y-44901230D01*
X37795234Y-44901230D02*
X37490472Y-44901230D01*
X37490472Y-44901230D02*
X37414282Y-44939325D01*
X37414282Y-44939325D02*
X37376187Y-44977420D01*
X37376187Y-44977420D02*
X37338091Y-45053611D01*
X37338091Y-45053611D02*
X37338091Y-45167896D01*
X37338091Y-45167896D02*
X37376187Y-45244087D01*
X37376187Y-45244087D02*
X37414282Y-45282182D01*
X37414282Y-45282182D02*
X37490472Y-45320277D01*
X37490472Y-45320277D02*
X37795234Y-45320277D01*
X36690472Y-45663135D02*
X36766663Y-45701230D01*
X36766663Y-45701230D02*
X36919044Y-45701230D01*
X36919044Y-45701230D02*
X36995234Y-45663135D01*
X36995234Y-45663135D02*
X37033330Y-45586944D01*
X37033330Y-45586944D02*
X37033330Y-45282182D01*
X37033330Y-45282182D02*
X36995234Y-45205992D01*
X36995234Y-45205992D02*
X36919044Y-45167896D01*
X36919044Y-45167896D02*
X36766663Y-45167896D01*
X36766663Y-45167896D02*
X36690472Y-45205992D01*
X36690472Y-45205992D02*
X36652377Y-45282182D01*
X36652377Y-45282182D02*
X36652377Y-45358373D01*
X36652377Y-45358373D02*
X37033330Y-45434563D01*
X36385711Y-45167896D02*
X36195235Y-45701230D01*
X36195235Y-45701230D02*
X36004758Y-45167896D01*
X35395234Y-45663135D02*
X35471425Y-45701230D01*
X35471425Y-45701230D02*
X35623806Y-45701230D01*
X35623806Y-45701230D02*
X35699996Y-45663135D01*
X35699996Y-45663135D02*
X35738092Y-45586944D01*
X35738092Y-45586944D02*
X35738092Y-45282182D01*
X35738092Y-45282182D02*
X35699996Y-45205992D01*
X35699996Y-45205992D02*
X35623806Y-45167896D01*
X35623806Y-45167896D02*
X35471425Y-45167896D01*
X35471425Y-45167896D02*
X35395234Y-45205992D01*
X35395234Y-45205992D02*
X35357139Y-45282182D01*
X35357139Y-45282182D02*
X35357139Y-45358373D01*
X35357139Y-45358373D02*
X35738092Y-45434563D01*
X35014282Y-45701230D02*
X35014282Y-45167896D01*
X35014282Y-45320277D02*
X34976187Y-45244087D01*
X34976187Y-45244087D02*
X34938092Y-45205992D01*
X34938092Y-45205992D02*
X34861901Y-45167896D01*
X34861901Y-45167896D02*
X34785711Y-45167896D01*
X34557140Y-45663135D02*
X34480949Y-45701230D01*
X34480949Y-45701230D02*
X34328568Y-45701230D01*
X34328568Y-45701230D02*
X34252378Y-45663135D01*
X34252378Y-45663135D02*
X34214282Y-45586944D01*
X34214282Y-45586944D02*
X34214282Y-45548849D01*
X34214282Y-45548849D02*
X34252378Y-45472658D01*
X34252378Y-45472658D02*
X34328568Y-45434563D01*
X34328568Y-45434563D02*
X34442854Y-45434563D01*
X34442854Y-45434563D02*
X34519044Y-45396468D01*
X34519044Y-45396468D02*
X34557140Y-45320277D01*
X34557140Y-45320277D02*
X34557140Y-45282182D01*
X34557140Y-45282182D02*
X34519044Y-45205992D01*
X34519044Y-45205992D02*
X34442854Y-45167896D01*
X34442854Y-45167896D02*
X34328568Y-45167896D01*
X34328568Y-45167896D02*
X34252378Y-45205992D01*
X33566663Y-45663135D02*
X33642854Y-45701230D01*
X33642854Y-45701230D02*
X33795235Y-45701230D01*
X33795235Y-45701230D02*
X33871425Y-45663135D01*
X33871425Y-45663135D02*
X33909521Y-45586944D01*
X33909521Y-45586944D02*
X33909521Y-45282182D01*
X33909521Y-45282182D02*
X33871425Y-45205992D01*
X33871425Y-45205992D02*
X33795235Y-45167896D01*
X33795235Y-45167896D02*
X33642854Y-45167896D01*
X33642854Y-45167896D02*
X33566663Y-45205992D01*
X33566663Y-45205992D02*
X33528568Y-45282182D01*
X33528568Y-45282182D02*
X33528568Y-45358373D01*
X33528568Y-45358373D02*
X33909521Y-45434563D01*
X37795234Y-46989185D02*
X37795234Y-46189185D01*
X37795234Y-46189185D02*
X37490472Y-46189185D01*
X37490472Y-46189185D02*
X37414282Y-46227280D01*
X37414282Y-46227280D02*
X37376187Y-46265375D01*
X37376187Y-46265375D02*
X37338091Y-46341566D01*
X37338091Y-46341566D02*
X37338091Y-46455851D01*
X37338091Y-46455851D02*
X37376187Y-46532042D01*
X37376187Y-46532042D02*
X37414282Y-46570137D01*
X37414282Y-46570137D02*
X37490472Y-46608232D01*
X37490472Y-46608232D02*
X37795234Y-46608232D01*
X36880949Y-46989185D02*
X36957139Y-46951090D01*
X36957139Y-46951090D02*
X36995234Y-46912994D01*
X36995234Y-46912994D02*
X37033330Y-46836804D01*
X37033330Y-46836804D02*
X37033330Y-46608232D01*
X37033330Y-46608232D02*
X36995234Y-46532042D01*
X36995234Y-46532042D02*
X36957139Y-46493947D01*
X36957139Y-46493947D02*
X36880949Y-46455851D01*
X36880949Y-46455851D02*
X36766663Y-46455851D01*
X36766663Y-46455851D02*
X36690472Y-46493947D01*
X36690472Y-46493947D02*
X36652377Y-46532042D01*
X36652377Y-46532042D02*
X36614282Y-46608232D01*
X36614282Y-46608232D02*
X36614282Y-46836804D01*
X36614282Y-46836804D02*
X36652377Y-46912994D01*
X36652377Y-46912994D02*
X36690472Y-46951090D01*
X36690472Y-46951090D02*
X36766663Y-46989185D01*
X36766663Y-46989185D02*
X36880949Y-46989185D01*
X36157139Y-46989185D02*
X36233329Y-46951090D01*
X36233329Y-46951090D02*
X36271424Y-46874899D01*
X36271424Y-46874899D02*
X36271424Y-46189185D01*
X35509519Y-46989185D02*
X35509519Y-46570137D01*
X35509519Y-46570137D02*
X35547614Y-46493947D01*
X35547614Y-46493947D02*
X35623805Y-46455851D01*
X35623805Y-46455851D02*
X35776186Y-46455851D01*
X35776186Y-46455851D02*
X35852376Y-46493947D01*
X35509519Y-46951090D02*
X35585710Y-46989185D01*
X35585710Y-46989185D02*
X35776186Y-46989185D01*
X35776186Y-46989185D02*
X35852376Y-46951090D01*
X35852376Y-46951090D02*
X35890472Y-46874899D01*
X35890472Y-46874899D02*
X35890472Y-46798709D01*
X35890472Y-46798709D02*
X35852376Y-46722518D01*
X35852376Y-46722518D02*
X35776186Y-46684423D01*
X35776186Y-46684423D02*
X35585710Y-46684423D01*
X35585710Y-46684423D02*
X35509519Y-46646328D01*
X35128566Y-46989185D02*
X35128566Y-46455851D01*
X35128566Y-46608232D02*
X35090471Y-46532042D01*
X35090471Y-46532042D02*
X35052376Y-46493947D01*
X35052376Y-46493947D02*
X34976185Y-46455851D01*
X34976185Y-46455851D02*
X34899995Y-46455851D01*
X34633328Y-46989185D02*
X34633328Y-46455851D01*
X34633328Y-46189185D02*
X34671424Y-46227280D01*
X34671424Y-46227280D02*
X34633328Y-46265375D01*
X34633328Y-46265375D02*
X34595233Y-46227280D01*
X34595233Y-46227280D02*
X34633328Y-46189185D01*
X34633328Y-46189185D02*
X34633328Y-46265375D01*
X34366662Y-46455851D02*
X34061900Y-46455851D01*
X34252376Y-46189185D02*
X34252376Y-46874899D01*
X34252376Y-46874899D02*
X34214281Y-46951090D01*
X34214281Y-46951090D02*
X34138091Y-46989185D01*
X34138091Y-46989185D02*
X34061900Y-46989185D01*
X33871424Y-46455851D02*
X33680948Y-46989185D01*
X33490471Y-46455851D02*
X33680948Y-46989185D01*
X33680948Y-46989185D02*
X33757138Y-47179661D01*
X33757138Y-47179661D02*
X33795233Y-47217756D01*
X33795233Y-47217756D02*
X33871424Y-47255851D01*
X37795234Y-48277140D02*
X37795234Y-47477140D01*
X37795234Y-47477140D02*
X37490472Y-47477140D01*
X37490472Y-47477140D02*
X37414282Y-47515235D01*
X37414282Y-47515235D02*
X37376187Y-47553330D01*
X37376187Y-47553330D02*
X37338091Y-47629521D01*
X37338091Y-47629521D02*
X37338091Y-47743806D01*
X37338091Y-47743806D02*
X37376187Y-47819997D01*
X37376187Y-47819997D02*
X37414282Y-47858092D01*
X37414282Y-47858092D02*
X37490472Y-47896187D01*
X37490472Y-47896187D02*
X37795234Y-47896187D01*
X36995234Y-48277140D02*
X36995234Y-47743806D01*
X36995234Y-47896187D02*
X36957139Y-47819997D01*
X36957139Y-47819997D02*
X36919044Y-47781902D01*
X36919044Y-47781902D02*
X36842853Y-47743806D01*
X36842853Y-47743806D02*
X36766663Y-47743806D01*
X36385711Y-48277140D02*
X36461901Y-48239045D01*
X36461901Y-48239045D02*
X36499996Y-48200949D01*
X36499996Y-48200949D02*
X36538092Y-48124759D01*
X36538092Y-48124759D02*
X36538092Y-47896187D01*
X36538092Y-47896187D02*
X36499996Y-47819997D01*
X36499996Y-47819997D02*
X36461901Y-47781902D01*
X36461901Y-47781902D02*
X36385711Y-47743806D01*
X36385711Y-47743806D02*
X36271425Y-47743806D01*
X36271425Y-47743806D02*
X36195234Y-47781902D01*
X36195234Y-47781902D02*
X36157139Y-47819997D01*
X36157139Y-47819997D02*
X36119044Y-47896187D01*
X36119044Y-47896187D02*
X36119044Y-48124759D01*
X36119044Y-48124759D02*
X36157139Y-48200949D01*
X36157139Y-48200949D02*
X36195234Y-48239045D01*
X36195234Y-48239045D02*
X36271425Y-48277140D01*
X36271425Y-48277140D02*
X36385711Y-48277140D01*
X35890472Y-47743806D02*
X35585710Y-47743806D01*
X35776186Y-47477140D02*
X35776186Y-48162854D01*
X35776186Y-48162854D02*
X35738091Y-48239045D01*
X35738091Y-48239045D02*
X35661901Y-48277140D01*
X35661901Y-48277140D02*
X35585710Y-48277140D01*
X35014281Y-48239045D02*
X35090472Y-48277140D01*
X35090472Y-48277140D02*
X35242853Y-48277140D01*
X35242853Y-48277140D02*
X35319043Y-48239045D01*
X35319043Y-48239045D02*
X35357139Y-48162854D01*
X35357139Y-48162854D02*
X35357139Y-47858092D01*
X35357139Y-47858092D02*
X35319043Y-47781902D01*
X35319043Y-47781902D02*
X35242853Y-47743806D01*
X35242853Y-47743806D02*
X35090472Y-47743806D01*
X35090472Y-47743806D02*
X35014281Y-47781902D01*
X35014281Y-47781902D02*
X34976186Y-47858092D01*
X34976186Y-47858092D02*
X34976186Y-47934283D01*
X34976186Y-47934283D02*
X35357139Y-48010473D01*
X34290472Y-48239045D02*
X34366663Y-48277140D01*
X34366663Y-48277140D02*
X34519044Y-48277140D01*
X34519044Y-48277140D02*
X34595234Y-48239045D01*
X34595234Y-48239045D02*
X34633329Y-48200949D01*
X34633329Y-48200949D02*
X34671425Y-48124759D01*
X34671425Y-48124759D02*
X34671425Y-47896187D01*
X34671425Y-47896187D02*
X34633329Y-47819997D01*
X34633329Y-47819997D02*
X34595234Y-47781902D01*
X34595234Y-47781902D02*
X34519044Y-47743806D01*
X34519044Y-47743806D02*
X34366663Y-47743806D01*
X34366663Y-47743806D02*
X34290472Y-47781902D01*
X34061901Y-47743806D02*
X33757139Y-47743806D01*
X33947615Y-47477140D02*
X33947615Y-48162854D01*
X33947615Y-48162854D02*
X33909520Y-48239045D01*
X33909520Y-48239045D02*
X33833330Y-48277140D01*
X33833330Y-48277140D02*
X33757139Y-48277140D01*
X33490472Y-48277140D02*
X33490472Y-47743806D01*
X33490472Y-47477140D02*
X33528568Y-47515235D01*
X33528568Y-47515235D02*
X33490472Y-47553330D01*
X33490472Y-47553330D02*
X33452377Y-47515235D01*
X33452377Y-47515235D02*
X33490472Y-47477140D01*
X33490472Y-47477140D02*
X33490472Y-47553330D01*
X32995235Y-48277140D02*
X33071425Y-48239045D01*
X33071425Y-48239045D02*
X33109520Y-48200949D01*
X33109520Y-48200949D02*
X33147616Y-48124759D01*
X33147616Y-48124759D02*
X33147616Y-47896187D01*
X33147616Y-47896187D02*
X33109520Y-47819997D01*
X33109520Y-47819997D02*
X33071425Y-47781902D01*
X33071425Y-47781902D02*
X32995235Y-47743806D01*
X32995235Y-47743806D02*
X32880949Y-47743806D01*
X32880949Y-47743806D02*
X32804758Y-47781902D01*
X32804758Y-47781902D02*
X32766663Y-47819997D01*
X32766663Y-47819997D02*
X32728568Y-47896187D01*
X32728568Y-47896187D02*
X32728568Y-48124759D01*
X32728568Y-48124759D02*
X32766663Y-48200949D01*
X32766663Y-48200949D02*
X32804758Y-48239045D01*
X32804758Y-48239045D02*
X32880949Y-48277140D01*
X32880949Y-48277140D02*
X32995235Y-48277140D01*
X32385710Y-47743806D02*
X32385710Y-48277140D01*
X32385710Y-47819997D02*
X32347615Y-47781902D01*
X32347615Y-47781902D02*
X32271425Y-47743806D01*
X32271425Y-47743806D02*
X32157139Y-47743806D01*
X32157139Y-47743806D02*
X32080948Y-47781902D01*
X32080948Y-47781902D02*
X32042853Y-47858092D01*
X32042853Y-47858092D02*
X32042853Y-48277140D01*
X37528568Y-49146047D02*
X37414282Y-49184142D01*
X37414282Y-49184142D02*
X37376187Y-49222238D01*
X37376187Y-49222238D02*
X37338091Y-49298428D01*
X37338091Y-49298428D02*
X37338091Y-49412714D01*
X37338091Y-49412714D02*
X37376187Y-49488904D01*
X37376187Y-49488904D02*
X37414282Y-49527000D01*
X37414282Y-49527000D02*
X37490472Y-49565095D01*
X37490472Y-49565095D02*
X37795234Y-49565095D01*
X37795234Y-49565095D02*
X37795234Y-48765095D01*
X37795234Y-48765095D02*
X37528568Y-48765095D01*
X37528568Y-48765095D02*
X37452377Y-48803190D01*
X37452377Y-48803190D02*
X37414282Y-48841285D01*
X37414282Y-48841285D02*
X37376187Y-48917476D01*
X37376187Y-48917476D02*
X37376187Y-48993666D01*
X37376187Y-48993666D02*
X37414282Y-49069857D01*
X37414282Y-49069857D02*
X37452377Y-49107952D01*
X37452377Y-49107952D02*
X37528568Y-49146047D01*
X37528568Y-49146047D02*
X37795234Y-49146047D01*
X37071425Y-49031761D02*
X36880949Y-49565095D01*
X36690472Y-49031761D02*
X36880949Y-49565095D01*
X36880949Y-49565095D02*
X36957139Y-49755571D01*
X36957139Y-49755571D02*
X36995234Y-49793666D01*
X36995234Y-49793666D02*
X37071425Y-49831761D01*
X36385710Y-49031761D02*
X36385710Y-49831761D01*
X36385710Y-49069857D02*
X36309520Y-49031761D01*
X36309520Y-49031761D02*
X36157139Y-49031761D01*
X36157139Y-49031761D02*
X36080948Y-49069857D01*
X36080948Y-49069857D02*
X36042853Y-49107952D01*
X36042853Y-49107952D02*
X36004758Y-49184142D01*
X36004758Y-49184142D02*
X36004758Y-49412714D01*
X36004758Y-49412714D02*
X36042853Y-49488904D01*
X36042853Y-49488904D02*
X36080948Y-49527000D01*
X36080948Y-49527000D02*
X36157139Y-49565095D01*
X36157139Y-49565095D02*
X36309520Y-49565095D01*
X36309520Y-49565095D02*
X36385710Y-49527000D01*
X35319043Y-49565095D02*
X35319043Y-49146047D01*
X35319043Y-49146047D02*
X35357138Y-49069857D01*
X35357138Y-49069857D02*
X35433329Y-49031761D01*
X35433329Y-49031761D02*
X35585710Y-49031761D01*
X35585710Y-49031761D02*
X35661900Y-49069857D01*
X35319043Y-49527000D02*
X35395234Y-49565095D01*
X35395234Y-49565095D02*
X35585710Y-49565095D01*
X35585710Y-49565095D02*
X35661900Y-49527000D01*
X35661900Y-49527000D02*
X35699996Y-49450809D01*
X35699996Y-49450809D02*
X35699996Y-49374619D01*
X35699996Y-49374619D02*
X35661900Y-49298428D01*
X35661900Y-49298428D02*
X35585710Y-49260333D01*
X35585710Y-49260333D02*
X35395234Y-49260333D01*
X35395234Y-49260333D02*
X35319043Y-49222238D01*
X34976186Y-49527000D02*
X34899995Y-49565095D01*
X34899995Y-49565095D02*
X34747614Y-49565095D01*
X34747614Y-49565095D02*
X34671424Y-49527000D01*
X34671424Y-49527000D02*
X34633328Y-49450809D01*
X34633328Y-49450809D02*
X34633328Y-49412714D01*
X34633328Y-49412714D02*
X34671424Y-49336523D01*
X34671424Y-49336523D02*
X34747614Y-49298428D01*
X34747614Y-49298428D02*
X34861900Y-49298428D01*
X34861900Y-49298428D02*
X34938090Y-49260333D01*
X34938090Y-49260333D02*
X34976186Y-49184142D01*
X34976186Y-49184142D02*
X34976186Y-49146047D01*
X34976186Y-49146047D02*
X34938090Y-49069857D01*
X34938090Y-49069857D02*
X34861900Y-49031761D01*
X34861900Y-49031761D02*
X34747614Y-49031761D01*
X34747614Y-49031761D02*
X34671424Y-49069857D01*
X34328567Y-49527000D02*
X34252376Y-49565095D01*
X34252376Y-49565095D02*
X34099995Y-49565095D01*
X34099995Y-49565095D02*
X34023805Y-49527000D01*
X34023805Y-49527000D02*
X33985709Y-49450809D01*
X33985709Y-49450809D02*
X33985709Y-49412714D01*
X33985709Y-49412714D02*
X34023805Y-49336523D01*
X34023805Y-49336523D02*
X34099995Y-49298428D01*
X34099995Y-49298428D02*
X34214281Y-49298428D01*
X34214281Y-49298428D02*
X34290471Y-49260333D01*
X34290471Y-49260333D02*
X34328567Y-49184142D01*
X34328567Y-49184142D02*
X34328567Y-49146047D01*
X34328567Y-49146047D02*
X34290471Y-49069857D01*
X34290471Y-49069857D02*
X34214281Y-49031761D01*
X34214281Y-49031761D02*
X34099995Y-49031761D01*
X34099995Y-49031761D02*
X34023805Y-49069857D01*
X82293195Y-41164619D02*
X81493195Y-41164619D01*
X81493195Y-41164619D02*
X81493195Y-41469381D01*
X81493195Y-41469381D02*
X81531290Y-41545571D01*
X81531290Y-41545571D02*
X81569385Y-41583666D01*
X81569385Y-41583666D02*
X81645576Y-41621762D01*
X81645576Y-41621762D02*
X81759861Y-41621762D01*
X81759861Y-41621762D02*
X81836052Y-41583666D01*
X81836052Y-41583666D02*
X81874147Y-41545571D01*
X81874147Y-41545571D02*
X81912242Y-41469381D01*
X81912242Y-41469381D02*
X81912242Y-41164619D01*
X82293195Y-42421762D02*
X81912242Y-42155095D01*
X82293195Y-41964619D02*
X81493195Y-41964619D01*
X81493195Y-41964619D02*
X81493195Y-42269381D01*
X81493195Y-42269381D02*
X81531290Y-42345571D01*
X81531290Y-42345571D02*
X81569385Y-42383666D01*
X81569385Y-42383666D02*
X81645576Y-42421762D01*
X81645576Y-42421762D02*
X81759861Y-42421762D01*
X81759861Y-42421762D02*
X81836052Y-42383666D01*
X81836052Y-42383666D02*
X81874147Y-42345571D01*
X81874147Y-42345571D02*
X81912242Y-42269381D01*
X81912242Y-42269381D02*
X81912242Y-41964619D01*
X81912242Y-42917000D02*
X82293195Y-42917000D01*
X81493195Y-42650333D02*
X81912242Y-42917000D01*
X81912242Y-42917000D02*
X81493195Y-43183666D01*
X22933195Y-41164619D02*
X22133195Y-41164619D01*
X22133195Y-41164619D02*
X22133195Y-41469381D01*
X22133195Y-41469381D02*
X22171290Y-41545571D01*
X22171290Y-41545571D02*
X22209385Y-41583666D01*
X22209385Y-41583666D02*
X22285576Y-41621762D01*
X22285576Y-41621762D02*
X22399861Y-41621762D01*
X22399861Y-41621762D02*
X22476052Y-41583666D01*
X22476052Y-41583666D02*
X22514147Y-41545571D01*
X22514147Y-41545571D02*
X22552242Y-41469381D01*
X22552242Y-41469381D02*
X22552242Y-41164619D01*
X22933195Y-42421762D02*
X22552242Y-42155095D01*
X22933195Y-41964619D02*
X22133195Y-41964619D01*
X22133195Y-41964619D02*
X22133195Y-42269381D01*
X22133195Y-42269381D02*
X22171290Y-42345571D01*
X22171290Y-42345571D02*
X22209385Y-42383666D01*
X22209385Y-42383666D02*
X22285576Y-42421762D01*
X22285576Y-42421762D02*
X22399861Y-42421762D01*
X22399861Y-42421762D02*
X22476052Y-42383666D01*
X22476052Y-42383666D02*
X22514147Y-42345571D01*
X22514147Y-42345571D02*
X22552242Y-42269381D01*
X22552242Y-42269381D02*
X22552242Y-41964619D01*
X22552242Y-42917000D02*
X22933195Y-42917000D01*
X22133195Y-42650333D02*
X22552242Y-42917000D01*
X22552242Y-42917000D02*
X22133195Y-43183666D01*
D11*
X38369919Y-45304266D02*
X39084204Y-45304266D01*
X39084204Y-45304266D02*
X39227061Y-45256647D01*
X39227061Y-45256647D02*
X39322300Y-45161409D01*
X39322300Y-45161409D02*
X39369919Y-45018552D01*
X39369919Y-45018552D02*
X39369919Y-44923314D01*
X39369919Y-45780457D02*
X38369919Y-45780457D01*
X38369919Y-45780457D02*
X38369919Y-46161409D01*
X38369919Y-46161409D02*
X38417538Y-46256647D01*
X38417538Y-46256647D02*
X38465157Y-46304266D01*
X38465157Y-46304266D02*
X38560395Y-46351885D01*
X38560395Y-46351885D02*
X38703252Y-46351885D01*
X38703252Y-46351885D02*
X38798490Y-46304266D01*
X38798490Y-46304266D02*
X38846109Y-46256647D01*
X38846109Y-46256647D02*
X38893728Y-46161409D01*
X38893728Y-46161409D02*
X38893728Y-45780457D01*
X39369919Y-47304266D02*
X39369919Y-46732838D01*
X39369919Y-47018552D02*
X38369919Y-47018552D01*
X38369919Y-47018552D02*
X38512776Y-46923314D01*
X38512776Y-46923314D02*
X38608014Y-46828076D01*
X38608014Y-46828076D02*
X38655633Y-46732838D01*
X70479966Y-59190819D02*
X70813299Y-58714628D01*
X71051394Y-59190819D02*
X71051394Y-58190819D01*
X71051394Y-58190819D02*
X70670442Y-58190819D01*
X70670442Y-58190819D02*
X70575204Y-58238438D01*
X70575204Y-58238438D02*
X70527585Y-58286057D01*
X70527585Y-58286057D02*
X70479966Y-58381295D01*
X70479966Y-58381295D02*
X70479966Y-58524152D01*
X70479966Y-58524152D02*
X70527585Y-58619390D01*
X70527585Y-58619390D02*
X70575204Y-58667009D01*
X70575204Y-58667009D02*
X70670442Y-58714628D01*
X70670442Y-58714628D02*
X71051394Y-58714628D01*
X69622823Y-58524152D02*
X69622823Y-59190819D01*
X69860918Y-58143200D02*
X70099013Y-58857485D01*
X70099013Y-58857485D02*
X69479966Y-58857485D01*
X30253157Y-29042819D02*
X30586490Y-28566628D01*
X30824585Y-29042819D02*
X30824585Y-28042819D01*
X30824585Y-28042819D02*
X30443633Y-28042819D01*
X30443633Y-28042819D02*
X30348395Y-28090438D01*
X30348395Y-28090438D02*
X30300776Y-28138057D01*
X30300776Y-28138057D02*
X30253157Y-28233295D01*
X30253157Y-28233295D02*
X30253157Y-28376152D01*
X30253157Y-28376152D02*
X30300776Y-28471390D01*
X30300776Y-28471390D02*
X30348395Y-28519009D01*
X30348395Y-28519009D02*
X30443633Y-28566628D01*
X30443633Y-28566628D02*
X30824585Y-28566628D01*
X29300776Y-29042819D02*
X29872204Y-29042819D01*
X29586490Y-29042819D02*
X29586490Y-28042819D01*
X29586490Y-28042819D02*
X29681728Y-28185676D01*
X29681728Y-28185676D02*
X29776966Y-28280914D01*
X29776966Y-28280914D02*
X29872204Y-28328533D01*
X28348395Y-29042819D02*
X28919823Y-29042819D01*
X28634109Y-29042819D02*
X28634109Y-28042819D01*
X28634109Y-28042819D02*
X28729347Y-28185676D01*
X28729347Y-28185676D02*
X28824585Y-28280914D01*
X28824585Y-28280914D02*
X28919823Y-28328533D01*
X48444880Y-39574333D02*
X48492500Y-39526714D01*
X48492500Y-39526714D02*
X48540119Y-39383857D01*
X48540119Y-39383857D02*
X48540119Y-39288619D01*
X48540119Y-39288619D02*
X48492500Y-39145762D01*
X48492500Y-39145762D02*
X48397261Y-39050524D01*
X48397261Y-39050524D02*
X48302023Y-39002905D01*
X48302023Y-39002905D02*
X48111547Y-38955286D01*
X48111547Y-38955286D02*
X47968690Y-38955286D01*
X47968690Y-38955286D02*
X47778214Y-39002905D01*
X47778214Y-39002905D02*
X47682976Y-39050524D01*
X47682976Y-39050524D02*
X47587738Y-39145762D01*
X47587738Y-39145762D02*
X47540119Y-39288619D01*
X47540119Y-39288619D02*
X47540119Y-39383857D01*
X47540119Y-39383857D02*
X47587738Y-39526714D01*
X47587738Y-39526714D02*
X47635357Y-39574333D01*
X48540119Y-40574333D02*
X48063928Y-40241000D01*
X48540119Y-40002905D02*
X47540119Y-40002905D01*
X47540119Y-40002905D02*
X47540119Y-40383857D01*
X47540119Y-40383857D02*
X47587738Y-40479095D01*
X47587738Y-40479095D02*
X47635357Y-40526714D01*
X47635357Y-40526714D02*
X47730595Y-40574333D01*
X47730595Y-40574333D02*
X47873452Y-40574333D01*
X47873452Y-40574333D02*
X47968690Y-40526714D01*
X47968690Y-40526714D02*
X48016309Y-40479095D01*
X48016309Y-40479095D02*
X48063928Y-40383857D01*
X48063928Y-40383857D02*
X48063928Y-40002905D01*
X47635357Y-40955286D02*
X47587738Y-41002905D01*
X47587738Y-41002905D02*
X47540119Y-41098143D01*
X47540119Y-41098143D02*
X47540119Y-41336238D01*
X47540119Y-41336238D02*
X47587738Y-41431476D01*
X47587738Y-41431476D02*
X47635357Y-41479095D01*
X47635357Y-41479095D02*
X47730595Y-41526714D01*
X47730595Y-41526714D02*
X47825833Y-41526714D01*
X47825833Y-41526714D02*
X47968690Y-41479095D01*
X47968690Y-41479095D02*
X48540119Y-40907667D01*
X48540119Y-40907667D02*
X48540119Y-41526714D01*
X70138766Y-42706219D02*
X70472099Y-42230028D01*
X70710194Y-42706219D02*
X70710194Y-41706219D01*
X70710194Y-41706219D02*
X70329242Y-41706219D01*
X70329242Y-41706219D02*
X70234004Y-41753838D01*
X70234004Y-41753838D02*
X70186385Y-41801457D01*
X70186385Y-41801457D02*
X70138766Y-41896695D01*
X70138766Y-41896695D02*
X70138766Y-42039552D01*
X70138766Y-42039552D02*
X70186385Y-42134790D01*
X70186385Y-42134790D02*
X70234004Y-42182409D01*
X70234004Y-42182409D02*
X70329242Y-42230028D01*
X70329242Y-42230028D02*
X70710194Y-42230028D01*
X69757813Y-41801457D02*
X69710194Y-41753838D01*
X69710194Y-41753838D02*
X69614956Y-41706219D01*
X69614956Y-41706219D02*
X69376861Y-41706219D01*
X69376861Y-41706219D02*
X69281623Y-41753838D01*
X69281623Y-41753838D02*
X69234004Y-41801457D01*
X69234004Y-41801457D02*
X69186385Y-41896695D01*
X69186385Y-41896695D02*
X69186385Y-41991933D01*
X69186385Y-41991933D02*
X69234004Y-42134790D01*
X69234004Y-42134790D02*
X69805432Y-42706219D01*
X69805432Y-42706219D02*
X69186385Y-42706219D01*
X55539388Y-58905057D02*
X55634626Y-58857438D01*
X55634626Y-58857438D02*
X55729864Y-58762200D01*
X55729864Y-58762200D02*
X55872721Y-58619342D01*
X55872721Y-58619342D02*
X55967959Y-58571723D01*
X55967959Y-58571723D02*
X56063197Y-58571723D01*
X56015578Y-58809819D02*
X56110816Y-58762200D01*
X56110816Y-58762200D02*
X56206054Y-58666961D01*
X56206054Y-58666961D02*
X56253673Y-58476485D01*
X56253673Y-58476485D02*
X56253673Y-58143152D01*
X56253673Y-58143152D02*
X56206054Y-57952676D01*
X56206054Y-57952676D02*
X56110816Y-57857438D01*
X56110816Y-57857438D02*
X56015578Y-57809819D01*
X56015578Y-57809819D02*
X55825102Y-57809819D01*
X55825102Y-57809819D02*
X55729864Y-57857438D01*
X55729864Y-57857438D02*
X55634626Y-57952676D01*
X55634626Y-57952676D02*
X55587007Y-58143152D01*
X55587007Y-58143152D02*
X55587007Y-58476485D01*
X55587007Y-58476485D02*
X55634626Y-58666961D01*
X55634626Y-58666961D02*
X55729864Y-58762200D01*
X55729864Y-58762200D02*
X55825102Y-58809819D01*
X55825102Y-58809819D02*
X56015578Y-58809819D01*
X55253673Y-57809819D02*
X54634626Y-57809819D01*
X54634626Y-57809819D02*
X54967959Y-58190771D01*
X54967959Y-58190771D02*
X54825102Y-58190771D01*
X54825102Y-58190771D02*
X54729864Y-58238390D01*
X54729864Y-58238390D02*
X54682245Y-58286009D01*
X54682245Y-58286009D02*
X54634626Y-58381247D01*
X54634626Y-58381247D02*
X54634626Y-58619342D01*
X54634626Y-58619342D02*
X54682245Y-58714580D01*
X54682245Y-58714580D02*
X54729864Y-58762200D01*
X54729864Y-58762200D02*
X54825102Y-58809819D01*
X54825102Y-58809819D02*
X55110816Y-58809819D01*
X55110816Y-58809819D02*
X55206054Y-58762200D01*
X55206054Y-58762200D02*
X55253673Y-58714580D01*
X58422299Y-54203019D02*
X58422299Y-54441114D01*
X58660394Y-54345876D02*
X58422299Y-54441114D01*
X58422299Y-54441114D02*
X58184204Y-54345876D01*
X58565156Y-54631590D02*
X58422299Y-54441114D01*
X58422299Y-54441114D02*
X58279442Y-54631590D01*
X58422299Y-54203019D02*
X58422299Y-54441114D01*
X58660394Y-54345876D02*
X58422299Y-54441114D01*
X58422299Y-54441114D02*
X58184204Y-54345876D01*
X58565156Y-54631590D02*
X58422299Y-54441114D01*
X58422299Y-54441114D02*
X58279442Y-54631590D01*
X60813880Y-50441333D02*
X60861500Y-50393714D01*
X60861500Y-50393714D02*
X60909119Y-50250857D01*
X60909119Y-50250857D02*
X60909119Y-50155619D01*
X60909119Y-50155619D02*
X60861500Y-50012762D01*
X60861500Y-50012762D02*
X60766261Y-49917524D01*
X60766261Y-49917524D02*
X60671023Y-49869905D01*
X60671023Y-49869905D02*
X60480547Y-49822286D01*
X60480547Y-49822286D02*
X60337690Y-49822286D01*
X60337690Y-49822286D02*
X60147214Y-49869905D01*
X60147214Y-49869905D02*
X60051976Y-49917524D01*
X60051976Y-49917524D02*
X59956738Y-50012762D01*
X59956738Y-50012762D02*
X59909119Y-50155619D01*
X59909119Y-50155619D02*
X59909119Y-50250857D01*
X59909119Y-50250857D02*
X59956738Y-50393714D01*
X59956738Y-50393714D02*
X60004357Y-50441333D01*
X59909119Y-51346095D02*
X59909119Y-50869905D01*
X59909119Y-50869905D02*
X60385309Y-50822286D01*
X60385309Y-50822286D02*
X60337690Y-50869905D01*
X60337690Y-50869905D02*
X60290071Y-50965143D01*
X60290071Y-50965143D02*
X60290071Y-51203238D01*
X60290071Y-51203238D02*
X60337690Y-51298476D01*
X60337690Y-51298476D02*
X60385309Y-51346095D01*
X60385309Y-51346095D02*
X60480547Y-51393714D01*
X60480547Y-51393714D02*
X60718642Y-51393714D01*
X60718642Y-51393714D02*
X60813880Y-51346095D01*
X60813880Y-51346095D02*
X60861500Y-51298476D01*
X60861500Y-51298476D02*
X60909119Y-51203238D01*
X60909119Y-51203238D02*
X60909119Y-50965143D01*
X60909119Y-50965143D02*
X60861500Y-50869905D01*
X60861500Y-50869905D02*
X60813880Y-50822286D01*
X28193881Y-40177476D02*
X28193881Y-39537476D01*
X28193881Y-39537476D02*
X28041500Y-39537476D01*
X28041500Y-39537476D02*
X27950071Y-39567952D01*
X27950071Y-39567952D02*
X27889119Y-39628904D01*
X27889119Y-39628904D02*
X27858642Y-39689857D01*
X27858642Y-39689857D02*
X27828166Y-39811761D01*
X27828166Y-39811761D02*
X27828166Y-39903190D01*
X27828166Y-39903190D02*
X27858642Y-40025095D01*
X27858642Y-40025095D02*
X27889119Y-40086047D01*
X27889119Y-40086047D02*
X27950071Y-40147000D01*
X27950071Y-40147000D02*
X28041500Y-40177476D01*
X28041500Y-40177476D02*
X28193881Y-40177476D01*
X27218642Y-40177476D02*
X27584357Y-40177476D01*
X27401500Y-40177476D02*
X27401500Y-39537476D01*
X27401500Y-39537476D02*
X27462452Y-39628904D01*
X27462452Y-39628904D02*
X27523404Y-39689857D01*
X27523404Y-39689857D02*
X27584357Y-39720333D01*
X79266466Y-50554819D02*
X79599799Y-50078628D01*
X79837894Y-50554819D02*
X79837894Y-49554819D01*
X79837894Y-49554819D02*
X79456942Y-49554819D01*
X79456942Y-49554819D02*
X79361704Y-49602438D01*
X79361704Y-49602438D02*
X79314085Y-49650057D01*
X79314085Y-49650057D02*
X79266466Y-49745295D01*
X79266466Y-49745295D02*
X79266466Y-49888152D01*
X79266466Y-49888152D02*
X79314085Y-49983390D01*
X79314085Y-49983390D02*
X79361704Y-50031009D01*
X79361704Y-50031009D02*
X79456942Y-50078628D01*
X79456942Y-50078628D02*
X79837894Y-50078628D01*
X78790275Y-50554819D02*
X78599799Y-50554819D01*
X78599799Y-50554819D02*
X78504561Y-50507200D01*
X78504561Y-50507200D02*
X78456942Y-50459580D01*
X78456942Y-50459580D02*
X78361704Y-50316723D01*
X78361704Y-50316723D02*
X78314085Y-50126247D01*
X78314085Y-50126247D02*
X78314085Y-49745295D01*
X78314085Y-49745295D02*
X78361704Y-49650057D01*
X78361704Y-49650057D02*
X78409323Y-49602438D01*
X78409323Y-49602438D02*
X78504561Y-49554819D01*
X78504561Y-49554819D02*
X78695037Y-49554819D01*
X78695037Y-49554819D02*
X78790275Y-49602438D01*
X78790275Y-49602438D02*
X78837894Y-49650057D01*
X78837894Y-49650057D02*
X78885513Y-49745295D01*
X78885513Y-49745295D02*
X78885513Y-49983390D01*
X78885513Y-49983390D02*
X78837894Y-50078628D01*
X78837894Y-50078628D02*
X78790275Y-50126247D01*
X78790275Y-50126247D02*
X78695037Y-50173866D01*
X78695037Y-50173866D02*
X78504561Y-50173866D01*
X78504561Y-50173866D02*
X78409323Y-50126247D01*
X78409323Y-50126247D02*
X78361704Y-50078628D01*
X78361704Y-50078628D02*
X78314085Y-49983390D01*
X70189566Y-44712819D02*
X70522899Y-44236628D01*
X70760994Y-44712819D02*
X70760994Y-43712819D01*
X70760994Y-43712819D02*
X70380042Y-43712819D01*
X70380042Y-43712819D02*
X70284804Y-43760438D01*
X70284804Y-43760438D02*
X70237185Y-43808057D01*
X70237185Y-43808057D02*
X70189566Y-43903295D01*
X70189566Y-43903295D02*
X70189566Y-44046152D01*
X70189566Y-44046152D02*
X70237185Y-44141390D01*
X70237185Y-44141390D02*
X70284804Y-44189009D01*
X70284804Y-44189009D02*
X70380042Y-44236628D01*
X70380042Y-44236628D02*
X70760994Y-44236628D01*
X69856232Y-43712819D02*
X69237185Y-43712819D01*
X69237185Y-43712819D02*
X69570518Y-44093771D01*
X69570518Y-44093771D02*
X69427661Y-44093771D01*
X69427661Y-44093771D02*
X69332423Y-44141390D01*
X69332423Y-44141390D02*
X69284804Y-44189009D01*
X69284804Y-44189009D02*
X69237185Y-44284247D01*
X69237185Y-44284247D02*
X69237185Y-44522342D01*
X69237185Y-44522342D02*
X69284804Y-44617580D01*
X69284804Y-44617580D02*
X69332423Y-44665200D01*
X69332423Y-44665200D02*
X69427661Y-44712819D01*
X69427661Y-44712819D02*
X69713375Y-44712819D01*
X69713375Y-44712819D02*
X69808613Y-44665200D01*
X69808613Y-44665200D02*
X69856232Y-44617580D01*
X70526966Y-52491580D02*
X70574585Y-52539200D01*
X70574585Y-52539200D02*
X70717442Y-52586819D01*
X70717442Y-52586819D02*
X70812680Y-52586819D01*
X70812680Y-52586819D02*
X70955537Y-52539200D01*
X70955537Y-52539200D02*
X71050775Y-52443961D01*
X71050775Y-52443961D02*
X71098394Y-52348723D01*
X71098394Y-52348723D02*
X71146013Y-52158247D01*
X71146013Y-52158247D02*
X71146013Y-52015390D01*
X71146013Y-52015390D02*
X71098394Y-51824914D01*
X71098394Y-51824914D02*
X71050775Y-51729676D01*
X71050775Y-51729676D02*
X70955537Y-51634438D01*
X70955537Y-51634438D02*
X70812680Y-51586819D01*
X70812680Y-51586819D02*
X70717442Y-51586819D01*
X70717442Y-51586819D02*
X70574585Y-51634438D01*
X70574585Y-51634438D02*
X70526966Y-51682057D01*
X69955537Y-52015390D02*
X70050775Y-51967771D01*
X70050775Y-51967771D02*
X70098394Y-51920152D01*
X70098394Y-51920152D02*
X70146013Y-51824914D01*
X70146013Y-51824914D02*
X70146013Y-51777295D01*
X70146013Y-51777295D02*
X70098394Y-51682057D01*
X70098394Y-51682057D02*
X70050775Y-51634438D01*
X70050775Y-51634438D02*
X69955537Y-51586819D01*
X69955537Y-51586819D02*
X69765061Y-51586819D01*
X69765061Y-51586819D02*
X69669823Y-51634438D01*
X69669823Y-51634438D02*
X69622204Y-51682057D01*
X69622204Y-51682057D02*
X69574585Y-51777295D01*
X69574585Y-51777295D02*
X69574585Y-51824914D01*
X69574585Y-51824914D02*
X69622204Y-51920152D01*
X69622204Y-51920152D02*
X69669823Y-51967771D01*
X69669823Y-51967771D02*
X69765061Y-52015390D01*
X69765061Y-52015390D02*
X69955537Y-52015390D01*
X69955537Y-52015390D02*
X70050775Y-52063009D01*
X70050775Y-52063009D02*
X70098394Y-52110628D01*
X70098394Y-52110628D02*
X70146013Y-52205866D01*
X70146013Y-52205866D02*
X70146013Y-52396342D01*
X70146013Y-52396342D02*
X70098394Y-52491580D01*
X70098394Y-52491580D02*
X70050775Y-52539200D01*
X70050775Y-52539200D02*
X69955537Y-52586819D01*
X69955537Y-52586819D02*
X69765061Y-52586819D01*
X69765061Y-52586819D02*
X69669823Y-52539200D01*
X69669823Y-52539200D02*
X69622204Y-52491580D01*
X69622204Y-52491580D02*
X69574585Y-52396342D01*
X69574585Y-52396342D02*
X69574585Y-52205866D01*
X69574585Y-52205866D02*
X69622204Y-52110628D01*
X69622204Y-52110628D02*
X69669823Y-52063009D01*
X69669823Y-52063009D02*
X69765061Y-52015390D01*
X29106857Y-35034419D02*
X29440190Y-34558228D01*
X29678285Y-35034419D02*
X29678285Y-34034419D01*
X29678285Y-34034419D02*
X29297333Y-34034419D01*
X29297333Y-34034419D02*
X29202095Y-34082038D01*
X29202095Y-34082038D02*
X29154476Y-34129657D01*
X29154476Y-34129657D02*
X29106857Y-34224895D01*
X29106857Y-34224895D02*
X29106857Y-34367752D01*
X29106857Y-34367752D02*
X29154476Y-34462990D01*
X29154476Y-34462990D02*
X29202095Y-34510609D01*
X29202095Y-34510609D02*
X29297333Y-34558228D01*
X29297333Y-34558228D02*
X29678285Y-34558228D01*
X28154476Y-35034419D02*
X28725904Y-35034419D01*
X28440190Y-35034419D02*
X28440190Y-34034419D01*
X28440190Y-34034419D02*
X28535428Y-34177276D01*
X28535428Y-34177276D02*
X28630666Y-34272514D01*
X28630666Y-34272514D02*
X28725904Y-34320133D01*
X27821142Y-34034419D02*
X27202095Y-34034419D01*
X27202095Y-34034419D02*
X27535428Y-34415371D01*
X27535428Y-34415371D02*
X27392571Y-34415371D01*
X27392571Y-34415371D02*
X27297333Y-34462990D01*
X27297333Y-34462990D02*
X27249714Y-34510609D01*
X27249714Y-34510609D02*
X27202095Y-34605847D01*
X27202095Y-34605847D02*
X27202095Y-34843942D01*
X27202095Y-34843942D02*
X27249714Y-34939180D01*
X27249714Y-34939180D02*
X27297333Y-34986800D01*
X27297333Y-34986800D02*
X27392571Y-35034419D01*
X27392571Y-35034419D02*
X27678285Y-35034419D01*
X27678285Y-35034419D02*
X27773523Y-34986800D01*
X27773523Y-34986800D02*
X27821142Y-34939180D01*
X61335966Y-56904819D02*
X61669299Y-56428628D01*
X61907394Y-56904819D02*
X61907394Y-55904819D01*
X61907394Y-55904819D02*
X61526442Y-55904819D01*
X61526442Y-55904819D02*
X61431204Y-55952438D01*
X61431204Y-55952438D02*
X61383585Y-56000057D01*
X61383585Y-56000057D02*
X61335966Y-56095295D01*
X61335966Y-56095295D02*
X61335966Y-56238152D01*
X61335966Y-56238152D02*
X61383585Y-56333390D01*
X61383585Y-56333390D02*
X61431204Y-56381009D01*
X61431204Y-56381009D02*
X61526442Y-56428628D01*
X61526442Y-56428628D02*
X61907394Y-56428628D01*
X60431204Y-55904819D02*
X60907394Y-55904819D01*
X60907394Y-55904819D02*
X60955013Y-56381009D01*
X60955013Y-56381009D02*
X60907394Y-56333390D01*
X60907394Y-56333390D02*
X60812156Y-56285771D01*
X60812156Y-56285771D02*
X60574061Y-56285771D01*
X60574061Y-56285771D02*
X60478823Y-56333390D01*
X60478823Y-56333390D02*
X60431204Y-56381009D01*
X60431204Y-56381009D02*
X60383585Y-56476247D01*
X60383585Y-56476247D02*
X60383585Y-56714342D01*
X60383585Y-56714342D02*
X60431204Y-56809580D01*
X60431204Y-56809580D02*
X60478823Y-56857200D01*
X60478823Y-56857200D02*
X60574061Y-56904819D01*
X60574061Y-56904819D02*
X60812156Y-56904819D01*
X60812156Y-56904819D02*
X60907394Y-56857200D01*
X60907394Y-56857200D02*
X60955013Y-56809580D01*
X70225966Y-56904819D02*
X70559299Y-56428628D01*
X70797394Y-56904819D02*
X70797394Y-55904819D01*
X70797394Y-55904819D02*
X70416442Y-55904819D01*
X70416442Y-55904819D02*
X70321204Y-55952438D01*
X70321204Y-55952438D02*
X70273585Y-56000057D01*
X70273585Y-56000057D02*
X70225966Y-56095295D01*
X70225966Y-56095295D02*
X70225966Y-56238152D01*
X70225966Y-56238152D02*
X70273585Y-56333390D01*
X70273585Y-56333390D02*
X70321204Y-56381009D01*
X70321204Y-56381009D02*
X70416442Y-56428628D01*
X70416442Y-56428628D02*
X70797394Y-56428628D01*
X69368823Y-55904819D02*
X69559299Y-55904819D01*
X69559299Y-55904819D02*
X69654537Y-55952438D01*
X69654537Y-55952438D02*
X69702156Y-56000057D01*
X69702156Y-56000057D02*
X69797394Y-56142914D01*
X69797394Y-56142914D02*
X69845013Y-56333390D01*
X69845013Y-56333390D02*
X69845013Y-56714342D01*
X69845013Y-56714342D02*
X69797394Y-56809580D01*
X69797394Y-56809580D02*
X69749775Y-56857200D01*
X69749775Y-56857200D02*
X69654537Y-56904819D01*
X69654537Y-56904819D02*
X69464061Y-56904819D01*
X69464061Y-56904819D02*
X69368823Y-56857200D01*
X69368823Y-56857200D02*
X69321204Y-56809580D01*
X69321204Y-56809580D02*
X69273585Y-56714342D01*
X69273585Y-56714342D02*
X69273585Y-56476247D01*
X69273585Y-56476247D02*
X69321204Y-56381009D01*
X69321204Y-56381009D02*
X69368823Y-56333390D01*
X69368823Y-56333390D02*
X69464061Y-56285771D01*
X69464061Y-56285771D02*
X69654537Y-56285771D01*
X69654537Y-56285771D02*
X69749775Y-56333390D01*
X69749775Y-56333390D02*
X69797394Y-56381009D01*
X69797394Y-56381009D02*
X69845013Y-56476247D01*
X60874966Y-54777580D02*
X60922585Y-54825200D01*
X60922585Y-54825200D02*
X61065442Y-54872819D01*
X61065442Y-54872819D02*
X61160680Y-54872819D01*
X61160680Y-54872819D02*
X61303537Y-54825200D01*
X61303537Y-54825200D02*
X61398775Y-54729961D01*
X61398775Y-54729961D02*
X61446394Y-54634723D01*
X61446394Y-54634723D02*
X61494013Y-54444247D01*
X61494013Y-54444247D02*
X61494013Y-54301390D01*
X61494013Y-54301390D02*
X61446394Y-54110914D01*
X61446394Y-54110914D02*
X61398775Y-54015676D01*
X61398775Y-54015676D02*
X61303537Y-53920438D01*
X61303537Y-53920438D02*
X61160680Y-53872819D01*
X61160680Y-53872819D02*
X61065442Y-53872819D01*
X61065442Y-53872819D02*
X60922585Y-53920438D01*
X60922585Y-53920438D02*
X60874966Y-53968057D01*
X60398775Y-54872819D02*
X60208299Y-54872819D01*
X60208299Y-54872819D02*
X60113061Y-54825200D01*
X60113061Y-54825200D02*
X60065442Y-54777580D01*
X60065442Y-54777580D02*
X59970204Y-54634723D01*
X59970204Y-54634723D02*
X59922585Y-54444247D01*
X59922585Y-54444247D02*
X59922585Y-54063295D01*
X59922585Y-54063295D02*
X59970204Y-53968057D01*
X59970204Y-53968057D02*
X60017823Y-53920438D01*
X60017823Y-53920438D02*
X60113061Y-53872819D01*
X60113061Y-53872819D02*
X60303537Y-53872819D01*
X60303537Y-53872819D02*
X60398775Y-53920438D01*
X60398775Y-53920438D02*
X60446394Y-53968057D01*
X60446394Y-53968057D02*
X60494013Y-54063295D01*
X60494013Y-54063295D02*
X60494013Y-54301390D01*
X60494013Y-54301390D02*
X60446394Y-54396628D01*
X60446394Y-54396628D02*
X60398775Y-54444247D01*
X60398775Y-54444247D02*
X60303537Y-54491866D01*
X60303537Y-54491866D02*
X60113061Y-54491866D01*
X60113061Y-54491866D02*
X60017823Y-54444247D01*
X60017823Y-54444247D02*
X59970204Y-54396628D01*
X59970204Y-54396628D02*
X59922585Y-54301390D01*
X70272966Y-50554819D02*
X70606299Y-50078628D01*
X70844394Y-50554819D02*
X70844394Y-49554819D01*
X70844394Y-49554819D02*
X70463442Y-49554819D01*
X70463442Y-49554819D02*
X70368204Y-49602438D01*
X70368204Y-49602438D02*
X70320585Y-49650057D01*
X70320585Y-49650057D02*
X70272966Y-49745295D01*
X70272966Y-49745295D02*
X70272966Y-49888152D01*
X70272966Y-49888152D02*
X70320585Y-49983390D01*
X70320585Y-49983390D02*
X70368204Y-50031009D01*
X70368204Y-50031009D02*
X70463442Y-50078628D01*
X70463442Y-50078628D02*
X70844394Y-50078628D01*
X69701537Y-49983390D02*
X69796775Y-49935771D01*
X69796775Y-49935771D02*
X69844394Y-49888152D01*
X69844394Y-49888152D02*
X69892013Y-49792914D01*
X69892013Y-49792914D02*
X69892013Y-49745295D01*
X69892013Y-49745295D02*
X69844394Y-49650057D01*
X69844394Y-49650057D02*
X69796775Y-49602438D01*
X69796775Y-49602438D02*
X69701537Y-49554819D01*
X69701537Y-49554819D02*
X69511061Y-49554819D01*
X69511061Y-49554819D02*
X69415823Y-49602438D01*
X69415823Y-49602438D02*
X69368204Y-49650057D01*
X69368204Y-49650057D02*
X69320585Y-49745295D01*
X69320585Y-49745295D02*
X69320585Y-49792914D01*
X69320585Y-49792914D02*
X69368204Y-49888152D01*
X69368204Y-49888152D02*
X69415823Y-49935771D01*
X69415823Y-49935771D02*
X69511061Y-49983390D01*
X69511061Y-49983390D02*
X69701537Y-49983390D01*
X69701537Y-49983390D02*
X69796775Y-50031009D01*
X69796775Y-50031009D02*
X69844394Y-50078628D01*
X69844394Y-50078628D02*
X69892013Y-50173866D01*
X69892013Y-50173866D02*
X69892013Y-50364342D01*
X69892013Y-50364342D02*
X69844394Y-50459580D01*
X69844394Y-50459580D02*
X69796775Y-50507200D01*
X69796775Y-50507200D02*
X69701537Y-50554819D01*
X69701537Y-50554819D02*
X69511061Y-50554819D01*
X69511061Y-50554819D02*
X69415823Y-50507200D01*
X69415823Y-50507200D02*
X69368204Y-50459580D01*
X69368204Y-50459580D02*
X69320585Y-50364342D01*
X69320585Y-50364342D02*
X69320585Y-50173866D01*
X69320585Y-50173866D02*
X69368204Y-50078628D01*
X69368204Y-50078628D02*
X69415823Y-50031009D01*
X69415823Y-50031009D02*
X69511061Y-49983390D01*
X47041157Y-32866319D02*
X47374490Y-32390128D01*
X47612585Y-32866319D02*
X47612585Y-31866319D01*
X47612585Y-31866319D02*
X47231633Y-31866319D01*
X47231633Y-31866319D02*
X47136395Y-31913938D01*
X47136395Y-31913938D02*
X47088776Y-31961557D01*
X47088776Y-31961557D02*
X47041157Y-32056795D01*
X47041157Y-32056795D02*
X47041157Y-32199652D01*
X47041157Y-32199652D02*
X47088776Y-32294890D01*
X47088776Y-32294890D02*
X47136395Y-32342509D01*
X47136395Y-32342509D02*
X47231633Y-32390128D01*
X47231633Y-32390128D02*
X47612585Y-32390128D01*
X46088776Y-32866319D02*
X46660204Y-32866319D01*
X46374490Y-32866319D02*
X46374490Y-31866319D01*
X46374490Y-31866319D02*
X46469728Y-32009176D01*
X46469728Y-32009176D02*
X46564966Y-32104414D01*
X46564966Y-32104414D02*
X46660204Y-32152033D01*
X45231633Y-32199652D02*
X45231633Y-32866319D01*
X45469728Y-31818700D02*
X45707823Y-32532985D01*
X45707823Y-32532985D02*
X45088776Y-32532985D01*
X32751819Y-27495094D02*
X33561342Y-27495094D01*
X33561342Y-27495094D02*
X33656580Y-27542713D01*
X33656580Y-27542713D02*
X33704200Y-27590332D01*
X33704200Y-27590332D02*
X33751819Y-27685570D01*
X33751819Y-27685570D02*
X33751819Y-27876046D01*
X33751819Y-27876046D02*
X33704200Y-27971284D01*
X33704200Y-27971284D02*
X33656580Y-28018903D01*
X33656580Y-28018903D02*
X33561342Y-28066522D01*
X33561342Y-28066522D02*
X32751819Y-28066522D01*
X32847057Y-28495094D02*
X32799438Y-28542713D01*
X32799438Y-28542713D02*
X32751819Y-28637951D01*
X32751819Y-28637951D02*
X32751819Y-28876046D01*
X32751819Y-28876046D02*
X32799438Y-28971284D01*
X32799438Y-28971284D02*
X32847057Y-29018903D01*
X32847057Y-29018903D02*
X32942295Y-29066522D01*
X32942295Y-29066522D02*
X33037533Y-29066522D01*
X33037533Y-29066522D02*
X33180390Y-29018903D01*
X33180390Y-29018903D02*
X33751819Y-28447475D01*
X33751819Y-28447475D02*
X33751819Y-29066522D01*
X52092833Y-28879219D02*
X52092833Y-29593504D01*
X52092833Y-29593504D02*
X52140452Y-29736361D01*
X52140452Y-29736361D02*
X52235690Y-29831600D01*
X52235690Y-29831600D02*
X52378547Y-29879219D01*
X52378547Y-29879219D02*
X52473785Y-29879219D01*
X51616642Y-29879219D02*
X51616642Y-28879219D01*
X51616642Y-28879219D02*
X51235690Y-28879219D01*
X51235690Y-28879219D02*
X51140452Y-28926838D01*
X51140452Y-28926838D02*
X51092833Y-28974457D01*
X51092833Y-28974457D02*
X51045214Y-29069695D01*
X51045214Y-29069695D02*
X51045214Y-29212552D01*
X51045214Y-29212552D02*
X51092833Y-29307790D01*
X51092833Y-29307790D02*
X51140452Y-29355409D01*
X51140452Y-29355409D02*
X51235690Y-29403028D01*
X51235690Y-29403028D02*
X51616642Y-29403028D01*
X50664261Y-28974457D02*
X50616642Y-28926838D01*
X50616642Y-28926838D02*
X50521404Y-28879219D01*
X50521404Y-28879219D02*
X50283309Y-28879219D01*
X50283309Y-28879219D02*
X50188071Y-28926838D01*
X50188071Y-28926838D02*
X50140452Y-28974457D01*
X50140452Y-28974457D02*
X50092833Y-29069695D01*
X50092833Y-29069695D02*
X50092833Y-29164933D01*
X50092833Y-29164933D02*
X50140452Y-29307790D01*
X50140452Y-29307790D02*
X50711880Y-29879219D01*
X50711880Y-29879219D02*
X50092833Y-29879219D01*
X70868204Y-45236819D02*
X70868204Y-46046342D01*
X70868204Y-46046342D02*
X70820585Y-46141580D01*
X70820585Y-46141580D02*
X70772966Y-46189200D01*
X70772966Y-46189200D02*
X70677728Y-46236819D01*
X70677728Y-46236819D02*
X70487252Y-46236819D01*
X70487252Y-46236819D02*
X70392014Y-46189200D01*
X70392014Y-46189200D02*
X70344395Y-46141580D01*
X70344395Y-46141580D02*
X70296776Y-46046342D01*
X70296776Y-46046342D02*
X70296776Y-45236819D01*
X69296776Y-46236819D02*
X69868204Y-46236819D01*
X69582490Y-46236819D02*
X69582490Y-45236819D01*
X69582490Y-45236819D02*
X69677728Y-45379676D01*
X69677728Y-45379676D02*
X69772966Y-45474914D01*
X69772966Y-45474914D02*
X69868204Y-45522533D01*
X63160966Y-40902819D02*
X63494299Y-40426628D01*
X63732394Y-40902819D02*
X63732394Y-39902819D01*
X63732394Y-39902819D02*
X63351442Y-39902819D01*
X63351442Y-39902819D02*
X63256204Y-39950438D01*
X63256204Y-39950438D02*
X63208585Y-39998057D01*
X63208585Y-39998057D02*
X63160966Y-40093295D01*
X63160966Y-40093295D02*
X63160966Y-40236152D01*
X63160966Y-40236152D02*
X63208585Y-40331390D01*
X63208585Y-40331390D02*
X63256204Y-40379009D01*
X63256204Y-40379009D02*
X63351442Y-40426628D01*
X63351442Y-40426628D02*
X63732394Y-40426628D01*
X62208585Y-40902819D02*
X62780013Y-40902819D01*
X62494299Y-40902819D02*
X62494299Y-39902819D01*
X62494299Y-39902819D02*
X62589537Y-40045676D01*
X62589537Y-40045676D02*
X62684775Y-40140914D01*
X62684775Y-40140914D02*
X62780013Y-40188533D01*
X44500681Y-25597876D02*
X44500681Y-24957876D01*
X44500681Y-24957876D02*
X44348300Y-24957876D01*
X44348300Y-24957876D02*
X44256871Y-24988352D01*
X44256871Y-24988352D02*
X44195919Y-25049304D01*
X44195919Y-25049304D02*
X44165442Y-25110257D01*
X44165442Y-25110257D02*
X44134966Y-25232161D01*
X44134966Y-25232161D02*
X44134966Y-25323590D01*
X44134966Y-25323590D02*
X44165442Y-25445495D01*
X44165442Y-25445495D02*
X44195919Y-25506447D01*
X44195919Y-25506447D02*
X44256871Y-25567400D01*
X44256871Y-25567400D02*
X44348300Y-25597876D01*
X44348300Y-25597876D02*
X44500681Y-25597876D01*
X43921633Y-24957876D02*
X43525442Y-24957876D01*
X43525442Y-24957876D02*
X43738776Y-25201685D01*
X43738776Y-25201685D02*
X43647347Y-25201685D01*
X43647347Y-25201685D02*
X43586395Y-25232161D01*
X43586395Y-25232161D02*
X43555919Y-25262638D01*
X43555919Y-25262638D02*
X43525442Y-25323590D01*
X43525442Y-25323590D02*
X43525442Y-25475971D01*
X43525442Y-25475971D02*
X43555919Y-25536923D01*
X43555919Y-25536923D02*
X43586395Y-25567400D01*
X43586395Y-25567400D02*
X43647347Y-25597876D01*
X43647347Y-25597876D02*
X43830204Y-25597876D01*
X43830204Y-25597876D02*
X43891157Y-25567400D01*
X43891157Y-25567400D02*
X43921633Y-25536923D01*
X51699157Y-54872819D02*
X52032490Y-54396628D01*
X52270585Y-54872819D02*
X52270585Y-53872819D01*
X52270585Y-53872819D02*
X51889633Y-53872819D01*
X51889633Y-53872819D02*
X51794395Y-53920438D01*
X51794395Y-53920438D02*
X51746776Y-53968057D01*
X51746776Y-53968057D02*
X51699157Y-54063295D01*
X51699157Y-54063295D02*
X51699157Y-54206152D01*
X51699157Y-54206152D02*
X51746776Y-54301390D01*
X51746776Y-54301390D02*
X51794395Y-54349009D01*
X51794395Y-54349009D02*
X51889633Y-54396628D01*
X51889633Y-54396628D02*
X52270585Y-54396628D01*
X50746776Y-54872819D02*
X51318204Y-54872819D01*
X51032490Y-54872819D02*
X51032490Y-53872819D01*
X51032490Y-53872819D02*
X51127728Y-54015676D01*
X51127728Y-54015676D02*
X51222966Y-54110914D01*
X51222966Y-54110914D02*
X51318204Y-54158533D01*
X50127728Y-53872819D02*
X50032490Y-53872819D01*
X50032490Y-53872819D02*
X49937252Y-53920438D01*
X49937252Y-53920438D02*
X49889633Y-53968057D01*
X49889633Y-53968057D02*
X49842014Y-54063295D01*
X49842014Y-54063295D02*
X49794395Y-54253771D01*
X49794395Y-54253771D02*
X49794395Y-54491866D01*
X49794395Y-54491866D02*
X49842014Y-54682342D01*
X49842014Y-54682342D02*
X49889633Y-54777580D01*
X49889633Y-54777580D02*
X49937252Y-54825200D01*
X49937252Y-54825200D02*
X50032490Y-54872819D01*
X50032490Y-54872819D02*
X50127728Y-54872819D01*
X50127728Y-54872819D02*
X50222966Y-54825200D01*
X50222966Y-54825200D02*
X50270585Y-54777580D01*
X50270585Y-54777580D02*
X50318204Y-54682342D01*
X50318204Y-54682342D02*
X50365823Y-54491866D01*
X50365823Y-54491866D02*
X50365823Y-54253771D01*
X50365823Y-54253771D02*
X50318204Y-54063295D01*
X50318204Y-54063295D02*
X50270585Y-53968057D01*
X50270585Y-53968057D02*
X50222966Y-53920438D01*
X50222966Y-53920438D02*
X50127728Y-53872819D01*
X26209557Y-38295361D02*
X26161938Y-38200123D01*
X26161938Y-38200123D02*
X26066700Y-38104885D01*
X26066700Y-38104885D02*
X25923842Y-37962028D01*
X25923842Y-37962028D02*
X25876223Y-37866790D01*
X25876223Y-37866790D02*
X25876223Y-37771552D01*
X26114319Y-37819171D02*
X26066700Y-37723933D01*
X26066700Y-37723933D02*
X25971461Y-37628695D01*
X25971461Y-37628695D02*
X25780985Y-37581076D01*
X25780985Y-37581076D02*
X25447652Y-37581076D01*
X25447652Y-37581076D02*
X25257176Y-37628695D01*
X25257176Y-37628695D02*
X25161938Y-37723933D01*
X25161938Y-37723933D02*
X25114319Y-37819171D01*
X25114319Y-37819171D02*
X25114319Y-38009647D01*
X25114319Y-38009647D02*
X25161938Y-38104885D01*
X25161938Y-38104885D02*
X25257176Y-38200123D01*
X25257176Y-38200123D02*
X25447652Y-38247742D01*
X25447652Y-38247742D02*
X25780985Y-38247742D01*
X25780985Y-38247742D02*
X25971461Y-38200123D01*
X25971461Y-38200123D02*
X26066700Y-38104885D01*
X26066700Y-38104885D02*
X26114319Y-38009647D01*
X26114319Y-38009647D02*
X26114319Y-37819171D01*
X25114319Y-38581076D02*
X25114319Y-39247742D01*
X25114319Y-39247742D02*
X26114319Y-38819171D01*
X55469538Y-47348057D02*
X55564776Y-47300438D01*
X55564776Y-47300438D02*
X55660014Y-47205200D01*
X55660014Y-47205200D02*
X55802871Y-47062342D01*
X55802871Y-47062342D02*
X55898109Y-47014723D01*
X55898109Y-47014723D02*
X55993347Y-47014723D01*
X55945728Y-47252819D02*
X56040966Y-47205200D01*
X56040966Y-47205200D02*
X56136204Y-47109961D01*
X56136204Y-47109961D02*
X56183823Y-46919485D01*
X56183823Y-46919485D02*
X56183823Y-46586152D01*
X56183823Y-46586152D02*
X56136204Y-46395676D01*
X56136204Y-46395676D02*
X56040966Y-46300438D01*
X56040966Y-46300438D02*
X55945728Y-46252819D01*
X55945728Y-46252819D02*
X55755252Y-46252819D01*
X55755252Y-46252819D02*
X55660014Y-46300438D01*
X55660014Y-46300438D02*
X55564776Y-46395676D01*
X55564776Y-46395676D02*
X55517157Y-46586152D01*
X55517157Y-46586152D02*
X55517157Y-46919485D01*
X55517157Y-46919485D02*
X55564776Y-47109961D01*
X55564776Y-47109961D02*
X55660014Y-47205200D01*
X55660014Y-47205200D02*
X55755252Y-47252819D01*
X55755252Y-47252819D02*
X55945728Y-47252819D01*
X55136204Y-46348057D02*
X55088585Y-46300438D01*
X55088585Y-46300438D02*
X54993347Y-46252819D01*
X54993347Y-46252819D02*
X54755252Y-46252819D01*
X54755252Y-46252819D02*
X54660014Y-46300438D01*
X54660014Y-46300438D02*
X54612395Y-46348057D01*
X54612395Y-46348057D02*
X54564776Y-46443295D01*
X54564776Y-46443295D02*
X54564776Y-46538533D01*
X54564776Y-46538533D02*
X54612395Y-46681390D01*
X54612395Y-46681390D02*
X55183823Y-47252819D01*
X55183823Y-47252819D02*
X54564776Y-47252819D01*
X58282599Y-46329019D02*
X58282599Y-46567114D01*
X58520694Y-46471876D02*
X58282599Y-46567114D01*
X58282599Y-46567114D02*
X58044504Y-46471876D01*
X58425456Y-46757590D02*
X58282599Y-46567114D01*
X58282599Y-46567114D02*
X58139742Y-46757590D01*
X58282599Y-46329019D02*
X58282599Y-46567114D01*
X58520694Y-46471876D02*
X58282599Y-46567114D01*
X58282599Y-46567114D02*
X58044504Y-46471876D01*
X58425456Y-46757590D02*
X58282599Y-46567114D01*
X58282599Y-46567114D02*
X58139742Y-46757590D01*
X31861281Y-41523676D02*
X31861281Y-40883676D01*
X31861281Y-40883676D02*
X31708900Y-40883676D01*
X31708900Y-40883676D02*
X31617471Y-40914152D01*
X31617471Y-40914152D02*
X31556519Y-40975104D01*
X31556519Y-40975104D02*
X31526042Y-41036057D01*
X31526042Y-41036057D02*
X31495566Y-41157961D01*
X31495566Y-41157961D02*
X31495566Y-41249390D01*
X31495566Y-41249390D02*
X31526042Y-41371295D01*
X31526042Y-41371295D02*
X31556519Y-41432247D01*
X31556519Y-41432247D02*
X31617471Y-41493200D01*
X31617471Y-41493200D02*
X31708900Y-41523676D01*
X31708900Y-41523676D02*
X31861281Y-41523676D01*
X31251757Y-40944628D02*
X31221281Y-40914152D01*
X31221281Y-40914152D02*
X31160328Y-40883676D01*
X31160328Y-40883676D02*
X31007947Y-40883676D01*
X31007947Y-40883676D02*
X30946995Y-40914152D01*
X30946995Y-40914152D02*
X30916519Y-40944628D01*
X30916519Y-40944628D02*
X30886042Y-41005580D01*
X30886042Y-41005580D02*
X30886042Y-41066533D01*
X30886042Y-41066533D02*
X30916519Y-41157961D01*
X30916519Y-41157961D02*
X31282233Y-41523676D01*
X31282233Y-41523676D02*
X30886042Y-41523676D01*
X79209966Y-52586819D02*
X79543299Y-52110628D01*
X79781394Y-52586819D02*
X79781394Y-51586819D01*
X79781394Y-51586819D02*
X79400442Y-51586819D01*
X79400442Y-51586819D02*
X79305204Y-51634438D01*
X79305204Y-51634438D02*
X79257585Y-51682057D01*
X79257585Y-51682057D02*
X79209966Y-51777295D01*
X79209966Y-51777295D02*
X79209966Y-51920152D01*
X79209966Y-51920152D02*
X79257585Y-52015390D01*
X79257585Y-52015390D02*
X79305204Y-52063009D01*
X79305204Y-52063009D02*
X79400442Y-52110628D01*
X79400442Y-52110628D02*
X79781394Y-52110628D01*
X78876632Y-51586819D02*
X78209966Y-51586819D01*
X78209966Y-51586819D02*
X78638537Y-52586819D01*
D12*
X63115252Y-37333270D02*
X63236204Y-37272794D01*
X63236204Y-37272794D02*
X63357157Y-37151842D01*
X63357157Y-37151842D02*
X63538585Y-36970413D01*
X63538585Y-36970413D02*
X63659538Y-36909937D01*
X63659538Y-36909937D02*
X63780490Y-36909937D01*
X63720014Y-37212318D02*
X63840966Y-37151842D01*
X63840966Y-37151842D02*
X63961919Y-37030889D01*
X63961919Y-37030889D02*
X64022395Y-36788984D01*
X64022395Y-36788984D02*
X64022395Y-36365651D01*
X64022395Y-36365651D02*
X63961919Y-36123746D01*
X63961919Y-36123746D02*
X63840966Y-36002794D01*
X63840966Y-36002794D02*
X63720014Y-35942318D01*
X63720014Y-35942318D02*
X63478109Y-35942318D01*
X63478109Y-35942318D02*
X63357157Y-36002794D01*
X63357157Y-36002794D02*
X63236204Y-36123746D01*
X63236204Y-36123746D02*
X63175728Y-36365651D01*
X63175728Y-36365651D02*
X63175728Y-36788984D01*
X63175728Y-36788984D02*
X63236204Y-37030889D01*
X63236204Y-37030889D02*
X63357157Y-37151842D01*
X63357157Y-37151842D02*
X63478109Y-37212318D01*
X63478109Y-37212318D02*
X63720014Y-37212318D01*
X62087157Y-36365651D02*
X62087157Y-37212318D01*
X62389538Y-35881842D02*
X62691919Y-36788984D01*
X62691919Y-36788984D02*
X61905728Y-36788984D01*
D11*
X61067880Y-39387333D02*
X61115500Y-39339714D01*
X61115500Y-39339714D02*
X61163119Y-39196857D01*
X61163119Y-39196857D02*
X61163119Y-39101619D01*
X61163119Y-39101619D02*
X61115500Y-38958762D01*
X61115500Y-38958762D02*
X61020261Y-38863524D01*
X61020261Y-38863524D02*
X60925023Y-38815905D01*
X60925023Y-38815905D02*
X60734547Y-38768286D01*
X60734547Y-38768286D02*
X60591690Y-38768286D01*
X60591690Y-38768286D02*
X60401214Y-38815905D01*
X60401214Y-38815905D02*
X60305976Y-38863524D01*
X60305976Y-38863524D02*
X60210738Y-38958762D01*
X60210738Y-38958762D02*
X60163119Y-39101619D01*
X60163119Y-39101619D02*
X60163119Y-39196857D01*
X60163119Y-39196857D02*
X60210738Y-39339714D01*
X60210738Y-39339714D02*
X60258357Y-39387333D01*
X60163119Y-39720667D02*
X60163119Y-40339714D01*
X60163119Y-40339714D02*
X60544071Y-40006381D01*
X60544071Y-40006381D02*
X60544071Y-40149238D01*
X60544071Y-40149238D02*
X60591690Y-40244476D01*
X60591690Y-40244476D02*
X60639309Y-40292095D01*
X60639309Y-40292095D02*
X60734547Y-40339714D01*
X60734547Y-40339714D02*
X60972642Y-40339714D01*
X60972642Y-40339714D02*
X61067880Y-40292095D01*
X61067880Y-40292095D02*
X61115500Y-40244476D01*
X61115500Y-40244476D02*
X61163119Y-40149238D01*
X61163119Y-40149238D02*
X61163119Y-39863524D01*
X61163119Y-39863524D02*
X61115500Y-39768286D01*
X61115500Y-39768286D02*
X61067880Y-39720667D01*
X60945866Y-45252580D02*
X60993485Y-45300200D01*
X60993485Y-45300200D02*
X61136342Y-45347819D01*
X61136342Y-45347819D02*
X61231580Y-45347819D01*
X61231580Y-45347819D02*
X61374437Y-45300200D01*
X61374437Y-45300200D02*
X61469675Y-45204961D01*
X61469675Y-45204961D02*
X61517294Y-45109723D01*
X61517294Y-45109723D02*
X61564913Y-44919247D01*
X61564913Y-44919247D02*
X61564913Y-44776390D01*
X61564913Y-44776390D02*
X61517294Y-44585914D01*
X61517294Y-44585914D02*
X61469675Y-44490676D01*
X61469675Y-44490676D02*
X61374437Y-44395438D01*
X61374437Y-44395438D02*
X61231580Y-44347819D01*
X61231580Y-44347819D02*
X61136342Y-44347819D01*
X61136342Y-44347819D02*
X60993485Y-44395438D01*
X60993485Y-44395438D02*
X60945866Y-44443057D01*
X60564913Y-44443057D02*
X60517294Y-44395438D01*
X60517294Y-44395438D02*
X60422056Y-44347819D01*
X60422056Y-44347819D02*
X60183961Y-44347819D01*
X60183961Y-44347819D02*
X60088723Y-44395438D01*
X60088723Y-44395438D02*
X60041104Y-44443057D01*
X60041104Y-44443057D02*
X59993485Y-44538295D01*
X59993485Y-44538295D02*
X59993485Y-44633533D01*
X59993485Y-44633533D02*
X60041104Y-44776390D01*
X60041104Y-44776390D02*
X60612532Y-45347819D01*
X60612532Y-45347819D02*
X59993485Y-45347819D01*
X61335966Y-59095580D02*
X61383585Y-59143200D01*
X61383585Y-59143200D02*
X61526442Y-59190819D01*
X61526442Y-59190819D02*
X61621680Y-59190819D01*
X61621680Y-59190819D02*
X61764537Y-59143200D01*
X61764537Y-59143200D02*
X61859775Y-59047961D01*
X61859775Y-59047961D02*
X61907394Y-58952723D01*
X61907394Y-58952723D02*
X61955013Y-58762247D01*
X61955013Y-58762247D02*
X61955013Y-58619390D01*
X61955013Y-58619390D02*
X61907394Y-58428914D01*
X61907394Y-58428914D02*
X61859775Y-58333676D01*
X61859775Y-58333676D02*
X61764537Y-58238438D01*
X61764537Y-58238438D02*
X61621680Y-58190819D01*
X61621680Y-58190819D02*
X61526442Y-58190819D01*
X61526442Y-58190819D02*
X61383585Y-58238438D01*
X61383585Y-58238438D02*
X61335966Y-58286057D01*
X61002632Y-58190819D02*
X60335966Y-58190819D01*
X60335966Y-58190819D02*
X60764537Y-59190819D01*
X34296280Y-32631233D02*
X34343900Y-32583614D01*
X34343900Y-32583614D02*
X34391519Y-32440757D01*
X34391519Y-32440757D02*
X34391519Y-32345519D01*
X34391519Y-32345519D02*
X34343900Y-32202662D01*
X34343900Y-32202662D02*
X34248661Y-32107424D01*
X34248661Y-32107424D02*
X34153423Y-32059805D01*
X34153423Y-32059805D02*
X33962947Y-32012186D01*
X33962947Y-32012186D02*
X33820090Y-32012186D01*
X33820090Y-32012186D02*
X33629614Y-32059805D01*
X33629614Y-32059805D02*
X33534376Y-32107424D01*
X33534376Y-32107424D02*
X33439138Y-32202662D01*
X33439138Y-32202662D02*
X33391519Y-32345519D01*
X33391519Y-32345519D02*
X33391519Y-32440757D01*
X33391519Y-32440757D02*
X33439138Y-32583614D01*
X33439138Y-32583614D02*
X33486757Y-32631233D01*
X34391519Y-33631233D02*
X33915328Y-33297900D01*
X34391519Y-33059805D02*
X33391519Y-33059805D01*
X33391519Y-33059805D02*
X33391519Y-33440757D01*
X33391519Y-33440757D02*
X33439138Y-33535995D01*
X33439138Y-33535995D02*
X33486757Y-33583614D01*
X33486757Y-33583614D02*
X33581995Y-33631233D01*
X33581995Y-33631233D02*
X33724852Y-33631233D01*
X33724852Y-33631233D02*
X33820090Y-33583614D01*
X33820090Y-33583614D02*
X33867709Y-33535995D01*
X33867709Y-33535995D02*
X33915328Y-33440757D01*
X33915328Y-33440757D02*
X33915328Y-33059805D01*
X34391519Y-34583614D02*
X34391519Y-34012186D01*
X34391519Y-34297900D02*
X33391519Y-34297900D01*
X33391519Y-34297900D02*
X33534376Y-34202662D01*
X33534376Y-34202662D02*
X33629614Y-34107424D01*
X33629614Y-34107424D02*
X33677233Y-34012186D01*
X45671880Y-50121333D02*
X45719500Y-50073714D01*
X45719500Y-50073714D02*
X45767119Y-49930857D01*
X45767119Y-49930857D02*
X45767119Y-49835619D01*
X45767119Y-49835619D02*
X45719500Y-49692762D01*
X45719500Y-49692762D02*
X45624261Y-49597524D01*
X45624261Y-49597524D02*
X45529023Y-49549905D01*
X45529023Y-49549905D02*
X45338547Y-49502286D01*
X45338547Y-49502286D02*
X45195690Y-49502286D01*
X45195690Y-49502286D02*
X45005214Y-49549905D01*
X45005214Y-49549905D02*
X44909976Y-49597524D01*
X44909976Y-49597524D02*
X44814738Y-49692762D01*
X44814738Y-49692762D02*
X44767119Y-49835619D01*
X44767119Y-49835619D02*
X44767119Y-49930857D01*
X44767119Y-49930857D02*
X44814738Y-50073714D01*
X44814738Y-50073714D02*
X44862357Y-50121333D01*
X45100452Y-50978476D02*
X45767119Y-50978476D01*
X44719500Y-50740381D02*
X45433785Y-50502286D01*
X45433785Y-50502286D02*
X45433785Y-51121333D01*
X55399688Y-43411057D02*
X55494926Y-43363438D01*
X55494926Y-43363438D02*
X55590164Y-43268200D01*
X55590164Y-43268200D02*
X55733021Y-43125342D01*
X55733021Y-43125342D02*
X55828259Y-43077723D01*
X55828259Y-43077723D02*
X55923497Y-43077723D01*
X55875878Y-43315819D02*
X55971116Y-43268200D01*
X55971116Y-43268200D02*
X56066354Y-43172961D01*
X56066354Y-43172961D02*
X56113973Y-42982485D01*
X56113973Y-42982485D02*
X56113973Y-42649152D01*
X56113973Y-42649152D02*
X56066354Y-42458676D01*
X56066354Y-42458676D02*
X55971116Y-42363438D01*
X55971116Y-42363438D02*
X55875878Y-42315819D01*
X55875878Y-42315819D02*
X55685402Y-42315819D01*
X55685402Y-42315819D02*
X55590164Y-42363438D01*
X55590164Y-42363438D02*
X55494926Y-42458676D01*
X55494926Y-42458676D02*
X55447307Y-42649152D01*
X55447307Y-42649152D02*
X55447307Y-42982485D01*
X55447307Y-42982485D02*
X55494926Y-43172961D01*
X55494926Y-43172961D02*
X55590164Y-43268200D01*
X55590164Y-43268200D02*
X55685402Y-43315819D01*
X55685402Y-43315819D02*
X55875878Y-43315819D01*
X54494926Y-43315819D02*
X55066354Y-43315819D01*
X54780640Y-43315819D02*
X54780640Y-42315819D01*
X54780640Y-42315819D02*
X54875878Y-42458676D01*
X54875878Y-42458676D02*
X54971116Y-42553914D01*
X54971116Y-42553914D02*
X55066354Y-42601533D01*
X58282599Y-38709019D02*
X58282599Y-38947114D01*
X58520694Y-38851876D02*
X58282599Y-38947114D01*
X58282599Y-38947114D02*
X58044504Y-38851876D01*
X58425456Y-39137590D02*
X58282599Y-38947114D01*
X58282599Y-38947114D02*
X58139742Y-39137590D01*
X58282599Y-38709019D02*
X58282599Y-38947114D01*
X58520694Y-38851876D02*
X58282599Y-38947114D01*
X58282599Y-38947114D02*
X58044504Y-38851876D01*
X58425456Y-39137590D02*
X58282599Y-38947114D01*
X58282599Y-38947114D02*
X58139742Y-39137590D01*
X64684966Y-61635580D02*
X64732585Y-61683200D01*
X64732585Y-61683200D02*
X64875442Y-61730819D01*
X64875442Y-61730819D02*
X64970680Y-61730819D01*
X64970680Y-61730819D02*
X65113537Y-61683200D01*
X65113537Y-61683200D02*
X65208775Y-61587961D01*
X65208775Y-61587961D02*
X65256394Y-61492723D01*
X65256394Y-61492723D02*
X65304013Y-61302247D01*
X65304013Y-61302247D02*
X65304013Y-61159390D01*
X65304013Y-61159390D02*
X65256394Y-60968914D01*
X65256394Y-60968914D02*
X65208775Y-60873676D01*
X65208775Y-60873676D02*
X65113537Y-60778438D01*
X65113537Y-60778438D02*
X64970680Y-60730819D01*
X64970680Y-60730819D02*
X64875442Y-60730819D01*
X64875442Y-60730819D02*
X64732585Y-60778438D01*
X64732585Y-60778438D02*
X64684966Y-60826057D01*
X63827823Y-60730819D02*
X64018299Y-60730819D01*
X64018299Y-60730819D02*
X64113537Y-60778438D01*
X64113537Y-60778438D02*
X64161156Y-60826057D01*
X64161156Y-60826057D02*
X64256394Y-60968914D01*
X64256394Y-60968914D02*
X64304013Y-61159390D01*
X64304013Y-61159390D02*
X64304013Y-61540342D01*
X64304013Y-61540342D02*
X64256394Y-61635580D01*
X64256394Y-61635580D02*
X64208775Y-61683200D01*
X64208775Y-61683200D02*
X64113537Y-61730819D01*
X64113537Y-61730819D02*
X63923061Y-61730819D01*
X63923061Y-61730819D02*
X63827823Y-61683200D01*
X63827823Y-61683200D02*
X63780204Y-61635580D01*
X63780204Y-61635580D02*
X63732585Y-61540342D01*
X63732585Y-61540342D02*
X63732585Y-61302247D01*
X63732585Y-61302247D02*
X63780204Y-61207009D01*
X63780204Y-61207009D02*
X63827823Y-61159390D01*
X63827823Y-61159390D02*
X63923061Y-61111771D01*
X63923061Y-61111771D02*
X64113537Y-61111771D01*
X64113537Y-61111771D02*
X64208775Y-61159390D01*
X64208775Y-61159390D02*
X64256394Y-61207009D01*
X64256394Y-61207009D02*
X64304013Y-61302247D01*
X38612157Y-39759819D02*
X38945490Y-39283628D01*
X39183585Y-39759819D02*
X39183585Y-38759819D01*
X39183585Y-38759819D02*
X38802633Y-38759819D01*
X38802633Y-38759819D02*
X38707395Y-38807438D01*
X38707395Y-38807438D02*
X38659776Y-38855057D01*
X38659776Y-38855057D02*
X38612157Y-38950295D01*
X38612157Y-38950295D02*
X38612157Y-39093152D01*
X38612157Y-39093152D02*
X38659776Y-39188390D01*
X38659776Y-39188390D02*
X38707395Y-39236009D01*
X38707395Y-39236009D02*
X38802633Y-39283628D01*
X38802633Y-39283628D02*
X39183585Y-39283628D01*
X37659776Y-39759819D02*
X38231204Y-39759819D01*
X37945490Y-39759819D02*
X37945490Y-38759819D01*
X37945490Y-38759819D02*
X38040728Y-38902676D01*
X38040728Y-38902676D02*
X38135966Y-38997914D01*
X38135966Y-38997914D02*
X38231204Y-39045533D01*
X37278823Y-38855057D02*
X37231204Y-38807438D01*
X37231204Y-38807438D02*
X37135966Y-38759819D01*
X37135966Y-38759819D02*
X36897871Y-38759819D01*
X36897871Y-38759819D02*
X36802633Y-38807438D01*
X36802633Y-38807438D02*
X36755014Y-38855057D01*
X36755014Y-38855057D02*
X36707395Y-38950295D01*
X36707395Y-38950295D02*
X36707395Y-39045533D01*
X36707395Y-39045533D02*
X36755014Y-39188390D01*
X36755014Y-39188390D02*
X37326442Y-39759819D01*
X37326442Y-39759819D02*
X36707395Y-39759819D01*
D10*
X23285300Y-44101241D02*
X21816300Y-44101241D01*
X21816300Y-40097484D01*
X23285300Y-40097484D01*
X23285300Y-44101241D01*
X81147300Y-44101241D02*
X82616300Y-44101241D01*
X82616300Y-40097484D01*
X81147300Y-40097484D01*
X81147300Y-44101241D01*
D13*
X37915100Y-43535600D02*
X37915100Y-42135600D01*
X38615100Y-41435600D02*
X39215100Y-41435600D01*
X39215100Y-44235600D02*
X38615100Y-44235600D01*
X39915100Y-42135600D02*
X39915100Y-43535600D01*
X37915100Y-42135600D02*
G75*
G02*
X38615100Y-41435600I700000J0D01*
G01*
X38615100Y-44235600D02*
G75*
G02*
X37915100Y-43535600I-1J699999D01*
G01*
X39215100Y-41435600D02*
G75*
G02*
X39915100Y-42135600I0J-700000D01*
G01*
X39915100Y-43535600D02*
G75*
G02*
X39215100Y-44235600I-699999J-1D01*
G01*
X67642864Y-58001000D02*
X67188736Y-58001000D01*
X67642864Y-59471000D02*
X67188736Y-59471000D01*
X29810564Y-29400600D02*
X29356436Y-29400600D01*
X29810564Y-30870600D02*
X29356436Y-30870600D01*
X40735300Y-35841000D02*
X40735300Y-47151000D01*
X47235300Y-35841000D02*
X47235300Y-47151000D01*
X47235300Y-47151000D02*
X40735300Y-47151000D01*
X67432464Y-41491000D02*
X66978336Y-41491000D01*
X67432464Y-42961000D02*
X66978336Y-42961000D01*
D14*
X53323250Y-60983900D02*
X57565050Y-60983900D01*
X57565050Y-55726100D02*
X53323250Y-55726100D01*
D13*
X59465300Y-47618748D02*
X59465300Y-48141252D01*
X60935300Y-47618748D02*
X60935300Y-48141252D01*
D15*
X26998500Y-42190600D02*
X28698500Y-42190600D01*
X28698500Y-40940600D02*
X26998500Y-40940600D01*
D16*
X29948500Y-41565600D02*
G75*
G02*
X29748500Y-41565600I-100000J0D01*
G01*
X29748500Y-41565600D02*
G75*
G02*
X29948500Y-41565600I100000J0D01*
G01*
D13*
X76532864Y-49365000D02*
X76078736Y-49365000D01*
X76532864Y-50835000D02*
X76078736Y-50835000D01*
X67432464Y-43523000D02*
X66978336Y-43523000D01*
X67432464Y-44993000D02*
X66978336Y-44993000D01*
X72573048Y-51397000D02*
X73095552Y-51397000D01*
X72573048Y-52867000D02*
X73095552Y-52867000D01*
X28691064Y-32194600D02*
X28236936Y-32194600D01*
X28691064Y-33664600D02*
X28236936Y-33664600D01*
X64086864Y-55715000D02*
X63632736Y-55715000D01*
X64086864Y-57185000D02*
X63632736Y-57185000D01*
X67642864Y-55715000D02*
X67188736Y-55715000D01*
X67642864Y-57185000D02*
X67188736Y-57185000D01*
X58175552Y-53683000D02*
X57653048Y-53683000D01*
X58175552Y-55153000D02*
X57653048Y-55153000D01*
X73023864Y-49365000D02*
X72569736Y-49365000D01*
X73023864Y-50835000D02*
X72569736Y-50835000D01*
X42797736Y-31536000D02*
X43251864Y-31536000D01*
X42797736Y-33006000D02*
X43251864Y-33006000D01*
D15*
X34686000Y-26695999D02*
X34686000Y-28195999D01*
X37816000Y-28195999D02*
X37816000Y-26695999D01*
D16*
X35376000Y-25020999D02*
G75*
G02*
X35176000Y-25020999I-100000J0D01*
G01*
X35176000Y-25020999D02*
G75*
G02*
X35376000Y-25020999I100000J0D01*
G01*
D13*
X46664300Y-29699000D02*
X46664300Y-29099000D01*
X47364300Y-28399000D02*
X48764300Y-28399000D01*
X48764300Y-30399000D02*
X47364300Y-30399000D01*
X49464300Y-29099000D02*
X49464300Y-29699000D01*
X46664300Y-29099000D02*
G75*
G02*
X47364300Y-28399000I700000J0D01*
G01*
X47364300Y-30399000D02*
G75*
G02*
X46664300Y-29699000I0J700000D01*
G01*
X48764300Y-28399000D02*
G75*
G02*
X49464300Y-29099000I1J-699999D01*
G01*
X49464300Y-29699000D02*
G75*
G02*
X48764300Y-30399000I-699999J-1D01*
G01*
D11*
X63297700Y-45663100D02*
X67447700Y-45663100D01*
X63297700Y-46220600D02*
X63297700Y-45663100D01*
X63297700Y-54055600D02*
X63297700Y-54613100D01*
X63297700Y-54613100D02*
X67447700Y-54613100D01*
X67447700Y-46220600D02*
X67447700Y-45663100D01*
X67447700Y-54055600D02*
X67447700Y-54613100D01*
D13*
X68010200Y-46138100D02*
X67770200Y-45808100D01*
X68250200Y-45808100D01*
X68010200Y-46138100D01*
G36*
X68010200Y-46138100D02*
G01*
X67770200Y-45808100D01*
X68250200Y-45808100D01*
X68010200Y-46138100D01*
G37*
X63849164Y-41491000D02*
X63395036Y-41491000D01*
X63849164Y-42961000D02*
X63395036Y-42961000D01*
D15*
X43305300Y-27611000D02*
X45005300Y-27611000D01*
X45005300Y-26361000D02*
X43305300Y-26361000D01*
D16*
X46255300Y-26986000D02*
G75*
G02*
X46055300Y-26986000I-100000J0D01*
G01*
X46055300Y-26986000D02*
G75*
G02*
X46255300Y-26986000I100000J0D01*
G01*
D13*
X53980736Y-53683000D02*
X54434864Y-53683000D01*
X53980736Y-55153000D02*
X54434864Y-55153000D01*
X26499500Y-37184100D02*
X26499500Y-37834100D01*
X26499500Y-38484100D02*
X26499500Y-37834100D01*
X29619500Y-37184100D02*
X29619500Y-37834100D01*
X29619500Y-38484100D02*
X29619500Y-37834100D01*
X26549500Y-36671600D02*
X26219500Y-36911600D01*
X26219500Y-36431600D01*
X26549500Y-36671600D01*
G36*
X26549500Y-36671600D02*
G01*
X26219500Y-36911600D01*
X26219500Y-36431600D01*
X26549500Y-36671600D01*
G37*
D14*
X53183550Y-53109900D02*
X57425350Y-53109900D01*
X57425350Y-47852100D02*
X53183550Y-47852100D01*
D15*
X30665900Y-43536800D02*
X32365900Y-43536800D01*
X32365900Y-42286800D02*
X30665900Y-42286800D01*
D16*
X33615900Y-42911800D02*
G75*
G02*
X33415900Y-42911800I-100000J0D01*
G01*
X33415900Y-42911800D02*
G75*
G02*
X33615900Y-42911800I100000J0D01*
G01*
D13*
X76579864Y-51397000D02*
X76125736Y-51397000D01*
X76579864Y-52867000D02*
X76125736Y-52867000D01*
D10*
X54623300Y-33844000D02*
X54623300Y-33844000D01*
X54723300Y-33844000D02*
X54723300Y-33844000D01*
D16*
X61193300Y-35062000D02*
X61193300Y-25007000D01*
D10*
X54623300Y-33844000D02*
G75*
G02*
X54723300Y-33844000I50000J0D01*
G01*
X54723300Y-33844000D02*
G75*
G02*
X54623300Y-33844000I-50000J0D01*
G01*
D13*
X59973300Y-41898748D02*
X59973300Y-42421252D01*
X61443300Y-41898748D02*
X61443300Y-42421252D01*
X63388148Y-43523000D02*
X63910652Y-43523000D01*
X63388148Y-44993000D02*
X63910652Y-44993000D01*
X63514048Y-57899400D02*
X64036552Y-57899400D01*
X63514048Y-59369400D02*
X64036552Y-59369400D01*
D14*
X30952200Y-32929600D02*
X30952200Y-33374751D01*
X31396700Y-38035000D02*
X32031700Y-38797000D01*
X31396700Y-38035000D02*
X32666700Y-38035000D01*
X31396700Y-38797000D02*
X32666700Y-38797000D01*
X31419560Y-32929600D02*
X30952200Y-32929600D01*
X31523700Y-38035000D02*
X32031700Y-38797000D01*
X31650700Y-38035000D02*
X32031700Y-38797000D01*
X31777700Y-38035000D02*
X32031700Y-38797000D01*
X31904700Y-38035000D02*
X32031700Y-38797000D01*
X32031700Y-39051000D02*
X32031700Y-37781000D01*
X32158700Y-38035000D02*
X32031700Y-38797000D01*
X32285700Y-38035000D02*
X32031700Y-38797000D01*
X32412700Y-38035000D02*
X32031700Y-38797000D01*
X32539700Y-38035000D02*
X32031700Y-38797000D01*
X32666700Y-38035000D02*
X32031700Y-38797000D01*
X33111200Y-32929600D02*
X32643840Y-32929600D01*
X33111200Y-33374751D02*
X33111200Y-32929600D01*
D13*
X46257300Y-50549252D02*
X46257300Y-50026748D01*
X47727300Y-50549252D02*
X47727300Y-50026748D01*
D14*
X53183550Y-45489900D02*
X57425350Y-45489900D01*
X57425350Y-40232100D02*
X53183550Y-40232100D01*
D13*
X62051552Y-60541000D02*
X61529048Y-60541000D01*
X62051552Y-62011000D02*
X61529048Y-62011000D01*
X34590736Y-38570000D02*
X35044864Y-38570000D01*
X34590736Y-40040000D02*
X35044864Y-40040000D01*
%LPC*%
D17*
G36*
X33047700Y-35825200D02*
G01*
X32450800Y-35825200D01*
X32450800Y-36561800D01*
X31612600Y-36561800D01*
X31612600Y-35825200D01*
X31015700Y-35825200D01*
X31015700Y-34047200D01*
X33047700Y-34047200D01*
X33047700Y-35825200D01*
G37*
D18*
X23006300Y-65617000D03*
G36*
G01*
X22631300Y-63292000D02*
X23381300Y-63292000D01*
G75*
G02*
X23631300Y-63542000I0J-250000D01*
G01*
X23631300Y-64292000D01*
G75*
G02*
X23381300Y-64542000I-250000J0D01*
G01*
X22631300Y-64542000D01*
G75*
G02*
X22381300Y-64292000I0J250000D01*
G01*
X22381300Y-63542000D01*
G75*
G02*
X22631300Y-63292000I250000J0D01*
G01*
G37*
X33166300Y-65617000D03*
G36*
G01*
X32791300Y-63292000D02*
X33541300Y-63292000D01*
G75*
G02*
X33791300Y-63542000I0J-250000D01*
G01*
X33791300Y-64292000D01*
G75*
G02*
X33541300Y-64542000I-250000J0D01*
G01*
X32791300Y-64542000D01*
G75*
G02*
X32541300Y-64292000I0J250000D01*
G01*
X32541300Y-63542000D01*
G75*
G02*
X32791300Y-63292000I250000J0D01*
G01*
G37*
X43326300Y-65617000D03*
G36*
G01*
X42951300Y-63292000D02*
X43701300Y-63292000D01*
G75*
G02*
X43951300Y-63542000I0J-250000D01*
G01*
X43951300Y-64292000D01*
G75*
G02*
X43701300Y-64542000I-250000J0D01*
G01*
X42951300Y-64542000D01*
G75*
G02*
X42701300Y-64292000I0J250000D01*
G01*
X42701300Y-63542000D01*
G75*
G02*
X42951300Y-63292000I250000J0D01*
G01*
G37*
X53486300Y-65617000D03*
G36*
G01*
X53111300Y-63292000D02*
X53861300Y-63292000D01*
G75*
G02*
X54111300Y-63542000I0J-250000D01*
G01*
X54111300Y-64292000D01*
G75*
G02*
X53861300Y-64542000I-250000J0D01*
G01*
X53111300Y-64542000D01*
G75*
G02*
X52861300Y-64292000I0J250000D01*
G01*
X52861300Y-63542000D01*
G75*
G02*
X53111300Y-63292000I250000J0D01*
G01*
G37*
X66186300Y-65617000D03*
G36*
G01*
X65811300Y-63292000D02*
X66561300Y-63292000D01*
G75*
G02*
X66811300Y-63542000I0J-250000D01*
G01*
X66811300Y-64292000D01*
G75*
G02*
X66561300Y-64542000I-250000J0D01*
G01*
X65811300Y-64542000D01*
G75*
G02*
X65561300Y-64292000I0J250000D01*
G01*
X65561300Y-63542000D01*
G75*
G02*
X65811300Y-63292000I250000J0D01*
G01*
G37*
X68726300Y-65617000D03*
G36*
G01*
X68351300Y-63292000D02*
X69101300Y-63292000D01*
G75*
G02*
X69351300Y-63542000I0J-250000D01*
G01*
X69351300Y-64292000D01*
G75*
G02*
X69101300Y-64542000I-250000J0D01*
G01*
X68351300Y-64542000D01*
G75*
G02*
X68101300Y-64292000I0J250000D01*
G01*
X68101300Y-63542000D01*
G75*
G02*
X68351300Y-63292000I250000J0D01*
G01*
G37*
X71266300Y-65617000D03*
G36*
G01*
X70891300Y-63292000D02*
X71641300Y-63292000D01*
G75*
G02*
X71891300Y-63542000I0J-250000D01*
G01*
X71891300Y-64292000D01*
G75*
G02*
X71641300Y-64542000I-250000J0D01*
G01*
X70891300Y-64542000D01*
G75*
G02*
X70641300Y-64292000I0J250000D01*
G01*
X70641300Y-63542000D01*
G75*
G02*
X70891300Y-63292000I250000J0D01*
G01*
G37*
X73806300Y-65617000D03*
G36*
G01*
X73431300Y-63292000D02*
X74181300Y-63292000D01*
G75*
G02*
X74431300Y-63542000I0J-250000D01*
G01*
X74431300Y-64292000D01*
G75*
G02*
X74181300Y-64542000I-250000J0D01*
G01*
X73431300Y-64542000D01*
G75*
G02*
X73181300Y-64292000I0J250000D01*
G01*
X73181300Y-63542000D01*
G75*
G02*
X73431300Y-63292000I250000J0D01*
G01*
G37*
X76346300Y-65617000D03*
G36*
G01*
X75971300Y-63292000D02*
X76721300Y-63292000D01*
G75*
G02*
X76971300Y-63542000I0J-250000D01*
G01*
X76971300Y-64292000D01*
G75*
G02*
X76721300Y-64542000I-250000J0D01*
G01*
X75971300Y-64542000D01*
G75*
G02*
X75721300Y-64292000I0J250000D01*
G01*
X75721300Y-63542000D01*
G75*
G02*
X75971300Y-63292000I250000J0D01*
G01*
G37*
X81426300Y-65617000D03*
G36*
G01*
X81051300Y-63292000D02*
X81801300Y-63292000D01*
G75*
G02*
X82051300Y-63542000I0J-250000D01*
G01*
X82051300Y-64292000D01*
G75*
G02*
X81801300Y-64542000I-250000J0D01*
G01*
X81051300Y-64542000D01*
G75*
G02*
X80801300Y-64292000I0J250000D01*
G01*
X80801300Y-63542000D01*
G75*
G02*
X81051300Y-63292000I250000J0D01*
G01*
G37*
G36*
G01*
X22631300Y-19692000D02*
X23381300Y-19692000D01*
G75*
G02*
X23631300Y-19942000I0J-250000D01*
G01*
X23631300Y-20692000D01*
G75*
G02*
X23381300Y-20942000I-250000J0D01*
G01*
X22631300Y-20942000D01*
G75*
G02*
X22381300Y-20692000I0J250000D01*
G01*
X22381300Y-19942000D01*
G75*
G02*
X22631300Y-19692000I250000J0D01*
G01*
G37*
X23006300Y-18617000D03*
G36*
G01*
X32791300Y-19692000D02*
X33541300Y-19692000D01*
G75*
G02*
X33791300Y-19942000I0J-250000D01*
G01*
X33791300Y-20692000D01*
G75*
G02*
X33541300Y-20942000I-250000J0D01*
G01*
X32791300Y-20942000D01*
G75*
G02*
X32541300Y-20692000I0J250000D01*
G01*
X32541300Y-19942000D01*
G75*
G02*
X32791300Y-19692000I250000J0D01*
G01*
G37*
X33166300Y-18617000D03*
G36*
G01*
X35331300Y-19692000D02*
X36081300Y-19692000D01*
G75*
G02*
X36331300Y-19942000I0J-250000D01*
G01*
X36331300Y-20692000D01*
G75*
G02*
X36081300Y-20942000I-250000J0D01*
G01*
X35331300Y-20942000D01*
G75*
G02*
X35081300Y-20692000I0J250000D01*
G01*
X35081300Y-19942000D01*
G75*
G02*
X35331300Y-19692000I250000J0D01*
G01*
G37*
X35706300Y-18617000D03*
G36*
G01*
X81051300Y-19692000D02*
X81801300Y-19692000D01*
G75*
G02*
X82051300Y-19942000I0J-250000D01*
G01*
X82051300Y-20692000D01*
G75*
G02*
X81801300Y-20942000I-250000J0D01*
G01*
X81051300Y-20942000D01*
G75*
G02*
X80801300Y-20692000I0J250000D01*
G01*
X80801300Y-19942000D01*
G75*
G02*
X81051300Y-19692000I250000J0D01*
G01*
G37*
X81426300Y-18617000D03*
G36*
X39665100Y-42985600D02*
G01*
X39665100Y-43485600D01*
X39660822Y-43485600D01*
X39660822Y-43550863D01*
X39627040Y-43676942D01*
X39561777Y-43789981D01*
X39469481Y-43882277D01*
X39356442Y-43947540D01*
X39230363Y-43981322D01*
X39165100Y-43981322D01*
X39165100Y-43985600D01*
X38665100Y-43985600D01*
X38665100Y-43981322D01*
X38599837Y-43981322D01*
X38473758Y-43947540D01*
X38360719Y-43882277D01*
X38268423Y-43789981D01*
X38203160Y-43676942D01*
X38169378Y-43550863D01*
X38169378Y-43485600D01*
X38165100Y-43485600D01*
X38165100Y-42985600D01*
X39665100Y-42985600D01*
G37*
G36*
X38169378Y-42185600D02*
G01*
X38169378Y-42120337D01*
X38203160Y-41994258D01*
X38268423Y-41881219D01*
X38360719Y-41788923D01*
X38473758Y-41723660D01*
X38599837Y-41689878D01*
X38665100Y-41689878D01*
X38665100Y-41685600D01*
X39165100Y-41685600D01*
X39165100Y-41689878D01*
X39230363Y-41689878D01*
X39356442Y-41723660D01*
X39469481Y-41788923D01*
X39561777Y-41881219D01*
X39627040Y-41994258D01*
X39660822Y-42120337D01*
X39660822Y-42185600D01*
X39665100Y-42185600D01*
X39665100Y-42685600D01*
X38165100Y-42685600D01*
X38165100Y-42185600D01*
X38169378Y-42185600D01*
G37*
G36*
G01*
X65990800Y-59186000D02*
X65990800Y-58286000D01*
G75*
G02*
X66240800Y-58036000I250000J0D01*
G01*
X66765800Y-58036000D01*
G75*
G02*
X67015800Y-58286000I0J-250000D01*
G01*
X67015800Y-59186000D01*
G75*
G02*
X66765800Y-59436000I-250000J0D01*
G01*
X66240800Y-59436000D01*
G75*
G02*
X65990800Y-59186000I0J250000D01*
G01*
G37*
G36*
G01*
X67815800Y-59186000D02*
X67815800Y-58286000D01*
G75*
G02*
X68065800Y-58036000I250000J0D01*
G01*
X68590800Y-58036000D01*
G75*
G02*
X68840800Y-58286000I0J-250000D01*
G01*
X68840800Y-59186000D01*
G75*
G02*
X68590800Y-59436000I-250000J0D01*
G01*
X68065800Y-59436000D01*
G75*
G02*
X67815800Y-59186000I0J250000D01*
G01*
G37*
G36*
G01*
X28158500Y-30585600D02*
X28158500Y-29685600D01*
G75*
G02*
X28408500Y-29435600I250000J0D01*
G01*
X28933500Y-29435600D01*
G75*
G02*
X29183500Y-29685600I0J-250000D01*
G01*
X29183500Y-30585600D01*
G75*
G02*
X28933500Y-30835600I-250000J0D01*
G01*
X28408500Y-30835600D01*
G75*
G02*
X28158500Y-30585600I0J250000D01*
G01*
G37*
G36*
G01*
X29983500Y-30585600D02*
X29983500Y-29685600D01*
G75*
G02*
X30233500Y-29435600I250000J0D01*
G01*
X30758500Y-29435600D01*
G75*
G02*
X31008500Y-29685600I0J-250000D01*
G01*
X31008500Y-30585600D01*
G75*
G02*
X30758500Y-30835600I-250000J0D01*
G01*
X30233500Y-30835600D01*
G75*
G02*
X29983500Y-30585600I0J250000D01*
G01*
G37*
G36*
G01*
X45385300Y-46891000D02*
X42585300Y-46891000D01*
G75*
G02*
X42335300Y-46641000I0J250000D01*
G01*
X42335300Y-42641000D01*
G75*
G02*
X42585300Y-42391000I250000J0D01*
G01*
X45385300Y-42391000D01*
G75*
G02*
X45635300Y-42641000I0J-250000D01*
G01*
X45635300Y-46641000D01*
G75*
G02*
X45385300Y-46891000I-250000J0D01*
G01*
G37*
G36*
G01*
X42585300Y-33591000D02*
X45385300Y-33591000D01*
G75*
G02*
X45635300Y-33841000I0J-250000D01*
G01*
X45635300Y-37841000D01*
G75*
G02*
X45385300Y-38091000I-250000J0D01*
G01*
X42585300Y-38091000D01*
G75*
G02*
X42335300Y-37841000I0J250000D01*
G01*
X42335300Y-33841000D01*
G75*
G02*
X42585300Y-33591000I250000J0D01*
G01*
G37*
G36*
G01*
X65780400Y-42676000D02*
X65780400Y-41776000D01*
G75*
G02*
X66030400Y-41526000I250000J0D01*
G01*
X66555400Y-41526000D01*
G75*
G02*
X66805400Y-41776000I0J-250000D01*
G01*
X66805400Y-42676000D01*
G75*
G02*
X66555400Y-42926000I-250000J0D01*
G01*
X66030400Y-42926000D01*
G75*
G02*
X65780400Y-42676000I0J250000D01*
G01*
G37*
G36*
G01*
X67605400Y-42676000D02*
X67605400Y-41776000D01*
G75*
G02*
X67855400Y-41526000I250000J0D01*
G01*
X68380400Y-41526000D01*
G75*
G02*
X68630400Y-41776000I0J-250000D01*
G01*
X68630400Y-42676000D01*
G75*
G02*
X68380400Y-42926000I-250000J0D01*
G01*
X67855400Y-42926000D01*
G75*
G02*
X67605400Y-42676000I0J250000D01*
G01*
G37*
D19*
X58168300Y-56450000D03*
X58168300Y-57720000D03*
X58168300Y-58990000D03*
X58168300Y-60260000D03*
X52720000Y-60260000D03*
X52720000Y-58990000D03*
X52720000Y-57720000D03*
X52720000Y-56450000D03*
G36*
G01*
X60675300Y-49330000D02*
X59725300Y-49330000D01*
G75*
G02*
X59475300Y-49080000I0J250000D01*
G01*
X59475300Y-48580000D01*
G75*
G02*
X59725300Y-48330000I250000J0D01*
G01*
X60675300Y-48330000D01*
G75*
G02*
X60925300Y-48580000I0J-250000D01*
G01*
X60925300Y-49080000D01*
G75*
G02*
X60675300Y-49330000I-250000J0D01*
G01*
G37*
G36*
G01*
X60675300Y-47430000D02*
X59725300Y-47430000D01*
G75*
G02*
X59475300Y-47180000I0J250000D01*
G01*
X59475300Y-46680000D01*
G75*
G02*
X59725300Y-46430000I250000J0D01*
G01*
X60675300Y-46430000D01*
G75*
G02*
X60925300Y-46680000I0J-250000D01*
G01*
X60925300Y-47180000D01*
G75*
G02*
X60675300Y-47430000I-250000J0D01*
G01*
G37*
G36*
G01*
X27150500Y-41265600D02*
X27150500Y-41865600D01*
G75*
G02*
X27048500Y-41967600I-102000J0D01*
G01*
X26448500Y-41967600D01*
G75*
G02*
X26346500Y-41865600I0J102000D01*
G01*
X26346500Y-41265600D01*
G75*
G02*
X26448500Y-41163600I102000J0D01*
G01*
X27048500Y-41163600D01*
G75*
G02*
X27150500Y-41265600I0J-102000D01*
G01*
G37*
G36*
G01*
X29350500Y-41265600D02*
X29350500Y-41865600D01*
G75*
G02*
X29248500Y-41967600I-102000J0D01*
G01*
X28648500Y-41967600D01*
G75*
G02*
X28546500Y-41865600I0J102000D01*
G01*
X28546500Y-41265600D01*
G75*
G02*
X28648500Y-41163600I102000J0D01*
G01*
X29248500Y-41163600D01*
G75*
G02*
X29350500Y-41265600I0J-102000D01*
G01*
G37*
G36*
G01*
X74880800Y-50550000D02*
X74880800Y-49650000D01*
G75*
G02*
X75130800Y-49400000I250000J0D01*
G01*
X75655800Y-49400000D01*
G75*
G02*
X75905800Y-49650000I0J-250000D01*
G01*
X75905800Y-50550000D01*
G75*
G02*
X75655800Y-50800000I-250000J0D01*
G01*
X75130800Y-50800000D01*
G75*
G02*
X74880800Y-50550000I0J250000D01*
G01*
G37*
G36*
G01*
X76705800Y-50550000D02*
X76705800Y-49650000D01*
G75*
G02*
X76955800Y-49400000I250000J0D01*
G01*
X77480800Y-49400000D01*
G75*
G02*
X77730800Y-49650000I0J-250000D01*
G01*
X77730800Y-50550000D01*
G75*
G02*
X77480800Y-50800000I-250000J0D01*
G01*
X76955800Y-50800000D01*
G75*
G02*
X76705800Y-50550000I0J250000D01*
G01*
G37*
G36*
G01*
X65780400Y-44708000D02*
X65780400Y-43808000D01*
G75*
G02*
X66030400Y-43558000I250000J0D01*
G01*
X66555400Y-43558000D01*
G75*
G02*
X66805400Y-43808000I0J-250000D01*
G01*
X66805400Y-44708000D01*
G75*
G02*
X66555400Y-44958000I-250000J0D01*
G01*
X66030400Y-44958000D01*
G75*
G02*
X65780400Y-44708000I0J250000D01*
G01*
G37*
G36*
G01*
X67605400Y-44708000D02*
X67605400Y-43808000D01*
G75*
G02*
X67855400Y-43558000I250000J0D01*
G01*
X68380400Y-43558000D01*
G75*
G02*
X68630400Y-43808000I0J-250000D01*
G01*
X68630400Y-44708000D01*
G75*
G02*
X68380400Y-44958000I-250000J0D01*
G01*
X67855400Y-44958000D01*
G75*
G02*
X67605400Y-44708000I0J250000D01*
G01*
G37*
G36*
G01*
X74284300Y-51657000D02*
X74284300Y-52607000D01*
G75*
G02*
X74034300Y-52857000I-250000J0D01*
G01*
X73534300Y-52857000D01*
G75*
G02*
X73284300Y-52607000I0J250000D01*
G01*
X73284300Y-51657000D01*
G75*
G02*
X73534300Y-51407000I250000J0D01*
G01*
X74034300Y-51407000D01*
G75*
G02*
X74284300Y-51657000I0J-250000D01*
G01*
G37*
G36*
G01*
X72384300Y-51657000D02*
X72384300Y-52607000D01*
G75*
G02*
X72134300Y-52857000I-250000J0D01*
G01*
X71634300Y-52857000D01*
G75*
G02*
X71384300Y-52607000I0J250000D01*
G01*
X71384300Y-51657000D01*
G75*
G02*
X71634300Y-51407000I250000J0D01*
G01*
X72134300Y-51407000D01*
G75*
G02*
X72384300Y-51657000I0J-250000D01*
G01*
G37*
G36*
G01*
X27039000Y-33379600D02*
X27039000Y-32479600D01*
G75*
G02*
X27289000Y-32229600I250000J0D01*
G01*
X27814000Y-32229600D01*
G75*
G02*
X28064000Y-32479600I0J-250000D01*
G01*
X28064000Y-33379600D01*
G75*
G02*
X27814000Y-33629600I-250000J0D01*
G01*
X27289000Y-33629600D01*
G75*
G02*
X27039000Y-33379600I0J250000D01*
G01*
G37*
G36*
G01*
X28864000Y-33379600D02*
X28864000Y-32479600D01*
G75*
G02*
X29114000Y-32229600I250000J0D01*
G01*
X29639000Y-32229600D01*
G75*
G02*
X29889000Y-32479600I0J-250000D01*
G01*
X29889000Y-33379600D01*
G75*
G02*
X29639000Y-33629600I-250000J0D01*
G01*
X29114000Y-33629600D01*
G75*
G02*
X28864000Y-33379600I0J250000D01*
G01*
G37*
G36*
G01*
X62434800Y-56900000D02*
X62434800Y-56000000D01*
G75*
G02*
X62684800Y-55750000I250000J0D01*
G01*
X63209800Y-55750000D01*
G75*
G02*
X63459800Y-56000000I0J-250000D01*
G01*
X63459800Y-56900000D01*
G75*
G02*
X63209800Y-57150000I-250000J0D01*
G01*
X62684800Y-57150000D01*
G75*
G02*
X62434800Y-56900000I0J250000D01*
G01*
G37*
G36*
G01*
X64259800Y-56900000D02*
X64259800Y-56000000D01*
G75*
G02*
X64509800Y-55750000I250000J0D01*
G01*
X65034800Y-55750000D01*
G75*
G02*
X65284800Y-56000000I0J-250000D01*
G01*
X65284800Y-56900000D01*
G75*
G02*
X65034800Y-57150000I-250000J0D01*
G01*
X64509800Y-57150000D01*
G75*
G02*
X64259800Y-56900000I0J250000D01*
G01*
G37*
G36*
G01*
X65990800Y-56900000D02*
X65990800Y-56000000D01*
G75*
G02*
X66240800Y-55750000I250000J0D01*
G01*
X66765800Y-55750000D01*
G75*
G02*
X67015800Y-56000000I0J-250000D01*
G01*
X67015800Y-56900000D01*
G75*
G02*
X66765800Y-57150000I-250000J0D01*
G01*
X66240800Y-57150000D01*
G75*
G02*
X65990800Y-56900000I0J250000D01*
G01*
G37*
G36*
G01*
X67815800Y-56900000D02*
X67815800Y-56000000D01*
G75*
G02*
X68065800Y-55750000I250000J0D01*
G01*
X68590800Y-55750000D01*
G75*
G02*
X68840800Y-56000000I0J-250000D01*
G01*
X68840800Y-56900000D01*
G75*
G02*
X68590800Y-57150000I-250000J0D01*
G01*
X68065800Y-57150000D01*
G75*
G02*
X67815800Y-56900000I0J250000D01*
G01*
G37*
G36*
G01*
X56464300Y-54893000D02*
X56464300Y-53943000D01*
G75*
G02*
X56714300Y-53693000I250000J0D01*
G01*
X57214300Y-53693000D01*
G75*
G02*
X57464300Y-53943000I0J-250000D01*
G01*
X57464300Y-54893000D01*
G75*
G02*
X57214300Y-55143000I-250000J0D01*
G01*
X56714300Y-55143000D01*
G75*
G02*
X56464300Y-54893000I0J250000D01*
G01*
G37*
G36*
G01*
X58364300Y-54893000D02*
X58364300Y-53943000D01*
G75*
G02*
X58614300Y-53693000I250000J0D01*
G01*
X59114300Y-53693000D01*
G75*
G02*
X59364300Y-53943000I0J-250000D01*
G01*
X59364300Y-54893000D01*
G75*
G02*
X59114300Y-55143000I-250000J0D01*
G01*
X58614300Y-55143000D01*
G75*
G02*
X58364300Y-54893000I0J250000D01*
G01*
G37*
G36*
G01*
X71371800Y-50550000D02*
X71371800Y-49650000D01*
G75*
G02*
X71621800Y-49400000I250000J0D01*
G01*
X72146800Y-49400000D01*
G75*
G02*
X72396800Y-49650000I0J-250000D01*
G01*
X72396800Y-50550000D01*
G75*
G02*
X72146800Y-50800000I-250000J0D01*
G01*
X71621800Y-50800000D01*
G75*
G02*
X71371800Y-50550000I0J250000D01*
G01*
G37*
G36*
G01*
X73196800Y-50550000D02*
X73196800Y-49650000D01*
G75*
G02*
X73446800Y-49400000I250000J0D01*
G01*
X73971800Y-49400000D01*
G75*
G02*
X74221800Y-49650000I0J-250000D01*
G01*
X74221800Y-50550000D01*
G75*
G02*
X73971800Y-50800000I-250000J0D01*
G01*
X73446800Y-50800000D01*
G75*
G02*
X73196800Y-50550000I0J250000D01*
G01*
G37*
G36*
G01*
X44449800Y-31821000D02*
X44449800Y-32721000D01*
G75*
G02*
X44199800Y-32971000I-250000J0D01*
G01*
X43674800Y-32971000D01*
G75*
G02*
X43424800Y-32721000I0J250000D01*
G01*
X43424800Y-31821000D01*
G75*
G02*
X43674800Y-31571000I250000J0D01*
G01*
X44199800Y-31571000D01*
G75*
G02*
X44449800Y-31821000I0J-250000D01*
G01*
G37*
G36*
G01*
X42624800Y-31821000D02*
X42624800Y-32721000D01*
G75*
G02*
X42374800Y-32971000I-250000J0D01*
G01*
X41849800Y-32971000D01*
G75*
G02*
X41599800Y-32721000I0J250000D01*
G01*
X41599800Y-31821000D01*
G75*
G02*
X41849800Y-31571000I250000J0D01*
G01*
X42374800Y-31571000D01*
G75*
G02*
X42624800Y-31821000I0J-250000D01*
G01*
G37*
G36*
G01*
X35003250Y-25483999D02*
X35598750Y-25483999D01*
G75*
G02*
X35698000Y-25583249I0J-99250D01*
G01*
X35698000Y-26798749D01*
G75*
G02*
X35598750Y-26897999I-99250J0D01*
G01*
X35003250Y-26897999D01*
G75*
G02*
X34904000Y-26798749I0J99250D01*
G01*
X34904000Y-25583249D01*
G75*
G02*
X35003250Y-25483999I99250J0D01*
G01*
G37*
G36*
G01*
X35953250Y-25483999D02*
X36548750Y-25483999D01*
G75*
G02*
X36648000Y-25583249I0J-99250D01*
G01*
X36648000Y-26798749D01*
G75*
G02*
X36548750Y-26897999I-99250J0D01*
G01*
X35953250Y-26897999D01*
G75*
G02*
X35854000Y-26798749I0J99250D01*
G01*
X35854000Y-25583249D01*
G75*
G02*
X35953250Y-25483999I99250J0D01*
G01*
G37*
G36*
G01*
X36903250Y-25483999D02*
X37498750Y-25483999D01*
G75*
G02*
X37598000Y-25583249I0J-99250D01*
G01*
X37598000Y-26798749D01*
G75*
G02*
X37498750Y-26897999I-99250J0D01*
G01*
X36903250Y-26897999D01*
G75*
G02*
X36804000Y-26798749I0J99250D01*
G01*
X36804000Y-25583249D01*
G75*
G02*
X36903250Y-25483999I99250J0D01*
G01*
G37*
G36*
G01*
X36903250Y-27993999D02*
X37498750Y-27993999D01*
G75*
G02*
X37598000Y-28093249I0J-99250D01*
G01*
X37598000Y-29308749D01*
G75*
G02*
X37498750Y-29407999I-99250J0D01*
G01*
X36903250Y-29407999D01*
G75*
G02*
X36804000Y-29308749I0J99250D01*
G01*
X36804000Y-28093249D01*
G75*
G02*
X36903250Y-27993999I99250J0D01*
G01*
G37*
G36*
G01*
X35953250Y-27993999D02*
X36548750Y-27993999D01*
G75*
G02*
X36648000Y-28093249I0J-99250D01*
G01*
X36648000Y-29308749D01*
G75*
G02*
X36548750Y-29407999I-99250J0D01*
G01*
X35953250Y-29407999D01*
G75*
G02*
X35854000Y-29308749I0J99250D01*
G01*
X35854000Y-28093249D01*
G75*
G02*
X35953250Y-27993999I99250J0D01*
G01*
G37*
G36*
G01*
X35003250Y-27993999D02*
X35598750Y-27993999D01*
G75*
G02*
X35698000Y-28093249I0J-99250D01*
G01*
X35698000Y-29308749D01*
G75*
G02*
X35598750Y-29407999I-99250J0D01*
G01*
X35003250Y-29407999D01*
G75*
G02*
X34904000Y-29308749I0J99250D01*
G01*
X34904000Y-28093249D01*
G75*
G02*
X35003250Y-27993999I99250J0D01*
G01*
G37*
G36*
X48214300Y-28649000D02*
G01*
X48714300Y-28649000D01*
X48714300Y-28653278D01*
X48779563Y-28653278D01*
X48905642Y-28687060D01*
X49018681Y-28752323D01*
X49110977Y-28844619D01*
X49176240Y-28957658D01*
X49210022Y-29083737D01*
X49210022Y-29149000D01*
X49214300Y-29149000D01*
X49214300Y-29649000D01*
X49210022Y-29649000D01*
X49210022Y-29714263D01*
X49176240Y-29840342D01*
X49110977Y-29953381D01*
X49018681Y-30045677D01*
X48905642Y-30110940D01*
X48779563Y-30144722D01*
X48714300Y-30144722D01*
X48714300Y-30149000D01*
X48214300Y-30149000D01*
X48214300Y-28649000D01*
G37*
G36*
X47414300Y-30144722D02*
G01*
X47349037Y-30144722D01*
X47222958Y-30110940D01*
X47109919Y-30045677D01*
X47017623Y-29953381D01*
X46952360Y-29840342D01*
X46918578Y-29714263D01*
X46918578Y-29649000D01*
X46914300Y-29649000D01*
X46914300Y-29149000D01*
X46918578Y-29149000D01*
X46918578Y-29083737D01*
X46952360Y-28957658D01*
X47017623Y-28844619D01*
X47109919Y-28752323D01*
X47222958Y-28687060D01*
X47349037Y-28653278D01*
X47414300Y-28653278D01*
X47414300Y-28649000D01*
X47914300Y-28649000D01*
X47914300Y-30149000D01*
X47414300Y-30149000D01*
X47414300Y-30144722D01*
G37*
D20*
X67972700Y-46645600D03*
X67972700Y-47280600D03*
X67972700Y-47915600D03*
X67972700Y-48550600D03*
X67972700Y-49185600D03*
X67972700Y-49820600D03*
X67972700Y-50455600D03*
X67972700Y-51090600D03*
X67972700Y-51725600D03*
X67972700Y-52360600D03*
X67972700Y-52995600D03*
X67972700Y-53630600D03*
X62772700Y-53630600D03*
X62772700Y-52995600D03*
X62772700Y-52360600D03*
X62772700Y-51725600D03*
X62772700Y-51090600D03*
X62772700Y-50455600D03*
X62772700Y-49820600D03*
X62772700Y-49185600D03*
X62772700Y-48550600D03*
X62772700Y-47915600D03*
X62772700Y-47280600D03*
X62772700Y-46645600D03*
G36*
G01*
X62197100Y-42676000D02*
X62197100Y-41776000D01*
G75*
G02*
X62447100Y-41526000I250000J0D01*
G01*
X62972100Y-41526000D01*
G75*
G02*
X63222100Y-41776000I0J-250000D01*
G01*
X63222100Y-42676000D01*
G75*
G02*
X62972100Y-42926000I-250000J0D01*
G01*
X62447100Y-42926000D01*
G75*
G02*
X62197100Y-42676000I0J250000D01*
G01*
G37*
G36*
G01*
X64022100Y-42676000D02*
X64022100Y-41776000D01*
G75*
G02*
X64272100Y-41526000I250000J0D01*
G01*
X64797100Y-41526000D01*
G75*
G02*
X65047100Y-41776000I0J-250000D01*
G01*
X65047100Y-42676000D01*
G75*
G02*
X64797100Y-42926000I-250000J0D01*
G01*
X64272100Y-42926000D01*
G75*
G02*
X64022100Y-42676000I0J250000D01*
G01*
G37*
G36*
G01*
X43457300Y-26686000D02*
X43457300Y-27286000D01*
G75*
G02*
X43355300Y-27388000I-102000J0D01*
G01*
X42755300Y-27388000D01*
G75*
G02*
X42653300Y-27286000I0J102000D01*
G01*
X42653300Y-26686000D01*
G75*
G02*
X42755300Y-26584000I102000J0D01*
G01*
X43355300Y-26584000D01*
G75*
G02*
X43457300Y-26686000I0J-102000D01*
G01*
G37*
G36*
G01*
X45657300Y-26686000D02*
X45657300Y-27286000D01*
G75*
G02*
X45555300Y-27388000I-102000J0D01*
G01*
X44955300Y-27388000D01*
G75*
G02*
X44853300Y-27286000I0J102000D01*
G01*
X44853300Y-26686000D01*
G75*
G02*
X44955300Y-26584000I102000J0D01*
G01*
X45555300Y-26584000D01*
G75*
G02*
X45657300Y-26686000I0J-102000D01*
G01*
G37*
G36*
G01*
X55632800Y-53968000D02*
X55632800Y-54868000D01*
G75*
G02*
X55382800Y-55118000I-250000J0D01*
G01*
X54857800Y-55118000D01*
G75*
G02*
X54607800Y-54868000I0J250000D01*
G01*
X54607800Y-53968000D01*
G75*
G02*
X54857800Y-53718000I250000J0D01*
G01*
X55382800Y-53718000D01*
G75*
G02*
X55632800Y-53968000I0J-250000D01*
G01*
G37*
G36*
G01*
X53807800Y-53968000D02*
X53807800Y-54868000D01*
G75*
G02*
X53557800Y-55118000I-250000J0D01*
G01*
X53032800Y-55118000D01*
G75*
G02*
X52782800Y-54868000I0J250000D01*
G01*
X52782800Y-53968000D01*
G75*
G02*
X53032800Y-53718000I250000J0D01*
G01*
X53557800Y-53718000D01*
G75*
G02*
X53807800Y-53968000I0J-250000D01*
G01*
G37*
G36*
G01*
X26959500Y-36159100D02*
X27259500Y-36159100D01*
G75*
G02*
X27409500Y-36309100I0J-150000D01*
G01*
X27409500Y-37484100D01*
G75*
G02*
X27259500Y-37634100I-150000J0D01*
G01*
X26959500Y-37634100D01*
G75*
G02*
X26809500Y-37484100I0J150000D01*
G01*
X26809500Y-36309100D01*
G75*
G02*
X26959500Y-36159100I150000J0D01*
G01*
G37*
G36*
G01*
X28859500Y-36159100D02*
X29159500Y-36159100D01*
G75*
G02*
X29309500Y-36309100I0J-150000D01*
G01*
X29309500Y-37484100D01*
G75*
G02*
X29159500Y-37634100I-150000J0D01*
G01*
X28859500Y-37634100D01*
G75*
G02*
X28709500Y-37484100I0J150000D01*
G01*
X28709500Y-36309100D01*
G75*
G02*
X28859500Y-36159100I150000J0D01*
G01*
G37*
G36*
G01*
X27909500Y-38034100D02*
X28209500Y-38034100D01*
G75*
G02*
X28359500Y-38184100I0J-150000D01*
G01*
X28359500Y-39359100D01*
G75*
G02*
X28209500Y-39509100I-150000J0D01*
G01*
X27909500Y-39509100D01*
G75*
G02*
X27759500Y-39359100I0J150000D01*
G01*
X27759500Y-38184100D01*
G75*
G02*
X27909500Y-38034100I150000J0D01*
G01*
G37*
D19*
X58028600Y-48576000D03*
X58028600Y-49846000D03*
X58028600Y-51116000D03*
X58028600Y-52386000D03*
X52580300Y-52386000D03*
X52580300Y-51116000D03*
X52580300Y-49846000D03*
X52580300Y-48576000D03*
G36*
G01*
X30817900Y-42611800D02*
X30817900Y-43211800D01*
G75*
G02*
X30715900Y-43313800I-102000J0D01*
G01*
X30115900Y-43313800D01*
G75*
G02*
X30013900Y-43211800I0J102000D01*
G01*
X30013900Y-42611800D01*
G75*
G02*
X30115900Y-42509800I102000J0D01*
G01*
X30715900Y-42509800D01*
G75*
G02*
X30817900Y-42611800I0J-102000D01*
G01*
G37*
G36*
G01*
X33017900Y-42611800D02*
X33017900Y-43211800D01*
G75*
G02*
X32915900Y-43313800I-102000J0D01*
G01*
X32315900Y-43313800D01*
G75*
G02*
X32213900Y-43211800I0J102000D01*
G01*
X32213900Y-42611800D01*
G75*
G02*
X32315900Y-42509800I102000J0D01*
G01*
X32915900Y-42509800D01*
G75*
G02*
X33017900Y-42611800I0J-102000D01*
G01*
G37*
G36*
G01*
X74927800Y-52582000D02*
X74927800Y-51682000D01*
G75*
G02*
X75177800Y-51432000I250000J0D01*
G01*
X75702800Y-51432000D01*
G75*
G02*
X75952800Y-51682000I0J-250000D01*
G01*
X75952800Y-52582000D01*
G75*
G02*
X75702800Y-52832000I-250000J0D01*
G01*
X75177800Y-52832000D01*
G75*
G02*
X74927800Y-52582000I0J250000D01*
G01*
G37*
G36*
G01*
X76752800Y-52582000D02*
X76752800Y-51682000D01*
G75*
G02*
X77002800Y-51432000I250000J0D01*
G01*
X77527800Y-51432000D01*
G75*
G02*
X77777800Y-51682000I0J-250000D01*
G01*
X77777800Y-52582000D01*
G75*
G02*
X77527800Y-52832000I-250000J0D01*
G01*
X77002800Y-52832000D01*
G75*
G02*
X76752800Y-52582000I0J250000D01*
G01*
G37*
D21*
X57473300Y-33844000D03*
X57473300Y-32574000D03*
X57473300Y-31304000D03*
D22*
X66623300Y-30034000D03*
D21*
X57473300Y-28764000D03*
X57473300Y-27494000D03*
X57473300Y-26224000D03*
G36*
G01*
X61183300Y-43610000D02*
X60233300Y-43610000D01*
G75*
G02*
X59983300Y-43360000I0J250000D01*
G01*
X59983300Y-42860000D01*
G75*
G02*
X60233300Y-42610000I250000J0D01*
G01*
X61183300Y-42610000D01*
G75*
G02*
X61433300Y-42860000I0J-250000D01*
G01*
X61433300Y-43360000D01*
G75*
G02*
X61183300Y-43610000I-250000J0D01*
G01*
G37*
G36*
G01*
X61183300Y-41710000D02*
X60233300Y-41710000D01*
G75*
G02*
X59983300Y-41460000I0J250000D01*
G01*
X59983300Y-40960000D01*
G75*
G02*
X60233300Y-40710000I250000J0D01*
G01*
X61183300Y-40710000D01*
G75*
G02*
X61433300Y-40960000I0J-250000D01*
G01*
X61433300Y-41460000D01*
G75*
G02*
X61183300Y-41710000I-250000J0D01*
G01*
G37*
G36*
G01*
X65099400Y-43783000D02*
X65099400Y-44733000D01*
G75*
G02*
X64849400Y-44983000I-250000J0D01*
G01*
X64349400Y-44983000D01*
G75*
G02*
X64099400Y-44733000I0J250000D01*
G01*
X64099400Y-43783000D01*
G75*
G02*
X64349400Y-43533000I250000J0D01*
G01*
X64849400Y-43533000D01*
G75*
G02*
X65099400Y-43783000I0J-250000D01*
G01*
G37*
G36*
G01*
X63199400Y-43783000D02*
X63199400Y-44733000D01*
G75*
G02*
X62949400Y-44983000I-250000J0D01*
G01*
X62449400Y-44983000D01*
G75*
G02*
X62199400Y-44733000I0J250000D01*
G01*
X62199400Y-43783000D01*
G75*
G02*
X62449400Y-43533000I250000J0D01*
G01*
X62949400Y-43533000D01*
G75*
G02*
X63199400Y-43783000I0J-250000D01*
G01*
G37*
G36*
G01*
X65225300Y-58159400D02*
X65225300Y-59109400D01*
G75*
G02*
X64975300Y-59359400I-250000J0D01*
G01*
X64475300Y-59359400D01*
G75*
G02*
X64225300Y-59109400I0J250000D01*
G01*
X64225300Y-58159400D01*
G75*
G02*
X64475300Y-57909400I250000J0D01*
G01*
X64975300Y-57909400D01*
G75*
G02*
X65225300Y-58159400I0J-250000D01*
G01*
G37*
G36*
G01*
X63325300Y-58159400D02*
X63325300Y-59109400D01*
G75*
G02*
X63075300Y-59359400I-250000J0D01*
G01*
X62575300Y-59359400D01*
G75*
G02*
X62325300Y-59109400I0J250000D01*
G01*
X62325300Y-58159400D01*
G75*
G02*
X62575300Y-57909400I250000J0D01*
G01*
X63075300Y-57909400D01*
G75*
G02*
X63325300Y-58159400I0J-250000D01*
G01*
G37*
D23*
X32029350Y-36193500D03*
D24*
X32031700Y-34936200D03*
D25*
X32031700Y-32916900D03*
G36*
G01*
X46517300Y-48838000D02*
X47467300Y-48838000D01*
G75*
G02*
X47717300Y-49088000I0J-250000D01*
G01*
X47717300Y-49588000D01*
G75*
G02*
X47467300Y-49838000I-250000J0D01*
G01*
X46517300Y-49838000D01*
G75*
G02*
X46267300Y-49588000I0J250000D01*
G01*
X46267300Y-49088000D01*
G75*
G02*
X46517300Y-48838000I250000J0D01*
G01*
G37*
G36*
G01*
X46517300Y-50738000D02*
X47467300Y-50738000D01*
G75*
G02*
X47717300Y-50988000I0J-250000D01*
G01*
X47717300Y-51488000D01*
G75*
G02*
X47467300Y-51738000I-250000J0D01*
G01*
X46517300Y-51738000D01*
G75*
G02*
X46267300Y-51488000I0J250000D01*
G01*
X46267300Y-50988000D01*
G75*
G02*
X46517300Y-50738000I250000J0D01*
G01*
G37*
D19*
X58028600Y-40956000D03*
X58028600Y-42226000D03*
X58028600Y-43496000D03*
X58028600Y-44766000D03*
X52580300Y-44766000D03*
X52580300Y-43496000D03*
X52580300Y-42226000D03*
X52580300Y-40956000D03*
G36*
G01*
X60340300Y-61751000D02*
X60340300Y-60801000D01*
G75*
G02*
X60590300Y-60551000I250000J0D01*
G01*
X61090300Y-60551000D01*
G75*
G02*
X61340300Y-60801000I0J-250000D01*
G01*
X61340300Y-61751000D01*
G75*
G02*
X61090300Y-62001000I-250000J0D01*
G01*
X60590300Y-62001000D01*
G75*
G02*
X60340300Y-61751000I0J250000D01*
G01*
G37*
G36*
G01*
X62240300Y-61751000D02*
X62240300Y-60801000D01*
G75*
G02*
X62490300Y-60551000I250000J0D01*
G01*
X62990300Y-60551000D01*
G75*
G02*
X63240300Y-60801000I0J-250000D01*
G01*
X63240300Y-61751000D01*
G75*
G02*
X62990300Y-62001000I-250000J0D01*
G01*
X62490300Y-62001000D01*
G75*
G02*
X62240300Y-61751000I0J250000D01*
G01*
G37*
G36*
G01*
X36242800Y-38855000D02*
X36242800Y-39755000D01*
G75*
G02*
X35992800Y-40005000I-250000J0D01*
G01*
X35467800Y-40005000D01*
G75*
G02*
X35217800Y-39755000I0J250000D01*
G01*
X35217800Y-38855000D01*
G75*
G02*
X35467800Y-38605000I250000J0D01*
G01*
X35992800Y-38605000D01*
G75*
G02*
X36242800Y-38855000I0J-250000D01*
G01*
G37*
G36*
G01*
X34417800Y-38855000D02*
X34417800Y-39755000D01*
G75*
G02*
X34167800Y-40005000I-250000J0D01*
G01*
X33642800Y-40005000D01*
G75*
G02*
X33392800Y-39755000I0J250000D01*
G01*
X33392800Y-38855000D01*
G75*
G02*
X33642800Y-38605000I250000J0D01*
G01*
X34167800Y-38605000D01*
G75*
G02*
X34417800Y-38855000I0J-250000D01*
G01*
G37*
%LPD*%
M02*
