G04 #@! TF.GenerationSoftware,KiCad,Pcbnew,9.0.1+1*
G04 #@! TF.CreationDate,2025-11-12T15:34:47+00:00*
G04 #@! TF.ProjectId,input-power-selector,696e7075-742d-4706-9f77-65722d73656c,rev?*
G04 #@! TF.SameCoordinates,Original*
G04 #@! TF.FileFunction,Soldermask,Bot*
G04 #@! TF.FilePolarity,Negative*
%FSLAX46Y46*%
G04 Gerber Fmt 4.6, Leading zero omitted, Abs format (unit mm)*
G04 Created by KiCad (PCBNEW 9.0.1+1) date 2025-11-12 15:34:47*
%MOMM*%
%LPD*%
G01*
G04 APERTURE LIST*
%ADD10C,0.000000*%
%ADD11R,2.000000X2.540000*%
%ADD12R,1.460500X0.558800*%
%ADD13R,1.200000X0.400000*%
%ADD14R,4.600000X0.800000*%
%ADD15R,9.400000X10.800000*%
%ADD16R,0.842900X0.736600*%
%ADD17R,2.032000X1.778000*%
%ADD18R,0.533400X0.685800*%
G04 APERTURE END LIST*
D10*
G36*
X33047700Y-35825200D02*
G01*
X32450800Y-35825200D01*
X32450800Y-36561800D01*
X31612600Y-36561800D01*
X31612600Y-35825200D01*
X31015700Y-35825200D01*
X31015700Y-34047200D01*
X33047700Y-34047200D01*
X33047700Y-35825200D01*
G37*
D11*
X23006300Y-65617000D03*
G36*
G01*
X22631300Y-63292000D02*
X23381300Y-63292000D01*
G75*
G02*
X23631300Y-63542000I0J-250000D01*
G01*
X23631300Y-64292000D01*
G75*
G02*
X23381300Y-64542000I-250000J0D01*
G01*
X22631300Y-64542000D01*
G75*
G02*
X22381300Y-64292000I0J250000D01*
G01*
X22381300Y-63542000D01*
G75*
G02*
X22631300Y-63292000I250000J0D01*
G01*
G37*
X33166300Y-65617000D03*
G36*
G01*
X32791300Y-63292000D02*
X33541300Y-63292000D01*
G75*
G02*
X33791300Y-63542000I0J-250000D01*
G01*
X33791300Y-64292000D01*
G75*
G02*
X33541300Y-64542000I-250000J0D01*
G01*
X32791300Y-64542000D01*
G75*
G02*
X32541300Y-64292000I0J250000D01*
G01*
X32541300Y-63542000D01*
G75*
G02*
X32791300Y-63292000I250000J0D01*
G01*
G37*
X43326300Y-65617000D03*
G36*
G01*
X42951300Y-63292000D02*
X43701300Y-63292000D01*
G75*
G02*
X43951300Y-63542000I0J-250000D01*
G01*
X43951300Y-64292000D01*
G75*
G02*
X43701300Y-64542000I-250000J0D01*
G01*
X42951300Y-64542000D01*
G75*
G02*
X42701300Y-64292000I0J250000D01*
G01*
X42701300Y-63542000D01*
G75*
G02*
X42951300Y-63292000I250000J0D01*
G01*
G37*
X53486300Y-65617000D03*
G36*
G01*
X53111300Y-63292000D02*
X53861300Y-63292000D01*
G75*
G02*
X54111300Y-63542000I0J-250000D01*
G01*
X54111300Y-64292000D01*
G75*
G02*
X53861300Y-64542000I-250000J0D01*
G01*
X53111300Y-64542000D01*
G75*
G02*
X52861300Y-64292000I0J250000D01*
G01*
X52861300Y-63542000D01*
G75*
G02*
X53111300Y-63292000I250000J0D01*
G01*
G37*
X66186300Y-65617000D03*
G36*
G01*
X65811300Y-63292000D02*
X66561300Y-63292000D01*
G75*
G02*
X66811300Y-63542000I0J-250000D01*
G01*
X66811300Y-64292000D01*
G75*
G02*
X66561300Y-64542000I-250000J0D01*
G01*
X65811300Y-64542000D01*
G75*
G02*
X65561300Y-64292000I0J250000D01*
G01*
X65561300Y-63542000D01*
G75*
G02*
X65811300Y-63292000I250000J0D01*
G01*
G37*
X68726300Y-65617000D03*
G36*
G01*
X68351300Y-63292000D02*
X69101300Y-63292000D01*
G75*
G02*
X69351300Y-63542000I0J-250000D01*
G01*
X69351300Y-64292000D01*
G75*
G02*
X69101300Y-64542000I-250000J0D01*
G01*
X68351300Y-64542000D01*
G75*
G02*
X68101300Y-64292000I0J250000D01*
G01*
X68101300Y-63542000D01*
G75*
G02*
X68351300Y-63292000I250000J0D01*
G01*
G37*
X71266300Y-65617000D03*
G36*
G01*
X70891300Y-63292000D02*
X71641300Y-63292000D01*
G75*
G02*
X71891300Y-63542000I0J-250000D01*
G01*
X71891300Y-64292000D01*
G75*
G02*
X71641300Y-64542000I-250000J0D01*
G01*
X70891300Y-64542000D01*
G75*
G02*
X70641300Y-64292000I0J250000D01*
G01*
X70641300Y-63542000D01*
G75*
G02*
X70891300Y-63292000I250000J0D01*
G01*
G37*
X73806300Y-65617000D03*
G36*
G01*
X73431300Y-63292000D02*
X74181300Y-63292000D01*
G75*
G02*
X74431300Y-63542000I0J-250000D01*
G01*
X74431300Y-64292000D01*
G75*
G02*
X74181300Y-64542000I-250000J0D01*
G01*
X73431300Y-64542000D01*
G75*
G02*
X73181300Y-64292000I0J250000D01*
G01*
X73181300Y-63542000D01*
G75*
G02*
X73431300Y-63292000I250000J0D01*
G01*
G37*
X76346300Y-65617000D03*
G36*
G01*
X75971300Y-63292000D02*
X76721300Y-63292000D01*
G75*
G02*
X76971300Y-63542000I0J-250000D01*
G01*
X76971300Y-64292000D01*
G75*
G02*
X76721300Y-64542000I-250000J0D01*
G01*
X75971300Y-64542000D01*
G75*
G02*
X75721300Y-64292000I0J250000D01*
G01*
X75721300Y-63542000D01*
G75*
G02*
X75971300Y-63292000I250000J0D01*
G01*
G37*
X81426300Y-65617000D03*
G36*
G01*
X81051300Y-63292000D02*
X81801300Y-63292000D01*
G75*
G02*
X82051300Y-63542000I0J-250000D01*
G01*
X82051300Y-64292000D01*
G75*
G02*
X81801300Y-64542000I-250000J0D01*
G01*
X81051300Y-64542000D01*
G75*
G02*
X80801300Y-64292000I0J250000D01*
G01*
X80801300Y-63542000D01*
G75*
G02*
X81051300Y-63292000I250000J0D01*
G01*
G37*
G36*
G01*
X22631300Y-19692000D02*
X23381300Y-19692000D01*
G75*
G02*
X23631300Y-19942000I0J-250000D01*
G01*
X23631300Y-20692000D01*
G75*
G02*
X23381300Y-20942000I-250000J0D01*
G01*
X22631300Y-20942000D01*
G75*
G02*
X22381300Y-20692000I0J250000D01*
G01*
X22381300Y-19942000D01*
G75*
G02*
X22631300Y-19692000I250000J0D01*
G01*
G37*
X23006300Y-18617000D03*
G36*
G01*
X32791300Y-19692000D02*
X33541300Y-19692000D01*
G75*
G02*
X33791300Y-19942000I0J-250000D01*
G01*
X33791300Y-20692000D01*
G75*
G02*
X33541300Y-20942000I-250000J0D01*
G01*
X32791300Y-20942000D01*
G75*
G02*
X32541300Y-20692000I0J250000D01*
G01*
X32541300Y-19942000D01*
G75*
G02*
X32791300Y-19692000I250000J0D01*
G01*
G37*
X33166300Y-18617000D03*
G36*
G01*
X35331300Y-19692000D02*
X36081300Y-19692000D01*
G75*
G02*
X36331300Y-19942000I0J-250000D01*
G01*
X36331300Y-20692000D01*
G75*
G02*
X36081300Y-20942000I-250000J0D01*
G01*
X35331300Y-20942000D01*
G75*
G02*
X35081300Y-20692000I0J250000D01*
G01*
X35081300Y-19942000D01*
G75*
G02*
X35331300Y-19692000I250000J0D01*
G01*
G37*
X35706300Y-18617000D03*
G36*
G01*
X81051300Y-19692000D02*
X81801300Y-19692000D01*
G75*
G02*
X82051300Y-19942000I0J-250000D01*
G01*
X82051300Y-20692000D01*
G75*
G02*
X81801300Y-20942000I-250000J0D01*
G01*
X81051300Y-20942000D01*
G75*
G02*
X80801300Y-20692000I0J250000D01*
G01*
X80801300Y-19942000D01*
G75*
G02*
X81051300Y-19692000I250000J0D01*
G01*
G37*
X81426300Y-18617000D03*
G36*
X39665100Y-42985600D02*
G01*
X39665100Y-43485600D01*
X39660822Y-43485600D01*
X39660822Y-43550863D01*
X39627040Y-43676942D01*
X39561777Y-43789981D01*
X39469481Y-43882277D01*
X39356442Y-43947540D01*
X39230363Y-43981322D01*
X39165100Y-43981322D01*
X39165100Y-43985600D01*
X38665100Y-43985600D01*
X38665100Y-43981322D01*
X38599837Y-43981322D01*
X38473758Y-43947540D01*
X38360719Y-43882277D01*
X38268423Y-43789981D01*
X38203160Y-43676942D01*
X38169378Y-43550863D01*
X38169378Y-43485600D01*
X38165100Y-43485600D01*
X38165100Y-42985600D01*
X39665100Y-42985600D01*
G37*
G36*
X38169378Y-42185600D02*
G01*
X38169378Y-42120337D01*
X38203160Y-41994258D01*
X38268423Y-41881219D01*
X38360719Y-41788923D01*
X38473758Y-41723660D01*
X38599837Y-41689878D01*
X38665100Y-41689878D01*
X38665100Y-41685600D01*
X39165100Y-41685600D01*
X39165100Y-41689878D01*
X39230363Y-41689878D01*
X39356442Y-41723660D01*
X39469481Y-41788923D01*
X39561777Y-41881219D01*
X39627040Y-41994258D01*
X39660822Y-42120337D01*
X39660822Y-42185600D01*
X39665100Y-42185600D01*
X39665100Y-42685600D01*
X38165100Y-42685600D01*
X38165100Y-42185600D01*
X38169378Y-42185600D01*
G37*
G36*
G01*
X65990800Y-59186000D02*
X65990800Y-58286000D01*
G75*
G02*
X66240800Y-58036000I250000J0D01*
G01*
X66765800Y-58036000D01*
G75*
G02*
X67015800Y-58286000I0J-250000D01*
G01*
X67015800Y-59186000D01*
G75*
G02*
X66765800Y-59436000I-250000J0D01*
G01*
X66240800Y-59436000D01*
G75*
G02*
X65990800Y-59186000I0J250000D01*
G01*
G37*
G36*
G01*
X67815800Y-59186000D02*
X67815800Y-58286000D01*
G75*
G02*
X68065800Y-58036000I250000J0D01*
G01*
X68590800Y-58036000D01*
G75*
G02*
X68840800Y-58286000I0J-250000D01*
G01*
X68840800Y-59186000D01*
G75*
G02*
X68590800Y-59436000I-250000J0D01*
G01*
X68065800Y-59436000D01*
G75*
G02*
X67815800Y-59186000I0J250000D01*
G01*
G37*
G36*
G01*
X28158500Y-30585600D02*
X28158500Y-29685600D01*
G75*
G02*
X28408500Y-29435600I250000J0D01*
G01*
X28933500Y-29435600D01*
G75*
G02*
X29183500Y-29685600I0J-250000D01*
G01*
X29183500Y-30585600D01*
G75*
G02*
X28933500Y-30835600I-250000J0D01*
G01*
X28408500Y-30835600D01*
G75*
G02*
X28158500Y-30585600I0J250000D01*
G01*
G37*
G36*
G01*
X29983500Y-30585600D02*
X29983500Y-29685600D01*
G75*
G02*
X30233500Y-29435600I250000J0D01*
G01*
X30758500Y-29435600D01*
G75*
G02*
X31008500Y-29685600I0J-250000D01*
G01*
X31008500Y-30585600D01*
G75*
G02*
X30758500Y-30835600I-250000J0D01*
G01*
X30233500Y-30835600D01*
G75*
G02*
X29983500Y-30585600I0J250000D01*
G01*
G37*
G36*
G01*
X45385300Y-46891000D02*
X42585300Y-46891000D01*
G75*
G02*
X42335300Y-46641000I0J250000D01*
G01*
X42335300Y-42641000D01*
G75*
G02*
X42585300Y-42391000I250000J0D01*
G01*
X45385300Y-42391000D01*
G75*
G02*
X45635300Y-42641000I0J-250000D01*
G01*
X45635300Y-46641000D01*
G75*
G02*
X45385300Y-46891000I-250000J0D01*
G01*
G37*
G36*
G01*
X42585300Y-33591000D02*
X45385300Y-33591000D01*
G75*
G02*
X45635300Y-33841000I0J-250000D01*
G01*
X45635300Y-37841000D01*
G75*
G02*
X45385300Y-38091000I-250000J0D01*
G01*
X42585300Y-38091000D01*
G75*
G02*
X42335300Y-37841000I0J250000D01*
G01*
X42335300Y-33841000D01*
G75*
G02*
X42585300Y-33591000I250000J0D01*
G01*
G37*
G36*
G01*
X65780400Y-42676000D02*
X65780400Y-41776000D01*
G75*
G02*
X66030400Y-41526000I250000J0D01*
G01*
X66555400Y-41526000D01*
G75*
G02*
X66805400Y-41776000I0J-250000D01*
G01*
X66805400Y-42676000D01*
G75*
G02*
X66555400Y-42926000I-250000J0D01*
G01*
X66030400Y-42926000D01*
G75*
G02*
X65780400Y-42676000I0J250000D01*
G01*
G37*
G36*
G01*
X67605400Y-42676000D02*
X67605400Y-41776000D01*
G75*
G02*
X67855400Y-41526000I250000J0D01*
G01*
X68380400Y-41526000D01*
G75*
G02*
X68630400Y-41776000I0J-250000D01*
G01*
X68630400Y-42676000D01*
G75*
G02*
X68380400Y-42926000I-250000J0D01*
G01*
X67855400Y-42926000D01*
G75*
G02*
X67605400Y-42676000I0J250000D01*
G01*
G37*
D12*
X58168300Y-56450000D03*
X58168300Y-57720000D03*
X58168300Y-58990000D03*
X58168300Y-60260000D03*
X52720000Y-60260000D03*
X52720000Y-58990000D03*
X52720000Y-57720000D03*
X52720000Y-56450000D03*
G36*
G01*
X60675300Y-49330000D02*
X59725300Y-49330000D01*
G75*
G02*
X59475300Y-49080000I0J250000D01*
G01*
X59475300Y-48580000D01*
G75*
G02*
X59725300Y-48330000I250000J0D01*
G01*
X60675300Y-48330000D01*
G75*
G02*
X60925300Y-48580000I0J-250000D01*
G01*
X60925300Y-49080000D01*
G75*
G02*
X60675300Y-49330000I-250000J0D01*
G01*
G37*
G36*
G01*
X60675300Y-47430000D02*
X59725300Y-47430000D01*
G75*
G02*
X59475300Y-47180000I0J250000D01*
G01*
X59475300Y-46680000D01*
G75*
G02*
X59725300Y-46430000I250000J0D01*
G01*
X60675300Y-46430000D01*
G75*
G02*
X60925300Y-46680000I0J-250000D01*
G01*
X60925300Y-47180000D01*
G75*
G02*
X60675300Y-47430000I-250000J0D01*
G01*
G37*
G36*
G01*
X27150500Y-41265600D02*
X27150500Y-41865600D01*
G75*
G02*
X27048500Y-41967600I-102000J0D01*
G01*
X26448500Y-41967600D01*
G75*
G02*
X26346500Y-41865600I0J102000D01*
G01*
X26346500Y-41265600D01*
G75*
G02*
X26448500Y-41163600I102000J0D01*
G01*
X27048500Y-41163600D01*
G75*
G02*
X27150500Y-41265600I0J-102000D01*
G01*
G37*
G36*
G01*
X29350500Y-41265600D02*
X29350500Y-41865600D01*
G75*
G02*
X29248500Y-41967600I-102000J0D01*
G01*
X28648500Y-41967600D01*
G75*
G02*
X28546500Y-41865600I0J102000D01*
G01*
X28546500Y-41265600D01*
G75*
G02*
X28648500Y-41163600I102000J0D01*
G01*
X29248500Y-41163600D01*
G75*
G02*
X29350500Y-41265600I0J-102000D01*
G01*
G37*
G36*
G01*
X74880800Y-50550000D02*
X74880800Y-49650000D01*
G75*
G02*
X75130800Y-49400000I250000J0D01*
G01*
X75655800Y-49400000D01*
G75*
G02*
X75905800Y-49650000I0J-250000D01*
G01*
X75905800Y-50550000D01*
G75*
G02*
X75655800Y-50800000I-250000J0D01*
G01*
X75130800Y-50800000D01*
G75*
G02*
X74880800Y-50550000I0J250000D01*
G01*
G37*
G36*
G01*
X76705800Y-50550000D02*
X76705800Y-49650000D01*
G75*
G02*
X76955800Y-49400000I250000J0D01*
G01*
X77480800Y-49400000D01*
G75*
G02*
X77730800Y-49650000I0J-250000D01*
G01*
X77730800Y-50550000D01*
G75*
G02*
X77480800Y-50800000I-250000J0D01*
G01*
X76955800Y-50800000D01*
G75*
G02*
X76705800Y-50550000I0J250000D01*
G01*
G37*
G36*
G01*
X65780400Y-44708000D02*
X65780400Y-43808000D01*
G75*
G02*
X66030400Y-43558000I250000J0D01*
G01*
X66555400Y-43558000D01*
G75*
G02*
X66805400Y-43808000I0J-250000D01*
G01*
X66805400Y-44708000D01*
G75*
G02*
X66555400Y-44958000I-250000J0D01*
G01*
X66030400Y-44958000D01*
G75*
G02*
X65780400Y-44708000I0J250000D01*
G01*
G37*
G36*
G01*
X67605400Y-44708000D02*
X67605400Y-43808000D01*
G75*
G02*
X67855400Y-43558000I250000J0D01*
G01*
X68380400Y-43558000D01*
G75*
G02*
X68630400Y-43808000I0J-250000D01*
G01*
X68630400Y-44708000D01*
G75*
G02*
X68380400Y-44958000I-250000J0D01*
G01*
X67855400Y-44958000D01*
G75*
G02*
X67605400Y-44708000I0J250000D01*
G01*
G37*
G36*
G01*
X74284300Y-51657000D02*
X74284300Y-52607000D01*
G75*
G02*
X74034300Y-52857000I-250000J0D01*
G01*
X73534300Y-52857000D01*
G75*
G02*
X73284300Y-52607000I0J250000D01*
G01*
X73284300Y-51657000D01*
G75*
G02*
X73534300Y-51407000I250000J0D01*
G01*
X74034300Y-51407000D01*
G75*
G02*
X74284300Y-51657000I0J-250000D01*
G01*
G37*
G36*
G01*
X72384300Y-51657000D02*
X72384300Y-52607000D01*
G75*
G02*
X72134300Y-52857000I-250000J0D01*
G01*
X71634300Y-52857000D01*
G75*
G02*
X71384300Y-52607000I0J250000D01*
G01*
X71384300Y-51657000D01*
G75*
G02*
X71634300Y-51407000I250000J0D01*
G01*
X72134300Y-51407000D01*
G75*
G02*
X72384300Y-51657000I0J-250000D01*
G01*
G37*
G36*
G01*
X27039000Y-33379600D02*
X27039000Y-32479600D01*
G75*
G02*
X27289000Y-32229600I250000J0D01*
G01*
X27814000Y-32229600D01*
G75*
G02*
X28064000Y-32479600I0J-250000D01*
G01*
X28064000Y-33379600D01*
G75*
G02*
X27814000Y-33629600I-250000J0D01*
G01*
X27289000Y-33629600D01*
G75*
G02*
X27039000Y-33379600I0J250000D01*
G01*
G37*
G36*
G01*
X28864000Y-33379600D02*
X28864000Y-32479600D01*
G75*
G02*
X29114000Y-32229600I250000J0D01*
G01*
X29639000Y-32229600D01*
G75*
G02*
X29889000Y-32479600I0J-250000D01*
G01*
X29889000Y-33379600D01*
G75*
G02*
X29639000Y-33629600I-250000J0D01*
G01*
X29114000Y-33629600D01*
G75*
G02*
X28864000Y-33379600I0J250000D01*
G01*
G37*
G36*
G01*
X62434800Y-56900000D02*
X62434800Y-56000000D01*
G75*
G02*
X62684800Y-55750000I250000J0D01*
G01*
X63209800Y-55750000D01*
G75*
G02*
X63459800Y-56000000I0J-250000D01*
G01*
X63459800Y-56900000D01*
G75*
G02*
X63209800Y-57150000I-250000J0D01*
G01*
X62684800Y-57150000D01*
G75*
G02*
X62434800Y-56900000I0J250000D01*
G01*
G37*
G36*
G01*
X64259800Y-56900000D02*
X64259800Y-56000000D01*
G75*
G02*
X64509800Y-55750000I250000J0D01*
G01*
X65034800Y-55750000D01*
G75*
G02*
X65284800Y-56000000I0J-250000D01*
G01*
X65284800Y-56900000D01*
G75*
G02*
X65034800Y-57150000I-250000J0D01*
G01*
X64509800Y-57150000D01*
G75*
G02*
X64259800Y-56900000I0J250000D01*
G01*
G37*
G36*
G01*
X65990800Y-56900000D02*
X65990800Y-56000000D01*
G75*
G02*
X66240800Y-55750000I250000J0D01*
G01*
X66765800Y-55750000D01*
G75*
G02*
X67015800Y-56000000I0J-250000D01*
G01*
X67015800Y-56900000D01*
G75*
G02*
X66765800Y-57150000I-250000J0D01*
G01*
X66240800Y-57150000D01*
G75*
G02*
X65990800Y-56900000I0J250000D01*
G01*
G37*
G36*
G01*
X67815800Y-56900000D02*
X67815800Y-56000000D01*
G75*
G02*
X68065800Y-55750000I250000J0D01*
G01*
X68590800Y-55750000D01*
G75*
G02*
X68840800Y-56000000I0J-250000D01*
G01*
X68840800Y-56900000D01*
G75*
G02*
X68590800Y-57150000I-250000J0D01*
G01*
X68065800Y-57150000D01*
G75*
G02*
X67815800Y-56900000I0J250000D01*
G01*
G37*
G36*
G01*
X56464300Y-54893000D02*
X56464300Y-53943000D01*
G75*
G02*
X56714300Y-53693000I250000J0D01*
G01*
X57214300Y-53693000D01*
G75*
G02*
X57464300Y-53943000I0J-250000D01*
G01*
X57464300Y-54893000D01*
G75*
G02*
X57214300Y-55143000I-250000J0D01*
G01*
X56714300Y-55143000D01*
G75*
G02*
X56464300Y-54893000I0J250000D01*
G01*
G37*
G36*
G01*
X58364300Y-54893000D02*
X58364300Y-53943000D01*
G75*
G02*
X58614300Y-53693000I250000J0D01*
G01*
X59114300Y-53693000D01*
G75*
G02*
X59364300Y-53943000I0J-250000D01*
G01*
X59364300Y-54893000D01*
G75*
G02*
X59114300Y-55143000I-250000J0D01*
G01*
X58614300Y-55143000D01*
G75*
G02*
X58364300Y-54893000I0J250000D01*
G01*
G37*
G36*
G01*
X71371800Y-50550000D02*
X71371800Y-49650000D01*
G75*
G02*
X71621800Y-49400000I250000J0D01*
G01*
X72146800Y-49400000D01*
G75*
G02*
X72396800Y-49650000I0J-250000D01*
G01*
X72396800Y-50550000D01*
G75*
G02*
X72146800Y-50800000I-250000J0D01*
G01*
X71621800Y-50800000D01*
G75*
G02*
X71371800Y-50550000I0J250000D01*
G01*
G37*
G36*
G01*
X73196800Y-50550000D02*
X73196800Y-49650000D01*
G75*
G02*
X73446800Y-49400000I250000J0D01*
G01*
X73971800Y-49400000D01*
G75*
G02*
X74221800Y-49650000I0J-250000D01*
G01*
X74221800Y-50550000D01*
G75*
G02*
X73971800Y-50800000I-250000J0D01*
G01*
X73446800Y-50800000D01*
G75*
G02*
X73196800Y-50550000I0J250000D01*
G01*
G37*
G36*
G01*
X44449800Y-31821000D02*
X44449800Y-32721000D01*
G75*
G02*
X44199800Y-32971000I-250000J0D01*
G01*
X43674800Y-32971000D01*
G75*
G02*
X43424800Y-32721000I0J250000D01*
G01*
X43424800Y-31821000D01*
G75*
G02*
X43674800Y-31571000I250000J0D01*
G01*
X44199800Y-31571000D01*
G75*
G02*
X44449800Y-31821000I0J-250000D01*
G01*
G37*
G36*
G01*
X42624800Y-31821000D02*
X42624800Y-32721000D01*
G75*
G02*
X42374800Y-32971000I-250000J0D01*
G01*
X41849800Y-32971000D01*
G75*
G02*
X41599800Y-32721000I0J250000D01*
G01*
X41599800Y-31821000D01*
G75*
G02*
X41849800Y-31571000I250000J0D01*
G01*
X42374800Y-31571000D01*
G75*
G02*
X42624800Y-31821000I0J-250000D01*
G01*
G37*
G36*
G01*
X35003250Y-25483999D02*
X35598750Y-25483999D01*
G75*
G02*
X35698000Y-25583249I0J-99250D01*
G01*
X35698000Y-26798749D01*
G75*
G02*
X35598750Y-26897999I-99250J0D01*
G01*
X35003250Y-26897999D01*
G75*
G02*
X34904000Y-26798749I0J99250D01*
G01*
X34904000Y-25583249D01*
G75*
G02*
X35003250Y-25483999I99250J0D01*
G01*
G37*
G36*
G01*
X35953250Y-25483999D02*
X36548750Y-25483999D01*
G75*
G02*
X36648000Y-25583249I0J-99250D01*
G01*
X36648000Y-26798749D01*
G75*
G02*
X36548750Y-26897999I-99250J0D01*
G01*
X35953250Y-26897999D01*
G75*
G02*
X35854000Y-26798749I0J99250D01*
G01*
X35854000Y-25583249D01*
G75*
G02*
X35953250Y-25483999I99250J0D01*
G01*
G37*
G36*
G01*
X36903250Y-25483999D02*
X37498750Y-25483999D01*
G75*
G02*
X37598000Y-25583249I0J-99250D01*
G01*
X37598000Y-26798749D01*
G75*
G02*
X37498750Y-26897999I-99250J0D01*
G01*
X36903250Y-26897999D01*
G75*
G02*
X36804000Y-26798749I0J99250D01*
G01*
X36804000Y-25583249D01*
G75*
G02*
X36903250Y-25483999I99250J0D01*
G01*
G37*
G36*
G01*
X36903250Y-27993999D02*
X37498750Y-27993999D01*
G75*
G02*
X37598000Y-28093249I0J-99250D01*
G01*
X37598000Y-29308749D01*
G75*
G02*
X37498750Y-29407999I-99250J0D01*
G01*
X36903250Y-29407999D01*
G75*
G02*
X36804000Y-29308749I0J99250D01*
G01*
X36804000Y-28093249D01*
G75*
G02*
X36903250Y-27993999I99250J0D01*
G01*
G37*
G36*
G01*
X35953250Y-27993999D02*
X36548750Y-27993999D01*
G75*
G02*
X36648000Y-28093249I0J-99250D01*
G01*
X36648000Y-29308749D01*
G75*
G02*
X36548750Y-29407999I-99250J0D01*
G01*
X35953250Y-29407999D01*
G75*
G02*
X35854000Y-29308749I0J99250D01*
G01*
X35854000Y-28093249D01*
G75*
G02*
X35953250Y-27993999I99250J0D01*
G01*
G37*
G36*
G01*
X35003250Y-27993999D02*
X35598750Y-27993999D01*
G75*
G02*
X35698000Y-28093249I0J-99250D01*
G01*
X35698000Y-29308749D01*
G75*
G02*
X35598750Y-29407999I-99250J0D01*
G01*
X35003250Y-29407999D01*
G75*
G02*
X34904000Y-29308749I0J99250D01*
G01*
X34904000Y-28093249D01*
G75*
G02*
X35003250Y-27993999I99250J0D01*
G01*
G37*
G36*
X48214300Y-28649000D02*
G01*
X48714300Y-28649000D01*
X48714300Y-28653278D01*
X48779563Y-28653278D01*
X48905642Y-28687060D01*
X49018681Y-28752323D01*
X49110977Y-28844619D01*
X49176240Y-28957658D01*
X49210022Y-29083737D01*
X49210022Y-29149000D01*
X49214300Y-29149000D01*
X49214300Y-29649000D01*
X49210022Y-29649000D01*
X49210022Y-29714263D01*
X49176240Y-29840342D01*
X49110977Y-29953381D01*
X49018681Y-30045677D01*
X48905642Y-30110940D01*
X48779563Y-30144722D01*
X48714300Y-30144722D01*
X48714300Y-30149000D01*
X48214300Y-30149000D01*
X48214300Y-28649000D01*
G37*
G36*
X47414300Y-30144722D02*
G01*
X47349037Y-30144722D01*
X47222958Y-30110940D01*
X47109919Y-30045677D01*
X47017623Y-29953381D01*
X46952360Y-29840342D01*
X46918578Y-29714263D01*
X46918578Y-29649000D01*
X46914300Y-29649000D01*
X46914300Y-29149000D01*
X46918578Y-29149000D01*
X46918578Y-29083737D01*
X46952360Y-28957658D01*
X47017623Y-28844619D01*
X47109919Y-28752323D01*
X47222958Y-28687060D01*
X47349037Y-28653278D01*
X47414300Y-28653278D01*
X47414300Y-28649000D01*
X47914300Y-28649000D01*
X47914300Y-30149000D01*
X47414300Y-30149000D01*
X47414300Y-30144722D01*
G37*
D13*
X67972700Y-46645600D03*
X67972700Y-47280600D03*
X67972700Y-47915600D03*
X67972700Y-48550600D03*
X67972700Y-49185600D03*
X67972700Y-49820600D03*
X67972700Y-50455600D03*
X67972700Y-51090600D03*
X67972700Y-51725600D03*
X67972700Y-52360600D03*
X67972700Y-52995600D03*
X67972700Y-53630600D03*
X62772700Y-53630600D03*
X62772700Y-52995600D03*
X62772700Y-52360600D03*
X62772700Y-51725600D03*
X62772700Y-51090600D03*
X62772700Y-50455600D03*
X62772700Y-49820600D03*
X62772700Y-49185600D03*
X62772700Y-48550600D03*
X62772700Y-47915600D03*
X62772700Y-47280600D03*
X62772700Y-46645600D03*
G36*
G01*
X62197100Y-42676000D02*
X62197100Y-41776000D01*
G75*
G02*
X62447100Y-41526000I250000J0D01*
G01*
X62972100Y-41526000D01*
G75*
G02*
X63222100Y-41776000I0J-250000D01*
G01*
X63222100Y-42676000D01*
G75*
G02*
X62972100Y-42926000I-250000J0D01*
G01*
X62447100Y-42926000D01*
G75*
G02*
X62197100Y-42676000I0J250000D01*
G01*
G37*
G36*
G01*
X64022100Y-42676000D02*
X64022100Y-41776000D01*
G75*
G02*
X64272100Y-41526000I250000J0D01*
G01*
X64797100Y-41526000D01*
G75*
G02*
X65047100Y-41776000I0J-250000D01*
G01*
X65047100Y-42676000D01*
G75*
G02*
X64797100Y-42926000I-250000J0D01*
G01*
X64272100Y-42926000D01*
G75*
G02*
X64022100Y-42676000I0J250000D01*
G01*
G37*
G36*
G01*
X43457300Y-26686000D02*
X43457300Y-27286000D01*
G75*
G02*
X43355300Y-27388000I-102000J0D01*
G01*
X42755300Y-27388000D01*
G75*
G02*
X42653300Y-27286000I0J102000D01*
G01*
X42653300Y-26686000D01*
G75*
G02*
X42755300Y-26584000I102000J0D01*
G01*
X43355300Y-26584000D01*
G75*
G02*
X43457300Y-26686000I0J-102000D01*
G01*
G37*
G36*
G01*
X45657300Y-26686000D02*
X45657300Y-27286000D01*
G75*
G02*
X45555300Y-27388000I-102000J0D01*
G01*
X44955300Y-27388000D01*
G75*
G02*
X44853300Y-27286000I0J102000D01*
G01*
X44853300Y-26686000D01*
G75*
G02*
X44955300Y-26584000I102000J0D01*
G01*
X45555300Y-26584000D01*
G75*
G02*
X45657300Y-26686000I0J-102000D01*
G01*
G37*
G36*
G01*
X55632800Y-53968000D02*
X55632800Y-54868000D01*
G75*
G02*
X55382800Y-55118000I-250000J0D01*
G01*
X54857800Y-55118000D01*
G75*
G02*
X54607800Y-54868000I0J250000D01*
G01*
X54607800Y-53968000D01*
G75*
G02*
X54857800Y-53718000I250000J0D01*
G01*
X55382800Y-53718000D01*
G75*
G02*
X55632800Y-53968000I0J-250000D01*
G01*
G37*
G36*
G01*
X53807800Y-53968000D02*
X53807800Y-54868000D01*
G75*
G02*
X53557800Y-55118000I-250000J0D01*
G01*
X53032800Y-55118000D01*
G75*
G02*
X52782800Y-54868000I0J250000D01*
G01*
X52782800Y-53968000D01*
G75*
G02*
X53032800Y-53718000I250000J0D01*
G01*
X53557800Y-53718000D01*
G75*
G02*
X53807800Y-53968000I0J-250000D01*
G01*
G37*
G36*
G01*
X26959500Y-36159100D02*
X27259500Y-36159100D01*
G75*
G02*
X27409500Y-36309100I0J-150000D01*
G01*
X27409500Y-37484100D01*
G75*
G02*
X27259500Y-37634100I-150000J0D01*
G01*
X26959500Y-37634100D01*
G75*
G02*
X26809500Y-37484100I0J150000D01*
G01*
X26809500Y-36309100D01*
G75*
G02*
X26959500Y-36159100I150000J0D01*
G01*
G37*
G36*
G01*
X28859500Y-36159100D02*
X29159500Y-36159100D01*
G75*
G02*
X29309500Y-36309100I0J-150000D01*
G01*
X29309500Y-37484100D01*
G75*
G02*
X29159500Y-37634100I-150000J0D01*
G01*
X28859500Y-37634100D01*
G75*
G02*
X28709500Y-37484100I0J150000D01*
G01*
X28709500Y-36309100D01*
G75*
G02*
X28859500Y-36159100I150000J0D01*
G01*
G37*
G36*
G01*
X27909500Y-38034100D02*
X28209500Y-38034100D01*
G75*
G02*
X28359500Y-38184100I0J-150000D01*
G01*
X28359500Y-39359100D01*
G75*
G02*
X28209500Y-39509100I-150000J0D01*
G01*
X27909500Y-39509100D01*
G75*
G02*
X27759500Y-39359100I0J150000D01*
G01*
X27759500Y-38184100D01*
G75*
G02*
X27909500Y-38034100I150000J0D01*
G01*
G37*
D12*
X58028600Y-48576000D03*
X58028600Y-49846000D03*
X58028600Y-51116000D03*
X58028600Y-52386000D03*
X52580300Y-52386000D03*
X52580300Y-51116000D03*
X52580300Y-49846000D03*
X52580300Y-48576000D03*
G36*
G01*
X30817900Y-42611800D02*
X30817900Y-43211800D01*
G75*
G02*
X30715900Y-43313800I-102000J0D01*
G01*
X30115900Y-43313800D01*
G75*
G02*
X30013900Y-43211800I0J102000D01*
G01*
X30013900Y-42611800D01*
G75*
G02*
X30115900Y-42509800I102000J0D01*
G01*
X30715900Y-42509800D01*
G75*
G02*
X30817900Y-42611800I0J-102000D01*
G01*
G37*
G36*
G01*
X33017900Y-42611800D02*
X33017900Y-43211800D01*
G75*
G02*
X32915900Y-43313800I-102000J0D01*
G01*
X32315900Y-43313800D01*
G75*
G02*
X32213900Y-43211800I0J102000D01*
G01*
X32213900Y-42611800D01*
G75*
G02*
X32315900Y-42509800I102000J0D01*
G01*
X32915900Y-42509800D01*
G75*
G02*
X33017900Y-42611800I0J-102000D01*
G01*
G37*
G36*
G01*
X74927800Y-52582000D02*
X74927800Y-51682000D01*
G75*
G02*
X75177800Y-51432000I250000J0D01*
G01*
X75702800Y-51432000D01*
G75*
G02*
X75952800Y-51682000I0J-250000D01*
G01*
X75952800Y-52582000D01*
G75*
G02*
X75702800Y-52832000I-250000J0D01*
G01*
X75177800Y-52832000D01*
G75*
G02*
X74927800Y-52582000I0J250000D01*
G01*
G37*
G36*
G01*
X76752800Y-52582000D02*
X76752800Y-51682000D01*
G75*
G02*
X77002800Y-51432000I250000J0D01*
G01*
X77527800Y-51432000D01*
G75*
G02*
X77777800Y-51682000I0J-250000D01*
G01*
X77777800Y-52582000D01*
G75*
G02*
X77527800Y-52832000I-250000J0D01*
G01*
X77002800Y-52832000D01*
G75*
G02*
X76752800Y-52582000I0J250000D01*
G01*
G37*
D14*
X57473300Y-33844000D03*
X57473300Y-32574000D03*
X57473300Y-31304000D03*
D15*
X66623300Y-30034000D03*
D14*
X57473300Y-28764000D03*
X57473300Y-27494000D03*
X57473300Y-26224000D03*
G36*
G01*
X61183300Y-43610000D02*
X60233300Y-43610000D01*
G75*
G02*
X59983300Y-43360000I0J250000D01*
G01*
X59983300Y-42860000D01*
G75*
G02*
X60233300Y-42610000I250000J0D01*
G01*
X61183300Y-42610000D01*
G75*
G02*
X61433300Y-42860000I0J-250000D01*
G01*
X61433300Y-43360000D01*
G75*
G02*
X61183300Y-43610000I-250000J0D01*
G01*
G37*
G36*
G01*
X61183300Y-41710000D02*
X60233300Y-41710000D01*
G75*
G02*
X59983300Y-41460000I0J250000D01*
G01*
X59983300Y-40960000D01*
G75*
G02*
X60233300Y-40710000I250000J0D01*
G01*
X61183300Y-40710000D01*
G75*
G02*
X61433300Y-40960000I0J-250000D01*
G01*
X61433300Y-41460000D01*
G75*
G02*
X61183300Y-41710000I-250000J0D01*
G01*
G37*
G36*
G01*
X65099400Y-43783000D02*
X65099400Y-44733000D01*
G75*
G02*
X64849400Y-44983000I-250000J0D01*
G01*
X64349400Y-44983000D01*
G75*
G02*
X64099400Y-44733000I0J250000D01*
G01*
X64099400Y-43783000D01*
G75*
G02*
X64349400Y-43533000I250000J0D01*
G01*
X64849400Y-43533000D01*
G75*
G02*
X65099400Y-43783000I0J-250000D01*
G01*
G37*
G36*
G01*
X63199400Y-43783000D02*
X63199400Y-44733000D01*
G75*
G02*
X62949400Y-44983000I-250000J0D01*
G01*
X62449400Y-44983000D01*
G75*
G02*
X62199400Y-44733000I0J250000D01*
G01*
X62199400Y-43783000D01*
G75*
G02*
X62449400Y-43533000I250000J0D01*
G01*
X62949400Y-43533000D01*
G75*
G02*
X63199400Y-43783000I0J-250000D01*
G01*
G37*
G36*
G01*
X65225300Y-58159400D02*
X65225300Y-59109400D01*
G75*
G02*
X64975300Y-59359400I-250000J0D01*
G01*
X64475300Y-59359400D01*
G75*
G02*
X64225300Y-59109400I0J250000D01*
G01*
X64225300Y-58159400D01*
G75*
G02*
X64475300Y-57909400I250000J0D01*
G01*
X64975300Y-57909400D01*
G75*
G02*
X65225300Y-58159400I0J-250000D01*
G01*
G37*
G36*
G01*
X63325300Y-58159400D02*
X63325300Y-59109400D01*
G75*
G02*
X63075300Y-59359400I-250000J0D01*
G01*
X62575300Y-59359400D01*
G75*
G02*
X62325300Y-59109400I0J250000D01*
G01*
X62325300Y-58159400D01*
G75*
G02*
X62575300Y-57909400I250000J0D01*
G01*
X63075300Y-57909400D01*
G75*
G02*
X63325300Y-58159400I0J-250000D01*
G01*
G37*
D16*
X32029350Y-36193500D03*
D17*
X32031700Y-34936200D03*
D18*
X32031700Y-32916900D03*
G36*
G01*
X46517300Y-48838000D02*
X47467300Y-48838000D01*
G75*
G02*
X47717300Y-49088000I0J-250000D01*
G01*
X47717300Y-49588000D01*
G75*
G02*
X47467300Y-49838000I-250000J0D01*
G01*
X46517300Y-49838000D01*
G75*
G02*
X46267300Y-49588000I0J250000D01*
G01*
X46267300Y-49088000D01*
G75*
G02*
X46517300Y-48838000I250000J0D01*
G01*
G37*
G36*
G01*
X46517300Y-50738000D02*
X47467300Y-50738000D01*
G75*
G02*
X47717300Y-50988000I0J-250000D01*
G01*
X47717300Y-51488000D01*
G75*
G02*
X47467300Y-51738000I-250000J0D01*
G01*
X46517300Y-51738000D01*
G75*
G02*
X46267300Y-51488000I0J250000D01*
G01*
X46267300Y-50988000D01*
G75*
G02*
X46517300Y-50738000I250000J0D01*
G01*
G37*
D12*
X58028600Y-40956000D03*
X58028600Y-42226000D03*
X58028600Y-43496000D03*
X58028600Y-44766000D03*
X52580300Y-44766000D03*
X52580300Y-43496000D03*
X52580300Y-42226000D03*
X52580300Y-40956000D03*
G36*
G01*
X60340300Y-61751000D02*
X60340300Y-60801000D01*
G75*
G02*
X60590300Y-60551000I250000J0D01*
G01*
X61090300Y-60551000D01*
G75*
G02*
X61340300Y-60801000I0J-250000D01*
G01*
X61340300Y-61751000D01*
G75*
G02*
X61090300Y-62001000I-250000J0D01*
G01*
X60590300Y-62001000D01*
G75*
G02*
X60340300Y-61751000I0J250000D01*
G01*
G37*
G36*
G01*
X62240300Y-61751000D02*
X62240300Y-60801000D01*
G75*
G02*
X62490300Y-60551000I250000J0D01*
G01*
X62990300Y-60551000D01*
G75*
G02*
X63240300Y-60801000I0J-250000D01*
G01*
X63240300Y-61751000D01*
G75*
G02*
X62990300Y-62001000I-250000J0D01*
G01*
X62490300Y-62001000D01*
G75*
G02*
X62240300Y-61751000I0J250000D01*
G01*
G37*
G36*
G01*
X36242800Y-38855000D02*
X36242800Y-39755000D01*
G75*
G02*
X35992800Y-40005000I-250000J0D01*
G01*
X35467800Y-40005000D01*
G75*
G02*
X35217800Y-39755000I0J250000D01*
G01*
X35217800Y-38855000D01*
G75*
G02*
X35467800Y-38605000I250000J0D01*
G01*
X35992800Y-38605000D01*
G75*
G02*
X36242800Y-38855000I0J-250000D01*
G01*
G37*
G36*
G01*
X34417800Y-38855000D02*
X34417800Y-39755000D01*
G75*
G02*
X34167800Y-40005000I-250000J0D01*
G01*
X33642800Y-40005000D01*
G75*
G02*
X33392800Y-39755000I0J250000D01*
G01*
X33392800Y-38855000D01*
G75*
G02*
X33642800Y-38605000I250000J0D01*
G01*
X34167800Y-38605000D01*
G75*
G02*
X34417800Y-38855000I0J-250000D01*
G01*
G37*
M02*
