G04 #@! TF.GenerationSoftware,KiCad,Pcbnew,9.0.1+1*
G04 #@! TF.CreationDate,2025-11-12T15:34:47+00:00*
G04 #@! TF.ProjectId,input-power-selector,696e7075-742d-4706-9f77-65722d73656c,rev?*
G04 #@! TF.SameCoordinates,Original*
G04 #@! TF.FileFunction,Legend,Top*
G04 #@! TF.FilePolarity,Positive*
%FSLAX46Y46*%
G04 Gerber Fmt 4.6, Leading zero omitted, Abs format (unit mm)*
G04 Created by KiCad (PCBNEW 9.0.1+1) date 2025-11-12 15:34:47*
%MOMM*%
%LPD*%
G01*
G04 APERTURE LIST*
%ADD10C,0.100000*%
%ADD11C,0.150000*%
%ADD12R,2.000000X2.540000*%
G04 APERTURE END LIST*
D10*
X24707184Y-57371531D02*
X24707184Y-56371531D01*
X24707184Y-56371531D02*
X25088136Y-56371531D01*
X25088136Y-56371531D02*
X25183374Y-56419150D01*
X25183374Y-56419150D02*
X25230993Y-56466769D01*
X25230993Y-56466769D02*
X25278612Y-56562007D01*
X25278612Y-56562007D02*
X25278612Y-56704864D01*
X25278612Y-56704864D02*
X25230993Y-56800102D01*
X25230993Y-56800102D02*
X25183374Y-56847721D01*
X25183374Y-56847721D02*
X25088136Y-56895340D01*
X25088136Y-56895340D02*
X24707184Y-56895340D01*
X25850041Y-57371531D02*
X25754803Y-57323912D01*
X25754803Y-57323912D02*
X25707184Y-57276292D01*
X25707184Y-57276292D02*
X25659565Y-57181054D01*
X25659565Y-57181054D02*
X25659565Y-56895340D01*
X25659565Y-56895340D02*
X25707184Y-56800102D01*
X25707184Y-56800102D02*
X25754803Y-56752483D01*
X25754803Y-56752483D02*
X25850041Y-56704864D01*
X25850041Y-56704864D02*
X25992898Y-56704864D01*
X25992898Y-56704864D02*
X26088136Y-56752483D01*
X26088136Y-56752483D02*
X26135755Y-56800102D01*
X26135755Y-56800102D02*
X26183374Y-56895340D01*
X26183374Y-56895340D02*
X26183374Y-57181054D01*
X26183374Y-57181054D02*
X26135755Y-57276292D01*
X26135755Y-57276292D02*
X26088136Y-57323912D01*
X26088136Y-57323912D02*
X25992898Y-57371531D01*
X25992898Y-57371531D02*
X25850041Y-57371531D01*
X26516708Y-56704864D02*
X26707184Y-57371531D01*
X26707184Y-57371531D02*
X26897660Y-56895340D01*
X26897660Y-56895340D02*
X27088136Y-57371531D01*
X27088136Y-57371531D02*
X27278612Y-56704864D01*
X28040517Y-57323912D02*
X27945279Y-57371531D01*
X27945279Y-57371531D02*
X27754803Y-57371531D01*
X27754803Y-57371531D02*
X27659565Y-57323912D01*
X27659565Y-57323912D02*
X27611946Y-57228673D01*
X27611946Y-57228673D02*
X27611946Y-56847721D01*
X27611946Y-56847721D02*
X27659565Y-56752483D01*
X27659565Y-56752483D02*
X27754803Y-56704864D01*
X27754803Y-56704864D02*
X27945279Y-56704864D01*
X27945279Y-56704864D02*
X28040517Y-56752483D01*
X28040517Y-56752483D02*
X28088136Y-56847721D01*
X28088136Y-56847721D02*
X28088136Y-56942959D01*
X28088136Y-56942959D02*
X27611946Y-57038197D01*
X28516708Y-57371531D02*
X28516708Y-56704864D01*
X28516708Y-56895340D02*
X28564327Y-56800102D01*
X28564327Y-56800102D02*
X28611946Y-56752483D01*
X28611946Y-56752483D02*
X28707184Y-56704864D01*
X28707184Y-56704864D02*
X28802422Y-56704864D01*
X29897661Y-57371531D02*
X29897661Y-56371531D01*
X30373851Y-56704864D02*
X30373851Y-57371531D01*
X30373851Y-56800102D02*
X30421470Y-56752483D01*
X30421470Y-56752483D02*
X30516708Y-56704864D01*
X30516708Y-56704864D02*
X30659565Y-56704864D01*
X30659565Y-56704864D02*
X30754803Y-56752483D01*
X30754803Y-56752483D02*
X30802422Y-56847721D01*
X30802422Y-56847721D02*
X30802422Y-57371531D01*
X31278613Y-56704864D02*
X31278613Y-57704864D01*
X31278613Y-56752483D02*
X31373851Y-56704864D01*
X31373851Y-56704864D02*
X31564327Y-56704864D01*
X31564327Y-56704864D02*
X31659565Y-56752483D01*
X31659565Y-56752483D02*
X31707184Y-56800102D01*
X31707184Y-56800102D02*
X31754803Y-56895340D01*
X31754803Y-56895340D02*
X31754803Y-57181054D01*
X31754803Y-57181054D02*
X31707184Y-57276292D01*
X31707184Y-57276292D02*
X31659565Y-57323912D01*
X31659565Y-57323912D02*
X31564327Y-57371531D01*
X31564327Y-57371531D02*
X31373851Y-57371531D01*
X31373851Y-57371531D02*
X31278613Y-57323912D01*
X32611946Y-56704864D02*
X32611946Y-57371531D01*
X32183375Y-56704864D02*
X32183375Y-57228673D01*
X32183375Y-57228673D02*
X32230994Y-57323912D01*
X32230994Y-57323912D02*
X32326232Y-57371531D01*
X32326232Y-57371531D02*
X32469089Y-57371531D01*
X32469089Y-57371531D02*
X32564327Y-57323912D01*
X32564327Y-57323912D02*
X32611946Y-57276292D01*
X32945280Y-56704864D02*
X33326232Y-56704864D01*
X33088137Y-56371531D02*
X33088137Y-57228673D01*
X33088137Y-57228673D02*
X33135756Y-57323912D01*
X33135756Y-57323912D02*
X33230994Y-57371531D01*
X33230994Y-57371531D02*
X33326232Y-57371531D01*
X34373852Y-57323912D02*
X34516709Y-57371531D01*
X34516709Y-57371531D02*
X34754804Y-57371531D01*
X34754804Y-57371531D02*
X34850042Y-57323912D01*
X34850042Y-57323912D02*
X34897661Y-57276292D01*
X34897661Y-57276292D02*
X34945280Y-57181054D01*
X34945280Y-57181054D02*
X34945280Y-57085816D01*
X34945280Y-57085816D02*
X34897661Y-56990578D01*
X34897661Y-56990578D02*
X34850042Y-56942959D01*
X34850042Y-56942959D02*
X34754804Y-56895340D01*
X34754804Y-56895340D02*
X34564328Y-56847721D01*
X34564328Y-56847721D02*
X34469090Y-56800102D01*
X34469090Y-56800102D02*
X34421471Y-56752483D01*
X34421471Y-56752483D02*
X34373852Y-56657245D01*
X34373852Y-56657245D02*
X34373852Y-56562007D01*
X34373852Y-56562007D02*
X34421471Y-56466769D01*
X34421471Y-56466769D02*
X34469090Y-56419150D01*
X34469090Y-56419150D02*
X34564328Y-56371531D01*
X34564328Y-56371531D02*
X34802423Y-56371531D01*
X34802423Y-56371531D02*
X34945280Y-56419150D01*
X35754804Y-57323912D02*
X35659566Y-57371531D01*
X35659566Y-57371531D02*
X35469090Y-57371531D01*
X35469090Y-57371531D02*
X35373852Y-57323912D01*
X35373852Y-57323912D02*
X35326233Y-57228673D01*
X35326233Y-57228673D02*
X35326233Y-56847721D01*
X35326233Y-56847721D02*
X35373852Y-56752483D01*
X35373852Y-56752483D02*
X35469090Y-56704864D01*
X35469090Y-56704864D02*
X35659566Y-56704864D01*
X35659566Y-56704864D02*
X35754804Y-56752483D01*
X35754804Y-56752483D02*
X35802423Y-56847721D01*
X35802423Y-56847721D02*
X35802423Y-56942959D01*
X35802423Y-56942959D02*
X35326233Y-57038197D01*
X36373852Y-57371531D02*
X36278614Y-57323912D01*
X36278614Y-57323912D02*
X36230995Y-57228673D01*
X36230995Y-57228673D02*
X36230995Y-56371531D01*
X37135757Y-57323912D02*
X37040519Y-57371531D01*
X37040519Y-57371531D02*
X36850043Y-57371531D01*
X36850043Y-57371531D02*
X36754805Y-57323912D01*
X36754805Y-57323912D02*
X36707186Y-57228673D01*
X36707186Y-57228673D02*
X36707186Y-56847721D01*
X36707186Y-56847721D02*
X36754805Y-56752483D01*
X36754805Y-56752483D02*
X36850043Y-56704864D01*
X36850043Y-56704864D02*
X37040519Y-56704864D01*
X37040519Y-56704864D02*
X37135757Y-56752483D01*
X37135757Y-56752483D02*
X37183376Y-56847721D01*
X37183376Y-56847721D02*
X37183376Y-56942959D01*
X37183376Y-56942959D02*
X36707186Y-57038197D01*
X38040519Y-57323912D02*
X37945281Y-57371531D01*
X37945281Y-57371531D02*
X37754805Y-57371531D01*
X37754805Y-57371531D02*
X37659567Y-57323912D01*
X37659567Y-57323912D02*
X37611948Y-57276292D01*
X37611948Y-57276292D02*
X37564329Y-57181054D01*
X37564329Y-57181054D02*
X37564329Y-56895340D01*
X37564329Y-56895340D02*
X37611948Y-56800102D01*
X37611948Y-56800102D02*
X37659567Y-56752483D01*
X37659567Y-56752483D02*
X37754805Y-56704864D01*
X37754805Y-56704864D02*
X37945281Y-56704864D01*
X37945281Y-56704864D02*
X38040519Y-56752483D01*
X38326234Y-56704864D02*
X38707186Y-56704864D01*
X38469091Y-56371531D02*
X38469091Y-57228673D01*
X38469091Y-57228673D02*
X38516710Y-57323912D01*
X38516710Y-57323912D02*
X38611948Y-57371531D01*
X38611948Y-57371531D02*
X38707186Y-57371531D01*
X39183377Y-57371531D02*
X39088139Y-57323912D01*
X39088139Y-57323912D02*
X39040520Y-57276292D01*
X39040520Y-57276292D02*
X38992901Y-57181054D01*
X38992901Y-57181054D02*
X38992901Y-56895340D01*
X38992901Y-56895340D02*
X39040520Y-56800102D01*
X39040520Y-56800102D02*
X39088139Y-56752483D01*
X39088139Y-56752483D02*
X39183377Y-56704864D01*
X39183377Y-56704864D02*
X39326234Y-56704864D01*
X39326234Y-56704864D02*
X39421472Y-56752483D01*
X39421472Y-56752483D02*
X39469091Y-56800102D01*
X39469091Y-56800102D02*
X39516710Y-56895340D01*
X39516710Y-56895340D02*
X39516710Y-57181054D01*
X39516710Y-57181054D02*
X39469091Y-57276292D01*
X39469091Y-57276292D02*
X39421472Y-57323912D01*
X39421472Y-57323912D02*
X39326234Y-57371531D01*
X39326234Y-57371531D02*
X39183377Y-57371531D01*
X39945282Y-57371531D02*
X39945282Y-56704864D01*
X39945282Y-56895340D02*
X39992901Y-56800102D01*
X39992901Y-56800102D02*
X40040520Y-56752483D01*
X40040520Y-56752483D02*
X40135758Y-56704864D01*
X40135758Y-56704864D02*
X40230996Y-56704864D01*
X41326235Y-57371531D02*
X41326235Y-56371531D01*
X41326235Y-56371531D02*
X41659568Y-57085816D01*
X41659568Y-57085816D02*
X41992901Y-56371531D01*
X41992901Y-56371531D02*
X41992901Y-57371531D01*
X42611949Y-57371531D02*
X42516711Y-57323912D01*
X42516711Y-57323912D02*
X42469092Y-57276292D01*
X42469092Y-57276292D02*
X42421473Y-57181054D01*
X42421473Y-57181054D02*
X42421473Y-56895340D01*
X42421473Y-56895340D02*
X42469092Y-56800102D01*
X42469092Y-56800102D02*
X42516711Y-56752483D01*
X42516711Y-56752483D02*
X42611949Y-56704864D01*
X42611949Y-56704864D02*
X42754806Y-56704864D01*
X42754806Y-56704864D02*
X42850044Y-56752483D01*
X42850044Y-56752483D02*
X42897663Y-56800102D01*
X42897663Y-56800102D02*
X42945282Y-56895340D01*
X42945282Y-56895340D02*
X42945282Y-57181054D01*
X42945282Y-57181054D02*
X42897663Y-57276292D01*
X42897663Y-57276292D02*
X42850044Y-57323912D01*
X42850044Y-57323912D02*
X42754806Y-57371531D01*
X42754806Y-57371531D02*
X42611949Y-57371531D01*
X43802425Y-57371531D02*
X43802425Y-56371531D01*
X43802425Y-57323912D02*
X43707187Y-57371531D01*
X43707187Y-57371531D02*
X43516711Y-57371531D01*
X43516711Y-57371531D02*
X43421473Y-57323912D01*
X43421473Y-57323912D02*
X43373854Y-57276292D01*
X43373854Y-57276292D02*
X43326235Y-57181054D01*
X43326235Y-57181054D02*
X43326235Y-56895340D01*
X43326235Y-56895340D02*
X43373854Y-56800102D01*
X43373854Y-56800102D02*
X43421473Y-56752483D01*
X43421473Y-56752483D02*
X43516711Y-56704864D01*
X43516711Y-56704864D02*
X43707187Y-56704864D01*
X43707187Y-56704864D02*
X43802425Y-56752483D01*
X44707187Y-56704864D02*
X44707187Y-57371531D01*
X44278616Y-56704864D02*
X44278616Y-57228673D01*
X44278616Y-57228673D02*
X44326235Y-57323912D01*
X44326235Y-57323912D02*
X44421473Y-57371531D01*
X44421473Y-57371531D02*
X44564330Y-57371531D01*
X44564330Y-57371531D02*
X44659568Y-57323912D01*
X44659568Y-57323912D02*
X44707187Y-57276292D01*
X45326235Y-57371531D02*
X45230997Y-57323912D01*
X45230997Y-57323912D02*
X45183378Y-57228673D01*
X45183378Y-57228673D02*
X45183378Y-56371531D01*
X46088140Y-57323912D02*
X45992902Y-57371531D01*
X45992902Y-57371531D02*
X45802426Y-57371531D01*
X45802426Y-57371531D02*
X45707188Y-57323912D01*
X45707188Y-57323912D02*
X45659569Y-57228673D01*
X45659569Y-57228673D02*
X45659569Y-56847721D01*
X45659569Y-56847721D02*
X45707188Y-56752483D01*
X45707188Y-56752483D02*
X45802426Y-56704864D01*
X45802426Y-56704864D02*
X45992902Y-56704864D01*
X45992902Y-56704864D02*
X46088140Y-56752483D01*
X46088140Y-56752483D02*
X46135759Y-56847721D01*
X46135759Y-56847721D02*
X46135759Y-56942959D01*
X46135759Y-56942959D02*
X45659569Y-57038197D01*
X25278612Y-58981475D02*
X24945279Y-58505284D01*
X24707184Y-58981475D02*
X24707184Y-57981475D01*
X24707184Y-57981475D02*
X25088136Y-57981475D01*
X25088136Y-57981475D02*
X25183374Y-58029094D01*
X25183374Y-58029094D02*
X25230993Y-58076713D01*
X25230993Y-58076713D02*
X25278612Y-58171951D01*
X25278612Y-58171951D02*
X25278612Y-58314808D01*
X25278612Y-58314808D02*
X25230993Y-58410046D01*
X25230993Y-58410046D02*
X25183374Y-58457665D01*
X25183374Y-58457665D02*
X25088136Y-58505284D01*
X25088136Y-58505284D02*
X24707184Y-58505284D01*
X25659565Y-58076713D02*
X25707184Y-58029094D01*
X25707184Y-58029094D02*
X25802422Y-57981475D01*
X25802422Y-57981475D02*
X26040517Y-57981475D01*
X26040517Y-57981475D02*
X26135755Y-58029094D01*
X26135755Y-58029094D02*
X26183374Y-58076713D01*
X26183374Y-58076713D02*
X26230993Y-58171951D01*
X26230993Y-58171951D02*
X26230993Y-58267189D01*
X26230993Y-58267189D02*
X26183374Y-58410046D01*
X26183374Y-58410046D02*
X25611946Y-58981475D01*
X25611946Y-58981475D02*
X26230993Y-58981475D01*
X26850041Y-57981475D02*
X26945279Y-57981475D01*
X26945279Y-57981475D02*
X27040517Y-58029094D01*
X27040517Y-58029094D02*
X27088136Y-58076713D01*
X27088136Y-58076713D02*
X27135755Y-58171951D01*
X27135755Y-58171951D02*
X27183374Y-58362427D01*
X27183374Y-58362427D02*
X27183374Y-58600522D01*
X27183374Y-58600522D02*
X27135755Y-58790998D01*
X27135755Y-58790998D02*
X27088136Y-58886236D01*
X27088136Y-58886236D02*
X27040517Y-58933856D01*
X27040517Y-58933856D02*
X26945279Y-58981475D01*
X26945279Y-58981475D02*
X26850041Y-58981475D01*
X26850041Y-58981475D02*
X26754803Y-58933856D01*
X26754803Y-58933856D02*
X26707184Y-58886236D01*
X26707184Y-58886236D02*
X26659565Y-58790998D01*
X26659565Y-58790998D02*
X26611946Y-58600522D01*
X26611946Y-58600522D02*
X26611946Y-58362427D01*
X26611946Y-58362427D02*
X26659565Y-58171951D01*
X26659565Y-58171951D02*
X26707184Y-58076713D01*
X26707184Y-58076713D02*
X26754803Y-58029094D01*
X26754803Y-58029094D02*
X26850041Y-57981475D01*
X27564327Y-58076713D02*
X27611946Y-58029094D01*
X27611946Y-58029094D02*
X27707184Y-57981475D01*
X27707184Y-57981475D02*
X27945279Y-57981475D01*
X27945279Y-57981475D02*
X28040517Y-58029094D01*
X28040517Y-58029094D02*
X28088136Y-58076713D01*
X28088136Y-58076713D02*
X28135755Y-58171951D01*
X28135755Y-58171951D02*
X28135755Y-58267189D01*
X28135755Y-58267189D02*
X28088136Y-58410046D01*
X28088136Y-58410046D02*
X27516708Y-58981475D01*
X27516708Y-58981475D02*
X28135755Y-58981475D01*
X29040517Y-57981475D02*
X28564327Y-57981475D01*
X28564327Y-57981475D02*
X28516708Y-58457665D01*
X28516708Y-58457665D02*
X28564327Y-58410046D01*
X28564327Y-58410046D02*
X28659565Y-58362427D01*
X28659565Y-58362427D02*
X28897660Y-58362427D01*
X28897660Y-58362427D02*
X28992898Y-58410046D01*
X28992898Y-58410046D02*
X29040517Y-58457665D01*
X29040517Y-58457665D02*
X29088136Y-58552903D01*
X29088136Y-58552903D02*
X29088136Y-58790998D01*
X29088136Y-58790998D02*
X29040517Y-58886236D01*
X29040517Y-58886236D02*
X28992898Y-58933856D01*
X28992898Y-58933856D02*
X28897660Y-58981475D01*
X28897660Y-58981475D02*
X28659565Y-58981475D01*
X28659565Y-58981475D02*
X28564327Y-58933856D01*
X28564327Y-58933856D02*
X28516708Y-58886236D01*
X29707184Y-57981475D02*
X29802422Y-57981475D01*
X29802422Y-57981475D02*
X29897660Y-58029094D01*
X29897660Y-58029094D02*
X29945279Y-58076713D01*
X29945279Y-58076713D02*
X29992898Y-58171951D01*
X29992898Y-58171951D02*
X30040517Y-58362427D01*
X30040517Y-58362427D02*
X30040517Y-58600522D01*
X30040517Y-58600522D02*
X29992898Y-58790998D01*
X29992898Y-58790998D02*
X29945279Y-58886236D01*
X29945279Y-58886236D02*
X29897660Y-58933856D01*
X29897660Y-58933856D02*
X29802422Y-58981475D01*
X29802422Y-58981475D02*
X29707184Y-58981475D01*
X29707184Y-58981475D02*
X29611946Y-58933856D01*
X29611946Y-58933856D02*
X29564327Y-58886236D01*
X29564327Y-58886236D02*
X29516708Y-58790998D01*
X29516708Y-58790998D02*
X29469089Y-58600522D01*
X29469089Y-58600522D02*
X29469089Y-58362427D01*
X29469089Y-58362427D02*
X29516708Y-58171951D01*
X29516708Y-58171951D02*
X29564327Y-58076713D01*
X29564327Y-58076713D02*
X29611946Y-58029094D01*
X29611946Y-58029094D02*
X29707184Y-57981475D01*
X30897660Y-58314808D02*
X30897660Y-58981475D01*
X30659565Y-57933856D02*
X30421470Y-58648141D01*
X30421470Y-58648141D02*
X31040517Y-58648141D01*
X31611946Y-57981475D02*
X31707184Y-57981475D01*
X31707184Y-57981475D02*
X31802422Y-58029094D01*
X31802422Y-58029094D02*
X31850041Y-58076713D01*
X31850041Y-58076713D02*
X31897660Y-58171951D01*
X31897660Y-58171951D02*
X31945279Y-58362427D01*
X31945279Y-58362427D02*
X31945279Y-58600522D01*
X31945279Y-58600522D02*
X31897660Y-58790998D01*
X31897660Y-58790998D02*
X31850041Y-58886236D01*
X31850041Y-58886236D02*
X31802422Y-58933856D01*
X31802422Y-58933856D02*
X31707184Y-58981475D01*
X31707184Y-58981475D02*
X31611946Y-58981475D01*
X31611946Y-58981475D02*
X31516708Y-58933856D01*
X31516708Y-58933856D02*
X31469089Y-58886236D01*
X31469089Y-58886236D02*
X31421470Y-58790998D01*
X31421470Y-58790998D02*
X31373851Y-58600522D01*
X31373851Y-58600522D02*
X31373851Y-58362427D01*
X31373851Y-58362427D02*
X31421470Y-58171951D01*
X31421470Y-58171951D02*
X31469089Y-58076713D01*
X31469089Y-58076713D02*
X31516708Y-58029094D01*
X31516708Y-58029094D02*
X31611946Y-57981475D01*
X32850041Y-57981475D02*
X32373851Y-57981475D01*
X32373851Y-57981475D02*
X32326232Y-58457665D01*
X32326232Y-58457665D02*
X32373851Y-58410046D01*
X32373851Y-58410046D02*
X32469089Y-58362427D01*
X32469089Y-58362427D02*
X32707184Y-58362427D01*
X32707184Y-58362427D02*
X32802422Y-58410046D01*
X32802422Y-58410046D02*
X32850041Y-58457665D01*
X32850041Y-58457665D02*
X32897660Y-58552903D01*
X32897660Y-58552903D02*
X32897660Y-58790998D01*
X32897660Y-58790998D02*
X32850041Y-58886236D01*
X32850041Y-58886236D02*
X32802422Y-58933856D01*
X32802422Y-58933856D02*
X32707184Y-58981475D01*
X32707184Y-58981475D02*
X32469089Y-58981475D01*
X32469089Y-58981475D02*
X32373851Y-58933856D01*
X32373851Y-58933856D02*
X32326232Y-58886236D01*
X25135755Y-59924752D02*
X25135755Y-60734276D01*
X25135755Y-60734276D02*
X25088136Y-60829514D01*
X25088136Y-60829514D02*
X25040517Y-60877133D01*
X25040517Y-60877133D02*
X24945279Y-60924752D01*
X24945279Y-60924752D02*
X24802422Y-60924752D01*
X24802422Y-60924752D02*
X24707184Y-60877133D01*
X25135755Y-60543800D02*
X25040517Y-60591419D01*
X25040517Y-60591419D02*
X24850041Y-60591419D01*
X24850041Y-60591419D02*
X24754803Y-60543800D01*
X24754803Y-60543800D02*
X24707184Y-60496180D01*
X24707184Y-60496180D02*
X24659565Y-60400942D01*
X24659565Y-60400942D02*
X24659565Y-60115228D01*
X24659565Y-60115228D02*
X24707184Y-60019990D01*
X24707184Y-60019990D02*
X24754803Y-59972371D01*
X24754803Y-59972371D02*
X24850041Y-59924752D01*
X24850041Y-59924752D02*
X25040517Y-59924752D01*
X25040517Y-59924752D02*
X25135755Y-59972371D01*
X25611946Y-60591419D02*
X25611946Y-59924752D01*
X25611946Y-59591419D02*
X25564327Y-59639038D01*
X25564327Y-59639038D02*
X25611946Y-59686657D01*
X25611946Y-59686657D02*
X25659565Y-59639038D01*
X25659565Y-59639038D02*
X25611946Y-59591419D01*
X25611946Y-59591419D02*
X25611946Y-59686657D01*
X25945279Y-59924752D02*
X26326231Y-59924752D01*
X26088136Y-59591419D02*
X26088136Y-60448561D01*
X26088136Y-60448561D02*
X26135755Y-60543800D01*
X26135755Y-60543800D02*
X26230993Y-60591419D01*
X26230993Y-60591419D02*
X26326231Y-60591419D01*
X26659565Y-60591419D02*
X26659565Y-59591419D01*
X27088136Y-60591419D02*
X27088136Y-60067609D01*
X27088136Y-60067609D02*
X27040517Y-59972371D01*
X27040517Y-59972371D02*
X26945279Y-59924752D01*
X26945279Y-59924752D02*
X26802422Y-59924752D01*
X26802422Y-59924752D02*
X26707184Y-59972371D01*
X26707184Y-59972371D02*
X26659565Y-60019990D01*
X27992898Y-59924752D02*
X27992898Y-60591419D01*
X27564327Y-59924752D02*
X27564327Y-60448561D01*
X27564327Y-60448561D02*
X27611946Y-60543800D01*
X27611946Y-60543800D02*
X27707184Y-60591419D01*
X27707184Y-60591419D02*
X27850041Y-60591419D01*
X27850041Y-60591419D02*
X27945279Y-60543800D01*
X27945279Y-60543800D02*
X27992898Y-60496180D01*
X28469089Y-60591419D02*
X28469089Y-59591419D01*
X28469089Y-59972371D02*
X28564327Y-59924752D01*
X28564327Y-59924752D02*
X28754803Y-59924752D01*
X28754803Y-59924752D02*
X28850041Y-59972371D01*
X28850041Y-59972371D02*
X28897660Y-60019990D01*
X28897660Y-60019990D02*
X28945279Y-60115228D01*
X28945279Y-60115228D02*
X28945279Y-60400942D01*
X28945279Y-60400942D02*
X28897660Y-60496180D01*
X28897660Y-60496180D02*
X28850041Y-60543800D01*
X28850041Y-60543800D02*
X28754803Y-60591419D01*
X28754803Y-60591419D02*
X28564327Y-60591419D01*
X28564327Y-60591419D02*
X28469089Y-60543800D01*
X29373851Y-60496180D02*
X29421470Y-60543800D01*
X29421470Y-60543800D02*
X29373851Y-60591419D01*
X29373851Y-60591419D02*
X29326232Y-60543800D01*
X29326232Y-60543800D02*
X29373851Y-60496180D01*
X29373851Y-60496180D02*
X29373851Y-60591419D01*
X30278612Y-60543800D02*
X30183374Y-60591419D01*
X30183374Y-60591419D02*
X29992898Y-60591419D01*
X29992898Y-60591419D02*
X29897660Y-60543800D01*
X29897660Y-60543800D02*
X29850041Y-60496180D01*
X29850041Y-60496180D02*
X29802422Y-60400942D01*
X29802422Y-60400942D02*
X29802422Y-60115228D01*
X29802422Y-60115228D02*
X29850041Y-60019990D01*
X29850041Y-60019990D02*
X29897660Y-59972371D01*
X29897660Y-59972371D02*
X29992898Y-59924752D01*
X29992898Y-59924752D02*
X30183374Y-59924752D01*
X30183374Y-59924752D02*
X30278612Y-59972371D01*
X30850041Y-60591419D02*
X30754803Y-60543800D01*
X30754803Y-60543800D02*
X30707184Y-60496180D01*
X30707184Y-60496180D02*
X30659565Y-60400942D01*
X30659565Y-60400942D02*
X30659565Y-60115228D01*
X30659565Y-60115228D02*
X30707184Y-60019990D01*
X30707184Y-60019990D02*
X30754803Y-59972371D01*
X30754803Y-59972371D02*
X30850041Y-59924752D01*
X30850041Y-59924752D02*
X30992898Y-59924752D01*
X30992898Y-59924752D02*
X31088136Y-59972371D01*
X31088136Y-59972371D02*
X31135755Y-60019990D01*
X31135755Y-60019990D02*
X31183374Y-60115228D01*
X31183374Y-60115228D02*
X31183374Y-60400942D01*
X31183374Y-60400942D02*
X31135755Y-60496180D01*
X31135755Y-60496180D02*
X31088136Y-60543800D01*
X31088136Y-60543800D02*
X30992898Y-60591419D01*
X30992898Y-60591419D02*
X30850041Y-60591419D01*
X31611946Y-60591419D02*
X31611946Y-59924752D01*
X31611946Y-60019990D02*
X31659565Y-59972371D01*
X31659565Y-59972371D02*
X31754803Y-59924752D01*
X31754803Y-59924752D02*
X31897660Y-59924752D01*
X31897660Y-59924752D02*
X31992898Y-59972371D01*
X31992898Y-59972371D02*
X32040517Y-60067609D01*
X32040517Y-60067609D02*
X32040517Y-60591419D01*
X32040517Y-60067609D02*
X32088136Y-59972371D01*
X32088136Y-59972371D02*
X32183374Y-59924752D01*
X32183374Y-59924752D02*
X32326231Y-59924752D01*
X32326231Y-59924752D02*
X32421470Y-59972371D01*
X32421470Y-59972371D02*
X32469089Y-60067609D01*
X32469089Y-60067609D02*
X32469089Y-60591419D01*
X33659564Y-59543800D02*
X32802422Y-60829514D01*
X33992898Y-60591419D02*
X33992898Y-59924752D01*
X33992898Y-60019990D02*
X34040517Y-59972371D01*
X34040517Y-59972371D02*
X34135755Y-59924752D01*
X34135755Y-59924752D02*
X34278612Y-59924752D01*
X34278612Y-59924752D02*
X34373850Y-59972371D01*
X34373850Y-59972371D02*
X34421469Y-60067609D01*
X34421469Y-60067609D02*
X34421469Y-60591419D01*
X34421469Y-60067609D02*
X34469088Y-59972371D01*
X34469088Y-59972371D02*
X34564326Y-59924752D01*
X34564326Y-59924752D02*
X34707183Y-59924752D01*
X34707183Y-59924752D02*
X34802422Y-59972371D01*
X34802422Y-59972371D02*
X34850041Y-60067609D01*
X34850041Y-60067609D02*
X34850041Y-60591419D01*
X35707183Y-60543800D02*
X35611945Y-60591419D01*
X35611945Y-60591419D02*
X35421469Y-60591419D01*
X35421469Y-60591419D02*
X35326231Y-60543800D01*
X35326231Y-60543800D02*
X35278612Y-60448561D01*
X35278612Y-60448561D02*
X35278612Y-60067609D01*
X35278612Y-60067609D02*
X35326231Y-59972371D01*
X35326231Y-59972371D02*
X35421469Y-59924752D01*
X35421469Y-59924752D02*
X35611945Y-59924752D01*
X35611945Y-59924752D02*
X35707183Y-59972371D01*
X35707183Y-59972371D02*
X35754802Y-60067609D01*
X35754802Y-60067609D02*
X35754802Y-60162847D01*
X35754802Y-60162847D02*
X35278612Y-60258085D01*
X36611945Y-59924752D02*
X36611945Y-60734276D01*
X36611945Y-60734276D02*
X36564326Y-60829514D01*
X36564326Y-60829514D02*
X36516707Y-60877133D01*
X36516707Y-60877133D02*
X36421469Y-60924752D01*
X36421469Y-60924752D02*
X36278612Y-60924752D01*
X36278612Y-60924752D02*
X36183374Y-60877133D01*
X36611945Y-60543800D02*
X36516707Y-60591419D01*
X36516707Y-60591419D02*
X36326231Y-60591419D01*
X36326231Y-60591419D02*
X36230993Y-60543800D01*
X36230993Y-60543800D02*
X36183374Y-60496180D01*
X36183374Y-60496180D02*
X36135755Y-60400942D01*
X36135755Y-60400942D02*
X36135755Y-60115228D01*
X36135755Y-60115228D02*
X36183374Y-60019990D01*
X36183374Y-60019990D02*
X36230993Y-59972371D01*
X36230993Y-59972371D02*
X36326231Y-59924752D01*
X36326231Y-59924752D02*
X36516707Y-59924752D01*
X36516707Y-59924752D02*
X36611945Y-59972371D01*
X37516707Y-60591419D02*
X37516707Y-60067609D01*
X37516707Y-60067609D02*
X37469088Y-59972371D01*
X37469088Y-59972371D02*
X37373850Y-59924752D01*
X37373850Y-59924752D02*
X37183374Y-59924752D01*
X37183374Y-59924752D02*
X37088136Y-59972371D01*
X37516707Y-60543800D02*
X37421469Y-60591419D01*
X37421469Y-60591419D02*
X37183374Y-60591419D01*
X37183374Y-60591419D02*
X37088136Y-60543800D01*
X37088136Y-60543800D02*
X37040517Y-60448561D01*
X37040517Y-60448561D02*
X37040517Y-60353323D01*
X37040517Y-60353323D02*
X37088136Y-60258085D01*
X37088136Y-60258085D02*
X37183374Y-60210466D01*
X37183374Y-60210466D02*
X37421469Y-60210466D01*
X37421469Y-60210466D02*
X37516707Y-60162847D01*
X38421469Y-59591419D02*
X38230993Y-59591419D01*
X38230993Y-59591419D02*
X38135755Y-59639038D01*
X38135755Y-59639038D02*
X38088136Y-59686657D01*
X38088136Y-59686657D02*
X37992898Y-59829514D01*
X37992898Y-59829514D02*
X37945279Y-60019990D01*
X37945279Y-60019990D02*
X37945279Y-60400942D01*
X37945279Y-60400942D02*
X37992898Y-60496180D01*
X37992898Y-60496180D02*
X38040517Y-60543800D01*
X38040517Y-60543800D02*
X38135755Y-60591419D01*
X38135755Y-60591419D02*
X38326231Y-60591419D01*
X38326231Y-60591419D02*
X38421469Y-60543800D01*
X38421469Y-60543800D02*
X38469088Y-60496180D01*
X38469088Y-60496180D02*
X38516707Y-60400942D01*
X38516707Y-60400942D02*
X38516707Y-60162847D01*
X38516707Y-60162847D02*
X38469088Y-60067609D01*
X38469088Y-60067609D02*
X38421469Y-60019990D01*
X38421469Y-60019990D02*
X38326231Y-59972371D01*
X38326231Y-59972371D02*
X38135755Y-59972371D01*
X38135755Y-59972371D02*
X38040517Y-60019990D01*
X38040517Y-60019990D02*
X37992898Y-60067609D01*
X37992898Y-60067609D02*
X37945279Y-60162847D01*
X39421469Y-59591419D02*
X38945279Y-59591419D01*
X38945279Y-59591419D02*
X38897660Y-60067609D01*
X38897660Y-60067609D02*
X38945279Y-60019990D01*
X38945279Y-60019990D02*
X39040517Y-59972371D01*
X39040517Y-59972371D02*
X39278612Y-59972371D01*
X39278612Y-59972371D02*
X39373850Y-60019990D01*
X39373850Y-60019990D02*
X39421469Y-60067609D01*
X39421469Y-60067609D02*
X39469088Y-60162847D01*
X39469088Y-60162847D02*
X39469088Y-60400942D01*
X39469088Y-60400942D02*
X39421469Y-60496180D01*
X39421469Y-60496180D02*
X39373850Y-60543800D01*
X39373850Y-60543800D02*
X39278612Y-60591419D01*
X39278612Y-60591419D02*
X39040517Y-60591419D01*
X39040517Y-60591419D02*
X38945279Y-60543800D01*
X38945279Y-60543800D02*
X38897660Y-60496180D01*
X40611945Y-59543800D02*
X39754803Y-60829514D01*
X40945279Y-60591419D02*
X40945279Y-59924752D01*
X40945279Y-60019990D02*
X40992898Y-59972371D01*
X40992898Y-59972371D02*
X41088136Y-59924752D01*
X41088136Y-59924752D02*
X41230993Y-59924752D01*
X41230993Y-59924752D02*
X41326231Y-59972371D01*
X41326231Y-59972371D02*
X41373850Y-60067609D01*
X41373850Y-60067609D02*
X41373850Y-60591419D01*
X41373850Y-60067609D02*
X41421469Y-59972371D01*
X41421469Y-59972371D02*
X41516707Y-59924752D01*
X41516707Y-59924752D02*
X41659564Y-59924752D01*
X41659564Y-59924752D02*
X41754803Y-59972371D01*
X41754803Y-59972371D02*
X41802422Y-60067609D01*
X41802422Y-60067609D02*
X41802422Y-60591419D01*
X42659564Y-60543800D02*
X42564326Y-60591419D01*
X42564326Y-60591419D02*
X42373850Y-60591419D01*
X42373850Y-60591419D02*
X42278612Y-60543800D01*
X42278612Y-60543800D02*
X42230993Y-60448561D01*
X42230993Y-60448561D02*
X42230993Y-60067609D01*
X42230993Y-60067609D02*
X42278612Y-59972371D01*
X42278612Y-59972371D02*
X42373850Y-59924752D01*
X42373850Y-59924752D02*
X42564326Y-59924752D01*
X42564326Y-59924752D02*
X42659564Y-59972371D01*
X42659564Y-59972371D02*
X42707183Y-60067609D01*
X42707183Y-60067609D02*
X42707183Y-60162847D01*
X42707183Y-60162847D02*
X42230993Y-60258085D01*
X43564326Y-59924752D02*
X43564326Y-60734276D01*
X43564326Y-60734276D02*
X43516707Y-60829514D01*
X43516707Y-60829514D02*
X43469088Y-60877133D01*
X43469088Y-60877133D02*
X43373850Y-60924752D01*
X43373850Y-60924752D02*
X43230993Y-60924752D01*
X43230993Y-60924752D02*
X43135755Y-60877133D01*
X43564326Y-60543800D02*
X43469088Y-60591419D01*
X43469088Y-60591419D02*
X43278612Y-60591419D01*
X43278612Y-60591419D02*
X43183374Y-60543800D01*
X43183374Y-60543800D02*
X43135755Y-60496180D01*
X43135755Y-60496180D02*
X43088136Y-60400942D01*
X43088136Y-60400942D02*
X43088136Y-60115228D01*
X43088136Y-60115228D02*
X43135755Y-60019990D01*
X43135755Y-60019990D02*
X43183374Y-59972371D01*
X43183374Y-59972371D02*
X43278612Y-59924752D01*
X43278612Y-59924752D02*
X43469088Y-59924752D01*
X43469088Y-59924752D02*
X43564326Y-59972371D01*
X44469088Y-60591419D02*
X44469088Y-60067609D01*
X44469088Y-60067609D02*
X44421469Y-59972371D01*
X44421469Y-59972371D02*
X44326231Y-59924752D01*
X44326231Y-59924752D02*
X44135755Y-59924752D01*
X44135755Y-59924752D02*
X44040517Y-59972371D01*
X44469088Y-60543800D02*
X44373850Y-60591419D01*
X44373850Y-60591419D02*
X44135755Y-60591419D01*
X44135755Y-60591419D02*
X44040517Y-60543800D01*
X44040517Y-60543800D02*
X43992898Y-60448561D01*
X43992898Y-60448561D02*
X43992898Y-60353323D01*
X43992898Y-60353323D02*
X44040517Y-60258085D01*
X44040517Y-60258085D02*
X44135755Y-60210466D01*
X44135755Y-60210466D02*
X44373850Y-60210466D01*
X44373850Y-60210466D02*
X44469088Y-60162847D01*
X44945279Y-59924752D02*
X44945279Y-60924752D01*
X44945279Y-59972371D02*
X45040517Y-59924752D01*
X45040517Y-59924752D02*
X45230993Y-59924752D01*
X45230993Y-59924752D02*
X45326231Y-59972371D01*
X45326231Y-59972371D02*
X45373850Y-60019990D01*
X45373850Y-60019990D02*
X45421469Y-60115228D01*
X45421469Y-60115228D02*
X45421469Y-60400942D01*
X45421469Y-60400942D02*
X45373850Y-60496180D01*
X45373850Y-60496180D02*
X45326231Y-60543800D01*
X45326231Y-60543800D02*
X45230993Y-60591419D01*
X45230993Y-60591419D02*
X45040517Y-60591419D01*
X45040517Y-60591419D02*
X44945279Y-60543800D01*
X45850041Y-60591419D02*
X45850041Y-59591419D01*
X46278612Y-60591419D02*
X46278612Y-60067609D01*
X46278612Y-60067609D02*
X46230993Y-59972371D01*
X46230993Y-59972371D02*
X46135755Y-59924752D01*
X46135755Y-59924752D02*
X45992898Y-59924752D01*
X45992898Y-59924752D02*
X45897660Y-59972371D01*
X45897660Y-59972371D02*
X45850041Y-60019990D01*
X46897660Y-60591419D02*
X46802422Y-60543800D01*
X46802422Y-60543800D02*
X46754803Y-60496180D01*
X46754803Y-60496180D02*
X46707184Y-60400942D01*
X46707184Y-60400942D02*
X46707184Y-60115228D01*
X46707184Y-60115228D02*
X46754803Y-60019990D01*
X46754803Y-60019990D02*
X46802422Y-59972371D01*
X46802422Y-59972371D02*
X46897660Y-59924752D01*
X46897660Y-59924752D02*
X47040517Y-59924752D01*
X47040517Y-59924752D02*
X47135755Y-59972371D01*
X47135755Y-59972371D02*
X47183374Y-60019990D01*
X47183374Y-60019990D02*
X47230993Y-60115228D01*
X47230993Y-60115228D02*
X47230993Y-60400942D01*
X47230993Y-60400942D02*
X47183374Y-60496180D01*
X47183374Y-60496180D02*
X47135755Y-60543800D01*
X47135755Y-60543800D02*
X47040517Y-60591419D01*
X47040517Y-60591419D02*
X46897660Y-60591419D01*
X47659565Y-59924752D02*
X47659565Y-60591419D01*
X47659565Y-60019990D02*
X47707184Y-59972371D01*
X47707184Y-59972371D02*
X47802422Y-59924752D01*
X47802422Y-59924752D02*
X47945279Y-59924752D01*
X47945279Y-59924752D02*
X48040517Y-59972371D01*
X48040517Y-59972371D02*
X48088136Y-60067609D01*
X48088136Y-60067609D02*
X48088136Y-60591419D01*
X48945279Y-60543800D02*
X48850041Y-60591419D01*
X48850041Y-60591419D02*
X48659565Y-60591419D01*
X48659565Y-60591419D02*
X48564327Y-60543800D01*
X48564327Y-60543800D02*
X48516708Y-60448561D01*
X48516708Y-60448561D02*
X48516708Y-60067609D01*
X48516708Y-60067609D02*
X48564327Y-59972371D01*
X48564327Y-59972371D02*
X48659565Y-59924752D01*
X48659565Y-59924752D02*
X48850041Y-59924752D01*
X48850041Y-59924752D02*
X48945279Y-59972371D01*
X48945279Y-59972371D02*
X48992898Y-60067609D01*
X48992898Y-60067609D02*
X48992898Y-60162847D01*
X48992898Y-60162847D02*
X48516708Y-60258085D01*
X49421470Y-60210466D02*
X50183375Y-60210466D01*
X50659565Y-60591419D02*
X50659565Y-59924752D01*
X50659565Y-60019990D02*
X50707184Y-59972371D01*
X50707184Y-59972371D02*
X50802422Y-59924752D01*
X50802422Y-59924752D02*
X50945279Y-59924752D01*
X50945279Y-59924752D02*
X51040517Y-59972371D01*
X51040517Y-59972371D02*
X51088136Y-60067609D01*
X51088136Y-60067609D02*
X51088136Y-60591419D01*
X51088136Y-60067609D02*
X51135755Y-59972371D01*
X51135755Y-59972371D02*
X51230993Y-59924752D01*
X51230993Y-59924752D02*
X51373850Y-59924752D01*
X51373850Y-59924752D02*
X51469089Y-59972371D01*
X51469089Y-59972371D02*
X51516708Y-60067609D01*
X51516708Y-60067609D02*
X51516708Y-60591419D01*
X52135755Y-60591419D02*
X52040517Y-60543800D01*
X52040517Y-60543800D02*
X51992898Y-60496180D01*
X51992898Y-60496180D02*
X51945279Y-60400942D01*
X51945279Y-60400942D02*
X51945279Y-60115228D01*
X51945279Y-60115228D02*
X51992898Y-60019990D01*
X51992898Y-60019990D02*
X52040517Y-59972371D01*
X52040517Y-59972371D02*
X52135755Y-59924752D01*
X52135755Y-59924752D02*
X52278612Y-59924752D01*
X52278612Y-59924752D02*
X52373850Y-59972371D01*
X52373850Y-59972371D02*
X52421469Y-60019990D01*
X52421469Y-60019990D02*
X52469088Y-60115228D01*
X52469088Y-60115228D02*
X52469088Y-60400942D01*
X52469088Y-60400942D02*
X52421469Y-60496180D01*
X52421469Y-60496180D02*
X52373850Y-60543800D01*
X52373850Y-60543800D02*
X52278612Y-60591419D01*
X52278612Y-60591419D02*
X52135755Y-60591419D01*
X53326231Y-60591419D02*
X53326231Y-59591419D01*
X53326231Y-60543800D02*
X53230993Y-60591419D01*
X53230993Y-60591419D02*
X53040517Y-60591419D01*
X53040517Y-60591419D02*
X52945279Y-60543800D01*
X52945279Y-60543800D02*
X52897660Y-60496180D01*
X52897660Y-60496180D02*
X52850041Y-60400942D01*
X52850041Y-60400942D02*
X52850041Y-60115228D01*
X52850041Y-60115228D02*
X52897660Y-60019990D01*
X52897660Y-60019990D02*
X52945279Y-59972371D01*
X52945279Y-59972371D02*
X53040517Y-59924752D01*
X53040517Y-59924752D02*
X53230993Y-59924752D01*
X53230993Y-59924752D02*
X53326231Y-59972371D01*
X54230993Y-59924752D02*
X54230993Y-60591419D01*
X53802422Y-59924752D02*
X53802422Y-60448561D01*
X53802422Y-60448561D02*
X53850041Y-60543800D01*
X53850041Y-60543800D02*
X53945279Y-60591419D01*
X53945279Y-60591419D02*
X54088136Y-60591419D01*
X54088136Y-60591419D02*
X54183374Y-60543800D01*
X54183374Y-60543800D02*
X54230993Y-60496180D01*
X54850041Y-60591419D02*
X54754803Y-60543800D01*
X54754803Y-60543800D02*
X54707184Y-60448561D01*
X54707184Y-60448561D02*
X54707184Y-59591419D01*
X55659565Y-60591419D02*
X55659565Y-60067609D01*
X55659565Y-60067609D02*
X55611946Y-59972371D01*
X55611946Y-59972371D02*
X55516708Y-59924752D01*
X55516708Y-59924752D02*
X55326232Y-59924752D01*
X55326232Y-59924752D02*
X55230994Y-59972371D01*
X55659565Y-60543800D02*
X55564327Y-60591419D01*
X55564327Y-60591419D02*
X55326232Y-60591419D01*
X55326232Y-60591419D02*
X55230994Y-60543800D01*
X55230994Y-60543800D02*
X55183375Y-60448561D01*
X55183375Y-60448561D02*
X55183375Y-60353323D01*
X55183375Y-60353323D02*
X55230994Y-60258085D01*
X55230994Y-60258085D02*
X55326232Y-60210466D01*
X55326232Y-60210466D02*
X55564327Y-60210466D01*
X55564327Y-60210466D02*
X55659565Y-60162847D01*
X56135756Y-60591419D02*
X56135756Y-59924752D01*
X56135756Y-60115228D02*
X56183375Y-60019990D01*
X56183375Y-60019990D02*
X56230994Y-59972371D01*
X56230994Y-59972371D02*
X56326232Y-59924752D01*
X56326232Y-59924752D02*
X56421470Y-59924752D01*
D11*
X55711079Y-30665819D02*
X55711079Y-29665819D01*
X56187269Y-30665819D02*
X56187269Y-29665819D01*
X56187269Y-29665819D02*
X56568221Y-29665819D01*
X56568221Y-29665819D02*
X56663459Y-29713438D01*
X56663459Y-29713438D02*
X56711078Y-29761057D01*
X56711078Y-29761057D02*
X56758697Y-29856295D01*
X56758697Y-29856295D02*
X56758697Y-29999152D01*
X56758697Y-29999152D02*
X56711078Y-30094390D01*
X56711078Y-30094390D02*
X56663459Y-30142009D01*
X56663459Y-30142009D02*
X56568221Y-30189628D01*
X56568221Y-30189628D02*
X56187269Y-30189628D01*
X57520602Y-30142009D02*
X57187269Y-30142009D01*
X57187269Y-30665819D02*
X57187269Y-29665819D01*
X57187269Y-29665819D02*
X57663459Y-29665819D01*
X58234888Y-29665819D02*
X58330126Y-29665819D01*
X58330126Y-29665819D02*
X58425364Y-29713438D01*
X58425364Y-29713438D02*
X58472983Y-29761057D01*
X58472983Y-29761057D02*
X58520602Y-29856295D01*
X58520602Y-29856295D02*
X58568221Y-30046771D01*
X58568221Y-30046771D02*
X58568221Y-30284866D01*
X58568221Y-30284866D02*
X58520602Y-30475342D01*
X58520602Y-30475342D02*
X58472983Y-30570580D01*
X58472983Y-30570580D02*
X58425364Y-30618200D01*
X58425364Y-30618200D02*
X58330126Y-30665819D01*
X58330126Y-30665819D02*
X58234888Y-30665819D01*
X58234888Y-30665819D02*
X58139650Y-30618200D01*
X58139650Y-30618200D02*
X58092031Y-30570580D01*
X58092031Y-30570580D02*
X58044412Y-30475342D01*
X58044412Y-30475342D02*
X57996793Y-30284866D01*
X57996793Y-30284866D02*
X57996793Y-30046771D01*
X57996793Y-30046771D02*
X58044412Y-29856295D01*
X58044412Y-29856295D02*
X58092031Y-29761057D01*
X58092031Y-29761057D02*
X58139650Y-29713438D01*
X58139650Y-29713438D02*
X58234888Y-29665819D01*
X59425364Y-29665819D02*
X59234888Y-29665819D01*
X59234888Y-29665819D02*
X59139650Y-29713438D01*
X59139650Y-29713438D02*
X59092031Y-29761057D01*
X59092031Y-29761057D02*
X58996793Y-29903914D01*
X58996793Y-29903914D02*
X58949174Y-30094390D01*
X58949174Y-30094390D02*
X58949174Y-30475342D01*
X58949174Y-30475342D02*
X58996793Y-30570580D01*
X58996793Y-30570580D02*
X59044412Y-30618200D01*
X59044412Y-30618200D02*
X59139650Y-30665819D01*
X59139650Y-30665819D02*
X59330126Y-30665819D01*
X59330126Y-30665819D02*
X59425364Y-30618200D01*
X59425364Y-30618200D02*
X59472983Y-30570580D01*
X59472983Y-30570580D02*
X59520602Y-30475342D01*
X59520602Y-30475342D02*
X59520602Y-30237247D01*
X59520602Y-30237247D02*
X59472983Y-30142009D01*
X59472983Y-30142009D02*
X59425364Y-30094390D01*
X59425364Y-30094390D02*
X59330126Y-30046771D01*
X59330126Y-30046771D02*
X59139650Y-30046771D01*
X59139650Y-30046771D02*
X59044412Y-30094390D01*
X59044412Y-30094390D02*
X58996793Y-30142009D01*
X58996793Y-30142009D02*
X58949174Y-30237247D01*
X59853936Y-29665819D02*
X60520602Y-29665819D01*
X60520602Y-29665819D02*
X60092031Y-30665819D01*
X60901555Y-30665819D02*
X60901555Y-29665819D01*
X60901555Y-29665819D02*
X61472983Y-30665819D01*
X61472983Y-30665819D02*
X61472983Y-29665819D01*
X61901555Y-29761057D02*
X61949174Y-29713438D01*
X61949174Y-29713438D02*
X62044412Y-29665819D01*
X62044412Y-29665819D02*
X62282507Y-29665819D01*
X62282507Y-29665819D02*
X62377745Y-29713438D01*
X62377745Y-29713438D02*
X62425364Y-29761057D01*
X62425364Y-29761057D02*
X62472983Y-29856295D01*
X62472983Y-29856295D02*
X62472983Y-29951533D01*
X62472983Y-29951533D02*
X62425364Y-30094390D01*
X62425364Y-30094390D02*
X61853936Y-30665819D01*
X61853936Y-30665819D02*
X62472983Y-30665819D01*
X63092031Y-29665819D02*
X63187269Y-29665819D01*
X63187269Y-29665819D02*
X63282507Y-29713438D01*
X63282507Y-29713438D02*
X63330126Y-29761057D01*
X63330126Y-29761057D02*
X63377745Y-29856295D01*
X63377745Y-29856295D02*
X63425364Y-30046771D01*
X63425364Y-30046771D02*
X63425364Y-30284866D01*
X63425364Y-30284866D02*
X63377745Y-30475342D01*
X63377745Y-30475342D02*
X63330126Y-30570580D01*
X63330126Y-30570580D02*
X63282507Y-30618200D01*
X63282507Y-30618200D02*
X63187269Y-30665819D01*
X63187269Y-30665819D02*
X63092031Y-30665819D01*
X63092031Y-30665819D02*
X62996793Y-30618200D01*
X62996793Y-30618200D02*
X62949174Y-30570580D01*
X62949174Y-30570580D02*
X62901555Y-30475342D01*
X62901555Y-30475342D02*
X62853936Y-30284866D01*
X62853936Y-30284866D02*
X62853936Y-30046771D01*
X62853936Y-30046771D02*
X62901555Y-29856295D01*
X62901555Y-29856295D02*
X62949174Y-29761057D01*
X62949174Y-29761057D02*
X62996793Y-29713438D01*
X62996793Y-29713438D02*
X63092031Y-29665819D01*
X63853936Y-30665819D02*
X63853936Y-29665819D01*
X63853936Y-29665819D02*
X64425364Y-30665819D01*
X64425364Y-30665819D02*
X64425364Y-29665819D01*
X64901555Y-30665819D02*
X64901555Y-29665819D01*
X64901555Y-29665819D02*
X65234888Y-30380104D01*
X65234888Y-30380104D02*
X65568221Y-29665819D01*
X65568221Y-29665819D02*
X65568221Y-30665819D01*
X66472983Y-29665819D02*
X66282507Y-29665819D01*
X66282507Y-29665819D02*
X66187269Y-29713438D01*
X66187269Y-29713438D02*
X66139650Y-29761057D01*
X66139650Y-29761057D02*
X66044412Y-29903914D01*
X66044412Y-29903914D02*
X65996793Y-30094390D01*
X65996793Y-30094390D02*
X65996793Y-30475342D01*
X65996793Y-30475342D02*
X66044412Y-30570580D01*
X66044412Y-30570580D02*
X66092031Y-30618200D01*
X66092031Y-30618200D02*
X66187269Y-30665819D01*
X66187269Y-30665819D02*
X66377745Y-30665819D01*
X66377745Y-30665819D02*
X66472983Y-30618200D01*
X66472983Y-30618200D02*
X66520602Y-30570580D01*
X66520602Y-30570580D02*
X66568221Y-30475342D01*
X66568221Y-30475342D02*
X66568221Y-30237247D01*
X66568221Y-30237247D02*
X66520602Y-30142009D01*
X66520602Y-30142009D02*
X66472983Y-30094390D01*
X66472983Y-30094390D02*
X66377745Y-30046771D01*
X66377745Y-30046771D02*
X66187269Y-30046771D01*
X66187269Y-30046771D02*
X66092031Y-30094390D01*
X66092031Y-30094390D02*
X66044412Y-30142009D01*
X66044412Y-30142009D02*
X65996793Y-30237247D01*
X66949174Y-30380104D02*
X67425364Y-30380104D01*
X66853936Y-30665819D02*
X67187269Y-29665819D01*
X67187269Y-29665819D02*
X67520602Y-30665819D01*
X67711079Y-29665819D02*
X68282507Y-29665819D01*
X67996793Y-30665819D02*
X67996793Y-29665819D01*
X68615841Y-30665819D02*
X68615841Y-29665819D01*
X68615841Y-29665819D02*
X68949174Y-30380104D01*
X68949174Y-30380104D02*
X69282507Y-29665819D01*
X69282507Y-29665819D02*
X69282507Y-30665819D01*
X69711079Y-30380104D02*
X70187269Y-30380104D01*
X69615841Y-30665819D02*
X69949174Y-29665819D01*
X69949174Y-29665819D02*
X70282507Y-30665819D01*
X71139650Y-30665819D02*
X70568222Y-30665819D01*
X70853936Y-30665819D02*
X70853936Y-29665819D01*
X70853936Y-29665819D02*
X70758698Y-29808676D01*
X70758698Y-29808676D02*
X70663460Y-29903914D01*
X70663460Y-29903914D02*
X70568222Y-29951533D01*
D10*
X85153719Y-42926523D02*
X84153719Y-42926523D01*
X84153719Y-42926523D02*
X84868004Y-42593190D01*
X84868004Y-42593190D02*
X84153719Y-42259857D01*
X84153719Y-42259857D02*
X85153719Y-42259857D01*
X84248957Y-41831285D02*
X84201338Y-41783666D01*
X84201338Y-41783666D02*
X84153719Y-41688428D01*
X84153719Y-41688428D02*
X84153719Y-41450333D01*
X84153719Y-41450333D02*
X84201338Y-41355095D01*
X84201338Y-41355095D02*
X84248957Y-41307476D01*
X84248957Y-41307476D02*
X84344195Y-41259857D01*
X84344195Y-41259857D02*
X84439433Y-41259857D01*
X84439433Y-41259857D02*
X84582290Y-41307476D01*
X84582290Y-41307476D02*
X85153719Y-41878904D01*
X85153719Y-41878904D02*
X85153719Y-41259857D01*
%LPC*%
D12*
X23006300Y-65617000D03*
G36*
G01*
X22631300Y-63292000D02*
X23381300Y-63292000D01*
G75*
G02*
X23631300Y-63542000I0J-250000D01*
G01*
X23631300Y-64292000D01*
G75*
G02*
X23381300Y-64542000I-250000J0D01*
G01*
X22631300Y-64542000D01*
G75*
G02*
X22381300Y-64292000I0J250000D01*
G01*
X22381300Y-63542000D01*
G75*
G02*
X22631300Y-63292000I250000J0D01*
G01*
G37*
X33166300Y-65617000D03*
G36*
G01*
X32791300Y-63292000D02*
X33541300Y-63292000D01*
G75*
G02*
X33791300Y-63542000I0J-250000D01*
G01*
X33791300Y-64292000D01*
G75*
G02*
X33541300Y-64542000I-250000J0D01*
G01*
X32791300Y-64542000D01*
G75*
G02*
X32541300Y-64292000I0J250000D01*
G01*
X32541300Y-63542000D01*
G75*
G02*
X32791300Y-63292000I250000J0D01*
G01*
G37*
X43326300Y-65617000D03*
G36*
G01*
X42951300Y-63292000D02*
X43701300Y-63292000D01*
G75*
G02*
X43951300Y-63542000I0J-250000D01*
G01*
X43951300Y-64292000D01*
G75*
G02*
X43701300Y-64542000I-250000J0D01*
G01*
X42951300Y-64542000D01*
G75*
G02*
X42701300Y-64292000I0J250000D01*
G01*
X42701300Y-63542000D01*
G75*
G02*
X42951300Y-63292000I250000J0D01*
G01*
G37*
X53486300Y-65617000D03*
G36*
G01*
X53111300Y-63292000D02*
X53861300Y-63292000D01*
G75*
G02*
X54111300Y-63542000I0J-250000D01*
G01*
X54111300Y-64292000D01*
G75*
G02*
X53861300Y-64542000I-250000J0D01*
G01*
X53111300Y-64542000D01*
G75*
G02*
X52861300Y-64292000I0J250000D01*
G01*
X52861300Y-63542000D01*
G75*
G02*
X53111300Y-63292000I250000J0D01*
G01*
G37*
X66186300Y-65617000D03*
G36*
G01*
X65811300Y-63292000D02*
X66561300Y-63292000D01*
G75*
G02*
X66811300Y-63542000I0J-250000D01*
G01*
X66811300Y-64292000D01*
G75*
G02*
X66561300Y-64542000I-250000J0D01*
G01*
X65811300Y-64542000D01*
G75*
G02*
X65561300Y-64292000I0J250000D01*
G01*
X65561300Y-63542000D01*
G75*
G02*
X65811300Y-63292000I250000J0D01*
G01*
G37*
X68726300Y-65617000D03*
G36*
G01*
X68351300Y-63292000D02*
X69101300Y-63292000D01*
G75*
G02*
X69351300Y-63542000I0J-250000D01*
G01*
X69351300Y-64292000D01*
G75*
G02*
X69101300Y-64542000I-250000J0D01*
G01*
X68351300Y-64542000D01*
G75*
G02*
X68101300Y-64292000I0J250000D01*
G01*
X68101300Y-63542000D01*
G75*
G02*
X68351300Y-63292000I250000J0D01*
G01*
G37*
X71266300Y-65617000D03*
G36*
G01*
X70891300Y-63292000D02*
X71641300Y-63292000D01*
G75*
G02*
X71891300Y-63542000I0J-250000D01*
G01*
X71891300Y-64292000D01*
G75*
G02*
X71641300Y-64542000I-250000J0D01*
G01*
X70891300Y-64542000D01*
G75*
G02*
X70641300Y-64292000I0J250000D01*
G01*
X70641300Y-63542000D01*
G75*
G02*
X70891300Y-63292000I250000J0D01*
G01*
G37*
X73806300Y-65617000D03*
G36*
G01*
X73431300Y-63292000D02*
X74181300Y-63292000D01*
G75*
G02*
X74431300Y-63542000I0J-250000D01*
G01*
X74431300Y-64292000D01*
G75*
G02*
X74181300Y-64542000I-250000J0D01*
G01*
X73431300Y-64542000D01*
G75*
G02*
X73181300Y-64292000I0J250000D01*
G01*
X73181300Y-63542000D01*
G75*
G02*
X73431300Y-63292000I250000J0D01*
G01*
G37*
X76346300Y-65617000D03*
G36*
G01*
X75971300Y-63292000D02*
X76721300Y-63292000D01*
G75*
G02*
X76971300Y-63542000I0J-250000D01*
G01*
X76971300Y-64292000D01*
G75*
G02*
X76721300Y-64542000I-250000J0D01*
G01*
X75971300Y-64542000D01*
G75*
G02*
X75721300Y-64292000I0J250000D01*
G01*
X75721300Y-63542000D01*
G75*
G02*
X75971300Y-63292000I250000J0D01*
G01*
G37*
X81426300Y-65617000D03*
G36*
G01*
X81051300Y-63292000D02*
X81801300Y-63292000D01*
G75*
G02*
X82051300Y-63542000I0J-250000D01*
G01*
X82051300Y-64292000D01*
G75*
G02*
X81801300Y-64542000I-250000J0D01*
G01*
X81051300Y-64542000D01*
G75*
G02*
X80801300Y-64292000I0J250000D01*
G01*
X80801300Y-63542000D01*
G75*
G02*
X81051300Y-63292000I250000J0D01*
G01*
G37*
G36*
G01*
X22631300Y-19692000D02*
X23381300Y-19692000D01*
G75*
G02*
X23631300Y-19942000I0J-250000D01*
G01*
X23631300Y-20692000D01*
G75*
G02*
X23381300Y-20942000I-250000J0D01*
G01*
X22631300Y-20942000D01*
G75*
G02*
X22381300Y-20692000I0J250000D01*
G01*
X22381300Y-19942000D01*
G75*
G02*
X22631300Y-19692000I250000J0D01*
G01*
G37*
X23006300Y-18617000D03*
G36*
G01*
X32791300Y-19692000D02*
X33541300Y-19692000D01*
G75*
G02*
X33791300Y-19942000I0J-250000D01*
G01*
X33791300Y-20692000D01*
G75*
G02*
X33541300Y-20942000I-250000J0D01*
G01*
X32791300Y-20942000D01*
G75*
G02*
X32541300Y-20692000I0J250000D01*
G01*
X32541300Y-19942000D01*
G75*
G02*
X32791300Y-19692000I250000J0D01*
G01*
G37*
X33166300Y-18617000D03*
G36*
G01*
X35331300Y-19692000D02*
X36081300Y-19692000D01*
G75*
G02*
X36331300Y-19942000I0J-250000D01*
G01*
X36331300Y-20692000D01*
G75*
G02*
X36081300Y-20942000I-250000J0D01*
G01*
X35331300Y-20942000D01*
G75*
G02*
X35081300Y-20692000I0J250000D01*
G01*
X35081300Y-19942000D01*
G75*
G02*
X35331300Y-19692000I250000J0D01*
G01*
G37*
X35706300Y-18617000D03*
G36*
G01*
X81051300Y-19692000D02*
X81801300Y-19692000D01*
G75*
G02*
X82051300Y-19942000I0J-250000D01*
G01*
X82051300Y-20692000D01*
G75*
G02*
X81801300Y-20942000I-250000J0D01*
G01*
X81051300Y-20942000D01*
G75*
G02*
X80801300Y-20692000I0J250000D01*
G01*
X80801300Y-19942000D01*
G75*
G02*
X81051300Y-19692000I250000J0D01*
G01*
G37*
X81426300Y-18617000D03*
G36*
G01*
X45385300Y-46891000D02*
X42585300Y-46891000D01*
G75*
G02*
X42335300Y-46641000I0J250000D01*
G01*
X42335300Y-42641000D01*
G75*
G02*
X42585300Y-42391000I250000J0D01*
G01*
X45385300Y-42391000D01*
G75*
G02*
X45635300Y-42641000I0J-250000D01*
G01*
X45635300Y-46641000D01*
G75*
G02*
X45385300Y-46891000I-250000J0D01*
G01*
G37*
G36*
G01*
X42585300Y-33591000D02*
X45385300Y-33591000D01*
G75*
G02*
X45635300Y-33841000I0J-250000D01*
G01*
X45635300Y-37841000D01*
G75*
G02*
X45385300Y-38091000I-250000J0D01*
G01*
X42585300Y-38091000D01*
G75*
G02*
X42335300Y-37841000I0J250000D01*
G01*
X42335300Y-33841000D01*
G75*
G02*
X42585300Y-33591000I250000J0D01*
G01*
G37*
%LPD*%
M02*
