G04 #@! TF.GenerationSoftware,KiCad,Pcbnew,9.0.1+1*
G04 #@! TF.CreationDate,2025-11-12T15:12:06+00:00*
G04 #@! TF.ProjectId,input-power-selector,696e7075-742d-4706-9f77-65722d73656c,rev?*
G04 #@! TF.SameCoordinates,Original*
G04 #@! TF.FileFunction,Copper,L1,Top*
G04 #@! TF.FilePolarity,Positive*
%FSLAX46Y46*%
G04 Gerber Fmt 4.6, Leading zero omitted, Abs format (unit mm)*
G04 Created by KiCad (PCBNEW 9.0.1+1) date 2025-11-12 15:12:06*
%MOMM*%
%LPD*%
G01*
G04 APERTURE LIST*
G04 #@! TA.AperFunction,CastellatedPad*
%ADD10R,2.000000X2.540000*%
G04 #@! TD*
G04 #@! TA.AperFunction,ViaPad*
%ADD11C,0.600000*%
G04 #@! TD*
G04 #@! TA.AperFunction,ViaPad*
%ADD12C,0.500000*%
G04 #@! TD*
G04 #@! TA.AperFunction,Conductor*
%ADD13C,0.200000*%
G04 #@! TD*
G04 #@! TA.AperFunction,Conductor*
%ADD14C,0.500000*%
G04 #@! TD*
G04 #@! TA.AperFunction,Conductor*
%ADD15C,0.750000*%
G04 #@! TD*
G04 APERTURE END LIST*
D10*
X23006300Y-65617000D03*
G04 #@! TA.AperFunction,ComponentPad*
G36*
G01*
X22631300Y-63292000D02*
X23381300Y-63292000D01*
G75*
G02*
X23631300Y-63542000I0J-250000D01*
G01*
X23631300Y-64292000D01*
G75*
G02*
X23381300Y-64542000I-250000J0D01*
G01*
X22631300Y-64542000D01*
G75*
G02*
X22381300Y-64292000I0J250000D01*
G01*
X22381300Y-63542000D01*
G75*
G02*
X22631300Y-63292000I250000J0D01*
G01*
G37*
G04 #@! TD.AperFunction*
X33166300Y-65617000D03*
G04 #@! TA.AperFunction,ComponentPad*
G36*
G01*
X32791300Y-63292000D02*
X33541300Y-63292000D01*
G75*
G02*
X33791300Y-63542000I0J-250000D01*
G01*
X33791300Y-64292000D01*
G75*
G02*
X33541300Y-64542000I-250000J0D01*
G01*
X32791300Y-64542000D01*
G75*
G02*
X32541300Y-64292000I0J250000D01*
G01*
X32541300Y-63542000D01*
G75*
G02*
X32791300Y-63292000I250000J0D01*
G01*
G37*
G04 #@! TD.AperFunction*
X43326300Y-65617000D03*
G04 #@! TA.AperFunction,ComponentPad*
G36*
G01*
X42951300Y-63292000D02*
X43701300Y-63292000D01*
G75*
G02*
X43951300Y-63542000I0J-250000D01*
G01*
X43951300Y-64292000D01*
G75*
G02*
X43701300Y-64542000I-250000J0D01*
G01*
X42951300Y-64542000D01*
G75*
G02*
X42701300Y-64292000I0J250000D01*
G01*
X42701300Y-63542000D01*
G75*
G02*
X42951300Y-63292000I250000J0D01*
G01*
G37*
G04 #@! TD.AperFunction*
X53486300Y-65617000D03*
G04 #@! TA.AperFunction,ComponentPad*
G36*
G01*
X53111300Y-63292000D02*
X53861300Y-63292000D01*
G75*
G02*
X54111300Y-63542000I0J-250000D01*
G01*
X54111300Y-64292000D01*
G75*
G02*
X53861300Y-64542000I-250000J0D01*
G01*
X53111300Y-64542000D01*
G75*
G02*
X52861300Y-64292000I0J250000D01*
G01*
X52861300Y-63542000D01*
G75*
G02*
X53111300Y-63292000I250000J0D01*
G01*
G37*
G04 #@! TD.AperFunction*
X66186300Y-65617000D03*
G04 #@! TA.AperFunction,ComponentPad*
G36*
G01*
X65811300Y-63292000D02*
X66561300Y-63292000D01*
G75*
G02*
X66811300Y-63542000I0J-250000D01*
G01*
X66811300Y-64292000D01*
G75*
G02*
X66561300Y-64542000I-250000J0D01*
G01*
X65811300Y-64542000D01*
G75*
G02*
X65561300Y-64292000I0J250000D01*
G01*
X65561300Y-63542000D01*
G75*
G02*
X65811300Y-63292000I250000J0D01*
G01*
G37*
G04 #@! TD.AperFunction*
X68726300Y-65617000D03*
G04 #@! TA.AperFunction,ComponentPad*
G36*
G01*
X68351300Y-63292000D02*
X69101300Y-63292000D01*
G75*
G02*
X69351300Y-63542000I0J-250000D01*
G01*
X69351300Y-64292000D01*
G75*
G02*
X69101300Y-64542000I-250000J0D01*
G01*
X68351300Y-64542000D01*
G75*
G02*
X68101300Y-64292000I0J250000D01*
G01*
X68101300Y-63542000D01*
G75*
G02*
X68351300Y-63292000I250000J0D01*
G01*
G37*
G04 #@! TD.AperFunction*
X71266300Y-65617000D03*
G04 #@! TA.AperFunction,ComponentPad*
G36*
G01*
X70891300Y-63292000D02*
X71641300Y-63292000D01*
G75*
G02*
X71891300Y-63542000I0J-250000D01*
G01*
X71891300Y-64292000D01*
G75*
G02*
X71641300Y-64542000I-250000J0D01*
G01*
X70891300Y-64542000D01*
G75*
G02*
X70641300Y-64292000I0J250000D01*
G01*
X70641300Y-63542000D01*
G75*
G02*
X70891300Y-63292000I250000J0D01*
G01*
G37*
G04 #@! TD.AperFunction*
X73806300Y-65617000D03*
G04 #@! TA.AperFunction,ComponentPad*
G36*
G01*
X73431300Y-63292000D02*
X74181300Y-63292000D01*
G75*
G02*
X74431300Y-63542000I0J-250000D01*
G01*
X74431300Y-64292000D01*
G75*
G02*
X74181300Y-64542000I-250000J0D01*
G01*
X73431300Y-64542000D01*
G75*
G02*
X73181300Y-64292000I0J250000D01*
G01*
X73181300Y-63542000D01*
G75*
G02*
X73431300Y-63292000I250000J0D01*
G01*
G37*
G04 #@! TD.AperFunction*
X76346300Y-65617000D03*
G04 #@! TA.AperFunction,ComponentPad*
G36*
G01*
X75971300Y-63292000D02*
X76721300Y-63292000D01*
G75*
G02*
X76971300Y-63542000I0J-250000D01*
G01*
X76971300Y-64292000D01*
G75*
G02*
X76721300Y-64542000I-250000J0D01*
G01*
X75971300Y-64542000D01*
G75*
G02*
X75721300Y-64292000I0J250000D01*
G01*
X75721300Y-63542000D01*
G75*
G02*
X75971300Y-63292000I250000J0D01*
G01*
G37*
G04 #@! TD.AperFunction*
X81426300Y-65617000D03*
G04 #@! TA.AperFunction,ComponentPad*
G36*
G01*
X81051300Y-63292000D02*
X81801300Y-63292000D01*
G75*
G02*
X82051300Y-63542000I0J-250000D01*
G01*
X82051300Y-64292000D01*
G75*
G02*
X81801300Y-64542000I-250000J0D01*
G01*
X81051300Y-64542000D01*
G75*
G02*
X80801300Y-64292000I0J250000D01*
G01*
X80801300Y-63542000D01*
G75*
G02*
X81051300Y-63292000I250000J0D01*
G01*
G37*
G04 #@! TD.AperFunction*
G04 #@! TA.AperFunction,ComponentPad*
G36*
G01*
X22631300Y-19692000D02*
X23381300Y-19692000D01*
G75*
G02*
X23631300Y-19942000I0J-250000D01*
G01*
X23631300Y-20692000D01*
G75*
G02*
X23381300Y-20942000I-250000J0D01*
G01*
X22631300Y-20942000D01*
G75*
G02*
X22381300Y-20692000I0J250000D01*
G01*
X22381300Y-19942000D01*
G75*
G02*
X22631300Y-19692000I250000J0D01*
G01*
G37*
G04 #@! TD.AperFunction*
X23006300Y-18617000D03*
G04 #@! TA.AperFunction,ComponentPad*
G36*
G01*
X32791300Y-19692000D02*
X33541300Y-19692000D01*
G75*
G02*
X33791300Y-19942000I0J-250000D01*
G01*
X33791300Y-20692000D01*
G75*
G02*
X33541300Y-20942000I-250000J0D01*
G01*
X32791300Y-20942000D01*
G75*
G02*
X32541300Y-20692000I0J250000D01*
G01*
X32541300Y-19942000D01*
G75*
G02*
X32791300Y-19692000I250000J0D01*
G01*
G37*
G04 #@! TD.AperFunction*
X33166300Y-18617000D03*
G04 #@! TA.AperFunction,ComponentPad*
G36*
G01*
X35331300Y-19692000D02*
X36081300Y-19692000D01*
G75*
G02*
X36331300Y-19942000I0J-250000D01*
G01*
X36331300Y-20692000D01*
G75*
G02*
X36081300Y-20942000I-250000J0D01*
G01*
X35331300Y-20942000D01*
G75*
G02*
X35081300Y-20692000I0J250000D01*
G01*
X35081300Y-19942000D01*
G75*
G02*
X35331300Y-19692000I250000J0D01*
G01*
G37*
G04 #@! TD.AperFunction*
X35706300Y-18617000D03*
G04 #@! TA.AperFunction,ComponentPad*
G36*
G01*
X81051300Y-19692000D02*
X81801300Y-19692000D01*
G75*
G02*
X82051300Y-19942000I0J-250000D01*
G01*
X82051300Y-20692000D01*
G75*
G02*
X81801300Y-20942000I-250000J0D01*
G01*
X81051300Y-20942000D01*
G75*
G02*
X80801300Y-20692000I0J250000D01*
G01*
X80801300Y-19942000D01*
G75*
G02*
X81051300Y-19692000I250000J0D01*
G01*
G37*
G04 #@! TD.AperFunction*
X81426300Y-18617000D03*
G04 #@! TA.AperFunction,ComponentPad*
G36*
G01*
X45385300Y-46891000D02*
X42585300Y-46891000D01*
G75*
G02*
X42335300Y-46641000I0J250000D01*
G01*
X42335300Y-42641000D01*
G75*
G02*
X42585300Y-42391000I250000J0D01*
G01*
X45385300Y-42391000D01*
G75*
G02*
X45635300Y-42641000I0J-250000D01*
G01*
X45635300Y-46641000D01*
G75*
G02*
X45385300Y-46891000I-250000J0D01*
G01*
G37*
G04 #@! TD.AperFunction*
G04 #@! TA.AperFunction,ComponentPad*
G36*
G01*
X42585300Y-33591000D02*
X45385300Y-33591000D01*
G75*
G02*
X45635300Y-33841000I0J-250000D01*
G01*
X45635300Y-37841000D01*
G75*
G02*
X45385300Y-38091000I-250000J0D01*
G01*
X42585300Y-38091000D01*
G75*
G02*
X42335300Y-37841000I0J250000D01*
G01*
X42335300Y-33841000D01*
G75*
G02*
X42585300Y-33591000I250000J0D01*
G01*
G37*
G04 #@! TD.AperFunction*
D11*
X53596300Y-37680800D03*
X55374300Y-34860000D03*
X59438300Y-44512000D03*
X59438300Y-42734000D03*
X64264300Y-48703000D03*
X60858079Y-50319831D03*
D12*
X48998900Y-56907200D03*
X50675300Y-55180000D03*
D11*
X59199298Y-50516000D03*
X59184300Y-51878000D03*
X60292300Y-56450000D03*
X59438300Y-60260000D03*
X59092300Y-57648160D03*
X60038300Y-58253400D03*
X71122300Y-51116000D03*
X64010300Y-47306000D03*
X61307565Y-53239265D03*
X56136300Y-53402000D03*
X24530300Y-41542000D03*
X47009300Y-58687000D03*
X58549300Y-46798000D03*
X72790300Y-61735000D03*
X35071300Y-62116000D03*
X62359300Y-55053000D03*
X59819300Y-40448000D03*
X57042300Y-63767000D03*
X61360300Y-59957000D03*
X31642300Y-62497000D03*
X76854300Y-54115000D03*
X67439300Y-40448000D03*
X65424300Y-60338000D03*
X54739300Y-56323000D03*
X35325300Y-47511000D03*
X27705300Y-21730000D03*
X81045300Y-62116000D03*
X29610300Y-38875000D03*
X31007300Y-31890000D03*
X69344300Y-48146000D03*
X66663465Y-47192835D03*
X66804300Y-49084000D03*
X37000300Y-39686000D03*
X38813500Y-41108400D03*
X53346950Y-39813000D03*
X57660300Y-40194000D03*
D13*
X55374300Y-35902800D02*
X55374300Y-34860000D01*
X53596300Y-37680800D02*
X55374300Y-35902800D01*
X59438300Y-44512000D02*
X59438300Y-42734000D01*
D14*
X50675300Y-55230800D02*
X48998900Y-56907200D01*
D13*
X62647469Y-50319831D02*
X64264300Y-48703000D01*
D14*
X50675300Y-55180000D02*
X50675300Y-55230800D01*
D13*
X60858079Y-50319831D02*
X62647469Y-50319831D01*
X59184300Y-50530998D02*
X59199298Y-50516000D01*
X59184300Y-51878000D02*
X59184300Y-50530998D01*
X59094140Y-57648160D02*
X60292300Y-56450000D01*
X59092300Y-57648160D02*
X59094140Y-57648160D01*
X59438300Y-57994160D02*
X59092300Y-57648160D01*
X59438300Y-60260000D02*
X59438300Y-57994160D01*
X61724300Y-53671059D02*
X61907565Y-53487794D01*
X71122300Y-51116000D02*
X69852300Y-49846000D01*
X66550300Y-49846000D02*
X65470800Y-48766500D01*
X61724300Y-52807471D02*
X61724300Y-52513000D01*
X61724300Y-52513000D02*
X65470800Y-48766500D01*
X69852300Y-49846000D02*
X66550300Y-49846000D01*
X61907565Y-53487794D02*
X61907565Y-52990736D01*
X60038300Y-58009000D02*
X61724300Y-56323000D01*
X65407300Y-48703000D02*
X64010300Y-47306000D01*
X60038300Y-58253400D02*
X60038300Y-58009000D01*
X65470800Y-48766500D02*
X65407300Y-48703000D01*
X61724300Y-56323000D02*
X61724300Y-53671059D01*
X61907565Y-52990736D02*
X61724300Y-52807471D01*
X56390300Y-53148000D02*
X56136300Y-53402000D01*
X61307565Y-53239265D02*
X61216300Y-53148000D01*
X61216300Y-53148000D02*
X56390300Y-53148000D01*
X72790300Y-58179000D02*
X72790300Y-61735000D01*
X61995300Y-63767000D02*
X57042300Y-63767000D01*
D15*
X81426300Y-19317000D02*
X79140300Y-21603000D01*
D13*
X29610300Y-38875000D02*
X31515300Y-40780000D01*
X31642300Y-48654000D02*
X31642300Y-62497000D01*
X76854300Y-54115000D02*
X72790300Y-58179000D01*
X24530300Y-41542000D02*
X31642300Y-48654000D01*
X38500300Y-58687000D02*
X35071300Y-62116000D01*
X65424300Y-60338000D02*
X61995300Y-63767000D01*
D15*
X79140300Y-21603000D02*
X78505300Y-21603000D01*
D13*
X31007300Y-31890000D02*
X31007300Y-25032000D01*
X31515300Y-40780000D02*
X31515300Y-43701000D01*
X47009300Y-58687000D02*
X38500300Y-58687000D01*
X31007300Y-25032000D02*
X27705300Y-21730000D01*
X31515300Y-43701000D02*
X35325300Y-47511000D01*
X66663465Y-47192835D02*
X66663465Y-48943165D01*
X66663465Y-48943165D02*
X66804300Y-49084000D01*
X37000300Y-39686000D02*
X37391100Y-39686000D01*
X37391100Y-39686000D02*
X38813500Y-41108400D01*
D14*
X53342300Y-39813000D02*
X53469300Y-39940000D01*
X53342300Y-39813000D02*
X53346950Y-39813000D01*
X57406300Y-39940000D02*
X57660300Y-40194000D01*
X53469300Y-39940000D02*
X57406300Y-39940000D01*
G04 #@! TA.AperFunction,Conductor*
G36*
X31608839Y-18249686D02*
G01*
X31654594Y-18302490D01*
X31665800Y-18354001D01*
X31665800Y-20634870D01*
X31665801Y-20634876D01*
X31672208Y-20694483D01*
X31722502Y-20829328D01*
X31722506Y-20829335D01*
X31808752Y-20944544D01*
X31808755Y-20944547D01*
X31923964Y-21030793D01*
X31923971Y-21030797D01*
X32058817Y-21081091D01*
X32058816Y-21081091D01*
X32065744Y-21081835D01*
X32118427Y-21087500D01*
X34214172Y-21087499D01*
X34273783Y-21081091D01*
X34392967Y-21036637D01*
X34462658Y-21031654D01*
X34479629Y-21036636D01*
X34598817Y-21081091D01*
X34598816Y-21081091D01*
X34605744Y-21081835D01*
X34658427Y-21087500D01*
X36754172Y-21087499D01*
X36813783Y-21081091D01*
X36948631Y-21030796D01*
X37063846Y-20944546D01*
X37150096Y-20829331D01*
X37200391Y-20694483D01*
X37206800Y-20634873D01*
X37206799Y-18354000D01*
X37226484Y-18286962D01*
X37279287Y-18241207D01*
X37330799Y-18230001D01*
X79802300Y-18230001D01*
X79869339Y-18249686D01*
X79915094Y-18302490D01*
X79926300Y-18354001D01*
X79926300Y-20463448D01*
X80688341Y-19701406D01*
X80705122Y-19785767D01*
X80761659Y-19922258D01*
X80843737Y-20045097D01*
X80947745Y-20149105D01*
X80116892Y-20979958D01*
X80184211Y-21030353D01*
X80184213Y-21030354D01*
X80318920Y-21080596D01*
X80318927Y-21080598D01*
X80378455Y-21086999D01*
X80378472Y-21087000D01*
X82071800Y-21087000D01*
X82138839Y-21106685D01*
X82184594Y-21159489D01*
X82195800Y-21211000D01*
X82195800Y-63023000D01*
X82176115Y-63090039D01*
X82123311Y-63135794D01*
X82071800Y-63147000D01*
X80378455Y-63147000D01*
X80318927Y-63153401D01*
X80318920Y-63153403D01*
X80184214Y-63203645D01*
X80116891Y-63254041D01*
X80947745Y-64084894D01*
X80843737Y-64188903D01*
X80761659Y-64311742D01*
X80705122Y-64448233D01*
X80688341Y-64532592D01*
X79926300Y-63770551D01*
X79926300Y-65879999D01*
X79906615Y-65947038D01*
X79853811Y-65992793D01*
X79802300Y-66003999D01*
X77970800Y-66003999D01*
X77903761Y-65984314D01*
X77858006Y-65931510D01*
X77846800Y-65879999D01*
X77846799Y-63599129D01*
X77846798Y-63599123D01*
X77846797Y-63599116D01*
X77840391Y-63539517D01*
X77790096Y-63404669D01*
X77790095Y-63404668D01*
X77790093Y-63404664D01*
X77703847Y-63289455D01*
X77703844Y-63289452D01*
X77588635Y-63203206D01*
X77588628Y-63203202D01*
X77453782Y-63152908D01*
X77453783Y-63152908D01*
X77394183Y-63146501D01*
X77394181Y-63146500D01*
X77394173Y-63146500D01*
X77394164Y-63146500D01*
X75298429Y-63146500D01*
X75298423Y-63146501D01*
X75238816Y-63152908D01*
X75119633Y-63197361D01*
X75049941Y-63202345D01*
X75032967Y-63197361D01*
X74913782Y-63152908D01*
X74913783Y-63152908D01*
X74854183Y-63146501D01*
X74854181Y-63146500D01*
X74854173Y-63146500D01*
X74854164Y-63146500D01*
X72758429Y-63146500D01*
X72758423Y-63146501D01*
X72698816Y-63152908D01*
X72579633Y-63197361D01*
X72509941Y-63202345D01*
X72492967Y-63197361D01*
X72373782Y-63152908D01*
X72373783Y-63152908D01*
X72314183Y-63146501D01*
X72314181Y-63146500D01*
X72314173Y-63146500D01*
X72314164Y-63146500D01*
X70218429Y-63146500D01*
X70218423Y-63146501D01*
X70158816Y-63152908D01*
X70039633Y-63197361D01*
X69969941Y-63202345D01*
X69952967Y-63197361D01*
X69833782Y-63152908D01*
X69833783Y-63152908D01*
X69774183Y-63146501D01*
X69774181Y-63146500D01*
X69774173Y-63146500D01*
X69774164Y-63146500D01*
X67678429Y-63146500D01*
X67678423Y-63146501D01*
X67618816Y-63152908D01*
X67499633Y-63197361D01*
X67429941Y-63202345D01*
X67412967Y-63197361D01*
X67293782Y-63152908D01*
X67293783Y-63152908D01*
X67234183Y-63146501D01*
X67234181Y-63146500D01*
X67234173Y-63146500D01*
X67234164Y-63146500D01*
X65138429Y-63146500D01*
X65138423Y-63146501D01*
X65078816Y-63152908D01*
X64943971Y-63203202D01*
X64943964Y-63203206D01*
X64828755Y-63289452D01*
X64828752Y-63289455D01*
X64742506Y-63404664D01*
X64742502Y-63404671D01*
X64692208Y-63539517D01*
X64685801Y-63599116D01*
X64685800Y-63599127D01*
X64685800Y-64783558D01*
X64685801Y-65879999D01*
X64666116Y-65947038D01*
X64613313Y-65992793D01*
X64561801Y-66003999D01*
X55110800Y-66003999D01*
X55043761Y-65984314D01*
X54998006Y-65931510D01*
X54986800Y-65879999D01*
X54986799Y-63599129D01*
X54986798Y-63599123D01*
X54986797Y-63599116D01*
X54980391Y-63539517D01*
X54930096Y-63404669D01*
X54930095Y-63404668D01*
X54930093Y-63404664D01*
X54843847Y-63289455D01*
X54843844Y-63289452D01*
X54728635Y-63203206D01*
X54728628Y-63203202D01*
X54593782Y-63152908D01*
X54593783Y-63152908D01*
X54534183Y-63146501D01*
X54534181Y-63146500D01*
X54534173Y-63146500D01*
X54534164Y-63146500D01*
X52438429Y-63146500D01*
X52438423Y-63146501D01*
X52378816Y-63152908D01*
X52243971Y-63203202D01*
X52243964Y-63203206D01*
X52128755Y-63289452D01*
X52128752Y-63289455D01*
X52042506Y-63404664D01*
X52042502Y-63404671D01*
X51992208Y-63539517D01*
X51985801Y-63599116D01*
X51985800Y-63599127D01*
X51985800Y-64783558D01*
X51985801Y-65879999D01*
X51966116Y-65947038D01*
X51913313Y-65992793D01*
X51861801Y-66003999D01*
X44950800Y-66003999D01*
X44883761Y-65984314D01*
X44838006Y-65931510D01*
X44826800Y-65879999D01*
X44826799Y-63599129D01*
X44826798Y-63599123D01*
X44826797Y-63599116D01*
X44820391Y-63539517D01*
X44770096Y-63404669D01*
X44770095Y-63404668D01*
X44770093Y-63404664D01*
X44683847Y-63289455D01*
X44683844Y-63289452D01*
X44568635Y-63203206D01*
X44568628Y-63203202D01*
X44433782Y-63152908D01*
X44433783Y-63152908D01*
X44374183Y-63146501D01*
X44374181Y-63146500D01*
X44374173Y-63146500D01*
X44374164Y-63146500D01*
X42278429Y-63146500D01*
X42278423Y-63146501D01*
X42218816Y-63152908D01*
X42083971Y-63203202D01*
X42083964Y-63203206D01*
X41968755Y-63289452D01*
X41968752Y-63289455D01*
X41882506Y-63404664D01*
X41882502Y-63404671D01*
X41832208Y-63539517D01*
X41825801Y-63599116D01*
X41825800Y-63599127D01*
X41825800Y-64783558D01*
X41825801Y-65879999D01*
X41806116Y-65947038D01*
X41753313Y-65992793D01*
X41701801Y-66003999D01*
X34790800Y-66003999D01*
X34723761Y-65984314D01*
X34678006Y-65931510D01*
X34666800Y-65879999D01*
X34666799Y-63599129D01*
X34666798Y-63599123D01*
X34666797Y-63599116D01*
X34660391Y-63539517D01*
X34610096Y-63404669D01*
X34610095Y-63404668D01*
X34610093Y-63404664D01*
X34523847Y-63289455D01*
X34523844Y-63289452D01*
X34408635Y-63203206D01*
X34408628Y-63203202D01*
X34273782Y-63152908D01*
X34273783Y-63152908D01*
X34214183Y-63146501D01*
X34214181Y-63146500D01*
X34214173Y-63146500D01*
X34214164Y-63146500D01*
X32118429Y-63146500D01*
X32118423Y-63146501D01*
X32058816Y-63152908D01*
X31923971Y-63203202D01*
X31923964Y-63203206D01*
X31808755Y-63289452D01*
X31808752Y-63289455D01*
X31722506Y-63404664D01*
X31722502Y-63404671D01*
X31672208Y-63539517D01*
X31665801Y-63599116D01*
X31665800Y-63599127D01*
X31665800Y-64783558D01*
X31665801Y-65879999D01*
X31646116Y-65947038D01*
X31593313Y-65992793D01*
X31541801Y-66003999D01*
X24630800Y-66003999D01*
X24563761Y-65984314D01*
X24518006Y-65931510D01*
X24506800Y-65879999D01*
X24506799Y-63599129D01*
X24506798Y-63599123D01*
X24506797Y-63599116D01*
X24500391Y-63539517D01*
X24450096Y-63404669D01*
X24450095Y-63404668D01*
X24450093Y-63404664D01*
X24363847Y-63289455D01*
X24363844Y-63289452D01*
X24248635Y-63203206D01*
X24248628Y-63203202D01*
X24113782Y-63152908D01*
X24113783Y-63152908D01*
X24054183Y-63146501D01*
X24054181Y-63146500D01*
X24054173Y-63146500D01*
X24054165Y-63146500D01*
X22360800Y-63146500D01*
X22293761Y-63126815D01*
X22248006Y-63074011D01*
X22236800Y-63022500D01*
X22236800Y-56907197D01*
X48243651Y-56907197D01*
X48243651Y-56907200D01*
X48247620Y-56942423D01*
X48248400Y-56956308D01*
X48248400Y-56981121D01*
X48255637Y-57017503D01*
X48257240Y-57027810D01*
X48262585Y-57075253D01*
X48262586Y-57075255D01*
X48270230Y-57097102D01*
X48274802Y-57113852D01*
X48277240Y-57126107D01*
X48277243Y-57126115D01*
X48296131Y-57171714D01*
X48298612Y-57178213D01*
X48318444Y-57234891D01*
X48324193Y-57244041D01*
X48333752Y-57262542D01*
X48333813Y-57262691D01*
X48368064Y-57313951D01*
X48369954Y-57316868D01*
X48408421Y-57378088D01*
X48412822Y-57382489D01*
X48412851Y-57382520D01*
X48524803Y-57494472D01*
X48524825Y-57494492D01*
X48528010Y-57497677D01*
X48528012Y-57497678D01*
X48589229Y-57536143D01*
X48592138Y-57538028D01*
X48643406Y-57572284D01*
X48643538Y-57572338D01*
X48662063Y-57581908D01*
X48671210Y-57587656D01*
X48727928Y-57607501D01*
X48734364Y-57609959D01*
X48779988Y-57628858D01*
X48788766Y-57630604D01*
X48792239Y-57631295D01*
X48809004Y-57635872D01*
X48830835Y-57643511D01*
X48830841Y-57643513D01*
X48878304Y-57648860D01*
X48888593Y-57650461D01*
X48924979Y-57657700D01*
X48924983Y-57657700D01*
X48949790Y-57657700D01*
X48963674Y-57658480D01*
X48998898Y-57662449D01*
X48998900Y-57662449D01*
X48998902Y-57662449D01*
X49034126Y-57658480D01*
X49048010Y-57657700D01*
X49072812Y-57657700D01*
X49072817Y-57657700D01*
X49109220Y-57650457D01*
X49119490Y-57648860D01*
X49166959Y-57643513D01*
X49188806Y-57635867D01*
X49205564Y-57631293D01*
X49217812Y-57628858D01*
X49263447Y-57609953D01*
X49269887Y-57607495D01*
X49326590Y-57587656D01*
X49335738Y-57581906D01*
X49354255Y-57572341D01*
X49354394Y-57572284D01*
X49405699Y-57538002D01*
X49408517Y-57536176D01*
X49469790Y-57497677D01*
X49470235Y-57497231D01*
X49470249Y-57497221D01*
X49470248Y-57497220D01*
X51258249Y-55709218D01*
X51258248Y-55709218D01*
X51258252Y-55709215D01*
X51321518Y-55614530D01*
X51340384Y-55586295D01*
X51372943Y-55507690D01*
X51396959Y-55449712D01*
X51425800Y-55304717D01*
X51425800Y-55229108D01*
X51426580Y-55215223D01*
X51430549Y-55180000D01*
X51430549Y-55179997D01*
X51426580Y-55144774D01*
X51425800Y-55130890D01*
X51425800Y-55106081D01*
X51418561Y-55069692D01*
X51416959Y-55059398D01*
X51411613Y-55011941D01*
X51411612Y-55011938D01*
X51403971Y-54990101D01*
X51399394Y-54973332D01*
X51396960Y-54961095D01*
X51396958Y-54961087D01*
X51378066Y-54915477D01*
X51375585Y-54908979D01*
X51374658Y-54906332D01*
X51355756Y-54852310D01*
X51350008Y-54843162D01*
X51340443Y-54824648D01*
X51340384Y-54824505D01*
X51306134Y-54773247D01*
X51304249Y-54770338D01*
X51265777Y-54709110D01*
X51146190Y-54589523D01*
X51146189Y-54589522D01*
X51084977Y-54551060D01*
X51082060Y-54549169D01*
X51030795Y-54514916D01*
X51030788Y-54514912D01*
X51030640Y-54514851D01*
X51012144Y-54505295D01*
X51002994Y-54499546D01*
X51002991Y-54499544D01*
X51002990Y-54499544D01*
X50946303Y-54479708D01*
X50939830Y-54477237D01*
X50894213Y-54458342D01*
X50894211Y-54458341D01*
X50894210Y-54458341D01*
X50888099Y-54457125D01*
X50881959Y-54455904D01*
X50865202Y-54451330D01*
X50843359Y-54443687D01*
X50843360Y-54443687D01*
X50812094Y-54440163D01*
X50795914Y-54438340D01*
X50785612Y-54436739D01*
X50749218Y-54429500D01*
X50749217Y-54429500D01*
X50724410Y-54429500D01*
X50710526Y-54428720D01*
X50675302Y-54424751D01*
X50675298Y-54424751D01*
X50640074Y-54428720D01*
X50626190Y-54429500D01*
X50601382Y-54429500D01*
X50564985Y-54436739D01*
X50554682Y-54438341D01*
X50507240Y-54443687D01*
X50507239Y-54443687D01*
X50485397Y-54451330D01*
X50468641Y-54455903D01*
X50456397Y-54458339D01*
X50456388Y-54458341D01*
X50410766Y-54477237D01*
X50404274Y-54479715D01*
X50347614Y-54499542D01*
X50347609Y-54499544D01*
X50338447Y-54505300D01*
X50319957Y-54514852D01*
X50319813Y-54514911D01*
X50319799Y-54514918D01*
X50268554Y-54549159D01*
X50265639Y-54551048D01*
X50204414Y-54589519D01*
X50204407Y-54589525D01*
X50084825Y-54709107D01*
X50084819Y-54709114D01*
X50046348Y-54770339D01*
X50044459Y-54773254D01*
X50010213Y-54824508D01*
X50007384Y-54829800D01*
X49985712Y-54859019D01*
X48415948Y-56428784D01*
X48415945Y-56428786D01*
X48415945Y-56428787D01*
X48408423Y-56436310D01*
X48408422Y-56436311D01*
X48369949Y-56497539D01*
X48368060Y-56500453D01*
X48333817Y-56551703D01*
X48333814Y-56551708D01*
X48333756Y-56551851D01*
X48324196Y-56570354D01*
X48318443Y-56579509D01*
X48298612Y-56636184D01*
X48296133Y-56642678D01*
X48277242Y-56688286D01*
X48277242Y-56688287D01*
X48274805Y-56700536D01*
X48270233Y-56717284D01*
X48262588Y-56739135D01*
X48262585Y-56739146D01*
X48257240Y-56786591D01*
X48255637Y-56796898D01*
X48248400Y-56833279D01*
X48248400Y-56858090D01*
X48247620Y-56871974D01*
X48243651Y-56907197D01*
X22236800Y-56907197D01*
X22236800Y-53401996D01*
X55330735Y-53401996D01*
X55330735Y-53402003D01*
X55350930Y-53581249D01*
X55350931Y-53581254D01*
X55410511Y-53751523D01*
X55476479Y-53856509D01*
X55506484Y-53904262D01*
X55634038Y-54031816D01*
X55786778Y-54127789D01*
X55957045Y-54187368D01*
X55957050Y-54187369D01*
X56136296Y-54207565D01*
X56136300Y-54207565D01*
X56136304Y-54207565D01*
X56315549Y-54187369D01*
X56315552Y-54187368D01*
X56315555Y-54187368D01*
X56485822Y-54127789D01*
X56638562Y-54031816D01*
X56766116Y-53904262D01*
X56827526Y-53806527D01*
X56879861Y-53760237D01*
X56932520Y-53748500D01*
X60633360Y-53748500D01*
X60700399Y-53768185D01*
X60721041Y-53784819D01*
X60805303Y-53869081D01*
X60958043Y-53965054D01*
X61040755Y-53993995D01*
X61097530Y-54034716D01*
X61123278Y-54099669D01*
X61123800Y-54111037D01*
X61123800Y-55850060D01*
X61104115Y-55917099D01*
X61051311Y-55962854D01*
X60982153Y-55972798D01*
X60918597Y-55943773D01*
X60912119Y-55937741D01*
X60794562Y-55820184D01*
X60641823Y-55724211D01*
X60471554Y-55664631D01*
X60471549Y-55664630D01*
X60292304Y-55644435D01*
X60292296Y-55644435D01*
X60113050Y-55664630D01*
X60113045Y-55664631D01*
X59942776Y-55724211D01*
X59790037Y-55820184D01*
X59662484Y-55947737D01*
X59566510Y-56100478D01*
X59506930Y-56270750D01*
X59497137Y-56357668D01*
X59470070Y-56422082D01*
X59461598Y-56431465D01*
X59075839Y-56817224D01*
X59014516Y-56850709D01*
X59002043Y-56852763D01*
X58913050Y-56862790D01*
X58742778Y-56922370D01*
X58590037Y-57018344D01*
X58462484Y-57145897D01*
X58366511Y-57298636D01*
X58306931Y-57468905D01*
X58306930Y-57468910D01*
X58286735Y-57648156D01*
X58286735Y-57648163D01*
X58306930Y-57827409D01*
X58306931Y-57827414D01*
X58366511Y-57997683D01*
X58407875Y-58063513D01*
X58462484Y-58150422D01*
X58590038Y-58277976D01*
X58742778Y-58373949D01*
X58754752Y-58378138D01*
X58811529Y-58418858D01*
X58837278Y-58483810D01*
X58837800Y-58495181D01*
X58837800Y-59677587D01*
X58818115Y-59744626D01*
X58810750Y-59754896D01*
X58808486Y-59757734D01*
X58712511Y-59910476D01*
X58652931Y-60080745D01*
X58652930Y-60080750D01*
X58632735Y-60259996D01*
X58632735Y-60260003D01*
X58652930Y-60439249D01*
X58652931Y-60439254D01*
X58712511Y-60609523D01*
X58808484Y-60762262D01*
X58936038Y-60889816D01*
X59088778Y-60985789D01*
X59259045Y-61045368D01*
X59259050Y-61045369D01*
X59438296Y-61065565D01*
X59438300Y-61065565D01*
X59438304Y-61065565D01*
X59617549Y-61045369D01*
X59617552Y-61045368D01*
X59617555Y-61045368D01*
X59787822Y-60985789D01*
X59940562Y-60889816D01*
X60068116Y-60762262D01*
X60164089Y-60609522D01*
X60223668Y-60439255D01*
X60243865Y-60260000D01*
X60223668Y-60080745D01*
X60164089Y-59910478D01*
X60068116Y-59757738D01*
X60068114Y-59757736D01*
X60068113Y-59757734D01*
X60065850Y-59754896D01*
X60064959Y-59752715D01*
X60064411Y-59751842D01*
X60064564Y-59751745D01*
X60039444Y-59690209D01*
X60038800Y-59677587D01*
X60038800Y-59169721D01*
X60058485Y-59102682D01*
X60111289Y-59056927D01*
X60148912Y-59046501D01*
X60217555Y-59038768D01*
X60387822Y-58979189D01*
X60540562Y-58883216D01*
X60668116Y-58755662D01*
X60764089Y-58602922D01*
X60823668Y-58432655D01*
X60825223Y-58418858D01*
X60843865Y-58253403D01*
X60843865Y-58253397D01*
X60830224Y-58132335D01*
X60842278Y-58063513D01*
X60865760Y-58030773D01*
X62082806Y-56813728D01*
X62082811Y-56813724D01*
X62093014Y-56803520D01*
X62093016Y-56803520D01*
X62204820Y-56691716D01*
X62269602Y-56579510D01*
X62283877Y-56554785D01*
X62324800Y-56402057D01*
X62324800Y-56243943D01*
X62324800Y-53971157D01*
X62344485Y-53904118D01*
X62361115Y-53883479D01*
X62388085Y-53856510D01*
X62438204Y-53769698D01*
X62467142Y-53719579D01*
X62508066Y-53566851D01*
X62508066Y-53408737D01*
X62508066Y-53401142D01*
X62508065Y-53401124D01*
X62508065Y-53079795D01*
X62508066Y-53079782D01*
X62508066Y-52911681D01*
X62508066Y-52911679D01*
X62467142Y-52758951D01*
X62467140Y-52758947D01*
X62463634Y-52752874D01*
X62447161Y-52684974D01*
X62470013Y-52618947D01*
X62483334Y-52603199D01*
X65383118Y-49703416D01*
X65444441Y-49669931D01*
X65514133Y-49674915D01*
X65558480Y-49703416D01*
X66181584Y-50326520D01*
X66181586Y-50326521D01*
X66181590Y-50326524D01*
X66291899Y-50390210D01*
X66318516Y-50405577D01*
X66471243Y-50446501D01*
X66471245Y-50446501D01*
X66636954Y-50446501D01*
X66636970Y-50446500D01*
X69552203Y-50446500D01*
X69619242Y-50466185D01*
X69639884Y-50482819D01*
X70291598Y-51134533D01*
X70325083Y-51195856D01*
X70327137Y-51208330D01*
X70336930Y-51295249D01*
X70396510Y-51465521D01*
X70436069Y-51528478D01*
X70492484Y-51618262D01*
X70620038Y-51745816D01*
X70772778Y-51841789D01*
X70876252Y-51877996D01*
X70943045Y-51901368D01*
X70943050Y-51901369D01*
X71122296Y-51921565D01*
X71122300Y-51921565D01*
X71122304Y-51921565D01*
X71301549Y-51901369D01*
X71301552Y-51901368D01*
X71301555Y-51901368D01*
X71471822Y-51841789D01*
X71624562Y-51745816D01*
X71752116Y-51618262D01*
X71848089Y-51465522D01*
X71907668Y-51295255D01*
X71917462Y-51208330D01*
X71927865Y-51116003D01*
X71927865Y-51115996D01*
X71907669Y-50936750D01*
X71907668Y-50936745D01*
X71882746Y-50865521D01*
X71848089Y-50766478D01*
X71752116Y-50613738D01*
X71624562Y-50486184D01*
X71561407Y-50446501D01*
X71471821Y-50390210D01*
X71301549Y-50330630D01*
X71214630Y-50320837D01*
X71150216Y-50293770D01*
X71140833Y-50285298D01*
X70339890Y-49484355D01*
X70339888Y-49484352D01*
X70221017Y-49365481D01*
X70221012Y-49365477D01*
X70113663Y-49303500D01*
X70113661Y-49303499D01*
X70084087Y-49286424D01*
X70084086Y-49286423D01*
X70084085Y-49286423D01*
X69931357Y-49245499D01*
X69773243Y-49245499D01*
X69765647Y-49245499D01*
X69765631Y-49245500D01*
X67730424Y-49245500D01*
X67663385Y-49225815D01*
X67617630Y-49173011D01*
X67607204Y-49107615D01*
X67609865Y-49084000D01*
X67609865Y-49083996D01*
X67589669Y-48904750D01*
X67589668Y-48904745D01*
X67530088Y-48734476D01*
X67490882Y-48672080D01*
X67434116Y-48581738D01*
X67306562Y-48454184D01*
X67301638Y-48449260D01*
X67303557Y-48447340D01*
X67270508Y-48400246D01*
X67263965Y-48360499D01*
X67263965Y-47775247D01*
X67283650Y-47708208D01*
X67291020Y-47697932D01*
X67293275Y-47695102D01*
X67293281Y-47695097D01*
X67389254Y-47542357D01*
X67448833Y-47372090D01*
X67454047Y-47325814D01*
X67469030Y-47192838D01*
X67469030Y-47192831D01*
X67448834Y-47013585D01*
X67448833Y-47013580D01*
X67389253Y-46843311D01*
X67350047Y-46780915D01*
X67293281Y-46690573D01*
X67165727Y-46563019D01*
X67098267Y-46520631D01*
X67012988Y-46467046D01*
X66842719Y-46407466D01*
X66842714Y-46407465D01*
X66663469Y-46387270D01*
X66663461Y-46387270D01*
X66484215Y-46407465D01*
X66484210Y-46407466D01*
X66313941Y-46467046D01*
X66161202Y-46563019D01*
X66033649Y-46690572D01*
X65937676Y-46843311D01*
X65878096Y-47013580D01*
X65878095Y-47013585D01*
X65857900Y-47192831D01*
X65857900Y-47192838D01*
X65878095Y-47372084D01*
X65878096Y-47372089D01*
X65937676Y-47542358D01*
X66033650Y-47695098D01*
X66035910Y-47697932D01*
X66036799Y-47700110D01*
X66037354Y-47700993D01*
X66037199Y-47701090D01*
X66062320Y-47762618D01*
X66062965Y-47775247D01*
X66062965Y-48210067D01*
X66043280Y-48277106D01*
X65990476Y-48322861D01*
X65921318Y-48332805D01*
X65857762Y-48303780D01*
X65851284Y-48297749D01*
X65830641Y-48277106D01*
X65776016Y-48222481D01*
X64841000Y-47287465D01*
X64807515Y-47226142D01*
X64805463Y-47213686D01*
X64795668Y-47126745D01*
X64736089Y-46956478D01*
X64640116Y-46803738D01*
X64512562Y-46676184D01*
X64359823Y-46580211D01*
X64189554Y-46520631D01*
X64189549Y-46520630D01*
X64010304Y-46500435D01*
X64010296Y-46500435D01*
X63831050Y-46520630D01*
X63831045Y-46520631D01*
X63660776Y-46580211D01*
X63508037Y-46676184D01*
X63380484Y-46803737D01*
X63284511Y-46956476D01*
X63224931Y-47126745D01*
X63224930Y-47126750D01*
X63204735Y-47305996D01*
X63204735Y-47306003D01*
X63224930Y-47485249D01*
X63224931Y-47485254D01*
X63284511Y-47655523D01*
X63327798Y-47724413D01*
X63380484Y-47808262D01*
X63508038Y-47935816D01*
X63592638Y-47988974D01*
X63616727Y-48004110D01*
X63663018Y-48056445D01*
X63673666Y-48125499D01*
X63645291Y-48189347D01*
X63638441Y-48196780D01*
X63634484Y-48200737D01*
X63538510Y-48353478D01*
X63478930Y-48523750D01*
X63469137Y-48610668D01*
X63442070Y-48675082D01*
X63433598Y-48684465D01*
X62435053Y-49683012D01*
X62373730Y-49716497D01*
X62347372Y-49719331D01*
X61440491Y-49719331D01*
X61373452Y-49699646D01*
X61363176Y-49692276D01*
X61360342Y-49690016D01*
X61360341Y-49690015D01*
X61303575Y-49654346D01*
X61207602Y-49594042D01*
X61037333Y-49534462D01*
X61037328Y-49534461D01*
X60858083Y-49514266D01*
X60858075Y-49514266D01*
X60678829Y-49534461D01*
X60678824Y-49534462D01*
X60508555Y-49594042D01*
X60355816Y-49690015D01*
X60228263Y-49817568D01*
X60132288Y-49970310D01*
X60099127Y-50065079D01*
X60058405Y-50121854D01*
X59993452Y-50147601D01*
X59924891Y-50134144D01*
X59877092Y-50090095D01*
X59829114Y-50013738D01*
X59701560Y-49886184D01*
X59548821Y-49790211D01*
X59378552Y-49730631D01*
X59378547Y-49730630D01*
X59199302Y-49710435D01*
X59199294Y-49710435D01*
X59020048Y-49730630D01*
X59020043Y-49730631D01*
X58849774Y-49790211D01*
X58697035Y-49886184D01*
X58569482Y-50013737D01*
X58473509Y-50166476D01*
X58413929Y-50336745D01*
X58413928Y-50336750D01*
X58393733Y-50515996D01*
X58393733Y-50516003D01*
X58413928Y-50695249D01*
X58413929Y-50695254D01*
X58473509Y-50865524D01*
X58564793Y-51010799D01*
X58583800Y-51076772D01*
X58583800Y-51295587D01*
X58564115Y-51362626D01*
X58556750Y-51372896D01*
X58554486Y-51375734D01*
X58458511Y-51528476D01*
X58398931Y-51698745D01*
X58398930Y-51698750D01*
X58378735Y-51877996D01*
X58378735Y-51878003D01*
X58398930Y-52057249D01*
X58398931Y-52057254D01*
X58458511Y-52227523D01*
X58540199Y-52357528D01*
X58559199Y-52424765D01*
X58538831Y-52491600D01*
X58485563Y-52536814D01*
X58435205Y-52547500D01*
X56311242Y-52547500D01*
X56158509Y-52588424D01*
X56156408Y-52589295D01*
X56122851Y-52597949D01*
X55957049Y-52616630D01*
X55957045Y-52616631D01*
X55786776Y-52676211D01*
X55634037Y-52772184D01*
X55506484Y-52899737D01*
X55410511Y-53052476D01*
X55350931Y-53222745D01*
X55350930Y-53222750D01*
X55330735Y-53401996D01*
X22236800Y-53401996D01*
X22236800Y-42590983D01*
X41834800Y-42590983D01*
X41834800Y-46691001D01*
X41834801Y-46691018D01*
X41845300Y-46793796D01*
X41845301Y-46793799D01*
X41848595Y-46803738D01*
X41900486Y-46960334D01*
X41992588Y-47109656D01*
X42116644Y-47233712D01*
X42265966Y-47325814D01*
X42432503Y-47380999D01*
X42535291Y-47391500D01*
X45435308Y-47391499D01*
X45538097Y-47380999D01*
X45704634Y-47325814D01*
X45853956Y-47233712D01*
X45978012Y-47109656D01*
X46070114Y-46960334D01*
X46125299Y-46793797D01*
X46135800Y-46691009D01*
X46135799Y-42733996D01*
X58632735Y-42733996D01*
X58632735Y-42734003D01*
X58652930Y-42913249D01*
X58652931Y-42913254D01*
X58712511Y-43083523D01*
X58808485Y-43236263D01*
X58810745Y-43239097D01*
X58811634Y-43241275D01*
X58812189Y-43242158D01*
X58812034Y-43242255D01*
X58837155Y-43303783D01*
X58837800Y-43316412D01*
X58837800Y-43929587D01*
X58818115Y-43996626D01*
X58810750Y-44006896D01*
X58808486Y-44009734D01*
X58712511Y-44162476D01*
X58652931Y-44332745D01*
X58652930Y-44332750D01*
X58632735Y-44511996D01*
X58632735Y-44512003D01*
X58652930Y-44691249D01*
X58652931Y-44691254D01*
X58712511Y-44861523D01*
X58808484Y-45014262D01*
X58936038Y-45141816D01*
X59088778Y-45237789D01*
X59259045Y-45297368D01*
X59259050Y-45297369D01*
X59438296Y-45317565D01*
X59438300Y-45317565D01*
X59438304Y-45317565D01*
X59617549Y-45297369D01*
X59617552Y-45297368D01*
X59617555Y-45297368D01*
X59787822Y-45237789D01*
X59940562Y-45141816D01*
X60068116Y-45014262D01*
X60164089Y-44861522D01*
X60223668Y-44691255D01*
X60243865Y-44512000D01*
X60223668Y-44332745D01*
X60164089Y-44162478D01*
X60068116Y-44009738D01*
X60068114Y-44009736D01*
X60068113Y-44009734D01*
X60065850Y-44006896D01*
X60064959Y-44004715D01*
X60064411Y-44003842D01*
X60064564Y-44003745D01*
X60039444Y-43942209D01*
X60038800Y-43929587D01*
X60038800Y-43316412D01*
X60058485Y-43249373D01*
X60065855Y-43239097D01*
X60068110Y-43236267D01*
X60068116Y-43236262D01*
X60164089Y-43083522D01*
X60223668Y-42913255D01*
X60243865Y-42734000D01*
X60223668Y-42554745D01*
X60164089Y-42384478D01*
X60068116Y-42231738D01*
X59940562Y-42104184D01*
X59851606Y-42048289D01*
X59787823Y-42008211D01*
X59617554Y-41948631D01*
X59617549Y-41948630D01*
X59438304Y-41928435D01*
X59438296Y-41928435D01*
X59259050Y-41948630D01*
X59259045Y-41948631D01*
X59088776Y-42008211D01*
X58936037Y-42104184D01*
X58808484Y-42231737D01*
X58712511Y-42384476D01*
X58652931Y-42554745D01*
X58652930Y-42554750D01*
X58632735Y-42733996D01*
X46135799Y-42733996D01*
X46135799Y-42590992D01*
X46125299Y-42488203D01*
X46070114Y-42321666D01*
X45978012Y-42172344D01*
X45853956Y-42048288D01*
X45704634Y-41956186D01*
X45538097Y-41901001D01*
X45538095Y-41901000D01*
X45435310Y-41890500D01*
X42535298Y-41890500D01*
X42535281Y-41890501D01*
X42432503Y-41901000D01*
X42432500Y-41901001D01*
X42265968Y-41956185D01*
X42265963Y-41956187D01*
X42116642Y-42048289D01*
X41992589Y-42172342D01*
X41900487Y-42321663D01*
X41900486Y-42321666D01*
X41845301Y-42488203D01*
X41845301Y-42488204D01*
X41845300Y-42488204D01*
X41834800Y-42590983D01*
X22236800Y-42590983D01*
X22236800Y-39685996D01*
X36194735Y-39685996D01*
X36194735Y-39686003D01*
X36214930Y-39865249D01*
X36214931Y-39865254D01*
X36274511Y-40035523D01*
X36354310Y-40162522D01*
X36370484Y-40188262D01*
X36498038Y-40315816D01*
X36588380Y-40372582D01*
X36604341Y-40382611D01*
X36650778Y-40411789D01*
X36739448Y-40442816D01*
X36821045Y-40471368D01*
X36821050Y-40471369D01*
X37000296Y-40491565D01*
X37000300Y-40491565D01*
X37000304Y-40491565D01*
X37179547Y-40471369D01*
X37179547Y-40471368D01*
X37179555Y-40471368D01*
X37215411Y-40458820D01*
X37285186Y-40455258D01*
X37344046Y-40488181D01*
X37982798Y-41126933D01*
X38016283Y-41188256D01*
X38018337Y-41200730D01*
X38028130Y-41287649D01*
X38087710Y-41457921D01*
X38183684Y-41610662D01*
X38311238Y-41738216D01*
X38463978Y-41834189D01*
X38624906Y-41890500D01*
X38634245Y-41893768D01*
X38634250Y-41893769D01*
X38813496Y-41913965D01*
X38813500Y-41913965D01*
X38813504Y-41913965D01*
X38992749Y-41893769D01*
X38992752Y-41893768D01*
X38992755Y-41893768D01*
X39163022Y-41834189D01*
X39315762Y-41738216D01*
X39443316Y-41610662D01*
X39539289Y-41457922D01*
X39598868Y-41287655D01*
X39608662Y-41200730D01*
X39619065Y-41108403D01*
X39619065Y-41108396D01*
X39598869Y-40929150D01*
X39598868Y-40929145D01*
X39539288Y-40758876D01*
X39478202Y-40661659D01*
X39443316Y-40606138D01*
X39315762Y-40478584D01*
X39304278Y-40471368D01*
X39163021Y-40382610D01*
X38992749Y-40323030D01*
X38905830Y-40313237D01*
X38841416Y-40286170D01*
X38832033Y-40277698D01*
X38367331Y-39812996D01*
X52541385Y-39812996D01*
X52541385Y-39813003D01*
X52561580Y-39992249D01*
X52561581Y-39992254D01*
X52621161Y-40162523D01*
X52693531Y-40277698D01*
X52717134Y-40315262D01*
X52844688Y-40442816D01*
X52997428Y-40538789D01*
X53018603Y-40546198D01*
X53046533Y-40560134D01*
X53113805Y-40605084D01*
X53113808Y-40605085D01*
X53113809Y-40605086D01*
X53250382Y-40661656D01*
X53250387Y-40661658D01*
X53250391Y-40661658D01*
X53250392Y-40661659D01*
X53395379Y-40690500D01*
X53395382Y-40690500D01*
X53395383Y-40690500D01*
X53543217Y-40690500D01*
X56973359Y-40690500D01*
X57040398Y-40710185D01*
X57061040Y-40726818D01*
X57158038Y-40823816D01*
X57310778Y-40919789D01*
X57481045Y-40979368D01*
X57481050Y-40979369D01*
X57660296Y-40999565D01*
X57660300Y-40999565D01*
X57660304Y-40999565D01*
X57839549Y-40979369D01*
X57839552Y-40979368D01*
X57839555Y-40979368D01*
X58009822Y-40919789D01*
X58162562Y-40823816D01*
X58290116Y-40696262D01*
X58386089Y-40543522D01*
X58445668Y-40373255D01*
X58452140Y-40315815D01*
X58465865Y-40194003D01*
X58465865Y-40193996D01*
X58445669Y-40014750D01*
X58445668Y-40014745D01*
X58386088Y-39844476D01*
X58290115Y-39691737D01*
X58162562Y-39564184D01*
X58071148Y-39506745D01*
X58009822Y-39468211D01*
X58009819Y-39468210D01*
X58009816Y-39468208D01*
X58003542Y-39465186D01*
X58004423Y-39463356D01*
X57968361Y-39440693D01*
X57884716Y-39357048D01*
X57884715Y-39357047D01*
X57884714Y-39357046D01*
X57811029Y-39307812D01*
X57811029Y-39307813D01*
X57761791Y-39274913D01*
X57625217Y-39218343D01*
X57625207Y-39218340D01*
X57480220Y-39189500D01*
X57480218Y-39189500D01*
X53894988Y-39189500D01*
X53829016Y-39170494D01*
X53696473Y-39087211D01*
X53526204Y-39027631D01*
X53526199Y-39027630D01*
X53346954Y-39007435D01*
X53346946Y-39007435D01*
X53167700Y-39027630D01*
X53167695Y-39027631D01*
X52997426Y-39087211D01*
X52844687Y-39183184D01*
X52717134Y-39310737D01*
X52621161Y-39463476D01*
X52561581Y-39633745D01*
X52561580Y-39633750D01*
X52541385Y-39812996D01*
X38367331Y-39812996D01*
X37878690Y-39324355D01*
X37878688Y-39324352D01*
X37759817Y-39205481D01*
X37759816Y-39205480D01*
X37673004Y-39155360D01*
X37673004Y-39155359D01*
X37673000Y-39155358D01*
X37622885Y-39126423D01*
X37586559Y-39116689D01*
X37530974Y-39084596D01*
X37502562Y-39056184D01*
X37349823Y-38960211D01*
X37179554Y-38900631D01*
X37179549Y-38900630D01*
X37000304Y-38880435D01*
X37000296Y-38880435D01*
X36821050Y-38900630D01*
X36821045Y-38900631D01*
X36650776Y-38960211D01*
X36498037Y-39056184D01*
X36370484Y-39183737D01*
X36274511Y-39336476D01*
X36214931Y-39506745D01*
X36214930Y-39506750D01*
X36194735Y-39685996D01*
X22236800Y-39685996D01*
X22236800Y-33790983D01*
X41834800Y-33790983D01*
X41834800Y-37891001D01*
X41834801Y-37891018D01*
X41845300Y-37993796D01*
X41845301Y-37993799D01*
X41900485Y-38160331D01*
X41900486Y-38160334D01*
X41992588Y-38309656D01*
X42116644Y-38433712D01*
X42265966Y-38525814D01*
X42432503Y-38580999D01*
X42535291Y-38591500D01*
X45435308Y-38591499D01*
X45538097Y-38580999D01*
X45704634Y-38525814D01*
X45853956Y-38433712D01*
X45978012Y-38309656D01*
X46070114Y-38160334D01*
X46125299Y-37993797D01*
X46135800Y-37891009D01*
X46135800Y-37680796D01*
X52790735Y-37680796D01*
X52790735Y-37680803D01*
X52810930Y-37860049D01*
X52810931Y-37860054D01*
X52870511Y-38030323D01*
X52952201Y-38160331D01*
X52966484Y-38183062D01*
X53094038Y-38310616D01*
X53246778Y-38406589D01*
X53417045Y-38466168D01*
X53417050Y-38466169D01*
X53596296Y-38486365D01*
X53596300Y-38486365D01*
X53596304Y-38486365D01*
X53775549Y-38466169D01*
X53775552Y-38466168D01*
X53775555Y-38466168D01*
X53945822Y-38406589D01*
X54098562Y-38310616D01*
X54226116Y-38183062D01*
X54322089Y-38030322D01*
X54381668Y-37860055D01*
X54391461Y-37773129D01*
X54418526Y-37708718D01*
X54426990Y-37699343D01*
X55854820Y-36271516D01*
X55933877Y-36134584D01*
X55974801Y-35981857D01*
X55974801Y-35823742D01*
X55974801Y-35816147D01*
X55974800Y-35816129D01*
X55974800Y-35442412D01*
X55994485Y-35375373D01*
X56001855Y-35365097D01*
X56004110Y-35362267D01*
X56004116Y-35362262D01*
X56100089Y-35209522D01*
X56159668Y-35039255D01*
X56179865Y-34860000D01*
X56159668Y-34680745D01*
X56100089Y-34510478D01*
X56004116Y-34357738D01*
X55876562Y-34230184D01*
X55723823Y-34134211D01*
X55553554Y-34074631D01*
X55553549Y-34074630D01*
X55374304Y-34054435D01*
X55374296Y-34054435D01*
X55195050Y-34074630D01*
X55195045Y-34074631D01*
X55024776Y-34134211D01*
X54872037Y-34230184D01*
X54744484Y-34357737D01*
X54648511Y-34510476D01*
X54588931Y-34680745D01*
X54588930Y-34680750D01*
X54568735Y-34859996D01*
X54568735Y-34860003D01*
X54588930Y-35039249D01*
X54588931Y-35039254D01*
X54648511Y-35209523D01*
X54744485Y-35362263D01*
X54746745Y-35365097D01*
X54747634Y-35367275D01*
X54748189Y-35368158D01*
X54748034Y-35368255D01*
X54773155Y-35429783D01*
X54773800Y-35442412D01*
X54773800Y-35602702D01*
X54754115Y-35669741D01*
X54737481Y-35690383D01*
X53577765Y-36850098D01*
X53516442Y-36883583D01*
X53503968Y-36885637D01*
X53417050Y-36895430D01*
X53246778Y-36955010D01*
X53094037Y-37050984D01*
X52966484Y-37178537D01*
X52870511Y-37331276D01*
X52810931Y-37501545D01*
X52810930Y-37501550D01*
X52790735Y-37680796D01*
X46135800Y-37680796D01*
X46135799Y-33790992D01*
X46125299Y-33688203D01*
X46070114Y-33521666D01*
X45978012Y-33372344D01*
X45853956Y-33248288D01*
X45704634Y-33156186D01*
X45538097Y-33101001D01*
X45538095Y-33101000D01*
X45435310Y-33090500D01*
X42535298Y-33090500D01*
X42535281Y-33090501D01*
X42432503Y-33101000D01*
X42432500Y-33101001D01*
X42265968Y-33156185D01*
X42265963Y-33156187D01*
X42116642Y-33248289D01*
X41992589Y-33372342D01*
X41900487Y-33521663D01*
X41900486Y-33521666D01*
X41845301Y-33688203D01*
X41845301Y-33688204D01*
X41845300Y-33688204D01*
X41834800Y-33790983D01*
X22236800Y-33790983D01*
X22236800Y-21211499D01*
X22256485Y-21144460D01*
X22309289Y-21098705D01*
X22360800Y-21087499D01*
X24054171Y-21087499D01*
X24054172Y-21087499D01*
X24113783Y-21081091D01*
X24248631Y-21030796D01*
X24363846Y-20944546D01*
X24450096Y-20829331D01*
X24500391Y-20694483D01*
X24506800Y-20634873D01*
X24506799Y-18354000D01*
X24526484Y-18286962D01*
X24579287Y-18241207D01*
X24630799Y-18230001D01*
X31541800Y-18230001D01*
X31608839Y-18249686D01*
G37*
G04 #@! TD.AperFunction*
M02*
