G04 #@! TF.GenerationSoftware,KiCad,Pcbnew,9.0.1+1*
G04 #@! TF.CreationDate,2025-11-11T14:39:42+00:00*
G04 #@! TF.ProjectId,input-power-selector,696e7075-742d-4706-9f77-65722d73656c,rev?*
G04 #@! TF.SameCoordinates,Original*
G04 #@! TF.FileFunction,Copper,L2,Bot*
G04 #@! TF.FilePolarity,Positive*
%FSLAX46Y46*%
G04 Gerber Fmt 4.6, Leading zero omitted, Abs format (unit mm)*
G04 Created by KiCad (PCBNEW 9.0.1+1) date 2025-11-11 14:39:42*
%MOMM*%
%LPD*%
G01*
G04 APERTURE LIST*
G04 #@! TA.AperFunction,CastellatedPad*
%ADD10R,2.000000X2.540000*%
G04 #@! TD*
G04 #@! TA.AperFunction,SMDPad,CuDef*
%ADD11R,1.460500X0.558800*%
G04 #@! TD*
G04 #@! TA.AperFunction,SMDPad,CuDef*
%ADD12R,0.600000X0.600000*%
G04 #@! TD*
G04 #@! TA.AperFunction,SMDPad,CuDef*
%ADD13R,1.200000X0.400000*%
G04 #@! TD*
G04 #@! TA.AperFunction,SMDPad,CuDef*
%ADD14R,4.600000X0.800000*%
G04 #@! TD*
G04 #@! TA.AperFunction,SMDPad,CuDef*
%ADD15R,9.400000X10.800000*%
G04 #@! TD*
G04 #@! TA.AperFunction,SMDPad,CuDef*
%ADD16R,0.842900X0.736600*%
G04 #@! TD*
G04 #@! TA.AperFunction,SMDPad,CuDef*
%ADD17R,2.032000X1.778000*%
G04 #@! TD*
G04 #@! TA.AperFunction,SMDPad,CuDef*
%ADD18R,0.533400X0.685800*%
G04 #@! TD*
G04 #@! TA.AperFunction,ViaPad*
%ADD19C,0.600000*%
G04 #@! TD*
G04 #@! TA.AperFunction,ViaPad*
%ADD20C,0.500000*%
G04 #@! TD*
G04 #@! TA.AperFunction,Conductor*
%ADD21C,0.200000*%
G04 #@! TD*
G04 #@! TA.AperFunction,Conductor*
%ADD22C,1.000000*%
G04 #@! TD*
G04 #@! TA.AperFunction,Conductor*
%ADD23C,0.500000*%
G04 #@! TD*
G04 #@! TA.AperFunction,Conductor*
%ADD24C,0.750000*%
G04 #@! TD*
G04 APERTURE END LIST*
D10*
X23006300Y-65617000D03*
G04 #@! TA.AperFunction,ComponentPad*
G36*
G01*
X22631300Y-63292000D02*
X23381300Y-63292000D01*
G75*
G02*
X23631300Y-63542000I0J-250000D01*
G01*
X23631300Y-64292000D01*
G75*
G02*
X23381300Y-64542000I-250000J0D01*
G01*
X22631300Y-64542000D01*
G75*
G02*
X22381300Y-64292000I0J250000D01*
G01*
X22381300Y-63542000D01*
G75*
G02*
X22631300Y-63292000I250000J0D01*
G01*
G37*
G04 #@! TD.AperFunction*
X33166300Y-65617000D03*
G04 #@! TA.AperFunction,ComponentPad*
G36*
G01*
X32791300Y-63292000D02*
X33541300Y-63292000D01*
G75*
G02*
X33791300Y-63542000I0J-250000D01*
G01*
X33791300Y-64292000D01*
G75*
G02*
X33541300Y-64542000I-250000J0D01*
G01*
X32791300Y-64542000D01*
G75*
G02*
X32541300Y-64292000I0J250000D01*
G01*
X32541300Y-63542000D01*
G75*
G02*
X32791300Y-63292000I250000J0D01*
G01*
G37*
G04 #@! TD.AperFunction*
X43326300Y-65617000D03*
G04 #@! TA.AperFunction,ComponentPad*
G36*
G01*
X42951300Y-63292000D02*
X43701300Y-63292000D01*
G75*
G02*
X43951300Y-63542000I0J-250000D01*
G01*
X43951300Y-64292000D01*
G75*
G02*
X43701300Y-64542000I-250000J0D01*
G01*
X42951300Y-64542000D01*
G75*
G02*
X42701300Y-64292000I0J250000D01*
G01*
X42701300Y-63542000D01*
G75*
G02*
X42951300Y-63292000I250000J0D01*
G01*
G37*
G04 #@! TD.AperFunction*
X53486300Y-65617000D03*
G04 #@! TA.AperFunction,ComponentPad*
G36*
G01*
X53111300Y-63292000D02*
X53861300Y-63292000D01*
G75*
G02*
X54111300Y-63542000I0J-250000D01*
G01*
X54111300Y-64292000D01*
G75*
G02*
X53861300Y-64542000I-250000J0D01*
G01*
X53111300Y-64542000D01*
G75*
G02*
X52861300Y-64292000I0J250000D01*
G01*
X52861300Y-63542000D01*
G75*
G02*
X53111300Y-63292000I250000J0D01*
G01*
G37*
G04 #@! TD.AperFunction*
X66186300Y-65617000D03*
G04 #@! TA.AperFunction,ComponentPad*
G36*
G01*
X65811300Y-63292000D02*
X66561300Y-63292000D01*
G75*
G02*
X66811300Y-63542000I0J-250000D01*
G01*
X66811300Y-64292000D01*
G75*
G02*
X66561300Y-64542000I-250000J0D01*
G01*
X65811300Y-64542000D01*
G75*
G02*
X65561300Y-64292000I0J250000D01*
G01*
X65561300Y-63542000D01*
G75*
G02*
X65811300Y-63292000I250000J0D01*
G01*
G37*
G04 #@! TD.AperFunction*
X68726300Y-65617000D03*
G04 #@! TA.AperFunction,ComponentPad*
G36*
G01*
X68351300Y-63292000D02*
X69101300Y-63292000D01*
G75*
G02*
X69351300Y-63542000I0J-250000D01*
G01*
X69351300Y-64292000D01*
G75*
G02*
X69101300Y-64542000I-250000J0D01*
G01*
X68351300Y-64542000D01*
G75*
G02*
X68101300Y-64292000I0J250000D01*
G01*
X68101300Y-63542000D01*
G75*
G02*
X68351300Y-63292000I250000J0D01*
G01*
G37*
G04 #@! TD.AperFunction*
X71266300Y-65617000D03*
G04 #@! TA.AperFunction,ComponentPad*
G36*
G01*
X70891300Y-63292000D02*
X71641300Y-63292000D01*
G75*
G02*
X71891300Y-63542000I0J-250000D01*
G01*
X71891300Y-64292000D01*
G75*
G02*
X71641300Y-64542000I-250000J0D01*
G01*
X70891300Y-64542000D01*
G75*
G02*
X70641300Y-64292000I0J250000D01*
G01*
X70641300Y-63542000D01*
G75*
G02*
X70891300Y-63292000I250000J0D01*
G01*
G37*
G04 #@! TD.AperFunction*
X73806300Y-65617000D03*
G04 #@! TA.AperFunction,ComponentPad*
G36*
G01*
X73431300Y-63292000D02*
X74181300Y-63292000D01*
G75*
G02*
X74431300Y-63542000I0J-250000D01*
G01*
X74431300Y-64292000D01*
G75*
G02*
X74181300Y-64542000I-250000J0D01*
G01*
X73431300Y-64542000D01*
G75*
G02*
X73181300Y-64292000I0J250000D01*
G01*
X73181300Y-63542000D01*
G75*
G02*
X73431300Y-63292000I250000J0D01*
G01*
G37*
G04 #@! TD.AperFunction*
X76346300Y-65617000D03*
G04 #@! TA.AperFunction,ComponentPad*
G36*
G01*
X75971300Y-63292000D02*
X76721300Y-63292000D01*
G75*
G02*
X76971300Y-63542000I0J-250000D01*
G01*
X76971300Y-64292000D01*
G75*
G02*
X76721300Y-64542000I-250000J0D01*
G01*
X75971300Y-64542000D01*
G75*
G02*
X75721300Y-64292000I0J250000D01*
G01*
X75721300Y-63542000D01*
G75*
G02*
X75971300Y-63292000I250000J0D01*
G01*
G37*
G04 #@! TD.AperFunction*
X81426300Y-65617000D03*
G04 #@! TA.AperFunction,ComponentPad*
G36*
G01*
X81051300Y-63292000D02*
X81801300Y-63292000D01*
G75*
G02*
X82051300Y-63542000I0J-250000D01*
G01*
X82051300Y-64292000D01*
G75*
G02*
X81801300Y-64542000I-250000J0D01*
G01*
X81051300Y-64542000D01*
G75*
G02*
X80801300Y-64292000I0J250000D01*
G01*
X80801300Y-63542000D01*
G75*
G02*
X81051300Y-63292000I250000J0D01*
G01*
G37*
G04 #@! TD.AperFunction*
G04 #@! TA.AperFunction,ComponentPad*
G36*
G01*
X22631300Y-19692000D02*
X23381300Y-19692000D01*
G75*
G02*
X23631300Y-19942000I0J-250000D01*
G01*
X23631300Y-20692000D01*
G75*
G02*
X23381300Y-20942000I-250000J0D01*
G01*
X22631300Y-20942000D01*
G75*
G02*
X22381300Y-20692000I0J250000D01*
G01*
X22381300Y-19942000D01*
G75*
G02*
X22631300Y-19692000I250000J0D01*
G01*
G37*
G04 #@! TD.AperFunction*
X23006300Y-18617000D03*
G04 #@! TA.AperFunction,ComponentPad*
G36*
G01*
X32791300Y-19692000D02*
X33541300Y-19692000D01*
G75*
G02*
X33791300Y-19942000I0J-250000D01*
G01*
X33791300Y-20692000D01*
G75*
G02*
X33541300Y-20942000I-250000J0D01*
G01*
X32791300Y-20942000D01*
G75*
G02*
X32541300Y-20692000I0J250000D01*
G01*
X32541300Y-19942000D01*
G75*
G02*
X32791300Y-19692000I250000J0D01*
G01*
G37*
G04 #@! TD.AperFunction*
X33166300Y-18617000D03*
G04 #@! TA.AperFunction,ComponentPad*
G36*
G01*
X35331300Y-19692000D02*
X36081300Y-19692000D01*
G75*
G02*
X36331300Y-19942000I0J-250000D01*
G01*
X36331300Y-20692000D01*
G75*
G02*
X36081300Y-20942000I-250000J0D01*
G01*
X35331300Y-20942000D01*
G75*
G02*
X35081300Y-20692000I0J250000D01*
G01*
X35081300Y-19942000D01*
G75*
G02*
X35331300Y-19692000I250000J0D01*
G01*
G37*
G04 #@! TD.AperFunction*
X35706300Y-18617000D03*
G04 #@! TA.AperFunction,ComponentPad*
G36*
G01*
X81051300Y-19692000D02*
X81801300Y-19692000D01*
G75*
G02*
X82051300Y-19942000I0J-250000D01*
G01*
X82051300Y-20692000D01*
G75*
G02*
X81801300Y-20942000I-250000J0D01*
G01*
X81051300Y-20942000D01*
G75*
G02*
X80801300Y-20692000I0J250000D01*
G01*
X80801300Y-19942000D01*
G75*
G02*
X81051300Y-19692000I250000J0D01*
G01*
G37*
G04 #@! TD.AperFunction*
X81426300Y-18617000D03*
G04 #@! TA.AperFunction,SMDPad,CuDef*
G36*
X39665100Y-42985600D02*
G01*
X39665100Y-43485600D01*
X39660822Y-43485600D01*
X39660822Y-43550863D01*
X39627040Y-43676942D01*
X39561777Y-43789981D01*
X39469481Y-43882277D01*
X39356442Y-43947540D01*
X39230363Y-43981322D01*
X39165100Y-43981322D01*
X39165100Y-43985600D01*
X38665100Y-43985600D01*
X38665100Y-43981322D01*
X38599837Y-43981322D01*
X38473758Y-43947540D01*
X38360719Y-43882277D01*
X38268423Y-43789981D01*
X38203160Y-43676942D01*
X38169378Y-43550863D01*
X38169378Y-43485600D01*
X38165100Y-43485600D01*
X38165100Y-42985600D01*
X39665100Y-42985600D01*
G37*
G04 #@! TD.AperFunction*
G04 #@! TA.AperFunction,SMDPad,CuDef*
G36*
X38169378Y-42185600D02*
G01*
X38169378Y-42120337D01*
X38203160Y-41994258D01*
X38268423Y-41881219D01*
X38360719Y-41788923D01*
X38473758Y-41723660D01*
X38599837Y-41689878D01*
X38665100Y-41689878D01*
X38665100Y-41685600D01*
X39165100Y-41685600D01*
X39165100Y-41689878D01*
X39230363Y-41689878D01*
X39356442Y-41723660D01*
X39469481Y-41788923D01*
X39561777Y-41881219D01*
X39627040Y-41994258D01*
X39660822Y-42120337D01*
X39660822Y-42185600D01*
X39665100Y-42185600D01*
X39665100Y-42685600D01*
X38165100Y-42685600D01*
X38165100Y-42185600D01*
X38169378Y-42185600D01*
G37*
G04 #@! TD.AperFunction*
G04 #@! TA.AperFunction,SMDPad,CuDef*
G36*
G01*
X65990800Y-59186000D02*
X65990800Y-58286000D01*
G75*
G02*
X66240800Y-58036000I250000J0D01*
G01*
X66765800Y-58036000D01*
G75*
G02*
X67015800Y-58286000I0J-250000D01*
G01*
X67015800Y-59186000D01*
G75*
G02*
X66765800Y-59436000I-250000J0D01*
G01*
X66240800Y-59436000D01*
G75*
G02*
X65990800Y-59186000I0J250000D01*
G01*
G37*
G04 #@! TD.AperFunction*
G04 #@! TA.AperFunction,SMDPad,CuDef*
G36*
G01*
X67815800Y-59186000D02*
X67815800Y-58286000D01*
G75*
G02*
X68065800Y-58036000I250000J0D01*
G01*
X68590800Y-58036000D01*
G75*
G02*
X68840800Y-58286000I0J-250000D01*
G01*
X68840800Y-59186000D01*
G75*
G02*
X68590800Y-59436000I-250000J0D01*
G01*
X68065800Y-59436000D01*
G75*
G02*
X67815800Y-59186000I0J250000D01*
G01*
G37*
G04 #@! TD.AperFunction*
G04 #@! TA.AperFunction,SMDPad,CuDef*
G36*
G01*
X28158500Y-30585600D02*
X28158500Y-29685600D01*
G75*
G02*
X28408500Y-29435600I250000J0D01*
G01*
X28933500Y-29435600D01*
G75*
G02*
X29183500Y-29685600I0J-250000D01*
G01*
X29183500Y-30585600D01*
G75*
G02*
X28933500Y-30835600I-250000J0D01*
G01*
X28408500Y-30835600D01*
G75*
G02*
X28158500Y-30585600I0J250000D01*
G01*
G37*
G04 #@! TD.AperFunction*
G04 #@! TA.AperFunction,SMDPad,CuDef*
G36*
G01*
X29983500Y-30585600D02*
X29983500Y-29685600D01*
G75*
G02*
X30233500Y-29435600I250000J0D01*
G01*
X30758500Y-29435600D01*
G75*
G02*
X31008500Y-29685600I0J-250000D01*
G01*
X31008500Y-30585600D01*
G75*
G02*
X30758500Y-30835600I-250000J0D01*
G01*
X30233500Y-30835600D01*
G75*
G02*
X29983500Y-30585600I0J250000D01*
G01*
G37*
G04 #@! TD.AperFunction*
G04 #@! TA.AperFunction,ComponentPad*
G36*
G01*
X45385300Y-46891000D02*
X42585300Y-46891000D01*
G75*
G02*
X42335300Y-46641000I0J250000D01*
G01*
X42335300Y-42641000D01*
G75*
G02*
X42585300Y-42391000I250000J0D01*
G01*
X45385300Y-42391000D01*
G75*
G02*
X45635300Y-42641000I0J-250000D01*
G01*
X45635300Y-46641000D01*
G75*
G02*
X45385300Y-46891000I-250000J0D01*
G01*
G37*
G04 #@! TD.AperFunction*
G04 #@! TA.AperFunction,ComponentPad*
G36*
G01*
X42585300Y-33591000D02*
X45385300Y-33591000D01*
G75*
G02*
X45635300Y-33841000I0J-250000D01*
G01*
X45635300Y-37841000D01*
G75*
G02*
X45385300Y-38091000I-250000J0D01*
G01*
X42585300Y-38091000D01*
G75*
G02*
X42335300Y-37841000I0J250000D01*
G01*
X42335300Y-33841000D01*
G75*
G02*
X42585300Y-33591000I250000J0D01*
G01*
G37*
G04 #@! TD.AperFunction*
G04 #@! TA.AperFunction,SMDPad,CuDef*
G36*
G01*
X65780400Y-42676000D02*
X65780400Y-41776000D01*
G75*
G02*
X66030400Y-41526000I250000J0D01*
G01*
X66555400Y-41526000D01*
G75*
G02*
X66805400Y-41776000I0J-250000D01*
G01*
X66805400Y-42676000D01*
G75*
G02*
X66555400Y-42926000I-250000J0D01*
G01*
X66030400Y-42926000D01*
G75*
G02*
X65780400Y-42676000I0J250000D01*
G01*
G37*
G04 #@! TD.AperFunction*
G04 #@! TA.AperFunction,SMDPad,CuDef*
G36*
G01*
X67605400Y-42676000D02*
X67605400Y-41776000D01*
G75*
G02*
X67855400Y-41526000I250000J0D01*
G01*
X68380400Y-41526000D01*
G75*
G02*
X68630400Y-41776000I0J-250000D01*
G01*
X68630400Y-42676000D01*
G75*
G02*
X68380400Y-42926000I-250000J0D01*
G01*
X67855400Y-42926000D01*
G75*
G02*
X67605400Y-42676000I0J250000D01*
G01*
G37*
G04 #@! TD.AperFunction*
D11*
X58168300Y-56450000D03*
X58168300Y-57720000D03*
X58168300Y-58990000D03*
X58168300Y-60260000D03*
X52720000Y-60260000D03*
X52720000Y-58990000D03*
X52720000Y-57720000D03*
X52720000Y-56450000D03*
G04 #@! TA.AperFunction,SMDPad,CuDef*
G36*
G01*
X60675300Y-49330000D02*
X59725300Y-49330000D01*
G75*
G02*
X59475300Y-49080000I0J250000D01*
G01*
X59475300Y-48580000D01*
G75*
G02*
X59725300Y-48330000I250000J0D01*
G01*
X60675300Y-48330000D01*
G75*
G02*
X60925300Y-48580000I0J-250000D01*
G01*
X60925300Y-49080000D01*
G75*
G02*
X60675300Y-49330000I-250000J0D01*
G01*
G37*
G04 #@! TD.AperFunction*
G04 #@! TA.AperFunction,SMDPad,CuDef*
G36*
G01*
X60675300Y-47430000D02*
X59725300Y-47430000D01*
G75*
G02*
X59475300Y-47180000I0J250000D01*
G01*
X59475300Y-46680000D01*
G75*
G02*
X59725300Y-46430000I250000J0D01*
G01*
X60675300Y-46430000D01*
G75*
G02*
X60925300Y-46680000I0J-250000D01*
G01*
X60925300Y-47180000D01*
G75*
G02*
X60675300Y-47430000I-250000J0D01*
G01*
G37*
G04 #@! TD.AperFunction*
D12*
X26748500Y-41565600D03*
X28948500Y-41565600D03*
G04 #@! TA.AperFunction,SMDPad,CuDef*
G36*
G01*
X74880800Y-50550000D02*
X74880800Y-49650000D01*
G75*
G02*
X75130800Y-49400000I250000J0D01*
G01*
X75655800Y-49400000D01*
G75*
G02*
X75905800Y-49650000I0J-250000D01*
G01*
X75905800Y-50550000D01*
G75*
G02*
X75655800Y-50800000I-250000J0D01*
G01*
X75130800Y-50800000D01*
G75*
G02*
X74880800Y-50550000I0J250000D01*
G01*
G37*
G04 #@! TD.AperFunction*
G04 #@! TA.AperFunction,SMDPad,CuDef*
G36*
G01*
X76705800Y-50550000D02*
X76705800Y-49650000D01*
G75*
G02*
X76955800Y-49400000I250000J0D01*
G01*
X77480800Y-49400000D01*
G75*
G02*
X77730800Y-49650000I0J-250000D01*
G01*
X77730800Y-50550000D01*
G75*
G02*
X77480800Y-50800000I-250000J0D01*
G01*
X76955800Y-50800000D01*
G75*
G02*
X76705800Y-50550000I0J250000D01*
G01*
G37*
G04 #@! TD.AperFunction*
G04 #@! TA.AperFunction,SMDPad,CuDef*
G36*
G01*
X65780400Y-44708000D02*
X65780400Y-43808000D01*
G75*
G02*
X66030400Y-43558000I250000J0D01*
G01*
X66555400Y-43558000D01*
G75*
G02*
X66805400Y-43808000I0J-250000D01*
G01*
X66805400Y-44708000D01*
G75*
G02*
X66555400Y-44958000I-250000J0D01*
G01*
X66030400Y-44958000D01*
G75*
G02*
X65780400Y-44708000I0J250000D01*
G01*
G37*
G04 #@! TD.AperFunction*
G04 #@! TA.AperFunction,SMDPad,CuDef*
G36*
G01*
X67605400Y-44708000D02*
X67605400Y-43808000D01*
G75*
G02*
X67855400Y-43558000I250000J0D01*
G01*
X68380400Y-43558000D01*
G75*
G02*
X68630400Y-43808000I0J-250000D01*
G01*
X68630400Y-44708000D01*
G75*
G02*
X68380400Y-44958000I-250000J0D01*
G01*
X67855400Y-44958000D01*
G75*
G02*
X67605400Y-44708000I0J250000D01*
G01*
G37*
G04 #@! TD.AperFunction*
G04 #@! TA.AperFunction,SMDPad,CuDef*
G36*
G01*
X74284300Y-51657000D02*
X74284300Y-52607000D01*
G75*
G02*
X74034300Y-52857000I-250000J0D01*
G01*
X73534300Y-52857000D01*
G75*
G02*
X73284300Y-52607000I0J250000D01*
G01*
X73284300Y-51657000D01*
G75*
G02*
X73534300Y-51407000I250000J0D01*
G01*
X74034300Y-51407000D01*
G75*
G02*
X74284300Y-51657000I0J-250000D01*
G01*
G37*
G04 #@! TD.AperFunction*
G04 #@! TA.AperFunction,SMDPad,CuDef*
G36*
G01*
X72384300Y-51657000D02*
X72384300Y-52607000D01*
G75*
G02*
X72134300Y-52857000I-250000J0D01*
G01*
X71634300Y-52857000D01*
G75*
G02*
X71384300Y-52607000I0J250000D01*
G01*
X71384300Y-51657000D01*
G75*
G02*
X71634300Y-51407000I250000J0D01*
G01*
X72134300Y-51407000D01*
G75*
G02*
X72384300Y-51657000I0J-250000D01*
G01*
G37*
G04 #@! TD.AperFunction*
G04 #@! TA.AperFunction,SMDPad,CuDef*
G36*
G01*
X27039000Y-33379600D02*
X27039000Y-32479600D01*
G75*
G02*
X27289000Y-32229600I250000J0D01*
G01*
X27814000Y-32229600D01*
G75*
G02*
X28064000Y-32479600I0J-250000D01*
G01*
X28064000Y-33379600D01*
G75*
G02*
X27814000Y-33629600I-250000J0D01*
G01*
X27289000Y-33629600D01*
G75*
G02*
X27039000Y-33379600I0J250000D01*
G01*
G37*
G04 #@! TD.AperFunction*
G04 #@! TA.AperFunction,SMDPad,CuDef*
G36*
G01*
X28864000Y-33379600D02*
X28864000Y-32479600D01*
G75*
G02*
X29114000Y-32229600I250000J0D01*
G01*
X29639000Y-32229600D01*
G75*
G02*
X29889000Y-32479600I0J-250000D01*
G01*
X29889000Y-33379600D01*
G75*
G02*
X29639000Y-33629600I-250000J0D01*
G01*
X29114000Y-33629600D01*
G75*
G02*
X28864000Y-33379600I0J250000D01*
G01*
G37*
G04 #@! TD.AperFunction*
G04 #@! TA.AperFunction,SMDPad,CuDef*
G36*
G01*
X62434800Y-56900000D02*
X62434800Y-56000000D01*
G75*
G02*
X62684800Y-55750000I250000J0D01*
G01*
X63209800Y-55750000D01*
G75*
G02*
X63459800Y-56000000I0J-250000D01*
G01*
X63459800Y-56900000D01*
G75*
G02*
X63209800Y-57150000I-250000J0D01*
G01*
X62684800Y-57150000D01*
G75*
G02*
X62434800Y-56900000I0J250000D01*
G01*
G37*
G04 #@! TD.AperFunction*
G04 #@! TA.AperFunction,SMDPad,CuDef*
G36*
G01*
X64259800Y-56900000D02*
X64259800Y-56000000D01*
G75*
G02*
X64509800Y-55750000I250000J0D01*
G01*
X65034800Y-55750000D01*
G75*
G02*
X65284800Y-56000000I0J-250000D01*
G01*
X65284800Y-56900000D01*
G75*
G02*
X65034800Y-57150000I-250000J0D01*
G01*
X64509800Y-57150000D01*
G75*
G02*
X64259800Y-56900000I0J250000D01*
G01*
G37*
G04 #@! TD.AperFunction*
G04 #@! TA.AperFunction,SMDPad,CuDef*
G36*
G01*
X65990800Y-56900000D02*
X65990800Y-56000000D01*
G75*
G02*
X66240800Y-55750000I250000J0D01*
G01*
X66765800Y-55750000D01*
G75*
G02*
X67015800Y-56000000I0J-250000D01*
G01*
X67015800Y-56900000D01*
G75*
G02*
X66765800Y-57150000I-250000J0D01*
G01*
X66240800Y-57150000D01*
G75*
G02*
X65990800Y-56900000I0J250000D01*
G01*
G37*
G04 #@! TD.AperFunction*
G04 #@! TA.AperFunction,SMDPad,CuDef*
G36*
G01*
X67815800Y-56900000D02*
X67815800Y-56000000D01*
G75*
G02*
X68065800Y-55750000I250000J0D01*
G01*
X68590800Y-55750000D01*
G75*
G02*
X68840800Y-56000000I0J-250000D01*
G01*
X68840800Y-56900000D01*
G75*
G02*
X68590800Y-57150000I-250000J0D01*
G01*
X68065800Y-57150000D01*
G75*
G02*
X67815800Y-56900000I0J250000D01*
G01*
G37*
G04 #@! TD.AperFunction*
G04 #@! TA.AperFunction,SMDPad,CuDef*
G36*
G01*
X56464300Y-54893000D02*
X56464300Y-53943000D01*
G75*
G02*
X56714300Y-53693000I250000J0D01*
G01*
X57214300Y-53693000D01*
G75*
G02*
X57464300Y-53943000I0J-250000D01*
G01*
X57464300Y-54893000D01*
G75*
G02*
X57214300Y-55143000I-250000J0D01*
G01*
X56714300Y-55143000D01*
G75*
G02*
X56464300Y-54893000I0J250000D01*
G01*
G37*
G04 #@! TD.AperFunction*
G04 #@! TA.AperFunction,SMDPad,CuDef*
G36*
G01*
X58364300Y-54893000D02*
X58364300Y-53943000D01*
G75*
G02*
X58614300Y-53693000I250000J0D01*
G01*
X59114300Y-53693000D01*
G75*
G02*
X59364300Y-53943000I0J-250000D01*
G01*
X59364300Y-54893000D01*
G75*
G02*
X59114300Y-55143000I-250000J0D01*
G01*
X58614300Y-55143000D01*
G75*
G02*
X58364300Y-54893000I0J250000D01*
G01*
G37*
G04 #@! TD.AperFunction*
G04 #@! TA.AperFunction,SMDPad,CuDef*
G36*
G01*
X71371800Y-50550000D02*
X71371800Y-49650000D01*
G75*
G02*
X71621800Y-49400000I250000J0D01*
G01*
X72146800Y-49400000D01*
G75*
G02*
X72396800Y-49650000I0J-250000D01*
G01*
X72396800Y-50550000D01*
G75*
G02*
X72146800Y-50800000I-250000J0D01*
G01*
X71621800Y-50800000D01*
G75*
G02*
X71371800Y-50550000I0J250000D01*
G01*
G37*
G04 #@! TD.AperFunction*
G04 #@! TA.AperFunction,SMDPad,CuDef*
G36*
G01*
X73196800Y-50550000D02*
X73196800Y-49650000D01*
G75*
G02*
X73446800Y-49400000I250000J0D01*
G01*
X73971800Y-49400000D01*
G75*
G02*
X74221800Y-49650000I0J-250000D01*
G01*
X74221800Y-50550000D01*
G75*
G02*
X73971800Y-50800000I-250000J0D01*
G01*
X73446800Y-50800000D01*
G75*
G02*
X73196800Y-50550000I0J250000D01*
G01*
G37*
G04 #@! TD.AperFunction*
G04 #@! TA.AperFunction,SMDPad,CuDef*
G36*
G01*
X44449800Y-31821000D02*
X44449800Y-32721000D01*
G75*
G02*
X44199800Y-32971000I-250000J0D01*
G01*
X43674800Y-32971000D01*
G75*
G02*
X43424800Y-32721000I0J250000D01*
G01*
X43424800Y-31821000D01*
G75*
G02*
X43674800Y-31571000I250000J0D01*
G01*
X44199800Y-31571000D01*
G75*
G02*
X44449800Y-31821000I0J-250000D01*
G01*
G37*
G04 #@! TD.AperFunction*
G04 #@! TA.AperFunction,SMDPad,CuDef*
G36*
G01*
X42624800Y-31821000D02*
X42624800Y-32721000D01*
G75*
G02*
X42374800Y-32971000I-250000J0D01*
G01*
X41849800Y-32971000D01*
G75*
G02*
X41599800Y-32721000I0J250000D01*
G01*
X41599800Y-31821000D01*
G75*
G02*
X41849800Y-31571000I250000J0D01*
G01*
X42374800Y-31571000D01*
G75*
G02*
X42624800Y-31821000I0J-250000D01*
G01*
G37*
G04 #@! TD.AperFunction*
G04 #@! TA.AperFunction,SMDPad,CuDef*
G36*
G01*
X35079750Y-25585999D02*
X35522250Y-25585999D01*
G75*
G02*
X35596000Y-25659749I0J-73750D01*
G01*
X35596000Y-26722249D01*
G75*
G02*
X35522250Y-26795999I-73750J0D01*
G01*
X35079750Y-26795999D01*
G75*
G02*
X35006000Y-26722249I0J73750D01*
G01*
X35006000Y-25659749D01*
G75*
G02*
X35079750Y-25585999I73750J0D01*
G01*
G37*
G04 #@! TD.AperFunction*
G04 #@! TA.AperFunction,SMDPad,CuDef*
G36*
G01*
X36029750Y-25585999D02*
X36472250Y-25585999D01*
G75*
G02*
X36546000Y-25659749I0J-73750D01*
G01*
X36546000Y-26722249D01*
G75*
G02*
X36472250Y-26795999I-73750J0D01*
G01*
X36029750Y-26795999D01*
G75*
G02*
X35956000Y-26722249I0J73750D01*
G01*
X35956000Y-25659749D01*
G75*
G02*
X36029750Y-25585999I73750J0D01*
G01*
G37*
G04 #@! TD.AperFunction*
G04 #@! TA.AperFunction,SMDPad,CuDef*
G36*
G01*
X36979750Y-25585999D02*
X37422250Y-25585999D01*
G75*
G02*
X37496000Y-25659749I0J-73750D01*
G01*
X37496000Y-26722249D01*
G75*
G02*
X37422250Y-26795999I-73750J0D01*
G01*
X36979750Y-26795999D01*
G75*
G02*
X36906000Y-26722249I0J73750D01*
G01*
X36906000Y-25659749D01*
G75*
G02*
X36979750Y-25585999I73750J0D01*
G01*
G37*
G04 #@! TD.AperFunction*
G04 #@! TA.AperFunction,SMDPad,CuDef*
G36*
G01*
X36979750Y-28095999D02*
X37422250Y-28095999D01*
G75*
G02*
X37496000Y-28169749I0J-73750D01*
G01*
X37496000Y-29232249D01*
G75*
G02*
X37422250Y-29305999I-73750J0D01*
G01*
X36979750Y-29305999D01*
G75*
G02*
X36906000Y-29232249I0J73750D01*
G01*
X36906000Y-28169749D01*
G75*
G02*
X36979750Y-28095999I73750J0D01*
G01*
G37*
G04 #@! TD.AperFunction*
G04 #@! TA.AperFunction,SMDPad,CuDef*
G36*
G01*
X36029750Y-28095999D02*
X36472250Y-28095999D01*
G75*
G02*
X36546000Y-28169749I0J-73750D01*
G01*
X36546000Y-29232249D01*
G75*
G02*
X36472250Y-29305999I-73750J0D01*
G01*
X36029750Y-29305999D01*
G75*
G02*
X35956000Y-29232249I0J73750D01*
G01*
X35956000Y-28169749D01*
G75*
G02*
X36029750Y-28095999I73750J0D01*
G01*
G37*
G04 #@! TD.AperFunction*
G04 #@! TA.AperFunction,SMDPad,CuDef*
G36*
G01*
X35079750Y-28095999D02*
X35522250Y-28095999D01*
G75*
G02*
X35596000Y-28169749I0J-73750D01*
G01*
X35596000Y-29232249D01*
G75*
G02*
X35522250Y-29305999I-73750J0D01*
G01*
X35079750Y-29305999D01*
G75*
G02*
X35006000Y-29232249I0J73750D01*
G01*
X35006000Y-28169749D01*
G75*
G02*
X35079750Y-28095999I73750J0D01*
G01*
G37*
G04 #@! TD.AperFunction*
G04 #@! TA.AperFunction,SMDPad,CuDef*
G36*
X48214300Y-28649000D02*
G01*
X48714300Y-28649000D01*
X48714300Y-28653278D01*
X48779563Y-28653278D01*
X48905642Y-28687060D01*
X49018681Y-28752323D01*
X49110977Y-28844619D01*
X49176240Y-28957658D01*
X49210022Y-29083737D01*
X49210022Y-29149000D01*
X49214300Y-29149000D01*
X49214300Y-29649000D01*
X49210022Y-29649000D01*
X49210022Y-29714263D01*
X49176240Y-29840342D01*
X49110977Y-29953381D01*
X49018681Y-30045677D01*
X48905642Y-30110940D01*
X48779563Y-30144722D01*
X48714300Y-30144722D01*
X48714300Y-30149000D01*
X48214300Y-30149000D01*
X48214300Y-28649000D01*
G37*
G04 #@! TD.AperFunction*
G04 #@! TA.AperFunction,SMDPad,CuDef*
G36*
X47414300Y-30144722D02*
G01*
X47349037Y-30144722D01*
X47222958Y-30110940D01*
X47109919Y-30045677D01*
X47017623Y-29953381D01*
X46952360Y-29840342D01*
X46918578Y-29714263D01*
X46918578Y-29649000D01*
X46914300Y-29649000D01*
X46914300Y-29149000D01*
X46918578Y-29149000D01*
X46918578Y-29083737D01*
X46952360Y-28957658D01*
X47017623Y-28844619D01*
X47109919Y-28752323D01*
X47222958Y-28687060D01*
X47349037Y-28653278D01*
X47414300Y-28653278D01*
X47414300Y-28649000D01*
X47914300Y-28649000D01*
X47914300Y-30149000D01*
X47414300Y-30149000D01*
X47414300Y-30144722D01*
G37*
G04 #@! TD.AperFunction*
D13*
X67972700Y-46645600D03*
X67972700Y-47280600D03*
X67972700Y-47915600D03*
X67972700Y-48550600D03*
X67972700Y-49185600D03*
X67972700Y-49820600D03*
X67972700Y-50455600D03*
X67972700Y-51090600D03*
X67972700Y-51725600D03*
X67972700Y-52360600D03*
X67972700Y-52995600D03*
X67972700Y-53630600D03*
X62772700Y-53630600D03*
X62772700Y-52995600D03*
X62772700Y-52360600D03*
X62772700Y-51725600D03*
X62772700Y-51090600D03*
X62772700Y-50455600D03*
X62772700Y-49820600D03*
X62772700Y-49185600D03*
X62772700Y-48550600D03*
X62772700Y-47915600D03*
X62772700Y-47280600D03*
X62772700Y-46645600D03*
G04 #@! TA.AperFunction,SMDPad,CuDef*
G36*
G01*
X62197100Y-42676000D02*
X62197100Y-41776000D01*
G75*
G02*
X62447100Y-41526000I250000J0D01*
G01*
X62972100Y-41526000D01*
G75*
G02*
X63222100Y-41776000I0J-250000D01*
G01*
X63222100Y-42676000D01*
G75*
G02*
X62972100Y-42926000I-250000J0D01*
G01*
X62447100Y-42926000D01*
G75*
G02*
X62197100Y-42676000I0J250000D01*
G01*
G37*
G04 #@! TD.AperFunction*
G04 #@! TA.AperFunction,SMDPad,CuDef*
G36*
G01*
X64022100Y-42676000D02*
X64022100Y-41776000D01*
G75*
G02*
X64272100Y-41526000I250000J0D01*
G01*
X64797100Y-41526000D01*
G75*
G02*
X65047100Y-41776000I0J-250000D01*
G01*
X65047100Y-42676000D01*
G75*
G02*
X64797100Y-42926000I-250000J0D01*
G01*
X64272100Y-42926000D01*
G75*
G02*
X64022100Y-42676000I0J250000D01*
G01*
G37*
G04 #@! TD.AperFunction*
D12*
X43055300Y-26986000D03*
X45255300Y-26986000D03*
G04 #@! TA.AperFunction,SMDPad,CuDef*
G36*
G01*
X55632800Y-53968000D02*
X55632800Y-54868000D01*
G75*
G02*
X55382800Y-55118000I-250000J0D01*
G01*
X54857800Y-55118000D01*
G75*
G02*
X54607800Y-54868000I0J250000D01*
G01*
X54607800Y-53968000D01*
G75*
G02*
X54857800Y-53718000I250000J0D01*
G01*
X55382800Y-53718000D01*
G75*
G02*
X55632800Y-53968000I0J-250000D01*
G01*
G37*
G04 #@! TD.AperFunction*
G04 #@! TA.AperFunction,SMDPad,CuDef*
G36*
G01*
X53807800Y-53968000D02*
X53807800Y-54868000D01*
G75*
G02*
X53557800Y-55118000I-250000J0D01*
G01*
X53032800Y-55118000D01*
G75*
G02*
X52782800Y-54868000I0J250000D01*
G01*
X52782800Y-53968000D01*
G75*
G02*
X53032800Y-53718000I250000J0D01*
G01*
X53557800Y-53718000D01*
G75*
G02*
X53807800Y-53968000I0J-250000D01*
G01*
G37*
G04 #@! TD.AperFunction*
G04 #@! TA.AperFunction,SMDPad,CuDef*
G36*
G01*
X26959500Y-36159100D02*
X27259500Y-36159100D01*
G75*
G02*
X27409500Y-36309100I0J-150000D01*
G01*
X27409500Y-37484100D01*
G75*
G02*
X27259500Y-37634100I-150000J0D01*
G01*
X26959500Y-37634100D01*
G75*
G02*
X26809500Y-37484100I0J150000D01*
G01*
X26809500Y-36309100D01*
G75*
G02*
X26959500Y-36159100I150000J0D01*
G01*
G37*
G04 #@! TD.AperFunction*
G04 #@! TA.AperFunction,SMDPad,CuDef*
G36*
G01*
X28859500Y-36159100D02*
X29159500Y-36159100D01*
G75*
G02*
X29309500Y-36309100I0J-150000D01*
G01*
X29309500Y-37484100D01*
G75*
G02*
X29159500Y-37634100I-150000J0D01*
G01*
X28859500Y-37634100D01*
G75*
G02*
X28709500Y-37484100I0J150000D01*
G01*
X28709500Y-36309100D01*
G75*
G02*
X28859500Y-36159100I150000J0D01*
G01*
G37*
G04 #@! TD.AperFunction*
G04 #@! TA.AperFunction,SMDPad,CuDef*
G36*
G01*
X27909500Y-38034100D02*
X28209500Y-38034100D01*
G75*
G02*
X28359500Y-38184100I0J-150000D01*
G01*
X28359500Y-39359100D01*
G75*
G02*
X28209500Y-39509100I-150000J0D01*
G01*
X27909500Y-39509100D01*
G75*
G02*
X27759500Y-39359100I0J150000D01*
G01*
X27759500Y-38184100D01*
G75*
G02*
X27909500Y-38034100I150000J0D01*
G01*
G37*
G04 #@! TD.AperFunction*
D11*
X58028600Y-48576000D03*
X58028600Y-49846000D03*
X58028600Y-51116000D03*
X58028600Y-52386000D03*
X52580300Y-52386000D03*
X52580300Y-51116000D03*
X52580300Y-49846000D03*
X52580300Y-48576000D03*
D12*
X30415900Y-42911800D03*
X32615900Y-42911800D03*
G04 #@! TA.AperFunction,SMDPad,CuDef*
G36*
G01*
X74927800Y-52582000D02*
X74927800Y-51682000D01*
G75*
G02*
X75177800Y-51432000I250000J0D01*
G01*
X75702800Y-51432000D01*
G75*
G02*
X75952800Y-51682000I0J-250000D01*
G01*
X75952800Y-52582000D01*
G75*
G02*
X75702800Y-52832000I-250000J0D01*
G01*
X75177800Y-52832000D01*
G75*
G02*
X74927800Y-52582000I0J250000D01*
G01*
G37*
G04 #@! TD.AperFunction*
G04 #@! TA.AperFunction,SMDPad,CuDef*
G36*
G01*
X76752800Y-52582000D02*
X76752800Y-51682000D01*
G75*
G02*
X77002800Y-51432000I250000J0D01*
G01*
X77527800Y-51432000D01*
G75*
G02*
X77777800Y-51682000I0J-250000D01*
G01*
X77777800Y-52582000D01*
G75*
G02*
X77527800Y-52832000I-250000J0D01*
G01*
X77002800Y-52832000D01*
G75*
G02*
X76752800Y-52582000I0J250000D01*
G01*
G37*
G04 #@! TD.AperFunction*
D14*
X57473300Y-33844000D03*
X57473300Y-32574000D03*
X57473300Y-31304000D03*
D15*
X66623300Y-30034000D03*
D14*
X57473300Y-28764000D03*
X57473300Y-27494000D03*
X57473300Y-26224000D03*
G04 #@! TA.AperFunction,SMDPad,CuDef*
G36*
G01*
X61183300Y-43610000D02*
X60233300Y-43610000D01*
G75*
G02*
X59983300Y-43360000I0J250000D01*
G01*
X59983300Y-42860000D01*
G75*
G02*
X60233300Y-42610000I250000J0D01*
G01*
X61183300Y-42610000D01*
G75*
G02*
X61433300Y-42860000I0J-250000D01*
G01*
X61433300Y-43360000D01*
G75*
G02*
X61183300Y-43610000I-250000J0D01*
G01*
G37*
G04 #@! TD.AperFunction*
G04 #@! TA.AperFunction,SMDPad,CuDef*
G36*
G01*
X61183300Y-41710000D02*
X60233300Y-41710000D01*
G75*
G02*
X59983300Y-41460000I0J250000D01*
G01*
X59983300Y-40960000D01*
G75*
G02*
X60233300Y-40710000I250000J0D01*
G01*
X61183300Y-40710000D01*
G75*
G02*
X61433300Y-40960000I0J-250000D01*
G01*
X61433300Y-41460000D01*
G75*
G02*
X61183300Y-41710000I-250000J0D01*
G01*
G37*
G04 #@! TD.AperFunction*
G04 #@! TA.AperFunction,SMDPad,CuDef*
G36*
G01*
X65099400Y-43783000D02*
X65099400Y-44733000D01*
G75*
G02*
X64849400Y-44983000I-250000J0D01*
G01*
X64349400Y-44983000D01*
G75*
G02*
X64099400Y-44733000I0J250000D01*
G01*
X64099400Y-43783000D01*
G75*
G02*
X64349400Y-43533000I250000J0D01*
G01*
X64849400Y-43533000D01*
G75*
G02*
X65099400Y-43783000I0J-250000D01*
G01*
G37*
G04 #@! TD.AperFunction*
G04 #@! TA.AperFunction,SMDPad,CuDef*
G36*
G01*
X63199400Y-43783000D02*
X63199400Y-44733000D01*
G75*
G02*
X62949400Y-44983000I-250000J0D01*
G01*
X62449400Y-44983000D01*
G75*
G02*
X62199400Y-44733000I0J250000D01*
G01*
X62199400Y-43783000D01*
G75*
G02*
X62449400Y-43533000I250000J0D01*
G01*
X62949400Y-43533000D01*
G75*
G02*
X63199400Y-43783000I0J-250000D01*
G01*
G37*
G04 #@! TD.AperFunction*
G04 #@! TA.AperFunction,SMDPad,CuDef*
G36*
G01*
X65225300Y-58159400D02*
X65225300Y-59109400D01*
G75*
G02*
X64975300Y-59359400I-250000J0D01*
G01*
X64475300Y-59359400D01*
G75*
G02*
X64225300Y-59109400I0J250000D01*
G01*
X64225300Y-58159400D01*
G75*
G02*
X64475300Y-57909400I250000J0D01*
G01*
X64975300Y-57909400D01*
G75*
G02*
X65225300Y-58159400I0J-250000D01*
G01*
G37*
G04 #@! TD.AperFunction*
G04 #@! TA.AperFunction,SMDPad,CuDef*
G36*
G01*
X63325300Y-58159400D02*
X63325300Y-59109400D01*
G75*
G02*
X63075300Y-59359400I-250000J0D01*
G01*
X62575300Y-59359400D01*
G75*
G02*
X62325300Y-59109400I0J250000D01*
G01*
X62325300Y-58159400D01*
G75*
G02*
X62575300Y-57909400I250000J0D01*
G01*
X63075300Y-57909400D01*
G75*
G02*
X63325300Y-58159400I0J-250000D01*
G01*
G37*
G04 #@! TD.AperFunction*
D16*
X32029350Y-36193500D03*
D17*
X32031700Y-34936200D03*
D18*
X32031700Y-32916900D03*
G04 #@! TA.AperFunction,SMDPad,CuDef*
G36*
G01*
X46517300Y-48838000D02*
X47467300Y-48838000D01*
G75*
G02*
X47717300Y-49088000I0J-250000D01*
G01*
X47717300Y-49588000D01*
G75*
G02*
X47467300Y-49838000I-250000J0D01*
G01*
X46517300Y-49838000D01*
G75*
G02*
X46267300Y-49588000I0J250000D01*
G01*
X46267300Y-49088000D01*
G75*
G02*
X46517300Y-48838000I250000J0D01*
G01*
G37*
G04 #@! TD.AperFunction*
G04 #@! TA.AperFunction,SMDPad,CuDef*
G36*
G01*
X46517300Y-50738000D02*
X47467300Y-50738000D01*
G75*
G02*
X47717300Y-50988000I0J-250000D01*
G01*
X47717300Y-51488000D01*
G75*
G02*
X47467300Y-51738000I-250000J0D01*
G01*
X46517300Y-51738000D01*
G75*
G02*
X46267300Y-51488000I0J250000D01*
G01*
X46267300Y-50988000D01*
G75*
G02*
X46517300Y-50738000I250000J0D01*
G01*
G37*
G04 #@! TD.AperFunction*
D11*
X58028600Y-40956000D03*
X58028600Y-42226000D03*
X58028600Y-43496000D03*
X58028600Y-44766000D03*
X52580300Y-44766000D03*
X52580300Y-43496000D03*
X52580300Y-42226000D03*
X52580300Y-40956000D03*
G04 #@! TA.AperFunction,SMDPad,CuDef*
G36*
G01*
X60340300Y-61751000D02*
X60340300Y-60801000D01*
G75*
G02*
X60590300Y-60551000I250000J0D01*
G01*
X61090300Y-60551000D01*
G75*
G02*
X61340300Y-60801000I0J-250000D01*
G01*
X61340300Y-61751000D01*
G75*
G02*
X61090300Y-62001000I-250000J0D01*
G01*
X60590300Y-62001000D01*
G75*
G02*
X60340300Y-61751000I0J250000D01*
G01*
G37*
G04 #@! TD.AperFunction*
G04 #@! TA.AperFunction,SMDPad,CuDef*
G36*
G01*
X62240300Y-61751000D02*
X62240300Y-60801000D01*
G75*
G02*
X62490300Y-60551000I250000J0D01*
G01*
X62990300Y-60551000D01*
G75*
G02*
X63240300Y-60801000I0J-250000D01*
G01*
X63240300Y-61751000D01*
G75*
G02*
X62990300Y-62001000I-250000J0D01*
G01*
X62490300Y-62001000D01*
G75*
G02*
X62240300Y-61751000I0J250000D01*
G01*
G37*
G04 #@! TD.AperFunction*
G04 #@! TA.AperFunction,SMDPad,CuDef*
G36*
G01*
X36242800Y-38855000D02*
X36242800Y-39755000D01*
G75*
G02*
X35992800Y-40005000I-250000J0D01*
G01*
X35467800Y-40005000D01*
G75*
G02*
X35217800Y-39755000I0J250000D01*
G01*
X35217800Y-38855000D01*
G75*
G02*
X35467800Y-38605000I250000J0D01*
G01*
X35992800Y-38605000D01*
G75*
G02*
X36242800Y-38855000I0J-250000D01*
G01*
G37*
G04 #@! TD.AperFunction*
G04 #@! TA.AperFunction,SMDPad,CuDef*
G36*
G01*
X34417800Y-38855000D02*
X34417800Y-39755000D01*
G75*
G02*
X34167800Y-40005000I-250000J0D01*
G01*
X33642800Y-40005000D01*
G75*
G02*
X33392800Y-39755000I0J250000D01*
G01*
X33392800Y-38855000D01*
G75*
G02*
X33642800Y-38605000I250000J0D01*
G01*
X34167800Y-38605000D01*
G75*
G02*
X34417800Y-38855000I0J-250000D01*
G01*
G37*
G04 #@! TD.AperFunction*
D19*
X53596300Y-37680800D03*
X55374300Y-34860000D03*
X59438300Y-44512000D03*
X59438300Y-42734000D03*
X64264300Y-48703000D03*
X60858079Y-50319831D03*
D20*
X48998900Y-56907200D03*
X50675300Y-55180000D03*
D19*
X59199298Y-50516000D03*
X59184300Y-51878000D03*
X60292300Y-56450000D03*
X59438300Y-60260000D03*
X59092300Y-57648160D03*
X60038300Y-58253400D03*
X71122300Y-51116000D03*
X64010300Y-47306000D03*
X61307565Y-53239265D03*
X56136300Y-53402000D03*
X24530300Y-41542000D03*
X47009300Y-58687000D03*
X58549300Y-46798000D03*
X72790300Y-61735000D03*
X35071300Y-62116000D03*
X62359300Y-55053000D03*
X59819300Y-40448000D03*
X57042300Y-63767000D03*
X61360300Y-59957000D03*
X31642300Y-62497000D03*
X76854300Y-54115000D03*
X67439300Y-40448000D03*
X65424300Y-60338000D03*
X54739300Y-56323000D03*
X35325300Y-47511000D03*
X27705300Y-21730000D03*
X81045300Y-62116000D03*
X29610300Y-38875000D03*
X31007300Y-31890000D03*
X69344300Y-48146000D03*
X66663465Y-47192835D03*
X66804300Y-49084000D03*
X37000300Y-39686000D03*
X38813500Y-41108400D03*
X53346950Y-39813000D03*
X57660300Y-40194000D03*
D21*
X33905300Y-39305000D02*
X31825500Y-37225200D01*
X29390100Y-35749000D02*
X28779048Y-35749000D01*
X33905300Y-42941000D02*
X38981500Y-48017200D01*
X28779048Y-35749000D02*
X28059500Y-36468548D01*
X38981500Y-48017200D02*
X47695100Y-48017200D01*
X33905300Y-39305000D02*
X33905300Y-42226000D01*
X47695100Y-48017200D02*
X47695100Y-43582000D01*
X33905300Y-42226000D02*
X33905300Y-42835600D01*
X28059500Y-36468548D02*
X28059500Y-38771600D01*
X32615900Y-42911800D02*
X33829100Y-42911800D01*
X30866300Y-37225200D02*
X29390100Y-35749000D01*
X55374300Y-34860000D02*
X56457300Y-34860000D01*
X47695100Y-43582000D02*
X53596300Y-37680800D01*
X56457300Y-34860000D02*
X57473300Y-33844000D01*
X31825500Y-37225200D02*
X30866300Y-37225200D01*
X33905300Y-42835600D02*
X33905300Y-42941000D01*
X33829100Y-42911800D02*
X33905300Y-42835600D01*
X60200300Y-44766000D02*
X61324300Y-45890000D01*
X58930300Y-42226000D02*
X59438300Y-42734000D01*
X61324300Y-45890000D02*
X61324300Y-48432886D01*
X58028600Y-44766000D02*
X60200300Y-44766000D01*
X58028600Y-42226000D02*
X58930300Y-42226000D01*
X61324300Y-48432886D02*
X62077014Y-49185600D01*
X59184300Y-44766000D02*
X59438300Y-44512000D01*
X62077014Y-49185600D02*
X62772700Y-49185600D01*
X58028600Y-44766000D02*
X59184300Y-44766000D01*
D22*
X48770300Y-49084000D02*
X48516300Y-49338000D01*
X49532300Y-49084000D02*
X52580300Y-49084000D01*
X52720000Y-57212000D02*
X52720000Y-56450000D01*
X52300900Y-41921200D02*
X52300900Y-41235400D01*
X27948500Y-41170023D02*
X25292300Y-38513823D01*
X51056300Y-57212000D02*
X49532300Y-55688000D01*
X52720000Y-56450000D02*
X52720000Y-54993300D01*
X25292300Y-38513823D02*
X25292300Y-21791000D01*
X52720000Y-57212000D02*
X51056300Y-57212000D01*
X27948500Y-42444400D02*
X27948500Y-41170023D01*
X25292300Y-21791000D02*
X23133300Y-19632000D01*
X34412100Y-48908000D02*
X27948500Y-42444400D01*
X36832300Y-49814000D02*
X33135300Y-53511000D01*
X36832300Y-49338000D02*
X36832300Y-49052000D01*
X36832300Y-49052000D02*
X36976300Y-48908000D01*
X52720000Y-57720000D02*
X52720000Y-57212000D01*
X49532300Y-49084000D02*
X49532300Y-43543750D01*
X33135300Y-53511000D02*
X33135300Y-65074000D01*
X51154850Y-41921200D02*
X52300900Y-41921200D01*
X49532300Y-55688000D02*
X49532300Y-49084000D01*
X46992300Y-49338000D02*
X36832300Y-49338000D01*
X48516300Y-49338000D02*
X46992300Y-49338000D01*
X36832300Y-49338000D02*
X36832300Y-49814000D01*
X49532300Y-49084000D02*
X48770300Y-49084000D01*
X49532300Y-43543750D02*
X51154850Y-41921200D01*
X52720000Y-54993300D02*
X53295300Y-54418000D01*
X36976300Y-48908000D02*
X34412100Y-48908000D01*
X52300900Y-41235400D02*
X52580300Y-40956000D01*
X52580300Y-49846000D02*
X52580300Y-49084000D01*
X33135300Y-65074000D02*
X33293300Y-65232000D01*
X52580300Y-49084000D02*
X52580300Y-48576000D01*
D21*
X63572700Y-47915600D02*
X62772700Y-47915600D01*
X64264300Y-48703000D02*
X63476900Y-47915600D01*
D23*
X44125300Y-61462000D02*
X43453300Y-62134000D01*
D21*
X62825300Y-56572000D02*
X62947300Y-56450000D01*
D23*
X43453300Y-62134000D02*
X43453300Y-65232000D01*
X52605700Y-53249600D02*
X50675300Y-55180000D01*
X48998900Y-58068400D02*
X45605300Y-61462000D01*
X48998900Y-56907200D02*
X48998900Y-58068400D01*
X45605300Y-61462000D02*
X44125300Y-61462000D01*
X58028600Y-51116000D02*
X56307750Y-51116000D01*
X54174150Y-53249600D02*
X52605700Y-53249600D01*
D21*
X59946300Y-51116000D02*
X60742469Y-50319831D01*
X60742469Y-50319831D02*
X60858079Y-50319831D01*
D23*
X56307750Y-51116000D02*
X54174150Y-53249600D01*
D21*
X62947300Y-56450000D02*
X63672700Y-55724600D01*
X62825300Y-58634400D02*
X62825300Y-56572000D01*
X63672700Y-55724600D02*
X63672700Y-48015600D01*
X59946300Y-51116000D02*
X58028600Y-51116000D01*
X63476900Y-47915600D02*
X62772700Y-47915600D01*
X63672700Y-48015600D02*
X63572700Y-47915600D01*
X60077300Y-52386000D02*
X62007700Y-50455600D01*
X58028600Y-52386000D02*
X58676300Y-52386000D01*
X62007700Y-50455600D02*
X62772700Y-50455600D01*
X58529298Y-49846000D02*
X59199298Y-50516000D01*
X58028600Y-52386000D02*
X60077300Y-52386000D01*
X58676300Y-52386000D02*
X59184300Y-51878000D01*
X58028600Y-49846000D02*
X58529298Y-49846000D01*
X58168300Y-60260000D02*
X59438300Y-60260000D01*
X58240140Y-57648160D02*
X58168300Y-57720000D01*
X60707565Y-53487794D02*
X60707565Y-52990735D01*
X60707565Y-52990735D02*
X61972700Y-51725600D01*
X60708300Y-53488529D02*
X60707565Y-53487794D01*
X61972700Y-51725600D02*
X62772700Y-51725600D01*
X59092300Y-57648160D02*
X58240140Y-57648160D01*
X60708300Y-56034000D02*
X60708300Y-53488529D01*
X60292300Y-56450000D02*
X60708300Y-56034000D01*
X62798100Y-47306000D02*
X62772700Y-47280600D01*
X71884300Y-52132000D02*
X71884300Y-50100000D01*
D23*
X58168300Y-58990000D02*
X61459022Y-58990000D01*
X63375300Y-60082200D02*
X64654700Y-61361600D01*
X64654700Y-61361600D02*
X63519300Y-62497000D01*
X63519300Y-62497000D02*
X54550300Y-62497000D01*
X54550300Y-62497000D02*
X53613300Y-63434000D01*
X61459022Y-58990000D02*
X62551222Y-60082200D01*
D21*
X60038300Y-58253400D02*
X59301700Y-58990000D01*
X71122300Y-50862000D02*
X71884300Y-50100000D01*
X64010300Y-47306000D02*
X62798100Y-47306000D01*
D23*
X62551222Y-60082200D02*
X63375300Y-60082200D01*
X53613300Y-63434000D02*
X53613300Y-65232000D01*
D21*
X71122300Y-51116000D02*
X71122300Y-50862000D01*
X71884300Y-50100000D02*
X71604900Y-49820600D01*
X66313300Y-63164000D02*
X66313300Y-65232000D01*
X69140800Y-54798700D02*
X69140800Y-60336500D01*
X69140800Y-60336500D02*
X66313300Y-63164000D01*
X67972700Y-53630600D02*
X69140800Y-54798700D01*
X78524300Y-49343070D02*
X75826830Y-46645600D01*
X76473300Y-65232000D02*
X76473300Y-61354000D01*
X78524300Y-59303000D02*
X78524300Y-49343070D01*
X75826830Y-46645600D02*
X67972700Y-46645600D01*
X76473300Y-61354000D02*
X78524300Y-59303000D01*
X67972700Y-52225600D02*
X68533386Y-52225600D01*
X67972700Y-52360600D02*
X67972700Y-52225600D01*
X68533386Y-52225600D02*
X71393300Y-55085514D01*
X71393300Y-55085514D02*
X71393300Y-65232000D01*
X63799400Y-45177300D02*
X67172700Y-48550600D01*
X66216700Y-42302200D02*
X66292900Y-42226000D01*
X67172700Y-48550600D02*
X67972700Y-48550600D01*
X64534600Y-42302200D02*
X66216700Y-42302200D01*
X63799400Y-42961200D02*
X63799400Y-45177300D01*
X64534600Y-42226000D02*
X63799400Y-42961200D01*
X68853300Y-64402000D02*
X68845300Y-64394000D01*
X69540800Y-53798700D02*
X68737700Y-52995600D01*
X68853300Y-65232000D02*
X68853300Y-64402000D01*
X68737700Y-52995600D02*
X67972700Y-52995600D01*
X69540800Y-62136500D02*
X69540800Y-53798700D01*
X68845300Y-62832000D02*
X69540800Y-62136500D01*
X68845300Y-64394000D02*
X68845300Y-62832000D01*
X72684300Y-51713000D02*
X73290300Y-51107000D01*
X77218300Y-50100000D02*
X77218300Y-52085000D01*
X76240300Y-51107000D02*
X77265300Y-52132000D01*
X67972700Y-50455600D02*
X68698156Y-50455600D01*
X72369044Y-53157000D02*
X72684300Y-52841744D01*
X77218300Y-52085000D02*
X77265300Y-52132000D01*
X71399556Y-53157000D02*
X72369044Y-53157000D01*
X68698156Y-50455600D02*
X71399556Y-53157000D01*
X73290300Y-51107000D02*
X76240300Y-51107000D01*
X72684300Y-52841744D02*
X72684300Y-51713000D01*
X73709300Y-50100000D02*
X73709300Y-49893000D01*
X70765771Y-49100000D02*
X70045171Y-49820600D01*
X75393300Y-50100000D02*
X75393300Y-50147000D01*
X73709300Y-50100000D02*
X75393300Y-50100000D01*
X73709300Y-50100000D02*
X73381544Y-50100000D01*
X72381544Y-49100000D02*
X70765771Y-49100000D01*
X70045171Y-49820600D02*
X67972700Y-49820600D01*
X73381544Y-50100000D02*
X72381544Y-49100000D01*
X61307565Y-53025735D02*
X61972700Y-52360600D01*
X61972700Y-52360600D02*
X62772700Y-52360600D01*
X56964300Y-54230000D02*
X56136300Y-53402000D01*
X56964300Y-54418000D02*
X56964300Y-54230000D01*
X56136300Y-53402000D02*
X55120300Y-54418000D01*
X61307565Y-53239265D02*
X61307565Y-53025735D01*
X68328300Y-58736000D02*
X68328300Y-56450000D01*
X67058300Y-55180000D02*
X67058300Y-51840000D01*
X68328300Y-56450000D02*
X67058300Y-55180000D01*
X67172700Y-51725600D02*
X67972700Y-51725600D01*
X67058300Y-51840000D02*
X67172700Y-51725600D01*
X29009500Y-36896600D02*
X29009500Y-38274200D01*
X62740300Y-61464000D02*
X62757300Y-61481000D01*
D24*
X81426300Y-19317000D02*
X79267300Y-21476000D01*
D21*
X30496000Y-31378700D02*
X31007300Y-31890000D01*
X75440300Y-52701000D02*
X76854300Y-54115000D01*
X60581300Y-41210000D02*
X59819300Y-40448000D01*
X62757300Y-61481000D02*
X61360300Y-60084000D01*
D22*
X47414300Y-30346023D02*
X47414300Y-29399000D01*
D21*
X62740300Y-61276000D02*
X62740300Y-61464000D01*
X29009500Y-38274200D02*
X29610300Y-38875000D01*
X64725300Y-58634400D02*
X64725300Y-59639000D01*
X66292900Y-44258000D02*
X67110677Y-43440223D01*
D24*
X79267300Y-21476000D02*
X78505300Y-21476000D01*
D21*
X57067300Y-55900000D02*
X55162300Y-55900000D01*
X60708300Y-41210000D02*
X60581300Y-41210000D01*
X60200300Y-46930000D02*
X59951300Y-46930000D01*
X81426300Y-62497000D02*
X81045300Y-62116000D01*
X67110677Y-43440223D02*
X67110677Y-40776623D01*
D22*
X57473300Y-32574000D02*
X57473300Y-26224000D01*
D21*
X58864300Y-54418000D02*
X58549300Y-54418000D01*
X61360300Y-60084000D02*
X61360300Y-59957000D01*
X26689300Y-41542000D02*
X24530300Y-41542000D01*
D22*
X48245277Y-31177000D02*
X48617900Y-31177000D01*
D21*
X59951300Y-46930000D02*
X59819300Y-46798000D01*
X75440300Y-52132000D02*
X75440300Y-52701000D01*
X59819300Y-46798000D02*
X58549300Y-46798000D01*
X62772700Y-53630600D02*
X62772700Y-54639600D01*
D22*
X48245277Y-31177000D02*
X47414300Y-30346023D01*
D21*
X26712900Y-41565600D02*
X26689300Y-41542000D01*
X81426300Y-64917000D02*
X81426300Y-62497000D01*
X64725300Y-59639000D02*
X65424300Y-60338000D01*
X69113900Y-47915600D02*
X67972700Y-47915600D01*
X69344300Y-48146000D02*
X69113900Y-47915600D01*
X55162300Y-55900000D02*
X54739300Y-56323000D01*
D22*
X48617900Y-31177000D02*
X48694100Y-31100800D01*
D21*
X46992300Y-58670000D02*
X47009300Y-58687000D01*
X67110677Y-40776623D02*
X67439300Y-40448000D01*
X58549300Y-54418000D02*
X57067300Y-55900000D01*
D22*
X48694100Y-31100800D02*
X48897300Y-31304000D01*
D21*
X62772700Y-54639600D02*
X62359300Y-55053000D01*
X26748500Y-41565600D02*
X26712900Y-41565600D01*
X30496000Y-30135600D02*
X30496000Y-31378700D01*
X46992300Y-51238000D02*
X46992300Y-58670000D01*
D22*
X48897300Y-31304000D02*
X57473300Y-31304000D01*
D21*
X68117900Y-42583500D02*
X68117900Y-44258000D01*
X68117900Y-42376500D02*
X68221400Y-42480000D01*
X67871100Y-49084000D02*
X67972700Y-49185600D01*
X68221400Y-42480000D02*
X68117900Y-42583500D01*
X66804300Y-49084000D02*
X67871100Y-49084000D01*
X68117900Y-44258000D02*
X66663465Y-45712435D01*
X68117900Y-42226000D02*
X68117900Y-42376500D01*
X66663465Y-45712435D02*
X66663465Y-47192835D01*
X73806300Y-65105000D02*
X73933300Y-65232000D01*
X78124300Y-49508756D02*
X78124300Y-58687000D01*
X73806300Y-63005000D02*
X73806300Y-65105000D01*
X78124300Y-58687000D02*
X73806300Y-63005000D01*
X75896144Y-47280600D02*
X78124300Y-49508756D01*
X67972700Y-47280600D02*
X75896144Y-47280600D01*
X67172700Y-51090600D02*
X67972700Y-51090600D01*
X66503300Y-55735000D02*
X66550300Y-55688000D01*
X66550300Y-55688000D02*
X66550300Y-51713000D01*
X66550300Y-51713000D02*
X67172700Y-51090600D01*
X66503300Y-56450000D02*
X66503300Y-55735000D01*
X66503300Y-56450000D02*
X64772300Y-56450000D01*
X38813500Y-41108400D02*
X39352100Y-41647000D01*
D22*
X39936300Y-41164400D02*
X39453700Y-41647000D01*
D21*
X37000300Y-39686000D02*
X36111300Y-39686000D01*
X36111300Y-39686000D02*
X35730300Y-39305000D01*
D22*
X33293300Y-22030000D02*
X33293300Y-19632000D01*
D21*
X39352100Y-41647000D02*
X39453700Y-41647000D01*
X35730300Y-39305000D02*
X35730300Y-40005000D01*
D22*
X39936300Y-37415000D02*
X39286300Y-36765000D01*
X40140751Y-26446001D02*
X37576750Y-23882000D01*
X40810300Y-26446001D02*
X42515301Y-26446001D01*
X42515301Y-26446001D02*
X43055300Y-26986000D01*
X39936300Y-37415000D02*
X39936300Y-41164400D01*
X37576750Y-23882000D02*
X35145300Y-23882000D01*
X39286300Y-36765000D02*
X39286300Y-34225000D01*
X35145300Y-23882000D02*
X33293300Y-22030000D01*
X40810300Y-32701000D02*
X40810300Y-26446001D01*
X39286300Y-34225000D02*
X40810300Y-32701000D01*
X39453700Y-41647000D02*
X38915100Y-42185600D01*
X40810300Y-26446001D02*
X40140751Y-26446001D01*
D21*
X28948500Y-41038652D02*
X28948500Y-41565600D01*
X29376500Y-32929600D02*
X27852500Y-31405600D01*
X26408500Y-38498652D02*
X28948500Y-41038652D01*
X28671000Y-30135600D02*
X28671000Y-30312856D01*
X27578256Y-31405600D02*
X27310878Y-31672978D01*
X28671000Y-30312856D02*
X27310878Y-31672978D01*
X27852500Y-31405600D02*
X27578256Y-31405600D01*
X26408500Y-32575356D02*
X26408500Y-38498652D01*
X27310878Y-31672978D02*
X26408500Y-32575356D01*
X29376500Y-32929600D02*
X32123500Y-32929600D01*
D22*
X36387300Y-21984000D02*
X35833300Y-21430000D01*
X39643300Y-21984000D02*
X36387300Y-21984000D01*
X43937300Y-35193000D02*
X43985300Y-35241000D01*
X61035300Y-24446000D02*
X66623300Y-30034000D01*
X43937300Y-32560500D02*
X43937300Y-35193000D01*
X43182300Y-22642600D02*
X40301900Y-22642600D01*
X48714300Y-28451977D02*
X48206323Y-27944000D01*
X47660500Y-27120800D02*
X43182300Y-22642600D01*
X46837300Y-27944000D02*
X46301600Y-28479700D01*
X61035300Y-24446000D02*
X50335300Y-24446000D01*
X40301900Y-22642600D02*
X39643300Y-21984000D01*
X50335300Y-24446000D02*
X47660500Y-27120800D01*
X43937300Y-30844000D02*
X43937300Y-32560500D01*
X35833300Y-21430000D02*
X35833300Y-19632000D01*
X46301600Y-28479700D02*
X43937300Y-30844000D01*
X47660500Y-27120800D02*
X46301600Y-28479700D01*
X48206323Y-27944000D02*
X46837300Y-27944000D01*
X48714300Y-29399000D02*
X48714300Y-28451977D01*
D21*
X62709600Y-40417300D02*
X61724300Y-39432000D01*
X62699400Y-46572300D02*
X62772700Y-46645600D01*
X62709600Y-42226000D02*
X62709600Y-40417300D01*
X62699400Y-44258000D02*
X62699400Y-46572300D01*
D22*
X42494911Y-40852811D02*
X42494911Y-43750611D01*
D21*
X62633400Y-44512000D02*
X62633400Y-42378400D01*
D22*
X34765100Y-34133800D02*
X32834100Y-34133800D01*
X56136300Y-37400000D02*
X56136300Y-42734000D01*
X38270300Y-37639000D02*
X38270300Y-39830214D01*
X32834100Y-34133800D02*
X32031700Y-34936200D01*
D21*
X61724300Y-39432000D02*
X56390300Y-39432000D01*
D22*
X39848277Y-43496000D02*
X39851723Y-43496000D01*
X37787100Y-43485600D02*
X38915100Y-43485600D01*
X35491300Y-34860000D02*
X34765100Y-34133800D01*
X55417100Y-36680800D02*
X56136300Y-37400000D01*
X56136300Y-42734000D02*
X56898300Y-43496000D01*
X37460100Y-40640414D02*
X37460100Y-43158600D01*
X47551100Y-40778200D02*
X51648500Y-36680800D01*
X42569522Y-40778200D02*
X47551100Y-40778200D01*
X38270300Y-37639000D02*
X35491300Y-34860000D01*
X39851723Y-43496000D02*
X42494911Y-40852811D01*
X34765100Y-30932200D02*
X34875300Y-30822000D01*
D21*
X56390300Y-39432000D02*
X56136300Y-39178000D01*
D22*
X42494911Y-40852811D02*
X42569522Y-40778200D01*
X38270300Y-39830214D02*
X37460100Y-40640414D01*
X56898300Y-43496000D02*
X58028600Y-43496000D01*
D21*
X62633400Y-42378400D02*
X62709600Y-42302200D01*
D22*
X51648500Y-36680800D02*
X55417100Y-36680800D01*
X37460100Y-43158600D02*
X37787100Y-43485600D01*
X42494911Y-43750611D02*
X43985300Y-45241000D01*
X34765100Y-34133800D02*
X34765100Y-30932200D01*
D21*
X27551500Y-32929600D02*
X27551500Y-36454600D01*
X27551500Y-36454600D02*
X27109500Y-36896600D01*
X58676300Y-40956000D02*
X58028600Y-40956000D01*
X58554300Y-40956000D02*
X58028600Y-40956000D01*
D23*
X57660300Y-40194000D02*
X57660300Y-40587700D01*
X57660300Y-40587700D02*
X58028600Y-40956000D01*
D21*
X60322300Y-43496000D02*
X60708300Y-43110000D01*
D23*
X53346950Y-39813000D02*
X53760550Y-40226600D01*
D21*
X62007700Y-48550600D02*
X61724300Y-48267200D01*
X60708300Y-43110000D02*
X58554300Y-40956000D01*
D23*
X52580300Y-43496000D02*
X52580300Y-44766000D01*
D21*
X62772700Y-48550600D02*
X62007700Y-48550600D01*
X61724300Y-44126000D02*
X60708300Y-43110000D01*
D23*
X53219950Y-43496000D02*
X52580300Y-43496000D01*
X53760550Y-42955400D02*
X53219950Y-43496000D01*
X53760550Y-40226600D02*
X53760550Y-42955400D01*
D21*
X61724300Y-48267200D02*
X61724300Y-44126000D01*
D23*
X53774100Y-51116000D02*
X56314100Y-48576000D01*
X52580300Y-51116000D02*
X53774100Y-51116000D01*
X58028600Y-48576000D02*
X59946300Y-48576000D01*
X56314100Y-48576000D02*
X58028600Y-48576000D01*
X59946300Y-48576000D02*
X60200300Y-48830000D01*
D21*
X62772700Y-49820600D02*
X61190900Y-49820600D01*
X61190900Y-49820600D02*
X60200300Y-48830000D01*
D23*
X52580300Y-52386000D02*
X52580300Y-51116000D01*
X56390300Y-56450000D02*
X58168300Y-56450000D01*
X60840300Y-61276000D02*
X57274650Y-61276000D01*
X52720000Y-60260000D02*
X52720000Y-58990000D01*
D21*
X59692300Y-53371000D02*
X59692300Y-55099744D01*
X58342044Y-56450000D02*
X58168300Y-56450000D01*
D23*
X56390300Y-60391650D02*
X56390300Y-56450000D01*
D21*
X61972700Y-51090600D02*
X59692300Y-53371000D01*
D23*
X57274650Y-61276000D02*
X56390300Y-60391650D01*
D21*
X62772700Y-51090600D02*
X61972700Y-51090600D01*
X59692300Y-55099744D02*
X58342044Y-56450000D01*
D23*
X55899650Y-56450000D02*
X56390300Y-56450000D01*
X52720000Y-58990000D02*
X53359650Y-58990000D01*
X53359650Y-58990000D02*
X55899650Y-56450000D01*
D22*
X40810300Y-24446000D02*
X42715300Y-24446000D01*
X42715300Y-30962600D02*
X42715300Y-29526000D01*
X42715300Y-24446000D02*
X45255300Y-26986000D01*
X42112300Y-32560500D02*
X42112300Y-31565600D01*
X42715300Y-29526000D02*
X45255300Y-26986000D01*
X42112300Y-31565600D02*
X42715300Y-30962600D01*
G04 #@! TA.AperFunction,Conductor*
G36*
X23189556Y-21107184D02*
G01*
X23210198Y-21123818D01*
X24255481Y-22169101D01*
X24288966Y-22230424D01*
X24291800Y-22256782D01*
X24291800Y-38612367D01*
X24330247Y-38805652D01*
X24330250Y-38805662D01*
X24340953Y-38831501D01*
X24405664Y-38987730D01*
X24405671Y-38987743D01*
X24515160Y-39151604D01*
X24515163Y-39151608D01*
X24658837Y-39295282D01*
X24658859Y-39295302D01*
X26093958Y-40730401D01*
X26127443Y-40791724D01*
X26122459Y-40861416D01*
X26093963Y-40905758D01*
X26091311Y-40908409D01*
X26005149Y-41023506D01*
X26005145Y-41023513D01*
X25954903Y-41158220D01*
X25954901Y-41158227D01*
X25948500Y-41217755D01*
X25948500Y-41315600D01*
X26624500Y-41315600D01*
X26691539Y-41335285D01*
X26737294Y-41388089D01*
X26748500Y-41439600D01*
X26748500Y-41565600D01*
X26824000Y-41565600D01*
X26891039Y-41585285D01*
X26936794Y-41638089D01*
X26948000Y-41689600D01*
X26948000Y-42542943D01*
X26965214Y-42629480D01*
X26965214Y-42629481D01*
X26986447Y-42736230D01*
X26986449Y-42736237D01*
X26994860Y-42756540D01*
X26994862Y-42756546D01*
X27061864Y-42918306D01*
X27061871Y-42918319D01*
X27171360Y-43082182D01*
X27315037Y-43225859D01*
X27315059Y-43225879D01*
X33631835Y-49542655D01*
X33631864Y-49542686D01*
X33774314Y-49685136D01*
X33774318Y-49685139D01*
X33938179Y-49794628D01*
X33938186Y-49794632D01*
X34046054Y-49839312D01*
X34120264Y-49870051D01*
X34157572Y-49877472D01*
X34194452Y-49884808D01*
X34313556Y-49908500D01*
X34313559Y-49908500D01*
X34313560Y-49908500D01*
X34510640Y-49908500D01*
X35023518Y-49908500D01*
X35090557Y-49928185D01*
X35136312Y-49980989D01*
X35146256Y-50050147D01*
X35117231Y-50113703D01*
X35111200Y-50120179D01*
X32655521Y-52575858D01*
X32655518Y-52575861D01*
X32614749Y-52616630D01*
X32516159Y-52715219D01*
X32406671Y-52879079D01*
X32406664Y-52879092D01*
X32369445Y-52968950D01*
X32369445Y-52968951D01*
X32331249Y-53061163D01*
X32331247Y-53061171D01*
X32317533Y-53130118D01*
X32313562Y-53150081D01*
X32309383Y-53171092D01*
X32292800Y-53254457D01*
X32292800Y-63022500D01*
X32273115Y-63089539D01*
X32220311Y-63135294D01*
X32168802Y-63146500D01*
X32118430Y-63146500D01*
X32118423Y-63146501D01*
X32058816Y-63152908D01*
X31923971Y-63203202D01*
X31923964Y-63203206D01*
X31808755Y-63289452D01*
X31808752Y-63289455D01*
X31722506Y-63404664D01*
X31722502Y-63404671D01*
X31672208Y-63539517D01*
X31665801Y-63599116D01*
X31665800Y-63599127D01*
X31665800Y-64783558D01*
X31665801Y-65879999D01*
X31646116Y-65947038D01*
X31593313Y-65992793D01*
X31541801Y-66003999D01*
X24630800Y-66003999D01*
X24563761Y-65984314D01*
X24518006Y-65931510D01*
X24506800Y-65879999D01*
X24506799Y-63599129D01*
X24506798Y-63599123D01*
X24506797Y-63599116D01*
X24500391Y-63539517D01*
X24450096Y-63404669D01*
X24450095Y-63404668D01*
X24450093Y-63404664D01*
X24363847Y-63289455D01*
X24363844Y-63289452D01*
X24248635Y-63203206D01*
X24248628Y-63203202D01*
X24113782Y-63152908D01*
X24113783Y-63152908D01*
X24054183Y-63146501D01*
X24054181Y-63146500D01*
X24054173Y-63146500D01*
X24054165Y-63146500D01*
X22360800Y-63146500D01*
X22293761Y-63126815D01*
X22248006Y-63074011D01*
X22236800Y-63022500D01*
X22236800Y-41913444D01*
X25948500Y-41913444D01*
X25954901Y-41972972D01*
X25954903Y-41972979D01*
X26005145Y-42107686D01*
X26005149Y-42107693D01*
X26091309Y-42222787D01*
X26091312Y-42222790D01*
X26206406Y-42308950D01*
X26206413Y-42308954D01*
X26341120Y-42359196D01*
X26341127Y-42359198D01*
X26400655Y-42365599D01*
X26400672Y-42365600D01*
X26498500Y-42365600D01*
X26498500Y-41815600D01*
X25948500Y-41815600D01*
X25948500Y-41913444D01*
X22236800Y-41913444D01*
X22236800Y-21211499D01*
X22256485Y-21144460D01*
X22309289Y-21098705D01*
X22360800Y-21087499D01*
X23122517Y-21087499D01*
X23189556Y-21107184D01*
G37*
G04 #@! TD.AperFunction*
G04 #@! TA.AperFunction,Conductor*
G36*
X45881585Y-50358185D02*
G01*
X45927340Y-50410989D01*
X45937284Y-50480147D01*
X45920085Y-50527597D01*
X45832943Y-50668875D01*
X45832941Y-50668880D01*
X45777794Y-50835302D01*
X45777793Y-50835309D01*
X45767300Y-50938013D01*
X45767300Y-50988000D01*
X48217299Y-50988000D01*
X48217299Y-50938028D01*
X48217298Y-50938013D01*
X48206805Y-50835302D01*
X48151658Y-50668880D01*
X48151656Y-50668875D01*
X48064515Y-50527597D01*
X48046075Y-50460204D01*
X48066998Y-50393541D01*
X48120640Y-50348771D01*
X48170054Y-50338500D01*
X48407800Y-50338500D01*
X48474839Y-50358185D01*
X48520594Y-50410989D01*
X48531800Y-50462500D01*
X48531800Y-55786541D01*
X48531800Y-55786543D01*
X48531799Y-55786543D01*
X48546502Y-55860453D01*
X48546502Y-55860455D01*
X48565296Y-55954940D01*
X48565297Y-55954943D01*
X48570249Y-55979835D01*
X48570250Y-55979839D01*
X48632180Y-56129352D01*
X48639649Y-56198821D01*
X48608374Y-56261300D01*
X48583593Y-56281796D01*
X48528014Y-56316719D01*
X48528007Y-56316725D01*
X48408425Y-56436307D01*
X48408419Y-56436314D01*
X48369948Y-56497539D01*
X48368059Y-56500454D01*
X48333818Y-56551699D01*
X48333811Y-56551713D01*
X48333752Y-56551857D01*
X48324200Y-56570347D01*
X48318444Y-56579509D01*
X48318442Y-56579514D01*
X48298615Y-56636174D01*
X48296137Y-56642666D01*
X48277241Y-56688288D01*
X48277239Y-56688297D01*
X48274803Y-56700541D01*
X48270230Y-56717297D01*
X48262587Y-56739139D01*
X48262587Y-56739140D01*
X48257241Y-56786582D01*
X48255639Y-56796885D01*
X48248400Y-56833281D01*
X48248400Y-56858090D01*
X48247620Y-56871974D01*
X48243651Y-56907197D01*
X48243651Y-56907200D01*
X48247620Y-56942423D01*
X48248400Y-56956308D01*
X48248400Y-59324169D01*
X48228715Y-59391208D01*
X48212081Y-59411850D01*
X44509357Y-63114574D01*
X44448034Y-63148059D01*
X44408421Y-63150182D01*
X44374183Y-63146501D01*
X44374181Y-63146500D01*
X44374173Y-63146500D01*
X44374164Y-63146500D01*
X42278429Y-63146500D01*
X42278423Y-63146501D01*
X42218816Y-63152908D01*
X42083971Y-63203202D01*
X42083964Y-63203206D01*
X41968755Y-63289452D01*
X41968752Y-63289455D01*
X41882506Y-63404664D01*
X41882502Y-63404671D01*
X41832208Y-63539517D01*
X41825801Y-63599116D01*
X41825800Y-63599127D01*
X41825800Y-64783558D01*
X41825801Y-65879999D01*
X41806116Y-65947038D01*
X41753313Y-65992793D01*
X41701801Y-66003999D01*
X34790800Y-66003999D01*
X34723761Y-65984314D01*
X34678006Y-65931510D01*
X34666800Y-65879999D01*
X34666799Y-63599129D01*
X34666798Y-63599123D01*
X34666797Y-63599116D01*
X34660391Y-63539517D01*
X34610096Y-63404669D01*
X34610095Y-63404668D01*
X34610093Y-63404664D01*
X34523847Y-63289455D01*
X34523844Y-63289452D01*
X34408634Y-63203205D01*
X34374464Y-63190460D01*
X34318531Y-63148587D01*
X34294116Y-63083122D01*
X34293800Y-63074279D01*
X34293800Y-53818781D01*
X34313485Y-53751742D01*
X34330114Y-53731105D01*
X36523233Y-51537986D01*
X45767301Y-51537986D01*
X45777794Y-51640697D01*
X45832941Y-51807119D01*
X45832943Y-51807124D01*
X45924984Y-51956345D01*
X46048954Y-52080315D01*
X46198175Y-52172356D01*
X46198180Y-52172358D01*
X46364602Y-52227505D01*
X46364609Y-52227506D01*
X46467319Y-52237999D01*
X46742299Y-52237999D01*
X47242300Y-52237999D01*
X47517272Y-52237999D01*
X47517286Y-52237998D01*
X47619997Y-52227505D01*
X47786419Y-52172358D01*
X47786424Y-52172356D01*
X47935645Y-52080315D01*
X48059615Y-51956345D01*
X48151656Y-51807124D01*
X48151658Y-51807119D01*
X48206805Y-51640697D01*
X48206806Y-51640690D01*
X48217299Y-51537986D01*
X48217300Y-51537973D01*
X48217300Y-51488000D01*
X47242300Y-51488000D01*
X47242300Y-52237999D01*
X46742299Y-52237999D01*
X46742300Y-52237998D01*
X46742300Y-51488000D01*
X45767301Y-51488000D01*
X45767301Y-51537986D01*
X36523233Y-51537986D01*
X37470078Y-50591141D01*
X37470082Y-50591139D01*
X37609439Y-50451782D01*
X37629729Y-50421416D01*
X37648309Y-50393610D01*
X37701921Y-50348804D01*
X37751411Y-50338500D01*
X45814546Y-50338500D01*
X45881585Y-50358185D01*
G37*
G04 #@! TD.AperFunction*
G04 #@! TA.AperFunction,Conductor*
G36*
X65798339Y-58404085D02*
G01*
X65844094Y-58456889D01*
X65849072Y-58479772D01*
X65855300Y-58486000D01*
X66379300Y-58486000D01*
X66446339Y-58505685D01*
X66492094Y-58558489D01*
X66503300Y-58610000D01*
X66503300Y-58736000D01*
X66629300Y-58736000D01*
X66696339Y-58755685D01*
X66742094Y-58808489D01*
X66753300Y-58860000D01*
X66753300Y-59935999D01*
X66815772Y-59935999D01*
X66815786Y-59935998D01*
X66918497Y-59925505D01*
X67084919Y-59870358D01*
X67084924Y-59870356D01*
X67234142Y-59778317D01*
X67327764Y-59684695D01*
X67389087Y-59651210D01*
X67458779Y-59656194D01*
X67503127Y-59684695D01*
X67597144Y-59778712D01*
X67746466Y-59870814D01*
X67913003Y-59925999D01*
X68015791Y-59936500D01*
X68416300Y-59936499D01*
X68483339Y-59956183D01*
X68529094Y-60008987D01*
X68540300Y-60060499D01*
X68540300Y-60512402D01*
X68520615Y-60579441D01*
X68503981Y-60600083D01*
X65993882Y-63110181D01*
X65932559Y-63143666D01*
X65906201Y-63146500D01*
X65138429Y-63146500D01*
X65138423Y-63146501D01*
X65078816Y-63152908D01*
X64943971Y-63203202D01*
X64943964Y-63203206D01*
X64828755Y-63289452D01*
X64828752Y-63289455D01*
X64742506Y-63404664D01*
X64742502Y-63404671D01*
X64692208Y-63539517D01*
X64685801Y-63599116D01*
X64685800Y-63599127D01*
X64685800Y-64783558D01*
X64685801Y-65879999D01*
X64666116Y-65947038D01*
X64613313Y-65992793D01*
X64561801Y-66003999D01*
X55110800Y-66003999D01*
X55043761Y-65984314D01*
X54998006Y-65931510D01*
X54986800Y-65879999D01*
X54986799Y-64971229D01*
X55006483Y-64904190D01*
X55023113Y-64883553D01*
X56622848Y-63283819D01*
X56684171Y-63250334D01*
X56710529Y-63247500D01*
X63593220Y-63247500D01*
X63690762Y-63228096D01*
X63738213Y-63218658D01*
X63874795Y-63162084D01*
X63924029Y-63129186D01*
X63927698Y-63126735D01*
X63952473Y-63110181D01*
X63997716Y-63079952D01*
X65237652Y-61840016D01*
X65257312Y-61810591D01*
X65316027Y-61722719D01*
X65316028Y-61722717D01*
X65319781Y-61717099D01*
X65319784Y-61717095D01*
X65376358Y-61580513D01*
X65405200Y-61435518D01*
X65405200Y-61287683D01*
X65405200Y-61287680D01*
X65376359Y-61142693D01*
X65376358Y-61142692D01*
X65376358Y-61142688D01*
X65319784Y-61006106D01*
X65237652Y-60883184D01*
X65237647Y-60883179D01*
X65237647Y-60883178D01*
X64425547Y-60071079D01*
X64392062Y-60009756D01*
X64397046Y-59940065D01*
X64438918Y-59884131D01*
X64457497Y-59877201D01*
X64475299Y-59859399D01*
X64975300Y-59859399D01*
X65025272Y-59859399D01*
X65025286Y-59859398D01*
X65127997Y-59848905D01*
X65294419Y-59793758D01*
X65294424Y-59793756D01*
X65443645Y-59701715D01*
X65482069Y-59663292D01*
X65543392Y-59629807D01*
X65613084Y-59634791D01*
X65657431Y-59663292D01*
X65772454Y-59778315D01*
X65921675Y-59870356D01*
X65921680Y-59870358D01*
X66088102Y-59925505D01*
X66088109Y-59925506D01*
X66190819Y-59935999D01*
X66253299Y-59935998D01*
X66253300Y-59935998D01*
X66253300Y-58986000D01*
X65484800Y-58986000D01*
X65417761Y-58966315D01*
X65372006Y-58913511D01*
X65367027Y-58890627D01*
X65360800Y-58884400D01*
X64975300Y-58884400D01*
X64975300Y-59859399D01*
X64475299Y-59859399D01*
X64475300Y-59859398D01*
X64475300Y-58758400D01*
X64494985Y-58691361D01*
X64547789Y-58645606D01*
X64599300Y-58634400D01*
X64725300Y-58634400D01*
X64725300Y-58508400D01*
X64744985Y-58441361D01*
X64797789Y-58395606D01*
X64849300Y-58384400D01*
X65731300Y-58384400D01*
X65798339Y-58404085D01*
G37*
G04 #@! TD.AperFunction*
G04 #@! TA.AperFunction,Conductor*
G36*
X79869339Y-18249686D02*
G01*
X79915094Y-18302490D01*
X79926300Y-18354001D01*
X79926300Y-20463448D01*
X80688341Y-19701406D01*
X80705122Y-19785767D01*
X80761659Y-19922258D01*
X80843737Y-20045097D01*
X80947745Y-20149105D01*
X80116892Y-20979958D01*
X80184211Y-21030353D01*
X80184213Y-21030354D01*
X80318920Y-21080596D01*
X80318927Y-21080598D01*
X80378455Y-21086999D01*
X80378472Y-21087000D01*
X82071800Y-21087000D01*
X82138839Y-21106685D01*
X82184594Y-21159489D01*
X82195800Y-21211000D01*
X82195800Y-63023000D01*
X82176115Y-63090039D01*
X82123311Y-63135794D01*
X82071800Y-63147000D01*
X80378455Y-63147000D01*
X80318927Y-63153401D01*
X80318920Y-63153403D01*
X80184214Y-63203645D01*
X80116891Y-63254041D01*
X80947745Y-64084894D01*
X80843737Y-64188903D01*
X80761659Y-64311742D01*
X80705122Y-64448233D01*
X80688341Y-64532592D01*
X79926300Y-63770551D01*
X79926300Y-65879999D01*
X79906615Y-65947038D01*
X79853811Y-65992793D01*
X79802300Y-66003999D01*
X77970800Y-66003999D01*
X77903761Y-65984314D01*
X77858006Y-65931510D01*
X77846800Y-65879999D01*
X77846799Y-63599129D01*
X77846798Y-63599123D01*
X77846797Y-63599116D01*
X77840391Y-63539517D01*
X77790096Y-63404669D01*
X77790095Y-63404668D01*
X77790093Y-63404664D01*
X77703847Y-63289455D01*
X77703844Y-63289452D01*
X77588635Y-63203206D01*
X77588628Y-63203202D01*
X77453782Y-63152908D01*
X77453783Y-63152908D01*
X77394183Y-63146501D01*
X77394181Y-63146500D01*
X77394173Y-63146500D01*
X77394165Y-63146500D01*
X77197800Y-63146500D01*
X77130761Y-63126815D01*
X77085006Y-63074011D01*
X77073800Y-63022500D01*
X77073800Y-61654096D01*
X77093485Y-61587057D01*
X77110114Y-61566420D01*
X78882806Y-59793727D01*
X78882811Y-59793724D01*
X78893014Y-59783520D01*
X78893016Y-59783520D01*
X79004820Y-59671716D01*
X79061841Y-59572952D01*
X79083877Y-59534785D01*
X79124801Y-59382057D01*
X79124801Y-59223943D01*
X79124801Y-59216348D01*
X79124800Y-59216330D01*
X79124800Y-49432130D01*
X79124801Y-49432117D01*
X79124801Y-49264014D01*
X79124598Y-49263255D01*
X79083877Y-49111286D01*
X79083873Y-49111279D01*
X79004824Y-48974360D01*
X79004818Y-48974352D01*
X76314420Y-46283955D01*
X76314418Y-46283952D01*
X76195547Y-46165081D01*
X76195546Y-46165080D01*
X76108734Y-46114960D01*
X76108734Y-46114959D01*
X76108730Y-46114958D01*
X76058615Y-46086023D01*
X75905887Y-46045099D01*
X75747773Y-46045099D01*
X75740177Y-46045099D01*
X75740161Y-46045100D01*
X68914139Y-46045100D01*
X68847100Y-46025415D01*
X68839828Y-46020367D01*
X68815031Y-46001804D01*
X68815028Y-46001802D01*
X68680182Y-45951508D01*
X68680183Y-45951508D01*
X68620583Y-45945101D01*
X68620581Y-45945100D01*
X68620573Y-45945100D01*
X68620565Y-45945100D01*
X67579395Y-45945100D01*
X67512356Y-45925415D01*
X67466601Y-45872611D01*
X67456657Y-45803453D01*
X67485682Y-45739897D01*
X67491700Y-45733433D01*
X67730317Y-45494816D01*
X67791638Y-45461333D01*
X67817986Y-45458499D01*
X68430408Y-45458499D01*
X68430416Y-45458498D01*
X68430419Y-45458498D01*
X68486702Y-45452748D01*
X68533197Y-45447999D01*
X68699734Y-45392814D01*
X68849056Y-45300712D01*
X68973112Y-45176656D01*
X69065214Y-45027334D01*
X69120399Y-44860797D01*
X69130900Y-44758009D01*
X69130899Y-43757992D01*
X69126231Y-43712299D01*
X69120399Y-43655203D01*
X69120398Y-43655200D01*
X69119361Y-43652071D01*
X69065214Y-43488666D01*
X68973112Y-43339344D01*
X68963449Y-43329681D01*
X68929964Y-43268358D01*
X68934948Y-43198666D01*
X68963449Y-43154319D01*
X68973112Y-43144656D01*
X69065214Y-42995334D01*
X69120399Y-42828797D01*
X69130900Y-42726009D01*
X69130899Y-41725992D01*
X69130099Y-41718164D01*
X69120399Y-41623203D01*
X69120398Y-41623200D01*
X69097911Y-41555339D01*
X69065214Y-41456666D01*
X68973112Y-41307344D01*
X68849056Y-41183288D01*
X68699734Y-41091186D01*
X68533197Y-41036001D01*
X68533195Y-41036000D01*
X68430410Y-41025500D01*
X67805398Y-41025500D01*
X67805380Y-41025501D01*
X67702603Y-41036000D01*
X67702600Y-41036001D01*
X67536068Y-41091185D01*
X67536063Y-41091187D01*
X67386742Y-41183289D01*
X67293081Y-41276951D01*
X67231758Y-41310436D01*
X67162066Y-41305452D01*
X67117719Y-41276951D01*
X67024057Y-41183289D01*
X67024056Y-41183288D01*
X66874734Y-41091186D01*
X66708197Y-41036001D01*
X66708195Y-41036000D01*
X66605410Y-41025500D01*
X65980398Y-41025500D01*
X65980380Y-41025501D01*
X65877603Y-41036000D01*
X65877600Y-41036001D01*
X65711068Y-41091185D01*
X65711063Y-41091187D01*
X65561742Y-41183289D01*
X65501431Y-41243601D01*
X65440108Y-41277086D01*
X65370416Y-41272102D01*
X65326069Y-41243601D01*
X65265757Y-41183289D01*
X65265756Y-41183288D01*
X65116434Y-41091186D01*
X64949897Y-41036001D01*
X64949895Y-41036000D01*
X64847110Y-41025500D01*
X64222098Y-41025500D01*
X64222080Y-41025501D01*
X64119303Y-41036000D01*
X64119300Y-41036001D01*
X63952768Y-41091185D01*
X63952763Y-41091187D01*
X63803442Y-41183289D01*
X63709781Y-41276951D01*
X63648458Y-41310436D01*
X63578766Y-41305452D01*
X63534419Y-41276951D01*
X63440755Y-41183287D01*
X63369002Y-41139029D01*
X63322278Y-41087081D01*
X63310100Y-41033491D01*
X63310100Y-40506360D01*
X63310101Y-40506347D01*
X63310101Y-40338244D01*
X63305906Y-40322587D01*
X63269177Y-40185516D01*
X63259573Y-40168881D01*
X63190124Y-40048590D01*
X63190118Y-40048582D01*
X62211890Y-39070355D01*
X62211888Y-39070352D01*
X62093017Y-38951481D01*
X62093016Y-38951480D01*
X62004944Y-38900632D01*
X62004943Y-38900631D01*
X61956090Y-38872425D01*
X61956089Y-38872424D01*
X61943563Y-38869067D01*
X61803357Y-38831499D01*
X61645243Y-38831499D01*
X61637647Y-38831499D01*
X61637631Y-38831500D01*
X57260800Y-38831500D01*
X57193761Y-38811815D01*
X57148006Y-38759011D01*
X57136800Y-38707500D01*
X57136800Y-37301456D01*
X57112349Y-37178538D01*
X57098351Y-37108164D01*
X57029145Y-36941086D01*
X57022932Y-36926086D01*
X57018429Y-36919347D01*
X56913440Y-36762219D01*
X56868504Y-36717283D01*
X56774082Y-36622861D01*
X56774081Y-36622860D01*
X56201308Y-36050088D01*
X56201306Y-36050085D01*
X56201306Y-36050086D01*
X56194239Y-36043019D01*
X56194239Y-36043018D01*
X56054882Y-35903661D01*
X56054881Y-35903660D01*
X56054880Y-35903659D01*
X55891020Y-35794171D01*
X55891010Y-35794166D01*
X55812129Y-35761492D01*
X55757725Y-35717650D01*
X55735661Y-35651356D01*
X55752941Y-35583657D01*
X55793609Y-35541938D01*
X55876562Y-35489816D01*
X55876564Y-35489813D01*
X55879397Y-35487555D01*
X55881578Y-35486664D01*
X55882459Y-35486111D01*
X55882555Y-35486265D01*
X55944083Y-35461145D01*
X55956712Y-35460500D01*
X56370631Y-35460500D01*
X56370647Y-35460501D01*
X56378243Y-35460501D01*
X56536354Y-35460501D01*
X56536357Y-35460501D01*
X56689085Y-35419577D01*
X56757142Y-35380284D01*
X56826016Y-35340520D01*
X56937820Y-35228716D01*
X56937820Y-35228714D01*
X56948024Y-35218511D01*
X56948028Y-35218506D01*
X57385716Y-34780818D01*
X57447039Y-34747333D01*
X57473397Y-34744499D01*
X59821171Y-34744499D01*
X59821172Y-34744499D01*
X59880783Y-34738091D01*
X60015631Y-34687796D01*
X60130846Y-34601546D01*
X60217096Y-34486331D01*
X60267391Y-34351483D01*
X60273800Y-34291873D01*
X60273799Y-33396128D01*
X60267391Y-33336517D01*
X60235724Y-33251615D01*
X60230741Y-33181926D01*
X60235726Y-33164950D01*
X60266897Y-33081377D01*
X60266898Y-33081374D01*
X60273299Y-33021844D01*
X60273300Y-33021827D01*
X60273300Y-32824000D01*
X54673300Y-32824000D01*
X54673300Y-33021844D01*
X54679701Y-33081372D01*
X54679703Y-33081382D01*
X54710873Y-33164953D01*
X54715857Y-33234644D01*
X54710873Y-33251617D01*
X54679209Y-33336514D01*
X54679208Y-33336516D01*
X54672801Y-33396116D01*
X54672801Y-33396123D01*
X54672800Y-33396135D01*
X54672800Y-34291870D01*
X54672801Y-34291876D01*
X54679208Y-34351483D01*
X54683572Y-34363182D01*
X54688555Y-34432873D01*
X54672384Y-34472481D01*
X54648511Y-34510476D01*
X54648510Y-34510478D01*
X54588933Y-34680737D01*
X54588930Y-34680750D01*
X54568735Y-34859996D01*
X54568735Y-34860003D01*
X54588930Y-35039249D01*
X54588931Y-35039254D01*
X54648511Y-35209522D01*
X54744484Y-35362262D01*
X54850841Y-35468619D01*
X54884326Y-35529942D01*
X54879342Y-35599634D01*
X54837470Y-35655567D01*
X54772006Y-35679984D01*
X54763160Y-35680300D01*
X51549954Y-35680300D01*
X51517891Y-35686676D01*
X51517892Y-35686677D01*
X51356670Y-35718746D01*
X51356664Y-35718748D01*
X51174588Y-35794166D01*
X51174579Y-35794171D01*
X51010719Y-35903659D01*
X51010715Y-35903662D01*
X47172999Y-39741381D01*
X47111676Y-39774866D01*
X47085318Y-39777700D01*
X42470980Y-39777700D01*
X42451327Y-39781609D01*
X42431673Y-39785519D01*
X42431672Y-39785519D01*
X42277693Y-39816147D01*
X42277685Y-39816149D01*
X42226865Y-39837200D01*
X42226864Y-39837200D01*
X42095614Y-39891564D01*
X42095601Y-39891571D01*
X41931741Y-40001059D01*
X41900301Y-40032500D01*
X41857129Y-40075672D01*
X41148481Y-40784320D01*
X41087158Y-40817805D01*
X41017466Y-40812821D01*
X40961533Y-40770949D01*
X40937116Y-40705485D01*
X40936800Y-40696639D01*
X40936800Y-37316457D01*
X40923572Y-37249958D01*
X40917575Y-37219812D01*
X40898351Y-37123164D01*
X40853207Y-37014177D01*
X40822932Y-36941086D01*
X40822931Y-36941084D01*
X40822930Y-36941082D01*
X40713439Y-36777218D01*
X40713436Y-36777214D01*
X40570986Y-36634764D01*
X40570955Y-36634735D01*
X40323119Y-36386899D01*
X40289634Y-36325576D01*
X40286800Y-36299218D01*
X40286800Y-34690782D01*
X40306485Y-34623743D01*
X40323119Y-34603101D01*
X40873320Y-34052900D01*
X41468828Y-33457391D01*
X41530149Y-33423908D01*
X41595502Y-33427364D01*
X41605953Y-33430828D01*
X41635843Y-33445433D01*
X41638386Y-33447132D01*
X41784051Y-33507468D01*
X41838454Y-33551307D01*
X41860519Y-33617601D01*
X41854304Y-33661031D01*
X41845301Y-33688199D01*
X41834800Y-33790983D01*
X41834800Y-37891001D01*
X41834801Y-37891018D01*
X41845300Y-37993796D01*
X41845301Y-37993799D01*
X41900485Y-38160331D01*
X41900486Y-38160334D01*
X41992588Y-38309656D01*
X42116644Y-38433712D01*
X42265966Y-38525814D01*
X42432503Y-38580999D01*
X42535291Y-38591500D01*
X45435308Y-38591499D01*
X45538097Y-38580999D01*
X45704634Y-38525814D01*
X45853956Y-38433712D01*
X45978012Y-38309656D01*
X46070114Y-38160334D01*
X46125299Y-37993797D01*
X46135800Y-37891009D01*
X46135799Y-33790992D01*
X46125299Y-33688203D01*
X46070114Y-33521666D01*
X45978012Y-33372344D01*
X45853956Y-33248288D01*
X45761188Y-33191069D01*
X45704636Y-33156187D01*
X45704631Y-33156185D01*
X45703162Y-33155698D01*
X45538097Y-33101001D01*
X45538095Y-33101000D01*
X45435316Y-33090500D01*
X45435309Y-33090500D01*
X45061800Y-33090500D01*
X44994761Y-33070815D01*
X44949006Y-33018011D01*
X44937800Y-32966500D01*
X44937800Y-32896259D01*
X44939461Y-32880567D01*
X44939111Y-32880532D01*
X44950299Y-32771016D01*
X44950300Y-32771009D01*
X44950299Y-31770992D01*
X44948343Y-31751844D01*
X54673300Y-31751844D01*
X54679701Y-31811372D01*
X54679704Y-31811383D01*
X54711139Y-31895668D01*
X54716123Y-31965360D01*
X54711139Y-31982332D01*
X54679704Y-32066616D01*
X54679701Y-32066627D01*
X54673300Y-32126155D01*
X54673300Y-32324000D01*
X57223300Y-32324000D01*
X57723300Y-32324000D01*
X60273300Y-32324000D01*
X60273300Y-32126172D01*
X60273299Y-32126155D01*
X60266898Y-32066627D01*
X60266897Y-32066623D01*
X60235459Y-31982334D01*
X60230475Y-31912642D01*
X60235459Y-31895666D01*
X60266897Y-31811376D01*
X60266898Y-31811372D01*
X60273299Y-31751844D01*
X60273300Y-31751827D01*
X60273300Y-31554000D01*
X57723300Y-31554000D01*
X57723300Y-32324000D01*
X57223300Y-32324000D01*
X57223300Y-31554000D01*
X54673300Y-31554000D01*
X54673300Y-31751844D01*
X44948343Y-31751844D01*
X44947092Y-31739601D01*
X44939111Y-31661468D01*
X44939460Y-31661432D01*
X44937800Y-31645741D01*
X44937800Y-31309782D01*
X44957485Y-31242743D01*
X44974119Y-31222101D01*
X45340065Y-30856155D01*
X54673300Y-30856155D01*
X54673300Y-31054000D01*
X57223300Y-31054000D01*
X57723300Y-31054000D01*
X60273300Y-31054000D01*
X60273300Y-30856172D01*
X60273299Y-30856155D01*
X60266898Y-30796627D01*
X60266896Y-30796620D01*
X60216654Y-30661913D01*
X60216650Y-30661906D01*
X60130490Y-30546812D01*
X60130487Y-30546809D01*
X60015393Y-30460649D01*
X60015386Y-30460645D01*
X59880679Y-30410403D01*
X59880672Y-30410401D01*
X59821144Y-30404000D01*
X57723300Y-30404000D01*
X57723300Y-31054000D01*
X57223300Y-31054000D01*
X57223300Y-30404000D01*
X55125455Y-30404000D01*
X55065927Y-30410401D01*
X55065920Y-30410403D01*
X54931213Y-30460645D01*
X54931206Y-30460649D01*
X54816112Y-30546809D01*
X54816109Y-30546812D01*
X54729949Y-30661906D01*
X54729945Y-30661913D01*
X54679703Y-30796620D01*
X54679701Y-30796627D01*
X54673300Y-30856155D01*
X45340065Y-30856155D01*
X47215401Y-28980819D01*
X47276724Y-28947334D01*
X47303082Y-28944500D01*
X47584800Y-28944500D01*
X47651839Y-28964185D01*
X47697594Y-29016989D01*
X47708800Y-29068500D01*
X47708800Y-30149002D01*
X47713944Y-30220940D01*
X47754482Y-30358994D01*
X47832267Y-30480030D01*
X47832271Y-30480034D01*
X47941000Y-30574249D01*
X47941006Y-30574254D01*
X47981474Y-30592735D01*
X48071880Y-30634023D01*
X48071883Y-30634023D01*
X48071884Y-30634024D01*
X48214300Y-30654500D01*
X48214303Y-30654500D01*
X48786186Y-30654500D01*
X48786189Y-30654500D01*
X48928604Y-30634024D01*
X49066559Y-30593517D01*
X49197437Y-30533747D01*
X49312777Y-30459622D01*
X49314215Y-30458804D01*
X49318398Y-30456011D01*
X49378421Y-30404000D01*
X49427132Y-30361791D01*
X49521286Y-30253130D01*
X49599070Y-30132094D01*
X49656042Y-30007342D01*
X49658286Y-30003053D01*
X49658798Y-30001308D01*
X49658799Y-30001308D01*
X49699335Y-29863256D01*
X49719797Y-29720941D01*
X49719797Y-29664601D01*
X49719800Y-29664590D01*
X49719800Y-29211844D01*
X54673300Y-29211844D01*
X54679701Y-29271372D01*
X54679703Y-29271379D01*
X54729945Y-29406086D01*
X54729949Y-29406093D01*
X54816109Y-29521187D01*
X54816112Y-29521190D01*
X54931206Y-29607350D01*
X54931213Y-29607354D01*
X55065920Y-29657596D01*
X55065927Y-29657598D01*
X55125455Y-29663999D01*
X55125472Y-29664000D01*
X57223300Y-29664000D01*
X57723300Y-29664000D01*
X59821128Y-29664000D01*
X59821144Y-29663999D01*
X59880672Y-29657598D01*
X59880679Y-29657596D01*
X60015386Y-29607354D01*
X60015393Y-29607350D01*
X60130487Y-29521190D01*
X60130490Y-29521187D01*
X60216650Y-29406093D01*
X60216654Y-29406086D01*
X60266896Y-29271379D01*
X60266898Y-29271372D01*
X60273299Y-29211844D01*
X60273300Y-29211827D01*
X60273300Y-29014000D01*
X57723300Y-29014000D01*
X57723300Y-29664000D01*
X57223300Y-29664000D01*
X57223300Y-29014000D01*
X54673300Y-29014000D01*
X54673300Y-29211844D01*
X49719800Y-29211844D01*
X49719800Y-29133426D01*
X49719797Y-29133399D01*
X49719797Y-29077062D01*
X49719796Y-29077055D01*
X49716062Y-29051079D01*
X49714800Y-29033434D01*
X49714800Y-28353433D01*
X49676352Y-28160147D01*
X49676351Y-28160146D01*
X49676351Y-28160142D01*
X49645503Y-28085668D01*
X49600935Y-27978069D01*
X49600928Y-27978056D01*
X49576732Y-27941844D01*
X54673300Y-27941844D01*
X54679701Y-28001372D01*
X54679704Y-28001383D01*
X54711139Y-28085668D01*
X54716123Y-28155360D01*
X54711139Y-28172332D01*
X54679704Y-28256616D01*
X54679701Y-28256627D01*
X54673300Y-28316155D01*
X54673300Y-28514000D01*
X57223300Y-28514000D01*
X57723300Y-28514000D01*
X60273300Y-28514000D01*
X60273300Y-28316172D01*
X60273299Y-28316155D01*
X60266898Y-28256627D01*
X60266897Y-28256623D01*
X60235459Y-28172334D01*
X60230475Y-28102642D01*
X60235459Y-28085666D01*
X60266897Y-28001376D01*
X60266898Y-28001372D01*
X60273299Y-27941844D01*
X60273300Y-27941827D01*
X60273300Y-27744000D01*
X57723300Y-27744000D01*
X57723300Y-28514000D01*
X57223300Y-28514000D01*
X57223300Y-27744000D01*
X54673300Y-27744000D01*
X54673300Y-27941844D01*
X49576732Y-27941844D01*
X49491439Y-27814195D01*
X49491436Y-27814191D01*
X49348986Y-27671741D01*
X49348955Y-27671712D01*
X49024412Y-27347169D01*
X48990927Y-27285846D01*
X48995911Y-27216154D01*
X49024410Y-27171809D01*
X49524376Y-26671844D01*
X54673300Y-26671844D01*
X54679701Y-26731372D01*
X54679704Y-26731383D01*
X54711139Y-26815668D01*
X54716123Y-26885360D01*
X54711139Y-26902332D01*
X54679704Y-26986616D01*
X54679701Y-26986627D01*
X54673300Y-27046155D01*
X54673300Y-27244000D01*
X57223300Y-27244000D01*
X57723300Y-27244000D01*
X60273300Y-27244000D01*
X60273300Y-27046172D01*
X60273299Y-27046155D01*
X60266898Y-26986627D01*
X60266897Y-26986623D01*
X60235459Y-26902334D01*
X60230475Y-26832642D01*
X60235459Y-26815666D01*
X60266897Y-26731376D01*
X60266898Y-26731372D01*
X60273299Y-26671844D01*
X60273300Y-26671827D01*
X60273300Y-26474000D01*
X57723300Y-26474000D01*
X57723300Y-27244000D01*
X57223300Y-27244000D01*
X57223300Y-26474000D01*
X54673300Y-26474000D01*
X54673300Y-26671844D01*
X49524376Y-26671844D01*
X50713402Y-25482819D01*
X50774725Y-25449334D01*
X50801083Y-25446500D01*
X54601858Y-25446500D01*
X54668897Y-25466185D01*
X54714652Y-25518989D01*
X54724596Y-25588147D01*
X54718040Y-25613833D01*
X54679703Y-25716619D01*
X54679701Y-25716627D01*
X54673300Y-25776155D01*
X54673300Y-25974000D01*
X60273300Y-25974000D01*
X60273300Y-25776172D01*
X60273299Y-25776155D01*
X60266898Y-25716627D01*
X60266896Y-25716619D01*
X60228560Y-25613833D01*
X60223576Y-25544141D01*
X60257061Y-25482818D01*
X60318385Y-25449334D01*
X60344742Y-25446500D01*
X60569518Y-25446500D01*
X60636557Y-25466185D01*
X60657199Y-25482819D01*
X61386481Y-26212101D01*
X61419966Y-26273424D01*
X61422800Y-26299782D01*
X61422800Y-35481870D01*
X61422801Y-35481876D01*
X61429208Y-35541483D01*
X61479502Y-35676328D01*
X61479506Y-35676335D01*
X61565752Y-35791544D01*
X61565755Y-35791547D01*
X61680964Y-35877793D01*
X61680971Y-35877797D01*
X61815817Y-35928091D01*
X61815816Y-35928091D01*
X61822744Y-35928835D01*
X61875427Y-35934500D01*
X71371172Y-35934499D01*
X71430783Y-35928091D01*
X71565631Y-35877796D01*
X71680846Y-35791546D01*
X71767096Y-35676331D01*
X71817391Y-35541483D01*
X71823800Y-35481873D01*
X71823799Y-24586128D01*
X71817391Y-24526517D01*
X71767096Y-24391669D01*
X71767095Y-24391668D01*
X71767093Y-24391664D01*
X71680847Y-24276455D01*
X71680844Y-24276452D01*
X71565635Y-24190206D01*
X71565628Y-24190202D01*
X71430782Y-24139908D01*
X71430783Y-24139908D01*
X71371183Y-24133501D01*
X71371181Y-24133500D01*
X71371173Y-24133500D01*
X71371165Y-24133500D01*
X62189083Y-24133500D01*
X62122044Y-24113815D01*
X62101402Y-24097181D01*
X61819509Y-23815289D01*
X61819506Y-23815285D01*
X61819506Y-23815286D01*
X61812439Y-23808219D01*
X61812439Y-23808218D01*
X61673082Y-23668861D01*
X61673081Y-23668860D01*
X61673080Y-23668859D01*
X61509216Y-23559369D01*
X61509211Y-23559366D01*
X61436615Y-23529296D01*
X61380465Y-23506038D01*
X61327136Y-23483949D01*
X61327132Y-23483948D01*
X61327128Y-23483946D01*
X61230488Y-23464724D01*
X61133844Y-23445500D01*
X61133841Y-23445500D01*
X50433840Y-23445500D01*
X50236759Y-23445500D01*
X50236756Y-23445500D01*
X50043471Y-23483946D01*
X50043467Y-23483948D01*
X50043465Y-23483948D01*
X50043464Y-23483949D01*
X49968045Y-23515188D01*
X49968043Y-23515189D01*
X49861385Y-23559368D01*
X49861385Y-23559369D01*
X49861384Y-23559369D01*
X49697522Y-23668857D01*
X49697514Y-23668863D01*
X47748180Y-25618198D01*
X47686857Y-25651683D01*
X47617165Y-25646699D01*
X47572818Y-25618198D01*
X43963779Y-22009159D01*
X43963759Y-22009137D01*
X43820085Y-21865463D01*
X43820081Y-21865460D01*
X43656220Y-21755971D01*
X43656207Y-21755964D01*
X43502180Y-21692165D01*
X43502179Y-21692165D01*
X43474134Y-21680548D01*
X43474129Y-21680546D01*
X43377488Y-21661324D01*
X43280844Y-21642100D01*
X43280841Y-21642100D01*
X40767682Y-21642100D01*
X40700643Y-21622415D01*
X40680001Y-21605781D01*
X40424779Y-21350559D01*
X40424759Y-21350537D01*
X40281085Y-21206863D01*
X40281081Y-21206860D01*
X40117220Y-21097371D01*
X40117207Y-21097364D01*
X39956495Y-21030796D01*
X39935137Y-21021949D01*
X39935129Y-21021947D01*
X39838488Y-21002724D01*
X39741844Y-20983500D01*
X39741841Y-20983500D01*
X38651083Y-20983500D01*
X38584044Y-20963815D01*
X38563402Y-20947181D01*
X37243118Y-19626897D01*
X37209633Y-19565574D01*
X37206799Y-19539216D01*
X37206799Y-18354001D01*
X37226484Y-18286962D01*
X37279288Y-18241207D01*
X37330799Y-18230001D01*
X79802300Y-18230001D01*
X79869339Y-18249686D01*
G37*
G04 #@! TD.AperFunction*
G04 #@! TA.AperFunction,Conductor*
G36*
X75383339Y-51901685D02*
G01*
X75429094Y-51954489D01*
X75440300Y-52006000D01*
X75440300Y-52132000D01*
X75566300Y-52132000D01*
X75633339Y-52151685D01*
X75679094Y-52204489D01*
X75690300Y-52256000D01*
X75690300Y-53331999D01*
X75752772Y-53331999D01*
X75752786Y-53331998D01*
X75855497Y-53321505D01*
X76021919Y-53266358D01*
X76021924Y-53266356D01*
X76171142Y-53174317D01*
X76264764Y-53080695D01*
X76326087Y-53047210D01*
X76395779Y-53052194D01*
X76440127Y-53080695D01*
X76534144Y-53174712D01*
X76683466Y-53266814D01*
X76850003Y-53321999D01*
X76952791Y-53332500D01*
X77399800Y-53332499D01*
X77466839Y-53352183D01*
X77512594Y-53404987D01*
X77523800Y-53456499D01*
X77523800Y-58386902D01*
X77504115Y-58453941D01*
X77487481Y-58474583D01*
X73452781Y-62509282D01*
X73452779Y-62509284D01*
X73427768Y-62552606D01*
X73417196Y-62570918D01*
X73373723Y-62646215D01*
X73332799Y-62798943D01*
X73332799Y-62798945D01*
X73332799Y-62967046D01*
X73332800Y-62967059D01*
X73332800Y-63022500D01*
X73313115Y-63089539D01*
X73260311Y-63135294D01*
X73208800Y-63146500D01*
X72758429Y-63146500D01*
X72758423Y-63146501D01*
X72698816Y-63152908D01*
X72579633Y-63197361D01*
X72509941Y-63202345D01*
X72492967Y-63197361D01*
X72373782Y-63152908D01*
X72373783Y-63152908D01*
X72314183Y-63146501D01*
X72314181Y-63146500D01*
X72314173Y-63146500D01*
X72314165Y-63146500D01*
X72117800Y-63146500D01*
X72050761Y-63126815D01*
X72005006Y-63074011D01*
X71993800Y-63022500D01*
X71993800Y-55006457D01*
X71993799Y-55006454D01*
X71986062Y-54977578D01*
X71983384Y-54967584D01*
X71952877Y-54853729D01*
X71922647Y-54801369D01*
X71873820Y-54716798D01*
X71762016Y-54604994D01*
X71762015Y-54604993D01*
X71757685Y-54600663D01*
X71757674Y-54600653D01*
X71093153Y-53936132D01*
X71059668Y-53874809D01*
X71064652Y-53805117D01*
X71106524Y-53749184D01*
X71171988Y-53724767D01*
X71212922Y-53728675D01*
X71320499Y-53757501D01*
X71320502Y-53757501D01*
X71486210Y-53757501D01*
X71486226Y-53757500D01*
X72282375Y-53757500D01*
X72282391Y-53757501D01*
X72289987Y-53757501D01*
X72448098Y-53757501D01*
X72448101Y-53757501D01*
X72600829Y-53716577D01*
X72674929Y-53673795D01*
X72697256Y-53660905D01*
X72737753Y-53637524D01*
X72737752Y-53637524D01*
X72737760Y-53637520D01*
X72849564Y-53525716D01*
X72849564Y-53525714D01*
X72859768Y-53515511D01*
X72859772Y-53515506D01*
X73042804Y-53332473D01*
X73042814Y-53332466D01*
X73053282Y-53321998D01*
X73064664Y-53310615D01*
X73125983Y-53277129D01*
X73195675Y-53282110D01*
X73208576Y-53288419D01*
X73208630Y-53288304D01*
X73215180Y-53291358D01*
X73381602Y-53346505D01*
X73381609Y-53346506D01*
X73484319Y-53356999D01*
X74034300Y-53356999D01*
X74084272Y-53356999D01*
X74084286Y-53356998D01*
X74186997Y-53346505D01*
X74353419Y-53291358D01*
X74353424Y-53291356D01*
X74502645Y-53199315D01*
X74530869Y-53171092D01*
X74592192Y-53137607D01*
X74661884Y-53142591D01*
X74706231Y-53171092D01*
X74709454Y-53174315D01*
X74858675Y-53266356D01*
X74858680Y-53266358D01*
X75025102Y-53321505D01*
X75025109Y-53321506D01*
X75127819Y-53331999D01*
X75190299Y-53331998D01*
X75190300Y-53331998D01*
X75190300Y-52382000D01*
X74034300Y-52382000D01*
X74034300Y-53356999D01*
X73484319Y-53356999D01*
X73534299Y-53356998D01*
X73534300Y-53356998D01*
X73534300Y-52256000D01*
X73553985Y-52188961D01*
X73606789Y-52143206D01*
X73658300Y-52132000D01*
X73784300Y-52132000D01*
X73784300Y-52006000D01*
X73803985Y-51938961D01*
X73856789Y-51893206D01*
X73908300Y-51882000D01*
X75316300Y-51882000D01*
X75383339Y-51901685D01*
G37*
G04 #@! TD.AperFunction*
G04 #@! TA.AperFunction,Conductor*
G36*
X61163831Y-59760185D02*
G01*
X61184473Y-59776819D01*
X61247857Y-59840203D01*
X61281342Y-59901526D01*
X61276358Y-59971218D01*
X61234486Y-60027151D01*
X61169022Y-60051568D01*
X61147573Y-60051242D01*
X61140310Y-60050500D01*
X60540298Y-60050500D01*
X60540280Y-60050501D01*
X60437503Y-60061000D01*
X60437496Y-60061002D01*
X60355460Y-60088186D01*
X60285632Y-60090587D01*
X60225590Y-60054855D01*
X60199415Y-60011435D01*
X60198827Y-60009756D01*
X60164089Y-59910478D01*
X60164088Y-59910476D01*
X60162331Y-59905455D01*
X60158770Y-59835676D01*
X60193499Y-59775048D01*
X60255492Y-59742821D01*
X60279373Y-59740500D01*
X61096792Y-59740500D01*
X61163831Y-59760185D01*
G37*
G04 #@! TD.AperFunction*
G04 #@! TA.AperFunction,Conductor*
G36*
X62915739Y-53715784D02*
G01*
X62961494Y-53768588D01*
X62972700Y-53820099D01*
X62972700Y-54330600D01*
X62982884Y-54340784D01*
X63015239Y-54350285D01*
X63060994Y-54403089D01*
X63072200Y-54454600D01*
X63072200Y-55125500D01*
X63052515Y-55192539D01*
X62999711Y-55238294D01*
X62948200Y-55249500D01*
X62634799Y-55249500D01*
X62634780Y-55249501D01*
X62532003Y-55260000D01*
X62532000Y-55260001D01*
X62365468Y-55315185D01*
X62365463Y-55315187D01*
X62216142Y-55407289D01*
X62092089Y-55531342D01*
X61999987Y-55680663D01*
X61999985Y-55680668D01*
X61984697Y-55726804D01*
X61944801Y-55847203D01*
X61944801Y-55847204D01*
X61944800Y-55847204D01*
X61934300Y-55949983D01*
X61934300Y-56950001D01*
X61934301Y-56950019D01*
X61944800Y-57052796D01*
X61944801Y-57052799D01*
X61992182Y-57195782D01*
X61999986Y-57219334D01*
X62076195Y-57342890D01*
X62092089Y-57368657D01*
X62110702Y-57387271D01*
X62144186Y-57448594D01*
X62139200Y-57518286D01*
X62110701Y-57562631D01*
X61982587Y-57690745D01*
X61890487Y-57840063D01*
X61890485Y-57840068D01*
X61887266Y-57849782D01*
X61835301Y-58006603D01*
X61835301Y-58006604D01*
X61835300Y-58006604D01*
X61824800Y-58109383D01*
X61824800Y-58146460D01*
X61805115Y-58213499D01*
X61752311Y-58259254D01*
X61683153Y-58269198D01*
X61676609Y-58268077D01*
X61532943Y-58239500D01*
X61532940Y-58239500D01*
X60953112Y-58239500D01*
X60886073Y-58219815D01*
X60840318Y-58167011D01*
X60829892Y-58129383D01*
X60823669Y-58074152D01*
X60823668Y-58074147D01*
X60823668Y-58074145D01*
X60764089Y-57903878D01*
X60668116Y-57751138D01*
X60540562Y-57623584D01*
X60387822Y-57527611D01*
X60387819Y-57527609D01*
X60289253Y-57493119D01*
X60232477Y-57452398D01*
X60206730Y-57387445D01*
X60220186Y-57318883D01*
X60268574Y-57268481D01*
X60316324Y-57252858D01*
X60339824Y-57250210D01*
X60471549Y-57235369D01*
X60471552Y-57235368D01*
X60471555Y-57235368D01*
X60641822Y-57175789D01*
X60794562Y-57079816D01*
X60922116Y-56952262D01*
X61018089Y-56799522D01*
X61077668Y-56629255D01*
X61087461Y-56542331D01*
X61114526Y-56477921D01*
X61123000Y-56468535D01*
X61188820Y-56402716D01*
X61258633Y-56281796D01*
X61265010Y-56270751D01*
X61265013Y-56270746D01*
X61267875Y-56265788D01*
X61267877Y-56265785D01*
X61308801Y-56113057D01*
X61308801Y-55954943D01*
X61308801Y-55947348D01*
X61308800Y-55947330D01*
X61308800Y-54155503D01*
X61328485Y-54088464D01*
X61381289Y-54042709D01*
X61418911Y-54032284D01*
X61486820Y-54024633D01*
X61486823Y-54024632D01*
X61486824Y-54024632D01*
X61540279Y-54005926D01*
X61570814Y-53995241D01*
X61640593Y-53991679D01*
X61701221Y-54026408D01*
X61727949Y-54068941D01*
X61729348Y-54072691D01*
X61729348Y-54072692D01*
X61815509Y-54187787D01*
X61815512Y-54187790D01*
X61930606Y-54273950D01*
X61930613Y-54273954D01*
X62065320Y-54324196D01*
X62065327Y-54324198D01*
X62124855Y-54330599D01*
X62124872Y-54330600D01*
X62572700Y-54330600D01*
X62572700Y-53820099D01*
X62592385Y-53753060D01*
X62645189Y-53707305D01*
X62696698Y-53696099D01*
X62848700Y-53696099D01*
X62915739Y-53715784D01*
G37*
G04 #@! TD.AperFunction*
G04 #@! TA.AperFunction,Conductor*
G36*
X54251134Y-55338548D02*
G01*
X54295481Y-55367049D01*
X54389144Y-55460712D01*
X54538466Y-55552814D01*
X54705003Y-55607999D01*
X54807791Y-55618500D01*
X55384441Y-55618499D01*
X55451480Y-55638183D01*
X55497235Y-55690987D01*
X55507179Y-55760146D01*
X55478154Y-55823702D01*
X55453333Y-55845601D01*
X55421230Y-55867051D01*
X54079130Y-57209150D01*
X54017807Y-57242635D01*
X53948115Y-57237651D01*
X53892184Y-57195782D01*
X53877217Y-57175789D01*
X53864880Y-57159309D01*
X53840463Y-57093850D01*
X53855313Y-57025576D01*
X53864871Y-57010702D01*
X53894046Y-56971731D01*
X53944341Y-56836883D01*
X53950750Y-56777273D01*
X53950749Y-56122728D01*
X53944341Y-56063117D01*
X53940537Y-56052919D01*
X53894047Y-55928271D01*
X53894043Y-55928264D01*
X53807798Y-55813057D01*
X53807796Y-55813054D01*
X53778173Y-55790878D01*
X53736303Y-55734945D01*
X53731319Y-55665253D01*
X53764804Y-55603930D01*
X53813479Y-55573906D01*
X53877134Y-55552814D01*
X54026456Y-55460712D01*
X54120119Y-55367049D01*
X54181442Y-55333564D01*
X54251134Y-55338548D01*
G37*
G04 #@! TD.AperFunction*
G04 #@! TA.AperFunction,Conductor*
G36*
X55018357Y-37700985D02*
G01*
X55038999Y-37717619D01*
X55099481Y-37778101D01*
X55132966Y-37839424D01*
X55135800Y-37865782D01*
X55135800Y-42832542D01*
X55145535Y-42881480D01*
X55145535Y-42881482D01*
X55174247Y-43025828D01*
X55174250Y-43025840D01*
X55181359Y-43043001D01*
X55249666Y-43207911D01*
X55249671Y-43207920D01*
X55359159Y-43371780D01*
X55359160Y-43371781D01*
X55359161Y-43371782D01*
X55498518Y-43511139D01*
X55498519Y-43511139D01*
X55505586Y-43518206D01*
X55505585Y-43518206D01*
X55505589Y-43518209D01*
X56260513Y-44273135D01*
X56260516Y-44273138D01*
X56300372Y-44299769D01*
X56424379Y-44382628D01*
X56424392Y-44382635D01*
X56553133Y-44435961D01*
X56606459Y-44458049D01*
X56606464Y-44458051D01*
X56669728Y-44470635D01*
X56698041Y-44476266D01*
X56759950Y-44508648D01*
X56794526Y-44569363D01*
X56797850Y-44597883D01*
X56797850Y-45093270D01*
X56797851Y-45093276D01*
X56804258Y-45152883D01*
X56854552Y-45287728D01*
X56854556Y-45287735D01*
X56940802Y-45402944D01*
X56940805Y-45402947D01*
X57056014Y-45489193D01*
X57056021Y-45489197D01*
X57190867Y-45539491D01*
X57190866Y-45539491D01*
X57197794Y-45540235D01*
X57250477Y-45545900D01*
X58806722Y-45545899D01*
X58866333Y-45539491D01*
X59001181Y-45489196D01*
X59116396Y-45402946D01*
X59116396Y-45402944D01*
X59116398Y-45402944D01*
X59116530Y-45402813D01*
X59116693Y-45402724D01*
X59123495Y-45397632D01*
X59124227Y-45398610D01*
X59177855Y-45369333D01*
X59204204Y-45366501D01*
X59270953Y-45366501D01*
X59270969Y-45366500D01*
X59900203Y-45366500D01*
X59967242Y-45386185D01*
X59987884Y-45402819D01*
X60413981Y-45828916D01*
X60447466Y-45890239D01*
X60450300Y-45916597D01*
X60450300Y-46806000D01*
X60430615Y-46873039D01*
X60377811Y-46918794D01*
X60326300Y-46930000D01*
X60200300Y-46930000D01*
X60200300Y-47056000D01*
X60180615Y-47123039D01*
X60127811Y-47168794D01*
X60076300Y-47180000D01*
X58975301Y-47180000D01*
X58975301Y-47229986D01*
X58985794Y-47332697D01*
X59040941Y-47499119D01*
X59040943Y-47499124D01*
X59125618Y-47636403D01*
X59144058Y-47703796D01*
X59123135Y-47770459D01*
X59069493Y-47815229D01*
X59020079Y-47825500D01*
X58950347Y-47825500D01*
X58907014Y-47817682D01*
X58866331Y-47802508D01*
X58866333Y-47802508D01*
X58806733Y-47796101D01*
X58806731Y-47796100D01*
X58806723Y-47796100D01*
X58806714Y-47796100D01*
X57250479Y-47796100D01*
X57250473Y-47796101D01*
X57190866Y-47802508D01*
X57150186Y-47817682D01*
X57106853Y-47825500D01*
X56240180Y-47825500D01*
X56102929Y-47852802D01*
X56102919Y-47852804D01*
X56095187Y-47854342D01*
X56095182Y-47854343D01*
X55958611Y-47910912D01*
X55958598Y-47910919D01*
X55835684Y-47993048D01*
X55835680Y-47993051D01*
X54022730Y-49806001D01*
X53961407Y-49839486D01*
X53891715Y-49834502D01*
X53835782Y-49792630D01*
X53811365Y-49727166D01*
X53811049Y-49718320D01*
X53811049Y-49518729D01*
X53811048Y-49518723D01*
X53809848Y-49507562D01*
X53804641Y-49459117D01*
X53793329Y-49428789D01*
X53754347Y-49324272D01*
X53754346Y-49324269D01*
X53725179Y-49285307D01*
X53700763Y-49219848D01*
X53715614Y-49151575D01*
X53725171Y-49136702D01*
X53754346Y-49097731D01*
X53804641Y-48962883D01*
X53811050Y-48903273D01*
X53811049Y-48248728D01*
X53804641Y-48189117D01*
X53803904Y-48187142D01*
X53754347Y-48054271D01*
X53754343Y-48054264D01*
X53668097Y-47939055D01*
X53668094Y-47939052D01*
X53552885Y-47852806D01*
X53552878Y-47852802D01*
X53418032Y-47802508D01*
X53418033Y-47802508D01*
X53358433Y-47796101D01*
X53358431Y-47796100D01*
X53358423Y-47796100D01*
X53358415Y-47796100D01*
X53251565Y-47796100D01*
X53184526Y-47776415D01*
X53182674Y-47775202D01*
X53054211Y-47689366D01*
X52872139Y-47613950D01*
X52872129Y-47613947D01*
X52678843Y-47575500D01*
X52678841Y-47575500D01*
X52481759Y-47575500D01*
X52481757Y-47575500D01*
X52288470Y-47613947D01*
X52288460Y-47613950D01*
X52106393Y-47689364D01*
X52106382Y-47689370D01*
X51977922Y-47775203D01*
X51911244Y-47796080D01*
X51909033Y-47796100D01*
X51802180Y-47796100D01*
X51802173Y-47796101D01*
X51742566Y-47802508D01*
X51607721Y-47852802D01*
X51607714Y-47852806D01*
X51492505Y-47939052D01*
X51492502Y-47939055D01*
X51421568Y-48033811D01*
X51365634Y-48075682D01*
X51322302Y-48083500D01*
X50656800Y-48083500D01*
X50589761Y-48063815D01*
X50544006Y-48011011D01*
X50532800Y-47959500D01*
X50532800Y-46630013D01*
X58975300Y-46630013D01*
X58975300Y-46680000D01*
X59950300Y-46680000D01*
X59950300Y-45930000D01*
X59675329Y-45930000D01*
X59675312Y-45930001D01*
X59572602Y-45940494D01*
X59406180Y-45995641D01*
X59406175Y-45995643D01*
X59256954Y-46087684D01*
X59132984Y-46211654D01*
X59040943Y-46360875D01*
X59040941Y-46360880D01*
X58985794Y-46527302D01*
X58985793Y-46527309D01*
X58975300Y-46630013D01*
X50532800Y-46630013D01*
X50532800Y-44009531D01*
X50552485Y-43942492D01*
X50569115Y-43921854D01*
X51137871Y-43353097D01*
X51199192Y-43319614D01*
X51268883Y-43324598D01*
X51324817Y-43366469D01*
X51349234Y-43431934D01*
X51349550Y-43440780D01*
X51349550Y-43823269D01*
X51349551Y-43823276D01*
X51355958Y-43882883D01*
X51406252Y-44017728D01*
X51406253Y-44017730D01*
X51435418Y-44056690D01*
X51459834Y-44122155D01*
X51444982Y-44190428D01*
X51435418Y-44205310D01*
X51406253Y-44244269D01*
X51406252Y-44244271D01*
X51357593Y-44374735D01*
X51355959Y-44379117D01*
X51349550Y-44438727D01*
X51349550Y-44438734D01*
X51349550Y-44438735D01*
X51349550Y-45093270D01*
X51349551Y-45093276D01*
X51355958Y-45152883D01*
X51406252Y-45287728D01*
X51406256Y-45287735D01*
X51492502Y-45402944D01*
X51492505Y-45402947D01*
X51607714Y-45489193D01*
X51607721Y-45489197D01*
X51742567Y-45539491D01*
X51742566Y-45539491D01*
X51749494Y-45540235D01*
X51802177Y-45545900D01*
X53358422Y-45545899D01*
X53418033Y-45539491D01*
X53552881Y-45489196D01*
X53668096Y-45402946D01*
X53754346Y-45287731D01*
X53804641Y-45152883D01*
X53811050Y-45093273D01*
X53811049Y-44438728D01*
X53804641Y-44379117D01*
X53802074Y-44372235D01*
X53754347Y-44244272D01*
X53754346Y-44244269D01*
X53725179Y-44205307D01*
X53700763Y-44139848D01*
X53715614Y-44071575D01*
X53725180Y-44056690D01*
X53733432Y-44045667D01*
X53745005Y-44032311D01*
X54343502Y-43433816D01*
X54392736Y-43360129D01*
X54425634Y-43310895D01*
X54482208Y-43174313D01*
X54496696Y-43101478D01*
X54511050Y-43029320D01*
X54511050Y-40152681D01*
X54502417Y-40109285D01*
X54502417Y-40109284D01*
X54482209Y-40007688D01*
X54449068Y-39927680D01*
X54449068Y-39927679D01*
X54425637Y-39871111D01*
X54425635Y-39871107D01*
X54425634Y-39871105D01*
X54381470Y-39805009D01*
X54343502Y-39748184D01*
X54100257Y-39504939D01*
X54077603Y-39468869D01*
X54075763Y-39469756D01*
X54072742Y-39463484D01*
X54072739Y-39463480D01*
X54072739Y-39463478D01*
X53976766Y-39310738D01*
X53849212Y-39183184D01*
X53798959Y-39151608D01*
X53696473Y-39087211D01*
X53526204Y-39027631D01*
X53526200Y-39027630D01*
X53397861Y-39013170D01*
X53333447Y-38986103D01*
X53293892Y-38928508D01*
X53291755Y-38858671D01*
X53324062Y-38802271D01*
X53614835Y-38511498D01*
X53676156Y-38478015D01*
X53688611Y-38475963D01*
X53775555Y-38466168D01*
X53945822Y-38406589D01*
X54098562Y-38310616D01*
X54226116Y-38183062D01*
X54322089Y-38030322D01*
X54381668Y-37860055D01*
X54388178Y-37802284D01*
X54389402Y-37791417D01*
X54416468Y-37727003D01*
X54474063Y-37687448D01*
X54512622Y-37681300D01*
X54951318Y-37681300D01*
X55018357Y-37700985D01*
G37*
G04 #@! TD.AperFunction*
G04 #@! TA.AperFunction,Conductor*
G36*
X75663086Y-47900785D02*
G01*
X75683728Y-47917419D01*
X76584350Y-48818041D01*
X76617835Y-48879364D01*
X76612851Y-48949056D01*
X76570979Y-49004989D01*
X76561766Y-49011261D01*
X76487142Y-49057289D01*
X76393481Y-49150951D01*
X76332158Y-49184436D01*
X76262466Y-49179452D01*
X76218119Y-49150951D01*
X76124457Y-49057289D01*
X76124456Y-49057288D01*
X75975134Y-48965186D01*
X75808597Y-48910001D01*
X75808595Y-48910000D01*
X75705810Y-48899500D01*
X75080798Y-48899500D01*
X75080780Y-48899501D01*
X74978003Y-48910000D01*
X74978000Y-48910001D01*
X74811468Y-48965185D01*
X74811463Y-48965187D01*
X74662142Y-49057289D01*
X74638981Y-49080451D01*
X74577658Y-49113936D01*
X74507966Y-49108952D01*
X74463619Y-49080451D01*
X74440457Y-49057289D01*
X74440456Y-49057288D01*
X74291134Y-48965186D01*
X74124597Y-48910001D01*
X74124595Y-48910000D01*
X74021810Y-48899500D01*
X73396798Y-48899500D01*
X73396780Y-48899501D01*
X73294003Y-48910000D01*
X73294000Y-48910001D01*
X73176407Y-48948968D01*
X73106578Y-48951370D01*
X73049722Y-48918943D01*
X72869134Y-48738355D01*
X72869132Y-48738352D01*
X72750261Y-48619481D01*
X72750256Y-48619477D01*
X72646191Y-48559396D01*
X72646190Y-48559395D01*
X72613334Y-48540425D01*
X72613333Y-48540424D01*
X72593131Y-48535011D01*
X72460601Y-48499499D01*
X72302487Y-48499499D01*
X72294891Y-48499499D01*
X72294875Y-48499500D01*
X70844828Y-48499500D01*
X70686713Y-48499500D01*
X70533986Y-48540423D01*
X70533985Y-48540423D01*
X70533983Y-48540424D01*
X70533980Y-48540425D01*
X70501125Y-48559395D01*
X70501124Y-48559396D01*
X70397058Y-48619477D01*
X70397053Y-48619481D01*
X70313539Y-48702996D01*
X70285251Y-48731284D01*
X70285249Y-48731286D01*
X70042176Y-48974360D01*
X69832755Y-49183781D01*
X69771432Y-49217266D01*
X69745074Y-49220100D01*
X69197200Y-49220100D01*
X69130161Y-49200415D01*
X69084406Y-49147611D01*
X69073200Y-49096101D01*
X69073199Y-48937730D01*
X69073197Y-48937709D01*
X69067139Y-48881355D01*
X69067139Y-48854844D01*
X69073199Y-48798480D01*
X69073200Y-48798473D01*
X69073199Y-48302728D01*
X69066886Y-48244000D01*
X69066887Y-48217494D01*
X69072699Y-48163441D01*
X69072700Y-48163427D01*
X69072700Y-48115600D01*
X69049881Y-48092781D01*
X69016396Y-48031458D01*
X69021380Y-47961766D01*
X69063252Y-47905833D01*
X69128716Y-47881416D01*
X69137562Y-47881100D01*
X75596047Y-47881100D01*
X75663086Y-47900785D01*
G37*
G04 #@! TD.AperFunction*
G04 #@! TA.AperFunction,Conductor*
G36*
X29202539Y-36916285D02*
G01*
X29248294Y-36969089D01*
X29259500Y-37020600D01*
X29259500Y-38131395D01*
X29259501Y-38131395D01*
X29261986Y-38131200D01*
X29419698Y-38085381D01*
X29561052Y-38001785D01*
X29561061Y-38001778D01*
X29677178Y-37885661D01*
X29677185Y-37885652D01*
X29760782Y-37744296D01*
X29760783Y-37744293D01*
X29806599Y-37586595D01*
X29806600Y-37586589D01*
X29809499Y-37549749D01*
X29809500Y-37549734D01*
X29809500Y-37316997D01*
X29829185Y-37249958D01*
X29881989Y-37204203D01*
X29951147Y-37194259D01*
X30014703Y-37223284D01*
X30021181Y-37229316D01*
X30381439Y-37589574D01*
X30381449Y-37589585D01*
X30385779Y-37593915D01*
X30385780Y-37593916D01*
X30497584Y-37705720D01*
X30564750Y-37744498D01*
X30634515Y-37784777D01*
X30787243Y-37825700D01*
X31525403Y-37825700D01*
X31592442Y-37845385D01*
X31613084Y-37862019D01*
X32855981Y-39104916D01*
X32889466Y-39166239D01*
X32892300Y-39192597D01*
X32892300Y-39805001D01*
X32892301Y-39805007D01*
X32902800Y-39907796D01*
X32902801Y-39907799D01*
X32956158Y-40068818D01*
X32957986Y-40074334D01*
X33050088Y-40223656D01*
X33174144Y-40347712D01*
X33245896Y-40391968D01*
X33292621Y-40443915D01*
X33304800Y-40497507D01*
X33304800Y-42044077D01*
X33285115Y-42111116D01*
X33232311Y-42156871D01*
X33163153Y-42166815D01*
X33137467Y-42160259D01*
X33023386Y-42117710D01*
X33023385Y-42117709D01*
X33023383Y-42117709D01*
X32963773Y-42111300D01*
X32963763Y-42111300D01*
X32268029Y-42111300D01*
X32268023Y-42111301D01*
X32208416Y-42117708D01*
X32073571Y-42168002D01*
X32073564Y-42168006D01*
X31958355Y-42254252D01*
X31958352Y-42254255D01*
X31872106Y-42369464D01*
X31872102Y-42369471D01*
X31827820Y-42488200D01*
X31821809Y-42504317D01*
X31815400Y-42563927D01*
X31815400Y-42563934D01*
X31815400Y-42563935D01*
X31815400Y-43259670D01*
X31815401Y-43259676D01*
X31821808Y-43319283D01*
X31872102Y-43454128D01*
X31872106Y-43454135D01*
X31958352Y-43569344D01*
X31958355Y-43569347D01*
X32073564Y-43655593D01*
X32073571Y-43655597D01*
X32114993Y-43671046D01*
X32208417Y-43705891D01*
X32268027Y-43712300D01*
X32963772Y-43712299D01*
X33023383Y-43705891D01*
X33158231Y-43655596D01*
X33273446Y-43569346D01*
X33278952Y-43561991D01*
X33334885Y-43520119D01*
X33378220Y-43512300D01*
X33576003Y-43512300D01*
X33643042Y-43531985D01*
X33663684Y-43548619D01*
X38240884Y-48125819D01*
X38274369Y-48187142D01*
X38269385Y-48256834D01*
X38227513Y-48312767D01*
X38162049Y-48337184D01*
X38153203Y-48337500D01*
X37864675Y-48337500D01*
X37797636Y-48317815D01*
X37761574Y-48282392D01*
X37753440Y-48270219D01*
X37753435Y-48270213D01*
X37614083Y-48130861D01*
X37527761Y-48073183D01*
X37450220Y-48021371D01*
X37450207Y-48021364D01*
X37283631Y-47952367D01*
X37268139Y-47945950D01*
X37268129Y-47945947D01*
X37125777Y-47917632D01*
X37125776Y-47917631D01*
X37091994Y-47910912D01*
X37074842Y-47907500D01*
X37074841Y-47907500D01*
X34877882Y-47907500D01*
X34810843Y-47887815D01*
X34790201Y-47871181D01*
X30814874Y-43895854D01*
X30781389Y-43834531D01*
X30786373Y-43764839D01*
X30828245Y-43708906D01*
X30859222Y-43691991D01*
X30957986Y-43655154D01*
X30957993Y-43655150D01*
X31073087Y-43568990D01*
X31073090Y-43568987D01*
X31159250Y-43453893D01*
X31159254Y-43453886D01*
X31209496Y-43319179D01*
X31209498Y-43319172D01*
X31215899Y-43259644D01*
X31215900Y-43259627D01*
X31215900Y-43161800D01*
X30539900Y-43161800D01*
X30472861Y-43142115D01*
X30427106Y-43089311D01*
X30415900Y-43037800D01*
X30415900Y-42911800D01*
X30289900Y-42911800D01*
X30222861Y-42892115D01*
X30177106Y-42839311D01*
X30165900Y-42787800D01*
X30165900Y-42661800D01*
X30665900Y-42661800D01*
X31215900Y-42661800D01*
X31215900Y-42563972D01*
X31215899Y-42563955D01*
X31209498Y-42504427D01*
X31209496Y-42504420D01*
X31159254Y-42369713D01*
X31159250Y-42369706D01*
X31073090Y-42254612D01*
X31073087Y-42254609D01*
X30957993Y-42168449D01*
X30957986Y-42168445D01*
X30823279Y-42118203D01*
X30823272Y-42118201D01*
X30763744Y-42111800D01*
X30665900Y-42111800D01*
X30665900Y-42661800D01*
X30165900Y-42661800D01*
X30165900Y-42111800D01*
X30068055Y-42111800D01*
X30008527Y-42118201D01*
X30008519Y-42118203D01*
X29891147Y-42161980D01*
X29821455Y-42166964D01*
X29760132Y-42133479D01*
X29726648Y-42072155D01*
X29731633Y-42002464D01*
X29742589Y-41973088D01*
X29742588Y-41973088D01*
X29742591Y-41973083D01*
X29749000Y-41913473D01*
X29748999Y-41217728D01*
X29742591Y-41158117D01*
X29721921Y-41102699D01*
X29692297Y-41023271D01*
X29692293Y-41023264D01*
X29606047Y-40908055D01*
X29606044Y-40908052D01*
X29551767Y-40867420D01*
X29511855Y-40814103D01*
X29511189Y-40814380D01*
X29510106Y-40811767D01*
X29509896Y-40811486D01*
X29509578Y-40810491D01*
X29508076Y-40806865D01*
X29429024Y-40669942D01*
X29429021Y-40669938D01*
X29429020Y-40669936D01*
X29317216Y-40558132D01*
X29317215Y-40558131D01*
X29312885Y-40553801D01*
X29312874Y-40553791D01*
X28711495Y-39952412D01*
X28678010Y-39891089D01*
X28682994Y-39821397D01*
X28711495Y-39777050D01*
X28727581Y-39760965D01*
X28811244Y-39619498D01*
X28845005Y-39503291D01*
X28857097Y-39461673D01*
X28857098Y-39461667D01*
X28859999Y-39424801D01*
X28860000Y-39424794D01*
X28860000Y-38118406D01*
X28857098Y-38081531D01*
X28856195Y-38078424D01*
X28811245Y-37923706D01*
X28811245Y-37923705D01*
X28811244Y-37923704D01*
X28811244Y-37923702D01*
X28783749Y-37877211D01*
X28776767Y-37865404D01*
X28759500Y-37802284D01*
X28759500Y-37020600D01*
X28779185Y-36953561D01*
X28831989Y-36907806D01*
X28883500Y-36896600D01*
X29135500Y-36896600D01*
X29202539Y-36916285D01*
G37*
G04 #@! TD.AperFunction*
G04 #@! TA.AperFunction,Conductor*
G36*
X66235939Y-44027685D02*
G01*
X66281694Y-44080489D01*
X66292900Y-44132000D01*
X66292900Y-44384000D01*
X66273215Y-44451039D01*
X66220411Y-44496794D01*
X66168900Y-44508000D01*
X64723400Y-44508000D01*
X64656361Y-44488315D01*
X64610606Y-44435511D01*
X64599400Y-44384000D01*
X64599400Y-44132000D01*
X64619085Y-44064961D01*
X64671889Y-44019206D01*
X64723400Y-44008000D01*
X66168900Y-44008000D01*
X66235939Y-44027685D01*
G37*
G04 #@! TD.AperFunction*
G04 #@! TA.AperFunction,Conductor*
G36*
X59946548Y-40052185D02*
G01*
X59992303Y-40104989D01*
X60002247Y-40174147D01*
X59973222Y-40237703D01*
X59918513Y-40274206D01*
X59914180Y-40275641D01*
X59914175Y-40275643D01*
X59764954Y-40367684D01*
X59640984Y-40491654D01*
X59548943Y-40640875D01*
X59548941Y-40640880D01*
X59501055Y-40785392D01*
X59461282Y-40842837D01*
X59396766Y-40869660D01*
X59327991Y-40857345D01*
X59276791Y-40809802D01*
X59259349Y-40746388D01*
X59259349Y-40628729D01*
X59259348Y-40628723D01*
X59252941Y-40569116D01*
X59202647Y-40434271D01*
X59202643Y-40434264D01*
X59137849Y-40347712D01*
X59116396Y-40319054D01*
X59031854Y-40255766D01*
X58989984Y-40199833D01*
X58985000Y-40130141D01*
X59018485Y-40068818D01*
X59079809Y-40035334D01*
X59106166Y-40032500D01*
X59879509Y-40032500D01*
X59946548Y-40052185D01*
G37*
G04 #@! TD.AperFunction*
G04 #@! TA.AperFunction,Conductor*
G36*
X31608839Y-18249686D02*
G01*
X31654594Y-18302490D01*
X31665800Y-18354001D01*
X31665800Y-20634870D01*
X31665801Y-20634876D01*
X31672208Y-20694483D01*
X31722502Y-20829328D01*
X31722506Y-20829335D01*
X31808752Y-20944544D01*
X31808755Y-20944547D01*
X31923964Y-21030793D01*
X31923971Y-21030797D01*
X31968918Y-21047561D01*
X32058817Y-21081091D01*
X32118427Y-21087500D01*
X32532515Y-21087499D01*
X32599554Y-21107183D01*
X32620196Y-21123818D01*
X32659837Y-21163459D01*
X32659859Y-21163479D01*
X34686898Y-23190518D01*
X34720383Y-23251841D01*
X34715399Y-23321533D01*
X34673527Y-23377466D01*
X34608063Y-23401883D01*
X34599217Y-23402199D01*
X31796229Y-23402199D01*
X31796223Y-23402200D01*
X31736616Y-23408607D01*
X31601771Y-23458901D01*
X31601764Y-23458905D01*
X31486555Y-23545151D01*
X31486552Y-23545154D01*
X31400306Y-23660363D01*
X31400302Y-23660370D01*
X31350008Y-23795216D01*
X31343601Y-23854815D01*
X31343600Y-23854834D01*
X31343600Y-28943124D01*
X31323915Y-29010163D01*
X31271111Y-29055918D01*
X31201953Y-29065862D01*
X31154503Y-29048663D01*
X31077624Y-29001243D01*
X31077619Y-29001241D01*
X30911197Y-28946094D01*
X30911190Y-28946093D01*
X30808486Y-28935600D01*
X30746000Y-28935600D01*
X30746000Y-31335599D01*
X30808472Y-31335599D01*
X30808486Y-31335598D01*
X30911197Y-31325105D01*
X31077619Y-31269958D01*
X31077630Y-31269953D01*
X31223387Y-31180049D01*
X31290779Y-31161608D01*
X31357443Y-31182530D01*
X31397314Y-31226155D01*
X31400306Y-31231633D01*
X31486552Y-31346843D01*
X31486555Y-31346846D01*
X31601764Y-31433092D01*
X31601771Y-31433096D01*
X31736617Y-31483390D01*
X31736616Y-31483390D01*
X31743544Y-31484134D01*
X31796227Y-31489799D01*
X33640600Y-31489798D01*
X33707639Y-31509483D01*
X33753394Y-31562286D01*
X33764600Y-31613798D01*
X33764600Y-33009300D01*
X33744915Y-33076339D01*
X33692111Y-33122094D01*
X33640600Y-33133300D01*
X32922900Y-33133300D01*
X32855861Y-33113615D01*
X32810106Y-33060811D01*
X32798900Y-33009300D01*
X32798899Y-32526129D01*
X32798898Y-32526123D01*
X32792491Y-32466516D01*
X32742197Y-32331671D01*
X32742193Y-32331664D01*
X32655947Y-32216455D01*
X32655944Y-32216452D01*
X32540735Y-32130206D01*
X32540728Y-32130202D01*
X32405886Y-32079910D01*
X32405885Y-32079909D01*
X32405883Y-32079909D01*
X32346273Y-32073500D01*
X32346263Y-32073500D01*
X31717129Y-32073500D01*
X31717123Y-32073501D01*
X31657516Y-32079908D01*
X31522671Y-32130202D01*
X31522664Y-32130206D01*
X31407456Y-32216452D01*
X31407455Y-32216453D01*
X31407454Y-32216454D01*
X31360323Y-32279412D01*
X31304391Y-32321282D01*
X31261058Y-32329100D01*
X30469301Y-32329100D01*
X30402262Y-32309415D01*
X30356507Y-32256611D01*
X30351595Y-32244104D01*
X30342432Y-32216452D01*
X30323814Y-32160266D01*
X30231712Y-32010944D01*
X30107656Y-31886888D01*
X29985231Y-31811376D01*
X29958336Y-31794787D01*
X29958331Y-31794785D01*
X29956862Y-31794298D01*
X29791797Y-31739601D01*
X29791795Y-31739600D01*
X29689016Y-31729100D01*
X29076597Y-31729100D01*
X29009558Y-31709415D01*
X28988916Y-31692781D01*
X28843915Y-31547780D01*
X28810430Y-31486457D01*
X28815414Y-31416765D01*
X28857286Y-31360832D01*
X28922750Y-31336415D01*
X28931596Y-31336099D01*
X28983502Y-31336099D01*
X28983508Y-31336099D01*
X29086297Y-31325599D01*
X29252834Y-31270414D01*
X29402156Y-31178312D01*
X29496175Y-31084292D01*
X29557494Y-31050810D01*
X29627186Y-31055794D01*
X29671534Y-31084295D01*
X29765154Y-31177915D01*
X29914375Y-31269956D01*
X29914380Y-31269958D01*
X30080802Y-31325105D01*
X30080809Y-31325106D01*
X30183519Y-31335599D01*
X30245999Y-31335598D01*
X30246000Y-31335598D01*
X30246000Y-28935600D01*
X30245999Y-28935599D01*
X30183528Y-28935600D01*
X30183511Y-28935601D01*
X30080802Y-28946094D01*
X29914380Y-29001241D01*
X29914375Y-29001243D01*
X29765157Y-29093282D01*
X29671534Y-29186905D01*
X29610210Y-29220389D01*
X29540519Y-29215405D01*
X29496172Y-29186904D01*
X29402157Y-29092889D01*
X29402156Y-29092888D01*
X29305765Y-29033434D01*
X29252836Y-29000787D01*
X29252831Y-29000785D01*
X29251362Y-29000298D01*
X29086297Y-28945601D01*
X29086295Y-28945600D01*
X28983510Y-28935100D01*
X28358498Y-28935100D01*
X28358480Y-28935101D01*
X28255703Y-28945600D01*
X28255700Y-28945601D01*
X28089168Y-29000785D01*
X28089163Y-29000787D01*
X27939842Y-29092889D01*
X27815789Y-29216942D01*
X27723687Y-29366263D01*
X27723685Y-29366268D01*
X27700196Y-29437153D01*
X27668501Y-29532803D01*
X27668501Y-29532804D01*
X27668500Y-29532804D01*
X27658000Y-29635583D01*
X27658000Y-30425258D01*
X27638315Y-30492297D01*
X27621681Y-30512939D01*
X27209540Y-30925080D01*
X27009637Y-31124984D01*
X26504481Y-31630140D01*
X26443158Y-31663625D01*
X26373466Y-31658641D01*
X26317533Y-31616769D01*
X26293116Y-31551305D01*
X26292800Y-31542459D01*
X26292800Y-21692457D01*
X26273575Y-21595813D01*
X26273575Y-21595812D01*
X26254351Y-21499164D01*
X26206027Y-21382500D01*
X26178932Y-21317086D01*
X26125993Y-21237857D01*
X26069439Y-21153217D01*
X25926986Y-21010764D01*
X25926955Y-21010735D01*
X24543118Y-19626898D01*
X24509633Y-19565575D01*
X24506799Y-19539217D01*
X24506799Y-18354001D01*
X24526484Y-18286962D01*
X24579288Y-18241207D01*
X24630799Y-18230001D01*
X31541800Y-18230001D01*
X31608839Y-18249686D01*
G37*
G04 #@! TD.AperFunction*
M02*
