G04 #@! TF.GenerationSoftware,KiCad,Pcbnew,9.0.1+1*
G04 #@! TF.CreationDate,2025-11-11T14:39:57+00:00*
G04 #@! TF.ProjectId,sim-and-sd-card,73696d2d-616e-4642-9d73-642d63617264,rev?*
G04 #@! TF.SameCoordinates,Original*
G04 #@! TF.FileFunction,Legend,Bot*
G04 #@! TF.FilePolarity,Positive*
%FSLAX46Y46*%
G04 Gerber Fmt 4.6, Leading zero omitted, Abs format (unit mm)*
G04 Created by KiCad (PCBNEW 9.0.1+1) date 2025-11-11 14:39:57*
%MOMM*%
%LPD*%
G01*
G04 APERTURE LIST*
%ADD10C,0.100000*%
%ADD11R,2.540000X2.000000*%
G04 APERTURE END LIST*
D10*
X61357819Y-39788884D02*
X60357819Y-39788884D01*
X60357819Y-39788884D02*
X61072104Y-40122217D01*
X61072104Y-40122217D02*
X60357819Y-40455550D01*
X60357819Y-40455550D02*
X61357819Y-40455550D01*
X61357819Y-41074598D02*
X61310200Y-40979360D01*
X61310200Y-40979360D02*
X61262580Y-40931741D01*
X61262580Y-40931741D02*
X61167342Y-40884122D01*
X61167342Y-40884122D02*
X60881628Y-40884122D01*
X60881628Y-40884122D02*
X60786390Y-40931741D01*
X60786390Y-40931741D02*
X60738771Y-40979360D01*
X60738771Y-40979360D02*
X60691152Y-41074598D01*
X60691152Y-41074598D02*
X60691152Y-41217455D01*
X60691152Y-41217455D02*
X60738771Y-41312693D01*
X60738771Y-41312693D02*
X60786390Y-41360312D01*
X60786390Y-41360312D02*
X60881628Y-41407931D01*
X60881628Y-41407931D02*
X61167342Y-41407931D01*
X61167342Y-41407931D02*
X61262580Y-41360312D01*
X61262580Y-41360312D02*
X61310200Y-41312693D01*
X61310200Y-41312693D02*
X61357819Y-41217455D01*
X61357819Y-41217455D02*
X61357819Y-41074598D01*
X61357819Y-41979360D02*
X61310200Y-41884122D01*
X61310200Y-41884122D02*
X61214961Y-41836503D01*
X61214961Y-41836503D02*
X60357819Y-41836503D01*
X61310200Y-42741265D02*
X61357819Y-42646027D01*
X61357819Y-42646027D02*
X61357819Y-42455551D01*
X61357819Y-42455551D02*
X61310200Y-42360313D01*
X61310200Y-42360313D02*
X61214961Y-42312694D01*
X61214961Y-42312694D02*
X60834009Y-42312694D01*
X60834009Y-42312694D02*
X60738771Y-42360313D01*
X60738771Y-42360313D02*
X60691152Y-42455551D01*
X60691152Y-42455551D02*
X60691152Y-42646027D01*
X60691152Y-42646027D02*
X60738771Y-42741265D01*
X60738771Y-42741265D02*
X60834009Y-42788884D01*
X60834009Y-42788884D02*
X60929247Y-42788884D01*
X60929247Y-42788884D02*
X61024485Y-42312694D01*
X61357819Y-43122218D02*
X60691152Y-43646027D01*
X60691152Y-43122218D02*
X61357819Y-43646027D01*
X61357819Y-45312694D02*
X61357819Y-44741266D01*
X61357819Y-45026980D02*
X60357819Y-45026980D01*
X60357819Y-45026980D02*
X60500676Y-44931742D01*
X60500676Y-44931742D02*
X60595914Y-44836504D01*
X60595914Y-44836504D02*
X60643533Y-44741266D01*
X60357819Y-45931742D02*
X60357819Y-46026980D01*
X60357819Y-46026980D02*
X60405438Y-46122218D01*
X60405438Y-46122218D02*
X60453057Y-46169837D01*
X60453057Y-46169837D02*
X60548295Y-46217456D01*
X60548295Y-46217456D02*
X60738771Y-46265075D01*
X60738771Y-46265075D02*
X60976866Y-46265075D01*
X60976866Y-46265075D02*
X61167342Y-46217456D01*
X61167342Y-46217456D02*
X61262580Y-46169837D01*
X61262580Y-46169837D02*
X61310200Y-46122218D01*
X61310200Y-46122218D02*
X61357819Y-46026980D01*
X61357819Y-46026980D02*
X61357819Y-45931742D01*
X61357819Y-45931742D02*
X61310200Y-45836504D01*
X61310200Y-45836504D02*
X61262580Y-45788885D01*
X61262580Y-45788885D02*
X61167342Y-45741266D01*
X61167342Y-45741266D02*
X60976866Y-45693647D01*
X60976866Y-45693647D02*
X60738771Y-45693647D01*
X60738771Y-45693647D02*
X60548295Y-45741266D01*
X60548295Y-45741266D02*
X60453057Y-45788885D01*
X60453057Y-45788885D02*
X60405438Y-45836504D01*
X60405438Y-45836504D02*
X60357819Y-45931742D01*
X60691152Y-47122218D02*
X61357819Y-47122218D01*
X60310200Y-46884123D02*
X61024485Y-46646028D01*
X61024485Y-46646028D02*
X61024485Y-47265075D01*
X61357819Y-48169837D02*
X61357819Y-47598409D01*
X61357819Y-47884123D02*
X60357819Y-47884123D01*
X60357819Y-47884123D02*
X60500676Y-47788885D01*
X60500676Y-47788885D02*
X60595914Y-47693647D01*
X60595914Y-47693647D02*
X60643533Y-47598409D01*
X60357819Y-49026980D02*
X60357819Y-48836504D01*
X60357819Y-48836504D02*
X60405438Y-48741266D01*
X60405438Y-48741266D02*
X60453057Y-48693647D01*
X60453057Y-48693647D02*
X60595914Y-48598409D01*
X60595914Y-48598409D02*
X60786390Y-48550790D01*
X60786390Y-48550790D02*
X61167342Y-48550790D01*
X61167342Y-48550790D02*
X61262580Y-48598409D01*
X61262580Y-48598409D02*
X61310200Y-48646028D01*
X61310200Y-48646028D02*
X61357819Y-48741266D01*
X61357819Y-48741266D02*
X61357819Y-48931742D01*
X61357819Y-48931742D02*
X61310200Y-49026980D01*
X61310200Y-49026980D02*
X61262580Y-49074599D01*
X61262580Y-49074599D02*
X61167342Y-49122218D01*
X61167342Y-49122218D02*
X60929247Y-49122218D01*
X60929247Y-49122218D02*
X60834009Y-49074599D01*
X60834009Y-49074599D02*
X60786390Y-49026980D01*
X60786390Y-49026980D02*
X60738771Y-48931742D01*
X60738771Y-48931742D02*
X60738771Y-48741266D01*
X60738771Y-48741266D02*
X60786390Y-48646028D01*
X60786390Y-48646028D02*
X60834009Y-48598409D01*
X60834009Y-48598409D02*
X60929247Y-48550790D01*
X60786390Y-49693647D02*
X60738771Y-49598409D01*
X60738771Y-49598409D02*
X60691152Y-49550790D01*
X60691152Y-49550790D02*
X60595914Y-49503171D01*
X60595914Y-49503171D02*
X60548295Y-49503171D01*
X60548295Y-49503171D02*
X60453057Y-49550790D01*
X60453057Y-49550790D02*
X60405438Y-49598409D01*
X60405438Y-49598409D02*
X60357819Y-49693647D01*
X60357819Y-49693647D02*
X60357819Y-49884123D01*
X60357819Y-49884123D02*
X60405438Y-49979361D01*
X60405438Y-49979361D02*
X60453057Y-50026980D01*
X60453057Y-50026980D02*
X60548295Y-50074599D01*
X60548295Y-50074599D02*
X60595914Y-50074599D01*
X60595914Y-50074599D02*
X60691152Y-50026980D01*
X60691152Y-50026980D02*
X60738771Y-49979361D01*
X60738771Y-49979361D02*
X60786390Y-49884123D01*
X60786390Y-49884123D02*
X60786390Y-49693647D01*
X60786390Y-49693647D02*
X60834009Y-49598409D01*
X60834009Y-49598409D02*
X60881628Y-49550790D01*
X60881628Y-49550790D02*
X60976866Y-49503171D01*
X60976866Y-49503171D02*
X61167342Y-49503171D01*
X61167342Y-49503171D02*
X61262580Y-49550790D01*
X61262580Y-49550790D02*
X61310200Y-49598409D01*
X61310200Y-49598409D02*
X61357819Y-49693647D01*
X61357819Y-49693647D02*
X61357819Y-49884123D01*
X61357819Y-49884123D02*
X61310200Y-49979361D01*
X61310200Y-49979361D02*
X61262580Y-50026980D01*
X61262580Y-50026980D02*
X61167342Y-50074599D01*
X61167342Y-50074599D02*
X60976866Y-50074599D01*
X60976866Y-50074599D02*
X60881628Y-50026980D01*
X60881628Y-50026980D02*
X60834009Y-49979361D01*
X60834009Y-49979361D02*
X60786390Y-49884123D01*
X60976866Y-50503171D02*
X60976866Y-51265076D01*
X61357819Y-52265075D02*
X61357819Y-51693647D01*
X61357819Y-51979361D02*
X60357819Y-51979361D01*
X60357819Y-51979361D02*
X60500676Y-51884123D01*
X60500676Y-51884123D02*
X60595914Y-51788885D01*
X60595914Y-51788885D02*
X60643533Y-51693647D01*
X60357819Y-53122218D02*
X60357819Y-52931742D01*
X60357819Y-52931742D02*
X60405438Y-52836504D01*
X60405438Y-52836504D02*
X60453057Y-52788885D01*
X60453057Y-52788885D02*
X60595914Y-52693647D01*
X60595914Y-52693647D02*
X60786390Y-52646028D01*
X60786390Y-52646028D02*
X61167342Y-52646028D01*
X61167342Y-52646028D02*
X61262580Y-52693647D01*
X61262580Y-52693647D02*
X61310200Y-52741266D01*
X61310200Y-52741266D02*
X61357819Y-52836504D01*
X61357819Y-52836504D02*
X61357819Y-53026980D01*
X61357819Y-53026980D02*
X61310200Y-53122218D01*
X61310200Y-53122218D02*
X61262580Y-53169837D01*
X61262580Y-53169837D02*
X61167342Y-53217456D01*
X61167342Y-53217456D02*
X60929247Y-53217456D01*
X60929247Y-53217456D02*
X60834009Y-53169837D01*
X60834009Y-53169837D02*
X60786390Y-53122218D01*
X60786390Y-53122218D02*
X60738771Y-53026980D01*
X60738771Y-53026980D02*
X60738771Y-52836504D01*
X60738771Y-52836504D02*
X60786390Y-52741266D01*
X60786390Y-52741266D02*
X60834009Y-52693647D01*
X60834009Y-52693647D02*
X60929247Y-52646028D01*
X61357819Y-54169837D02*
X61357819Y-53598409D01*
X61357819Y-53884123D02*
X60357819Y-53884123D01*
X60357819Y-53884123D02*
X60500676Y-53788885D01*
X60500676Y-53788885D02*
X60595914Y-53693647D01*
X60595914Y-53693647D02*
X60643533Y-53598409D01*
X60357819Y-55026980D02*
X60357819Y-54836504D01*
X60357819Y-54836504D02*
X60405438Y-54741266D01*
X60405438Y-54741266D02*
X60453057Y-54693647D01*
X60453057Y-54693647D02*
X60595914Y-54598409D01*
X60595914Y-54598409D02*
X60786390Y-54550790D01*
X60786390Y-54550790D02*
X61167342Y-54550790D01*
X61167342Y-54550790D02*
X61262580Y-54598409D01*
X61262580Y-54598409D02*
X61310200Y-54646028D01*
X61310200Y-54646028D02*
X61357819Y-54741266D01*
X61357819Y-54741266D02*
X61357819Y-54931742D01*
X61357819Y-54931742D02*
X61310200Y-55026980D01*
X61310200Y-55026980D02*
X61262580Y-55074599D01*
X61262580Y-55074599D02*
X61167342Y-55122218D01*
X61167342Y-55122218D02*
X60929247Y-55122218D01*
X60929247Y-55122218D02*
X60834009Y-55074599D01*
X60834009Y-55074599D02*
X60786390Y-55026980D01*
X60786390Y-55026980D02*
X60738771Y-54931742D01*
X60738771Y-54931742D02*
X60738771Y-54741266D01*
X60738771Y-54741266D02*
X60786390Y-54646028D01*
X60786390Y-54646028D02*
X60834009Y-54598409D01*
X60834009Y-54598409D02*
X60929247Y-54550790D01*
X54428664Y-37969255D02*
X55238188Y-37969255D01*
X55238188Y-37969255D02*
X55333426Y-37921636D01*
X55333426Y-37921636D02*
X55381045Y-37874017D01*
X55381045Y-37874017D02*
X55428664Y-37778779D01*
X55428664Y-37778779D02*
X55428664Y-37635922D01*
X55428664Y-37635922D02*
X55381045Y-37540684D01*
X55047712Y-37969255D02*
X55095331Y-37874017D01*
X55095331Y-37874017D02*
X55095331Y-37683541D01*
X55095331Y-37683541D02*
X55047712Y-37588303D01*
X55047712Y-37588303D02*
X55000092Y-37540684D01*
X55000092Y-37540684D02*
X54904854Y-37493065D01*
X54904854Y-37493065D02*
X54619140Y-37493065D01*
X54619140Y-37493065D02*
X54523902Y-37540684D01*
X54523902Y-37540684D02*
X54476283Y-37588303D01*
X54476283Y-37588303D02*
X54428664Y-37683541D01*
X54428664Y-37683541D02*
X54428664Y-37874017D01*
X54428664Y-37874017D02*
X54476283Y-37969255D01*
X55095331Y-38445446D02*
X54428664Y-38445446D01*
X54095331Y-38445446D02*
X54142950Y-38397827D01*
X54142950Y-38397827D02*
X54190569Y-38445446D01*
X54190569Y-38445446D02*
X54142950Y-38493065D01*
X54142950Y-38493065D02*
X54095331Y-38445446D01*
X54095331Y-38445446D02*
X54190569Y-38445446D01*
X54428664Y-38778779D02*
X54428664Y-39159731D01*
X54095331Y-38921636D02*
X54952473Y-38921636D01*
X54952473Y-38921636D02*
X55047712Y-38969255D01*
X55047712Y-38969255D02*
X55095331Y-39064493D01*
X55095331Y-39064493D02*
X55095331Y-39159731D01*
X55095331Y-39493065D02*
X54095331Y-39493065D01*
X55095331Y-39921636D02*
X54571521Y-39921636D01*
X54571521Y-39921636D02*
X54476283Y-39874017D01*
X54476283Y-39874017D02*
X54428664Y-39778779D01*
X54428664Y-39778779D02*
X54428664Y-39635922D01*
X54428664Y-39635922D02*
X54476283Y-39540684D01*
X54476283Y-39540684D02*
X54523902Y-39493065D01*
X54428664Y-40826398D02*
X55095331Y-40826398D01*
X54428664Y-40397827D02*
X54952473Y-40397827D01*
X54952473Y-40397827D02*
X55047712Y-40445446D01*
X55047712Y-40445446D02*
X55095331Y-40540684D01*
X55095331Y-40540684D02*
X55095331Y-40683541D01*
X55095331Y-40683541D02*
X55047712Y-40778779D01*
X55047712Y-40778779D02*
X55000092Y-40826398D01*
X55095331Y-41302589D02*
X54095331Y-41302589D01*
X54476283Y-41302589D02*
X54428664Y-41397827D01*
X54428664Y-41397827D02*
X54428664Y-41588303D01*
X54428664Y-41588303D02*
X54476283Y-41683541D01*
X54476283Y-41683541D02*
X54523902Y-41731160D01*
X54523902Y-41731160D02*
X54619140Y-41778779D01*
X54619140Y-41778779D02*
X54904854Y-41778779D01*
X54904854Y-41778779D02*
X55000092Y-41731160D01*
X55000092Y-41731160D02*
X55047712Y-41683541D01*
X55047712Y-41683541D02*
X55095331Y-41588303D01*
X55095331Y-41588303D02*
X55095331Y-41397827D01*
X55095331Y-41397827D02*
X55047712Y-41302589D01*
X55000092Y-42207351D02*
X55047712Y-42254970D01*
X55047712Y-42254970D02*
X55095331Y-42207351D01*
X55095331Y-42207351D02*
X55047712Y-42159732D01*
X55047712Y-42159732D02*
X55000092Y-42207351D01*
X55000092Y-42207351D02*
X55095331Y-42207351D01*
X55047712Y-43112112D02*
X55095331Y-43016874D01*
X55095331Y-43016874D02*
X55095331Y-42826398D01*
X55095331Y-42826398D02*
X55047712Y-42731160D01*
X55047712Y-42731160D02*
X55000092Y-42683541D01*
X55000092Y-42683541D02*
X54904854Y-42635922D01*
X54904854Y-42635922D02*
X54619140Y-42635922D01*
X54619140Y-42635922D02*
X54523902Y-42683541D01*
X54523902Y-42683541D02*
X54476283Y-42731160D01*
X54476283Y-42731160D02*
X54428664Y-42826398D01*
X54428664Y-42826398D02*
X54428664Y-43016874D01*
X54428664Y-43016874D02*
X54476283Y-43112112D01*
X55095331Y-43683541D02*
X55047712Y-43588303D01*
X55047712Y-43588303D02*
X55000092Y-43540684D01*
X55000092Y-43540684D02*
X54904854Y-43493065D01*
X54904854Y-43493065D02*
X54619140Y-43493065D01*
X54619140Y-43493065D02*
X54523902Y-43540684D01*
X54523902Y-43540684D02*
X54476283Y-43588303D01*
X54476283Y-43588303D02*
X54428664Y-43683541D01*
X54428664Y-43683541D02*
X54428664Y-43826398D01*
X54428664Y-43826398D02*
X54476283Y-43921636D01*
X54476283Y-43921636D02*
X54523902Y-43969255D01*
X54523902Y-43969255D02*
X54619140Y-44016874D01*
X54619140Y-44016874D02*
X54904854Y-44016874D01*
X54904854Y-44016874D02*
X55000092Y-43969255D01*
X55000092Y-43969255D02*
X55047712Y-43921636D01*
X55047712Y-43921636D02*
X55095331Y-43826398D01*
X55095331Y-43826398D02*
X55095331Y-43683541D01*
X55095331Y-44445446D02*
X54428664Y-44445446D01*
X54523902Y-44445446D02*
X54476283Y-44493065D01*
X54476283Y-44493065D02*
X54428664Y-44588303D01*
X54428664Y-44588303D02*
X54428664Y-44731160D01*
X54428664Y-44731160D02*
X54476283Y-44826398D01*
X54476283Y-44826398D02*
X54571521Y-44874017D01*
X54571521Y-44874017D02*
X55095331Y-44874017D01*
X54571521Y-44874017D02*
X54476283Y-44921636D01*
X54476283Y-44921636D02*
X54428664Y-45016874D01*
X54428664Y-45016874D02*
X54428664Y-45159731D01*
X54428664Y-45159731D02*
X54476283Y-45254970D01*
X54476283Y-45254970D02*
X54571521Y-45302589D01*
X54571521Y-45302589D02*
X55095331Y-45302589D01*
X54047712Y-46493064D02*
X55333426Y-45635922D01*
X54428664Y-47254969D02*
X55238188Y-47254969D01*
X55238188Y-47254969D02*
X55333426Y-47207350D01*
X55333426Y-47207350D02*
X55381045Y-47159731D01*
X55381045Y-47159731D02*
X55428664Y-47064493D01*
X55428664Y-47064493D02*
X55428664Y-46921636D01*
X55428664Y-46921636D02*
X55381045Y-46826398D01*
X55047712Y-47254969D02*
X55095331Y-47159731D01*
X55095331Y-47159731D02*
X55095331Y-46969255D01*
X55095331Y-46969255D02*
X55047712Y-46874017D01*
X55047712Y-46874017D02*
X55000092Y-46826398D01*
X55000092Y-46826398D02*
X54904854Y-46778779D01*
X54904854Y-46778779D02*
X54619140Y-46778779D01*
X54619140Y-46778779D02*
X54523902Y-46826398D01*
X54523902Y-46826398D02*
X54476283Y-46874017D01*
X54476283Y-46874017D02*
X54428664Y-46969255D01*
X54428664Y-46969255D02*
X54428664Y-47159731D01*
X54428664Y-47159731D02*
X54476283Y-47254969D01*
X55095331Y-48159731D02*
X54571521Y-48159731D01*
X54571521Y-48159731D02*
X54476283Y-48112112D01*
X54476283Y-48112112D02*
X54428664Y-48016874D01*
X54428664Y-48016874D02*
X54428664Y-47826398D01*
X54428664Y-47826398D02*
X54476283Y-47731160D01*
X55047712Y-48159731D02*
X55095331Y-48064493D01*
X55095331Y-48064493D02*
X55095331Y-47826398D01*
X55095331Y-47826398D02*
X55047712Y-47731160D01*
X55047712Y-47731160D02*
X54952473Y-47683541D01*
X54952473Y-47683541D02*
X54857235Y-47683541D01*
X54857235Y-47683541D02*
X54761997Y-47731160D01*
X54761997Y-47731160D02*
X54714378Y-47826398D01*
X54714378Y-47826398D02*
X54714378Y-48064493D01*
X54714378Y-48064493D02*
X54666759Y-48159731D01*
X55095331Y-48635922D02*
X54428664Y-48635922D01*
X54619140Y-48635922D02*
X54523902Y-48683541D01*
X54523902Y-48683541D02*
X54476283Y-48731160D01*
X54476283Y-48731160D02*
X54428664Y-48826398D01*
X54428664Y-48826398D02*
X54428664Y-48921636D01*
X55095331Y-49683541D02*
X54095331Y-49683541D01*
X55047712Y-49683541D02*
X55095331Y-49588303D01*
X55095331Y-49588303D02*
X55095331Y-49397827D01*
X55095331Y-49397827D02*
X55047712Y-49302589D01*
X55047712Y-49302589D02*
X55000092Y-49254970D01*
X55000092Y-49254970D02*
X54904854Y-49207351D01*
X54904854Y-49207351D02*
X54619140Y-49207351D01*
X54619140Y-49207351D02*
X54523902Y-49254970D01*
X54523902Y-49254970D02*
X54476283Y-49302589D01*
X54476283Y-49302589D02*
X54428664Y-49397827D01*
X54428664Y-49397827D02*
X54428664Y-49588303D01*
X54428664Y-49588303D02*
X54476283Y-49683541D01*
X54428664Y-50159732D02*
X55095331Y-50159732D01*
X54523902Y-50159732D02*
X54476283Y-50207351D01*
X54476283Y-50207351D02*
X54428664Y-50302589D01*
X54428664Y-50302589D02*
X54428664Y-50445446D01*
X54428664Y-50445446D02*
X54476283Y-50540684D01*
X54476283Y-50540684D02*
X54571521Y-50588303D01*
X54571521Y-50588303D02*
X55095331Y-50588303D01*
X55047712Y-51445446D02*
X55095331Y-51350208D01*
X55095331Y-51350208D02*
X55095331Y-51159732D01*
X55095331Y-51159732D02*
X55047712Y-51064494D01*
X55047712Y-51064494D02*
X54952473Y-51016875D01*
X54952473Y-51016875D02*
X54571521Y-51016875D01*
X54571521Y-51016875D02*
X54476283Y-51064494D01*
X54476283Y-51064494D02*
X54428664Y-51159732D01*
X54428664Y-51159732D02*
X54428664Y-51350208D01*
X54428664Y-51350208D02*
X54476283Y-51445446D01*
X54476283Y-51445446D02*
X54571521Y-51493065D01*
X54571521Y-51493065D02*
X54666759Y-51493065D01*
X54666759Y-51493065D02*
X54761997Y-51016875D01*
X55095331Y-51921637D02*
X54428664Y-51921637D01*
X54619140Y-51921637D02*
X54523902Y-51969256D01*
X54523902Y-51969256D02*
X54476283Y-52016875D01*
X54476283Y-52016875D02*
X54428664Y-52112113D01*
X54428664Y-52112113D02*
X54428664Y-52207351D01*
X55047712Y-52493066D02*
X55095331Y-52588304D01*
X55095331Y-52588304D02*
X55095331Y-52778780D01*
X55095331Y-52778780D02*
X55047712Y-52874018D01*
X55047712Y-52874018D02*
X54952473Y-52921637D01*
X54952473Y-52921637D02*
X54904854Y-52921637D01*
X54904854Y-52921637D02*
X54809616Y-52874018D01*
X54809616Y-52874018D02*
X54761997Y-52778780D01*
X54761997Y-52778780D02*
X54761997Y-52635923D01*
X54761997Y-52635923D02*
X54714378Y-52540685D01*
X54714378Y-52540685D02*
X54619140Y-52493066D01*
X54619140Y-52493066D02*
X54571521Y-52493066D01*
X54571521Y-52493066D02*
X54476283Y-52540685D01*
X54476283Y-52540685D02*
X54428664Y-52635923D01*
X54428664Y-52635923D02*
X54428664Y-52778780D01*
X54428664Y-52778780D02*
X54476283Y-52874018D01*
X54047712Y-54064494D02*
X55333426Y-53207352D01*
X56705275Y-37540684D02*
X56038608Y-37540684D01*
X56133846Y-37540684D02*
X56086227Y-37588303D01*
X56086227Y-37588303D02*
X56038608Y-37683541D01*
X56038608Y-37683541D02*
X56038608Y-37826398D01*
X56038608Y-37826398D02*
X56086227Y-37921636D01*
X56086227Y-37921636D02*
X56181465Y-37969255D01*
X56181465Y-37969255D02*
X56705275Y-37969255D01*
X56181465Y-37969255D02*
X56086227Y-38016874D01*
X56086227Y-38016874D02*
X56038608Y-38112112D01*
X56038608Y-38112112D02*
X56038608Y-38254969D01*
X56038608Y-38254969D02*
X56086227Y-38350208D01*
X56086227Y-38350208D02*
X56181465Y-38397827D01*
X56181465Y-38397827D02*
X56705275Y-38397827D01*
X56657656Y-39254969D02*
X56705275Y-39159731D01*
X56705275Y-39159731D02*
X56705275Y-38969255D01*
X56705275Y-38969255D02*
X56657656Y-38874017D01*
X56657656Y-38874017D02*
X56562417Y-38826398D01*
X56562417Y-38826398D02*
X56181465Y-38826398D01*
X56181465Y-38826398D02*
X56086227Y-38874017D01*
X56086227Y-38874017D02*
X56038608Y-38969255D01*
X56038608Y-38969255D02*
X56038608Y-39159731D01*
X56038608Y-39159731D02*
X56086227Y-39254969D01*
X56086227Y-39254969D02*
X56181465Y-39302588D01*
X56181465Y-39302588D02*
X56276703Y-39302588D01*
X56276703Y-39302588D02*
X56371941Y-38826398D01*
X56038608Y-40159731D02*
X56848132Y-40159731D01*
X56848132Y-40159731D02*
X56943370Y-40112112D01*
X56943370Y-40112112D02*
X56990989Y-40064493D01*
X56990989Y-40064493D02*
X57038608Y-39969255D01*
X57038608Y-39969255D02*
X57038608Y-39826398D01*
X57038608Y-39826398D02*
X56990989Y-39731160D01*
X56657656Y-40159731D02*
X56705275Y-40064493D01*
X56705275Y-40064493D02*
X56705275Y-39874017D01*
X56705275Y-39874017D02*
X56657656Y-39778779D01*
X56657656Y-39778779D02*
X56610036Y-39731160D01*
X56610036Y-39731160D02*
X56514798Y-39683541D01*
X56514798Y-39683541D02*
X56229084Y-39683541D01*
X56229084Y-39683541D02*
X56133846Y-39731160D01*
X56133846Y-39731160D02*
X56086227Y-39778779D01*
X56086227Y-39778779D02*
X56038608Y-39874017D01*
X56038608Y-39874017D02*
X56038608Y-40064493D01*
X56038608Y-40064493D02*
X56086227Y-40159731D01*
X56705275Y-41064493D02*
X56181465Y-41064493D01*
X56181465Y-41064493D02*
X56086227Y-41016874D01*
X56086227Y-41016874D02*
X56038608Y-40921636D01*
X56038608Y-40921636D02*
X56038608Y-40731160D01*
X56038608Y-40731160D02*
X56086227Y-40635922D01*
X56657656Y-41064493D02*
X56705275Y-40969255D01*
X56705275Y-40969255D02*
X56705275Y-40731160D01*
X56705275Y-40731160D02*
X56657656Y-40635922D01*
X56657656Y-40635922D02*
X56562417Y-40588303D01*
X56562417Y-40588303D02*
X56467179Y-40588303D01*
X56467179Y-40588303D02*
X56371941Y-40635922D01*
X56371941Y-40635922D02*
X56324322Y-40731160D01*
X56324322Y-40731160D02*
X56324322Y-40969255D01*
X56324322Y-40969255D02*
X56276703Y-41064493D01*
X56038608Y-41540684D02*
X57038608Y-41540684D01*
X56086227Y-41540684D02*
X56038608Y-41635922D01*
X56038608Y-41635922D02*
X56038608Y-41826398D01*
X56038608Y-41826398D02*
X56086227Y-41921636D01*
X56086227Y-41921636D02*
X56133846Y-41969255D01*
X56133846Y-41969255D02*
X56229084Y-42016874D01*
X56229084Y-42016874D02*
X56514798Y-42016874D01*
X56514798Y-42016874D02*
X56610036Y-41969255D01*
X56610036Y-41969255D02*
X56657656Y-41921636D01*
X56657656Y-41921636D02*
X56705275Y-41826398D01*
X56705275Y-41826398D02*
X56705275Y-41635922D01*
X56705275Y-41635922D02*
X56657656Y-41540684D01*
X56705275Y-42445446D02*
X55705275Y-42445446D01*
X56705275Y-42874017D02*
X56181465Y-42874017D01*
X56181465Y-42874017D02*
X56086227Y-42826398D01*
X56086227Y-42826398D02*
X56038608Y-42731160D01*
X56038608Y-42731160D02*
X56038608Y-42588303D01*
X56038608Y-42588303D02*
X56086227Y-42493065D01*
X56086227Y-42493065D02*
X56133846Y-42445446D01*
X56705275Y-43493065D02*
X56657656Y-43397827D01*
X56657656Y-43397827D02*
X56610036Y-43350208D01*
X56610036Y-43350208D02*
X56514798Y-43302589D01*
X56514798Y-43302589D02*
X56229084Y-43302589D01*
X56229084Y-43302589D02*
X56133846Y-43350208D01*
X56133846Y-43350208D02*
X56086227Y-43397827D01*
X56086227Y-43397827D02*
X56038608Y-43493065D01*
X56038608Y-43493065D02*
X56038608Y-43635922D01*
X56038608Y-43635922D02*
X56086227Y-43731160D01*
X56086227Y-43731160D02*
X56133846Y-43778779D01*
X56133846Y-43778779D02*
X56229084Y-43826398D01*
X56229084Y-43826398D02*
X56514798Y-43826398D01*
X56514798Y-43826398D02*
X56610036Y-43778779D01*
X56610036Y-43778779D02*
X56657656Y-43731160D01*
X56657656Y-43731160D02*
X56705275Y-43635922D01*
X56705275Y-43635922D02*
X56705275Y-43493065D01*
X56038608Y-44254970D02*
X56705275Y-44254970D01*
X56133846Y-44254970D02*
X56086227Y-44302589D01*
X56086227Y-44302589D02*
X56038608Y-44397827D01*
X56038608Y-44397827D02*
X56038608Y-44540684D01*
X56038608Y-44540684D02*
X56086227Y-44635922D01*
X56086227Y-44635922D02*
X56181465Y-44683541D01*
X56181465Y-44683541D02*
X56705275Y-44683541D01*
X56657656Y-45540684D02*
X56705275Y-45445446D01*
X56705275Y-45445446D02*
X56705275Y-45254970D01*
X56705275Y-45254970D02*
X56657656Y-45159732D01*
X56657656Y-45159732D02*
X56562417Y-45112113D01*
X56562417Y-45112113D02*
X56181465Y-45112113D01*
X56181465Y-45112113D02*
X56086227Y-45159732D01*
X56086227Y-45159732D02*
X56038608Y-45254970D01*
X56038608Y-45254970D02*
X56038608Y-45445446D01*
X56038608Y-45445446D02*
X56086227Y-45540684D01*
X56086227Y-45540684D02*
X56181465Y-45588303D01*
X56181465Y-45588303D02*
X56276703Y-45588303D01*
X56276703Y-45588303D02*
X56371941Y-45112113D01*
X56324322Y-46016875D02*
X56324322Y-46778780D01*
X56705275Y-47254970D02*
X56038608Y-47254970D01*
X56229084Y-47254970D02*
X56133846Y-47302589D01*
X56133846Y-47302589D02*
X56086227Y-47350208D01*
X56086227Y-47350208D02*
X56038608Y-47445446D01*
X56038608Y-47445446D02*
X56038608Y-47540684D01*
X55705275Y-48350208D02*
X55705275Y-47874018D01*
X55705275Y-47874018D02*
X56181465Y-47826399D01*
X56181465Y-47826399D02*
X56133846Y-47874018D01*
X56133846Y-47874018D02*
X56086227Y-47969256D01*
X56086227Y-47969256D02*
X56086227Y-48207351D01*
X56086227Y-48207351D02*
X56133846Y-48302589D01*
X56133846Y-48302589D02*
X56181465Y-48350208D01*
X56181465Y-48350208D02*
X56276703Y-48397827D01*
X56276703Y-48397827D02*
X56514798Y-48397827D01*
X56514798Y-48397827D02*
X56610036Y-48350208D01*
X56610036Y-48350208D02*
X56657656Y-48302589D01*
X56657656Y-48302589D02*
X56705275Y-48207351D01*
X56705275Y-48207351D02*
X56705275Y-47969256D01*
X56705275Y-47969256D02*
X56657656Y-47874018D01*
X56657656Y-47874018D02*
X56610036Y-47826399D01*
X56324322Y-48826399D02*
X56324322Y-49588304D01*
X56705275Y-50064494D02*
X56038608Y-50064494D01*
X56133846Y-50064494D02*
X56086227Y-50112113D01*
X56086227Y-50112113D02*
X56038608Y-50207351D01*
X56038608Y-50207351D02*
X56038608Y-50350208D01*
X56038608Y-50350208D02*
X56086227Y-50445446D01*
X56086227Y-50445446D02*
X56181465Y-50493065D01*
X56181465Y-50493065D02*
X56705275Y-50493065D01*
X56181465Y-50493065D02*
X56086227Y-50540684D01*
X56086227Y-50540684D02*
X56038608Y-50635922D01*
X56038608Y-50635922D02*
X56038608Y-50778779D01*
X56038608Y-50778779D02*
X56086227Y-50874018D01*
X56086227Y-50874018D02*
X56181465Y-50921637D01*
X56181465Y-50921637D02*
X56705275Y-50921637D01*
X56705275Y-51540684D02*
X56657656Y-51445446D01*
X56657656Y-51445446D02*
X56610036Y-51397827D01*
X56610036Y-51397827D02*
X56514798Y-51350208D01*
X56514798Y-51350208D02*
X56229084Y-51350208D01*
X56229084Y-51350208D02*
X56133846Y-51397827D01*
X56133846Y-51397827D02*
X56086227Y-51445446D01*
X56086227Y-51445446D02*
X56038608Y-51540684D01*
X56038608Y-51540684D02*
X56038608Y-51683541D01*
X56038608Y-51683541D02*
X56086227Y-51778779D01*
X56086227Y-51778779D02*
X56133846Y-51826398D01*
X56133846Y-51826398D02*
X56229084Y-51874017D01*
X56229084Y-51874017D02*
X56514798Y-51874017D01*
X56514798Y-51874017D02*
X56610036Y-51826398D01*
X56610036Y-51826398D02*
X56657656Y-51778779D01*
X56657656Y-51778779D02*
X56705275Y-51683541D01*
X56705275Y-51683541D02*
X56705275Y-51540684D01*
X56705275Y-52731160D02*
X55705275Y-52731160D01*
X56657656Y-52731160D02*
X56705275Y-52635922D01*
X56705275Y-52635922D02*
X56705275Y-52445446D01*
X56705275Y-52445446D02*
X56657656Y-52350208D01*
X56657656Y-52350208D02*
X56610036Y-52302589D01*
X56610036Y-52302589D02*
X56514798Y-52254970D01*
X56514798Y-52254970D02*
X56229084Y-52254970D01*
X56229084Y-52254970D02*
X56133846Y-52302589D01*
X56133846Y-52302589D02*
X56086227Y-52350208D01*
X56086227Y-52350208D02*
X56038608Y-52445446D01*
X56038608Y-52445446D02*
X56038608Y-52635922D01*
X56038608Y-52635922D02*
X56086227Y-52731160D01*
X56038608Y-53635922D02*
X56705275Y-53635922D01*
X56038608Y-53207351D02*
X56562417Y-53207351D01*
X56562417Y-53207351D02*
X56657656Y-53254970D01*
X56657656Y-53254970D02*
X56705275Y-53350208D01*
X56705275Y-53350208D02*
X56705275Y-53493065D01*
X56705275Y-53493065D02*
X56657656Y-53588303D01*
X56657656Y-53588303D02*
X56610036Y-53635922D01*
X56705275Y-54254970D02*
X56657656Y-54159732D01*
X56657656Y-54159732D02*
X56562417Y-54112113D01*
X56562417Y-54112113D02*
X55705275Y-54112113D01*
X56705275Y-55064494D02*
X56181465Y-55064494D01*
X56181465Y-55064494D02*
X56086227Y-55016875D01*
X56086227Y-55016875D02*
X56038608Y-54921637D01*
X56038608Y-54921637D02*
X56038608Y-54731161D01*
X56038608Y-54731161D02*
X56086227Y-54635923D01*
X56657656Y-55064494D02*
X56705275Y-54969256D01*
X56705275Y-54969256D02*
X56705275Y-54731161D01*
X56705275Y-54731161D02*
X56657656Y-54635923D01*
X56657656Y-54635923D02*
X56562417Y-54588304D01*
X56562417Y-54588304D02*
X56467179Y-54588304D01*
X56467179Y-54588304D02*
X56371941Y-54635923D01*
X56371941Y-54635923D02*
X56324322Y-54731161D01*
X56324322Y-54731161D02*
X56324322Y-54969256D01*
X56324322Y-54969256D02*
X56276703Y-55064494D01*
X56705275Y-55540685D02*
X56038608Y-55540685D01*
X56229084Y-55540685D02*
X56133846Y-55588304D01*
X56133846Y-55588304D02*
X56086227Y-55635923D01*
X56086227Y-55635923D02*
X56038608Y-55731161D01*
X56038608Y-55731161D02*
X56038608Y-55826399D01*
X58315219Y-38112112D02*
X57839028Y-37778779D01*
X58315219Y-37540684D02*
X57315219Y-37540684D01*
X57315219Y-37540684D02*
X57315219Y-37921636D01*
X57315219Y-37921636D02*
X57362838Y-38016874D01*
X57362838Y-38016874D02*
X57410457Y-38064493D01*
X57410457Y-38064493D02*
X57505695Y-38112112D01*
X57505695Y-38112112D02*
X57648552Y-38112112D01*
X57648552Y-38112112D02*
X57743790Y-38064493D01*
X57743790Y-38064493D02*
X57791409Y-38016874D01*
X57791409Y-38016874D02*
X57839028Y-37921636D01*
X57839028Y-37921636D02*
X57839028Y-37540684D01*
X57410457Y-38493065D02*
X57362838Y-38540684D01*
X57362838Y-38540684D02*
X57315219Y-38635922D01*
X57315219Y-38635922D02*
X57315219Y-38874017D01*
X57315219Y-38874017D02*
X57362838Y-38969255D01*
X57362838Y-38969255D02*
X57410457Y-39016874D01*
X57410457Y-39016874D02*
X57505695Y-39064493D01*
X57505695Y-39064493D02*
X57600933Y-39064493D01*
X57600933Y-39064493D02*
X57743790Y-39016874D01*
X57743790Y-39016874D02*
X58315219Y-38445446D01*
X58315219Y-38445446D02*
X58315219Y-39064493D01*
X57315219Y-39683541D02*
X57315219Y-39778779D01*
X57315219Y-39778779D02*
X57362838Y-39874017D01*
X57362838Y-39874017D02*
X57410457Y-39921636D01*
X57410457Y-39921636D02*
X57505695Y-39969255D01*
X57505695Y-39969255D02*
X57696171Y-40016874D01*
X57696171Y-40016874D02*
X57934266Y-40016874D01*
X57934266Y-40016874D02*
X58124742Y-39969255D01*
X58124742Y-39969255D02*
X58219980Y-39921636D01*
X58219980Y-39921636D02*
X58267600Y-39874017D01*
X58267600Y-39874017D02*
X58315219Y-39778779D01*
X58315219Y-39778779D02*
X58315219Y-39683541D01*
X58315219Y-39683541D02*
X58267600Y-39588303D01*
X58267600Y-39588303D02*
X58219980Y-39540684D01*
X58219980Y-39540684D02*
X58124742Y-39493065D01*
X58124742Y-39493065D02*
X57934266Y-39445446D01*
X57934266Y-39445446D02*
X57696171Y-39445446D01*
X57696171Y-39445446D02*
X57505695Y-39493065D01*
X57505695Y-39493065D02*
X57410457Y-39540684D01*
X57410457Y-39540684D02*
X57362838Y-39588303D01*
X57362838Y-39588303D02*
X57315219Y-39683541D01*
X57410457Y-40397827D02*
X57362838Y-40445446D01*
X57362838Y-40445446D02*
X57315219Y-40540684D01*
X57315219Y-40540684D02*
X57315219Y-40778779D01*
X57315219Y-40778779D02*
X57362838Y-40874017D01*
X57362838Y-40874017D02*
X57410457Y-40921636D01*
X57410457Y-40921636D02*
X57505695Y-40969255D01*
X57505695Y-40969255D02*
X57600933Y-40969255D01*
X57600933Y-40969255D02*
X57743790Y-40921636D01*
X57743790Y-40921636D02*
X58315219Y-40350208D01*
X58315219Y-40350208D02*
X58315219Y-40969255D01*
X57315219Y-41874017D02*
X57315219Y-41397827D01*
X57315219Y-41397827D02*
X57791409Y-41350208D01*
X57791409Y-41350208D02*
X57743790Y-41397827D01*
X57743790Y-41397827D02*
X57696171Y-41493065D01*
X57696171Y-41493065D02*
X57696171Y-41731160D01*
X57696171Y-41731160D02*
X57743790Y-41826398D01*
X57743790Y-41826398D02*
X57791409Y-41874017D01*
X57791409Y-41874017D02*
X57886647Y-41921636D01*
X57886647Y-41921636D02*
X58124742Y-41921636D01*
X58124742Y-41921636D02*
X58219980Y-41874017D01*
X58219980Y-41874017D02*
X58267600Y-41826398D01*
X58267600Y-41826398D02*
X58315219Y-41731160D01*
X58315219Y-41731160D02*
X58315219Y-41493065D01*
X58315219Y-41493065D02*
X58267600Y-41397827D01*
X58267600Y-41397827D02*
X58219980Y-41350208D01*
X57315219Y-42540684D02*
X57315219Y-42635922D01*
X57315219Y-42635922D02*
X57362838Y-42731160D01*
X57362838Y-42731160D02*
X57410457Y-42778779D01*
X57410457Y-42778779D02*
X57505695Y-42826398D01*
X57505695Y-42826398D02*
X57696171Y-42874017D01*
X57696171Y-42874017D02*
X57934266Y-42874017D01*
X57934266Y-42874017D02*
X58124742Y-42826398D01*
X58124742Y-42826398D02*
X58219980Y-42778779D01*
X58219980Y-42778779D02*
X58267600Y-42731160D01*
X58267600Y-42731160D02*
X58315219Y-42635922D01*
X58315219Y-42635922D02*
X58315219Y-42540684D01*
X58315219Y-42540684D02*
X58267600Y-42445446D01*
X58267600Y-42445446D02*
X58219980Y-42397827D01*
X58219980Y-42397827D02*
X58124742Y-42350208D01*
X58124742Y-42350208D02*
X57934266Y-42302589D01*
X57934266Y-42302589D02*
X57696171Y-42302589D01*
X57696171Y-42302589D02*
X57505695Y-42350208D01*
X57505695Y-42350208D02*
X57410457Y-42397827D01*
X57410457Y-42397827D02*
X57362838Y-42445446D01*
X57362838Y-42445446D02*
X57315219Y-42540684D01*
X57410457Y-43254970D02*
X57362838Y-43302589D01*
X57362838Y-43302589D02*
X57315219Y-43397827D01*
X57315219Y-43397827D02*
X57315219Y-43635922D01*
X57315219Y-43635922D02*
X57362838Y-43731160D01*
X57362838Y-43731160D02*
X57410457Y-43778779D01*
X57410457Y-43778779D02*
X57505695Y-43826398D01*
X57505695Y-43826398D02*
X57600933Y-43826398D01*
X57600933Y-43826398D02*
X57743790Y-43778779D01*
X57743790Y-43778779D02*
X58315219Y-43207351D01*
X58315219Y-43207351D02*
X58315219Y-43826398D01*
X57410457Y-44207351D02*
X57362838Y-44254970D01*
X57362838Y-44254970D02*
X57315219Y-44350208D01*
X57315219Y-44350208D02*
X57315219Y-44588303D01*
X57315219Y-44588303D02*
X57362838Y-44683541D01*
X57362838Y-44683541D02*
X57410457Y-44731160D01*
X57410457Y-44731160D02*
X57505695Y-44778779D01*
X57505695Y-44778779D02*
X57600933Y-44778779D01*
X57600933Y-44778779D02*
X57743790Y-44731160D01*
X57743790Y-44731160D02*
X58315219Y-44159732D01*
X58315219Y-44159732D02*
X58315219Y-44778779D01*
X57315219Y-45683541D02*
X57315219Y-45207351D01*
X57315219Y-45207351D02*
X57791409Y-45159732D01*
X57791409Y-45159732D02*
X57743790Y-45207351D01*
X57743790Y-45207351D02*
X57696171Y-45302589D01*
X57696171Y-45302589D02*
X57696171Y-45540684D01*
X57696171Y-45540684D02*
X57743790Y-45635922D01*
X57743790Y-45635922D02*
X57791409Y-45683541D01*
X57791409Y-45683541D02*
X57886647Y-45731160D01*
X57886647Y-45731160D02*
X58124742Y-45731160D01*
X58124742Y-45731160D02*
X58219980Y-45683541D01*
X58219980Y-45683541D02*
X58267600Y-45635922D01*
X58267600Y-45635922D02*
X58315219Y-45540684D01*
X58315219Y-45540684D02*
X58315219Y-45302589D01*
X58315219Y-45302589D02*
X58267600Y-45207351D01*
X58267600Y-45207351D02*
X58219980Y-45159732D01*
X57490419Y-59039904D02*
X57490419Y-59839904D01*
X57490419Y-59839904D02*
X57795181Y-59839904D01*
X57795181Y-59839904D02*
X57871371Y-59801809D01*
X57871371Y-59801809D02*
X57909466Y-59763714D01*
X57909466Y-59763714D02*
X57947562Y-59687523D01*
X57947562Y-59687523D02*
X57947562Y-59573238D01*
X57947562Y-59573238D02*
X57909466Y-59497047D01*
X57909466Y-59497047D02*
X57871371Y-59458952D01*
X57871371Y-59458952D02*
X57795181Y-59420857D01*
X57795181Y-59420857D02*
X57490419Y-59420857D01*
X58747562Y-59039904D02*
X58480895Y-59420857D01*
X58290419Y-59039904D02*
X58290419Y-59839904D01*
X58290419Y-59839904D02*
X58595181Y-59839904D01*
X58595181Y-59839904D02*
X58671371Y-59801809D01*
X58671371Y-59801809D02*
X58709466Y-59763714D01*
X58709466Y-59763714D02*
X58747562Y-59687523D01*
X58747562Y-59687523D02*
X58747562Y-59573238D01*
X58747562Y-59573238D02*
X58709466Y-59497047D01*
X58709466Y-59497047D02*
X58671371Y-59458952D01*
X58671371Y-59458952D02*
X58595181Y-59420857D01*
X58595181Y-59420857D02*
X58290419Y-59420857D01*
X59242800Y-59420857D02*
X59242800Y-59039904D01*
X58976133Y-59839904D02*
X59242800Y-59420857D01*
X59242800Y-59420857D02*
X59509466Y-59839904D01*
X57490419Y-35239904D02*
X57490419Y-36039904D01*
X57490419Y-36039904D02*
X57795181Y-36039904D01*
X57795181Y-36039904D02*
X57871371Y-36001809D01*
X57871371Y-36001809D02*
X57909466Y-35963714D01*
X57909466Y-35963714D02*
X57947562Y-35887523D01*
X57947562Y-35887523D02*
X57947562Y-35773238D01*
X57947562Y-35773238D02*
X57909466Y-35697047D01*
X57909466Y-35697047D02*
X57871371Y-35658952D01*
X57871371Y-35658952D02*
X57795181Y-35620857D01*
X57795181Y-35620857D02*
X57490419Y-35620857D01*
X58747562Y-35239904D02*
X58480895Y-35620857D01*
X58290419Y-35239904D02*
X58290419Y-36039904D01*
X58290419Y-36039904D02*
X58595181Y-36039904D01*
X58595181Y-36039904D02*
X58671371Y-36001809D01*
X58671371Y-36001809D02*
X58709466Y-35963714D01*
X58709466Y-35963714D02*
X58747562Y-35887523D01*
X58747562Y-35887523D02*
X58747562Y-35773238D01*
X58747562Y-35773238D02*
X58709466Y-35697047D01*
X58709466Y-35697047D02*
X58671371Y-35658952D01*
X58671371Y-35658952D02*
X58595181Y-35620857D01*
X58595181Y-35620857D02*
X58290419Y-35620857D01*
X59242800Y-35620857D02*
X59242800Y-35239904D01*
X58976133Y-36039904D02*
X59242800Y-35620857D01*
X59242800Y-35620857D02*
X59509466Y-36039904D01*
X60427041Y-36385800D02*
X56423284Y-36385800D01*
X56423284Y-34916800D01*
X60427041Y-34916800D01*
X60427041Y-36385800D01*
X60427041Y-58687800D02*
X56423284Y-58687800D01*
X56423284Y-60156800D01*
X60427041Y-60156800D01*
X60427041Y-58687800D01*
%LPC*%
G36*
G01*
X51212400Y-59415956D02*
X51212400Y-58060444D01*
G75*
G02*
X51384644Y-57888200I172244J0D01*
G01*
X52090156Y-57888200D01*
G75*
G02*
X52262400Y-58060444I0J-172244D01*
G01*
X52262400Y-59415956D01*
G75*
G02*
X52090156Y-59588200I-172244J0D01*
G01*
X51384644Y-59588200D01*
G75*
G02*
X51212400Y-59415956I0J172244D01*
G01*
G37*
G36*
G01*
X65452400Y-58060444D02*
X65452400Y-59415956D01*
G75*
G02*
X65280156Y-59588200I-172244J0D01*
G01*
X64574644Y-59588200D01*
G75*
G02*
X64402400Y-59415956I0J172244D01*
G01*
X64402400Y-58060444D01*
G75*
G02*
X64574644Y-57888200I172244J0D01*
G01*
X65280156Y-57888200D01*
G75*
G02*
X65452400Y-58060444I0J-172244D01*
G01*
G37*
D11*
X69442800Y-58966800D03*
G36*
G01*
X67117800Y-59341800D02*
X67117800Y-58591800D01*
G75*
G02*
X67367800Y-58341800I250000J0D01*
G01*
X68117800Y-58341800D01*
G75*
G02*
X68367800Y-58591800I0J-250000D01*
G01*
X68367800Y-59341800D01*
G75*
G02*
X68117800Y-59591800I-250000J0D01*
G01*
X67367800Y-59591800D01*
G75*
G02*
X67117800Y-59341800I0J250000D01*
G01*
G37*
X69442800Y-53886800D03*
G36*
G01*
X67117800Y-54261800D02*
X67117800Y-53511800D01*
G75*
G02*
X67367800Y-53261800I250000J0D01*
G01*
X68117800Y-53261800D01*
G75*
G02*
X68367800Y-53511800I0J-250000D01*
G01*
X68367800Y-54261800D01*
G75*
G02*
X68117800Y-54511800I-250000J0D01*
G01*
X67367800Y-54511800D01*
G75*
G02*
X67117800Y-54261800I0J250000D01*
G01*
G37*
X69442800Y-51346800D03*
G36*
G01*
X67117800Y-51721800D02*
X67117800Y-50971800D01*
G75*
G02*
X67367800Y-50721800I250000J0D01*
G01*
X68117800Y-50721800D01*
G75*
G02*
X68367800Y-50971800I0J-250000D01*
G01*
X68367800Y-51721800D01*
G75*
G02*
X68117800Y-51971800I-250000J0D01*
G01*
X67367800Y-51971800D01*
G75*
G02*
X67117800Y-51721800I0J250000D01*
G01*
G37*
X69442800Y-48806800D03*
G36*
G01*
X67117800Y-49181800D02*
X67117800Y-48431800D01*
G75*
G02*
X67367800Y-48181800I250000J0D01*
G01*
X68117800Y-48181800D01*
G75*
G02*
X68367800Y-48431800I0J-250000D01*
G01*
X68367800Y-49181800D01*
G75*
G02*
X68117800Y-49431800I-250000J0D01*
G01*
X67367800Y-49431800D01*
G75*
G02*
X67117800Y-49181800I0J250000D01*
G01*
G37*
X69442800Y-46266800D03*
G36*
G01*
X67117800Y-46641800D02*
X67117800Y-45891800D01*
G75*
G02*
X67367800Y-45641800I250000J0D01*
G01*
X68117800Y-45641800D01*
G75*
G02*
X68367800Y-45891800I0J-250000D01*
G01*
X68367800Y-46641800D01*
G75*
G02*
X68117800Y-46891800I-250000J0D01*
G01*
X67367800Y-46891800D01*
G75*
G02*
X67117800Y-46641800I0J250000D01*
G01*
G37*
X69442800Y-43726800D03*
G36*
G01*
X67117800Y-44101800D02*
X67117800Y-43351800D01*
G75*
G02*
X67367800Y-43101800I250000J0D01*
G01*
X68117800Y-43101800D01*
G75*
G02*
X68367800Y-43351800I0J-250000D01*
G01*
X68367800Y-44101800D01*
G75*
G02*
X68117800Y-44351800I-250000J0D01*
G01*
X67367800Y-44351800D01*
G75*
G02*
X67117800Y-44101800I0J250000D01*
G01*
G37*
X69442800Y-41186800D03*
G36*
G01*
X67117800Y-41561800D02*
X67117800Y-40811800D01*
G75*
G02*
X67367800Y-40561800I250000J0D01*
G01*
X68117800Y-40561800D01*
G75*
G02*
X68367800Y-40811800I0J-250000D01*
G01*
X68367800Y-41561800D01*
G75*
G02*
X68117800Y-41811800I-250000J0D01*
G01*
X67367800Y-41811800D01*
G75*
G02*
X67117800Y-41561800I0J250000D01*
G01*
G37*
X69442800Y-38646800D03*
G36*
G01*
X67117800Y-39021800D02*
X67117800Y-38271800D01*
G75*
G02*
X67367800Y-38021800I250000J0D01*
G01*
X68117800Y-38021800D01*
G75*
G02*
X68367800Y-38271800I0J-250000D01*
G01*
X68367800Y-39021800D01*
G75*
G02*
X68117800Y-39271800I-250000J0D01*
G01*
X67367800Y-39271800D01*
G75*
G02*
X67117800Y-39021800I0J250000D01*
G01*
G37*
X69442800Y-36106800D03*
G36*
G01*
X67117800Y-36481800D02*
X67117800Y-35731800D01*
G75*
G02*
X67367800Y-35481800I250000J0D01*
G01*
X68117800Y-35481800D01*
G75*
G02*
X68367800Y-35731800I0J-250000D01*
G01*
X68367800Y-36481800D01*
G75*
G02*
X68117800Y-36731800I-250000J0D01*
G01*
X67367800Y-36731800D01*
G75*
G02*
X67117800Y-36481800I0J250000D01*
G01*
G37*
G36*
G01*
X48517800Y-59341800D02*
X48517800Y-58591800D01*
G75*
G02*
X48767800Y-58341800I250000J0D01*
G01*
X49517800Y-58341800D01*
G75*
G02*
X49767800Y-58591800I0J-250000D01*
G01*
X49767800Y-59341800D01*
G75*
G02*
X49517800Y-59591800I-250000J0D01*
G01*
X48767800Y-59591800D01*
G75*
G02*
X48517800Y-59341800I0J250000D01*
G01*
G37*
X47442800Y-58966800D03*
G36*
G01*
X48517800Y-56801800D02*
X48517800Y-56051800D01*
G75*
G02*
X48767800Y-55801800I250000J0D01*
G01*
X49517800Y-55801800D01*
G75*
G02*
X49767800Y-56051800I0J-250000D01*
G01*
X49767800Y-56801800D01*
G75*
G02*
X49517800Y-57051800I-250000J0D01*
G01*
X48767800Y-57051800D01*
G75*
G02*
X48517800Y-56801800I0J250000D01*
G01*
G37*
X47442800Y-56426800D03*
G36*
G01*
X48517800Y-54261800D02*
X48517800Y-53511800D01*
G75*
G02*
X48767800Y-53261800I250000J0D01*
G01*
X49517800Y-53261800D01*
G75*
G02*
X49767800Y-53511800I0J-250000D01*
G01*
X49767800Y-54261800D01*
G75*
G02*
X49517800Y-54511800I-250000J0D01*
G01*
X48767800Y-54511800D01*
G75*
G02*
X48517800Y-54261800I0J250000D01*
G01*
G37*
X47442800Y-53886800D03*
G36*
G01*
X48517800Y-51721800D02*
X48517800Y-50971800D01*
G75*
G02*
X48767800Y-50721800I250000J0D01*
G01*
X49517800Y-50721800D01*
G75*
G02*
X49767800Y-50971800I0J-250000D01*
G01*
X49767800Y-51721800D01*
G75*
G02*
X49517800Y-51971800I-250000J0D01*
G01*
X48767800Y-51971800D01*
G75*
G02*
X48517800Y-51721800I0J250000D01*
G01*
G37*
X47442800Y-51346800D03*
G36*
G01*
X48517800Y-49181800D02*
X48517800Y-48431800D01*
G75*
G02*
X48767800Y-48181800I250000J0D01*
G01*
X49517800Y-48181800D01*
G75*
G02*
X49767800Y-48431800I0J-250000D01*
G01*
X49767800Y-49181800D01*
G75*
G02*
X49517800Y-49431800I-250000J0D01*
G01*
X48767800Y-49431800D01*
G75*
G02*
X48517800Y-49181800I0J250000D01*
G01*
G37*
X47442800Y-48806800D03*
G36*
G01*
X48517800Y-46641800D02*
X48517800Y-45891800D01*
G75*
G02*
X48767800Y-45641800I250000J0D01*
G01*
X49517800Y-45641800D01*
G75*
G02*
X49767800Y-45891800I0J-250000D01*
G01*
X49767800Y-46641800D01*
G75*
G02*
X49517800Y-46891800I-250000J0D01*
G01*
X48767800Y-46891800D01*
G75*
G02*
X48517800Y-46641800I0J250000D01*
G01*
G37*
X47442800Y-46266800D03*
G36*
G01*
X48517800Y-44101800D02*
X48517800Y-43351800D01*
G75*
G02*
X48767800Y-43101800I250000J0D01*
G01*
X49517800Y-43101800D01*
G75*
G02*
X49767800Y-43351800I0J-250000D01*
G01*
X49767800Y-44101800D01*
G75*
G02*
X49517800Y-44351800I-250000J0D01*
G01*
X48767800Y-44351800D01*
G75*
G02*
X48517800Y-44101800I0J250000D01*
G01*
G37*
X47442800Y-43726800D03*
G36*
G01*
X48517800Y-41561800D02*
X48517800Y-40811800D01*
G75*
G02*
X48767800Y-40561800I250000J0D01*
G01*
X49517800Y-40561800D01*
G75*
G02*
X49767800Y-40811800I0J-250000D01*
G01*
X49767800Y-41561800D01*
G75*
G02*
X49517800Y-41811800I-250000J0D01*
G01*
X48767800Y-41811800D01*
G75*
G02*
X48517800Y-41561800I0J250000D01*
G01*
G37*
X47442800Y-41186800D03*
G36*
G01*
X48517800Y-39021800D02*
X48517800Y-38271800D01*
G75*
G02*
X48767800Y-38021800I250000J0D01*
G01*
X49517800Y-38021800D01*
G75*
G02*
X49767800Y-38271800I0J-250000D01*
G01*
X49767800Y-39021800D01*
G75*
G02*
X49517800Y-39271800I-250000J0D01*
G01*
X48767800Y-39271800D01*
G75*
G02*
X48517800Y-39021800I0J250000D01*
G01*
G37*
X47442800Y-38646800D03*
G36*
G01*
X48517800Y-36481800D02*
X48517800Y-35731800D01*
G75*
G02*
X48767800Y-35481800I250000J0D01*
G01*
X49517800Y-35481800D01*
G75*
G02*
X49767800Y-35731800I0J-250000D01*
G01*
X49767800Y-36481800D01*
G75*
G02*
X49517800Y-36731800I-250000J0D01*
G01*
X48767800Y-36731800D01*
G75*
G02*
X48517800Y-36481800I0J250000D01*
G01*
G37*
X47442800Y-36106800D03*
%LPD*%
M02*
