G04 #@! TF.GenerationSoftware,KiCad,Pcbnew,9.0.1+1*
G04 #@! TF.CreationDate,2025-11-12T15:12:21+00:00*
G04 #@! TF.ProjectId,sim-and-sd-card,73696d2d-616e-4642-9d73-642d63617264,rev?*
G04 #@! TF.SameCoordinates,Original*
G04 #@! TF.FileFunction,Copper,L2,Bot*
G04 #@! TF.FilePolarity,Positive*
%FSLAX46Y46*%
G04 Gerber Fmt 4.6, Leading zero omitted, Abs format (unit mm)*
G04 Created by KiCad (PCBNEW 9.0.1+1) date 2025-11-12 15:12:21*
%MOMM*%
%LPD*%
G01*
G04 APERTURE LIST*
G04 #@! TA.AperFunction,CastellatedPad*
%ADD10R,2.540000X2.000000*%
G04 #@! TD*
G04 #@! TA.AperFunction,ViaPad*
%ADD11C,0.600000*%
G04 #@! TD*
G04 #@! TA.AperFunction,Conductor*
%ADD12C,0.200000*%
G04 #@! TD*
G04 APERTURE END LIST*
G04 #@! TA.AperFunction,ComponentPad*
G36*
G01*
X51212400Y-59415956D02*
X51212400Y-58060444D01*
G75*
G02*
X51384644Y-57888200I172244J0D01*
G01*
X52090156Y-57888200D01*
G75*
G02*
X52262400Y-58060444I0J-172244D01*
G01*
X52262400Y-59415956D01*
G75*
G02*
X52090156Y-59588200I-172244J0D01*
G01*
X51384644Y-59588200D01*
G75*
G02*
X51212400Y-59415956I0J172244D01*
G01*
G37*
G04 #@! TD.AperFunction*
G04 #@! TA.AperFunction,ComponentPad*
G36*
G01*
X65452400Y-58060444D02*
X65452400Y-59415956D01*
G75*
G02*
X65280156Y-59588200I-172244J0D01*
G01*
X64574644Y-59588200D01*
G75*
G02*
X64402400Y-59415956I0J172244D01*
G01*
X64402400Y-58060444D01*
G75*
G02*
X64574644Y-57888200I172244J0D01*
G01*
X65280156Y-57888200D01*
G75*
G02*
X65452400Y-58060444I0J-172244D01*
G01*
G37*
G04 #@! TD.AperFunction*
D10*
X69442800Y-58966800D03*
G04 #@! TA.AperFunction,ComponentPad*
G36*
G01*
X67117800Y-59341800D02*
X67117800Y-58591800D01*
G75*
G02*
X67367800Y-58341800I250000J0D01*
G01*
X68117800Y-58341800D01*
G75*
G02*
X68367800Y-58591800I0J-250000D01*
G01*
X68367800Y-59341800D01*
G75*
G02*
X68117800Y-59591800I-250000J0D01*
G01*
X67367800Y-59591800D01*
G75*
G02*
X67117800Y-59341800I0J250000D01*
G01*
G37*
G04 #@! TD.AperFunction*
X69442800Y-53886800D03*
G04 #@! TA.AperFunction,ComponentPad*
G36*
G01*
X67117800Y-54261800D02*
X67117800Y-53511800D01*
G75*
G02*
X67367800Y-53261800I250000J0D01*
G01*
X68117800Y-53261800D01*
G75*
G02*
X68367800Y-53511800I0J-250000D01*
G01*
X68367800Y-54261800D01*
G75*
G02*
X68117800Y-54511800I-250000J0D01*
G01*
X67367800Y-54511800D01*
G75*
G02*
X67117800Y-54261800I0J250000D01*
G01*
G37*
G04 #@! TD.AperFunction*
X69442800Y-51346800D03*
G04 #@! TA.AperFunction,ComponentPad*
G36*
G01*
X67117800Y-51721800D02*
X67117800Y-50971800D01*
G75*
G02*
X67367800Y-50721800I250000J0D01*
G01*
X68117800Y-50721800D01*
G75*
G02*
X68367800Y-50971800I0J-250000D01*
G01*
X68367800Y-51721800D01*
G75*
G02*
X68117800Y-51971800I-250000J0D01*
G01*
X67367800Y-51971800D01*
G75*
G02*
X67117800Y-51721800I0J250000D01*
G01*
G37*
G04 #@! TD.AperFunction*
X69442800Y-48806800D03*
G04 #@! TA.AperFunction,ComponentPad*
G36*
G01*
X67117800Y-49181800D02*
X67117800Y-48431800D01*
G75*
G02*
X67367800Y-48181800I250000J0D01*
G01*
X68117800Y-48181800D01*
G75*
G02*
X68367800Y-48431800I0J-250000D01*
G01*
X68367800Y-49181800D01*
G75*
G02*
X68117800Y-49431800I-250000J0D01*
G01*
X67367800Y-49431800D01*
G75*
G02*
X67117800Y-49181800I0J250000D01*
G01*
G37*
G04 #@! TD.AperFunction*
X69442800Y-46266800D03*
G04 #@! TA.AperFunction,ComponentPad*
G36*
G01*
X67117800Y-46641800D02*
X67117800Y-45891800D01*
G75*
G02*
X67367800Y-45641800I250000J0D01*
G01*
X68117800Y-45641800D01*
G75*
G02*
X68367800Y-45891800I0J-250000D01*
G01*
X68367800Y-46641800D01*
G75*
G02*
X68117800Y-46891800I-250000J0D01*
G01*
X67367800Y-46891800D01*
G75*
G02*
X67117800Y-46641800I0J250000D01*
G01*
G37*
G04 #@! TD.AperFunction*
X69442800Y-43726800D03*
G04 #@! TA.AperFunction,ComponentPad*
G36*
G01*
X67117800Y-44101800D02*
X67117800Y-43351800D01*
G75*
G02*
X67367800Y-43101800I250000J0D01*
G01*
X68117800Y-43101800D01*
G75*
G02*
X68367800Y-43351800I0J-250000D01*
G01*
X68367800Y-44101800D01*
G75*
G02*
X68117800Y-44351800I-250000J0D01*
G01*
X67367800Y-44351800D01*
G75*
G02*
X67117800Y-44101800I0J250000D01*
G01*
G37*
G04 #@! TD.AperFunction*
X69442800Y-41186800D03*
G04 #@! TA.AperFunction,ComponentPad*
G36*
G01*
X67117800Y-41561800D02*
X67117800Y-40811800D01*
G75*
G02*
X67367800Y-40561800I250000J0D01*
G01*
X68117800Y-40561800D01*
G75*
G02*
X68367800Y-40811800I0J-250000D01*
G01*
X68367800Y-41561800D01*
G75*
G02*
X68117800Y-41811800I-250000J0D01*
G01*
X67367800Y-41811800D01*
G75*
G02*
X67117800Y-41561800I0J250000D01*
G01*
G37*
G04 #@! TD.AperFunction*
X69442800Y-38646800D03*
G04 #@! TA.AperFunction,ComponentPad*
G36*
G01*
X67117800Y-39021800D02*
X67117800Y-38271800D01*
G75*
G02*
X67367800Y-38021800I250000J0D01*
G01*
X68117800Y-38021800D01*
G75*
G02*
X68367800Y-38271800I0J-250000D01*
G01*
X68367800Y-39021800D01*
G75*
G02*
X68117800Y-39271800I-250000J0D01*
G01*
X67367800Y-39271800D01*
G75*
G02*
X67117800Y-39021800I0J250000D01*
G01*
G37*
G04 #@! TD.AperFunction*
X69442800Y-36106800D03*
G04 #@! TA.AperFunction,ComponentPad*
G36*
G01*
X67117800Y-36481800D02*
X67117800Y-35731800D01*
G75*
G02*
X67367800Y-35481800I250000J0D01*
G01*
X68117800Y-35481800D01*
G75*
G02*
X68367800Y-35731800I0J-250000D01*
G01*
X68367800Y-36481800D01*
G75*
G02*
X68117800Y-36731800I-250000J0D01*
G01*
X67367800Y-36731800D01*
G75*
G02*
X67117800Y-36481800I0J250000D01*
G01*
G37*
G04 #@! TD.AperFunction*
G04 #@! TA.AperFunction,ComponentPad*
G36*
G01*
X48517800Y-59341800D02*
X48517800Y-58591800D01*
G75*
G02*
X48767800Y-58341800I250000J0D01*
G01*
X49517800Y-58341800D01*
G75*
G02*
X49767800Y-58591800I0J-250000D01*
G01*
X49767800Y-59341800D01*
G75*
G02*
X49517800Y-59591800I-250000J0D01*
G01*
X48767800Y-59591800D01*
G75*
G02*
X48517800Y-59341800I0J250000D01*
G01*
G37*
G04 #@! TD.AperFunction*
X47442800Y-58966800D03*
G04 #@! TA.AperFunction,ComponentPad*
G36*
G01*
X48517800Y-56801800D02*
X48517800Y-56051800D01*
G75*
G02*
X48767800Y-55801800I250000J0D01*
G01*
X49517800Y-55801800D01*
G75*
G02*
X49767800Y-56051800I0J-250000D01*
G01*
X49767800Y-56801800D01*
G75*
G02*
X49517800Y-57051800I-250000J0D01*
G01*
X48767800Y-57051800D01*
G75*
G02*
X48517800Y-56801800I0J250000D01*
G01*
G37*
G04 #@! TD.AperFunction*
X47442800Y-56426800D03*
G04 #@! TA.AperFunction,ComponentPad*
G36*
G01*
X48517800Y-54261800D02*
X48517800Y-53511800D01*
G75*
G02*
X48767800Y-53261800I250000J0D01*
G01*
X49517800Y-53261800D01*
G75*
G02*
X49767800Y-53511800I0J-250000D01*
G01*
X49767800Y-54261800D01*
G75*
G02*
X49517800Y-54511800I-250000J0D01*
G01*
X48767800Y-54511800D01*
G75*
G02*
X48517800Y-54261800I0J250000D01*
G01*
G37*
G04 #@! TD.AperFunction*
X47442800Y-53886800D03*
G04 #@! TA.AperFunction,ComponentPad*
G36*
G01*
X48517800Y-51721800D02*
X48517800Y-50971800D01*
G75*
G02*
X48767800Y-50721800I250000J0D01*
G01*
X49517800Y-50721800D01*
G75*
G02*
X49767800Y-50971800I0J-250000D01*
G01*
X49767800Y-51721800D01*
G75*
G02*
X49517800Y-51971800I-250000J0D01*
G01*
X48767800Y-51971800D01*
G75*
G02*
X48517800Y-51721800I0J250000D01*
G01*
G37*
G04 #@! TD.AperFunction*
X47442800Y-51346800D03*
G04 #@! TA.AperFunction,ComponentPad*
G36*
G01*
X48517800Y-49181800D02*
X48517800Y-48431800D01*
G75*
G02*
X48767800Y-48181800I250000J0D01*
G01*
X49517800Y-48181800D01*
G75*
G02*
X49767800Y-48431800I0J-250000D01*
G01*
X49767800Y-49181800D01*
G75*
G02*
X49517800Y-49431800I-250000J0D01*
G01*
X48767800Y-49431800D01*
G75*
G02*
X48517800Y-49181800I0J250000D01*
G01*
G37*
G04 #@! TD.AperFunction*
X47442800Y-48806800D03*
G04 #@! TA.AperFunction,ComponentPad*
G36*
G01*
X48517800Y-46641800D02*
X48517800Y-45891800D01*
G75*
G02*
X48767800Y-45641800I250000J0D01*
G01*
X49517800Y-45641800D01*
G75*
G02*
X49767800Y-45891800I0J-250000D01*
G01*
X49767800Y-46641800D01*
G75*
G02*
X49517800Y-46891800I-250000J0D01*
G01*
X48767800Y-46891800D01*
G75*
G02*
X48517800Y-46641800I0J250000D01*
G01*
G37*
G04 #@! TD.AperFunction*
X47442800Y-46266800D03*
G04 #@! TA.AperFunction,ComponentPad*
G36*
G01*
X48517800Y-44101800D02*
X48517800Y-43351800D01*
G75*
G02*
X48767800Y-43101800I250000J0D01*
G01*
X49517800Y-43101800D01*
G75*
G02*
X49767800Y-43351800I0J-250000D01*
G01*
X49767800Y-44101800D01*
G75*
G02*
X49517800Y-44351800I-250000J0D01*
G01*
X48767800Y-44351800D01*
G75*
G02*
X48517800Y-44101800I0J250000D01*
G01*
G37*
G04 #@! TD.AperFunction*
X47442800Y-43726800D03*
G04 #@! TA.AperFunction,ComponentPad*
G36*
G01*
X48517800Y-41561800D02*
X48517800Y-40811800D01*
G75*
G02*
X48767800Y-40561800I250000J0D01*
G01*
X49517800Y-40561800D01*
G75*
G02*
X49767800Y-40811800I0J-250000D01*
G01*
X49767800Y-41561800D01*
G75*
G02*
X49517800Y-41811800I-250000J0D01*
G01*
X48767800Y-41811800D01*
G75*
G02*
X48517800Y-41561800I0J250000D01*
G01*
G37*
G04 #@! TD.AperFunction*
X47442800Y-41186800D03*
G04 #@! TA.AperFunction,ComponentPad*
G36*
G01*
X48517800Y-39021800D02*
X48517800Y-38271800D01*
G75*
G02*
X48767800Y-38021800I250000J0D01*
G01*
X49517800Y-38021800D01*
G75*
G02*
X49767800Y-38271800I0J-250000D01*
G01*
X49767800Y-39021800D01*
G75*
G02*
X49517800Y-39271800I-250000J0D01*
G01*
X48767800Y-39271800D01*
G75*
G02*
X48517800Y-39021800I0J250000D01*
G01*
G37*
G04 #@! TD.AperFunction*
X47442800Y-38646800D03*
G04 #@! TA.AperFunction,ComponentPad*
G36*
G01*
X48517800Y-36481800D02*
X48517800Y-35731800D01*
G75*
G02*
X48767800Y-35481800I250000J0D01*
G01*
X49517800Y-35481800D01*
G75*
G02*
X49767800Y-35731800I0J-250000D01*
G01*
X49767800Y-36481800D01*
G75*
G02*
X49517800Y-36731800I-250000J0D01*
G01*
X48767800Y-36731800D01*
G75*
G02*
X48517800Y-36481800I0J250000D01*
G01*
G37*
G04 #@! TD.AperFunction*
X47442800Y-36106800D03*
D11*
X52316000Y-51778600D03*
X63593600Y-50298200D03*
X63263400Y-51600800D03*
X52138200Y-52667600D03*
X51107420Y-41633380D03*
X63472200Y-49060800D03*
X63517400Y-45987400D03*
X65117600Y-37427600D03*
X63472200Y-47945480D03*
X63472200Y-47107400D03*
X52416400Y-43015600D03*
X64279480Y-53208975D03*
X64286884Y-52345080D03*
X64336204Y-51546601D03*
X52916000Y-50940400D03*
D12*
X52316000Y-51778600D02*
X52316000Y-47070000D01*
X52316000Y-47070000D02*
X48972800Y-43726800D01*
X48972800Y-43726800D02*
X48642800Y-43726800D01*
X63593600Y-50298200D02*
X63593600Y-51270600D01*
X63593600Y-51270600D02*
X63263400Y-51600800D01*
X48972800Y-46266800D02*
X48642800Y-46266800D01*
X52138200Y-52667600D02*
X50639600Y-52667600D01*
X50588800Y-52616800D02*
X50588800Y-47882800D01*
X50588800Y-47882800D02*
X48972800Y-46266800D01*
X50639600Y-52667600D02*
X50588800Y-52616800D01*
X63472200Y-49060800D02*
X63472200Y-46032600D01*
X63472200Y-46032600D02*
X63517400Y-45987400D01*
X67903000Y-46266800D02*
X68233000Y-46266800D01*
X64617655Y-52870800D02*
X65778000Y-52870800D01*
X65778000Y-52870800D02*
X65778000Y-48391800D01*
X65778000Y-48391800D02*
X67903000Y-46266800D01*
X64279480Y-53208975D02*
X64617655Y-52870800D01*
X65378000Y-46251800D02*
X67903000Y-43726800D01*
X64805120Y-52345080D02*
X65378000Y-51772200D01*
X67903000Y-43726800D02*
X68233000Y-43726800D01*
X64286884Y-52345080D02*
X64805120Y-52345080D01*
X65378000Y-51772200D02*
X65378000Y-46251800D01*
X67963000Y-41186800D02*
X68233000Y-41186800D01*
X64336204Y-44813596D02*
X67963000Y-41186800D01*
X64336204Y-51546601D02*
X64336204Y-44813596D01*
X48972800Y-41186800D02*
X48642800Y-41186800D01*
X52916000Y-45130000D02*
X48972800Y-41186800D01*
X52916000Y-50940400D02*
X52916000Y-45130000D01*
G04 #@! TA.AperFunction,Conductor*
G36*
X66603739Y-35356985D02*
G01*
X66649494Y-35409789D01*
X66659438Y-35478947D01*
X66654406Y-35500304D01*
X66628294Y-35579102D01*
X66628293Y-35579109D01*
X66617800Y-35681813D01*
X66617800Y-36531771D01*
X66617801Y-36531787D01*
X66628294Y-36634497D01*
X66683441Y-36800919D01*
X66683443Y-36800924D01*
X66687899Y-36808147D01*
X67367800Y-36128246D01*
X67367800Y-36156170D01*
X67393356Y-36251545D01*
X67442725Y-36337055D01*
X67512545Y-36406875D01*
X67598055Y-36456244D01*
X67693430Y-36481800D01*
X67721350Y-36481800D01*
X67041450Y-37161700D01*
X67048675Y-37166157D01*
X67215102Y-37221305D01*
X67215109Y-37221306D01*
X67317819Y-37231799D01*
X67599679Y-37231799D01*
X67620925Y-37238037D01*
X67643009Y-37239616D01*
X67653792Y-37247687D01*
X67666718Y-37251483D01*
X67681218Y-37268217D01*
X67698944Y-37281486D01*
X67709557Y-37300922D01*
X67712473Y-37304287D01*
X67715859Y-37312462D01*
X67723426Y-37332748D01*
X67728413Y-37402439D01*
X67723427Y-37419420D01*
X67715514Y-37440635D01*
X67673643Y-37496568D01*
X67608178Y-37520984D01*
X67599333Y-37521300D01*
X67317799Y-37521300D01*
X67317780Y-37521301D01*
X67215003Y-37531800D01*
X67215000Y-37531801D01*
X67048468Y-37586985D01*
X67048463Y-37586987D01*
X66899142Y-37679089D01*
X66775089Y-37803142D01*
X66682987Y-37952463D01*
X66682986Y-37952466D01*
X66627801Y-38119003D01*
X66627801Y-38119004D01*
X66627800Y-38119004D01*
X66617300Y-38221783D01*
X66617300Y-39071801D01*
X66617301Y-39071819D01*
X66627800Y-39174596D01*
X66627801Y-39174599D01*
X66682985Y-39341131D01*
X66682986Y-39341134D01*
X66775088Y-39490456D01*
X66899144Y-39614512D01*
X67048466Y-39706614D01*
X67215003Y-39761799D01*
X67317791Y-39772300D01*
X67599333Y-39772299D01*
X67620579Y-39778537D01*
X67642662Y-39780116D01*
X67653444Y-39788187D01*
X67666372Y-39791983D01*
X67680873Y-39808718D01*
X67698597Y-39821985D01*
X67709212Y-39841423D01*
X67712127Y-39844787D01*
X67715513Y-39852961D01*
X67723160Y-39873462D01*
X67728147Y-39943152D01*
X67723161Y-39960135D01*
X67715514Y-39980636D01*
X67673641Y-40036569D01*
X67608176Y-40060984D01*
X67599333Y-40061300D01*
X67317799Y-40061300D01*
X67317780Y-40061301D01*
X67215003Y-40071800D01*
X67215000Y-40071801D01*
X67048468Y-40126985D01*
X67048463Y-40126987D01*
X66899142Y-40219089D01*
X66775089Y-40343142D01*
X66682987Y-40492463D01*
X66682986Y-40492466D01*
X66627801Y-40659003D01*
X66627801Y-40659004D01*
X66627800Y-40659004D01*
X66617300Y-40761783D01*
X66617300Y-41611800D01*
X66617302Y-41611821D01*
X66617936Y-41618032D01*
X66605161Y-41686724D01*
X66582258Y-41718305D01*
X63967490Y-44333074D01*
X63855685Y-44444878D01*
X63855684Y-44444880D01*
X63822326Y-44502658D01*
X63776627Y-44581811D01*
X63735703Y-44734539D01*
X63735703Y-44734541D01*
X63735703Y-44902642D01*
X63735704Y-44902655D01*
X63735704Y-49373700D01*
X63716019Y-49440739D01*
X63663215Y-49486494D01*
X63611704Y-49497700D01*
X63514755Y-49497700D01*
X63360110Y-49528461D01*
X63360098Y-49528464D01*
X63214427Y-49588802D01*
X63214414Y-49588809D01*
X63083311Y-49676410D01*
X63083307Y-49676413D01*
X62971813Y-49787907D01*
X62971810Y-49787911D01*
X62884209Y-49919014D01*
X62884202Y-49919027D01*
X62823864Y-50064698D01*
X62823861Y-50064710D01*
X62793100Y-50219353D01*
X62793100Y-50377046D01*
X62823861Y-50531689D01*
X62823864Y-50531701D01*
X62884202Y-50677372D01*
X62884208Y-50677383D01*
X62914187Y-50722250D01*
X62935064Y-50788928D01*
X62916579Y-50856308D01*
X62879975Y-50894242D01*
X62753111Y-50979010D01*
X62753107Y-50979013D01*
X62641613Y-51090507D01*
X62641610Y-51090511D01*
X62554009Y-51221614D01*
X62554002Y-51221627D01*
X62493664Y-51367298D01*
X62493661Y-51367310D01*
X62462900Y-51521953D01*
X62462900Y-51679646D01*
X62493661Y-51834289D01*
X62493664Y-51834301D01*
X62554002Y-51979972D01*
X62554009Y-51979985D01*
X62641610Y-52111088D01*
X62641613Y-52111092D01*
X62753107Y-52222586D01*
X62753111Y-52222589D01*
X62884214Y-52310190D01*
X62884227Y-52310197D01*
X63029898Y-52370535D01*
X63029903Y-52370537D01*
X63151237Y-52394672D01*
X63184553Y-52401299D01*
X63184556Y-52401300D01*
X63184558Y-52401300D01*
X63342242Y-52401300D01*
X63354950Y-52398772D01*
X63424540Y-52404998D01*
X63479719Y-52447860D01*
X63500760Y-52496197D01*
X63517145Y-52578571D01*
X63517148Y-52578581D01*
X63576442Y-52721731D01*
X63583911Y-52791200D01*
X63571248Y-52827620D01*
X63570087Y-52829791D01*
X63509744Y-52975473D01*
X63509741Y-52975485D01*
X63478980Y-53130128D01*
X63478980Y-53287821D01*
X63509741Y-53442464D01*
X63509744Y-53442476D01*
X63570082Y-53588147D01*
X63570089Y-53588160D01*
X63657690Y-53719263D01*
X63657693Y-53719267D01*
X63769187Y-53830761D01*
X63769191Y-53830764D01*
X63900294Y-53918365D01*
X63900307Y-53918372D01*
X64045978Y-53978710D01*
X64045983Y-53978712D01*
X64200633Y-54009474D01*
X64200636Y-54009475D01*
X64200638Y-54009475D01*
X64358324Y-54009475D01*
X64358325Y-54009474D01*
X64512977Y-53978712D01*
X64658659Y-53918369D01*
X64789769Y-53830764D01*
X64901269Y-53719264D01*
X64988874Y-53588154D01*
X65005569Y-53547847D01*
X65049409Y-53493444D01*
X65115703Y-53471379D01*
X65120130Y-53471300D01*
X65857055Y-53471300D01*
X65857057Y-53471300D01*
X66009784Y-53430377D01*
X66146716Y-53351320D01*
X66258520Y-53239516D01*
X66337577Y-53102584D01*
X66378500Y-52949857D01*
X66378500Y-51868177D01*
X66398185Y-51801138D01*
X66450989Y-51755383D01*
X66520147Y-51745439D01*
X66583703Y-51774464D01*
X66621477Y-51833242D01*
X66625858Y-51855576D01*
X66627800Y-51874596D01*
X66627801Y-51874599D01*
X66662719Y-51979972D01*
X66682986Y-52041134D01*
X66775088Y-52190456D01*
X66899144Y-52314512D01*
X67048466Y-52406614D01*
X67215003Y-52461799D01*
X67317791Y-52472300D01*
X67599333Y-52472299D01*
X67620579Y-52478537D01*
X67642662Y-52480116D01*
X67653444Y-52488187D01*
X67666372Y-52491983D01*
X67680873Y-52508718D01*
X67698597Y-52521985D01*
X67709212Y-52541423D01*
X67712127Y-52544787D01*
X67715513Y-52552961D01*
X67723160Y-52573462D01*
X67728147Y-52643152D01*
X67723161Y-52660135D01*
X67715514Y-52680636D01*
X67673641Y-52736569D01*
X67608176Y-52760984D01*
X67599333Y-52761300D01*
X67317799Y-52761300D01*
X67317780Y-52761301D01*
X67215003Y-52771800D01*
X67215000Y-52771801D01*
X67048468Y-52826985D01*
X67048463Y-52826987D01*
X66899142Y-52919089D01*
X66775089Y-53043142D01*
X66682987Y-53192463D01*
X66682986Y-53192466D01*
X66627801Y-53359003D01*
X66627801Y-53359004D01*
X66627800Y-53359004D01*
X66617300Y-53461783D01*
X66617300Y-54311801D01*
X66617301Y-54311819D01*
X66627800Y-54414596D01*
X66627801Y-54414599D01*
X66682985Y-54581131D01*
X66682986Y-54581134D01*
X66775088Y-54730456D01*
X66899144Y-54854512D01*
X67048466Y-54946614D01*
X67215003Y-55001799D01*
X67317791Y-55012300D01*
X67599333Y-55012299D01*
X67666372Y-55031983D01*
X67712127Y-55084787D01*
X67715514Y-55092964D01*
X67729004Y-55129132D01*
X67729005Y-55129134D01*
X67815252Y-55244344D01*
X67815255Y-55244347D01*
X67930464Y-55330593D01*
X67930471Y-55330597D01*
X68065317Y-55380891D01*
X68065316Y-55380891D01*
X68072244Y-55381635D01*
X68124927Y-55387300D01*
X68818300Y-55387299D01*
X68885339Y-55406983D01*
X68931094Y-55459787D01*
X68942300Y-55511299D01*
X68942300Y-57342300D01*
X68922615Y-57409339D01*
X68869811Y-57455094D01*
X68818300Y-57466300D01*
X68124929Y-57466300D01*
X68124923Y-57466301D01*
X68065316Y-57472708D01*
X67930471Y-57523002D01*
X67930464Y-57523006D01*
X67815255Y-57609252D01*
X67815252Y-57609255D01*
X67729005Y-57724465D01*
X67715514Y-57760636D01*
X67673641Y-57816569D01*
X67608176Y-57840984D01*
X67599333Y-57841300D01*
X67317799Y-57841300D01*
X67317780Y-57841301D01*
X67215003Y-57851800D01*
X67215000Y-57851801D01*
X67048468Y-57906985D01*
X67048463Y-57906987D01*
X66899142Y-57999089D01*
X66775089Y-58123142D01*
X66682987Y-58272463D01*
X66682986Y-58272466D01*
X66627801Y-58439003D01*
X66627801Y-58439004D01*
X66627800Y-58439004D01*
X66617300Y-58541783D01*
X66617300Y-59391801D01*
X66617301Y-59391819D01*
X66627800Y-59494596D01*
X66627801Y-59494599D01*
X66653879Y-59573296D01*
X66656281Y-59643124D01*
X66620549Y-59703166D01*
X66558029Y-59734359D01*
X66536173Y-59736300D01*
X66052979Y-59736300D01*
X65985940Y-59716615D01*
X65940185Y-59663811D01*
X65930241Y-59594653D01*
X65934594Y-59575409D01*
X65946244Y-59538020D01*
X65952399Y-59470283D01*
X65952399Y-58066752D01*
X65952398Y-58066751D01*
X65191856Y-58827294D01*
X65130533Y-58860779D01*
X65060841Y-58855795D01*
X65016494Y-58827294D01*
X64987400Y-58798200D01*
X64987400Y-58324648D01*
X65741228Y-57570820D01*
X65697785Y-57527377D01*
X65697780Y-57527373D01*
X65558081Y-57442923D01*
X65558074Y-57442920D01*
X65402221Y-57394355D01*
X65402223Y-57394355D01*
X65334483Y-57388200D01*
X64520305Y-57388200D01*
X64452585Y-57394353D01*
X64452578Y-57394355D01*
X64296725Y-57442920D01*
X64296718Y-57442923D01*
X64157019Y-57527373D01*
X64157014Y-57527377D01*
X64113572Y-57570820D01*
X64667754Y-58125002D01*
X64617848Y-58174909D01*
X64587400Y-58248418D01*
X64587400Y-58751752D01*
X63902400Y-58066752D01*
X63902400Y-59470294D01*
X63908553Y-59538014D01*
X63908554Y-59538018D01*
X63920206Y-59575409D01*
X63921358Y-59645269D01*
X63884557Y-59704662D01*
X63821488Y-59734730D01*
X63801821Y-59736300D01*
X52862979Y-59736300D01*
X52795940Y-59716615D01*
X52750185Y-59663811D01*
X52740241Y-59594653D01*
X52744594Y-59575409D01*
X52756244Y-59538020D01*
X52762399Y-59470283D01*
X52762399Y-58066752D01*
X52762398Y-58066751D01*
X52077400Y-58751749D01*
X52077400Y-58248418D01*
X52046952Y-58174909D01*
X51997045Y-58125002D01*
X52551228Y-57570820D01*
X52507785Y-57527377D01*
X52507780Y-57527373D01*
X52368081Y-57442923D01*
X52368074Y-57442920D01*
X52212221Y-57394355D01*
X52212223Y-57394355D01*
X52144483Y-57388200D01*
X51330305Y-57388200D01*
X51262585Y-57394353D01*
X51262578Y-57394355D01*
X51106725Y-57442920D01*
X51106718Y-57442923D01*
X50967019Y-57527373D01*
X50967014Y-57527377D01*
X50923572Y-57570820D01*
X51677400Y-58324648D01*
X51677400Y-58798200D01*
X51648305Y-58827295D01*
X51586982Y-58860780D01*
X51517290Y-58855796D01*
X51472943Y-58827295D01*
X50712400Y-58066752D01*
X50712400Y-59470294D01*
X50718553Y-59538014D01*
X50718554Y-59538018D01*
X50730206Y-59575409D01*
X50731358Y-59645269D01*
X50694557Y-59704662D01*
X50631488Y-59734730D01*
X50611821Y-59736300D01*
X50349426Y-59736300D01*
X50282387Y-59716615D01*
X50236632Y-59663811D01*
X50226688Y-59594653D01*
X50231718Y-59573303D01*
X50257799Y-59494597D01*
X50268300Y-59391809D01*
X50268299Y-58541792D01*
X50257799Y-58439003D01*
X50202614Y-58272466D01*
X50110512Y-58123144D01*
X49986456Y-57999088D01*
X49837134Y-57906986D01*
X49670597Y-57851801D01*
X49670595Y-57851800D01*
X49567816Y-57841300D01*
X49567809Y-57841300D01*
X49286266Y-57841300D01*
X49265020Y-57835061D01*
X49242932Y-57833482D01*
X49232148Y-57825409D01*
X49219227Y-57821615D01*
X49204727Y-57804881D01*
X49186999Y-57791610D01*
X49176385Y-57772173D01*
X49173472Y-57768811D01*
X49170084Y-57760633D01*
X49162438Y-57740133D01*
X49157454Y-57670441D01*
X49162439Y-57653464D01*
X49170086Y-57632963D01*
X49211959Y-57577030D01*
X49277424Y-57552615D01*
X49286267Y-57552299D01*
X49567802Y-57552299D01*
X49567808Y-57552299D01*
X49670597Y-57541799D01*
X49837134Y-57486614D01*
X49986456Y-57394512D01*
X50110512Y-57270456D01*
X50202614Y-57121134D01*
X50257799Y-56954597D01*
X50268300Y-56851809D01*
X50268299Y-56001792D01*
X50257799Y-55899003D01*
X50202614Y-55732466D01*
X50110512Y-55583144D01*
X49986456Y-55459088D01*
X49893688Y-55401869D01*
X49837136Y-55366987D01*
X49837131Y-55366985D01*
X49835662Y-55366498D01*
X49670597Y-55311801D01*
X49670595Y-55311800D01*
X49567816Y-55301300D01*
X49567809Y-55301300D01*
X49286266Y-55301300D01*
X49265020Y-55295061D01*
X49242932Y-55293482D01*
X49232148Y-55285409D01*
X49219227Y-55281615D01*
X49204727Y-55264881D01*
X49186999Y-55251610D01*
X49176385Y-55232173D01*
X49173472Y-55228811D01*
X49170084Y-55220633D01*
X49162438Y-55200133D01*
X49157454Y-55130441D01*
X49162439Y-55113464D01*
X49170086Y-55092963D01*
X49211959Y-55037030D01*
X49277424Y-55012615D01*
X49286267Y-55012299D01*
X49567802Y-55012299D01*
X49567808Y-55012299D01*
X49670597Y-55001799D01*
X49837134Y-54946614D01*
X49986456Y-54854512D01*
X50110512Y-54730456D01*
X50202614Y-54581134D01*
X50257799Y-54414597D01*
X50268300Y-54311809D01*
X50268299Y-53461792D01*
X50258009Y-53361063D01*
X50270778Y-53292373D01*
X50318659Y-53241489D01*
X50386449Y-53224568D01*
X50413455Y-53228688D01*
X50560543Y-53268100D01*
X50718657Y-53268100D01*
X51558434Y-53268100D01*
X51625473Y-53287785D01*
X51627325Y-53288998D01*
X51759014Y-53376990D01*
X51759027Y-53376997D01*
X51887900Y-53430377D01*
X51904703Y-53437337D01*
X52027601Y-53461783D01*
X52059353Y-53468099D01*
X52059356Y-53468100D01*
X52059358Y-53468100D01*
X52217044Y-53468100D01*
X52217045Y-53468099D01*
X52371697Y-53437337D01*
X52517379Y-53376994D01*
X52648489Y-53289389D01*
X52759989Y-53177889D01*
X52847594Y-53046779D01*
X52849101Y-53043142D01*
X52877125Y-52975485D01*
X52907937Y-52901097D01*
X52938700Y-52746442D01*
X52938700Y-52588758D01*
X52938700Y-52588755D01*
X52938699Y-52588753D01*
X52931579Y-52552961D01*
X52907937Y-52434103D01*
X52905857Y-52429083D01*
X52898384Y-52359617D01*
X52929654Y-52297135D01*
X52932685Y-52293992D01*
X52937789Y-52288889D01*
X53025394Y-52157779D01*
X53085737Y-52012097D01*
X53116500Y-51857442D01*
X53116500Y-51806659D01*
X53136185Y-51739620D01*
X53188989Y-51693865D01*
X53193048Y-51692098D01*
X53295172Y-51649797D01*
X53295172Y-51649796D01*
X53295179Y-51649794D01*
X53426289Y-51562189D01*
X53537789Y-51450689D01*
X53625394Y-51319579D01*
X53685737Y-51173897D01*
X53716500Y-51019242D01*
X53716500Y-50861558D01*
X53716500Y-50861555D01*
X53716499Y-50861553D01*
X53711818Y-50838021D01*
X53685737Y-50706903D01*
X53673505Y-50677372D01*
X53625397Y-50561227D01*
X53625390Y-50561214D01*
X53537398Y-50429525D01*
X53516520Y-50362847D01*
X53516500Y-50360634D01*
X53516500Y-45219059D01*
X53516501Y-45219046D01*
X53516501Y-45050945D01*
X53516501Y-45050943D01*
X53475577Y-44898215D01*
X53443005Y-44841799D01*
X53396520Y-44761284D01*
X53284716Y-44649480D01*
X53284715Y-44649479D01*
X53280385Y-44645149D01*
X53280374Y-44645139D01*
X50304618Y-41669383D01*
X50271133Y-41608060D01*
X50268299Y-41581710D01*
X50268299Y-40761792D01*
X50257799Y-40659003D01*
X50202614Y-40492466D01*
X50110512Y-40343144D01*
X49986456Y-40219088D01*
X49837134Y-40126986D01*
X49670597Y-40071801D01*
X49670595Y-40071800D01*
X49567816Y-40061300D01*
X49567809Y-40061300D01*
X49286266Y-40061300D01*
X49265020Y-40055061D01*
X49242932Y-40053482D01*
X49232148Y-40045409D01*
X49219227Y-40041615D01*
X49204727Y-40024881D01*
X49186999Y-40011610D01*
X49176385Y-39992173D01*
X49173472Y-39988811D01*
X49170084Y-39980633D01*
X49162438Y-39960133D01*
X49157454Y-39890441D01*
X49162439Y-39873464D01*
X49170086Y-39852963D01*
X49211959Y-39797030D01*
X49277424Y-39772615D01*
X49286267Y-39772299D01*
X49567802Y-39772299D01*
X49567808Y-39772299D01*
X49670597Y-39761799D01*
X49837134Y-39706614D01*
X49986456Y-39614512D01*
X50110512Y-39490456D01*
X50202614Y-39341134D01*
X50257799Y-39174597D01*
X50268300Y-39071809D01*
X50268299Y-38221792D01*
X50257799Y-38119003D01*
X50202614Y-37952466D01*
X50110512Y-37803144D01*
X49986456Y-37679088D01*
X49837134Y-37586986D01*
X49670597Y-37531801D01*
X49670595Y-37531800D01*
X49567816Y-37521300D01*
X49567809Y-37521300D01*
X49286266Y-37521300D01*
X49265020Y-37515061D01*
X49242932Y-37513482D01*
X49232148Y-37505409D01*
X49219227Y-37501615D01*
X49204727Y-37484881D01*
X49186999Y-37471610D01*
X49176385Y-37452173D01*
X49173472Y-37448811D01*
X49170084Y-37440633D01*
X49162438Y-37420133D01*
X49157454Y-37350441D01*
X49162439Y-37333464D01*
X49170086Y-37312963D01*
X49211959Y-37257030D01*
X49277424Y-37232615D01*
X49286267Y-37232299D01*
X49567802Y-37232299D01*
X49567808Y-37232299D01*
X49670597Y-37221799D01*
X49837134Y-37166614D01*
X49986456Y-37074512D01*
X50110512Y-36950456D01*
X50202614Y-36801134D01*
X50257799Y-36634597D01*
X50268300Y-36531809D01*
X50268299Y-35681792D01*
X50257799Y-35579003D01*
X50257318Y-35577553D01*
X50231721Y-35500304D01*
X50229319Y-35430476D01*
X50265051Y-35370434D01*
X50327571Y-35339241D01*
X50349427Y-35337300D01*
X66536700Y-35337300D01*
X66603739Y-35356985D01*
G37*
G04 #@! TD.AperFunction*
M02*
