G04 #@! TF.GenerationSoftware,KiCad,Pcbnew,9.0.1+1*
G04 #@! TF.CreationDate,2025-11-11T14:39:57+00:00*
G04 #@! TF.ProjectId,sim-and-sd-card,73696d2d-616e-4642-9d73-642d63617264,rev?*
G04 #@! TF.SameCoordinates,Original*
G04 #@! TF.FileFunction,Copper,L1,Top*
G04 #@! TF.FilePolarity,Positive*
%FSLAX46Y46*%
G04 Gerber Fmt 4.6, Leading zero omitted, Abs format (unit mm)*
G04 Created by KiCad (PCBNEW 9.0.1+1) date 2025-11-11 14:39:57*
%MOMM*%
%LPD*%
G01*
G04 APERTURE LIST*
G04 #@! TA.AperFunction,SMDPad,CuDef*
%ADD10R,1.000000X1.340000*%
G04 #@! TD*
G04 #@! TA.AperFunction,SMDPad,CuDef*
%ADD11R,1.000000X1.940000*%
G04 #@! TD*
G04 #@! TA.AperFunction,SMDPad,CuDef*
%ADD12R,1.000000X1.800000*%
G04 #@! TD*
G04 #@! TA.AperFunction,SMDPad,CuDef*
%ADD13R,1.000000X1.350000*%
G04 #@! TD*
G04 #@! TA.AperFunction,SMDPad,CuDef*
%ADD14R,1.200000X0.700000*%
G04 #@! TD*
G04 #@! TA.AperFunction,SMDPad,CuDef*
%ADD15R,1.000000X0.700000*%
G04 #@! TD*
G04 #@! TA.AperFunction,CastellatedPad*
%ADD16R,2.540000X2.000000*%
G04 #@! TD*
G04 #@! TA.AperFunction,ViaPad*
%ADD17C,0.600000*%
G04 #@! TD*
G04 #@! TA.AperFunction,Conductor*
%ADD18C,0.200000*%
G04 #@! TD*
G04 #@! TA.AperFunction,Conductor*
%ADD19C,0.500000*%
G04 #@! TD*
G04 #@! TA.AperFunction,Conductor*
%ADD20C,0.750000*%
G04 #@! TD*
G04 APERTURE END LIST*
G04 #@! TA.AperFunction,ComponentPad*
G36*
G01*
X51212400Y-59415956D02*
X51212400Y-58060444D01*
G75*
G02*
X51384644Y-57888200I172244J0D01*
G01*
X52090156Y-57888200D01*
G75*
G02*
X52262400Y-58060444I0J-172244D01*
G01*
X52262400Y-59415956D01*
G75*
G02*
X52090156Y-59588200I-172244J0D01*
G01*
X51384644Y-59588200D01*
G75*
G02*
X51212400Y-59415956I0J172244D01*
G01*
G37*
G04 #@! TD.AperFunction*
D10*
X51427400Y-49688200D03*
D11*
X51427400Y-47848200D03*
D12*
X51427400Y-43038200D03*
X65237400Y-43038200D03*
D11*
X65237400Y-47848200D03*
D13*
X65237400Y-49688200D03*
G04 #@! TA.AperFunction,ComponentPad*
G36*
G01*
X65452400Y-58060444D02*
X65452400Y-59415956D01*
G75*
G02*
X65280156Y-59588200I-172244J0D01*
G01*
X64574644Y-59588200D01*
G75*
G02*
X64402400Y-59415956I0J172244D01*
G01*
X64402400Y-58060444D01*
G75*
G02*
X64574644Y-57888200I172244J0D01*
G01*
X65280156Y-57888200D01*
G75*
G02*
X65452400Y-58060444I0J-172244D01*
G01*
G37*
G04 #@! TD.AperFunction*
D14*
X51727400Y-44923200D03*
D15*
X65237400Y-56178200D03*
X65237400Y-55298200D03*
X51427400Y-55298200D03*
X51427400Y-56178200D03*
X65237400Y-52658200D03*
X65237400Y-54418200D03*
X51427400Y-54418200D03*
X51427400Y-52658200D03*
X65237400Y-46338200D03*
X65237400Y-50898200D03*
X65237400Y-51778200D03*
X65237400Y-53538200D03*
X51427400Y-53538200D03*
X51427400Y-51778200D03*
X51427400Y-50898200D03*
X51427400Y-46338200D03*
D16*
X69442800Y-58966800D03*
G04 #@! TA.AperFunction,ComponentPad*
G36*
G01*
X67117800Y-59341800D02*
X67117800Y-58591800D01*
G75*
G02*
X67367800Y-58341800I250000J0D01*
G01*
X68117800Y-58341800D01*
G75*
G02*
X68367800Y-58591800I0J-250000D01*
G01*
X68367800Y-59341800D01*
G75*
G02*
X68117800Y-59591800I-250000J0D01*
G01*
X67367800Y-59591800D01*
G75*
G02*
X67117800Y-59341800I0J250000D01*
G01*
G37*
G04 #@! TD.AperFunction*
X69442800Y-53886800D03*
G04 #@! TA.AperFunction,ComponentPad*
G36*
G01*
X67117800Y-54261800D02*
X67117800Y-53511800D01*
G75*
G02*
X67367800Y-53261800I250000J0D01*
G01*
X68117800Y-53261800D01*
G75*
G02*
X68367800Y-53511800I0J-250000D01*
G01*
X68367800Y-54261800D01*
G75*
G02*
X68117800Y-54511800I-250000J0D01*
G01*
X67367800Y-54511800D01*
G75*
G02*
X67117800Y-54261800I0J250000D01*
G01*
G37*
G04 #@! TD.AperFunction*
X69442800Y-51346800D03*
G04 #@! TA.AperFunction,ComponentPad*
G36*
G01*
X67117800Y-51721800D02*
X67117800Y-50971800D01*
G75*
G02*
X67367800Y-50721800I250000J0D01*
G01*
X68117800Y-50721800D01*
G75*
G02*
X68367800Y-50971800I0J-250000D01*
G01*
X68367800Y-51721800D01*
G75*
G02*
X68117800Y-51971800I-250000J0D01*
G01*
X67367800Y-51971800D01*
G75*
G02*
X67117800Y-51721800I0J250000D01*
G01*
G37*
G04 #@! TD.AperFunction*
X69442800Y-48806800D03*
G04 #@! TA.AperFunction,ComponentPad*
G36*
G01*
X67117800Y-49181800D02*
X67117800Y-48431800D01*
G75*
G02*
X67367800Y-48181800I250000J0D01*
G01*
X68117800Y-48181800D01*
G75*
G02*
X68367800Y-48431800I0J-250000D01*
G01*
X68367800Y-49181800D01*
G75*
G02*
X68117800Y-49431800I-250000J0D01*
G01*
X67367800Y-49431800D01*
G75*
G02*
X67117800Y-49181800I0J250000D01*
G01*
G37*
G04 #@! TD.AperFunction*
X69442800Y-46266800D03*
G04 #@! TA.AperFunction,ComponentPad*
G36*
G01*
X67117800Y-46641800D02*
X67117800Y-45891800D01*
G75*
G02*
X67367800Y-45641800I250000J0D01*
G01*
X68117800Y-45641800D01*
G75*
G02*
X68367800Y-45891800I0J-250000D01*
G01*
X68367800Y-46641800D01*
G75*
G02*
X68117800Y-46891800I-250000J0D01*
G01*
X67367800Y-46891800D01*
G75*
G02*
X67117800Y-46641800I0J250000D01*
G01*
G37*
G04 #@! TD.AperFunction*
X69442800Y-43726800D03*
G04 #@! TA.AperFunction,ComponentPad*
G36*
G01*
X67117800Y-44101800D02*
X67117800Y-43351800D01*
G75*
G02*
X67367800Y-43101800I250000J0D01*
G01*
X68117800Y-43101800D01*
G75*
G02*
X68367800Y-43351800I0J-250000D01*
G01*
X68367800Y-44101800D01*
G75*
G02*
X68117800Y-44351800I-250000J0D01*
G01*
X67367800Y-44351800D01*
G75*
G02*
X67117800Y-44101800I0J250000D01*
G01*
G37*
G04 #@! TD.AperFunction*
X69442800Y-41186800D03*
G04 #@! TA.AperFunction,ComponentPad*
G36*
G01*
X67117800Y-41561800D02*
X67117800Y-40811800D01*
G75*
G02*
X67367800Y-40561800I250000J0D01*
G01*
X68117800Y-40561800D01*
G75*
G02*
X68367800Y-40811800I0J-250000D01*
G01*
X68367800Y-41561800D01*
G75*
G02*
X68117800Y-41811800I-250000J0D01*
G01*
X67367800Y-41811800D01*
G75*
G02*
X67117800Y-41561800I0J250000D01*
G01*
G37*
G04 #@! TD.AperFunction*
X69442800Y-38646800D03*
G04 #@! TA.AperFunction,ComponentPad*
G36*
G01*
X67117800Y-39021800D02*
X67117800Y-38271800D01*
G75*
G02*
X67367800Y-38021800I250000J0D01*
G01*
X68117800Y-38021800D01*
G75*
G02*
X68367800Y-38271800I0J-250000D01*
G01*
X68367800Y-39021800D01*
G75*
G02*
X68117800Y-39271800I-250000J0D01*
G01*
X67367800Y-39271800D01*
G75*
G02*
X67117800Y-39021800I0J250000D01*
G01*
G37*
G04 #@! TD.AperFunction*
X69442800Y-36106800D03*
G04 #@! TA.AperFunction,ComponentPad*
G36*
G01*
X67117800Y-36481800D02*
X67117800Y-35731800D01*
G75*
G02*
X67367800Y-35481800I250000J0D01*
G01*
X68117800Y-35481800D01*
G75*
G02*
X68367800Y-35731800I0J-250000D01*
G01*
X68367800Y-36481800D01*
G75*
G02*
X68117800Y-36731800I-250000J0D01*
G01*
X67367800Y-36731800D01*
G75*
G02*
X67117800Y-36481800I0J250000D01*
G01*
G37*
G04 #@! TD.AperFunction*
G04 #@! TA.AperFunction,ComponentPad*
G36*
G01*
X48517800Y-59341800D02*
X48517800Y-58591800D01*
G75*
G02*
X48767800Y-58341800I250000J0D01*
G01*
X49517800Y-58341800D01*
G75*
G02*
X49767800Y-58591800I0J-250000D01*
G01*
X49767800Y-59341800D01*
G75*
G02*
X49517800Y-59591800I-250000J0D01*
G01*
X48767800Y-59591800D01*
G75*
G02*
X48517800Y-59341800I0J250000D01*
G01*
G37*
G04 #@! TD.AperFunction*
X47442800Y-58966800D03*
G04 #@! TA.AperFunction,ComponentPad*
G36*
G01*
X48517800Y-56801800D02*
X48517800Y-56051800D01*
G75*
G02*
X48767800Y-55801800I250000J0D01*
G01*
X49517800Y-55801800D01*
G75*
G02*
X49767800Y-56051800I0J-250000D01*
G01*
X49767800Y-56801800D01*
G75*
G02*
X49517800Y-57051800I-250000J0D01*
G01*
X48767800Y-57051800D01*
G75*
G02*
X48517800Y-56801800I0J250000D01*
G01*
G37*
G04 #@! TD.AperFunction*
X47442800Y-56426800D03*
G04 #@! TA.AperFunction,ComponentPad*
G36*
G01*
X48517800Y-54261800D02*
X48517800Y-53511800D01*
G75*
G02*
X48767800Y-53261800I250000J0D01*
G01*
X49517800Y-53261800D01*
G75*
G02*
X49767800Y-53511800I0J-250000D01*
G01*
X49767800Y-54261800D01*
G75*
G02*
X49517800Y-54511800I-250000J0D01*
G01*
X48767800Y-54511800D01*
G75*
G02*
X48517800Y-54261800I0J250000D01*
G01*
G37*
G04 #@! TD.AperFunction*
X47442800Y-53886800D03*
G04 #@! TA.AperFunction,ComponentPad*
G36*
G01*
X48517800Y-51721800D02*
X48517800Y-50971800D01*
G75*
G02*
X48767800Y-50721800I250000J0D01*
G01*
X49517800Y-50721800D01*
G75*
G02*
X49767800Y-50971800I0J-250000D01*
G01*
X49767800Y-51721800D01*
G75*
G02*
X49517800Y-51971800I-250000J0D01*
G01*
X48767800Y-51971800D01*
G75*
G02*
X48517800Y-51721800I0J250000D01*
G01*
G37*
G04 #@! TD.AperFunction*
X47442800Y-51346800D03*
G04 #@! TA.AperFunction,ComponentPad*
G36*
G01*
X48517800Y-49181800D02*
X48517800Y-48431800D01*
G75*
G02*
X48767800Y-48181800I250000J0D01*
G01*
X49517800Y-48181800D01*
G75*
G02*
X49767800Y-48431800I0J-250000D01*
G01*
X49767800Y-49181800D01*
G75*
G02*
X49517800Y-49431800I-250000J0D01*
G01*
X48767800Y-49431800D01*
G75*
G02*
X48517800Y-49181800I0J250000D01*
G01*
G37*
G04 #@! TD.AperFunction*
X47442800Y-48806800D03*
G04 #@! TA.AperFunction,ComponentPad*
G36*
G01*
X48517800Y-46641800D02*
X48517800Y-45891800D01*
G75*
G02*
X48767800Y-45641800I250000J0D01*
G01*
X49517800Y-45641800D01*
G75*
G02*
X49767800Y-45891800I0J-250000D01*
G01*
X49767800Y-46641800D01*
G75*
G02*
X49517800Y-46891800I-250000J0D01*
G01*
X48767800Y-46891800D01*
G75*
G02*
X48517800Y-46641800I0J250000D01*
G01*
G37*
G04 #@! TD.AperFunction*
X47442800Y-46266800D03*
G04 #@! TA.AperFunction,ComponentPad*
G36*
G01*
X48517800Y-44101800D02*
X48517800Y-43351800D01*
G75*
G02*
X48767800Y-43101800I250000J0D01*
G01*
X49517800Y-43101800D01*
G75*
G02*
X49767800Y-43351800I0J-250000D01*
G01*
X49767800Y-44101800D01*
G75*
G02*
X49517800Y-44351800I-250000J0D01*
G01*
X48767800Y-44351800D01*
G75*
G02*
X48517800Y-44101800I0J250000D01*
G01*
G37*
G04 #@! TD.AperFunction*
X47442800Y-43726800D03*
G04 #@! TA.AperFunction,ComponentPad*
G36*
G01*
X48517800Y-41561800D02*
X48517800Y-40811800D01*
G75*
G02*
X48767800Y-40561800I250000J0D01*
G01*
X49517800Y-40561800D01*
G75*
G02*
X49767800Y-40811800I0J-250000D01*
G01*
X49767800Y-41561800D01*
G75*
G02*
X49517800Y-41811800I-250000J0D01*
G01*
X48767800Y-41811800D01*
G75*
G02*
X48517800Y-41561800I0J250000D01*
G01*
G37*
G04 #@! TD.AperFunction*
X47442800Y-41186800D03*
G04 #@! TA.AperFunction,ComponentPad*
G36*
G01*
X48517800Y-39021800D02*
X48517800Y-38271800D01*
G75*
G02*
X48767800Y-38021800I250000J0D01*
G01*
X49517800Y-38021800D01*
G75*
G02*
X49767800Y-38271800I0J-250000D01*
G01*
X49767800Y-39021800D01*
G75*
G02*
X49517800Y-39271800I-250000J0D01*
G01*
X48767800Y-39271800D01*
G75*
G02*
X48517800Y-39021800I0J250000D01*
G01*
G37*
G04 #@! TD.AperFunction*
X47442800Y-38646800D03*
G04 #@! TA.AperFunction,ComponentPad*
G36*
G01*
X48517800Y-36481800D02*
X48517800Y-35731800D01*
G75*
G02*
X48767800Y-35481800I250000J0D01*
G01*
X49517800Y-35481800D01*
G75*
G02*
X49767800Y-35731800I0J-250000D01*
G01*
X49767800Y-36481800D01*
G75*
G02*
X49517800Y-36731800I-250000J0D01*
G01*
X48767800Y-36731800D01*
G75*
G02*
X48517800Y-36481800I0J250000D01*
G01*
G37*
G04 #@! TD.AperFunction*
X47442800Y-36106800D03*
D17*
X52316000Y-51778600D03*
X63593600Y-50298200D03*
X63263400Y-51600800D03*
X52138200Y-52667600D03*
X51107420Y-41633380D03*
X63472200Y-49060800D03*
X63517400Y-45987400D03*
X65117600Y-37427600D03*
X63472200Y-47945480D03*
X63472200Y-47107400D03*
X52416400Y-43015600D03*
X64279480Y-53208975D03*
X64286884Y-52345080D03*
X64336204Y-51546601D03*
X52916000Y-50940400D03*
D18*
X51877400Y-56178200D02*
X51628800Y-56426800D01*
X51628800Y-56426800D02*
X48642800Y-56426800D01*
X51877400Y-51778200D02*
X52315600Y-51778200D01*
X52315600Y-51778200D02*
X52316000Y-51778600D01*
X49649000Y-58966800D02*
X48642800Y-58966800D01*
X61314600Y-57588200D02*
X51027600Y-57588200D01*
X48633000Y-58966800D02*
X48903000Y-58966800D01*
X51027600Y-57588200D02*
X49649000Y-58966800D01*
X64787400Y-46338200D02*
X63958560Y-46338200D01*
X63236800Y-46547400D02*
X62912200Y-46872000D01*
X63263400Y-51600800D02*
X63263400Y-55639400D01*
X63263400Y-55639400D02*
X61314600Y-57588200D01*
X63958560Y-46338200D02*
X63749360Y-46547400D01*
X62912200Y-46872000D02*
X62912200Y-49616800D01*
X62912200Y-49616800D02*
X63593600Y-50298200D01*
X63749360Y-46547400D02*
X63236800Y-46547400D01*
X49572800Y-53886800D02*
X48642800Y-53886800D01*
X50984200Y-55298200D02*
X49572800Y-53886800D01*
X51877400Y-55298200D02*
X50984200Y-55298200D01*
X51392200Y-52658200D02*
X51300000Y-52566000D01*
X51877400Y-52658200D02*
X51392200Y-52658200D01*
X52128800Y-52658200D02*
X52138200Y-52667600D01*
X51877400Y-52658200D02*
X52128800Y-52658200D01*
D19*
X51877400Y-49688200D02*
X52918000Y-49688200D01*
D18*
X64787400Y-47848200D02*
X63569480Y-47848200D01*
D19*
X53027200Y-47841600D02*
X53020600Y-47848200D01*
D18*
X63569480Y-47848200D02*
X63472200Y-47945480D01*
X64787400Y-47848200D02*
X64213000Y-47848200D01*
D19*
X51877400Y-47848200D02*
X53020600Y-47848200D01*
D20*
X65117600Y-36828606D02*
X65117600Y-37427600D01*
D18*
X64787400Y-49518000D02*
X64685800Y-49416400D01*
X64330200Y-49060800D02*
X63472200Y-49060800D01*
X64787400Y-47848200D02*
X64787400Y-49688200D01*
X51877400Y-43038200D02*
X51877400Y-42983400D01*
X51877400Y-42983400D02*
X51107420Y-42213420D01*
X64685800Y-49416400D02*
X64330200Y-49060800D01*
X51877400Y-42983400D02*
X51782600Y-42888600D01*
X52393800Y-43038200D02*
X52416400Y-43015600D01*
D20*
X65839406Y-36106800D02*
X65117600Y-36828606D01*
D18*
X64787400Y-49688200D02*
X64787400Y-49518000D01*
X51107420Y-42213420D02*
X51107420Y-41633380D01*
D20*
X68233000Y-36106800D02*
X65839406Y-36106800D01*
D18*
X64213000Y-47848200D02*
X63472200Y-47107400D01*
D19*
X52918000Y-49688200D02*
X52925600Y-49695800D01*
D18*
X51877400Y-43038200D02*
X52393800Y-43038200D01*
X48912800Y-36106800D02*
X53509800Y-40703800D01*
X48642800Y-36106800D02*
X48912800Y-36106800D01*
X53509800Y-40703800D02*
X53509800Y-44705800D01*
X53509800Y-44705800D02*
X51877400Y-46338200D01*
X63018000Y-50898200D02*
X62552200Y-50432400D01*
X62552200Y-50432400D02*
X62552200Y-40348600D01*
X64254000Y-38646800D02*
X68233000Y-38646800D01*
X62552200Y-40348600D02*
X64254000Y-38646800D01*
X64787400Y-50898200D02*
X63018000Y-50898200D01*
X64787400Y-53538200D02*
X64608705Y-53538200D01*
X64608705Y-53538200D02*
X64279480Y-53208975D01*
X64787400Y-56178200D02*
X65951400Y-56178200D01*
X65951400Y-56178200D02*
X68242800Y-53886800D01*
X50612800Y-53293600D02*
X50612800Y-50446800D01*
X51877400Y-53538200D02*
X50857400Y-53538200D01*
X50857400Y-53538200D02*
X50612800Y-53293600D01*
X50612800Y-50446800D02*
X48972800Y-48806800D01*
X48972800Y-48806800D02*
X48642800Y-48806800D01*
X64787400Y-52658200D02*
X64600004Y-52658200D01*
X64600004Y-52658200D02*
X64286884Y-52345080D01*
X66190800Y-54034800D02*
X66190800Y-50519000D01*
X64787400Y-54418200D02*
X65807400Y-54418200D01*
X67903000Y-48806800D02*
X68233000Y-48806800D01*
X66190800Y-50519000D02*
X67903000Y-48806800D01*
X65807400Y-54418200D02*
X66190800Y-54034800D01*
X66590800Y-51931000D02*
X67648800Y-51931000D01*
X67648800Y-51931000D02*
X68233000Y-51346800D01*
X66590800Y-54514800D02*
X66590800Y-51931000D01*
X64787400Y-55298200D02*
X65807400Y-55298200D01*
X65807400Y-55298200D02*
X66590800Y-54514800D01*
X52976400Y-43824200D02*
X52976400Y-42710400D01*
X52976400Y-42710400D02*
X48912800Y-38646800D01*
X51877400Y-44923200D02*
X52976400Y-43824200D01*
X48912800Y-38646800D02*
X48642800Y-38646800D01*
X64787400Y-51778200D02*
X65015600Y-51778200D01*
X64593603Y-51804000D02*
X64336204Y-51546601D01*
X65015600Y-51778200D02*
X65041400Y-51804000D01*
X65041400Y-51804000D02*
X64593603Y-51804000D01*
X50857400Y-54418200D02*
X50212800Y-53773600D01*
X51877400Y-54418200D02*
X50857400Y-54418200D01*
X48912800Y-51346800D02*
X48642800Y-51346800D01*
X50212800Y-52646800D02*
X48912800Y-51346800D01*
X50212800Y-53773600D02*
X50212800Y-52646800D01*
X51877400Y-50898200D02*
X51588000Y-50898200D01*
X51877400Y-50898200D02*
X52873800Y-50898200D01*
X52873800Y-50898200D02*
X52916000Y-50940400D01*
X51588000Y-50898200D02*
X51503200Y-50813400D01*
G04 #@! TA.AperFunction,Conductor*
G36*
X64004121Y-53966335D02*
G01*
X64005547Y-53966131D01*
X64035352Y-53974308D01*
X64045983Y-53978712D01*
X64092902Y-53988045D01*
X64137091Y-53996835D01*
X64199002Y-54029220D01*
X64233576Y-54089935D01*
X64236900Y-54118452D01*
X64236900Y-54139836D01*
X64229233Y-54178380D01*
X64229926Y-54178566D01*
X64186900Y-54339143D01*
X64186900Y-54497256D01*
X64229650Y-54656807D01*
X64231020Y-54658831D01*
X64235260Y-54686041D01*
X64236865Y-54693638D01*
X64236900Y-54695129D01*
X64236901Y-54816072D01*
X64240556Y-54850081D01*
X64240679Y-54855271D01*
X64240004Y-54857788D01*
X64240004Y-54871449D01*
X64236900Y-54900322D01*
X64236900Y-55019836D01*
X64229233Y-55058380D01*
X64229926Y-55058566D01*
X64203605Y-55156800D01*
X64186900Y-55219143D01*
X64186900Y-55377257D01*
X64189591Y-55387299D01*
X64229650Y-55536807D01*
X64231020Y-55538831D01*
X64235260Y-55566041D01*
X64236865Y-55573638D01*
X64236900Y-55575129D01*
X64236901Y-55696072D01*
X64240556Y-55730081D01*
X64240679Y-55735271D01*
X64240004Y-55737788D01*
X64240004Y-55751449D01*
X64236900Y-55780322D01*
X64236900Y-55899836D01*
X64229233Y-55938380D01*
X64229926Y-55938566D01*
X64211290Y-56008117D01*
X64186900Y-56099143D01*
X64186900Y-56257257D01*
X64204231Y-56321939D01*
X64229926Y-56417834D01*
X64229232Y-56418019D01*
X64236900Y-56456562D01*
X64236900Y-56576069D01*
X64236901Y-56576076D01*
X64243308Y-56635683D01*
X64293602Y-56770528D01*
X64293606Y-56770535D01*
X64379852Y-56885744D01*
X64379855Y-56885747D01*
X64495064Y-56971993D01*
X64495071Y-56971997D01*
X64629917Y-57022291D01*
X64629916Y-57022291D01*
X64636844Y-57023035D01*
X64689527Y-57028700D01*
X65785272Y-57028699D01*
X65844883Y-57022291D01*
X65979731Y-56971996D01*
X66094946Y-56885746D01*
X66181196Y-56770531D01*
X66181197Y-56770525D01*
X66185446Y-56762748D01*
X66186961Y-56763575D01*
X66222506Y-56716087D01*
X66234822Y-56707962D01*
X66320116Y-56658720D01*
X66431920Y-56546916D01*
X66431920Y-56546914D01*
X66442128Y-56536707D01*
X66442130Y-56536704D01*
X67693090Y-55285743D01*
X67754411Y-55252260D01*
X67824103Y-55257244D01*
X67855078Y-55274158D01*
X67930468Y-55330595D01*
X67930471Y-55330597D01*
X68065317Y-55380891D01*
X68065316Y-55380891D01*
X68072244Y-55381635D01*
X68124927Y-55387300D01*
X68818300Y-55387299D01*
X68885339Y-55406983D01*
X68931094Y-55459787D01*
X68942300Y-55511299D01*
X68942300Y-57342300D01*
X68922615Y-57409339D01*
X68869811Y-57455094D01*
X68818300Y-57466300D01*
X68124929Y-57466300D01*
X68124923Y-57466301D01*
X68065316Y-57472708D01*
X67930471Y-57523002D01*
X67930464Y-57523006D01*
X67815255Y-57609252D01*
X67815252Y-57609255D01*
X67729005Y-57724465D01*
X67715514Y-57760636D01*
X67673641Y-57816569D01*
X67608176Y-57840984D01*
X67599333Y-57841300D01*
X67317799Y-57841300D01*
X67317780Y-57841301D01*
X67215003Y-57851800D01*
X67215000Y-57851801D01*
X67048468Y-57906985D01*
X67048463Y-57906987D01*
X66899142Y-57999089D01*
X66775089Y-58123142D01*
X66682987Y-58272463D01*
X66682986Y-58272466D01*
X66627801Y-58439003D01*
X66627801Y-58439004D01*
X66627800Y-58439004D01*
X66617300Y-58541783D01*
X66617300Y-59391801D01*
X66617301Y-59391819D01*
X66627800Y-59494596D01*
X66627801Y-59494599D01*
X66653879Y-59573296D01*
X66656281Y-59643124D01*
X66620549Y-59703166D01*
X66558029Y-59734359D01*
X66536173Y-59736300D01*
X66052979Y-59736300D01*
X65985940Y-59716615D01*
X65940185Y-59663811D01*
X65930241Y-59594653D01*
X65934594Y-59575409D01*
X65946244Y-59538020D01*
X65952399Y-59470283D01*
X65952399Y-58066752D01*
X65952398Y-58066751D01*
X65191856Y-58827294D01*
X65130533Y-58860779D01*
X65060841Y-58855795D01*
X65016494Y-58827294D01*
X64987400Y-58798200D01*
X64987400Y-58324648D01*
X65741228Y-57570820D01*
X65697785Y-57527377D01*
X65697780Y-57527373D01*
X65558081Y-57442923D01*
X65558074Y-57442920D01*
X65402221Y-57394355D01*
X65402223Y-57394355D01*
X65334483Y-57388200D01*
X64520305Y-57388200D01*
X64452585Y-57394353D01*
X64452578Y-57394355D01*
X64296725Y-57442920D01*
X64296718Y-57442923D01*
X64157019Y-57527373D01*
X64157014Y-57527377D01*
X64113572Y-57570820D01*
X64667754Y-58125002D01*
X64617848Y-58174909D01*
X64587400Y-58248418D01*
X64587400Y-58751752D01*
X63902400Y-58066752D01*
X63902400Y-59470294D01*
X63908553Y-59538014D01*
X63908554Y-59538018D01*
X63920206Y-59575409D01*
X63921358Y-59645269D01*
X63884557Y-59704662D01*
X63821488Y-59734730D01*
X63801821Y-59736300D01*
X52862979Y-59736300D01*
X52795940Y-59716615D01*
X52750185Y-59663811D01*
X52740241Y-59594653D01*
X52744594Y-59575409D01*
X52756244Y-59538020D01*
X52762399Y-59470283D01*
X52762399Y-58312700D01*
X52782084Y-58245661D01*
X52834887Y-58199906D01*
X52886399Y-58188700D01*
X61227931Y-58188700D01*
X61227947Y-58188701D01*
X61235543Y-58188701D01*
X61393654Y-58188701D01*
X61393657Y-58188701D01*
X61546385Y-58147777D01*
X61596504Y-58118839D01*
X61683316Y-58068720D01*
X61795120Y-57956916D01*
X61795120Y-57956914D01*
X61805328Y-57946707D01*
X61805330Y-57946704D01*
X63621906Y-56130128D01*
X63621911Y-56130124D01*
X63632114Y-56119920D01*
X63632116Y-56119920D01*
X63743920Y-56008116D01*
X63822977Y-55871184D01*
X63860146Y-55732466D01*
X63863900Y-55718458D01*
X63863900Y-55560343D01*
X63863900Y-54088869D01*
X63873145Y-54057383D01*
X63881261Y-54025592D01*
X63882939Y-54024029D01*
X63883585Y-54021830D01*
X63908379Y-54000345D01*
X63932400Y-53977983D01*
X63934656Y-53977575D01*
X63936389Y-53976075D01*
X63968865Y-53971405D01*
X64001160Y-53965580D01*
X64004121Y-53966335D01*
G37*
G04 #@! TD.AperFunction*
G04 #@! TA.AperFunction,Conductor*
G36*
X66564023Y-35345323D02*
G01*
X66592058Y-35350343D01*
X66597116Y-35355040D01*
X66603739Y-35356985D01*
X66622386Y-35378504D01*
X66643258Y-35397886D01*
X66644974Y-35404572D01*
X66649494Y-35409789D01*
X66653546Y-35437974D01*
X66660627Y-35465562D01*
X66658900Y-35475206D01*
X66659438Y-35478947D01*
X66654406Y-35500304D01*
X66628294Y-35579102D01*
X66628293Y-35579109D01*
X66617800Y-35681813D01*
X66617800Y-36531771D01*
X66617801Y-36531787D01*
X66628294Y-36634497D01*
X66683441Y-36800919D01*
X66683443Y-36800924D01*
X66687899Y-36808147D01*
X67367800Y-36128246D01*
X67367800Y-36156170D01*
X67393356Y-36251545D01*
X67442725Y-36337055D01*
X67512545Y-36406875D01*
X67598055Y-36456244D01*
X67693430Y-36481800D01*
X67721350Y-36481800D01*
X67041450Y-37161700D01*
X67048675Y-37166157D01*
X67215102Y-37221305D01*
X67215109Y-37221306D01*
X67317819Y-37231799D01*
X67599679Y-37231799D01*
X67620925Y-37238037D01*
X67643009Y-37239616D01*
X67653792Y-37247687D01*
X67666718Y-37251483D01*
X67681218Y-37268217D01*
X67698944Y-37281486D01*
X67709557Y-37300922D01*
X67712473Y-37304287D01*
X67715859Y-37312462D01*
X67723426Y-37332748D01*
X67728413Y-37402439D01*
X67723427Y-37419420D01*
X67715514Y-37440635D01*
X67673643Y-37496568D01*
X67608178Y-37520984D01*
X67599333Y-37521300D01*
X67317799Y-37521300D01*
X67317780Y-37521301D01*
X67215003Y-37531800D01*
X67215000Y-37531801D01*
X67048468Y-37586985D01*
X67048463Y-37586987D01*
X66899142Y-37679089D01*
X66775089Y-37803142D01*
X66682985Y-37952467D01*
X66680056Y-37961307D01*
X66640282Y-38018751D01*
X66575765Y-38045572D01*
X66562351Y-38046300D01*
X64340670Y-38046300D01*
X64340654Y-38046299D01*
X64333058Y-38046299D01*
X64174943Y-38046299D01*
X64098579Y-38066761D01*
X64022214Y-38087223D01*
X64022209Y-38087226D01*
X63885290Y-38166275D01*
X63885282Y-38166281D01*
X62071679Y-39979884D01*
X62052187Y-40013645D01*
X62043949Y-40027916D01*
X61992623Y-40116815D01*
X61951699Y-40269543D01*
X61951699Y-40269545D01*
X61951699Y-40437646D01*
X61951700Y-40437659D01*
X61951700Y-50345730D01*
X61951699Y-50345748D01*
X61951699Y-50511454D01*
X61951698Y-50511454D01*
X61951699Y-50511457D01*
X61992623Y-50664185D01*
X61992624Y-50664186D01*
X62008332Y-50691395D01*
X62008333Y-50691396D01*
X62071675Y-50801109D01*
X62071681Y-50801117D01*
X62477312Y-51206748D01*
X62510797Y-51268071D01*
X62505813Y-51337763D01*
X62504194Y-51341878D01*
X62493662Y-51367306D01*
X62493660Y-51367311D01*
X62462900Y-51521953D01*
X62462900Y-51679646D01*
X62493661Y-51834289D01*
X62493664Y-51834301D01*
X62554002Y-51979972D01*
X62554009Y-51979985D01*
X62642002Y-52111674D01*
X62662880Y-52178351D01*
X62662900Y-52180565D01*
X62662900Y-55339303D01*
X62643215Y-55406342D01*
X62626581Y-55426984D01*
X61102184Y-56951381D01*
X61040861Y-56984866D01*
X61014503Y-56987700D01*
X52456346Y-56987700D01*
X52389307Y-56968015D01*
X52343552Y-56915211D01*
X52333608Y-56846053D01*
X52357079Y-56789389D01*
X52358445Y-56787563D01*
X52371196Y-56770531D01*
X52421491Y-56635683D01*
X52427900Y-56576073D01*
X52427899Y-56456563D01*
X52435566Y-56418023D01*
X52434872Y-56417837D01*
X52436976Y-56409984D01*
X52477900Y-56257258D01*
X52477900Y-56099143D01*
X52436976Y-55946416D01*
X52436974Y-55946413D01*
X52435146Y-55939590D01*
X52433779Y-55937569D01*
X52429540Y-55910369D01*
X52427934Y-55902763D01*
X52427899Y-55901280D01*
X52427899Y-55780328D01*
X52424241Y-55746305D01*
X52424119Y-55741124D01*
X52424795Y-55738603D01*
X52424795Y-55724948D01*
X52427900Y-55696073D01*
X52427899Y-55576563D01*
X52435567Y-55538021D01*
X52434873Y-55537836D01*
X52436977Y-55529984D01*
X52477900Y-55377257D01*
X52477900Y-55219143D01*
X52436977Y-55066416D01*
X52436975Y-55066412D01*
X52435147Y-55059590D01*
X52433779Y-55057567D01*
X52429540Y-55030366D01*
X52427934Y-55022761D01*
X52427899Y-55021278D01*
X52427899Y-54900328D01*
X52424241Y-54866305D01*
X52424119Y-54861124D01*
X52424795Y-54858603D01*
X52424795Y-54844948D01*
X52427900Y-54816073D01*
X52427899Y-54696563D01*
X52435567Y-54658021D01*
X52434873Y-54657836D01*
X52436977Y-54649984D01*
X52477900Y-54497257D01*
X52477900Y-54339143D01*
X52436977Y-54186416D01*
X52436975Y-54186412D01*
X52435147Y-54179590D01*
X52433779Y-54177567D01*
X52429540Y-54150366D01*
X52427934Y-54142761D01*
X52427899Y-54141278D01*
X52427899Y-54020328D01*
X52424241Y-53986305D01*
X52424119Y-53981124D01*
X52424795Y-53978603D01*
X52424795Y-53964948D01*
X52427900Y-53936073D01*
X52427899Y-53816563D01*
X52435567Y-53778021D01*
X52434873Y-53777836D01*
X52436977Y-53769984D01*
X52477900Y-53617257D01*
X52477900Y-53469652D01*
X52497585Y-53402613D01*
X52533010Y-53366550D01*
X52588197Y-53329674D01*
X52648489Y-53289389D01*
X52759989Y-53177889D01*
X52847594Y-53046779D01*
X52907937Y-52901097D01*
X52938700Y-52746442D01*
X52938700Y-52588758D01*
X52938700Y-52588755D01*
X52938699Y-52588753D01*
X52927311Y-52531501D01*
X52907937Y-52434103D01*
X52905857Y-52429083D01*
X52898384Y-52359617D01*
X52929654Y-52297135D01*
X52932685Y-52293992D01*
X52937789Y-52288889D01*
X53025394Y-52157779D01*
X53085737Y-52012097D01*
X53116500Y-51857442D01*
X53116500Y-51806659D01*
X53136185Y-51739620D01*
X53188989Y-51693865D01*
X53193048Y-51692098D01*
X53295172Y-51649797D01*
X53295172Y-51649796D01*
X53295179Y-51649794D01*
X53426289Y-51562189D01*
X53537789Y-51450689D01*
X53625394Y-51319579D01*
X53685737Y-51173897D01*
X53716500Y-51019242D01*
X53716500Y-50861558D01*
X53716500Y-50861555D01*
X53716499Y-50861553D01*
X53685738Y-50706910D01*
X53685737Y-50706903D01*
X53679314Y-50691396D01*
X53625397Y-50561227D01*
X53625390Y-50561214D01*
X53537789Y-50430111D01*
X53537786Y-50430107D01*
X53426292Y-50318613D01*
X53426288Y-50318610D01*
X53295185Y-50231009D01*
X53295172Y-50231002D01*
X53149501Y-50170664D01*
X53149489Y-50170661D01*
X52994845Y-50139900D01*
X52994842Y-50139900D01*
X52837158Y-50139900D01*
X52837155Y-50139900D01*
X52682510Y-50170661D01*
X52682503Y-50170663D01*
X52598851Y-50205312D01*
X52529382Y-50212780D01*
X52466903Y-50181504D01*
X52431251Y-50121415D01*
X52427400Y-50090750D01*
X52427400Y-49108200D01*
X52416636Y-49103741D01*
X52388843Y-49118918D01*
X52362485Y-49121752D01*
X52347400Y-49121752D01*
X51691857Y-49777295D01*
X51630534Y-49810780D01*
X51560842Y-49805796D01*
X51516495Y-49777295D01*
X51338305Y-49599105D01*
X51304820Y-49537782D01*
X51309804Y-49468090D01*
X51338305Y-49423743D01*
X51993848Y-48768200D01*
X51338305Y-48112657D01*
X51304820Y-48051334D01*
X51309804Y-47981642D01*
X51338305Y-47937295D01*
X51427400Y-47848200D01*
X51338304Y-47759104D01*
X51304819Y-47697781D01*
X51309803Y-47628089D01*
X51338304Y-47583742D01*
X51697029Y-47225018D01*
X51758352Y-47191533D01*
X51784708Y-47188699D01*
X51975272Y-47188699D01*
X52034883Y-47182291D01*
X52157846Y-47136428D01*
X52227535Y-47131445D01*
X52288858Y-47164930D01*
X52322343Y-47226253D01*
X52317359Y-47295944D01*
X52288858Y-47340292D01*
X51780952Y-47848199D01*
X51780952Y-47848200D01*
X52347400Y-48414648D01*
X52362485Y-48414648D01*
X52419616Y-48431423D01*
X52427400Y-48428199D01*
X52427400Y-47201752D01*
X52376993Y-47180873D01*
X52322590Y-47137032D01*
X52300525Y-47070738D01*
X52317804Y-47003039D01*
X52325180Y-46992001D01*
X52371193Y-46930535D01*
X52371192Y-46930535D01*
X52371196Y-46930531D01*
X52421491Y-46795683D01*
X52427900Y-46736073D01*
X52427899Y-46688296D01*
X52447582Y-46621259D01*
X52464213Y-46600620D01*
X53868306Y-45196528D01*
X53868311Y-45196524D01*
X53878514Y-45186320D01*
X53878516Y-45186320D01*
X53990320Y-45074516D01*
X54046447Y-44977300D01*
X54069377Y-44937585D01*
X54110300Y-44784858D01*
X54110300Y-44626743D01*
X54110300Y-40792860D01*
X54110301Y-40792847D01*
X54110301Y-40624744D01*
X54074857Y-40492468D01*
X54069377Y-40472016D01*
X54043767Y-40427657D01*
X53990324Y-40335090D01*
X53990318Y-40335082D01*
X52153338Y-38498102D01*
X50302432Y-36647197D01*
X50268948Y-36585875D01*
X50266757Y-36546908D01*
X50268299Y-36531820D01*
X50268299Y-36531818D01*
X50268300Y-36531809D01*
X50268299Y-35681792D01*
X50257799Y-35579003D01*
X50257318Y-35577553D01*
X50231721Y-35500304D01*
X50229319Y-35430476D01*
X50265051Y-35370434D01*
X50327571Y-35339241D01*
X50349427Y-35337300D01*
X66536700Y-35337300D01*
X66564023Y-35345323D01*
G37*
G04 #@! TD.AperFunction*
G04 #@! TA.AperFunction,Conductor*
G36*
X66585727Y-39254164D02*
G01*
X66609951Y-39256800D01*
X66618655Y-39263832D01*
X66629390Y-39266985D01*
X66645343Y-39285396D01*
X66664298Y-39300711D01*
X66672014Y-39316176D01*
X66675145Y-39319789D01*
X66680056Y-39332293D01*
X66682986Y-39341134D01*
X66775088Y-39490456D01*
X66899144Y-39614512D01*
X67048466Y-39706614D01*
X67215003Y-39761799D01*
X67317791Y-39772300D01*
X67599333Y-39772299D01*
X67620579Y-39778537D01*
X67642662Y-39780116D01*
X67653444Y-39788187D01*
X67666372Y-39791983D01*
X67680873Y-39808718D01*
X67698597Y-39821985D01*
X67709212Y-39841423D01*
X67712127Y-39844787D01*
X67715513Y-39852961D01*
X67723160Y-39873462D01*
X67728147Y-39943152D01*
X67723161Y-39960135D01*
X67715514Y-39980636D01*
X67673641Y-40036569D01*
X67608176Y-40060984D01*
X67599333Y-40061300D01*
X67317799Y-40061300D01*
X67317780Y-40061301D01*
X67215003Y-40071800D01*
X67215000Y-40071801D01*
X67048468Y-40126985D01*
X67048463Y-40126987D01*
X66899142Y-40219089D01*
X66775089Y-40343142D01*
X66682987Y-40492463D01*
X66682986Y-40492466D01*
X66627801Y-40659003D01*
X66627801Y-40659004D01*
X66627800Y-40659004D01*
X66617300Y-40761783D01*
X66617300Y-41611801D01*
X66617301Y-41611819D01*
X66627800Y-41714596D01*
X66627801Y-41714599D01*
X66649809Y-41781013D01*
X66682986Y-41881134D01*
X66775088Y-42030456D01*
X66899144Y-42154512D01*
X67048466Y-42246614D01*
X67215003Y-42301799D01*
X67317791Y-42312300D01*
X67599333Y-42312299D01*
X67620579Y-42318537D01*
X67642662Y-42320116D01*
X67653444Y-42328187D01*
X67666372Y-42331983D01*
X67680873Y-42348718D01*
X67698597Y-42361985D01*
X67709212Y-42381423D01*
X67712127Y-42384787D01*
X67715513Y-42392961D01*
X67723160Y-42413462D01*
X67728147Y-42483152D01*
X67723161Y-42500135D01*
X67715514Y-42520636D01*
X67673641Y-42576569D01*
X67608176Y-42600984D01*
X67599333Y-42601300D01*
X67317799Y-42601300D01*
X67317780Y-42601301D01*
X67215003Y-42611800D01*
X67215000Y-42611801D01*
X67048468Y-42666985D01*
X67048463Y-42666987D01*
X66899142Y-42759089D01*
X66775089Y-42883142D01*
X66682987Y-43032463D01*
X66682986Y-43032466D01*
X66627801Y-43199003D01*
X66627801Y-43199004D01*
X66627800Y-43199004D01*
X66617300Y-43301783D01*
X66617300Y-44151801D01*
X66617301Y-44151819D01*
X66627800Y-44254596D01*
X66627801Y-44254599D01*
X66682985Y-44421131D01*
X66682987Y-44421136D01*
X66693512Y-44438199D01*
X66775088Y-44570456D01*
X66899144Y-44694512D01*
X67048466Y-44786614D01*
X67215003Y-44841799D01*
X67317791Y-44852300D01*
X67599333Y-44852299D01*
X67620579Y-44858537D01*
X67642662Y-44860116D01*
X67653444Y-44868187D01*
X67666372Y-44871983D01*
X67680873Y-44888718D01*
X67698597Y-44901985D01*
X67709212Y-44921423D01*
X67712127Y-44924787D01*
X67715513Y-44932961D01*
X67723160Y-44953462D01*
X67728147Y-45023152D01*
X67723161Y-45040135D01*
X67715514Y-45060636D01*
X67673641Y-45116569D01*
X67608176Y-45140984D01*
X67599333Y-45141300D01*
X67317799Y-45141300D01*
X67317780Y-45141301D01*
X67215003Y-45151800D01*
X67215000Y-45151801D01*
X67048468Y-45206985D01*
X67048463Y-45206987D01*
X66899142Y-45299089D01*
X66775089Y-45423142D01*
X66682987Y-45572463D01*
X66682986Y-45572466D01*
X66627801Y-45739003D01*
X66627801Y-45739004D01*
X66627800Y-45739004D01*
X66617300Y-45841783D01*
X66617300Y-46691801D01*
X66617301Y-46691819D01*
X66627800Y-46794596D01*
X66627801Y-46794599D01*
X66666337Y-46910892D01*
X66682986Y-46961134D01*
X66775088Y-47110456D01*
X66899144Y-47234512D01*
X67048466Y-47326614D01*
X67215003Y-47381799D01*
X67317791Y-47392300D01*
X67599333Y-47392299D01*
X67620579Y-47398537D01*
X67642662Y-47400116D01*
X67653444Y-47408187D01*
X67666372Y-47411983D01*
X67680873Y-47428718D01*
X67698597Y-47441985D01*
X67709212Y-47461423D01*
X67712127Y-47464787D01*
X67715513Y-47472961D01*
X67723160Y-47493462D01*
X67728147Y-47563152D01*
X67723161Y-47580133D01*
X67720650Y-47586865D01*
X67715514Y-47600636D01*
X67673641Y-47656569D01*
X67608176Y-47680984D01*
X67599333Y-47681300D01*
X67317799Y-47681300D01*
X67317780Y-47681301D01*
X67215003Y-47691800D01*
X67215000Y-47691801D01*
X67048468Y-47746985D01*
X67048463Y-47746987D01*
X66899142Y-47839089D01*
X66775089Y-47963142D01*
X66682987Y-48112463D01*
X66682985Y-48112468D01*
X66676057Y-48133376D01*
X66627801Y-48279003D01*
X66627801Y-48279004D01*
X66627800Y-48279004D01*
X66617300Y-48381783D01*
X66617300Y-49191901D01*
X66608654Y-49221344D01*
X66602132Y-49251327D01*
X66598377Y-49256342D01*
X66597615Y-49258940D01*
X66580982Y-49279582D01*
X66449079Y-49411484D01*
X66387759Y-49444968D01*
X66318067Y-49439984D01*
X66262133Y-49398113D01*
X66237716Y-49332649D01*
X66237400Y-49323802D01*
X66237400Y-49108200D01*
X66226636Y-49103741D01*
X66198843Y-49118918D01*
X66172485Y-49121752D01*
X66157400Y-49121752D01*
X65501857Y-49777295D01*
X65440534Y-49810780D01*
X65370842Y-49805796D01*
X65326495Y-49777295D01*
X65237400Y-49688200D01*
X65148305Y-49777295D01*
X65086982Y-49810780D01*
X65017290Y-49805796D01*
X64972943Y-49777295D01*
X64317400Y-49121752D01*
X64302315Y-49121752D01*
X64245183Y-49104976D01*
X64237400Y-49108200D01*
X64237400Y-49533632D01*
X64217715Y-49600671D01*
X64164911Y-49646426D01*
X64095753Y-49656370D01*
X64044509Y-49636734D01*
X63972785Y-49588809D01*
X63972772Y-49588802D01*
X63827101Y-49528464D01*
X63827091Y-49528461D01*
X63671749Y-49497561D01*
X63654992Y-49488795D01*
X63636514Y-49484776D01*
X63611477Y-49466033D01*
X63609838Y-49465176D01*
X63608260Y-49463625D01*
X63549019Y-49404384D01*
X63515534Y-49343061D01*
X63512700Y-49316703D01*
X63512700Y-48768200D01*
X64670952Y-48768200D01*
X65237400Y-49334648D01*
X65803848Y-48768200D01*
X65237400Y-48201752D01*
X64670952Y-48768200D01*
X63512700Y-48768200D01*
X63512700Y-47271900D01*
X63515250Y-47263214D01*
X63513962Y-47254253D01*
X63524940Y-47230212D01*
X63532385Y-47204861D01*
X63539225Y-47198933D01*
X63542987Y-47190697D01*
X63565221Y-47176407D01*
X63585189Y-47159106D01*
X63595703Y-47156818D01*
X63601765Y-47152923D01*
X63636700Y-47147900D01*
X63662691Y-47147900D01*
X63662707Y-47147901D01*
X63670303Y-47147901D01*
X63828414Y-47147901D01*
X63828417Y-47147901D01*
X63981145Y-47106977D01*
X64031264Y-47078039D01*
X64051400Y-47066413D01*
X64119299Y-47049940D01*
X64185326Y-47072792D01*
X64228517Y-47127712D01*
X64237400Y-47173800D01*
X64237400Y-48428199D01*
X64248163Y-48432658D01*
X64275957Y-48417482D01*
X64302315Y-48414648D01*
X64317400Y-48414648D01*
X65060624Y-47671424D01*
X65507029Y-47225018D01*
X65568352Y-47191533D01*
X65594708Y-47188699D01*
X65785272Y-47188699D01*
X65844883Y-47182291D01*
X65967846Y-47136428D01*
X66037535Y-47131445D01*
X66098858Y-47164930D01*
X66132343Y-47226253D01*
X66127359Y-47295944D01*
X66098858Y-47340292D01*
X65590952Y-47848199D01*
X65590952Y-47848200D01*
X66157400Y-48414648D01*
X66172485Y-48414648D01*
X66229616Y-48431423D01*
X66237400Y-48428199D01*
X66237400Y-47201752D01*
X66186993Y-47180873D01*
X66132590Y-47137032D01*
X66110525Y-47070738D01*
X66127804Y-47003039D01*
X66135180Y-46992001D01*
X66181193Y-46930535D01*
X66181192Y-46930535D01*
X66181196Y-46930531D01*
X66231491Y-46795683D01*
X66237900Y-46736073D01*
X66237899Y-45940328D01*
X66231491Y-45880717D01*
X66209926Y-45822899D01*
X66181196Y-45745869D01*
X66181193Y-45745864D01*
X66094947Y-45630655D01*
X66094944Y-45630652D01*
X65979735Y-45544406D01*
X65979728Y-45544402D01*
X65844882Y-45494108D01*
X65844883Y-45494108D01*
X65785283Y-45487701D01*
X65785281Y-45487700D01*
X65785273Y-45487700D01*
X65785264Y-45487700D01*
X64689529Y-45487700D01*
X64689523Y-45487701D01*
X64629916Y-45494108D01*
X64495071Y-45544402D01*
X64495064Y-45544406D01*
X64379857Y-45630651D01*
X64379851Y-45630657D01*
X64336915Y-45688012D01*
X64280981Y-45729882D01*
X64237649Y-45737700D01*
X63879499Y-45737700D01*
X63849014Y-45745868D01*
X63849015Y-45745869D01*
X63726774Y-45778623D01*
X63726769Y-45778626D01*
X63589850Y-45857675D01*
X63589842Y-45857681D01*
X63536943Y-45910581D01*
X63510015Y-45925284D01*
X63484197Y-45941877D01*
X63477996Y-45942768D01*
X63475620Y-45944066D01*
X63449262Y-45946900D01*
X63323470Y-45946900D01*
X63323454Y-45946899D01*
X63315858Y-45946899D01*
X63276700Y-45946899D01*
X63209661Y-45927214D01*
X63163906Y-45874410D01*
X63152700Y-45822899D01*
X63152700Y-44268825D01*
X64360325Y-44268825D01*
X64360325Y-44268826D01*
X64380207Y-44295384D01*
X64380214Y-44295391D01*
X64495306Y-44381550D01*
X64495313Y-44381554D01*
X64630020Y-44431796D01*
X64630027Y-44431798D01*
X64689555Y-44438199D01*
X64689572Y-44438200D01*
X65785228Y-44438200D01*
X65785244Y-44438199D01*
X65844772Y-44431798D01*
X65844779Y-44431796D01*
X65979486Y-44381554D01*
X65979488Y-44381552D01*
X66094586Y-44295390D01*
X66094587Y-44295389D01*
X66114473Y-44268825D01*
X65237400Y-43391752D01*
X64360325Y-44268825D01*
X63152700Y-44268825D01*
X63152700Y-43684648D01*
X64237400Y-43684648D01*
X64883848Y-43038200D01*
X64883848Y-43038199D01*
X65590952Y-43038199D01*
X65590952Y-43038200D01*
X66237399Y-43684648D01*
X66237400Y-43684647D01*
X66237400Y-42391752D01*
X66237399Y-42391751D01*
X65590952Y-43038199D01*
X64883848Y-43038199D01*
X64237400Y-42391751D01*
X64237400Y-43684648D01*
X63152700Y-43684648D01*
X63152700Y-41807573D01*
X64360324Y-41807573D01*
X65237400Y-42684648D01*
X65237401Y-42684648D01*
X66114473Y-41807573D01*
X66114473Y-41807572D01*
X66094591Y-41781013D01*
X66094585Y-41781008D01*
X65979493Y-41694849D01*
X65979486Y-41694845D01*
X65844779Y-41644603D01*
X65844772Y-41644601D01*
X65785244Y-41638200D01*
X64689555Y-41638200D01*
X64630027Y-41644601D01*
X64630020Y-41644603D01*
X64495313Y-41694845D01*
X64495306Y-41694849D01*
X64380215Y-41781007D01*
X64380209Y-41781012D01*
X64360324Y-41807573D01*
X63152700Y-41807573D01*
X63152700Y-40648697D01*
X63172385Y-40581658D01*
X63189019Y-40561016D01*
X64466417Y-39283619D01*
X64527740Y-39250134D01*
X64554098Y-39247300D01*
X66562351Y-39247300D01*
X66585727Y-39254164D01*
G37*
G04 #@! TD.AperFunction*
G04 #@! TA.AperFunction,Conductor*
G36*
X50473502Y-41057183D02*
G01*
X50479980Y-41063215D01*
X50859369Y-41442604D01*
X50892854Y-41503927D01*
X50887870Y-41573619D01*
X50845998Y-41629552D01*
X50815022Y-41646467D01*
X50685311Y-41694846D01*
X50685306Y-41694849D01*
X50570215Y-41781007D01*
X50570209Y-41781012D01*
X50550324Y-41807573D01*
X51516494Y-42773743D01*
X51549979Y-42835066D01*
X51544995Y-42904758D01*
X51516495Y-42949105D01*
X51427400Y-43038200D01*
X51516494Y-43127294D01*
X51549979Y-43188617D01*
X51544995Y-43258309D01*
X51516494Y-43302656D01*
X50550325Y-44268825D01*
X50550325Y-44268826D01*
X50570207Y-44295384D01*
X50570210Y-44295387D01*
X50594889Y-44313862D01*
X50636760Y-44369796D01*
X50641744Y-44439487D01*
X50636762Y-44456458D01*
X50633308Y-44465717D01*
X50626901Y-44525316D01*
X50626900Y-44525335D01*
X50626900Y-45321070D01*
X50626901Y-45321076D01*
X50633309Y-45380685D01*
X50659903Y-45451989D01*
X50664887Y-45521681D01*
X50631401Y-45583003D01*
X50618033Y-45594587D01*
X50569852Y-45630655D01*
X50483603Y-45745868D01*
X50481261Y-45750158D01*
X50431852Y-45799561D01*
X50363579Y-45814409D01*
X50298116Y-45789988D01*
X50256248Y-45734052D01*
X50254726Y-45729729D01*
X50240902Y-45688012D01*
X50202614Y-45572466D01*
X50110512Y-45423144D01*
X49986456Y-45299088D01*
X49837134Y-45206986D01*
X49670597Y-45151801D01*
X49670595Y-45151800D01*
X49567816Y-45141300D01*
X49567809Y-45141300D01*
X49286266Y-45141300D01*
X49265020Y-45135061D01*
X49242932Y-45133482D01*
X49232148Y-45125409D01*
X49219227Y-45121615D01*
X49204727Y-45104881D01*
X49186999Y-45091610D01*
X49176385Y-45072173D01*
X49173472Y-45068811D01*
X49170084Y-45060633D01*
X49162438Y-45040133D01*
X49157454Y-44970441D01*
X49162439Y-44953464D01*
X49170086Y-44932963D01*
X49211959Y-44877030D01*
X49277424Y-44852615D01*
X49286267Y-44852299D01*
X49567802Y-44852299D01*
X49567808Y-44852299D01*
X49670597Y-44841799D01*
X49837134Y-44786614D01*
X49986456Y-44694512D01*
X50110512Y-44570456D01*
X50202614Y-44421134D01*
X50257799Y-44254597D01*
X50268300Y-44151809D01*
X50268299Y-43804322D01*
X50287983Y-43737286D01*
X50340787Y-43691531D01*
X50409946Y-43681587D01*
X50426045Y-43686003D01*
X51073848Y-43038200D01*
X51073848Y-43038199D01*
X50427400Y-42391751D01*
X50427400Y-42959663D01*
X50407715Y-43026702D01*
X50354911Y-43072457D01*
X50285753Y-43082401D01*
X50222197Y-43053376D01*
X50197861Y-43024760D01*
X50157383Y-42959135D01*
X50110512Y-42883144D01*
X49986456Y-42759088D01*
X49837134Y-42666986D01*
X49670597Y-42611801D01*
X49670595Y-42611800D01*
X49567816Y-42601300D01*
X49567809Y-42601300D01*
X49286266Y-42601300D01*
X49265020Y-42595061D01*
X49242932Y-42593482D01*
X49232148Y-42585409D01*
X49219227Y-42581615D01*
X49204727Y-42564881D01*
X49186999Y-42551610D01*
X49176385Y-42532173D01*
X49173472Y-42528811D01*
X49170084Y-42520633D01*
X49162438Y-42500133D01*
X49157454Y-42430441D01*
X49162439Y-42413464D01*
X49170086Y-42392963D01*
X49211959Y-42337030D01*
X49277424Y-42312615D01*
X49286267Y-42312299D01*
X49567802Y-42312299D01*
X49567808Y-42312299D01*
X49670597Y-42301799D01*
X49837134Y-42246614D01*
X49986456Y-42154512D01*
X50110512Y-42030456D01*
X50202614Y-41881134D01*
X50257799Y-41714597D01*
X50268300Y-41611809D01*
X50268299Y-41150894D01*
X50287983Y-41083857D01*
X50340787Y-41038102D01*
X50409946Y-41028158D01*
X50473502Y-41057183D01*
G37*
G04 #@! TD.AperFunction*
M02*
