G04 #@! TF.GenerationSoftware,KiCad,Pcbnew,9.0.1+1*
G04 #@! TF.CreationDate,2025-11-11T14:39:45+00:00*
G04 #@! TF.ProjectId,lcd-panel,6c63642d-7061-46e6-956c-2e6b69636164,rev?*
G04 #@! TF.SameCoordinates,Original*
G04 #@! TF.FileFunction,Soldermask,Bot*
G04 #@! TF.FilePolarity,Negative*
%FSLAX46Y46*%
G04 Gerber Fmt 4.6, Leading zero omitted, Abs format (unit mm)*
G04 Created by KiCad (PCBNEW 9.0.1+1) date 2025-11-11 14:39:45*
%MOMM*%
%LPD*%
G01*
G04 APERTURE LIST*
%ADD10R,2.540000X2.000000*%
%ADD11C,0.500000*%
G04 APERTURE END LIST*
D10*
X88400000Y-51440000D03*
G36*
G01*
X90725000Y-51065000D02*
X90725000Y-51815000D01*
G75*
G02*
X90475000Y-52065000I-250000J0D01*
G01*
X89725000Y-52065000D01*
G75*
G02*
X89475000Y-51815000I0J250000D01*
G01*
X89475000Y-51065000D01*
G75*
G02*
X89725000Y-50815000I250000J0D01*
G01*
X90475000Y-50815000D01*
G75*
G02*
X90725000Y-51065000I0J-250000D01*
G01*
G37*
X88400000Y-53980000D03*
G36*
G01*
X90725000Y-53605000D02*
X90725000Y-54355000D01*
G75*
G02*
X90475000Y-54605000I-250000J0D01*
G01*
X89725000Y-54605000D01*
G75*
G02*
X89475000Y-54355000I0J250000D01*
G01*
X89475000Y-53605000D01*
G75*
G02*
X89725000Y-53355000I250000J0D01*
G01*
X90475000Y-53355000D01*
G75*
G02*
X90725000Y-53605000I0J-250000D01*
G01*
G37*
X88400000Y-56520000D03*
G36*
G01*
X90725000Y-56145000D02*
X90725000Y-56895000D01*
G75*
G02*
X90475000Y-57145000I-250000J0D01*
G01*
X89725000Y-57145000D01*
G75*
G02*
X89475000Y-56895000I0J250000D01*
G01*
X89475000Y-56145000D01*
G75*
G02*
X89725000Y-55895000I250000J0D01*
G01*
X90475000Y-55895000D01*
G75*
G02*
X90725000Y-56145000I0J-250000D01*
G01*
G37*
X88400000Y-59060000D03*
G36*
G01*
X90725000Y-58685000D02*
X90725000Y-59435000D01*
G75*
G02*
X90475000Y-59685000I-250000J0D01*
G01*
X89725000Y-59685000D01*
G75*
G02*
X89475000Y-59435000I0J250000D01*
G01*
X89475000Y-58685000D01*
G75*
G02*
X89725000Y-58435000I250000J0D01*
G01*
X90475000Y-58435000D01*
G75*
G02*
X90725000Y-58685000I0J-250000D01*
G01*
G37*
X88400000Y-61600000D03*
G36*
G01*
X90725000Y-61225000D02*
X90725000Y-61975000D01*
G75*
G02*
X90475000Y-62225000I-250000J0D01*
G01*
X89725000Y-62225000D01*
G75*
G02*
X89475000Y-61975000I0J250000D01*
G01*
X89475000Y-61225000D01*
G75*
G02*
X89725000Y-60975000I250000J0D01*
G01*
X90475000Y-60975000D01*
G75*
G02*
X90725000Y-61225000I0J-250000D01*
G01*
G37*
X88400000Y-64140000D03*
G36*
G01*
X90725000Y-63765000D02*
X90725000Y-64515000D01*
G75*
G02*
X90475000Y-64765000I-250000J0D01*
G01*
X89725000Y-64765000D01*
G75*
G02*
X89475000Y-64515000I0J250000D01*
G01*
X89475000Y-63765000D01*
G75*
G02*
X89725000Y-63515000I250000J0D01*
G01*
X90475000Y-63515000D01*
G75*
G02*
X90725000Y-63765000I0J-250000D01*
G01*
G37*
X88400000Y-66680000D03*
G36*
G01*
X90725000Y-66305000D02*
X90725000Y-67055000D01*
G75*
G02*
X90475000Y-67305000I-250000J0D01*
G01*
X89725000Y-67305000D01*
G75*
G02*
X89475000Y-67055000I0J250000D01*
G01*
X89475000Y-66305000D01*
G75*
G02*
X89725000Y-66055000I250000J0D01*
G01*
X90475000Y-66055000D01*
G75*
G02*
X90725000Y-66305000I0J-250000D01*
G01*
G37*
X88400000Y-69220000D03*
G36*
G01*
X90725000Y-68845000D02*
X90725000Y-69595000D01*
G75*
G02*
X90475000Y-69845000I-250000J0D01*
G01*
X89725000Y-69845000D01*
G75*
G02*
X89475000Y-69595000I0J250000D01*
G01*
X89475000Y-68845000D01*
G75*
G02*
X89725000Y-68595000I250000J0D01*
G01*
X90475000Y-68595000D01*
G75*
G02*
X90725000Y-68845000I0J-250000D01*
G01*
G37*
X88400000Y-92080000D03*
G36*
G01*
X90725000Y-91705000D02*
X90725000Y-92455000D01*
G75*
G02*
X90475000Y-92705000I-250000J0D01*
G01*
X89725000Y-92705000D01*
G75*
G02*
X89475000Y-92455000I0J250000D01*
G01*
X89475000Y-91705000D01*
G75*
G02*
X89725000Y-91455000I250000J0D01*
G01*
X90475000Y-91455000D01*
G75*
G02*
X90725000Y-91705000I0J-250000D01*
G01*
G37*
X88400000Y-94620000D03*
G36*
G01*
X90725000Y-94245000D02*
X90725000Y-94995000D01*
G75*
G02*
X90475000Y-95245000I-250000J0D01*
G01*
X89725000Y-95245000D01*
G75*
G02*
X89475000Y-94995000I0J250000D01*
G01*
X89475000Y-94245000D01*
G75*
G02*
X89725000Y-93995000I250000J0D01*
G01*
X90475000Y-93995000D01*
G75*
G02*
X90725000Y-94245000I0J-250000D01*
G01*
G37*
X88400000Y-97160000D03*
G36*
G01*
X90725000Y-96785000D02*
X90725000Y-97535000D01*
G75*
G02*
X90475000Y-97785000I-250000J0D01*
G01*
X89725000Y-97785000D01*
G75*
G02*
X89475000Y-97535000I0J250000D01*
G01*
X89475000Y-96785000D01*
G75*
G02*
X89725000Y-96535000I250000J0D01*
G01*
X90475000Y-96535000D01*
G75*
G02*
X90725000Y-96785000I0J-250000D01*
G01*
G37*
X88400000Y-99700000D03*
G36*
G01*
X90725000Y-99325000D02*
X90725000Y-100075000D01*
G75*
G02*
X90475000Y-100325000I-250000J0D01*
G01*
X89725000Y-100325000D01*
G75*
G02*
X89475000Y-100075000I0J250000D01*
G01*
X89475000Y-99325000D01*
G75*
G02*
X89725000Y-99075000I250000J0D01*
G01*
X90475000Y-99075000D01*
G75*
G02*
X90725000Y-99325000I0J-250000D01*
G01*
G37*
X88400000Y-102240000D03*
G36*
G01*
X90725000Y-101865000D02*
X90725000Y-102615000D01*
G75*
G02*
X90475000Y-102865000I-250000J0D01*
G01*
X89725000Y-102865000D01*
G75*
G02*
X89475000Y-102615000I0J250000D01*
G01*
X89475000Y-101865000D01*
G75*
G02*
X89725000Y-101615000I250000J0D01*
G01*
X90475000Y-101615000D01*
G75*
G02*
X90725000Y-101865000I0J-250000D01*
G01*
G37*
X88400000Y-104780000D03*
G36*
G01*
X90725000Y-104405000D02*
X90725000Y-105155000D01*
G75*
G02*
X90475000Y-105405000I-250000J0D01*
G01*
X89725000Y-105405000D01*
G75*
G02*
X89475000Y-105155000I0J250000D01*
G01*
X89475000Y-104405000D01*
G75*
G02*
X89725000Y-104155000I250000J0D01*
G01*
X90475000Y-104155000D01*
G75*
G02*
X90725000Y-104405000I0J-250000D01*
G01*
G37*
X88400000Y-107320000D03*
G36*
G01*
X90725000Y-106945000D02*
X90725000Y-107695000D01*
G75*
G02*
X90475000Y-107945000I-250000J0D01*
G01*
X89725000Y-107945000D01*
G75*
G02*
X89475000Y-107695000I0J250000D01*
G01*
X89475000Y-106945000D01*
G75*
G02*
X89725000Y-106695000I250000J0D01*
G01*
X90475000Y-106695000D01*
G75*
G02*
X90725000Y-106945000I0J-250000D01*
G01*
G37*
X88400000Y-109860000D03*
G36*
G01*
X90725000Y-109485000D02*
X90725000Y-110235000D01*
G75*
G02*
X90475000Y-110485000I-250000J0D01*
G01*
X89725000Y-110485000D01*
G75*
G02*
X89475000Y-110235000I0J250000D01*
G01*
X89475000Y-109485000D01*
G75*
G02*
X89725000Y-109235000I250000J0D01*
G01*
X90475000Y-109235000D01*
G75*
G02*
X90725000Y-109485000I0J-250000D01*
G01*
G37*
X88400000Y-112400000D03*
G36*
G01*
X90725000Y-112025000D02*
X90725000Y-112775000D01*
G75*
G02*
X90475000Y-113025000I-250000J0D01*
G01*
X89725000Y-113025000D01*
G75*
G02*
X89475000Y-112775000I0J250000D01*
G01*
X89475000Y-112025000D01*
G75*
G02*
X89725000Y-111775000I250000J0D01*
G01*
X90475000Y-111775000D01*
G75*
G02*
X90725000Y-112025000I0J-250000D01*
G01*
G37*
X88400000Y-114940000D03*
G36*
G01*
X90725000Y-114565000D02*
X90725000Y-115315000D01*
G75*
G02*
X90475000Y-115565000I-250000J0D01*
G01*
X89725000Y-115565000D01*
G75*
G02*
X89475000Y-115315000I0J250000D01*
G01*
X89475000Y-114565000D01*
G75*
G02*
X89725000Y-114315000I250000J0D01*
G01*
X90475000Y-114315000D01*
G75*
G02*
X90725000Y-114565000I0J-250000D01*
G01*
G37*
X88400000Y-117480000D03*
G36*
G01*
X90725000Y-117105000D02*
X90725000Y-117855000D01*
G75*
G02*
X90475000Y-118105000I-250000J0D01*
G01*
X89725000Y-118105000D01*
G75*
G02*
X89475000Y-117855000I0J250000D01*
G01*
X89475000Y-117105000D01*
G75*
G02*
X89725000Y-116855000I250000J0D01*
G01*
X90475000Y-116855000D01*
G75*
G02*
X90725000Y-117105000I0J-250000D01*
G01*
G37*
X88400000Y-120020000D03*
G36*
G01*
X90725000Y-119645000D02*
X90725000Y-120395000D01*
G75*
G02*
X90475000Y-120645000I-250000J0D01*
G01*
X89725000Y-120645000D01*
G75*
G02*
X89475000Y-120395000I0J250000D01*
G01*
X89475000Y-119645000D01*
G75*
G02*
X89725000Y-119395000I250000J0D01*
G01*
X90475000Y-119395000D01*
G75*
G02*
X90725000Y-119645000I0J-250000D01*
G01*
G37*
X88400000Y-122560000D03*
G36*
G01*
X90725000Y-122185000D02*
X90725000Y-122935000D01*
G75*
G02*
X90475000Y-123185000I-250000J0D01*
G01*
X89725000Y-123185000D01*
G75*
G02*
X89475000Y-122935000I0J250000D01*
G01*
X89475000Y-122185000D01*
G75*
G02*
X89725000Y-121935000I250000J0D01*
G01*
X90475000Y-121935000D01*
G75*
G02*
X90725000Y-122185000I0J-250000D01*
G01*
G37*
X88400000Y-125100000D03*
G36*
G01*
X90725000Y-124725000D02*
X90725000Y-125475000D01*
G75*
G02*
X90475000Y-125725000I-250000J0D01*
G01*
X89725000Y-125725000D01*
G75*
G02*
X89475000Y-125475000I0J250000D01*
G01*
X89475000Y-124725000D01*
G75*
G02*
X89725000Y-124475000I250000J0D01*
G01*
X90475000Y-124475000D01*
G75*
G02*
X90725000Y-124725000I0J-250000D01*
G01*
G37*
X88400000Y-127640000D03*
G36*
G01*
X90725000Y-127265000D02*
X90725000Y-128015000D01*
G75*
G02*
X90475000Y-128265000I-250000J0D01*
G01*
X89725000Y-128265000D01*
G75*
G02*
X89475000Y-128015000I0J250000D01*
G01*
X89475000Y-127265000D01*
G75*
G02*
X89725000Y-127015000I250000J0D01*
G01*
X90475000Y-127015000D01*
G75*
G02*
X90725000Y-127265000I0J-250000D01*
G01*
G37*
X88400000Y-130180000D03*
G36*
G01*
X90725000Y-129805000D02*
X90725000Y-130555000D01*
G75*
G02*
X90475000Y-130805000I-250000J0D01*
G01*
X89725000Y-130805000D01*
G75*
G02*
X89475000Y-130555000I0J250000D01*
G01*
X89475000Y-129805000D01*
G75*
G02*
X89725000Y-129555000I250000J0D01*
G01*
X90475000Y-129555000D01*
G75*
G02*
X90725000Y-129805000I0J-250000D01*
G01*
G37*
X88400000Y-132720000D03*
G36*
G01*
X90725000Y-132345000D02*
X90725000Y-133095000D01*
G75*
G02*
X90475000Y-133345000I-250000J0D01*
G01*
X89725000Y-133345000D01*
G75*
G02*
X89475000Y-133095000I0J250000D01*
G01*
X89475000Y-132345000D01*
G75*
G02*
X89725000Y-132095000I250000J0D01*
G01*
X90475000Y-132095000D01*
G75*
G02*
X90725000Y-132345000I0J-250000D01*
G01*
G37*
X88400000Y-135260000D03*
G36*
G01*
X90725000Y-134885000D02*
X90725000Y-135635000D01*
G75*
G02*
X90475000Y-135885000I-250000J0D01*
G01*
X89725000Y-135885000D01*
G75*
G02*
X89475000Y-135635000I0J250000D01*
G01*
X89475000Y-134885000D01*
G75*
G02*
X89725000Y-134635000I250000J0D01*
G01*
X90475000Y-134635000D01*
G75*
G02*
X90725000Y-134885000I0J-250000D01*
G01*
G37*
X88400000Y-137800000D03*
G36*
G01*
X90725000Y-137425000D02*
X90725000Y-138175000D01*
G75*
G02*
X90475000Y-138425000I-250000J0D01*
G01*
X89725000Y-138425000D01*
G75*
G02*
X89475000Y-138175000I0J250000D01*
G01*
X89475000Y-137425000D01*
G75*
G02*
X89725000Y-137175000I250000J0D01*
G01*
X90475000Y-137175000D01*
G75*
G02*
X90725000Y-137425000I0J-250000D01*
G01*
G37*
X88400000Y-140340000D03*
G36*
G01*
X90725000Y-139965000D02*
X90725000Y-140715000D01*
G75*
G02*
X90475000Y-140965000I-250000J0D01*
G01*
X89725000Y-140965000D01*
G75*
G02*
X89475000Y-140715000I0J250000D01*
G01*
X89475000Y-139965000D01*
G75*
G02*
X89725000Y-139715000I250000J0D01*
G01*
X90475000Y-139715000D01*
G75*
G02*
X90725000Y-139965000I0J-250000D01*
G01*
G37*
G36*
G01*
X127325000Y-51065000D02*
X127325000Y-51815000D01*
G75*
G02*
X127075000Y-52065000I-250000J0D01*
G01*
X126325000Y-52065000D01*
G75*
G02*
X126075000Y-51815000I0J250000D01*
G01*
X126075000Y-51065000D01*
G75*
G02*
X126325000Y-50815000I250000J0D01*
G01*
X127075000Y-50815000D01*
G75*
G02*
X127325000Y-51065000I0J-250000D01*
G01*
G37*
X128400000Y-51440000D03*
G36*
G01*
X127325000Y-53605000D02*
X127325000Y-54355000D01*
G75*
G02*
X127075000Y-54605000I-250000J0D01*
G01*
X126325000Y-54605000D01*
G75*
G02*
X126075000Y-54355000I0J250000D01*
G01*
X126075000Y-53605000D01*
G75*
G02*
X126325000Y-53355000I250000J0D01*
G01*
X127075000Y-53355000D01*
G75*
G02*
X127325000Y-53605000I0J-250000D01*
G01*
G37*
X128400000Y-53980000D03*
G36*
G01*
X127325000Y-56145000D02*
X127325000Y-56895000D01*
G75*
G02*
X127075000Y-57145000I-250000J0D01*
G01*
X126325000Y-57145000D01*
G75*
G02*
X126075000Y-56895000I0J250000D01*
G01*
X126075000Y-56145000D01*
G75*
G02*
X126325000Y-55895000I250000J0D01*
G01*
X127075000Y-55895000D01*
G75*
G02*
X127325000Y-56145000I0J-250000D01*
G01*
G37*
X128400000Y-56520000D03*
G36*
G01*
X127325000Y-58685000D02*
X127325000Y-59435000D01*
G75*
G02*
X127075000Y-59685000I-250000J0D01*
G01*
X126325000Y-59685000D01*
G75*
G02*
X126075000Y-59435000I0J250000D01*
G01*
X126075000Y-58685000D01*
G75*
G02*
X126325000Y-58435000I250000J0D01*
G01*
X127075000Y-58435000D01*
G75*
G02*
X127325000Y-58685000I0J-250000D01*
G01*
G37*
X128400000Y-59060000D03*
G36*
G01*
X127325000Y-61225000D02*
X127325000Y-61975000D01*
G75*
G02*
X127075000Y-62225000I-250000J0D01*
G01*
X126325000Y-62225000D01*
G75*
G02*
X126075000Y-61975000I0J250000D01*
G01*
X126075000Y-61225000D01*
G75*
G02*
X126325000Y-60975000I250000J0D01*
G01*
X127075000Y-60975000D01*
G75*
G02*
X127325000Y-61225000I0J-250000D01*
G01*
G37*
X128400000Y-61600000D03*
G36*
G01*
X127325000Y-63765000D02*
X127325000Y-64515000D01*
G75*
G02*
X127075000Y-64765000I-250000J0D01*
G01*
X126325000Y-64765000D01*
G75*
G02*
X126075000Y-64515000I0J250000D01*
G01*
X126075000Y-63765000D01*
G75*
G02*
X126325000Y-63515000I250000J0D01*
G01*
X127075000Y-63515000D01*
G75*
G02*
X127325000Y-63765000I0J-250000D01*
G01*
G37*
X128400000Y-64140000D03*
G36*
G01*
X127325000Y-66305000D02*
X127325000Y-67055000D01*
G75*
G02*
X127075000Y-67305000I-250000J0D01*
G01*
X126325000Y-67305000D01*
G75*
G02*
X126075000Y-67055000I0J250000D01*
G01*
X126075000Y-66305000D01*
G75*
G02*
X126325000Y-66055000I250000J0D01*
G01*
X127075000Y-66055000D01*
G75*
G02*
X127325000Y-66305000I0J-250000D01*
G01*
G37*
X128400000Y-66680000D03*
G36*
G01*
X127325000Y-68845000D02*
X127325000Y-69595000D01*
G75*
G02*
X127075000Y-69845000I-250000J0D01*
G01*
X126325000Y-69845000D01*
G75*
G02*
X126075000Y-69595000I0J250000D01*
G01*
X126075000Y-68845000D01*
G75*
G02*
X126325000Y-68595000I250000J0D01*
G01*
X127075000Y-68595000D01*
G75*
G02*
X127325000Y-68845000I0J-250000D01*
G01*
G37*
X128400000Y-69220000D03*
G36*
G01*
X127325000Y-71385000D02*
X127325000Y-72135000D01*
G75*
G02*
X127075000Y-72385000I-250000J0D01*
G01*
X126325000Y-72385000D01*
G75*
G02*
X126075000Y-72135000I0J250000D01*
G01*
X126075000Y-71385000D01*
G75*
G02*
X126325000Y-71135000I250000J0D01*
G01*
X127075000Y-71135000D01*
G75*
G02*
X127325000Y-71385000I0J-250000D01*
G01*
G37*
X128400000Y-71760000D03*
G36*
G01*
X127325000Y-73925000D02*
X127325000Y-74675000D01*
G75*
G02*
X127075000Y-74925000I-250000J0D01*
G01*
X126325000Y-74925000D01*
G75*
G02*
X126075000Y-74675000I0J250000D01*
G01*
X126075000Y-73925000D01*
G75*
G02*
X126325000Y-73675000I250000J0D01*
G01*
X127075000Y-73675000D01*
G75*
G02*
X127325000Y-73925000I0J-250000D01*
G01*
G37*
X128400000Y-74300000D03*
G36*
G01*
X127325000Y-76465000D02*
X127325000Y-77215000D01*
G75*
G02*
X127075000Y-77465000I-250000J0D01*
G01*
X126325000Y-77465000D01*
G75*
G02*
X126075000Y-77215000I0J250000D01*
G01*
X126075000Y-76465000D01*
G75*
G02*
X126325000Y-76215000I250000J0D01*
G01*
X127075000Y-76215000D01*
G75*
G02*
X127325000Y-76465000I0J-250000D01*
G01*
G37*
X128400000Y-76840000D03*
G36*
G01*
X127325000Y-79005000D02*
X127325000Y-79755000D01*
G75*
G02*
X127075000Y-80005000I-250000J0D01*
G01*
X126325000Y-80005000D01*
G75*
G02*
X126075000Y-79755000I0J250000D01*
G01*
X126075000Y-79005000D01*
G75*
G02*
X126325000Y-78755000I250000J0D01*
G01*
X127075000Y-78755000D01*
G75*
G02*
X127325000Y-79005000I0J-250000D01*
G01*
G37*
X128400000Y-79380000D03*
G36*
G01*
X127325000Y-81545000D02*
X127325000Y-82295000D01*
G75*
G02*
X127075000Y-82545000I-250000J0D01*
G01*
X126325000Y-82545000D01*
G75*
G02*
X126075000Y-82295000I0J250000D01*
G01*
X126075000Y-81545000D01*
G75*
G02*
X126325000Y-81295000I250000J0D01*
G01*
X127075000Y-81295000D01*
G75*
G02*
X127325000Y-81545000I0J-250000D01*
G01*
G37*
X128400000Y-81920000D03*
G36*
G01*
X127325000Y-84085000D02*
X127325000Y-84835000D01*
G75*
G02*
X127075000Y-85085000I-250000J0D01*
G01*
X126325000Y-85085000D01*
G75*
G02*
X126075000Y-84835000I0J250000D01*
G01*
X126075000Y-84085000D01*
G75*
G02*
X126325000Y-83835000I250000J0D01*
G01*
X127075000Y-83835000D01*
G75*
G02*
X127325000Y-84085000I0J-250000D01*
G01*
G37*
X128400000Y-84460000D03*
G36*
G01*
X127325000Y-86625000D02*
X127325000Y-87375000D01*
G75*
G02*
X127075000Y-87625000I-250000J0D01*
G01*
X126325000Y-87625000D01*
G75*
G02*
X126075000Y-87375000I0J250000D01*
G01*
X126075000Y-86625000D01*
G75*
G02*
X126325000Y-86375000I250000J0D01*
G01*
X127075000Y-86375000D01*
G75*
G02*
X127325000Y-86625000I0J-250000D01*
G01*
G37*
X128400000Y-87000000D03*
G36*
G01*
X127325000Y-89165000D02*
X127325000Y-89915000D01*
G75*
G02*
X127075000Y-90165000I-250000J0D01*
G01*
X126325000Y-90165000D01*
G75*
G02*
X126075000Y-89915000I0J250000D01*
G01*
X126075000Y-89165000D01*
G75*
G02*
X126325000Y-88915000I250000J0D01*
G01*
X127075000Y-88915000D01*
G75*
G02*
X127325000Y-89165000I0J-250000D01*
G01*
G37*
X128400000Y-89540000D03*
G36*
G01*
X127325000Y-91705000D02*
X127325000Y-92455000D01*
G75*
G02*
X127075000Y-92705000I-250000J0D01*
G01*
X126325000Y-92705000D01*
G75*
G02*
X126075000Y-92455000I0J250000D01*
G01*
X126075000Y-91705000D01*
G75*
G02*
X126325000Y-91455000I250000J0D01*
G01*
X127075000Y-91455000D01*
G75*
G02*
X127325000Y-91705000I0J-250000D01*
G01*
G37*
X128400000Y-92080000D03*
G36*
G01*
X127325000Y-94245000D02*
X127325000Y-94995000D01*
G75*
G02*
X127075000Y-95245000I-250000J0D01*
G01*
X126325000Y-95245000D01*
G75*
G02*
X126075000Y-94995000I0J250000D01*
G01*
X126075000Y-94245000D01*
G75*
G02*
X126325000Y-93995000I250000J0D01*
G01*
X127075000Y-93995000D01*
G75*
G02*
X127325000Y-94245000I0J-250000D01*
G01*
G37*
X128400000Y-94620000D03*
G36*
G01*
X127325000Y-96785000D02*
X127325000Y-97535000D01*
G75*
G02*
X127075000Y-97785000I-250000J0D01*
G01*
X126325000Y-97785000D01*
G75*
G02*
X126075000Y-97535000I0J250000D01*
G01*
X126075000Y-96785000D01*
G75*
G02*
X126325000Y-96535000I250000J0D01*
G01*
X127075000Y-96535000D01*
G75*
G02*
X127325000Y-96785000I0J-250000D01*
G01*
G37*
X128400000Y-97160000D03*
G36*
G01*
X127325000Y-99325000D02*
X127325000Y-100075000D01*
G75*
G02*
X127075000Y-100325000I-250000J0D01*
G01*
X126325000Y-100325000D01*
G75*
G02*
X126075000Y-100075000I0J250000D01*
G01*
X126075000Y-99325000D01*
G75*
G02*
X126325000Y-99075000I250000J0D01*
G01*
X127075000Y-99075000D01*
G75*
G02*
X127325000Y-99325000I0J-250000D01*
G01*
G37*
X128400000Y-99700000D03*
G36*
G01*
X127325000Y-101865000D02*
X127325000Y-102615000D01*
G75*
G02*
X127075000Y-102865000I-250000J0D01*
G01*
X126325000Y-102865000D01*
G75*
G02*
X126075000Y-102615000I0J250000D01*
G01*
X126075000Y-101865000D01*
G75*
G02*
X126325000Y-101615000I250000J0D01*
G01*
X127075000Y-101615000D01*
G75*
G02*
X127325000Y-101865000I0J-250000D01*
G01*
G37*
X128400000Y-102240000D03*
G36*
G01*
X127325000Y-104405000D02*
X127325000Y-105155000D01*
G75*
G02*
X127075000Y-105405000I-250000J0D01*
G01*
X126325000Y-105405000D01*
G75*
G02*
X126075000Y-105155000I0J250000D01*
G01*
X126075000Y-104405000D01*
G75*
G02*
X126325000Y-104155000I250000J0D01*
G01*
X127075000Y-104155000D01*
G75*
G02*
X127325000Y-104405000I0J-250000D01*
G01*
G37*
X128400000Y-104780000D03*
G36*
G01*
X127325000Y-106945000D02*
X127325000Y-107695000D01*
G75*
G02*
X127075000Y-107945000I-250000J0D01*
G01*
X126325000Y-107945000D01*
G75*
G02*
X126075000Y-107695000I0J250000D01*
G01*
X126075000Y-106945000D01*
G75*
G02*
X126325000Y-106695000I250000J0D01*
G01*
X127075000Y-106695000D01*
G75*
G02*
X127325000Y-106945000I0J-250000D01*
G01*
G37*
X128400000Y-107320000D03*
G36*
G01*
X127325000Y-109485000D02*
X127325000Y-110235000D01*
G75*
G02*
X127075000Y-110485000I-250000J0D01*
G01*
X126325000Y-110485000D01*
G75*
G02*
X126075000Y-110235000I0J250000D01*
G01*
X126075000Y-109485000D01*
G75*
G02*
X126325000Y-109235000I250000J0D01*
G01*
X127075000Y-109235000D01*
G75*
G02*
X127325000Y-109485000I0J-250000D01*
G01*
G37*
X128400000Y-109860000D03*
G36*
G01*
X127325000Y-112025000D02*
X127325000Y-112775000D01*
G75*
G02*
X127075000Y-113025000I-250000J0D01*
G01*
X126325000Y-113025000D01*
G75*
G02*
X126075000Y-112775000I0J250000D01*
G01*
X126075000Y-112025000D01*
G75*
G02*
X126325000Y-111775000I250000J0D01*
G01*
X127075000Y-111775000D01*
G75*
G02*
X127325000Y-112025000I0J-250000D01*
G01*
G37*
X128400000Y-112400000D03*
G36*
G01*
X127325000Y-114565000D02*
X127325000Y-115315000D01*
G75*
G02*
X127075000Y-115565000I-250000J0D01*
G01*
X126325000Y-115565000D01*
G75*
G02*
X126075000Y-115315000I0J250000D01*
G01*
X126075000Y-114565000D01*
G75*
G02*
X126325000Y-114315000I250000J0D01*
G01*
X127075000Y-114315000D01*
G75*
G02*
X127325000Y-114565000I0J-250000D01*
G01*
G37*
X128400000Y-114940000D03*
G36*
G01*
X127325000Y-117105000D02*
X127325000Y-117855000D01*
G75*
G02*
X127075000Y-118105000I-250000J0D01*
G01*
X126325000Y-118105000D01*
G75*
G02*
X126075000Y-117855000I0J250000D01*
G01*
X126075000Y-117105000D01*
G75*
G02*
X126325000Y-116855000I250000J0D01*
G01*
X127075000Y-116855000D01*
G75*
G02*
X127325000Y-117105000I0J-250000D01*
G01*
G37*
X128400000Y-117480000D03*
G36*
G01*
X127325000Y-119645000D02*
X127325000Y-120395000D01*
G75*
G02*
X127075000Y-120645000I-250000J0D01*
G01*
X126325000Y-120645000D01*
G75*
G02*
X126075000Y-120395000I0J250000D01*
G01*
X126075000Y-119645000D01*
G75*
G02*
X126325000Y-119395000I250000J0D01*
G01*
X127075000Y-119395000D01*
G75*
G02*
X127325000Y-119645000I0J-250000D01*
G01*
G37*
X128400000Y-120020000D03*
G36*
G01*
X127325000Y-122185000D02*
X127325000Y-122935000D01*
G75*
G02*
X127075000Y-123185000I-250000J0D01*
G01*
X126325000Y-123185000D01*
G75*
G02*
X126075000Y-122935000I0J250000D01*
G01*
X126075000Y-122185000D01*
G75*
G02*
X126325000Y-121935000I250000J0D01*
G01*
X127075000Y-121935000D01*
G75*
G02*
X127325000Y-122185000I0J-250000D01*
G01*
G37*
X128400000Y-122560000D03*
G36*
G01*
X127325000Y-124725000D02*
X127325000Y-125475000D01*
G75*
G02*
X127075000Y-125725000I-250000J0D01*
G01*
X126325000Y-125725000D01*
G75*
G02*
X126075000Y-125475000I0J250000D01*
G01*
X126075000Y-124725000D01*
G75*
G02*
X126325000Y-124475000I250000J0D01*
G01*
X127075000Y-124475000D01*
G75*
G02*
X127325000Y-124725000I0J-250000D01*
G01*
G37*
X128400000Y-125100000D03*
G36*
G01*
X127325000Y-127265000D02*
X127325000Y-128015000D01*
G75*
G02*
X127075000Y-128265000I-250000J0D01*
G01*
X126325000Y-128265000D01*
G75*
G02*
X126075000Y-128015000I0J250000D01*
G01*
X126075000Y-127265000D01*
G75*
G02*
X126325000Y-127015000I250000J0D01*
G01*
X127075000Y-127015000D01*
G75*
G02*
X127325000Y-127265000I0J-250000D01*
G01*
G37*
X128400000Y-127640000D03*
G36*
G01*
X127325000Y-129805000D02*
X127325000Y-130555000D01*
G75*
G02*
X127075000Y-130805000I-250000J0D01*
G01*
X126325000Y-130805000D01*
G75*
G02*
X126075000Y-130555000I0J250000D01*
G01*
X126075000Y-129805000D01*
G75*
G02*
X126325000Y-129555000I250000J0D01*
G01*
X127075000Y-129555000D01*
G75*
G02*
X127325000Y-129805000I0J-250000D01*
G01*
G37*
X128400000Y-130180000D03*
G36*
G01*
X127325000Y-132345000D02*
X127325000Y-133095000D01*
G75*
G02*
X127075000Y-133345000I-250000J0D01*
G01*
X126325000Y-133345000D01*
G75*
G02*
X126075000Y-133095000I0J250000D01*
G01*
X126075000Y-132345000D01*
G75*
G02*
X126325000Y-132095000I250000J0D01*
G01*
X127075000Y-132095000D01*
G75*
G02*
X127325000Y-132345000I0J-250000D01*
G01*
G37*
X128400000Y-132720000D03*
G36*
G01*
X127325000Y-134885000D02*
X127325000Y-135635000D01*
G75*
G02*
X127075000Y-135885000I-250000J0D01*
G01*
X126325000Y-135885000D01*
G75*
G02*
X126075000Y-135635000I0J250000D01*
G01*
X126075000Y-134885000D01*
G75*
G02*
X126325000Y-134635000I250000J0D01*
G01*
X127075000Y-134635000D01*
G75*
G02*
X127325000Y-134885000I0J-250000D01*
G01*
G37*
X128400000Y-135260000D03*
G36*
G01*
X127325000Y-137425000D02*
X127325000Y-138175000D01*
G75*
G02*
X127075000Y-138425000I-250000J0D01*
G01*
X126325000Y-138425000D01*
G75*
G02*
X126075000Y-138175000I0J250000D01*
G01*
X126075000Y-137425000D01*
G75*
G02*
X126325000Y-137175000I250000J0D01*
G01*
X127075000Y-137175000D01*
G75*
G02*
X127325000Y-137425000I0J-250000D01*
G01*
G37*
X128400000Y-137800000D03*
G36*
G01*
X127325000Y-139965000D02*
X127325000Y-140715000D01*
G75*
G02*
X127075000Y-140965000I-250000J0D01*
G01*
X126325000Y-140965000D01*
G75*
G02*
X126075000Y-140715000I0J250000D01*
G01*
X126075000Y-139965000D01*
G75*
G02*
X126325000Y-139715000I250000J0D01*
G01*
X127075000Y-139715000D01*
G75*
G02*
X127325000Y-139965000I0J-250000D01*
G01*
G37*
X128400000Y-140340000D03*
D11*
X117479999Y-76820001D03*
X118530000Y-75770001D03*
X118530000Y-76820001D03*
X118530000Y-77870001D03*
X119580000Y-76820001D03*
M02*
