M48
; DRILL file {KiCad 9.0.1+1} date 2025-11-12T15:12:09+0000
; FORMAT={-:-/ absolute / inch / decimal}
; #@! TF.CreationDate,2025-11-12T15:12:09+00:00
; #@! TF.GenerationSoftware,Kicad,Pcbnew,9.0.1+1
; #@! TF.FileFunction,Plated,1,4,PTH
FMAT,2
INCH
; #@! TA.AperFunction,Plated,PTH,ComponentDrill
T1C0.0080
; #@! TA.AperFunction,Plated,PTH,ViaDrill
T2C0.0118
; #@! TA.AperFunction,Plated,PTH,ComponentDrill
T3C0.0118
; #@! TA.AperFunction,Plated,PTH,ComponentDrill
T4C0.0295
; #@! TA.AperFunction,Plated,PTH,ComponentDrill
T5C0.0591
%
G90
G05
T1
X4.6665Y-3.0657
T2
X3.5941Y-2.8295
X3.6035Y-4.9173
X3.6035Y-5.5102
X3.6102Y-3.3035
X3.6122Y-3.0756
X3.6134Y-5.0075
X3.6177Y-5.3055
X3.626Y-5.4287
X3.6378Y-2.6949
X3.6382Y-2.0713
X3.6382Y-3.4988
X3.6386Y-5.0913
X3.6465Y-2.3327
X3.6484Y-2.4602
X3.6484Y-2.5677
X3.6583Y-4.2846
X3.6709Y-2.1996
X3.6803Y-2.2787
X3.6874Y-3.7713
X3.6949Y-3.8724
X3.698Y-3.9807
X3.7067Y-3.6886
X3.7209Y-2.8417
X3.7362Y-4.3669
X3.7362Y-4.7339
X3.7394Y-5.3181
X3.7591Y-5.1614
X3.7594Y-3.0413
X3.7874Y-3.2528
X3.8642Y-3.7783
X3.8654Y-3.6819
X3.9307Y-3.5169
X3.9402Y-3.013
X3.9528Y-3.9776
X3.9551Y-3.3012
X3.9744Y-2.3327
X4.0142Y-2.5657
X4.0492Y-2.5071
X4.1169Y-3.7657
X4.1232Y-3.139
X4.1394Y-3.674
X4.1768Y-3.4949
X4.1823Y-2.1681
X4.1957Y-3.8677
X4.2035Y-3.9776
X4.2713Y-2.8181
X4.274Y-2.3016
X4.3114Y-3.3323
X4.3898Y-2.1354
X4.3965Y-2.9955
X4.4469Y-3.7047
X4.4835Y-3.5878
X4.5244Y-3.0719
X4.5378Y-2.5957
X4.5539Y-3.0081
X4.5579Y-3.0344
X4.563Y-3.3
X4.565Y-3.4945
X4.5654Y-4.248
X4.5681Y-3.7547
X4.5689Y-3.6067
X4.5705Y-3.8205
X4.5713Y-3.5547
X4.572Y-3.6894
X4.5728Y-3.8732
X4.5787Y-2.9203
X4.5846Y-3.4406
X4.5866Y-3.9224
X4.6004Y-3.2469
X4.6012Y-3.3512
X4.6012Y-4.2984
X4.6035Y-4.1961
X4.6098Y-2.9116
X4.6327Y-2.764
X4.6343Y-4.4004
X4.6346Y-5.1012
X4.6402Y-4.9469
X4.6406Y-4.25
X4.6421Y-3.3008
X4.6606Y-3.1504
X4.6642Y-4.0799
X4.6673Y-2.9061
X4.6791Y-5.1996
X4.6913Y-3.1429
X4.6961Y-2.7659
X4.7008Y-2.9057
X4.7201Y-2.8726
X4.7228Y-2.6276
X4.7524Y-5.1378
X4.7748Y-3.0331
X4.7787Y-5.0626
X4.7953Y-4.9819
X4.8059Y-4.8917
X4.8071Y-2.7945
X4.8146Y-4.8039
X4.8343Y-4.6173
X4.837Y-4.7232
X4.8445Y-2.0335
X4.8559Y-4.3445
X4.8728Y-4.9614
X4.8815Y-2.0823
X4.8839Y-4.5228
X4.8866Y-5.1717
X4.8874Y-2.7972
X4.8886Y-4.8728
X4.8906Y-4.6764
X4.8906Y-5.0772
X4.8913Y-5.2736
X4.8996Y-4.7882
X4.9016Y-2.0236
X4.9063Y-2.9843
X4.9063Y-4.1024
X4.9079Y-4.3969
X4.9087Y-4.2882
X4.9091Y-3.3669
X4.9106Y-5.4311
X4.9118Y-3.1803
X4.9134Y-3.0768
X4.9134Y-4.2004
X4.9146Y-3.2673
X4.9146Y-3.5685
X4.9244Y-3.4705
X4.9244Y-3.6567
X4.9323Y-3.9701
T3
X4.6252Y-3.0244
X4.6665Y-2.9831
X4.6665Y-3.0244
X4.7079Y-3.0244
T4
X3.5472Y-2.0252
X3.5472Y-2.1252
X3.5472Y-2.2252
X3.5472Y-2.3252
X3.5472Y-2.4252
X3.5472Y-2.5252
X3.5472Y-2.6252
X3.5472Y-2.7252
X3.5472Y-3.6252
X3.5472Y-3.7252
X3.5472Y-3.8252
X3.5472Y-3.9252
X3.5472Y-4.0252
X3.5472Y-4.1252
X3.5472Y-4.2252
X3.5472Y-4.3252
X3.5472Y-4.4252
X3.5472Y-4.5252
X3.5472Y-4.6252
X3.5472Y-4.7252
X3.5472Y-4.8252
X3.5472Y-4.9252
X3.5472Y-5.0252
X3.5472Y-5.1252
X3.5472Y-5.2252
X3.5472Y-5.3252
X3.5472Y-5.4252
X3.5472Y-5.5252
X4.9882Y-2.0252
X4.9882Y-2.1252
X4.9882Y-2.2252
X4.9882Y-2.3252
X4.9882Y-2.4252
X4.9882Y-2.5252
X4.9882Y-2.6252
X4.9882Y-2.7252
X4.9882Y-2.8252
X4.9882Y-2.9252
X4.9882Y-3.0252
X4.9882Y-3.1252
X4.9882Y-3.2252
X4.9882Y-3.3252
X4.9882Y-3.4252
X4.9882Y-3.5252
X4.9882Y-3.6252
X4.9882Y-3.7252
X4.9882Y-3.8252
X4.9882Y-3.9252
X4.9882Y-4.0252
X4.9882Y-4.1252
X4.9882Y-4.2252
X4.9882Y-4.3252
X4.9882Y-4.4252
X4.9882Y-4.5252
X4.9882Y-4.6252
X4.9882Y-4.7252
X4.9882Y-4.8252
X4.9882Y-4.9252
X4.9882Y-5.0252
X4.9882Y-5.1252
X4.9882Y-5.2252
X4.9882Y-5.3252
X4.9882Y-5.4252
X4.9882Y-5.5252
T5
G00X3.4705Y-2.0252
M15
G01X3.4902Y-2.0252
M16
G05
G00X3.4705Y-2.1252
M15
G01X3.4902Y-2.1252
M16
G05
G00X3.4705Y-2.2252
M15
G01X3.4902Y-2.2252
M16
G05
G00X3.4705Y-2.3252
M15
G01X3.4902Y-2.3252
M16
G05
G00X3.4705Y-2.4252
M15
G01X3.4902Y-2.4252
M16
G05
G00X3.4705Y-2.5252
M15
G01X3.4902Y-2.5252
M16
G05
G00X3.4705Y-2.6252
M15
G01X3.4902Y-2.6252
M16
G05
G00X3.4705Y-2.7252
M15
G01X3.4902Y-2.7252
M16
G05
G00X3.4705Y-3.6252
M15
G01X3.4902Y-3.6252
M16
G05
G00X3.4705Y-3.7252
M15
G01X3.4902Y-3.7252
M16
G05
G00X3.4705Y-3.8252
M15
G01X3.4902Y-3.8252
M16
G05
G00X3.4705Y-3.9252
M15
G01X3.4902Y-3.9252
M16
G05
G00X3.4705Y-4.0252
M15
G01X3.4902Y-4.0252
M16
G05
G00X3.4705Y-4.1252
M15
G01X3.4902Y-4.1252
M16
G05
G00X3.4705Y-4.2252
M15
G01X3.4902Y-4.2252
M16
G05
G00X3.4705Y-4.3252
M15
G01X3.4902Y-4.3252
M16
G05
G00X3.4705Y-4.4252
M15
G01X3.4902Y-4.4252
M16
G05
G00X3.4705Y-4.5252
M15
G01X3.4902Y-4.5252
M16
G05
G00X3.4705Y-4.6252
M15
G01X3.4902Y-4.6252
M16
G05
G00X3.4705Y-4.7252
M15
G01X3.4902Y-4.7252
M16
G05
G00X3.4705Y-4.8252
M15
G01X3.4902Y-4.8252
M16
G05
G00X3.4705Y-4.9252
M15
G01X3.4902Y-4.9252
M16
G05
G00X3.4705Y-5.0252
M15
G01X3.4902Y-5.0252
M16
G05
G00X3.4705Y-5.1252
M15
G01X3.4902Y-5.1252
M16
G05
G00X3.4705Y-5.2252
M15
G01X3.4902Y-5.2252
M16
G05
G00X3.4705Y-5.3252
M15
G01X3.4902Y-5.3252
M16
G05
G00X3.4705Y-5.4252
M15
G01X3.4902Y-5.4252
M16
G05
G00X3.4705Y-5.5252
M15
G01X3.4902Y-5.5252
M16
G05
G00X5.0453Y-2.0252
M15
G01X5.065Y-2.0252
M16
G05
G00X5.0453Y-2.1252
M15
G01X5.065Y-2.1252
M16
G05
G00X5.0453Y-2.2252
M15
G01X5.065Y-2.2252
M16
G05
G00X5.0453Y-2.3252
M15
G01X5.065Y-2.3252
M16
G05
G00X5.0453Y-2.4252
M15
G01X5.065Y-2.4252
M16
G05
G00X5.0453Y-2.5252
M15
G01X5.065Y-2.5252
M16
G05
G00X5.0453Y-2.6252
M15
G01X5.065Y-2.6252
M16
G05
G00X5.0453Y-2.7252
M15
G01X5.065Y-2.7252
M16
G05
G00X5.0453Y-2.8252
M15
G01X5.065Y-2.8252
M16
G05
G00X5.0453Y-2.9252
M15
G01X5.065Y-2.9252
M16
G05
G00X5.0453Y-3.0252
M15
G01X5.065Y-3.0252
M16
G05
G00X5.0453Y-3.1252
M15
G01X5.065Y-3.1252
M16
G05
G00X5.0453Y-3.2252
M15
G01X5.065Y-3.2252
M16
G05
G00X5.0453Y-3.3252
M15
G01X5.065Y-3.3252
M16
G05
G00X5.0453Y-3.4252
M15
G01X5.065Y-3.4252
M16
G05
G00X5.0453Y-3.5252
M15
G01X5.065Y-3.5252
M16
G05
G00X5.0453Y-3.6252
M15
G01X5.065Y-3.6252
M16
G05
G00X5.0453Y-3.7252
M15
G01X5.065Y-3.7252
M16
G05
G00X5.0453Y-3.8252
M15
G01X5.065Y-3.8252
M16
G05
G00X5.0453Y-3.9252
M15
G01X5.065Y-3.9252
M16
G05
G00X5.0453Y-4.0252
M15
G01X5.065Y-4.0252
M16
G05
G00X5.0453Y-4.1252
M15
G01X5.065Y-4.1252
M16
G05
G00X5.0453Y-4.2252
M15
G01X5.065Y-4.2252
M16
G05
G00X5.0453Y-4.3252
M15
G01X5.065Y-4.3252
M16
G05
G00X5.0453Y-4.4252
M15
G01X5.065Y-4.4252
M16
G05
G00X5.0453Y-4.5252
M15
G01X5.065Y-4.5252
M16
G05
G00X5.0453Y-4.6252
M15
G01X5.065Y-4.6252
M16
G05
G00X5.0453Y-4.7252
M15
G01X5.065Y-4.7252
M16
G05
G00X5.0453Y-4.8252
M15
G01X5.065Y-4.8252
M16
G05
G00X5.0453Y-4.9252
M15
G01X5.065Y-4.9252
M16
G05
G00X5.0453Y-5.0252
M15
G01X5.065Y-5.0252
M16
G05
G00X5.0453Y-5.1252
M15
G01X5.065Y-5.1252
M16
G05
G00X5.0453Y-5.2252
M15
G01X5.065Y-5.2252
M16
G05
G00X5.0453Y-5.3252
M15
G01X5.065Y-5.3252
M16
G05
G00X5.0453Y-5.4252
M15
G01X5.065Y-5.4252
M16
G05
G00X5.0453Y-5.5252
M15
G01X5.065Y-5.5252
M16
G05
M30
