M48
; DRILL file {KiCad 9.0.1+1} date 2025-11-25T11:40:34+0000
; FORMAT={-:-/ absolute / inch / decimal}
; #@! TF.CreationDate,2025-11-25T11:40:34+00:00
; #@! TF.GenerationSoftware,Kicad,Pcbnew,9.0.1+1
; #@! TF.FileFunction,Plated,1,4,PTH
FMAT,2
INCH
; #@! TA.AperFunction,Plated,PTH,ComponentDrill
T1C0.0080
; #@! TA.AperFunction,Plated,PTH,ViaDrill
T2C0.0118
; #@! TA.AperFunction,Plated,PTH,ComponentDrill
T3C0.0118
; #@! TA.AperFunction,Plated,PTH,ComponentDrill
T4C0.0295
; #@! TA.AperFunction,Plated,PTH,ComponentDrill
T5C0.0591
%
G90
G05
T1
X7.8543Y-3.8346
T2
X6.7819Y-3.5984
X6.7913Y-5.6862
X6.7913Y-6.2791
X6.798Y-4.0724
X6.8Y-3.8445
X6.8012Y-5.7764
X6.8055Y-6.0744
X6.8138Y-6.1976
X6.8256Y-3.4638
X6.826Y-2.8402
X6.826Y-4.2677
X6.8264Y-5.8602
X6.8343Y-3.1016
X6.8362Y-3.2291
X6.8362Y-3.3366
X6.8461Y-5.0535
X6.8587Y-2.9685
X6.8681Y-3.0476
X6.8752Y-4.5402
X6.8827Y-4.6413
X6.8858Y-4.7496
X6.8945Y-4.4575
X6.9087Y-3.6106
X6.924Y-5.1358
X6.924Y-5.5028
X6.9272Y-6.087
X6.9469Y-5.9303
X6.9472Y-3.8102
X6.9752Y-4.0217
X7.052Y-4.5472
X7.0531Y-4.4508
X7.1185Y-4.2858
X7.128Y-3.7819
X7.1406Y-4.7465
X7.1429Y-4.0701
X7.1622Y-3.1016
X7.202Y-3.3346
X7.237Y-3.276
X7.3047Y-4.5346
X7.311Y-3.9079
X7.3272Y-4.4429
X7.3646Y-4.2638
X7.3701Y-2.937
X7.3835Y-4.6366
X7.3913Y-4.7465
X7.4591Y-3.587
X7.4618Y-3.0705
X7.4992Y-4.1012
X7.5776Y-2.9043
X7.5843Y-3.7644
X7.6346Y-4.4736
X7.6713Y-4.3567
X7.7122Y-3.8407
X7.7256Y-3.3646
X7.7417Y-3.777
X7.7457Y-3.8033
X7.7508Y-4.0689
X7.7528Y-4.2634
X7.7531Y-5.0169
X7.7559Y-4.5236
X7.7567Y-4.3756
X7.7583Y-4.5894
X7.7591Y-4.3236
X7.7598Y-4.4583
X7.7606Y-4.6421
X7.7665Y-3.6892
X7.7724Y-4.2094
X7.7744Y-4.6913
X7.7882Y-4.0157
X7.789Y-4.1201
X7.789Y-5.0673
X7.7913Y-4.965
X7.7976Y-3.6805
X7.8205Y-3.5329
X7.822Y-5.1693
X7.8224Y-5.8701
X7.828Y-5.7157
X7.8283Y-5.0189
X7.8299Y-4.0697
X7.8484Y-3.9193
X7.852Y-4.8488
X7.8551Y-3.675
X7.8669Y-5.9685
X7.8791Y-3.9118
X7.8839Y-3.5348
X7.8886Y-3.6746
X7.9079Y-3.6415
X7.9106Y-3.3965
X7.9402Y-5.9067
X7.9626Y-3.802
X7.9665Y-5.8315
X7.9831Y-5.7508
X7.9937Y-5.6606
X7.9949Y-3.5634
X8.0024Y-5.5728
X8.022Y-5.3862
X8.0248Y-5.4921
X8.0323Y-2.8024
X8.0437Y-5.1134
X8.0606Y-5.7303
X8.0693Y-2.8512
X8.0717Y-5.2917
X8.0744Y-5.9406
X8.0752Y-3.5661
X8.0764Y-5.6417
X8.0783Y-5.4453
X8.0783Y-5.8461
X8.0791Y-6.0425
X8.0874Y-5.5571
X8.0894Y-2.7925
X8.0941Y-3.7531
X8.0941Y-4.8713
X8.0957Y-5.1657
X8.0965Y-5.0571
X8.0969Y-4.1358
X8.0984Y-6.2
X8.0996Y-3.9492
X8.1012Y-3.8457
X8.1012Y-4.9693
X8.1024Y-4.0362
X8.1024Y-4.3374
X8.1122Y-4.2394
X8.1122Y-4.4256
X8.1201Y-4.739
T3
X7.813Y-3.7933
X7.8543Y-3.752
X7.8543Y-3.7933
X7.8957Y-3.7933
T4
X6.735Y-2.7941
X6.735Y-2.8941
X6.735Y-2.9941
X6.735Y-3.0941
X6.735Y-3.1941
X6.735Y-3.2941
X6.735Y-3.3941
X6.735Y-3.4941
X6.735Y-4.3941
X6.735Y-4.4941
X6.735Y-4.5941
X6.735Y-4.6941
X6.735Y-4.7941
X6.735Y-4.8941
X6.735Y-4.9941
X6.735Y-5.0941
X6.735Y-5.1941
X6.735Y-5.2941
X6.735Y-5.3941
X6.735Y-5.4941
X6.735Y-5.5941
X6.735Y-5.6941
X6.735Y-5.7941
X6.735Y-5.8941
X6.735Y-5.9941
X6.735Y-6.0941
X6.735Y-6.1941
X6.735Y-6.2941
X8.176Y-2.7941
X8.176Y-2.8941
X8.176Y-2.9941
X8.176Y-3.0941
X8.176Y-3.1941
X8.176Y-3.2941
X8.176Y-3.3941
X8.176Y-3.4941
X8.176Y-3.5941
X8.176Y-3.6941
X8.176Y-3.7941
X8.176Y-3.8941
X8.176Y-3.9941
X8.176Y-4.0941
X8.176Y-4.1941
X8.176Y-4.2941
X8.176Y-4.3941
X8.176Y-4.4941
X8.176Y-4.5941
X8.176Y-4.6941
X8.176Y-4.7941
X8.176Y-4.8941
X8.176Y-4.9941
X8.176Y-5.0941
X8.176Y-5.1941
X8.176Y-5.2941
X8.176Y-5.3941
X8.176Y-5.4941
X8.176Y-5.5941
X8.176Y-5.6941
X8.176Y-5.7941
X8.176Y-5.8941
X8.176Y-5.9941
X8.176Y-6.0941
X8.176Y-6.1941
X8.176Y-6.2941
T5
G00X6.6583Y-2.7941
M15
G01X6.678Y-2.7941
M16
G05
G00X6.6583Y-2.8941
M15
G01X6.678Y-2.8941
M16
G05
G00X6.6583Y-2.9941
M15
G01X6.678Y-2.9941
M16
G05
G00X6.6583Y-3.0941
M15
G01X6.678Y-3.0941
M16
G05
G00X6.6583Y-3.1941
M15
G01X6.678Y-3.1941
M16
G05
G00X6.6583Y-3.2941
M15
G01X6.678Y-3.2941
M16
G05
G00X6.6583Y-3.3941
M15
G01X6.678Y-3.3941
M16
G05
G00X6.6583Y-3.4941
M15
G01X6.678Y-3.4941
M16
G05
G00X6.6583Y-4.3941
M15
G01X6.678Y-4.3941
M16
G05
G00X6.6583Y-4.4941
M15
G01X6.678Y-4.4941
M16
G05
G00X6.6583Y-4.5941
M15
G01X6.678Y-4.5941
M16
G05
G00X6.6583Y-4.6941
M15
G01X6.678Y-4.6941
M16
G05
G00X6.6583Y-4.7941
M15
G01X6.678Y-4.7941
M16
G05
G00X6.6583Y-4.8941
M15
G01X6.678Y-4.8941
M16
G05
G00X6.6583Y-4.9941
M15
G01X6.678Y-4.9941
M16
G05
G00X6.6583Y-5.0941
M15
G01X6.678Y-5.0941
M16
G05
G00X6.6583Y-5.1941
M15
G01X6.678Y-5.1941
M16
G05
G00X6.6583Y-5.2941
M15
G01X6.678Y-5.2941
M16
G05
G00X6.6583Y-5.3941
M15
G01X6.678Y-5.3941
M16
G05
G00X6.6583Y-5.4941
M15
G01X6.678Y-5.4941
M16
G05
G00X6.6583Y-5.5941
M15
G01X6.678Y-5.5941
M16
G05
G00X6.6583Y-5.6941
M15
G01X6.678Y-5.6941
M16
G05
G00X6.6583Y-5.7941
M15
G01X6.678Y-5.7941
M16
G05
G00X6.6583Y-5.8941
M15
G01X6.678Y-5.8941
M16
G05
G00X6.6583Y-5.9941
M15
G01X6.678Y-5.9941
M16
G05
G00X6.6583Y-6.0941
M15
G01X6.678Y-6.0941
M16
G05
G00X6.6583Y-6.1941
M15
G01X6.678Y-6.1941
M16
G05
G00X6.6583Y-6.2941
M15
G01X6.678Y-6.2941
M16
G05
G00X8.2331Y-2.7941
M15
G01X8.2528Y-2.7941
M16
G05
G00X8.2331Y-2.8941
M15
G01X8.2528Y-2.8941
M16
G05
G00X8.2331Y-2.9941
M15
G01X8.2528Y-2.9941
M16
G05
G00X8.2331Y-3.0941
M15
G01X8.2528Y-3.0941
M16
G05
G00X8.2331Y-3.1941
M15
G01X8.2528Y-3.1941
M16
G05
G00X8.2331Y-3.2941
M15
G01X8.2528Y-3.2941
M16
G05
G00X8.2331Y-3.3941
M15
G01X8.2528Y-3.3941
M16
G05
G00X8.2331Y-3.4941
M15
G01X8.2528Y-3.4941
M16
G05
G00X8.2331Y-3.5941
M15
G01X8.2528Y-3.5941
M16
G05
G00X8.2331Y-3.6941
M15
G01X8.2528Y-3.6941
M16
G05
G00X8.2331Y-3.7941
M15
G01X8.2528Y-3.7941
M16
G05
G00X8.2331Y-3.8941
M15
G01X8.2528Y-3.8941
M16
G05
G00X8.2331Y-3.9941
M15
G01X8.2528Y-3.9941
M16
G05
G00X8.2331Y-4.0941
M15
G01X8.2528Y-4.0941
M16
G05
G00X8.2331Y-4.1941
M15
G01X8.2528Y-4.1941
M16
G05
G00X8.2331Y-4.2941
M15
G01X8.2528Y-4.2941
M16
G05
G00X8.2331Y-4.3941
M15
G01X8.2528Y-4.3941
M16
G05
G00X8.2331Y-4.4941
M15
G01X8.2528Y-4.4941
M16
G05
G00X8.2331Y-4.5941
M15
G01X8.2528Y-4.5941
M16
G05
G00X8.2331Y-4.6941
M15
G01X8.2528Y-4.6941
M16
G05
G00X8.2331Y-4.7941
M15
G01X8.2528Y-4.7941
M16
G05
G00X8.2331Y-4.8941
M15
G01X8.2528Y-4.8941
M16
G05
G00X8.2331Y-4.9941
M15
G01X8.2528Y-4.9941
M16
G05
G00X8.2331Y-5.0941
M15
G01X8.2528Y-5.0941
M16
G05
G00X8.2331Y-5.1941
M15
G01X8.2528Y-5.1941
M16
G05
G00X8.2331Y-5.2941
M15
G01X8.2528Y-5.2941
M16
G05
G00X8.2331Y-5.3941
M15
G01X8.2528Y-5.3941
M16
G05
G00X8.2331Y-5.4941
M15
G01X8.2528Y-5.4941
M16
G05
G00X8.2331Y-5.5941
M15
G01X8.2528Y-5.5941
M16
G05
G00X8.2331Y-5.6941
M15
G01X8.2528Y-5.6941
M16
G05
G00X8.2331Y-5.7941
M15
G01X8.2528Y-5.7941
M16
G05
G00X8.2331Y-5.8941
M15
G01X8.2528Y-5.8941
M16
G05
G00X8.2331Y-5.9941
M15
G01X8.2528Y-5.9941
M16
G05
G00X8.2331Y-6.0941
M15
G01X8.2528Y-6.0941
M16
G05
G00X8.2331Y-6.1941
M15
G01X8.2528Y-6.1941
M16
G05
G00X8.2331Y-6.2941
M15
G01X8.2528Y-6.2941
M16
G05
M30
