G04 #@! TF.GenerationSoftware,KiCad,Pcbnew,9.0.1+1*
G04 #@! TF.CreationDate,2025-11-12T15:12:09+00:00*
G04 #@! TF.ProjectId,lcd-panel,6c63642d-7061-46e6-956c-2e6b69636164,rev?*
G04 #@! TF.SameCoordinates,Original*
G04 #@! TF.FileFunction,Paste,Top*
G04 #@! TF.FilePolarity,Positive*
%FSLAX46Y46*%
G04 Gerber Fmt 4.6, Leading zero omitted, Abs format (unit mm)*
G04 Created by KiCad (PCBNEW 9.0.1+1) date 2025-11-12 15:12:09*
%MOMM*%
%LPD*%
G01*
G04 APERTURE LIST*
%ADD10C,0.000000*%
%ADD11R,1.800000X4.500000*%
%ADD12R,0.599999X0.249999*%
%ADD13R,0.249999X0.599999*%
%ADD14R,1.000000X0.300000*%
%ADD15R,1.300000X2.000000*%
G04 APERTURE END LIST*
D10*
G36*
X118430002Y-76720001D02*
G01*
X117282001Y-76720001D01*
X117282001Y-75572000D01*
X118430002Y-75572000D01*
X118430002Y-76720001D01*
G37*
G36*
X118430002Y-78068000D02*
G01*
X117282001Y-78068000D01*
X117282001Y-76919998D01*
X118430002Y-76919998D01*
X118430002Y-78068000D01*
G37*
G36*
X119778001Y-76720001D02*
G01*
X118629999Y-76720001D01*
X118629999Y-75572000D01*
X119778001Y-75572000D01*
X119778001Y-76720001D01*
G37*
G36*
X119778001Y-78068000D02*
G01*
X118629999Y-78068000D01*
X118629999Y-76919998D01*
X119778001Y-76919998D01*
X119778001Y-78068000D01*
G37*
G36*
G01*
X111249998Y-75770001D02*
X111249998Y-75020001D01*
G75*
G02*
X111474998Y-74795001I225000J0D01*
G01*
X111924998Y-74795001D01*
G75*
G02*
X112149998Y-75020001I0J-225000D01*
G01*
X112149998Y-75770001D01*
G75*
G02*
X111924998Y-75995001I-225000J0D01*
G01*
X111474998Y-75995001D01*
G75*
G02*
X111249998Y-75770001I0J225000D01*
G01*
G37*
G36*
G01*
X114549998Y-75770001D02*
X114549998Y-75020001D01*
G75*
G02*
X114774998Y-74795001I225000J0D01*
G01*
X115224998Y-74795001D01*
G75*
G02*
X115449998Y-75020001I0J-225000D01*
G01*
X115449998Y-75770001D01*
G75*
G02*
X115224998Y-75995001I-225000J0D01*
G01*
X114774998Y-75995001D01*
G75*
G02*
X114549998Y-75770001I0J225000D01*
G01*
G37*
G36*
G01*
X119062498Y-70395001D02*
X119537498Y-70395001D01*
G75*
G02*
X119774998Y-70632501I0J-237500D01*
G01*
X119774998Y-71132501D01*
G75*
G02*
X119537498Y-71370001I-237500J0D01*
G01*
X119062498Y-71370001D01*
G75*
G02*
X118824998Y-71132501I0J237500D01*
G01*
X118824998Y-70632501D01*
G75*
G02*
X119062498Y-70395001I237500J0D01*
G01*
G37*
G36*
G01*
X119062498Y-72220001D02*
X119537498Y-72220001D01*
G75*
G02*
X119774998Y-72457501I0J-237500D01*
G01*
X119774998Y-72957501D01*
G75*
G02*
X119537498Y-73195001I-237500J0D01*
G01*
X119062498Y-73195001D01*
G75*
G02*
X118824998Y-72957501I0J237500D01*
G01*
X118824998Y-72457501D01*
G75*
G02*
X119062498Y-72220001I237500J0D01*
G01*
G37*
G36*
G01*
X117442498Y-70385001D02*
X117917498Y-70385001D01*
G75*
G02*
X118154998Y-70622501I0J-237500D01*
G01*
X118154998Y-71222501D01*
G75*
G02*
X117917498Y-71460001I-237500J0D01*
G01*
X117442498Y-71460001D01*
G75*
G02*
X117204998Y-71222501I0J237500D01*
G01*
X117204998Y-70622501D01*
G75*
G02*
X117442498Y-70385001I237500J0D01*
G01*
G37*
G36*
G01*
X117442498Y-72110001D02*
X117917498Y-72110001D01*
G75*
G02*
X118154998Y-72347501I0J-237500D01*
G01*
X118154998Y-72947501D01*
G75*
G02*
X117917498Y-73185001I-237500J0D01*
G01*
X117442498Y-73185001D01*
G75*
G02*
X117204998Y-72947501I0J237500D01*
G01*
X117204998Y-72347501D01*
G75*
G02*
X117442498Y-72110001I237500J0D01*
G01*
G37*
D11*
X115539998Y-71385001D03*
X112239998Y-71385001D03*
D12*
X116630001Y-75570001D03*
X116630001Y-76070000D03*
X116630001Y-76570001D03*
X116630001Y-77070001D03*
X116630001Y-77570002D03*
X116630001Y-78070001D03*
D13*
X117280000Y-78720000D03*
X117779999Y-78720000D03*
X118280000Y-78720000D03*
X118779999Y-78720000D03*
X119280001Y-78720000D03*
X119780000Y-78720000D03*
D12*
X120429998Y-78070001D03*
X120429998Y-77570002D03*
X120429998Y-77070001D03*
X120429998Y-76570001D03*
X120429998Y-76070000D03*
X120429998Y-75570001D03*
D13*
X119780000Y-74920002D03*
X119280001Y-74920002D03*
X118779999Y-74920002D03*
X118280000Y-74920002D03*
X117779999Y-74920002D03*
X117280000Y-74920002D03*
D14*
X117600000Y-86139999D03*
X117600000Y-86639998D03*
X117600000Y-87140000D03*
X117600000Y-87639999D03*
X117600000Y-88140000D03*
X117600000Y-88639999D03*
X117600000Y-89139998D03*
X117600000Y-89640000D03*
X117600000Y-90139999D03*
X117600000Y-90639998D03*
X117600000Y-91139999D03*
X117600000Y-91639998D03*
X117600000Y-92140000D03*
X117600000Y-92639999D03*
X117600000Y-93139998D03*
X117600000Y-93639999D03*
X117600000Y-94139998D03*
X117600000Y-94640000D03*
X117600000Y-95139999D03*
X117600000Y-95639998D03*
X117600000Y-96140000D03*
X117600000Y-96639998D03*
X117600000Y-97140000D03*
X117600000Y-97639999D03*
X117600000Y-98139998D03*
X117600000Y-98640000D03*
X117600000Y-99139999D03*
X117600000Y-99640000D03*
X117600000Y-100139999D03*
X117600000Y-100639998D03*
X117600000Y-101140000D03*
X117600000Y-101639999D03*
X117600000Y-102140000D03*
X117600000Y-102639999D03*
X117600000Y-103139998D03*
X117600000Y-103640000D03*
X117600000Y-104139999D03*
X117600000Y-104640000D03*
X117600000Y-105139999D03*
X117600000Y-105639998D03*
D15*
X114900001Y-83840019D03*
X114900001Y-107939981D03*
G36*
G01*
X112649998Y-77592501D02*
X112649998Y-77117501D01*
G75*
G02*
X112887498Y-76880001I237500J0D01*
G01*
X113487498Y-76880001D01*
G75*
G02*
X113724998Y-77117501I0J-237500D01*
G01*
X113724998Y-77592501D01*
G75*
G02*
X113487498Y-77830001I-237500J0D01*
G01*
X112887498Y-77830001D01*
G75*
G02*
X112649998Y-77592501I0J237500D01*
G01*
G37*
G36*
G01*
X114374998Y-77592501D02*
X114374998Y-77117501D01*
G75*
G02*
X114612498Y-76880001I237500J0D01*
G01*
X115212498Y-76880001D01*
G75*
G02*
X115449998Y-77117501I0J-237500D01*
G01*
X115449998Y-77592501D01*
G75*
G02*
X115212498Y-77830001I-237500J0D01*
G01*
X114612498Y-77830001D01*
G75*
G02*
X114374998Y-77592501I0J237500D01*
G01*
G37*
D14*
X97599999Y-114299998D03*
X97599999Y-114799997D03*
X97599999Y-115299998D03*
X97599999Y-115799998D03*
X97599999Y-116299999D03*
X97599999Y-116799998D03*
D15*
X94900000Y-112000000D03*
X94900000Y-119099996D03*
G36*
G01*
X121132500Y-70460000D02*
X121607500Y-70460000D01*
G75*
G02*
X121845000Y-70697500I0J-237500D01*
G01*
X121845000Y-71297500D01*
G75*
G02*
X121607500Y-71535000I-237500J0D01*
G01*
X121132500Y-71535000D01*
G75*
G02*
X120895000Y-71297500I0J237500D01*
G01*
X120895000Y-70697500D01*
G75*
G02*
X121132500Y-70460000I237500J0D01*
G01*
G37*
G36*
G01*
X121132500Y-72185000D02*
X121607500Y-72185000D01*
G75*
G02*
X121845000Y-72422500I0J-237500D01*
G01*
X121845000Y-73022500D01*
G75*
G02*
X121607500Y-73260000I-237500J0D01*
G01*
X121132500Y-73260000D01*
G75*
G02*
X120895000Y-73022500I0J237500D01*
G01*
X120895000Y-72422500D01*
G75*
G02*
X121132500Y-72185000I237500J0D01*
G01*
G37*
M02*
