G04 #@! TF.GenerationSoftware,KiCad,Pcbnew,9.0.1+1*
G04 #@! TF.CreationDate,2025-11-12T15:34:49+00:00*
G04 #@! TF.ProjectId,lcd-panel,6c63642d-7061-46e6-956c-2e6b69636164,rev?*
G04 #@! TF.SameCoordinates,Original*
G04 #@! TF.FileFunction,Legend,Top*
G04 #@! TF.FilePolarity,Positive*
%FSLAX46Y46*%
G04 Gerber Fmt 4.6, Leading zero omitted, Abs format (unit mm)*
G04 Created by KiCad (PCBNEW 9.0.1+1) date 2025-11-12 15:34:49*
%MOMM*%
%LPD*%
G01*
G04 APERTURE LIST*
%ADD10C,0.100000*%
%ADD11C,0.150000*%
%ADD12C,0.254000*%
%ADD13C,0.050000*%
%ADD14C,0.120000*%
%ADD15C,0.200000*%
%ADD16C,0.152400*%
%ADD17R,2.540000X2.000000*%
%ADD18R,1.800000X4.500000*%
%ADD19R,0.599999X0.249999*%
%ADD20R,0.249999X0.599999*%
%ADD21C,0.500000*%
%ADD22R,2.600000X2.600000*%
%ADD23R,1.000000X0.300000*%
%ADD24R,1.300000X2.000000*%
G04 APERTURE END LIST*
D10*
X107590476Y-144067419D02*
X107590476Y-143067419D01*
X107590476Y-143067419D02*
X107923809Y-143781704D01*
X107923809Y-143781704D02*
X108257142Y-143067419D01*
X108257142Y-143067419D02*
X108257142Y-144067419D01*
X108685714Y-143162657D02*
X108733333Y-143115038D01*
X108733333Y-143115038D02*
X108828571Y-143067419D01*
X108828571Y-143067419D02*
X109066666Y-143067419D01*
X109066666Y-143067419D02*
X109161904Y-143115038D01*
X109161904Y-143115038D02*
X109209523Y-143162657D01*
X109209523Y-143162657D02*
X109257142Y-143257895D01*
X109257142Y-143257895D02*
X109257142Y-143353133D01*
X109257142Y-143353133D02*
X109209523Y-143495990D01*
X109209523Y-143495990D02*
X108638095Y-144067419D01*
X108638095Y-144067419D02*
X109257142Y-144067419D01*
D11*
X109241903Y-76059820D02*
X109241903Y-75059820D01*
X109241903Y-75059820D02*
X109479998Y-75059820D01*
X109479998Y-75059820D02*
X109622855Y-75107439D01*
X109622855Y-75107439D02*
X109718093Y-75202677D01*
X109718093Y-75202677D02*
X109765712Y-75297915D01*
X109765712Y-75297915D02*
X109813331Y-75488391D01*
X109813331Y-75488391D02*
X109813331Y-75631248D01*
X109813331Y-75631248D02*
X109765712Y-75821724D01*
X109765712Y-75821724D02*
X109718093Y-75916962D01*
X109718093Y-75916962D02*
X109622855Y-76012201D01*
X109622855Y-76012201D02*
X109479998Y-76059820D01*
X109479998Y-76059820D02*
X109241903Y-76059820D01*
X110765712Y-76059820D02*
X110194284Y-76059820D01*
X110479998Y-76059820D02*
X110479998Y-75059820D01*
X110479998Y-75059820D02*
X110384760Y-75202677D01*
X110384760Y-75202677D02*
X110289522Y-75297915D01*
X110289522Y-75297915D02*
X110194284Y-75345534D01*
X119824817Y-69211667D02*
X119348626Y-69545000D01*
X119824817Y-69783095D02*
X118824817Y-69783095D01*
X118824817Y-69783095D02*
X118824817Y-69402143D01*
X118824817Y-69402143D02*
X118872436Y-69306905D01*
X118872436Y-69306905D02*
X118920055Y-69259286D01*
X118920055Y-69259286D02*
X119015293Y-69211667D01*
X119015293Y-69211667D02*
X119158150Y-69211667D01*
X119158150Y-69211667D02*
X119253388Y-69259286D01*
X119253388Y-69259286D02*
X119301007Y-69306905D01*
X119301007Y-69306905D02*
X119348626Y-69402143D01*
X119348626Y-69402143D02*
X119348626Y-69783095D01*
X119824817Y-68259286D02*
X119824817Y-68830714D01*
X119824817Y-68545000D02*
X118824817Y-68545000D01*
X118824817Y-68545000D02*
X118967674Y-68640238D01*
X118967674Y-68640238D02*
X119062912Y-68735476D01*
X119062912Y-68735476D02*
X119110531Y-68830714D01*
X118069578Y-69181667D02*
X118117198Y-69229286D01*
X118117198Y-69229286D02*
X118164817Y-69372143D01*
X118164817Y-69372143D02*
X118164817Y-69467381D01*
X118164817Y-69467381D02*
X118117198Y-69610238D01*
X118117198Y-69610238D02*
X118021959Y-69705476D01*
X118021959Y-69705476D02*
X117926721Y-69753095D01*
X117926721Y-69753095D02*
X117736245Y-69800714D01*
X117736245Y-69800714D02*
X117593388Y-69800714D01*
X117593388Y-69800714D02*
X117402912Y-69753095D01*
X117402912Y-69753095D02*
X117307674Y-69705476D01*
X117307674Y-69705476D02*
X117212436Y-69610238D01*
X117212436Y-69610238D02*
X117164817Y-69467381D01*
X117164817Y-69467381D02*
X117164817Y-69372143D01*
X117164817Y-69372143D02*
X117212436Y-69229286D01*
X117212436Y-69229286D02*
X117260055Y-69181667D01*
X117260055Y-68800714D02*
X117212436Y-68753095D01*
X117212436Y-68753095D02*
X117164817Y-68657857D01*
X117164817Y-68657857D02*
X117164817Y-68419762D01*
X117164817Y-68419762D02*
X117212436Y-68324524D01*
X117212436Y-68324524D02*
X117260055Y-68276905D01*
X117260055Y-68276905D02*
X117355293Y-68229286D01*
X117355293Y-68229286D02*
X117450531Y-68229286D01*
X117450531Y-68229286D02*
X117593388Y-68276905D01*
X117593388Y-68276905D02*
X118164817Y-68848333D01*
X118164817Y-68848333D02*
X118164817Y-68229286D01*
D12*
X113868331Y-68829319D02*
X113263569Y-68829319D01*
X113263569Y-68829319D02*
X113263569Y-67559319D01*
X114956903Y-68829319D02*
X114231188Y-68829319D01*
X114594045Y-68829319D02*
X114594045Y-67559319D01*
X114594045Y-67559319D02*
X114473093Y-67740747D01*
X114473093Y-67740747D02*
X114352141Y-67861700D01*
X114352141Y-67861700D02*
X114231188Y-67922176D01*
D11*
X119238092Y-79374820D02*
X119238092Y-80184343D01*
X119238092Y-80184343D02*
X119285711Y-80279581D01*
X119285711Y-80279581D02*
X119333330Y-80327201D01*
X119333330Y-80327201D02*
X119428568Y-80374820D01*
X119428568Y-80374820D02*
X119619044Y-80374820D01*
X119619044Y-80374820D02*
X119714282Y-80327201D01*
X119714282Y-80327201D02*
X119761901Y-80279581D01*
X119761901Y-80279581D02*
X119809520Y-80184343D01*
X119809520Y-80184343D02*
X119809520Y-79374820D01*
X120809520Y-80374820D02*
X120238092Y-80374820D01*
X120523806Y-80374820D02*
X120523806Y-79374820D01*
X120523806Y-79374820D02*
X120428568Y-79517677D01*
X120428568Y-79517677D02*
X120333330Y-79612915D01*
X120333330Y-79612915D02*
X120238092Y-79660534D01*
X115695180Y-95556666D02*
X114980895Y-95556666D01*
X114980895Y-95556666D02*
X114838038Y-95509047D01*
X114838038Y-95509047D02*
X114742800Y-95413809D01*
X114742800Y-95413809D02*
X114695180Y-95270952D01*
X114695180Y-95270952D02*
X114695180Y-95175714D01*
X115599942Y-95985238D02*
X115647561Y-96032857D01*
X115647561Y-96032857D02*
X115695180Y-96128095D01*
X115695180Y-96128095D02*
X115695180Y-96366190D01*
X115695180Y-96366190D02*
X115647561Y-96461428D01*
X115647561Y-96461428D02*
X115599942Y-96509047D01*
X115599942Y-96509047D02*
X115504704Y-96556666D01*
X115504704Y-96556666D02*
X115409466Y-96556666D01*
X115409466Y-96556666D02*
X115266609Y-96509047D01*
X115266609Y-96509047D02*
X114695180Y-95937619D01*
X114695180Y-95937619D02*
X114695180Y-96556666D01*
X120439530Y-91842380D02*
X120439530Y-91366190D01*
X120439530Y-91366190D02*
X119963340Y-91318571D01*
X119963340Y-91318571D02*
X120010959Y-91366190D01*
X120010959Y-91366190D02*
X120058578Y-91461428D01*
X120058578Y-91461428D02*
X120058578Y-91699523D01*
X120058578Y-91699523D02*
X120010959Y-91794761D01*
X120010959Y-91794761D02*
X119963340Y-91842380D01*
X119963340Y-91842380D02*
X119868102Y-91889999D01*
X119868102Y-91889999D02*
X119630007Y-91889999D01*
X119630007Y-91889999D02*
X119534769Y-91842380D01*
X119534769Y-91842380D02*
X119487150Y-91794761D01*
X119487150Y-91794761D02*
X119439530Y-91699523D01*
X119439530Y-91699523D02*
X119439530Y-91461428D01*
X119439530Y-91461428D02*
X119487150Y-91366190D01*
X119487150Y-91366190D02*
X119534769Y-91318571D01*
X120439530Y-92509047D02*
X120439530Y-92604285D01*
X120439530Y-92604285D02*
X120391911Y-92699523D01*
X120391911Y-92699523D02*
X120344292Y-92747142D01*
X120344292Y-92747142D02*
X120249054Y-92794761D01*
X120249054Y-92794761D02*
X120058578Y-92842380D01*
X120058578Y-92842380D02*
X119820483Y-92842380D01*
X119820483Y-92842380D02*
X119630007Y-92794761D01*
X119630007Y-92794761D02*
X119534769Y-92747142D01*
X119534769Y-92747142D02*
X119487150Y-92699523D01*
X119487150Y-92699523D02*
X119439530Y-92604285D01*
X119439530Y-92604285D02*
X119439530Y-92509047D01*
X119439530Y-92509047D02*
X119487150Y-92413809D01*
X119487150Y-92413809D02*
X119534769Y-92366190D01*
X119534769Y-92366190D02*
X119630007Y-92318571D01*
X119630007Y-92318571D02*
X119820483Y-92270952D01*
X119820483Y-92270952D02*
X120058578Y-92270952D01*
X120058578Y-92270952D02*
X120249054Y-92318571D01*
X120249054Y-92318571D02*
X120344292Y-92366190D01*
X120344292Y-92366190D02*
X120391911Y-92413809D01*
X120391911Y-92413809D02*
X120439530Y-92509047D01*
X120439530Y-93747142D02*
X120439530Y-93270952D01*
X120439530Y-93270952D02*
X119963340Y-93223333D01*
X119963340Y-93223333D02*
X120010959Y-93270952D01*
X120010959Y-93270952D02*
X120058578Y-93366190D01*
X120058578Y-93366190D02*
X120058578Y-93604285D01*
X120058578Y-93604285D02*
X120010959Y-93699523D01*
X120010959Y-93699523D02*
X119963340Y-93747142D01*
X119963340Y-93747142D02*
X119868102Y-93794761D01*
X119868102Y-93794761D02*
X119630007Y-93794761D01*
X119630007Y-93794761D02*
X119534769Y-93747142D01*
X119534769Y-93747142D02*
X119487150Y-93699523D01*
X119487150Y-93699523D02*
X119439530Y-93604285D01*
X119439530Y-93604285D02*
X119439530Y-93366190D01*
X119439530Y-93366190D02*
X119487150Y-93270952D01*
X119487150Y-93270952D02*
X119534769Y-93223333D01*
X119439530Y-94747142D02*
X119439530Y-94175714D01*
X119439530Y-94461428D02*
X120439530Y-94461428D01*
X120439530Y-94461428D02*
X120296673Y-94366190D01*
X120296673Y-94366190D02*
X120201435Y-94270952D01*
X120201435Y-94270952D02*
X120153816Y-94175714D01*
X119439530Y-95699523D02*
X119439530Y-95128095D01*
X119439530Y-95413809D02*
X120439530Y-95413809D01*
X120439530Y-95413809D02*
X120296673Y-95318571D01*
X120296673Y-95318571D02*
X120201435Y-95223333D01*
X120201435Y-95223333D02*
X120153816Y-95128095D01*
X120439530Y-96318571D02*
X120439530Y-96413809D01*
X120439530Y-96413809D02*
X120391911Y-96509047D01*
X120391911Y-96509047D02*
X120344292Y-96556666D01*
X120344292Y-96556666D02*
X120249054Y-96604285D01*
X120249054Y-96604285D02*
X120058578Y-96651904D01*
X120058578Y-96651904D02*
X119820483Y-96651904D01*
X119820483Y-96651904D02*
X119630007Y-96604285D01*
X119630007Y-96604285D02*
X119534769Y-96556666D01*
X119534769Y-96556666D02*
X119487150Y-96509047D01*
X119487150Y-96509047D02*
X119439530Y-96413809D01*
X119439530Y-96413809D02*
X119439530Y-96318571D01*
X119439530Y-96318571D02*
X119487150Y-96223333D01*
X119487150Y-96223333D02*
X119534769Y-96175714D01*
X119534769Y-96175714D02*
X119630007Y-96128095D01*
X119630007Y-96128095D02*
X119820483Y-96080476D01*
X119820483Y-96080476D02*
X120058578Y-96080476D01*
X120058578Y-96080476D02*
X120249054Y-96128095D01*
X120249054Y-96128095D02*
X120344292Y-96175714D01*
X120344292Y-96175714D02*
X120391911Y-96223333D01*
X120391911Y-96223333D02*
X120439530Y-96318571D01*
X120106197Y-97509047D02*
X119439530Y-97509047D01*
X120487150Y-97270952D02*
X119772864Y-97032857D01*
X119772864Y-97032857D02*
X119772864Y-97651904D01*
X120439530Y-98223333D02*
X120439530Y-98318571D01*
X120439530Y-98318571D02*
X120391911Y-98413809D01*
X120391911Y-98413809D02*
X120344292Y-98461428D01*
X120344292Y-98461428D02*
X120249054Y-98509047D01*
X120249054Y-98509047D02*
X120058578Y-98556666D01*
X120058578Y-98556666D02*
X119820483Y-98556666D01*
X119820483Y-98556666D02*
X119630007Y-98509047D01*
X119630007Y-98509047D02*
X119534769Y-98461428D01*
X119534769Y-98461428D02*
X119487150Y-98413809D01*
X119487150Y-98413809D02*
X119439530Y-98318571D01*
X119439530Y-98318571D02*
X119439530Y-98223333D01*
X119439530Y-98223333D02*
X119487150Y-98128095D01*
X119487150Y-98128095D02*
X119534769Y-98080476D01*
X119534769Y-98080476D02*
X119630007Y-98032857D01*
X119630007Y-98032857D02*
X119820483Y-97985238D01*
X119820483Y-97985238D02*
X120058578Y-97985238D01*
X120058578Y-97985238D02*
X120249054Y-98032857D01*
X120249054Y-98032857D02*
X120344292Y-98080476D01*
X120344292Y-98080476D02*
X120391911Y-98128095D01*
X120391911Y-98128095D02*
X120439530Y-98223333D01*
X119439530Y-99032857D02*
X119439530Y-99223333D01*
X119439530Y-99223333D02*
X119487150Y-99318571D01*
X119487150Y-99318571D02*
X119534769Y-99366190D01*
X119534769Y-99366190D02*
X119677626Y-99461428D01*
X119677626Y-99461428D02*
X119868102Y-99509047D01*
X119868102Y-99509047D02*
X120249054Y-99509047D01*
X120249054Y-99509047D02*
X120344292Y-99461428D01*
X120344292Y-99461428D02*
X120391911Y-99413809D01*
X120391911Y-99413809D02*
X120439530Y-99318571D01*
X120439530Y-99318571D02*
X120439530Y-99128095D01*
X120439530Y-99128095D02*
X120391911Y-99032857D01*
X120391911Y-99032857D02*
X120344292Y-98985238D01*
X120344292Y-98985238D02*
X120249054Y-98937619D01*
X120249054Y-98937619D02*
X120010959Y-98937619D01*
X120010959Y-98937619D02*
X119915721Y-98985238D01*
X119915721Y-98985238D02*
X119868102Y-99032857D01*
X119868102Y-99032857D02*
X119820483Y-99128095D01*
X119820483Y-99128095D02*
X119820483Y-99318571D01*
X119820483Y-99318571D02*
X119868102Y-99413809D01*
X119868102Y-99413809D02*
X119915721Y-99461428D01*
X119915721Y-99461428D02*
X120010959Y-99509047D01*
X119439530Y-100461428D02*
X119439530Y-99890000D01*
X119439530Y-100175714D02*
X120439530Y-100175714D01*
X120439530Y-100175714D02*
X120296673Y-100080476D01*
X120296673Y-100080476D02*
X120201435Y-99985238D01*
X120201435Y-99985238D02*
X120153816Y-99890000D01*
X111323331Y-77814581D02*
X111275712Y-77862201D01*
X111275712Y-77862201D02*
X111132855Y-77909820D01*
X111132855Y-77909820D02*
X111037617Y-77909820D01*
X111037617Y-77909820D02*
X110894760Y-77862201D01*
X110894760Y-77862201D02*
X110799522Y-77766962D01*
X110799522Y-77766962D02*
X110751903Y-77671724D01*
X110751903Y-77671724D02*
X110704284Y-77481248D01*
X110704284Y-77481248D02*
X110704284Y-77338391D01*
X110704284Y-77338391D02*
X110751903Y-77147915D01*
X110751903Y-77147915D02*
X110799522Y-77052677D01*
X110799522Y-77052677D02*
X110894760Y-76957439D01*
X110894760Y-76957439D02*
X111037617Y-76909820D01*
X111037617Y-76909820D02*
X111132855Y-76909820D01*
X111132855Y-76909820D02*
X111275712Y-76957439D01*
X111275712Y-76957439D02*
X111323331Y-77005058D01*
X111656665Y-76909820D02*
X112275712Y-76909820D01*
X112275712Y-76909820D02*
X111942379Y-77290772D01*
X111942379Y-77290772D02*
X112085236Y-77290772D01*
X112085236Y-77290772D02*
X112180474Y-77338391D01*
X112180474Y-77338391D02*
X112228093Y-77386010D01*
X112228093Y-77386010D02*
X112275712Y-77481248D01*
X112275712Y-77481248D02*
X112275712Y-77719343D01*
X112275712Y-77719343D02*
X112228093Y-77814581D01*
X112228093Y-77814581D02*
X112180474Y-77862201D01*
X112180474Y-77862201D02*
X112085236Y-77909820D01*
X112085236Y-77909820D02*
X111799522Y-77909820D01*
X111799522Y-77909820D02*
X111704284Y-77862201D01*
X111704284Y-77862201D02*
X111656665Y-77814581D01*
X95695179Y-115216664D02*
X94980894Y-115216664D01*
X94980894Y-115216664D02*
X94838037Y-115169045D01*
X94838037Y-115169045D02*
X94742799Y-115073807D01*
X94742799Y-115073807D02*
X94695179Y-114930950D01*
X94695179Y-114930950D02*
X94695179Y-114835712D01*
X94695179Y-116216664D02*
X94695179Y-115645236D01*
X94695179Y-115930950D02*
X95695179Y-115930950D01*
X95695179Y-115930950D02*
X95552322Y-115835712D01*
X95552322Y-115835712D02*
X95457084Y-115740474D01*
X95457084Y-115740474D02*
X95409465Y-115645236D01*
X101365179Y-111762378D02*
X101365179Y-111286188D01*
X101365179Y-111286188D02*
X100888989Y-111238569D01*
X100888989Y-111238569D02*
X100936608Y-111286188D01*
X100936608Y-111286188D02*
X100984227Y-111381426D01*
X100984227Y-111381426D02*
X100984227Y-111619521D01*
X100984227Y-111619521D02*
X100936608Y-111714759D01*
X100936608Y-111714759D02*
X100888989Y-111762378D01*
X100888989Y-111762378D02*
X100793751Y-111809997D01*
X100793751Y-111809997D02*
X100555656Y-111809997D01*
X100555656Y-111809997D02*
X100460418Y-111762378D01*
X100460418Y-111762378D02*
X100412799Y-111714759D01*
X100412799Y-111714759D02*
X100365179Y-111619521D01*
X100365179Y-111619521D02*
X100365179Y-111381426D01*
X100365179Y-111381426D02*
X100412799Y-111286188D01*
X100412799Y-111286188D02*
X100460418Y-111238569D01*
X101365179Y-112429045D02*
X101365179Y-112524283D01*
X101365179Y-112524283D02*
X101317560Y-112619521D01*
X101317560Y-112619521D02*
X101269941Y-112667140D01*
X101269941Y-112667140D02*
X101174703Y-112714759D01*
X101174703Y-112714759D02*
X100984227Y-112762378D01*
X100984227Y-112762378D02*
X100746132Y-112762378D01*
X100746132Y-112762378D02*
X100555656Y-112714759D01*
X100555656Y-112714759D02*
X100460418Y-112667140D01*
X100460418Y-112667140D02*
X100412799Y-112619521D01*
X100412799Y-112619521D02*
X100365179Y-112524283D01*
X100365179Y-112524283D02*
X100365179Y-112429045D01*
X100365179Y-112429045D02*
X100412799Y-112333807D01*
X100412799Y-112333807D02*
X100460418Y-112286188D01*
X100460418Y-112286188D02*
X100555656Y-112238569D01*
X100555656Y-112238569D02*
X100746132Y-112190950D01*
X100746132Y-112190950D02*
X100984227Y-112190950D01*
X100984227Y-112190950D02*
X101174703Y-112238569D01*
X101174703Y-112238569D02*
X101269941Y-112286188D01*
X101269941Y-112286188D02*
X101317560Y-112333807D01*
X101317560Y-112333807D02*
X101365179Y-112429045D01*
X101365179Y-113667140D02*
X101365179Y-113190950D01*
X101365179Y-113190950D02*
X100888989Y-113143331D01*
X100888989Y-113143331D02*
X100936608Y-113190950D01*
X100936608Y-113190950D02*
X100984227Y-113286188D01*
X100984227Y-113286188D02*
X100984227Y-113524283D01*
X100984227Y-113524283D02*
X100936608Y-113619521D01*
X100936608Y-113619521D02*
X100888989Y-113667140D01*
X100888989Y-113667140D02*
X100793751Y-113714759D01*
X100793751Y-113714759D02*
X100555656Y-113714759D01*
X100555656Y-113714759D02*
X100460418Y-113667140D01*
X100460418Y-113667140D02*
X100412799Y-113619521D01*
X100412799Y-113619521D02*
X100365179Y-113524283D01*
X100365179Y-113524283D02*
X100365179Y-113286188D01*
X100365179Y-113286188D02*
X100412799Y-113190950D01*
X100412799Y-113190950D02*
X100460418Y-113143331D01*
X100365179Y-114667140D02*
X100365179Y-114095712D01*
X100365179Y-114381426D02*
X101365179Y-114381426D01*
X101365179Y-114381426D02*
X101222322Y-114286188D01*
X101222322Y-114286188D02*
X101127084Y-114190950D01*
X101127084Y-114190950D02*
X101079465Y-114095712D01*
X100365179Y-115619521D02*
X100365179Y-115048093D01*
X100365179Y-115333807D02*
X101365179Y-115333807D01*
X101365179Y-115333807D02*
X101222322Y-115238569D01*
X101222322Y-115238569D02*
X101127084Y-115143331D01*
X101127084Y-115143331D02*
X101079465Y-115048093D01*
X101365179Y-116238569D02*
X101365179Y-116333807D01*
X101365179Y-116333807D02*
X101317560Y-116429045D01*
X101317560Y-116429045D02*
X101269941Y-116476664D01*
X101269941Y-116476664D02*
X101174703Y-116524283D01*
X101174703Y-116524283D02*
X100984227Y-116571902D01*
X100984227Y-116571902D02*
X100746132Y-116571902D01*
X100746132Y-116571902D02*
X100555656Y-116524283D01*
X100555656Y-116524283D02*
X100460418Y-116476664D01*
X100460418Y-116476664D02*
X100412799Y-116429045D01*
X100412799Y-116429045D02*
X100365179Y-116333807D01*
X100365179Y-116333807D02*
X100365179Y-116238569D01*
X100365179Y-116238569D02*
X100412799Y-116143331D01*
X100412799Y-116143331D02*
X100460418Y-116095712D01*
X100460418Y-116095712D02*
X100555656Y-116048093D01*
X100555656Y-116048093D02*
X100746132Y-116000474D01*
X100746132Y-116000474D02*
X100984227Y-116000474D01*
X100984227Y-116000474D02*
X101174703Y-116048093D01*
X101174703Y-116048093D02*
X101269941Y-116095712D01*
X101269941Y-116095712D02*
X101317560Y-116143331D01*
X101317560Y-116143331D02*
X101365179Y-116238569D01*
X101365179Y-117190950D02*
X101365179Y-117286188D01*
X101365179Y-117286188D02*
X101317560Y-117381426D01*
X101317560Y-117381426D02*
X101269941Y-117429045D01*
X101269941Y-117429045D02*
X101174703Y-117476664D01*
X101174703Y-117476664D02*
X100984227Y-117524283D01*
X100984227Y-117524283D02*
X100746132Y-117524283D01*
X100746132Y-117524283D02*
X100555656Y-117476664D01*
X100555656Y-117476664D02*
X100460418Y-117429045D01*
X100460418Y-117429045D02*
X100412799Y-117381426D01*
X100412799Y-117381426D02*
X100365179Y-117286188D01*
X100365179Y-117286188D02*
X100365179Y-117190950D01*
X100365179Y-117190950D02*
X100412799Y-117095712D01*
X100412799Y-117095712D02*
X100460418Y-117048093D01*
X100460418Y-117048093D02*
X100555656Y-117000474D01*
X100555656Y-117000474D02*
X100746132Y-116952855D01*
X100746132Y-116952855D02*
X100984227Y-116952855D01*
X100984227Y-116952855D02*
X101174703Y-117000474D01*
X101174703Y-117000474D02*
X101269941Y-117048093D01*
X101269941Y-117048093D02*
X101317560Y-117095712D01*
X101317560Y-117095712D02*
X101365179Y-117190950D01*
X101365179Y-118381426D02*
X101365179Y-118190950D01*
X101365179Y-118190950D02*
X101317560Y-118095712D01*
X101317560Y-118095712D02*
X101269941Y-118048093D01*
X101269941Y-118048093D02*
X101127084Y-117952855D01*
X101127084Y-117952855D02*
X100936608Y-117905236D01*
X100936608Y-117905236D02*
X100555656Y-117905236D01*
X100555656Y-117905236D02*
X100460418Y-117952855D01*
X100460418Y-117952855D02*
X100412799Y-118000474D01*
X100412799Y-118000474D02*
X100365179Y-118095712D01*
X100365179Y-118095712D02*
X100365179Y-118286188D01*
X100365179Y-118286188D02*
X100412799Y-118381426D01*
X100412799Y-118381426D02*
X100460418Y-118429045D01*
X100460418Y-118429045D02*
X100555656Y-118476664D01*
X100555656Y-118476664D02*
X100793751Y-118476664D01*
X100793751Y-118476664D02*
X100888989Y-118429045D01*
X100888989Y-118429045D02*
X100936608Y-118381426D01*
X100936608Y-118381426D02*
X100984227Y-118286188D01*
X100984227Y-118286188D02*
X100984227Y-118095712D01*
X100984227Y-118095712D02*
X100936608Y-118000474D01*
X100936608Y-118000474D02*
X100888989Y-117952855D01*
X100888989Y-117952855D02*
X100793751Y-117905236D01*
X100365179Y-118952855D02*
X100365179Y-119143331D01*
X100365179Y-119143331D02*
X100412799Y-119238569D01*
X100412799Y-119238569D02*
X100460418Y-119286188D01*
X100460418Y-119286188D02*
X100603275Y-119381426D01*
X100603275Y-119381426D02*
X100793751Y-119429045D01*
X100793751Y-119429045D02*
X101174703Y-119429045D01*
X101174703Y-119429045D02*
X101269941Y-119381426D01*
X101269941Y-119381426D02*
X101317560Y-119333807D01*
X101317560Y-119333807D02*
X101365179Y-119238569D01*
X101365179Y-119238569D02*
X101365179Y-119048093D01*
X101365179Y-119048093D02*
X101317560Y-118952855D01*
X101317560Y-118952855D02*
X101269941Y-118905236D01*
X101269941Y-118905236D02*
X101174703Y-118857617D01*
X101174703Y-118857617D02*
X100936608Y-118857617D01*
X100936608Y-118857617D02*
X100841370Y-118905236D01*
X100841370Y-118905236D02*
X100793751Y-118952855D01*
X100793751Y-118952855D02*
X100746132Y-119048093D01*
X100746132Y-119048093D02*
X100746132Y-119238569D01*
X100746132Y-119238569D02*
X100793751Y-119333807D01*
X100793751Y-119333807D02*
X100841370Y-119381426D01*
X100841370Y-119381426D02*
X100936608Y-119429045D01*
X101269941Y-119809998D02*
X101317560Y-119857617D01*
X101317560Y-119857617D02*
X101365179Y-119952855D01*
X101365179Y-119952855D02*
X101365179Y-120190950D01*
X101365179Y-120190950D02*
X101317560Y-120286188D01*
X101317560Y-120286188D02*
X101269941Y-120333807D01*
X101269941Y-120333807D02*
X101174703Y-120381426D01*
X101174703Y-120381426D02*
X101079465Y-120381426D01*
X101079465Y-120381426D02*
X100936608Y-120333807D01*
X100936608Y-120333807D02*
X100365179Y-119762379D01*
X100365179Y-119762379D02*
X100365179Y-120381426D01*
X121889580Y-74586666D02*
X121937200Y-74634285D01*
X121937200Y-74634285D02*
X121984819Y-74777142D01*
X121984819Y-74777142D02*
X121984819Y-74872380D01*
X121984819Y-74872380D02*
X121937200Y-75015237D01*
X121937200Y-75015237D02*
X121841961Y-75110475D01*
X121841961Y-75110475D02*
X121746723Y-75158094D01*
X121746723Y-75158094D02*
X121556247Y-75205713D01*
X121556247Y-75205713D02*
X121413390Y-75205713D01*
X121413390Y-75205713D02*
X121222914Y-75158094D01*
X121222914Y-75158094D02*
X121127676Y-75110475D01*
X121127676Y-75110475D02*
X121032438Y-75015237D01*
X121032438Y-75015237D02*
X120984819Y-74872380D01*
X120984819Y-74872380D02*
X120984819Y-74777142D01*
X120984819Y-74777142D02*
X121032438Y-74634285D01*
X121032438Y-74634285D02*
X121080057Y-74586666D01*
X121984819Y-73634285D02*
X121984819Y-74205713D01*
X121984819Y-73919999D02*
X120984819Y-73919999D01*
X120984819Y-73919999D02*
X121127676Y-74015237D01*
X121127676Y-74015237D02*
X121222914Y-74110475D01*
X121222914Y-74110475D02*
X121270533Y-74205713D01*
D13*
X88390000Y-70830000D02*
X88400000Y-89720000D01*
X93100000Y-139210000D02*
X123750000Y-139210000D01*
X124140000Y-52570000D02*
X91820000Y-52570000D01*
D14*
X110989998Y-74395001D02*
X110989998Y-76395001D01*
X110989998Y-74395001D02*
X114999998Y-74395001D01*
X110989998Y-76395001D02*
X114999998Y-76395001D01*
X118777498Y-71540277D02*
X118777498Y-72049725D01*
X119822498Y-71540277D02*
X119822498Y-72049725D01*
X117169998Y-71638734D02*
X117169998Y-71931268D01*
X118189998Y-71638734D02*
X118189998Y-71931268D01*
D15*
X116305000Y-74595002D02*
X116954999Y-74595002D01*
X116305000Y-75245000D02*
X116305000Y-74595002D01*
X116305000Y-79045000D02*
X116305000Y-78845001D01*
X116305000Y-79045000D02*
X116505000Y-79045000D01*
X120554999Y-74595002D02*
X120754999Y-74595002D01*
X120554999Y-79045000D02*
X120754999Y-79045000D01*
X120754999Y-74795001D02*
X120754999Y-74595002D01*
X120754999Y-79045000D02*
X120754999Y-78845001D01*
D16*
X112500000Y-83140026D02*
X112500000Y-108639974D01*
X112500000Y-108639974D02*
X113929961Y-108639974D01*
X113929961Y-83140026D02*
X112500000Y-83140026D01*
X115870040Y-108639974D02*
X117800000Y-108639974D01*
X117800000Y-83140026D02*
X115870040Y-83140026D01*
X117800000Y-85669959D02*
X117800000Y-83140026D01*
X117800000Y-108639974D02*
X117800000Y-106110038D01*
X119886000Y-85299026D02*
X118870000Y-86061026D01*
X119886000Y-85299026D02*
X119886000Y-86696026D01*
X119886000Y-86696026D02*
X118870000Y-86061026D01*
D14*
X113903731Y-76845001D02*
X114196265Y-76845001D01*
X113903731Y-77865001D02*
X114196265Y-77865001D01*
D16*
X92499999Y-111300007D02*
X92499999Y-119799989D01*
X92499999Y-119799989D02*
X93929960Y-119799989D01*
X93929960Y-111300007D02*
X92499999Y-111300007D01*
X95870039Y-119799989D02*
X97799999Y-119799989D01*
X97799999Y-111300007D02*
X95870039Y-111300007D01*
X97799999Y-113829958D02*
X97799999Y-111300007D01*
X97799999Y-119799989D02*
X97799999Y-117270038D01*
X99885999Y-113459006D02*
X98869999Y-114221007D01*
X99885999Y-113459006D02*
X99885999Y-114856006D01*
X99885999Y-114856006D02*
X98869999Y-114221007D01*
D14*
X120860000Y-71713733D02*
X120860000Y-72006267D01*
X121880000Y-71713733D02*
X121880000Y-72006267D01*
%LPC*%
D17*
X88400000Y-51440000D03*
G36*
G01*
X90725000Y-51065000D02*
X90725000Y-51815000D01*
G75*
G02*
X90475000Y-52065000I-250000J0D01*
G01*
X89725000Y-52065000D01*
G75*
G02*
X89475000Y-51815000I0J250000D01*
G01*
X89475000Y-51065000D01*
G75*
G02*
X89725000Y-50815000I250000J0D01*
G01*
X90475000Y-50815000D01*
G75*
G02*
X90725000Y-51065000I0J-250000D01*
G01*
G37*
X88400000Y-53980000D03*
G36*
G01*
X90725000Y-53605000D02*
X90725000Y-54355000D01*
G75*
G02*
X90475000Y-54605000I-250000J0D01*
G01*
X89725000Y-54605000D01*
G75*
G02*
X89475000Y-54355000I0J250000D01*
G01*
X89475000Y-53605000D01*
G75*
G02*
X89725000Y-53355000I250000J0D01*
G01*
X90475000Y-53355000D01*
G75*
G02*
X90725000Y-53605000I0J-250000D01*
G01*
G37*
X88400000Y-56520000D03*
G36*
G01*
X90725000Y-56145000D02*
X90725000Y-56895000D01*
G75*
G02*
X90475000Y-57145000I-250000J0D01*
G01*
X89725000Y-57145000D01*
G75*
G02*
X89475000Y-56895000I0J250000D01*
G01*
X89475000Y-56145000D01*
G75*
G02*
X89725000Y-55895000I250000J0D01*
G01*
X90475000Y-55895000D01*
G75*
G02*
X90725000Y-56145000I0J-250000D01*
G01*
G37*
X88400000Y-59060000D03*
G36*
G01*
X90725000Y-58685000D02*
X90725000Y-59435000D01*
G75*
G02*
X90475000Y-59685000I-250000J0D01*
G01*
X89725000Y-59685000D01*
G75*
G02*
X89475000Y-59435000I0J250000D01*
G01*
X89475000Y-58685000D01*
G75*
G02*
X89725000Y-58435000I250000J0D01*
G01*
X90475000Y-58435000D01*
G75*
G02*
X90725000Y-58685000I0J-250000D01*
G01*
G37*
X88400000Y-61600000D03*
G36*
G01*
X90725000Y-61225000D02*
X90725000Y-61975000D01*
G75*
G02*
X90475000Y-62225000I-250000J0D01*
G01*
X89725000Y-62225000D01*
G75*
G02*
X89475000Y-61975000I0J250000D01*
G01*
X89475000Y-61225000D01*
G75*
G02*
X89725000Y-60975000I250000J0D01*
G01*
X90475000Y-60975000D01*
G75*
G02*
X90725000Y-61225000I0J-250000D01*
G01*
G37*
X88400000Y-64140000D03*
G36*
G01*
X90725000Y-63765000D02*
X90725000Y-64515000D01*
G75*
G02*
X90475000Y-64765000I-250000J0D01*
G01*
X89725000Y-64765000D01*
G75*
G02*
X89475000Y-64515000I0J250000D01*
G01*
X89475000Y-63765000D01*
G75*
G02*
X89725000Y-63515000I250000J0D01*
G01*
X90475000Y-63515000D01*
G75*
G02*
X90725000Y-63765000I0J-250000D01*
G01*
G37*
X88400000Y-66680000D03*
G36*
G01*
X90725000Y-66305000D02*
X90725000Y-67055000D01*
G75*
G02*
X90475000Y-67305000I-250000J0D01*
G01*
X89725000Y-67305000D01*
G75*
G02*
X89475000Y-67055000I0J250000D01*
G01*
X89475000Y-66305000D01*
G75*
G02*
X89725000Y-66055000I250000J0D01*
G01*
X90475000Y-66055000D01*
G75*
G02*
X90725000Y-66305000I0J-250000D01*
G01*
G37*
X88400000Y-69220000D03*
G36*
G01*
X90725000Y-68845000D02*
X90725000Y-69595000D01*
G75*
G02*
X90475000Y-69845000I-250000J0D01*
G01*
X89725000Y-69845000D01*
G75*
G02*
X89475000Y-69595000I0J250000D01*
G01*
X89475000Y-68845000D01*
G75*
G02*
X89725000Y-68595000I250000J0D01*
G01*
X90475000Y-68595000D01*
G75*
G02*
X90725000Y-68845000I0J-250000D01*
G01*
G37*
X88400000Y-92080000D03*
G36*
G01*
X90725000Y-91705000D02*
X90725000Y-92455000D01*
G75*
G02*
X90475000Y-92705000I-250000J0D01*
G01*
X89725000Y-92705000D01*
G75*
G02*
X89475000Y-92455000I0J250000D01*
G01*
X89475000Y-91705000D01*
G75*
G02*
X89725000Y-91455000I250000J0D01*
G01*
X90475000Y-91455000D01*
G75*
G02*
X90725000Y-91705000I0J-250000D01*
G01*
G37*
X88400000Y-94620000D03*
G36*
G01*
X90725000Y-94245000D02*
X90725000Y-94995000D01*
G75*
G02*
X90475000Y-95245000I-250000J0D01*
G01*
X89725000Y-95245000D01*
G75*
G02*
X89475000Y-94995000I0J250000D01*
G01*
X89475000Y-94245000D01*
G75*
G02*
X89725000Y-93995000I250000J0D01*
G01*
X90475000Y-93995000D01*
G75*
G02*
X90725000Y-94245000I0J-250000D01*
G01*
G37*
X88400000Y-97160000D03*
G36*
G01*
X90725000Y-96785000D02*
X90725000Y-97535000D01*
G75*
G02*
X90475000Y-97785000I-250000J0D01*
G01*
X89725000Y-97785000D01*
G75*
G02*
X89475000Y-97535000I0J250000D01*
G01*
X89475000Y-96785000D01*
G75*
G02*
X89725000Y-96535000I250000J0D01*
G01*
X90475000Y-96535000D01*
G75*
G02*
X90725000Y-96785000I0J-250000D01*
G01*
G37*
X88400000Y-99700000D03*
G36*
G01*
X90725000Y-99325000D02*
X90725000Y-100075000D01*
G75*
G02*
X90475000Y-100325000I-250000J0D01*
G01*
X89725000Y-100325000D01*
G75*
G02*
X89475000Y-100075000I0J250000D01*
G01*
X89475000Y-99325000D01*
G75*
G02*
X89725000Y-99075000I250000J0D01*
G01*
X90475000Y-99075000D01*
G75*
G02*
X90725000Y-99325000I0J-250000D01*
G01*
G37*
X88400000Y-102240000D03*
G36*
G01*
X90725000Y-101865000D02*
X90725000Y-102615000D01*
G75*
G02*
X90475000Y-102865000I-250000J0D01*
G01*
X89725000Y-102865000D01*
G75*
G02*
X89475000Y-102615000I0J250000D01*
G01*
X89475000Y-101865000D01*
G75*
G02*
X89725000Y-101615000I250000J0D01*
G01*
X90475000Y-101615000D01*
G75*
G02*
X90725000Y-101865000I0J-250000D01*
G01*
G37*
X88400000Y-104780000D03*
G36*
G01*
X90725000Y-104405000D02*
X90725000Y-105155000D01*
G75*
G02*
X90475000Y-105405000I-250000J0D01*
G01*
X89725000Y-105405000D01*
G75*
G02*
X89475000Y-105155000I0J250000D01*
G01*
X89475000Y-104405000D01*
G75*
G02*
X89725000Y-104155000I250000J0D01*
G01*
X90475000Y-104155000D01*
G75*
G02*
X90725000Y-104405000I0J-250000D01*
G01*
G37*
X88400000Y-107320000D03*
G36*
G01*
X90725000Y-106945000D02*
X90725000Y-107695000D01*
G75*
G02*
X90475000Y-107945000I-250000J0D01*
G01*
X89725000Y-107945000D01*
G75*
G02*
X89475000Y-107695000I0J250000D01*
G01*
X89475000Y-106945000D01*
G75*
G02*
X89725000Y-106695000I250000J0D01*
G01*
X90475000Y-106695000D01*
G75*
G02*
X90725000Y-106945000I0J-250000D01*
G01*
G37*
X88400000Y-109860000D03*
G36*
G01*
X90725000Y-109485000D02*
X90725000Y-110235000D01*
G75*
G02*
X90475000Y-110485000I-250000J0D01*
G01*
X89725000Y-110485000D01*
G75*
G02*
X89475000Y-110235000I0J250000D01*
G01*
X89475000Y-109485000D01*
G75*
G02*
X89725000Y-109235000I250000J0D01*
G01*
X90475000Y-109235000D01*
G75*
G02*
X90725000Y-109485000I0J-250000D01*
G01*
G37*
X88400000Y-112400000D03*
G36*
G01*
X90725000Y-112025000D02*
X90725000Y-112775000D01*
G75*
G02*
X90475000Y-113025000I-250000J0D01*
G01*
X89725000Y-113025000D01*
G75*
G02*
X89475000Y-112775000I0J250000D01*
G01*
X89475000Y-112025000D01*
G75*
G02*
X89725000Y-111775000I250000J0D01*
G01*
X90475000Y-111775000D01*
G75*
G02*
X90725000Y-112025000I0J-250000D01*
G01*
G37*
X88400000Y-114940000D03*
G36*
G01*
X90725000Y-114565000D02*
X90725000Y-115315000D01*
G75*
G02*
X90475000Y-115565000I-250000J0D01*
G01*
X89725000Y-115565000D01*
G75*
G02*
X89475000Y-115315000I0J250000D01*
G01*
X89475000Y-114565000D01*
G75*
G02*
X89725000Y-114315000I250000J0D01*
G01*
X90475000Y-114315000D01*
G75*
G02*
X90725000Y-114565000I0J-250000D01*
G01*
G37*
X88400000Y-117480000D03*
G36*
G01*
X90725000Y-117105000D02*
X90725000Y-117855000D01*
G75*
G02*
X90475000Y-118105000I-250000J0D01*
G01*
X89725000Y-118105000D01*
G75*
G02*
X89475000Y-117855000I0J250000D01*
G01*
X89475000Y-117105000D01*
G75*
G02*
X89725000Y-116855000I250000J0D01*
G01*
X90475000Y-116855000D01*
G75*
G02*
X90725000Y-117105000I0J-250000D01*
G01*
G37*
X88400000Y-120020000D03*
G36*
G01*
X90725000Y-119645000D02*
X90725000Y-120395000D01*
G75*
G02*
X90475000Y-120645000I-250000J0D01*
G01*
X89725000Y-120645000D01*
G75*
G02*
X89475000Y-120395000I0J250000D01*
G01*
X89475000Y-119645000D01*
G75*
G02*
X89725000Y-119395000I250000J0D01*
G01*
X90475000Y-119395000D01*
G75*
G02*
X90725000Y-119645000I0J-250000D01*
G01*
G37*
X88400000Y-122560000D03*
G36*
G01*
X90725000Y-122185000D02*
X90725000Y-122935000D01*
G75*
G02*
X90475000Y-123185000I-250000J0D01*
G01*
X89725000Y-123185000D01*
G75*
G02*
X89475000Y-122935000I0J250000D01*
G01*
X89475000Y-122185000D01*
G75*
G02*
X89725000Y-121935000I250000J0D01*
G01*
X90475000Y-121935000D01*
G75*
G02*
X90725000Y-122185000I0J-250000D01*
G01*
G37*
X88400000Y-125100000D03*
G36*
G01*
X90725000Y-124725000D02*
X90725000Y-125475000D01*
G75*
G02*
X90475000Y-125725000I-250000J0D01*
G01*
X89725000Y-125725000D01*
G75*
G02*
X89475000Y-125475000I0J250000D01*
G01*
X89475000Y-124725000D01*
G75*
G02*
X89725000Y-124475000I250000J0D01*
G01*
X90475000Y-124475000D01*
G75*
G02*
X90725000Y-124725000I0J-250000D01*
G01*
G37*
X88400000Y-127640000D03*
G36*
G01*
X90725000Y-127265000D02*
X90725000Y-128015000D01*
G75*
G02*
X90475000Y-128265000I-250000J0D01*
G01*
X89725000Y-128265000D01*
G75*
G02*
X89475000Y-128015000I0J250000D01*
G01*
X89475000Y-127265000D01*
G75*
G02*
X89725000Y-127015000I250000J0D01*
G01*
X90475000Y-127015000D01*
G75*
G02*
X90725000Y-127265000I0J-250000D01*
G01*
G37*
X88400000Y-130180000D03*
G36*
G01*
X90725000Y-129805000D02*
X90725000Y-130555000D01*
G75*
G02*
X90475000Y-130805000I-250000J0D01*
G01*
X89725000Y-130805000D01*
G75*
G02*
X89475000Y-130555000I0J250000D01*
G01*
X89475000Y-129805000D01*
G75*
G02*
X89725000Y-129555000I250000J0D01*
G01*
X90475000Y-129555000D01*
G75*
G02*
X90725000Y-129805000I0J-250000D01*
G01*
G37*
X88400000Y-132720000D03*
G36*
G01*
X90725000Y-132345000D02*
X90725000Y-133095000D01*
G75*
G02*
X90475000Y-133345000I-250000J0D01*
G01*
X89725000Y-133345000D01*
G75*
G02*
X89475000Y-133095000I0J250000D01*
G01*
X89475000Y-132345000D01*
G75*
G02*
X89725000Y-132095000I250000J0D01*
G01*
X90475000Y-132095000D01*
G75*
G02*
X90725000Y-132345000I0J-250000D01*
G01*
G37*
X88400000Y-135260000D03*
G36*
G01*
X90725000Y-134885000D02*
X90725000Y-135635000D01*
G75*
G02*
X90475000Y-135885000I-250000J0D01*
G01*
X89725000Y-135885000D01*
G75*
G02*
X89475000Y-135635000I0J250000D01*
G01*
X89475000Y-134885000D01*
G75*
G02*
X89725000Y-134635000I250000J0D01*
G01*
X90475000Y-134635000D01*
G75*
G02*
X90725000Y-134885000I0J-250000D01*
G01*
G37*
X88400000Y-137800000D03*
G36*
G01*
X90725000Y-137425000D02*
X90725000Y-138175000D01*
G75*
G02*
X90475000Y-138425000I-250000J0D01*
G01*
X89725000Y-138425000D01*
G75*
G02*
X89475000Y-138175000I0J250000D01*
G01*
X89475000Y-137425000D01*
G75*
G02*
X89725000Y-137175000I250000J0D01*
G01*
X90475000Y-137175000D01*
G75*
G02*
X90725000Y-137425000I0J-250000D01*
G01*
G37*
X88400000Y-140340000D03*
G36*
G01*
X90725000Y-139965000D02*
X90725000Y-140715000D01*
G75*
G02*
X90475000Y-140965000I-250000J0D01*
G01*
X89725000Y-140965000D01*
G75*
G02*
X89475000Y-140715000I0J250000D01*
G01*
X89475000Y-139965000D01*
G75*
G02*
X89725000Y-139715000I250000J0D01*
G01*
X90475000Y-139715000D01*
G75*
G02*
X90725000Y-139965000I0J-250000D01*
G01*
G37*
G36*
G01*
X127325000Y-51065000D02*
X127325000Y-51815000D01*
G75*
G02*
X127075000Y-52065000I-250000J0D01*
G01*
X126325000Y-52065000D01*
G75*
G02*
X126075000Y-51815000I0J250000D01*
G01*
X126075000Y-51065000D01*
G75*
G02*
X126325000Y-50815000I250000J0D01*
G01*
X127075000Y-50815000D01*
G75*
G02*
X127325000Y-51065000I0J-250000D01*
G01*
G37*
X128400000Y-51440000D03*
G36*
G01*
X127325000Y-53605000D02*
X127325000Y-54355000D01*
G75*
G02*
X127075000Y-54605000I-250000J0D01*
G01*
X126325000Y-54605000D01*
G75*
G02*
X126075000Y-54355000I0J250000D01*
G01*
X126075000Y-53605000D01*
G75*
G02*
X126325000Y-53355000I250000J0D01*
G01*
X127075000Y-53355000D01*
G75*
G02*
X127325000Y-53605000I0J-250000D01*
G01*
G37*
X128400000Y-53980000D03*
G36*
G01*
X127325000Y-56145000D02*
X127325000Y-56895000D01*
G75*
G02*
X127075000Y-57145000I-250000J0D01*
G01*
X126325000Y-57145000D01*
G75*
G02*
X126075000Y-56895000I0J250000D01*
G01*
X126075000Y-56145000D01*
G75*
G02*
X126325000Y-55895000I250000J0D01*
G01*
X127075000Y-55895000D01*
G75*
G02*
X127325000Y-56145000I0J-250000D01*
G01*
G37*
X128400000Y-56520000D03*
G36*
G01*
X127325000Y-58685000D02*
X127325000Y-59435000D01*
G75*
G02*
X127075000Y-59685000I-250000J0D01*
G01*
X126325000Y-59685000D01*
G75*
G02*
X126075000Y-59435000I0J250000D01*
G01*
X126075000Y-58685000D01*
G75*
G02*
X126325000Y-58435000I250000J0D01*
G01*
X127075000Y-58435000D01*
G75*
G02*
X127325000Y-58685000I0J-250000D01*
G01*
G37*
X128400000Y-59060000D03*
G36*
G01*
X127325000Y-61225000D02*
X127325000Y-61975000D01*
G75*
G02*
X127075000Y-62225000I-250000J0D01*
G01*
X126325000Y-62225000D01*
G75*
G02*
X126075000Y-61975000I0J250000D01*
G01*
X126075000Y-61225000D01*
G75*
G02*
X126325000Y-60975000I250000J0D01*
G01*
X127075000Y-60975000D01*
G75*
G02*
X127325000Y-61225000I0J-250000D01*
G01*
G37*
X128400000Y-61600000D03*
G36*
G01*
X127325000Y-63765000D02*
X127325000Y-64515000D01*
G75*
G02*
X127075000Y-64765000I-250000J0D01*
G01*
X126325000Y-64765000D01*
G75*
G02*
X126075000Y-64515000I0J250000D01*
G01*
X126075000Y-63765000D01*
G75*
G02*
X126325000Y-63515000I250000J0D01*
G01*
X127075000Y-63515000D01*
G75*
G02*
X127325000Y-63765000I0J-250000D01*
G01*
G37*
X128400000Y-64140000D03*
G36*
G01*
X127325000Y-66305000D02*
X127325000Y-67055000D01*
G75*
G02*
X127075000Y-67305000I-250000J0D01*
G01*
X126325000Y-67305000D01*
G75*
G02*
X126075000Y-67055000I0J250000D01*
G01*
X126075000Y-66305000D01*
G75*
G02*
X126325000Y-66055000I250000J0D01*
G01*
X127075000Y-66055000D01*
G75*
G02*
X127325000Y-66305000I0J-250000D01*
G01*
G37*
X128400000Y-66680000D03*
G36*
G01*
X127325000Y-68845000D02*
X127325000Y-69595000D01*
G75*
G02*
X127075000Y-69845000I-250000J0D01*
G01*
X126325000Y-69845000D01*
G75*
G02*
X126075000Y-69595000I0J250000D01*
G01*
X126075000Y-68845000D01*
G75*
G02*
X126325000Y-68595000I250000J0D01*
G01*
X127075000Y-68595000D01*
G75*
G02*
X127325000Y-68845000I0J-250000D01*
G01*
G37*
X128400000Y-69220000D03*
G36*
G01*
X127325000Y-71385000D02*
X127325000Y-72135000D01*
G75*
G02*
X127075000Y-72385000I-250000J0D01*
G01*
X126325000Y-72385000D01*
G75*
G02*
X126075000Y-72135000I0J250000D01*
G01*
X126075000Y-71385000D01*
G75*
G02*
X126325000Y-71135000I250000J0D01*
G01*
X127075000Y-71135000D01*
G75*
G02*
X127325000Y-71385000I0J-250000D01*
G01*
G37*
X128400000Y-71760000D03*
G36*
G01*
X127325000Y-73925000D02*
X127325000Y-74675000D01*
G75*
G02*
X127075000Y-74925000I-250000J0D01*
G01*
X126325000Y-74925000D01*
G75*
G02*
X126075000Y-74675000I0J250000D01*
G01*
X126075000Y-73925000D01*
G75*
G02*
X126325000Y-73675000I250000J0D01*
G01*
X127075000Y-73675000D01*
G75*
G02*
X127325000Y-73925000I0J-250000D01*
G01*
G37*
X128400000Y-74300000D03*
G36*
G01*
X127325000Y-76465000D02*
X127325000Y-77215000D01*
G75*
G02*
X127075000Y-77465000I-250000J0D01*
G01*
X126325000Y-77465000D01*
G75*
G02*
X126075000Y-77215000I0J250000D01*
G01*
X126075000Y-76465000D01*
G75*
G02*
X126325000Y-76215000I250000J0D01*
G01*
X127075000Y-76215000D01*
G75*
G02*
X127325000Y-76465000I0J-250000D01*
G01*
G37*
X128400000Y-76840000D03*
G36*
G01*
X127325000Y-79005000D02*
X127325000Y-79755000D01*
G75*
G02*
X127075000Y-80005000I-250000J0D01*
G01*
X126325000Y-80005000D01*
G75*
G02*
X126075000Y-79755000I0J250000D01*
G01*
X126075000Y-79005000D01*
G75*
G02*
X126325000Y-78755000I250000J0D01*
G01*
X127075000Y-78755000D01*
G75*
G02*
X127325000Y-79005000I0J-250000D01*
G01*
G37*
X128400000Y-79380000D03*
G36*
G01*
X127325000Y-81545000D02*
X127325000Y-82295000D01*
G75*
G02*
X127075000Y-82545000I-250000J0D01*
G01*
X126325000Y-82545000D01*
G75*
G02*
X126075000Y-82295000I0J250000D01*
G01*
X126075000Y-81545000D01*
G75*
G02*
X126325000Y-81295000I250000J0D01*
G01*
X127075000Y-81295000D01*
G75*
G02*
X127325000Y-81545000I0J-250000D01*
G01*
G37*
X128400000Y-81920000D03*
G36*
G01*
X127325000Y-84085000D02*
X127325000Y-84835000D01*
G75*
G02*
X127075000Y-85085000I-250000J0D01*
G01*
X126325000Y-85085000D01*
G75*
G02*
X126075000Y-84835000I0J250000D01*
G01*
X126075000Y-84085000D01*
G75*
G02*
X126325000Y-83835000I250000J0D01*
G01*
X127075000Y-83835000D01*
G75*
G02*
X127325000Y-84085000I0J-250000D01*
G01*
G37*
X128400000Y-84460000D03*
G36*
G01*
X127325000Y-86625000D02*
X127325000Y-87375000D01*
G75*
G02*
X127075000Y-87625000I-250000J0D01*
G01*
X126325000Y-87625000D01*
G75*
G02*
X126075000Y-87375000I0J250000D01*
G01*
X126075000Y-86625000D01*
G75*
G02*
X126325000Y-86375000I250000J0D01*
G01*
X127075000Y-86375000D01*
G75*
G02*
X127325000Y-86625000I0J-250000D01*
G01*
G37*
X128400000Y-87000000D03*
G36*
G01*
X127325000Y-89165000D02*
X127325000Y-89915000D01*
G75*
G02*
X127075000Y-90165000I-250000J0D01*
G01*
X126325000Y-90165000D01*
G75*
G02*
X126075000Y-89915000I0J250000D01*
G01*
X126075000Y-89165000D01*
G75*
G02*
X126325000Y-88915000I250000J0D01*
G01*
X127075000Y-88915000D01*
G75*
G02*
X127325000Y-89165000I0J-250000D01*
G01*
G37*
X128400000Y-89540000D03*
G36*
G01*
X127325000Y-91705000D02*
X127325000Y-92455000D01*
G75*
G02*
X127075000Y-92705000I-250000J0D01*
G01*
X126325000Y-92705000D01*
G75*
G02*
X126075000Y-92455000I0J250000D01*
G01*
X126075000Y-91705000D01*
G75*
G02*
X126325000Y-91455000I250000J0D01*
G01*
X127075000Y-91455000D01*
G75*
G02*
X127325000Y-91705000I0J-250000D01*
G01*
G37*
X128400000Y-92080000D03*
G36*
G01*
X127325000Y-94245000D02*
X127325000Y-94995000D01*
G75*
G02*
X127075000Y-95245000I-250000J0D01*
G01*
X126325000Y-95245000D01*
G75*
G02*
X126075000Y-94995000I0J250000D01*
G01*
X126075000Y-94245000D01*
G75*
G02*
X126325000Y-93995000I250000J0D01*
G01*
X127075000Y-93995000D01*
G75*
G02*
X127325000Y-94245000I0J-250000D01*
G01*
G37*
X128400000Y-94620000D03*
G36*
G01*
X127325000Y-96785000D02*
X127325000Y-97535000D01*
G75*
G02*
X127075000Y-97785000I-250000J0D01*
G01*
X126325000Y-97785000D01*
G75*
G02*
X126075000Y-97535000I0J250000D01*
G01*
X126075000Y-96785000D01*
G75*
G02*
X126325000Y-96535000I250000J0D01*
G01*
X127075000Y-96535000D01*
G75*
G02*
X127325000Y-96785000I0J-250000D01*
G01*
G37*
X128400000Y-97160000D03*
G36*
G01*
X127325000Y-99325000D02*
X127325000Y-100075000D01*
G75*
G02*
X127075000Y-100325000I-250000J0D01*
G01*
X126325000Y-100325000D01*
G75*
G02*
X126075000Y-100075000I0J250000D01*
G01*
X126075000Y-99325000D01*
G75*
G02*
X126325000Y-99075000I250000J0D01*
G01*
X127075000Y-99075000D01*
G75*
G02*
X127325000Y-99325000I0J-250000D01*
G01*
G37*
X128400000Y-99700000D03*
G36*
G01*
X127325000Y-101865000D02*
X127325000Y-102615000D01*
G75*
G02*
X127075000Y-102865000I-250000J0D01*
G01*
X126325000Y-102865000D01*
G75*
G02*
X126075000Y-102615000I0J250000D01*
G01*
X126075000Y-101865000D01*
G75*
G02*
X126325000Y-101615000I250000J0D01*
G01*
X127075000Y-101615000D01*
G75*
G02*
X127325000Y-101865000I0J-250000D01*
G01*
G37*
X128400000Y-102240000D03*
G36*
G01*
X127325000Y-104405000D02*
X127325000Y-105155000D01*
G75*
G02*
X127075000Y-105405000I-250000J0D01*
G01*
X126325000Y-105405000D01*
G75*
G02*
X126075000Y-105155000I0J250000D01*
G01*
X126075000Y-104405000D01*
G75*
G02*
X126325000Y-104155000I250000J0D01*
G01*
X127075000Y-104155000D01*
G75*
G02*
X127325000Y-104405000I0J-250000D01*
G01*
G37*
X128400000Y-104780000D03*
G36*
G01*
X127325000Y-106945000D02*
X127325000Y-107695000D01*
G75*
G02*
X127075000Y-107945000I-250000J0D01*
G01*
X126325000Y-107945000D01*
G75*
G02*
X126075000Y-107695000I0J250000D01*
G01*
X126075000Y-106945000D01*
G75*
G02*
X126325000Y-106695000I250000J0D01*
G01*
X127075000Y-106695000D01*
G75*
G02*
X127325000Y-106945000I0J-250000D01*
G01*
G37*
X128400000Y-107320000D03*
G36*
G01*
X127325000Y-109485000D02*
X127325000Y-110235000D01*
G75*
G02*
X127075000Y-110485000I-250000J0D01*
G01*
X126325000Y-110485000D01*
G75*
G02*
X126075000Y-110235000I0J250000D01*
G01*
X126075000Y-109485000D01*
G75*
G02*
X126325000Y-109235000I250000J0D01*
G01*
X127075000Y-109235000D01*
G75*
G02*
X127325000Y-109485000I0J-250000D01*
G01*
G37*
X128400000Y-109860000D03*
G36*
G01*
X127325000Y-112025000D02*
X127325000Y-112775000D01*
G75*
G02*
X127075000Y-113025000I-250000J0D01*
G01*
X126325000Y-113025000D01*
G75*
G02*
X126075000Y-112775000I0J250000D01*
G01*
X126075000Y-112025000D01*
G75*
G02*
X126325000Y-111775000I250000J0D01*
G01*
X127075000Y-111775000D01*
G75*
G02*
X127325000Y-112025000I0J-250000D01*
G01*
G37*
X128400000Y-112400000D03*
G36*
G01*
X127325000Y-114565000D02*
X127325000Y-115315000D01*
G75*
G02*
X127075000Y-115565000I-250000J0D01*
G01*
X126325000Y-115565000D01*
G75*
G02*
X126075000Y-115315000I0J250000D01*
G01*
X126075000Y-114565000D01*
G75*
G02*
X126325000Y-114315000I250000J0D01*
G01*
X127075000Y-114315000D01*
G75*
G02*
X127325000Y-114565000I0J-250000D01*
G01*
G37*
X128400000Y-114940000D03*
G36*
G01*
X127325000Y-117105000D02*
X127325000Y-117855000D01*
G75*
G02*
X127075000Y-118105000I-250000J0D01*
G01*
X126325000Y-118105000D01*
G75*
G02*
X126075000Y-117855000I0J250000D01*
G01*
X126075000Y-117105000D01*
G75*
G02*
X126325000Y-116855000I250000J0D01*
G01*
X127075000Y-116855000D01*
G75*
G02*
X127325000Y-117105000I0J-250000D01*
G01*
G37*
X128400000Y-117480000D03*
G36*
G01*
X127325000Y-119645000D02*
X127325000Y-120395000D01*
G75*
G02*
X127075000Y-120645000I-250000J0D01*
G01*
X126325000Y-120645000D01*
G75*
G02*
X126075000Y-120395000I0J250000D01*
G01*
X126075000Y-119645000D01*
G75*
G02*
X126325000Y-119395000I250000J0D01*
G01*
X127075000Y-119395000D01*
G75*
G02*
X127325000Y-119645000I0J-250000D01*
G01*
G37*
X128400000Y-120020000D03*
G36*
G01*
X127325000Y-122185000D02*
X127325000Y-122935000D01*
G75*
G02*
X127075000Y-123185000I-250000J0D01*
G01*
X126325000Y-123185000D01*
G75*
G02*
X126075000Y-122935000I0J250000D01*
G01*
X126075000Y-122185000D01*
G75*
G02*
X126325000Y-121935000I250000J0D01*
G01*
X127075000Y-121935000D01*
G75*
G02*
X127325000Y-122185000I0J-250000D01*
G01*
G37*
X128400000Y-122560000D03*
G36*
G01*
X127325000Y-124725000D02*
X127325000Y-125475000D01*
G75*
G02*
X127075000Y-125725000I-250000J0D01*
G01*
X126325000Y-125725000D01*
G75*
G02*
X126075000Y-125475000I0J250000D01*
G01*
X126075000Y-124725000D01*
G75*
G02*
X126325000Y-124475000I250000J0D01*
G01*
X127075000Y-124475000D01*
G75*
G02*
X127325000Y-124725000I0J-250000D01*
G01*
G37*
X128400000Y-125100000D03*
G36*
G01*
X127325000Y-127265000D02*
X127325000Y-128015000D01*
G75*
G02*
X127075000Y-128265000I-250000J0D01*
G01*
X126325000Y-128265000D01*
G75*
G02*
X126075000Y-128015000I0J250000D01*
G01*
X126075000Y-127265000D01*
G75*
G02*
X126325000Y-127015000I250000J0D01*
G01*
X127075000Y-127015000D01*
G75*
G02*
X127325000Y-127265000I0J-250000D01*
G01*
G37*
X128400000Y-127640000D03*
G36*
G01*
X127325000Y-129805000D02*
X127325000Y-130555000D01*
G75*
G02*
X127075000Y-130805000I-250000J0D01*
G01*
X126325000Y-130805000D01*
G75*
G02*
X126075000Y-130555000I0J250000D01*
G01*
X126075000Y-129805000D01*
G75*
G02*
X126325000Y-129555000I250000J0D01*
G01*
X127075000Y-129555000D01*
G75*
G02*
X127325000Y-129805000I0J-250000D01*
G01*
G37*
X128400000Y-130180000D03*
G36*
G01*
X127325000Y-132345000D02*
X127325000Y-133095000D01*
G75*
G02*
X127075000Y-133345000I-250000J0D01*
G01*
X126325000Y-133345000D01*
G75*
G02*
X126075000Y-133095000I0J250000D01*
G01*
X126075000Y-132345000D01*
G75*
G02*
X126325000Y-132095000I250000J0D01*
G01*
X127075000Y-132095000D01*
G75*
G02*
X127325000Y-132345000I0J-250000D01*
G01*
G37*
X128400000Y-132720000D03*
G36*
G01*
X127325000Y-134885000D02*
X127325000Y-135635000D01*
G75*
G02*
X127075000Y-135885000I-250000J0D01*
G01*
X126325000Y-135885000D01*
G75*
G02*
X126075000Y-135635000I0J250000D01*
G01*
X126075000Y-134885000D01*
G75*
G02*
X126325000Y-134635000I250000J0D01*
G01*
X127075000Y-134635000D01*
G75*
G02*
X127325000Y-134885000I0J-250000D01*
G01*
G37*
X128400000Y-135260000D03*
G36*
G01*
X127325000Y-137425000D02*
X127325000Y-138175000D01*
G75*
G02*
X127075000Y-138425000I-250000J0D01*
G01*
X126325000Y-138425000D01*
G75*
G02*
X126075000Y-138175000I0J250000D01*
G01*
X126075000Y-137425000D01*
G75*
G02*
X126325000Y-137175000I250000J0D01*
G01*
X127075000Y-137175000D01*
G75*
G02*
X127325000Y-137425000I0J-250000D01*
G01*
G37*
X128400000Y-137800000D03*
G36*
G01*
X127325000Y-139965000D02*
X127325000Y-140715000D01*
G75*
G02*
X127075000Y-140965000I-250000J0D01*
G01*
X126325000Y-140965000D01*
G75*
G02*
X126075000Y-140715000I0J250000D01*
G01*
X126075000Y-139965000D01*
G75*
G02*
X126325000Y-139715000I250000J0D01*
G01*
X127075000Y-139715000D01*
G75*
G02*
X127325000Y-139965000I0J-250000D01*
G01*
G37*
X128400000Y-140340000D03*
G36*
G01*
X111249998Y-75770001D02*
X111249998Y-75020001D01*
G75*
G02*
X111474998Y-74795001I225000J0D01*
G01*
X111924998Y-74795001D01*
G75*
G02*
X112149998Y-75020001I0J-225000D01*
G01*
X112149998Y-75770001D01*
G75*
G02*
X111924998Y-75995001I-225000J0D01*
G01*
X111474998Y-75995001D01*
G75*
G02*
X111249998Y-75770001I0J225000D01*
G01*
G37*
G36*
G01*
X114549998Y-75770001D02*
X114549998Y-75020001D01*
G75*
G02*
X114774998Y-74795001I225000J0D01*
G01*
X115224998Y-74795001D01*
G75*
G02*
X115449998Y-75020001I0J-225000D01*
G01*
X115449998Y-75770001D01*
G75*
G02*
X115224998Y-75995001I-225000J0D01*
G01*
X114774998Y-75995001D01*
G75*
G02*
X114549998Y-75770001I0J225000D01*
G01*
G37*
G36*
G01*
X119062498Y-70395001D02*
X119537498Y-70395001D01*
G75*
G02*
X119774998Y-70632501I0J-237500D01*
G01*
X119774998Y-71132501D01*
G75*
G02*
X119537498Y-71370001I-237500J0D01*
G01*
X119062498Y-71370001D01*
G75*
G02*
X118824998Y-71132501I0J237500D01*
G01*
X118824998Y-70632501D01*
G75*
G02*
X119062498Y-70395001I237500J0D01*
G01*
G37*
G36*
G01*
X119062498Y-72220001D02*
X119537498Y-72220001D01*
G75*
G02*
X119774998Y-72457501I0J-237500D01*
G01*
X119774998Y-72957501D01*
G75*
G02*
X119537498Y-73195001I-237500J0D01*
G01*
X119062498Y-73195001D01*
G75*
G02*
X118824998Y-72957501I0J237500D01*
G01*
X118824998Y-72457501D01*
G75*
G02*
X119062498Y-72220001I237500J0D01*
G01*
G37*
G36*
G01*
X117442498Y-70385001D02*
X117917498Y-70385001D01*
G75*
G02*
X118154998Y-70622501I0J-237500D01*
G01*
X118154998Y-71222501D01*
G75*
G02*
X117917498Y-71460001I-237500J0D01*
G01*
X117442498Y-71460001D01*
G75*
G02*
X117204998Y-71222501I0J237500D01*
G01*
X117204998Y-70622501D01*
G75*
G02*
X117442498Y-70385001I237500J0D01*
G01*
G37*
G36*
G01*
X117442498Y-72110001D02*
X117917498Y-72110001D01*
G75*
G02*
X118154998Y-72347501I0J-237500D01*
G01*
X118154998Y-72947501D01*
G75*
G02*
X117917498Y-73185001I-237500J0D01*
G01*
X117442498Y-73185001D01*
G75*
G02*
X117204998Y-72947501I0J237500D01*
G01*
X117204998Y-72347501D01*
G75*
G02*
X117442498Y-72110001I237500J0D01*
G01*
G37*
D18*
X115539998Y-71385001D03*
X112239998Y-71385001D03*
D19*
X116630001Y-75570001D03*
X116630001Y-76070000D03*
X116630001Y-76570001D03*
X116630001Y-77070001D03*
X116630001Y-77570002D03*
X116630001Y-78070001D03*
D20*
X117280000Y-78720000D03*
X117779999Y-78720000D03*
X118280000Y-78720000D03*
X118779999Y-78720000D03*
X119280001Y-78720000D03*
X119780000Y-78720000D03*
D19*
X120429998Y-78070001D03*
X120429998Y-77570002D03*
X120429998Y-77070001D03*
X120429998Y-76570001D03*
X120429998Y-76070000D03*
X120429998Y-75570001D03*
D20*
X119780000Y-74920002D03*
X119280001Y-74920002D03*
X118779999Y-74920002D03*
X118280000Y-74920002D03*
X117779999Y-74920002D03*
X117280000Y-74920002D03*
D21*
X117479999Y-76820001D03*
X118530000Y-75770001D03*
X118530000Y-76820001D03*
D22*
X118530000Y-76820001D03*
D21*
X118530000Y-77870001D03*
X119580000Y-76820001D03*
D23*
X117600000Y-86139999D03*
X117600000Y-86639998D03*
X117600000Y-87140000D03*
X117600000Y-87639999D03*
X117600000Y-88140000D03*
X117600000Y-88639999D03*
X117600000Y-89139998D03*
X117600000Y-89640000D03*
X117600000Y-90139999D03*
X117600000Y-90639998D03*
X117600000Y-91139999D03*
X117600000Y-91639998D03*
X117600000Y-92140000D03*
X117600000Y-92639999D03*
X117600000Y-93139998D03*
X117600000Y-93639999D03*
X117600000Y-94139998D03*
X117600000Y-94640000D03*
X117600000Y-95139999D03*
X117600000Y-95639998D03*
X117600000Y-96140000D03*
X117600000Y-96639998D03*
X117600000Y-97140000D03*
X117600000Y-97639999D03*
X117600000Y-98139998D03*
X117600000Y-98640000D03*
X117600000Y-99139999D03*
X117600000Y-99640000D03*
X117600000Y-100139999D03*
X117600000Y-100639998D03*
X117600000Y-101140000D03*
X117600000Y-101639999D03*
X117600000Y-102140000D03*
X117600000Y-102639999D03*
X117600000Y-103139998D03*
X117600000Y-103640000D03*
X117600000Y-104139999D03*
X117600000Y-104640000D03*
X117600000Y-105139999D03*
X117600000Y-105639998D03*
D24*
X114900001Y-83840019D03*
X114900001Y-107939981D03*
G36*
G01*
X112649998Y-77592501D02*
X112649998Y-77117501D01*
G75*
G02*
X112887498Y-76880001I237500J0D01*
G01*
X113487498Y-76880001D01*
G75*
G02*
X113724998Y-77117501I0J-237500D01*
G01*
X113724998Y-77592501D01*
G75*
G02*
X113487498Y-77830001I-237500J0D01*
G01*
X112887498Y-77830001D01*
G75*
G02*
X112649998Y-77592501I0J237500D01*
G01*
G37*
G36*
G01*
X114374998Y-77592501D02*
X114374998Y-77117501D01*
G75*
G02*
X114612498Y-76880001I237500J0D01*
G01*
X115212498Y-76880001D01*
G75*
G02*
X115449998Y-77117501I0J-237500D01*
G01*
X115449998Y-77592501D01*
G75*
G02*
X115212498Y-77830001I-237500J0D01*
G01*
X114612498Y-77830001D01*
G75*
G02*
X114374998Y-77592501I0J237500D01*
G01*
G37*
D23*
X97599999Y-114299998D03*
X97599999Y-114799997D03*
X97599999Y-115299998D03*
X97599999Y-115799998D03*
X97599999Y-116299999D03*
X97599999Y-116799998D03*
D24*
X94900000Y-112000000D03*
X94900000Y-119099996D03*
G36*
G01*
X121132500Y-70460000D02*
X121607500Y-70460000D01*
G75*
G02*
X121845000Y-70697500I0J-237500D01*
G01*
X121845000Y-71297500D01*
G75*
G02*
X121607500Y-71535000I-237500J0D01*
G01*
X121132500Y-71535000D01*
G75*
G02*
X120895000Y-71297500I0J237500D01*
G01*
X120895000Y-70697500D01*
G75*
G02*
X121132500Y-70460000I237500J0D01*
G01*
G37*
G36*
G01*
X121132500Y-72185000D02*
X121607500Y-72185000D01*
G75*
G02*
X121845000Y-72422500I0J-237500D01*
G01*
X121845000Y-73022500D01*
G75*
G02*
X121607500Y-73260000I-237500J0D01*
G01*
X121132500Y-73260000D01*
G75*
G02*
X120895000Y-73022500I0J237500D01*
G01*
X120895000Y-72422500D01*
G75*
G02*
X121132500Y-72185000I237500J0D01*
G01*
G37*
%LPD*%
M02*
