G04 #@! TF.GenerationSoftware,KiCad,Pcbnew,9.0.1+1*
G04 #@! TF.CreationDate,2025-11-25T11:40:34+00:00*
G04 #@! TF.ProjectId,lcd-panel,6c63642d-7061-46e6-956c-2e6b69636164,rev?*
G04 #@! TF.SameCoordinates,Original*
G04 #@! TF.FileFunction,Paste,Top*
G04 #@! TF.FilePolarity,Positive*
%FSLAX46Y46*%
G04 Gerber Fmt 4.6, Leading zero omitted, Abs format (unit mm)*
G04 Created by KiCad (PCBNEW 9.0.1+1) date 2025-11-25 11:40:34*
%MOMM*%
%LPD*%
G01*
G04 APERTURE LIST*
%ADD10C,0.000000*%
%ADD11R,1.800000X4.500000*%
%ADD12R,0.599999X0.249999*%
%ADD13R,0.249999X0.599999*%
%ADD14R,1.000000X0.300000*%
%ADD15R,1.300000X2.000000*%
G04 APERTURE END LIST*
D10*
G36*
X199400002Y-96250001D02*
G01*
X198252001Y-96250001D01*
X198252001Y-95102000D01*
X199400002Y-95102000D01*
X199400002Y-96250001D01*
G37*
G36*
X199400002Y-97598000D02*
G01*
X198252001Y-97598000D01*
X198252001Y-96449998D01*
X199400002Y-96449998D01*
X199400002Y-97598000D01*
G37*
G36*
X200748001Y-96250001D02*
G01*
X199599999Y-96250001D01*
X199599999Y-95102000D01*
X200748001Y-95102000D01*
X200748001Y-96250001D01*
G37*
G36*
X200748001Y-97598000D02*
G01*
X199599999Y-97598000D01*
X199599999Y-96449998D01*
X200748001Y-96449998D01*
X200748001Y-97598000D01*
G37*
G36*
G01*
X192219998Y-95300001D02*
X192219998Y-94550001D01*
G75*
G02*
X192444998Y-94325001I225000J0D01*
G01*
X192894998Y-94325001D01*
G75*
G02*
X193119998Y-94550001I0J-225000D01*
G01*
X193119998Y-95300001D01*
G75*
G02*
X192894998Y-95525001I-225000J0D01*
G01*
X192444998Y-95525001D01*
G75*
G02*
X192219998Y-95300001I0J225000D01*
G01*
G37*
G36*
G01*
X195519998Y-95300001D02*
X195519998Y-94550001D01*
G75*
G02*
X195744998Y-94325001I225000J0D01*
G01*
X196194998Y-94325001D01*
G75*
G02*
X196419998Y-94550001I0J-225000D01*
G01*
X196419998Y-95300001D01*
G75*
G02*
X196194998Y-95525001I-225000J0D01*
G01*
X195744998Y-95525001D01*
G75*
G02*
X195519998Y-95300001I0J225000D01*
G01*
G37*
G36*
G01*
X200032498Y-89925001D02*
X200507498Y-89925001D01*
G75*
G02*
X200744998Y-90162501I0J-237500D01*
G01*
X200744998Y-90662501D01*
G75*
G02*
X200507498Y-90900001I-237500J0D01*
G01*
X200032498Y-90900001D01*
G75*
G02*
X199794998Y-90662501I0J237500D01*
G01*
X199794998Y-90162501D01*
G75*
G02*
X200032498Y-89925001I237500J0D01*
G01*
G37*
G36*
G01*
X200032498Y-91750001D02*
X200507498Y-91750001D01*
G75*
G02*
X200744998Y-91987501I0J-237500D01*
G01*
X200744998Y-92487501D01*
G75*
G02*
X200507498Y-92725001I-237500J0D01*
G01*
X200032498Y-92725001D01*
G75*
G02*
X199794998Y-92487501I0J237500D01*
G01*
X199794998Y-91987501D01*
G75*
G02*
X200032498Y-91750001I237500J0D01*
G01*
G37*
G36*
G01*
X198412498Y-89915001D02*
X198887498Y-89915001D01*
G75*
G02*
X199124998Y-90152501I0J-237500D01*
G01*
X199124998Y-90752501D01*
G75*
G02*
X198887498Y-90990001I-237500J0D01*
G01*
X198412498Y-90990001D01*
G75*
G02*
X198174998Y-90752501I0J237500D01*
G01*
X198174998Y-90152501D01*
G75*
G02*
X198412498Y-89915001I237500J0D01*
G01*
G37*
G36*
G01*
X198412498Y-91640001D02*
X198887498Y-91640001D01*
G75*
G02*
X199124998Y-91877501I0J-237500D01*
G01*
X199124998Y-92477501D01*
G75*
G02*
X198887498Y-92715001I-237500J0D01*
G01*
X198412498Y-92715001D01*
G75*
G02*
X198174998Y-92477501I0J237500D01*
G01*
X198174998Y-91877501D01*
G75*
G02*
X198412498Y-91640001I237500J0D01*
G01*
G37*
D11*
X196509998Y-90915001D03*
X193209998Y-90915001D03*
D12*
X197600001Y-95100001D03*
X197600001Y-95600000D03*
X197600001Y-96100001D03*
X197600001Y-96600001D03*
X197600001Y-97100002D03*
X197600001Y-97600001D03*
D13*
X198250000Y-98250000D03*
X198749999Y-98250000D03*
X199250000Y-98250000D03*
X199749999Y-98250000D03*
X200250001Y-98250000D03*
X200750000Y-98250000D03*
D12*
X201399998Y-97600001D03*
X201399998Y-97100002D03*
X201399998Y-96600001D03*
X201399998Y-96100001D03*
X201399998Y-95600000D03*
X201399998Y-95100001D03*
D13*
X200750000Y-94450002D03*
X200250001Y-94450002D03*
X199749999Y-94450002D03*
X199250000Y-94450002D03*
X198749999Y-94450002D03*
X198250000Y-94450002D03*
D14*
X198570000Y-105669999D03*
X198570000Y-106169998D03*
X198570000Y-106670000D03*
X198570000Y-107169999D03*
X198570000Y-107670000D03*
X198570000Y-108169999D03*
X198570000Y-108669998D03*
X198570000Y-109170000D03*
X198570000Y-109669999D03*
X198570000Y-110169998D03*
X198570000Y-110669999D03*
X198570000Y-111169998D03*
X198570000Y-111670000D03*
X198570000Y-112169999D03*
X198570000Y-112669998D03*
X198570000Y-113169999D03*
X198570000Y-113669998D03*
X198570000Y-114170000D03*
X198570000Y-114669999D03*
X198570000Y-115169998D03*
X198570000Y-115670000D03*
X198570000Y-116169998D03*
X198570000Y-116670000D03*
X198570000Y-117169999D03*
X198570000Y-117669998D03*
X198570000Y-118170000D03*
X198570000Y-118669999D03*
X198570000Y-119170000D03*
X198570000Y-119669999D03*
X198570000Y-120169998D03*
X198570000Y-120670000D03*
X198570000Y-121169999D03*
X198570000Y-121670000D03*
X198570000Y-122169999D03*
X198570000Y-122669998D03*
X198570000Y-123170000D03*
X198570000Y-123669999D03*
X198570000Y-124170000D03*
X198570000Y-124669999D03*
X198570000Y-125169998D03*
D15*
X195870001Y-103370019D03*
X195870001Y-127469981D03*
G36*
G01*
X193619998Y-97122501D02*
X193619998Y-96647501D01*
G75*
G02*
X193857498Y-96410001I237500J0D01*
G01*
X194457498Y-96410001D01*
G75*
G02*
X194694998Y-96647501I0J-237500D01*
G01*
X194694998Y-97122501D01*
G75*
G02*
X194457498Y-97360001I-237500J0D01*
G01*
X193857498Y-97360001D01*
G75*
G02*
X193619998Y-97122501I0J237500D01*
G01*
G37*
G36*
G01*
X195344998Y-97122501D02*
X195344998Y-96647501D01*
G75*
G02*
X195582498Y-96410001I237500J0D01*
G01*
X196182498Y-96410001D01*
G75*
G02*
X196419998Y-96647501I0J-237500D01*
G01*
X196419998Y-97122501D01*
G75*
G02*
X196182498Y-97360001I-237500J0D01*
G01*
X195582498Y-97360001D01*
G75*
G02*
X195344998Y-97122501I0J237500D01*
G01*
G37*
D14*
X178569999Y-133829998D03*
X178569999Y-134329997D03*
X178569999Y-134829998D03*
X178569999Y-135329998D03*
X178569999Y-135829999D03*
X178569999Y-136329998D03*
D15*
X175870000Y-131530000D03*
X175870000Y-138629996D03*
G36*
G01*
X202102500Y-89990000D02*
X202577500Y-89990000D01*
G75*
G02*
X202815000Y-90227500I0J-237500D01*
G01*
X202815000Y-90827500D01*
G75*
G02*
X202577500Y-91065000I-237500J0D01*
G01*
X202102500Y-91065000D01*
G75*
G02*
X201865000Y-90827500I0J237500D01*
G01*
X201865000Y-90227500D01*
G75*
G02*
X202102500Y-89990000I237500J0D01*
G01*
G37*
G36*
G01*
X202102500Y-91715000D02*
X202577500Y-91715000D01*
G75*
G02*
X202815000Y-91952500I0J-237500D01*
G01*
X202815000Y-92552500D01*
G75*
G02*
X202577500Y-92790000I-237500J0D01*
G01*
X202102500Y-92790000D01*
G75*
G02*
X201865000Y-92552500I0J237500D01*
G01*
X201865000Y-91952500D01*
G75*
G02*
X202102500Y-91715000I237500J0D01*
G01*
G37*
M02*
