%TF.GenerationSoftware,KiCad,Pcbnew,9.0.1+dfsg-1*%
%TF.CreationDate,2025-05-01T10:56:30+02:00*%
%TF.ProjectId,audio-jack,61756469-6f2d-46a6-9163-6b2e6b696361,rev?*%
%TF.SameCoordinates,Original*%
%TF.FileFunction,Legend,Top*%
%TF.FilePolarity,Positive*%
%FSLAX46Y46*%
G04 Gerber Fmt 4.6, Leading zero omitted, Abs format (unit mm)*
G04 Created by KiCad (PCBNEW 9.0.1+dfsg-1) date 2025-05-01 10:56:30*
%MOMM*%
%LPD*%
G01*
G04 APERTURE LIST*
%ADD10C,0.150000*%
%ADD11C,0.100000*%
%ADD12C,0.120000*%
%ADD13C,0.127000*%
%ADD14C,0.200000*%
G04 APERTURE END LIST*
D10*
X40406666Y-32264819D02*
X40406666Y-32979104D01*
X40406666Y-32979104D02*
X40359047Y-33121961D01*
X40359047Y-33121961D02*
X40263809Y-33217200D01*
X40263809Y-33217200D02*
X40120952Y-33264819D01*
X40120952Y-33264819D02*
X40025714Y-33264819D01*
X41406666Y-33264819D02*
X40835238Y-33264819D01*
X41120952Y-33264819D02*
X41120952Y-32264819D01*
X41120952Y-32264819D02*
X41025714Y-32407676D01*
X41025714Y-32407676D02*
X40930476Y-32502914D01*
X40930476Y-32502914D02*
X40835238Y-32550533D01*
D11*
X52567419Y-32959523D02*
X51567419Y-32959523D01*
X51567419Y-32959523D02*
X52281704Y-32626190D01*
X52281704Y-32626190D02*
X51567419Y-32292857D01*
X51567419Y-32292857D02*
X52567419Y-32292857D01*
X52567419Y-31292857D02*
X52567419Y-31864285D01*
X52567419Y-31578571D02*
X51567419Y-31578571D01*
X51567419Y-31578571D02*
X51710276Y-31673809D01*
X51710276Y-31673809D02*
X51805514Y-31769047D01*
X51805514Y-31769047D02*
X51853133Y-31864285D01*
D10*
X49756666Y-40464819D02*
X49756666Y-41179104D01*
X49756666Y-41179104D02*
X49709047Y-41321961D01*
X49709047Y-41321961D02*
X49613809Y-41417200D01*
X49613809Y-41417200D02*
X49470952Y-41464819D01*
X49470952Y-41464819D02*
X49375714Y-41464819D01*
X50232857Y-41464819D02*
X50232857Y-40464819D01*
X50232857Y-40464819D02*
X50613809Y-40464819D01*
X50613809Y-40464819D02*
X50709047Y-40512438D01*
X50709047Y-40512438D02*
X50756666Y-40560057D01*
X50756666Y-40560057D02*
X50804285Y-40655295D01*
X50804285Y-40655295D02*
X50804285Y-40798152D01*
X50804285Y-40798152D02*
X50756666Y-40893390D01*
X50756666Y-40893390D02*
X50709047Y-40941009D01*
X50709047Y-40941009D02*
X50613809Y-40988628D01*
X50613809Y-40988628D02*
X50232857Y-40988628D01*
X51185238Y-40560057D02*
X51232857Y-40512438D01*
X51232857Y-40512438D02*
X51328095Y-40464819D01*
X51328095Y-40464819D02*
X51566190Y-40464819D01*
X51566190Y-40464819D02*
X51661428Y-40512438D01*
X51661428Y-40512438D02*
X51709047Y-40560057D01*
X51709047Y-40560057D02*
X51756666Y-40655295D01*
X51756666Y-40655295D02*
X51756666Y-40750533D01*
X51756666Y-40750533D02*
X51709047Y-40893390D01*
X51709047Y-40893390D02*
X51137619Y-41464819D01*
X51137619Y-41464819D02*
X51756666Y-41464819D01*
X45616666Y-40544819D02*
X45616666Y-41259104D01*
X45616666Y-41259104D02*
X45569047Y-41401961D01*
X45569047Y-41401961D02*
X45473809Y-41497200D01*
X45473809Y-41497200D02*
X45330952Y-41544819D01*
X45330952Y-41544819D02*
X45235714Y-41544819D01*
X46092857Y-41544819D02*
X46092857Y-40544819D01*
X46092857Y-40544819D02*
X46473809Y-40544819D01*
X46473809Y-40544819D02*
X46569047Y-40592438D01*
X46569047Y-40592438D02*
X46616666Y-40640057D01*
X46616666Y-40640057D02*
X46664285Y-40735295D01*
X46664285Y-40735295D02*
X46664285Y-40878152D01*
X46664285Y-40878152D02*
X46616666Y-40973390D01*
X46616666Y-40973390D02*
X46569047Y-41021009D01*
X46569047Y-41021009D02*
X46473809Y-41068628D01*
X46473809Y-41068628D02*
X46092857Y-41068628D01*
X47616666Y-41544819D02*
X47045238Y-41544819D01*
X47330952Y-41544819D02*
X47330952Y-40544819D01*
X47330952Y-40544819D02*
X47235714Y-40687676D01*
X47235714Y-40687676D02*
X47140476Y-40782914D01*
X47140476Y-40782914D02*
X47045238Y-40830533D01*
D12*
%TO.C,JP3*%
X41610000Y-43340000D02*
X41610000Y-42740000D01*
X42310000Y-42040000D02*
X43710000Y-42040000D01*
X43710000Y-44040000D02*
X42310000Y-44040000D01*
X44410000Y-42740000D02*
X44410000Y-43340000D01*
X41610000Y-42740000D02*
G75*
G02*
X42310000Y-42040000I699999J1D01*
G01*
X42310000Y-44040000D02*
G75*
G02*
X41610000Y-43340000I-1J699999D01*
G01*
X43710000Y-42040000D02*
G75*
G02*
X44410000Y-42740000I0J-700000D01*
G01*
X44410000Y-43340000D02*
G75*
G02*
X43710000Y-44040000I-700000J0D01*
G01*
D13*
%TO.C,J1*%
X40000000Y-33500000D02*
X40000000Y-38180000D01*
X43950000Y-33500000D02*
X40000000Y-33500000D01*
X44820000Y-40300000D02*
X46000000Y-40300000D01*
X46000000Y-39500000D02*
X51680000Y-39500000D01*
X46000000Y-40300000D02*
X46000000Y-39500000D01*
X54320000Y-39500000D02*
X55500000Y-39500000D01*
X55500000Y-33500000D02*
X46620000Y-33500000D01*
X55500000Y-39500000D02*
X55500000Y-33500000D01*
D14*
X40700000Y-42500000D02*
G75*
G02*
X40500000Y-42500000I-100000J0D01*
G01*
X40500000Y-42500000D02*
G75*
G02*
X40700000Y-42500000I100000J0D01*
G01*
D12*
%TO.C,JP2*%
X49640000Y-43310000D02*
X49640000Y-42710000D01*
X50340000Y-42010000D02*
X51740000Y-42010000D01*
X51740000Y-44010000D02*
X50340000Y-44010000D01*
X52440000Y-42710000D02*
X52440000Y-43310000D01*
X49640000Y-42710000D02*
G75*
G02*
X50340000Y-42010000I699999J1D01*
G01*
X50340000Y-44010000D02*
G75*
G02*
X49640000Y-43310000I-1J699999D01*
G01*
X51740000Y-42010000D02*
G75*
G02*
X52440000Y-42710000I0J-700000D01*
G01*
X52440000Y-43310000D02*
G75*
G02*
X51740000Y-44010000I-700000J0D01*
G01*
%TO.C,JP1*%
X44990000Y-43320000D02*
X44990000Y-42720000D01*
X45690000Y-42020000D02*
X47090000Y-42020000D01*
X47090000Y-44020000D02*
X45690000Y-44020000D01*
X47790000Y-42720000D02*
X47790000Y-43320000D01*
X44990000Y-42720000D02*
G75*
G02*
X45690000Y-42020000I699999J1D01*
G01*
X45690000Y-44020000D02*
G75*
G02*
X44990000Y-43320000I-1J699999D01*
G01*
X47090000Y-42020000D02*
G75*
G02*
X47790000Y-42720000I0J-700000D01*
G01*
X47790000Y-43320000D02*
G75*
G02*
X47090000Y-44020000I-700000J0D01*
G01*
%TD*%
M02*
