%TF.GenerationSoftware,KiCad,Pcbnew,9.0.1+dfsg-1*%
%TF.CreationDate,2025-05-01T10:56:30+02:00*%
%TF.ProjectId,audio-jack,61756469-6f2d-46a6-9163-6b2e6b696361,rev?*%
%TF.SameCoordinates,Original*%
%TF.FileFunction,Copper,L1,Top*%
%TF.FilePolarity,Positive*%
%FSLAX46Y46*%
G04 Gerber Fmt 4.6, Leading zero omitted, Abs format (unit mm)*
G04 Created by KiCad (PCBNEW 9.0.1+dfsg-1) date 2025-05-01 10:56:30*
%MOMM*%
%LPD*%
G01*
G04 APERTURE LIST*
G04 Aperture macros list*
%AMRoundRect*
0 Rectangle with rounded corners*
0 $1 Rounding radius*
0 $2 $3 $4 $5 $6 $7 $8 $9 X,Y pos of 4 corners*
0 Add a 4 corners polygon primitive as box body*
4,1,4,$2,$3,$4,$5,$6,$7,$8,$9,$2,$3,0*
0 Add four circle primitives for the rounded corners*
1,1,$1+$1,$2,$3*
1,1,$1+$1,$4,$5*
1,1,$1+$1,$6,$7*
1,1,$1+$1,$8,$9*
0 Add four rect primitives between the rounded corners*
20,1,$1+$1,$2,$3,$4,$5,0*
20,1,$1+$1,$4,$5,$6,$7,0*
20,1,$1+$1,$6,$7,$8,$9,0*
20,1,$1+$1,$8,$9,$2,$3,0*%
%AMFreePoly0*
4,1,23,0.500000,-0.750000,0.000000,-0.750000,0.000000,-0.745722,-0.065263,-0.745722,-0.191342,-0.711940,-0.304381,-0.646677,-0.396677,-0.554381,-0.461940,-0.441342,-0.495722,-0.315263,-0.495722,-0.250000,-0.500000,-0.250000,-0.500000,0.250000,-0.495722,0.250000,-0.495722,0.315263,-0.461940,0.441342,-0.396677,0.554381,-0.304381,0.646677,-0.191342,0.711940,-0.065263,0.745722,0.000000,0.745722,
0.000000,0.750000,0.500000,0.750000,0.500000,-0.750000,0.500000,-0.750000,$1*%
%AMFreePoly1*
4,1,23,0.000000,0.745722,0.065263,0.745722,0.191342,0.711940,0.304381,0.646677,0.396677,0.554381,0.461940,0.441342,0.495722,0.315263,0.495722,0.250000,0.500000,0.250000,0.500000,-0.250000,0.495722,-0.250000,0.495722,-0.315263,0.461940,-0.441342,0.396677,-0.554381,0.304381,-0.646677,0.191342,-0.711940,0.065263,-0.745722,0.000000,-0.745722,0.000000,-0.750000,-0.500000,-0.750000,
-0.500000,0.750000,0.000000,0.750000,0.000000,0.745722,0.000000,0.745722,$1*%
G04 Aperture macros list end*
%TA.AperFunction,EtchedComponent*%
%ADD10C,0.000000*%
%TD*%
%TA.AperFunction,SMDPad,CuDef*%
%ADD11FreePoly0,0.000000*%
%TD*%
%TA.AperFunction,SMDPad,CuDef*%
%ADD12FreePoly1,0.000000*%
%TD*%
%TA.AperFunction,SMDPad,CuDef*%
%ADD13R,2.000000X3.000000*%
%TD*%
%TA.AperFunction,CastellatedPad*%
%ADD14R,2.000000X2.540000*%
%TD*%
%TA.AperFunction,ComponentPad*%
%ADD15RoundRect,0.250000X-0.375000X0.375000X-0.375000X-0.375000X0.375000X-0.375000X0.375000X0.375000X0*%
%TD*%
%TA.AperFunction,ViaPad*%
%ADD16C,0.600000*%
%TD*%
%TA.AperFunction,Conductor*%
%ADD17C,0.200000*%
%TD*%
G04 APERTURE END LIST*
D10*
%TA.AperFunction,EtchedComponent*%
%TO.C,JP3*%
G36*
X43260000Y-43340000D02*
G01*
X42760000Y-43340000D01*
X42760000Y-42740000D01*
X43260000Y-42740000D01*
X43260000Y-43340000D01*
G37*
%TD.AperFunction*%
%TA.AperFunction,EtchedComponent*%
%TO.C,JP2*%
G36*
X51290000Y-43310000D02*
G01*
X50790000Y-43310000D01*
X50790000Y-42710000D01*
X51290000Y-42710000D01*
X51290000Y-43310000D01*
G37*
%TD.AperFunction*%
%TA.AperFunction,EtchedComponent*%
%TO.C,JP1*%
G36*
X46640000Y-43320000D02*
G01*
X46140000Y-43320000D01*
X46140000Y-42720000D01*
X46640000Y-42720000D01*
X46640000Y-43320000D01*
G37*
%TD.AperFunction*%
%TD*%
D11*
%TO.P,JP3,1,A*%
%TO.N,Net-(JP3-A)*%
X42360000Y-43040000D03*
D12*
%TO.P,JP3,2,B*%
%TO.N,GND*%
X43660000Y-43040000D03*
%TD*%
D13*
%TO.P,J1,1*%
%TO.N,Net-(JP3-A)*%
X40600000Y-40000000D03*
%TO.P,J1,2*%
%TO.N,Net-(JP2-B)*%
X53000000Y-40000000D03*
%TO.P,J1,3*%
%TO.N,Net-(JP4-B)*%
X45300000Y-33000000D03*
%TO.P,J1,4*%
%TO.N,Net-(JP1-A)*%
X43500000Y-40000000D03*
%TD*%
D14*
%TO.P,M1,1,VCC*%
%TO.N,unconnected-(M1-VCC-Pad1)*%
X39650000Y-44300000D03*
D15*
X39650000Y-42600000D03*
D14*
%TO.P,M1,7,GND*%
%TO.N,GND*%
X54890000Y-44300000D03*
D15*
X54890000Y-42600000D03*
%TO.P,M1,8*%
%TO.N,LEFT*%
X39650000Y-31000000D03*
D14*
X39650000Y-29300000D03*
D15*
%TO.P,M1,12*%
%TO.N,MIC*%
X49810000Y-31000000D03*
D14*
X49810000Y-29300000D03*
D15*
%TO.P,M1,14*%
%TO.N,RIGHT*%
X54890000Y-31000000D03*
D14*
X54890000Y-29300000D03*
%TD*%
D11*
%TO.P,JP2,1,A*%
%TO.N,RIGHT*%
X50390000Y-43010000D03*
D12*
%TO.P,JP2,2,B*%
%TO.N,Net-(JP2-B)*%
X51690000Y-43010000D03*
%TD*%
D11*
%TO.P,JP1,1,A*%
%TO.N,Net-(JP1-A)*%
X45740000Y-43020000D03*
D12*
%TO.P,JP1,2,B*%
%TO.N,MIC*%
X47040000Y-43020000D03*
%TD*%
D16*
%TO.N,Net-(JP4-B)*%
X43040000Y-31850000D03*
%TO.N,GND*%
X44370000Y-42160000D03*
%TO.N,LEFT*%
X41790000Y-31920000D03*
%TD*%
D17*
%TO.N,Net-(JP2-B)*%
X51690000Y-43010000D02*
X51690000Y-41310000D01*
X51690000Y-41310000D02*
X53000000Y-40000000D01*
%TO.N,Net-(JP3-A)*%
X42360000Y-43040000D02*
X42360000Y-42720000D01*
X40600000Y-40960000D02*
X40600000Y-40000000D01*
X42360000Y-42720000D02*
X40600000Y-40960000D01*
%TO.N,Net-(JP1-A)*%
X43500000Y-40000000D02*
X45740000Y-42240000D01*
X45740000Y-42240000D02*
X45740000Y-43020000D01*
%TO.N,Net-(JP4-B)*%
X44150000Y-31850000D02*
X43040000Y-31850000D01*
X45300000Y-33000000D02*
X44150000Y-31850000D01*
%TO.N,RIGHT*%
X48880000Y-35900000D02*
X48880000Y-38530000D01*
X54890000Y-31000000D02*
X54890000Y-31120000D01*
X51950000Y-34060000D02*
X50720000Y-34060000D01*
X54890000Y-31120000D02*
X51950000Y-34060000D01*
X50430000Y-40080000D02*
X50430000Y-42970000D01*
X50720000Y-34060000D02*
X48880000Y-35900000D01*
X50430000Y-42970000D02*
X50390000Y-43010000D01*
X48880000Y-38530000D02*
X50430000Y-40080000D01*
%TO.N,MIC*%
X47040000Y-43020000D02*
X47040000Y-33770000D01*
X47040000Y-33770000D02*
X49810000Y-31000000D01*
%TO.N,GND*%
X43660000Y-43040000D02*
X44370000Y-42330000D01*
X44370000Y-42330000D02*
X44370000Y-42160000D01*
%TO.N,LEFT*%
X41790000Y-31920000D02*
X40580000Y-31920000D01*
X40580000Y-31920000D02*
X39660000Y-31000000D01*
X39660000Y-31000000D02*
X39650000Y-31000000D01*
%TD*%
M02*
