G04 #@! TF.GenerationSoftware,KiCad,Pcbnew,9.0.1+1*
G04 #@! TF.CreationDate,2025-11-11T14:39:35+00:00*
G04 #@! TF.ProjectId,bluetooth,626c7565-746f-46f7-9468-2e6b69636164,rev?*
G04 #@! TF.SameCoordinates,Original*
G04 #@! TF.FileFunction,Paste,Top*
G04 #@! TF.FilePolarity,Positive*
%FSLAX46Y46*%
G04 Gerber Fmt 4.6, Leading zero omitted, Abs format (unit mm)*
G04 Created by KiCad (PCBNEW 9.0.1+1) date 2025-11-11 14:39:35*
%MOMM*%
%LPD*%
G01*
G04 APERTURE LIST*
G04 APERTURE END LIST*
G36*
G01*
X101551000Y-57632000D02*
X101551000Y-57332000D01*
G75*
G02*
X101701000Y-57182000I150000J0D01*
G01*
X102901000Y-57182000D01*
G75*
G02*
X103051000Y-57332000I0J-150000D01*
G01*
X103051000Y-57632000D01*
G75*
G02*
X102901000Y-57782000I-150000J0D01*
G01*
X101701000Y-57782000D01*
G75*
G02*
X101551000Y-57632000I0J150000D01*
G01*
G37*
G36*
G01*
X101551000Y-58632000D02*
X101551000Y-58332000D01*
G75*
G02*
X101701000Y-58182000I150000J0D01*
G01*
X102901000Y-58182000D01*
G75*
G02*
X103051000Y-58332000I0J-150000D01*
G01*
X103051000Y-58632000D01*
G75*
G02*
X102901000Y-58782000I-150000J0D01*
G01*
X101701000Y-58782000D01*
G75*
G02*
X101551000Y-58632000I0J150000D01*
G01*
G37*
G36*
G01*
X101551000Y-59632000D02*
X101551000Y-59332000D01*
G75*
G02*
X101701000Y-59182000I150000J0D01*
G01*
X102901000Y-59182000D01*
G75*
G02*
X103051000Y-59332000I0J-150000D01*
G01*
X103051000Y-59632000D01*
G75*
G02*
X102901000Y-59782000I-150000J0D01*
G01*
X101701000Y-59782000D01*
G75*
G02*
X101551000Y-59632000I0J150000D01*
G01*
G37*
G36*
G01*
X101551000Y-60632000D02*
X101551000Y-60332000D01*
G75*
G02*
X101701000Y-60182000I150000J0D01*
G01*
X102901000Y-60182000D01*
G75*
G02*
X103051000Y-60332000I0J-150000D01*
G01*
X103051000Y-60632000D01*
G75*
G02*
X102901000Y-60782000I-150000J0D01*
G01*
X101701000Y-60782000D01*
G75*
G02*
X101551000Y-60632000I0J150000D01*
G01*
G37*
G36*
G01*
X101551000Y-61632000D02*
X101551000Y-61332000D01*
G75*
G02*
X101701000Y-61182000I150000J0D01*
G01*
X102901000Y-61182000D01*
G75*
G02*
X103051000Y-61332000I0J-150000D01*
G01*
X103051000Y-61632000D01*
G75*
G02*
X102901000Y-61782000I-150000J0D01*
G01*
X101701000Y-61782000D01*
G75*
G02*
X101551000Y-61632000I0J150000D01*
G01*
G37*
G36*
G01*
X101551000Y-62632000D02*
X101551000Y-62332000D01*
G75*
G02*
X101701000Y-62182000I150000J0D01*
G01*
X102901000Y-62182000D01*
G75*
G02*
X103051000Y-62332000I0J-150000D01*
G01*
X103051000Y-62632000D01*
G75*
G02*
X102901000Y-62782000I-150000J0D01*
G01*
X101701000Y-62782000D01*
G75*
G02*
X101551000Y-62632000I0J150000D01*
G01*
G37*
G36*
G01*
X101551000Y-63632000D02*
X101551000Y-63332000D01*
G75*
G02*
X101701000Y-63182000I150000J0D01*
G01*
X102901000Y-63182000D01*
G75*
G02*
X103051000Y-63332000I0J-150000D01*
G01*
X103051000Y-63632000D01*
G75*
G02*
X102901000Y-63782000I-150000J0D01*
G01*
X101701000Y-63782000D01*
G75*
G02*
X101551000Y-63632000I0J150000D01*
G01*
G37*
G36*
G01*
X101551000Y-64632000D02*
X101551000Y-64332000D01*
G75*
G02*
X101701000Y-64182000I150000J0D01*
G01*
X102901000Y-64182000D01*
G75*
G02*
X103051000Y-64332000I0J-150000D01*
G01*
X103051000Y-64632000D01*
G75*
G02*
X102901000Y-64782000I-150000J0D01*
G01*
X101701000Y-64782000D01*
G75*
G02*
X101551000Y-64632000I0J150000D01*
G01*
G37*
G36*
G01*
X101551000Y-65632000D02*
X101551000Y-65332000D01*
G75*
G02*
X101701000Y-65182000I150000J0D01*
G01*
X102901000Y-65182000D01*
G75*
G02*
X103051000Y-65332000I0J-150000D01*
G01*
X103051000Y-65632000D01*
G75*
G02*
X102901000Y-65782000I-150000J0D01*
G01*
X101701000Y-65782000D01*
G75*
G02*
X101551000Y-65632000I0J150000D01*
G01*
G37*
G36*
G01*
X101551000Y-66632000D02*
X101551000Y-66332000D01*
G75*
G02*
X101701000Y-66182000I150000J0D01*
G01*
X102901000Y-66182000D01*
G75*
G02*
X103051000Y-66332000I0J-150000D01*
G01*
X103051000Y-66632000D01*
G75*
G02*
X102901000Y-66782000I-150000J0D01*
G01*
X101701000Y-66782000D01*
G75*
G02*
X101551000Y-66632000I0J150000D01*
G01*
G37*
G36*
G01*
X101551000Y-67632000D02*
X101551000Y-67332000D01*
G75*
G02*
X101701000Y-67182000I150000J0D01*
G01*
X102901000Y-67182000D01*
G75*
G02*
X103051000Y-67332000I0J-150000D01*
G01*
X103051000Y-67632000D01*
G75*
G02*
X102901000Y-67782000I-150000J0D01*
G01*
X101701000Y-67782000D01*
G75*
G02*
X101551000Y-67632000I0J150000D01*
G01*
G37*
G36*
G01*
X101551000Y-68632000D02*
X101551000Y-68332000D01*
G75*
G02*
X101701000Y-68182000I150000J0D01*
G01*
X102901000Y-68182000D01*
G75*
G02*
X103051000Y-68332000I0J-150000D01*
G01*
X103051000Y-68632000D01*
G75*
G02*
X102901000Y-68782000I-150000J0D01*
G01*
X101701000Y-68782000D01*
G75*
G02*
X101551000Y-68632000I0J150000D01*
G01*
G37*
G36*
G01*
X101551000Y-69632000D02*
X101551000Y-69332000D01*
G75*
G02*
X101701000Y-69182000I150000J0D01*
G01*
X102901000Y-69182000D01*
G75*
G02*
X103051000Y-69332000I0J-150000D01*
G01*
X103051000Y-69632000D01*
G75*
G02*
X102901000Y-69782000I-150000J0D01*
G01*
X101701000Y-69782000D01*
G75*
G02*
X101551000Y-69632000I0J150000D01*
G01*
G37*
G36*
G01*
X101551000Y-70632000D02*
X101551000Y-70332000D01*
G75*
G02*
X101701000Y-70182000I150000J0D01*
G01*
X102901000Y-70182000D01*
G75*
G02*
X103051000Y-70332000I0J-150000D01*
G01*
X103051000Y-70632000D01*
G75*
G02*
X102901000Y-70782000I-150000J0D01*
G01*
X101701000Y-70782000D01*
G75*
G02*
X101551000Y-70632000I0J150000D01*
G01*
G37*
G36*
G01*
X101551000Y-71632000D02*
X101551000Y-71332000D01*
G75*
G02*
X101701000Y-71182000I150000J0D01*
G01*
X102901000Y-71182000D01*
G75*
G02*
X103051000Y-71332000I0J-150000D01*
G01*
X103051000Y-71632000D01*
G75*
G02*
X102901000Y-71782000I-150000J0D01*
G01*
X101701000Y-71782000D01*
G75*
G02*
X101551000Y-71632000I0J150000D01*
G01*
G37*
G36*
G01*
X101551000Y-72632000D02*
X101551000Y-72332000D01*
G75*
G02*
X101701000Y-72182000I150000J0D01*
G01*
X102901000Y-72182000D01*
G75*
G02*
X103051000Y-72332000I0J-150000D01*
G01*
X103051000Y-72632000D01*
G75*
G02*
X102901000Y-72782000I-150000J0D01*
G01*
X101701000Y-72782000D01*
G75*
G02*
X101551000Y-72632000I0J150000D01*
G01*
G37*
G36*
G01*
X101551000Y-73632000D02*
X101551000Y-73332000D01*
G75*
G02*
X101701000Y-73182000I150000J0D01*
G01*
X102901000Y-73182000D01*
G75*
G02*
X103051000Y-73332000I0J-150000D01*
G01*
X103051000Y-73632000D01*
G75*
G02*
X102901000Y-73782000I-150000J0D01*
G01*
X101701000Y-73782000D01*
G75*
G02*
X101551000Y-73632000I0J150000D01*
G01*
G37*
G36*
G01*
X101551000Y-74632000D02*
X101551000Y-74332000D01*
G75*
G02*
X101701000Y-74182000I150000J0D01*
G01*
X102901000Y-74182000D01*
G75*
G02*
X103051000Y-74332000I0J-150000D01*
G01*
X103051000Y-74632000D01*
G75*
G02*
X102901000Y-74782000I-150000J0D01*
G01*
X101701000Y-74782000D01*
G75*
G02*
X101551000Y-74632000I0J150000D01*
G01*
G37*
G36*
G01*
X101551000Y-75632000D02*
X101551000Y-75332000D01*
G75*
G02*
X101701000Y-75182000I150000J0D01*
G01*
X102901000Y-75182000D01*
G75*
G02*
X103051000Y-75332000I0J-150000D01*
G01*
X103051000Y-75632000D01*
G75*
G02*
X102901000Y-75782000I-150000J0D01*
G01*
X101701000Y-75782000D01*
G75*
G02*
X101551000Y-75632000I0J150000D01*
G01*
G37*
G36*
G01*
X101551000Y-76632000D02*
X101551000Y-76332000D01*
G75*
G02*
X101701000Y-76182000I150000J0D01*
G01*
X102901000Y-76182000D01*
G75*
G02*
X103051000Y-76332000I0J-150000D01*
G01*
X103051000Y-76632000D01*
G75*
G02*
X102901000Y-76782000I-150000J0D01*
G01*
X101701000Y-76782000D01*
G75*
G02*
X101551000Y-76632000I0J150000D01*
G01*
G37*
G36*
G01*
X104751000Y-78732000D02*
X104751000Y-77532000D01*
G75*
G02*
X104901000Y-77382000I150000J0D01*
G01*
X105201000Y-77382000D01*
G75*
G02*
X105351000Y-77532000I0J-150000D01*
G01*
X105351000Y-78732000D01*
G75*
G02*
X105201000Y-78882000I-150000J0D01*
G01*
X104901000Y-78882000D01*
G75*
G02*
X104751000Y-78732000I0J150000D01*
G01*
G37*
G36*
G01*
X105751000Y-78732000D02*
X105751000Y-77532000D01*
G75*
G02*
X105901000Y-77382000I150000J0D01*
G01*
X106201000Y-77382000D01*
G75*
G02*
X106351000Y-77532000I0J-150000D01*
G01*
X106351000Y-78732000D01*
G75*
G02*
X106201000Y-78882000I-150000J0D01*
G01*
X105901000Y-78882000D01*
G75*
G02*
X105751000Y-78732000I0J150000D01*
G01*
G37*
G36*
G01*
X106751000Y-78732000D02*
X106751000Y-77532000D01*
G75*
G02*
X106901000Y-77382000I150000J0D01*
G01*
X107201000Y-77382000D01*
G75*
G02*
X107351000Y-77532000I0J-150000D01*
G01*
X107351000Y-78732000D01*
G75*
G02*
X107201000Y-78882000I-150000J0D01*
G01*
X106901000Y-78882000D01*
G75*
G02*
X106751000Y-78732000I0J150000D01*
G01*
G37*
G36*
G01*
X107751000Y-78732000D02*
X107751000Y-77532000D01*
G75*
G02*
X107901000Y-77382000I150000J0D01*
G01*
X108201000Y-77382000D01*
G75*
G02*
X108351000Y-77532000I0J-150000D01*
G01*
X108351000Y-78732000D01*
G75*
G02*
X108201000Y-78882000I-150000J0D01*
G01*
X107901000Y-78882000D01*
G75*
G02*
X107751000Y-78732000I0J150000D01*
G01*
G37*
G36*
G01*
X108751000Y-78732000D02*
X108751000Y-77532000D01*
G75*
G02*
X108901000Y-77382000I150000J0D01*
G01*
X109201000Y-77382000D01*
G75*
G02*
X109351000Y-77532000I0J-150000D01*
G01*
X109351000Y-78732000D01*
G75*
G02*
X109201000Y-78882000I-150000J0D01*
G01*
X108901000Y-78882000D01*
G75*
G02*
X108751000Y-78732000I0J150000D01*
G01*
G37*
G36*
G01*
X109751000Y-78732000D02*
X109751000Y-77532000D01*
G75*
G02*
X109901000Y-77382000I150000J0D01*
G01*
X110201000Y-77382000D01*
G75*
G02*
X110351000Y-77532000I0J-150000D01*
G01*
X110351000Y-78732000D01*
G75*
G02*
X110201000Y-78882000I-150000J0D01*
G01*
X109901000Y-78882000D01*
G75*
G02*
X109751000Y-78732000I0J150000D01*
G01*
G37*
G36*
G01*
X110751000Y-78732000D02*
X110751000Y-77532000D01*
G75*
G02*
X110901000Y-77382000I150000J0D01*
G01*
X111201000Y-77382000D01*
G75*
G02*
X111351000Y-77532000I0J-150000D01*
G01*
X111351000Y-78732000D01*
G75*
G02*
X111201000Y-78882000I-150000J0D01*
G01*
X110901000Y-78882000D01*
G75*
G02*
X110751000Y-78732000I0J150000D01*
G01*
G37*
G36*
G01*
X111751000Y-78732000D02*
X111751000Y-77532000D01*
G75*
G02*
X111901000Y-77382000I150000J0D01*
G01*
X112201000Y-77382000D01*
G75*
G02*
X112351000Y-77532000I0J-150000D01*
G01*
X112351000Y-78732000D01*
G75*
G02*
X112201000Y-78882000I-150000J0D01*
G01*
X111901000Y-78882000D01*
G75*
G02*
X111751000Y-78732000I0J150000D01*
G01*
G37*
G36*
G01*
X112751000Y-78732000D02*
X112751000Y-77532000D01*
G75*
G02*
X112901000Y-77382000I150000J0D01*
G01*
X113201000Y-77382000D01*
G75*
G02*
X113351000Y-77532000I0J-150000D01*
G01*
X113351000Y-78732000D01*
G75*
G02*
X113201000Y-78882000I-150000J0D01*
G01*
X112901000Y-78882000D01*
G75*
G02*
X112751000Y-78732000I0J150000D01*
G01*
G37*
G36*
G01*
X113751000Y-78732000D02*
X113751000Y-77532000D01*
G75*
G02*
X113901000Y-77382000I150000J0D01*
G01*
X114201000Y-77382000D01*
G75*
G02*
X114351000Y-77532000I0J-150000D01*
G01*
X114351000Y-78732000D01*
G75*
G02*
X114201000Y-78882000I-150000J0D01*
G01*
X113901000Y-78882000D01*
G75*
G02*
X113751000Y-78732000I0J150000D01*
G01*
G37*
G36*
G01*
X116051000Y-76632000D02*
X116051000Y-76332000D01*
G75*
G02*
X116201000Y-76182000I150000J0D01*
G01*
X117401000Y-76182000D01*
G75*
G02*
X117551000Y-76332000I0J-150000D01*
G01*
X117551000Y-76632000D01*
G75*
G02*
X117401000Y-76782000I-150000J0D01*
G01*
X116201000Y-76782000D01*
G75*
G02*
X116051000Y-76632000I0J150000D01*
G01*
G37*
G36*
G01*
X116051000Y-75632000D02*
X116051000Y-75332000D01*
G75*
G02*
X116201000Y-75182000I150000J0D01*
G01*
X117401000Y-75182000D01*
G75*
G02*
X117551000Y-75332000I0J-150000D01*
G01*
X117551000Y-75632000D01*
G75*
G02*
X117401000Y-75782000I-150000J0D01*
G01*
X116201000Y-75782000D01*
G75*
G02*
X116051000Y-75632000I0J150000D01*
G01*
G37*
G36*
G01*
X116051000Y-74632000D02*
X116051000Y-74332000D01*
G75*
G02*
X116201000Y-74182000I150000J0D01*
G01*
X117401000Y-74182000D01*
G75*
G02*
X117551000Y-74332000I0J-150000D01*
G01*
X117551000Y-74632000D01*
G75*
G02*
X117401000Y-74782000I-150000J0D01*
G01*
X116201000Y-74782000D01*
G75*
G02*
X116051000Y-74632000I0J150000D01*
G01*
G37*
G36*
G01*
X116051000Y-73632000D02*
X116051000Y-73332000D01*
G75*
G02*
X116201000Y-73182000I150000J0D01*
G01*
X117401000Y-73182000D01*
G75*
G02*
X117551000Y-73332000I0J-150000D01*
G01*
X117551000Y-73632000D01*
G75*
G02*
X117401000Y-73782000I-150000J0D01*
G01*
X116201000Y-73782000D01*
G75*
G02*
X116051000Y-73632000I0J150000D01*
G01*
G37*
G36*
G01*
X116051000Y-72632000D02*
X116051000Y-72332000D01*
G75*
G02*
X116201000Y-72182000I150000J0D01*
G01*
X117401000Y-72182000D01*
G75*
G02*
X117551000Y-72332000I0J-150000D01*
G01*
X117551000Y-72632000D01*
G75*
G02*
X117401000Y-72782000I-150000J0D01*
G01*
X116201000Y-72782000D01*
G75*
G02*
X116051000Y-72632000I0J150000D01*
G01*
G37*
G36*
G01*
X116051000Y-71632000D02*
X116051000Y-71332000D01*
G75*
G02*
X116201000Y-71182000I150000J0D01*
G01*
X117401000Y-71182000D01*
G75*
G02*
X117551000Y-71332000I0J-150000D01*
G01*
X117551000Y-71632000D01*
G75*
G02*
X117401000Y-71782000I-150000J0D01*
G01*
X116201000Y-71782000D01*
G75*
G02*
X116051000Y-71632000I0J150000D01*
G01*
G37*
G36*
G01*
X116051000Y-70632000D02*
X116051000Y-70332000D01*
G75*
G02*
X116201000Y-70182000I150000J0D01*
G01*
X117401000Y-70182000D01*
G75*
G02*
X117551000Y-70332000I0J-150000D01*
G01*
X117551000Y-70632000D01*
G75*
G02*
X117401000Y-70782000I-150000J0D01*
G01*
X116201000Y-70782000D01*
G75*
G02*
X116051000Y-70632000I0J150000D01*
G01*
G37*
G36*
G01*
X116051000Y-69632000D02*
X116051000Y-69332000D01*
G75*
G02*
X116201000Y-69182000I150000J0D01*
G01*
X117401000Y-69182000D01*
G75*
G02*
X117551000Y-69332000I0J-150000D01*
G01*
X117551000Y-69632000D01*
G75*
G02*
X117401000Y-69782000I-150000J0D01*
G01*
X116201000Y-69782000D01*
G75*
G02*
X116051000Y-69632000I0J150000D01*
G01*
G37*
G36*
G01*
X116051000Y-68632000D02*
X116051000Y-68332000D01*
G75*
G02*
X116201000Y-68182000I150000J0D01*
G01*
X117401000Y-68182000D01*
G75*
G02*
X117551000Y-68332000I0J-150000D01*
G01*
X117551000Y-68632000D01*
G75*
G02*
X117401000Y-68782000I-150000J0D01*
G01*
X116201000Y-68782000D01*
G75*
G02*
X116051000Y-68632000I0J150000D01*
G01*
G37*
G36*
G01*
X116051000Y-67632000D02*
X116051000Y-67332000D01*
G75*
G02*
X116201000Y-67182000I150000J0D01*
G01*
X117401000Y-67182000D01*
G75*
G02*
X117551000Y-67332000I0J-150000D01*
G01*
X117551000Y-67632000D01*
G75*
G02*
X117401000Y-67782000I-150000J0D01*
G01*
X116201000Y-67782000D01*
G75*
G02*
X116051000Y-67632000I0J150000D01*
G01*
G37*
G36*
G01*
X116051000Y-66632000D02*
X116051000Y-66332000D01*
G75*
G02*
X116201000Y-66182000I150000J0D01*
G01*
X117401000Y-66182000D01*
G75*
G02*
X117551000Y-66332000I0J-150000D01*
G01*
X117551000Y-66632000D01*
G75*
G02*
X117401000Y-66782000I-150000J0D01*
G01*
X116201000Y-66782000D01*
G75*
G02*
X116051000Y-66632000I0J150000D01*
G01*
G37*
G36*
G01*
X116051000Y-65632000D02*
X116051000Y-65332000D01*
G75*
G02*
X116201000Y-65182000I150000J0D01*
G01*
X117401000Y-65182000D01*
G75*
G02*
X117551000Y-65332000I0J-150000D01*
G01*
X117551000Y-65632000D01*
G75*
G02*
X117401000Y-65782000I-150000J0D01*
G01*
X116201000Y-65782000D01*
G75*
G02*
X116051000Y-65632000I0J150000D01*
G01*
G37*
G36*
G01*
X116051000Y-64632000D02*
X116051000Y-64332000D01*
G75*
G02*
X116201000Y-64182000I150000J0D01*
G01*
X117401000Y-64182000D01*
G75*
G02*
X117551000Y-64332000I0J-150000D01*
G01*
X117551000Y-64632000D01*
G75*
G02*
X117401000Y-64782000I-150000J0D01*
G01*
X116201000Y-64782000D01*
G75*
G02*
X116051000Y-64632000I0J150000D01*
G01*
G37*
G36*
G01*
X116051000Y-63632000D02*
X116051000Y-63332000D01*
G75*
G02*
X116201000Y-63182000I150000J0D01*
G01*
X117401000Y-63182000D01*
G75*
G02*
X117551000Y-63332000I0J-150000D01*
G01*
X117551000Y-63632000D01*
G75*
G02*
X117401000Y-63782000I-150000J0D01*
G01*
X116201000Y-63782000D01*
G75*
G02*
X116051000Y-63632000I0J150000D01*
G01*
G37*
G36*
G01*
X116051000Y-62632000D02*
X116051000Y-62332000D01*
G75*
G02*
X116201000Y-62182000I150000J0D01*
G01*
X117401000Y-62182000D01*
G75*
G02*
X117551000Y-62332000I0J-150000D01*
G01*
X117551000Y-62632000D01*
G75*
G02*
X117401000Y-62782000I-150000J0D01*
G01*
X116201000Y-62782000D01*
G75*
G02*
X116051000Y-62632000I0J150000D01*
G01*
G37*
G36*
G01*
X116051000Y-61632000D02*
X116051000Y-61332000D01*
G75*
G02*
X116201000Y-61182000I150000J0D01*
G01*
X117401000Y-61182000D01*
G75*
G02*
X117551000Y-61332000I0J-150000D01*
G01*
X117551000Y-61632000D01*
G75*
G02*
X117401000Y-61782000I-150000J0D01*
G01*
X116201000Y-61782000D01*
G75*
G02*
X116051000Y-61632000I0J150000D01*
G01*
G37*
G36*
G01*
X116051000Y-60632000D02*
X116051000Y-60332000D01*
G75*
G02*
X116201000Y-60182000I150000J0D01*
G01*
X117401000Y-60182000D01*
G75*
G02*
X117551000Y-60332000I0J-150000D01*
G01*
X117551000Y-60632000D01*
G75*
G02*
X117401000Y-60782000I-150000J0D01*
G01*
X116201000Y-60782000D01*
G75*
G02*
X116051000Y-60632000I0J150000D01*
G01*
G37*
G36*
G01*
X116051000Y-59632000D02*
X116051000Y-59332000D01*
G75*
G02*
X116201000Y-59182000I150000J0D01*
G01*
X117401000Y-59182000D01*
G75*
G02*
X117551000Y-59332000I0J-150000D01*
G01*
X117551000Y-59632000D01*
G75*
G02*
X117401000Y-59782000I-150000J0D01*
G01*
X116201000Y-59782000D01*
G75*
G02*
X116051000Y-59632000I0J150000D01*
G01*
G37*
G36*
G01*
X116051000Y-58632000D02*
X116051000Y-58332000D01*
G75*
G02*
X116201000Y-58182000I150000J0D01*
G01*
X117401000Y-58182000D01*
G75*
G02*
X117551000Y-58332000I0J-150000D01*
G01*
X117551000Y-58632000D01*
G75*
G02*
X117401000Y-58782000I-150000J0D01*
G01*
X116201000Y-58782000D01*
G75*
G02*
X116051000Y-58632000I0J150000D01*
G01*
G37*
G36*
G01*
X116051000Y-57632000D02*
X116051000Y-57332000D01*
G75*
G02*
X116201000Y-57182000I150000J0D01*
G01*
X117401000Y-57182000D01*
G75*
G02*
X117551000Y-57332000I0J-150000D01*
G01*
X117551000Y-57632000D01*
G75*
G02*
X117401000Y-57782000I-150000J0D01*
G01*
X116201000Y-57782000D01*
G75*
G02*
X116051000Y-57632000I0J150000D01*
G01*
G37*
G36*
G01*
X113431000Y-68552000D02*
X113431000Y-67272000D01*
G75*
G02*
X113681000Y-67022000I250000J0D01*
G01*
X114961000Y-67022000D01*
G75*
G02*
X115211000Y-67272000I0J-250000D01*
G01*
X115211000Y-68552000D01*
G75*
G02*
X114961000Y-68802000I-250000J0D01*
G01*
X113681000Y-68802000D01*
G75*
G02*
X113431000Y-68552000I0J250000D01*
G01*
G37*
G36*
G01*
X104866000Y-57992000D02*
X104866000Y-57612000D01*
G75*
G02*
X105056000Y-57422000I190000J0D01*
G01*
X107466000Y-57422000D01*
G75*
G02*
X107656000Y-57612000I0J-190000D01*
G01*
X107656000Y-57992000D01*
G75*
G02*
X107466000Y-58182000I-190000J0D01*
G01*
X105056000Y-58182000D01*
G75*
G02*
X104866000Y-57992000I0J190000D01*
G01*
G37*
M02*
