G04 #@! TF.GenerationSoftware,KiCad,Pcbnew,9.0.1+1*
G04 #@! TF.CreationDate,2025-11-11T08:29:24+00:00*
G04 #@! TF.ProjectId,bluetooth,626c7565-746f-46f7-9468-2e6b69636164,rev?*
G04 #@! TF.SameCoordinates,Original*
G04 #@! TF.FileFunction,Legend,Bot*
G04 #@! TF.FilePolarity,Positive*
%FSLAX46Y46*%
G04 Gerber Fmt 4.6, Leading zero omitted, Abs format (unit mm)*
G04 Created by KiCad (PCBNEW 9.0.1+1) date 2025-11-11 08:29:24*
%MOMM*%
%LPD*%
G01*
G04 APERTURE LIST*
%ADD10C,0.100000*%
%ADD11R,2.540000X2.000000*%
G04 APERTURE END LIST*
D10*
X110212380Y-86396895D02*
X110212380Y-85596895D01*
X110212380Y-85596895D02*
X109907618Y-85596895D01*
X109907618Y-85596895D02*
X109831428Y-85634990D01*
X109831428Y-85634990D02*
X109793333Y-85673085D01*
X109793333Y-85673085D02*
X109755237Y-85749276D01*
X109755237Y-85749276D02*
X109755237Y-85863561D01*
X109755237Y-85863561D02*
X109793333Y-85939752D01*
X109793333Y-85939752D02*
X109831428Y-85977847D01*
X109831428Y-85977847D02*
X109907618Y-86015942D01*
X109907618Y-86015942D02*
X110212380Y-86015942D01*
X108955237Y-86396895D02*
X109221904Y-86015942D01*
X109412380Y-86396895D02*
X109412380Y-85596895D01*
X109412380Y-85596895D02*
X109107618Y-85596895D01*
X109107618Y-85596895D02*
X109031428Y-85634990D01*
X109031428Y-85634990D02*
X108993333Y-85673085D01*
X108993333Y-85673085D02*
X108955237Y-85749276D01*
X108955237Y-85749276D02*
X108955237Y-85863561D01*
X108955237Y-85863561D02*
X108993333Y-85939752D01*
X108993333Y-85939752D02*
X109031428Y-85977847D01*
X109031428Y-85977847D02*
X109107618Y-86015942D01*
X109107618Y-86015942D02*
X109412380Y-86015942D01*
X108459999Y-86015942D02*
X108459999Y-86396895D01*
X108726666Y-85596895D02*
X108459999Y-86015942D01*
X108459999Y-86015942D02*
X108193333Y-85596895D01*
X110212380Y-57516895D02*
X110212380Y-56716895D01*
X110212380Y-56716895D02*
X109907618Y-56716895D01*
X109907618Y-56716895D02*
X109831428Y-56754990D01*
X109831428Y-56754990D02*
X109793333Y-56793085D01*
X109793333Y-56793085D02*
X109755237Y-56869276D01*
X109755237Y-56869276D02*
X109755237Y-56983561D01*
X109755237Y-56983561D02*
X109793333Y-57059752D01*
X109793333Y-57059752D02*
X109831428Y-57097847D01*
X109831428Y-57097847D02*
X109907618Y-57135942D01*
X109907618Y-57135942D02*
X110212380Y-57135942D01*
X108955237Y-57516895D02*
X109221904Y-57135942D01*
X109412380Y-57516895D02*
X109412380Y-56716895D01*
X109412380Y-56716895D02*
X109107618Y-56716895D01*
X109107618Y-56716895D02*
X109031428Y-56754990D01*
X109031428Y-56754990D02*
X108993333Y-56793085D01*
X108993333Y-56793085D02*
X108955237Y-56869276D01*
X108955237Y-56869276D02*
X108955237Y-56983561D01*
X108955237Y-56983561D02*
X108993333Y-57059752D01*
X108993333Y-57059752D02*
X109031428Y-57097847D01*
X109031428Y-57097847D02*
X109107618Y-57135942D01*
X109107618Y-57135942D02*
X109412380Y-57135942D01*
X108459999Y-57135942D02*
X108459999Y-57516895D01*
X108726666Y-56716895D02*
X108459999Y-57135942D01*
X108459999Y-57135942D02*
X108193333Y-56716895D01*
X107275759Y-57869000D02*
X111279516Y-57869000D01*
X111279516Y-56400000D01*
X107275759Y-56400000D01*
X107275759Y-57869000D01*
X107275759Y-85251000D02*
X111279516Y-85251000D01*
X111279516Y-86720000D01*
X107275759Y-86720000D01*
X107275759Y-85251000D01*
%LPC*%
D11*
X97260000Y-57590000D03*
G36*
G01*
X99585000Y-57215000D02*
X99585000Y-57965000D01*
G75*
G02*
X99335000Y-58215000I-250000J0D01*
G01*
X98585000Y-58215000D01*
G75*
G02*
X98335000Y-57965000I0J250000D01*
G01*
X98335000Y-57215000D01*
G75*
G02*
X98585000Y-56965000I250000J0D01*
G01*
X99335000Y-56965000D01*
G75*
G02*
X99585000Y-57215000I0J-250000D01*
G01*
G37*
X97260000Y-65210000D03*
G36*
G01*
X99585000Y-64835000D02*
X99585000Y-65585000D01*
G75*
G02*
X99335000Y-65835000I-250000J0D01*
G01*
X98585000Y-65835000D01*
G75*
G02*
X98335000Y-65585000I0J250000D01*
G01*
X98335000Y-64835000D01*
G75*
G02*
X98585000Y-64585000I250000J0D01*
G01*
X99335000Y-64585000D01*
G75*
G02*
X99585000Y-64835000I0J-250000D01*
G01*
G37*
X97260000Y-67750000D03*
G36*
G01*
X99585000Y-67375000D02*
X99585000Y-68125000D01*
G75*
G02*
X99335000Y-68375000I-250000J0D01*
G01*
X98585000Y-68375000D01*
G75*
G02*
X98335000Y-68125000I0J250000D01*
G01*
X98335000Y-67375000D01*
G75*
G02*
X98585000Y-67125000I250000J0D01*
G01*
X99335000Y-67125000D01*
G75*
G02*
X99585000Y-67375000I0J-250000D01*
G01*
G37*
X97260000Y-70290000D03*
G36*
G01*
X99585000Y-69915000D02*
X99585000Y-70665000D01*
G75*
G02*
X99335000Y-70915000I-250000J0D01*
G01*
X98585000Y-70915000D01*
G75*
G02*
X98335000Y-70665000I0J250000D01*
G01*
X98335000Y-69915000D01*
G75*
G02*
X98585000Y-69665000I250000J0D01*
G01*
X99335000Y-69665000D01*
G75*
G02*
X99585000Y-69915000I0J-250000D01*
G01*
G37*
X97260000Y-72830000D03*
G36*
G01*
X99585000Y-72455000D02*
X99585000Y-73205000D01*
G75*
G02*
X99335000Y-73455000I-250000J0D01*
G01*
X98585000Y-73455000D01*
G75*
G02*
X98335000Y-73205000I0J250000D01*
G01*
X98335000Y-72455000D01*
G75*
G02*
X98585000Y-72205000I250000J0D01*
G01*
X99335000Y-72205000D01*
G75*
G02*
X99585000Y-72455000I0J-250000D01*
G01*
G37*
X97260000Y-75370000D03*
G36*
G01*
X99585000Y-74995000D02*
X99585000Y-75745000D01*
G75*
G02*
X99335000Y-75995000I-250000J0D01*
G01*
X98585000Y-75995000D01*
G75*
G02*
X98335000Y-75745000I0J250000D01*
G01*
X98335000Y-74995000D01*
G75*
G02*
X98585000Y-74745000I250000J0D01*
G01*
X99335000Y-74745000D01*
G75*
G02*
X99585000Y-74995000I0J-250000D01*
G01*
G37*
X97260000Y-77910000D03*
G36*
G01*
X99585000Y-77535000D02*
X99585000Y-78285000D01*
G75*
G02*
X99335000Y-78535000I-250000J0D01*
G01*
X98585000Y-78535000D01*
G75*
G02*
X98335000Y-78285000I0J250000D01*
G01*
X98335000Y-77535000D01*
G75*
G02*
X98585000Y-77285000I250000J0D01*
G01*
X99335000Y-77285000D01*
G75*
G02*
X99585000Y-77535000I0J-250000D01*
G01*
G37*
X97260000Y-80450000D03*
G36*
G01*
X99585000Y-80075000D02*
X99585000Y-80825000D01*
G75*
G02*
X99335000Y-81075000I-250000J0D01*
G01*
X98585000Y-81075000D01*
G75*
G02*
X98335000Y-80825000I0J250000D01*
G01*
X98335000Y-80075000D01*
G75*
G02*
X98585000Y-79825000I250000J0D01*
G01*
X99335000Y-79825000D01*
G75*
G02*
X99585000Y-80075000I0J-250000D01*
G01*
G37*
X97260000Y-82990000D03*
G36*
G01*
X99585000Y-82615000D02*
X99585000Y-83365000D01*
G75*
G02*
X99335000Y-83615000I-250000J0D01*
G01*
X98585000Y-83615000D01*
G75*
G02*
X98335000Y-83365000I0J250000D01*
G01*
X98335000Y-82615000D01*
G75*
G02*
X98585000Y-82365000I250000J0D01*
G01*
X99335000Y-82365000D01*
G75*
G02*
X99585000Y-82615000I0J-250000D01*
G01*
G37*
X97260000Y-85530000D03*
G36*
G01*
X99585000Y-85155000D02*
X99585000Y-85905000D01*
G75*
G02*
X99335000Y-86155000I-250000J0D01*
G01*
X98585000Y-86155000D01*
G75*
G02*
X98335000Y-85905000I0J250000D01*
G01*
X98335000Y-85155000D01*
G75*
G02*
X98585000Y-84905000I250000J0D01*
G01*
X99335000Y-84905000D01*
G75*
G02*
X99585000Y-85155000I0J-250000D01*
G01*
G37*
G36*
G01*
X120185000Y-57215000D02*
X120185000Y-57965000D01*
G75*
G02*
X119935000Y-58215000I-250000J0D01*
G01*
X119185000Y-58215000D01*
G75*
G02*
X118935000Y-57965000I0J250000D01*
G01*
X118935000Y-57215000D01*
G75*
G02*
X119185000Y-56965000I250000J0D01*
G01*
X119935000Y-56965000D01*
G75*
G02*
X120185000Y-57215000I0J-250000D01*
G01*
G37*
X121260000Y-57590000D03*
G36*
G01*
X120185000Y-59755000D02*
X120185000Y-60505000D01*
G75*
G02*
X119935000Y-60755000I-250000J0D01*
G01*
X119185000Y-60755000D01*
G75*
G02*
X118935000Y-60505000I0J250000D01*
G01*
X118935000Y-59755000D01*
G75*
G02*
X119185000Y-59505000I250000J0D01*
G01*
X119935000Y-59505000D01*
G75*
G02*
X120185000Y-59755000I0J-250000D01*
G01*
G37*
X121260000Y-60130000D03*
G36*
G01*
X120185000Y-62295000D02*
X120185000Y-63045000D01*
G75*
G02*
X119935000Y-63295000I-250000J0D01*
G01*
X119185000Y-63295000D01*
G75*
G02*
X118935000Y-63045000I0J250000D01*
G01*
X118935000Y-62295000D01*
G75*
G02*
X119185000Y-62045000I250000J0D01*
G01*
X119935000Y-62045000D01*
G75*
G02*
X120185000Y-62295000I0J-250000D01*
G01*
G37*
X121260000Y-62670000D03*
G36*
G01*
X120185000Y-64835000D02*
X120185000Y-65585000D01*
G75*
G02*
X119935000Y-65835000I-250000J0D01*
G01*
X119185000Y-65835000D01*
G75*
G02*
X118935000Y-65585000I0J250000D01*
G01*
X118935000Y-64835000D01*
G75*
G02*
X119185000Y-64585000I250000J0D01*
G01*
X119935000Y-64585000D01*
G75*
G02*
X120185000Y-64835000I0J-250000D01*
G01*
G37*
X121260000Y-65210000D03*
G36*
G01*
X120185000Y-67375000D02*
X120185000Y-68125000D01*
G75*
G02*
X119935000Y-68375000I-250000J0D01*
G01*
X119185000Y-68375000D01*
G75*
G02*
X118935000Y-68125000I0J250000D01*
G01*
X118935000Y-67375000D01*
G75*
G02*
X119185000Y-67125000I250000J0D01*
G01*
X119935000Y-67125000D01*
G75*
G02*
X120185000Y-67375000I0J-250000D01*
G01*
G37*
X121260000Y-67750000D03*
G36*
G01*
X120185000Y-69915000D02*
X120185000Y-70665000D01*
G75*
G02*
X119935000Y-70915000I-250000J0D01*
G01*
X119185000Y-70915000D01*
G75*
G02*
X118935000Y-70665000I0J250000D01*
G01*
X118935000Y-69915000D01*
G75*
G02*
X119185000Y-69665000I250000J0D01*
G01*
X119935000Y-69665000D01*
G75*
G02*
X120185000Y-69915000I0J-250000D01*
G01*
G37*
X121260000Y-70290000D03*
G36*
G01*
X120185000Y-72455000D02*
X120185000Y-73205000D01*
G75*
G02*
X119935000Y-73455000I-250000J0D01*
G01*
X119185000Y-73455000D01*
G75*
G02*
X118935000Y-73205000I0J250000D01*
G01*
X118935000Y-72455000D01*
G75*
G02*
X119185000Y-72205000I250000J0D01*
G01*
X119935000Y-72205000D01*
G75*
G02*
X120185000Y-72455000I0J-250000D01*
G01*
G37*
X121260000Y-72830000D03*
G36*
G01*
X120185000Y-74995000D02*
X120185000Y-75745000D01*
G75*
G02*
X119935000Y-75995000I-250000J0D01*
G01*
X119185000Y-75995000D01*
G75*
G02*
X118935000Y-75745000I0J250000D01*
G01*
X118935000Y-74995000D01*
G75*
G02*
X119185000Y-74745000I250000J0D01*
G01*
X119935000Y-74745000D01*
G75*
G02*
X120185000Y-74995000I0J-250000D01*
G01*
G37*
X121260000Y-75370000D03*
G36*
G01*
X120185000Y-77535000D02*
X120185000Y-78285000D01*
G75*
G02*
X119935000Y-78535000I-250000J0D01*
G01*
X119185000Y-78535000D01*
G75*
G02*
X118935000Y-78285000I0J250000D01*
G01*
X118935000Y-77535000D01*
G75*
G02*
X119185000Y-77285000I250000J0D01*
G01*
X119935000Y-77285000D01*
G75*
G02*
X120185000Y-77535000I0J-250000D01*
G01*
G37*
X121260000Y-77910000D03*
G36*
G01*
X120185000Y-80075000D02*
X120185000Y-80825000D01*
G75*
G02*
X119935000Y-81075000I-250000J0D01*
G01*
X119185000Y-81075000D01*
G75*
G02*
X118935000Y-80825000I0J250000D01*
G01*
X118935000Y-80075000D01*
G75*
G02*
X119185000Y-79825000I250000J0D01*
G01*
X119935000Y-79825000D01*
G75*
G02*
X120185000Y-80075000I0J-250000D01*
G01*
G37*
X121260000Y-80450000D03*
G36*
G01*
X120185000Y-82615000D02*
X120185000Y-83365000D01*
G75*
G02*
X119935000Y-83615000I-250000J0D01*
G01*
X119185000Y-83615000D01*
G75*
G02*
X118935000Y-83365000I0J250000D01*
G01*
X118935000Y-82615000D01*
G75*
G02*
X119185000Y-82365000I250000J0D01*
G01*
X119935000Y-82365000D01*
G75*
G02*
X120185000Y-82615000I0J-250000D01*
G01*
G37*
X121260000Y-82990000D03*
G36*
G01*
X120185000Y-85155000D02*
X120185000Y-85905000D01*
G75*
G02*
X119935000Y-86155000I-250000J0D01*
G01*
X119185000Y-86155000D01*
G75*
G02*
X118935000Y-85905000I0J250000D01*
G01*
X118935000Y-85155000D01*
G75*
G02*
X119185000Y-84905000I250000J0D01*
G01*
X119935000Y-84905000D01*
G75*
G02*
X120185000Y-85155000I0J-250000D01*
G01*
G37*
X121260000Y-85530000D03*
%LPD*%
M02*
