G04 #@! TF.GenerationSoftware,KiCad,Pcbnew,9.0.1+1*
G04 #@! TF.CreationDate,2025-11-11T08:29:24+00:00*
G04 #@! TF.ProjectId,bluetooth,626c7565-746f-46f7-9468-2e6b69636164,rev?*
G04 #@! TF.SameCoordinates,Original*
G04 #@! TF.FileFunction,Legend,Top*
G04 #@! TF.FilePolarity,Positive*
%FSLAX46Y46*%
G04 Gerber Fmt 4.6, Leading zero omitted, Abs format (unit mm)*
G04 Created by KiCad (PCBNEW 9.0.1+1) date 2025-11-11 08:29:24*
%MOMM*%
%LPD*%
G01*
G04 APERTURE LIST*
%ADD10C,0.100000*%
%ADD11C,0.150000*%
%ADD12C,0.120000*%
%ADD13R,2.540000X2.000000*%
G04 APERTURE END LIST*
D10*
X99734265Y-84410895D02*
X99734265Y-83610895D01*
X99734265Y-83610895D02*
X100000931Y-84182323D01*
X100000931Y-84182323D02*
X100267598Y-83610895D01*
X100267598Y-83610895D02*
X100267598Y-84410895D01*
X100648551Y-83991847D02*
X100915217Y-83991847D01*
X101029503Y-84410895D02*
X100648551Y-84410895D01*
X100648551Y-84410895D02*
X100648551Y-83610895D01*
X100648551Y-83610895D02*
X101029503Y-83610895D01*
X101791408Y-83648990D02*
X101715218Y-83610895D01*
X101715218Y-83610895D02*
X101600932Y-83610895D01*
X101600932Y-83610895D02*
X101486646Y-83648990D01*
X101486646Y-83648990D02*
X101410456Y-83725180D01*
X101410456Y-83725180D02*
X101372361Y-83801371D01*
X101372361Y-83801371D02*
X101334265Y-83953752D01*
X101334265Y-83953752D02*
X101334265Y-84068038D01*
X101334265Y-84068038D02*
X101372361Y-84220419D01*
X101372361Y-84220419D02*
X101410456Y-84296609D01*
X101410456Y-84296609D02*
X101486646Y-84372800D01*
X101486646Y-84372800D02*
X101600932Y-84410895D01*
X101600932Y-84410895D02*
X101677123Y-84410895D01*
X101677123Y-84410895D02*
X101791408Y-84372800D01*
X101791408Y-84372800D02*
X101829504Y-84334704D01*
X101829504Y-84334704D02*
X101829504Y-84068038D01*
X101829504Y-84068038D02*
X101677123Y-84068038D01*
X102134265Y-84182323D02*
X102515218Y-84182323D01*
X102058075Y-84410895D02*
X102324742Y-83610895D01*
X102324742Y-83610895D02*
X102591408Y-84410895D01*
X102858075Y-83877561D02*
X102858075Y-84677561D01*
X102858075Y-83915657D02*
X102934265Y-83877561D01*
X102934265Y-83877561D02*
X103086646Y-83877561D01*
X103086646Y-83877561D02*
X103162837Y-83915657D01*
X103162837Y-83915657D02*
X103200932Y-83953752D01*
X103200932Y-83953752D02*
X103239027Y-84029942D01*
X103239027Y-84029942D02*
X103239027Y-84258514D01*
X103239027Y-84258514D02*
X103200932Y-84334704D01*
X103200932Y-84334704D02*
X103162837Y-84372800D01*
X103162837Y-84372800D02*
X103086646Y-84410895D01*
X103086646Y-84410895D02*
X102934265Y-84410895D01*
X102934265Y-84410895D02*
X102858075Y-84372800D01*
X103581885Y-84410895D02*
X103581885Y-83610895D01*
X103924742Y-84410895D02*
X103924742Y-83991847D01*
X103924742Y-83991847D02*
X103886647Y-83915657D01*
X103886647Y-83915657D02*
X103810456Y-83877561D01*
X103810456Y-83877561D02*
X103696170Y-83877561D01*
X103696170Y-83877561D02*
X103619980Y-83915657D01*
X103619980Y-83915657D02*
X103581885Y-83953752D01*
X104419980Y-84410895D02*
X104343790Y-84372800D01*
X104343790Y-84372800D02*
X104305695Y-84334704D01*
X104305695Y-84334704D02*
X104267599Y-84258514D01*
X104267599Y-84258514D02*
X104267599Y-84029942D01*
X104267599Y-84029942D02*
X104305695Y-83953752D01*
X104305695Y-83953752D02*
X104343790Y-83915657D01*
X104343790Y-83915657D02*
X104419980Y-83877561D01*
X104419980Y-83877561D02*
X104534266Y-83877561D01*
X104534266Y-83877561D02*
X104610457Y-83915657D01*
X104610457Y-83915657D02*
X104648552Y-83953752D01*
X104648552Y-83953752D02*
X104686647Y-84029942D01*
X104686647Y-84029942D02*
X104686647Y-84258514D01*
X104686647Y-84258514D02*
X104648552Y-84334704D01*
X104648552Y-84334704D02*
X104610457Y-84372800D01*
X104610457Y-84372800D02*
X104534266Y-84410895D01*
X104534266Y-84410895D02*
X104419980Y-84410895D01*
X105029505Y-83877561D02*
X105029505Y-84410895D01*
X105029505Y-83953752D02*
X105067600Y-83915657D01*
X105067600Y-83915657D02*
X105143790Y-83877561D01*
X105143790Y-83877561D02*
X105258076Y-83877561D01*
X105258076Y-83877561D02*
X105334267Y-83915657D01*
X105334267Y-83915657D02*
X105372362Y-83991847D01*
X105372362Y-83991847D02*
X105372362Y-84410895D01*
X106058077Y-84372800D02*
X105981886Y-84410895D01*
X105981886Y-84410895D02*
X105829505Y-84410895D01*
X105829505Y-84410895D02*
X105753315Y-84372800D01*
X105753315Y-84372800D02*
X105715219Y-84296609D01*
X105715219Y-84296609D02*
X105715219Y-83991847D01*
X105715219Y-83991847D02*
X105753315Y-83915657D01*
X105753315Y-83915657D02*
X105829505Y-83877561D01*
X105829505Y-83877561D02*
X105981886Y-83877561D01*
X105981886Y-83877561D02*
X106058077Y-83915657D01*
X106058077Y-83915657D02*
X106096172Y-83991847D01*
X106096172Y-83991847D02*
X106096172Y-84068038D01*
X106096172Y-84068038D02*
X105715219Y-84144228D01*
X107315219Y-83991847D02*
X107429505Y-84029942D01*
X107429505Y-84029942D02*
X107467600Y-84068038D01*
X107467600Y-84068038D02*
X107505696Y-84144228D01*
X107505696Y-84144228D02*
X107505696Y-84258514D01*
X107505696Y-84258514D02*
X107467600Y-84334704D01*
X107467600Y-84334704D02*
X107429505Y-84372800D01*
X107429505Y-84372800D02*
X107353315Y-84410895D01*
X107353315Y-84410895D02*
X107048553Y-84410895D01*
X107048553Y-84410895D02*
X107048553Y-83610895D01*
X107048553Y-83610895D02*
X107315219Y-83610895D01*
X107315219Y-83610895D02*
X107391410Y-83648990D01*
X107391410Y-83648990D02*
X107429505Y-83687085D01*
X107429505Y-83687085D02*
X107467600Y-83763276D01*
X107467600Y-83763276D02*
X107467600Y-83839466D01*
X107467600Y-83839466D02*
X107429505Y-83915657D01*
X107429505Y-83915657D02*
X107391410Y-83953752D01*
X107391410Y-83953752D02*
X107315219Y-83991847D01*
X107315219Y-83991847D02*
X107048553Y-83991847D01*
X107962838Y-84410895D02*
X107886648Y-84372800D01*
X107886648Y-84372800D02*
X107848553Y-84296609D01*
X107848553Y-84296609D02*
X107848553Y-83610895D01*
X108610458Y-83877561D02*
X108610458Y-84410895D01*
X108267601Y-83877561D02*
X108267601Y-84296609D01*
X108267601Y-84296609D02*
X108305696Y-84372800D01*
X108305696Y-84372800D02*
X108381886Y-84410895D01*
X108381886Y-84410895D02*
X108496172Y-84410895D01*
X108496172Y-84410895D02*
X108572363Y-84372800D01*
X108572363Y-84372800D02*
X108610458Y-84334704D01*
X109296173Y-84372800D02*
X109219982Y-84410895D01*
X109219982Y-84410895D02*
X109067601Y-84410895D01*
X109067601Y-84410895D02*
X108991411Y-84372800D01*
X108991411Y-84372800D02*
X108953315Y-84296609D01*
X108953315Y-84296609D02*
X108953315Y-83991847D01*
X108953315Y-83991847D02*
X108991411Y-83915657D01*
X108991411Y-83915657D02*
X109067601Y-83877561D01*
X109067601Y-83877561D02*
X109219982Y-83877561D01*
X109219982Y-83877561D02*
X109296173Y-83915657D01*
X109296173Y-83915657D02*
X109334268Y-83991847D01*
X109334268Y-83991847D02*
X109334268Y-84068038D01*
X109334268Y-84068038D02*
X108953315Y-84144228D01*
X109562839Y-83877561D02*
X109867601Y-83877561D01*
X109677125Y-83610895D02*
X109677125Y-84296609D01*
X109677125Y-84296609D02*
X109715220Y-84372800D01*
X109715220Y-84372800D02*
X109791410Y-84410895D01*
X109791410Y-84410895D02*
X109867601Y-84410895D01*
X110248553Y-84410895D02*
X110172363Y-84372800D01*
X110172363Y-84372800D02*
X110134268Y-84334704D01*
X110134268Y-84334704D02*
X110096172Y-84258514D01*
X110096172Y-84258514D02*
X110096172Y-84029942D01*
X110096172Y-84029942D02*
X110134268Y-83953752D01*
X110134268Y-83953752D02*
X110172363Y-83915657D01*
X110172363Y-83915657D02*
X110248553Y-83877561D01*
X110248553Y-83877561D02*
X110362839Y-83877561D01*
X110362839Y-83877561D02*
X110439030Y-83915657D01*
X110439030Y-83915657D02*
X110477125Y-83953752D01*
X110477125Y-83953752D02*
X110515220Y-84029942D01*
X110515220Y-84029942D02*
X110515220Y-84258514D01*
X110515220Y-84258514D02*
X110477125Y-84334704D01*
X110477125Y-84334704D02*
X110439030Y-84372800D01*
X110439030Y-84372800D02*
X110362839Y-84410895D01*
X110362839Y-84410895D02*
X110248553Y-84410895D01*
X110972363Y-84410895D02*
X110896173Y-84372800D01*
X110896173Y-84372800D02*
X110858078Y-84334704D01*
X110858078Y-84334704D02*
X110819982Y-84258514D01*
X110819982Y-84258514D02*
X110819982Y-84029942D01*
X110819982Y-84029942D02*
X110858078Y-83953752D01*
X110858078Y-83953752D02*
X110896173Y-83915657D01*
X110896173Y-83915657D02*
X110972363Y-83877561D01*
X110972363Y-83877561D02*
X111086649Y-83877561D01*
X111086649Y-83877561D02*
X111162840Y-83915657D01*
X111162840Y-83915657D02*
X111200935Y-83953752D01*
X111200935Y-83953752D02*
X111239030Y-84029942D01*
X111239030Y-84029942D02*
X111239030Y-84258514D01*
X111239030Y-84258514D02*
X111200935Y-84334704D01*
X111200935Y-84334704D02*
X111162840Y-84372800D01*
X111162840Y-84372800D02*
X111086649Y-84410895D01*
X111086649Y-84410895D02*
X110972363Y-84410895D01*
X111467602Y-83877561D02*
X111772364Y-83877561D01*
X111581888Y-83610895D02*
X111581888Y-84296609D01*
X111581888Y-84296609D02*
X111619983Y-84372800D01*
X111619983Y-84372800D02*
X111696173Y-84410895D01*
X111696173Y-84410895D02*
X111772364Y-84410895D01*
X112039031Y-84410895D02*
X112039031Y-83610895D01*
X112381888Y-84410895D02*
X112381888Y-83991847D01*
X112381888Y-83991847D02*
X112343793Y-83915657D01*
X112343793Y-83915657D02*
X112267602Y-83877561D01*
X112267602Y-83877561D02*
X112153316Y-83877561D01*
X112153316Y-83877561D02*
X112077126Y-83915657D01*
X112077126Y-83915657D02*
X112039031Y-83953752D01*
X113372365Y-84410895D02*
X113372365Y-83610895D01*
X113372365Y-83610895D02*
X113639031Y-84182323D01*
X113639031Y-84182323D02*
X113905698Y-83610895D01*
X113905698Y-83610895D02*
X113905698Y-84410895D01*
X114400936Y-84410895D02*
X114324746Y-84372800D01*
X114324746Y-84372800D02*
X114286651Y-84334704D01*
X114286651Y-84334704D02*
X114248555Y-84258514D01*
X114248555Y-84258514D02*
X114248555Y-84029942D01*
X114248555Y-84029942D02*
X114286651Y-83953752D01*
X114286651Y-83953752D02*
X114324746Y-83915657D01*
X114324746Y-83915657D02*
X114400936Y-83877561D01*
X114400936Y-83877561D02*
X114515222Y-83877561D01*
X114515222Y-83877561D02*
X114591413Y-83915657D01*
X114591413Y-83915657D02*
X114629508Y-83953752D01*
X114629508Y-83953752D02*
X114667603Y-84029942D01*
X114667603Y-84029942D02*
X114667603Y-84258514D01*
X114667603Y-84258514D02*
X114629508Y-84334704D01*
X114629508Y-84334704D02*
X114591413Y-84372800D01*
X114591413Y-84372800D02*
X114515222Y-84410895D01*
X114515222Y-84410895D02*
X114400936Y-84410895D01*
X115353318Y-84410895D02*
X115353318Y-83610895D01*
X115353318Y-84372800D02*
X115277127Y-84410895D01*
X115277127Y-84410895D02*
X115124746Y-84410895D01*
X115124746Y-84410895D02*
X115048556Y-84372800D01*
X115048556Y-84372800D02*
X115010461Y-84334704D01*
X115010461Y-84334704D02*
X114972365Y-84258514D01*
X114972365Y-84258514D02*
X114972365Y-84029942D01*
X114972365Y-84029942D02*
X115010461Y-83953752D01*
X115010461Y-83953752D02*
X115048556Y-83915657D01*
X115048556Y-83915657D02*
X115124746Y-83877561D01*
X115124746Y-83877561D02*
X115277127Y-83877561D01*
X115277127Y-83877561D02*
X115353318Y-83915657D01*
X116077128Y-83877561D02*
X116077128Y-84410895D01*
X115734271Y-83877561D02*
X115734271Y-84296609D01*
X115734271Y-84296609D02*
X115772366Y-84372800D01*
X115772366Y-84372800D02*
X115848556Y-84410895D01*
X115848556Y-84410895D02*
X115962842Y-84410895D01*
X115962842Y-84410895D02*
X116039033Y-84372800D01*
X116039033Y-84372800D02*
X116077128Y-84334704D01*
X116572366Y-84410895D02*
X116496176Y-84372800D01*
X116496176Y-84372800D02*
X116458081Y-84296609D01*
X116458081Y-84296609D02*
X116458081Y-83610895D01*
X117181891Y-84372800D02*
X117105700Y-84410895D01*
X117105700Y-84410895D02*
X116953319Y-84410895D01*
X116953319Y-84410895D02*
X116877129Y-84372800D01*
X116877129Y-84372800D02*
X116839033Y-84296609D01*
X116839033Y-84296609D02*
X116839033Y-83991847D01*
X116839033Y-83991847D02*
X116877129Y-83915657D01*
X116877129Y-83915657D02*
X116953319Y-83877561D01*
X116953319Y-83877561D02*
X117105700Y-83877561D01*
X117105700Y-83877561D02*
X117181891Y-83915657D01*
X117181891Y-83915657D02*
X117219986Y-83991847D01*
X117219986Y-83991847D02*
X117219986Y-84068038D01*
X117219986Y-84068038D02*
X116839033Y-84144228D01*
X117891561Y-84168877D02*
X118539180Y-84168877D01*
X118539180Y-84168877D02*
X118615371Y-84206972D01*
X118615371Y-84206972D02*
X118653466Y-84245068D01*
X118653466Y-84245068D02*
X118691561Y-84321258D01*
X118691561Y-84321258D02*
X118691561Y-84435544D01*
X118691561Y-84435544D02*
X118653466Y-84511734D01*
X118386800Y-84168877D02*
X118424895Y-84245068D01*
X118424895Y-84245068D02*
X118424895Y-84397449D01*
X118424895Y-84397449D02*
X118386800Y-84473639D01*
X118386800Y-84473639D02*
X118348704Y-84511734D01*
X118348704Y-84511734D02*
X118272514Y-84549830D01*
X118272514Y-84549830D02*
X118043942Y-84549830D01*
X118043942Y-84549830D02*
X117967752Y-84511734D01*
X117967752Y-84511734D02*
X117929657Y-84473639D01*
X117929657Y-84473639D02*
X117891561Y-84397449D01*
X117891561Y-84397449D02*
X117891561Y-84245068D01*
X117891561Y-84245068D02*
X117929657Y-84168877D01*
X118424895Y-83787924D02*
X117891561Y-83787924D01*
X117624895Y-83787924D02*
X117662990Y-83826020D01*
X117662990Y-83826020D02*
X117701085Y-83787924D01*
X117701085Y-83787924D02*
X117662990Y-83749829D01*
X117662990Y-83749829D02*
X117624895Y-83787924D01*
X117624895Y-83787924D02*
X117701085Y-83787924D01*
X117891561Y-83521258D02*
X117891561Y-83216496D01*
X117624895Y-83406972D02*
X118310609Y-83406972D01*
X118310609Y-83406972D02*
X118386800Y-83368877D01*
X118386800Y-83368877D02*
X118424895Y-83292687D01*
X118424895Y-83292687D02*
X118424895Y-83216496D01*
X118424895Y-82949829D02*
X117624895Y-82949829D01*
X118424895Y-82606972D02*
X118005847Y-82606972D01*
X118005847Y-82606972D02*
X117929657Y-82645067D01*
X117929657Y-82645067D02*
X117891561Y-82721258D01*
X117891561Y-82721258D02*
X117891561Y-82835544D01*
X117891561Y-82835544D02*
X117929657Y-82911734D01*
X117929657Y-82911734D02*
X117967752Y-82949829D01*
X117891561Y-81883162D02*
X118424895Y-81883162D01*
X117891561Y-82226019D02*
X118310609Y-82226019D01*
X118310609Y-82226019D02*
X118386800Y-82187924D01*
X118386800Y-82187924D02*
X118424895Y-82111734D01*
X118424895Y-82111734D02*
X118424895Y-81997448D01*
X118424895Y-81997448D02*
X118386800Y-81921257D01*
X118386800Y-81921257D02*
X118348704Y-81883162D01*
X118424895Y-81502209D02*
X117624895Y-81502209D01*
X117929657Y-81502209D02*
X117891561Y-81426019D01*
X117891561Y-81426019D02*
X117891561Y-81273638D01*
X117891561Y-81273638D02*
X117929657Y-81197447D01*
X117929657Y-81197447D02*
X117967752Y-81159352D01*
X117967752Y-81159352D02*
X118043942Y-81121257D01*
X118043942Y-81121257D02*
X118272514Y-81121257D01*
X118272514Y-81121257D02*
X118348704Y-81159352D01*
X118348704Y-81159352D02*
X118386800Y-81197447D01*
X118386800Y-81197447D02*
X118424895Y-81273638D01*
X118424895Y-81273638D02*
X118424895Y-81426019D01*
X118424895Y-81426019D02*
X118386800Y-81502209D01*
X118348704Y-80778399D02*
X118386800Y-80740304D01*
X118386800Y-80740304D02*
X118424895Y-80778399D01*
X118424895Y-80778399D02*
X118386800Y-80816495D01*
X118386800Y-80816495D02*
X118348704Y-80778399D01*
X118348704Y-80778399D02*
X118424895Y-80778399D01*
X118386800Y-80054590D02*
X118424895Y-80130781D01*
X118424895Y-80130781D02*
X118424895Y-80283162D01*
X118424895Y-80283162D02*
X118386800Y-80359352D01*
X118386800Y-80359352D02*
X118348704Y-80397447D01*
X118348704Y-80397447D02*
X118272514Y-80435543D01*
X118272514Y-80435543D02*
X118043942Y-80435543D01*
X118043942Y-80435543D02*
X117967752Y-80397447D01*
X117967752Y-80397447D02*
X117929657Y-80359352D01*
X117929657Y-80359352D02*
X117891561Y-80283162D01*
X117891561Y-80283162D02*
X117891561Y-80130781D01*
X117891561Y-80130781D02*
X117929657Y-80054590D01*
X118424895Y-79597448D02*
X118386800Y-79673638D01*
X118386800Y-79673638D02*
X118348704Y-79711733D01*
X118348704Y-79711733D02*
X118272514Y-79749829D01*
X118272514Y-79749829D02*
X118043942Y-79749829D01*
X118043942Y-79749829D02*
X117967752Y-79711733D01*
X117967752Y-79711733D02*
X117929657Y-79673638D01*
X117929657Y-79673638D02*
X117891561Y-79597448D01*
X117891561Y-79597448D02*
X117891561Y-79483162D01*
X117891561Y-79483162D02*
X117929657Y-79406971D01*
X117929657Y-79406971D02*
X117967752Y-79368876D01*
X117967752Y-79368876D02*
X118043942Y-79330781D01*
X118043942Y-79330781D02*
X118272514Y-79330781D01*
X118272514Y-79330781D02*
X118348704Y-79368876D01*
X118348704Y-79368876D02*
X118386800Y-79406971D01*
X118386800Y-79406971D02*
X118424895Y-79483162D01*
X118424895Y-79483162D02*
X118424895Y-79597448D01*
X118424895Y-78987923D02*
X117891561Y-78987923D01*
X117967752Y-78987923D02*
X117929657Y-78949828D01*
X117929657Y-78949828D02*
X117891561Y-78873638D01*
X117891561Y-78873638D02*
X117891561Y-78759352D01*
X117891561Y-78759352D02*
X117929657Y-78683161D01*
X117929657Y-78683161D02*
X118005847Y-78645066D01*
X118005847Y-78645066D02*
X118424895Y-78645066D01*
X118005847Y-78645066D02*
X117929657Y-78606971D01*
X117929657Y-78606971D02*
X117891561Y-78530780D01*
X117891561Y-78530780D02*
X117891561Y-78416495D01*
X117891561Y-78416495D02*
X117929657Y-78340304D01*
X117929657Y-78340304D02*
X118005847Y-78302209D01*
X118005847Y-78302209D02*
X118424895Y-78302209D01*
X117586800Y-77349828D02*
X118615371Y-78035542D01*
X118424895Y-77083161D02*
X117891561Y-77083161D01*
X117967752Y-77083161D02*
X117929657Y-77045066D01*
X117929657Y-77045066D02*
X117891561Y-76968876D01*
X117891561Y-76968876D02*
X117891561Y-76854590D01*
X117891561Y-76854590D02*
X117929657Y-76778399D01*
X117929657Y-76778399D02*
X118005847Y-76740304D01*
X118005847Y-76740304D02*
X118424895Y-76740304D01*
X118005847Y-76740304D02*
X117929657Y-76702209D01*
X117929657Y-76702209D02*
X117891561Y-76626018D01*
X117891561Y-76626018D02*
X117891561Y-76511733D01*
X117891561Y-76511733D02*
X117929657Y-76435542D01*
X117929657Y-76435542D02*
X118005847Y-76397447D01*
X118005847Y-76397447D02*
X118424895Y-76397447D01*
X118386800Y-75711732D02*
X118424895Y-75787923D01*
X118424895Y-75787923D02*
X118424895Y-75940304D01*
X118424895Y-75940304D02*
X118386800Y-76016494D01*
X118386800Y-76016494D02*
X118310609Y-76054590D01*
X118310609Y-76054590D02*
X118005847Y-76054590D01*
X118005847Y-76054590D02*
X117929657Y-76016494D01*
X117929657Y-76016494D02*
X117891561Y-75940304D01*
X117891561Y-75940304D02*
X117891561Y-75787923D01*
X117891561Y-75787923D02*
X117929657Y-75711732D01*
X117929657Y-75711732D02*
X118005847Y-75673637D01*
X118005847Y-75673637D02*
X118082038Y-75673637D01*
X118082038Y-75673637D02*
X118158228Y-76054590D01*
X117891561Y-74987923D02*
X118539180Y-74987923D01*
X118539180Y-74987923D02*
X118615371Y-75026018D01*
X118615371Y-75026018D02*
X118653466Y-75064114D01*
X118653466Y-75064114D02*
X118691561Y-75140304D01*
X118691561Y-75140304D02*
X118691561Y-75254590D01*
X118691561Y-75254590D02*
X118653466Y-75330780D01*
X118386800Y-74987923D02*
X118424895Y-75064114D01*
X118424895Y-75064114D02*
X118424895Y-75216495D01*
X118424895Y-75216495D02*
X118386800Y-75292685D01*
X118386800Y-75292685D02*
X118348704Y-75330780D01*
X118348704Y-75330780D02*
X118272514Y-75368876D01*
X118272514Y-75368876D02*
X118043942Y-75368876D01*
X118043942Y-75368876D02*
X117967752Y-75330780D01*
X117967752Y-75330780D02*
X117929657Y-75292685D01*
X117929657Y-75292685D02*
X117891561Y-75216495D01*
X117891561Y-75216495D02*
X117891561Y-75064114D01*
X117891561Y-75064114D02*
X117929657Y-74987923D01*
X118424895Y-74264113D02*
X118005847Y-74264113D01*
X118005847Y-74264113D02*
X117929657Y-74302208D01*
X117929657Y-74302208D02*
X117891561Y-74378399D01*
X117891561Y-74378399D02*
X117891561Y-74530780D01*
X117891561Y-74530780D02*
X117929657Y-74606970D01*
X118386800Y-74264113D02*
X118424895Y-74340304D01*
X118424895Y-74340304D02*
X118424895Y-74530780D01*
X118424895Y-74530780D02*
X118386800Y-74606970D01*
X118386800Y-74606970D02*
X118310609Y-74645066D01*
X118310609Y-74645066D02*
X118234419Y-74645066D01*
X118234419Y-74645066D02*
X118158228Y-74606970D01*
X118158228Y-74606970D02*
X118120133Y-74530780D01*
X118120133Y-74530780D02*
X118120133Y-74340304D01*
X118120133Y-74340304D02*
X118082038Y-74264113D01*
X117624895Y-73540303D02*
X117624895Y-73692684D01*
X117624895Y-73692684D02*
X117662990Y-73768875D01*
X117662990Y-73768875D02*
X117701085Y-73806970D01*
X117701085Y-73806970D02*
X117815371Y-73883160D01*
X117815371Y-73883160D02*
X117967752Y-73921256D01*
X117967752Y-73921256D02*
X118272514Y-73921256D01*
X118272514Y-73921256D02*
X118348704Y-73883160D01*
X118348704Y-73883160D02*
X118386800Y-73845065D01*
X118386800Y-73845065D02*
X118424895Y-73768875D01*
X118424895Y-73768875D02*
X118424895Y-73616494D01*
X118424895Y-73616494D02*
X118386800Y-73540303D01*
X118386800Y-73540303D02*
X118348704Y-73502208D01*
X118348704Y-73502208D02*
X118272514Y-73464113D01*
X118272514Y-73464113D02*
X118082038Y-73464113D01*
X118082038Y-73464113D02*
X118005847Y-73502208D01*
X118005847Y-73502208D02*
X117967752Y-73540303D01*
X117967752Y-73540303D02*
X117929657Y-73616494D01*
X117929657Y-73616494D02*
X117929657Y-73768875D01*
X117929657Y-73768875D02*
X117967752Y-73845065D01*
X117967752Y-73845065D02*
X118005847Y-73883160D01*
X118005847Y-73883160D02*
X118082038Y-73921256D01*
X117624895Y-72740303D02*
X117624895Y-73121255D01*
X117624895Y-73121255D02*
X118005847Y-73159351D01*
X118005847Y-73159351D02*
X117967752Y-73121255D01*
X117967752Y-73121255D02*
X117929657Y-73045065D01*
X117929657Y-73045065D02*
X117929657Y-72854589D01*
X117929657Y-72854589D02*
X117967752Y-72778398D01*
X117967752Y-72778398D02*
X118005847Y-72740303D01*
X118005847Y-72740303D02*
X118082038Y-72702208D01*
X118082038Y-72702208D02*
X118272514Y-72702208D01*
X118272514Y-72702208D02*
X118348704Y-72740303D01*
X118348704Y-72740303D02*
X118386800Y-72778398D01*
X118386800Y-72778398D02*
X118424895Y-72854589D01*
X118424895Y-72854589D02*
X118424895Y-73045065D01*
X118424895Y-73045065D02*
X118386800Y-73121255D01*
X118386800Y-73121255D02*
X118348704Y-73159351D01*
X117586800Y-71787922D02*
X118615371Y-72473636D01*
X118424895Y-71521255D02*
X117891561Y-71521255D01*
X117967752Y-71521255D02*
X117929657Y-71483160D01*
X117929657Y-71483160D02*
X117891561Y-71406970D01*
X117891561Y-71406970D02*
X117891561Y-71292684D01*
X117891561Y-71292684D02*
X117929657Y-71216493D01*
X117929657Y-71216493D02*
X118005847Y-71178398D01*
X118005847Y-71178398D02*
X118424895Y-71178398D01*
X118005847Y-71178398D02*
X117929657Y-71140303D01*
X117929657Y-71140303D02*
X117891561Y-71064112D01*
X117891561Y-71064112D02*
X117891561Y-70949827D01*
X117891561Y-70949827D02*
X117929657Y-70873636D01*
X117929657Y-70873636D02*
X118005847Y-70835541D01*
X118005847Y-70835541D02*
X118424895Y-70835541D01*
X118386800Y-70149826D02*
X118424895Y-70226017D01*
X118424895Y-70226017D02*
X118424895Y-70378398D01*
X118424895Y-70378398D02*
X118386800Y-70454588D01*
X118386800Y-70454588D02*
X118310609Y-70492684D01*
X118310609Y-70492684D02*
X118005847Y-70492684D01*
X118005847Y-70492684D02*
X117929657Y-70454588D01*
X117929657Y-70454588D02*
X117891561Y-70378398D01*
X117891561Y-70378398D02*
X117891561Y-70226017D01*
X117891561Y-70226017D02*
X117929657Y-70149826D01*
X117929657Y-70149826D02*
X118005847Y-70111731D01*
X118005847Y-70111731D02*
X118082038Y-70111731D01*
X118082038Y-70111731D02*
X118158228Y-70492684D01*
X117891561Y-69426017D02*
X118539180Y-69426017D01*
X118539180Y-69426017D02*
X118615371Y-69464112D01*
X118615371Y-69464112D02*
X118653466Y-69502208D01*
X118653466Y-69502208D02*
X118691561Y-69578398D01*
X118691561Y-69578398D02*
X118691561Y-69692684D01*
X118691561Y-69692684D02*
X118653466Y-69768874D01*
X118386800Y-69426017D02*
X118424895Y-69502208D01*
X118424895Y-69502208D02*
X118424895Y-69654589D01*
X118424895Y-69654589D02*
X118386800Y-69730779D01*
X118386800Y-69730779D02*
X118348704Y-69768874D01*
X118348704Y-69768874D02*
X118272514Y-69806970D01*
X118272514Y-69806970D02*
X118043942Y-69806970D01*
X118043942Y-69806970D02*
X117967752Y-69768874D01*
X117967752Y-69768874D02*
X117929657Y-69730779D01*
X117929657Y-69730779D02*
X117891561Y-69654589D01*
X117891561Y-69654589D02*
X117891561Y-69502208D01*
X117891561Y-69502208D02*
X117929657Y-69426017D01*
X118424895Y-68702207D02*
X118005847Y-68702207D01*
X118005847Y-68702207D02*
X117929657Y-68740302D01*
X117929657Y-68740302D02*
X117891561Y-68816493D01*
X117891561Y-68816493D02*
X117891561Y-68968874D01*
X117891561Y-68968874D02*
X117929657Y-69045064D01*
X118386800Y-68702207D02*
X118424895Y-68778398D01*
X118424895Y-68778398D02*
X118424895Y-68968874D01*
X118424895Y-68968874D02*
X118386800Y-69045064D01*
X118386800Y-69045064D02*
X118310609Y-69083160D01*
X118310609Y-69083160D02*
X118234419Y-69083160D01*
X118234419Y-69083160D02*
X118158228Y-69045064D01*
X118158228Y-69045064D02*
X118120133Y-68968874D01*
X118120133Y-68968874D02*
X118120133Y-68778398D01*
X118120133Y-68778398D02*
X118082038Y-68702207D01*
X117891561Y-68321254D02*
X118691561Y-68321254D01*
X117929657Y-68321254D02*
X117891561Y-68245064D01*
X117891561Y-68245064D02*
X117891561Y-68092683D01*
X117891561Y-68092683D02*
X117929657Y-68016492D01*
X117929657Y-68016492D02*
X117967752Y-67978397D01*
X117967752Y-67978397D02*
X118043942Y-67940302D01*
X118043942Y-67940302D02*
X118272514Y-67940302D01*
X118272514Y-67940302D02*
X118348704Y-67978397D01*
X118348704Y-67978397D02*
X118386800Y-68016492D01*
X118386800Y-68016492D02*
X118424895Y-68092683D01*
X118424895Y-68092683D02*
X118424895Y-68245064D01*
X118424895Y-68245064D02*
X118386800Y-68321254D01*
X118424895Y-67597444D02*
X117624895Y-67597444D01*
X118424895Y-67254587D02*
X118005847Y-67254587D01*
X118005847Y-67254587D02*
X117929657Y-67292682D01*
X117929657Y-67292682D02*
X117891561Y-67368873D01*
X117891561Y-67368873D02*
X117891561Y-67483159D01*
X117891561Y-67483159D02*
X117929657Y-67559349D01*
X117929657Y-67559349D02*
X117967752Y-67597444D01*
X118424895Y-66759349D02*
X118386800Y-66835539D01*
X118386800Y-66835539D02*
X118348704Y-66873634D01*
X118348704Y-66873634D02*
X118272514Y-66911730D01*
X118272514Y-66911730D02*
X118043942Y-66911730D01*
X118043942Y-66911730D02*
X117967752Y-66873634D01*
X117967752Y-66873634D02*
X117929657Y-66835539D01*
X117929657Y-66835539D02*
X117891561Y-66759349D01*
X117891561Y-66759349D02*
X117891561Y-66645063D01*
X117891561Y-66645063D02*
X117929657Y-66568872D01*
X117929657Y-66568872D02*
X117967752Y-66530777D01*
X117967752Y-66530777D02*
X118043942Y-66492682D01*
X118043942Y-66492682D02*
X118272514Y-66492682D01*
X118272514Y-66492682D02*
X118348704Y-66530777D01*
X118348704Y-66530777D02*
X118386800Y-66568872D01*
X118386800Y-66568872D02*
X118424895Y-66645063D01*
X118424895Y-66645063D02*
X118424895Y-66759349D01*
X117891561Y-66149824D02*
X118424895Y-66149824D01*
X117967752Y-66149824D02*
X117929657Y-66111729D01*
X117929657Y-66111729D02*
X117891561Y-66035539D01*
X117891561Y-66035539D02*
X117891561Y-65921253D01*
X117891561Y-65921253D02*
X117929657Y-65845062D01*
X117929657Y-65845062D02*
X118005847Y-65806967D01*
X118005847Y-65806967D02*
X118424895Y-65806967D01*
X118386800Y-65121252D02*
X118424895Y-65197443D01*
X118424895Y-65197443D02*
X118424895Y-65349824D01*
X118424895Y-65349824D02*
X118386800Y-65426014D01*
X118386800Y-65426014D02*
X118310609Y-65464110D01*
X118310609Y-65464110D02*
X118005847Y-65464110D01*
X118005847Y-65464110D02*
X117929657Y-65426014D01*
X117929657Y-65426014D02*
X117891561Y-65349824D01*
X117891561Y-65349824D02*
X117891561Y-65197443D01*
X117891561Y-65197443D02*
X117929657Y-65121252D01*
X117929657Y-65121252D02*
X118005847Y-65083157D01*
X118005847Y-65083157D02*
X118082038Y-65083157D01*
X118082038Y-65083157D02*
X118158228Y-65464110D01*
X118120133Y-64740300D02*
X118120133Y-64130777D01*
X118424895Y-63749824D02*
X117891561Y-63749824D01*
X117967752Y-63749824D02*
X117929657Y-63711729D01*
X117929657Y-63711729D02*
X117891561Y-63635539D01*
X117891561Y-63635539D02*
X117891561Y-63521253D01*
X117891561Y-63521253D02*
X117929657Y-63445062D01*
X117929657Y-63445062D02*
X118005847Y-63406967D01*
X118005847Y-63406967D02*
X118424895Y-63406967D01*
X118005847Y-63406967D02*
X117929657Y-63368872D01*
X117929657Y-63368872D02*
X117891561Y-63292681D01*
X117891561Y-63292681D02*
X117891561Y-63178396D01*
X117891561Y-63178396D02*
X117929657Y-63102205D01*
X117929657Y-63102205D02*
X118005847Y-63064110D01*
X118005847Y-63064110D02*
X118424895Y-63064110D01*
X118424895Y-62568872D02*
X118386800Y-62645062D01*
X118386800Y-62645062D02*
X118348704Y-62683157D01*
X118348704Y-62683157D02*
X118272514Y-62721253D01*
X118272514Y-62721253D02*
X118043942Y-62721253D01*
X118043942Y-62721253D02*
X117967752Y-62683157D01*
X117967752Y-62683157D02*
X117929657Y-62645062D01*
X117929657Y-62645062D02*
X117891561Y-62568872D01*
X117891561Y-62568872D02*
X117891561Y-62454586D01*
X117891561Y-62454586D02*
X117929657Y-62378395D01*
X117929657Y-62378395D02*
X117967752Y-62340300D01*
X117967752Y-62340300D02*
X118043942Y-62302205D01*
X118043942Y-62302205D02*
X118272514Y-62302205D01*
X118272514Y-62302205D02*
X118348704Y-62340300D01*
X118348704Y-62340300D02*
X118386800Y-62378395D01*
X118386800Y-62378395D02*
X118424895Y-62454586D01*
X118424895Y-62454586D02*
X118424895Y-62568872D01*
X118424895Y-61616490D02*
X117624895Y-61616490D01*
X118386800Y-61616490D02*
X118424895Y-61692681D01*
X118424895Y-61692681D02*
X118424895Y-61845062D01*
X118424895Y-61845062D02*
X118386800Y-61921252D01*
X118386800Y-61921252D02*
X118348704Y-61959347D01*
X118348704Y-61959347D02*
X118272514Y-61997443D01*
X118272514Y-61997443D02*
X118043942Y-61997443D01*
X118043942Y-61997443D02*
X117967752Y-61959347D01*
X117967752Y-61959347D02*
X117929657Y-61921252D01*
X117929657Y-61921252D02*
X117891561Y-61845062D01*
X117891561Y-61845062D02*
X117891561Y-61692681D01*
X117891561Y-61692681D02*
X117929657Y-61616490D01*
X117891561Y-60892680D02*
X118424895Y-60892680D01*
X117891561Y-61235537D02*
X118310609Y-61235537D01*
X118310609Y-61235537D02*
X118386800Y-61197442D01*
X118386800Y-61197442D02*
X118424895Y-61121252D01*
X118424895Y-61121252D02*
X118424895Y-61006966D01*
X118424895Y-61006966D02*
X118386800Y-60930775D01*
X118386800Y-60930775D02*
X118348704Y-60892680D01*
X118424895Y-60397442D02*
X118386800Y-60473632D01*
X118386800Y-60473632D02*
X118310609Y-60511727D01*
X118310609Y-60511727D02*
X117624895Y-60511727D01*
X118424895Y-59749822D02*
X118005847Y-59749822D01*
X118005847Y-59749822D02*
X117929657Y-59787917D01*
X117929657Y-59787917D02*
X117891561Y-59864108D01*
X117891561Y-59864108D02*
X117891561Y-60016489D01*
X117891561Y-60016489D02*
X117929657Y-60092679D01*
X118386800Y-59749822D02*
X118424895Y-59826013D01*
X118424895Y-59826013D02*
X118424895Y-60016489D01*
X118424895Y-60016489D02*
X118386800Y-60092679D01*
X118386800Y-60092679D02*
X118310609Y-60130775D01*
X118310609Y-60130775D02*
X118234419Y-60130775D01*
X118234419Y-60130775D02*
X118158228Y-60092679D01*
X118158228Y-60092679D02*
X118120133Y-60016489D01*
X118120133Y-60016489D02*
X118120133Y-59826013D01*
X118120133Y-59826013D02*
X118082038Y-59749822D01*
X118424895Y-59368869D02*
X117891561Y-59368869D01*
X118043942Y-59368869D02*
X117967752Y-59330774D01*
X117967752Y-59330774D02*
X117929657Y-59292679D01*
X117929657Y-59292679D02*
X117891561Y-59216488D01*
X117891561Y-59216488D02*
X117891561Y-59140298D01*
X100771895Y-63226591D02*
X100390942Y-63493258D01*
X100771895Y-63683734D02*
X99971895Y-63683734D01*
X99971895Y-63683734D02*
X99971895Y-63378972D01*
X99971895Y-63378972D02*
X100009990Y-63302782D01*
X100009990Y-63302782D02*
X100048085Y-63264687D01*
X100048085Y-63264687D02*
X100124276Y-63226591D01*
X100124276Y-63226591D02*
X100238561Y-63226591D01*
X100238561Y-63226591D02*
X100314752Y-63264687D01*
X100314752Y-63264687D02*
X100352847Y-63302782D01*
X100352847Y-63302782D02*
X100390942Y-63378972D01*
X100390942Y-63378972D02*
X100390942Y-63683734D01*
X100048085Y-62921830D02*
X100009990Y-62883734D01*
X100009990Y-62883734D02*
X99971895Y-62807544D01*
X99971895Y-62807544D02*
X99971895Y-62617068D01*
X99971895Y-62617068D02*
X100009990Y-62540877D01*
X100009990Y-62540877D02*
X100048085Y-62502782D01*
X100048085Y-62502782D02*
X100124276Y-62464687D01*
X100124276Y-62464687D02*
X100200466Y-62464687D01*
X100200466Y-62464687D02*
X100314752Y-62502782D01*
X100314752Y-62502782D02*
X100771895Y-62959925D01*
X100771895Y-62959925D02*
X100771895Y-62464687D01*
X99971895Y-61969448D02*
X99971895Y-61893258D01*
X99971895Y-61893258D02*
X100009990Y-61817067D01*
X100009990Y-61817067D02*
X100048085Y-61778972D01*
X100048085Y-61778972D02*
X100124276Y-61740877D01*
X100124276Y-61740877D02*
X100276657Y-61702782D01*
X100276657Y-61702782D02*
X100467133Y-61702782D01*
X100467133Y-61702782D02*
X100619514Y-61740877D01*
X100619514Y-61740877D02*
X100695704Y-61778972D01*
X100695704Y-61778972D02*
X100733800Y-61817067D01*
X100733800Y-61817067D02*
X100771895Y-61893258D01*
X100771895Y-61893258D02*
X100771895Y-61969448D01*
X100771895Y-61969448D02*
X100733800Y-62045639D01*
X100733800Y-62045639D02*
X100695704Y-62083734D01*
X100695704Y-62083734D02*
X100619514Y-62121829D01*
X100619514Y-62121829D02*
X100467133Y-62159925D01*
X100467133Y-62159925D02*
X100276657Y-62159925D01*
X100276657Y-62159925D02*
X100124276Y-62121829D01*
X100124276Y-62121829D02*
X100048085Y-62083734D01*
X100048085Y-62083734D02*
X100009990Y-62045639D01*
X100009990Y-62045639D02*
X99971895Y-61969448D01*
X100048085Y-61398020D02*
X100009990Y-61359924D01*
X100009990Y-61359924D02*
X99971895Y-61283734D01*
X99971895Y-61283734D02*
X99971895Y-61093258D01*
X99971895Y-61093258D02*
X100009990Y-61017067D01*
X100009990Y-61017067D02*
X100048085Y-60978972D01*
X100048085Y-60978972D02*
X100124276Y-60940877D01*
X100124276Y-60940877D02*
X100200466Y-60940877D01*
X100200466Y-60940877D02*
X100314752Y-60978972D01*
X100314752Y-60978972D02*
X100771895Y-61436115D01*
X100771895Y-61436115D02*
X100771895Y-60940877D01*
X99971895Y-60217067D02*
X99971895Y-60598019D01*
X99971895Y-60598019D02*
X100352847Y-60636115D01*
X100352847Y-60636115D02*
X100314752Y-60598019D01*
X100314752Y-60598019D02*
X100276657Y-60521829D01*
X100276657Y-60521829D02*
X100276657Y-60331353D01*
X100276657Y-60331353D02*
X100314752Y-60255162D01*
X100314752Y-60255162D02*
X100352847Y-60217067D01*
X100352847Y-60217067D02*
X100429038Y-60178972D01*
X100429038Y-60178972D02*
X100619514Y-60178972D01*
X100619514Y-60178972D02*
X100695704Y-60217067D01*
X100695704Y-60217067D02*
X100733800Y-60255162D01*
X100733800Y-60255162D02*
X100771895Y-60331353D01*
X100771895Y-60331353D02*
X100771895Y-60521829D01*
X100771895Y-60521829D02*
X100733800Y-60598019D01*
X100733800Y-60598019D02*
X100695704Y-60636115D01*
X99971895Y-59683733D02*
X99971895Y-59607543D01*
X99971895Y-59607543D02*
X100009990Y-59531352D01*
X100009990Y-59531352D02*
X100048085Y-59493257D01*
X100048085Y-59493257D02*
X100124276Y-59455162D01*
X100124276Y-59455162D02*
X100276657Y-59417067D01*
X100276657Y-59417067D02*
X100467133Y-59417067D01*
X100467133Y-59417067D02*
X100619514Y-59455162D01*
X100619514Y-59455162D02*
X100695704Y-59493257D01*
X100695704Y-59493257D02*
X100733800Y-59531352D01*
X100733800Y-59531352D02*
X100771895Y-59607543D01*
X100771895Y-59607543D02*
X100771895Y-59683733D01*
X100771895Y-59683733D02*
X100733800Y-59759924D01*
X100733800Y-59759924D02*
X100695704Y-59798019D01*
X100695704Y-59798019D02*
X100619514Y-59836114D01*
X100619514Y-59836114D02*
X100467133Y-59874210D01*
X100467133Y-59874210D02*
X100276657Y-59874210D01*
X100276657Y-59874210D02*
X100124276Y-59836114D01*
X100124276Y-59836114D02*
X100048085Y-59798019D01*
X100048085Y-59798019D02*
X100009990Y-59759924D01*
X100009990Y-59759924D02*
X99971895Y-59683733D01*
X99971895Y-59150400D02*
X99971895Y-58655162D01*
X99971895Y-58655162D02*
X100276657Y-58921828D01*
X100276657Y-58921828D02*
X100276657Y-58807543D01*
X100276657Y-58807543D02*
X100314752Y-58731352D01*
X100314752Y-58731352D02*
X100352847Y-58693257D01*
X100352847Y-58693257D02*
X100429038Y-58655162D01*
X100429038Y-58655162D02*
X100619514Y-58655162D01*
X100619514Y-58655162D02*
X100695704Y-58693257D01*
X100695704Y-58693257D02*
X100733800Y-58731352D01*
X100733800Y-58731352D02*
X100771895Y-58807543D01*
X100771895Y-58807543D02*
X100771895Y-59036114D01*
X100771895Y-59036114D02*
X100733800Y-59112305D01*
X100733800Y-59112305D02*
X100695704Y-59150400D01*
X100048085Y-58350400D02*
X100009990Y-58312304D01*
X100009990Y-58312304D02*
X99971895Y-58236114D01*
X99971895Y-58236114D02*
X99971895Y-58045638D01*
X99971895Y-58045638D02*
X100009990Y-57969447D01*
X100009990Y-57969447D02*
X100048085Y-57931352D01*
X100048085Y-57931352D02*
X100124276Y-57893257D01*
X100124276Y-57893257D02*
X100200466Y-57893257D01*
X100200466Y-57893257D02*
X100314752Y-57931352D01*
X100314752Y-57931352D02*
X100771895Y-58388495D01*
X100771895Y-58388495D02*
X100771895Y-57893257D01*
X99971895Y-57626590D02*
X99971895Y-57131352D01*
X99971895Y-57131352D02*
X100276657Y-57398018D01*
X100276657Y-57398018D02*
X100276657Y-57283733D01*
X100276657Y-57283733D02*
X100314752Y-57207542D01*
X100314752Y-57207542D02*
X100352847Y-57169447D01*
X100352847Y-57169447D02*
X100429038Y-57131352D01*
X100429038Y-57131352D02*
X100619514Y-57131352D01*
X100619514Y-57131352D02*
X100695704Y-57169447D01*
X100695704Y-57169447D02*
X100733800Y-57207542D01*
X100733800Y-57207542D02*
X100771895Y-57283733D01*
X100771895Y-57283733D02*
X100771895Y-57512304D01*
X100771895Y-57512304D02*
X100733800Y-57588495D01*
X100733800Y-57588495D02*
X100695704Y-57626590D01*
D11*
X115912095Y-79111819D02*
X115912095Y-79921342D01*
X115912095Y-79921342D02*
X115959714Y-80016580D01*
X115959714Y-80016580D02*
X116007333Y-80064200D01*
X116007333Y-80064200D02*
X116102571Y-80111819D01*
X116102571Y-80111819D02*
X116293047Y-80111819D01*
X116293047Y-80111819D02*
X116388285Y-80064200D01*
X116388285Y-80064200D02*
X116435904Y-80016580D01*
X116435904Y-80016580D02*
X116483523Y-79921342D01*
X116483523Y-79921342D02*
X116483523Y-79111819D01*
X117483523Y-80111819D02*
X116912095Y-80111819D01*
X117197809Y-80111819D02*
X117197809Y-79111819D01*
X117197809Y-79111819D02*
X117102571Y-79254676D01*
X117102571Y-79254676D02*
X117007333Y-79349914D01*
X117007333Y-79349914D02*
X116912095Y-79397533D01*
D10*
X111691476Y-86179419D02*
X111691476Y-85179419D01*
X111691476Y-85179419D02*
X112024809Y-85893704D01*
X112024809Y-85893704D02*
X112358142Y-85179419D01*
X112358142Y-85179419D02*
X112358142Y-86179419D01*
X113358142Y-86179419D02*
X112786714Y-86179419D01*
X113072428Y-86179419D02*
X113072428Y-85179419D01*
X113072428Y-85179419D02*
X112977190Y-85322276D01*
X112977190Y-85322276D02*
X112881952Y-85417514D01*
X112881952Y-85417514D02*
X112786714Y-85465133D01*
D12*
X101821000Y-77042000D02*
X101821000Y-78612000D01*
X101821000Y-78612000D02*
X104491000Y-78612000D01*
X114611000Y-78612000D02*
X117281000Y-78612000D01*
X117281000Y-78612000D02*
X117281000Y-77042000D01*
X101751000Y-56882000D02*
X101251000Y-56882000D01*
X101751000Y-56382000D01*
X101751000Y-56882000D01*
G36*
X101751000Y-56882000D02*
G01*
X101251000Y-56882000D01*
X101751000Y-56382000D01*
X101751000Y-56882000D01*
G37*
%LPC*%
G36*
G01*
X101551000Y-57632000D02*
X101551000Y-57332000D01*
G75*
G02*
X101701000Y-57182000I150000J0D01*
G01*
X102901000Y-57182000D01*
G75*
G02*
X103051000Y-57332000I0J-150000D01*
G01*
X103051000Y-57632000D01*
G75*
G02*
X102901000Y-57782000I-150000J0D01*
G01*
X101701000Y-57782000D01*
G75*
G02*
X101551000Y-57632000I0J150000D01*
G01*
G37*
G36*
G01*
X101551000Y-58632000D02*
X101551000Y-58332000D01*
G75*
G02*
X101701000Y-58182000I150000J0D01*
G01*
X102901000Y-58182000D01*
G75*
G02*
X103051000Y-58332000I0J-150000D01*
G01*
X103051000Y-58632000D01*
G75*
G02*
X102901000Y-58782000I-150000J0D01*
G01*
X101701000Y-58782000D01*
G75*
G02*
X101551000Y-58632000I0J150000D01*
G01*
G37*
G36*
G01*
X101551000Y-59632000D02*
X101551000Y-59332000D01*
G75*
G02*
X101701000Y-59182000I150000J0D01*
G01*
X102901000Y-59182000D01*
G75*
G02*
X103051000Y-59332000I0J-150000D01*
G01*
X103051000Y-59632000D01*
G75*
G02*
X102901000Y-59782000I-150000J0D01*
G01*
X101701000Y-59782000D01*
G75*
G02*
X101551000Y-59632000I0J150000D01*
G01*
G37*
G36*
G01*
X101551000Y-60632000D02*
X101551000Y-60332000D01*
G75*
G02*
X101701000Y-60182000I150000J0D01*
G01*
X102901000Y-60182000D01*
G75*
G02*
X103051000Y-60332000I0J-150000D01*
G01*
X103051000Y-60632000D01*
G75*
G02*
X102901000Y-60782000I-150000J0D01*
G01*
X101701000Y-60782000D01*
G75*
G02*
X101551000Y-60632000I0J150000D01*
G01*
G37*
G36*
G01*
X101551000Y-61632000D02*
X101551000Y-61332000D01*
G75*
G02*
X101701000Y-61182000I150000J0D01*
G01*
X102901000Y-61182000D01*
G75*
G02*
X103051000Y-61332000I0J-150000D01*
G01*
X103051000Y-61632000D01*
G75*
G02*
X102901000Y-61782000I-150000J0D01*
G01*
X101701000Y-61782000D01*
G75*
G02*
X101551000Y-61632000I0J150000D01*
G01*
G37*
G36*
G01*
X101551000Y-62632000D02*
X101551000Y-62332000D01*
G75*
G02*
X101701000Y-62182000I150000J0D01*
G01*
X102901000Y-62182000D01*
G75*
G02*
X103051000Y-62332000I0J-150000D01*
G01*
X103051000Y-62632000D01*
G75*
G02*
X102901000Y-62782000I-150000J0D01*
G01*
X101701000Y-62782000D01*
G75*
G02*
X101551000Y-62632000I0J150000D01*
G01*
G37*
G36*
G01*
X101551000Y-63632000D02*
X101551000Y-63332000D01*
G75*
G02*
X101701000Y-63182000I150000J0D01*
G01*
X102901000Y-63182000D01*
G75*
G02*
X103051000Y-63332000I0J-150000D01*
G01*
X103051000Y-63632000D01*
G75*
G02*
X102901000Y-63782000I-150000J0D01*
G01*
X101701000Y-63782000D01*
G75*
G02*
X101551000Y-63632000I0J150000D01*
G01*
G37*
G36*
G01*
X101551000Y-64632000D02*
X101551000Y-64332000D01*
G75*
G02*
X101701000Y-64182000I150000J0D01*
G01*
X102901000Y-64182000D01*
G75*
G02*
X103051000Y-64332000I0J-150000D01*
G01*
X103051000Y-64632000D01*
G75*
G02*
X102901000Y-64782000I-150000J0D01*
G01*
X101701000Y-64782000D01*
G75*
G02*
X101551000Y-64632000I0J150000D01*
G01*
G37*
G36*
G01*
X101551000Y-65632000D02*
X101551000Y-65332000D01*
G75*
G02*
X101701000Y-65182000I150000J0D01*
G01*
X102901000Y-65182000D01*
G75*
G02*
X103051000Y-65332000I0J-150000D01*
G01*
X103051000Y-65632000D01*
G75*
G02*
X102901000Y-65782000I-150000J0D01*
G01*
X101701000Y-65782000D01*
G75*
G02*
X101551000Y-65632000I0J150000D01*
G01*
G37*
G36*
G01*
X101551000Y-66632000D02*
X101551000Y-66332000D01*
G75*
G02*
X101701000Y-66182000I150000J0D01*
G01*
X102901000Y-66182000D01*
G75*
G02*
X103051000Y-66332000I0J-150000D01*
G01*
X103051000Y-66632000D01*
G75*
G02*
X102901000Y-66782000I-150000J0D01*
G01*
X101701000Y-66782000D01*
G75*
G02*
X101551000Y-66632000I0J150000D01*
G01*
G37*
G36*
G01*
X101551000Y-67632000D02*
X101551000Y-67332000D01*
G75*
G02*
X101701000Y-67182000I150000J0D01*
G01*
X102901000Y-67182000D01*
G75*
G02*
X103051000Y-67332000I0J-150000D01*
G01*
X103051000Y-67632000D01*
G75*
G02*
X102901000Y-67782000I-150000J0D01*
G01*
X101701000Y-67782000D01*
G75*
G02*
X101551000Y-67632000I0J150000D01*
G01*
G37*
G36*
G01*
X101551000Y-68632000D02*
X101551000Y-68332000D01*
G75*
G02*
X101701000Y-68182000I150000J0D01*
G01*
X102901000Y-68182000D01*
G75*
G02*
X103051000Y-68332000I0J-150000D01*
G01*
X103051000Y-68632000D01*
G75*
G02*
X102901000Y-68782000I-150000J0D01*
G01*
X101701000Y-68782000D01*
G75*
G02*
X101551000Y-68632000I0J150000D01*
G01*
G37*
G36*
G01*
X101551000Y-69632000D02*
X101551000Y-69332000D01*
G75*
G02*
X101701000Y-69182000I150000J0D01*
G01*
X102901000Y-69182000D01*
G75*
G02*
X103051000Y-69332000I0J-150000D01*
G01*
X103051000Y-69632000D01*
G75*
G02*
X102901000Y-69782000I-150000J0D01*
G01*
X101701000Y-69782000D01*
G75*
G02*
X101551000Y-69632000I0J150000D01*
G01*
G37*
G36*
G01*
X101551000Y-70632000D02*
X101551000Y-70332000D01*
G75*
G02*
X101701000Y-70182000I150000J0D01*
G01*
X102901000Y-70182000D01*
G75*
G02*
X103051000Y-70332000I0J-150000D01*
G01*
X103051000Y-70632000D01*
G75*
G02*
X102901000Y-70782000I-150000J0D01*
G01*
X101701000Y-70782000D01*
G75*
G02*
X101551000Y-70632000I0J150000D01*
G01*
G37*
G36*
G01*
X101551000Y-71632000D02*
X101551000Y-71332000D01*
G75*
G02*
X101701000Y-71182000I150000J0D01*
G01*
X102901000Y-71182000D01*
G75*
G02*
X103051000Y-71332000I0J-150000D01*
G01*
X103051000Y-71632000D01*
G75*
G02*
X102901000Y-71782000I-150000J0D01*
G01*
X101701000Y-71782000D01*
G75*
G02*
X101551000Y-71632000I0J150000D01*
G01*
G37*
G36*
G01*
X101551000Y-72632000D02*
X101551000Y-72332000D01*
G75*
G02*
X101701000Y-72182000I150000J0D01*
G01*
X102901000Y-72182000D01*
G75*
G02*
X103051000Y-72332000I0J-150000D01*
G01*
X103051000Y-72632000D01*
G75*
G02*
X102901000Y-72782000I-150000J0D01*
G01*
X101701000Y-72782000D01*
G75*
G02*
X101551000Y-72632000I0J150000D01*
G01*
G37*
G36*
G01*
X101551000Y-73632000D02*
X101551000Y-73332000D01*
G75*
G02*
X101701000Y-73182000I150000J0D01*
G01*
X102901000Y-73182000D01*
G75*
G02*
X103051000Y-73332000I0J-150000D01*
G01*
X103051000Y-73632000D01*
G75*
G02*
X102901000Y-73782000I-150000J0D01*
G01*
X101701000Y-73782000D01*
G75*
G02*
X101551000Y-73632000I0J150000D01*
G01*
G37*
G36*
G01*
X101551000Y-74632000D02*
X101551000Y-74332000D01*
G75*
G02*
X101701000Y-74182000I150000J0D01*
G01*
X102901000Y-74182000D01*
G75*
G02*
X103051000Y-74332000I0J-150000D01*
G01*
X103051000Y-74632000D01*
G75*
G02*
X102901000Y-74782000I-150000J0D01*
G01*
X101701000Y-74782000D01*
G75*
G02*
X101551000Y-74632000I0J150000D01*
G01*
G37*
G36*
G01*
X101551000Y-75632000D02*
X101551000Y-75332000D01*
G75*
G02*
X101701000Y-75182000I150000J0D01*
G01*
X102901000Y-75182000D01*
G75*
G02*
X103051000Y-75332000I0J-150000D01*
G01*
X103051000Y-75632000D01*
G75*
G02*
X102901000Y-75782000I-150000J0D01*
G01*
X101701000Y-75782000D01*
G75*
G02*
X101551000Y-75632000I0J150000D01*
G01*
G37*
G36*
G01*
X101551000Y-76632000D02*
X101551000Y-76332000D01*
G75*
G02*
X101701000Y-76182000I150000J0D01*
G01*
X102901000Y-76182000D01*
G75*
G02*
X103051000Y-76332000I0J-150000D01*
G01*
X103051000Y-76632000D01*
G75*
G02*
X102901000Y-76782000I-150000J0D01*
G01*
X101701000Y-76782000D01*
G75*
G02*
X101551000Y-76632000I0J150000D01*
G01*
G37*
G36*
G01*
X104751000Y-78732000D02*
X104751000Y-77532000D01*
G75*
G02*
X104901000Y-77382000I150000J0D01*
G01*
X105201000Y-77382000D01*
G75*
G02*
X105351000Y-77532000I0J-150000D01*
G01*
X105351000Y-78732000D01*
G75*
G02*
X105201000Y-78882000I-150000J0D01*
G01*
X104901000Y-78882000D01*
G75*
G02*
X104751000Y-78732000I0J150000D01*
G01*
G37*
G36*
G01*
X105751000Y-78732000D02*
X105751000Y-77532000D01*
G75*
G02*
X105901000Y-77382000I150000J0D01*
G01*
X106201000Y-77382000D01*
G75*
G02*
X106351000Y-77532000I0J-150000D01*
G01*
X106351000Y-78732000D01*
G75*
G02*
X106201000Y-78882000I-150000J0D01*
G01*
X105901000Y-78882000D01*
G75*
G02*
X105751000Y-78732000I0J150000D01*
G01*
G37*
G36*
G01*
X106751000Y-78732000D02*
X106751000Y-77532000D01*
G75*
G02*
X106901000Y-77382000I150000J0D01*
G01*
X107201000Y-77382000D01*
G75*
G02*
X107351000Y-77532000I0J-150000D01*
G01*
X107351000Y-78732000D01*
G75*
G02*
X107201000Y-78882000I-150000J0D01*
G01*
X106901000Y-78882000D01*
G75*
G02*
X106751000Y-78732000I0J150000D01*
G01*
G37*
G36*
G01*
X107751000Y-78732000D02*
X107751000Y-77532000D01*
G75*
G02*
X107901000Y-77382000I150000J0D01*
G01*
X108201000Y-77382000D01*
G75*
G02*
X108351000Y-77532000I0J-150000D01*
G01*
X108351000Y-78732000D01*
G75*
G02*
X108201000Y-78882000I-150000J0D01*
G01*
X107901000Y-78882000D01*
G75*
G02*
X107751000Y-78732000I0J150000D01*
G01*
G37*
G36*
G01*
X108751000Y-78732000D02*
X108751000Y-77532000D01*
G75*
G02*
X108901000Y-77382000I150000J0D01*
G01*
X109201000Y-77382000D01*
G75*
G02*
X109351000Y-77532000I0J-150000D01*
G01*
X109351000Y-78732000D01*
G75*
G02*
X109201000Y-78882000I-150000J0D01*
G01*
X108901000Y-78882000D01*
G75*
G02*
X108751000Y-78732000I0J150000D01*
G01*
G37*
G36*
G01*
X109751000Y-78732000D02*
X109751000Y-77532000D01*
G75*
G02*
X109901000Y-77382000I150000J0D01*
G01*
X110201000Y-77382000D01*
G75*
G02*
X110351000Y-77532000I0J-150000D01*
G01*
X110351000Y-78732000D01*
G75*
G02*
X110201000Y-78882000I-150000J0D01*
G01*
X109901000Y-78882000D01*
G75*
G02*
X109751000Y-78732000I0J150000D01*
G01*
G37*
G36*
G01*
X110751000Y-78732000D02*
X110751000Y-77532000D01*
G75*
G02*
X110901000Y-77382000I150000J0D01*
G01*
X111201000Y-77382000D01*
G75*
G02*
X111351000Y-77532000I0J-150000D01*
G01*
X111351000Y-78732000D01*
G75*
G02*
X111201000Y-78882000I-150000J0D01*
G01*
X110901000Y-78882000D01*
G75*
G02*
X110751000Y-78732000I0J150000D01*
G01*
G37*
G36*
G01*
X111751000Y-78732000D02*
X111751000Y-77532000D01*
G75*
G02*
X111901000Y-77382000I150000J0D01*
G01*
X112201000Y-77382000D01*
G75*
G02*
X112351000Y-77532000I0J-150000D01*
G01*
X112351000Y-78732000D01*
G75*
G02*
X112201000Y-78882000I-150000J0D01*
G01*
X111901000Y-78882000D01*
G75*
G02*
X111751000Y-78732000I0J150000D01*
G01*
G37*
G36*
G01*
X112751000Y-78732000D02*
X112751000Y-77532000D01*
G75*
G02*
X112901000Y-77382000I150000J0D01*
G01*
X113201000Y-77382000D01*
G75*
G02*
X113351000Y-77532000I0J-150000D01*
G01*
X113351000Y-78732000D01*
G75*
G02*
X113201000Y-78882000I-150000J0D01*
G01*
X112901000Y-78882000D01*
G75*
G02*
X112751000Y-78732000I0J150000D01*
G01*
G37*
G36*
G01*
X113751000Y-78732000D02*
X113751000Y-77532000D01*
G75*
G02*
X113901000Y-77382000I150000J0D01*
G01*
X114201000Y-77382000D01*
G75*
G02*
X114351000Y-77532000I0J-150000D01*
G01*
X114351000Y-78732000D01*
G75*
G02*
X114201000Y-78882000I-150000J0D01*
G01*
X113901000Y-78882000D01*
G75*
G02*
X113751000Y-78732000I0J150000D01*
G01*
G37*
G36*
G01*
X116051000Y-76632000D02*
X116051000Y-76332000D01*
G75*
G02*
X116201000Y-76182000I150000J0D01*
G01*
X117401000Y-76182000D01*
G75*
G02*
X117551000Y-76332000I0J-150000D01*
G01*
X117551000Y-76632000D01*
G75*
G02*
X117401000Y-76782000I-150000J0D01*
G01*
X116201000Y-76782000D01*
G75*
G02*
X116051000Y-76632000I0J150000D01*
G01*
G37*
G36*
G01*
X116051000Y-75632000D02*
X116051000Y-75332000D01*
G75*
G02*
X116201000Y-75182000I150000J0D01*
G01*
X117401000Y-75182000D01*
G75*
G02*
X117551000Y-75332000I0J-150000D01*
G01*
X117551000Y-75632000D01*
G75*
G02*
X117401000Y-75782000I-150000J0D01*
G01*
X116201000Y-75782000D01*
G75*
G02*
X116051000Y-75632000I0J150000D01*
G01*
G37*
G36*
G01*
X116051000Y-74632000D02*
X116051000Y-74332000D01*
G75*
G02*
X116201000Y-74182000I150000J0D01*
G01*
X117401000Y-74182000D01*
G75*
G02*
X117551000Y-74332000I0J-150000D01*
G01*
X117551000Y-74632000D01*
G75*
G02*
X117401000Y-74782000I-150000J0D01*
G01*
X116201000Y-74782000D01*
G75*
G02*
X116051000Y-74632000I0J150000D01*
G01*
G37*
G36*
G01*
X116051000Y-73632000D02*
X116051000Y-73332000D01*
G75*
G02*
X116201000Y-73182000I150000J0D01*
G01*
X117401000Y-73182000D01*
G75*
G02*
X117551000Y-73332000I0J-150000D01*
G01*
X117551000Y-73632000D01*
G75*
G02*
X117401000Y-73782000I-150000J0D01*
G01*
X116201000Y-73782000D01*
G75*
G02*
X116051000Y-73632000I0J150000D01*
G01*
G37*
G36*
G01*
X116051000Y-72632000D02*
X116051000Y-72332000D01*
G75*
G02*
X116201000Y-72182000I150000J0D01*
G01*
X117401000Y-72182000D01*
G75*
G02*
X117551000Y-72332000I0J-150000D01*
G01*
X117551000Y-72632000D01*
G75*
G02*
X117401000Y-72782000I-150000J0D01*
G01*
X116201000Y-72782000D01*
G75*
G02*
X116051000Y-72632000I0J150000D01*
G01*
G37*
G36*
G01*
X116051000Y-71632000D02*
X116051000Y-71332000D01*
G75*
G02*
X116201000Y-71182000I150000J0D01*
G01*
X117401000Y-71182000D01*
G75*
G02*
X117551000Y-71332000I0J-150000D01*
G01*
X117551000Y-71632000D01*
G75*
G02*
X117401000Y-71782000I-150000J0D01*
G01*
X116201000Y-71782000D01*
G75*
G02*
X116051000Y-71632000I0J150000D01*
G01*
G37*
G36*
G01*
X116051000Y-70632000D02*
X116051000Y-70332000D01*
G75*
G02*
X116201000Y-70182000I150000J0D01*
G01*
X117401000Y-70182000D01*
G75*
G02*
X117551000Y-70332000I0J-150000D01*
G01*
X117551000Y-70632000D01*
G75*
G02*
X117401000Y-70782000I-150000J0D01*
G01*
X116201000Y-70782000D01*
G75*
G02*
X116051000Y-70632000I0J150000D01*
G01*
G37*
G36*
G01*
X116051000Y-69632000D02*
X116051000Y-69332000D01*
G75*
G02*
X116201000Y-69182000I150000J0D01*
G01*
X117401000Y-69182000D01*
G75*
G02*
X117551000Y-69332000I0J-150000D01*
G01*
X117551000Y-69632000D01*
G75*
G02*
X117401000Y-69782000I-150000J0D01*
G01*
X116201000Y-69782000D01*
G75*
G02*
X116051000Y-69632000I0J150000D01*
G01*
G37*
G36*
G01*
X116051000Y-68632000D02*
X116051000Y-68332000D01*
G75*
G02*
X116201000Y-68182000I150000J0D01*
G01*
X117401000Y-68182000D01*
G75*
G02*
X117551000Y-68332000I0J-150000D01*
G01*
X117551000Y-68632000D01*
G75*
G02*
X117401000Y-68782000I-150000J0D01*
G01*
X116201000Y-68782000D01*
G75*
G02*
X116051000Y-68632000I0J150000D01*
G01*
G37*
G36*
G01*
X116051000Y-67632000D02*
X116051000Y-67332000D01*
G75*
G02*
X116201000Y-67182000I150000J0D01*
G01*
X117401000Y-67182000D01*
G75*
G02*
X117551000Y-67332000I0J-150000D01*
G01*
X117551000Y-67632000D01*
G75*
G02*
X117401000Y-67782000I-150000J0D01*
G01*
X116201000Y-67782000D01*
G75*
G02*
X116051000Y-67632000I0J150000D01*
G01*
G37*
G36*
G01*
X116051000Y-66632000D02*
X116051000Y-66332000D01*
G75*
G02*
X116201000Y-66182000I150000J0D01*
G01*
X117401000Y-66182000D01*
G75*
G02*
X117551000Y-66332000I0J-150000D01*
G01*
X117551000Y-66632000D01*
G75*
G02*
X117401000Y-66782000I-150000J0D01*
G01*
X116201000Y-66782000D01*
G75*
G02*
X116051000Y-66632000I0J150000D01*
G01*
G37*
G36*
G01*
X116051000Y-65632000D02*
X116051000Y-65332000D01*
G75*
G02*
X116201000Y-65182000I150000J0D01*
G01*
X117401000Y-65182000D01*
G75*
G02*
X117551000Y-65332000I0J-150000D01*
G01*
X117551000Y-65632000D01*
G75*
G02*
X117401000Y-65782000I-150000J0D01*
G01*
X116201000Y-65782000D01*
G75*
G02*
X116051000Y-65632000I0J150000D01*
G01*
G37*
G36*
G01*
X116051000Y-64632000D02*
X116051000Y-64332000D01*
G75*
G02*
X116201000Y-64182000I150000J0D01*
G01*
X117401000Y-64182000D01*
G75*
G02*
X117551000Y-64332000I0J-150000D01*
G01*
X117551000Y-64632000D01*
G75*
G02*
X117401000Y-64782000I-150000J0D01*
G01*
X116201000Y-64782000D01*
G75*
G02*
X116051000Y-64632000I0J150000D01*
G01*
G37*
G36*
G01*
X116051000Y-63632000D02*
X116051000Y-63332000D01*
G75*
G02*
X116201000Y-63182000I150000J0D01*
G01*
X117401000Y-63182000D01*
G75*
G02*
X117551000Y-63332000I0J-150000D01*
G01*
X117551000Y-63632000D01*
G75*
G02*
X117401000Y-63782000I-150000J0D01*
G01*
X116201000Y-63782000D01*
G75*
G02*
X116051000Y-63632000I0J150000D01*
G01*
G37*
G36*
G01*
X116051000Y-62632000D02*
X116051000Y-62332000D01*
G75*
G02*
X116201000Y-62182000I150000J0D01*
G01*
X117401000Y-62182000D01*
G75*
G02*
X117551000Y-62332000I0J-150000D01*
G01*
X117551000Y-62632000D01*
G75*
G02*
X117401000Y-62782000I-150000J0D01*
G01*
X116201000Y-62782000D01*
G75*
G02*
X116051000Y-62632000I0J150000D01*
G01*
G37*
G36*
G01*
X116051000Y-61632000D02*
X116051000Y-61332000D01*
G75*
G02*
X116201000Y-61182000I150000J0D01*
G01*
X117401000Y-61182000D01*
G75*
G02*
X117551000Y-61332000I0J-150000D01*
G01*
X117551000Y-61632000D01*
G75*
G02*
X117401000Y-61782000I-150000J0D01*
G01*
X116201000Y-61782000D01*
G75*
G02*
X116051000Y-61632000I0J150000D01*
G01*
G37*
G36*
G01*
X116051000Y-60632000D02*
X116051000Y-60332000D01*
G75*
G02*
X116201000Y-60182000I150000J0D01*
G01*
X117401000Y-60182000D01*
G75*
G02*
X117551000Y-60332000I0J-150000D01*
G01*
X117551000Y-60632000D01*
G75*
G02*
X117401000Y-60782000I-150000J0D01*
G01*
X116201000Y-60782000D01*
G75*
G02*
X116051000Y-60632000I0J150000D01*
G01*
G37*
G36*
G01*
X116051000Y-59632000D02*
X116051000Y-59332000D01*
G75*
G02*
X116201000Y-59182000I150000J0D01*
G01*
X117401000Y-59182000D01*
G75*
G02*
X117551000Y-59332000I0J-150000D01*
G01*
X117551000Y-59632000D01*
G75*
G02*
X117401000Y-59782000I-150000J0D01*
G01*
X116201000Y-59782000D01*
G75*
G02*
X116051000Y-59632000I0J150000D01*
G01*
G37*
G36*
G01*
X116051000Y-58632000D02*
X116051000Y-58332000D01*
G75*
G02*
X116201000Y-58182000I150000J0D01*
G01*
X117401000Y-58182000D01*
G75*
G02*
X117551000Y-58332000I0J-150000D01*
G01*
X117551000Y-58632000D01*
G75*
G02*
X117401000Y-58782000I-150000J0D01*
G01*
X116201000Y-58782000D01*
G75*
G02*
X116051000Y-58632000I0J150000D01*
G01*
G37*
G36*
G01*
X116051000Y-57632000D02*
X116051000Y-57332000D01*
G75*
G02*
X116201000Y-57182000I150000J0D01*
G01*
X117401000Y-57182000D01*
G75*
G02*
X117551000Y-57332000I0J-150000D01*
G01*
X117551000Y-57632000D01*
G75*
G02*
X117401000Y-57782000I-150000J0D01*
G01*
X116201000Y-57782000D01*
G75*
G02*
X116051000Y-57632000I0J150000D01*
G01*
G37*
G36*
G01*
X113431000Y-68552000D02*
X113431000Y-67272000D01*
G75*
G02*
X113681000Y-67022000I250000J0D01*
G01*
X114961000Y-67022000D01*
G75*
G02*
X115211000Y-67272000I0J-250000D01*
G01*
X115211000Y-68552000D01*
G75*
G02*
X114961000Y-68802000I-250000J0D01*
G01*
X113681000Y-68802000D01*
G75*
G02*
X113431000Y-68552000I0J250000D01*
G01*
G37*
G36*
G01*
X104866000Y-57992000D02*
X104866000Y-57612000D01*
G75*
G02*
X105056000Y-57422000I190000J0D01*
G01*
X107466000Y-57422000D01*
G75*
G02*
X107656000Y-57612000I0J-190000D01*
G01*
X107656000Y-57992000D01*
G75*
G02*
X107466000Y-58182000I-190000J0D01*
G01*
X105056000Y-58182000D01*
G75*
G02*
X104866000Y-57992000I0J190000D01*
G01*
G37*
D13*
X97260000Y-57590000D03*
G36*
G01*
X99585000Y-57215000D02*
X99585000Y-57965000D01*
G75*
G02*
X99335000Y-58215000I-250000J0D01*
G01*
X98585000Y-58215000D01*
G75*
G02*
X98335000Y-57965000I0J250000D01*
G01*
X98335000Y-57215000D01*
G75*
G02*
X98585000Y-56965000I250000J0D01*
G01*
X99335000Y-56965000D01*
G75*
G02*
X99585000Y-57215000I0J-250000D01*
G01*
G37*
X97260000Y-65210000D03*
G36*
G01*
X99585000Y-64835000D02*
X99585000Y-65585000D01*
G75*
G02*
X99335000Y-65835000I-250000J0D01*
G01*
X98585000Y-65835000D01*
G75*
G02*
X98335000Y-65585000I0J250000D01*
G01*
X98335000Y-64835000D01*
G75*
G02*
X98585000Y-64585000I250000J0D01*
G01*
X99335000Y-64585000D01*
G75*
G02*
X99585000Y-64835000I0J-250000D01*
G01*
G37*
X97260000Y-67750000D03*
G36*
G01*
X99585000Y-67375000D02*
X99585000Y-68125000D01*
G75*
G02*
X99335000Y-68375000I-250000J0D01*
G01*
X98585000Y-68375000D01*
G75*
G02*
X98335000Y-68125000I0J250000D01*
G01*
X98335000Y-67375000D01*
G75*
G02*
X98585000Y-67125000I250000J0D01*
G01*
X99335000Y-67125000D01*
G75*
G02*
X99585000Y-67375000I0J-250000D01*
G01*
G37*
X97260000Y-70290000D03*
G36*
G01*
X99585000Y-69915000D02*
X99585000Y-70665000D01*
G75*
G02*
X99335000Y-70915000I-250000J0D01*
G01*
X98585000Y-70915000D01*
G75*
G02*
X98335000Y-70665000I0J250000D01*
G01*
X98335000Y-69915000D01*
G75*
G02*
X98585000Y-69665000I250000J0D01*
G01*
X99335000Y-69665000D01*
G75*
G02*
X99585000Y-69915000I0J-250000D01*
G01*
G37*
X97260000Y-72830000D03*
G36*
G01*
X99585000Y-72455000D02*
X99585000Y-73205000D01*
G75*
G02*
X99335000Y-73455000I-250000J0D01*
G01*
X98585000Y-73455000D01*
G75*
G02*
X98335000Y-73205000I0J250000D01*
G01*
X98335000Y-72455000D01*
G75*
G02*
X98585000Y-72205000I250000J0D01*
G01*
X99335000Y-72205000D01*
G75*
G02*
X99585000Y-72455000I0J-250000D01*
G01*
G37*
X97260000Y-75370000D03*
G36*
G01*
X99585000Y-74995000D02*
X99585000Y-75745000D01*
G75*
G02*
X99335000Y-75995000I-250000J0D01*
G01*
X98585000Y-75995000D01*
G75*
G02*
X98335000Y-75745000I0J250000D01*
G01*
X98335000Y-74995000D01*
G75*
G02*
X98585000Y-74745000I250000J0D01*
G01*
X99335000Y-74745000D01*
G75*
G02*
X99585000Y-74995000I0J-250000D01*
G01*
G37*
X97260000Y-77910000D03*
G36*
G01*
X99585000Y-77535000D02*
X99585000Y-78285000D01*
G75*
G02*
X99335000Y-78535000I-250000J0D01*
G01*
X98585000Y-78535000D01*
G75*
G02*
X98335000Y-78285000I0J250000D01*
G01*
X98335000Y-77535000D01*
G75*
G02*
X98585000Y-77285000I250000J0D01*
G01*
X99335000Y-77285000D01*
G75*
G02*
X99585000Y-77535000I0J-250000D01*
G01*
G37*
X97260000Y-80450000D03*
G36*
G01*
X99585000Y-80075000D02*
X99585000Y-80825000D01*
G75*
G02*
X99335000Y-81075000I-250000J0D01*
G01*
X98585000Y-81075000D01*
G75*
G02*
X98335000Y-80825000I0J250000D01*
G01*
X98335000Y-80075000D01*
G75*
G02*
X98585000Y-79825000I250000J0D01*
G01*
X99335000Y-79825000D01*
G75*
G02*
X99585000Y-80075000I0J-250000D01*
G01*
G37*
X97260000Y-82990000D03*
G36*
G01*
X99585000Y-82615000D02*
X99585000Y-83365000D01*
G75*
G02*
X99335000Y-83615000I-250000J0D01*
G01*
X98585000Y-83615000D01*
G75*
G02*
X98335000Y-83365000I0J250000D01*
G01*
X98335000Y-82615000D01*
G75*
G02*
X98585000Y-82365000I250000J0D01*
G01*
X99335000Y-82365000D01*
G75*
G02*
X99585000Y-82615000I0J-250000D01*
G01*
G37*
X97260000Y-85530000D03*
G36*
G01*
X99585000Y-85155000D02*
X99585000Y-85905000D01*
G75*
G02*
X99335000Y-86155000I-250000J0D01*
G01*
X98585000Y-86155000D01*
G75*
G02*
X98335000Y-85905000I0J250000D01*
G01*
X98335000Y-85155000D01*
G75*
G02*
X98585000Y-84905000I250000J0D01*
G01*
X99335000Y-84905000D01*
G75*
G02*
X99585000Y-85155000I0J-250000D01*
G01*
G37*
G36*
G01*
X120185000Y-57215000D02*
X120185000Y-57965000D01*
G75*
G02*
X119935000Y-58215000I-250000J0D01*
G01*
X119185000Y-58215000D01*
G75*
G02*
X118935000Y-57965000I0J250000D01*
G01*
X118935000Y-57215000D01*
G75*
G02*
X119185000Y-56965000I250000J0D01*
G01*
X119935000Y-56965000D01*
G75*
G02*
X120185000Y-57215000I0J-250000D01*
G01*
G37*
X121260000Y-57590000D03*
G36*
G01*
X120185000Y-59755000D02*
X120185000Y-60505000D01*
G75*
G02*
X119935000Y-60755000I-250000J0D01*
G01*
X119185000Y-60755000D01*
G75*
G02*
X118935000Y-60505000I0J250000D01*
G01*
X118935000Y-59755000D01*
G75*
G02*
X119185000Y-59505000I250000J0D01*
G01*
X119935000Y-59505000D01*
G75*
G02*
X120185000Y-59755000I0J-250000D01*
G01*
G37*
X121260000Y-60130000D03*
G36*
G01*
X120185000Y-62295000D02*
X120185000Y-63045000D01*
G75*
G02*
X119935000Y-63295000I-250000J0D01*
G01*
X119185000Y-63295000D01*
G75*
G02*
X118935000Y-63045000I0J250000D01*
G01*
X118935000Y-62295000D01*
G75*
G02*
X119185000Y-62045000I250000J0D01*
G01*
X119935000Y-62045000D01*
G75*
G02*
X120185000Y-62295000I0J-250000D01*
G01*
G37*
X121260000Y-62670000D03*
G36*
G01*
X120185000Y-64835000D02*
X120185000Y-65585000D01*
G75*
G02*
X119935000Y-65835000I-250000J0D01*
G01*
X119185000Y-65835000D01*
G75*
G02*
X118935000Y-65585000I0J250000D01*
G01*
X118935000Y-64835000D01*
G75*
G02*
X119185000Y-64585000I250000J0D01*
G01*
X119935000Y-64585000D01*
G75*
G02*
X120185000Y-64835000I0J-250000D01*
G01*
G37*
X121260000Y-65210000D03*
G36*
G01*
X120185000Y-67375000D02*
X120185000Y-68125000D01*
G75*
G02*
X119935000Y-68375000I-250000J0D01*
G01*
X119185000Y-68375000D01*
G75*
G02*
X118935000Y-68125000I0J250000D01*
G01*
X118935000Y-67375000D01*
G75*
G02*
X119185000Y-67125000I250000J0D01*
G01*
X119935000Y-67125000D01*
G75*
G02*
X120185000Y-67375000I0J-250000D01*
G01*
G37*
X121260000Y-67750000D03*
G36*
G01*
X120185000Y-69915000D02*
X120185000Y-70665000D01*
G75*
G02*
X119935000Y-70915000I-250000J0D01*
G01*
X119185000Y-70915000D01*
G75*
G02*
X118935000Y-70665000I0J250000D01*
G01*
X118935000Y-69915000D01*
G75*
G02*
X119185000Y-69665000I250000J0D01*
G01*
X119935000Y-69665000D01*
G75*
G02*
X120185000Y-69915000I0J-250000D01*
G01*
G37*
X121260000Y-70290000D03*
G36*
G01*
X120185000Y-72455000D02*
X120185000Y-73205000D01*
G75*
G02*
X119935000Y-73455000I-250000J0D01*
G01*
X119185000Y-73455000D01*
G75*
G02*
X118935000Y-73205000I0J250000D01*
G01*
X118935000Y-72455000D01*
G75*
G02*
X119185000Y-72205000I250000J0D01*
G01*
X119935000Y-72205000D01*
G75*
G02*
X120185000Y-72455000I0J-250000D01*
G01*
G37*
X121260000Y-72830000D03*
G36*
G01*
X120185000Y-74995000D02*
X120185000Y-75745000D01*
G75*
G02*
X119935000Y-75995000I-250000J0D01*
G01*
X119185000Y-75995000D01*
G75*
G02*
X118935000Y-75745000I0J250000D01*
G01*
X118935000Y-74995000D01*
G75*
G02*
X119185000Y-74745000I250000J0D01*
G01*
X119935000Y-74745000D01*
G75*
G02*
X120185000Y-74995000I0J-250000D01*
G01*
G37*
X121260000Y-75370000D03*
G36*
G01*
X120185000Y-77535000D02*
X120185000Y-78285000D01*
G75*
G02*
X119935000Y-78535000I-250000J0D01*
G01*
X119185000Y-78535000D01*
G75*
G02*
X118935000Y-78285000I0J250000D01*
G01*
X118935000Y-77535000D01*
G75*
G02*
X119185000Y-77285000I250000J0D01*
G01*
X119935000Y-77285000D01*
G75*
G02*
X120185000Y-77535000I0J-250000D01*
G01*
G37*
X121260000Y-77910000D03*
G36*
G01*
X120185000Y-80075000D02*
X120185000Y-80825000D01*
G75*
G02*
X119935000Y-81075000I-250000J0D01*
G01*
X119185000Y-81075000D01*
G75*
G02*
X118935000Y-80825000I0J250000D01*
G01*
X118935000Y-80075000D01*
G75*
G02*
X119185000Y-79825000I250000J0D01*
G01*
X119935000Y-79825000D01*
G75*
G02*
X120185000Y-80075000I0J-250000D01*
G01*
G37*
X121260000Y-80450000D03*
G36*
G01*
X120185000Y-82615000D02*
X120185000Y-83365000D01*
G75*
G02*
X119935000Y-83615000I-250000J0D01*
G01*
X119185000Y-83615000D01*
G75*
G02*
X118935000Y-83365000I0J250000D01*
G01*
X118935000Y-82615000D01*
G75*
G02*
X119185000Y-82365000I250000J0D01*
G01*
X119935000Y-82365000D01*
G75*
G02*
X120185000Y-82615000I0J-250000D01*
G01*
G37*
X121260000Y-82990000D03*
G36*
G01*
X120185000Y-85155000D02*
X120185000Y-85905000D01*
G75*
G02*
X119935000Y-86155000I-250000J0D01*
G01*
X119185000Y-86155000D01*
G75*
G02*
X118935000Y-85905000I0J250000D01*
G01*
X118935000Y-85155000D01*
G75*
G02*
X119185000Y-84905000I250000J0D01*
G01*
X119935000Y-84905000D01*
G75*
G02*
X120185000Y-85155000I0J-250000D01*
G01*
G37*
X121260000Y-85530000D03*
%LPD*%
M02*
