G04 #@! TF.GenerationSoftware,KiCad,Pcbnew,9.0.1+1*
G04 #@! TF.CreationDate,2025-11-12T15:11:59+00:00*
G04 #@! TF.ProjectId,bluetooth,626c7565-746f-46f7-9468-2e6b69636164,rev?*
G04 #@! TF.SameCoordinates,Original*
G04 #@! TF.FileFunction,Soldermask,Bot*
G04 #@! TF.FilePolarity,Negative*
%FSLAX46Y46*%
G04 Gerber Fmt 4.6, Leading zero omitted, Abs format (unit mm)*
G04 Created by KiCad (PCBNEW 9.0.1+1) date 2025-11-12 15:11:59*
%MOMM*%
%LPD*%
G01*
G04 APERTURE LIST*
%ADD10R,2.540000X2.000000*%
G04 APERTURE END LIST*
D10*
X97260000Y-57590000D03*
G36*
G01*
X99585000Y-57215000D02*
X99585000Y-57965000D01*
G75*
G02*
X99335000Y-58215000I-250000J0D01*
G01*
X98585000Y-58215000D01*
G75*
G02*
X98335000Y-57965000I0J250000D01*
G01*
X98335000Y-57215000D01*
G75*
G02*
X98585000Y-56965000I250000J0D01*
G01*
X99335000Y-56965000D01*
G75*
G02*
X99585000Y-57215000I0J-250000D01*
G01*
G37*
X97260000Y-65210000D03*
G36*
G01*
X99585000Y-64835000D02*
X99585000Y-65585000D01*
G75*
G02*
X99335000Y-65835000I-250000J0D01*
G01*
X98585000Y-65835000D01*
G75*
G02*
X98335000Y-65585000I0J250000D01*
G01*
X98335000Y-64835000D01*
G75*
G02*
X98585000Y-64585000I250000J0D01*
G01*
X99335000Y-64585000D01*
G75*
G02*
X99585000Y-64835000I0J-250000D01*
G01*
G37*
X97260000Y-67750000D03*
G36*
G01*
X99585000Y-67375000D02*
X99585000Y-68125000D01*
G75*
G02*
X99335000Y-68375000I-250000J0D01*
G01*
X98585000Y-68375000D01*
G75*
G02*
X98335000Y-68125000I0J250000D01*
G01*
X98335000Y-67375000D01*
G75*
G02*
X98585000Y-67125000I250000J0D01*
G01*
X99335000Y-67125000D01*
G75*
G02*
X99585000Y-67375000I0J-250000D01*
G01*
G37*
X97260000Y-70290000D03*
G36*
G01*
X99585000Y-69915000D02*
X99585000Y-70665000D01*
G75*
G02*
X99335000Y-70915000I-250000J0D01*
G01*
X98585000Y-70915000D01*
G75*
G02*
X98335000Y-70665000I0J250000D01*
G01*
X98335000Y-69915000D01*
G75*
G02*
X98585000Y-69665000I250000J0D01*
G01*
X99335000Y-69665000D01*
G75*
G02*
X99585000Y-69915000I0J-250000D01*
G01*
G37*
X97260000Y-72830000D03*
G36*
G01*
X99585000Y-72455000D02*
X99585000Y-73205000D01*
G75*
G02*
X99335000Y-73455000I-250000J0D01*
G01*
X98585000Y-73455000D01*
G75*
G02*
X98335000Y-73205000I0J250000D01*
G01*
X98335000Y-72455000D01*
G75*
G02*
X98585000Y-72205000I250000J0D01*
G01*
X99335000Y-72205000D01*
G75*
G02*
X99585000Y-72455000I0J-250000D01*
G01*
G37*
X97260000Y-75370000D03*
G36*
G01*
X99585000Y-74995000D02*
X99585000Y-75745000D01*
G75*
G02*
X99335000Y-75995000I-250000J0D01*
G01*
X98585000Y-75995000D01*
G75*
G02*
X98335000Y-75745000I0J250000D01*
G01*
X98335000Y-74995000D01*
G75*
G02*
X98585000Y-74745000I250000J0D01*
G01*
X99335000Y-74745000D01*
G75*
G02*
X99585000Y-74995000I0J-250000D01*
G01*
G37*
X97260000Y-77910000D03*
G36*
G01*
X99585000Y-77535000D02*
X99585000Y-78285000D01*
G75*
G02*
X99335000Y-78535000I-250000J0D01*
G01*
X98585000Y-78535000D01*
G75*
G02*
X98335000Y-78285000I0J250000D01*
G01*
X98335000Y-77535000D01*
G75*
G02*
X98585000Y-77285000I250000J0D01*
G01*
X99335000Y-77285000D01*
G75*
G02*
X99585000Y-77535000I0J-250000D01*
G01*
G37*
X97260000Y-80450000D03*
G36*
G01*
X99585000Y-80075000D02*
X99585000Y-80825000D01*
G75*
G02*
X99335000Y-81075000I-250000J0D01*
G01*
X98585000Y-81075000D01*
G75*
G02*
X98335000Y-80825000I0J250000D01*
G01*
X98335000Y-80075000D01*
G75*
G02*
X98585000Y-79825000I250000J0D01*
G01*
X99335000Y-79825000D01*
G75*
G02*
X99585000Y-80075000I0J-250000D01*
G01*
G37*
X97260000Y-82990000D03*
G36*
G01*
X99585000Y-82615000D02*
X99585000Y-83365000D01*
G75*
G02*
X99335000Y-83615000I-250000J0D01*
G01*
X98585000Y-83615000D01*
G75*
G02*
X98335000Y-83365000I0J250000D01*
G01*
X98335000Y-82615000D01*
G75*
G02*
X98585000Y-82365000I250000J0D01*
G01*
X99335000Y-82365000D01*
G75*
G02*
X99585000Y-82615000I0J-250000D01*
G01*
G37*
X97260000Y-85530000D03*
G36*
G01*
X99585000Y-85155000D02*
X99585000Y-85905000D01*
G75*
G02*
X99335000Y-86155000I-250000J0D01*
G01*
X98585000Y-86155000D01*
G75*
G02*
X98335000Y-85905000I0J250000D01*
G01*
X98335000Y-85155000D01*
G75*
G02*
X98585000Y-84905000I250000J0D01*
G01*
X99335000Y-84905000D01*
G75*
G02*
X99585000Y-85155000I0J-250000D01*
G01*
G37*
G36*
G01*
X120185000Y-57215000D02*
X120185000Y-57965000D01*
G75*
G02*
X119935000Y-58215000I-250000J0D01*
G01*
X119185000Y-58215000D01*
G75*
G02*
X118935000Y-57965000I0J250000D01*
G01*
X118935000Y-57215000D01*
G75*
G02*
X119185000Y-56965000I250000J0D01*
G01*
X119935000Y-56965000D01*
G75*
G02*
X120185000Y-57215000I0J-250000D01*
G01*
G37*
X121260000Y-57590000D03*
G36*
G01*
X120185000Y-59755000D02*
X120185000Y-60505000D01*
G75*
G02*
X119935000Y-60755000I-250000J0D01*
G01*
X119185000Y-60755000D01*
G75*
G02*
X118935000Y-60505000I0J250000D01*
G01*
X118935000Y-59755000D01*
G75*
G02*
X119185000Y-59505000I250000J0D01*
G01*
X119935000Y-59505000D01*
G75*
G02*
X120185000Y-59755000I0J-250000D01*
G01*
G37*
X121260000Y-60130000D03*
G36*
G01*
X120185000Y-62295000D02*
X120185000Y-63045000D01*
G75*
G02*
X119935000Y-63295000I-250000J0D01*
G01*
X119185000Y-63295000D01*
G75*
G02*
X118935000Y-63045000I0J250000D01*
G01*
X118935000Y-62295000D01*
G75*
G02*
X119185000Y-62045000I250000J0D01*
G01*
X119935000Y-62045000D01*
G75*
G02*
X120185000Y-62295000I0J-250000D01*
G01*
G37*
X121260000Y-62670000D03*
G36*
G01*
X120185000Y-64835000D02*
X120185000Y-65585000D01*
G75*
G02*
X119935000Y-65835000I-250000J0D01*
G01*
X119185000Y-65835000D01*
G75*
G02*
X118935000Y-65585000I0J250000D01*
G01*
X118935000Y-64835000D01*
G75*
G02*
X119185000Y-64585000I250000J0D01*
G01*
X119935000Y-64585000D01*
G75*
G02*
X120185000Y-64835000I0J-250000D01*
G01*
G37*
X121260000Y-65210000D03*
G36*
G01*
X120185000Y-67375000D02*
X120185000Y-68125000D01*
G75*
G02*
X119935000Y-68375000I-250000J0D01*
G01*
X119185000Y-68375000D01*
G75*
G02*
X118935000Y-68125000I0J250000D01*
G01*
X118935000Y-67375000D01*
G75*
G02*
X119185000Y-67125000I250000J0D01*
G01*
X119935000Y-67125000D01*
G75*
G02*
X120185000Y-67375000I0J-250000D01*
G01*
G37*
X121260000Y-67750000D03*
G36*
G01*
X120185000Y-69915000D02*
X120185000Y-70665000D01*
G75*
G02*
X119935000Y-70915000I-250000J0D01*
G01*
X119185000Y-70915000D01*
G75*
G02*
X118935000Y-70665000I0J250000D01*
G01*
X118935000Y-69915000D01*
G75*
G02*
X119185000Y-69665000I250000J0D01*
G01*
X119935000Y-69665000D01*
G75*
G02*
X120185000Y-69915000I0J-250000D01*
G01*
G37*
X121260000Y-70290000D03*
G36*
G01*
X120185000Y-72455000D02*
X120185000Y-73205000D01*
G75*
G02*
X119935000Y-73455000I-250000J0D01*
G01*
X119185000Y-73455000D01*
G75*
G02*
X118935000Y-73205000I0J250000D01*
G01*
X118935000Y-72455000D01*
G75*
G02*
X119185000Y-72205000I250000J0D01*
G01*
X119935000Y-72205000D01*
G75*
G02*
X120185000Y-72455000I0J-250000D01*
G01*
G37*
X121260000Y-72830000D03*
G36*
G01*
X120185000Y-74995000D02*
X120185000Y-75745000D01*
G75*
G02*
X119935000Y-75995000I-250000J0D01*
G01*
X119185000Y-75995000D01*
G75*
G02*
X118935000Y-75745000I0J250000D01*
G01*
X118935000Y-74995000D01*
G75*
G02*
X119185000Y-74745000I250000J0D01*
G01*
X119935000Y-74745000D01*
G75*
G02*
X120185000Y-74995000I0J-250000D01*
G01*
G37*
X121260000Y-75370000D03*
G36*
G01*
X120185000Y-77535000D02*
X120185000Y-78285000D01*
G75*
G02*
X119935000Y-78535000I-250000J0D01*
G01*
X119185000Y-78535000D01*
G75*
G02*
X118935000Y-78285000I0J250000D01*
G01*
X118935000Y-77535000D01*
G75*
G02*
X119185000Y-77285000I250000J0D01*
G01*
X119935000Y-77285000D01*
G75*
G02*
X120185000Y-77535000I0J-250000D01*
G01*
G37*
X121260000Y-77910000D03*
G36*
G01*
X120185000Y-80075000D02*
X120185000Y-80825000D01*
G75*
G02*
X119935000Y-81075000I-250000J0D01*
G01*
X119185000Y-81075000D01*
G75*
G02*
X118935000Y-80825000I0J250000D01*
G01*
X118935000Y-80075000D01*
G75*
G02*
X119185000Y-79825000I250000J0D01*
G01*
X119935000Y-79825000D01*
G75*
G02*
X120185000Y-80075000I0J-250000D01*
G01*
G37*
X121260000Y-80450000D03*
G36*
G01*
X120185000Y-82615000D02*
X120185000Y-83365000D01*
G75*
G02*
X119935000Y-83615000I-250000J0D01*
G01*
X119185000Y-83615000D01*
G75*
G02*
X118935000Y-83365000I0J250000D01*
G01*
X118935000Y-82615000D01*
G75*
G02*
X119185000Y-82365000I250000J0D01*
G01*
X119935000Y-82365000D01*
G75*
G02*
X120185000Y-82615000I0J-250000D01*
G01*
G37*
X121260000Y-82990000D03*
G36*
G01*
X120185000Y-85155000D02*
X120185000Y-85905000D01*
G75*
G02*
X119935000Y-86155000I-250000J0D01*
G01*
X119185000Y-86155000D01*
G75*
G02*
X118935000Y-85905000I0J250000D01*
G01*
X118935000Y-85155000D01*
G75*
G02*
X119185000Y-84905000I250000J0D01*
G01*
X119935000Y-84905000D01*
G75*
G02*
X120185000Y-85155000I0J-250000D01*
G01*
G37*
X121260000Y-85530000D03*
M02*
