G04 #@! TF.GenerationSoftware,KiCad,Pcbnew,9.0.1+1*
G04 #@! TF.CreationDate,2025-11-12T15:34:54+00:00*
G04 #@! TF.ProjectId,main-carrier,6d61696e-2d63-4617-9272-6965722e6b69,v1.0*
G04 #@! TF.SameCoordinates,Original*
G04 #@! TF.FileFunction,Copper,L1,Top*
G04 #@! TF.FilePolarity,Positive*
%FSLAX46Y46*%
G04 Gerber Fmt 4.6, Leading zero omitted, Abs format (unit mm)*
G04 Created by KiCad (PCBNEW 9.0.1+1) date 2025-11-12 15:34:54*
%MOMM*%
%LPD*%
G01*
G04 APERTURE LIST*
G04 #@! TA.AperFunction,ComponentPad*
%ADD10C,6.000000*%
G04 #@! TD*
G04 #@! TA.AperFunction,SMDPad,CuDef*
%ADD11C,0.500000*%
G04 #@! TD*
G04 #@! TA.AperFunction,Conductor*
%ADD12C,0.200000*%
G04 #@! TD*
G04 APERTURE END LIST*
G04 #@! TA.AperFunction,SMDPad,CuDef*
G36*
G01*
X322300001Y-124559999D02*
X322300001Y-123559999D01*
G75*
G02*
X322800001Y-123059999I500000J0D01*
G01*
X324340001Y-123059999D01*
G75*
G02*
X324840001Y-123559999I0J-500000D01*
G01*
X324840001Y-124559999D01*
G75*
G02*
X324340001Y-125059999I-500000J0D01*
G01*
X322800001Y-125059999D01*
G75*
G02*
X322300001Y-124559999I0J500000D01*
G01*
G37*
G04 #@! TD.AperFunction*
G04 #@! TA.AperFunction,SMDPad,CuDef*
G36*
G01*
X322300001Y-129639999D02*
X322300001Y-128639999D01*
G75*
G02*
X322800001Y-128139999I500000J0D01*
G01*
X324340001Y-128139999D01*
G75*
G02*
X324840001Y-128639999I0J-500000D01*
G01*
X324840001Y-129639999D01*
G75*
G02*
X324340001Y-130139999I-500000J0D01*
G01*
X322800001Y-130139999D01*
G75*
G02*
X322300001Y-129639999I0J500000D01*
G01*
G37*
G04 #@! TD.AperFunction*
G04 #@! TA.AperFunction,SMDPad,CuDef*
G36*
G01*
X322300001Y-132179999D02*
X322300001Y-131179999D01*
G75*
G02*
X322800001Y-130679999I500000J0D01*
G01*
X324340001Y-130679999D01*
G75*
G02*
X324840001Y-131179999I0J-500000D01*
G01*
X324840001Y-132179999D01*
G75*
G02*
X324340001Y-132679999I-500000J0D01*
G01*
X322800001Y-132679999D01*
G75*
G02*
X322300001Y-132179999I0J500000D01*
G01*
G37*
G04 #@! TD.AperFunction*
G04 #@! TA.AperFunction,SMDPad,CuDef*
G36*
G01*
X322300001Y-177899999D02*
X322300001Y-176899999D01*
G75*
G02*
X322800001Y-176399999I500000J0D01*
G01*
X324340001Y-176399999D01*
G75*
G02*
X324840001Y-176899999I0J-500000D01*
G01*
X324840001Y-177899999D01*
G75*
G02*
X324340001Y-178399999I-500000J0D01*
G01*
X322800001Y-178399999D01*
G75*
G02*
X322300001Y-177899999I0J500000D01*
G01*
G37*
G04 #@! TD.AperFunction*
G04 #@! TA.AperFunction,SMDPad,CuDef*
G36*
G01*
X322300001Y-180439999D02*
X322300001Y-179439999D01*
G75*
G02*
X322800001Y-178939999I500000J0D01*
G01*
X324340001Y-178939999D01*
G75*
G02*
X324840001Y-179439999I0J-500000D01*
G01*
X324840001Y-180439999D01*
G75*
G02*
X324340001Y-180939999I-500000J0D01*
G01*
X322800001Y-180939999D01*
G75*
G02*
X322300001Y-180439999I0J500000D01*
G01*
G37*
G04 #@! TD.AperFunction*
G04 #@! TA.AperFunction,SMDPad,CuDef*
G36*
G01*
X322300001Y-182979999D02*
X322300001Y-181979999D01*
G75*
G02*
X322800001Y-181479999I500000J0D01*
G01*
X324340001Y-181479999D01*
G75*
G02*
X324840001Y-181979999I0J-500000D01*
G01*
X324840001Y-182979999D01*
G75*
G02*
X324340001Y-183479999I-500000J0D01*
G01*
X322800001Y-183479999D01*
G75*
G02*
X322300001Y-182979999I0J500000D01*
G01*
G37*
G04 #@! TD.AperFunction*
G04 #@! TA.AperFunction,SMDPad,CuDef*
G36*
G01*
X322300001Y-185519999D02*
X322300001Y-184519999D01*
G75*
G02*
X322800001Y-184019999I500000J0D01*
G01*
X324340001Y-184019999D01*
G75*
G02*
X324840001Y-184519999I0J-500000D01*
G01*
X324840001Y-185519999D01*
G75*
G02*
X324340001Y-186019999I-500000J0D01*
G01*
X322800001Y-186019999D01*
G75*
G02*
X322300001Y-185519999I0J500000D01*
G01*
G37*
G04 #@! TD.AperFunction*
G04 #@! TA.AperFunction,SMDPad,CuDef*
G36*
G01*
X322300001Y-188059999D02*
X322300001Y-187059999D01*
G75*
G02*
X322800001Y-186559999I500000J0D01*
G01*
X324340001Y-186559999D01*
G75*
G02*
X324840001Y-187059999I0J-500000D01*
G01*
X324840001Y-188059999D01*
G75*
G02*
X324340001Y-188559999I-500000J0D01*
G01*
X322800001Y-188559999D01*
G75*
G02*
X322300001Y-188059999I0J500000D01*
G01*
G37*
G04 #@! TD.AperFunction*
G04 #@! TA.AperFunction,SMDPad,CuDef*
G36*
G01*
X322300001Y-190599999D02*
X322300001Y-189599999D01*
G75*
G02*
X322800001Y-189099999I500000J0D01*
G01*
X324340001Y-189099999D01*
G75*
G02*
X324840001Y-189599999I0J-500000D01*
G01*
X324840001Y-190599999D01*
G75*
G02*
X324340001Y-191099999I-500000J0D01*
G01*
X322800001Y-191099999D01*
G75*
G02*
X322300001Y-190599999I0J500000D01*
G01*
G37*
G04 #@! TD.AperFunction*
G04 #@! TA.AperFunction,SMDPad,CuDef*
G36*
G01*
X322300001Y-193139999D02*
X322300001Y-192139999D01*
G75*
G02*
X322800001Y-191639999I500000J0D01*
G01*
X324340001Y-191639999D01*
G75*
G02*
X324840001Y-192139999I0J-500000D01*
G01*
X324840001Y-193139999D01*
G75*
G02*
X324340001Y-193639999I-500000J0D01*
G01*
X322800001Y-193639999D01*
G75*
G02*
X322300001Y-193139999I0J500000D01*
G01*
G37*
G04 #@! TD.AperFunction*
G04 #@! TA.AperFunction,SMDPad,CuDef*
G36*
G01*
X365100001Y-124559999D02*
X365100001Y-123559999D01*
G75*
G02*
X365600001Y-123059999I500000J0D01*
G01*
X367140001Y-123059999D01*
G75*
G02*
X367640001Y-123559999I0J-500000D01*
G01*
X367640001Y-124559999D01*
G75*
G02*
X367140001Y-125059999I-500000J0D01*
G01*
X365600001Y-125059999D01*
G75*
G02*
X365100001Y-124559999I0J500000D01*
G01*
G37*
G04 #@! TD.AperFunction*
G04 #@! TA.AperFunction,SMDPad,CuDef*
G36*
G01*
X365100001Y-127099999D02*
X365100001Y-126099999D01*
G75*
G02*
X365600001Y-125599999I500000J0D01*
G01*
X367140001Y-125599999D01*
G75*
G02*
X367640001Y-126099999I0J-500000D01*
G01*
X367640001Y-127099999D01*
G75*
G02*
X367140001Y-127599999I-500000J0D01*
G01*
X365600001Y-127599999D01*
G75*
G02*
X365100001Y-127099999I0J500000D01*
G01*
G37*
G04 #@! TD.AperFunction*
G04 #@! TA.AperFunction,SMDPad,CuDef*
G36*
G01*
X365100001Y-129639999D02*
X365100001Y-128639999D01*
G75*
G02*
X365600001Y-128139999I500000J0D01*
G01*
X367140001Y-128139999D01*
G75*
G02*
X367640001Y-128639999I0J-500000D01*
G01*
X367640001Y-129639999D01*
G75*
G02*
X367140001Y-130139999I-500000J0D01*
G01*
X365600001Y-130139999D01*
G75*
G02*
X365100001Y-129639999I0J500000D01*
G01*
G37*
G04 #@! TD.AperFunction*
G04 #@! TA.AperFunction,SMDPad,CuDef*
G36*
G01*
X365100001Y-132179999D02*
X365100001Y-131179999D01*
G75*
G02*
X365600001Y-130679999I500000J0D01*
G01*
X367140001Y-130679999D01*
G75*
G02*
X367640001Y-131179999I0J-500000D01*
G01*
X367640001Y-132179999D01*
G75*
G02*
X367140001Y-132679999I-500000J0D01*
G01*
X365600001Y-132679999D01*
G75*
G02*
X365100001Y-132179999I0J500000D01*
G01*
G37*
G04 #@! TD.AperFunction*
G04 #@! TA.AperFunction,SMDPad,CuDef*
G36*
G01*
X365100001Y-134719999D02*
X365100001Y-133719999D01*
G75*
G02*
X365600001Y-133219999I500000J0D01*
G01*
X367140001Y-133219999D01*
G75*
G02*
X367640001Y-133719999I0J-500000D01*
G01*
X367640001Y-134719999D01*
G75*
G02*
X367140001Y-135219999I-500000J0D01*
G01*
X365600001Y-135219999D01*
G75*
G02*
X365100001Y-134719999I0J500000D01*
G01*
G37*
G04 #@! TD.AperFunction*
G04 #@! TA.AperFunction,SMDPad,CuDef*
G36*
G01*
X365100001Y-137259999D02*
X365100001Y-136259999D01*
G75*
G02*
X365600001Y-135759999I500000J0D01*
G01*
X367140001Y-135759999D01*
G75*
G02*
X367640001Y-136259999I0J-500000D01*
G01*
X367640001Y-137259999D01*
G75*
G02*
X367140001Y-137759999I-500000J0D01*
G01*
X365600001Y-137759999D01*
G75*
G02*
X365100001Y-137259999I0J500000D01*
G01*
G37*
G04 #@! TD.AperFunction*
G04 #@! TA.AperFunction,SMDPad,CuDef*
G36*
G01*
X365100001Y-139799999D02*
X365100001Y-138799999D01*
G75*
G02*
X365600001Y-138299999I500000J0D01*
G01*
X367140001Y-138299999D01*
G75*
G02*
X367640001Y-138799999I0J-500000D01*
G01*
X367640001Y-139799999D01*
G75*
G02*
X367140001Y-140299999I-500000J0D01*
G01*
X365600001Y-140299999D01*
G75*
G02*
X365100001Y-139799999I0J500000D01*
G01*
G37*
G04 #@! TD.AperFunction*
G04 #@! TA.AperFunction,SMDPad,CuDef*
G36*
G01*
X365100001Y-142339999D02*
X365100001Y-141339999D01*
G75*
G02*
X365600001Y-140839999I500000J0D01*
G01*
X367140001Y-140839999D01*
G75*
G02*
X367640001Y-141339999I0J-500000D01*
G01*
X367640001Y-142339999D01*
G75*
G02*
X367140001Y-142839999I-500000J0D01*
G01*
X365600001Y-142839999D01*
G75*
G02*
X365100001Y-142339999I0J500000D01*
G01*
G37*
G04 #@! TD.AperFunction*
G04 #@! TA.AperFunction,SMDPad,CuDef*
G36*
G01*
X365100001Y-144879999D02*
X365100001Y-143879999D01*
G75*
G02*
X365600001Y-143379999I500000J0D01*
G01*
X367140001Y-143379999D01*
G75*
G02*
X367640001Y-143879999I0J-500000D01*
G01*
X367640001Y-144879999D01*
G75*
G02*
X367140001Y-145379999I-500000J0D01*
G01*
X365600001Y-145379999D01*
G75*
G02*
X365100001Y-144879999I0J500000D01*
G01*
G37*
G04 #@! TD.AperFunction*
G04 #@! TA.AperFunction,SMDPad,CuDef*
G36*
G01*
X365100001Y-147419999D02*
X365100001Y-146419999D01*
G75*
G02*
X365600001Y-145919999I500000J0D01*
G01*
X367140001Y-145919999D01*
G75*
G02*
X367640001Y-146419999I0J-500000D01*
G01*
X367640001Y-147419999D01*
G75*
G02*
X367140001Y-147919999I-500000J0D01*
G01*
X365600001Y-147919999D01*
G75*
G02*
X365100001Y-147419999I0J500000D01*
G01*
G37*
G04 #@! TD.AperFunction*
G04 #@! TA.AperFunction,SMDPad,CuDef*
G36*
G01*
X365100001Y-149959999D02*
X365100001Y-148959999D01*
G75*
G02*
X365600001Y-148459999I500000J0D01*
G01*
X367140001Y-148459999D01*
G75*
G02*
X367640001Y-148959999I0J-500000D01*
G01*
X367640001Y-149959999D01*
G75*
G02*
X367140001Y-150459999I-500000J0D01*
G01*
X365600001Y-150459999D01*
G75*
G02*
X365100001Y-149959999I0J500000D01*
G01*
G37*
G04 #@! TD.AperFunction*
G04 #@! TA.AperFunction,SMDPad,CuDef*
G36*
G01*
X365100001Y-152499999D02*
X365100001Y-151499999D01*
G75*
G02*
X365600001Y-150999999I500000J0D01*
G01*
X367140001Y-150999999D01*
G75*
G02*
X367640001Y-151499999I0J-500000D01*
G01*
X367640001Y-152499999D01*
G75*
G02*
X367140001Y-152999999I-500000J0D01*
G01*
X365600001Y-152999999D01*
G75*
G02*
X365100001Y-152499999I0J500000D01*
G01*
G37*
G04 #@! TD.AperFunction*
G04 #@! TA.AperFunction,SMDPad,CuDef*
G36*
G01*
X365100001Y-155039999D02*
X365100001Y-154039999D01*
G75*
G02*
X365600001Y-153539999I500000J0D01*
G01*
X367140001Y-153539999D01*
G75*
G02*
X367640001Y-154039999I0J-500000D01*
G01*
X367640001Y-155039999D01*
G75*
G02*
X367140001Y-155539999I-500000J0D01*
G01*
X365600001Y-155539999D01*
G75*
G02*
X365100001Y-155039999I0J500000D01*
G01*
G37*
G04 #@! TD.AperFunction*
G04 #@! TA.AperFunction,SMDPad,CuDef*
G36*
G01*
X365100001Y-157579999D02*
X365100001Y-156579999D01*
G75*
G02*
X365600001Y-156079999I500000J0D01*
G01*
X367140001Y-156079999D01*
G75*
G02*
X367640001Y-156579999I0J-500000D01*
G01*
X367640001Y-157579999D01*
G75*
G02*
X367140001Y-158079999I-500000J0D01*
G01*
X365600001Y-158079999D01*
G75*
G02*
X365100001Y-157579999I0J500000D01*
G01*
G37*
G04 #@! TD.AperFunction*
G04 #@! TA.AperFunction,SMDPad,CuDef*
G36*
G01*
X365100001Y-160119999D02*
X365100001Y-159119999D01*
G75*
G02*
X365600001Y-158619999I500000J0D01*
G01*
X367140001Y-158619999D01*
G75*
G02*
X367640001Y-159119999I0J-500000D01*
G01*
X367640001Y-160119999D01*
G75*
G02*
X367140001Y-160619999I-500000J0D01*
G01*
X365600001Y-160619999D01*
G75*
G02*
X365100001Y-160119999I0J500000D01*
G01*
G37*
G04 #@! TD.AperFunction*
G04 #@! TA.AperFunction,SMDPad,CuDef*
G36*
G01*
X365100001Y-162659999D02*
X365100001Y-161659999D01*
G75*
G02*
X365600001Y-161159999I500000J0D01*
G01*
X367140001Y-161159999D01*
G75*
G02*
X367640001Y-161659999I0J-500000D01*
G01*
X367640001Y-162659999D01*
G75*
G02*
X367140001Y-163159999I-500000J0D01*
G01*
X365600001Y-163159999D01*
G75*
G02*
X365100001Y-162659999I0J500000D01*
G01*
G37*
G04 #@! TD.AperFunction*
G04 #@! TA.AperFunction,SMDPad,CuDef*
G36*
G01*
X365100001Y-165199999D02*
X365100001Y-164199999D01*
G75*
G02*
X365600001Y-163699999I500000J0D01*
G01*
X367140001Y-163699999D01*
G75*
G02*
X367640001Y-164199999I0J-500000D01*
G01*
X367640001Y-165199999D01*
G75*
G02*
X367140001Y-165699999I-500000J0D01*
G01*
X365600001Y-165699999D01*
G75*
G02*
X365100001Y-165199999I0J500000D01*
G01*
G37*
G04 #@! TD.AperFunction*
G04 #@! TA.AperFunction,SMDPad,CuDef*
G36*
G01*
X365100001Y-167739999D02*
X365100001Y-166739999D01*
G75*
G02*
X365600001Y-166239999I500000J0D01*
G01*
X367140001Y-166239999D01*
G75*
G02*
X367640001Y-166739999I0J-500000D01*
G01*
X367640001Y-167739999D01*
G75*
G02*
X367140001Y-168239999I-500000J0D01*
G01*
X365600001Y-168239999D01*
G75*
G02*
X365100001Y-167739999I0J500000D01*
G01*
G37*
G04 #@! TD.AperFunction*
G04 #@! TA.AperFunction,SMDPad,CuDef*
G36*
G01*
X365100001Y-170279999D02*
X365100001Y-169279999D01*
G75*
G02*
X365600001Y-168779999I500000J0D01*
G01*
X367140001Y-168779999D01*
G75*
G02*
X367640001Y-169279999I0J-500000D01*
G01*
X367640001Y-170279999D01*
G75*
G02*
X367140001Y-170779999I-500000J0D01*
G01*
X365600001Y-170779999D01*
G75*
G02*
X365100001Y-170279999I0J500000D01*
G01*
G37*
G04 #@! TD.AperFunction*
G04 #@! TA.AperFunction,SMDPad,CuDef*
G36*
G01*
X365100001Y-172819999D02*
X365100001Y-171819999D01*
G75*
G02*
X365600001Y-171319999I500000J0D01*
G01*
X367140001Y-171319999D01*
G75*
G02*
X367640001Y-171819999I0J-500000D01*
G01*
X367640001Y-172819999D01*
G75*
G02*
X367140001Y-173319999I-500000J0D01*
G01*
X365600001Y-173319999D01*
G75*
G02*
X365100001Y-172819999I0J500000D01*
G01*
G37*
G04 #@! TD.AperFunction*
G04 #@! TA.AperFunction,SMDPad,CuDef*
G36*
G01*
X365100001Y-175359999D02*
X365100001Y-174359999D01*
G75*
G02*
X365600001Y-173859999I500000J0D01*
G01*
X367140001Y-173859999D01*
G75*
G02*
X367640001Y-174359999I0J-500000D01*
G01*
X367640001Y-175359999D01*
G75*
G02*
X367140001Y-175859999I-500000J0D01*
G01*
X365600001Y-175859999D01*
G75*
G02*
X365100001Y-175359999I0J500000D01*
G01*
G37*
G04 #@! TD.AperFunction*
G04 #@! TA.AperFunction,SMDPad,CuDef*
G36*
G01*
X365100001Y-177899999D02*
X365100001Y-176899999D01*
G75*
G02*
X365600001Y-176399999I500000J0D01*
G01*
X367140001Y-176399999D01*
G75*
G02*
X367640001Y-176899999I0J-500000D01*
G01*
X367640001Y-177899999D01*
G75*
G02*
X367140001Y-178399999I-500000J0D01*
G01*
X365600001Y-178399999D01*
G75*
G02*
X365100001Y-177899999I0J500000D01*
G01*
G37*
G04 #@! TD.AperFunction*
G04 #@! TA.AperFunction,SMDPad,CuDef*
G36*
G01*
X365100001Y-180439999D02*
X365100001Y-179439999D01*
G75*
G02*
X365600001Y-178939999I500000J0D01*
G01*
X367140001Y-178939999D01*
G75*
G02*
X367640001Y-179439999I0J-500000D01*
G01*
X367640001Y-180439999D01*
G75*
G02*
X367140001Y-180939999I-500000J0D01*
G01*
X365600001Y-180939999D01*
G75*
G02*
X365100001Y-180439999I0J500000D01*
G01*
G37*
G04 #@! TD.AperFunction*
G04 #@! TA.AperFunction,SMDPad,CuDef*
G36*
G01*
X365100001Y-182979999D02*
X365100001Y-181979999D01*
G75*
G02*
X365600001Y-181479999I500000J0D01*
G01*
X367140001Y-181479999D01*
G75*
G02*
X367640001Y-181979999I0J-500000D01*
G01*
X367640001Y-182979999D01*
G75*
G02*
X367140001Y-183479999I-500000J0D01*
G01*
X365600001Y-183479999D01*
G75*
G02*
X365100001Y-182979999I0J500000D01*
G01*
G37*
G04 #@! TD.AperFunction*
G04 #@! TA.AperFunction,SMDPad,CuDef*
G36*
G01*
X365100001Y-185519999D02*
X365100001Y-184519999D01*
G75*
G02*
X365600001Y-184019999I500000J0D01*
G01*
X367140001Y-184019999D01*
G75*
G02*
X367640001Y-184519999I0J-500000D01*
G01*
X367640001Y-185519999D01*
G75*
G02*
X367140001Y-186019999I-500000J0D01*
G01*
X365600001Y-186019999D01*
G75*
G02*
X365100001Y-185519999I0J500000D01*
G01*
G37*
G04 #@! TD.AperFunction*
G04 #@! TA.AperFunction,SMDPad,CuDef*
G36*
G01*
X365100001Y-188059999D02*
X365100001Y-187059999D01*
G75*
G02*
X365600001Y-186559999I500000J0D01*
G01*
X367140001Y-186559999D01*
G75*
G02*
X367640001Y-187059999I0J-500000D01*
G01*
X367640001Y-188059999D01*
G75*
G02*
X367140001Y-188559999I-500000J0D01*
G01*
X365600001Y-188559999D01*
G75*
G02*
X365100001Y-188059999I0J500000D01*
G01*
G37*
G04 #@! TD.AperFunction*
G04 #@! TA.AperFunction,SMDPad,CuDef*
G36*
G01*
X365100001Y-190599999D02*
X365100001Y-189599999D01*
G75*
G02*
X365600001Y-189099999I500000J0D01*
G01*
X367140001Y-189099999D01*
G75*
G02*
X367640001Y-189599999I0J-500000D01*
G01*
X367640001Y-190599999D01*
G75*
G02*
X367140001Y-191099999I-500000J0D01*
G01*
X365600001Y-191099999D01*
G75*
G02*
X365100001Y-190599999I0J500000D01*
G01*
G37*
G04 #@! TD.AperFunction*
G04 #@! TA.AperFunction,SMDPad,CuDef*
G36*
G01*
X365100001Y-193139999D02*
X365100001Y-192139999D01*
G75*
G02*
X365600001Y-191639999I500000J0D01*
G01*
X367140001Y-191639999D01*
G75*
G02*
X367640001Y-192139999I0J-500000D01*
G01*
X367640001Y-193139999D01*
G75*
G02*
X367140001Y-193639999I-500000J0D01*
G01*
X365600001Y-193639999D01*
G75*
G02*
X365100001Y-193139999I0J500000D01*
G01*
G37*
G04 #@! TD.AperFunction*
G04 #@! TA.AperFunction,SMDPad,CuDef*
G36*
G01*
X322300001Y-120424999D02*
X322300001Y-119154999D01*
G75*
G02*
X322935001Y-118519999I635000J0D01*
G01*
X324205001Y-118519999D01*
G75*
G02*
X324840001Y-119154999I0J-635000D01*
G01*
X324840001Y-120424999D01*
G75*
G02*
X324205001Y-121059999I-635000J0D01*
G01*
X322935001Y-121059999D01*
G75*
G02*
X322300001Y-120424999I0J635000D01*
G01*
G37*
G04 #@! TD.AperFunction*
G04 #@! TA.AperFunction,SMDPad,CuDef*
G36*
G01*
X365100001Y-120424999D02*
X365100001Y-119154999D01*
G75*
G02*
X365735001Y-118519999I635000J0D01*
G01*
X367005001Y-118519999D01*
G75*
G02*
X367640001Y-119154999I0J-635000D01*
G01*
X367640001Y-120424999D01*
G75*
G02*
X367005001Y-121059999I-635000J0D01*
G01*
X365735001Y-121059999D01*
G75*
G02*
X365100001Y-120424999I0J635000D01*
G01*
G37*
G04 #@! TD.AperFunction*
G04 #@! TA.AperFunction,SMDPad,CuDef*
G36*
G01*
X322300001Y-197544999D02*
X322300001Y-196274999D01*
G75*
G02*
X322935001Y-195639999I635000J0D01*
G01*
X324205001Y-195639999D01*
G75*
G02*
X324840001Y-196274999I0J-635000D01*
G01*
X324840001Y-197544999D01*
G75*
G02*
X324205001Y-198179999I-635000J0D01*
G01*
X322935001Y-198179999D01*
G75*
G02*
X322300001Y-197544999I0J635000D01*
G01*
G37*
G04 #@! TD.AperFunction*
G04 #@! TA.AperFunction,SMDPad,CuDef*
G36*
G01*
X365100001Y-197544999D02*
X365100001Y-196274999D01*
G75*
G02*
X365735001Y-195639999I635000J0D01*
G01*
X367005001Y-195639999D01*
G75*
G02*
X367640001Y-196274999I0J-635000D01*
G01*
X367640001Y-197544999D01*
G75*
G02*
X367005001Y-198179999I-635000J0D01*
G01*
X365735001Y-198179999D01*
G75*
G02*
X365100001Y-197544999I0J635000D01*
G01*
G37*
G04 #@! TD.AperFunction*
G04 #@! TA.AperFunction,SMDPad,CuDef*
G36*
G01*
X355220000Y-265699999D02*
X355220000Y-264699999D01*
G75*
G02*
X355720000Y-264199999I500000J0D01*
G01*
X357260000Y-264199999D01*
G75*
G02*
X357760000Y-264699999I0J-500000D01*
G01*
X357760000Y-265699999D01*
G75*
G02*
X357260000Y-266199999I-500000J0D01*
G01*
X355720000Y-266199999D01*
G75*
G02*
X355220000Y-265699999I0J500000D01*
G01*
G37*
G04 #@! TD.AperFunction*
G04 #@! TA.AperFunction,SMDPad,CuDef*
G36*
G01*
X355220000Y-270779999D02*
X355220000Y-269779999D01*
G75*
G02*
X355720000Y-269279999I500000J0D01*
G01*
X357260000Y-269279999D01*
G75*
G02*
X357760000Y-269779999I0J-500000D01*
G01*
X357760000Y-270779999D01*
G75*
G02*
X357260000Y-271279999I-500000J0D01*
G01*
X355720000Y-271279999D01*
G75*
G02*
X355220000Y-270779999I0J500000D01*
G01*
G37*
G04 #@! TD.AperFunction*
G04 #@! TA.AperFunction,SMDPad,CuDef*
G36*
G01*
X355220000Y-273319999D02*
X355220000Y-272319999D01*
G75*
G02*
X355720000Y-271819999I500000J0D01*
G01*
X357260000Y-271819999D01*
G75*
G02*
X357760000Y-272319999I0J-500000D01*
G01*
X357760000Y-273319999D01*
G75*
G02*
X357260000Y-273819999I-500000J0D01*
G01*
X355720000Y-273819999D01*
G75*
G02*
X355220000Y-273319999I0J500000D01*
G01*
G37*
G04 #@! TD.AperFunction*
G04 #@! TA.AperFunction,SMDPad,CuDef*
G36*
G01*
X355220000Y-275859999D02*
X355220000Y-274859999D01*
G75*
G02*
X355720000Y-274359999I500000J0D01*
G01*
X357260000Y-274359999D01*
G75*
G02*
X357760000Y-274859999I0J-500000D01*
G01*
X357760000Y-275859999D01*
G75*
G02*
X357260000Y-276359999I-500000J0D01*
G01*
X355720000Y-276359999D01*
G75*
G02*
X355220000Y-275859999I0J500000D01*
G01*
G37*
G04 #@! TD.AperFunction*
G04 #@! TA.AperFunction,SMDPad,CuDef*
G36*
G01*
X355220000Y-278399999D02*
X355220000Y-277399999D01*
G75*
G02*
X355720000Y-276899999I500000J0D01*
G01*
X357260000Y-276899999D01*
G75*
G02*
X357760000Y-277399999I0J-500000D01*
G01*
X357760000Y-278399999D01*
G75*
G02*
X357260000Y-278899999I-500000J0D01*
G01*
X355720000Y-278899999D01*
G75*
G02*
X355220000Y-278399999I0J500000D01*
G01*
G37*
G04 #@! TD.AperFunction*
G04 #@! TA.AperFunction,SMDPad,CuDef*
G36*
G01*
X355220000Y-280939999D02*
X355220000Y-279939999D01*
G75*
G02*
X355720000Y-279439999I500000J0D01*
G01*
X357260000Y-279439999D01*
G75*
G02*
X357760000Y-279939999I0J-500000D01*
G01*
X357760000Y-280939999D01*
G75*
G02*
X357260000Y-281439999I-500000J0D01*
G01*
X355720000Y-281439999D01*
G75*
G02*
X355220000Y-280939999I0J500000D01*
G01*
G37*
G04 #@! TD.AperFunction*
G04 #@! TA.AperFunction,SMDPad,CuDef*
G36*
G01*
X355220000Y-283479999D02*
X355220000Y-282479999D01*
G75*
G02*
X355720000Y-281979999I500000J0D01*
G01*
X357260000Y-281979999D01*
G75*
G02*
X357760000Y-282479999I0J-500000D01*
G01*
X357760000Y-283479999D01*
G75*
G02*
X357260000Y-283979999I-500000J0D01*
G01*
X355720000Y-283979999D01*
G75*
G02*
X355220000Y-283479999I0J500000D01*
G01*
G37*
G04 #@! TD.AperFunction*
G04 #@! TA.AperFunction,SMDPad,CuDef*
G36*
G01*
X355220000Y-286019999D02*
X355220000Y-285019999D01*
G75*
G02*
X355720000Y-284519999I500000J0D01*
G01*
X357260000Y-284519999D01*
G75*
G02*
X357760000Y-285019999I0J-500000D01*
G01*
X357760000Y-286019999D01*
G75*
G02*
X357260000Y-286519999I-500000J0D01*
G01*
X355720000Y-286519999D01*
G75*
G02*
X355220000Y-286019999I0J500000D01*
G01*
G37*
G04 #@! TD.AperFunction*
G04 #@! TA.AperFunction,SMDPad,CuDef*
G36*
G01*
X355220000Y-288559999D02*
X355220000Y-287559999D01*
G75*
G02*
X355720000Y-287059999I500000J0D01*
G01*
X357260000Y-287059999D01*
G75*
G02*
X357760000Y-287559999I0J-500000D01*
G01*
X357760000Y-288559999D01*
G75*
G02*
X357260000Y-289059999I-500000J0D01*
G01*
X355720000Y-289059999D01*
G75*
G02*
X355220000Y-288559999I0J500000D01*
G01*
G37*
G04 #@! TD.AperFunction*
G04 #@! TA.AperFunction,SMDPad,CuDef*
G36*
G01*
X371220000Y-265699999D02*
X371220000Y-264699999D01*
G75*
G02*
X371720000Y-264199999I500000J0D01*
G01*
X373260000Y-264199999D01*
G75*
G02*
X373760000Y-264699999I0J-500000D01*
G01*
X373760000Y-265699999D01*
G75*
G02*
X373260000Y-266199999I-500000J0D01*
G01*
X371720000Y-266199999D01*
G75*
G02*
X371220000Y-265699999I0J500000D01*
G01*
G37*
G04 #@! TD.AperFunction*
G04 #@! TA.AperFunction,SMDPad,CuDef*
G36*
G01*
X371220000Y-268239999D02*
X371220000Y-267239999D01*
G75*
G02*
X371720000Y-266739999I500000J0D01*
G01*
X373260000Y-266739999D01*
G75*
G02*
X373760000Y-267239999I0J-500000D01*
G01*
X373760000Y-268239999D01*
G75*
G02*
X373260000Y-268739999I-500000J0D01*
G01*
X371720000Y-268739999D01*
G75*
G02*
X371220000Y-268239999I0J500000D01*
G01*
G37*
G04 #@! TD.AperFunction*
G04 #@! TA.AperFunction,SMDPad,CuDef*
G36*
G01*
X371220000Y-270779999D02*
X371220000Y-269779999D01*
G75*
G02*
X371720000Y-269279999I500000J0D01*
G01*
X373260000Y-269279999D01*
G75*
G02*
X373760000Y-269779999I0J-500000D01*
G01*
X373760000Y-270779999D01*
G75*
G02*
X373260000Y-271279999I-500000J0D01*
G01*
X371720000Y-271279999D01*
G75*
G02*
X371220000Y-270779999I0J500000D01*
G01*
G37*
G04 #@! TD.AperFunction*
G04 #@! TA.AperFunction,SMDPad,CuDef*
G36*
G01*
X371220000Y-273319999D02*
X371220000Y-272319999D01*
G75*
G02*
X371720000Y-271819999I500000J0D01*
G01*
X373260000Y-271819999D01*
G75*
G02*
X373760000Y-272319999I0J-500000D01*
G01*
X373760000Y-273319999D01*
G75*
G02*
X373260000Y-273819999I-500000J0D01*
G01*
X371720000Y-273819999D01*
G75*
G02*
X371220000Y-273319999I0J500000D01*
G01*
G37*
G04 #@! TD.AperFunction*
G04 #@! TA.AperFunction,SMDPad,CuDef*
G36*
G01*
X371220000Y-275859999D02*
X371220000Y-274859999D01*
G75*
G02*
X371720000Y-274359999I500000J0D01*
G01*
X373260000Y-274359999D01*
G75*
G02*
X373760000Y-274859999I0J-500000D01*
G01*
X373760000Y-275859999D01*
G75*
G02*
X373260000Y-276359999I-500000J0D01*
G01*
X371720000Y-276359999D01*
G75*
G02*
X371220000Y-275859999I0J500000D01*
G01*
G37*
G04 #@! TD.AperFunction*
G04 #@! TA.AperFunction,SMDPad,CuDef*
G36*
G01*
X371220000Y-278399999D02*
X371220000Y-277399999D01*
G75*
G02*
X371720000Y-276899999I500000J0D01*
G01*
X373260000Y-276899999D01*
G75*
G02*
X373760000Y-277399999I0J-500000D01*
G01*
X373760000Y-278399999D01*
G75*
G02*
X373260000Y-278899999I-500000J0D01*
G01*
X371720000Y-278899999D01*
G75*
G02*
X371220000Y-278399999I0J500000D01*
G01*
G37*
G04 #@! TD.AperFunction*
G04 #@! TA.AperFunction,SMDPad,CuDef*
G36*
G01*
X371220000Y-280939999D02*
X371220000Y-279939999D01*
G75*
G02*
X371720000Y-279439999I500000J0D01*
G01*
X373260000Y-279439999D01*
G75*
G02*
X373760000Y-279939999I0J-500000D01*
G01*
X373760000Y-280939999D01*
G75*
G02*
X373260000Y-281439999I-500000J0D01*
G01*
X371720000Y-281439999D01*
G75*
G02*
X371220000Y-280939999I0J500000D01*
G01*
G37*
G04 #@! TD.AperFunction*
G04 #@! TA.AperFunction,SMDPad,CuDef*
G36*
G01*
X371220000Y-283479999D02*
X371220000Y-282479999D01*
G75*
G02*
X371720000Y-281979999I500000J0D01*
G01*
X373260000Y-281979999D01*
G75*
G02*
X373760000Y-282479999I0J-500000D01*
G01*
X373760000Y-283479999D01*
G75*
G02*
X373260000Y-283979999I-500000J0D01*
G01*
X371720000Y-283979999D01*
G75*
G02*
X371220000Y-283479999I0J500000D01*
G01*
G37*
G04 #@! TD.AperFunction*
G04 #@! TA.AperFunction,SMDPad,CuDef*
G36*
G01*
X371220000Y-286019999D02*
X371220000Y-285019999D01*
G75*
G02*
X371720000Y-284519999I500000J0D01*
G01*
X373260000Y-284519999D01*
G75*
G02*
X373760000Y-285019999I0J-500000D01*
G01*
X373760000Y-286019999D01*
G75*
G02*
X373260000Y-286519999I-500000J0D01*
G01*
X371720000Y-286519999D01*
G75*
G02*
X371220000Y-286019999I0J500000D01*
G01*
G37*
G04 #@! TD.AperFunction*
G04 #@! TA.AperFunction,SMDPad,CuDef*
G36*
G01*
X371220000Y-288559999D02*
X371220000Y-287559999D01*
G75*
G02*
X371720000Y-287059999I500000J0D01*
G01*
X373260000Y-287059999D01*
G75*
G02*
X373760000Y-287559999I0J-500000D01*
G01*
X373760000Y-288559999D01*
G75*
G02*
X373260000Y-289059999I-500000J0D01*
G01*
X371720000Y-289059999D01*
G75*
G02*
X371220000Y-288559999I0J500000D01*
G01*
G37*
G04 #@! TD.AperFunction*
G04 #@! TA.AperFunction,SMDPad,CuDef*
G36*
G01*
X355220000Y-261564999D02*
X355220000Y-260294999D01*
G75*
G02*
X355855000Y-259659999I635000J0D01*
G01*
X357125000Y-259659999D01*
G75*
G02*
X357760000Y-260294999I0J-635000D01*
G01*
X357760000Y-261564999D01*
G75*
G02*
X357125000Y-262199999I-635000J0D01*
G01*
X355855000Y-262199999D01*
G75*
G02*
X355220000Y-261564999I0J635000D01*
G01*
G37*
G04 #@! TD.AperFunction*
G04 #@! TA.AperFunction,SMDPad,CuDef*
G36*
G01*
X371220000Y-261564999D02*
X371220000Y-260294999D01*
G75*
G02*
X371855000Y-259659999I635000J0D01*
G01*
X373125000Y-259659999D01*
G75*
G02*
X373760000Y-260294999I0J-635000D01*
G01*
X373760000Y-261564999D01*
G75*
G02*
X373125000Y-262199999I-635000J0D01*
G01*
X371855000Y-262199999D01*
G75*
G02*
X371220000Y-261564999I0J635000D01*
G01*
G37*
G04 #@! TD.AperFunction*
G04 #@! TA.AperFunction,SMDPad,CuDef*
G36*
G01*
X355220000Y-292964999D02*
X355220000Y-291694999D01*
G75*
G02*
X355855000Y-291059999I635000J0D01*
G01*
X357125000Y-291059999D01*
G75*
G02*
X357760000Y-291694999I0J-635000D01*
G01*
X357760000Y-292964999D01*
G75*
G02*
X357125000Y-293599999I-635000J0D01*
G01*
X355855000Y-293599999D01*
G75*
G02*
X355220000Y-292964999I0J635000D01*
G01*
G37*
G04 #@! TD.AperFunction*
G04 #@! TA.AperFunction,SMDPad,CuDef*
G36*
G01*
X371220000Y-292964999D02*
X371220000Y-291694999D01*
G75*
G02*
X371855000Y-291059999I635000J0D01*
G01*
X373125000Y-291059999D01*
G75*
G02*
X373760000Y-291694999I0J-635000D01*
G01*
X373760000Y-292964999D01*
G75*
G02*
X373125000Y-293599999I-635000J0D01*
G01*
X371855000Y-293599999D01*
G75*
G02*
X371220000Y-292964999I0J635000D01*
G01*
G37*
G04 #@! TD.AperFunction*
G04 #@! TA.AperFunction,SMDPad,CuDef*
G36*
G01*
X379980000Y-124640000D02*
X379980000Y-123640000D01*
G75*
G02*
X380480000Y-123140000I500000J0D01*
G01*
X382020000Y-123140000D01*
G75*
G02*
X382520000Y-123640000I0J-500000D01*
G01*
X382520000Y-124640000D01*
G75*
G02*
X382020000Y-125140000I-500000J0D01*
G01*
X380480000Y-125140000D01*
G75*
G02*
X379980000Y-124640000I0J500000D01*
G01*
G37*
G04 #@! TD.AperFunction*
G04 #@! TA.AperFunction,SMDPad,CuDef*
G36*
G01*
X379980000Y-134800000D02*
X379980000Y-133800000D01*
G75*
G02*
X380480000Y-133300000I500000J0D01*
G01*
X382020000Y-133300000D01*
G75*
G02*
X382520000Y-133800000I0J-500000D01*
G01*
X382520000Y-134800000D01*
G75*
G02*
X382020000Y-135300000I-500000J0D01*
G01*
X380480000Y-135300000D01*
G75*
G02*
X379980000Y-134800000I0J500000D01*
G01*
G37*
G04 #@! TD.AperFunction*
G04 #@! TA.AperFunction,SMDPad,CuDef*
G36*
G01*
X379980000Y-144960000D02*
X379980000Y-143960000D01*
G75*
G02*
X380480000Y-143460000I500000J0D01*
G01*
X382020000Y-143460000D01*
G75*
G02*
X382520000Y-143960000I0J-500000D01*
G01*
X382520000Y-144960000D01*
G75*
G02*
X382020000Y-145460000I-500000J0D01*
G01*
X380480000Y-145460000D01*
G75*
G02*
X379980000Y-144960000I0J500000D01*
G01*
G37*
G04 #@! TD.AperFunction*
G04 #@! TA.AperFunction,SMDPad,CuDef*
G36*
G01*
X379980000Y-155120000D02*
X379980000Y-154120000D01*
G75*
G02*
X380480000Y-153620000I500000J0D01*
G01*
X382020000Y-153620000D01*
G75*
G02*
X382520000Y-154120000I0J-500000D01*
G01*
X382520000Y-155120000D01*
G75*
G02*
X382020000Y-155620000I-500000J0D01*
G01*
X380480000Y-155620000D01*
G75*
G02*
X379980000Y-155120000I0J500000D01*
G01*
G37*
G04 #@! TD.AperFunction*
G04 #@! TA.AperFunction,SMDPad,CuDef*
G36*
G01*
X379980000Y-167820000D02*
X379980000Y-166820000D01*
G75*
G02*
X380480000Y-166320000I500000J0D01*
G01*
X382020000Y-166320000D01*
G75*
G02*
X382520000Y-166820000I0J-500000D01*
G01*
X382520000Y-167820000D01*
G75*
G02*
X382020000Y-168320000I-500000J0D01*
G01*
X380480000Y-168320000D01*
G75*
G02*
X379980000Y-167820000I0J500000D01*
G01*
G37*
G04 #@! TD.AperFunction*
G04 #@! TA.AperFunction,SMDPad,CuDef*
G36*
G01*
X379980000Y-170360000D02*
X379980000Y-169360000D01*
G75*
G02*
X380480000Y-168860000I500000J0D01*
G01*
X382020000Y-168860000D01*
G75*
G02*
X382520000Y-169360000I0J-500000D01*
G01*
X382520000Y-170360000D01*
G75*
G02*
X382020000Y-170860000I-500000J0D01*
G01*
X380480000Y-170860000D01*
G75*
G02*
X379980000Y-170360000I0J500000D01*
G01*
G37*
G04 #@! TD.AperFunction*
G04 #@! TA.AperFunction,SMDPad,CuDef*
G36*
G01*
X379980000Y-172900000D02*
X379980000Y-171900000D01*
G75*
G02*
X380480000Y-171400000I500000J0D01*
G01*
X382020000Y-171400000D01*
G75*
G02*
X382520000Y-171900000I0J-500000D01*
G01*
X382520000Y-172900000D01*
G75*
G02*
X382020000Y-173400000I-500000J0D01*
G01*
X380480000Y-173400000D01*
G75*
G02*
X379980000Y-172900000I0J500000D01*
G01*
G37*
G04 #@! TD.AperFunction*
G04 #@! TA.AperFunction,SMDPad,CuDef*
G36*
G01*
X379980000Y-175440000D02*
X379980000Y-174440000D01*
G75*
G02*
X380480000Y-173940000I500000J0D01*
G01*
X382020000Y-173940000D01*
G75*
G02*
X382520000Y-174440000I0J-500000D01*
G01*
X382520000Y-175440000D01*
G75*
G02*
X382020000Y-175940000I-500000J0D01*
G01*
X380480000Y-175940000D01*
G75*
G02*
X379980000Y-175440000I0J500000D01*
G01*
G37*
G04 #@! TD.AperFunction*
G04 #@! TA.AperFunction,SMDPad,CuDef*
G36*
G01*
X379980000Y-177980000D02*
X379980000Y-176980000D01*
G75*
G02*
X380480000Y-176480000I500000J0D01*
G01*
X382020000Y-176480000D01*
G75*
G02*
X382520000Y-176980000I0J-500000D01*
G01*
X382520000Y-177980000D01*
G75*
G02*
X382020000Y-178480000I-500000J0D01*
G01*
X380480000Y-178480000D01*
G75*
G02*
X379980000Y-177980000I0J500000D01*
G01*
G37*
G04 #@! TD.AperFunction*
G04 #@! TA.AperFunction,SMDPad,CuDef*
G36*
G01*
X379980000Y-183060000D02*
X379980000Y-182060000D01*
G75*
G02*
X380480000Y-181560000I500000J0D01*
G01*
X382020000Y-181560000D01*
G75*
G02*
X382520000Y-182060000I0J-500000D01*
G01*
X382520000Y-183060000D01*
G75*
G02*
X382020000Y-183560000I-500000J0D01*
G01*
X380480000Y-183560000D01*
G75*
G02*
X379980000Y-183060000I0J500000D01*
G01*
G37*
G04 #@! TD.AperFunction*
G04 #@! TA.AperFunction,SMDPad,CuDef*
G36*
G01*
X426980000Y-124640000D02*
X426980000Y-123640000D01*
G75*
G02*
X427480000Y-123140000I500000J0D01*
G01*
X429020000Y-123140000D01*
G75*
G02*
X429520000Y-123640000I0J-500000D01*
G01*
X429520000Y-124640000D01*
G75*
G02*
X429020000Y-125140000I-500000J0D01*
G01*
X427480000Y-125140000D01*
G75*
G02*
X426980000Y-124640000I0J500000D01*
G01*
G37*
G04 #@! TD.AperFunction*
G04 #@! TA.AperFunction,SMDPad,CuDef*
G36*
G01*
X426980000Y-134800000D02*
X426980000Y-133800000D01*
G75*
G02*
X427480000Y-133300000I500000J0D01*
G01*
X429020000Y-133300000D01*
G75*
G02*
X429520000Y-133800000I0J-500000D01*
G01*
X429520000Y-134800000D01*
G75*
G02*
X429020000Y-135300000I-500000J0D01*
G01*
X427480000Y-135300000D01*
G75*
G02*
X426980000Y-134800000I0J500000D01*
G01*
G37*
G04 #@! TD.AperFunction*
G04 #@! TA.AperFunction,SMDPad,CuDef*
G36*
G01*
X426980000Y-137340000D02*
X426980000Y-136340000D01*
G75*
G02*
X427480000Y-135840000I500000J0D01*
G01*
X429020000Y-135840000D01*
G75*
G02*
X429520000Y-136340000I0J-500000D01*
G01*
X429520000Y-137340000D01*
G75*
G02*
X429020000Y-137840000I-500000J0D01*
G01*
X427480000Y-137840000D01*
G75*
G02*
X426980000Y-137340000I0J500000D01*
G01*
G37*
G04 #@! TD.AperFunction*
G04 #@! TA.AperFunction,SMDPad,CuDef*
G36*
G01*
X426980000Y-183060000D02*
X426980000Y-182060000D01*
G75*
G02*
X427480000Y-181560000I500000J0D01*
G01*
X429020000Y-181560000D01*
G75*
G02*
X429520000Y-182060000I0J-500000D01*
G01*
X429520000Y-183060000D01*
G75*
G02*
X429020000Y-183560000I-500000J0D01*
G01*
X427480000Y-183560000D01*
G75*
G02*
X426980000Y-183060000I0J500000D01*
G01*
G37*
G04 #@! TD.AperFunction*
G04 #@! TA.AperFunction,SMDPad,CuDef*
G36*
G01*
X379980000Y-120505000D02*
X379980000Y-119235000D01*
G75*
G02*
X380615000Y-118600000I635000J0D01*
G01*
X381885000Y-118600000D01*
G75*
G02*
X382520000Y-119235000I0J-635000D01*
G01*
X382520000Y-120505000D01*
G75*
G02*
X381885000Y-121140000I-635000J0D01*
G01*
X380615000Y-121140000D01*
G75*
G02*
X379980000Y-120505000I0J635000D01*
G01*
G37*
G04 #@! TD.AperFunction*
G04 #@! TA.AperFunction,SMDPad,CuDef*
G36*
G01*
X426980000Y-120505000D02*
X426980000Y-119235000D01*
G75*
G02*
X427615000Y-118600000I635000J0D01*
G01*
X428885000Y-118600000D01*
G75*
G02*
X429520000Y-119235000I0J-635000D01*
G01*
X429520000Y-120505000D01*
G75*
G02*
X428885000Y-121140000I-635000J0D01*
G01*
X427615000Y-121140000D01*
G75*
G02*
X426980000Y-120505000I0J635000D01*
G01*
G37*
G04 #@! TD.AperFunction*
G04 #@! TA.AperFunction,SMDPad,CuDef*
G36*
G01*
X379980000Y-187465000D02*
X379980000Y-186195000D01*
G75*
G02*
X380615000Y-185560000I635000J0D01*
G01*
X381885000Y-185560000D01*
G75*
G02*
X382520000Y-186195000I0J-635000D01*
G01*
X382520000Y-187465000D01*
G75*
G02*
X381885000Y-188100000I-635000J0D01*
G01*
X380615000Y-188100000D01*
G75*
G02*
X379980000Y-187465000I0J635000D01*
G01*
G37*
G04 #@! TD.AperFunction*
G04 #@! TA.AperFunction,SMDPad,CuDef*
G36*
G01*
X426980000Y-187465000D02*
X426980000Y-186195000D01*
G75*
G02*
X427615000Y-185560000I635000J0D01*
G01*
X428885000Y-185560000D01*
G75*
G02*
X429520000Y-186195000I0J-635000D01*
G01*
X429520000Y-187465000D01*
G75*
G02*
X428885000Y-188100000I-635000J0D01*
G01*
X427615000Y-188100000D01*
G75*
G02*
X426980000Y-187465000I0J635000D01*
G01*
G37*
G04 #@! TD.AperFunction*
G04 #@! TA.AperFunction,SMDPad,CuDef*
G36*
G01*
X390700000Y-208459999D02*
X390700000Y-207459999D01*
G75*
G02*
X391200000Y-206959999I500000J0D01*
G01*
X392740000Y-206959999D01*
G75*
G02*
X393240000Y-207459999I0J-500000D01*
G01*
X393240000Y-208459999D01*
G75*
G02*
X392740000Y-208959999I-500000J0D01*
G01*
X391200000Y-208959999D01*
G75*
G02*
X390700000Y-208459999I0J500000D01*
G01*
G37*
G04 #@! TD.AperFunction*
G04 #@! TA.AperFunction,SMDPad,CuDef*
G36*
G01*
X390700000Y-216079999D02*
X390700000Y-215079999D01*
G75*
G02*
X391200000Y-214579999I500000J0D01*
G01*
X392740000Y-214579999D01*
G75*
G02*
X393240000Y-215079999I0J-500000D01*
G01*
X393240000Y-216079999D01*
G75*
G02*
X392740000Y-216579999I-500000J0D01*
G01*
X391200000Y-216579999D01*
G75*
G02*
X390700000Y-216079999I0J500000D01*
G01*
G37*
G04 #@! TD.AperFunction*
G04 #@! TA.AperFunction,SMDPad,CuDef*
G36*
G01*
X390700000Y-218619999D02*
X390700000Y-217619999D01*
G75*
G02*
X391200000Y-217119999I500000J0D01*
G01*
X392740000Y-217119999D01*
G75*
G02*
X393240000Y-217619999I0J-500000D01*
G01*
X393240000Y-218619999D01*
G75*
G02*
X392740000Y-219119999I-500000J0D01*
G01*
X391200000Y-219119999D01*
G75*
G02*
X390700000Y-218619999I0J500000D01*
G01*
G37*
G04 #@! TD.AperFunction*
G04 #@! TA.AperFunction,SMDPad,CuDef*
G36*
G01*
X390700000Y-221159999D02*
X390700000Y-220159999D01*
G75*
G02*
X391200000Y-219659999I500000J0D01*
G01*
X392740000Y-219659999D01*
G75*
G02*
X393240000Y-220159999I0J-500000D01*
G01*
X393240000Y-221159999D01*
G75*
G02*
X392740000Y-221659999I-500000J0D01*
G01*
X391200000Y-221659999D01*
G75*
G02*
X390700000Y-221159999I0J500000D01*
G01*
G37*
G04 #@! TD.AperFunction*
G04 #@! TA.AperFunction,SMDPad,CuDef*
G36*
G01*
X390700000Y-223699999D02*
X390700000Y-222699999D01*
G75*
G02*
X391200000Y-222199999I500000J0D01*
G01*
X392740000Y-222199999D01*
G75*
G02*
X393240000Y-222699999I0J-500000D01*
G01*
X393240000Y-223699999D01*
G75*
G02*
X392740000Y-224199999I-500000J0D01*
G01*
X391200000Y-224199999D01*
G75*
G02*
X390700000Y-223699999I0J500000D01*
G01*
G37*
G04 #@! TD.AperFunction*
G04 #@! TA.AperFunction,SMDPad,CuDef*
G36*
G01*
X390700000Y-226239999D02*
X390700000Y-225239999D01*
G75*
G02*
X391200000Y-224739999I500000J0D01*
G01*
X392740000Y-224739999D01*
G75*
G02*
X393240000Y-225239999I0J-500000D01*
G01*
X393240000Y-226239999D01*
G75*
G02*
X392740000Y-226739999I-500000J0D01*
G01*
X391200000Y-226739999D01*
G75*
G02*
X390700000Y-226239999I0J500000D01*
G01*
G37*
G04 #@! TD.AperFunction*
G04 #@! TA.AperFunction,SMDPad,CuDef*
G36*
G01*
X390700000Y-228779999D02*
X390700000Y-227779999D01*
G75*
G02*
X391200000Y-227279999I500000J0D01*
G01*
X392740000Y-227279999D01*
G75*
G02*
X393240000Y-227779999I0J-500000D01*
G01*
X393240000Y-228779999D01*
G75*
G02*
X392740000Y-229279999I-500000J0D01*
G01*
X391200000Y-229279999D01*
G75*
G02*
X390700000Y-228779999I0J500000D01*
G01*
G37*
G04 #@! TD.AperFunction*
G04 #@! TA.AperFunction,SMDPad,CuDef*
G36*
G01*
X390700000Y-231319999D02*
X390700000Y-230319999D01*
G75*
G02*
X391200000Y-229819999I500000J0D01*
G01*
X392740000Y-229819999D01*
G75*
G02*
X393240000Y-230319999I0J-500000D01*
G01*
X393240000Y-231319999D01*
G75*
G02*
X392740000Y-231819999I-500000J0D01*
G01*
X391200000Y-231819999D01*
G75*
G02*
X390700000Y-231319999I0J500000D01*
G01*
G37*
G04 #@! TD.AperFunction*
G04 #@! TA.AperFunction,SMDPad,CuDef*
G36*
G01*
X390700000Y-233859999D02*
X390700000Y-232859999D01*
G75*
G02*
X391200000Y-232359999I500000J0D01*
G01*
X392740000Y-232359999D01*
G75*
G02*
X393240000Y-232859999I0J-500000D01*
G01*
X393240000Y-233859999D01*
G75*
G02*
X392740000Y-234359999I-500000J0D01*
G01*
X391200000Y-234359999D01*
G75*
G02*
X390700000Y-233859999I0J500000D01*
G01*
G37*
G04 #@! TD.AperFunction*
G04 #@! TA.AperFunction,SMDPad,CuDef*
G36*
G01*
X390700000Y-236399999D02*
X390700000Y-235399999D01*
G75*
G02*
X391200000Y-234899999I500000J0D01*
G01*
X392740000Y-234899999D01*
G75*
G02*
X393240000Y-235399999I0J-500000D01*
G01*
X393240000Y-236399999D01*
G75*
G02*
X392740000Y-236899999I-500000J0D01*
G01*
X391200000Y-236899999D01*
G75*
G02*
X390700000Y-236399999I0J500000D01*
G01*
G37*
G04 #@! TD.AperFunction*
G04 #@! TA.AperFunction,SMDPad,CuDef*
G36*
G01*
X414700000Y-208459999D02*
X414700000Y-207459999D01*
G75*
G02*
X415200000Y-206959999I500000J0D01*
G01*
X416740000Y-206959999D01*
G75*
G02*
X417240000Y-207459999I0J-500000D01*
G01*
X417240000Y-208459999D01*
G75*
G02*
X416740000Y-208959999I-500000J0D01*
G01*
X415200000Y-208959999D01*
G75*
G02*
X414700000Y-208459999I0J500000D01*
G01*
G37*
G04 #@! TD.AperFunction*
G04 #@! TA.AperFunction,SMDPad,CuDef*
G36*
G01*
X414700000Y-210999999D02*
X414700000Y-209999999D01*
G75*
G02*
X415200000Y-209499999I500000J0D01*
G01*
X416740000Y-209499999D01*
G75*
G02*
X417240000Y-209999999I0J-500000D01*
G01*
X417240000Y-210999999D01*
G75*
G02*
X416740000Y-211499999I-500000J0D01*
G01*
X415200000Y-211499999D01*
G75*
G02*
X414700000Y-210999999I0J500000D01*
G01*
G37*
G04 #@! TD.AperFunction*
G04 #@! TA.AperFunction,SMDPad,CuDef*
G36*
G01*
X414700000Y-213539999D02*
X414700000Y-212539999D01*
G75*
G02*
X415200000Y-212039999I500000J0D01*
G01*
X416740000Y-212039999D01*
G75*
G02*
X417240000Y-212539999I0J-500000D01*
G01*
X417240000Y-213539999D01*
G75*
G02*
X416740000Y-214039999I-500000J0D01*
G01*
X415200000Y-214039999D01*
G75*
G02*
X414700000Y-213539999I0J500000D01*
G01*
G37*
G04 #@! TD.AperFunction*
G04 #@! TA.AperFunction,SMDPad,CuDef*
G36*
G01*
X414700000Y-216079999D02*
X414700000Y-215079999D01*
G75*
G02*
X415200000Y-214579999I500000J0D01*
G01*
X416740000Y-214579999D01*
G75*
G02*
X417240000Y-215079999I0J-500000D01*
G01*
X417240000Y-216079999D01*
G75*
G02*
X416740000Y-216579999I-500000J0D01*
G01*
X415200000Y-216579999D01*
G75*
G02*
X414700000Y-216079999I0J500000D01*
G01*
G37*
G04 #@! TD.AperFunction*
G04 #@! TA.AperFunction,SMDPad,CuDef*
G36*
G01*
X414700000Y-218619999D02*
X414700000Y-217619999D01*
G75*
G02*
X415200000Y-217119999I500000J0D01*
G01*
X416740000Y-217119999D01*
G75*
G02*
X417240000Y-217619999I0J-500000D01*
G01*
X417240000Y-218619999D01*
G75*
G02*
X416740000Y-219119999I-500000J0D01*
G01*
X415200000Y-219119999D01*
G75*
G02*
X414700000Y-218619999I0J500000D01*
G01*
G37*
G04 #@! TD.AperFunction*
G04 #@! TA.AperFunction,SMDPad,CuDef*
G36*
G01*
X414700000Y-221159999D02*
X414700000Y-220159999D01*
G75*
G02*
X415200000Y-219659999I500000J0D01*
G01*
X416740000Y-219659999D01*
G75*
G02*
X417240000Y-220159999I0J-500000D01*
G01*
X417240000Y-221159999D01*
G75*
G02*
X416740000Y-221659999I-500000J0D01*
G01*
X415200000Y-221659999D01*
G75*
G02*
X414700000Y-221159999I0J500000D01*
G01*
G37*
G04 #@! TD.AperFunction*
G04 #@! TA.AperFunction,SMDPad,CuDef*
G36*
G01*
X414700000Y-223699999D02*
X414700000Y-222699999D01*
G75*
G02*
X415200000Y-222199999I500000J0D01*
G01*
X416740000Y-222199999D01*
G75*
G02*
X417240000Y-222699999I0J-500000D01*
G01*
X417240000Y-223699999D01*
G75*
G02*
X416740000Y-224199999I-500000J0D01*
G01*
X415200000Y-224199999D01*
G75*
G02*
X414700000Y-223699999I0J500000D01*
G01*
G37*
G04 #@! TD.AperFunction*
G04 #@! TA.AperFunction,SMDPad,CuDef*
G36*
G01*
X414700000Y-226239999D02*
X414700000Y-225239999D01*
G75*
G02*
X415200000Y-224739999I500000J0D01*
G01*
X416740000Y-224739999D01*
G75*
G02*
X417240000Y-225239999I0J-500000D01*
G01*
X417240000Y-226239999D01*
G75*
G02*
X416740000Y-226739999I-500000J0D01*
G01*
X415200000Y-226739999D01*
G75*
G02*
X414700000Y-226239999I0J500000D01*
G01*
G37*
G04 #@! TD.AperFunction*
G04 #@! TA.AperFunction,SMDPad,CuDef*
G36*
G01*
X414700000Y-228779999D02*
X414700000Y-227779999D01*
G75*
G02*
X415200000Y-227279999I500000J0D01*
G01*
X416740000Y-227279999D01*
G75*
G02*
X417240000Y-227779999I0J-500000D01*
G01*
X417240000Y-228779999D01*
G75*
G02*
X416740000Y-229279999I-500000J0D01*
G01*
X415200000Y-229279999D01*
G75*
G02*
X414700000Y-228779999I0J500000D01*
G01*
G37*
G04 #@! TD.AperFunction*
G04 #@! TA.AperFunction,SMDPad,CuDef*
G36*
G01*
X414700000Y-231319999D02*
X414700000Y-230319999D01*
G75*
G02*
X415200000Y-229819999I500000J0D01*
G01*
X416740000Y-229819999D01*
G75*
G02*
X417240000Y-230319999I0J-500000D01*
G01*
X417240000Y-231319999D01*
G75*
G02*
X416740000Y-231819999I-500000J0D01*
G01*
X415200000Y-231819999D01*
G75*
G02*
X414700000Y-231319999I0J500000D01*
G01*
G37*
G04 #@! TD.AperFunction*
G04 #@! TA.AperFunction,SMDPad,CuDef*
G36*
G01*
X414700000Y-233859999D02*
X414700000Y-232859999D01*
G75*
G02*
X415200000Y-232359999I500000J0D01*
G01*
X416740000Y-232359999D01*
G75*
G02*
X417240000Y-232859999I0J-500000D01*
G01*
X417240000Y-233859999D01*
G75*
G02*
X416740000Y-234359999I-500000J0D01*
G01*
X415200000Y-234359999D01*
G75*
G02*
X414700000Y-233859999I0J500000D01*
G01*
G37*
G04 #@! TD.AperFunction*
G04 #@! TA.AperFunction,SMDPad,CuDef*
G36*
G01*
X414700000Y-236399999D02*
X414700000Y-235399999D01*
G75*
G02*
X415200000Y-234899999I500000J0D01*
G01*
X416740000Y-234899999D01*
G75*
G02*
X417240000Y-235399999I0J-500000D01*
G01*
X417240000Y-236399999D01*
G75*
G02*
X416740000Y-236899999I-500000J0D01*
G01*
X415200000Y-236899999D01*
G75*
G02*
X414700000Y-236399999I0J500000D01*
G01*
G37*
G04 #@! TD.AperFunction*
G04 #@! TA.AperFunction,SMDPad,CuDef*
G36*
G01*
X390700000Y-204324999D02*
X390700000Y-203054999D01*
G75*
G02*
X391335000Y-202419999I635000J0D01*
G01*
X392605000Y-202419999D01*
G75*
G02*
X393240000Y-203054999I0J-635000D01*
G01*
X393240000Y-204324999D01*
G75*
G02*
X392605000Y-204959999I-635000J0D01*
G01*
X391335000Y-204959999D01*
G75*
G02*
X390700000Y-204324999I0J635000D01*
G01*
G37*
G04 #@! TD.AperFunction*
G04 #@! TA.AperFunction,SMDPad,CuDef*
G36*
G01*
X414700000Y-204324999D02*
X414700000Y-203054999D01*
G75*
G02*
X415335000Y-202419999I635000J0D01*
G01*
X416605000Y-202419999D01*
G75*
G02*
X417240000Y-203054999I0J-635000D01*
G01*
X417240000Y-204324999D01*
G75*
G02*
X416605000Y-204959999I-635000J0D01*
G01*
X415335000Y-204959999D01*
G75*
G02*
X414700000Y-204324999I0J635000D01*
G01*
G37*
G04 #@! TD.AperFunction*
G04 #@! TA.AperFunction,SMDPad,CuDef*
G36*
G01*
X390700000Y-240804999D02*
X390700000Y-239534999D01*
G75*
G02*
X391335000Y-238899999I635000J0D01*
G01*
X392605000Y-238899999D01*
G75*
G02*
X393240000Y-239534999I0J-635000D01*
G01*
X393240000Y-240804999D01*
G75*
G02*
X392605000Y-241439999I-635000J0D01*
G01*
X391335000Y-241439999D01*
G75*
G02*
X390700000Y-240804999I0J635000D01*
G01*
G37*
G04 #@! TD.AperFunction*
G04 #@! TA.AperFunction,SMDPad,CuDef*
G36*
G01*
X414700000Y-240804999D02*
X414700000Y-239534999D01*
G75*
G02*
X415335000Y-238899999I635000J0D01*
G01*
X416605000Y-238899999D01*
G75*
G02*
X417240000Y-239534999I0J-635000D01*
G01*
X417240000Y-240804999D01*
G75*
G02*
X416605000Y-241439999I-635000J0D01*
G01*
X415335000Y-241439999D01*
G75*
G02*
X414700000Y-240804999I0J635000D01*
G01*
G37*
G04 #@! TD.AperFunction*
G04 #@! TA.AperFunction,SMDPad,CuDef*
G36*
G01*
X183700001Y-199520001D02*
X183700001Y-198520001D01*
G75*
G02*
X184200001Y-198020001I500000J0D01*
G01*
X185740001Y-198020001D01*
G75*
G02*
X186240001Y-198520001I0J-500000D01*
G01*
X186240001Y-199520001D01*
G75*
G02*
X185740001Y-200020001I-500000J0D01*
G01*
X184200001Y-200020001D01*
G75*
G02*
X183700001Y-199520001I0J500000D01*
G01*
G37*
G04 #@! TD.AperFunction*
G04 #@! TA.AperFunction,SMDPad,CuDef*
G36*
G01*
X183700001Y-202060001D02*
X183700001Y-201060001D01*
G75*
G02*
X184200001Y-200560001I500000J0D01*
G01*
X185740001Y-200560001D01*
G75*
G02*
X186240001Y-201060001I0J-500000D01*
G01*
X186240001Y-202060001D01*
G75*
G02*
X185740001Y-202560001I-500000J0D01*
G01*
X184200001Y-202560001D01*
G75*
G02*
X183700001Y-202060001I0J500000D01*
G01*
G37*
G04 #@! TD.AperFunction*
G04 #@! TA.AperFunction,SMDPad,CuDef*
G36*
G01*
X183700001Y-209680001D02*
X183700001Y-208680001D01*
G75*
G02*
X184200001Y-208180001I500000J0D01*
G01*
X185740001Y-208180001D01*
G75*
G02*
X186240001Y-208680001I0J-500000D01*
G01*
X186240001Y-209680001D01*
G75*
G02*
X185740001Y-210180001I-500000J0D01*
G01*
X184200001Y-210180001D01*
G75*
G02*
X183700001Y-209680001I0J500000D01*
G01*
G37*
G04 #@! TD.AperFunction*
G04 #@! TA.AperFunction,SMDPad,CuDef*
G36*
G01*
X183700001Y-212220001D02*
X183700001Y-211220001D01*
G75*
G02*
X184200001Y-210720001I500000J0D01*
G01*
X185740001Y-210720001D01*
G75*
G02*
X186240001Y-211220001I0J-500000D01*
G01*
X186240001Y-212220001D01*
G75*
G02*
X185740001Y-212720001I-500000J0D01*
G01*
X184200001Y-212720001D01*
G75*
G02*
X183700001Y-212220001I0J500000D01*
G01*
G37*
G04 #@! TD.AperFunction*
G04 #@! TA.AperFunction,SMDPad,CuDef*
G36*
G01*
X183700001Y-214760001D02*
X183700001Y-213760001D01*
G75*
G02*
X184200001Y-213260001I500000J0D01*
G01*
X185740001Y-213260001D01*
G75*
G02*
X186240001Y-213760001I0J-500000D01*
G01*
X186240001Y-214760001D01*
G75*
G02*
X185740001Y-215260001I-500000J0D01*
G01*
X184200001Y-215260001D01*
G75*
G02*
X183700001Y-214760001I0J500000D01*
G01*
G37*
G04 #@! TD.AperFunction*
G04 #@! TA.AperFunction,SMDPad,CuDef*
G36*
G01*
X183700001Y-217300001D02*
X183700001Y-216300001D01*
G75*
G02*
X184200001Y-215800001I500000J0D01*
G01*
X185740001Y-215800001D01*
G75*
G02*
X186240001Y-216300001I0J-500000D01*
G01*
X186240001Y-217300001D01*
G75*
G02*
X185740001Y-217800001I-500000J0D01*
G01*
X184200001Y-217800001D01*
G75*
G02*
X183700001Y-217300001I0J500000D01*
G01*
G37*
G04 #@! TD.AperFunction*
G04 #@! TA.AperFunction,SMDPad,CuDef*
G36*
G01*
X183700001Y-219840001D02*
X183700001Y-218840001D01*
G75*
G02*
X184200001Y-218340001I500000J0D01*
G01*
X185740001Y-218340001D01*
G75*
G02*
X186240001Y-218840001I0J-500000D01*
G01*
X186240001Y-219840001D01*
G75*
G02*
X185740001Y-220340001I-500000J0D01*
G01*
X184200001Y-220340001D01*
G75*
G02*
X183700001Y-219840001I0J500000D01*
G01*
G37*
G04 #@! TD.AperFunction*
G04 #@! TA.AperFunction,SMDPad,CuDef*
G36*
G01*
X183700001Y-222380001D02*
X183700001Y-221380001D01*
G75*
G02*
X184200001Y-220880001I500000J0D01*
G01*
X185740001Y-220880001D01*
G75*
G02*
X186240001Y-221380001I0J-500000D01*
G01*
X186240001Y-222380001D01*
G75*
G02*
X185740001Y-222880001I-500000J0D01*
G01*
X184200001Y-222880001D01*
G75*
G02*
X183700001Y-222380001I0J500000D01*
G01*
G37*
G04 #@! TD.AperFunction*
G04 #@! TA.AperFunction,SMDPad,CuDef*
G36*
G01*
X183700001Y-224920001D02*
X183700001Y-223920001D01*
G75*
G02*
X184200001Y-223420001I500000J0D01*
G01*
X185740001Y-223420001D01*
G75*
G02*
X186240001Y-223920001I0J-500000D01*
G01*
X186240001Y-224920001D01*
G75*
G02*
X185740001Y-225420001I-500000J0D01*
G01*
X184200001Y-225420001D01*
G75*
G02*
X183700001Y-224920001I0J500000D01*
G01*
G37*
G04 #@! TD.AperFunction*
G04 #@! TA.AperFunction,SMDPad,CuDef*
G36*
G01*
X183700001Y-227460001D02*
X183700001Y-226460001D01*
G75*
G02*
X184200001Y-225960001I500000J0D01*
G01*
X185740001Y-225960001D01*
G75*
G02*
X186240001Y-226460001I0J-500000D01*
G01*
X186240001Y-227460001D01*
G75*
G02*
X185740001Y-227960001I-500000J0D01*
G01*
X184200001Y-227960001D01*
G75*
G02*
X183700001Y-227460001I0J500000D01*
G01*
G37*
G04 #@! TD.AperFunction*
G04 #@! TA.AperFunction,SMDPad,CuDef*
G36*
G01*
X183700001Y-230000001D02*
X183700001Y-229000001D01*
G75*
G02*
X184200001Y-228500001I500000J0D01*
G01*
X185740001Y-228500001D01*
G75*
G02*
X186240001Y-229000001I0J-500000D01*
G01*
X186240001Y-230000001D01*
G75*
G02*
X185740001Y-230500001I-500000J0D01*
G01*
X184200001Y-230500001D01*
G75*
G02*
X183700001Y-230000001I0J500000D01*
G01*
G37*
G04 #@! TD.AperFunction*
G04 #@! TA.AperFunction,SMDPad,CuDef*
G36*
G01*
X183700001Y-232540001D02*
X183700001Y-231540001D01*
G75*
G02*
X184200001Y-231040001I500000J0D01*
G01*
X185740001Y-231040001D01*
G75*
G02*
X186240001Y-231540001I0J-500000D01*
G01*
X186240001Y-232540001D01*
G75*
G02*
X185740001Y-233040001I-500000J0D01*
G01*
X184200001Y-233040001D01*
G75*
G02*
X183700001Y-232540001I0J500000D01*
G01*
G37*
G04 #@! TD.AperFunction*
G04 #@! TA.AperFunction,SMDPad,CuDef*
G36*
G01*
X183700001Y-235080001D02*
X183700001Y-234080001D01*
G75*
G02*
X184200001Y-233580001I500000J0D01*
G01*
X185740001Y-233580001D01*
G75*
G02*
X186240001Y-234080001I0J-500000D01*
G01*
X186240001Y-235080001D01*
G75*
G02*
X185740001Y-235580001I-500000J0D01*
G01*
X184200001Y-235580001D01*
G75*
G02*
X183700001Y-235080001I0J500000D01*
G01*
G37*
G04 #@! TD.AperFunction*
G04 #@! TA.AperFunction,SMDPad,CuDef*
G36*
G01*
X183700001Y-237620001D02*
X183700001Y-236620001D01*
G75*
G02*
X184200001Y-236120001I500000J0D01*
G01*
X185740001Y-236120001D01*
G75*
G02*
X186240001Y-236620001I0J-500000D01*
G01*
X186240001Y-237620001D01*
G75*
G02*
X185740001Y-238120001I-500000J0D01*
G01*
X184200001Y-238120001D01*
G75*
G02*
X183700001Y-237620001I0J500000D01*
G01*
G37*
G04 #@! TD.AperFunction*
G04 #@! TA.AperFunction,SMDPad,CuDef*
G36*
G01*
X183700001Y-245240001D02*
X183700001Y-244240001D01*
G75*
G02*
X184200001Y-243740001I500000J0D01*
G01*
X185740001Y-243740001D01*
G75*
G02*
X186240001Y-244240001I0J-500000D01*
G01*
X186240001Y-245240001D01*
G75*
G02*
X185740001Y-245740001I-500000J0D01*
G01*
X184200001Y-245740001D01*
G75*
G02*
X183700001Y-245240001I0J500000D01*
G01*
G37*
G04 #@! TD.AperFunction*
G04 #@! TA.AperFunction,SMDPad,CuDef*
G36*
G01*
X183700001Y-247780001D02*
X183700001Y-246780001D01*
G75*
G02*
X184200001Y-246280001I500000J0D01*
G01*
X185740001Y-246280001D01*
G75*
G02*
X186240001Y-246780001I0J-500000D01*
G01*
X186240001Y-247780001D01*
G75*
G02*
X185740001Y-248280001I-500000J0D01*
G01*
X184200001Y-248280001D01*
G75*
G02*
X183700001Y-247780001I0J500000D01*
G01*
G37*
G04 #@! TD.AperFunction*
G04 #@! TA.AperFunction,SMDPad,CuDef*
G36*
G01*
X223700001Y-199520001D02*
X223700001Y-198520001D01*
G75*
G02*
X224200001Y-198020001I500000J0D01*
G01*
X225740001Y-198020001D01*
G75*
G02*
X226240001Y-198520001I0J-500000D01*
G01*
X226240001Y-199520001D01*
G75*
G02*
X225740001Y-200020001I-500000J0D01*
G01*
X224200001Y-200020001D01*
G75*
G02*
X223700001Y-199520001I0J500000D01*
G01*
G37*
G04 #@! TD.AperFunction*
G04 #@! TA.AperFunction,SMDPad,CuDef*
G36*
G01*
X223700001Y-202060001D02*
X223700001Y-201060001D01*
G75*
G02*
X224200001Y-200560001I500000J0D01*
G01*
X225740001Y-200560001D01*
G75*
G02*
X226240001Y-201060001I0J-500000D01*
G01*
X226240001Y-202060001D01*
G75*
G02*
X225740001Y-202560001I-500000J0D01*
G01*
X224200001Y-202560001D01*
G75*
G02*
X223700001Y-202060001I0J500000D01*
G01*
G37*
G04 #@! TD.AperFunction*
G04 #@! TA.AperFunction,SMDPad,CuDef*
G36*
G01*
X223700001Y-209680001D02*
X223700001Y-208680001D01*
G75*
G02*
X224200001Y-208180001I500000J0D01*
G01*
X225740001Y-208180001D01*
G75*
G02*
X226240001Y-208680001I0J-500000D01*
G01*
X226240001Y-209680001D01*
G75*
G02*
X225740001Y-210180001I-500000J0D01*
G01*
X224200001Y-210180001D01*
G75*
G02*
X223700001Y-209680001I0J500000D01*
G01*
G37*
G04 #@! TD.AperFunction*
G04 #@! TA.AperFunction,SMDPad,CuDef*
G36*
G01*
X223700001Y-212220001D02*
X223700001Y-211220001D01*
G75*
G02*
X224200001Y-210720001I500000J0D01*
G01*
X225740001Y-210720001D01*
G75*
G02*
X226240001Y-211220001I0J-500000D01*
G01*
X226240001Y-212220001D01*
G75*
G02*
X225740001Y-212720001I-500000J0D01*
G01*
X224200001Y-212720001D01*
G75*
G02*
X223700001Y-212220001I0J500000D01*
G01*
G37*
G04 #@! TD.AperFunction*
G04 #@! TA.AperFunction,SMDPad,CuDef*
G36*
G01*
X223700001Y-214760001D02*
X223700001Y-213760001D01*
G75*
G02*
X224200001Y-213260001I500000J0D01*
G01*
X225740001Y-213260001D01*
G75*
G02*
X226240001Y-213760001I0J-500000D01*
G01*
X226240001Y-214760001D01*
G75*
G02*
X225740001Y-215260001I-500000J0D01*
G01*
X224200001Y-215260001D01*
G75*
G02*
X223700001Y-214760001I0J500000D01*
G01*
G37*
G04 #@! TD.AperFunction*
G04 #@! TA.AperFunction,SMDPad,CuDef*
G36*
G01*
X223700001Y-217300001D02*
X223700001Y-216300001D01*
G75*
G02*
X224200001Y-215800001I500000J0D01*
G01*
X225740001Y-215800001D01*
G75*
G02*
X226240001Y-216300001I0J-500000D01*
G01*
X226240001Y-217300001D01*
G75*
G02*
X225740001Y-217800001I-500000J0D01*
G01*
X224200001Y-217800001D01*
G75*
G02*
X223700001Y-217300001I0J500000D01*
G01*
G37*
G04 #@! TD.AperFunction*
G04 #@! TA.AperFunction,SMDPad,CuDef*
G36*
G01*
X223700001Y-219840001D02*
X223700001Y-218840001D01*
G75*
G02*
X224200001Y-218340001I500000J0D01*
G01*
X225740001Y-218340001D01*
G75*
G02*
X226240001Y-218840001I0J-500000D01*
G01*
X226240001Y-219840001D01*
G75*
G02*
X225740001Y-220340001I-500000J0D01*
G01*
X224200001Y-220340001D01*
G75*
G02*
X223700001Y-219840001I0J500000D01*
G01*
G37*
G04 #@! TD.AperFunction*
G04 #@! TA.AperFunction,SMDPad,CuDef*
G36*
G01*
X223700001Y-222380001D02*
X223700001Y-221380001D01*
G75*
G02*
X224200001Y-220880001I500000J0D01*
G01*
X225740001Y-220880001D01*
G75*
G02*
X226240001Y-221380001I0J-500000D01*
G01*
X226240001Y-222380001D01*
G75*
G02*
X225740001Y-222880001I-500000J0D01*
G01*
X224200001Y-222880001D01*
G75*
G02*
X223700001Y-222380001I0J500000D01*
G01*
G37*
G04 #@! TD.AperFunction*
G04 #@! TA.AperFunction,SMDPad,CuDef*
G36*
G01*
X223700001Y-224920001D02*
X223700001Y-223920001D01*
G75*
G02*
X224200001Y-223420001I500000J0D01*
G01*
X225740001Y-223420001D01*
G75*
G02*
X226240001Y-223920001I0J-500000D01*
G01*
X226240001Y-224920001D01*
G75*
G02*
X225740001Y-225420001I-500000J0D01*
G01*
X224200001Y-225420001D01*
G75*
G02*
X223700001Y-224920001I0J500000D01*
G01*
G37*
G04 #@! TD.AperFunction*
G04 #@! TA.AperFunction,SMDPad,CuDef*
G36*
G01*
X223700001Y-227460001D02*
X223700001Y-226460001D01*
G75*
G02*
X224200001Y-225960001I500000J0D01*
G01*
X225740001Y-225960001D01*
G75*
G02*
X226240001Y-226460001I0J-500000D01*
G01*
X226240001Y-227460001D01*
G75*
G02*
X225740001Y-227960001I-500000J0D01*
G01*
X224200001Y-227960001D01*
G75*
G02*
X223700001Y-227460001I0J500000D01*
G01*
G37*
G04 #@! TD.AperFunction*
G04 #@! TA.AperFunction,SMDPad,CuDef*
G36*
G01*
X223700001Y-230000001D02*
X223700001Y-229000001D01*
G75*
G02*
X224200001Y-228500001I500000J0D01*
G01*
X225740001Y-228500001D01*
G75*
G02*
X226240001Y-229000001I0J-500000D01*
G01*
X226240001Y-230000001D01*
G75*
G02*
X225740001Y-230500001I-500000J0D01*
G01*
X224200001Y-230500001D01*
G75*
G02*
X223700001Y-230000001I0J500000D01*
G01*
G37*
G04 #@! TD.AperFunction*
G04 #@! TA.AperFunction,SMDPad,CuDef*
G36*
G01*
X223700001Y-232540001D02*
X223700001Y-231540001D01*
G75*
G02*
X224200001Y-231040001I500000J0D01*
G01*
X225740001Y-231040001D01*
G75*
G02*
X226240001Y-231540001I0J-500000D01*
G01*
X226240001Y-232540001D01*
G75*
G02*
X225740001Y-233040001I-500000J0D01*
G01*
X224200001Y-233040001D01*
G75*
G02*
X223700001Y-232540001I0J500000D01*
G01*
G37*
G04 #@! TD.AperFunction*
G04 #@! TA.AperFunction,SMDPad,CuDef*
G36*
G01*
X223700001Y-235080001D02*
X223700001Y-234080001D01*
G75*
G02*
X224200001Y-233580001I500000J0D01*
G01*
X225740001Y-233580001D01*
G75*
G02*
X226240001Y-234080001I0J-500000D01*
G01*
X226240001Y-235080001D01*
G75*
G02*
X225740001Y-235580001I-500000J0D01*
G01*
X224200001Y-235580001D01*
G75*
G02*
X223700001Y-235080001I0J500000D01*
G01*
G37*
G04 #@! TD.AperFunction*
G04 #@! TA.AperFunction,SMDPad,CuDef*
G36*
G01*
X223700001Y-237620001D02*
X223700001Y-236620001D01*
G75*
G02*
X224200001Y-236120001I500000J0D01*
G01*
X225740001Y-236120001D01*
G75*
G02*
X226240001Y-236620001I0J-500000D01*
G01*
X226240001Y-237620001D01*
G75*
G02*
X225740001Y-238120001I-500000J0D01*
G01*
X224200001Y-238120001D01*
G75*
G02*
X223700001Y-237620001I0J500000D01*
G01*
G37*
G04 #@! TD.AperFunction*
G04 #@! TA.AperFunction,SMDPad,CuDef*
G36*
G01*
X223700001Y-245240001D02*
X223700001Y-244240001D01*
G75*
G02*
X224200001Y-243740001I500000J0D01*
G01*
X225740001Y-243740001D01*
G75*
G02*
X226240001Y-244240001I0J-500000D01*
G01*
X226240001Y-245240001D01*
G75*
G02*
X225740001Y-245740001I-500000J0D01*
G01*
X224200001Y-245740001D01*
G75*
G02*
X223700001Y-245240001I0J500000D01*
G01*
G37*
G04 #@! TD.AperFunction*
G04 #@! TA.AperFunction,SMDPad,CuDef*
G36*
G01*
X223700001Y-247780001D02*
X223700001Y-246780001D01*
G75*
G02*
X224200001Y-246280001I500000J0D01*
G01*
X225740001Y-246280001D01*
G75*
G02*
X226240001Y-246780001I0J-500000D01*
G01*
X226240001Y-247780001D01*
G75*
G02*
X225740001Y-248280001I-500000J0D01*
G01*
X224200001Y-248280001D01*
G75*
G02*
X223700001Y-247780001I0J500000D01*
G01*
G37*
G04 #@! TD.AperFunction*
G04 #@! TA.AperFunction,SMDPad,CuDef*
G36*
G01*
X183700001Y-195385001D02*
X183700001Y-194115001D01*
G75*
G02*
X184335001Y-193480001I635000J0D01*
G01*
X185605001Y-193480001D01*
G75*
G02*
X186240001Y-194115001I0J-635000D01*
G01*
X186240001Y-195385001D01*
G75*
G02*
X185605001Y-196020001I-635000J0D01*
G01*
X184335001Y-196020001D01*
G75*
G02*
X183700001Y-195385001I0J635000D01*
G01*
G37*
G04 #@! TD.AperFunction*
G04 #@! TA.AperFunction,SMDPad,CuDef*
G36*
G01*
X223700001Y-195385001D02*
X223700001Y-194115001D01*
G75*
G02*
X224335001Y-193480001I635000J0D01*
G01*
X225605001Y-193480001D01*
G75*
G02*
X226240001Y-194115001I0J-635000D01*
G01*
X226240001Y-195385001D01*
G75*
G02*
X225605001Y-196020001I-635000J0D01*
G01*
X224335001Y-196020001D01*
G75*
G02*
X223700001Y-195385001I0J635000D01*
G01*
G37*
G04 #@! TD.AperFunction*
G04 #@! TA.AperFunction,SMDPad,CuDef*
G36*
G01*
X183700001Y-252185001D02*
X183700001Y-250915001D01*
G75*
G02*
X184335001Y-250280001I635000J0D01*
G01*
X185605001Y-250280001D01*
G75*
G02*
X186240001Y-250915001I0J-635000D01*
G01*
X186240001Y-252185001D01*
G75*
G02*
X185605001Y-252820001I-635000J0D01*
G01*
X184335001Y-252820001D01*
G75*
G02*
X183700001Y-252185001I0J635000D01*
G01*
G37*
G04 #@! TD.AperFunction*
G04 #@! TA.AperFunction,SMDPad,CuDef*
G36*
G01*
X223700001Y-252185001D02*
X223700001Y-250915001D01*
G75*
G02*
X224335001Y-250280001I635000J0D01*
G01*
X225605001Y-250280001D01*
G75*
G02*
X226240001Y-250915001I0J-635000D01*
G01*
X226240001Y-252185001D01*
G75*
G02*
X225605001Y-252820001I-635000J0D01*
G01*
X224335001Y-252820001D01*
G75*
G02*
X223700001Y-252185001I0J635000D01*
G01*
G37*
G04 #@! TD.AperFunction*
D10*
X125030000Y-301450000D03*
G04 #@! TA.AperFunction,SMDPad,CuDef*
G36*
G01*
X245730000Y-261840000D02*
X245730000Y-260840000D01*
G75*
G02*
X246230000Y-260340000I500000J0D01*
G01*
X247770000Y-260340000D01*
G75*
G02*
X248270000Y-260840000I0J-500000D01*
G01*
X248270000Y-261840000D01*
G75*
G02*
X247770000Y-262340000I-500000J0D01*
G01*
X246230000Y-262340000D01*
G75*
G02*
X245730000Y-261840000I0J500000D01*
G01*
G37*
G04 #@! TD.AperFunction*
G04 #@! TA.AperFunction,SMDPad,CuDef*
G36*
G01*
X245730000Y-269460000D02*
X245730000Y-268460000D01*
G75*
G02*
X246230000Y-267960000I500000J0D01*
G01*
X247770000Y-267960000D01*
G75*
G02*
X248270000Y-268460000I0J-500000D01*
G01*
X248270000Y-269460000D01*
G75*
G02*
X247770000Y-269960000I-500000J0D01*
G01*
X246230000Y-269960000D01*
G75*
G02*
X245730000Y-269460000I0J500000D01*
G01*
G37*
G04 #@! TD.AperFunction*
G04 #@! TA.AperFunction,SMDPad,CuDef*
G36*
G01*
X245730000Y-272000000D02*
X245730000Y-271000000D01*
G75*
G02*
X246230000Y-270500000I500000J0D01*
G01*
X247770000Y-270500000D01*
G75*
G02*
X248270000Y-271000000I0J-500000D01*
G01*
X248270000Y-272000000D01*
G75*
G02*
X247770000Y-272500000I-500000J0D01*
G01*
X246230000Y-272500000D01*
G75*
G02*
X245730000Y-272000000I0J500000D01*
G01*
G37*
G04 #@! TD.AperFunction*
G04 #@! TA.AperFunction,SMDPad,CuDef*
G36*
G01*
X255730000Y-261840000D02*
X255730000Y-260840000D01*
G75*
G02*
X256230000Y-260340000I500000J0D01*
G01*
X257770000Y-260340000D01*
G75*
G02*
X258270000Y-260840000I0J-500000D01*
G01*
X258270000Y-261840000D01*
G75*
G02*
X257770000Y-262340000I-500000J0D01*
G01*
X256230000Y-262340000D01*
G75*
G02*
X255730000Y-261840000I0J500000D01*
G01*
G37*
G04 #@! TD.AperFunction*
G04 #@! TA.AperFunction,SMDPad,CuDef*
G36*
G01*
X255730000Y-272000000D02*
X255730000Y-271000000D01*
G75*
G02*
X256230000Y-270500000I500000J0D01*
G01*
X257770000Y-270500000D01*
G75*
G02*
X258270000Y-271000000I0J-500000D01*
G01*
X258270000Y-272000000D01*
G75*
G02*
X257770000Y-272500000I-500000J0D01*
G01*
X256230000Y-272500000D01*
G75*
G02*
X255730000Y-272000000I0J500000D01*
G01*
G37*
G04 #@! TD.AperFunction*
G04 #@! TA.AperFunction,SMDPad,CuDef*
G36*
G01*
X245730000Y-257705000D02*
X245730000Y-256435000D01*
G75*
G02*
X246365000Y-255800000I635000J0D01*
G01*
X247635000Y-255800000D01*
G75*
G02*
X248270000Y-256435000I0J-635000D01*
G01*
X248270000Y-257705000D01*
G75*
G02*
X247635000Y-258340000I-635000J0D01*
G01*
X246365000Y-258340000D01*
G75*
G02*
X245730000Y-257705000I0J635000D01*
G01*
G37*
G04 #@! TD.AperFunction*
G04 #@! TA.AperFunction,SMDPad,CuDef*
G36*
G01*
X255730000Y-257705000D02*
X255730000Y-256435000D01*
G75*
G02*
X256365000Y-255800000I635000J0D01*
G01*
X257635000Y-255800000D01*
G75*
G02*
X258270000Y-256435000I0J-635000D01*
G01*
X258270000Y-257705000D01*
G75*
G02*
X257635000Y-258340000I-635000J0D01*
G01*
X256365000Y-258340000D01*
G75*
G02*
X255730000Y-257705000I0J635000D01*
G01*
G37*
G04 #@! TD.AperFunction*
G04 #@! TA.AperFunction,SMDPad,CuDef*
G36*
G01*
X245730000Y-276405000D02*
X245730000Y-275135000D01*
G75*
G02*
X246365000Y-274500000I635000J0D01*
G01*
X247635000Y-274500000D01*
G75*
G02*
X248270000Y-275135000I0J-635000D01*
G01*
X248270000Y-276405000D01*
G75*
G02*
X247635000Y-277040000I-635000J0D01*
G01*
X246365000Y-277040000D01*
G75*
G02*
X245730000Y-276405000I0J635000D01*
G01*
G37*
G04 #@! TD.AperFunction*
G04 #@! TA.AperFunction,SMDPad,CuDef*
G36*
G01*
X255730000Y-276405000D02*
X255730000Y-275135000D01*
G75*
G02*
X256365000Y-274500000I635000J0D01*
G01*
X257635000Y-274500000D01*
G75*
G02*
X258270000Y-275135000I0J-635000D01*
G01*
X258270000Y-276405000D01*
G75*
G02*
X257635000Y-277040000I-635000J0D01*
G01*
X256365000Y-277040000D01*
G75*
G02*
X255730000Y-276405000I0J635000D01*
G01*
G37*
G04 #@! TD.AperFunction*
G04 #@! TA.AperFunction,SMDPad,CuDef*
G36*
G01*
X244130000Y-233090000D02*
X244130000Y-232090000D01*
G75*
G02*
X244630000Y-231590000I500000J0D01*
G01*
X246170000Y-231590000D01*
G75*
G02*
X246670000Y-232090000I0J-500000D01*
G01*
X246670000Y-233090000D01*
G75*
G02*
X246170000Y-233590000I-500000J0D01*
G01*
X244630000Y-233590000D01*
G75*
G02*
X244130000Y-233090000I0J500000D01*
G01*
G37*
G04 #@! TD.AperFunction*
G04 #@! TA.AperFunction,SMDPad,CuDef*
G36*
G01*
X244130000Y-243250000D02*
X244130000Y-242250000D01*
G75*
G02*
X244630000Y-241750000I500000J0D01*
G01*
X246170000Y-241750000D01*
G75*
G02*
X246670000Y-242250000I0J-500000D01*
G01*
X246670000Y-243250000D01*
G75*
G02*
X246170000Y-243750000I-500000J0D01*
G01*
X244630000Y-243750000D01*
G75*
G02*
X244130000Y-243250000I0J500000D01*
G01*
G37*
G04 #@! TD.AperFunction*
G04 #@! TA.AperFunction,SMDPad,CuDef*
G36*
G01*
X259130000Y-233090000D02*
X259130000Y-232090000D01*
G75*
G02*
X259630000Y-231590000I500000J0D01*
G01*
X261170000Y-231590000D01*
G75*
G02*
X261670000Y-232090000I0J-500000D01*
G01*
X261670000Y-233090000D01*
G75*
G02*
X261170000Y-233590000I-500000J0D01*
G01*
X259630000Y-233590000D01*
G75*
G02*
X259130000Y-233090000I0J500000D01*
G01*
G37*
G04 #@! TD.AperFunction*
G04 #@! TA.AperFunction,SMDPad,CuDef*
G36*
G01*
X259130000Y-240710000D02*
X259130000Y-239710000D01*
G75*
G02*
X259630000Y-239210000I500000J0D01*
G01*
X261170000Y-239210000D01*
G75*
G02*
X261670000Y-239710000I0J-500000D01*
G01*
X261670000Y-240710000D01*
G75*
G02*
X261170000Y-241210000I-500000J0D01*
G01*
X259630000Y-241210000D01*
G75*
G02*
X259130000Y-240710000I0J500000D01*
G01*
G37*
G04 #@! TD.AperFunction*
G04 #@! TA.AperFunction,SMDPad,CuDef*
G36*
G01*
X259130000Y-243250000D02*
X259130000Y-242250000D01*
G75*
G02*
X259630000Y-241750000I500000J0D01*
G01*
X261170000Y-241750000D01*
G75*
G02*
X261670000Y-242250000I0J-500000D01*
G01*
X261670000Y-243250000D01*
G75*
G02*
X261170000Y-243750000I-500000J0D01*
G01*
X259630000Y-243750000D01*
G75*
G02*
X259130000Y-243250000I0J500000D01*
G01*
G37*
G04 #@! TD.AperFunction*
G04 #@! TA.AperFunction,SMDPad,CuDef*
G36*
G01*
X244130000Y-228955000D02*
X244130000Y-227685000D01*
G75*
G02*
X244765000Y-227050000I635000J0D01*
G01*
X246035000Y-227050000D01*
G75*
G02*
X246670000Y-227685000I0J-635000D01*
G01*
X246670000Y-228955000D01*
G75*
G02*
X246035000Y-229590000I-635000J0D01*
G01*
X244765000Y-229590000D01*
G75*
G02*
X244130000Y-228955000I0J635000D01*
G01*
G37*
G04 #@! TD.AperFunction*
G04 #@! TA.AperFunction,SMDPad,CuDef*
G36*
G01*
X259130000Y-228955000D02*
X259130000Y-227685000D01*
G75*
G02*
X259765000Y-227050000I635000J0D01*
G01*
X261035000Y-227050000D01*
G75*
G02*
X261670000Y-227685000I0J-635000D01*
G01*
X261670000Y-228955000D01*
G75*
G02*
X261035000Y-229590000I-635000J0D01*
G01*
X259765000Y-229590000D01*
G75*
G02*
X259130000Y-228955000I0J635000D01*
G01*
G37*
G04 #@! TD.AperFunction*
G04 #@! TA.AperFunction,SMDPad,CuDef*
G36*
G01*
X244130000Y-247655000D02*
X244130000Y-246385000D01*
G75*
G02*
X244765000Y-245750000I635000J0D01*
G01*
X246035000Y-245750000D01*
G75*
G02*
X246670000Y-246385000I0J-635000D01*
G01*
X246670000Y-247655000D01*
G75*
G02*
X246035000Y-248290000I-635000J0D01*
G01*
X244765000Y-248290000D01*
G75*
G02*
X244130000Y-247655000I0J635000D01*
G01*
G37*
G04 #@! TD.AperFunction*
G04 #@! TA.AperFunction,SMDPad,CuDef*
G36*
G01*
X259130000Y-247655000D02*
X259130000Y-246385000D01*
G75*
G02*
X259765000Y-245750000I635000J0D01*
G01*
X261035000Y-245750000D01*
G75*
G02*
X261670000Y-246385000I0J-635000D01*
G01*
X261670000Y-247655000D01*
G75*
G02*
X261035000Y-248290000I-635000J0D01*
G01*
X259765000Y-248290000D01*
G75*
G02*
X259130000Y-247655000I0J635000D01*
G01*
G37*
G04 #@! TD.AperFunction*
G04 #@! TA.AperFunction,SMDPad,CuDef*
G36*
G01*
X127500001Y-125770002D02*
X127500001Y-124770002D01*
G75*
G02*
X128000001Y-124270002I500000J0D01*
G01*
X129540001Y-124270002D01*
G75*
G02*
X130040001Y-124770002I0J-500000D01*
G01*
X130040001Y-125770002D01*
G75*
G02*
X129540001Y-126270002I-500000J0D01*
G01*
X128000001Y-126270002D01*
G75*
G02*
X127500001Y-125770002I0J500000D01*
G01*
G37*
G04 #@! TD.AperFunction*
G04 #@! TA.AperFunction,SMDPad,CuDef*
G36*
G01*
X127500001Y-130850002D02*
X127500001Y-129850002D01*
G75*
G02*
X128000001Y-129350002I500000J0D01*
G01*
X129540001Y-129350002D01*
G75*
G02*
X130040001Y-129850002I0J-500000D01*
G01*
X130040001Y-130850002D01*
G75*
G02*
X129540001Y-131350002I-500000J0D01*
G01*
X128000001Y-131350002D01*
G75*
G02*
X127500001Y-130850002I0J500000D01*
G01*
G37*
G04 #@! TD.AperFunction*
G04 #@! TA.AperFunction,SMDPad,CuDef*
G36*
G01*
X127500001Y-133390002D02*
X127500001Y-132390002D01*
G75*
G02*
X128000001Y-131890002I500000J0D01*
G01*
X129540001Y-131890002D01*
G75*
G02*
X130040001Y-132390002I0J-500000D01*
G01*
X130040001Y-133390002D01*
G75*
G02*
X129540001Y-133890002I-500000J0D01*
G01*
X128000001Y-133890002D01*
G75*
G02*
X127500001Y-133390002I0J500000D01*
G01*
G37*
G04 #@! TD.AperFunction*
G04 #@! TA.AperFunction,SMDPad,CuDef*
G36*
G01*
X127500001Y-135930002D02*
X127500001Y-134930002D01*
G75*
G02*
X128000001Y-134430002I500000J0D01*
G01*
X129540001Y-134430002D01*
G75*
G02*
X130040001Y-134930002I0J-500000D01*
G01*
X130040001Y-135930002D01*
G75*
G02*
X129540001Y-136430002I-500000J0D01*
G01*
X128000001Y-136430002D01*
G75*
G02*
X127500001Y-135930002I0J500000D01*
G01*
G37*
G04 #@! TD.AperFunction*
G04 #@! TA.AperFunction,SMDPad,CuDef*
G36*
G01*
X127500001Y-138470002D02*
X127500001Y-137470002D01*
G75*
G02*
X128000001Y-136970002I500000J0D01*
G01*
X129540001Y-136970002D01*
G75*
G02*
X130040001Y-137470002I0J-500000D01*
G01*
X130040001Y-138470002D01*
G75*
G02*
X129540001Y-138970002I-500000J0D01*
G01*
X128000001Y-138970002D01*
G75*
G02*
X127500001Y-138470002I0J500000D01*
G01*
G37*
G04 #@! TD.AperFunction*
G04 #@! TA.AperFunction,SMDPad,CuDef*
G36*
G01*
X127500001Y-141010002D02*
X127500001Y-140010002D01*
G75*
G02*
X128000001Y-139510002I500000J0D01*
G01*
X129540001Y-139510002D01*
G75*
G02*
X130040001Y-140010002I0J-500000D01*
G01*
X130040001Y-141010002D01*
G75*
G02*
X129540001Y-141510002I-500000J0D01*
G01*
X128000001Y-141510002D01*
G75*
G02*
X127500001Y-141010002I0J500000D01*
G01*
G37*
G04 #@! TD.AperFunction*
G04 #@! TA.AperFunction,SMDPad,CuDef*
G36*
G01*
X127500001Y-143550002D02*
X127500001Y-142550002D01*
G75*
G02*
X128000001Y-142050002I500000J0D01*
G01*
X129540001Y-142050002D01*
G75*
G02*
X130040001Y-142550002I0J-500000D01*
G01*
X130040001Y-143550002D01*
G75*
G02*
X129540001Y-144050002I-500000J0D01*
G01*
X128000001Y-144050002D01*
G75*
G02*
X127500001Y-143550002I0J500000D01*
G01*
G37*
G04 #@! TD.AperFunction*
G04 #@! TA.AperFunction,SMDPad,CuDef*
G36*
G01*
X127500001Y-146090002D02*
X127500001Y-145090002D01*
G75*
G02*
X128000001Y-144590002I500000J0D01*
G01*
X129540001Y-144590002D01*
G75*
G02*
X130040001Y-145090002I0J-500000D01*
G01*
X130040001Y-146090002D01*
G75*
G02*
X129540001Y-146590002I-500000J0D01*
G01*
X128000001Y-146590002D01*
G75*
G02*
X127500001Y-146090002I0J500000D01*
G01*
G37*
G04 #@! TD.AperFunction*
G04 #@! TA.AperFunction,SMDPad,CuDef*
G36*
G01*
X127500001Y-148630002D02*
X127500001Y-147630002D01*
G75*
G02*
X128000001Y-147130002I500000J0D01*
G01*
X129540001Y-147130002D01*
G75*
G02*
X130040001Y-147630002I0J-500000D01*
G01*
X130040001Y-148630002D01*
G75*
G02*
X129540001Y-149130002I-500000J0D01*
G01*
X128000001Y-149130002D01*
G75*
G02*
X127500001Y-148630002I0J500000D01*
G01*
G37*
G04 #@! TD.AperFunction*
G04 #@! TA.AperFunction,SMDPad,CuDef*
G36*
G01*
X127500001Y-151170002D02*
X127500001Y-150170002D01*
G75*
G02*
X128000001Y-149670002I500000J0D01*
G01*
X129540001Y-149670002D01*
G75*
G02*
X130040001Y-150170002I0J-500000D01*
G01*
X130040001Y-151170002D01*
G75*
G02*
X129540001Y-151670002I-500000J0D01*
G01*
X128000001Y-151670002D01*
G75*
G02*
X127500001Y-151170002I0J500000D01*
G01*
G37*
G04 #@! TD.AperFunction*
G04 #@! TA.AperFunction,SMDPad,CuDef*
G36*
G01*
X127500001Y-153710002D02*
X127500001Y-152710002D01*
G75*
G02*
X128000001Y-152210002I500000J0D01*
G01*
X129540001Y-152210002D01*
G75*
G02*
X130040001Y-152710002I0J-500000D01*
G01*
X130040001Y-153710002D01*
G75*
G02*
X129540001Y-154210002I-500000J0D01*
G01*
X128000001Y-154210002D01*
G75*
G02*
X127500001Y-153710002I0J500000D01*
G01*
G37*
G04 #@! TD.AperFunction*
G04 #@! TA.AperFunction,SMDPad,CuDef*
G36*
G01*
X127500001Y-156250002D02*
X127500001Y-155250002D01*
G75*
G02*
X128000001Y-154750002I500000J0D01*
G01*
X129540001Y-154750002D01*
G75*
G02*
X130040001Y-155250002I0J-500000D01*
G01*
X130040001Y-156250002D01*
G75*
G02*
X129540001Y-156750002I-500000J0D01*
G01*
X128000001Y-156750002D01*
G75*
G02*
X127500001Y-156250002I0J500000D01*
G01*
G37*
G04 #@! TD.AperFunction*
G04 #@! TA.AperFunction,SMDPad,CuDef*
G36*
G01*
X127500001Y-158790002D02*
X127500001Y-157790002D01*
G75*
G02*
X128000001Y-157290002I500000J0D01*
G01*
X129540001Y-157290002D01*
G75*
G02*
X130040001Y-157790002I0J-500000D01*
G01*
X130040001Y-158790002D01*
G75*
G02*
X129540001Y-159290002I-500000J0D01*
G01*
X128000001Y-159290002D01*
G75*
G02*
X127500001Y-158790002I0J500000D01*
G01*
G37*
G04 #@! TD.AperFunction*
G04 #@! TA.AperFunction,SMDPad,CuDef*
G36*
G01*
X127500001Y-161330002D02*
X127500001Y-160330002D01*
G75*
G02*
X128000001Y-159830002I500000J0D01*
G01*
X129540001Y-159830002D01*
G75*
G02*
X130040001Y-160330002I0J-500000D01*
G01*
X130040001Y-161330002D01*
G75*
G02*
X129540001Y-161830002I-500000J0D01*
G01*
X128000001Y-161830002D01*
G75*
G02*
X127500001Y-161330002I0J500000D01*
G01*
G37*
G04 #@! TD.AperFunction*
G04 #@! TA.AperFunction,SMDPad,CuDef*
G36*
G01*
X127500001Y-163870002D02*
X127500001Y-162870002D01*
G75*
G02*
X128000001Y-162370002I500000J0D01*
G01*
X129540001Y-162370002D01*
G75*
G02*
X130040001Y-162870002I0J-500000D01*
G01*
X130040001Y-163870002D01*
G75*
G02*
X129540001Y-164370002I-500000J0D01*
G01*
X128000001Y-164370002D01*
G75*
G02*
X127500001Y-163870002I0J500000D01*
G01*
G37*
G04 #@! TD.AperFunction*
G04 #@! TA.AperFunction,SMDPad,CuDef*
G36*
G01*
X127500001Y-166410002D02*
X127500001Y-165410002D01*
G75*
G02*
X128000001Y-164910002I500000J0D01*
G01*
X129540001Y-164910002D01*
G75*
G02*
X130040001Y-165410002I0J-500000D01*
G01*
X130040001Y-166410002D01*
G75*
G02*
X129540001Y-166910002I-500000J0D01*
G01*
X128000001Y-166910002D01*
G75*
G02*
X127500001Y-166410002I0J500000D01*
G01*
G37*
G04 #@! TD.AperFunction*
G04 #@! TA.AperFunction,SMDPad,CuDef*
G36*
G01*
X127500001Y-168950002D02*
X127500001Y-167950002D01*
G75*
G02*
X128000001Y-167450002I500000J0D01*
G01*
X129540001Y-167450002D01*
G75*
G02*
X130040001Y-167950002I0J-500000D01*
G01*
X130040001Y-168950002D01*
G75*
G02*
X129540001Y-169450002I-500000J0D01*
G01*
X128000001Y-169450002D01*
G75*
G02*
X127500001Y-168950002I0J500000D01*
G01*
G37*
G04 #@! TD.AperFunction*
G04 #@! TA.AperFunction,SMDPad,CuDef*
G36*
G01*
X127500001Y-171490002D02*
X127500001Y-170490002D01*
G75*
G02*
X128000001Y-169990002I500000J0D01*
G01*
X129540001Y-169990002D01*
G75*
G02*
X130040001Y-170490002I0J-500000D01*
G01*
X130040001Y-171490002D01*
G75*
G02*
X129540001Y-171990002I-500000J0D01*
G01*
X128000001Y-171990002D01*
G75*
G02*
X127500001Y-171490002I0J500000D01*
G01*
G37*
G04 #@! TD.AperFunction*
G04 #@! TA.AperFunction,SMDPad,CuDef*
G36*
G01*
X127500001Y-174030002D02*
X127500001Y-173030002D01*
G75*
G02*
X128000001Y-172530002I500000J0D01*
G01*
X129540001Y-172530002D01*
G75*
G02*
X130040001Y-173030002I0J-500000D01*
G01*
X130040001Y-174030002D01*
G75*
G02*
X129540001Y-174530002I-500000J0D01*
G01*
X128000001Y-174530002D01*
G75*
G02*
X127500001Y-174030002I0J500000D01*
G01*
G37*
G04 #@! TD.AperFunction*
G04 #@! TA.AperFunction,SMDPad,CuDef*
G36*
G01*
X127500001Y-176570002D02*
X127500001Y-175570002D01*
G75*
G02*
X128000001Y-175070002I500000J0D01*
G01*
X129540001Y-175070002D01*
G75*
G02*
X130040001Y-175570002I0J-500000D01*
G01*
X130040001Y-176570002D01*
G75*
G02*
X129540001Y-177070002I-500000J0D01*
G01*
X128000001Y-177070002D01*
G75*
G02*
X127500001Y-176570002I0J500000D01*
G01*
G37*
G04 #@! TD.AperFunction*
G04 #@! TA.AperFunction,SMDPad,CuDef*
G36*
G01*
X127500001Y-179110002D02*
X127500001Y-178110002D01*
G75*
G02*
X128000001Y-177610002I500000J0D01*
G01*
X129540001Y-177610002D01*
G75*
G02*
X130040001Y-178110002I0J-500000D01*
G01*
X130040001Y-179110002D01*
G75*
G02*
X129540001Y-179610002I-500000J0D01*
G01*
X128000001Y-179610002D01*
G75*
G02*
X127500001Y-179110002I0J500000D01*
G01*
G37*
G04 #@! TD.AperFunction*
G04 #@! TA.AperFunction,SMDPad,CuDef*
G36*
G01*
X127500001Y-181650002D02*
X127500001Y-180650002D01*
G75*
G02*
X128000001Y-180150002I500000J0D01*
G01*
X129540001Y-180150002D01*
G75*
G02*
X130040001Y-180650002I0J-500000D01*
G01*
X130040001Y-181650002D01*
G75*
G02*
X129540001Y-182150002I-500000J0D01*
G01*
X128000001Y-182150002D01*
G75*
G02*
X127500001Y-181650002I0J500000D01*
G01*
G37*
G04 #@! TD.AperFunction*
G04 #@! TA.AperFunction,SMDPad,CuDef*
G36*
G01*
X127500001Y-184190002D02*
X127500001Y-183190002D01*
G75*
G02*
X128000001Y-182690002I500000J0D01*
G01*
X129540001Y-182690002D01*
G75*
G02*
X130040001Y-183190002I0J-500000D01*
G01*
X130040001Y-184190002D01*
G75*
G02*
X129540001Y-184690002I-500000J0D01*
G01*
X128000001Y-184690002D01*
G75*
G02*
X127500001Y-184190002I0J500000D01*
G01*
G37*
G04 #@! TD.AperFunction*
G04 #@! TA.AperFunction,SMDPad,CuDef*
G36*
G01*
X127500001Y-186730002D02*
X127500001Y-185730002D01*
G75*
G02*
X128000001Y-185230002I500000J0D01*
G01*
X129540001Y-185230002D01*
G75*
G02*
X130040001Y-185730002I0J-500000D01*
G01*
X130040001Y-186730002D01*
G75*
G02*
X129540001Y-187230002I-500000J0D01*
G01*
X128000001Y-187230002D01*
G75*
G02*
X127500001Y-186730002I0J500000D01*
G01*
G37*
G04 #@! TD.AperFunction*
G04 #@! TA.AperFunction,SMDPad,CuDef*
G36*
G01*
X127500001Y-189270002D02*
X127500001Y-188270002D01*
G75*
G02*
X128000001Y-187770002I500000J0D01*
G01*
X129540001Y-187770002D01*
G75*
G02*
X130040001Y-188270002I0J-500000D01*
G01*
X130040001Y-189270002D01*
G75*
G02*
X129540001Y-189770002I-500000J0D01*
G01*
X128000001Y-189770002D01*
G75*
G02*
X127500001Y-189270002I0J500000D01*
G01*
G37*
G04 #@! TD.AperFunction*
G04 #@! TA.AperFunction,SMDPad,CuDef*
G36*
G01*
X127500001Y-191810002D02*
X127500001Y-190810002D01*
G75*
G02*
X128000001Y-190310002I500000J0D01*
G01*
X129540001Y-190310002D01*
G75*
G02*
X130040001Y-190810002I0J-500000D01*
G01*
X130040001Y-191810002D01*
G75*
G02*
X129540001Y-192310002I-500000J0D01*
G01*
X128000001Y-192310002D01*
G75*
G02*
X127500001Y-191810002I0J500000D01*
G01*
G37*
G04 #@! TD.AperFunction*
G04 #@! TA.AperFunction,SMDPad,CuDef*
G36*
G01*
X127500001Y-194350002D02*
X127500001Y-193350002D01*
G75*
G02*
X128000001Y-192850002I500000J0D01*
G01*
X129540001Y-192850002D01*
G75*
G02*
X130040001Y-193350002I0J-500000D01*
G01*
X130040001Y-194350002D01*
G75*
G02*
X129540001Y-194850002I-500000J0D01*
G01*
X128000001Y-194850002D01*
G75*
G02*
X127500001Y-194350002I0J500000D01*
G01*
G37*
G04 #@! TD.AperFunction*
G04 #@! TA.AperFunction,SMDPad,CuDef*
G36*
G01*
X127500001Y-196890002D02*
X127500001Y-195890002D01*
G75*
G02*
X128000001Y-195390002I500000J0D01*
G01*
X129540001Y-195390002D01*
G75*
G02*
X130040001Y-195890002I0J-500000D01*
G01*
X130040001Y-196890002D01*
G75*
G02*
X129540001Y-197390002I-500000J0D01*
G01*
X128000001Y-197390002D01*
G75*
G02*
X127500001Y-196890002I0J500000D01*
G01*
G37*
G04 #@! TD.AperFunction*
G04 #@! TA.AperFunction,SMDPad,CuDef*
G36*
G01*
X127500001Y-199430002D02*
X127500001Y-198430002D01*
G75*
G02*
X128000001Y-197930002I500000J0D01*
G01*
X129540001Y-197930002D01*
G75*
G02*
X130040001Y-198430002I0J-500000D01*
G01*
X130040001Y-199430002D01*
G75*
G02*
X129540001Y-199930002I-500000J0D01*
G01*
X128000001Y-199930002D01*
G75*
G02*
X127500001Y-199430002I0J500000D01*
G01*
G37*
G04 #@! TD.AperFunction*
G04 #@! TA.AperFunction,SMDPad,CuDef*
G36*
G01*
X127500001Y-201970002D02*
X127500001Y-200970002D01*
G75*
G02*
X128000001Y-200470002I500000J0D01*
G01*
X129540001Y-200470002D01*
G75*
G02*
X130040001Y-200970002I0J-500000D01*
G01*
X130040001Y-201970002D01*
G75*
G02*
X129540001Y-202470002I-500000J0D01*
G01*
X128000001Y-202470002D01*
G75*
G02*
X127500001Y-201970002I0J500000D01*
G01*
G37*
G04 #@! TD.AperFunction*
G04 #@! TA.AperFunction,SMDPad,CuDef*
G36*
G01*
X127500001Y-204510002D02*
X127500001Y-203510002D01*
G75*
G02*
X128000001Y-203010002I500000J0D01*
G01*
X129540001Y-203010002D01*
G75*
G02*
X130040001Y-203510002I0J-500000D01*
G01*
X130040001Y-204510002D01*
G75*
G02*
X129540001Y-205010002I-500000J0D01*
G01*
X128000001Y-205010002D01*
G75*
G02*
X127500001Y-204510002I0J500000D01*
G01*
G37*
G04 #@! TD.AperFunction*
G04 #@! TA.AperFunction,SMDPad,CuDef*
G36*
G01*
X127500001Y-207050002D02*
X127500001Y-206050002D01*
G75*
G02*
X128000001Y-205550002I500000J0D01*
G01*
X129540001Y-205550002D01*
G75*
G02*
X130040001Y-206050002I0J-500000D01*
G01*
X130040001Y-207050002D01*
G75*
G02*
X129540001Y-207550002I-500000J0D01*
G01*
X128000001Y-207550002D01*
G75*
G02*
X127500001Y-207050002I0J500000D01*
G01*
G37*
G04 #@! TD.AperFunction*
G04 #@! TA.AperFunction,SMDPad,CuDef*
G36*
G01*
X127500001Y-209590002D02*
X127500001Y-208590002D01*
G75*
G02*
X128000001Y-208090002I500000J0D01*
G01*
X129540001Y-208090002D01*
G75*
G02*
X130040001Y-208590002I0J-500000D01*
G01*
X130040001Y-209590002D01*
G75*
G02*
X129540001Y-210090002I-500000J0D01*
G01*
X128000001Y-210090002D01*
G75*
G02*
X127500001Y-209590002I0J500000D01*
G01*
G37*
G04 #@! TD.AperFunction*
G04 #@! TA.AperFunction,SMDPad,CuDef*
G36*
G01*
X127500001Y-212130002D02*
X127500001Y-211130002D01*
G75*
G02*
X128000001Y-210630002I500000J0D01*
G01*
X129540001Y-210630002D01*
G75*
G02*
X130040001Y-211130002I0J-500000D01*
G01*
X130040001Y-212130002D01*
G75*
G02*
X129540001Y-212630002I-500000J0D01*
G01*
X128000001Y-212630002D01*
G75*
G02*
X127500001Y-212130002I0J500000D01*
G01*
G37*
G04 #@! TD.AperFunction*
G04 #@! TA.AperFunction,SMDPad,CuDef*
G36*
G01*
X127500001Y-214670002D02*
X127500001Y-213670002D01*
G75*
G02*
X128000001Y-213170002I500000J0D01*
G01*
X129540001Y-213170002D01*
G75*
G02*
X130040001Y-213670002I0J-500000D01*
G01*
X130040001Y-214670002D01*
G75*
G02*
X129540001Y-215170002I-500000J0D01*
G01*
X128000001Y-215170002D01*
G75*
G02*
X127500001Y-214670002I0J500000D01*
G01*
G37*
G04 #@! TD.AperFunction*
G04 #@! TA.AperFunction,SMDPad,CuDef*
G36*
G01*
X127500001Y-217210002D02*
X127500001Y-216210002D01*
G75*
G02*
X128000001Y-215710002I500000J0D01*
G01*
X129540001Y-215710002D01*
G75*
G02*
X130040001Y-216210002I0J-500000D01*
G01*
X130040001Y-217210002D01*
G75*
G02*
X129540001Y-217710002I-500000J0D01*
G01*
X128000001Y-217710002D01*
G75*
G02*
X127500001Y-217210002I0J500000D01*
G01*
G37*
G04 #@! TD.AperFunction*
G04 #@! TA.AperFunction,SMDPad,CuDef*
G36*
G01*
X127500001Y-219750002D02*
X127500001Y-218750002D01*
G75*
G02*
X128000001Y-218250002I500000J0D01*
G01*
X129540001Y-218250002D01*
G75*
G02*
X130040001Y-218750002I0J-500000D01*
G01*
X130040001Y-219750002D01*
G75*
G02*
X129540001Y-220250002I-500000J0D01*
G01*
X128000001Y-220250002D01*
G75*
G02*
X127500001Y-219750002I0J500000D01*
G01*
G37*
G04 #@! TD.AperFunction*
G04 #@! TA.AperFunction,SMDPad,CuDef*
G36*
G01*
X127500001Y-222290002D02*
X127500001Y-221290002D01*
G75*
G02*
X128000001Y-220790002I500000J0D01*
G01*
X129540001Y-220790002D01*
G75*
G02*
X130040001Y-221290002I0J-500000D01*
G01*
X130040001Y-222290002D01*
G75*
G02*
X129540001Y-222790002I-500000J0D01*
G01*
X128000001Y-222790002D01*
G75*
G02*
X127500001Y-222290002I0J500000D01*
G01*
G37*
G04 #@! TD.AperFunction*
G04 #@! TA.AperFunction,SMDPad,CuDef*
G36*
G01*
X127500001Y-224830002D02*
X127500001Y-223830002D01*
G75*
G02*
X128000001Y-223330002I500000J0D01*
G01*
X129540001Y-223330002D01*
G75*
G02*
X130040001Y-223830002I0J-500000D01*
G01*
X130040001Y-224830002D01*
G75*
G02*
X129540001Y-225330002I-500000J0D01*
G01*
X128000001Y-225330002D01*
G75*
G02*
X127500001Y-224830002I0J500000D01*
G01*
G37*
G04 #@! TD.AperFunction*
G04 #@! TA.AperFunction,SMDPad,CuDef*
G36*
G01*
X127500001Y-227370002D02*
X127500001Y-226370002D01*
G75*
G02*
X128000001Y-225870002I500000J0D01*
G01*
X129540001Y-225870002D01*
G75*
G02*
X130040001Y-226370002I0J-500000D01*
G01*
X130040001Y-227370002D01*
G75*
G02*
X129540001Y-227870002I-500000J0D01*
G01*
X128000001Y-227870002D01*
G75*
G02*
X127500001Y-227370002I0J500000D01*
G01*
G37*
G04 #@! TD.AperFunction*
G04 #@! TA.AperFunction,SMDPad,CuDef*
G36*
G01*
X127500001Y-229910002D02*
X127500001Y-228910002D01*
G75*
G02*
X128000001Y-228410002I500000J0D01*
G01*
X129540001Y-228410002D01*
G75*
G02*
X130040001Y-228910002I0J-500000D01*
G01*
X130040001Y-229910002D01*
G75*
G02*
X129540001Y-230410002I-500000J0D01*
G01*
X128000001Y-230410002D01*
G75*
G02*
X127500001Y-229910002I0J500000D01*
G01*
G37*
G04 #@! TD.AperFunction*
G04 #@! TA.AperFunction,SMDPad,CuDef*
G36*
G01*
X127500001Y-232450002D02*
X127500001Y-231450002D01*
G75*
G02*
X128000001Y-230950002I500000J0D01*
G01*
X129540001Y-230950002D01*
G75*
G02*
X130040001Y-231450002I0J-500000D01*
G01*
X130040001Y-232450002D01*
G75*
G02*
X129540001Y-232950002I-500000J0D01*
G01*
X128000001Y-232950002D01*
G75*
G02*
X127500001Y-232450002I0J500000D01*
G01*
G37*
G04 #@! TD.AperFunction*
G04 #@! TA.AperFunction,SMDPad,CuDef*
G36*
G01*
X127500001Y-234990002D02*
X127500001Y-233990002D01*
G75*
G02*
X128000001Y-233490002I500000J0D01*
G01*
X129540001Y-233490002D01*
G75*
G02*
X130040001Y-233990002I0J-500000D01*
G01*
X130040001Y-234990002D01*
G75*
G02*
X129540001Y-235490002I-500000J0D01*
G01*
X128000001Y-235490002D01*
G75*
G02*
X127500001Y-234990002I0J500000D01*
G01*
G37*
G04 #@! TD.AperFunction*
G04 #@! TA.AperFunction,SMDPad,CuDef*
G36*
G01*
X127500001Y-237530002D02*
X127500001Y-236530002D01*
G75*
G02*
X128000001Y-236030002I500000J0D01*
G01*
X129540001Y-236030002D01*
G75*
G02*
X130040001Y-236530002I0J-500000D01*
G01*
X130040001Y-237530002D01*
G75*
G02*
X129540001Y-238030002I-500000J0D01*
G01*
X128000001Y-238030002D01*
G75*
G02*
X127500001Y-237530002I0J500000D01*
G01*
G37*
G04 #@! TD.AperFunction*
G04 #@! TA.AperFunction,SMDPad,CuDef*
G36*
G01*
X127500001Y-240070002D02*
X127500001Y-239070002D01*
G75*
G02*
X128000001Y-238570002I500000J0D01*
G01*
X129540001Y-238570002D01*
G75*
G02*
X130040001Y-239070002I0J-500000D01*
G01*
X130040001Y-240070002D01*
G75*
G02*
X129540001Y-240570002I-500000J0D01*
G01*
X128000001Y-240570002D01*
G75*
G02*
X127500001Y-240070002I0J500000D01*
G01*
G37*
G04 #@! TD.AperFunction*
G04 #@! TA.AperFunction,SMDPad,CuDef*
G36*
G01*
X127500001Y-242610002D02*
X127500001Y-241610002D01*
G75*
G02*
X128000001Y-241110002I500000J0D01*
G01*
X129540001Y-241110002D01*
G75*
G02*
X130040001Y-241610002I0J-500000D01*
G01*
X130040001Y-242610002D01*
G75*
G02*
X129540001Y-243110002I-500000J0D01*
G01*
X128000001Y-243110002D01*
G75*
G02*
X127500001Y-242610002I0J500000D01*
G01*
G37*
G04 #@! TD.AperFunction*
G04 #@! TA.AperFunction,SMDPad,CuDef*
G36*
G01*
X127500001Y-245150002D02*
X127500001Y-244150002D01*
G75*
G02*
X128000001Y-243650002I500000J0D01*
G01*
X129540001Y-243650002D01*
G75*
G02*
X130040001Y-244150002I0J-500000D01*
G01*
X130040001Y-245150002D01*
G75*
G02*
X129540001Y-245650002I-500000J0D01*
G01*
X128000001Y-245650002D01*
G75*
G02*
X127500001Y-245150002I0J500000D01*
G01*
G37*
G04 #@! TD.AperFunction*
G04 #@! TA.AperFunction,SMDPad,CuDef*
G36*
G01*
X127500001Y-247690002D02*
X127500001Y-246690002D01*
G75*
G02*
X128000001Y-246190002I500000J0D01*
G01*
X129540001Y-246190002D01*
G75*
G02*
X130040001Y-246690002I0J-500000D01*
G01*
X130040001Y-247690002D01*
G75*
G02*
X129540001Y-248190002I-500000J0D01*
G01*
X128000001Y-248190002D01*
G75*
G02*
X127500001Y-247690002I0J500000D01*
G01*
G37*
G04 #@! TD.AperFunction*
G04 #@! TA.AperFunction,SMDPad,CuDef*
G36*
G01*
X127500001Y-250230002D02*
X127500001Y-249230002D01*
G75*
G02*
X128000001Y-248730002I500000J0D01*
G01*
X129540001Y-248730002D01*
G75*
G02*
X130040001Y-249230002I0J-500000D01*
G01*
X130040001Y-250230002D01*
G75*
G02*
X129540001Y-250730002I-500000J0D01*
G01*
X128000001Y-250730002D01*
G75*
G02*
X127500001Y-250230002I0J500000D01*
G01*
G37*
G04 #@! TD.AperFunction*
G04 #@! TA.AperFunction,SMDPad,CuDef*
G36*
G01*
X127500001Y-252770002D02*
X127500001Y-251770002D01*
G75*
G02*
X128000001Y-251270002I500000J0D01*
G01*
X129540001Y-251270002D01*
G75*
G02*
X130040001Y-251770002I0J-500000D01*
G01*
X130040001Y-252770002D01*
G75*
G02*
X129540001Y-253270002I-500000J0D01*
G01*
X128000001Y-253270002D01*
G75*
G02*
X127500001Y-252770002I0J500000D01*
G01*
G37*
G04 #@! TD.AperFunction*
G04 #@! TA.AperFunction,SMDPad,CuDef*
G36*
G01*
X127500001Y-255310002D02*
X127500001Y-254310002D01*
G75*
G02*
X128000001Y-253810002I500000J0D01*
G01*
X129540001Y-253810002D01*
G75*
G02*
X130040001Y-254310002I0J-500000D01*
G01*
X130040001Y-255310002D01*
G75*
G02*
X129540001Y-255810002I-500000J0D01*
G01*
X128000001Y-255810002D01*
G75*
G02*
X127500001Y-255310002I0J500000D01*
G01*
G37*
G04 #@! TD.AperFunction*
G04 #@! TA.AperFunction,SMDPad,CuDef*
G36*
G01*
X169500001Y-125770002D02*
X169500001Y-124770002D01*
G75*
G02*
X170000001Y-124270002I500000J0D01*
G01*
X171540001Y-124270002D01*
G75*
G02*
X172040001Y-124770002I0J-500000D01*
G01*
X172040001Y-125770002D01*
G75*
G02*
X171540001Y-126270002I-500000J0D01*
G01*
X170000001Y-126270002D01*
G75*
G02*
X169500001Y-125770002I0J500000D01*
G01*
G37*
G04 #@! TD.AperFunction*
G04 #@! TA.AperFunction,SMDPad,CuDef*
G36*
G01*
X169500001Y-128310002D02*
X169500001Y-127310002D01*
G75*
G02*
X170000001Y-126810002I500000J0D01*
G01*
X171540001Y-126810002D01*
G75*
G02*
X172040001Y-127310002I0J-500000D01*
G01*
X172040001Y-128310002D01*
G75*
G02*
X171540001Y-128810002I-500000J0D01*
G01*
X170000001Y-128810002D01*
G75*
G02*
X169500001Y-128310002I0J500000D01*
G01*
G37*
G04 #@! TD.AperFunction*
G04 #@! TA.AperFunction,SMDPad,CuDef*
G36*
G01*
X169500001Y-130850002D02*
X169500001Y-129850002D01*
G75*
G02*
X170000001Y-129350002I500000J0D01*
G01*
X171540001Y-129350002D01*
G75*
G02*
X172040001Y-129850002I0J-500000D01*
G01*
X172040001Y-130850002D01*
G75*
G02*
X171540001Y-131350002I-500000J0D01*
G01*
X170000001Y-131350002D01*
G75*
G02*
X169500001Y-130850002I0J500000D01*
G01*
G37*
G04 #@! TD.AperFunction*
G04 #@! TA.AperFunction,SMDPad,CuDef*
G36*
G01*
X169500001Y-133390002D02*
X169500001Y-132390002D01*
G75*
G02*
X170000001Y-131890002I500000J0D01*
G01*
X171540001Y-131890002D01*
G75*
G02*
X172040001Y-132390002I0J-500000D01*
G01*
X172040001Y-133390002D01*
G75*
G02*
X171540001Y-133890002I-500000J0D01*
G01*
X170000001Y-133890002D01*
G75*
G02*
X169500001Y-133390002I0J500000D01*
G01*
G37*
G04 #@! TD.AperFunction*
G04 #@! TA.AperFunction,SMDPad,CuDef*
G36*
G01*
X169500001Y-135930002D02*
X169500001Y-134930002D01*
G75*
G02*
X170000001Y-134430002I500000J0D01*
G01*
X171540001Y-134430002D01*
G75*
G02*
X172040001Y-134930002I0J-500000D01*
G01*
X172040001Y-135930002D01*
G75*
G02*
X171540001Y-136430002I-500000J0D01*
G01*
X170000001Y-136430002D01*
G75*
G02*
X169500001Y-135930002I0J500000D01*
G01*
G37*
G04 #@! TD.AperFunction*
G04 #@! TA.AperFunction,SMDPad,CuDef*
G36*
G01*
X169500001Y-138470002D02*
X169500001Y-137470002D01*
G75*
G02*
X170000001Y-136970002I500000J0D01*
G01*
X171540001Y-136970002D01*
G75*
G02*
X172040001Y-137470002I0J-500000D01*
G01*
X172040001Y-138470002D01*
G75*
G02*
X171540001Y-138970002I-500000J0D01*
G01*
X170000001Y-138970002D01*
G75*
G02*
X169500001Y-138470002I0J500000D01*
G01*
G37*
G04 #@! TD.AperFunction*
G04 #@! TA.AperFunction,SMDPad,CuDef*
G36*
G01*
X169500001Y-141010002D02*
X169500001Y-140010002D01*
G75*
G02*
X170000001Y-139510002I500000J0D01*
G01*
X171540001Y-139510002D01*
G75*
G02*
X172040001Y-140010002I0J-500000D01*
G01*
X172040001Y-141010002D01*
G75*
G02*
X171540001Y-141510002I-500000J0D01*
G01*
X170000001Y-141510002D01*
G75*
G02*
X169500001Y-141010002I0J500000D01*
G01*
G37*
G04 #@! TD.AperFunction*
G04 #@! TA.AperFunction,SMDPad,CuDef*
G36*
G01*
X169500001Y-143550002D02*
X169500001Y-142550002D01*
G75*
G02*
X170000001Y-142050002I500000J0D01*
G01*
X171540001Y-142050002D01*
G75*
G02*
X172040001Y-142550002I0J-500000D01*
G01*
X172040001Y-143550002D01*
G75*
G02*
X171540001Y-144050002I-500000J0D01*
G01*
X170000001Y-144050002D01*
G75*
G02*
X169500001Y-143550002I0J500000D01*
G01*
G37*
G04 #@! TD.AperFunction*
G04 #@! TA.AperFunction,SMDPad,CuDef*
G36*
G01*
X169500001Y-146090002D02*
X169500001Y-145090002D01*
G75*
G02*
X170000001Y-144590002I500000J0D01*
G01*
X171540001Y-144590002D01*
G75*
G02*
X172040001Y-145090002I0J-500000D01*
G01*
X172040001Y-146090002D01*
G75*
G02*
X171540001Y-146590002I-500000J0D01*
G01*
X170000001Y-146590002D01*
G75*
G02*
X169500001Y-146090002I0J500000D01*
G01*
G37*
G04 #@! TD.AperFunction*
G04 #@! TA.AperFunction,SMDPad,CuDef*
G36*
G01*
X169500001Y-148630002D02*
X169500001Y-147630002D01*
G75*
G02*
X170000001Y-147130002I500000J0D01*
G01*
X171540001Y-147130002D01*
G75*
G02*
X172040001Y-147630002I0J-500000D01*
G01*
X172040001Y-148630002D01*
G75*
G02*
X171540001Y-149130002I-500000J0D01*
G01*
X170000001Y-149130002D01*
G75*
G02*
X169500001Y-148630002I0J500000D01*
G01*
G37*
G04 #@! TD.AperFunction*
G04 #@! TA.AperFunction,SMDPad,CuDef*
G36*
G01*
X169500001Y-151170002D02*
X169500001Y-150170002D01*
G75*
G02*
X170000001Y-149670002I500000J0D01*
G01*
X171540001Y-149670002D01*
G75*
G02*
X172040001Y-150170002I0J-500000D01*
G01*
X172040001Y-151170002D01*
G75*
G02*
X171540001Y-151670002I-500000J0D01*
G01*
X170000001Y-151670002D01*
G75*
G02*
X169500001Y-151170002I0J500000D01*
G01*
G37*
G04 #@! TD.AperFunction*
G04 #@! TA.AperFunction,SMDPad,CuDef*
G36*
G01*
X169500001Y-153710002D02*
X169500001Y-152710002D01*
G75*
G02*
X170000001Y-152210002I500000J0D01*
G01*
X171540001Y-152210002D01*
G75*
G02*
X172040001Y-152710002I0J-500000D01*
G01*
X172040001Y-153710002D01*
G75*
G02*
X171540001Y-154210002I-500000J0D01*
G01*
X170000001Y-154210002D01*
G75*
G02*
X169500001Y-153710002I0J500000D01*
G01*
G37*
G04 #@! TD.AperFunction*
G04 #@! TA.AperFunction,SMDPad,CuDef*
G36*
G01*
X169500001Y-156250002D02*
X169500001Y-155250002D01*
G75*
G02*
X170000001Y-154750002I500000J0D01*
G01*
X171540001Y-154750002D01*
G75*
G02*
X172040001Y-155250002I0J-500000D01*
G01*
X172040001Y-156250002D01*
G75*
G02*
X171540001Y-156750002I-500000J0D01*
G01*
X170000001Y-156750002D01*
G75*
G02*
X169500001Y-156250002I0J500000D01*
G01*
G37*
G04 #@! TD.AperFunction*
G04 #@! TA.AperFunction,SMDPad,CuDef*
G36*
G01*
X169500001Y-158790002D02*
X169500001Y-157790002D01*
G75*
G02*
X170000001Y-157290002I500000J0D01*
G01*
X171540001Y-157290002D01*
G75*
G02*
X172040001Y-157790002I0J-500000D01*
G01*
X172040001Y-158790002D01*
G75*
G02*
X171540001Y-159290002I-500000J0D01*
G01*
X170000001Y-159290002D01*
G75*
G02*
X169500001Y-158790002I0J500000D01*
G01*
G37*
G04 #@! TD.AperFunction*
G04 #@! TA.AperFunction,SMDPad,CuDef*
G36*
G01*
X169500001Y-161330002D02*
X169500001Y-160330002D01*
G75*
G02*
X170000001Y-159830002I500000J0D01*
G01*
X171540001Y-159830002D01*
G75*
G02*
X172040001Y-160330002I0J-500000D01*
G01*
X172040001Y-161330002D01*
G75*
G02*
X171540001Y-161830002I-500000J0D01*
G01*
X170000001Y-161830002D01*
G75*
G02*
X169500001Y-161330002I0J500000D01*
G01*
G37*
G04 #@! TD.AperFunction*
G04 #@! TA.AperFunction,SMDPad,CuDef*
G36*
G01*
X169500001Y-163870002D02*
X169500001Y-162870002D01*
G75*
G02*
X170000001Y-162370002I500000J0D01*
G01*
X171540001Y-162370002D01*
G75*
G02*
X172040001Y-162870002I0J-500000D01*
G01*
X172040001Y-163870002D01*
G75*
G02*
X171540001Y-164370002I-500000J0D01*
G01*
X170000001Y-164370002D01*
G75*
G02*
X169500001Y-163870002I0J500000D01*
G01*
G37*
G04 #@! TD.AperFunction*
G04 #@! TA.AperFunction,SMDPad,CuDef*
G36*
G01*
X169500001Y-166410002D02*
X169500001Y-165410002D01*
G75*
G02*
X170000001Y-164910002I500000J0D01*
G01*
X171540001Y-164910002D01*
G75*
G02*
X172040001Y-165410002I0J-500000D01*
G01*
X172040001Y-166410002D01*
G75*
G02*
X171540001Y-166910002I-500000J0D01*
G01*
X170000001Y-166910002D01*
G75*
G02*
X169500001Y-166410002I0J500000D01*
G01*
G37*
G04 #@! TD.AperFunction*
G04 #@! TA.AperFunction,SMDPad,CuDef*
G36*
G01*
X169500001Y-168950002D02*
X169500001Y-167950002D01*
G75*
G02*
X170000001Y-167450002I500000J0D01*
G01*
X171540001Y-167450002D01*
G75*
G02*
X172040001Y-167950002I0J-500000D01*
G01*
X172040001Y-168950002D01*
G75*
G02*
X171540001Y-169450002I-500000J0D01*
G01*
X170000001Y-169450002D01*
G75*
G02*
X169500001Y-168950002I0J500000D01*
G01*
G37*
G04 #@! TD.AperFunction*
G04 #@! TA.AperFunction,SMDPad,CuDef*
G36*
G01*
X169500001Y-171490002D02*
X169500001Y-170490002D01*
G75*
G02*
X170000001Y-169990002I500000J0D01*
G01*
X171540001Y-169990002D01*
G75*
G02*
X172040001Y-170490002I0J-500000D01*
G01*
X172040001Y-171490002D01*
G75*
G02*
X171540001Y-171990002I-500000J0D01*
G01*
X170000001Y-171990002D01*
G75*
G02*
X169500001Y-171490002I0J500000D01*
G01*
G37*
G04 #@! TD.AperFunction*
G04 #@! TA.AperFunction,SMDPad,CuDef*
G36*
G01*
X169500001Y-174030002D02*
X169500001Y-173030002D01*
G75*
G02*
X170000001Y-172530002I500000J0D01*
G01*
X171540001Y-172530002D01*
G75*
G02*
X172040001Y-173030002I0J-500000D01*
G01*
X172040001Y-174030002D01*
G75*
G02*
X171540001Y-174530002I-500000J0D01*
G01*
X170000001Y-174530002D01*
G75*
G02*
X169500001Y-174030002I0J500000D01*
G01*
G37*
G04 #@! TD.AperFunction*
G04 #@! TA.AperFunction,SMDPad,CuDef*
G36*
G01*
X169500001Y-176570002D02*
X169500001Y-175570002D01*
G75*
G02*
X170000001Y-175070002I500000J0D01*
G01*
X171540001Y-175070002D01*
G75*
G02*
X172040001Y-175570002I0J-500000D01*
G01*
X172040001Y-176570002D01*
G75*
G02*
X171540001Y-177070002I-500000J0D01*
G01*
X170000001Y-177070002D01*
G75*
G02*
X169500001Y-176570002I0J500000D01*
G01*
G37*
G04 #@! TD.AperFunction*
G04 #@! TA.AperFunction,SMDPad,CuDef*
G36*
G01*
X169500001Y-179110002D02*
X169500001Y-178110002D01*
G75*
G02*
X170000001Y-177610002I500000J0D01*
G01*
X171540001Y-177610002D01*
G75*
G02*
X172040001Y-178110002I0J-500000D01*
G01*
X172040001Y-179110002D01*
G75*
G02*
X171540001Y-179610002I-500000J0D01*
G01*
X170000001Y-179610002D01*
G75*
G02*
X169500001Y-179110002I0J500000D01*
G01*
G37*
G04 #@! TD.AperFunction*
G04 #@! TA.AperFunction,SMDPad,CuDef*
G36*
G01*
X169500001Y-181650002D02*
X169500001Y-180650002D01*
G75*
G02*
X170000001Y-180150002I500000J0D01*
G01*
X171540001Y-180150002D01*
G75*
G02*
X172040001Y-180650002I0J-500000D01*
G01*
X172040001Y-181650002D01*
G75*
G02*
X171540001Y-182150002I-500000J0D01*
G01*
X170000001Y-182150002D01*
G75*
G02*
X169500001Y-181650002I0J500000D01*
G01*
G37*
G04 #@! TD.AperFunction*
G04 #@! TA.AperFunction,SMDPad,CuDef*
G36*
G01*
X169500001Y-184190002D02*
X169500001Y-183190002D01*
G75*
G02*
X170000001Y-182690002I500000J0D01*
G01*
X171540001Y-182690002D01*
G75*
G02*
X172040001Y-183190002I0J-500000D01*
G01*
X172040001Y-184190002D01*
G75*
G02*
X171540001Y-184690002I-500000J0D01*
G01*
X170000001Y-184690002D01*
G75*
G02*
X169500001Y-184190002I0J500000D01*
G01*
G37*
G04 #@! TD.AperFunction*
G04 #@! TA.AperFunction,SMDPad,CuDef*
G36*
G01*
X169500001Y-186730002D02*
X169500001Y-185730002D01*
G75*
G02*
X170000001Y-185230002I500000J0D01*
G01*
X171540001Y-185230002D01*
G75*
G02*
X172040001Y-185730002I0J-500000D01*
G01*
X172040001Y-186730002D01*
G75*
G02*
X171540001Y-187230002I-500000J0D01*
G01*
X170000001Y-187230002D01*
G75*
G02*
X169500001Y-186730002I0J500000D01*
G01*
G37*
G04 #@! TD.AperFunction*
G04 #@! TA.AperFunction,SMDPad,CuDef*
G36*
G01*
X169500001Y-189270002D02*
X169500001Y-188270002D01*
G75*
G02*
X170000001Y-187770002I500000J0D01*
G01*
X171540001Y-187770002D01*
G75*
G02*
X172040001Y-188270002I0J-500000D01*
G01*
X172040001Y-189270002D01*
G75*
G02*
X171540001Y-189770002I-500000J0D01*
G01*
X170000001Y-189770002D01*
G75*
G02*
X169500001Y-189270002I0J500000D01*
G01*
G37*
G04 #@! TD.AperFunction*
G04 #@! TA.AperFunction,SMDPad,CuDef*
G36*
G01*
X169500001Y-191810002D02*
X169500001Y-190810002D01*
G75*
G02*
X170000001Y-190310002I500000J0D01*
G01*
X171540001Y-190310002D01*
G75*
G02*
X172040001Y-190810002I0J-500000D01*
G01*
X172040001Y-191810002D01*
G75*
G02*
X171540001Y-192310002I-500000J0D01*
G01*
X170000001Y-192310002D01*
G75*
G02*
X169500001Y-191810002I0J500000D01*
G01*
G37*
G04 #@! TD.AperFunction*
G04 #@! TA.AperFunction,SMDPad,CuDef*
G36*
G01*
X169500001Y-194350002D02*
X169500001Y-193350002D01*
G75*
G02*
X170000001Y-192850002I500000J0D01*
G01*
X171540001Y-192850002D01*
G75*
G02*
X172040001Y-193350002I0J-500000D01*
G01*
X172040001Y-194350002D01*
G75*
G02*
X171540001Y-194850002I-500000J0D01*
G01*
X170000001Y-194850002D01*
G75*
G02*
X169500001Y-194350002I0J500000D01*
G01*
G37*
G04 #@! TD.AperFunction*
G04 #@! TA.AperFunction,SMDPad,CuDef*
G36*
G01*
X169500001Y-196890002D02*
X169500001Y-195890002D01*
G75*
G02*
X170000001Y-195390002I500000J0D01*
G01*
X171540001Y-195390002D01*
G75*
G02*
X172040001Y-195890002I0J-500000D01*
G01*
X172040001Y-196890002D01*
G75*
G02*
X171540001Y-197390002I-500000J0D01*
G01*
X170000001Y-197390002D01*
G75*
G02*
X169500001Y-196890002I0J500000D01*
G01*
G37*
G04 #@! TD.AperFunction*
G04 #@! TA.AperFunction,SMDPad,CuDef*
G36*
G01*
X169500001Y-199430002D02*
X169500001Y-198430002D01*
G75*
G02*
X170000001Y-197930002I500000J0D01*
G01*
X171540001Y-197930002D01*
G75*
G02*
X172040001Y-198430002I0J-500000D01*
G01*
X172040001Y-199430002D01*
G75*
G02*
X171540001Y-199930002I-500000J0D01*
G01*
X170000001Y-199930002D01*
G75*
G02*
X169500001Y-199430002I0J500000D01*
G01*
G37*
G04 #@! TD.AperFunction*
G04 #@! TA.AperFunction,SMDPad,CuDef*
G36*
G01*
X169500001Y-201970002D02*
X169500001Y-200970002D01*
G75*
G02*
X170000001Y-200470002I500000J0D01*
G01*
X171540001Y-200470002D01*
G75*
G02*
X172040001Y-200970002I0J-500000D01*
G01*
X172040001Y-201970002D01*
G75*
G02*
X171540001Y-202470002I-500000J0D01*
G01*
X170000001Y-202470002D01*
G75*
G02*
X169500001Y-201970002I0J500000D01*
G01*
G37*
G04 #@! TD.AperFunction*
G04 #@! TA.AperFunction,SMDPad,CuDef*
G36*
G01*
X169500001Y-204510002D02*
X169500001Y-203510002D01*
G75*
G02*
X170000001Y-203010002I500000J0D01*
G01*
X171540001Y-203010002D01*
G75*
G02*
X172040001Y-203510002I0J-500000D01*
G01*
X172040001Y-204510002D01*
G75*
G02*
X171540001Y-205010002I-500000J0D01*
G01*
X170000001Y-205010002D01*
G75*
G02*
X169500001Y-204510002I0J500000D01*
G01*
G37*
G04 #@! TD.AperFunction*
G04 #@! TA.AperFunction,SMDPad,CuDef*
G36*
G01*
X169500001Y-207050002D02*
X169500001Y-206050002D01*
G75*
G02*
X170000001Y-205550002I500000J0D01*
G01*
X171540001Y-205550002D01*
G75*
G02*
X172040001Y-206050002I0J-500000D01*
G01*
X172040001Y-207050002D01*
G75*
G02*
X171540001Y-207550002I-500000J0D01*
G01*
X170000001Y-207550002D01*
G75*
G02*
X169500001Y-207050002I0J500000D01*
G01*
G37*
G04 #@! TD.AperFunction*
G04 #@! TA.AperFunction,SMDPad,CuDef*
G36*
G01*
X169500001Y-209590002D02*
X169500001Y-208590002D01*
G75*
G02*
X170000001Y-208090002I500000J0D01*
G01*
X171540001Y-208090002D01*
G75*
G02*
X172040001Y-208590002I0J-500000D01*
G01*
X172040001Y-209590002D01*
G75*
G02*
X171540001Y-210090002I-500000J0D01*
G01*
X170000001Y-210090002D01*
G75*
G02*
X169500001Y-209590002I0J500000D01*
G01*
G37*
G04 #@! TD.AperFunction*
G04 #@! TA.AperFunction,SMDPad,CuDef*
G36*
G01*
X169500001Y-212130002D02*
X169500001Y-211130002D01*
G75*
G02*
X170000001Y-210630002I500000J0D01*
G01*
X171540001Y-210630002D01*
G75*
G02*
X172040001Y-211130002I0J-500000D01*
G01*
X172040001Y-212130002D01*
G75*
G02*
X171540001Y-212630002I-500000J0D01*
G01*
X170000001Y-212630002D01*
G75*
G02*
X169500001Y-212130002I0J500000D01*
G01*
G37*
G04 #@! TD.AperFunction*
G04 #@! TA.AperFunction,SMDPad,CuDef*
G36*
G01*
X169500001Y-214670002D02*
X169500001Y-213670002D01*
G75*
G02*
X170000001Y-213170002I500000J0D01*
G01*
X171540001Y-213170002D01*
G75*
G02*
X172040001Y-213670002I0J-500000D01*
G01*
X172040001Y-214670002D01*
G75*
G02*
X171540001Y-215170002I-500000J0D01*
G01*
X170000001Y-215170002D01*
G75*
G02*
X169500001Y-214670002I0J500000D01*
G01*
G37*
G04 #@! TD.AperFunction*
G04 #@! TA.AperFunction,SMDPad,CuDef*
G36*
G01*
X169500001Y-217210002D02*
X169500001Y-216210002D01*
G75*
G02*
X170000001Y-215710002I500000J0D01*
G01*
X171540001Y-215710002D01*
G75*
G02*
X172040001Y-216210002I0J-500000D01*
G01*
X172040001Y-217210002D01*
G75*
G02*
X171540001Y-217710002I-500000J0D01*
G01*
X170000001Y-217710002D01*
G75*
G02*
X169500001Y-217210002I0J500000D01*
G01*
G37*
G04 #@! TD.AperFunction*
G04 #@! TA.AperFunction,SMDPad,CuDef*
G36*
G01*
X169500001Y-219750002D02*
X169500001Y-218750002D01*
G75*
G02*
X170000001Y-218250002I500000J0D01*
G01*
X171540001Y-218250002D01*
G75*
G02*
X172040001Y-218750002I0J-500000D01*
G01*
X172040001Y-219750002D01*
G75*
G02*
X171540001Y-220250002I-500000J0D01*
G01*
X170000001Y-220250002D01*
G75*
G02*
X169500001Y-219750002I0J500000D01*
G01*
G37*
G04 #@! TD.AperFunction*
G04 #@! TA.AperFunction,SMDPad,CuDef*
G36*
G01*
X169500001Y-222290002D02*
X169500001Y-221290002D01*
G75*
G02*
X170000001Y-220790002I500000J0D01*
G01*
X171540001Y-220790002D01*
G75*
G02*
X172040001Y-221290002I0J-500000D01*
G01*
X172040001Y-222290002D01*
G75*
G02*
X171540001Y-222790002I-500000J0D01*
G01*
X170000001Y-222790002D01*
G75*
G02*
X169500001Y-222290002I0J500000D01*
G01*
G37*
G04 #@! TD.AperFunction*
G04 #@! TA.AperFunction,SMDPad,CuDef*
G36*
G01*
X169500001Y-224830002D02*
X169500001Y-223830002D01*
G75*
G02*
X170000001Y-223330002I500000J0D01*
G01*
X171540001Y-223330002D01*
G75*
G02*
X172040001Y-223830002I0J-500000D01*
G01*
X172040001Y-224830002D01*
G75*
G02*
X171540001Y-225330002I-500000J0D01*
G01*
X170000001Y-225330002D01*
G75*
G02*
X169500001Y-224830002I0J500000D01*
G01*
G37*
G04 #@! TD.AperFunction*
G04 #@! TA.AperFunction,SMDPad,CuDef*
G36*
G01*
X169500001Y-227370002D02*
X169500001Y-226370002D01*
G75*
G02*
X170000001Y-225870002I500000J0D01*
G01*
X171540001Y-225870002D01*
G75*
G02*
X172040001Y-226370002I0J-500000D01*
G01*
X172040001Y-227370002D01*
G75*
G02*
X171540001Y-227870002I-500000J0D01*
G01*
X170000001Y-227870002D01*
G75*
G02*
X169500001Y-227370002I0J500000D01*
G01*
G37*
G04 #@! TD.AperFunction*
G04 #@! TA.AperFunction,SMDPad,CuDef*
G36*
G01*
X169500001Y-229910002D02*
X169500001Y-228910002D01*
G75*
G02*
X170000001Y-228410002I500000J0D01*
G01*
X171540001Y-228410002D01*
G75*
G02*
X172040001Y-228910002I0J-500000D01*
G01*
X172040001Y-229910002D01*
G75*
G02*
X171540001Y-230410002I-500000J0D01*
G01*
X170000001Y-230410002D01*
G75*
G02*
X169500001Y-229910002I0J500000D01*
G01*
G37*
G04 #@! TD.AperFunction*
G04 #@! TA.AperFunction,SMDPad,CuDef*
G36*
G01*
X169500001Y-232450002D02*
X169500001Y-231450002D01*
G75*
G02*
X170000001Y-230950002I500000J0D01*
G01*
X171540001Y-230950002D01*
G75*
G02*
X172040001Y-231450002I0J-500000D01*
G01*
X172040001Y-232450002D01*
G75*
G02*
X171540001Y-232950002I-500000J0D01*
G01*
X170000001Y-232950002D01*
G75*
G02*
X169500001Y-232450002I0J500000D01*
G01*
G37*
G04 #@! TD.AperFunction*
G04 #@! TA.AperFunction,SMDPad,CuDef*
G36*
G01*
X169500001Y-234990002D02*
X169500001Y-233990002D01*
G75*
G02*
X170000001Y-233490002I500000J0D01*
G01*
X171540001Y-233490002D01*
G75*
G02*
X172040001Y-233990002I0J-500000D01*
G01*
X172040001Y-234990002D01*
G75*
G02*
X171540001Y-235490002I-500000J0D01*
G01*
X170000001Y-235490002D01*
G75*
G02*
X169500001Y-234990002I0J500000D01*
G01*
G37*
G04 #@! TD.AperFunction*
G04 #@! TA.AperFunction,SMDPad,CuDef*
G36*
G01*
X169500001Y-237530002D02*
X169500001Y-236530002D01*
G75*
G02*
X170000001Y-236030002I500000J0D01*
G01*
X171540001Y-236030002D01*
G75*
G02*
X172040001Y-236530002I0J-500000D01*
G01*
X172040001Y-237530002D01*
G75*
G02*
X171540001Y-238030002I-500000J0D01*
G01*
X170000001Y-238030002D01*
G75*
G02*
X169500001Y-237530002I0J500000D01*
G01*
G37*
G04 #@! TD.AperFunction*
G04 #@! TA.AperFunction,SMDPad,CuDef*
G36*
G01*
X169500001Y-240070002D02*
X169500001Y-239070002D01*
G75*
G02*
X170000001Y-238570002I500000J0D01*
G01*
X171540001Y-238570002D01*
G75*
G02*
X172040001Y-239070002I0J-500000D01*
G01*
X172040001Y-240070002D01*
G75*
G02*
X171540001Y-240570002I-500000J0D01*
G01*
X170000001Y-240570002D01*
G75*
G02*
X169500001Y-240070002I0J500000D01*
G01*
G37*
G04 #@! TD.AperFunction*
G04 #@! TA.AperFunction,SMDPad,CuDef*
G36*
G01*
X169500001Y-242610002D02*
X169500001Y-241610002D01*
G75*
G02*
X170000001Y-241110002I500000J0D01*
G01*
X171540001Y-241110002D01*
G75*
G02*
X172040001Y-241610002I0J-500000D01*
G01*
X172040001Y-242610002D01*
G75*
G02*
X171540001Y-243110002I-500000J0D01*
G01*
X170000001Y-243110002D01*
G75*
G02*
X169500001Y-242610002I0J500000D01*
G01*
G37*
G04 #@! TD.AperFunction*
G04 #@! TA.AperFunction,SMDPad,CuDef*
G36*
G01*
X169500001Y-245150002D02*
X169500001Y-244150002D01*
G75*
G02*
X170000001Y-243650002I500000J0D01*
G01*
X171540001Y-243650002D01*
G75*
G02*
X172040001Y-244150002I0J-500000D01*
G01*
X172040001Y-245150002D01*
G75*
G02*
X171540001Y-245650002I-500000J0D01*
G01*
X170000001Y-245650002D01*
G75*
G02*
X169500001Y-245150002I0J500000D01*
G01*
G37*
G04 #@! TD.AperFunction*
G04 #@! TA.AperFunction,SMDPad,CuDef*
G36*
G01*
X169500001Y-247690002D02*
X169500001Y-246690002D01*
G75*
G02*
X170000001Y-246190002I500000J0D01*
G01*
X171540001Y-246190002D01*
G75*
G02*
X172040001Y-246690002I0J-500000D01*
G01*
X172040001Y-247690002D01*
G75*
G02*
X171540001Y-248190002I-500000J0D01*
G01*
X170000001Y-248190002D01*
G75*
G02*
X169500001Y-247690002I0J500000D01*
G01*
G37*
G04 #@! TD.AperFunction*
G04 #@! TA.AperFunction,SMDPad,CuDef*
G36*
G01*
X169500001Y-250230002D02*
X169500001Y-249230002D01*
G75*
G02*
X170000001Y-248730002I500000J0D01*
G01*
X171540001Y-248730002D01*
G75*
G02*
X172040001Y-249230002I0J-500000D01*
G01*
X172040001Y-250230002D01*
G75*
G02*
X171540001Y-250730002I-500000J0D01*
G01*
X170000001Y-250730002D01*
G75*
G02*
X169500001Y-250230002I0J500000D01*
G01*
G37*
G04 #@! TD.AperFunction*
G04 #@! TA.AperFunction,SMDPad,CuDef*
G36*
G01*
X169500001Y-252770002D02*
X169500001Y-251770002D01*
G75*
G02*
X170000001Y-251270002I500000J0D01*
G01*
X171540001Y-251270002D01*
G75*
G02*
X172040001Y-251770002I0J-500000D01*
G01*
X172040001Y-252770002D01*
G75*
G02*
X171540001Y-253270002I-500000J0D01*
G01*
X170000001Y-253270002D01*
G75*
G02*
X169500001Y-252770002I0J500000D01*
G01*
G37*
G04 #@! TD.AperFunction*
G04 #@! TA.AperFunction,SMDPad,CuDef*
G36*
G01*
X169500001Y-255310002D02*
X169500001Y-254310002D01*
G75*
G02*
X170000001Y-253810002I500000J0D01*
G01*
X171540001Y-253810002D01*
G75*
G02*
X172040001Y-254310002I0J-500000D01*
G01*
X172040001Y-255310002D01*
G75*
G02*
X171540001Y-255810002I-500000J0D01*
G01*
X170000001Y-255810002D01*
G75*
G02*
X169500001Y-255310002I0J500000D01*
G01*
G37*
G04 #@! TD.AperFunction*
G04 #@! TA.AperFunction,SMDPad,CuDef*
G36*
G01*
X127500001Y-121635002D02*
X127500001Y-120365002D01*
G75*
G02*
X128135001Y-119730002I635000J0D01*
G01*
X129405001Y-119730002D01*
G75*
G02*
X130040001Y-120365002I0J-635000D01*
G01*
X130040001Y-121635002D01*
G75*
G02*
X129405001Y-122270002I-635000J0D01*
G01*
X128135001Y-122270002D01*
G75*
G02*
X127500001Y-121635002I0J635000D01*
G01*
G37*
G04 #@! TD.AperFunction*
G04 #@! TA.AperFunction,SMDPad,CuDef*
G36*
G01*
X169500001Y-121635002D02*
X169500001Y-120365002D01*
G75*
G02*
X170135001Y-119730002I635000J0D01*
G01*
X171405001Y-119730002D01*
G75*
G02*
X172040001Y-120365002I0J-635000D01*
G01*
X172040001Y-121635002D01*
G75*
G02*
X171405001Y-122270002I-635000J0D01*
G01*
X170135001Y-122270002D01*
G75*
G02*
X169500001Y-121635002I0J635000D01*
G01*
G37*
G04 #@! TD.AperFunction*
G04 #@! TA.AperFunction,SMDPad,CuDef*
G36*
G01*
X127500001Y-259715002D02*
X127500001Y-258445002D01*
G75*
G02*
X128135001Y-257810002I635000J0D01*
G01*
X129405001Y-257810002D01*
G75*
G02*
X130040001Y-258445002I0J-635000D01*
G01*
X130040001Y-259715002D01*
G75*
G02*
X129405001Y-260350002I-635000J0D01*
G01*
X128135001Y-260350002D01*
G75*
G02*
X127500001Y-259715002I0J635000D01*
G01*
G37*
G04 #@! TD.AperFunction*
G04 #@! TA.AperFunction,SMDPad,CuDef*
G36*
G01*
X169500001Y-259715002D02*
X169500001Y-258445002D01*
G75*
G02*
X170135001Y-257810002I635000J0D01*
G01*
X171405001Y-257810002D01*
G75*
G02*
X172040001Y-258445002I0J-635000D01*
G01*
X172040001Y-259715002D01*
G75*
G02*
X171405001Y-260350002I-635000J0D01*
G01*
X170135001Y-260350002D01*
G75*
G02*
X169500001Y-259715002I0J635000D01*
G01*
G37*
G04 #@! TD.AperFunction*
G04 #@! TA.AperFunction,SMDPad,CuDef*
G36*
G01*
X322300000Y-254270000D02*
X322300000Y-253270000D01*
G75*
G02*
X322800000Y-252770000I500000J0D01*
G01*
X324340000Y-252770000D01*
G75*
G02*
X324840000Y-253270000I0J-500000D01*
G01*
X324840000Y-254270000D01*
G75*
G02*
X324340000Y-254770000I-500000J0D01*
G01*
X322800000Y-254770000D01*
G75*
G02*
X322300000Y-254270000I0J500000D01*
G01*
G37*
G04 #@! TD.AperFunction*
G04 #@! TA.AperFunction,SMDPad,CuDef*
G36*
G01*
X322300000Y-269510000D02*
X322300000Y-268510000D01*
G75*
G02*
X322800000Y-268010000I500000J0D01*
G01*
X324340000Y-268010000D01*
G75*
G02*
X324840000Y-268510000I0J-500000D01*
G01*
X324840000Y-269510000D01*
G75*
G02*
X324340000Y-270010000I-500000J0D01*
G01*
X322800000Y-270010000D01*
G75*
G02*
X322300000Y-269510000I0J500000D01*
G01*
G37*
G04 #@! TD.AperFunction*
G04 #@! TA.AperFunction,SMDPad,CuDef*
G36*
G01*
X337300000Y-254270000D02*
X337300000Y-253270000D01*
G75*
G02*
X337800000Y-252770000I500000J0D01*
G01*
X339340000Y-252770000D01*
G75*
G02*
X339840000Y-253270000I0J-500000D01*
G01*
X339840000Y-254270000D01*
G75*
G02*
X339340000Y-254770000I-500000J0D01*
G01*
X337800000Y-254770000D01*
G75*
G02*
X337300000Y-254270000I0J500000D01*
G01*
G37*
G04 #@! TD.AperFunction*
G04 #@! TA.AperFunction,SMDPad,CuDef*
G36*
G01*
X337300000Y-264430000D02*
X337300000Y-263430000D01*
G75*
G02*
X337800000Y-262930000I500000J0D01*
G01*
X339340000Y-262930000D01*
G75*
G02*
X339840000Y-263430000I0J-500000D01*
G01*
X339840000Y-264430000D01*
G75*
G02*
X339340000Y-264930000I-500000J0D01*
G01*
X337800000Y-264930000D01*
G75*
G02*
X337300000Y-264430000I0J500000D01*
G01*
G37*
G04 #@! TD.AperFunction*
G04 #@! TA.AperFunction,SMDPad,CuDef*
G36*
G01*
X337300000Y-269510000D02*
X337300000Y-268510000D01*
G75*
G02*
X337800000Y-268010000I500000J0D01*
G01*
X339340000Y-268010000D01*
G75*
G02*
X339840000Y-268510000I0J-500000D01*
G01*
X339840000Y-269510000D01*
G75*
G02*
X339340000Y-270010000I-500000J0D01*
G01*
X337800000Y-270010000D01*
G75*
G02*
X337300000Y-269510000I0J500000D01*
G01*
G37*
G04 #@! TD.AperFunction*
G04 #@! TA.AperFunction,SMDPad,CuDef*
G36*
G01*
X322300000Y-250135000D02*
X322300000Y-248865000D01*
G75*
G02*
X322935000Y-248230000I635000J0D01*
G01*
X324205000Y-248230000D01*
G75*
G02*
X324840000Y-248865000I0J-635000D01*
G01*
X324840000Y-250135000D01*
G75*
G02*
X324205000Y-250770000I-635000J0D01*
G01*
X322935000Y-250770000D01*
G75*
G02*
X322300000Y-250135000I0J635000D01*
G01*
G37*
G04 #@! TD.AperFunction*
G04 #@! TA.AperFunction,SMDPad,CuDef*
G36*
G01*
X337300000Y-250135000D02*
X337300000Y-248865000D01*
G75*
G02*
X337935000Y-248230000I635000J0D01*
G01*
X339205000Y-248230000D01*
G75*
G02*
X339840000Y-248865000I0J-635000D01*
G01*
X339840000Y-250135000D01*
G75*
G02*
X339205000Y-250770000I-635000J0D01*
G01*
X337935000Y-250770000D01*
G75*
G02*
X337300000Y-250135000I0J635000D01*
G01*
G37*
G04 #@! TD.AperFunction*
G04 #@! TA.AperFunction,SMDPad,CuDef*
G36*
G01*
X322300000Y-273915000D02*
X322300000Y-272645000D01*
G75*
G02*
X322935000Y-272010000I635000J0D01*
G01*
X324205000Y-272010000D01*
G75*
G02*
X324840000Y-272645000I0J-635000D01*
G01*
X324840000Y-273915000D01*
G75*
G02*
X324205000Y-274550000I-635000J0D01*
G01*
X322935000Y-274550000D01*
G75*
G02*
X322300000Y-273915000I0J635000D01*
G01*
G37*
G04 #@! TD.AperFunction*
G04 #@! TA.AperFunction,SMDPad,CuDef*
G36*
G01*
X337300000Y-273915000D02*
X337300000Y-272645000D01*
G75*
G02*
X337935000Y-272010000I635000J0D01*
G01*
X339205000Y-272010000D01*
G75*
G02*
X339840000Y-272645000I0J-635000D01*
G01*
X339840000Y-273915000D01*
G75*
G02*
X339205000Y-274550000I-635000J0D01*
G01*
X337935000Y-274550000D01*
G75*
G02*
X337300000Y-273915000I0J635000D01*
G01*
G37*
G04 #@! TD.AperFunction*
G04 #@! TA.AperFunction,SMDPad,CuDef*
G36*
G01*
X137436250Y-296597500D02*
X136923750Y-296597500D01*
G75*
G02*
X136705000Y-296378750I0J218750D01*
G01*
X136705000Y-295941250D01*
G75*
G02*
X136923750Y-295722500I218750J0D01*
G01*
X137436250Y-295722500D01*
G75*
G02*
X137655000Y-295941250I0J-218750D01*
G01*
X137655000Y-296378750D01*
G75*
G02*
X137436250Y-296597500I-218750J0D01*
G01*
G37*
G04 #@! TD.AperFunction*
G04 #@! TA.AperFunction,SMDPad,CuDef*
G36*
G01*
X137436250Y-295022500D02*
X136923750Y-295022500D01*
G75*
G02*
X136705000Y-294803750I0J218750D01*
G01*
X136705000Y-294366250D01*
G75*
G02*
X136923750Y-294147500I218750J0D01*
G01*
X137436250Y-294147500D01*
G75*
G02*
X137655000Y-294366250I0J-218750D01*
G01*
X137655000Y-294803750D01*
G75*
G02*
X137436250Y-295022500I-218750J0D01*
G01*
G37*
G04 #@! TD.AperFunction*
G04 #@! TA.AperFunction,SMDPad,CuDef*
G36*
G01*
X183700001Y-125770001D02*
X183700001Y-124770001D01*
G75*
G02*
X184200001Y-124270001I500000J0D01*
G01*
X185740001Y-124270001D01*
G75*
G02*
X186240001Y-124770001I0J-500000D01*
G01*
X186240001Y-125770001D01*
G75*
G02*
X185740001Y-126270001I-500000J0D01*
G01*
X184200001Y-126270001D01*
G75*
G02*
X183700001Y-125770001I0J500000D01*
G01*
G37*
G04 #@! TD.AperFunction*
G04 #@! TA.AperFunction,SMDPad,CuDef*
G36*
G01*
X183700001Y-181650001D02*
X183700001Y-180650001D01*
G75*
G02*
X184200001Y-180150001I500000J0D01*
G01*
X185740001Y-180150001D01*
G75*
G02*
X186240001Y-180650001I0J-500000D01*
G01*
X186240001Y-181650001D01*
G75*
G02*
X185740001Y-182150001I-500000J0D01*
G01*
X184200001Y-182150001D01*
G75*
G02*
X183700001Y-181650001I0J500000D01*
G01*
G37*
G04 #@! TD.AperFunction*
G04 #@! TA.AperFunction,SMDPad,CuDef*
G36*
G01*
X183700001Y-184190001D02*
X183700001Y-183190001D01*
G75*
G02*
X184200001Y-182690001I500000J0D01*
G01*
X185740001Y-182690001D01*
G75*
G02*
X186240001Y-183190001I0J-500000D01*
G01*
X186240001Y-184190001D01*
G75*
G02*
X185740001Y-184690001I-500000J0D01*
G01*
X184200001Y-184690001D01*
G75*
G02*
X183700001Y-184190001I0J500000D01*
G01*
G37*
G04 #@! TD.AperFunction*
G04 #@! TA.AperFunction,SMDPad,CuDef*
G36*
G01*
X223700001Y-138470001D02*
X223700001Y-137470001D01*
G75*
G02*
X224200001Y-136970001I500000J0D01*
G01*
X225740001Y-136970001D01*
G75*
G02*
X226240001Y-137470001I0J-500000D01*
G01*
X226240001Y-138470001D01*
G75*
G02*
X225740001Y-138970001I-500000J0D01*
G01*
X224200001Y-138970001D01*
G75*
G02*
X223700001Y-138470001I0J500000D01*
G01*
G37*
G04 #@! TD.AperFunction*
G04 #@! TA.AperFunction,SMDPad,CuDef*
G36*
G01*
X223700001Y-141010001D02*
X223700001Y-140010001D01*
G75*
G02*
X224200001Y-139510001I500000J0D01*
G01*
X225740001Y-139510001D01*
G75*
G02*
X226240001Y-140010001I0J-500000D01*
G01*
X226240001Y-141010001D01*
G75*
G02*
X225740001Y-141510001I-500000J0D01*
G01*
X224200001Y-141510001D01*
G75*
G02*
X223700001Y-141010001I0J500000D01*
G01*
G37*
G04 #@! TD.AperFunction*
G04 #@! TA.AperFunction,SMDPad,CuDef*
G36*
G01*
X223700001Y-143550001D02*
X223700001Y-142550001D01*
G75*
G02*
X224200001Y-142050001I500000J0D01*
G01*
X225740001Y-142050001D01*
G75*
G02*
X226240001Y-142550001I0J-500000D01*
G01*
X226240001Y-143550001D01*
G75*
G02*
X225740001Y-144050001I-500000J0D01*
G01*
X224200001Y-144050001D01*
G75*
G02*
X223700001Y-143550001I0J500000D01*
G01*
G37*
G04 #@! TD.AperFunction*
G04 #@! TA.AperFunction,SMDPad,CuDef*
G36*
G01*
X223700001Y-146090001D02*
X223700001Y-145090001D01*
G75*
G02*
X224200001Y-144590001I500000J0D01*
G01*
X225740001Y-144590001D01*
G75*
G02*
X226240001Y-145090001I0J-500000D01*
G01*
X226240001Y-146090001D01*
G75*
G02*
X225740001Y-146590001I-500000J0D01*
G01*
X224200001Y-146590001D01*
G75*
G02*
X223700001Y-146090001I0J500000D01*
G01*
G37*
G04 #@! TD.AperFunction*
G04 #@! TA.AperFunction,SMDPad,CuDef*
G36*
G01*
X223700001Y-148630001D02*
X223700001Y-147630001D01*
G75*
G02*
X224200001Y-147130001I500000J0D01*
G01*
X225740001Y-147130001D01*
G75*
G02*
X226240001Y-147630001I0J-500000D01*
G01*
X226240001Y-148630001D01*
G75*
G02*
X225740001Y-149130001I-500000J0D01*
G01*
X224200001Y-149130001D01*
G75*
G02*
X223700001Y-148630001I0J500000D01*
G01*
G37*
G04 #@! TD.AperFunction*
G04 #@! TA.AperFunction,SMDPad,CuDef*
G36*
G01*
X223700001Y-151170001D02*
X223700001Y-150170001D01*
G75*
G02*
X224200001Y-149670001I500000J0D01*
G01*
X225740001Y-149670001D01*
G75*
G02*
X226240001Y-150170001I0J-500000D01*
G01*
X226240001Y-151170001D01*
G75*
G02*
X225740001Y-151670001I-500000J0D01*
G01*
X224200001Y-151670001D01*
G75*
G02*
X223700001Y-151170001I0J500000D01*
G01*
G37*
G04 #@! TD.AperFunction*
G04 #@! TA.AperFunction,SMDPad,CuDef*
G36*
G01*
X223700001Y-153710001D02*
X223700001Y-152710001D01*
G75*
G02*
X224200001Y-152210001I500000J0D01*
G01*
X225740001Y-152210001D01*
G75*
G02*
X226240001Y-152710001I0J-500000D01*
G01*
X226240001Y-153710001D01*
G75*
G02*
X225740001Y-154210001I-500000J0D01*
G01*
X224200001Y-154210001D01*
G75*
G02*
X223700001Y-153710001I0J500000D01*
G01*
G37*
G04 #@! TD.AperFunction*
G04 #@! TA.AperFunction,SMDPad,CuDef*
G36*
G01*
X223700001Y-156250001D02*
X223700001Y-155250001D01*
G75*
G02*
X224200001Y-154750001I500000J0D01*
G01*
X225740001Y-154750001D01*
G75*
G02*
X226240001Y-155250001I0J-500000D01*
G01*
X226240001Y-156250001D01*
G75*
G02*
X225740001Y-156750001I-500000J0D01*
G01*
X224200001Y-156750001D01*
G75*
G02*
X223700001Y-156250001I0J500000D01*
G01*
G37*
G04 #@! TD.AperFunction*
G04 #@! TA.AperFunction,SMDPad,CuDef*
G36*
G01*
X223700001Y-158790001D02*
X223700001Y-157790001D01*
G75*
G02*
X224200001Y-157290001I500000J0D01*
G01*
X225740001Y-157290001D01*
G75*
G02*
X226240001Y-157790001I0J-500000D01*
G01*
X226240001Y-158790001D01*
G75*
G02*
X225740001Y-159290001I-500000J0D01*
G01*
X224200001Y-159290001D01*
G75*
G02*
X223700001Y-158790001I0J500000D01*
G01*
G37*
G04 #@! TD.AperFunction*
G04 #@! TA.AperFunction,SMDPad,CuDef*
G36*
G01*
X223700001Y-161330001D02*
X223700001Y-160330001D01*
G75*
G02*
X224200001Y-159830001I500000J0D01*
G01*
X225740001Y-159830001D01*
G75*
G02*
X226240001Y-160330001I0J-500000D01*
G01*
X226240001Y-161330001D01*
G75*
G02*
X225740001Y-161830001I-500000J0D01*
G01*
X224200001Y-161830001D01*
G75*
G02*
X223700001Y-161330001I0J500000D01*
G01*
G37*
G04 #@! TD.AperFunction*
G04 #@! TA.AperFunction,SMDPad,CuDef*
G36*
G01*
X223700001Y-163870001D02*
X223700001Y-162870001D01*
G75*
G02*
X224200001Y-162370001I500000J0D01*
G01*
X225740001Y-162370001D01*
G75*
G02*
X226240001Y-162870001I0J-500000D01*
G01*
X226240001Y-163870001D01*
G75*
G02*
X225740001Y-164370001I-500000J0D01*
G01*
X224200001Y-164370001D01*
G75*
G02*
X223700001Y-163870001I0J500000D01*
G01*
G37*
G04 #@! TD.AperFunction*
G04 #@! TA.AperFunction,SMDPad,CuDef*
G36*
G01*
X223700001Y-166410001D02*
X223700001Y-165410001D01*
G75*
G02*
X224200001Y-164910001I500000J0D01*
G01*
X225740001Y-164910001D01*
G75*
G02*
X226240001Y-165410001I0J-500000D01*
G01*
X226240001Y-166410001D01*
G75*
G02*
X225740001Y-166910001I-500000J0D01*
G01*
X224200001Y-166910001D01*
G75*
G02*
X223700001Y-166410001I0J500000D01*
G01*
G37*
G04 #@! TD.AperFunction*
G04 #@! TA.AperFunction,SMDPad,CuDef*
G36*
G01*
X223700001Y-168950001D02*
X223700001Y-167950001D01*
G75*
G02*
X224200001Y-167450001I500000J0D01*
G01*
X225740001Y-167450001D01*
G75*
G02*
X226240001Y-167950001I0J-500000D01*
G01*
X226240001Y-168950001D01*
G75*
G02*
X225740001Y-169450001I-500000J0D01*
G01*
X224200001Y-169450001D01*
G75*
G02*
X223700001Y-168950001I0J500000D01*
G01*
G37*
G04 #@! TD.AperFunction*
G04 #@! TA.AperFunction,SMDPad,CuDef*
G36*
G01*
X223700001Y-171490001D02*
X223700001Y-170490001D01*
G75*
G02*
X224200001Y-169990001I500000J0D01*
G01*
X225740001Y-169990001D01*
G75*
G02*
X226240001Y-170490001I0J-500000D01*
G01*
X226240001Y-171490001D01*
G75*
G02*
X225740001Y-171990001I-500000J0D01*
G01*
X224200001Y-171990001D01*
G75*
G02*
X223700001Y-171490001I0J500000D01*
G01*
G37*
G04 #@! TD.AperFunction*
G04 #@! TA.AperFunction,SMDPad,CuDef*
G36*
G01*
X223700001Y-174030001D02*
X223700001Y-173030001D01*
G75*
G02*
X224200001Y-172530001I500000J0D01*
G01*
X225740001Y-172530001D01*
G75*
G02*
X226240001Y-173030001I0J-500000D01*
G01*
X226240001Y-174030001D01*
G75*
G02*
X225740001Y-174530001I-500000J0D01*
G01*
X224200001Y-174530001D01*
G75*
G02*
X223700001Y-174030001I0J500000D01*
G01*
G37*
G04 #@! TD.AperFunction*
G04 #@! TA.AperFunction,SMDPad,CuDef*
G36*
G01*
X223700001Y-176570001D02*
X223700001Y-175570001D01*
G75*
G02*
X224200001Y-175070001I500000J0D01*
G01*
X225740001Y-175070001D01*
G75*
G02*
X226240001Y-175570001I0J-500000D01*
G01*
X226240001Y-176570001D01*
G75*
G02*
X225740001Y-177070001I-500000J0D01*
G01*
X224200001Y-177070001D01*
G75*
G02*
X223700001Y-176570001I0J500000D01*
G01*
G37*
G04 #@! TD.AperFunction*
G04 #@! TA.AperFunction,SMDPad,CuDef*
G36*
G01*
X223700001Y-179110001D02*
X223700001Y-178110001D01*
G75*
G02*
X224200001Y-177610001I500000J0D01*
G01*
X225740001Y-177610001D01*
G75*
G02*
X226240001Y-178110001I0J-500000D01*
G01*
X226240001Y-179110001D01*
G75*
G02*
X225740001Y-179610001I-500000J0D01*
G01*
X224200001Y-179610001D01*
G75*
G02*
X223700001Y-179110001I0J500000D01*
G01*
G37*
G04 #@! TD.AperFunction*
G04 #@! TA.AperFunction,SMDPad,CuDef*
G36*
G01*
X183700001Y-121635001D02*
X183700001Y-120365001D01*
G75*
G02*
X184335001Y-119730001I635000J0D01*
G01*
X185605001Y-119730001D01*
G75*
G02*
X186240001Y-120365001I0J-635000D01*
G01*
X186240001Y-121635001D01*
G75*
G02*
X185605001Y-122270001I-635000J0D01*
G01*
X184335001Y-122270001D01*
G75*
G02*
X183700001Y-121635001I0J635000D01*
G01*
G37*
G04 #@! TD.AperFunction*
G04 #@! TA.AperFunction,SMDPad,CuDef*
G36*
G01*
X223700001Y-121635001D02*
X223700001Y-120365001D01*
G75*
G02*
X224335001Y-119730001I635000J0D01*
G01*
X225605001Y-119730001D01*
G75*
G02*
X226240001Y-120365001I0J-635000D01*
G01*
X226240001Y-121635001D01*
G75*
G02*
X225605001Y-122270001I-635000J0D01*
G01*
X224335001Y-122270001D01*
G75*
G02*
X223700001Y-121635001I0J635000D01*
G01*
G37*
G04 #@! TD.AperFunction*
G04 #@! TA.AperFunction,SMDPad,CuDef*
G36*
G01*
X183700001Y-188595001D02*
X183700001Y-187325001D01*
G75*
G02*
X184335001Y-186690001I635000J0D01*
G01*
X185605001Y-186690001D01*
G75*
G02*
X186240001Y-187325001I0J-635000D01*
G01*
X186240001Y-188595001D01*
G75*
G02*
X185605001Y-189230001I-635000J0D01*
G01*
X184335001Y-189230001D01*
G75*
G02*
X183700001Y-188595001I0J635000D01*
G01*
G37*
G04 #@! TD.AperFunction*
G04 #@! TA.AperFunction,SMDPad,CuDef*
G36*
G01*
X223700001Y-188595001D02*
X223700001Y-187325001D01*
G75*
G02*
X224335001Y-186690001I635000J0D01*
G01*
X225605001Y-186690001D01*
G75*
G02*
X226240001Y-187325001I0J-635000D01*
G01*
X226240001Y-188595001D01*
G75*
G02*
X225605001Y-189230001I-635000J0D01*
G01*
X224335001Y-189230001D01*
G75*
G02*
X223700001Y-188595001I0J635000D01*
G01*
G37*
G04 #@! TD.AperFunction*
D11*
X431930000Y-104510000D03*
D10*
X428710000Y-107740000D03*
G04 #@! TA.AperFunction,SMDPad,CuDef*
G36*
G01*
X136670000Y-113265000D02*
X136670000Y-112925000D01*
G75*
G02*
X136810000Y-112785000I140000J0D01*
G01*
X137090000Y-112785000D01*
G75*
G02*
X137230000Y-112925000I0J-140000D01*
G01*
X137230000Y-113265000D01*
G75*
G02*
X137090000Y-113405000I-140000J0D01*
G01*
X136810000Y-113405000D01*
G75*
G02*
X136670000Y-113265000I0J140000D01*
G01*
G37*
G04 #@! TD.AperFunction*
G04 #@! TA.AperFunction,SMDPad,CuDef*
G36*
G01*
X137630000Y-113265000D02*
X137630000Y-112925000D01*
G75*
G02*
X137770000Y-112785000I140000J0D01*
G01*
X138050000Y-112785000D01*
G75*
G02*
X138190000Y-112925000I0J-140000D01*
G01*
X138190000Y-113265000D01*
G75*
G02*
X138050000Y-113405000I-140000J0D01*
G01*
X137770000Y-113405000D01*
G75*
G02*
X137630000Y-113265000I0J140000D01*
G01*
G37*
G04 #@! TD.AperFunction*
G04 #@! TA.AperFunction,SMDPad,CuDef*
G36*
G01*
X356500000Y-208459999D02*
X356500000Y-207459999D01*
G75*
G02*
X357000000Y-206959999I500000J0D01*
G01*
X358540000Y-206959999D01*
G75*
G02*
X359040000Y-207459999I0J-500000D01*
G01*
X359040000Y-208459999D01*
G75*
G02*
X358540000Y-208959999I-500000J0D01*
G01*
X357000000Y-208959999D01*
G75*
G02*
X356500000Y-208459999I0J500000D01*
G01*
G37*
G04 #@! TD.AperFunction*
G04 #@! TA.AperFunction,SMDPad,CuDef*
G36*
G01*
X356500000Y-236399999D02*
X356500000Y-235399999D01*
G75*
G02*
X357000000Y-234899999I500000J0D01*
G01*
X358540000Y-234899999D01*
G75*
G02*
X359040000Y-235399999I0J-500000D01*
G01*
X359040000Y-236399999D01*
G75*
G02*
X358540000Y-236899999I-500000J0D01*
G01*
X357000000Y-236899999D01*
G75*
G02*
X356500000Y-236399999I0J500000D01*
G01*
G37*
G04 #@! TD.AperFunction*
G04 #@! TA.AperFunction,SMDPad,CuDef*
G36*
G01*
X376500000Y-208459999D02*
X376500000Y-207459999D01*
G75*
G02*
X377000000Y-206959999I500000J0D01*
G01*
X378540000Y-206959999D01*
G75*
G02*
X379040000Y-207459999I0J-500000D01*
G01*
X379040000Y-208459999D01*
G75*
G02*
X378540000Y-208959999I-500000J0D01*
G01*
X377000000Y-208959999D01*
G75*
G02*
X376500000Y-208459999I0J500000D01*
G01*
G37*
G04 #@! TD.AperFunction*
G04 #@! TA.AperFunction,SMDPad,CuDef*
G36*
G01*
X376500000Y-226239999D02*
X376500000Y-225239999D01*
G75*
G02*
X377000000Y-224739999I500000J0D01*
G01*
X378540000Y-224739999D01*
G75*
G02*
X379040000Y-225239999I0J-500000D01*
G01*
X379040000Y-226239999D01*
G75*
G02*
X378540000Y-226739999I-500000J0D01*
G01*
X377000000Y-226739999D01*
G75*
G02*
X376500000Y-226239999I0J500000D01*
G01*
G37*
G04 #@! TD.AperFunction*
G04 #@! TA.AperFunction,SMDPad,CuDef*
G36*
G01*
X376500000Y-228779999D02*
X376500000Y-227779999D01*
G75*
G02*
X377000000Y-227279999I500000J0D01*
G01*
X378540000Y-227279999D01*
G75*
G02*
X379040000Y-227779999I0J-500000D01*
G01*
X379040000Y-228779999D01*
G75*
G02*
X378540000Y-229279999I-500000J0D01*
G01*
X377000000Y-229279999D01*
G75*
G02*
X376500000Y-228779999I0J500000D01*
G01*
G37*
G04 #@! TD.AperFunction*
G04 #@! TA.AperFunction,SMDPad,CuDef*
G36*
G01*
X376500000Y-231319999D02*
X376500000Y-230319999D01*
G75*
G02*
X377000000Y-229819999I500000J0D01*
G01*
X378540000Y-229819999D01*
G75*
G02*
X379040000Y-230319999I0J-500000D01*
G01*
X379040000Y-231319999D01*
G75*
G02*
X378540000Y-231819999I-500000J0D01*
G01*
X377000000Y-231819999D01*
G75*
G02*
X376500000Y-231319999I0J500000D01*
G01*
G37*
G04 #@! TD.AperFunction*
G04 #@! TA.AperFunction,SMDPad,CuDef*
G36*
G01*
X376500000Y-233859999D02*
X376500000Y-232859999D01*
G75*
G02*
X377000000Y-232359999I500000J0D01*
G01*
X378540000Y-232359999D01*
G75*
G02*
X379040000Y-232859999I0J-500000D01*
G01*
X379040000Y-233859999D01*
G75*
G02*
X378540000Y-234359999I-500000J0D01*
G01*
X377000000Y-234359999D01*
G75*
G02*
X376500000Y-233859999I0J500000D01*
G01*
G37*
G04 #@! TD.AperFunction*
G04 #@! TA.AperFunction,SMDPad,CuDef*
G36*
G01*
X376500000Y-236399999D02*
X376500000Y-235399999D01*
G75*
G02*
X377000000Y-234899999I500000J0D01*
G01*
X378540000Y-234899999D01*
G75*
G02*
X379040000Y-235399999I0J-500000D01*
G01*
X379040000Y-236399999D01*
G75*
G02*
X378540000Y-236899999I-500000J0D01*
G01*
X377000000Y-236899999D01*
G75*
G02*
X376500000Y-236399999I0J500000D01*
G01*
G37*
G04 #@! TD.AperFunction*
G04 #@! TA.AperFunction,SMDPad,CuDef*
G36*
G01*
X356500000Y-204324999D02*
X356500000Y-203054999D01*
G75*
G02*
X357135000Y-202419999I635000J0D01*
G01*
X358405000Y-202419999D01*
G75*
G02*
X359040000Y-203054999I0J-635000D01*
G01*
X359040000Y-204324999D01*
G75*
G02*
X358405000Y-204959999I-635000J0D01*
G01*
X357135000Y-204959999D01*
G75*
G02*
X356500000Y-204324999I0J635000D01*
G01*
G37*
G04 #@! TD.AperFunction*
G04 #@! TA.AperFunction,SMDPad,CuDef*
G36*
G01*
X376500000Y-204324999D02*
X376500000Y-203054999D01*
G75*
G02*
X377135000Y-202419999I635000J0D01*
G01*
X378405000Y-202419999D01*
G75*
G02*
X379040000Y-203054999I0J-635000D01*
G01*
X379040000Y-204324999D01*
G75*
G02*
X378405000Y-204959999I-635000J0D01*
G01*
X377135000Y-204959999D01*
G75*
G02*
X376500000Y-204324999I0J635000D01*
G01*
G37*
G04 #@! TD.AperFunction*
G04 #@! TA.AperFunction,SMDPad,CuDef*
G36*
G01*
X356500000Y-240804999D02*
X356500000Y-239534999D01*
G75*
G02*
X357135000Y-238899999I635000J0D01*
G01*
X358405000Y-238899999D01*
G75*
G02*
X359040000Y-239534999I0J-635000D01*
G01*
X359040000Y-240804999D01*
G75*
G02*
X358405000Y-241439999I-635000J0D01*
G01*
X357135000Y-241439999D01*
G75*
G02*
X356500000Y-240804999I0J635000D01*
G01*
G37*
G04 #@! TD.AperFunction*
G04 #@! TA.AperFunction,SMDPad,CuDef*
G36*
G01*
X376500000Y-240804999D02*
X376500000Y-239534999D01*
G75*
G02*
X377135000Y-238899999I635000J0D01*
G01*
X378405000Y-238899999D01*
G75*
G02*
X379040000Y-239534999I0J-635000D01*
G01*
X379040000Y-240804999D01*
G75*
G02*
X378405000Y-241439999I-635000J0D01*
G01*
X377135000Y-241439999D01*
G75*
G02*
X376500000Y-240804999I0J635000D01*
G01*
G37*
G04 #@! TD.AperFunction*
D11*
X121930000Y-104620000D03*
G04 #@! TA.AperFunction,SMDPad,CuDef*
G36*
G01*
X322300000Y-208460000D02*
X322300000Y-207460000D01*
G75*
G02*
X322800000Y-206960000I500000J0D01*
G01*
X324340000Y-206960000D01*
G75*
G02*
X324840000Y-207460000I0J-500000D01*
G01*
X324840000Y-208460000D01*
G75*
G02*
X324340000Y-208960000I-500000J0D01*
G01*
X322800000Y-208960000D01*
G75*
G02*
X322300000Y-208460000I0J500000D01*
G01*
G37*
G04 #@! TD.AperFunction*
G04 #@! TA.AperFunction,SMDPad,CuDef*
G36*
G01*
X322300000Y-238940000D02*
X322300000Y-237940000D01*
G75*
G02*
X322800000Y-237440000I500000J0D01*
G01*
X324340000Y-237440000D01*
G75*
G02*
X324840000Y-237940000I0J-500000D01*
G01*
X324840000Y-238940000D01*
G75*
G02*
X324340000Y-239440000I-500000J0D01*
G01*
X322800000Y-239440000D01*
G75*
G02*
X322300000Y-238940000I0J500000D01*
G01*
G37*
G04 #@! TD.AperFunction*
G04 #@! TA.AperFunction,SMDPad,CuDef*
G36*
G01*
X342300000Y-208460000D02*
X342300000Y-207460000D01*
G75*
G02*
X342800000Y-206960000I500000J0D01*
G01*
X344340000Y-206960000D01*
G75*
G02*
X344840000Y-207460000I0J-500000D01*
G01*
X344840000Y-208460000D01*
G75*
G02*
X344340000Y-208960000I-500000J0D01*
G01*
X342800000Y-208960000D01*
G75*
G02*
X342300000Y-208460000I0J500000D01*
G01*
G37*
G04 #@! TD.AperFunction*
G04 #@! TA.AperFunction,SMDPad,CuDef*
G36*
G01*
X342300000Y-236400000D02*
X342300000Y-235400000D01*
G75*
G02*
X342800000Y-234900000I500000J0D01*
G01*
X344340000Y-234900000D01*
G75*
G02*
X344840000Y-235400000I0J-500000D01*
G01*
X344840000Y-236400000D01*
G75*
G02*
X344340000Y-236900000I-500000J0D01*
G01*
X342800000Y-236900000D01*
G75*
G02*
X342300000Y-236400000I0J500000D01*
G01*
G37*
G04 #@! TD.AperFunction*
G04 #@! TA.AperFunction,SMDPad,CuDef*
G36*
G01*
X342300000Y-238940000D02*
X342300000Y-237940000D01*
G75*
G02*
X342800000Y-237440000I500000J0D01*
G01*
X344340000Y-237440000D01*
G75*
G02*
X344840000Y-237940000I0J-500000D01*
G01*
X344840000Y-238940000D01*
G75*
G02*
X344340000Y-239440000I-500000J0D01*
G01*
X342800000Y-239440000D01*
G75*
G02*
X342300000Y-238940000I0J500000D01*
G01*
G37*
G04 #@! TD.AperFunction*
G04 #@! TA.AperFunction,SMDPad,CuDef*
G36*
G01*
X322300000Y-204325000D02*
X322300000Y-203055000D01*
G75*
G02*
X322935000Y-202420000I635000J0D01*
G01*
X324205000Y-202420000D01*
G75*
G02*
X324840000Y-203055000I0J-635000D01*
G01*
X324840000Y-204325000D01*
G75*
G02*
X324205000Y-204960000I-635000J0D01*
G01*
X322935000Y-204960000D01*
G75*
G02*
X322300000Y-204325000I0J635000D01*
G01*
G37*
G04 #@! TD.AperFunction*
G04 #@! TA.AperFunction,SMDPad,CuDef*
G36*
G01*
X342300000Y-204325000D02*
X342300000Y-203055000D01*
G75*
G02*
X342935000Y-202420000I635000J0D01*
G01*
X344205000Y-202420000D01*
G75*
G02*
X344840000Y-203055000I0J-635000D01*
G01*
X344840000Y-204325000D01*
G75*
G02*
X344205000Y-204960000I-635000J0D01*
G01*
X342935000Y-204960000D01*
G75*
G02*
X342300000Y-204325000I0J635000D01*
G01*
G37*
G04 #@! TD.AperFunction*
G04 #@! TA.AperFunction,SMDPad,CuDef*
G36*
G01*
X322300000Y-243345000D02*
X322300000Y-242075000D01*
G75*
G02*
X322935000Y-241440000I635000J0D01*
G01*
X324205000Y-241440000D01*
G75*
G02*
X324840000Y-242075000I0J-635000D01*
G01*
X324840000Y-243345000D01*
G75*
G02*
X324205000Y-243980000I-635000J0D01*
G01*
X322935000Y-243980000D01*
G75*
G02*
X322300000Y-243345000I0J635000D01*
G01*
G37*
G04 #@! TD.AperFunction*
G04 #@! TA.AperFunction,SMDPad,CuDef*
G36*
G01*
X342300000Y-243345000D02*
X342300000Y-242075000D01*
G75*
G02*
X342935000Y-241440000I635000J0D01*
G01*
X344205000Y-241440000D01*
G75*
G02*
X344840000Y-242075000I0J-635000D01*
G01*
X344840000Y-243345000D01*
G75*
G02*
X344205000Y-243980000I-635000J0D01*
G01*
X342935000Y-243980000D01*
G75*
G02*
X342300000Y-243345000I0J635000D01*
G01*
G37*
G04 #@! TD.AperFunction*
X121890000Y-304560000D03*
G04 #@! TA.AperFunction,SMDPad,CuDef*
G36*
G01*
X277920000Y-256590000D02*
X277920000Y-255590000D01*
G75*
G02*
X278420000Y-255090000I500000J0D01*
G01*
X279960000Y-255090000D01*
G75*
G02*
X280460000Y-255590000I0J-500000D01*
G01*
X280460000Y-256590000D01*
G75*
G02*
X279960000Y-257090000I-500000J0D01*
G01*
X278420000Y-257090000D01*
G75*
G02*
X277920000Y-256590000I0J500000D01*
G01*
G37*
G04 #@! TD.AperFunction*
G04 #@! TA.AperFunction,SMDPad,CuDef*
G36*
G01*
X277920000Y-274370000D02*
X277920000Y-273370000D01*
G75*
G02*
X278420000Y-272870000I500000J0D01*
G01*
X279960000Y-272870000D01*
G75*
G02*
X280460000Y-273370000I0J-500000D01*
G01*
X280460000Y-274370000D01*
G75*
G02*
X279960000Y-274870000I-500000J0D01*
G01*
X278420000Y-274870000D01*
G75*
G02*
X277920000Y-274370000I0J500000D01*
G01*
G37*
G04 #@! TD.AperFunction*
G04 #@! TA.AperFunction,SMDPad,CuDef*
G36*
G01*
X292920000Y-256590000D02*
X292920000Y-255590000D01*
G75*
G02*
X293420000Y-255090000I500000J0D01*
G01*
X294960000Y-255090000D01*
G75*
G02*
X295460000Y-255590000I0J-500000D01*
G01*
X295460000Y-256590000D01*
G75*
G02*
X294960000Y-257090000I-500000J0D01*
G01*
X293420000Y-257090000D01*
G75*
G02*
X292920000Y-256590000I0J500000D01*
G01*
G37*
G04 #@! TD.AperFunction*
G04 #@! TA.AperFunction,SMDPad,CuDef*
G36*
G01*
X292920000Y-269290000D02*
X292920000Y-268290000D01*
G75*
G02*
X293420000Y-267790000I500000J0D01*
G01*
X294960000Y-267790000D01*
G75*
G02*
X295460000Y-268290000I0J-500000D01*
G01*
X295460000Y-269290000D01*
G75*
G02*
X294960000Y-269790000I-500000J0D01*
G01*
X293420000Y-269790000D01*
G75*
G02*
X292920000Y-269290000I0J500000D01*
G01*
G37*
G04 #@! TD.AperFunction*
G04 #@! TA.AperFunction,SMDPad,CuDef*
G36*
G01*
X292920000Y-271830000D02*
X292920000Y-270830000D01*
G75*
G02*
X293420000Y-270330000I500000J0D01*
G01*
X294960000Y-270330000D01*
G75*
G02*
X295460000Y-270830000I0J-500000D01*
G01*
X295460000Y-271830000D01*
G75*
G02*
X294960000Y-272330000I-500000J0D01*
G01*
X293420000Y-272330000D01*
G75*
G02*
X292920000Y-271830000I0J500000D01*
G01*
G37*
G04 #@! TD.AperFunction*
G04 #@! TA.AperFunction,SMDPad,CuDef*
G36*
G01*
X292920000Y-274370000D02*
X292920000Y-273370000D01*
G75*
G02*
X293420000Y-272870000I500000J0D01*
G01*
X294960000Y-272870000D01*
G75*
G02*
X295460000Y-273370000I0J-500000D01*
G01*
X295460000Y-274370000D01*
G75*
G02*
X294960000Y-274870000I-500000J0D01*
G01*
X293420000Y-274870000D01*
G75*
G02*
X292920000Y-274370000I0J500000D01*
G01*
G37*
G04 #@! TD.AperFunction*
G04 #@! TA.AperFunction,SMDPad,CuDef*
G36*
G01*
X277920000Y-252455000D02*
X277920000Y-251185000D01*
G75*
G02*
X278555000Y-250550000I635000J0D01*
G01*
X279825000Y-250550000D01*
G75*
G02*
X280460000Y-251185000I0J-635000D01*
G01*
X280460000Y-252455000D01*
G75*
G02*
X279825000Y-253090000I-635000J0D01*
G01*
X278555000Y-253090000D01*
G75*
G02*
X277920000Y-252455000I0J635000D01*
G01*
G37*
G04 #@! TD.AperFunction*
G04 #@! TA.AperFunction,SMDPad,CuDef*
G36*
G01*
X292920000Y-252455000D02*
X292920000Y-251185000D01*
G75*
G02*
X293555000Y-250550000I635000J0D01*
G01*
X294825000Y-250550000D01*
G75*
G02*
X295460000Y-251185000I0J-635000D01*
G01*
X295460000Y-252455000D01*
G75*
G02*
X294825000Y-253090000I-635000J0D01*
G01*
X293555000Y-253090000D01*
G75*
G02*
X292920000Y-252455000I0J635000D01*
G01*
G37*
G04 #@! TD.AperFunction*
G04 #@! TA.AperFunction,SMDPad,CuDef*
G36*
G01*
X277920000Y-278775000D02*
X277920000Y-277505000D01*
G75*
G02*
X278555000Y-276870000I635000J0D01*
G01*
X279825000Y-276870000D01*
G75*
G02*
X280460000Y-277505000I0J-635000D01*
G01*
X280460000Y-278775000D01*
G75*
G02*
X279825000Y-279410000I-635000J0D01*
G01*
X278555000Y-279410000D01*
G75*
G02*
X277920000Y-278775000I0J635000D01*
G01*
G37*
G04 #@! TD.AperFunction*
G04 #@! TA.AperFunction,SMDPad,CuDef*
G36*
G01*
X292920000Y-278775000D02*
X292920000Y-277505000D01*
G75*
G02*
X293555000Y-276870000I635000J0D01*
G01*
X294825000Y-276870000D01*
G75*
G02*
X295460000Y-277505000I0J-635000D01*
G01*
X295460000Y-278775000D01*
G75*
G02*
X294825000Y-279410000I-635000J0D01*
G01*
X293555000Y-279410000D01*
G75*
G02*
X292920000Y-278775000I0J635000D01*
G01*
G37*
G04 #@! TD.AperFunction*
D10*
X428920000Y-301360000D03*
G04 #@! TA.AperFunction,SMDPad,CuDef*
G36*
G01*
X240310000Y-125370000D02*
X240310000Y-124370000D01*
G75*
G02*
X240810000Y-123870000I500000J0D01*
G01*
X242350000Y-123870000D01*
G75*
G02*
X242850000Y-124370000I0J-500000D01*
G01*
X242850000Y-125370000D01*
G75*
G02*
X242350000Y-125870000I-500000J0D01*
G01*
X240810000Y-125870000D01*
G75*
G02*
X240310000Y-125370000I0J500000D01*
G01*
G37*
G04 #@! TD.AperFunction*
G04 #@! TA.AperFunction,SMDPad,CuDef*
G36*
G01*
X240310000Y-127910000D02*
X240310000Y-126910000D01*
G75*
G02*
X240810000Y-126410000I500000J0D01*
G01*
X242350000Y-126410000D01*
G75*
G02*
X242850000Y-126910000I0J-500000D01*
G01*
X242850000Y-127910000D01*
G75*
G02*
X242350000Y-128410000I-500000J0D01*
G01*
X240810000Y-128410000D01*
G75*
G02*
X240310000Y-127910000I0J500000D01*
G01*
G37*
G04 #@! TD.AperFunction*
G04 #@! TA.AperFunction,SMDPad,CuDef*
G36*
G01*
X240310000Y-130450000D02*
X240310000Y-129450000D01*
G75*
G02*
X240810000Y-128950000I500000J0D01*
G01*
X242350000Y-128950000D01*
G75*
G02*
X242850000Y-129450000I0J-500000D01*
G01*
X242850000Y-130450000D01*
G75*
G02*
X242350000Y-130950000I-500000J0D01*
G01*
X240810000Y-130950000D01*
G75*
G02*
X240310000Y-130450000I0J500000D01*
G01*
G37*
G04 #@! TD.AperFunction*
G04 #@! TA.AperFunction,SMDPad,CuDef*
G36*
G01*
X240310000Y-132990000D02*
X240310000Y-131990000D01*
G75*
G02*
X240810000Y-131490000I500000J0D01*
G01*
X242350000Y-131490000D01*
G75*
G02*
X242850000Y-131990000I0J-500000D01*
G01*
X242850000Y-132990000D01*
G75*
G02*
X242350000Y-133490000I-500000J0D01*
G01*
X240810000Y-133490000D01*
G75*
G02*
X240310000Y-132990000I0J500000D01*
G01*
G37*
G04 #@! TD.AperFunction*
G04 #@! TA.AperFunction,SMDPad,CuDef*
G36*
G01*
X240310000Y-135530000D02*
X240310000Y-134530000D01*
G75*
G02*
X240810000Y-134030000I500000J0D01*
G01*
X242350000Y-134030000D01*
G75*
G02*
X242850000Y-134530000I0J-500000D01*
G01*
X242850000Y-135530000D01*
G75*
G02*
X242350000Y-136030000I-500000J0D01*
G01*
X240810000Y-136030000D01*
G75*
G02*
X240310000Y-135530000I0J500000D01*
G01*
G37*
G04 #@! TD.AperFunction*
G04 #@! TA.AperFunction,SMDPad,CuDef*
G36*
G01*
X240310000Y-138070000D02*
X240310000Y-137070000D01*
G75*
G02*
X240810000Y-136570000I500000J0D01*
G01*
X242350000Y-136570000D01*
G75*
G02*
X242850000Y-137070000I0J-500000D01*
G01*
X242850000Y-138070000D01*
G75*
G02*
X242350000Y-138570000I-500000J0D01*
G01*
X240810000Y-138570000D01*
G75*
G02*
X240310000Y-138070000I0J500000D01*
G01*
G37*
G04 #@! TD.AperFunction*
G04 #@! TA.AperFunction,SMDPad,CuDef*
G36*
G01*
X240310000Y-140610000D02*
X240310000Y-139610000D01*
G75*
G02*
X240810000Y-139110000I500000J0D01*
G01*
X242350000Y-139110000D01*
G75*
G02*
X242850000Y-139610000I0J-500000D01*
G01*
X242850000Y-140610000D01*
G75*
G02*
X242350000Y-141110000I-500000J0D01*
G01*
X240810000Y-141110000D01*
G75*
G02*
X240310000Y-140610000I0J500000D01*
G01*
G37*
G04 #@! TD.AperFunction*
G04 #@! TA.AperFunction,SMDPad,CuDef*
G36*
G01*
X240310000Y-143150000D02*
X240310000Y-142150000D01*
G75*
G02*
X240810000Y-141650000I500000J0D01*
G01*
X242350000Y-141650000D01*
G75*
G02*
X242850000Y-142150000I0J-500000D01*
G01*
X242850000Y-143150000D01*
G75*
G02*
X242350000Y-143650000I-500000J0D01*
G01*
X240810000Y-143650000D01*
G75*
G02*
X240310000Y-143150000I0J500000D01*
G01*
G37*
G04 #@! TD.AperFunction*
G04 #@! TA.AperFunction,SMDPad,CuDef*
G36*
G01*
X240310000Y-166010000D02*
X240310000Y-165010000D01*
G75*
G02*
X240810000Y-164510000I500000J0D01*
G01*
X242350000Y-164510000D01*
G75*
G02*
X242850000Y-165010000I0J-500000D01*
G01*
X242850000Y-166010000D01*
G75*
G02*
X242350000Y-166510000I-500000J0D01*
G01*
X240810000Y-166510000D01*
G75*
G02*
X240310000Y-166010000I0J500000D01*
G01*
G37*
G04 #@! TD.AperFunction*
G04 #@! TA.AperFunction,SMDPad,CuDef*
G36*
G01*
X240310000Y-168550000D02*
X240310000Y-167550000D01*
G75*
G02*
X240810000Y-167050000I500000J0D01*
G01*
X242350000Y-167050000D01*
G75*
G02*
X242850000Y-167550000I0J-500000D01*
G01*
X242850000Y-168550000D01*
G75*
G02*
X242350000Y-169050000I-500000J0D01*
G01*
X240810000Y-169050000D01*
G75*
G02*
X240310000Y-168550000I0J500000D01*
G01*
G37*
G04 #@! TD.AperFunction*
G04 #@! TA.AperFunction,SMDPad,CuDef*
G36*
G01*
X240310000Y-171090000D02*
X240310000Y-170090000D01*
G75*
G02*
X240810000Y-169590000I500000J0D01*
G01*
X242350000Y-169590000D01*
G75*
G02*
X242850000Y-170090000I0J-500000D01*
G01*
X242850000Y-171090000D01*
G75*
G02*
X242350000Y-171590000I-500000J0D01*
G01*
X240810000Y-171590000D01*
G75*
G02*
X240310000Y-171090000I0J500000D01*
G01*
G37*
G04 #@! TD.AperFunction*
G04 #@! TA.AperFunction,SMDPad,CuDef*
G36*
G01*
X240310000Y-173630000D02*
X240310000Y-172630000D01*
G75*
G02*
X240810000Y-172130000I500000J0D01*
G01*
X242350000Y-172130000D01*
G75*
G02*
X242850000Y-172630000I0J-500000D01*
G01*
X242850000Y-173630000D01*
G75*
G02*
X242350000Y-174130000I-500000J0D01*
G01*
X240810000Y-174130000D01*
G75*
G02*
X240310000Y-173630000I0J500000D01*
G01*
G37*
G04 #@! TD.AperFunction*
G04 #@! TA.AperFunction,SMDPad,CuDef*
G36*
G01*
X240310000Y-176170000D02*
X240310000Y-175170000D01*
G75*
G02*
X240810000Y-174670000I500000J0D01*
G01*
X242350000Y-174670000D01*
G75*
G02*
X242850000Y-175170000I0J-500000D01*
G01*
X242850000Y-176170000D01*
G75*
G02*
X242350000Y-176670000I-500000J0D01*
G01*
X240810000Y-176670000D01*
G75*
G02*
X240310000Y-176170000I0J500000D01*
G01*
G37*
G04 #@! TD.AperFunction*
G04 #@! TA.AperFunction,SMDPad,CuDef*
G36*
G01*
X240310000Y-178710000D02*
X240310000Y-177710000D01*
G75*
G02*
X240810000Y-177210000I500000J0D01*
G01*
X242350000Y-177210000D01*
G75*
G02*
X242850000Y-177710000I0J-500000D01*
G01*
X242850000Y-178710000D01*
G75*
G02*
X242350000Y-179210000I-500000J0D01*
G01*
X240810000Y-179210000D01*
G75*
G02*
X240310000Y-178710000I0J500000D01*
G01*
G37*
G04 #@! TD.AperFunction*
G04 #@! TA.AperFunction,SMDPad,CuDef*
G36*
G01*
X240310000Y-181250000D02*
X240310000Y-180250000D01*
G75*
G02*
X240810000Y-179750000I500000J0D01*
G01*
X242350000Y-179750000D01*
G75*
G02*
X242850000Y-180250000I0J-500000D01*
G01*
X242850000Y-181250000D01*
G75*
G02*
X242350000Y-181750000I-500000J0D01*
G01*
X240810000Y-181750000D01*
G75*
G02*
X240310000Y-181250000I0J500000D01*
G01*
G37*
G04 #@! TD.AperFunction*
G04 #@! TA.AperFunction,SMDPad,CuDef*
G36*
G01*
X240310000Y-183790000D02*
X240310000Y-182790000D01*
G75*
G02*
X240810000Y-182290000I500000J0D01*
G01*
X242350000Y-182290000D01*
G75*
G02*
X242850000Y-182790000I0J-500000D01*
G01*
X242850000Y-183790000D01*
G75*
G02*
X242350000Y-184290000I-500000J0D01*
G01*
X240810000Y-184290000D01*
G75*
G02*
X240310000Y-183790000I0J500000D01*
G01*
G37*
G04 #@! TD.AperFunction*
G04 #@! TA.AperFunction,SMDPad,CuDef*
G36*
G01*
X240310000Y-186330000D02*
X240310000Y-185330000D01*
G75*
G02*
X240810000Y-184830000I500000J0D01*
G01*
X242350000Y-184830000D01*
G75*
G02*
X242850000Y-185330000I0J-500000D01*
G01*
X242850000Y-186330000D01*
G75*
G02*
X242350000Y-186830000I-500000J0D01*
G01*
X240810000Y-186830000D01*
G75*
G02*
X240310000Y-186330000I0J500000D01*
G01*
G37*
G04 #@! TD.AperFunction*
G04 #@! TA.AperFunction,SMDPad,CuDef*
G36*
G01*
X240310000Y-188870000D02*
X240310000Y-187870000D01*
G75*
G02*
X240810000Y-187370000I500000J0D01*
G01*
X242350000Y-187370000D01*
G75*
G02*
X242850000Y-187870000I0J-500000D01*
G01*
X242850000Y-188870000D01*
G75*
G02*
X242350000Y-189370000I-500000J0D01*
G01*
X240810000Y-189370000D01*
G75*
G02*
X240310000Y-188870000I0J500000D01*
G01*
G37*
G04 #@! TD.AperFunction*
G04 #@! TA.AperFunction,SMDPad,CuDef*
G36*
G01*
X240310000Y-191410000D02*
X240310000Y-190410000D01*
G75*
G02*
X240810000Y-189910000I500000J0D01*
G01*
X242350000Y-189910000D01*
G75*
G02*
X242850000Y-190410000I0J-500000D01*
G01*
X242850000Y-191410000D01*
G75*
G02*
X242350000Y-191910000I-500000J0D01*
G01*
X240810000Y-191910000D01*
G75*
G02*
X240310000Y-191410000I0J500000D01*
G01*
G37*
G04 #@! TD.AperFunction*
G04 #@! TA.AperFunction,SMDPad,CuDef*
G36*
G01*
X240310000Y-193950000D02*
X240310000Y-192950000D01*
G75*
G02*
X240810000Y-192450000I500000J0D01*
G01*
X242350000Y-192450000D01*
G75*
G02*
X242850000Y-192950000I0J-500000D01*
G01*
X242850000Y-193950000D01*
G75*
G02*
X242350000Y-194450000I-500000J0D01*
G01*
X240810000Y-194450000D01*
G75*
G02*
X240310000Y-193950000I0J500000D01*
G01*
G37*
G04 #@! TD.AperFunction*
G04 #@! TA.AperFunction,SMDPad,CuDef*
G36*
G01*
X240310000Y-196490000D02*
X240310000Y-195490000D01*
G75*
G02*
X240810000Y-194990000I500000J0D01*
G01*
X242350000Y-194990000D01*
G75*
G02*
X242850000Y-195490000I0J-500000D01*
G01*
X242850000Y-196490000D01*
G75*
G02*
X242350000Y-196990000I-500000J0D01*
G01*
X240810000Y-196990000D01*
G75*
G02*
X240310000Y-196490000I0J500000D01*
G01*
G37*
G04 #@! TD.AperFunction*
G04 #@! TA.AperFunction,SMDPad,CuDef*
G36*
G01*
X240310000Y-199030000D02*
X240310000Y-198030000D01*
G75*
G02*
X240810000Y-197530000I500000J0D01*
G01*
X242350000Y-197530000D01*
G75*
G02*
X242850000Y-198030000I0J-500000D01*
G01*
X242850000Y-199030000D01*
G75*
G02*
X242350000Y-199530000I-500000J0D01*
G01*
X240810000Y-199530000D01*
G75*
G02*
X240310000Y-199030000I0J500000D01*
G01*
G37*
G04 #@! TD.AperFunction*
G04 #@! TA.AperFunction,SMDPad,CuDef*
G36*
G01*
X240310000Y-201570000D02*
X240310000Y-200570000D01*
G75*
G02*
X240810000Y-200070000I500000J0D01*
G01*
X242350000Y-200070000D01*
G75*
G02*
X242850000Y-200570000I0J-500000D01*
G01*
X242850000Y-201570000D01*
G75*
G02*
X242350000Y-202070000I-500000J0D01*
G01*
X240810000Y-202070000D01*
G75*
G02*
X240310000Y-201570000I0J500000D01*
G01*
G37*
G04 #@! TD.AperFunction*
G04 #@! TA.AperFunction,SMDPad,CuDef*
G36*
G01*
X240310000Y-204110000D02*
X240310000Y-203110000D01*
G75*
G02*
X240810000Y-202610000I500000J0D01*
G01*
X242350000Y-202610000D01*
G75*
G02*
X242850000Y-203110000I0J-500000D01*
G01*
X242850000Y-204110000D01*
G75*
G02*
X242350000Y-204610000I-500000J0D01*
G01*
X240810000Y-204610000D01*
G75*
G02*
X240310000Y-204110000I0J500000D01*
G01*
G37*
G04 #@! TD.AperFunction*
G04 #@! TA.AperFunction,SMDPad,CuDef*
G36*
G01*
X240310000Y-206650000D02*
X240310000Y-205650000D01*
G75*
G02*
X240810000Y-205150000I500000J0D01*
G01*
X242350000Y-205150000D01*
G75*
G02*
X242850000Y-205650000I0J-500000D01*
G01*
X242850000Y-206650000D01*
G75*
G02*
X242350000Y-207150000I-500000J0D01*
G01*
X240810000Y-207150000D01*
G75*
G02*
X240310000Y-206650000I0J500000D01*
G01*
G37*
G04 #@! TD.AperFunction*
G04 #@! TA.AperFunction,SMDPad,CuDef*
G36*
G01*
X240310000Y-209190000D02*
X240310000Y-208190000D01*
G75*
G02*
X240810000Y-207690000I500000J0D01*
G01*
X242350000Y-207690000D01*
G75*
G02*
X242850000Y-208190000I0J-500000D01*
G01*
X242850000Y-209190000D01*
G75*
G02*
X242350000Y-209690000I-500000J0D01*
G01*
X240810000Y-209690000D01*
G75*
G02*
X240310000Y-209190000I0J500000D01*
G01*
G37*
G04 #@! TD.AperFunction*
G04 #@! TA.AperFunction,SMDPad,CuDef*
G36*
G01*
X240310000Y-211730000D02*
X240310000Y-210730000D01*
G75*
G02*
X240810000Y-210230000I500000J0D01*
G01*
X242350000Y-210230000D01*
G75*
G02*
X242850000Y-210730000I0J-500000D01*
G01*
X242850000Y-211730000D01*
G75*
G02*
X242350000Y-212230000I-500000J0D01*
G01*
X240810000Y-212230000D01*
G75*
G02*
X240310000Y-211730000I0J500000D01*
G01*
G37*
G04 #@! TD.AperFunction*
G04 #@! TA.AperFunction,SMDPad,CuDef*
G36*
G01*
X240310000Y-214270000D02*
X240310000Y-213270000D01*
G75*
G02*
X240810000Y-212770000I500000J0D01*
G01*
X242350000Y-212770000D01*
G75*
G02*
X242850000Y-213270000I0J-500000D01*
G01*
X242850000Y-214270000D01*
G75*
G02*
X242350000Y-214770000I-500000J0D01*
G01*
X240810000Y-214770000D01*
G75*
G02*
X240310000Y-214270000I0J500000D01*
G01*
G37*
G04 #@! TD.AperFunction*
G04 #@! TA.AperFunction,SMDPad,CuDef*
G36*
G01*
X280310000Y-125370000D02*
X280310000Y-124370000D01*
G75*
G02*
X280810000Y-123870000I500000J0D01*
G01*
X282350000Y-123870000D01*
G75*
G02*
X282850000Y-124370000I0J-500000D01*
G01*
X282850000Y-125370000D01*
G75*
G02*
X282350000Y-125870000I-500000J0D01*
G01*
X280810000Y-125870000D01*
G75*
G02*
X280310000Y-125370000I0J500000D01*
G01*
G37*
G04 #@! TD.AperFunction*
G04 #@! TA.AperFunction,SMDPad,CuDef*
G36*
G01*
X280310000Y-127910000D02*
X280310000Y-126910000D01*
G75*
G02*
X280810000Y-126410000I500000J0D01*
G01*
X282350000Y-126410000D01*
G75*
G02*
X282850000Y-126910000I0J-500000D01*
G01*
X282850000Y-127910000D01*
G75*
G02*
X282350000Y-128410000I-500000J0D01*
G01*
X280810000Y-128410000D01*
G75*
G02*
X280310000Y-127910000I0J500000D01*
G01*
G37*
G04 #@! TD.AperFunction*
G04 #@! TA.AperFunction,SMDPad,CuDef*
G36*
G01*
X280310000Y-130450000D02*
X280310000Y-129450000D01*
G75*
G02*
X280810000Y-128950000I500000J0D01*
G01*
X282350000Y-128950000D01*
G75*
G02*
X282850000Y-129450000I0J-500000D01*
G01*
X282850000Y-130450000D01*
G75*
G02*
X282350000Y-130950000I-500000J0D01*
G01*
X280810000Y-130950000D01*
G75*
G02*
X280310000Y-130450000I0J500000D01*
G01*
G37*
G04 #@! TD.AperFunction*
G04 #@! TA.AperFunction,SMDPad,CuDef*
G36*
G01*
X280310000Y-132990000D02*
X280310000Y-131990000D01*
G75*
G02*
X280810000Y-131490000I500000J0D01*
G01*
X282350000Y-131490000D01*
G75*
G02*
X282850000Y-131990000I0J-500000D01*
G01*
X282850000Y-132990000D01*
G75*
G02*
X282350000Y-133490000I-500000J0D01*
G01*
X280810000Y-133490000D01*
G75*
G02*
X280310000Y-132990000I0J500000D01*
G01*
G37*
G04 #@! TD.AperFunction*
G04 #@! TA.AperFunction,SMDPad,CuDef*
G36*
G01*
X280310000Y-135530000D02*
X280310000Y-134530000D01*
G75*
G02*
X280810000Y-134030000I500000J0D01*
G01*
X282350000Y-134030000D01*
G75*
G02*
X282850000Y-134530000I0J-500000D01*
G01*
X282850000Y-135530000D01*
G75*
G02*
X282350000Y-136030000I-500000J0D01*
G01*
X280810000Y-136030000D01*
G75*
G02*
X280310000Y-135530000I0J500000D01*
G01*
G37*
G04 #@! TD.AperFunction*
G04 #@! TA.AperFunction,SMDPad,CuDef*
G36*
G01*
X280310000Y-138070000D02*
X280310000Y-137070000D01*
G75*
G02*
X280810000Y-136570000I500000J0D01*
G01*
X282350000Y-136570000D01*
G75*
G02*
X282850000Y-137070000I0J-500000D01*
G01*
X282850000Y-138070000D01*
G75*
G02*
X282350000Y-138570000I-500000J0D01*
G01*
X280810000Y-138570000D01*
G75*
G02*
X280310000Y-138070000I0J500000D01*
G01*
G37*
G04 #@! TD.AperFunction*
G04 #@! TA.AperFunction,SMDPad,CuDef*
G36*
G01*
X280310000Y-140610000D02*
X280310000Y-139610000D01*
G75*
G02*
X280810000Y-139110000I500000J0D01*
G01*
X282350000Y-139110000D01*
G75*
G02*
X282850000Y-139610000I0J-500000D01*
G01*
X282850000Y-140610000D01*
G75*
G02*
X282350000Y-141110000I-500000J0D01*
G01*
X280810000Y-141110000D01*
G75*
G02*
X280310000Y-140610000I0J500000D01*
G01*
G37*
G04 #@! TD.AperFunction*
G04 #@! TA.AperFunction,SMDPad,CuDef*
G36*
G01*
X280310000Y-143150000D02*
X280310000Y-142150000D01*
G75*
G02*
X280810000Y-141650000I500000J0D01*
G01*
X282350000Y-141650000D01*
G75*
G02*
X282850000Y-142150000I0J-500000D01*
G01*
X282850000Y-143150000D01*
G75*
G02*
X282350000Y-143650000I-500000J0D01*
G01*
X280810000Y-143650000D01*
G75*
G02*
X280310000Y-143150000I0J500000D01*
G01*
G37*
G04 #@! TD.AperFunction*
G04 #@! TA.AperFunction,SMDPad,CuDef*
G36*
G01*
X280310000Y-145690000D02*
X280310000Y-144690000D01*
G75*
G02*
X280810000Y-144190000I500000J0D01*
G01*
X282350000Y-144190000D01*
G75*
G02*
X282850000Y-144690000I0J-500000D01*
G01*
X282850000Y-145690000D01*
G75*
G02*
X282350000Y-146190000I-500000J0D01*
G01*
X280810000Y-146190000D01*
G75*
G02*
X280310000Y-145690000I0J500000D01*
G01*
G37*
G04 #@! TD.AperFunction*
G04 #@! TA.AperFunction,SMDPad,CuDef*
G36*
G01*
X280310000Y-148230000D02*
X280310000Y-147230000D01*
G75*
G02*
X280810000Y-146730000I500000J0D01*
G01*
X282350000Y-146730000D01*
G75*
G02*
X282850000Y-147230000I0J-500000D01*
G01*
X282850000Y-148230000D01*
G75*
G02*
X282350000Y-148730000I-500000J0D01*
G01*
X280810000Y-148730000D01*
G75*
G02*
X280310000Y-148230000I0J500000D01*
G01*
G37*
G04 #@! TD.AperFunction*
G04 #@! TA.AperFunction,SMDPad,CuDef*
G36*
G01*
X280310000Y-150770000D02*
X280310000Y-149770000D01*
G75*
G02*
X280810000Y-149270000I500000J0D01*
G01*
X282350000Y-149270000D01*
G75*
G02*
X282850000Y-149770000I0J-500000D01*
G01*
X282850000Y-150770000D01*
G75*
G02*
X282350000Y-151270000I-500000J0D01*
G01*
X280810000Y-151270000D01*
G75*
G02*
X280310000Y-150770000I0J500000D01*
G01*
G37*
G04 #@! TD.AperFunction*
G04 #@! TA.AperFunction,SMDPad,CuDef*
G36*
G01*
X280310000Y-153310000D02*
X280310000Y-152310000D01*
G75*
G02*
X280810000Y-151810000I500000J0D01*
G01*
X282350000Y-151810000D01*
G75*
G02*
X282850000Y-152310000I0J-500000D01*
G01*
X282850000Y-153310000D01*
G75*
G02*
X282350000Y-153810000I-500000J0D01*
G01*
X280810000Y-153810000D01*
G75*
G02*
X280310000Y-153310000I0J500000D01*
G01*
G37*
G04 #@! TD.AperFunction*
G04 #@! TA.AperFunction,SMDPad,CuDef*
G36*
G01*
X280310000Y-155850000D02*
X280310000Y-154850000D01*
G75*
G02*
X280810000Y-154350000I500000J0D01*
G01*
X282350000Y-154350000D01*
G75*
G02*
X282850000Y-154850000I0J-500000D01*
G01*
X282850000Y-155850000D01*
G75*
G02*
X282350000Y-156350000I-500000J0D01*
G01*
X280810000Y-156350000D01*
G75*
G02*
X280310000Y-155850000I0J500000D01*
G01*
G37*
G04 #@! TD.AperFunction*
G04 #@! TA.AperFunction,SMDPad,CuDef*
G36*
G01*
X280310000Y-158390000D02*
X280310000Y-157390000D01*
G75*
G02*
X280810000Y-156890000I500000J0D01*
G01*
X282350000Y-156890000D01*
G75*
G02*
X282850000Y-157390000I0J-500000D01*
G01*
X282850000Y-158390000D01*
G75*
G02*
X282350000Y-158890000I-500000J0D01*
G01*
X280810000Y-158890000D01*
G75*
G02*
X280310000Y-158390000I0J500000D01*
G01*
G37*
G04 #@! TD.AperFunction*
G04 #@! TA.AperFunction,SMDPad,CuDef*
G36*
G01*
X280310000Y-160930000D02*
X280310000Y-159930000D01*
G75*
G02*
X280810000Y-159430000I500000J0D01*
G01*
X282350000Y-159430000D01*
G75*
G02*
X282850000Y-159930000I0J-500000D01*
G01*
X282850000Y-160930000D01*
G75*
G02*
X282350000Y-161430000I-500000J0D01*
G01*
X280810000Y-161430000D01*
G75*
G02*
X280310000Y-160930000I0J500000D01*
G01*
G37*
G04 #@! TD.AperFunction*
G04 #@! TA.AperFunction,SMDPad,CuDef*
G36*
G01*
X280310000Y-163470000D02*
X280310000Y-162470000D01*
G75*
G02*
X280810000Y-161970000I500000J0D01*
G01*
X282350000Y-161970000D01*
G75*
G02*
X282850000Y-162470000I0J-500000D01*
G01*
X282850000Y-163470000D01*
G75*
G02*
X282350000Y-163970000I-500000J0D01*
G01*
X280810000Y-163970000D01*
G75*
G02*
X280310000Y-163470000I0J500000D01*
G01*
G37*
G04 #@! TD.AperFunction*
G04 #@! TA.AperFunction,SMDPad,CuDef*
G36*
G01*
X280310000Y-166010000D02*
X280310000Y-165010000D01*
G75*
G02*
X280810000Y-164510000I500000J0D01*
G01*
X282350000Y-164510000D01*
G75*
G02*
X282850000Y-165010000I0J-500000D01*
G01*
X282850000Y-166010000D01*
G75*
G02*
X282350000Y-166510000I-500000J0D01*
G01*
X280810000Y-166510000D01*
G75*
G02*
X280310000Y-166010000I0J500000D01*
G01*
G37*
G04 #@! TD.AperFunction*
G04 #@! TA.AperFunction,SMDPad,CuDef*
G36*
G01*
X280310000Y-168550000D02*
X280310000Y-167550000D01*
G75*
G02*
X280810000Y-167050000I500000J0D01*
G01*
X282350000Y-167050000D01*
G75*
G02*
X282850000Y-167550000I0J-500000D01*
G01*
X282850000Y-168550000D01*
G75*
G02*
X282350000Y-169050000I-500000J0D01*
G01*
X280810000Y-169050000D01*
G75*
G02*
X280310000Y-168550000I0J500000D01*
G01*
G37*
G04 #@! TD.AperFunction*
G04 #@! TA.AperFunction,SMDPad,CuDef*
G36*
G01*
X280310000Y-171090000D02*
X280310000Y-170090000D01*
G75*
G02*
X280810000Y-169590000I500000J0D01*
G01*
X282350000Y-169590000D01*
G75*
G02*
X282850000Y-170090000I0J-500000D01*
G01*
X282850000Y-171090000D01*
G75*
G02*
X282350000Y-171590000I-500000J0D01*
G01*
X280810000Y-171590000D01*
G75*
G02*
X280310000Y-171090000I0J500000D01*
G01*
G37*
G04 #@! TD.AperFunction*
G04 #@! TA.AperFunction,SMDPad,CuDef*
G36*
G01*
X280310000Y-173630000D02*
X280310000Y-172630000D01*
G75*
G02*
X280810000Y-172130000I500000J0D01*
G01*
X282350000Y-172130000D01*
G75*
G02*
X282850000Y-172630000I0J-500000D01*
G01*
X282850000Y-173630000D01*
G75*
G02*
X282350000Y-174130000I-500000J0D01*
G01*
X280810000Y-174130000D01*
G75*
G02*
X280310000Y-173630000I0J500000D01*
G01*
G37*
G04 #@! TD.AperFunction*
G04 #@! TA.AperFunction,SMDPad,CuDef*
G36*
G01*
X280310000Y-176170000D02*
X280310000Y-175170000D01*
G75*
G02*
X280810000Y-174670000I500000J0D01*
G01*
X282350000Y-174670000D01*
G75*
G02*
X282850000Y-175170000I0J-500000D01*
G01*
X282850000Y-176170000D01*
G75*
G02*
X282350000Y-176670000I-500000J0D01*
G01*
X280810000Y-176670000D01*
G75*
G02*
X280310000Y-176170000I0J500000D01*
G01*
G37*
G04 #@! TD.AperFunction*
G04 #@! TA.AperFunction,SMDPad,CuDef*
G36*
G01*
X280310000Y-178710000D02*
X280310000Y-177710000D01*
G75*
G02*
X280810000Y-177210000I500000J0D01*
G01*
X282350000Y-177210000D01*
G75*
G02*
X282850000Y-177710000I0J-500000D01*
G01*
X282850000Y-178710000D01*
G75*
G02*
X282350000Y-179210000I-500000J0D01*
G01*
X280810000Y-179210000D01*
G75*
G02*
X280310000Y-178710000I0J500000D01*
G01*
G37*
G04 #@! TD.AperFunction*
G04 #@! TA.AperFunction,SMDPad,CuDef*
G36*
G01*
X280310000Y-181250000D02*
X280310000Y-180250000D01*
G75*
G02*
X280810000Y-179750000I500000J0D01*
G01*
X282350000Y-179750000D01*
G75*
G02*
X282850000Y-180250000I0J-500000D01*
G01*
X282850000Y-181250000D01*
G75*
G02*
X282350000Y-181750000I-500000J0D01*
G01*
X280810000Y-181750000D01*
G75*
G02*
X280310000Y-181250000I0J500000D01*
G01*
G37*
G04 #@! TD.AperFunction*
G04 #@! TA.AperFunction,SMDPad,CuDef*
G36*
G01*
X280310000Y-183790000D02*
X280310000Y-182790000D01*
G75*
G02*
X280810000Y-182290000I500000J0D01*
G01*
X282350000Y-182290000D01*
G75*
G02*
X282850000Y-182790000I0J-500000D01*
G01*
X282850000Y-183790000D01*
G75*
G02*
X282350000Y-184290000I-500000J0D01*
G01*
X280810000Y-184290000D01*
G75*
G02*
X280310000Y-183790000I0J500000D01*
G01*
G37*
G04 #@! TD.AperFunction*
G04 #@! TA.AperFunction,SMDPad,CuDef*
G36*
G01*
X280310000Y-186330000D02*
X280310000Y-185330000D01*
G75*
G02*
X280810000Y-184830000I500000J0D01*
G01*
X282350000Y-184830000D01*
G75*
G02*
X282850000Y-185330000I0J-500000D01*
G01*
X282850000Y-186330000D01*
G75*
G02*
X282350000Y-186830000I-500000J0D01*
G01*
X280810000Y-186830000D01*
G75*
G02*
X280310000Y-186330000I0J500000D01*
G01*
G37*
G04 #@! TD.AperFunction*
G04 #@! TA.AperFunction,SMDPad,CuDef*
G36*
G01*
X280310000Y-188870000D02*
X280310000Y-187870000D01*
G75*
G02*
X280810000Y-187370000I500000J0D01*
G01*
X282350000Y-187370000D01*
G75*
G02*
X282850000Y-187870000I0J-500000D01*
G01*
X282850000Y-188870000D01*
G75*
G02*
X282350000Y-189370000I-500000J0D01*
G01*
X280810000Y-189370000D01*
G75*
G02*
X280310000Y-188870000I0J500000D01*
G01*
G37*
G04 #@! TD.AperFunction*
G04 #@! TA.AperFunction,SMDPad,CuDef*
G36*
G01*
X280310000Y-191410000D02*
X280310000Y-190410000D01*
G75*
G02*
X280810000Y-189910000I500000J0D01*
G01*
X282350000Y-189910000D01*
G75*
G02*
X282850000Y-190410000I0J-500000D01*
G01*
X282850000Y-191410000D01*
G75*
G02*
X282350000Y-191910000I-500000J0D01*
G01*
X280810000Y-191910000D01*
G75*
G02*
X280310000Y-191410000I0J500000D01*
G01*
G37*
G04 #@! TD.AperFunction*
G04 #@! TA.AperFunction,SMDPad,CuDef*
G36*
G01*
X280310000Y-193950000D02*
X280310000Y-192950000D01*
G75*
G02*
X280810000Y-192450000I500000J0D01*
G01*
X282350000Y-192450000D01*
G75*
G02*
X282850000Y-192950000I0J-500000D01*
G01*
X282850000Y-193950000D01*
G75*
G02*
X282350000Y-194450000I-500000J0D01*
G01*
X280810000Y-194450000D01*
G75*
G02*
X280310000Y-193950000I0J500000D01*
G01*
G37*
G04 #@! TD.AperFunction*
G04 #@! TA.AperFunction,SMDPad,CuDef*
G36*
G01*
X280310000Y-196490000D02*
X280310000Y-195490000D01*
G75*
G02*
X280810000Y-194990000I500000J0D01*
G01*
X282350000Y-194990000D01*
G75*
G02*
X282850000Y-195490000I0J-500000D01*
G01*
X282850000Y-196490000D01*
G75*
G02*
X282350000Y-196990000I-500000J0D01*
G01*
X280810000Y-196990000D01*
G75*
G02*
X280310000Y-196490000I0J500000D01*
G01*
G37*
G04 #@! TD.AperFunction*
G04 #@! TA.AperFunction,SMDPad,CuDef*
G36*
G01*
X280310000Y-199030000D02*
X280310000Y-198030000D01*
G75*
G02*
X280810000Y-197530000I500000J0D01*
G01*
X282350000Y-197530000D01*
G75*
G02*
X282850000Y-198030000I0J-500000D01*
G01*
X282850000Y-199030000D01*
G75*
G02*
X282350000Y-199530000I-500000J0D01*
G01*
X280810000Y-199530000D01*
G75*
G02*
X280310000Y-199030000I0J500000D01*
G01*
G37*
G04 #@! TD.AperFunction*
G04 #@! TA.AperFunction,SMDPad,CuDef*
G36*
G01*
X280310000Y-201570000D02*
X280310000Y-200570000D01*
G75*
G02*
X280810000Y-200070000I500000J0D01*
G01*
X282350000Y-200070000D01*
G75*
G02*
X282850000Y-200570000I0J-500000D01*
G01*
X282850000Y-201570000D01*
G75*
G02*
X282350000Y-202070000I-500000J0D01*
G01*
X280810000Y-202070000D01*
G75*
G02*
X280310000Y-201570000I0J500000D01*
G01*
G37*
G04 #@! TD.AperFunction*
G04 #@! TA.AperFunction,SMDPad,CuDef*
G36*
G01*
X280310000Y-204110000D02*
X280310000Y-203110000D01*
G75*
G02*
X280810000Y-202610000I500000J0D01*
G01*
X282350000Y-202610000D01*
G75*
G02*
X282850000Y-203110000I0J-500000D01*
G01*
X282850000Y-204110000D01*
G75*
G02*
X282350000Y-204610000I-500000J0D01*
G01*
X280810000Y-204610000D01*
G75*
G02*
X280310000Y-204110000I0J500000D01*
G01*
G37*
G04 #@! TD.AperFunction*
G04 #@! TA.AperFunction,SMDPad,CuDef*
G36*
G01*
X280310000Y-206650000D02*
X280310000Y-205650000D01*
G75*
G02*
X280810000Y-205150000I500000J0D01*
G01*
X282350000Y-205150000D01*
G75*
G02*
X282850000Y-205650000I0J-500000D01*
G01*
X282850000Y-206650000D01*
G75*
G02*
X282350000Y-207150000I-500000J0D01*
G01*
X280810000Y-207150000D01*
G75*
G02*
X280310000Y-206650000I0J500000D01*
G01*
G37*
G04 #@! TD.AperFunction*
G04 #@! TA.AperFunction,SMDPad,CuDef*
G36*
G01*
X280310000Y-209190000D02*
X280310000Y-208190000D01*
G75*
G02*
X280810000Y-207690000I500000J0D01*
G01*
X282350000Y-207690000D01*
G75*
G02*
X282850000Y-208190000I0J-500000D01*
G01*
X282850000Y-209190000D01*
G75*
G02*
X282350000Y-209690000I-500000J0D01*
G01*
X280810000Y-209690000D01*
G75*
G02*
X280310000Y-209190000I0J500000D01*
G01*
G37*
G04 #@! TD.AperFunction*
G04 #@! TA.AperFunction,SMDPad,CuDef*
G36*
G01*
X280310000Y-211730000D02*
X280310000Y-210730000D01*
G75*
G02*
X280810000Y-210230000I500000J0D01*
G01*
X282350000Y-210230000D01*
G75*
G02*
X282850000Y-210730000I0J-500000D01*
G01*
X282850000Y-211730000D01*
G75*
G02*
X282350000Y-212230000I-500000J0D01*
G01*
X280810000Y-212230000D01*
G75*
G02*
X280310000Y-211730000I0J500000D01*
G01*
G37*
G04 #@! TD.AperFunction*
G04 #@! TA.AperFunction,SMDPad,CuDef*
G36*
G01*
X280310000Y-214270000D02*
X280310000Y-213270000D01*
G75*
G02*
X280810000Y-212770000I500000J0D01*
G01*
X282350000Y-212770000D01*
G75*
G02*
X282850000Y-213270000I0J-500000D01*
G01*
X282850000Y-214270000D01*
G75*
G02*
X282350000Y-214770000I-500000J0D01*
G01*
X280810000Y-214770000D01*
G75*
G02*
X280310000Y-214270000I0J500000D01*
G01*
G37*
G04 #@! TD.AperFunction*
G04 #@! TA.AperFunction,SMDPad,CuDef*
G36*
G01*
X240310000Y-121235000D02*
X240310000Y-119965000D01*
G75*
G02*
X240945000Y-119330000I635000J0D01*
G01*
X242215000Y-119330000D01*
G75*
G02*
X242850000Y-119965000I0J-635000D01*
G01*
X242850000Y-121235000D01*
G75*
G02*
X242215000Y-121870000I-635000J0D01*
G01*
X240945000Y-121870000D01*
G75*
G02*
X240310000Y-121235000I0J635000D01*
G01*
G37*
G04 #@! TD.AperFunction*
G04 #@! TA.AperFunction,SMDPad,CuDef*
G36*
G01*
X280310000Y-121235000D02*
X280310000Y-119965000D01*
G75*
G02*
X280945000Y-119330000I635000J0D01*
G01*
X282215000Y-119330000D01*
G75*
G02*
X282850000Y-119965000I0J-635000D01*
G01*
X282850000Y-121235000D01*
G75*
G02*
X282215000Y-121870000I-635000J0D01*
G01*
X280945000Y-121870000D01*
G75*
G02*
X280310000Y-121235000I0J635000D01*
G01*
G37*
G04 #@! TD.AperFunction*
G04 #@! TA.AperFunction,SMDPad,CuDef*
G36*
G01*
X240310000Y-218675000D02*
X240310000Y-217405000D01*
G75*
G02*
X240945000Y-216770000I635000J0D01*
G01*
X242215000Y-216770000D01*
G75*
G02*
X242850000Y-217405000I0J-635000D01*
G01*
X242850000Y-218675000D01*
G75*
G02*
X242215000Y-219310000I-635000J0D01*
G01*
X240945000Y-219310000D01*
G75*
G02*
X240310000Y-218675000I0J635000D01*
G01*
G37*
G04 #@! TD.AperFunction*
G04 #@! TA.AperFunction,SMDPad,CuDef*
G36*
G01*
X280310000Y-218675000D02*
X280310000Y-217405000D01*
G75*
G02*
X280945000Y-216770000I635000J0D01*
G01*
X282215000Y-216770000D01*
G75*
G02*
X282850000Y-217405000I0J-635000D01*
G01*
X282850000Y-218675000D01*
G75*
G02*
X282215000Y-219310000I-635000J0D01*
G01*
X280945000Y-219310000D01*
G75*
G02*
X280310000Y-218675000I0J635000D01*
G01*
G37*
G04 #@! TD.AperFunction*
G04 #@! TA.AperFunction,SMDPad,CuDef*
G36*
G01*
X389420000Y-265700000D02*
X389420000Y-264700000D01*
G75*
G02*
X389920000Y-264200000I500000J0D01*
G01*
X391460000Y-264200000D01*
G75*
G02*
X391960000Y-264700000I0J-500000D01*
G01*
X391960000Y-265700000D01*
G75*
G02*
X391460000Y-266200000I-500000J0D01*
G01*
X389920000Y-266200000D01*
G75*
G02*
X389420000Y-265700000I0J500000D01*
G01*
G37*
G04 #@! TD.AperFunction*
G04 #@! TA.AperFunction,SMDPad,CuDef*
G36*
G01*
X389420000Y-270780000D02*
X389420000Y-269780000D01*
G75*
G02*
X389920000Y-269280000I500000J0D01*
G01*
X391460000Y-269280000D01*
G75*
G02*
X391960000Y-269780000I0J-500000D01*
G01*
X391960000Y-270780000D01*
G75*
G02*
X391460000Y-271280000I-500000J0D01*
G01*
X389920000Y-271280000D01*
G75*
G02*
X389420000Y-270780000I0J500000D01*
G01*
G37*
G04 #@! TD.AperFunction*
G04 #@! TA.AperFunction,SMDPad,CuDef*
G36*
G01*
X389420000Y-273320000D02*
X389420000Y-272320000D01*
G75*
G02*
X389920000Y-271820000I500000J0D01*
G01*
X391460000Y-271820000D01*
G75*
G02*
X391960000Y-272320000I0J-500000D01*
G01*
X391960000Y-273320000D01*
G75*
G02*
X391460000Y-273820000I-500000J0D01*
G01*
X389920000Y-273820000D01*
G75*
G02*
X389420000Y-273320000I0J500000D01*
G01*
G37*
G04 #@! TD.AperFunction*
G04 #@! TA.AperFunction,SMDPad,CuDef*
G36*
G01*
X389420000Y-275860000D02*
X389420000Y-274860000D01*
G75*
G02*
X389920000Y-274360000I500000J0D01*
G01*
X391460000Y-274360000D01*
G75*
G02*
X391960000Y-274860000I0J-500000D01*
G01*
X391960000Y-275860000D01*
G75*
G02*
X391460000Y-276360000I-500000J0D01*
G01*
X389920000Y-276360000D01*
G75*
G02*
X389420000Y-275860000I0J500000D01*
G01*
G37*
G04 #@! TD.AperFunction*
G04 #@! TA.AperFunction,SMDPad,CuDef*
G36*
G01*
X389420000Y-278400000D02*
X389420000Y-277400000D01*
G75*
G02*
X389920000Y-276900000I500000J0D01*
G01*
X391460000Y-276900000D01*
G75*
G02*
X391960000Y-277400000I0J-500000D01*
G01*
X391960000Y-278400000D01*
G75*
G02*
X391460000Y-278900000I-500000J0D01*
G01*
X389920000Y-278900000D01*
G75*
G02*
X389420000Y-278400000I0J500000D01*
G01*
G37*
G04 #@! TD.AperFunction*
G04 #@! TA.AperFunction,SMDPad,CuDef*
G36*
G01*
X389420000Y-280940000D02*
X389420000Y-279940000D01*
G75*
G02*
X389920000Y-279440000I500000J0D01*
G01*
X391460000Y-279440000D01*
G75*
G02*
X391960000Y-279940000I0J-500000D01*
G01*
X391960000Y-280940000D01*
G75*
G02*
X391460000Y-281440000I-500000J0D01*
G01*
X389920000Y-281440000D01*
G75*
G02*
X389420000Y-280940000I0J500000D01*
G01*
G37*
G04 #@! TD.AperFunction*
G04 #@! TA.AperFunction,SMDPad,CuDef*
G36*
G01*
X389420000Y-283480000D02*
X389420000Y-282480000D01*
G75*
G02*
X389920000Y-281980000I500000J0D01*
G01*
X391460000Y-281980000D01*
G75*
G02*
X391960000Y-282480000I0J-500000D01*
G01*
X391960000Y-283480000D01*
G75*
G02*
X391460000Y-283980000I-500000J0D01*
G01*
X389920000Y-283980000D01*
G75*
G02*
X389420000Y-283480000I0J500000D01*
G01*
G37*
G04 #@! TD.AperFunction*
G04 #@! TA.AperFunction,SMDPad,CuDef*
G36*
G01*
X389420000Y-286020000D02*
X389420000Y-285020000D01*
G75*
G02*
X389920000Y-284520000I500000J0D01*
G01*
X391460000Y-284520000D01*
G75*
G02*
X391960000Y-285020000I0J-500000D01*
G01*
X391960000Y-286020000D01*
G75*
G02*
X391460000Y-286520000I-500000J0D01*
G01*
X389920000Y-286520000D01*
G75*
G02*
X389420000Y-286020000I0J500000D01*
G01*
G37*
G04 #@! TD.AperFunction*
G04 #@! TA.AperFunction,SMDPad,CuDef*
G36*
G01*
X389420000Y-288560000D02*
X389420000Y-287560000D01*
G75*
G02*
X389920000Y-287060000I500000J0D01*
G01*
X391460000Y-287060000D01*
G75*
G02*
X391960000Y-287560000I0J-500000D01*
G01*
X391960000Y-288560000D01*
G75*
G02*
X391460000Y-289060000I-500000J0D01*
G01*
X389920000Y-289060000D01*
G75*
G02*
X389420000Y-288560000I0J500000D01*
G01*
G37*
G04 #@! TD.AperFunction*
G04 #@! TA.AperFunction,SMDPad,CuDef*
G36*
G01*
X389420000Y-291100000D02*
X389420000Y-290100000D01*
G75*
G02*
X389920000Y-289600000I500000J0D01*
G01*
X391460000Y-289600000D01*
G75*
G02*
X391960000Y-290100000I0J-500000D01*
G01*
X391960000Y-291100000D01*
G75*
G02*
X391460000Y-291600000I-500000J0D01*
G01*
X389920000Y-291600000D01*
G75*
G02*
X389420000Y-291100000I0J500000D01*
G01*
G37*
G04 #@! TD.AperFunction*
G04 #@! TA.AperFunction,SMDPad,CuDef*
G36*
G01*
X411420000Y-265700000D02*
X411420000Y-264700000D01*
G75*
G02*
X411920000Y-264200000I500000J0D01*
G01*
X413460000Y-264200000D01*
G75*
G02*
X413960000Y-264700000I0J-500000D01*
G01*
X413960000Y-265700000D01*
G75*
G02*
X413460000Y-266200000I-500000J0D01*
G01*
X411920000Y-266200000D01*
G75*
G02*
X411420000Y-265700000I0J500000D01*
G01*
G37*
G04 #@! TD.AperFunction*
G04 #@! TA.AperFunction,SMDPad,CuDef*
G36*
G01*
X411420000Y-268240000D02*
X411420000Y-267240000D01*
G75*
G02*
X411920000Y-266740000I500000J0D01*
G01*
X413460000Y-266740000D01*
G75*
G02*
X413960000Y-267240000I0J-500000D01*
G01*
X413960000Y-268240000D01*
G75*
G02*
X413460000Y-268740000I-500000J0D01*
G01*
X411920000Y-268740000D01*
G75*
G02*
X411420000Y-268240000I0J500000D01*
G01*
G37*
G04 #@! TD.AperFunction*
G04 #@! TA.AperFunction,SMDPad,CuDef*
G36*
G01*
X411420000Y-270780000D02*
X411420000Y-269780000D01*
G75*
G02*
X411920000Y-269280000I500000J0D01*
G01*
X413460000Y-269280000D01*
G75*
G02*
X413960000Y-269780000I0J-500000D01*
G01*
X413960000Y-270780000D01*
G75*
G02*
X413460000Y-271280000I-500000J0D01*
G01*
X411920000Y-271280000D01*
G75*
G02*
X411420000Y-270780000I0J500000D01*
G01*
G37*
G04 #@! TD.AperFunction*
G04 #@! TA.AperFunction,SMDPad,CuDef*
G36*
G01*
X411420000Y-273320000D02*
X411420000Y-272320000D01*
G75*
G02*
X411920000Y-271820000I500000J0D01*
G01*
X413460000Y-271820000D01*
G75*
G02*
X413960000Y-272320000I0J-500000D01*
G01*
X413960000Y-273320000D01*
G75*
G02*
X413460000Y-273820000I-500000J0D01*
G01*
X411920000Y-273820000D01*
G75*
G02*
X411420000Y-273320000I0J500000D01*
G01*
G37*
G04 #@! TD.AperFunction*
G04 #@! TA.AperFunction,SMDPad,CuDef*
G36*
G01*
X411420000Y-275860000D02*
X411420000Y-274860000D01*
G75*
G02*
X411920000Y-274360000I500000J0D01*
G01*
X413460000Y-274360000D01*
G75*
G02*
X413960000Y-274860000I0J-500000D01*
G01*
X413960000Y-275860000D01*
G75*
G02*
X413460000Y-276360000I-500000J0D01*
G01*
X411920000Y-276360000D01*
G75*
G02*
X411420000Y-275860000I0J500000D01*
G01*
G37*
G04 #@! TD.AperFunction*
G04 #@! TA.AperFunction,SMDPad,CuDef*
G36*
G01*
X411420000Y-278400000D02*
X411420000Y-277400000D01*
G75*
G02*
X411920000Y-276900000I500000J0D01*
G01*
X413460000Y-276900000D01*
G75*
G02*
X413960000Y-277400000I0J-500000D01*
G01*
X413960000Y-278400000D01*
G75*
G02*
X413460000Y-278900000I-500000J0D01*
G01*
X411920000Y-278900000D01*
G75*
G02*
X411420000Y-278400000I0J500000D01*
G01*
G37*
G04 #@! TD.AperFunction*
G04 #@! TA.AperFunction,SMDPad,CuDef*
G36*
G01*
X411420000Y-280940000D02*
X411420000Y-279940000D01*
G75*
G02*
X411920000Y-279440000I500000J0D01*
G01*
X413460000Y-279440000D01*
G75*
G02*
X413960000Y-279940000I0J-500000D01*
G01*
X413960000Y-280940000D01*
G75*
G02*
X413460000Y-281440000I-500000J0D01*
G01*
X411920000Y-281440000D01*
G75*
G02*
X411420000Y-280940000I0J500000D01*
G01*
G37*
G04 #@! TD.AperFunction*
G04 #@! TA.AperFunction,SMDPad,CuDef*
G36*
G01*
X411420000Y-283480000D02*
X411420000Y-282480000D01*
G75*
G02*
X411920000Y-281980000I500000J0D01*
G01*
X413460000Y-281980000D01*
G75*
G02*
X413960000Y-282480000I0J-500000D01*
G01*
X413960000Y-283480000D01*
G75*
G02*
X413460000Y-283980000I-500000J0D01*
G01*
X411920000Y-283980000D01*
G75*
G02*
X411420000Y-283480000I0J500000D01*
G01*
G37*
G04 #@! TD.AperFunction*
G04 #@! TA.AperFunction,SMDPad,CuDef*
G36*
G01*
X411420000Y-286020000D02*
X411420000Y-285020000D01*
G75*
G02*
X411920000Y-284520000I500000J0D01*
G01*
X413460000Y-284520000D01*
G75*
G02*
X413960000Y-285020000I0J-500000D01*
G01*
X413960000Y-286020000D01*
G75*
G02*
X413460000Y-286520000I-500000J0D01*
G01*
X411920000Y-286520000D01*
G75*
G02*
X411420000Y-286020000I0J500000D01*
G01*
G37*
G04 #@! TD.AperFunction*
G04 #@! TA.AperFunction,SMDPad,CuDef*
G36*
G01*
X411420000Y-288560000D02*
X411420000Y-287560000D01*
G75*
G02*
X411920000Y-287060000I500000J0D01*
G01*
X413460000Y-287060000D01*
G75*
G02*
X413960000Y-287560000I0J-500000D01*
G01*
X413960000Y-288560000D01*
G75*
G02*
X413460000Y-289060000I-500000J0D01*
G01*
X411920000Y-289060000D01*
G75*
G02*
X411420000Y-288560000I0J500000D01*
G01*
G37*
G04 #@! TD.AperFunction*
G04 #@! TA.AperFunction,SMDPad,CuDef*
G36*
G01*
X411420000Y-291100000D02*
X411420000Y-290100000D01*
G75*
G02*
X411920000Y-289600000I500000J0D01*
G01*
X413460000Y-289600000D01*
G75*
G02*
X413960000Y-290100000I0J-500000D01*
G01*
X413960000Y-291100000D01*
G75*
G02*
X413460000Y-291600000I-500000J0D01*
G01*
X411920000Y-291600000D01*
G75*
G02*
X411420000Y-291100000I0J500000D01*
G01*
G37*
G04 #@! TD.AperFunction*
G04 #@! TA.AperFunction,SMDPad,CuDef*
G36*
G01*
X389420000Y-261565000D02*
X389420000Y-260295000D01*
G75*
G02*
X390055000Y-259660000I635000J0D01*
G01*
X391325000Y-259660000D01*
G75*
G02*
X391960000Y-260295000I0J-635000D01*
G01*
X391960000Y-261565000D01*
G75*
G02*
X391325000Y-262200000I-635000J0D01*
G01*
X390055000Y-262200000D01*
G75*
G02*
X389420000Y-261565000I0J635000D01*
G01*
G37*
G04 #@! TD.AperFunction*
G04 #@! TA.AperFunction,SMDPad,CuDef*
G36*
G01*
X411420000Y-261565000D02*
X411420000Y-260295000D01*
G75*
G02*
X412055000Y-259660000I635000J0D01*
G01*
X413325000Y-259660000D01*
G75*
G02*
X413960000Y-260295000I0J-635000D01*
G01*
X413960000Y-261565000D01*
G75*
G02*
X413325000Y-262200000I-635000J0D01*
G01*
X412055000Y-262200000D01*
G75*
G02*
X411420000Y-261565000I0J635000D01*
G01*
G37*
G04 #@! TD.AperFunction*
G04 #@! TA.AperFunction,SMDPad,CuDef*
G36*
G01*
X389420000Y-295505000D02*
X389420000Y-294235000D01*
G75*
G02*
X390055000Y-293600000I635000J0D01*
G01*
X391325000Y-293600000D01*
G75*
G02*
X391960000Y-294235000I0J-635000D01*
G01*
X391960000Y-295505000D01*
G75*
G02*
X391325000Y-296140000I-635000J0D01*
G01*
X390055000Y-296140000D01*
G75*
G02*
X389420000Y-295505000I0J635000D01*
G01*
G37*
G04 #@! TD.AperFunction*
G04 #@! TA.AperFunction,SMDPad,CuDef*
G36*
G01*
X411420000Y-295505000D02*
X411420000Y-294235000D01*
G75*
G02*
X412055000Y-293600000I635000J0D01*
G01*
X413325000Y-293600000D01*
G75*
G02*
X413960000Y-294235000I0J-635000D01*
G01*
X413960000Y-295505000D01*
G75*
G02*
X413325000Y-296140000I-635000J0D01*
G01*
X412055000Y-296140000D01*
G75*
G02*
X411420000Y-295505000I0J635000D01*
G01*
G37*
G04 #@! TD.AperFunction*
X125110000Y-107800000D03*
D12*
X137880000Y-293885000D02*
X137180000Y-294585000D01*
X137910000Y-113095000D02*
X137910000Y-116725000D01*
X134260000Y-296160000D02*
X132690000Y-294590000D01*
X137180000Y-296160000D02*
X134260000Y-296160000D01*
X132720000Y-114890000D02*
X135155000Y-114890000D01*
X135155000Y-114890000D02*
X136950000Y-113095000D01*
M02*
