G04 #@! TF.GenerationSoftware,KiCad,Pcbnew,9.0.1+1*
G04 #@! TF.CreationDate,2025-11-12T15:34:54+00:00*
G04 #@! TF.ProjectId,main-carrier,6d61696e-2d63-4617-9272-6965722e6b69,v1.0*
G04 #@! TF.SameCoordinates,Original*
G04 #@! TF.FileFunction,Profile,NP*
%FSLAX46Y46*%
G04 Gerber Fmt 4.6, Leading zero omitted, Abs format (unit mm)*
G04 Created by KiCad (PCBNEW 9.0.1+1) date 2025-11-12 15:34:54*
%MOMM*%
%LPD*%
G01*
G04 APERTURE LIST*
G04 #@! TA.AperFunction,Profile*
%ADD10C,0.050000*%
G04 #@! TD*
G04 APERTURE END LIST*
D10*
X120670000Y-103370000D02*
X432470000Y-103370000D01*
X432470000Y-306550000D01*
X120670000Y-306550000D01*
X120670000Y-103370000D01*
X323570001Y-125189999D02*
X366370001Y-125189999D01*
X366370001Y-191509999D01*
X323570001Y-191509999D01*
X323570001Y-125189999D01*
X342970001Y-124059999D02*
X346970001Y-124059999D01*
X346970001Y-120059999D01*
X342970001Y-120059999D01*
X342970001Y-124059999D01*
X342970001Y-192639999D02*
X346970001Y-192639999D01*
X346970001Y-196639999D01*
X342970001Y-196639999D01*
X342970001Y-192639999D01*
X356490000Y-266329999D02*
X372490000Y-266329999D01*
X372490000Y-286929999D01*
X356490000Y-286929999D01*
X356490000Y-266329999D01*
X362490000Y-265199999D02*
X366490000Y-265199999D01*
X366490000Y-261199999D01*
X362490000Y-261199999D01*
X362490000Y-265199999D01*
X362490000Y-288059999D02*
X366490000Y-288059999D01*
X366490000Y-292059999D01*
X362490000Y-292059999D01*
X362490000Y-288059999D01*
X381250000Y-125270000D02*
X428250000Y-125270000D01*
X428250000Y-181430000D01*
X381250000Y-181430000D01*
X381250000Y-125270000D01*
X402750000Y-124140000D02*
X406750000Y-124140000D01*
X406750000Y-120140000D01*
X402750000Y-120140000D01*
X402750000Y-124140000D01*
X402750000Y-182560000D02*
X406750000Y-182560000D01*
X406750000Y-186560000D01*
X402750000Y-186560000D01*
X402750000Y-182560000D01*
X391970000Y-209089999D02*
X415970000Y-209089999D01*
X415970000Y-234769999D01*
X391970000Y-234769999D01*
X391970000Y-209089999D01*
X401970000Y-207959999D02*
X405970000Y-207959999D01*
X405970000Y-203959999D01*
X401970000Y-203959999D01*
X401970000Y-207959999D01*
X401970000Y-235899999D02*
X405970000Y-235899999D01*
X405970000Y-239899999D01*
X401970000Y-239899999D01*
X401970000Y-235899999D01*
X184970001Y-200150001D02*
X224970001Y-200150001D01*
X224970001Y-246150001D01*
X184970001Y-246150001D01*
X184970001Y-200150001D01*
X202970001Y-199020001D02*
X206970001Y-199020001D01*
X206970001Y-195020001D01*
X202970001Y-195020001D01*
X202970001Y-199020001D01*
X202970001Y-247280001D02*
X206970001Y-247280001D01*
X206970001Y-251280001D01*
X202970001Y-251280001D01*
X202970001Y-247280001D01*
X247000000Y-262470000D02*
X257000000Y-262470000D01*
X257000000Y-270370000D01*
X247000000Y-270370000D01*
X247000000Y-262470000D01*
X250000000Y-261340000D02*
X254000000Y-261340000D01*
X254000000Y-257340000D01*
X250000000Y-257340000D01*
X250000000Y-261340000D01*
X250000000Y-271500000D02*
X254000000Y-271500000D01*
X254000000Y-275500000D01*
X250000000Y-275500000D01*
X250000000Y-271500000D01*
X245400000Y-233720000D02*
X260400000Y-233720000D01*
X260400000Y-241620000D01*
X245400000Y-241620000D01*
X245400000Y-233720000D01*
X250900000Y-232590000D02*
X254900000Y-232590000D01*
X254900000Y-228590000D01*
X250900000Y-228590000D01*
X250900000Y-232590000D01*
X250900000Y-242750000D02*
X254900000Y-242750000D01*
X254900000Y-246750000D01*
X250900000Y-246750000D01*
X250900000Y-242750000D01*
X128770001Y-126400003D02*
X170770001Y-126400003D01*
X170770001Y-253680001D01*
X128770001Y-253680001D01*
X128770001Y-126400003D01*
X147770001Y-125270002D02*
X151770001Y-125270002D01*
X151770001Y-121270002D01*
X147770001Y-121270002D01*
X147770001Y-125270002D01*
X147770001Y-254810002D02*
X151770001Y-254810002D01*
X151770001Y-258810002D01*
X147770001Y-258810002D01*
X147770001Y-254810002D01*
X323570000Y-254900000D02*
X338570000Y-254900000D01*
X338570000Y-267880000D01*
X323570000Y-267880000D01*
X323570000Y-254900000D01*
X329070000Y-253770000D02*
X333070000Y-253770000D01*
X333070000Y-249770000D01*
X329070000Y-249770000D01*
X329070000Y-253770000D01*
X329070000Y-269010000D02*
X333070000Y-269010000D01*
X333070000Y-273010000D01*
X329070000Y-273010000D01*
X329070000Y-269010000D01*
X184970001Y-126400001D02*
X224970001Y-126400001D01*
X224970001Y-182560001D01*
X184970001Y-182560001D01*
X184970001Y-126400001D01*
X202970001Y-125270001D02*
X206970001Y-125270001D01*
X206970001Y-121270001D01*
X202970001Y-121270001D01*
X202970001Y-125270001D01*
X202970001Y-183690001D02*
X206970001Y-183690001D01*
X206970001Y-187690001D01*
X202970001Y-187690001D01*
X202970001Y-183690001D01*
X357770000Y-209089999D02*
X377770000Y-209089999D01*
X377770000Y-234769999D01*
X357770000Y-234769999D01*
X357770000Y-209089999D01*
X365770000Y-207959999D02*
X369770000Y-207959999D01*
X369770000Y-203959999D01*
X365770000Y-203959999D01*
X365770000Y-207959999D01*
X365770000Y-235899999D02*
X369770000Y-235899999D01*
X369770000Y-239899999D01*
X365770000Y-239899999D01*
X365770000Y-235899999D01*
X323570000Y-209090000D02*
X343570000Y-209090000D01*
X343570000Y-237310000D01*
X323570000Y-237310000D01*
X323570000Y-209090000D01*
X331570000Y-207960000D02*
X335570000Y-207960000D01*
X335570000Y-203960000D01*
X331570000Y-203960000D01*
X331570000Y-207960000D01*
X331570000Y-238440000D02*
X335570000Y-238440000D01*
X335570000Y-242440000D01*
X331570000Y-242440000D01*
X331570000Y-238440000D01*
X279190000Y-257220000D02*
X294190000Y-257220000D01*
X294190000Y-272740000D01*
X279190000Y-272740000D01*
X279190000Y-257220000D01*
X284690000Y-256090000D02*
X288690000Y-256090000D01*
X288690000Y-252090000D01*
X284690000Y-252090000D01*
X284690000Y-256090000D01*
X284690000Y-273870000D02*
X288690000Y-273870000D01*
X288690000Y-277870000D01*
X284690000Y-277870000D01*
X284690000Y-273870000D01*
X241580000Y-126000000D02*
X281580000Y-126000000D01*
X281580000Y-212640000D01*
X241580000Y-212640000D01*
X241580000Y-126000000D01*
X259580000Y-124870000D02*
X263580000Y-124870000D01*
X263580000Y-120870000D01*
X259580000Y-120870000D01*
X259580000Y-124870000D01*
X259580000Y-213770000D02*
X263580000Y-213770000D01*
X263580000Y-217770000D01*
X259580000Y-217770000D01*
X259580000Y-213770000D01*
X390690000Y-266330000D02*
X412690000Y-266330000D01*
X412690000Y-289470000D01*
X390690000Y-289470000D01*
X390690000Y-266330000D01*
X399690000Y-265200000D02*
X403690000Y-265200000D01*
X403690000Y-261200000D01*
X399690000Y-261200000D01*
X399690000Y-265200000D01*
X399690000Y-290600000D02*
X403690000Y-290600000D01*
X403690000Y-294600000D01*
X399690000Y-294600000D01*
X399690000Y-290600000D01*
M02*
