M48
; DRILL file {KiCad 9.0.1+1} date 2025-11-25T11:40:41+0000
; FORMAT={-:-/ absolute / inch / decimal}
; #@! TF.CreationDate,2025-11-25T11:40:41+00:00
; #@! TF.GenerationSoftware,Kicad,Pcbnew,9.0.1+1
; #@! TF.FileFunction,Plated,1,4,PTH
FMAT,2
INCH
; #@! TA.AperFunction,Plated,PTH,ViaDrill
T1C0.0118
; #@! TA.AperFunction,Plated,PTH,ViaDrill
T2C0.0157
; #@! TA.AperFunction,Plated,PTH,ViaDrill
T3C0.0197
; #@! TA.AperFunction,Plated,PTH,ComponentDrill
T4C0.0394
; #@! TA.AperFunction,Plated,PTH,ComponentDrill
T5C0.1181
%
G90
G05
T1
X8.5181Y-7.4575
T2
X4.9217Y-10.1697
X4.9992Y-7.9988
X5.0Y-9.5638
X5.3996Y-9.574
X5.4815Y-10.3949
X5.6878Y-9.4929
X5.7004Y-7.9839
X5.7551Y-10.9709
X5.7874Y-9.4906
X5.8157Y-10.9146
X5.8461Y-11.0457
X5.8823Y-11.1323
X5.8921Y-9.4906
X5.9346Y-9.5693
X5.9618Y-10.9811
X5.9988Y-9.4858
X6.0929Y-10.6854
X6.1469Y-10.8232
X6.1969Y-7.9949
X6.2555Y-9.5378
X6.3012Y-9.5016
X6.4004Y-7.9988
X6.4996Y-9.4941
X6.5976Y-9.4929
X6.7004Y-9.4961
X6.8008Y-9.4949
X6.8366Y-9.5669
X6.9Y-9.4957
X6.9425Y-6.0118
X7.1563Y-10.9866
X7.1976Y-9.5425
X7.2449Y-10.6827
X7.3083Y-10.6685
X7.348Y-10.674
X7.4457Y-11.1524
X7.5677Y-9.5323
X7.7024Y-9.5685
X7.7323Y-9.1772
X7.898Y-9.4902
X8.0004Y-9.487
X8.1504Y-11.3783
X8.1701Y-6.8382
X8.2031Y-10.2476
X8.2043Y-7.9972
X8.2783Y-10.0567
X8.2992Y-8.1213
X8.4039Y-7.9906
X8.4283Y-10.039
X8.5008Y-9.5693
X8.5602Y-7.4815
X8.6626Y-6.6539
X8.7008Y-7.4461
X8.9902Y-10.4909
X9.0122Y-7.5441
X9.0622Y-6.9693
X9.1689Y-8.4488
X9.1933Y-8.6421
X9.1953Y-8.948
X9.2894Y-10.0425
X9.6807Y-10.1071
X9.7744Y-10.3213
X9.7945Y-8.6484
X9.8075Y-10.1862
X9.8413Y-11.1126
X9.8736Y-11.1496
X9.9709Y-11.1169
X10.1827Y-4.7445
X10.2362Y-7.4327
X10.2606Y-4.8886
X10.3264Y-10.4181
X10.4591Y-8.2354
X10.4724Y-9.0417
X10.5563Y-9.8992
X10.6402Y-6.8622
X10.711Y-9.6992
X10.7122Y-9.7488
X10.7161Y-10.1941
X10.8209Y-7.0567
X10.8921Y-9.7535
X10.9307Y-9.652
X11.0252Y-8.1878
X11.0839Y-9.6945
X11.2071Y-9.7969
X11.2114Y-9.7
X11.2138Y-9.75
X11.2154Y-10.9205
X11.2209Y-10.8496
X11.278Y-9.624
X11.3283Y-4.4071
X11.398Y-4.4232
X11.4835Y-11.5161
X11.485Y-10.8091
X11.8591Y-11.5146
X12.0413Y-10.8098
X12.1079Y-9.926
X12.1264Y-6.6598
X12.1303Y-6.7579
X12.1354Y-6.8787
X12.1689Y-8.8327
X12.2622Y-6.8705
X12.2705Y-5.8087
X12.2803Y-6.7579
X12.2835Y-4.6055
X12.3055Y-5.1614
X12.3224Y-4.9654
X12.3484Y-6.6646
X12.5102Y-5.5539
X12.5165Y-5.3606
X12.5205Y-5.4606
X12.5366Y-4.365
X12.5736Y-8.1941
X12.6008Y-5.5528
X12.6055Y-4.3654
X12.6504Y-5.452
X12.8154Y-5.2587
X12.8583Y-5.1579
X12.8657Y-4.7598
X12.9063Y-10.0043
X12.9083Y-9.9413
X13.0606Y-6.1583
X13.0642Y-6.2602
X13.0713Y-9.985
X13.1091Y-6.7327
X13.1185Y-11.5524
X13.1571Y-7.1098
X13.1583Y-6.6138
X13.2047Y-7.1039
X13.211Y-6.6091
X13.226Y-8.8988
X13.261Y-6.6102
X13.6579Y-7.1028
X13.6654Y-9.3425
X13.9453Y-9.928
X14.0012Y-8.1244
X14.0323Y-8.0268
X14.2295Y-11.5811
X14.3803Y-9.2795
X14.5622Y-9.3697
X14.6323Y-6.6795
X14.6339Y-6.8087
X14.6346Y-6.2563
X14.6382Y-6.1598
X14.6787Y-6.811
X14.6799Y-6.674
X14.7268Y-6.8197
X14.7413Y-6.6776
X14.7862Y-6.661
X14.8244Y-6.6079
X14.8264Y-6.8043
X14.8394Y-11.1713
X14.8598Y-10.4787
X14.8791Y-6.5539
X14.8843Y-6.7728
X14.9185Y-6.7378
X14.935Y-6.5134
X14.9406Y-6.7028
X14.9713Y-6.4709
X14.9748Y-6.6756
X15.1622Y-5.5012
X15.5508Y-6.4031
X15.5571Y-6.1583
X15.6035Y-6.222
X15.9173Y-4.5988
X15.9181Y-4.7
X15.9228Y-5.0004
X16.1228Y-4.4012
X16.1299Y-5.4941
X16.1575Y-5.3783
X16.1862Y-10.0098
X16.2783Y-5.3996
X16.2799Y-5.1362
T3
X5.089Y-7.9382
X5.0945Y-9.5248
X5.1972Y-7.9429
X5.2016Y-9.5283
X5.2252Y-11.3016
X5.289Y-9.4894
X5.2957Y-7.9441
X5.3193Y-11.3047
X5.4016Y-7.9366
X5.4138Y-11.3016
X5.4984Y-9.5224
X5.5028Y-7.9354
X5.5146Y-10.0843
X5.5177Y-11.3016
X5.6016Y-9.5079
X5.6024Y-7.9354
X5.6248Y-11.3016
X5.6697Y-9.7681
X5.6957Y-11.1028
X5.7189Y-10.2004
X5.7205Y-11.3016
X5.765Y-9.7701
X5.7669Y-11.1559
X5.802Y-7.9406
X5.8217Y-10.828
X5.8256Y-10.1988
X5.8567Y-11.4492
X5.8969Y-7.9417
X5.9236Y-10.2016
X5.9417Y-9.7626
X6.0004Y-7.95
X6.013Y-11.435
X6.0201Y-10.198
X6.0378Y-10.8441
X6.0504Y-9.7531
X6.0685Y-11.1602
X6.1012Y-7.9476
X6.122Y-10.1969
X6.1232Y-11.2996
X6.1476Y-9.7602
X6.1661Y-11.0331
X6.2173Y-10.9465
X6.2213Y-11.2996
X6.222Y-10.1953
X6.2425Y-6.1008
X6.2543Y-9.7555
X6.2984Y-7.9465
X6.3209Y-11.2988
X6.322Y-10.198
X6.3236Y-6.0894
X6.3323Y-6.7146
X6.3705Y-9.7488
X6.3969Y-6.0339
X6.4213Y-11.3004
X6.422Y-10.1953
X6.498Y-7.9465
X6.522Y-10.1961
X6.5228Y-11.2996
X6.5492Y-9.7535
X6.5953Y-7.9417
X6.6201Y-11.2988
X6.6244Y-10.1969
X6.6441Y-9.7465
X6.6917Y-6.0102
X6.6949Y-7.9453
X6.7008Y-6.6071
X6.7169Y-11.2988
X6.7209Y-10.1961
X6.752Y-9.7469
X6.8031Y-7.9429
X6.8209Y-11.3004
X6.8228Y-10.2008
X6.8512Y-9.7437
X6.8969Y-7.9476
X6.9209Y-11.3031
X6.9224Y-10.2004
X6.9457Y-9.748
X6.9543Y-6.5331
X7.0205Y-11.3012
X7.0228Y-10.1988
X7.0551Y-9.748
X7.124Y-10.1957
X7.1276Y-11.302
X7.2031Y-9.7457
X7.2205Y-11.3031
X7.2244Y-10.1992
X7.3024Y-9.7469
X7.3205Y-10.1945
X7.4028Y-9.7579
X7.4256Y-6.663
X7.426Y-9.5016
X7.4272Y-10.2
X7.4831Y-5.9638
X7.4831Y-6.1126
X7.5008Y-6.6559
X7.5413Y-6.8417
X7.5795Y-5.9201
X7.5866Y-6.8083
X7.5917Y-6.8713
X7.5988Y-5.8465
X7.6146Y-6.0461
X7.6461Y-9.763
X7.7142Y-10.9425
X7.7925Y-7.9437
X7.8008Y-9.522
X7.8957Y-7.9449
X7.9736Y-5.9409
X7.998Y-7.9425
X8.0299Y-6.0232
X8.0386Y-6.6575
X8.0886Y-9.5146
X8.1051Y-7.9437
X8.1543Y-6.6575
X8.2008Y-9.5146
X8.2677Y-6.8063
X8.2957Y-9.5146
X8.3433Y-10.965
X8.3996Y-9.5205
X8.5028Y-8.1799
X9.0335Y-10.6421
X9.0343Y-10.7496
X9.0366Y-10.5047
X9.037Y-10.8276
X9.037Y-10.9114
X9.2106Y-10.4933
X9.2114Y-10.6571
X9.2283Y-11.0291
X9.315Y-10.2697
X9.4177Y-10.272
X9.5157Y-10.2713
X9.6224Y-10.2744
X9.6504Y-10.526
X9.652Y-10.9063
X9.661Y-10.6969
X9.6638Y-10.7984
X9.7909Y-10.489
X9.8102Y-11.0496
X9.8114Y-10.6961
X9.8126Y-10.7957
X9.8138Y-10.9228
X10.6098Y-6.939
X10.615Y-6.6622
X10.6157Y-6.5618
X10.8602Y-6.7634
X10.8614Y-6.4646
X11.1016Y-7.6754
X11.4917Y-10.9067
X11.4972Y-11.0114
X12.2728Y-4.6685
X12.2949Y-6.6055
X12.3012Y-7.0138
X12.3024Y-6.4075
X12.3039Y-6.2067
X12.3039Y-6.3087
X12.3051Y-6.1094
X12.3067Y-6.0071
X12.3075Y-5.9087
X12.3094Y-5.3091
X12.3106Y-5.5087
X12.3114Y-5.4091
X12.3126Y-5.6024
X12.5291Y-4.8094
X12.5295Y-5.2094
X12.5307Y-5.1173
X12.5327Y-5.0189
X12.5343Y-4.9134
X12.5378Y-6.5083
X12.5398Y-6.3134
X12.5406Y-6.111
X12.5406Y-6.215
X12.5409Y-6.4173
X12.5417Y-6.0087
X12.5445Y-5.9122
X12.5461Y-7.0055
X12.8335Y-5.3295
X12.8358Y-5.4307
X12.8394Y-5.5327
X12.8394Y-5.6276
X12.8394Y-5.7957
X12.8457Y-5.8941
X13.0937Y-4.3496
X13.0969Y-4.8642
X13.0976Y-4.4724
X13.0976Y-4.9555
X13.0988Y-5.1602
X13.1016Y-5.0539
X13.1075Y-5.2531
X13.1803Y-11.1484
X14.3988Y-5.4988
X14.4067Y-5.5799
X14.4087Y-5.6811
X14.6622Y-4.7571
X14.6724Y-4.8591
X15.0642Y-11.1807
X15.0665Y-10.4803
X15.0705Y-11.2803
X15.0744Y-11.5854
X15.1878Y-5.0685
X15.1898Y-5.1673
X15.1929Y-5.2654
X15.1945Y-4.7642
X15.1961Y-4.9579
X15.1969Y-4.8591
X15.2008Y-4.6646
X15.5539Y-6.7146
X15.5894Y-10.0067
X15.6433Y-6.5642
X15.702Y-6.5697
X15.763Y-6.5701
X15.885Y-5.0815
X15.8933Y-5.4972
X15.8957Y-4.4012
X15.8961Y-5.2276
X15.9539Y-8.6756
X15.965Y-6.1417
X15.9882Y-6.3638
X16.1323Y-4.5008
X16.1346Y-4.6917
X16.1346Y-4.8594
X16.1358Y-4.598
X16.1378Y-4.7933
X16.1406Y-5.3268
X16.1472Y-4.9996
X16.1776Y-5.4504
X16.1787Y-9.1807
X16.1823Y-8.978
X16.1823Y-9.0799
X16.185Y-8.7728
X16.1862Y-8.5772
X16.3476Y-5.0909
X16.3587Y-5.4429
X16.4575Y-9.0264
T4
X5.0732Y-11.2504
X5.0732Y-11.3504
X5.1732Y-11.2504
X5.1732Y-11.3504
X5.2732Y-11.2504
X5.2732Y-11.3504
X5.3732Y-10.1504
X5.3732Y-10.2504
X5.3732Y-11.2504
X5.3732Y-11.3504
X5.4732Y-10.1504
X5.4732Y-10.2504
X5.4732Y-11.2504
X5.4732Y-11.3504
X5.5732Y-10.1504
X5.5732Y-10.2504
X5.5732Y-11.2504
X5.5732Y-11.3504
X5.6732Y-10.1504
X5.6732Y-10.2504
X5.6732Y-11.2504
X5.6732Y-11.3504
X5.7732Y-10.1504
X5.7732Y-10.2504
X5.7732Y-11.2504
X5.7732Y-11.3504
X5.8732Y-10.1504
X5.8732Y-10.2504
X5.8732Y-11.2504
X5.8732Y-11.3504
X5.9732Y-10.1504
X5.9732Y-10.2504
X5.9732Y-11.2504
X5.9732Y-11.3504
X6.0732Y-10.1504
X6.0732Y-10.2504
X6.0732Y-11.2504
X6.0732Y-11.3504
X6.1732Y-10.1504
X6.1732Y-10.2504
X6.1732Y-11.2504
X6.1732Y-11.3504
X6.2732Y-10.1504
X6.2732Y-10.2504
X6.2732Y-11.2504
X6.2732Y-11.3504
X6.3732Y-10.1504
X6.3732Y-10.2504
X6.3732Y-11.2504
X6.3732Y-11.3504
X6.4732Y-10.1504
X6.4732Y-10.2504
X6.4732Y-11.2504
X6.4732Y-11.3504
X6.5732Y-10.1504
X6.5732Y-10.2504
X6.5732Y-11.2504
X6.5732Y-11.3504
X6.6732Y-10.1504
X6.6732Y-10.2504
X6.6732Y-11.2504
X6.6732Y-11.3504
X6.7732Y-10.1504
X6.7732Y-10.2504
X6.7732Y-11.2504
X6.7732Y-11.3504
X6.8732Y-10.1504
X6.8732Y-10.2504
X6.8732Y-11.2504
X6.8732Y-11.3504
X6.9732Y-10.1504
X6.9732Y-10.2504
X6.9732Y-11.2504
X6.9732Y-11.3504
X7.0732Y-10.1504
X7.0732Y-10.2504
X7.0732Y-11.2504
X7.0732Y-11.3504
X7.1732Y-10.1504
X7.1732Y-10.2504
X7.1732Y-11.2504
X7.1732Y-11.3504
X7.2732Y-10.1504
X7.2732Y-10.2504
X7.2732Y-11.2504
X7.2732Y-11.3504
X7.3732Y-10.1504
X7.3732Y-10.2504
X7.3732Y-11.2504
X7.3732Y-11.3504
X7.4732Y-10.1504
X7.4732Y-10.2504
X7.4732Y-11.2504
X7.4732Y-11.3504
X7.5732Y-10.1504
X7.5732Y-10.2504
X7.6732Y-10.1504
X7.6732Y-10.2504
X7.7732Y-10.1504
X7.7732Y-10.2504
X7.8628Y-11.6581
X7.9268Y-9.8598
X7.9268Y-9.9598
X7.9268Y-10.0598
X7.9628Y-11.6581
X8.0628Y-11.6581
X8.337Y-7.7228
X8.337Y-7.8228
X8.5445Y-7.7051
X8.6445Y-7.7051
X9.0606Y-7.6744
X9.1209Y-10.5476
X9.1209Y-10.6476
X9.1209Y-10.7476
X9.1209Y-10.8476
X9.1209Y-10.9476
X9.1209Y-11.0476
X9.1606Y-7.6744
X9.1713Y-10.2189
X9.1713Y-10.3189
X9.2606Y-7.6744
X9.2713Y-10.2189
X9.2713Y-10.3189
X9.3713Y-10.2189
X9.3713Y-10.3189
X9.4713Y-10.2189
X9.4713Y-10.3189
X9.5713Y-10.2189
X9.5713Y-10.3189
X9.6358Y-7.6618
X9.6713Y-10.2189
X9.6713Y-10.3189
X9.722Y-10.5476
X9.722Y-10.6476
X9.722Y-10.7476
X9.722Y-10.8476
X9.722Y-10.9476
X9.722Y-11.0476
X9.7358Y-7.6618
X9.8358Y-7.6618
X10.324Y-8.0752
X10.324Y-8.1752
X10.3697Y-6.1146
X10.3803Y-4.6614
X10.4404Y-6.0439
X10.4803Y-4.6614
X10.4815Y-10.0134
X10.4815Y-10.1134
X10.4815Y-10.2134
X10.687Y-7.6799
X10.787Y-7.6799
X10.887Y-7.6799
X10.9646Y-10.3514
X11.0646Y-10.3514
X12.7244Y-6.7661
X12.7244Y-6.8661
X12.7244Y-6.9661
X12.7839Y-4.4913
X12.7839Y-4.5913
X14.1134Y-7.689
X14.1134Y-7.789
X14.7465Y-4.6876
X14.7524Y-4.523
X14.8465Y-4.6876
X14.8524Y-4.523
X16.2114Y-5.9421
X16.2114Y-6.0421
X16.2114Y-6.1421
X16.215Y-6.3449
X16.215Y-6.4449
X16.3778Y-9.0209
X16.3778Y-9.1209
T5
X4.9224Y-11.6713
X4.9256Y-4.2441
X5.1969Y-4.235
X5.1969Y-7.1878
X10.315Y-4.235
X10.315Y-7.1878
X16.4185Y-4.2799
X16.4185Y-11.7071
M30
