G04 #@! TF.GenerationSoftware,KiCad,Pcbnew,9.0.1+1*
G04 #@! TF.CreationDate,2025-11-25T11:40:41+00:00*
G04 #@! TF.ProjectId,main-carrier,6d61696e-2d63-4617-9272-6965722e6b69,v1.0*
G04 #@! TF.SameCoordinates,Original*
G04 #@! TF.FileFunction,Soldermask,Top*
G04 #@! TF.FilePolarity,Negative*
%FSLAX46Y46*%
G04 Gerber Fmt 4.6, Leading zero omitted, Abs format (unit mm)*
G04 Created by KiCad (PCBNEW 9.0.1+1) date 2025-11-25 11:40:41*
%MOMM*%
%LPD*%
G01*
G04 APERTURE LIST*
%ADD10R,1.700000X1.700000*%
%ADD11C,1.700000*%
%ADD12R,1.950000X0.650000*%
%ADD13R,0.650000X1.950000*%
%ADD14C,6.000000*%
%ADD15C,1.000000*%
G04 APERTURE END LIST*
G36*
G01*
X270710000Y-111260000D02*
X270710000Y-110260000D01*
G75*
G02*
X271210000Y-109760000I500000J0D01*
G01*
X274210000Y-109760000D01*
G75*
G02*
X274710000Y-110260000I0J-500000D01*
G01*
X274710000Y-111260000D01*
G75*
G02*
X274210000Y-111760000I-500000J0D01*
G01*
X271210000Y-111760000D01*
G75*
G02*
X270710000Y-111260000I0J500000D01*
G01*
G37*
G36*
G01*
X270710000Y-116340000D02*
X270710000Y-115340000D01*
G75*
G02*
X271210000Y-114840000I500000J0D01*
G01*
X274210000Y-114840000D01*
G75*
G02*
X274710000Y-115340000I0J-500000D01*
G01*
X274710000Y-116340000D01*
G75*
G02*
X274210000Y-116840000I-500000J0D01*
G01*
X271210000Y-116840000D01*
G75*
G02*
X270710000Y-116340000I0J500000D01*
G01*
G37*
G36*
G01*
X270710000Y-118880000D02*
X270710000Y-117880000D01*
G75*
G02*
X271210000Y-117380000I500000J0D01*
G01*
X274210000Y-117380000D01*
G75*
G02*
X274710000Y-117880000I0J-500000D01*
G01*
X274710000Y-118880000D01*
G75*
G02*
X274210000Y-119380000I-500000J0D01*
G01*
X271210000Y-119380000D01*
G75*
G02*
X270710000Y-118880000I0J500000D01*
G01*
G37*
G36*
G01*
X270710000Y-164600000D02*
X270710000Y-163600000D01*
G75*
G02*
X271210000Y-163100000I500000J0D01*
G01*
X274210000Y-163100000D01*
G75*
G02*
X274710000Y-163600000I0J-500000D01*
G01*
X274710000Y-164600000D01*
G75*
G02*
X274210000Y-165100000I-500000J0D01*
G01*
X271210000Y-165100000D01*
G75*
G02*
X270710000Y-164600000I0J500000D01*
G01*
G37*
G36*
G01*
X270710000Y-167140000D02*
X270710000Y-166140000D01*
G75*
G02*
X271210000Y-165640000I500000J0D01*
G01*
X274210000Y-165640000D01*
G75*
G02*
X274710000Y-166140000I0J-500000D01*
G01*
X274710000Y-167140000D01*
G75*
G02*
X274210000Y-167640000I-500000J0D01*
G01*
X271210000Y-167640000D01*
G75*
G02*
X270710000Y-167140000I0J500000D01*
G01*
G37*
G36*
G01*
X270710000Y-169680000D02*
X270710000Y-168680000D01*
G75*
G02*
X271210000Y-168180000I500000J0D01*
G01*
X274210000Y-168180000D01*
G75*
G02*
X274710000Y-168680000I0J-500000D01*
G01*
X274710000Y-169680000D01*
G75*
G02*
X274210000Y-170180000I-500000J0D01*
G01*
X271210000Y-170180000D01*
G75*
G02*
X270710000Y-169680000I0J500000D01*
G01*
G37*
G36*
G01*
X270710000Y-172220000D02*
X270710000Y-171220000D01*
G75*
G02*
X271210000Y-170720000I500000J0D01*
G01*
X274210000Y-170720000D01*
G75*
G02*
X274710000Y-171220000I0J-500000D01*
G01*
X274710000Y-172220000D01*
G75*
G02*
X274210000Y-172720000I-500000J0D01*
G01*
X271210000Y-172720000D01*
G75*
G02*
X270710000Y-172220000I0J500000D01*
G01*
G37*
G36*
G01*
X270710000Y-174760000D02*
X270710000Y-173760000D01*
G75*
G02*
X271210000Y-173260000I500000J0D01*
G01*
X274210000Y-173260000D01*
G75*
G02*
X274710000Y-173760000I0J-500000D01*
G01*
X274710000Y-174760000D01*
G75*
G02*
X274210000Y-175260000I-500000J0D01*
G01*
X271210000Y-175260000D01*
G75*
G02*
X270710000Y-174760000I0J500000D01*
G01*
G37*
G36*
G01*
X270710000Y-177300000D02*
X270710000Y-176300000D01*
G75*
G02*
X271210000Y-175800000I500000J0D01*
G01*
X274210000Y-175800000D01*
G75*
G02*
X274710000Y-176300000I0J-500000D01*
G01*
X274710000Y-177300000D01*
G75*
G02*
X274210000Y-177800000I-500000J0D01*
G01*
X271210000Y-177800000D01*
G75*
G02*
X270710000Y-177300000I0J500000D01*
G01*
G37*
G36*
G01*
X270710000Y-179840000D02*
X270710000Y-178840000D01*
G75*
G02*
X271210000Y-178340000I500000J0D01*
G01*
X274210000Y-178340000D01*
G75*
G02*
X274710000Y-178840000I0J-500000D01*
G01*
X274710000Y-179840000D01*
G75*
G02*
X274210000Y-180340000I-500000J0D01*
G01*
X271210000Y-180340000D01*
G75*
G02*
X270710000Y-179840000I0J500000D01*
G01*
G37*
G36*
G01*
X313510000Y-111260000D02*
X313510000Y-110260000D01*
G75*
G02*
X314010000Y-109760000I500000J0D01*
G01*
X317010000Y-109760000D01*
G75*
G02*
X317510000Y-110260000I0J-500000D01*
G01*
X317510000Y-111260000D01*
G75*
G02*
X317010000Y-111760000I-500000J0D01*
G01*
X314010000Y-111760000D01*
G75*
G02*
X313510000Y-111260000I0J500000D01*
G01*
G37*
G36*
G01*
X313510000Y-113800000D02*
X313510000Y-112800000D01*
G75*
G02*
X314010000Y-112300000I500000J0D01*
G01*
X317010000Y-112300000D01*
G75*
G02*
X317510000Y-112800000I0J-500000D01*
G01*
X317510000Y-113800000D01*
G75*
G02*
X317010000Y-114300000I-500000J0D01*
G01*
X314010000Y-114300000D01*
G75*
G02*
X313510000Y-113800000I0J500000D01*
G01*
G37*
G36*
G01*
X313510000Y-116340000D02*
X313510000Y-115340000D01*
G75*
G02*
X314010000Y-114840000I500000J0D01*
G01*
X317010000Y-114840000D01*
G75*
G02*
X317510000Y-115340000I0J-500000D01*
G01*
X317510000Y-116340000D01*
G75*
G02*
X317010000Y-116840000I-500000J0D01*
G01*
X314010000Y-116840000D01*
G75*
G02*
X313510000Y-116340000I0J500000D01*
G01*
G37*
G36*
G01*
X313510000Y-118880000D02*
X313510000Y-117880000D01*
G75*
G02*
X314010000Y-117380000I500000J0D01*
G01*
X317010000Y-117380000D01*
G75*
G02*
X317510000Y-117880000I0J-500000D01*
G01*
X317510000Y-118880000D01*
G75*
G02*
X317010000Y-119380000I-500000J0D01*
G01*
X314010000Y-119380000D01*
G75*
G02*
X313510000Y-118880000I0J500000D01*
G01*
G37*
G36*
G01*
X313510000Y-121420000D02*
X313510000Y-120420000D01*
G75*
G02*
X314010000Y-119920000I500000J0D01*
G01*
X317010000Y-119920000D01*
G75*
G02*
X317510000Y-120420000I0J-500000D01*
G01*
X317510000Y-121420000D01*
G75*
G02*
X317010000Y-121920000I-500000J0D01*
G01*
X314010000Y-121920000D01*
G75*
G02*
X313510000Y-121420000I0J500000D01*
G01*
G37*
G36*
G01*
X313510000Y-123960000D02*
X313510000Y-122960000D01*
G75*
G02*
X314010000Y-122460000I500000J0D01*
G01*
X317010000Y-122460000D01*
G75*
G02*
X317510000Y-122960000I0J-500000D01*
G01*
X317510000Y-123960000D01*
G75*
G02*
X317010000Y-124460000I-500000J0D01*
G01*
X314010000Y-124460000D01*
G75*
G02*
X313510000Y-123960000I0J500000D01*
G01*
G37*
G36*
G01*
X313510000Y-126500000D02*
X313510000Y-125500000D01*
G75*
G02*
X314010000Y-125000000I500000J0D01*
G01*
X317010000Y-125000000D01*
G75*
G02*
X317510000Y-125500000I0J-500000D01*
G01*
X317510000Y-126500000D01*
G75*
G02*
X317010000Y-127000000I-500000J0D01*
G01*
X314010000Y-127000000D01*
G75*
G02*
X313510000Y-126500000I0J500000D01*
G01*
G37*
G36*
G01*
X313510000Y-129040000D02*
X313510000Y-128040000D01*
G75*
G02*
X314010000Y-127540000I500000J0D01*
G01*
X317010000Y-127540000D01*
G75*
G02*
X317510000Y-128040000I0J-500000D01*
G01*
X317510000Y-129040000D01*
G75*
G02*
X317010000Y-129540000I-500000J0D01*
G01*
X314010000Y-129540000D01*
G75*
G02*
X313510000Y-129040000I0J500000D01*
G01*
G37*
G36*
G01*
X313510000Y-131580000D02*
X313510000Y-130580000D01*
G75*
G02*
X314010000Y-130080000I500000J0D01*
G01*
X317010000Y-130080000D01*
G75*
G02*
X317510000Y-130580000I0J-500000D01*
G01*
X317510000Y-131580000D01*
G75*
G02*
X317010000Y-132080000I-500000J0D01*
G01*
X314010000Y-132080000D01*
G75*
G02*
X313510000Y-131580000I0J500000D01*
G01*
G37*
G36*
G01*
X313510000Y-134120000D02*
X313510000Y-133120000D01*
G75*
G02*
X314010000Y-132620000I500000J0D01*
G01*
X317010000Y-132620000D01*
G75*
G02*
X317510000Y-133120000I0J-500000D01*
G01*
X317510000Y-134120000D01*
G75*
G02*
X317010000Y-134620000I-500000J0D01*
G01*
X314010000Y-134620000D01*
G75*
G02*
X313510000Y-134120000I0J500000D01*
G01*
G37*
G36*
G01*
X313510000Y-136660000D02*
X313510000Y-135660000D01*
G75*
G02*
X314010000Y-135160000I500000J0D01*
G01*
X317010000Y-135160000D01*
G75*
G02*
X317510000Y-135660000I0J-500000D01*
G01*
X317510000Y-136660000D01*
G75*
G02*
X317010000Y-137160000I-500000J0D01*
G01*
X314010000Y-137160000D01*
G75*
G02*
X313510000Y-136660000I0J500000D01*
G01*
G37*
G36*
G01*
X313510000Y-139200000D02*
X313510000Y-138200000D01*
G75*
G02*
X314010000Y-137700000I500000J0D01*
G01*
X317010000Y-137700000D01*
G75*
G02*
X317510000Y-138200000I0J-500000D01*
G01*
X317510000Y-139200000D01*
G75*
G02*
X317010000Y-139700000I-500000J0D01*
G01*
X314010000Y-139700000D01*
G75*
G02*
X313510000Y-139200000I0J500000D01*
G01*
G37*
G36*
G01*
X313510000Y-141740000D02*
X313510000Y-140740000D01*
G75*
G02*
X314010000Y-140240000I500000J0D01*
G01*
X317010000Y-140240000D01*
G75*
G02*
X317510000Y-140740000I0J-500000D01*
G01*
X317510000Y-141740000D01*
G75*
G02*
X317010000Y-142240000I-500000J0D01*
G01*
X314010000Y-142240000D01*
G75*
G02*
X313510000Y-141740000I0J500000D01*
G01*
G37*
G36*
G01*
X313510000Y-144280000D02*
X313510000Y-143280000D01*
G75*
G02*
X314010000Y-142780000I500000J0D01*
G01*
X317010000Y-142780000D01*
G75*
G02*
X317510000Y-143280000I0J-500000D01*
G01*
X317510000Y-144280000D01*
G75*
G02*
X317010000Y-144780000I-500000J0D01*
G01*
X314010000Y-144780000D01*
G75*
G02*
X313510000Y-144280000I0J500000D01*
G01*
G37*
G36*
G01*
X313510000Y-146820000D02*
X313510000Y-145820000D01*
G75*
G02*
X314010000Y-145320000I500000J0D01*
G01*
X317010000Y-145320000D01*
G75*
G02*
X317510000Y-145820000I0J-500000D01*
G01*
X317510000Y-146820000D01*
G75*
G02*
X317010000Y-147320000I-500000J0D01*
G01*
X314010000Y-147320000D01*
G75*
G02*
X313510000Y-146820000I0J500000D01*
G01*
G37*
G36*
G01*
X313510000Y-149360000D02*
X313510000Y-148360000D01*
G75*
G02*
X314010000Y-147860000I500000J0D01*
G01*
X317010000Y-147860000D01*
G75*
G02*
X317510000Y-148360000I0J-500000D01*
G01*
X317510000Y-149360000D01*
G75*
G02*
X317010000Y-149860000I-500000J0D01*
G01*
X314010000Y-149860000D01*
G75*
G02*
X313510000Y-149360000I0J500000D01*
G01*
G37*
G36*
G01*
X313510000Y-151900000D02*
X313510000Y-150900000D01*
G75*
G02*
X314010000Y-150400000I500000J0D01*
G01*
X317010000Y-150400000D01*
G75*
G02*
X317510000Y-150900000I0J-500000D01*
G01*
X317510000Y-151900000D01*
G75*
G02*
X317010000Y-152400000I-500000J0D01*
G01*
X314010000Y-152400000D01*
G75*
G02*
X313510000Y-151900000I0J500000D01*
G01*
G37*
G36*
G01*
X313510000Y-154440000D02*
X313510000Y-153440000D01*
G75*
G02*
X314010000Y-152940000I500000J0D01*
G01*
X317010000Y-152940000D01*
G75*
G02*
X317510000Y-153440000I0J-500000D01*
G01*
X317510000Y-154440000D01*
G75*
G02*
X317010000Y-154940000I-500000J0D01*
G01*
X314010000Y-154940000D01*
G75*
G02*
X313510000Y-154440000I0J500000D01*
G01*
G37*
G36*
G01*
X313510000Y-156980000D02*
X313510000Y-155980000D01*
G75*
G02*
X314010000Y-155480000I500000J0D01*
G01*
X317010000Y-155480000D01*
G75*
G02*
X317510000Y-155980000I0J-500000D01*
G01*
X317510000Y-156980000D01*
G75*
G02*
X317010000Y-157480000I-500000J0D01*
G01*
X314010000Y-157480000D01*
G75*
G02*
X313510000Y-156980000I0J500000D01*
G01*
G37*
G36*
G01*
X313510000Y-159520000D02*
X313510000Y-158520000D01*
G75*
G02*
X314010000Y-158020000I500000J0D01*
G01*
X317010000Y-158020000D01*
G75*
G02*
X317510000Y-158520000I0J-500000D01*
G01*
X317510000Y-159520000D01*
G75*
G02*
X317010000Y-160020000I-500000J0D01*
G01*
X314010000Y-160020000D01*
G75*
G02*
X313510000Y-159520000I0J500000D01*
G01*
G37*
G36*
G01*
X313510000Y-162060000D02*
X313510000Y-161060000D01*
G75*
G02*
X314010000Y-160560000I500000J0D01*
G01*
X317010000Y-160560000D01*
G75*
G02*
X317510000Y-161060000I0J-500000D01*
G01*
X317510000Y-162060000D01*
G75*
G02*
X317010000Y-162560000I-500000J0D01*
G01*
X314010000Y-162560000D01*
G75*
G02*
X313510000Y-162060000I0J500000D01*
G01*
G37*
G36*
G01*
X313510000Y-164600000D02*
X313510000Y-163600000D01*
G75*
G02*
X314010000Y-163100000I500000J0D01*
G01*
X317010000Y-163100000D01*
G75*
G02*
X317510000Y-163600000I0J-500000D01*
G01*
X317510000Y-164600000D01*
G75*
G02*
X317010000Y-165100000I-500000J0D01*
G01*
X314010000Y-165100000D01*
G75*
G02*
X313510000Y-164600000I0J500000D01*
G01*
G37*
G36*
G01*
X313510000Y-167140000D02*
X313510000Y-166140000D01*
G75*
G02*
X314010000Y-165640000I500000J0D01*
G01*
X317010000Y-165640000D01*
G75*
G02*
X317510000Y-166140000I0J-500000D01*
G01*
X317510000Y-167140000D01*
G75*
G02*
X317010000Y-167640000I-500000J0D01*
G01*
X314010000Y-167640000D01*
G75*
G02*
X313510000Y-167140000I0J500000D01*
G01*
G37*
G36*
G01*
X313510000Y-169680000D02*
X313510000Y-168680000D01*
G75*
G02*
X314010000Y-168180000I500000J0D01*
G01*
X317010000Y-168180000D01*
G75*
G02*
X317510000Y-168680000I0J-500000D01*
G01*
X317510000Y-169680000D01*
G75*
G02*
X317010000Y-170180000I-500000J0D01*
G01*
X314010000Y-170180000D01*
G75*
G02*
X313510000Y-169680000I0J500000D01*
G01*
G37*
G36*
G01*
X313510000Y-172220000D02*
X313510000Y-171220000D01*
G75*
G02*
X314010000Y-170720000I500000J0D01*
G01*
X317010000Y-170720000D01*
G75*
G02*
X317510000Y-171220000I0J-500000D01*
G01*
X317510000Y-172220000D01*
G75*
G02*
X317010000Y-172720000I-500000J0D01*
G01*
X314010000Y-172720000D01*
G75*
G02*
X313510000Y-172220000I0J500000D01*
G01*
G37*
G36*
G01*
X313510000Y-174760000D02*
X313510000Y-173760000D01*
G75*
G02*
X314010000Y-173260000I500000J0D01*
G01*
X317010000Y-173260000D01*
G75*
G02*
X317510000Y-173760000I0J-500000D01*
G01*
X317510000Y-174760000D01*
G75*
G02*
X317010000Y-175260000I-500000J0D01*
G01*
X314010000Y-175260000D01*
G75*
G02*
X313510000Y-174760000I0J500000D01*
G01*
G37*
G36*
G01*
X313510000Y-177300000D02*
X313510000Y-176300000D01*
G75*
G02*
X314010000Y-175800000I500000J0D01*
G01*
X317010000Y-175800000D01*
G75*
G02*
X317510000Y-176300000I0J-500000D01*
G01*
X317510000Y-177300000D01*
G75*
G02*
X317010000Y-177800000I-500000J0D01*
G01*
X314010000Y-177800000D01*
G75*
G02*
X313510000Y-177300000I0J500000D01*
G01*
G37*
G36*
G01*
X313510000Y-179840000D02*
X313510000Y-178840000D01*
G75*
G02*
X314010000Y-178340000I500000J0D01*
G01*
X317010000Y-178340000D01*
G75*
G02*
X317510000Y-178840000I0J-500000D01*
G01*
X317510000Y-179840000D01*
G75*
G02*
X317010000Y-180340000I-500000J0D01*
G01*
X314010000Y-180340000D01*
G75*
G02*
X313510000Y-179840000I0J500000D01*
G01*
G37*
G36*
G01*
X270710000Y-107125000D02*
X270710000Y-105855000D01*
G75*
G02*
X271345000Y-105220000I635000J0D01*
G01*
X274075000Y-105220000D01*
G75*
G02*
X274710000Y-105855000I0J-635000D01*
G01*
X274710000Y-107125000D01*
G75*
G02*
X274075000Y-107760000I-635000J0D01*
G01*
X271345000Y-107760000D01*
G75*
G02*
X270710000Y-107125000I0J635000D01*
G01*
G37*
G36*
G01*
X313510000Y-107125000D02*
X313510000Y-105855000D01*
G75*
G02*
X314145000Y-105220000I635000J0D01*
G01*
X316875000Y-105220000D01*
G75*
G02*
X317510000Y-105855000I0J-635000D01*
G01*
X317510000Y-107125000D01*
G75*
G02*
X316875000Y-107760000I-635000J0D01*
G01*
X314145000Y-107760000D01*
G75*
G02*
X313510000Y-107125000I0J635000D01*
G01*
G37*
G36*
G01*
X270710000Y-184245000D02*
X270710000Y-182975000D01*
G75*
G02*
X271345000Y-182340000I635000J0D01*
G01*
X274075000Y-182340000D01*
G75*
G02*
X274710000Y-182975000I0J-635000D01*
G01*
X274710000Y-184245000D01*
G75*
G02*
X274075000Y-184880000I-635000J0D01*
G01*
X271345000Y-184880000D01*
G75*
G02*
X270710000Y-184245000I0J635000D01*
G01*
G37*
G36*
G01*
X313510000Y-184245000D02*
X313510000Y-182975000D01*
G75*
G02*
X314145000Y-182340000I635000J0D01*
G01*
X316875000Y-182340000D01*
G75*
G02*
X317510000Y-182975000I0J-635000D01*
G01*
X317510000Y-184245000D01*
G75*
G02*
X316875000Y-184880000I-635000J0D01*
G01*
X314145000Y-184880000D01*
G75*
G02*
X313510000Y-184245000I0J635000D01*
G01*
G37*
G36*
G01*
X233180000Y-204920000D02*
X233180000Y-203920000D01*
G75*
G02*
X233680000Y-203420000I500000J0D01*
G01*
X236680000Y-203420000D01*
G75*
G02*
X237180000Y-203920000I0J-500000D01*
G01*
X237180000Y-204920000D01*
G75*
G02*
X236680000Y-205420000I-500000J0D01*
G01*
X233680000Y-205420000D01*
G75*
G02*
X233180000Y-204920000I0J500000D01*
G01*
G37*
G36*
G01*
X233180000Y-210000000D02*
X233180000Y-209000000D01*
G75*
G02*
X233680000Y-208500000I500000J0D01*
G01*
X236680000Y-208500000D01*
G75*
G02*
X237180000Y-209000000I0J-500000D01*
G01*
X237180000Y-210000000D01*
G75*
G02*
X236680000Y-210500000I-500000J0D01*
G01*
X233680000Y-210500000D01*
G75*
G02*
X233180000Y-210000000I0J500000D01*
G01*
G37*
G36*
G01*
X233180000Y-212540000D02*
X233180000Y-211540000D01*
G75*
G02*
X233680000Y-211040000I500000J0D01*
G01*
X236680000Y-211040000D01*
G75*
G02*
X237180000Y-211540000I0J-500000D01*
G01*
X237180000Y-212540000D01*
G75*
G02*
X236680000Y-213040000I-500000J0D01*
G01*
X233680000Y-213040000D01*
G75*
G02*
X233180000Y-212540000I0J500000D01*
G01*
G37*
G36*
G01*
X233180000Y-215080000D02*
X233180000Y-214080000D01*
G75*
G02*
X233680000Y-213580000I500000J0D01*
G01*
X236680000Y-213580000D01*
G75*
G02*
X237180000Y-214080000I0J-500000D01*
G01*
X237180000Y-215080000D01*
G75*
G02*
X236680000Y-215580000I-500000J0D01*
G01*
X233680000Y-215580000D01*
G75*
G02*
X233180000Y-215080000I0J500000D01*
G01*
G37*
G36*
G01*
X233180000Y-217620000D02*
X233180000Y-216620000D01*
G75*
G02*
X233680000Y-216120000I500000J0D01*
G01*
X236680000Y-216120000D01*
G75*
G02*
X237180000Y-216620000I0J-500000D01*
G01*
X237180000Y-217620000D01*
G75*
G02*
X236680000Y-218120000I-500000J0D01*
G01*
X233680000Y-218120000D01*
G75*
G02*
X233180000Y-217620000I0J500000D01*
G01*
G37*
G36*
G01*
X233180000Y-220160000D02*
X233180000Y-219160000D01*
G75*
G02*
X233680000Y-218660000I500000J0D01*
G01*
X236680000Y-218660000D01*
G75*
G02*
X237180000Y-219160000I0J-500000D01*
G01*
X237180000Y-220160000D01*
G75*
G02*
X236680000Y-220660000I-500000J0D01*
G01*
X233680000Y-220660000D01*
G75*
G02*
X233180000Y-220160000I0J500000D01*
G01*
G37*
G36*
G01*
X233180000Y-222700000D02*
X233180000Y-221700000D01*
G75*
G02*
X233680000Y-221200000I500000J0D01*
G01*
X236680000Y-221200000D01*
G75*
G02*
X237180000Y-221700000I0J-500000D01*
G01*
X237180000Y-222700000D01*
G75*
G02*
X236680000Y-223200000I-500000J0D01*
G01*
X233680000Y-223200000D01*
G75*
G02*
X233180000Y-222700000I0J500000D01*
G01*
G37*
G36*
G01*
X233180000Y-225240000D02*
X233180000Y-224240000D01*
G75*
G02*
X233680000Y-223740000I500000J0D01*
G01*
X236680000Y-223740000D01*
G75*
G02*
X237180000Y-224240000I0J-500000D01*
G01*
X237180000Y-225240000D01*
G75*
G02*
X236680000Y-225740000I-500000J0D01*
G01*
X233680000Y-225740000D01*
G75*
G02*
X233180000Y-225240000I0J500000D01*
G01*
G37*
G36*
G01*
X233180000Y-227780000D02*
X233180000Y-226780000D01*
G75*
G02*
X233680000Y-226280000I500000J0D01*
G01*
X236680000Y-226280000D01*
G75*
G02*
X237180000Y-226780000I0J-500000D01*
G01*
X237180000Y-227780000D01*
G75*
G02*
X236680000Y-228280000I-500000J0D01*
G01*
X233680000Y-228280000D01*
G75*
G02*
X233180000Y-227780000I0J500000D01*
G01*
G37*
G36*
G01*
X249180000Y-204920000D02*
X249180000Y-203920000D01*
G75*
G02*
X249680000Y-203420000I500000J0D01*
G01*
X252680000Y-203420000D01*
G75*
G02*
X253180000Y-203920000I0J-500000D01*
G01*
X253180000Y-204920000D01*
G75*
G02*
X252680000Y-205420000I-500000J0D01*
G01*
X249680000Y-205420000D01*
G75*
G02*
X249180000Y-204920000I0J500000D01*
G01*
G37*
G36*
G01*
X249180000Y-207460000D02*
X249180000Y-206460000D01*
G75*
G02*
X249680000Y-205960000I500000J0D01*
G01*
X252680000Y-205960000D01*
G75*
G02*
X253180000Y-206460000I0J-500000D01*
G01*
X253180000Y-207460000D01*
G75*
G02*
X252680000Y-207960000I-500000J0D01*
G01*
X249680000Y-207960000D01*
G75*
G02*
X249180000Y-207460000I0J500000D01*
G01*
G37*
G36*
G01*
X249180000Y-210000000D02*
X249180000Y-209000000D01*
G75*
G02*
X249680000Y-208500000I500000J0D01*
G01*
X252680000Y-208500000D01*
G75*
G02*
X253180000Y-209000000I0J-500000D01*
G01*
X253180000Y-210000000D01*
G75*
G02*
X252680000Y-210500000I-500000J0D01*
G01*
X249680000Y-210500000D01*
G75*
G02*
X249180000Y-210000000I0J500000D01*
G01*
G37*
G36*
G01*
X249180000Y-212540000D02*
X249180000Y-211540000D01*
G75*
G02*
X249680000Y-211040000I500000J0D01*
G01*
X252680000Y-211040000D01*
G75*
G02*
X253180000Y-211540000I0J-500000D01*
G01*
X253180000Y-212540000D01*
G75*
G02*
X252680000Y-213040000I-500000J0D01*
G01*
X249680000Y-213040000D01*
G75*
G02*
X249180000Y-212540000I0J500000D01*
G01*
G37*
G36*
G01*
X249180000Y-215080000D02*
X249180000Y-214080000D01*
G75*
G02*
X249680000Y-213580000I500000J0D01*
G01*
X252680000Y-213580000D01*
G75*
G02*
X253180000Y-214080000I0J-500000D01*
G01*
X253180000Y-215080000D01*
G75*
G02*
X252680000Y-215580000I-500000J0D01*
G01*
X249680000Y-215580000D01*
G75*
G02*
X249180000Y-215080000I0J500000D01*
G01*
G37*
G36*
G01*
X249180000Y-217620000D02*
X249180000Y-216620000D01*
G75*
G02*
X249680000Y-216120000I500000J0D01*
G01*
X252680000Y-216120000D01*
G75*
G02*
X253180000Y-216620000I0J-500000D01*
G01*
X253180000Y-217620000D01*
G75*
G02*
X252680000Y-218120000I-500000J0D01*
G01*
X249680000Y-218120000D01*
G75*
G02*
X249180000Y-217620000I0J500000D01*
G01*
G37*
G36*
G01*
X249180000Y-220160000D02*
X249180000Y-219160000D01*
G75*
G02*
X249680000Y-218660000I500000J0D01*
G01*
X252680000Y-218660000D01*
G75*
G02*
X253180000Y-219160000I0J-500000D01*
G01*
X253180000Y-220160000D01*
G75*
G02*
X252680000Y-220660000I-500000J0D01*
G01*
X249680000Y-220660000D01*
G75*
G02*
X249180000Y-220160000I0J500000D01*
G01*
G37*
G36*
G01*
X249180000Y-222700000D02*
X249180000Y-221700000D01*
G75*
G02*
X249680000Y-221200000I500000J0D01*
G01*
X252680000Y-221200000D01*
G75*
G02*
X253180000Y-221700000I0J-500000D01*
G01*
X253180000Y-222700000D01*
G75*
G02*
X252680000Y-223200000I-500000J0D01*
G01*
X249680000Y-223200000D01*
G75*
G02*
X249180000Y-222700000I0J500000D01*
G01*
G37*
G36*
G01*
X249180000Y-225240000D02*
X249180000Y-224240000D01*
G75*
G02*
X249680000Y-223740000I500000J0D01*
G01*
X252680000Y-223740000D01*
G75*
G02*
X253180000Y-224240000I0J-500000D01*
G01*
X253180000Y-225240000D01*
G75*
G02*
X252680000Y-225740000I-500000J0D01*
G01*
X249680000Y-225740000D01*
G75*
G02*
X249180000Y-225240000I0J500000D01*
G01*
G37*
G36*
G01*
X249180000Y-227780000D02*
X249180000Y-226780000D01*
G75*
G02*
X249680000Y-226280000I500000J0D01*
G01*
X252680000Y-226280000D01*
G75*
G02*
X253180000Y-226780000I0J-500000D01*
G01*
X253180000Y-227780000D01*
G75*
G02*
X252680000Y-228280000I-500000J0D01*
G01*
X249680000Y-228280000D01*
G75*
G02*
X249180000Y-227780000I0J500000D01*
G01*
G37*
G36*
G01*
X233180000Y-200785000D02*
X233180000Y-199515000D01*
G75*
G02*
X233815000Y-198880000I635000J0D01*
G01*
X236545000Y-198880000D01*
G75*
G02*
X237180000Y-199515000I0J-635000D01*
G01*
X237180000Y-200785000D01*
G75*
G02*
X236545000Y-201420000I-635000J0D01*
G01*
X233815000Y-201420000D01*
G75*
G02*
X233180000Y-200785000I0J635000D01*
G01*
G37*
G36*
G01*
X249180000Y-200785000D02*
X249180000Y-199515000D01*
G75*
G02*
X249815000Y-198880000I635000J0D01*
G01*
X252545000Y-198880000D01*
G75*
G02*
X253180000Y-199515000I0J-635000D01*
G01*
X253180000Y-200785000D01*
G75*
G02*
X252545000Y-201420000I-635000J0D01*
G01*
X249815000Y-201420000D01*
G75*
G02*
X249180000Y-200785000I0J635000D01*
G01*
G37*
G36*
G01*
X233180000Y-232185000D02*
X233180000Y-230915000D01*
G75*
G02*
X233815000Y-230280000I635000J0D01*
G01*
X236545000Y-230280000D01*
G75*
G02*
X237180000Y-230915000I0J-635000D01*
G01*
X237180000Y-232185000D01*
G75*
G02*
X236545000Y-232820000I-635000J0D01*
G01*
X233815000Y-232820000D01*
G75*
G02*
X233180000Y-232185000I0J635000D01*
G01*
G37*
G36*
G01*
X249180000Y-232185000D02*
X249180000Y-230915000D01*
G75*
G02*
X249815000Y-230280000I635000J0D01*
G01*
X252545000Y-230280000D01*
G75*
G02*
X253180000Y-230915000I0J-635000D01*
G01*
X253180000Y-232185000D01*
G75*
G02*
X252545000Y-232820000I-635000J0D01*
G01*
X249815000Y-232820000D01*
G75*
G02*
X249180000Y-232185000I0J635000D01*
G01*
G37*
D10*
X263660000Y-118400000D03*
D11*
X266200000Y-118400000D03*
G36*
G01*
X303650000Y-194230000D02*
X303650000Y-193230000D01*
G75*
G02*
X304150000Y-192730000I500000J0D01*
G01*
X307150000Y-192730000D01*
G75*
G02*
X307650000Y-193230000I0J-500000D01*
G01*
X307650000Y-194230000D01*
G75*
G02*
X307150000Y-194730000I-500000J0D01*
G01*
X304150000Y-194730000D01*
G75*
G02*
X303650000Y-194230000I0J500000D01*
G01*
G37*
G36*
G01*
X303650000Y-204390000D02*
X303650000Y-203390000D01*
G75*
G02*
X304150000Y-202890000I500000J0D01*
G01*
X307150000Y-202890000D01*
G75*
G02*
X307650000Y-203390000I0J-500000D01*
G01*
X307650000Y-204390000D01*
G75*
G02*
X307150000Y-204890000I-500000J0D01*
G01*
X304150000Y-204890000D01*
G75*
G02*
X303650000Y-204390000I0J500000D01*
G01*
G37*
G36*
G01*
X303650000Y-214550000D02*
X303650000Y-213550000D01*
G75*
G02*
X304150000Y-213050000I500000J0D01*
G01*
X307150000Y-213050000D01*
G75*
G02*
X307650000Y-213550000I0J-500000D01*
G01*
X307650000Y-214550000D01*
G75*
G02*
X307150000Y-215050000I-500000J0D01*
G01*
X304150000Y-215050000D01*
G75*
G02*
X303650000Y-214550000I0J500000D01*
G01*
G37*
G36*
G01*
X303650000Y-224710000D02*
X303650000Y-223710000D01*
G75*
G02*
X304150000Y-223210000I500000J0D01*
G01*
X307150000Y-223210000D01*
G75*
G02*
X307650000Y-223710000I0J-500000D01*
G01*
X307650000Y-224710000D01*
G75*
G02*
X307150000Y-225210000I-500000J0D01*
G01*
X304150000Y-225210000D01*
G75*
G02*
X303650000Y-224710000I0J500000D01*
G01*
G37*
G36*
G01*
X303650000Y-237410000D02*
X303650000Y-236410000D01*
G75*
G02*
X304150000Y-235910000I500000J0D01*
G01*
X307150000Y-235910000D01*
G75*
G02*
X307650000Y-236410000I0J-500000D01*
G01*
X307650000Y-237410000D01*
G75*
G02*
X307150000Y-237910000I-500000J0D01*
G01*
X304150000Y-237910000D01*
G75*
G02*
X303650000Y-237410000I0J500000D01*
G01*
G37*
G36*
G01*
X303650000Y-239950000D02*
X303650000Y-238950000D01*
G75*
G02*
X304150000Y-238450000I500000J0D01*
G01*
X307150000Y-238450000D01*
G75*
G02*
X307650000Y-238950000I0J-500000D01*
G01*
X307650000Y-239950000D01*
G75*
G02*
X307150000Y-240450000I-500000J0D01*
G01*
X304150000Y-240450000D01*
G75*
G02*
X303650000Y-239950000I0J500000D01*
G01*
G37*
G36*
G01*
X303650000Y-242490000D02*
X303650000Y-241490000D01*
G75*
G02*
X304150000Y-240990000I500000J0D01*
G01*
X307150000Y-240990000D01*
G75*
G02*
X307650000Y-241490000I0J-500000D01*
G01*
X307650000Y-242490000D01*
G75*
G02*
X307150000Y-242990000I-500000J0D01*
G01*
X304150000Y-242990000D01*
G75*
G02*
X303650000Y-242490000I0J500000D01*
G01*
G37*
G36*
G01*
X303650000Y-245030000D02*
X303650000Y-244030000D01*
G75*
G02*
X304150000Y-243530000I500000J0D01*
G01*
X307150000Y-243530000D01*
G75*
G02*
X307650000Y-244030000I0J-500000D01*
G01*
X307650000Y-245030000D01*
G75*
G02*
X307150000Y-245530000I-500000J0D01*
G01*
X304150000Y-245530000D01*
G75*
G02*
X303650000Y-245030000I0J500000D01*
G01*
G37*
G36*
G01*
X303650000Y-247570000D02*
X303650000Y-246570000D01*
G75*
G02*
X304150000Y-246070000I500000J0D01*
G01*
X307150000Y-246070000D01*
G75*
G02*
X307650000Y-246570000I0J-500000D01*
G01*
X307650000Y-247570000D01*
G75*
G02*
X307150000Y-248070000I-500000J0D01*
G01*
X304150000Y-248070000D01*
G75*
G02*
X303650000Y-247570000I0J500000D01*
G01*
G37*
G36*
G01*
X303650000Y-252650000D02*
X303650000Y-251650000D01*
G75*
G02*
X304150000Y-251150000I500000J0D01*
G01*
X307150000Y-251150000D01*
G75*
G02*
X307650000Y-251650000I0J-500000D01*
G01*
X307650000Y-252650000D01*
G75*
G02*
X307150000Y-253150000I-500000J0D01*
G01*
X304150000Y-253150000D01*
G75*
G02*
X303650000Y-252650000I0J500000D01*
G01*
G37*
G36*
G01*
X350650000Y-194230000D02*
X350650000Y-193230000D01*
G75*
G02*
X351150000Y-192730000I500000J0D01*
G01*
X354150000Y-192730000D01*
G75*
G02*
X354650000Y-193230000I0J-500000D01*
G01*
X354650000Y-194230000D01*
G75*
G02*
X354150000Y-194730000I-500000J0D01*
G01*
X351150000Y-194730000D01*
G75*
G02*
X350650000Y-194230000I0J500000D01*
G01*
G37*
G36*
G01*
X350650000Y-204390000D02*
X350650000Y-203390000D01*
G75*
G02*
X351150000Y-202890000I500000J0D01*
G01*
X354150000Y-202890000D01*
G75*
G02*
X354650000Y-203390000I0J-500000D01*
G01*
X354650000Y-204390000D01*
G75*
G02*
X354150000Y-204890000I-500000J0D01*
G01*
X351150000Y-204890000D01*
G75*
G02*
X350650000Y-204390000I0J500000D01*
G01*
G37*
G36*
G01*
X350650000Y-206930000D02*
X350650000Y-205930000D01*
G75*
G02*
X351150000Y-205430000I500000J0D01*
G01*
X354150000Y-205430000D01*
G75*
G02*
X354650000Y-205930000I0J-500000D01*
G01*
X354650000Y-206930000D01*
G75*
G02*
X354150000Y-207430000I-500000J0D01*
G01*
X351150000Y-207430000D01*
G75*
G02*
X350650000Y-206930000I0J500000D01*
G01*
G37*
G36*
G01*
X350650000Y-252650000D02*
X350650000Y-251650000D01*
G75*
G02*
X351150000Y-251150000I500000J0D01*
G01*
X354150000Y-251150000D01*
G75*
G02*
X354650000Y-251650000I0J-500000D01*
G01*
X354650000Y-252650000D01*
G75*
G02*
X354150000Y-253150000I-500000J0D01*
G01*
X351150000Y-253150000D01*
G75*
G02*
X350650000Y-252650000I0J500000D01*
G01*
G37*
G36*
G01*
X303650000Y-190095000D02*
X303650000Y-188825000D01*
G75*
G02*
X304285000Y-188190000I635000J0D01*
G01*
X307015000Y-188190000D01*
G75*
G02*
X307650000Y-188825000I0J-635000D01*
G01*
X307650000Y-190095000D01*
G75*
G02*
X307015000Y-190730000I-635000J0D01*
G01*
X304285000Y-190730000D01*
G75*
G02*
X303650000Y-190095000I0J635000D01*
G01*
G37*
G36*
G01*
X350650000Y-190095000D02*
X350650000Y-188825000D01*
G75*
G02*
X351285000Y-188190000I635000J0D01*
G01*
X354015000Y-188190000D01*
G75*
G02*
X354650000Y-188825000I0J-635000D01*
G01*
X354650000Y-190095000D01*
G75*
G02*
X354015000Y-190730000I-635000J0D01*
G01*
X351285000Y-190730000D01*
G75*
G02*
X350650000Y-190095000I0J635000D01*
G01*
G37*
G36*
G01*
X303650000Y-257055000D02*
X303650000Y-255785000D01*
G75*
G02*
X304285000Y-255150000I635000J0D01*
G01*
X307015000Y-255150000D01*
G75*
G02*
X307650000Y-255785000I0J-635000D01*
G01*
X307650000Y-257055000D01*
G75*
G02*
X307015000Y-257690000I-635000J0D01*
G01*
X304285000Y-257690000D01*
G75*
G02*
X303650000Y-257055000I0J635000D01*
G01*
G37*
G36*
G01*
X350650000Y-257055000D02*
X350650000Y-255785000D01*
G75*
G02*
X351285000Y-255150000I635000J0D01*
G01*
X354015000Y-255150000D01*
G75*
G02*
X354650000Y-255785000I0J-635000D01*
G01*
X354650000Y-257055000D01*
G75*
G02*
X354015000Y-257690000I-635000J0D01*
G01*
X351285000Y-257690000D01*
G75*
G02*
X350650000Y-257055000I0J635000D01*
G01*
G37*
G36*
G01*
X380830000Y-112250000D02*
X380830000Y-111250000D01*
G75*
G02*
X381330000Y-110750000I500000J0D01*
G01*
X384330000Y-110750000D01*
G75*
G02*
X384830000Y-111250000I0J-500000D01*
G01*
X384830000Y-112250000D01*
G75*
G02*
X384330000Y-112750000I-500000J0D01*
G01*
X381330000Y-112750000D01*
G75*
G02*
X380830000Y-112250000I0J500000D01*
G01*
G37*
G36*
G01*
X380830000Y-119870000D02*
X380830000Y-118870000D01*
G75*
G02*
X381330000Y-118370000I500000J0D01*
G01*
X384330000Y-118370000D01*
G75*
G02*
X384830000Y-118870000I0J-500000D01*
G01*
X384830000Y-119870000D01*
G75*
G02*
X384330000Y-120370000I-500000J0D01*
G01*
X381330000Y-120370000D01*
G75*
G02*
X380830000Y-119870000I0J500000D01*
G01*
G37*
G36*
G01*
X380830000Y-122410000D02*
X380830000Y-121410000D01*
G75*
G02*
X381330000Y-120910000I500000J0D01*
G01*
X384330000Y-120910000D01*
G75*
G02*
X384830000Y-121410000I0J-500000D01*
G01*
X384830000Y-122410000D01*
G75*
G02*
X384330000Y-122910000I-500000J0D01*
G01*
X381330000Y-122910000D01*
G75*
G02*
X380830000Y-122410000I0J500000D01*
G01*
G37*
G36*
G01*
X380830000Y-124950000D02*
X380830000Y-123950000D01*
G75*
G02*
X381330000Y-123450000I500000J0D01*
G01*
X384330000Y-123450000D01*
G75*
G02*
X384830000Y-123950000I0J-500000D01*
G01*
X384830000Y-124950000D01*
G75*
G02*
X384330000Y-125450000I-500000J0D01*
G01*
X381330000Y-125450000D01*
G75*
G02*
X380830000Y-124950000I0J500000D01*
G01*
G37*
G36*
G01*
X380830000Y-127490000D02*
X380830000Y-126490000D01*
G75*
G02*
X381330000Y-125990000I500000J0D01*
G01*
X384330000Y-125990000D01*
G75*
G02*
X384830000Y-126490000I0J-500000D01*
G01*
X384830000Y-127490000D01*
G75*
G02*
X384330000Y-127990000I-500000J0D01*
G01*
X381330000Y-127990000D01*
G75*
G02*
X380830000Y-127490000I0J500000D01*
G01*
G37*
G36*
G01*
X380830000Y-130030000D02*
X380830000Y-129030000D01*
G75*
G02*
X381330000Y-128530000I500000J0D01*
G01*
X384330000Y-128530000D01*
G75*
G02*
X384830000Y-129030000I0J-500000D01*
G01*
X384830000Y-130030000D01*
G75*
G02*
X384330000Y-130530000I-500000J0D01*
G01*
X381330000Y-130530000D01*
G75*
G02*
X380830000Y-130030000I0J500000D01*
G01*
G37*
G36*
G01*
X380830000Y-132570000D02*
X380830000Y-131570000D01*
G75*
G02*
X381330000Y-131070000I500000J0D01*
G01*
X384330000Y-131070000D01*
G75*
G02*
X384830000Y-131570000I0J-500000D01*
G01*
X384830000Y-132570000D01*
G75*
G02*
X384330000Y-133070000I-500000J0D01*
G01*
X381330000Y-133070000D01*
G75*
G02*
X380830000Y-132570000I0J500000D01*
G01*
G37*
G36*
G01*
X380830000Y-135110000D02*
X380830000Y-134110000D01*
G75*
G02*
X381330000Y-133610000I500000J0D01*
G01*
X384330000Y-133610000D01*
G75*
G02*
X384830000Y-134110000I0J-500000D01*
G01*
X384830000Y-135110000D01*
G75*
G02*
X384330000Y-135610000I-500000J0D01*
G01*
X381330000Y-135610000D01*
G75*
G02*
X380830000Y-135110000I0J500000D01*
G01*
G37*
G36*
G01*
X380830000Y-137650000D02*
X380830000Y-136650000D01*
G75*
G02*
X381330000Y-136150000I500000J0D01*
G01*
X384330000Y-136150000D01*
G75*
G02*
X384830000Y-136650000I0J-500000D01*
G01*
X384830000Y-137650000D01*
G75*
G02*
X384330000Y-138150000I-500000J0D01*
G01*
X381330000Y-138150000D01*
G75*
G02*
X380830000Y-137650000I0J500000D01*
G01*
G37*
G36*
G01*
X380830000Y-140190000D02*
X380830000Y-139190000D01*
G75*
G02*
X381330000Y-138690000I500000J0D01*
G01*
X384330000Y-138690000D01*
G75*
G02*
X384830000Y-139190000I0J-500000D01*
G01*
X384830000Y-140190000D01*
G75*
G02*
X384330000Y-140690000I-500000J0D01*
G01*
X381330000Y-140690000D01*
G75*
G02*
X380830000Y-140190000I0J500000D01*
G01*
G37*
G36*
G01*
X404830000Y-112250000D02*
X404830000Y-111250000D01*
G75*
G02*
X405330000Y-110750000I500000J0D01*
G01*
X408330000Y-110750000D01*
G75*
G02*
X408830000Y-111250000I0J-500000D01*
G01*
X408830000Y-112250000D01*
G75*
G02*
X408330000Y-112750000I-500000J0D01*
G01*
X405330000Y-112750000D01*
G75*
G02*
X404830000Y-112250000I0J500000D01*
G01*
G37*
G36*
G01*
X404830000Y-114790000D02*
X404830000Y-113790000D01*
G75*
G02*
X405330000Y-113290000I500000J0D01*
G01*
X408330000Y-113290000D01*
G75*
G02*
X408830000Y-113790000I0J-500000D01*
G01*
X408830000Y-114790000D01*
G75*
G02*
X408330000Y-115290000I-500000J0D01*
G01*
X405330000Y-115290000D01*
G75*
G02*
X404830000Y-114790000I0J500000D01*
G01*
G37*
G36*
G01*
X404830000Y-117330000D02*
X404830000Y-116330000D01*
G75*
G02*
X405330000Y-115830000I500000J0D01*
G01*
X408330000Y-115830000D01*
G75*
G02*
X408830000Y-116330000I0J-500000D01*
G01*
X408830000Y-117330000D01*
G75*
G02*
X408330000Y-117830000I-500000J0D01*
G01*
X405330000Y-117830000D01*
G75*
G02*
X404830000Y-117330000I0J500000D01*
G01*
G37*
G36*
G01*
X404830000Y-119870000D02*
X404830000Y-118870000D01*
G75*
G02*
X405330000Y-118370000I500000J0D01*
G01*
X408330000Y-118370000D01*
G75*
G02*
X408830000Y-118870000I0J-500000D01*
G01*
X408830000Y-119870000D01*
G75*
G02*
X408330000Y-120370000I-500000J0D01*
G01*
X405330000Y-120370000D01*
G75*
G02*
X404830000Y-119870000I0J500000D01*
G01*
G37*
G36*
G01*
X404830000Y-122410000D02*
X404830000Y-121410000D01*
G75*
G02*
X405330000Y-120910000I500000J0D01*
G01*
X408330000Y-120910000D01*
G75*
G02*
X408830000Y-121410000I0J-500000D01*
G01*
X408830000Y-122410000D01*
G75*
G02*
X408330000Y-122910000I-500000J0D01*
G01*
X405330000Y-122910000D01*
G75*
G02*
X404830000Y-122410000I0J500000D01*
G01*
G37*
G36*
G01*
X404830000Y-124950000D02*
X404830000Y-123950000D01*
G75*
G02*
X405330000Y-123450000I500000J0D01*
G01*
X408330000Y-123450000D01*
G75*
G02*
X408830000Y-123950000I0J-500000D01*
G01*
X408830000Y-124950000D01*
G75*
G02*
X408330000Y-125450000I-500000J0D01*
G01*
X405330000Y-125450000D01*
G75*
G02*
X404830000Y-124950000I0J500000D01*
G01*
G37*
G36*
G01*
X404830000Y-127490000D02*
X404830000Y-126490000D01*
G75*
G02*
X405330000Y-125990000I500000J0D01*
G01*
X408330000Y-125990000D01*
G75*
G02*
X408830000Y-126490000I0J-500000D01*
G01*
X408830000Y-127490000D01*
G75*
G02*
X408330000Y-127990000I-500000J0D01*
G01*
X405330000Y-127990000D01*
G75*
G02*
X404830000Y-127490000I0J500000D01*
G01*
G37*
G36*
G01*
X404830000Y-130030000D02*
X404830000Y-129030000D01*
G75*
G02*
X405330000Y-128530000I500000J0D01*
G01*
X408330000Y-128530000D01*
G75*
G02*
X408830000Y-129030000I0J-500000D01*
G01*
X408830000Y-130030000D01*
G75*
G02*
X408330000Y-130530000I-500000J0D01*
G01*
X405330000Y-130530000D01*
G75*
G02*
X404830000Y-130030000I0J500000D01*
G01*
G37*
G36*
G01*
X404830000Y-132570000D02*
X404830000Y-131570000D01*
G75*
G02*
X405330000Y-131070000I500000J0D01*
G01*
X408330000Y-131070000D01*
G75*
G02*
X408830000Y-131570000I0J-500000D01*
G01*
X408830000Y-132570000D01*
G75*
G02*
X408330000Y-133070000I-500000J0D01*
G01*
X405330000Y-133070000D01*
G75*
G02*
X404830000Y-132570000I0J500000D01*
G01*
G37*
G36*
G01*
X404830000Y-135110000D02*
X404830000Y-134110000D01*
G75*
G02*
X405330000Y-133610000I500000J0D01*
G01*
X408330000Y-133610000D01*
G75*
G02*
X408830000Y-134110000I0J-500000D01*
G01*
X408830000Y-135110000D01*
G75*
G02*
X408330000Y-135610000I-500000J0D01*
G01*
X405330000Y-135610000D01*
G75*
G02*
X404830000Y-135110000I0J500000D01*
G01*
G37*
G36*
G01*
X404830000Y-137650000D02*
X404830000Y-136650000D01*
G75*
G02*
X405330000Y-136150000I500000J0D01*
G01*
X408330000Y-136150000D01*
G75*
G02*
X408830000Y-136650000I0J-500000D01*
G01*
X408830000Y-137650000D01*
G75*
G02*
X408330000Y-138150000I-500000J0D01*
G01*
X405330000Y-138150000D01*
G75*
G02*
X404830000Y-137650000I0J500000D01*
G01*
G37*
G36*
G01*
X404830000Y-140190000D02*
X404830000Y-139190000D01*
G75*
G02*
X405330000Y-138690000I500000J0D01*
G01*
X408330000Y-138690000D01*
G75*
G02*
X408830000Y-139190000I0J-500000D01*
G01*
X408830000Y-140190000D01*
G75*
G02*
X408330000Y-140690000I-500000J0D01*
G01*
X405330000Y-140690000D01*
G75*
G02*
X404830000Y-140190000I0J500000D01*
G01*
G37*
G36*
G01*
X380830000Y-108115000D02*
X380830000Y-106845000D01*
G75*
G02*
X381465000Y-106210000I635000J0D01*
G01*
X384195000Y-106210000D01*
G75*
G02*
X384830000Y-106845000I0J-635000D01*
G01*
X384830000Y-108115000D01*
G75*
G02*
X384195000Y-108750000I-635000J0D01*
G01*
X381465000Y-108750000D01*
G75*
G02*
X380830000Y-108115000I0J635000D01*
G01*
G37*
G36*
G01*
X404830000Y-108115000D02*
X404830000Y-106845000D01*
G75*
G02*
X405465000Y-106210000I635000J0D01*
G01*
X408195000Y-106210000D01*
G75*
G02*
X408830000Y-106845000I0J-635000D01*
G01*
X408830000Y-108115000D01*
G75*
G02*
X408195000Y-108750000I-635000J0D01*
G01*
X405465000Y-108750000D01*
G75*
G02*
X404830000Y-108115000I0J635000D01*
G01*
G37*
G36*
G01*
X380830000Y-144595000D02*
X380830000Y-143325000D01*
G75*
G02*
X381465000Y-142690000I635000J0D01*
G01*
X384195000Y-142690000D01*
G75*
G02*
X384830000Y-143325000I0J-635000D01*
G01*
X384830000Y-144595000D01*
G75*
G02*
X384195000Y-145230000I-635000J0D01*
G01*
X381465000Y-145230000D01*
G75*
G02*
X380830000Y-144595000I0J635000D01*
G01*
G37*
G36*
G01*
X404830000Y-144595000D02*
X404830000Y-143325000D01*
G75*
G02*
X405465000Y-142690000I635000J0D01*
G01*
X408195000Y-142690000D01*
G75*
G02*
X408830000Y-143325000I0J-635000D01*
G01*
X408830000Y-144595000D01*
G75*
G02*
X408195000Y-145230000I-635000J0D01*
G01*
X405465000Y-145230000D01*
G75*
G02*
X404830000Y-144595000I0J635000D01*
G01*
G37*
D12*
X273780000Y-245090000D03*
X273780000Y-246360000D03*
X273780000Y-247630000D03*
X273780000Y-248900000D03*
X273780000Y-250170000D03*
X273780000Y-251440000D03*
X273780000Y-252710000D03*
X273780000Y-253980000D03*
X273780000Y-255250000D03*
X273780000Y-256520000D03*
X273780000Y-257790000D03*
X273780000Y-259060000D03*
X283230000Y-259060000D03*
X283230000Y-257790000D03*
X283230000Y-256520000D03*
X283230000Y-255250000D03*
X283230000Y-253980000D03*
X283230000Y-252710000D03*
X283230000Y-251440000D03*
X283230000Y-250170000D03*
X283230000Y-248900000D03*
X283230000Y-247630000D03*
X283230000Y-246360000D03*
X283230000Y-245090000D03*
D13*
X393800000Y-168840000D03*
X395070000Y-168840000D03*
X396340000Y-168840000D03*
X397610000Y-168840000D03*
X398880000Y-168840000D03*
X400150000Y-168840000D03*
X401420000Y-168840000D03*
X402690000Y-168840000D03*
X403960000Y-168840000D03*
X405230000Y-168840000D03*
X406500000Y-168840000D03*
X407770000Y-168840000D03*
X407770000Y-159390000D03*
X406500000Y-159390000D03*
X405230000Y-159390000D03*
X403960000Y-159390000D03*
X402690000Y-159390000D03*
X401420000Y-159390000D03*
X400150000Y-159390000D03*
X398880000Y-159390000D03*
X397610000Y-159390000D03*
X396340000Y-159390000D03*
X395070000Y-159390000D03*
X393800000Y-159390000D03*
G36*
G01*
X327420002Y-111230001D02*
X327420002Y-110230001D01*
G75*
G02*
X327920002Y-109730001I500000J0D01*
G01*
X330920002Y-109730001D01*
G75*
G02*
X331420002Y-110230001I0J-500000D01*
G01*
X331420002Y-111230001D01*
G75*
G02*
X330920002Y-111730001I-500000J0D01*
G01*
X327920002Y-111730001D01*
G75*
G02*
X327420002Y-111230001I0J500000D01*
G01*
G37*
G36*
G01*
X327420002Y-113770001D02*
X327420002Y-112770001D01*
G75*
G02*
X327920002Y-112270001I500000J0D01*
G01*
X330920002Y-112270001D01*
G75*
G02*
X331420002Y-112770001I0J-500000D01*
G01*
X331420002Y-113770001D01*
G75*
G02*
X330920002Y-114270001I-500000J0D01*
G01*
X327920002Y-114270001D01*
G75*
G02*
X327420002Y-113770001I0J500000D01*
G01*
G37*
G36*
G01*
X327420002Y-121390001D02*
X327420002Y-120390001D01*
G75*
G02*
X327920002Y-119890001I500000J0D01*
G01*
X330920002Y-119890001D01*
G75*
G02*
X331420002Y-120390001I0J-500000D01*
G01*
X331420002Y-121390001D01*
G75*
G02*
X330920002Y-121890001I-500000J0D01*
G01*
X327920002Y-121890001D01*
G75*
G02*
X327420002Y-121390001I0J500000D01*
G01*
G37*
G36*
G01*
X327420002Y-123930001D02*
X327420002Y-122930001D01*
G75*
G02*
X327920002Y-122430001I500000J0D01*
G01*
X330920002Y-122430001D01*
G75*
G02*
X331420002Y-122930001I0J-500000D01*
G01*
X331420002Y-123930001D01*
G75*
G02*
X330920002Y-124430001I-500000J0D01*
G01*
X327920002Y-124430001D01*
G75*
G02*
X327420002Y-123930001I0J500000D01*
G01*
G37*
G36*
G01*
X327420002Y-126470001D02*
X327420002Y-125470001D01*
G75*
G02*
X327920002Y-124970001I500000J0D01*
G01*
X330920002Y-124970001D01*
G75*
G02*
X331420002Y-125470001I0J-500000D01*
G01*
X331420002Y-126470001D01*
G75*
G02*
X330920002Y-126970001I-500000J0D01*
G01*
X327920002Y-126970001D01*
G75*
G02*
X327420002Y-126470001I0J500000D01*
G01*
G37*
G36*
G01*
X327420002Y-129010001D02*
X327420002Y-128010001D01*
G75*
G02*
X327920002Y-127510001I500000J0D01*
G01*
X330920002Y-127510001D01*
G75*
G02*
X331420002Y-128010001I0J-500000D01*
G01*
X331420002Y-129010001D01*
G75*
G02*
X330920002Y-129510001I-500000J0D01*
G01*
X327920002Y-129510001D01*
G75*
G02*
X327420002Y-129010001I0J500000D01*
G01*
G37*
G36*
G01*
X327420002Y-131550001D02*
X327420002Y-130550001D01*
G75*
G02*
X327920002Y-130050001I500000J0D01*
G01*
X330920002Y-130050001D01*
G75*
G02*
X331420002Y-130550001I0J-500000D01*
G01*
X331420002Y-131550001D01*
G75*
G02*
X330920002Y-132050001I-500000J0D01*
G01*
X327920002Y-132050001D01*
G75*
G02*
X327420002Y-131550001I0J500000D01*
G01*
G37*
G36*
G01*
X327420002Y-134090001D02*
X327420002Y-133090001D01*
G75*
G02*
X327920002Y-132590001I500000J0D01*
G01*
X330920002Y-132590001D01*
G75*
G02*
X331420002Y-133090001I0J-500000D01*
G01*
X331420002Y-134090001D01*
G75*
G02*
X330920002Y-134590001I-500000J0D01*
G01*
X327920002Y-134590001D01*
G75*
G02*
X327420002Y-134090001I0J500000D01*
G01*
G37*
G36*
G01*
X327420002Y-136630001D02*
X327420002Y-135630001D01*
G75*
G02*
X327920002Y-135130001I500000J0D01*
G01*
X330920002Y-135130001D01*
G75*
G02*
X331420002Y-135630001I0J-500000D01*
G01*
X331420002Y-136630001D01*
G75*
G02*
X330920002Y-137130001I-500000J0D01*
G01*
X327920002Y-137130001D01*
G75*
G02*
X327420002Y-136630001I0J500000D01*
G01*
G37*
G36*
G01*
X327420002Y-139170001D02*
X327420002Y-138170001D01*
G75*
G02*
X327920002Y-137670001I500000J0D01*
G01*
X330920002Y-137670001D01*
G75*
G02*
X331420002Y-138170001I0J-500000D01*
G01*
X331420002Y-139170001D01*
G75*
G02*
X330920002Y-139670001I-500000J0D01*
G01*
X327920002Y-139670001D01*
G75*
G02*
X327420002Y-139170001I0J500000D01*
G01*
G37*
G36*
G01*
X327420002Y-141710001D02*
X327420002Y-140710001D01*
G75*
G02*
X327920002Y-140210001I500000J0D01*
G01*
X330920002Y-140210001D01*
G75*
G02*
X331420002Y-140710001I0J-500000D01*
G01*
X331420002Y-141710001D01*
G75*
G02*
X330920002Y-142210001I-500000J0D01*
G01*
X327920002Y-142210001D01*
G75*
G02*
X327420002Y-141710001I0J500000D01*
G01*
G37*
G36*
G01*
X327420002Y-144250001D02*
X327420002Y-143250001D01*
G75*
G02*
X327920002Y-142750001I500000J0D01*
G01*
X330920002Y-142750001D01*
G75*
G02*
X331420002Y-143250001I0J-500000D01*
G01*
X331420002Y-144250001D01*
G75*
G02*
X330920002Y-144750001I-500000J0D01*
G01*
X327920002Y-144750001D01*
G75*
G02*
X327420002Y-144250001I0J500000D01*
G01*
G37*
G36*
G01*
X327420002Y-146790001D02*
X327420002Y-145790001D01*
G75*
G02*
X327920002Y-145290001I500000J0D01*
G01*
X330920002Y-145290001D01*
G75*
G02*
X331420002Y-145790001I0J-500000D01*
G01*
X331420002Y-146790001D01*
G75*
G02*
X330920002Y-147290001I-500000J0D01*
G01*
X327920002Y-147290001D01*
G75*
G02*
X327420002Y-146790001I0J500000D01*
G01*
G37*
G36*
G01*
X327420002Y-149330001D02*
X327420002Y-148330001D01*
G75*
G02*
X327920002Y-147830001I500000J0D01*
G01*
X330920002Y-147830001D01*
G75*
G02*
X331420002Y-148330001I0J-500000D01*
G01*
X331420002Y-149330001D01*
G75*
G02*
X330920002Y-149830001I-500000J0D01*
G01*
X327920002Y-149830001D01*
G75*
G02*
X327420002Y-149330001I0J500000D01*
G01*
G37*
G36*
G01*
X327420002Y-156950001D02*
X327420002Y-155950001D01*
G75*
G02*
X327920002Y-155450001I500000J0D01*
G01*
X330920002Y-155450001D01*
G75*
G02*
X331420002Y-155950001I0J-500000D01*
G01*
X331420002Y-156950001D01*
G75*
G02*
X330920002Y-157450001I-500000J0D01*
G01*
X327920002Y-157450001D01*
G75*
G02*
X327420002Y-156950001I0J500000D01*
G01*
G37*
G36*
G01*
X327420002Y-159490001D02*
X327420002Y-158490001D01*
G75*
G02*
X327920002Y-157990001I500000J0D01*
G01*
X330920002Y-157990001D01*
G75*
G02*
X331420002Y-158490001I0J-500000D01*
G01*
X331420002Y-159490001D01*
G75*
G02*
X330920002Y-159990001I-500000J0D01*
G01*
X327920002Y-159990001D01*
G75*
G02*
X327420002Y-159490001I0J500000D01*
G01*
G37*
G36*
G01*
X367420002Y-111230001D02*
X367420002Y-110230001D01*
G75*
G02*
X367920002Y-109730001I500000J0D01*
G01*
X370920002Y-109730001D01*
G75*
G02*
X371420002Y-110230001I0J-500000D01*
G01*
X371420002Y-111230001D01*
G75*
G02*
X370920002Y-111730001I-500000J0D01*
G01*
X367920002Y-111730001D01*
G75*
G02*
X367420002Y-111230001I0J500000D01*
G01*
G37*
G36*
G01*
X367420002Y-113770001D02*
X367420002Y-112770001D01*
G75*
G02*
X367920002Y-112270001I500000J0D01*
G01*
X370920002Y-112270001D01*
G75*
G02*
X371420002Y-112770001I0J-500000D01*
G01*
X371420002Y-113770001D01*
G75*
G02*
X370920002Y-114270001I-500000J0D01*
G01*
X367920002Y-114270001D01*
G75*
G02*
X367420002Y-113770001I0J500000D01*
G01*
G37*
G36*
G01*
X367420002Y-121390001D02*
X367420002Y-120390001D01*
G75*
G02*
X367920002Y-119890001I500000J0D01*
G01*
X370920002Y-119890001D01*
G75*
G02*
X371420002Y-120390001I0J-500000D01*
G01*
X371420002Y-121390001D01*
G75*
G02*
X370920002Y-121890001I-500000J0D01*
G01*
X367920002Y-121890001D01*
G75*
G02*
X367420002Y-121390001I0J500000D01*
G01*
G37*
G36*
G01*
X367420002Y-123930001D02*
X367420002Y-122930001D01*
G75*
G02*
X367920002Y-122430001I500000J0D01*
G01*
X370920002Y-122430001D01*
G75*
G02*
X371420002Y-122930001I0J-500000D01*
G01*
X371420002Y-123930001D01*
G75*
G02*
X370920002Y-124430001I-500000J0D01*
G01*
X367920002Y-124430001D01*
G75*
G02*
X367420002Y-123930001I0J500000D01*
G01*
G37*
G36*
G01*
X367420002Y-126470001D02*
X367420002Y-125470001D01*
G75*
G02*
X367920002Y-124970001I500000J0D01*
G01*
X370920002Y-124970001D01*
G75*
G02*
X371420002Y-125470001I0J-500000D01*
G01*
X371420002Y-126470001D01*
G75*
G02*
X370920002Y-126970001I-500000J0D01*
G01*
X367920002Y-126970001D01*
G75*
G02*
X367420002Y-126470001I0J500000D01*
G01*
G37*
G36*
G01*
X367420002Y-129010001D02*
X367420002Y-128010001D01*
G75*
G02*
X367920002Y-127510001I500000J0D01*
G01*
X370920002Y-127510001D01*
G75*
G02*
X371420002Y-128010001I0J-500000D01*
G01*
X371420002Y-129010001D01*
G75*
G02*
X370920002Y-129510001I-500000J0D01*
G01*
X367920002Y-129510001D01*
G75*
G02*
X367420002Y-129010001I0J500000D01*
G01*
G37*
G36*
G01*
X367420002Y-131550001D02*
X367420002Y-130550001D01*
G75*
G02*
X367920002Y-130050001I500000J0D01*
G01*
X370920002Y-130050001D01*
G75*
G02*
X371420002Y-130550001I0J-500000D01*
G01*
X371420002Y-131550001D01*
G75*
G02*
X370920002Y-132050001I-500000J0D01*
G01*
X367920002Y-132050001D01*
G75*
G02*
X367420002Y-131550001I0J500000D01*
G01*
G37*
G36*
G01*
X367420002Y-134090001D02*
X367420002Y-133090001D01*
G75*
G02*
X367920002Y-132590001I500000J0D01*
G01*
X370920002Y-132590001D01*
G75*
G02*
X371420002Y-133090001I0J-500000D01*
G01*
X371420002Y-134090001D01*
G75*
G02*
X370920002Y-134590001I-500000J0D01*
G01*
X367920002Y-134590001D01*
G75*
G02*
X367420002Y-134090001I0J500000D01*
G01*
G37*
G36*
G01*
X367420002Y-136630001D02*
X367420002Y-135630001D01*
G75*
G02*
X367920002Y-135130001I500000J0D01*
G01*
X370920002Y-135130001D01*
G75*
G02*
X371420002Y-135630001I0J-500000D01*
G01*
X371420002Y-136630001D01*
G75*
G02*
X370920002Y-137130001I-500000J0D01*
G01*
X367920002Y-137130001D01*
G75*
G02*
X367420002Y-136630001I0J500000D01*
G01*
G37*
G36*
G01*
X367420002Y-139170001D02*
X367420002Y-138170001D01*
G75*
G02*
X367920002Y-137670001I500000J0D01*
G01*
X370920002Y-137670001D01*
G75*
G02*
X371420002Y-138170001I0J-500000D01*
G01*
X371420002Y-139170001D01*
G75*
G02*
X370920002Y-139670001I-500000J0D01*
G01*
X367920002Y-139670001D01*
G75*
G02*
X367420002Y-139170001I0J500000D01*
G01*
G37*
G36*
G01*
X367420002Y-141710001D02*
X367420002Y-140710001D01*
G75*
G02*
X367920002Y-140210001I500000J0D01*
G01*
X370920002Y-140210001D01*
G75*
G02*
X371420002Y-140710001I0J-500000D01*
G01*
X371420002Y-141710001D01*
G75*
G02*
X370920002Y-142210001I-500000J0D01*
G01*
X367920002Y-142210001D01*
G75*
G02*
X367420002Y-141710001I0J500000D01*
G01*
G37*
G36*
G01*
X367420002Y-144250001D02*
X367420002Y-143250001D01*
G75*
G02*
X367920002Y-142750001I500000J0D01*
G01*
X370920002Y-142750001D01*
G75*
G02*
X371420002Y-143250001I0J-500000D01*
G01*
X371420002Y-144250001D01*
G75*
G02*
X370920002Y-144750001I-500000J0D01*
G01*
X367920002Y-144750001D01*
G75*
G02*
X367420002Y-144250001I0J500000D01*
G01*
G37*
G36*
G01*
X367420002Y-146790001D02*
X367420002Y-145790001D01*
G75*
G02*
X367920002Y-145290001I500000J0D01*
G01*
X370920002Y-145290001D01*
G75*
G02*
X371420002Y-145790001I0J-500000D01*
G01*
X371420002Y-146790001D01*
G75*
G02*
X370920002Y-147290001I-500000J0D01*
G01*
X367920002Y-147290001D01*
G75*
G02*
X367420002Y-146790001I0J500000D01*
G01*
G37*
G36*
G01*
X367420002Y-149330001D02*
X367420002Y-148330001D01*
G75*
G02*
X367920002Y-147830001I500000J0D01*
G01*
X370920002Y-147830001D01*
G75*
G02*
X371420002Y-148330001I0J-500000D01*
G01*
X371420002Y-149330001D01*
G75*
G02*
X370920002Y-149830001I-500000J0D01*
G01*
X367920002Y-149830001D01*
G75*
G02*
X367420002Y-149330001I0J500000D01*
G01*
G37*
G36*
G01*
X367420002Y-156950001D02*
X367420002Y-155950001D01*
G75*
G02*
X367920002Y-155450001I500000J0D01*
G01*
X370920002Y-155450001D01*
G75*
G02*
X371420002Y-155950001I0J-500000D01*
G01*
X371420002Y-156950001D01*
G75*
G02*
X370920002Y-157450001I-500000J0D01*
G01*
X367920002Y-157450001D01*
G75*
G02*
X367420002Y-156950001I0J500000D01*
G01*
G37*
G36*
G01*
X367420002Y-159490001D02*
X367420002Y-158490001D01*
G75*
G02*
X367920002Y-157990001I500000J0D01*
G01*
X370920002Y-157990001D01*
G75*
G02*
X371420002Y-158490001I0J-500000D01*
G01*
X371420002Y-159490001D01*
G75*
G02*
X370920002Y-159990001I-500000J0D01*
G01*
X367920002Y-159990001D01*
G75*
G02*
X367420002Y-159490001I0J500000D01*
G01*
G37*
G36*
G01*
X327420002Y-107095001D02*
X327420002Y-105825001D01*
G75*
G02*
X328055002Y-105190001I635000J0D01*
G01*
X330785002Y-105190001D01*
G75*
G02*
X331420002Y-105825001I0J-635000D01*
G01*
X331420002Y-107095001D01*
G75*
G02*
X330785002Y-107730001I-635000J0D01*
G01*
X328055002Y-107730001D01*
G75*
G02*
X327420002Y-107095001I0J635000D01*
G01*
G37*
G36*
G01*
X367420002Y-107095001D02*
X367420002Y-105825001D01*
G75*
G02*
X368055002Y-105190001I635000J0D01*
G01*
X370785002Y-105190001D01*
G75*
G02*
X371420002Y-105825001I0J-635000D01*
G01*
X371420002Y-107095001D01*
G75*
G02*
X370785002Y-107730001I-635000J0D01*
G01*
X368055002Y-107730001D01*
G75*
G02*
X367420002Y-107095001I0J635000D01*
G01*
G37*
G36*
G01*
X327420002Y-163895001D02*
X327420002Y-162625001D01*
G75*
G02*
X328055002Y-161990001I635000J0D01*
G01*
X330785002Y-161990001D01*
G75*
G02*
X331420002Y-162625001I0J-635000D01*
G01*
X331420002Y-163895001D01*
G75*
G02*
X330785002Y-164530001I-635000J0D01*
G01*
X328055002Y-164530001D01*
G75*
G02*
X327420002Y-163895001I0J635000D01*
G01*
G37*
G36*
G01*
X367420002Y-163895001D02*
X367420002Y-162625001D01*
G75*
G02*
X368055002Y-161990001I635000J0D01*
G01*
X370785002Y-161990001D01*
G75*
G02*
X371420002Y-162625001I0J-635000D01*
G01*
X371420002Y-163895001D01*
G75*
G02*
X370785002Y-164530001I-635000J0D01*
G01*
X368055002Y-164530001D01*
G75*
G02*
X367420002Y-163895001I0J635000D01*
G01*
G37*
G36*
G01*
X149605000Y-276760000D02*
X150155000Y-276760000D01*
G75*
G02*
X150355000Y-276960000I0J-200000D01*
G01*
X150355000Y-277360000D01*
G75*
G02*
X150155000Y-277560000I-200000J0D01*
G01*
X149605000Y-277560000D01*
G75*
G02*
X149405000Y-277360000I0J200000D01*
G01*
X149405000Y-276960000D01*
G75*
G02*
X149605000Y-276760000I200000J0D01*
G01*
G37*
G36*
G01*
X149605000Y-278410000D02*
X150155000Y-278410000D01*
G75*
G02*
X150355000Y-278610000I0J-200000D01*
G01*
X150355000Y-279010000D01*
G75*
G02*
X150155000Y-279210000I-200000J0D01*
G01*
X149605000Y-279210000D01*
G75*
G02*
X149405000Y-279010000I0J200000D01*
G01*
X149405000Y-278610000D01*
G75*
G02*
X149605000Y-278410000I200000J0D01*
G01*
G37*
G36*
G01*
X147685000Y-282187500D02*
X147385000Y-282187500D01*
G75*
G02*
X147235000Y-282037500I0J150000D01*
G01*
X147235000Y-280862500D01*
G75*
G02*
X147385000Y-280712500I150000J0D01*
G01*
X147685000Y-280712500D01*
G75*
G02*
X147835000Y-280862500I0J-150000D01*
G01*
X147835000Y-282037500D01*
G75*
G02*
X147685000Y-282187500I-150000J0D01*
G01*
G37*
G36*
G01*
X149585000Y-282187500D02*
X149285000Y-282187500D01*
G75*
G02*
X149135000Y-282037500I0J150000D01*
G01*
X149135000Y-280862500D01*
G75*
G02*
X149285000Y-280712500I150000J0D01*
G01*
X149585000Y-280712500D01*
G75*
G02*
X149735000Y-280862500I0J-150000D01*
G01*
X149735000Y-282037500D01*
G75*
G02*
X149585000Y-282187500I-150000J0D01*
G01*
G37*
G36*
G01*
X148635000Y-280312500D02*
X148335000Y-280312500D01*
G75*
G02*
X148185000Y-280162500I0J150000D01*
G01*
X148185000Y-278987500D01*
G75*
G02*
X148335000Y-278837500I150000J0D01*
G01*
X148635000Y-278837500D01*
G75*
G02*
X148785000Y-278987500I0J-150000D01*
G01*
X148785000Y-280162500D01*
G75*
G02*
X148635000Y-280312500I-150000J0D01*
G01*
G37*
G36*
G01*
X415675000Y-134613750D02*
X415675000Y-135126250D01*
G75*
G02*
X415456250Y-135345000I-218750J0D01*
G01*
X415018750Y-135345000D01*
G75*
G02*
X414800000Y-135126250I0J218750D01*
G01*
X414800000Y-134613750D01*
G75*
G02*
X415018750Y-134395000I218750J0D01*
G01*
X415456250Y-134395000D01*
G75*
G02*
X415675000Y-134613750I0J-218750D01*
G01*
G37*
G36*
G01*
X414100000Y-134613750D02*
X414100000Y-135126250D01*
G75*
G02*
X413881250Y-135345000I-218750J0D01*
G01*
X413443750Y-135345000D01*
G75*
G02*
X413225000Y-135126250I0J218750D01*
G01*
X413225000Y-134613750D01*
G75*
G02*
X413443750Y-134395000I218750J0D01*
G01*
X413881250Y-134395000D01*
G75*
G02*
X414100000Y-134613750I0J-218750D01*
G01*
G37*
D14*
X262000000Y-182570000D03*
X125030000Y-296450000D03*
G36*
G01*
X207400001Y-279240000D02*
X207400001Y-278240000D01*
G75*
G02*
X207900001Y-277740000I500000J0D01*
G01*
X210900001Y-277740000D01*
G75*
G02*
X211400001Y-278240000I0J-500000D01*
G01*
X211400001Y-279240000D01*
G75*
G02*
X210900001Y-279740000I-500000J0D01*
G01*
X207900001Y-279740000D01*
G75*
G02*
X207400001Y-279240000I0J500000D01*
G01*
G37*
G36*
G01*
X207400001Y-286860000D02*
X207400001Y-285860000D01*
G75*
G02*
X207900001Y-285360000I500000J0D01*
G01*
X210900001Y-285360000D01*
G75*
G02*
X211400001Y-285860000I0J-500000D01*
G01*
X211400001Y-286860000D01*
G75*
G02*
X210900001Y-287360000I-500000J0D01*
G01*
X207900001Y-287360000D01*
G75*
G02*
X207400001Y-286860000I0J500000D01*
G01*
G37*
G36*
G01*
X207400001Y-289400000D02*
X207400001Y-288400000D01*
G75*
G02*
X207900001Y-287900000I500000J0D01*
G01*
X210900001Y-287900000D01*
G75*
G02*
X211400001Y-288400000I0J-500000D01*
G01*
X211400001Y-289400000D01*
G75*
G02*
X210900001Y-289900000I-500000J0D01*
G01*
X207900001Y-289900000D01*
G75*
G02*
X207400001Y-289400000I0J500000D01*
G01*
G37*
G36*
G01*
X217400001Y-279240000D02*
X217400001Y-278240000D01*
G75*
G02*
X217900001Y-277740000I500000J0D01*
G01*
X220900001Y-277740000D01*
G75*
G02*
X221400001Y-278240000I0J-500000D01*
G01*
X221400001Y-279240000D01*
G75*
G02*
X220900001Y-279740000I-500000J0D01*
G01*
X217900001Y-279740000D01*
G75*
G02*
X217400001Y-279240000I0J500000D01*
G01*
G37*
G36*
G01*
X217400001Y-289400000D02*
X217400001Y-288400000D01*
G75*
G02*
X217900001Y-287900000I500000J0D01*
G01*
X220900001Y-287900000D01*
G75*
G02*
X221400001Y-288400000I0J-500000D01*
G01*
X221400001Y-289400000D01*
G75*
G02*
X220900001Y-289900000I-500000J0D01*
G01*
X217900001Y-289900000D01*
G75*
G02*
X217400001Y-289400000I0J500000D01*
G01*
G37*
G36*
G01*
X207400001Y-275105000D02*
X207400001Y-273835000D01*
G75*
G02*
X208035001Y-273200000I635000J0D01*
G01*
X210765001Y-273200000D01*
G75*
G02*
X211400001Y-273835000I0J-635000D01*
G01*
X211400001Y-275105000D01*
G75*
G02*
X210765001Y-275740000I-635000J0D01*
G01*
X208035001Y-275740000D01*
G75*
G02*
X207400001Y-275105000I0J635000D01*
G01*
G37*
G36*
G01*
X217400001Y-275105000D02*
X217400001Y-273835000D01*
G75*
G02*
X218035001Y-273200000I635000J0D01*
G01*
X220765001Y-273200000D01*
G75*
G02*
X221400001Y-273835000I0J-635000D01*
G01*
X221400001Y-275105000D01*
G75*
G02*
X220765001Y-275740000I-635000J0D01*
G01*
X218035001Y-275740000D01*
G75*
G02*
X217400001Y-275105000I0J635000D01*
G01*
G37*
G36*
G01*
X207400001Y-293805000D02*
X207400001Y-292535000D01*
G75*
G02*
X208035001Y-291900000I635000J0D01*
G01*
X210765001Y-291900000D01*
G75*
G02*
X211400001Y-292535000I0J-635000D01*
G01*
X211400001Y-293805000D01*
G75*
G02*
X210765001Y-294440000I-635000J0D01*
G01*
X208035001Y-294440000D01*
G75*
G02*
X207400001Y-293805000I0J635000D01*
G01*
G37*
G36*
G01*
X217400001Y-293805000D02*
X217400001Y-292535000D01*
G75*
G02*
X218035001Y-291900000I635000J0D01*
G01*
X220765001Y-291900000D01*
G75*
G02*
X221400001Y-292535000I0J-635000D01*
G01*
X221400001Y-293805000D01*
G75*
G02*
X220765001Y-294440000I-635000J0D01*
G01*
X218035001Y-294440000D01*
G75*
G02*
X217400001Y-293805000I0J635000D01*
G01*
G37*
G36*
G01*
X329630001Y-283740000D02*
X329630001Y-282740000D01*
G75*
G02*
X330130001Y-282240000I500000J0D01*
G01*
X333130001Y-282240000D01*
G75*
G02*
X333630001Y-282740000I0J-500000D01*
G01*
X333630001Y-283740000D01*
G75*
G02*
X333130001Y-284240000I-500000J0D01*
G01*
X330130001Y-284240000D01*
G75*
G02*
X329630001Y-283740000I0J500000D01*
G01*
G37*
G36*
G01*
X329630001Y-293900000D02*
X329630001Y-292900000D01*
G75*
G02*
X330130001Y-292400000I500000J0D01*
G01*
X333130001Y-292400000D01*
G75*
G02*
X333630001Y-292900000I0J-500000D01*
G01*
X333630001Y-293900000D01*
G75*
G02*
X333130001Y-294400000I-500000J0D01*
G01*
X330130001Y-294400000D01*
G75*
G02*
X329630001Y-293900000I0J500000D01*
G01*
G37*
G36*
G01*
X344630001Y-283740000D02*
X344630001Y-282740000D01*
G75*
G02*
X345130001Y-282240000I500000J0D01*
G01*
X348130001Y-282240000D01*
G75*
G02*
X348630001Y-282740000I0J-500000D01*
G01*
X348630001Y-283740000D01*
G75*
G02*
X348130001Y-284240000I-500000J0D01*
G01*
X345130001Y-284240000D01*
G75*
G02*
X344630001Y-283740000I0J500000D01*
G01*
G37*
G36*
G01*
X344630001Y-291360000D02*
X344630001Y-290360000D01*
G75*
G02*
X345130001Y-289860000I500000J0D01*
G01*
X348130001Y-289860000D01*
G75*
G02*
X348630001Y-290360000I0J-500000D01*
G01*
X348630001Y-291360000D01*
G75*
G02*
X348130001Y-291860000I-500000J0D01*
G01*
X345130001Y-291860000D01*
G75*
G02*
X344630001Y-291360000I0J500000D01*
G01*
G37*
G36*
G01*
X344630001Y-293900000D02*
X344630001Y-292900000D01*
G75*
G02*
X345130001Y-292400000I500000J0D01*
G01*
X348130001Y-292400000D01*
G75*
G02*
X348630001Y-292900000I0J-500000D01*
G01*
X348630001Y-293900000D01*
G75*
G02*
X348130001Y-294400000I-500000J0D01*
G01*
X345130001Y-294400000D01*
G75*
G02*
X344630001Y-293900000I0J500000D01*
G01*
G37*
G36*
G01*
X329630001Y-279605000D02*
X329630001Y-278335000D01*
G75*
G02*
X330265001Y-277700000I635000J0D01*
G01*
X332995001Y-277700000D01*
G75*
G02*
X333630001Y-278335000I0J-635000D01*
G01*
X333630001Y-279605000D01*
G75*
G02*
X332995001Y-280240000I-635000J0D01*
G01*
X330265001Y-280240000D01*
G75*
G02*
X329630001Y-279605000I0J635000D01*
G01*
G37*
G36*
G01*
X344630001Y-279605000D02*
X344630001Y-278335000D01*
G75*
G02*
X345265001Y-277700000I635000J0D01*
G01*
X347995001Y-277700000D01*
G75*
G02*
X348630001Y-278335000I0J-635000D01*
G01*
X348630001Y-279605000D01*
G75*
G02*
X347995001Y-280240000I-635000J0D01*
G01*
X345265001Y-280240000D01*
G75*
G02*
X344630001Y-279605000I0J635000D01*
G01*
G37*
G36*
G01*
X329630001Y-298305000D02*
X329630001Y-297035000D01*
G75*
G02*
X330265001Y-296400000I635000J0D01*
G01*
X332995001Y-296400000D01*
G75*
G02*
X333630001Y-297035000I0J-635000D01*
G01*
X333630001Y-298305000D01*
G75*
G02*
X332995001Y-298940000I-635000J0D01*
G01*
X330265001Y-298940000D01*
G75*
G02*
X329630001Y-298305000I0J635000D01*
G01*
G37*
G36*
G01*
X344630001Y-298305000D02*
X344630001Y-297035000D01*
G75*
G02*
X345265001Y-296400000I635000J0D01*
G01*
X347995001Y-296400000D01*
G75*
G02*
X348630001Y-297035000I0J-635000D01*
G01*
X348630001Y-298305000D01*
G75*
G02*
X347995001Y-298940000I-635000J0D01*
G01*
X345265001Y-298940000D01*
G75*
G02*
X344630001Y-298305000I0J635000D01*
G01*
G37*
G36*
G01*
X147305000Y-279165000D02*
X146755000Y-279165000D01*
G75*
G02*
X146555000Y-278965000I0J200000D01*
G01*
X146555000Y-278565000D01*
G75*
G02*
X146755000Y-278365000I200000J0D01*
G01*
X147305000Y-278365000D01*
G75*
G02*
X147505000Y-278565000I0J-200000D01*
G01*
X147505000Y-278965000D01*
G75*
G02*
X147305000Y-279165000I-200000J0D01*
G01*
G37*
G36*
G01*
X147305000Y-277515000D02*
X146755000Y-277515000D01*
G75*
G02*
X146555000Y-277315000I0J200000D01*
G01*
X146555000Y-276915000D01*
G75*
G02*
X146755000Y-276715000I200000J0D01*
G01*
X147305000Y-276715000D01*
G75*
G02*
X147505000Y-276915000I0J-200000D01*
G01*
X147505000Y-277315000D01*
G75*
G02*
X147305000Y-277515000I-200000J0D01*
G01*
G37*
D10*
X128860000Y-288300000D03*
D11*
X128860000Y-285760000D03*
X131400000Y-288300000D03*
X131400000Y-285760000D03*
X133940000Y-288300000D03*
X133940000Y-285760000D03*
X136480000Y-288300000D03*
X136480000Y-285760000D03*
X139020000Y-288300000D03*
X139020000Y-285760000D03*
X141560000Y-288300000D03*
X141560000Y-285760000D03*
X144100000Y-288300000D03*
X144100000Y-285760000D03*
X146640000Y-288300000D03*
X146640000Y-285760000D03*
X149180000Y-288300000D03*
X149180000Y-285760000D03*
X151720000Y-288300000D03*
X151720000Y-285760000D03*
X154260000Y-288300000D03*
X154260000Y-285760000D03*
X156800000Y-288300000D03*
X156800000Y-285760000D03*
X159340000Y-288300000D03*
X159340000Y-285760000D03*
X161880000Y-288300000D03*
X161880000Y-285760000D03*
X164420000Y-288300000D03*
X164420000Y-285760000D03*
X166960000Y-288300000D03*
X166960000Y-285760000D03*
X169500000Y-288300000D03*
X169500000Y-285760000D03*
X172040000Y-288300000D03*
X172040000Y-285760000D03*
X174580000Y-288300000D03*
X174580000Y-285760000D03*
X177120000Y-288300000D03*
X177120000Y-285760000D03*
X179660000Y-288300000D03*
X179660000Y-285760000D03*
X182200000Y-288300000D03*
X182200000Y-285760000D03*
X184740000Y-288300000D03*
X184740000Y-285760000D03*
X187280000Y-288300000D03*
X187280000Y-285760000D03*
X189820000Y-288300000D03*
X189820000Y-285760000D03*
D14*
X132000000Y-182570000D03*
D10*
X377250000Y-114885000D03*
D11*
X374710000Y-114885000D03*
G36*
G01*
X153020000Y-282197500D02*
X152720000Y-282197500D01*
G75*
G02*
X152570000Y-282047500I0J150000D01*
G01*
X152570000Y-280872500D01*
G75*
G02*
X152720000Y-280722500I150000J0D01*
G01*
X153020000Y-280722500D01*
G75*
G02*
X153170000Y-280872500I0J-150000D01*
G01*
X153170000Y-282047500D01*
G75*
G02*
X153020000Y-282197500I-150000J0D01*
G01*
G37*
G36*
G01*
X154920000Y-282197500D02*
X154620000Y-282197500D01*
G75*
G02*
X154470000Y-282047500I0J150000D01*
G01*
X154470000Y-280872500D01*
G75*
G02*
X154620000Y-280722500I150000J0D01*
G01*
X154920000Y-280722500D01*
G75*
G02*
X155070000Y-280872500I0J-150000D01*
G01*
X155070000Y-282047500D01*
G75*
G02*
X154920000Y-282197500I-150000J0D01*
G01*
G37*
G36*
G01*
X153970000Y-280322500D02*
X153670000Y-280322500D01*
G75*
G02*
X153520000Y-280172500I0J150000D01*
G01*
X153520000Y-278997500D01*
G75*
G02*
X153670000Y-278847500I150000J0D01*
G01*
X153970000Y-278847500D01*
G75*
G02*
X154120000Y-278997500I0J-150000D01*
G01*
X154120000Y-280172500D01*
G75*
G02*
X153970000Y-280322500I-150000J0D01*
G01*
G37*
D10*
X232950000Y-262100000D03*
D11*
X232950000Y-259560000D03*
X235490000Y-262100000D03*
X235490000Y-259560000D03*
X238030000Y-262100000D03*
X238030000Y-259560000D03*
X240570000Y-262100000D03*
X240570000Y-259560000D03*
X243110000Y-262100000D03*
X243110000Y-259560000D03*
X245650000Y-262100000D03*
X245650000Y-259560000D03*
G36*
G01*
X256700000Y-277830001D02*
X256700000Y-276830001D01*
G75*
G02*
X257200000Y-276330001I500000J0D01*
G01*
X260200000Y-276330001D01*
G75*
G02*
X260700000Y-276830001I0J-500000D01*
G01*
X260700000Y-277830001D01*
G75*
G02*
X260200000Y-278330001I-500000J0D01*
G01*
X257200000Y-278330001D01*
G75*
G02*
X256700000Y-277830001I0J500000D01*
G01*
G37*
G36*
G01*
X256700000Y-293070001D02*
X256700000Y-292070001D01*
G75*
G02*
X257200000Y-291570001I500000J0D01*
G01*
X260200000Y-291570001D01*
G75*
G02*
X260700000Y-292070001I0J-500000D01*
G01*
X260700000Y-293070001D01*
G75*
G02*
X260200000Y-293570001I-500000J0D01*
G01*
X257200000Y-293570001D01*
G75*
G02*
X256700000Y-293070001I0J500000D01*
G01*
G37*
G36*
G01*
X271700000Y-277830001D02*
X271700000Y-276830001D01*
G75*
G02*
X272200000Y-276330001I500000J0D01*
G01*
X275200000Y-276330001D01*
G75*
G02*
X275700000Y-276830001I0J-500000D01*
G01*
X275700000Y-277830001D01*
G75*
G02*
X275200000Y-278330001I-500000J0D01*
G01*
X272200000Y-278330001D01*
G75*
G02*
X271700000Y-277830001I0J500000D01*
G01*
G37*
G36*
G01*
X271700000Y-287990001D02*
X271700000Y-286990001D01*
G75*
G02*
X272200000Y-286490001I500000J0D01*
G01*
X275200000Y-286490001D01*
G75*
G02*
X275700000Y-286990001I0J-500000D01*
G01*
X275700000Y-287990001D01*
G75*
G02*
X275200000Y-288490001I-500000J0D01*
G01*
X272200000Y-288490001D01*
G75*
G02*
X271700000Y-287990001I0J500000D01*
G01*
G37*
G36*
G01*
X271700000Y-293070001D02*
X271700000Y-292070001D01*
G75*
G02*
X272200000Y-291570001I500000J0D01*
G01*
X275200000Y-291570001D01*
G75*
G02*
X275700000Y-292070001I0J-500000D01*
G01*
X275700000Y-293070001D01*
G75*
G02*
X275200000Y-293570001I-500000J0D01*
G01*
X272200000Y-293570001D01*
G75*
G02*
X271700000Y-293070001I0J500000D01*
G01*
G37*
G36*
G01*
X256700000Y-273695001D02*
X256700000Y-272425001D01*
G75*
G02*
X257335000Y-271790001I635000J0D01*
G01*
X260065000Y-271790001D01*
G75*
G02*
X260700000Y-272425001I0J-635000D01*
G01*
X260700000Y-273695001D01*
G75*
G02*
X260065000Y-274330001I-635000J0D01*
G01*
X257335000Y-274330001D01*
G75*
G02*
X256700000Y-273695001I0J635000D01*
G01*
G37*
G36*
G01*
X271700000Y-273695001D02*
X271700000Y-272425001D01*
G75*
G02*
X272335000Y-271790001I635000J0D01*
G01*
X275065000Y-271790001D01*
G75*
G02*
X275700000Y-272425001I0J-635000D01*
G01*
X275700000Y-273695001D01*
G75*
G02*
X275065000Y-274330001I-635000J0D01*
G01*
X272335000Y-274330001D01*
G75*
G02*
X271700000Y-273695001I0J635000D01*
G01*
G37*
G36*
G01*
X256700000Y-297475001D02*
X256700000Y-296205001D01*
G75*
G02*
X257335000Y-295570001I635000J0D01*
G01*
X260065000Y-295570001D01*
G75*
G02*
X260700000Y-296205001I0J-635000D01*
G01*
X260700000Y-297475001D01*
G75*
G02*
X260065000Y-298110001I-635000J0D01*
G01*
X257335000Y-298110001D01*
G75*
G02*
X256700000Y-297475001I0J635000D01*
G01*
G37*
G36*
G01*
X271700000Y-297475001D02*
X271700000Y-296205001D01*
G75*
G02*
X272335000Y-295570001I635000J0D01*
G01*
X275065000Y-295570001D01*
G75*
G02*
X275700000Y-296205001I0J-635000D01*
G01*
X275700000Y-297475001D01*
G75*
G02*
X275065000Y-298110001I-635000J0D01*
G01*
X272335000Y-298110001D01*
G75*
G02*
X271700000Y-297475001I0J635000D01*
G01*
G37*
G36*
G01*
X156430000Y-153230000D02*
X156430000Y-152230000D01*
G75*
G02*
X156930000Y-151730000I500000J0D01*
G01*
X159930000Y-151730000D01*
G75*
G02*
X160430000Y-152230000I0J-500000D01*
G01*
X160430000Y-153230000D01*
G75*
G02*
X159930000Y-153730000I-500000J0D01*
G01*
X156930000Y-153730000D01*
G75*
G02*
X156430000Y-153230000I0J500000D01*
G01*
G37*
G36*
G01*
X156430000Y-171010000D02*
X156430000Y-170010000D01*
G75*
G02*
X156930000Y-169510000I500000J0D01*
G01*
X159930000Y-169510000D01*
G75*
G02*
X160430000Y-170010000I0J-500000D01*
G01*
X160430000Y-171010000D01*
G75*
G02*
X159930000Y-171510000I-500000J0D01*
G01*
X156930000Y-171510000D01*
G75*
G02*
X156430000Y-171010000I0J500000D01*
G01*
G37*
G36*
G01*
X171430000Y-153230000D02*
X171430000Y-152230000D01*
G75*
G02*
X171930000Y-151730000I500000J0D01*
G01*
X174930000Y-151730000D01*
G75*
G02*
X175430000Y-152230000I0J-500000D01*
G01*
X175430000Y-153230000D01*
G75*
G02*
X174930000Y-153730000I-500000J0D01*
G01*
X171930000Y-153730000D01*
G75*
G02*
X171430000Y-153230000I0J500000D01*
G01*
G37*
G36*
G01*
X171430000Y-165930000D02*
X171430000Y-164930000D01*
G75*
G02*
X171930000Y-164430000I500000J0D01*
G01*
X174930000Y-164430000D01*
G75*
G02*
X175430000Y-164930000I0J-500000D01*
G01*
X175430000Y-165930000D01*
G75*
G02*
X174930000Y-166430000I-500000J0D01*
G01*
X171930000Y-166430000D01*
G75*
G02*
X171430000Y-165930000I0J500000D01*
G01*
G37*
G36*
G01*
X171430000Y-168470000D02*
X171430000Y-167470000D01*
G75*
G02*
X171930000Y-166970000I500000J0D01*
G01*
X174930000Y-166970000D01*
G75*
G02*
X175430000Y-167470000I0J-500000D01*
G01*
X175430000Y-168470000D01*
G75*
G02*
X174930000Y-168970000I-500000J0D01*
G01*
X171930000Y-168970000D01*
G75*
G02*
X171430000Y-168470000I0J500000D01*
G01*
G37*
G36*
G01*
X171430000Y-171010000D02*
X171430000Y-170010000D01*
G75*
G02*
X171930000Y-169510000I500000J0D01*
G01*
X174930000Y-169510000D01*
G75*
G02*
X175430000Y-170010000I0J-500000D01*
G01*
X175430000Y-171010000D01*
G75*
G02*
X174930000Y-171510000I-500000J0D01*
G01*
X171930000Y-171510000D01*
G75*
G02*
X171430000Y-171010000I0J500000D01*
G01*
G37*
G36*
G01*
X156430000Y-149095000D02*
X156430000Y-147825000D01*
G75*
G02*
X157065000Y-147190000I635000J0D01*
G01*
X159795000Y-147190000D01*
G75*
G02*
X160430000Y-147825000I0J-635000D01*
G01*
X160430000Y-149095000D01*
G75*
G02*
X159795000Y-149730000I-635000J0D01*
G01*
X157065000Y-149730000D01*
G75*
G02*
X156430000Y-149095000I0J635000D01*
G01*
G37*
G36*
G01*
X171430000Y-149095000D02*
X171430000Y-147825000D01*
G75*
G02*
X172065000Y-147190000I635000J0D01*
G01*
X174795000Y-147190000D01*
G75*
G02*
X175430000Y-147825000I0J-635000D01*
G01*
X175430000Y-149095000D01*
G75*
G02*
X174795000Y-149730000I-635000J0D01*
G01*
X172065000Y-149730000D01*
G75*
G02*
X171430000Y-149095000I0J635000D01*
G01*
G37*
G36*
G01*
X156430000Y-175415000D02*
X156430000Y-174145000D01*
G75*
G02*
X157065000Y-173510000I635000J0D01*
G01*
X159795000Y-173510000D01*
G75*
G02*
X160430000Y-174145000I0J-635000D01*
G01*
X160430000Y-175415000D01*
G75*
G02*
X159795000Y-176050000I-635000J0D01*
G01*
X157065000Y-176050000D01*
G75*
G02*
X156430000Y-175415000I0J635000D01*
G01*
G37*
G36*
G01*
X171430000Y-175415000D02*
X171430000Y-174145000D01*
G75*
G02*
X172065000Y-173510000I635000J0D01*
G01*
X174795000Y-173510000D01*
G75*
G02*
X175430000Y-174145000I0J-635000D01*
G01*
X175430000Y-175415000D01*
G75*
G02*
X174795000Y-176050000I-635000J0D01*
G01*
X172065000Y-176050000D01*
G75*
G02*
X171430000Y-175415000I0J635000D01*
G01*
G37*
G36*
G01*
X286873750Y-244017500D02*
X287386250Y-244017500D01*
G75*
G02*
X287605000Y-244236250I0J-218750D01*
G01*
X287605000Y-244673750D01*
G75*
G02*
X287386250Y-244892500I-218750J0D01*
G01*
X286873750Y-244892500D01*
G75*
G02*
X286655000Y-244673750I0J218750D01*
G01*
X286655000Y-244236250D01*
G75*
G02*
X286873750Y-244017500I218750J0D01*
G01*
G37*
G36*
G01*
X286873750Y-245592500D02*
X287386250Y-245592500D01*
G75*
G02*
X287605000Y-245811250I0J-218750D01*
G01*
X287605000Y-246248750D01*
G75*
G02*
X287386250Y-246467500I-218750J0D01*
G01*
X286873750Y-246467500D01*
G75*
G02*
X286655000Y-246248750I0J218750D01*
G01*
X286655000Y-245811250D01*
G75*
G02*
X286873750Y-245592500I218750J0D01*
G01*
G37*
G36*
G01*
X151995000Y-276755000D02*
X152545000Y-276755000D01*
G75*
G02*
X152745000Y-276955000I0J-200000D01*
G01*
X152745000Y-277355000D01*
G75*
G02*
X152545000Y-277555000I-200000J0D01*
G01*
X151995000Y-277555000D01*
G75*
G02*
X151795000Y-277355000I0J200000D01*
G01*
X151795000Y-276955000D01*
G75*
G02*
X151995000Y-276755000I200000J0D01*
G01*
G37*
G36*
G01*
X151995000Y-278405000D02*
X152545000Y-278405000D01*
G75*
G02*
X152745000Y-278605000I0J-200000D01*
G01*
X152745000Y-279005000D01*
G75*
G02*
X152545000Y-279205000I-200000J0D01*
G01*
X151995000Y-279205000D01*
G75*
G02*
X151795000Y-279005000I0J200000D01*
G01*
X151795000Y-278605000D01*
G75*
G02*
X151995000Y-278405000I200000J0D01*
G01*
G37*
D14*
X132000000Y-107570000D03*
G36*
G01*
X415702500Y-132853750D02*
X415702500Y-133366250D01*
G75*
G02*
X415483750Y-133585000I-218750J0D01*
G01*
X415046250Y-133585000D01*
G75*
G02*
X414827500Y-133366250I0J218750D01*
G01*
X414827500Y-132853750D01*
G75*
G02*
X415046250Y-132635000I218750J0D01*
G01*
X415483750Y-132635000D01*
G75*
G02*
X415702500Y-132853750I0J-218750D01*
G01*
G37*
G36*
G01*
X414127500Y-132853750D02*
X414127500Y-133366250D01*
G75*
G02*
X413908750Y-133585000I-218750J0D01*
G01*
X413471250Y-133585000D01*
G75*
G02*
X413252500Y-133366250I0J218750D01*
G01*
X413252500Y-132853750D01*
G75*
G02*
X413471250Y-132635000I218750J0D01*
G01*
X413908750Y-132635000D01*
G75*
G02*
X414127500Y-132853750I0J-218750D01*
G01*
G37*
G36*
G01*
X366120002Y-180170001D02*
X366120002Y-179170001D01*
G75*
G02*
X366620002Y-178670001I500000J0D01*
G01*
X369620002Y-178670001D01*
G75*
G02*
X370120002Y-179170001I0J-500000D01*
G01*
X370120002Y-180170001D01*
G75*
G02*
X369620002Y-180670001I-500000J0D01*
G01*
X366620002Y-180670001D01*
G75*
G02*
X366120002Y-180170001I0J500000D01*
G01*
G37*
G36*
G01*
X366120002Y-236050001D02*
X366120002Y-235050001D01*
G75*
G02*
X366620002Y-234550001I500000J0D01*
G01*
X369620002Y-234550001D01*
G75*
G02*
X370120002Y-235050001I0J-500000D01*
G01*
X370120002Y-236050001D01*
G75*
G02*
X369620002Y-236550001I-500000J0D01*
G01*
X366620002Y-236550001D01*
G75*
G02*
X366120002Y-236050001I0J500000D01*
G01*
G37*
G36*
G01*
X366120002Y-238590001D02*
X366120002Y-237590001D01*
G75*
G02*
X366620002Y-237090001I500000J0D01*
G01*
X369620002Y-237090001D01*
G75*
G02*
X370120002Y-237590001I0J-500000D01*
G01*
X370120002Y-238590001D01*
G75*
G02*
X369620002Y-239090001I-500000J0D01*
G01*
X366620002Y-239090001D01*
G75*
G02*
X366120002Y-238590001I0J500000D01*
G01*
G37*
G36*
G01*
X406120002Y-192870001D02*
X406120002Y-191870001D01*
G75*
G02*
X406620002Y-191370001I500000J0D01*
G01*
X409620002Y-191370001D01*
G75*
G02*
X410120002Y-191870001I0J-500000D01*
G01*
X410120002Y-192870001D01*
G75*
G02*
X409620002Y-193370001I-500000J0D01*
G01*
X406620002Y-193370001D01*
G75*
G02*
X406120002Y-192870001I0J500000D01*
G01*
G37*
G36*
G01*
X406120002Y-195410001D02*
X406120002Y-194410001D01*
G75*
G02*
X406620002Y-193910001I500000J0D01*
G01*
X409620002Y-193910001D01*
G75*
G02*
X410120002Y-194410001I0J-500000D01*
G01*
X410120002Y-195410001D01*
G75*
G02*
X409620002Y-195910001I-500000J0D01*
G01*
X406620002Y-195910001D01*
G75*
G02*
X406120002Y-195410001I0J500000D01*
G01*
G37*
G36*
G01*
X406120002Y-197950001D02*
X406120002Y-196950001D01*
G75*
G02*
X406620002Y-196450001I500000J0D01*
G01*
X409620002Y-196450001D01*
G75*
G02*
X410120002Y-196950001I0J-500000D01*
G01*
X410120002Y-197950001D01*
G75*
G02*
X409620002Y-198450001I-500000J0D01*
G01*
X406620002Y-198450001D01*
G75*
G02*
X406120002Y-197950001I0J500000D01*
G01*
G37*
G36*
G01*
X406120002Y-200490001D02*
X406120002Y-199490001D01*
G75*
G02*
X406620002Y-198990001I500000J0D01*
G01*
X409620002Y-198990001D01*
G75*
G02*
X410120002Y-199490001I0J-500000D01*
G01*
X410120002Y-200490001D01*
G75*
G02*
X409620002Y-200990001I-500000J0D01*
G01*
X406620002Y-200990001D01*
G75*
G02*
X406120002Y-200490001I0J500000D01*
G01*
G37*
G36*
G01*
X406120002Y-203030001D02*
X406120002Y-202030001D01*
G75*
G02*
X406620002Y-201530001I500000J0D01*
G01*
X409620002Y-201530001D01*
G75*
G02*
X410120002Y-202030001I0J-500000D01*
G01*
X410120002Y-203030001D01*
G75*
G02*
X409620002Y-203530001I-500000J0D01*
G01*
X406620002Y-203530001D01*
G75*
G02*
X406120002Y-203030001I0J500000D01*
G01*
G37*
G36*
G01*
X406120002Y-205570001D02*
X406120002Y-204570001D01*
G75*
G02*
X406620002Y-204070001I500000J0D01*
G01*
X409620002Y-204070001D01*
G75*
G02*
X410120002Y-204570001I0J-500000D01*
G01*
X410120002Y-205570001D01*
G75*
G02*
X409620002Y-206070001I-500000J0D01*
G01*
X406620002Y-206070001D01*
G75*
G02*
X406120002Y-205570001I0J500000D01*
G01*
G37*
G36*
G01*
X406120002Y-208110001D02*
X406120002Y-207110001D01*
G75*
G02*
X406620002Y-206610001I500000J0D01*
G01*
X409620002Y-206610001D01*
G75*
G02*
X410120002Y-207110001I0J-500000D01*
G01*
X410120002Y-208110001D01*
G75*
G02*
X409620002Y-208610001I-500000J0D01*
G01*
X406620002Y-208610001D01*
G75*
G02*
X406120002Y-208110001I0J500000D01*
G01*
G37*
G36*
G01*
X406120002Y-210650001D02*
X406120002Y-209650001D01*
G75*
G02*
X406620002Y-209150001I500000J0D01*
G01*
X409620002Y-209150001D01*
G75*
G02*
X410120002Y-209650001I0J-500000D01*
G01*
X410120002Y-210650001D01*
G75*
G02*
X409620002Y-211150001I-500000J0D01*
G01*
X406620002Y-211150001D01*
G75*
G02*
X406120002Y-210650001I0J500000D01*
G01*
G37*
G36*
G01*
X406120002Y-213190001D02*
X406120002Y-212190001D01*
G75*
G02*
X406620002Y-211690001I500000J0D01*
G01*
X409620002Y-211690001D01*
G75*
G02*
X410120002Y-212190001I0J-500000D01*
G01*
X410120002Y-213190001D01*
G75*
G02*
X409620002Y-213690001I-500000J0D01*
G01*
X406620002Y-213690001D01*
G75*
G02*
X406120002Y-213190001I0J500000D01*
G01*
G37*
G36*
G01*
X406120002Y-215730001D02*
X406120002Y-214730001D01*
G75*
G02*
X406620002Y-214230001I500000J0D01*
G01*
X409620002Y-214230001D01*
G75*
G02*
X410120002Y-214730001I0J-500000D01*
G01*
X410120002Y-215730001D01*
G75*
G02*
X409620002Y-216230001I-500000J0D01*
G01*
X406620002Y-216230001D01*
G75*
G02*
X406120002Y-215730001I0J500000D01*
G01*
G37*
G36*
G01*
X406120002Y-218270001D02*
X406120002Y-217270001D01*
G75*
G02*
X406620002Y-216770001I500000J0D01*
G01*
X409620002Y-216770001D01*
G75*
G02*
X410120002Y-217270001I0J-500000D01*
G01*
X410120002Y-218270001D01*
G75*
G02*
X409620002Y-218770001I-500000J0D01*
G01*
X406620002Y-218770001D01*
G75*
G02*
X406120002Y-218270001I0J500000D01*
G01*
G37*
G36*
G01*
X406120002Y-220810001D02*
X406120002Y-219810001D01*
G75*
G02*
X406620002Y-219310001I500000J0D01*
G01*
X409620002Y-219310001D01*
G75*
G02*
X410120002Y-219810001I0J-500000D01*
G01*
X410120002Y-220810001D01*
G75*
G02*
X409620002Y-221310001I-500000J0D01*
G01*
X406620002Y-221310001D01*
G75*
G02*
X406120002Y-220810001I0J500000D01*
G01*
G37*
G36*
G01*
X406120002Y-223350001D02*
X406120002Y-222350001D01*
G75*
G02*
X406620002Y-221850001I500000J0D01*
G01*
X409620002Y-221850001D01*
G75*
G02*
X410120002Y-222350001I0J-500000D01*
G01*
X410120002Y-223350001D01*
G75*
G02*
X409620002Y-223850001I-500000J0D01*
G01*
X406620002Y-223850001D01*
G75*
G02*
X406120002Y-223350001I0J500000D01*
G01*
G37*
G36*
G01*
X406120002Y-225890001D02*
X406120002Y-224890001D01*
G75*
G02*
X406620002Y-224390001I500000J0D01*
G01*
X409620002Y-224390001D01*
G75*
G02*
X410120002Y-224890001I0J-500000D01*
G01*
X410120002Y-225890001D01*
G75*
G02*
X409620002Y-226390001I-500000J0D01*
G01*
X406620002Y-226390001D01*
G75*
G02*
X406120002Y-225890001I0J500000D01*
G01*
G37*
G36*
G01*
X406120002Y-228430001D02*
X406120002Y-227430001D01*
G75*
G02*
X406620002Y-226930001I500000J0D01*
G01*
X409620002Y-226930001D01*
G75*
G02*
X410120002Y-227430001I0J-500000D01*
G01*
X410120002Y-228430001D01*
G75*
G02*
X409620002Y-228930001I-500000J0D01*
G01*
X406620002Y-228930001D01*
G75*
G02*
X406120002Y-228430001I0J500000D01*
G01*
G37*
G36*
G01*
X406120002Y-230970001D02*
X406120002Y-229970001D01*
G75*
G02*
X406620002Y-229470001I500000J0D01*
G01*
X409620002Y-229470001D01*
G75*
G02*
X410120002Y-229970001I0J-500000D01*
G01*
X410120002Y-230970001D01*
G75*
G02*
X409620002Y-231470001I-500000J0D01*
G01*
X406620002Y-231470001D01*
G75*
G02*
X406120002Y-230970001I0J500000D01*
G01*
G37*
G36*
G01*
X406120002Y-233510001D02*
X406120002Y-232510001D01*
G75*
G02*
X406620002Y-232010001I500000J0D01*
G01*
X409620002Y-232010001D01*
G75*
G02*
X410120002Y-232510001I0J-500000D01*
G01*
X410120002Y-233510001D01*
G75*
G02*
X409620002Y-234010001I-500000J0D01*
G01*
X406620002Y-234010001D01*
G75*
G02*
X406120002Y-233510001I0J500000D01*
G01*
G37*
G36*
G01*
X366120002Y-176035001D02*
X366120002Y-174765001D01*
G75*
G02*
X366755002Y-174130001I635000J0D01*
G01*
X369485002Y-174130001D01*
G75*
G02*
X370120002Y-174765001I0J-635000D01*
G01*
X370120002Y-176035001D01*
G75*
G02*
X369485002Y-176670001I-635000J0D01*
G01*
X366755002Y-176670001D01*
G75*
G02*
X366120002Y-176035001I0J635000D01*
G01*
G37*
G36*
G01*
X406120002Y-176035001D02*
X406120002Y-174765001D01*
G75*
G02*
X406755002Y-174130001I635000J0D01*
G01*
X409485002Y-174130001D01*
G75*
G02*
X410120002Y-174765001I0J-635000D01*
G01*
X410120002Y-176035001D01*
G75*
G02*
X409485002Y-176670001I-635000J0D01*
G01*
X406755002Y-176670001D01*
G75*
G02*
X406120002Y-176035001I0J635000D01*
G01*
G37*
G36*
G01*
X366120002Y-242995001D02*
X366120002Y-241725001D01*
G75*
G02*
X366755002Y-241090001I635000J0D01*
G01*
X369485002Y-241090001D01*
G75*
G02*
X370120002Y-241725001I0J-635000D01*
G01*
X370120002Y-242995001D01*
G75*
G02*
X369485002Y-243630001I-635000J0D01*
G01*
X366755002Y-243630001D01*
G75*
G02*
X366120002Y-242995001I0J635000D01*
G01*
G37*
G36*
G01*
X406120002Y-242995001D02*
X406120002Y-241725001D01*
G75*
G02*
X406755002Y-241090001I635000J0D01*
G01*
X409485002Y-241090001D01*
G75*
G02*
X410120002Y-241725001I0J-635000D01*
G01*
X410120002Y-242995001D01*
G75*
G02*
X409485002Y-243630001I-635000J0D01*
G01*
X406755002Y-243630001D01*
G75*
G02*
X406120002Y-242995001I0J635000D01*
G01*
G37*
D10*
X324710000Y-114080000D03*
D11*
X324710000Y-116620000D03*
D10*
X201340000Y-250440000D03*
D11*
X201340000Y-252980000D03*
X201340000Y-255520000D03*
D10*
X230140000Y-194930000D03*
D11*
X232680000Y-194930000D03*
X235220000Y-194930000D03*
D15*
X419610000Y-104250000D03*
G36*
X264592082Y-155310000D02*
G01*
X263390000Y-156512082D01*
X262187918Y-155310000D01*
X263390000Y-154107918D01*
X264592082Y-155310000D01*
G37*
D11*
X265186051Y-153513949D03*
D10*
X411860000Y-163700000D03*
D11*
X411860000Y-161160000D03*
D10*
X211760000Y-196160000D03*
D11*
X211760000Y-198700000D03*
D14*
X417030000Y-108710000D03*
G36*
G01*
X285830000Y-247560000D02*
X285830000Y-247220000D01*
G75*
G02*
X285970000Y-247080000I140000J0D01*
G01*
X286250000Y-247080000D01*
G75*
G02*
X286390000Y-247220000I0J-140000D01*
G01*
X286390000Y-247560000D01*
G75*
G02*
X286250000Y-247700000I-140000J0D01*
G01*
X285970000Y-247700000D01*
G75*
G02*
X285830000Y-247560000I0J140000D01*
G01*
G37*
G36*
G01*
X286790000Y-247560000D02*
X286790000Y-247220000D01*
G75*
G02*
X286930000Y-247080000I140000J0D01*
G01*
X287210000Y-247080000D01*
G75*
G02*
X287350000Y-247220000I0J-140000D01*
G01*
X287350000Y-247560000D01*
G75*
G02*
X287210000Y-247700000I-140000J0D01*
G01*
X286930000Y-247700000D01*
G75*
G02*
X286790000Y-247560000I0J140000D01*
G01*
G37*
G36*
G01*
X357840000Y-266670000D02*
X357840000Y-265670000D01*
G75*
G02*
X358340000Y-265170000I500000J0D01*
G01*
X361340000Y-265170000D01*
G75*
G02*
X361840000Y-265670000I0J-500000D01*
G01*
X361840000Y-266670000D01*
G75*
G02*
X361340000Y-267170000I-500000J0D01*
G01*
X358340000Y-267170000D01*
G75*
G02*
X357840000Y-266670000I0J500000D01*
G01*
G37*
G36*
G01*
X357840000Y-294610000D02*
X357840000Y-293610000D01*
G75*
G02*
X358340000Y-293110000I500000J0D01*
G01*
X361340000Y-293110000D01*
G75*
G02*
X361840000Y-293610000I0J-500000D01*
G01*
X361840000Y-294610000D01*
G75*
G02*
X361340000Y-295110000I-500000J0D01*
G01*
X358340000Y-295110000D01*
G75*
G02*
X357840000Y-294610000I0J500000D01*
G01*
G37*
G36*
G01*
X377840000Y-266670000D02*
X377840000Y-265670000D01*
G75*
G02*
X378340000Y-265170000I500000J0D01*
G01*
X381340000Y-265170000D01*
G75*
G02*
X381840000Y-265670000I0J-500000D01*
G01*
X381840000Y-266670000D01*
G75*
G02*
X381340000Y-267170000I-500000J0D01*
G01*
X378340000Y-267170000D01*
G75*
G02*
X377840000Y-266670000I0J500000D01*
G01*
G37*
G36*
G01*
X377840000Y-284450000D02*
X377840000Y-283450000D01*
G75*
G02*
X378340000Y-282950000I500000J0D01*
G01*
X381340000Y-282950000D01*
G75*
G02*
X381840000Y-283450000I0J-500000D01*
G01*
X381840000Y-284450000D01*
G75*
G02*
X381340000Y-284950000I-500000J0D01*
G01*
X378340000Y-284950000D01*
G75*
G02*
X377840000Y-284450000I0J500000D01*
G01*
G37*
G36*
G01*
X377840000Y-286990000D02*
X377840000Y-285990000D01*
G75*
G02*
X378340000Y-285490000I500000J0D01*
G01*
X381340000Y-285490000D01*
G75*
G02*
X381840000Y-285990000I0J-500000D01*
G01*
X381840000Y-286990000D01*
G75*
G02*
X381340000Y-287490000I-500000J0D01*
G01*
X378340000Y-287490000D01*
G75*
G02*
X377840000Y-286990000I0J500000D01*
G01*
G37*
G36*
G01*
X377840000Y-289530000D02*
X377840000Y-288530000D01*
G75*
G02*
X378340000Y-288030000I500000J0D01*
G01*
X381340000Y-288030000D01*
G75*
G02*
X381840000Y-288530000I0J-500000D01*
G01*
X381840000Y-289530000D01*
G75*
G02*
X381340000Y-290030000I-500000J0D01*
G01*
X378340000Y-290030000D01*
G75*
G02*
X377840000Y-289530000I0J500000D01*
G01*
G37*
G36*
G01*
X377840000Y-292070000D02*
X377840000Y-291070000D01*
G75*
G02*
X378340000Y-290570000I500000J0D01*
G01*
X381340000Y-290570000D01*
G75*
G02*
X381840000Y-291070000I0J-500000D01*
G01*
X381840000Y-292070000D01*
G75*
G02*
X381340000Y-292570000I-500000J0D01*
G01*
X378340000Y-292570000D01*
G75*
G02*
X377840000Y-292070000I0J500000D01*
G01*
G37*
G36*
G01*
X377840000Y-294610000D02*
X377840000Y-293610000D01*
G75*
G02*
X378340000Y-293110000I500000J0D01*
G01*
X381340000Y-293110000D01*
G75*
G02*
X381840000Y-293610000I0J-500000D01*
G01*
X381840000Y-294610000D01*
G75*
G02*
X381340000Y-295110000I-500000J0D01*
G01*
X378340000Y-295110000D01*
G75*
G02*
X377840000Y-294610000I0J500000D01*
G01*
G37*
G36*
G01*
X357840000Y-262535000D02*
X357840000Y-261265000D01*
G75*
G02*
X358475000Y-260630000I635000J0D01*
G01*
X361205000Y-260630000D01*
G75*
G02*
X361840000Y-261265000I0J-635000D01*
G01*
X361840000Y-262535000D01*
G75*
G02*
X361205000Y-263170000I-635000J0D01*
G01*
X358475000Y-263170000D01*
G75*
G02*
X357840000Y-262535000I0J635000D01*
G01*
G37*
G36*
G01*
X377840000Y-262535000D02*
X377840000Y-261265000D01*
G75*
G02*
X378475000Y-260630000I635000J0D01*
G01*
X381205000Y-260630000D01*
G75*
G02*
X381840000Y-261265000I0J-635000D01*
G01*
X381840000Y-262535000D01*
G75*
G02*
X381205000Y-263170000I-635000J0D01*
G01*
X378475000Y-263170000D01*
G75*
G02*
X377840000Y-262535000I0J635000D01*
G01*
G37*
G36*
G01*
X357840000Y-299015000D02*
X357840000Y-297745000D01*
G75*
G02*
X358475000Y-297110000I635000J0D01*
G01*
X361205000Y-297110000D01*
G75*
G02*
X361840000Y-297745000I0J-635000D01*
G01*
X361840000Y-299015000D01*
G75*
G02*
X361205000Y-299650000I-635000J0D01*
G01*
X358475000Y-299650000D01*
G75*
G02*
X357840000Y-299015000I0J635000D01*
G01*
G37*
G36*
G01*
X377840000Y-299015000D02*
X377840000Y-297745000D01*
G75*
G02*
X378475000Y-297110000I635000J0D01*
G01*
X381205000Y-297110000D01*
G75*
G02*
X381840000Y-297745000I0J-635000D01*
G01*
X381840000Y-299015000D01*
G75*
G02*
X381205000Y-299650000I-635000J0D01*
G01*
X378475000Y-299650000D01*
G75*
G02*
X377840000Y-299015000I0J635000D01*
G01*
G37*
D10*
X262230000Y-207650000D03*
D11*
X262230000Y-205110000D03*
D15*
X121930000Y-104620000D03*
D14*
X262000000Y-107570000D03*
D10*
X411770000Y-156010000D03*
D11*
X411770000Y-153470000D03*
X411770000Y-150930000D03*
D10*
X358480000Y-197840000D03*
D11*
X358480000Y-195300000D03*
D10*
X323200000Y-171860000D03*
D11*
X323200000Y-174400000D03*
X323200000Y-176940000D03*
G36*
G01*
X414910000Y-284199999D02*
X414910000Y-285199999D01*
G75*
G02*
X414410000Y-285699999I-500000J0D01*
G01*
X411410000Y-285699999D01*
G75*
G02*
X410910000Y-285199999I0J500000D01*
G01*
X410910000Y-284199999D01*
G75*
G02*
X411410000Y-283699999I500000J0D01*
G01*
X414410000Y-283699999D01*
G75*
G02*
X414910000Y-284199999I0J-500000D01*
G01*
G37*
G36*
G01*
X414910000Y-253719999D02*
X414910000Y-254719999D01*
G75*
G02*
X414410000Y-255219999I-500000J0D01*
G01*
X411410000Y-255219999D01*
G75*
G02*
X410910000Y-254719999I0J500000D01*
G01*
X410910000Y-253719999D01*
G75*
G02*
X411410000Y-253219999I500000J0D01*
G01*
X414410000Y-253219999D01*
G75*
G02*
X414910000Y-253719999I0J-500000D01*
G01*
G37*
G36*
G01*
X394910000Y-284199999D02*
X394910000Y-285199999D01*
G75*
G02*
X394410000Y-285699999I-500000J0D01*
G01*
X391410000Y-285699999D01*
G75*
G02*
X390910000Y-285199999I0J500000D01*
G01*
X390910000Y-284199999D01*
G75*
G02*
X391410000Y-283699999I500000J0D01*
G01*
X394410000Y-283699999D01*
G75*
G02*
X394910000Y-284199999I0J-500000D01*
G01*
G37*
G36*
G01*
X394910000Y-256259999D02*
X394910000Y-257259999D01*
G75*
G02*
X394410000Y-257759999I-500000J0D01*
G01*
X391410000Y-257759999D01*
G75*
G02*
X390910000Y-257259999I0J500000D01*
G01*
X390910000Y-256259999D01*
G75*
G02*
X391410000Y-255759999I500000J0D01*
G01*
X394410000Y-255759999D01*
G75*
G02*
X394910000Y-256259999I0J-500000D01*
G01*
G37*
G36*
G01*
X394910000Y-253719999D02*
X394910000Y-254719999D01*
G75*
G02*
X394410000Y-255219999I-500000J0D01*
G01*
X391410000Y-255219999D01*
G75*
G02*
X390910000Y-254719999I0J500000D01*
G01*
X390910000Y-253719999D01*
G75*
G02*
X391410000Y-253219999I500000J0D01*
G01*
X394410000Y-253219999D01*
G75*
G02*
X394910000Y-253719999I0J-500000D01*
G01*
G37*
G36*
G01*
X414910000Y-288334999D02*
X414910000Y-289604999D01*
G75*
G02*
X414275000Y-290239999I-635000J0D01*
G01*
X411545000Y-290239999D01*
G75*
G02*
X410910000Y-289604999I0J635000D01*
G01*
X410910000Y-288334999D01*
G75*
G02*
X411545000Y-287699999I635000J0D01*
G01*
X414275000Y-287699999D01*
G75*
G02*
X414910000Y-288334999I0J-635000D01*
G01*
G37*
G36*
G01*
X394910000Y-288334999D02*
X394910000Y-289604999D01*
G75*
G02*
X394275000Y-290239999I-635000J0D01*
G01*
X391545000Y-290239999D01*
G75*
G02*
X390910000Y-289604999I0J635000D01*
G01*
X390910000Y-288334999D01*
G75*
G02*
X391545000Y-287699999I635000J0D01*
G01*
X394275000Y-287699999D01*
G75*
G02*
X394910000Y-288334999I0J-635000D01*
G01*
G37*
G36*
G01*
X414910000Y-249314999D02*
X414910000Y-250584999D01*
G75*
G02*
X414275000Y-251219999I-635000J0D01*
G01*
X411545000Y-251219999D01*
G75*
G02*
X410910000Y-250584999I0J635000D01*
G01*
X410910000Y-249314999D01*
G75*
G02*
X411545000Y-248679999I635000J0D01*
G01*
X414275000Y-248679999D01*
G75*
G02*
X414910000Y-249314999I0J-635000D01*
G01*
G37*
G36*
G01*
X394910000Y-249314999D02*
X394910000Y-250584999D01*
G75*
G02*
X394275000Y-251219999I-635000J0D01*
G01*
X391545000Y-251219999D01*
G75*
G02*
X390910000Y-250584999I0J635000D01*
G01*
X390910000Y-249314999D01*
G75*
G02*
X391545000Y-248679999I635000J0D01*
G01*
X394275000Y-248679999D01*
G75*
G02*
X394910000Y-249314999I0J-635000D01*
G01*
G37*
D10*
X199715000Y-296115000D03*
D11*
X202255000Y-296115000D03*
X204795000Y-296115000D03*
D10*
X244750000Y-194610000D03*
D11*
X247290000Y-194610000D03*
X249830000Y-194610000D03*
G36*
G01*
X187900000Y-148950000D02*
X187900000Y-147950000D01*
G75*
G02*
X188400000Y-147450000I500000J0D01*
G01*
X191400000Y-147450000D01*
G75*
G02*
X191900000Y-147950000I0J-500000D01*
G01*
X191900000Y-148950000D01*
G75*
G02*
X191400000Y-149450000I-500000J0D01*
G01*
X188400000Y-149450000D01*
G75*
G02*
X187900000Y-148950000I0J500000D01*
G01*
G37*
G36*
G01*
X187900000Y-154030000D02*
X187900000Y-153030000D01*
G75*
G02*
X188400000Y-152530000I500000J0D01*
G01*
X191400000Y-152530000D01*
G75*
G02*
X191900000Y-153030000I0J-500000D01*
G01*
X191900000Y-154030000D01*
G75*
G02*
X191400000Y-154530000I-500000J0D01*
G01*
X188400000Y-154530000D01*
G75*
G02*
X187900000Y-154030000I0J500000D01*
G01*
G37*
G36*
G01*
X187900000Y-171810000D02*
X187900000Y-170810000D01*
G75*
G02*
X188400000Y-170310000I500000J0D01*
G01*
X191400000Y-170310000D01*
G75*
G02*
X191900000Y-170810000I0J-500000D01*
G01*
X191900000Y-171810000D01*
G75*
G02*
X191400000Y-172310000I-500000J0D01*
G01*
X188400000Y-172310000D01*
G75*
G02*
X187900000Y-171810000I0J500000D01*
G01*
G37*
G36*
G01*
X187900000Y-174350000D02*
X187900000Y-173350000D01*
G75*
G02*
X188400000Y-172850000I500000J0D01*
G01*
X191400000Y-172850000D01*
G75*
G02*
X191900000Y-173350000I0J-500000D01*
G01*
X191900000Y-174350000D01*
G75*
G02*
X191400000Y-174850000I-500000J0D01*
G01*
X188400000Y-174850000D01*
G75*
G02*
X187900000Y-174350000I0J500000D01*
G01*
G37*
G36*
G01*
X203640000Y-148950000D02*
X203640000Y-147950000D01*
G75*
G02*
X204140000Y-147450000I500000J0D01*
G01*
X207140000Y-147450000D01*
G75*
G02*
X207640000Y-147950000I0J-500000D01*
G01*
X207640000Y-148950000D01*
G75*
G02*
X207140000Y-149450000I-500000J0D01*
G01*
X204140000Y-149450000D01*
G75*
G02*
X203640000Y-148950000I0J500000D01*
G01*
G37*
G36*
G01*
X203640000Y-151490000D02*
X203640000Y-150490000D01*
G75*
G02*
X204140000Y-149990000I500000J0D01*
G01*
X207140000Y-149990000D01*
G75*
G02*
X207640000Y-150490000I0J-500000D01*
G01*
X207640000Y-151490000D01*
G75*
G02*
X207140000Y-151990000I-500000J0D01*
G01*
X204140000Y-151990000D01*
G75*
G02*
X203640000Y-151490000I0J500000D01*
G01*
G37*
G36*
G01*
X203640000Y-171810000D02*
X203640000Y-170810000D01*
G75*
G02*
X204140000Y-170310000I500000J0D01*
G01*
X207140000Y-170310000D01*
G75*
G02*
X207640000Y-170810000I0J-500000D01*
G01*
X207640000Y-171810000D01*
G75*
G02*
X207140000Y-172310000I-500000J0D01*
G01*
X204140000Y-172310000D01*
G75*
G02*
X203640000Y-171810000I0J500000D01*
G01*
G37*
G36*
G01*
X203640000Y-174350000D02*
X203640000Y-173350000D01*
G75*
G02*
X204140000Y-172850000I500000J0D01*
G01*
X207140000Y-172850000D01*
G75*
G02*
X207640000Y-173350000I0J-500000D01*
G01*
X207640000Y-174350000D01*
G75*
G02*
X207140000Y-174850000I-500000J0D01*
G01*
X204140000Y-174850000D01*
G75*
G02*
X203640000Y-174350000I0J500000D01*
G01*
G37*
G36*
G01*
X187900000Y-178755000D02*
X187900000Y-177485000D01*
G75*
G02*
X188535000Y-176850000I635000J0D01*
G01*
X191265000Y-176850000D01*
G75*
G02*
X191900000Y-177485000I0J-635000D01*
G01*
X191900000Y-178755000D01*
G75*
G02*
X191265000Y-179390000I-635000J0D01*
G01*
X188535000Y-179390000D01*
G75*
G02*
X187900000Y-178755000I0J635000D01*
G01*
G37*
G36*
G01*
X203640000Y-178755000D02*
X203640000Y-177485000D01*
G75*
G02*
X204275000Y-176850000I635000J0D01*
G01*
X207005000Y-176850000D01*
G75*
G02*
X207640000Y-177485000I0J-635000D01*
G01*
X207640000Y-178755000D01*
G75*
G02*
X207005000Y-179390000I-635000J0D01*
G01*
X204275000Y-179390000D01*
G75*
G02*
X203640000Y-178755000I0J635000D01*
G01*
G37*
D15*
X121890000Y-299560000D03*
D13*
X332980000Y-178900000D03*
X334250000Y-178900000D03*
X335520000Y-178900000D03*
X336790000Y-178900000D03*
X338060000Y-178900000D03*
X339330000Y-178900000D03*
X340600000Y-178900000D03*
X341870000Y-178900000D03*
X343140000Y-178900000D03*
X344410000Y-178900000D03*
X345680000Y-178900000D03*
X346950000Y-178900000D03*
X346950000Y-169450000D03*
X345680000Y-169450000D03*
X344410000Y-169450000D03*
X343140000Y-169450000D03*
X341870000Y-169450000D03*
X340600000Y-169450000D03*
X339330000Y-169450000D03*
X338060000Y-169450000D03*
X336790000Y-169450000D03*
X335520000Y-169450000D03*
X334250000Y-169450000D03*
X332980000Y-169450000D03*
D10*
X136480000Y-260360000D03*
D11*
X136480000Y-257820000D03*
X139020000Y-260360000D03*
X139020000Y-257820000D03*
X141560000Y-260360000D03*
X141560000Y-257820000D03*
X144100000Y-260360000D03*
X144100000Y-257820000D03*
X146640000Y-260360000D03*
X146640000Y-257820000D03*
X149180000Y-260360000D03*
X149180000Y-257820000D03*
X151720000Y-260360000D03*
X151720000Y-257820000D03*
X154260000Y-260360000D03*
X154260000Y-257820000D03*
X156800000Y-260360000D03*
X156800000Y-257820000D03*
X159340000Y-260360000D03*
X159340000Y-257820000D03*
X161880000Y-260360000D03*
X161880000Y-257820000D03*
X164420000Y-260360000D03*
X164420000Y-257820000D03*
X166960000Y-260360000D03*
X166960000Y-257820000D03*
X169500000Y-260360000D03*
X169500000Y-257820000D03*
X172040000Y-260360000D03*
X172040000Y-257820000D03*
X174580000Y-260360000D03*
X174580000Y-257820000D03*
X177120000Y-260360000D03*
X177120000Y-257820000D03*
X179660000Y-260360000D03*
X179660000Y-257820000D03*
X182200000Y-260360000D03*
X182200000Y-257820000D03*
X184740000Y-260360000D03*
X184740000Y-257820000D03*
X187280000Y-260360000D03*
X187280000Y-257820000D03*
X189820000Y-260360000D03*
X189820000Y-257820000D03*
X192360000Y-260360000D03*
X192360000Y-257820000D03*
X194900000Y-260360000D03*
X194900000Y-257820000D03*
X197440000Y-260360000D03*
X197440000Y-257820000D03*
G36*
G01*
X306110000Y-291890000D02*
X306110000Y-292890000D01*
G75*
G02*
X305610000Y-293390000I-500000J0D01*
G01*
X302610000Y-293390000D01*
G75*
G02*
X302110000Y-292890000I0J500000D01*
G01*
X302110000Y-291890000D01*
G75*
G02*
X302610000Y-291390000I500000J0D01*
G01*
X305610000Y-291390000D01*
G75*
G02*
X306110000Y-291890000I0J-500000D01*
G01*
G37*
G36*
G01*
X306110000Y-274110000D02*
X306110000Y-275110000D01*
G75*
G02*
X305610000Y-275610000I-500000J0D01*
G01*
X302610000Y-275610000D01*
G75*
G02*
X302110000Y-275110000I0J500000D01*
G01*
X302110000Y-274110000D01*
G75*
G02*
X302610000Y-273610000I500000J0D01*
G01*
X305610000Y-273610000D01*
G75*
G02*
X306110000Y-274110000I0J-500000D01*
G01*
G37*
G36*
G01*
X291110000Y-291890000D02*
X291110000Y-292890000D01*
G75*
G02*
X290610000Y-293390000I-500000J0D01*
G01*
X287610000Y-293390000D01*
G75*
G02*
X287110000Y-292890000I0J500000D01*
G01*
X287110000Y-291890000D01*
G75*
G02*
X287610000Y-291390000I500000J0D01*
G01*
X290610000Y-291390000D01*
G75*
G02*
X291110000Y-291890000I0J-500000D01*
G01*
G37*
G36*
G01*
X291110000Y-279190000D02*
X291110000Y-280190000D01*
G75*
G02*
X290610000Y-280690000I-500000J0D01*
G01*
X287610000Y-280690000D01*
G75*
G02*
X287110000Y-280190000I0J500000D01*
G01*
X287110000Y-279190000D01*
G75*
G02*
X287610000Y-278690000I500000J0D01*
G01*
X290610000Y-278690000D01*
G75*
G02*
X291110000Y-279190000I0J-500000D01*
G01*
G37*
G36*
G01*
X291110000Y-276650000D02*
X291110000Y-277650000D01*
G75*
G02*
X290610000Y-278150000I-500000J0D01*
G01*
X287610000Y-278150000D01*
G75*
G02*
X287110000Y-277650000I0J500000D01*
G01*
X287110000Y-276650000D01*
G75*
G02*
X287610000Y-276150000I500000J0D01*
G01*
X290610000Y-276150000D01*
G75*
G02*
X291110000Y-276650000I0J-500000D01*
G01*
G37*
G36*
G01*
X291110000Y-274110000D02*
X291110000Y-275110000D01*
G75*
G02*
X290610000Y-275610000I-500000J0D01*
G01*
X287610000Y-275610000D01*
G75*
G02*
X287110000Y-275110000I0J500000D01*
G01*
X287110000Y-274110000D01*
G75*
G02*
X287610000Y-273610000I500000J0D01*
G01*
X290610000Y-273610000D01*
G75*
G02*
X291110000Y-274110000I0J-500000D01*
G01*
G37*
G36*
G01*
X306110000Y-296025000D02*
X306110000Y-297295000D01*
G75*
G02*
X305475000Y-297930000I-635000J0D01*
G01*
X302745000Y-297930000D01*
G75*
G02*
X302110000Y-297295000I0J635000D01*
G01*
X302110000Y-296025000D01*
G75*
G02*
X302745000Y-295390000I635000J0D01*
G01*
X305475000Y-295390000D01*
G75*
G02*
X306110000Y-296025000I0J-635000D01*
G01*
G37*
G36*
G01*
X291110000Y-296025000D02*
X291110000Y-297295000D01*
G75*
G02*
X290475000Y-297930000I-635000J0D01*
G01*
X287745000Y-297930000D01*
G75*
G02*
X287110000Y-297295000I0J635000D01*
G01*
X287110000Y-296025000D01*
G75*
G02*
X287745000Y-295390000I635000J0D01*
G01*
X290475000Y-295390000D01*
G75*
G02*
X291110000Y-296025000I0J-635000D01*
G01*
G37*
G36*
G01*
X306110000Y-269705000D02*
X306110000Y-270975000D01*
G75*
G02*
X305475000Y-271610000I-635000J0D01*
G01*
X302745000Y-271610000D01*
G75*
G02*
X302110000Y-270975000I0J635000D01*
G01*
X302110000Y-269705000D01*
G75*
G02*
X302745000Y-269070000I635000J0D01*
G01*
X305475000Y-269070000D01*
G75*
G02*
X306110000Y-269705000I0J-635000D01*
G01*
G37*
G36*
G01*
X291110000Y-269705000D02*
X291110000Y-270975000D01*
G75*
G02*
X290475000Y-271610000I-635000J0D01*
G01*
X287745000Y-271610000D01*
G75*
G02*
X287110000Y-270975000I0J635000D01*
G01*
X287110000Y-269705000D01*
G75*
G02*
X287745000Y-269070000I635000J0D01*
G01*
X290475000Y-269070000D01*
G75*
G02*
X291110000Y-269705000I0J-635000D01*
G01*
G37*
D10*
X271450000Y-195070000D03*
D11*
X273990000Y-195070000D03*
X276530000Y-195070000D03*
D10*
X219570000Y-195710000D03*
D11*
X217030000Y-195710000D03*
G36*
G01*
X413310000Y-136775000D02*
X413310000Y-136225000D01*
G75*
G02*
X413510000Y-136025000I200000J0D01*
G01*
X413910000Y-136025000D01*
G75*
G02*
X414110000Y-136225000I0J-200000D01*
G01*
X414110000Y-136775000D01*
G75*
G02*
X413910000Y-136975000I-200000J0D01*
G01*
X413510000Y-136975000D01*
G75*
G02*
X413310000Y-136775000I0J200000D01*
G01*
G37*
G36*
G01*
X414960000Y-136775000D02*
X414960000Y-136225000D01*
G75*
G02*
X415160000Y-136025000I200000J0D01*
G01*
X415560000Y-136025000D01*
G75*
G02*
X415760000Y-136225000I0J-200000D01*
G01*
X415760000Y-136775000D01*
G75*
G02*
X415560000Y-136975000I-200000J0D01*
G01*
X415160000Y-136975000D01*
G75*
G02*
X414960000Y-136775000I0J200000D01*
G01*
G37*
G36*
G01*
X154955000Y-276745000D02*
X155505000Y-276745000D01*
G75*
G02*
X155705000Y-276945000I0J-200000D01*
G01*
X155705000Y-277345000D01*
G75*
G02*
X155505000Y-277545000I-200000J0D01*
G01*
X154955000Y-277545000D01*
G75*
G02*
X154755000Y-277345000I0J200000D01*
G01*
X154755000Y-276945000D01*
G75*
G02*
X154955000Y-276745000I200000J0D01*
G01*
G37*
G36*
G01*
X154955000Y-278395000D02*
X155505000Y-278395000D01*
G75*
G02*
X155705000Y-278595000I0J-200000D01*
G01*
X155705000Y-278995000D01*
G75*
G02*
X155505000Y-279195000I-200000J0D01*
G01*
X154955000Y-279195000D01*
G75*
G02*
X154755000Y-278995000I0J200000D01*
G01*
X154755000Y-278595000D01*
G75*
G02*
X154955000Y-278395000I200000J0D01*
G01*
G37*
D10*
X374560000Y-119065000D03*
D11*
X377100000Y-119065000D03*
D14*
X417030000Y-297360000D03*
D10*
X246940000Y-280610000D03*
D11*
X246940000Y-278070000D03*
X246940000Y-275530000D03*
X246940000Y-272990000D03*
X246940000Y-270450000D03*
X246940000Y-267910000D03*
G36*
G01*
X215400000Y-202790000D02*
X216400000Y-202790000D01*
G75*
G02*
X216900000Y-203290000I0J-500000D01*
G01*
X216900000Y-206290000D01*
G75*
G02*
X216400000Y-206790000I-500000J0D01*
G01*
X215400000Y-206790000D01*
G75*
G02*
X214900000Y-206290000I0J500000D01*
G01*
X214900000Y-203290000D01*
G75*
G02*
X215400000Y-202790000I500000J0D01*
G01*
G37*
G36*
G01*
X212860000Y-202790000D02*
X213860000Y-202790000D01*
G75*
G02*
X214360000Y-203290000I0J-500000D01*
G01*
X214360000Y-206290000D01*
G75*
G02*
X213860000Y-206790000I-500000J0D01*
G01*
X212860000Y-206790000D01*
G75*
G02*
X212360000Y-206290000I0J500000D01*
G01*
X212360000Y-203290000D01*
G75*
G02*
X212860000Y-202790000I500000J0D01*
G01*
G37*
G36*
G01*
X210320000Y-202790000D02*
X211320000Y-202790000D01*
G75*
G02*
X211820000Y-203290000I0J-500000D01*
G01*
X211820000Y-206290000D01*
G75*
G02*
X211320000Y-206790000I-500000J0D01*
G01*
X210320000Y-206790000D01*
G75*
G02*
X209820000Y-206290000I0J500000D01*
G01*
X209820000Y-203290000D01*
G75*
G02*
X210320000Y-202790000I500000J0D01*
G01*
G37*
G36*
G01*
X207780000Y-202790000D02*
X208780000Y-202790000D01*
G75*
G02*
X209280000Y-203290000I0J-500000D01*
G01*
X209280000Y-206290000D01*
G75*
G02*
X208780000Y-206790000I-500000J0D01*
G01*
X207780000Y-206790000D01*
G75*
G02*
X207280000Y-206290000I0J500000D01*
G01*
X207280000Y-203290000D01*
G75*
G02*
X207780000Y-202790000I500000J0D01*
G01*
G37*
G36*
G01*
X205240000Y-202790000D02*
X206240000Y-202790000D01*
G75*
G02*
X206740000Y-203290000I0J-500000D01*
G01*
X206740000Y-206290000D01*
G75*
G02*
X206240000Y-206790000I-500000J0D01*
G01*
X205240000Y-206790000D01*
G75*
G02*
X204740000Y-206290000I0J500000D01*
G01*
X204740000Y-203290000D01*
G75*
G02*
X205240000Y-202790000I500000J0D01*
G01*
G37*
G36*
G01*
X202700000Y-202790000D02*
X203700000Y-202790000D01*
G75*
G02*
X204200000Y-203290000I0J-500000D01*
G01*
X204200000Y-206290000D01*
G75*
G02*
X203700000Y-206790000I-500000J0D01*
G01*
X202700000Y-206790000D01*
G75*
G02*
X202200000Y-206290000I0J500000D01*
G01*
X202200000Y-203290000D01*
G75*
G02*
X202700000Y-202790000I500000J0D01*
G01*
G37*
G36*
G01*
X200160000Y-202790000D02*
X201160000Y-202790000D01*
G75*
G02*
X201660000Y-203290000I0J-500000D01*
G01*
X201660000Y-206290000D01*
G75*
G02*
X201160000Y-206790000I-500000J0D01*
G01*
X200160000Y-206790000D01*
G75*
G02*
X199660000Y-206290000I0J500000D01*
G01*
X199660000Y-203290000D01*
G75*
G02*
X200160000Y-202790000I500000J0D01*
G01*
G37*
G36*
G01*
X197620000Y-202790000D02*
X198620000Y-202790000D01*
G75*
G02*
X199120000Y-203290000I0J-500000D01*
G01*
X199120000Y-206290000D01*
G75*
G02*
X198620000Y-206790000I-500000J0D01*
G01*
X197620000Y-206790000D01*
G75*
G02*
X197120000Y-206290000I0J500000D01*
G01*
X197120000Y-203290000D01*
G75*
G02*
X197620000Y-202790000I500000J0D01*
G01*
G37*
G36*
G01*
X174760000Y-202790000D02*
X175760000Y-202790000D01*
G75*
G02*
X176260000Y-203290000I0J-500000D01*
G01*
X176260000Y-206290000D01*
G75*
G02*
X175760000Y-206790000I-500000J0D01*
G01*
X174760000Y-206790000D01*
G75*
G02*
X174260000Y-206290000I0J500000D01*
G01*
X174260000Y-203290000D01*
G75*
G02*
X174760000Y-202790000I500000J0D01*
G01*
G37*
G36*
G01*
X172220000Y-202790000D02*
X173220000Y-202790000D01*
G75*
G02*
X173720000Y-203290000I0J-500000D01*
G01*
X173720000Y-206290000D01*
G75*
G02*
X173220000Y-206790000I-500000J0D01*
G01*
X172220000Y-206790000D01*
G75*
G02*
X171720000Y-206290000I0J500000D01*
G01*
X171720000Y-203290000D01*
G75*
G02*
X172220000Y-202790000I500000J0D01*
G01*
G37*
G36*
G01*
X169680000Y-202790000D02*
X170680000Y-202790000D01*
G75*
G02*
X171180000Y-203290000I0J-500000D01*
G01*
X171180000Y-206290000D01*
G75*
G02*
X170680000Y-206790000I-500000J0D01*
G01*
X169680000Y-206790000D01*
G75*
G02*
X169180000Y-206290000I0J500000D01*
G01*
X169180000Y-203290000D01*
G75*
G02*
X169680000Y-202790000I500000J0D01*
G01*
G37*
G36*
G01*
X167140000Y-202790000D02*
X168140000Y-202790000D01*
G75*
G02*
X168640000Y-203290000I0J-500000D01*
G01*
X168640000Y-206290000D01*
G75*
G02*
X168140000Y-206790000I-500000J0D01*
G01*
X167140000Y-206790000D01*
G75*
G02*
X166640000Y-206290000I0J500000D01*
G01*
X166640000Y-203290000D01*
G75*
G02*
X167140000Y-202790000I500000J0D01*
G01*
G37*
G36*
G01*
X164600000Y-202790000D02*
X165600000Y-202790000D01*
G75*
G02*
X166100000Y-203290000I0J-500000D01*
G01*
X166100000Y-206290000D01*
G75*
G02*
X165600000Y-206790000I-500000J0D01*
G01*
X164600000Y-206790000D01*
G75*
G02*
X164100000Y-206290000I0J500000D01*
G01*
X164100000Y-203290000D01*
G75*
G02*
X164600000Y-202790000I500000J0D01*
G01*
G37*
G36*
G01*
X162060000Y-202790000D02*
X163060000Y-202790000D01*
G75*
G02*
X163560000Y-203290000I0J-500000D01*
G01*
X163560000Y-206290000D01*
G75*
G02*
X163060000Y-206790000I-500000J0D01*
G01*
X162060000Y-206790000D01*
G75*
G02*
X161560000Y-206290000I0J500000D01*
G01*
X161560000Y-203290000D01*
G75*
G02*
X162060000Y-202790000I500000J0D01*
G01*
G37*
G36*
G01*
X159520000Y-202790000D02*
X160520000Y-202790000D01*
G75*
G02*
X161020000Y-203290000I0J-500000D01*
G01*
X161020000Y-206290000D01*
G75*
G02*
X160520000Y-206790000I-500000J0D01*
G01*
X159520000Y-206790000D01*
G75*
G02*
X159020000Y-206290000I0J500000D01*
G01*
X159020000Y-203290000D01*
G75*
G02*
X159520000Y-202790000I500000J0D01*
G01*
G37*
G36*
G01*
X156980000Y-202790000D02*
X157980000Y-202790000D01*
G75*
G02*
X158480000Y-203290000I0J-500000D01*
G01*
X158480000Y-206290000D01*
G75*
G02*
X157980000Y-206790000I-500000J0D01*
G01*
X156980000Y-206790000D01*
G75*
G02*
X156480000Y-206290000I0J500000D01*
G01*
X156480000Y-203290000D01*
G75*
G02*
X156980000Y-202790000I500000J0D01*
G01*
G37*
G36*
G01*
X154440000Y-202790000D02*
X155440000Y-202790000D01*
G75*
G02*
X155940000Y-203290000I0J-500000D01*
G01*
X155940000Y-206290000D01*
G75*
G02*
X155440000Y-206790000I-500000J0D01*
G01*
X154440000Y-206790000D01*
G75*
G02*
X153940000Y-206290000I0J500000D01*
G01*
X153940000Y-203290000D01*
G75*
G02*
X154440000Y-202790000I500000J0D01*
G01*
G37*
G36*
G01*
X151900000Y-202790000D02*
X152900000Y-202790000D01*
G75*
G02*
X153400000Y-203290000I0J-500000D01*
G01*
X153400000Y-206290000D01*
G75*
G02*
X152900000Y-206790000I-500000J0D01*
G01*
X151900000Y-206790000D01*
G75*
G02*
X151400000Y-206290000I0J500000D01*
G01*
X151400000Y-203290000D01*
G75*
G02*
X151900000Y-202790000I500000J0D01*
G01*
G37*
G36*
G01*
X149360000Y-202790000D02*
X150360000Y-202790000D01*
G75*
G02*
X150860000Y-203290000I0J-500000D01*
G01*
X150860000Y-206290000D01*
G75*
G02*
X150360000Y-206790000I-500000J0D01*
G01*
X149360000Y-206790000D01*
G75*
G02*
X148860000Y-206290000I0J500000D01*
G01*
X148860000Y-203290000D01*
G75*
G02*
X149360000Y-202790000I500000J0D01*
G01*
G37*
G36*
G01*
X146820000Y-202790000D02*
X147820000Y-202790000D01*
G75*
G02*
X148320000Y-203290000I0J-500000D01*
G01*
X148320000Y-206290000D01*
G75*
G02*
X147820000Y-206790000I-500000J0D01*
G01*
X146820000Y-206790000D01*
G75*
G02*
X146320000Y-206290000I0J500000D01*
G01*
X146320000Y-203290000D01*
G75*
G02*
X146820000Y-202790000I500000J0D01*
G01*
G37*
G36*
G01*
X144280000Y-202790000D02*
X145280000Y-202790000D01*
G75*
G02*
X145780000Y-203290000I0J-500000D01*
G01*
X145780000Y-206290000D01*
G75*
G02*
X145280000Y-206790000I-500000J0D01*
G01*
X144280000Y-206790000D01*
G75*
G02*
X143780000Y-206290000I0J500000D01*
G01*
X143780000Y-203290000D01*
G75*
G02*
X144280000Y-202790000I500000J0D01*
G01*
G37*
G36*
G01*
X141740000Y-202790000D02*
X142740000Y-202790000D01*
G75*
G02*
X143240000Y-203290000I0J-500000D01*
G01*
X143240000Y-206290000D01*
G75*
G02*
X142740000Y-206790000I-500000J0D01*
G01*
X141740000Y-206790000D01*
G75*
G02*
X141240000Y-206290000I0J500000D01*
G01*
X141240000Y-203290000D01*
G75*
G02*
X141740000Y-202790000I500000J0D01*
G01*
G37*
G36*
G01*
X139200000Y-202790000D02*
X140200000Y-202790000D01*
G75*
G02*
X140700000Y-203290000I0J-500000D01*
G01*
X140700000Y-206290000D01*
G75*
G02*
X140200000Y-206790000I-500000J0D01*
G01*
X139200000Y-206790000D01*
G75*
G02*
X138700000Y-206290000I0J500000D01*
G01*
X138700000Y-203290000D01*
G75*
G02*
X139200000Y-202790000I500000J0D01*
G01*
G37*
G36*
G01*
X136660000Y-202790000D02*
X137660000Y-202790000D01*
G75*
G02*
X138160000Y-203290000I0J-500000D01*
G01*
X138160000Y-206290000D01*
G75*
G02*
X137660000Y-206790000I-500000J0D01*
G01*
X136660000Y-206790000D01*
G75*
G02*
X136160000Y-206290000I0J500000D01*
G01*
X136160000Y-203290000D01*
G75*
G02*
X136660000Y-202790000I500000J0D01*
G01*
G37*
G36*
G01*
X134120000Y-202790000D02*
X135120000Y-202790000D01*
G75*
G02*
X135620000Y-203290000I0J-500000D01*
G01*
X135620000Y-206290000D01*
G75*
G02*
X135120000Y-206790000I-500000J0D01*
G01*
X134120000Y-206790000D01*
G75*
G02*
X133620000Y-206290000I0J500000D01*
G01*
X133620000Y-203290000D01*
G75*
G02*
X134120000Y-202790000I500000J0D01*
G01*
G37*
G36*
G01*
X131580000Y-202790000D02*
X132580000Y-202790000D01*
G75*
G02*
X133080000Y-203290000I0J-500000D01*
G01*
X133080000Y-206290000D01*
G75*
G02*
X132580000Y-206790000I-500000J0D01*
G01*
X131580000Y-206790000D01*
G75*
G02*
X131080000Y-206290000I0J500000D01*
G01*
X131080000Y-203290000D01*
G75*
G02*
X131580000Y-202790000I500000J0D01*
G01*
G37*
G36*
G01*
X129040000Y-202790000D02*
X130040000Y-202790000D01*
G75*
G02*
X130540000Y-203290000I0J-500000D01*
G01*
X130540000Y-206290000D01*
G75*
G02*
X130040000Y-206790000I-500000J0D01*
G01*
X129040000Y-206790000D01*
G75*
G02*
X128540000Y-206290000I0J500000D01*
G01*
X128540000Y-203290000D01*
G75*
G02*
X129040000Y-202790000I500000J0D01*
G01*
G37*
G36*
G01*
X126500000Y-202790000D02*
X127500000Y-202790000D01*
G75*
G02*
X128000000Y-203290000I0J-500000D01*
G01*
X128000000Y-206290000D01*
G75*
G02*
X127500000Y-206790000I-500000J0D01*
G01*
X126500000Y-206790000D01*
G75*
G02*
X126000000Y-206290000I0J500000D01*
G01*
X126000000Y-203290000D01*
G75*
G02*
X126500000Y-202790000I500000J0D01*
G01*
G37*
G36*
G01*
X215400000Y-242790000D02*
X216400000Y-242790000D01*
G75*
G02*
X216900000Y-243290000I0J-500000D01*
G01*
X216900000Y-246290000D01*
G75*
G02*
X216400000Y-246790000I-500000J0D01*
G01*
X215400000Y-246790000D01*
G75*
G02*
X214900000Y-246290000I0J500000D01*
G01*
X214900000Y-243290000D01*
G75*
G02*
X215400000Y-242790000I500000J0D01*
G01*
G37*
G36*
G01*
X212860000Y-242790000D02*
X213860000Y-242790000D01*
G75*
G02*
X214360000Y-243290000I0J-500000D01*
G01*
X214360000Y-246290000D01*
G75*
G02*
X213860000Y-246790000I-500000J0D01*
G01*
X212860000Y-246790000D01*
G75*
G02*
X212360000Y-246290000I0J500000D01*
G01*
X212360000Y-243290000D01*
G75*
G02*
X212860000Y-242790000I500000J0D01*
G01*
G37*
G36*
G01*
X210320000Y-242790000D02*
X211320000Y-242790000D01*
G75*
G02*
X211820000Y-243290000I0J-500000D01*
G01*
X211820000Y-246290000D01*
G75*
G02*
X211320000Y-246790000I-500000J0D01*
G01*
X210320000Y-246790000D01*
G75*
G02*
X209820000Y-246290000I0J500000D01*
G01*
X209820000Y-243290000D01*
G75*
G02*
X210320000Y-242790000I500000J0D01*
G01*
G37*
G36*
G01*
X207780000Y-242790000D02*
X208780000Y-242790000D01*
G75*
G02*
X209280000Y-243290000I0J-500000D01*
G01*
X209280000Y-246290000D01*
G75*
G02*
X208780000Y-246790000I-500000J0D01*
G01*
X207780000Y-246790000D01*
G75*
G02*
X207280000Y-246290000I0J500000D01*
G01*
X207280000Y-243290000D01*
G75*
G02*
X207780000Y-242790000I500000J0D01*
G01*
G37*
G36*
G01*
X205240000Y-242790000D02*
X206240000Y-242790000D01*
G75*
G02*
X206740000Y-243290000I0J-500000D01*
G01*
X206740000Y-246290000D01*
G75*
G02*
X206240000Y-246790000I-500000J0D01*
G01*
X205240000Y-246790000D01*
G75*
G02*
X204740000Y-246290000I0J500000D01*
G01*
X204740000Y-243290000D01*
G75*
G02*
X205240000Y-242790000I500000J0D01*
G01*
G37*
G36*
G01*
X202700000Y-242790000D02*
X203700000Y-242790000D01*
G75*
G02*
X204200000Y-243290000I0J-500000D01*
G01*
X204200000Y-246290000D01*
G75*
G02*
X203700000Y-246790000I-500000J0D01*
G01*
X202700000Y-246790000D01*
G75*
G02*
X202200000Y-246290000I0J500000D01*
G01*
X202200000Y-243290000D01*
G75*
G02*
X202700000Y-242790000I500000J0D01*
G01*
G37*
G36*
G01*
X200160000Y-242790000D02*
X201160000Y-242790000D01*
G75*
G02*
X201660000Y-243290000I0J-500000D01*
G01*
X201660000Y-246290000D01*
G75*
G02*
X201160000Y-246790000I-500000J0D01*
G01*
X200160000Y-246790000D01*
G75*
G02*
X199660000Y-246290000I0J500000D01*
G01*
X199660000Y-243290000D01*
G75*
G02*
X200160000Y-242790000I500000J0D01*
G01*
G37*
G36*
G01*
X197620000Y-242790000D02*
X198620000Y-242790000D01*
G75*
G02*
X199120000Y-243290000I0J-500000D01*
G01*
X199120000Y-246290000D01*
G75*
G02*
X198620000Y-246790000I-500000J0D01*
G01*
X197620000Y-246790000D01*
G75*
G02*
X197120000Y-246290000I0J500000D01*
G01*
X197120000Y-243290000D01*
G75*
G02*
X197620000Y-242790000I500000J0D01*
G01*
G37*
G36*
G01*
X195080000Y-242790000D02*
X196080000Y-242790000D01*
G75*
G02*
X196580000Y-243290000I0J-500000D01*
G01*
X196580000Y-246290000D01*
G75*
G02*
X196080000Y-246790000I-500000J0D01*
G01*
X195080000Y-246790000D01*
G75*
G02*
X194580000Y-246290000I0J500000D01*
G01*
X194580000Y-243290000D01*
G75*
G02*
X195080000Y-242790000I500000J0D01*
G01*
G37*
G36*
G01*
X192540000Y-242790000D02*
X193540000Y-242790000D01*
G75*
G02*
X194040000Y-243290000I0J-500000D01*
G01*
X194040000Y-246290000D01*
G75*
G02*
X193540000Y-246790000I-500000J0D01*
G01*
X192540000Y-246790000D01*
G75*
G02*
X192040000Y-246290000I0J500000D01*
G01*
X192040000Y-243290000D01*
G75*
G02*
X192540000Y-242790000I500000J0D01*
G01*
G37*
G36*
G01*
X190000000Y-242790000D02*
X191000000Y-242790000D01*
G75*
G02*
X191500000Y-243290000I0J-500000D01*
G01*
X191500000Y-246290000D01*
G75*
G02*
X191000000Y-246790000I-500000J0D01*
G01*
X190000000Y-246790000D01*
G75*
G02*
X189500000Y-246290000I0J500000D01*
G01*
X189500000Y-243290000D01*
G75*
G02*
X190000000Y-242790000I500000J0D01*
G01*
G37*
G36*
G01*
X187460000Y-242790000D02*
X188460000Y-242790000D01*
G75*
G02*
X188960000Y-243290000I0J-500000D01*
G01*
X188960000Y-246290000D01*
G75*
G02*
X188460000Y-246790000I-500000J0D01*
G01*
X187460000Y-246790000D01*
G75*
G02*
X186960000Y-246290000I0J500000D01*
G01*
X186960000Y-243290000D01*
G75*
G02*
X187460000Y-242790000I500000J0D01*
G01*
G37*
G36*
G01*
X184920000Y-242790000D02*
X185920000Y-242790000D01*
G75*
G02*
X186420000Y-243290000I0J-500000D01*
G01*
X186420000Y-246290000D01*
G75*
G02*
X185920000Y-246790000I-500000J0D01*
G01*
X184920000Y-246790000D01*
G75*
G02*
X184420000Y-246290000I0J500000D01*
G01*
X184420000Y-243290000D01*
G75*
G02*
X184920000Y-242790000I500000J0D01*
G01*
G37*
G36*
G01*
X182380000Y-242790000D02*
X183380000Y-242790000D01*
G75*
G02*
X183880000Y-243290000I0J-500000D01*
G01*
X183880000Y-246290000D01*
G75*
G02*
X183380000Y-246790000I-500000J0D01*
G01*
X182380000Y-246790000D01*
G75*
G02*
X181880000Y-246290000I0J500000D01*
G01*
X181880000Y-243290000D01*
G75*
G02*
X182380000Y-242790000I500000J0D01*
G01*
G37*
G36*
G01*
X179840000Y-242790000D02*
X180840000Y-242790000D01*
G75*
G02*
X181340000Y-243290000I0J-500000D01*
G01*
X181340000Y-246290000D01*
G75*
G02*
X180840000Y-246790000I-500000J0D01*
G01*
X179840000Y-246790000D01*
G75*
G02*
X179340000Y-246290000I0J500000D01*
G01*
X179340000Y-243290000D01*
G75*
G02*
X179840000Y-242790000I500000J0D01*
G01*
G37*
G36*
G01*
X177300000Y-242790000D02*
X178300000Y-242790000D01*
G75*
G02*
X178800000Y-243290000I0J-500000D01*
G01*
X178800000Y-246290000D01*
G75*
G02*
X178300000Y-246790000I-500000J0D01*
G01*
X177300000Y-246790000D01*
G75*
G02*
X176800000Y-246290000I0J500000D01*
G01*
X176800000Y-243290000D01*
G75*
G02*
X177300000Y-242790000I500000J0D01*
G01*
G37*
G36*
G01*
X174760000Y-242790000D02*
X175760000Y-242790000D01*
G75*
G02*
X176260000Y-243290000I0J-500000D01*
G01*
X176260000Y-246290000D01*
G75*
G02*
X175760000Y-246790000I-500000J0D01*
G01*
X174760000Y-246790000D01*
G75*
G02*
X174260000Y-246290000I0J500000D01*
G01*
X174260000Y-243290000D01*
G75*
G02*
X174760000Y-242790000I500000J0D01*
G01*
G37*
G36*
G01*
X172220000Y-242790000D02*
X173220000Y-242790000D01*
G75*
G02*
X173720000Y-243290000I0J-500000D01*
G01*
X173720000Y-246290000D01*
G75*
G02*
X173220000Y-246790000I-500000J0D01*
G01*
X172220000Y-246790000D01*
G75*
G02*
X171720000Y-246290000I0J500000D01*
G01*
X171720000Y-243290000D01*
G75*
G02*
X172220000Y-242790000I500000J0D01*
G01*
G37*
G36*
G01*
X169680000Y-242790000D02*
X170680000Y-242790000D01*
G75*
G02*
X171180000Y-243290000I0J-500000D01*
G01*
X171180000Y-246290000D01*
G75*
G02*
X170680000Y-246790000I-500000J0D01*
G01*
X169680000Y-246790000D01*
G75*
G02*
X169180000Y-246290000I0J500000D01*
G01*
X169180000Y-243290000D01*
G75*
G02*
X169680000Y-242790000I500000J0D01*
G01*
G37*
G36*
G01*
X167140000Y-242790000D02*
X168140000Y-242790000D01*
G75*
G02*
X168640000Y-243290000I0J-500000D01*
G01*
X168640000Y-246290000D01*
G75*
G02*
X168140000Y-246790000I-500000J0D01*
G01*
X167140000Y-246790000D01*
G75*
G02*
X166640000Y-246290000I0J500000D01*
G01*
X166640000Y-243290000D01*
G75*
G02*
X167140000Y-242790000I500000J0D01*
G01*
G37*
G36*
G01*
X164600000Y-242790000D02*
X165600000Y-242790000D01*
G75*
G02*
X166100000Y-243290000I0J-500000D01*
G01*
X166100000Y-246290000D01*
G75*
G02*
X165600000Y-246790000I-500000J0D01*
G01*
X164600000Y-246790000D01*
G75*
G02*
X164100000Y-246290000I0J500000D01*
G01*
X164100000Y-243290000D01*
G75*
G02*
X164600000Y-242790000I500000J0D01*
G01*
G37*
G36*
G01*
X162060000Y-242790000D02*
X163060000Y-242790000D01*
G75*
G02*
X163560000Y-243290000I0J-500000D01*
G01*
X163560000Y-246290000D01*
G75*
G02*
X163060000Y-246790000I-500000J0D01*
G01*
X162060000Y-246790000D01*
G75*
G02*
X161560000Y-246290000I0J500000D01*
G01*
X161560000Y-243290000D01*
G75*
G02*
X162060000Y-242790000I500000J0D01*
G01*
G37*
G36*
G01*
X159520000Y-242790000D02*
X160520000Y-242790000D01*
G75*
G02*
X161020000Y-243290000I0J-500000D01*
G01*
X161020000Y-246290000D01*
G75*
G02*
X160520000Y-246790000I-500000J0D01*
G01*
X159520000Y-246790000D01*
G75*
G02*
X159020000Y-246290000I0J500000D01*
G01*
X159020000Y-243290000D01*
G75*
G02*
X159520000Y-242790000I500000J0D01*
G01*
G37*
G36*
G01*
X156980000Y-242790000D02*
X157980000Y-242790000D01*
G75*
G02*
X158480000Y-243290000I0J-500000D01*
G01*
X158480000Y-246290000D01*
G75*
G02*
X157980000Y-246790000I-500000J0D01*
G01*
X156980000Y-246790000D01*
G75*
G02*
X156480000Y-246290000I0J500000D01*
G01*
X156480000Y-243290000D01*
G75*
G02*
X156980000Y-242790000I500000J0D01*
G01*
G37*
G36*
G01*
X154440000Y-242790000D02*
X155440000Y-242790000D01*
G75*
G02*
X155940000Y-243290000I0J-500000D01*
G01*
X155940000Y-246290000D01*
G75*
G02*
X155440000Y-246790000I-500000J0D01*
G01*
X154440000Y-246790000D01*
G75*
G02*
X153940000Y-246290000I0J500000D01*
G01*
X153940000Y-243290000D01*
G75*
G02*
X154440000Y-242790000I500000J0D01*
G01*
G37*
G36*
G01*
X151900000Y-242790000D02*
X152900000Y-242790000D01*
G75*
G02*
X153400000Y-243290000I0J-500000D01*
G01*
X153400000Y-246290000D01*
G75*
G02*
X152900000Y-246790000I-500000J0D01*
G01*
X151900000Y-246790000D01*
G75*
G02*
X151400000Y-246290000I0J500000D01*
G01*
X151400000Y-243290000D01*
G75*
G02*
X151900000Y-242790000I500000J0D01*
G01*
G37*
G36*
G01*
X149360000Y-242790000D02*
X150360000Y-242790000D01*
G75*
G02*
X150860000Y-243290000I0J-500000D01*
G01*
X150860000Y-246290000D01*
G75*
G02*
X150360000Y-246790000I-500000J0D01*
G01*
X149360000Y-246790000D01*
G75*
G02*
X148860000Y-246290000I0J500000D01*
G01*
X148860000Y-243290000D01*
G75*
G02*
X149360000Y-242790000I500000J0D01*
G01*
G37*
G36*
G01*
X146820000Y-242790000D02*
X147820000Y-242790000D01*
G75*
G02*
X148320000Y-243290000I0J-500000D01*
G01*
X148320000Y-246290000D01*
G75*
G02*
X147820000Y-246790000I-500000J0D01*
G01*
X146820000Y-246790000D01*
G75*
G02*
X146320000Y-246290000I0J500000D01*
G01*
X146320000Y-243290000D01*
G75*
G02*
X146820000Y-242790000I500000J0D01*
G01*
G37*
G36*
G01*
X144280000Y-242790000D02*
X145280000Y-242790000D01*
G75*
G02*
X145780000Y-243290000I0J-500000D01*
G01*
X145780000Y-246290000D01*
G75*
G02*
X145280000Y-246790000I-500000J0D01*
G01*
X144280000Y-246790000D01*
G75*
G02*
X143780000Y-246290000I0J500000D01*
G01*
X143780000Y-243290000D01*
G75*
G02*
X144280000Y-242790000I500000J0D01*
G01*
G37*
G36*
G01*
X141740000Y-242790000D02*
X142740000Y-242790000D01*
G75*
G02*
X143240000Y-243290000I0J-500000D01*
G01*
X143240000Y-246290000D01*
G75*
G02*
X142740000Y-246790000I-500000J0D01*
G01*
X141740000Y-246790000D01*
G75*
G02*
X141240000Y-246290000I0J500000D01*
G01*
X141240000Y-243290000D01*
G75*
G02*
X141740000Y-242790000I500000J0D01*
G01*
G37*
G36*
G01*
X139200000Y-242790000D02*
X140200000Y-242790000D01*
G75*
G02*
X140700000Y-243290000I0J-500000D01*
G01*
X140700000Y-246290000D01*
G75*
G02*
X140200000Y-246790000I-500000J0D01*
G01*
X139200000Y-246790000D01*
G75*
G02*
X138700000Y-246290000I0J500000D01*
G01*
X138700000Y-243290000D01*
G75*
G02*
X139200000Y-242790000I500000J0D01*
G01*
G37*
G36*
G01*
X136660000Y-242790000D02*
X137660000Y-242790000D01*
G75*
G02*
X138160000Y-243290000I0J-500000D01*
G01*
X138160000Y-246290000D01*
G75*
G02*
X137660000Y-246790000I-500000J0D01*
G01*
X136660000Y-246790000D01*
G75*
G02*
X136160000Y-246290000I0J500000D01*
G01*
X136160000Y-243290000D01*
G75*
G02*
X136660000Y-242790000I500000J0D01*
G01*
G37*
G36*
G01*
X134120000Y-242790000D02*
X135120000Y-242790000D01*
G75*
G02*
X135620000Y-243290000I0J-500000D01*
G01*
X135620000Y-246290000D01*
G75*
G02*
X135120000Y-246790000I-500000J0D01*
G01*
X134120000Y-246790000D01*
G75*
G02*
X133620000Y-246290000I0J500000D01*
G01*
X133620000Y-243290000D01*
G75*
G02*
X134120000Y-242790000I500000J0D01*
G01*
G37*
G36*
G01*
X131580000Y-242790000D02*
X132580000Y-242790000D01*
G75*
G02*
X133080000Y-243290000I0J-500000D01*
G01*
X133080000Y-246290000D01*
G75*
G02*
X132580000Y-246790000I-500000J0D01*
G01*
X131580000Y-246790000D01*
G75*
G02*
X131080000Y-246290000I0J500000D01*
G01*
X131080000Y-243290000D01*
G75*
G02*
X131580000Y-242790000I500000J0D01*
G01*
G37*
G36*
G01*
X129040000Y-242790000D02*
X130040000Y-242790000D01*
G75*
G02*
X130540000Y-243290000I0J-500000D01*
G01*
X130540000Y-246290000D01*
G75*
G02*
X130040000Y-246790000I-500000J0D01*
G01*
X129040000Y-246790000D01*
G75*
G02*
X128540000Y-246290000I0J500000D01*
G01*
X128540000Y-243290000D01*
G75*
G02*
X129040000Y-242790000I500000J0D01*
G01*
G37*
G36*
G01*
X126500000Y-242790000D02*
X127500000Y-242790000D01*
G75*
G02*
X128000000Y-243290000I0J-500000D01*
G01*
X128000000Y-246290000D01*
G75*
G02*
X127500000Y-246790000I-500000J0D01*
G01*
X126500000Y-246790000D01*
G75*
G02*
X126000000Y-246290000I0J500000D01*
G01*
X126000000Y-243290000D01*
G75*
G02*
X126500000Y-242790000I500000J0D01*
G01*
G37*
G36*
G01*
X219535000Y-202790000D02*
X220805000Y-202790000D01*
G75*
G02*
X221440000Y-203425000I0J-635000D01*
G01*
X221440000Y-206155000D01*
G75*
G02*
X220805000Y-206790000I-635000J0D01*
G01*
X219535000Y-206790000D01*
G75*
G02*
X218900000Y-206155000I0J635000D01*
G01*
X218900000Y-203425000D01*
G75*
G02*
X219535000Y-202790000I635000J0D01*
G01*
G37*
G36*
G01*
X219535000Y-242790000D02*
X220805000Y-242790000D01*
G75*
G02*
X221440000Y-243425000I0J-635000D01*
G01*
X221440000Y-246155000D01*
G75*
G02*
X220805000Y-246790000I-635000J0D01*
G01*
X219535000Y-246790000D01*
G75*
G02*
X218900000Y-246155000I0J635000D01*
G01*
X218900000Y-243425000D01*
G75*
G02*
X219535000Y-242790000I635000J0D01*
G01*
G37*
G36*
G01*
X122095000Y-202790000D02*
X123365000Y-202790000D01*
G75*
G02*
X124000000Y-203425000I0J-635000D01*
G01*
X124000000Y-206155000D01*
G75*
G02*
X123365000Y-206790000I-635000J0D01*
G01*
X122095000Y-206790000D01*
G75*
G02*
X121460000Y-206155000I0J635000D01*
G01*
X121460000Y-203425000D01*
G75*
G02*
X122095000Y-202790000I635000J0D01*
G01*
G37*
G36*
G01*
X122095000Y-242790000D02*
X123365000Y-242790000D01*
G75*
G02*
X124000000Y-243425000I0J-635000D01*
G01*
X124000000Y-246155000D01*
G75*
G02*
X123365000Y-246790000I-635000J0D01*
G01*
X122095000Y-246790000D01*
G75*
G02*
X121460000Y-246155000I0J635000D01*
G01*
X121460000Y-243425000D01*
G75*
G02*
X122095000Y-242790000I635000J0D01*
G01*
G37*
D10*
X266230000Y-254340000D03*
D11*
X266230000Y-256880000D03*
X266230000Y-259420000D03*
D10*
X281040000Y-262925000D03*
D11*
X278500000Y-262925000D03*
D10*
X415995000Y-229130000D03*
D11*
X415995000Y-231670000D03*
G36*
G01*
X265650000Y-204640001D02*
X265650000Y-203640001D01*
G75*
G02*
X266150000Y-203140001I500000J0D01*
G01*
X269150000Y-203140001D01*
G75*
G02*
X269650000Y-203640001I0J-500000D01*
G01*
X269650000Y-204640001D01*
G75*
G02*
X269150000Y-205140001I-500000J0D01*
G01*
X266150000Y-205140001D01*
G75*
G02*
X265650000Y-204640001I0J500000D01*
G01*
G37*
G36*
G01*
X265650000Y-209720001D02*
X265650000Y-208720001D01*
G75*
G02*
X266150000Y-208220001I500000J0D01*
G01*
X269150000Y-208220001D01*
G75*
G02*
X269650000Y-208720001I0J-500000D01*
G01*
X269650000Y-209720001D01*
G75*
G02*
X269150000Y-210220001I-500000J0D01*
G01*
X266150000Y-210220001D01*
G75*
G02*
X265650000Y-209720001I0J500000D01*
G01*
G37*
G36*
G01*
X265650000Y-212260001D02*
X265650000Y-211260001D01*
G75*
G02*
X266150000Y-210760001I500000J0D01*
G01*
X269150000Y-210760001D01*
G75*
G02*
X269650000Y-211260001I0J-500000D01*
G01*
X269650000Y-212260001D01*
G75*
G02*
X269150000Y-212760001I-500000J0D01*
G01*
X266150000Y-212760001D01*
G75*
G02*
X265650000Y-212260001I0J500000D01*
G01*
G37*
G36*
G01*
X265650000Y-214800001D02*
X265650000Y-213800001D01*
G75*
G02*
X266150000Y-213300001I500000J0D01*
G01*
X269150000Y-213300001D01*
G75*
G02*
X269650000Y-213800001I0J-500000D01*
G01*
X269650000Y-214800001D01*
G75*
G02*
X269150000Y-215300001I-500000J0D01*
G01*
X266150000Y-215300001D01*
G75*
G02*
X265650000Y-214800001I0J500000D01*
G01*
G37*
G36*
G01*
X265650000Y-217340001D02*
X265650000Y-216340001D01*
G75*
G02*
X266150000Y-215840001I500000J0D01*
G01*
X269150000Y-215840001D01*
G75*
G02*
X269650000Y-216340001I0J-500000D01*
G01*
X269650000Y-217340001D01*
G75*
G02*
X269150000Y-217840001I-500000J0D01*
G01*
X266150000Y-217840001D01*
G75*
G02*
X265650000Y-217340001I0J500000D01*
G01*
G37*
G36*
G01*
X265650000Y-219880001D02*
X265650000Y-218880001D01*
G75*
G02*
X266150000Y-218380001I500000J0D01*
G01*
X269150000Y-218380001D01*
G75*
G02*
X269650000Y-218880001I0J-500000D01*
G01*
X269650000Y-219880001D01*
G75*
G02*
X269150000Y-220380001I-500000J0D01*
G01*
X266150000Y-220380001D01*
G75*
G02*
X265650000Y-219880001I0J500000D01*
G01*
G37*
G36*
G01*
X265650000Y-222420001D02*
X265650000Y-221420001D01*
G75*
G02*
X266150000Y-220920001I500000J0D01*
G01*
X269150000Y-220920001D01*
G75*
G02*
X269650000Y-221420001I0J-500000D01*
G01*
X269650000Y-222420001D01*
G75*
G02*
X269150000Y-222920001I-500000J0D01*
G01*
X266150000Y-222920001D01*
G75*
G02*
X265650000Y-222420001I0J500000D01*
G01*
G37*
G36*
G01*
X265650000Y-224960001D02*
X265650000Y-223960001D01*
G75*
G02*
X266150000Y-223460001I500000J0D01*
G01*
X269150000Y-223460001D01*
G75*
G02*
X269650000Y-223960001I0J-500000D01*
G01*
X269650000Y-224960001D01*
G75*
G02*
X269150000Y-225460001I-500000J0D01*
G01*
X266150000Y-225460001D01*
G75*
G02*
X265650000Y-224960001I0J500000D01*
G01*
G37*
G36*
G01*
X265650000Y-227500001D02*
X265650000Y-226500001D01*
G75*
G02*
X266150000Y-226000001I500000J0D01*
G01*
X269150000Y-226000001D01*
G75*
G02*
X269650000Y-226500001I0J-500000D01*
G01*
X269650000Y-227500001D01*
G75*
G02*
X269150000Y-228000001I-500000J0D01*
G01*
X266150000Y-228000001D01*
G75*
G02*
X265650000Y-227500001I0J500000D01*
G01*
G37*
G36*
G01*
X265650000Y-230040001D02*
X265650000Y-229040001D01*
G75*
G02*
X266150000Y-228540001I500000J0D01*
G01*
X269150000Y-228540001D01*
G75*
G02*
X269650000Y-229040001I0J-500000D01*
G01*
X269650000Y-230040001D01*
G75*
G02*
X269150000Y-230540001I-500000J0D01*
G01*
X266150000Y-230540001D01*
G75*
G02*
X265650000Y-230040001I0J500000D01*
G01*
G37*
G36*
G01*
X287650000Y-204640001D02*
X287650000Y-203640001D01*
G75*
G02*
X288150000Y-203140001I500000J0D01*
G01*
X291150000Y-203140001D01*
G75*
G02*
X291650000Y-203640001I0J-500000D01*
G01*
X291650000Y-204640001D01*
G75*
G02*
X291150000Y-205140001I-500000J0D01*
G01*
X288150000Y-205140001D01*
G75*
G02*
X287650000Y-204640001I0J500000D01*
G01*
G37*
G36*
G01*
X287650000Y-207180001D02*
X287650000Y-206180001D01*
G75*
G02*
X288150000Y-205680001I500000J0D01*
G01*
X291150000Y-205680001D01*
G75*
G02*
X291650000Y-206180001I0J-500000D01*
G01*
X291650000Y-207180001D01*
G75*
G02*
X291150000Y-207680001I-500000J0D01*
G01*
X288150000Y-207680001D01*
G75*
G02*
X287650000Y-207180001I0J500000D01*
G01*
G37*
G36*
G01*
X287650000Y-209720001D02*
X287650000Y-208720001D01*
G75*
G02*
X288150000Y-208220001I500000J0D01*
G01*
X291150000Y-208220001D01*
G75*
G02*
X291650000Y-208720001I0J-500000D01*
G01*
X291650000Y-209720001D01*
G75*
G02*
X291150000Y-210220001I-500000J0D01*
G01*
X288150000Y-210220001D01*
G75*
G02*
X287650000Y-209720001I0J500000D01*
G01*
G37*
G36*
G01*
X287650000Y-212260001D02*
X287650000Y-211260001D01*
G75*
G02*
X288150000Y-210760001I500000J0D01*
G01*
X291150000Y-210760001D01*
G75*
G02*
X291650000Y-211260001I0J-500000D01*
G01*
X291650000Y-212260001D01*
G75*
G02*
X291150000Y-212760001I-500000J0D01*
G01*
X288150000Y-212760001D01*
G75*
G02*
X287650000Y-212260001I0J500000D01*
G01*
G37*
G36*
G01*
X287650000Y-214800001D02*
X287650000Y-213800001D01*
G75*
G02*
X288150000Y-213300001I500000J0D01*
G01*
X291150000Y-213300001D01*
G75*
G02*
X291650000Y-213800001I0J-500000D01*
G01*
X291650000Y-214800001D01*
G75*
G02*
X291150000Y-215300001I-500000J0D01*
G01*
X288150000Y-215300001D01*
G75*
G02*
X287650000Y-214800001I0J500000D01*
G01*
G37*
G36*
G01*
X287650000Y-217340001D02*
X287650000Y-216340001D01*
G75*
G02*
X288150000Y-215840001I500000J0D01*
G01*
X291150000Y-215840001D01*
G75*
G02*
X291650000Y-216340001I0J-500000D01*
G01*
X291650000Y-217340001D01*
G75*
G02*
X291150000Y-217840001I-500000J0D01*
G01*
X288150000Y-217840001D01*
G75*
G02*
X287650000Y-217340001I0J500000D01*
G01*
G37*
G36*
G01*
X287650000Y-219880001D02*
X287650000Y-218880001D01*
G75*
G02*
X288150000Y-218380001I500000J0D01*
G01*
X291150000Y-218380001D01*
G75*
G02*
X291650000Y-218880001I0J-500000D01*
G01*
X291650000Y-219880001D01*
G75*
G02*
X291150000Y-220380001I-500000J0D01*
G01*
X288150000Y-220380001D01*
G75*
G02*
X287650000Y-219880001I0J500000D01*
G01*
G37*
G36*
G01*
X287650000Y-222420001D02*
X287650000Y-221420001D01*
G75*
G02*
X288150000Y-220920001I500000J0D01*
G01*
X291150000Y-220920001D01*
G75*
G02*
X291650000Y-221420001I0J-500000D01*
G01*
X291650000Y-222420001D01*
G75*
G02*
X291150000Y-222920001I-500000J0D01*
G01*
X288150000Y-222920001D01*
G75*
G02*
X287650000Y-222420001I0J500000D01*
G01*
G37*
G36*
G01*
X287650000Y-224960001D02*
X287650000Y-223960001D01*
G75*
G02*
X288150000Y-223460001I500000J0D01*
G01*
X291150000Y-223460001D01*
G75*
G02*
X291650000Y-223960001I0J-500000D01*
G01*
X291650000Y-224960001D01*
G75*
G02*
X291150000Y-225460001I-500000J0D01*
G01*
X288150000Y-225460001D01*
G75*
G02*
X287650000Y-224960001I0J500000D01*
G01*
G37*
G36*
G01*
X287650000Y-227500001D02*
X287650000Y-226500001D01*
G75*
G02*
X288150000Y-226000001I500000J0D01*
G01*
X291150000Y-226000001D01*
G75*
G02*
X291650000Y-226500001I0J-500000D01*
G01*
X291650000Y-227500001D01*
G75*
G02*
X291150000Y-228000001I-500000J0D01*
G01*
X288150000Y-228000001D01*
G75*
G02*
X287650000Y-227500001I0J500000D01*
G01*
G37*
G36*
G01*
X287650000Y-230040001D02*
X287650000Y-229040001D01*
G75*
G02*
X288150000Y-228540001I500000J0D01*
G01*
X291150000Y-228540001D01*
G75*
G02*
X291650000Y-229040001I0J-500000D01*
G01*
X291650000Y-230040001D01*
G75*
G02*
X291150000Y-230540001I-500000J0D01*
G01*
X288150000Y-230540001D01*
G75*
G02*
X287650000Y-230040001I0J500000D01*
G01*
G37*
G36*
G01*
X265650000Y-200505001D02*
X265650000Y-199235001D01*
G75*
G02*
X266285000Y-198600001I635000J0D01*
G01*
X269015000Y-198600001D01*
G75*
G02*
X269650000Y-199235001I0J-635000D01*
G01*
X269650000Y-200505001D01*
G75*
G02*
X269015000Y-201140001I-635000J0D01*
G01*
X266285000Y-201140001D01*
G75*
G02*
X265650000Y-200505001I0J635000D01*
G01*
G37*
G36*
G01*
X287650000Y-200505001D02*
X287650000Y-199235001D01*
G75*
G02*
X288285000Y-198600001I635000J0D01*
G01*
X291015000Y-198600001D01*
G75*
G02*
X291650000Y-199235001I0J-635000D01*
G01*
X291650000Y-200505001D01*
G75*
G02*
X291015000Y-201140001I-635000J0D01*
G01*
X288285000Y-201140001D01*
G75*
G02*
X287650000Y-200505001I0J635000D01*
G01*
G37*
G36*
G01*
X265650000Y-234445001D02*
X265650000Y-233175001D01*
G75*
G02*
X266285000Y-232540001I635000J0D01*
G01*
X269015000Y-232540001D01*
G75*
G02*
X269650000Y-233175001I0J-635000D01*
G01*
X269650000Y-234445001D01*
G75*
G02*
X269015000Y-235080001I-635000J0D01*
G01*
X266285000Y-235080001D01*
G75*
G02*
X265650000Y-234445001I0J635000D01*
G01*
G37*
G36*
G01*
X287650000Y-234445001D02*
X287650000Y-233175001D01*
G75*
G02*
X288285000Y-232540001I635000J0D01*
G01*
X291015000Y-232540001D01*
G75*
G02*
X291650000Y-233175001I0J-635000D01*
G01*
X291650000Y-234445001D01*
G75*
G02*
X291015000Y-235080001I-635000J0D01*
G01*
X288285000Y-235080001D01*
G75*
G02*
X287650000Y-234445001I0J635000D01*
G01*
G37*
G36*
G01*
X413270000Y-131625000D02*
X413270000Y-131075000D01*
G75*
G02*
X413470000Y-130875000I200000J0D01*
G01*
X413870000Y-130875000D01*
G75*
G02*
X414070000Y-131075000I0J-200000D01*
G01*
X414070000Y-131625000D01*
G75*
G02*
X413870000Y-131825000I-200000J0D01*
G01*
X413470000Y-131825000D01*
G75*
G02*
X413270000Y-131625000I0J200000D01*
G01*
G37*
G36*
G01*
X414920000Y-131625000D02*
X414920000Y-131075000D01*
G75*
G02*
X415120000Y-130875000I200000J0D01*
G01*
X415520000Y-130875000D01*
G75*
G02*
X415720000Y-131075000I0J-200000D01*
G01*
X415720000Y-131625000D01*
G75*
G02*
X415520000Y-131825000I-200000J0D01*
G01*
X415120000Y-131825000D01*
G75*
G02*
X414920000Y-131625000I0J200000D01*
G01*
G37*
D10*
X231670000Y-267910000D03*
D11*
X231670000Y-270450000D03*
X231670000Y-272990000D03*
X231670000Y-275530000D03*
X231670000Y-278070000D03*
X231670000Y-280610000D03*
D14*
X125110000Y-107800000D03*
M02*
