M48
; DRILL file {KiCad 9.0.1+1} date 2025-11-12T15:35:11+0000
; FORMAT={-:-/ absolute / inch / decimal}
; #@! TF.CreationDate,2025-11-12T15:35:11+00:00
; #@! TF.GenerationSoftware,Kicad,Pcbnew,9.0.1+1
; #@! TF.FileFunction,Plated,1,2,PTH
FMAT,2
INCH
; #@! TA.AperFunction,Plated,PTH,ViaDrill
T1C0.0118
; #@! TA.AperFunction,Plated,PTH,ComponentDrill
T2C0.0295
; #@! TA.AperFunction,Plated,PTH,ComponentDrill
T3C0.0591
%
G90
G05
T1
X1.6082Y-1.9111
X1.6082Y-2.0887
X1.6098Y-1.7745
X1.6145Y-1.5776
X1.8137Y-1.4269
X2.0704Y-1.4127
X2.2724Y-1.5635
X2.2724Y-2.067
X2.2763Y-1.7383
X2.2763Y-1.8843
T2
X1.6313Y-1.1036
X1.6313Y-2.3036
X2.2849Y-1.1036
X2.2849Y-2.2036
X2.2849Y-2.3036
T3
G00X1.5546Y-1.1036
M15
G01X1.5743Y-1.1036
M16
G05
G00X1.5546Y-2.3036
M15
G01X1.5743Y-2.3036
M16
G05
G00X2.342Y-1.1036
M15
G01X2.3617Y-1.1036
M16
G05
G00X2.342Y-2.2036
M15
G01X2.3617Y-2.2036
M16
G05
G00X2.342Y-2.3036
M15
G01X2.3617Y-2.3036
M16
G05
M30
