G04 #@! TF.GenerationSoftware,KiCad,Pcbnew,9.0.1+1*
G04 #@! TF.CreationDate,2025-11-11T08:29:47+00:00*
G04 #@! TF.ProjectId,usb-c-power-in,7573622d-632d-4706-9f77-65722d696e2e,rev?*
G04 #@! TF.SameCoordinates,Original*
G04 #@! TF.FileFunction,Legend,Bot*
G04 #@! TF.FilePolarity,Positive*
%FSLAX46Y46*%
G04 Gerber Fmt 4.6, Leading zero omitted, Abs format (unit mm)*
G04 Created by KiCad (PCBNEW 9.0.1+1) date 2025-11-11 08:29:47*
%MOMM*%
%LPD*%
G01*
G04 APERTURE LIST*
%ADD10C,0.100000*%
%ADD11R,2.540000X2.000000*%
G04 APERTURE END LIST*
D10*
X55644468Y-56963915D02*
X54834945Y-56963915D01*
X54834945Y-56963915D02*
X54739707Y-56916296D01*
X54739707Y-56916296D02*
X54692088Y-56868677D01*
X54692088Y-56868677D02*
X54644468Y-56773439D01*
X54644468Y-56773439D02*
X54644468Y-56582963D01*
X54644468Y-56582963D02*
X54692088Y-56487725D01*
X54692088Y-56487725D02*
X54739707Y-56440106D01*
X54739707Y-56440106D02*
X54834945Y-56392487D01*
X54834945Y-56392487D02*
X55644468Y-56392487D01*
X54692088Y-55963915D02*
X54644468Y-55821058D01*
X54644468Y-55821058D02*
X54644468Y-55582963D01*
X54644468Y-55582963D02*
X54692088Y-55487725D01*
X54692088Y-55487725D02*
X54739707Y-55440106D01*
X54739707Y-55440106D02*
X54834945Y-55392487D01*
X54834945Y-55392487D02*
X54930183Y-55392487D01*
X54930183Y-55392487D02*
X55025421Y-55440106D01*
X55025421Y-55440106D02*
X55073040Y-55487725D01*
X55073040Y-55487725D02*
X55120659Y-55582963D01*
X55120659Y-55582963D02*
X55168278Y-55773439D01*
X55168278Y-55773439D02*
X55215897Y-55868677D01*
X55215897Y-55868677D02*
X55263516Y-55916296D01*
X55263516Y-55916296D02*
X55358754Y-55963915D01*
X55358754Y-55963915D02*
X55453992Y-55963915D01*
X55453992Y-55963915D02*
X55549230Y-55916296D01*
X55549230Y-55916296D02*
X55596849Y-55868677D01*
X55596849Y-55868677D02*
X55644468Y-55773439D01*
X55644468Y-55773439D02*
X55644468Y-55535344D01*
X55644468Y-55535344D02*
X55596849Y-55392487D01*
X55168278Y-54630582D02*
X55120659Y-54487725D01*
X55120659Y-54487725D02*
X55073040Y-54440106D01*
X55073040Y-54440106D02*
X54977802Y-54392487D01*
X54977802Y-54392487D02*
X54834945Y-54392487D01*
X54834945Y-54392487D02*
X54739707Y-54440106D01*
X54739707Y-54440106D02*
X54692088Y-54487725D01*
X54692088Y-54487725D02*
X54644468Y-54582963D01*
X54644468Y-54582963D02*
X54644468Y-54963915D01*
X54644468Y-54963915D02*
X55644468Y-54963915D01*
X55644468Y-54963915D02*
X55644468Y-54630582D01*
X55644468Y-54630582D02*
X55596849Y-54535344D01*
X55596849Y-54535344D02*
X55549230Y-54487725D01*
X55549230Y-54487725D02*
X55453992Y-54440106D01*
X55453992Y-54440106D02*
X55358754Y-54440106D01*
X55358754Y-54440106D02*
X55263516Y-54487725D01*
X55263516Y-54487725D02*
X55215897Y-54535344D01*
X55215897Y-54535344D02*
X55168278Y-54630582D01*
X55168278Y-54630582D02*
X55168278Y-54963915D01*
X55025421Y-53963915D02*
X55025421Y-53202011D01*
X54739707Y-52154392D02*
X54692088Y-52202011D01*
X54692088Y-52202011D02*
X54644468Y-52344868D01*
X54644468Y-52344868D02*
X54644468Y-52440106D01*
X54644468Y-52440106D02*
X54692088Y-52582963D01*
X54692088Y-52582963D02*
X54787326Y-52678201D01*
X54787326Y-52678201D02*
X54882564Y-52725820D01*
X54882564Y-52725820D02*
X55073040Y-52773439D01*
X55073040Y-52773439D02*
X55215897Y-52773439D01*
X55215897Y-52773439D02*
X55406373Y-52725820D01*
X55406373Y-52725820D02*
X55501611Y-52678201D01*
X55501611Y-52678201D02*
X55596849Y-52582963D01*
X55596849Y-52582963D02*
X55644468Y-52440106D01*
X55644468Y-52440106D02*
X55644468Y-52344868D01*
X55644468Y-52344868D02*
X55596849Y-52202011D01*
X55596849Y-52202011D02*
X55549230Y-52154392D01*
X54644468Y-50963915D02*
X55644468Y-50963915D01*
X55644468Y-50963915D02*
X55644468Y-50582963D01*
X55644468Y-50582963D02*
X55596849Y-50487725D01*
X55596849Y-50487725D02*
X55549230Y-50440106D01*
X55549230Y-50440106D02*
X55453992Y-50392487D01*
X55453992Y-50392487D02*
X55311135Y-50392487D01*
X55311135Y-50392487D02*
X55215897Y-50440106D01*
X55215897Y-50440106D02*
X55168278Y-50487725D01*
X55168278Y-50487725D02*
X55120659Y-50582963D01*
X55120659Y-50582963D02*
X55120659Y-50963915D01*
X54644468Y-49963915D02*
X55644468Y-49963915D01*
X55644468Y-49963915D02*
X55644468Y-49725820D01*
X55644468Y-49725820D02*
X55596849Y-49582963D01*
X55596849Y-49582963D02*
X55501611Y-49487725D01*
X55501611Y-49487725D02*
X55406373Y-49440106D01*
X55406373Y-49440106D02*
X55215897Y-49392487D01*
X55215897Y-49392487D02*
X55073040Y-49392487D01*
X55073040Y-49392487D02*
X54882564Y-49440106D01*
X54882564Y-49440106D02*
X54787326Y-49487725D01*
X54787326Y-49487725D02*
X54692088Y-49582963D01*
X54692088Y-49582963D02*
X54644468Y-49725820D01*
X54644468Y-49725820D02*
X54644468Y-49963915D01*
X54644468Y-48202010D02*
X55644468Y-48202010D01*
X55311135Y-47725820D02*
X54644468Y-47725820D01*
X55215897Y-47725820D02*
X55263516Y-47678201D01*
X55263516Y-47678201D02*
X55311135Y-47582963D01*
X55311135Y-47582963D02*
X55311135Y-47440106D01*
X55311135Y-47440106D02*
X55263516Y-47344868D01*
X55263516Y-47344868D02*
X55168278Y-47297249D01*
X55168278Y-47297249D02*
X54644468Y-47297249D01*
X55311135Y-46821058D02*
X54311135Y-46821058D01*
X55263516Y-46821058D02*
X55311135Y-46725820D01*
X55311135Y-46725820D02*
X55311135Y-46535344D01*
X55311135Y-46535344D02*
X55263516Y-46440106D01*
X55263516Y-46440106D02*
X55215897Y-46392487D01*
X55215897Y-46392487D02*
X55120659Y-46344868D01*
X55120659Y-46344868D02*
X54834945Y-46344868D01*
X54834945Y-46344868D02*
X54739707Y-46392487D01*
X54739707Y-46392487D02*
X54692088Y-46440106D01*
X54692088Y-46440106D02*
X54644468Y-46535344D01*
X54644468Y-46535344D02*
X54644468Y-46725820D01*
X54644468Y-46725820D02*
X54692088Y-46821058D01*
X55311135Y-45487725D02*
X54644468Y-45487725D01*
X55311135Y-45916296D02*
X54787326Y-45916296D01*
X54787326Y-45916296D02*
X54692088Y-45868677D01*
X54692088Y-45868677D02*
X54644468Y-45773439D01*
X54644468Y-45773439D02*
X54644468Y-45630582D01*
X54644468Y-45630582D02*
X54692088Y-45535344D01*
X54692088Y-45535344D02*
X54739707Y-45487725D01*
X55311135Y-45154391D02*
X55311135Y-44773439D01*
X55644468Y-45011534D02*
X54787326Y-45011534D01*
X54787326Y-45011534D02*
X54692088Y-44963915D01*
X54692088Y-44963915D02*
X54644468Y-44868677D01*
X54644468Y-44868677D02*
X54644468Y-44773439D01*
X54644468Y-43678200D02*
X55644468Y-43678200D01*
X55644468Y-43678200D02*
X54930183Y-43344867D01*
X54930183Y-43344867D02*
X55644468Y-43011534D01*
X55644468Y-43011534D02*
X54644468Y-43011534D01*
X54644468Y-42392486D02*
X54692088Y-42487724D01*
X54692088Y-42487724D02*
X54739707Y-42535343D01*
X54739707Y-42535343D02*
X54834945Y-42582962D01*
X54834945Y-42582962D02*
X55120659Y-42582962D01*
X55120659Y-42582962D02*
X55215897Y-42535343D01*
X55215897Y-42535343D02*
X55263516Y-42487724D01*
X55263516Y-42487724D02*
X55311135Y-42392486D01*
X55311135Y-42392486D02*
X55311135Y-42249629D01*
X55311135Y-42249629D02*
X55263516Y-42154391D01*
X55263516Y-42154391D02*
X55215897Y-42106772D01*
X55215897Y-42106772D02*
X55120659Y-42059153D01*
X55120659Y-42059153D02*
X54834945Y-42059153D01*
X54834945Y-42059153D02*
X54739707Y-42106772D01*
X54739707Y-42106772D02*
X54692088Y-42154391D01*
X54692088Y-42154391D02*
X54644468Y-42249629D01*
X54644468Y-42249629D02*
X54644468Y-42392486D01*
X54644468Y-41202010D02*
X55644468Y-41202010D01*
X54692088Y-41202010D02*
X54644468Y-41297248D01*
X54644468Y-41297248D02*
X54644468Y-41487724D01*
X54644468Y-41487724D02*
X54692088Y-41582962D01*
X54692088Y-41582962D02*
X54739707Y-41630581D01*
X54739707Y-41630581D02*
X54834945Y-41678200D01*
X54834945Y-41678200D02*
X55120659Y-41678200D01*
X55120659Y-41678200D02*
X55215897Y-41630581D01*
X55215897Y-41630581D02*
X55263516Y-41582962D01*
X55263516Y-41582962D02*
X55311135Y-41487724D01*
X55311135Y-41487724D02*
X55311135Y-41297248D01*
X55311135Y-41297248D02*
X55263516Y-41202010D01*
X55311135Y-40297248D02*
X54644468Y-40297248D01*
X55311135Y-40725819D02*
X54787326Y-40725819D01*
X54787326Y-40725819D02*
X54692088Y-40678200D01*
X54692088Y-40678200D02*
X54644468Y-40582962D01*
X54644468Y-40582962D02*
X54644468Y-40440105D01*
X54644468Y-40440105D02*
X54692088Y-40344867D01*
X54692088Y-40344867D02*
X54739707Y-40297248D01*
X54644468Y-39678200D02*
X54692088Y-39773438D01*
X54692088Y-39773438D02*
X54787326Y-39821057D01*
X54787326Y-39821057D02*
X55644468Y-39821057D01*
X54692088Y-38916295D02*
X54644468Y-39011533D01*
X54644468Y-39011533D02*
X54644468Y-39202009D01*
X54644468Y-39202009D02*
X54692088Y-39297247D01*
X54692088Y-39297247D02*
X54787326Y-39344866D01*
X54787326Y-39344866D02*
X55168278Y-39344866D01*
X55168278Y-39344866D02*
X55263516Y-39297247D01*
X55263516Y-39297247D02*
X55311135Y-39202009D01*
X55311135Y-39202009D02*
X55311135Y-39011533D01*
X55311135Y-39011533D02*
X55263516Y-38916295D01*
X55263516Y-38916295D02*
X55168278Y-38868676D01*
X55168278Y-38868676D02*
X55073040Y-38868676D01*
X55073040Y-38868676D02*
X54977802Y-39344866D01*
X54644468Y-37106771D02*
X55120659Y-37440104D01*
X54644468Y-37678199D02*
X55644468Y-37678199D01*
X55644468Y-37678199D02*
X55644468Y-37297247D01*
X55644468Y-37297247D02*
X55596849Y-37202009D01*
X55596849Y-37202009D02*
X55549230Y-37154390D01*
X55549230Y-37154390D02*
X55453992Y-37106771D01*
X55453992Y-37106771D02*
X55311135Y-37106771D01*
X55311135Y-37106771D02*
X55215897Y-37154390D01*
X55215897Y-37154390D02*
X55168278Y-37202009D01*
X55168278Y-37202009D02*
X55120659Y-37297247D01*
X55120659Y-37297247D02*
X55120659Y-37678199D01*
X55549230Y-36725818D02*
X55596849Y-36678199D01*
X55596849Y-36678199D02*
X55644468Y-36582961D01*
X55644468Y-36582961D02*
X55644468Y-36344866D01*
X55644468Y-36344866D02*
X55596849Y-36249628D01*
X55596849Y-36249628D02*
X55549230Y-36202009D01*
X55549230Y-36202009D02*
X55453992Y-36154390D01*
X55453992Y-36154390D02*
X55358754Y-36154390D01*
X55358754Y-36154390D02*
X55215897Y-36202009D01*
X55215897Y-36202009D02*
X54644468Y-36773437D01*
X54644468Y-36773437D02*
X54644468Y-36154390D01*
X55644468Y-35535342D02*
X55644468Y-35440104D01*
X55644468Y-35440104D02*
X55596849Y-35344866D01*
X55596849Y-35344866D02*
X55549230Y-35297247D01*
X55549230Y-35297247D02*
X55453992Y-35249628D01*
X55453992Y-35249628D02*
X55263516Y-35202009D01*
X55263516Y-35202009D02*
X55025421Y-35202009D01*
X55025421Y-35202009D02*
X54834945Y-35249628D01*
X54834945Y-35249628D02*
X54739707Y-35297247D01*
X54739707Y-35297247D02*
X54692088Y-35344866D01*
X54692088Y-35344866D02*
X54644468Y-35440104D01*
X54644468Y-35440104D02*
X54644468Y-35535342D01*
X54644468Y-35535342D02*
X54692088Y-35630580D01*
X54692088Y-35630580D02*
X54739707Y-35678199D01*
X54739707Y-35678199D02*
X54834945Y-35725818D01*
X54834945Y-35725818D02*
X55025421Y-35773437D01*
X55025421Y-35773437D02*
X55263516Y-35773437D01*
X55263516Y-35773437D02*
X55453992Y-35725818D01*
X55453992Y-35725818D02*
X55549230Y-35678199D01*
X55549230Y-35678199D02*
X55596849Y-35630580D01*
X55596849Y-35630580D02*
X55644468Y-35535342D01*
X55549230Y-34821056D02*
X55596849Y-34773437D01*
X55596849Y-34773437D02*
X55644468Y-34678199D01*
X55644468Y-34678199D02*
X55644468Y-34440104D01*
X55644468Y-34440104D02*
X55596849Y-34344866D01*
X55596849Y-34344866D02*
X55549230Y-34297247D01*
X55549230Y-34297247D02*
X55453992Y-34249628D01*
X55453992Y-34249628D02*
X55358754Y-34249628D01*
X55358754Y-34249628D02*
X55215897Y-34297247D01*
X55215897Y-34297247D02*
X54644468Y-34868675D01*
X54644468Y-34868675D02*
X54644468Y-34249628D01*
X55644468Y-33344866D02*
X55644468Y-33821056D01*
X55644468Y-33821056D02*
X55168278Y-33868675D01*
X55168278Y-33868675D02*
X55215897Y-33821056D01*
X55215897Y-33821056D02*
X55263516Y-33725818D01*
X55263516Y-33725818D02*
X55263516Y-33487723D01*
X55263516Y-33487723D02*
X55215897Y-33392485D01*
X55215897Y-33392485D02*
X55168278Y-33344866D01*
X55168278Y-33344866D02*
X55073040Y-33297247D01*
X55073040Y-33297247D02*
X54834945Y-33297247D01*
X54834945Y-33297247D02*
X54739707Y-33344866D01*
X54739707Y-33344866D02*
X54692088Y-33392485D01*
X54692088Y-33392485D02*
X54644468Y-33487723D01*
X54644468Y-33487723D02*
X54644468Y-33725818D01*
X54644468Y-33725818D02*
X54692088Y-33821056D01*
X54692088Y-33821056D02*
X54739707Y-33868675D01*
X55644468Y-32678199D02*
X55644468Y-32582961D01*
X55644468Y-32582961D02*
X55596849Y-32487723D01*
X55596849Y-32487723D02*
X55549230Y-32440104D01*
X55549230Y-32440104D02*
X55453992Y-32392485D01*
X55453992Y-32392485D02*
X55263516Y-32344866D01*
X55263516Y-32344866D02*
X55025421Y-32344866D01*
X55025421Y-32344866D02*
X54834945Y-32392485D01*
X54834945Y-32392485D02*
X54739707Y-32440104D01*
X54739707Y-32440104D02*
X54692088Y-32487723D01*
X54692088Y-32487723D02*
X54644468Y-32582961D01*
X54644468Y-32582961D02*
X54644468Y-32678199D01*
X54644468Y-32678199D02*
X54692088Y-32773437D01*
X54692088Y-32773437D02*
X54739707Y-32821056D01*
X54739707Y-32821056D02*
X54834945Y-32868675D01*
X54834945Y-32868675D02*
X55025421Y-32916294D01*
X55025421Y-32916294D02*
X55263516Y-32916294D01*
X55263516Y-32916294D02*
X55453992Y-32868675D01*
X55453992Y-32868675D02*
X55549230Y-32821056D01*
X55549230Y-32821056D02*
X55596849Y-32773437D01*
X55596849Y-32773437D02*
X55644468Y-32678199D01*
X55644468Y-32011532D02*
X55644468Y-31392485D01*
X55644468Y-31392485D02*
X55263516Y-31725818D01*
X55263516Y-31725818D02*
X55263516Y-31582961D01*
X55263516Y-31582961D02*
X55215897Y-31487723D01*
X55215897Y-31487723D02*
X55168278Y-31440104D01*
X55168278Y-31440104D02*
X55073040Y-31392485D01*
X55073040Y-31392485D02*
X54834945Y-31392485D01*
X54834945Y-31392485D02*
X54739707Y-31440104D01*
X54739707Y-31440104D02*
X54692088Y-31487723D01*
X54692088Y-31487723D02*
X54644468Y-31582961D01*
X54644468Y-31582961D02*
X54644468Y-31868675D01*
X54644468Y-31868675D02*
X54692088Y-31963913D01*
X54692088Y-31963913D02*
X54739707Y-32011532D01*
X55644468Y-30773437D02*
X55644468Y-30678199D01*
X55644468Y-30678199D02*
X55596849Y-30582961D01*
X55596849Y-30582961D02*
X55549230Y-30535342D01*
X55549230Y-30535342D02*
X55453992Y-30487723D01*
X55453992Y-30487723D02*
X55263516Y-30440104D01*
X55263516Y-30440104D02*
X55025421Y-30440104D01*
X55025421Y-30440104D02*
X54834945Y-30487723D01*
X54834945Y-30487723D02*
X54739707Y-30535342D01*
X54739707Y-30535342D02*
X54692088Y-30582961D01*
X54692088Y-30582961D02*
X54644468Y-30678199D01*
X54644468Y-30678199D02*
X54644468Y-30773437D01*
X54644468Y-30773437D02*
X54692088Y-30868675D01*
X54692088Y-30868675D02*
X54739707Y-30916294D01*
X54739707Y-30916294D02*
X54834945Y-30963913D01*
X54834945Y-30963913D02*
X55025421Y-31011532D01*
X55025421Y-31011532D02*
X55263516Y-31011532D01*
X55263516Y-31011532D02*
X55453992Y-30963913D01*
X55453992Y-30963913D02*
X55549230Y-30916294D01*
X55549230Y-30916294D02*
X55596849Y-30868675D01*
X55596849Y-30868675D02*
X55644468Y-30773437D01*
X54644468Y-29487723D02*
X54644468Y-30059151D01*
X54644468Y-29773437D02*
X55644468Y-29773437D01*
X55644468Y-29773437D02*
X55501611Y-29868675D01*
X55501611Y-29868675D02*
X55406373Y-29963913D01*
X55406373Y-29963913D02*
X55358754Y-30059151D01*
X53701191Y-56535344D02*
X52891667Y-56535344D01*
X52891667Y-56535344D02*
X52796429Y-56582963D01*
X52796429Y-56582963D02*
X52748810Y-56630582D01*
X52748810Y-56630582D02*
X52701191Y-56725820D01*
X52701191Y-56725820D02*
X52701191Y-56868677D01*
X52701191Y-56868677D02*
X52748810Y-56963915D01*
X53082144Y-56535344D02*
X53034524Y-56630582D01*
X53034524Y-56630582D02*
X53034524Y-56821058D01*
X53034524Y-56821058D02*
X53082144Y-56916296D01*
X53082144Y-56916296D02*
X53129763Y-56963915D01*
X53129763Y-56963915D02*
X53225001Y-57011534D01*
X53225001Y-57011534D02*
X53510715Y-57011534D01*
X53510715Y-57011534D02*
X53605953Y-56963915D01*
X53605953Y-56963915D02*
X53653572Y-56916296D01*
X53653572Y-56916296D02*
X53701191Y-56821058D01*
X53701191Y-56821058D02*
X53701191Y-56630582D01*
X53701191Y-56630582D02*
X53653572Y-56535344D01*
X53034524Y-56059153D02*
X53701191Y-56059153D01*
X54034524Y-56059153D02*
X53986905Y-56106772D01*
X53986905Y-56106772D02*
X53939286Y-56059153D01*
X53939286Y-56059153D02*
X53986905Y-56011534D01*
X53986905Y-56011534D02*
X54034524Y-56059153D01*
X54034524Y-56059153D02*
X53939286Y-56059153D01*
X53701191Y-55725820D02*
X53701191Y-55344868D01*
X54034524Y-55582963D02*
X53177382Y-55582963D01*
X53177382Y-55582963D02*
X53082144Y-55535344D01*
X53082144Y-55535344D02*
X53034524Y-55440106D01*
X53034524Y-55440106D02*
X53034524Y-55344868D01*
X53034524Y-55011534D02*
X54034524Y-55011534D01*
X53034524Y-54582963D02*
X53558334Y-54582963D01*
X53558334Y-54582963D02*
X53653572Y-54630582D01*
X53653572Y-54630582D02*
X53701191Y-54725820D01*
X53701191Y-54725820D02*
X53701191Y-54868677D01*
X53701191Y-54868677D02*
X53653572Y-54963915D01*
X53653572Y-54963915D02*
X53605953Y-55011534D01*
X53701191Y-53678201D02*
X53034524Y-53678201D01*
X53701191Y-54106772D02*
X53177382Y-54106772D01*
X53177382Y-54106772D02*
X53082144Y-54059153D01*
X53082144Y-54059153D02*
X53034524Y-53963915D01*
X53034524Y-53963915D02*
X53034524Y-53821058D01*
X53034524Y-53821058D02*
X53082144Y-53725820D01*
X53082144Y-53725820D02*
X53129763Y-53678201D01*
X53034524Y-53202010D02*
X54034524Y-53202010D01*
X53653572Y-53202010D02*
X53701191Y-53106772D01*
X53701191Y-53106772D02*
X53701191Y-52916296D01*
X53701191Y-52916296D02*
X53653572Y-52821058D01*
X53653572Y-52821058D02*
X53605953Y-52773439D01*
X53605953Y-52773439D02*
X53510715Y-52725820D01*
X53510715Y-52725820D02*
X53225001Y-52725820D01*
X53225001Y-52725820D02*
X53129763Y-52773439D01*
X53129763Y-52773439D02*
X53082144Y-52821058D01*
X53082144Y-52821058D02*
X53034524Y-52916296D01*
X53034524Y-52916296D02*
X53034524Y-53106772D01*
X53034524Y-53106772D02*
X53082144Y-53202010D01*
X53129763Y-52297248D02*
X53082144Y-52249629D01*
X53082144Y-52249629D02*
X53034524Y-52297248D01*
X53034524Y-52297248D02*
X53082144Y-52344867D01*
X53082144Y-52344867D02*
X53129763Y-52297248D01*
X53129763Y-52297248D02*
X53034524Y-52297248D01*
X53082144Y-51392487D02*
X53034524Y-51487725D01*
X53034524Y-51487725D02*
X53034524Y-51678201D01*
X53034524Y-51678201D02*
X53082144Y-51773439D01*
X53082144Y-51773439D02*
X53129763Y-51821058D01*
X53129763Y-51821058D02*
X53225001Y-51868677D01*
X53225001Y-51868677D02*
X53510715Y-51868677D01*
X53510715Y-51868677D02*
X53605953Y-51821058D01*
X53605953Y-51821058D02*
X53653572Y-51773439D01*
X53653572Y-51773439D02*
X53701191Y-51678201D01*
X53701191Y-51678201D02*
X53701191Y-51487725D01*
X53701191Y-51487725D02*
X53653572Y-51392487D01*
X53034524Y-50821058D02*
X53082144Y-50916296D01*
X53082144Y-50916296D02*
X53129763Y-50963915D01*
X53129763Y-50963915D02*
X53225001Y-51011534D01*
X53225001Y-51011534D02*
X53510715Y-51011534D01*
X53510715Y-51011534D02*
X53605953Y-50963915D01*
X53605953Y-50963915D02*
X53653572Y-50916296D01*
X53653572Y-50916296D02*
X53701191Y-50821058D01*
X53701191Y-50821058D02*
X53701191Y-50678201D01*
X53701191Y-50678201D02*
X53653572Y-50582963D01*
X53653572Y-50582963D02*
X53605953Y-50535344D01*
X53605953Y-50535344D02*
X53510715Y-50487725D01*
X53510715Y-50487725D02*
X53225001Y-50487725D01*
X53225001Y-50487725D02*
X53129763Y-50535344D01*
X53129763Y-50535344D02*
X53082144Y-50582963D01*
X53082144Y-50582963D02*
X53034524Y-50678201D01*
X53034524Y-50678201D02*
X53034524Y-50821058D01*
X53034524Y-50059153D02*
X53701191Y-50059153D01*
X53605953Y-50059153D02*
X53653572Y-50011534D01*
X53653572Y-50011534D02*
X53701191Y-49916296D01*
X53701191Y-49916296D02*
X53701191Y-49773439D01*
X53701191Y-49773439D02*
X53653572Y-49678201D01*
X53653572Y-49678201D02*
X53558334Y-49630582D01*
X53558334Y-49630582D02*
X53034524Y-49630582D01*
X53558334Y-49630582D02*
X53653572Y-49582963D01*
X53653572Y-49582963D02*
X53701191Y-49487725D01*
X53701191Y-49487725D02*
X53701191Y-49344868D01*
X53701191Y-49344868D02*
X53653572Y-49249629D01*
X53653572Y-49249629D02*
X53558334Y-49202010D01*
X53558334Y-49202010D02*
X53034524Y-49202010D01*
X54082144Y-48011535D02*
X52796429Y-48868677D01*
X53034524Y-47678201D02*
X53701191Y-47678201D01*
X53605953Y-47678201D02*
X53653572Y-47630582D01*
X53653572Y-47630582D02*
X53701191Y-47535344D01*
X53701191Y-47535344D02*
X53701191Y-47392487D01*
X53701191Y-47392487D02*
X53653572Y-47297249D01*
X53653572Y-47297249D02*
X53558334Y-47249630D01*
X53558334Y-47249630D02*
X53034524Y-47249630D01*
X53558334Y-47249630D02*
X53653572Y-47202011D01*
X53653572Y-47202011D02*
X53701191Y-47106773D01*
X53701191Y-47106773D02*
X53701191Y-46963916D01*
X53701191Y-46963916D02*
X53653572Y-46868677D01*
X53653572Y-46868677D02*
X53558334Y-46821058D01*
X53558334Y-46821058D02*
X53034524Y-46821058D01*
X53082144Y-45963916D02*
X53034524Y-46059154D01*
X53034524Y-46059154D02*
X53034524Y-46249630D01*
X53034524Y-46249630D02*
X53082144Y-46344868D01*
X53082144Y-46344868D02*
X53177382Y-46392487D01*
X53177382Y-46392487D02*
X53558334Y-46392487D01*
X53558334Y-46392487D02*
X53653572Y-46344868D01*
X53653572Y-46344868D02*
X53701191Y-46249630D01*
X53701191Y-46249630D02*
X53701191Y-46059154D01*
X53701191Y-46059154D02*
X53653572Y-45963916D01*
X53653572Y-45963916D02*
X53558334Y-45916297D01*
X53558334Y-45916297D02*
X53463096Y-45916297D01*
X53463096Y-45916297D02*
X53367858Y-46392487D01*
X53701191Y-45059154D02*
X52891667Y-45059154D01*
X52891667Y-45059154D02*
X52796429Y-45106773D01*
X52796429Y-45106773D02*
X52748810Y-45154392D01*
X52748810Y-45154392D02*
X52701191Y-45249630D01*
X52701191Y-45249630D02*
X52701191Y-45392487D01*
X52701191Y-45392487D02*
X52748810Y-45487725D01*
X53082144Y-45059154D02*
X53034524Y-45154392D01*
X53034524Y-45154392D02*
X53034524Y-45344868D01*
X53034524Y-45344868D02*
X53082144Y-45440106D01*
X53082144Y-45440106D02*
X53129763Y-45487725D01*
X53129763Y-45487725D02*
X53225001Y-45535344D01*
X53225001Y-45535344D02*
X53510715Y-45535344D01*
X53510715Y-45535344D02*
X53605953Y-45487725D01*
X53605953Y-45487725D02*
X53653572Y-45440106D01*
X53653572Y-45440106D02*
X53701191Y-45344868D01*
X53701191Y-45344868D02*
X53701191Y-45154392D01*
X53701191Y-45154392D02*
X53653572Y-45059154D01*
X53034524Y-44154392D02*
X53558334Y-44154392D01*
X53558334Y-44154392D02*
X53653572Y-44202011D01*
X53653572Y-44202011D02*
X53701191Y-44297249D01*
X53701191Y-44297249D02*
X53701191Y-44487725D01*
X53701191Y-44487725D02*
X53653572Y-44582963D01*
X53082144Y-44154392D02*
X53034524Y-44249630D01*
X53034524Y-44249630D02*
X53034524Y-44487725D01*
X53034524Y-44487725D02*
X53082144Y-44582963D01*
X53082144Y-44582963D02*
X53177382Y-44630582D01*
X53177382Y-44630582D02*
X53272620Y-44630582D01*
X53272620Y-44630582D02*
X53367858Y-44582963D01*
X53367858Y-44582963D02*
X53415477Y-44487725D01*
X53415477Y-44487725D02*
X53415477Y-44249630D01*
X53415477Y-44249630D02*
X53463096Y-44154392D01*
X54034524Y-43249630D02*
X54034524Y-43440106D01*
X54034524Y-43440106D02*
X53986905Y-43535344D01*
X53986905Y-43535344D02*
X53939286Y-43582963D01*
X53939286Y-43582963D02*
X53796429Y-43678201D01*
X53796429Y-43678201D02*
X53605953Y-43725820D01*
X53605953Y-43725820D02*
X53225001Y-43725820D01*
X53225001Y-43725820D02*
X53129763Y-43678201D01*
X53129763Y-43678201D02*
X53082144Y-43630582D01*
X53082144Y-43630582D02*
X53034524Y-43535344D01*
X53034524Y-43535344D02*
X53034524Y-43344868D01*
X53034524Y-43344868D02*
X53082144Y-43249630D01*
X53082144Y-43249630D02*
X53129763Y-43202011D01*
X53129763Y-43202011D02*
X53225001Y-43154392D01*
X53225001Y-43154392D02*
X53463096Y-43154392D01*
X53463096Y-43154392D02*
X53558334Y-43202011D01*
X53558334Y-43202011D02*
X53605953Y-43249630D01*
X53605953Y-43249630D02*
X53653572Y-43344868D01*
X53653572Y-43344868D02*
X53653572Y-43535344D01*
X53653572Y-43535344D02*
X53605953Y-43630582D01*
X53605953Y-43630582D02*
X53558334Y-43678201D01*
X53558334Y-43678201D02*
X53463096Y-43725820D01*
X54034524Y-42249630D02*
X54034524Y-42725820D01*
X54034524Y-42725820D02*
X53558334Y-42773439D01*
X53558334Y-42773439D02*
X53605953Y-42725820D01*
X53605953Y-42725820D02*
X53653572Y-42630582D01*
X53653572Y-42630582D02*
X53653572Y-42392487D01*
X53653572Y-42392487D02*
X53605953Y-42297249D01*
X53605953Y-42297249D02*
X53558334Y-42249630D01*
X53558334Y-42249630D02*
X53463096Y-42202011D01*
X53463096Y-42202011D02*
X53225001Y-42202011D01*
X53225001Y-42202011D02*
X53129763Y-42249630D01*
X53129763Y-42249630D02*
X53082144Y-42297249D01*
X53082144Y-42297249D02*
X53034524Y-42392487D01*
X53034524Y-42392487D02*
X53034524Y-42630582D01*
X53034524Y-42630582D02*
X53082144Y-42725820D01*
X53082144Y-42725820D02*
X53129763Y-42773439D01*
X54082144Y-41059154D02*
X52796429Y-41916296D01*
X51424580Y-56963915D02*
X52091247Y-56963915D01*
X51996009Y-56963915D02*
X52043628Y-56916296D01*
X52043628Y-56916296D02*
X52091247Y-56821058D01*
X52091247Y-56821058D02*
X52091247Y-56678201D01*
X52091247Y-56678201D02*
X52043628Y-56582963D01*
X52043628Y-56582963D02*
X51948390Y-56535344D01*
X51948390Y-56535344D02*
X51424580Y-56535344D01*
X51948390Y-56535344D02*
X52043628Y-56487725D01*
X52043628Y-56487725D02*
X52091247Y-56392487D01*
X52091247Y-56392487D02*
X52091247Y-56249630D01*
X52091247Y-56249630D02*
X52043628Y-56154391D01*
X52043628Y-56154391D02*
X51948390Y-56106772D01*
X51948390Y-56106772D02*
X51424580Y-56106772D01*
X51472200Y-55249630D02*
X51424580Y-55344868D01*
X51424580Y-55344868D02*
X51424580Y-55535344D01*
X51424580Y-55535344D02*
X51472200Y-55630582D01*
X51472200Y-55630582D02*
X51567438Y-55678201D01*
X51567438Y-55678201D02*
X51948390Y-55678201D01*
X51948390Y-55678201D02*
X52043628Y-55630582D01*
X52043628Y-55630582D02*
X52091247Y-55535344D01*
X52091247Y-55535344D02*
X52091247Y-55344868D01*
X52091247Y-55344868D02*
X52043628Y-55249630D01*
X52043628Y-55249630D02*
X51948390Y-55202011D01*
X51948390Y-55202011D02*
X51853152Y-55202011D01*
X51853152Y-55202011D02*
X51757914Y-55678201D01*
X52091247Y-54344868D02*
X51281723Y-54344868D01*
X51281723Y-54344868D02*
X51186485Y-54392487D01*
X51186485Y-54392487D02*
X51138866Y-54440106D01*
X51138866Y-54440106D02*
X51091247Y-54535344D01*
X51091247Y-54535344D02*
X51091247Y-54678201D01*
X51091247Y-54678201D02*
X51138866Y-54773439D01*
X51472200Y-54344868D02*
X51424580Y-54440106D01*
X51424580Y-54440106D02*
X51424580Y-54630582D01*
X51424580Y-54630582D02*
X51472200Y-54725820D01*
X51472200Y-54725820D02*
X51519819Y-54773439D01*
X51519819Y-54773439D02*
X51615057Y-54821058D01*
X51615057Y-54821058D02*
X51900771Y-54821058D01*
X51900771Y-54821058D02*
X51996009Y-54773439D01*
X51996009Y-54773439D02*
X52043628Y-54725820D01*
X52043628Y-54725820D02*
X52091247Y-54630582D01*
X52091247Y-54630582D02*
X52091247Y-54440106D01*
X52091247Y-54440106D02*
X52043628Y-54344868D01*
X51424580Y-53440106D02*
X51948390Y-53440106D01*
X51948390Y-53440106D02*
X52043628Y-53487725D01*
X52043628Y-53487725D02*
X52091247Y-53582963D01*
X52091247Y-53582963D02*
X52091247Y-53773439D01*
X52091247Y-53773439D02*
X52043628Y-53868677D01*
X51472200Y-53440106D02*
X51424580Y-53535344D01*
X51424580Y-53535344D02*
X51424580Y-53773439D01*
X51424580Y-53773439D02*
X51472200Y-53868677D01*
X51472200Y-53868677D02*
X51567438Y-53916296D01*
X51567438Y-53916296D02*
X51662676Y-53916296D01*
X51662676Y-53916296D02*
X51757914Y-53868677D01*
X51757914Y-53868677D02*
X51805533Y-53773439D01*
X51805533Y-53773439D02*
X51805533Y-53535344D01*
X51805533Y-53535344D02*
X51853152Y-53440106D01*
X52091247Y-52963915D02*
X51091247Y-52963915D01*
X52043628Y-52963915D02*
X52091247Y-52868677D01*
X52091247Y-52868677D02*
X52091247Y-52678201D01*
X52091247Y-52678201D02*
X52043628Y-52582963D01*
X52043628Y-52582963D02*
X51996009Y-52535344D01*
X51996009Y-52535344D02*
X51900771Y-52487725D01*
X51900771Y-52487725D02*
X51615057Y-52487725D01*
X51615057Y-52487725D02*
X51519819Y-52535344D01*
X51519819Y-52535344D02*
X51472200Y-52582963D01*
X51472200Y-52582963D02*
X51424580Y-52678201D01*
X51424580Y-52678201D02*
X51424580Y-52868677D01*
X51424580Y-52868677D02*
X51472200Y-52963915D01*
X51424580Y-52059153D02*
X52424580Y-52059153D01*
X51424580Y-51630582D02*
X51948390Y-51630582D01*
X51948390Y-51630582D02*
X52043628Y-51678201D01*
X52043628Y-51678201D02*
X52091247Y-51773439D01*
X52091247Y-51773439D02*
X52091247Y-51916296D01*
X52091247Y-51916296D02*
X52043628Y-52011534D01*
X52043628Y-52011534D02*
X51996009Y-52059153D01*
X51424580Y-51011534D02*
X51472200Y-51106772D01*
X51472200Y-51106772D02*
X51519819Y-51154391D01*
X51519819Y-51154391D02*
X51615057Y-51202010D01*
X51615057Y-51202010D02*
X51900771Y-51202010D01*
X51900771Y-51202010D02*
X51996009Y-51154391D01*
X51996009Y-51154391D02*
X52043628Y-51106772D01*
X52043628Y-51106772D02*
X52091247Y-51011534D01*
X52091247Y-51011534D02*
X52091247Y-50868677D01*
X52091247Y-50868677D02*
X52043628Y-50773439D01*
X52043628Y-50773439D02*
X51996009Y-50725820D01*
X51996009Y-50725820D02*
X51900771Y-50678201D01*
X51900771Y-50678201D02*
X51615057Y-50678201D01*
X51615057Y-50678201D02*
X51519819Y-50725820D01*
X51519819Y-50725820D02*
X51472200Y-50773439D01*
X51472200Y-50773439D02*
X51424580Y-50868677D01*
X51424580Y-50868677D02*
X51424580Y-51011534D01*
X52091247Y-50249629D02*
X51424580Y-50249629D01*
X51996009Y-50249629D02*
X52043628Y-50202010D01*
X52043628Y-50202010D02*
X52091247Y-50106772D01*
X52091247Y-50106772D02*
X52091247Y-49963915D01*
X52091247Y-49963915D02*
X52043628Y-49868677D01*
X52043628Y-49868677D02*
X51948390Y-49821058D01*
X51948390Y-49821058D02*
X51424580Y-49821058D01*
X51472200Y-48963915D02*
X51424580Y-49059153D01*
X51424580Y-49059153D02*
X51424580Y-49249629D01*
X51424580Y-49249629D02*
X51472200Y-49344867D01*
X51472200Y-49344867D02*
X51567438Y-49392486D01*
X51567438Y-49392486D02*
X51948390Y-49392486D01*
X51948390Y-49392486D02*
X52043628Y-49344867D01*
X52043628Y-49344867D02*
X52091247Y-49249629D01*
X52091247Y-49249629D02*
X52091247Y-49059153D01*
X52091247Y-49059153D02*
X52043628Y-48963915D01*
X52043628Y-48963915D02*
X51948390Y-48916296D01*
X51948390Y-48916296D02*
X51853152Y-48916296D01*
X51853152Y-48916296D02*
X51757914Y-49392486D01*
X51805533Y-48487724D02*
X51805533Y-47725820D01*
X51424580Y-47249629D02*
X52091247Y-47249629D01*
X51996009Y-47249629D02*
X52043628Y-47202010D01*
X52043628Y-47202010D02*
X52091247Y-47106772D01*
X52091247Y-47106772D02*
X52091247Y-46963915D01*
X52091247Y-46963915D02*
X52043628Y-46868677D01*
X52043628Y-46868677D02*
X51948390Y-46821058D01*
X51948390Y-46821058D02*
X51424580Y-46821058D01*
X51948390Y-46821058D02*
X52043628Y-46773439D01*
X52043628Y-46773439D02*
X52091247Y-46678201D01*
X52091247Y-46678201D02*
X52091247Y-46535344D01*
X52091247Y-46535344D02*
X52043628Y-46440105D01*
X52043628Y-46440105D02*
X51948390Y-46392486D01*
X51948390Y-46392486D02*
X51424580Y-46392486D01*
X51424580Y-45773439D02*
X51472200Y-45868677D01*
X51472200Y-45868677D02*
X51519819Y-45916296D01*
X51519819Y-45916296D02*
X51615057Y-45963915D01*
X51615057Y-45963915D02*
X51900771Y-45963915D01*
X51900771Y-45963915D02*
X51996009Y-45916296D01*
X51996009Y-45916296D02*
X52043628Y-45868677D01*
X52043628Y-45868677D02*
X52091247Y-45773439D01*
X52091247Y-45773439D02*
X52091247Y-45630582D01*
X52091247Y-45630582D02*
X52043628Y-45535344D01*
X52043628Y-45535344D02*
X51996009Y-45487725D01*
X51996009Y-45487725D02*
X51900771Y-45440106D01*
X51900771Y-45440106D02*
X51615057Y-45440106D01*
X51615057Y-45440106D02*
X51519819Y-45487725D01*
X51519819Y-45487725D02*
X51472200Y-45535344D01*
X51472200Y-45535344D02*
X51424580Y-45630582D01*
X51424580Y-45630582D02*
X51424580Y-45773439D01*
X51424580Y-44582963D02*
X52424580Y-44582963D01*
X51472200Y-44582963D02*
X51424580Y-44678201D01*
X51424580Y-44678201D02*
X51424580Y-44868677D01*
X51424580Y-44868677D02*
X51472200Y-44963915D01*
X51472200Y-44963915D02*
X51519819Y-45011534D01*
X51519819Y-45011534D02*
X51615057Y-45059153D01*
X51615057Y-45059153D02*
X51900771Y-45059153D01*
X51900771Y-45059153D02*
X51996009Y-45011534D01*
X51996009Y-45011534D02*
X52043628Y-44963915D01*
X52043628Y-44963915D02*
X52091247Y-44868677D01*
X52091247Y-44868677D02*
X52091247Y-44678201D01*
X52091247Y-44678201D02*
X52043628Y-44582963D01*
X52091247Y-43678201D02*
X51424580Y-43678201D01*
X52091247Y-44106772D02*
X51567438Y-44106772D01*
X51567438Y-44106772D02*
X51472200Y-44059153D01*
X51472200Y-44059153D02*
X51424580Y-43963915D01*
X51424580Y-43963915D02*
X51424580Y-43821058D01*
X51424580Y-43821058D02*
X51472200Y-43725820D01*
X51472200Y-43725820D02*
X51519819Y-43678201D01*
X51424580Y-43059153D02*
X51472200Y-43154391D01*
X51472200Y-43154391D02*
X51567438Y-43202010D01*
X51567438Y-43202010D02*
X52424580Y-43202010D01*
X51424580Y-42249629D02*
X51948390Y-42249629D01*
X51948390Y-42249629D02*
X52043628Y-42297248D01*
X52043628Y-42297248D02*
X52091247Y-42392486D01*
X52091247Y-42392486D02*
X52091247Y-42582962D01*
X52091247Y-42582962D02*
X52043628Y-42678200D01*
X51472200Y-42249629D02*
X51424580Y-42344867D01*
X51424580Y-42344867D02*
X51424580Y-42582962D01*
X51424580Y-42582962D02*
X51472200Y-42678200D01*
X51472200Y-42678200D02*
X51567438Y-42725819D01*
X51567438Y-42725819D02*
X51662676Y-42725819D01*
X51662676Y-42725819D02*
X51757914Y-42678200D01*
X51757914Y-42678200D02*
X51805533Y-42582962D01*
X51805533Y-42582962D02*
X51805533Y-42344867D01*
X51805533Y-42344867D02*
X51853152Y-42249629D01*
X51424580Y-41773438D02*
X52091247Y-41773438D01*
X51900771Y-41773438D02*
X51996009Y-41725819D01*
X51996009Y-41725819D02*
X52043628Y-41678200D01*
X52043628Y-41678200D02*
X52091247Y-41582962D01*
X52091247Y-41582962D02*
X52091247Y-41487724D01*
X50688380Y-59379295D02*
X50688380Y-58579295D01*
X50688380Y-58579295D02*
X50383618Y-58579295D01*
X50383618Y-58579295D02*
X50307428Y-58617390D01*
X50307428Y-58617390D02*
X50269333Y-58655485D01*
X50269333Y-58655485D02*
X50231237Y-58731676D01*
X50231237Y-58731676D02*
X50231237Y-58845961D01*
X50231237Y-58845961D02*
X50269333Y-58922152D01*
X50269333Y-58922152D02*
X50307428Y-58960247D01*
X50307428Y-58960247D02*
X50383618Y-58998342D01*
X50383618Y-58998342D02*
X50688380Y-58998342D01*
X49431237Y-59379295D02*
X49697904Y-58998342D01*
X49888380Y-59379295D02*
X49888380Y-58579295D01*
X49888380Y-58579295D02*
X49583618Y-58579295D01*
X49583618Y-58579295D02*
X49507428Y-58617390D01*
X49507428Y-58617390D02*
X49469333Y-58655485D01*
X49469333Y-58655485D02*
X49431237Y-58731676D01*
X49431237Y-58731676D02*
X49431237Y-58845961D01*
X49431237Y-58845961D02*
X49469333Y-58922152D01*
X49469333Y-58922152D02*
X49507428Y-58960247D01*
X49507428Y-58960247D02*
X49583618Y-58998342D01*
X49583618Y-58998342D02*
X49888380Y-58998342D01*
X48935999Y-58998342D02*
X48935999Y-59379295D01*
X49202666Y-58579295D02*
X48935999Y-58998342D01*
X48935999Y-58998342D02*
X48669333Y-58579295D01*
X50688380Y-27959295D02*
X50688380Y-27159295D01*
X50688380Y-27159295D02*
X50383618Y-27159295D01*
X50383618Y-27159295D02*
X50307428Y-27197390D01*
X50307428Y-27197390D02*
X50269333Y-27235485D01*
X50269333Y-27235485D02*
X50231237Y-27311676D01*
X50231237Y-27311676D02*
X50231237Y-27425961D01*
X50231237Y-27425961D02*
X50269333Y-27502152D01*
X50269333Y-27502152D02*
X50307428Y-27540247D01*
X50307428Y-27540247D02*
X50383618Y-27578342D01*
X50383618Y-27578342D02*
X50688380Y-27578342D01*
X49431237Y-27959295D02*
X49697904Y-27578342D01*
X49888380Y-27959295D02*
X49888380Y-27159295D01*
X49888380Y-27159295D02*
X49583618Y-27159295D01*
X49583618Y-27159295D02*
X49507428Y-27197390D01*
X49507428Y-27197390D02*
X49469333Y-27235485D01*
X49469333Y-27235485D02*
X49431237Y-27311676D01*
X49431237Y-27311676D02*
X49431237Y-27425961D01*
X49431237Y-27425961D02*
X49469333Y-27502152D01*
X49469333Y-27502152D02*
X49507428Y-27540247D01*
X49507428Y-27540247D02*
X49583618Y-27578342D01*
X49583618Y-27578342D02*
X49888380Y-27578342D01*
X48935999Y-27578342D02*
X48935999Y-27959295D01*
X49202666Y-27159295D02*
X48935999Y-27578342D01*
X48935999Y-27578342D02*
X48669333Y-27159295D01*
X47751759Y-28311400D02*
X51755516Y-28311400D01*
X51755516Y-26842400D01*
X47751759Y-26842400D01*
X47751759Y-28311400D01*
X47751759Y-58233400D02*
X51755516Y-58233400D01*
X51755516Y-59702400D01*
X47751759Y-59702400D01*
X47751759Y-58233400D01*
%LPC*%
D11*
X39736000Y-28032400D03*
G36*
G01*
X42061000Y-27657400D02*
X42061000Y-28407400D01*
G75*
G02*
X41811000Y-28657400I-250000J0D01*
G01*
X41061000Y-28657400D01*
G75*
G02*
X40811000Y-28407400I0J250000D01*
G01*
X40811000Y-27657400D01*
G75*
G02*
X41061000Y-27407400I250000J0D01*
G01*
X41811000Y-27407400D01*
G75*
G02*
X42061000Y-27657400I0J-250000D01*
G01*
G37*
X39736000Y-58512400D03*
G36*
G01*
X42061000Y-58137400D02*
X42061000Y-58887400D01*
G75*
G02*
X41811000Y-59137400I-250000J0D01*
G01*
X41061000Y-59137400D01*
G75*
G02*
X40811000Y-58887400I0J250000D01*
G01*
X40811000Y-58137400D01*
G75*
G02*
X41061000Y-57887400I250000J0D01*
G01*
X41811000Y-57887400D01*
G75*
G02*
X42061000Y-58137400I0J-250000D01*
G01*
G37*
G36*
G01*
X58661000Y-27657400D02*
X58661000Y-28407400D01*
G75*
G02*
X58411000Y-28657400I-250000J0D01*
G01*
X57661000Y-28657400D01*
G75*
G02*
X57411000Y-28407400I0J250000D01*
G01*
X57411000Y-27657400D01*
G75*
G02*
X57661000Y-27407400I250000J0D01*
G01*
X58411000Y-27407400D01*
G75*
G02*
X58661000Y-27657400I0J-250000D01*
G01*
G37*
X59736000Y-28032400D03*
G36*
G01*
X58661000Y-55597400D02*
X58661000Y-56347400D01*
G75*
G02*
X58411000Y-56597400I-250000J0D01*
G01*
X57661000Y-56597400D01*
G75*
G02*
X57411000Y-56347400I0J250000D01*
G01*
X57411000Y-55597400D01*
G75*
G02*
X57661000Y-55347400I250000J0D01*
G01*
X58411000Y-55347400D01*
G75*
G02*
X58661000Y-55597400I0J-250000D01*
G01*
G37*
X59736000Y-55972400D03*
G36*
G01*
X58661000Y-58137400D02*
X58661000Y-58887400D01*
G75*
G02*
X58411000Y-59137400I-250000J0D01*
G01*
X57661000Y-59137400D01*
G75*
G02*
X57411000Y-58887400I0J250000D01*
G01*
X57411000Y-58137400D01*
G75*
G02*
X57661000Y-57887400I250000J0D01*
G01*
X58411000Y-57887400D01*
G75*
G02*
X58661000Y-58137400I0J-250000D01*
G01*
G37*
X59736000Y-58512400D03*
%LPD*%
M02*
