G04 #@! TF.GenerationSoftware,KiCad,Pcbnew,9.0.1+1*
G04 #@! TF.CreationDate,2025-11-12T15:12:27+00:00*
G04 #@! TF.ProjectId,usb-c-power-in,7573622d-632d-4706-9f77-65722d696e2e,rev?*
G04 #@! TF.SameCoordinates,Original*
G04 #@! TF.FileFunction,Legend,Top*
G04 #@! TF.FilePolarity,Positive*
%FSLAX46Y46*%
G04 Gerber Fmt 4.6, Leading zero omitted, Abs format (unit mm)*
G04 Created by KiCad (PCBNEW 9.0.1+1) date 2025-11-12 15:12:27*
%MOMM*%
%LPD*%
G01*
G04 APERTURE LIST*
%ADD10C,0.100000*%
%ADD11C,0.150000*%
%ADD12R,6.000000X15.000000*%
%ADD13R,2.540000X2.000000*%
G04 APERTURE END LIST*
D10*
X49708000Y-26862200D02*
X49708000Y-57762200D01*
X44208000Y-26862200D02*
X44208000Y-36862200D01*
X56208000Y-26862200D02*
X56208000Y-37862200D01*
X43208000Y-26862200D02*
X43208000Y-37862200D01*
X0Y5500000D02*
X0Y-5500000D01*
X55208000Y-26862200D02*
X55208000Y-36762200D01*
X41685819Y-56760715D02*
X42495342Y-56760715D01*
X42495342Y-56760715D02*
X42590580Y-56713096D01*
X42590580Y-56713096D02*
X42638200Y-56665477D01*
X42638200Y-56665477D02*
X42685819Y-56570239D01*
X42685819Y-56570239D02*
X42685819Y-56379763D01*
X42685819Y-56379763D02*
X42638200Y-56284525D01*
X42638200Y-56284525D02*
X42590580Y-56236906D01*
X42590580Y-56236906D02*
X42495342Y-56189287D01*
X42495342Y-56189287D02*
X41685819Y-56189287D01*
X42638200Y-55760715D02*
X42685819Y-55617858D01*
X42685819Y-55617858D02*
X42685819Y-55379763D01*
X42685819Y-55379763D02*
X42638200Y-55284525D01*
X42638200Y-55284525D02*
X42590580Y-55236906D01*
X42590580Y-55236906D02*
X42495342Y-55189287D01*
X42495342Y-55189287D02*
X42400104Y-55189287D01*
X42400104Y-55189287D02*
X42304866Y-55236906D01*
X42304866Y-55236906D02*
X42257247Y-55284525D01*
X42257247Y-55284525D02*
X42209628Y-55379763D01*
X42209628Y-55379763D02*
X42162009Y-55570239D01*
X42162009Y-55570239D02*
X42114390Y-55665477D01*
X42114390Y-55665477D02*
X42066771Y-55713096D01*
X42066771Y-55713096D02*
X41971533Y-55760715D01*
X41971533Y-55760715D02*
X41876295Y-55760715D01*
X41876295Y-55760715D02*
X41781057Y-55713096D01*
X41781057Y-55713096D02*
X41733438Y-55665477D01*
X41733438Y-55665477D02*
X41685819Y-55570239D01*
X41685819Y-55570239D02*
X41685819Y-55332144D01*
X41685819Y-55332144D02*
X41733438Y-55189287D01*
X42162009Y-54427382D02*
X42209628Y-54284525D01*
X42209628Y-54284525D02*
X42257247Y-54236906D01*
X42257247Y-54236906D02*
X42352485Y-54189287D01*
X42352485Y-54189287D02*
X42495342Y-54189287D01*
X42495342Y-54189287D02*
X42590580Y-54236906D01*
X42590580Y-54236906D02*
X42638200Y-54284525D01*
X42638200Y-54284525D02*
X42685819Y-54379763D01*
X42685819Y-54379763D02*
X42685819Y-54760715D01*
X42685819Y-54760715D02*
X41685819Y-54760715D01*
X41685819Y-54760715D02*
X41685819Y-54427382D01*
X41685819Y-54427382D02*
X41733438Y-54332144D01*
X41733438Y-54332144D02*
X41781057Y-54284525D01*
X41781057Y-54284525D02*
X41876295Y-54236906D01*
X41876295Y-54236906D02*
X41971533Y-54236906D01*
X41971533Y-54236906D02*
X42066771Y-54284525D01*
X42066771Y-54284525D02*
X42114390Y-54332144D01*
X42114390Y-54332144D02*
X42162009Y-54427382D01*
X42162009Y-54427382D02*
X42162009Y-54760715D01*
X42304866Y-53760715D02*
X42304866Y-52998811D01*
X42590580Y-51951192D02*
X42638200Y-51998811D01*
X42638200Y-51998811D02*
X42685819Y-52141668D01*
X42685819Y-52141668D02*
X42685819Y-52236906D01*
X42685819Y-52236906D02*
X42638200Y-52379763D01*
X42638200Y-52379763D02*
X42542961Y-52475001D01*
X42542961Y-52475001D02*
X42447723Y-52522620D01*
X42447723Y-52522620D02*
X42257247Y-52570239D01*
X42257247Y-52570239D02*
X42114390Y-52570239D01*
X42114390Y-52570239D02*
X41923914Y-52522620D01*
X41923914Y-52522620D02*
X41828676Y-52475001D01*
X41828676Y-52475001D02*
X41733438Y-52379763D01*
X41733438Y-52379763D02*
X41685819Y-52236906D01*
X41685819Y-52236906D02*
X41685819Y-52141668D01*
X41685819Y-52141668D02*
X41733438Y-51998811D01*
X41733438Y-51998811D02*
X41781057Y-51951192D01*
X42685819Y-50760715D02*
X41685819Y-50760715D01*
X41685819Y-50760715D02*
X41685819Y-50379763D01*
X41685819Y-50379763D02*
X41733438Y-50284525D01*
X41733438Y-50284525D02*
X41781057Y-50236906D01*
X41781057Y-50236906D02*
X41876295Y-50189287D01*
X41876295Y-50189287D02*
X42019152Y-50189287D01*
X42019152Y-50189287D02*
X42114390Y-50236906D01*
X42114390Y-50236906D02*
X42162009Y-50284525D01*
X42162009Y-50284525D02*
X42209628Y-50379763D01*
X42209628Y-50379763D02*
X42209628Y-50760715D01*
X42685819Y-49760715D02*
X41685819Y-49760715D01*
X41685819Y-49760715D02*
X41685819Y-49522620D01*
X41685819Y-49522620D02*
X41733438Y-49379763D01*
X41733438Y-49379763D02*
X41828676Y-49284525D01*
X41828676Y-49284525D02*
X41923914Y-49236906D01*
X41923914Y-49236906D02*
X42114390Y-49189287D01*
X42114390Y-49189287D02*
X42257247Y-49189287D01*
X42257247Y-49189287D02*
X42447723Y-49236906D01*
X42447723Y-49236906D02*
X42542961Y-49284525D01*
X42542961Y-49284525D02*
X42638200Y-49379763D01*
X42638200Y-49379763D02*
X42685819Y-49522620D01*
X42685819Y-49522620D02*
X42685819Y-49760715D01*
X42685819Y-47998810D02*
X41685819Y-47998810D01*
X42019152Y-47522620D02*
X42685819Y-47522620D01*
X42114390Y-47522620D02*
X42066771Y-47475001D01*
X42066771Y-47475001D02*
X42019152Y-47379763D01*
X42019152Y-47379763D02*
X42019152Y-47236906D01*
X42019152Y-47236906D02*
X42066771Y-47141668D01*
X42066771Y-47141668D02*
X42162009Y-47094049D01*
X42162009Y-47094049D02*
X42685819Y-47094049D01*
X42019152Y-46617858D02*
X43019152Y-46617858D01*
X42066771Y-46617858D02*
X42019152Y-46522620D01*
X42019152Y-46522620D02*
X42019152Y-46332144D01*
X42019152Y-46332144D02*
X42066771Y-46236906D01*
X42066771Y-46236906D02*
X42114390Y-46189287D01*
X42114390Y-46189287D02*
X42209628Y-46141668D01*
X42209628Y-46141668D02*
X42495342Y-46141668D01*
X42495342Y-46141668D02*
X42590580Y-46189287D01*
X42590580Y-46189287D02*
X42638200Y-46236906D01*
X42638200Y-46236906D02*
X42685819Y-46332144D01*
X42685819Y-46332144D02*
X42685819Y-46522620D01*
X42685819Y-46522620D02*
X42638200Y-46617858D01*
X42019152Y-45284525D02*
X42685819Y-45284525D01*
X42019152Y-45713096D02*
X42542961Y-45713096D01*
X42542961Y-45713096D02*
X42638200Y-45665477D01*
X42638200Y-45665477D02*
X42685819Y-45570239D01*
X42685819Y-45570239D02*
X42685819Y-45427382D01*
X42685819Y-45427382D02*
X42638200Y-45332144D01*
X42638200Y-45332144D02*
X42590580Y-45284525D01*
X42019152Y-44951191D02*
X42019152Y-44570239D01*
X41685819Y-44808334D02*
X42542961Y-44808334D01*
X42542961Y-44808334D02*
X42638200Y-44760715D01*
X42638200Y-44760715D02*
X42685819Y-44665477D01*
X42685819Y-44665477D02*
X42685819Y-44570239D01*
X42685819Y-43475000D02*
X41685819Y-43475000D01*
X41685819Y-43475000D02*
X42400104Y-43141667D01*
X42400104Y-43141667D02*
X41685819Y-42808334D01*
X41685819Y-42808334D02*
X42685819Y-42808334D01*
X42685819Y-42189286D02*
X42638200Y-42284524D01*
X42638200Y-42284524D02*
X42590580Y-42332143D01*
X42590580Y-42332143D02*
X42495342Y-42379762D01*
X42495342Y-42379762D02*
X42209628Y-42379762D01*
X42209628Y-42379762D02*
X42114390Y-42332143D01*
X42114390Y-42332143D02*
X42066771Y-42284524D01*
X42066771Y-42284524D02*
X42019152Y-42189286D01*
X42019152Y-42189286D02*
X42019152Y-42046429D01*
X42019152Y-42046429D02*
X42066771Y-41951191D01*
X42066771Y-41951191D02*
X42114390Y-41903572D01*
X42114390Y-41903572D02*
X42209628Y-41855953D01*
X42209628Y-41855953D02*
X42495342Y-41855953D01*
X42495342Y-41855953D02*
X42590580Y-41903572D01*
X42590580Y-41903572D02*
X42638200Y-41951191D01*
X42638200Y-41951191D02*
X42685819Y-42046429D01*
X42685819Y-42046429D02*
X42685819Y-42189286D01*
X42685819Y-40998810D02*
X41685819Y-40998810D01*
X42638200Y-40998810D02*
X42685819Y-41094048D01*
X42685819Y-41094048D02*
X42685819Y-41284524D01*
X42685819Y-41284524D02*
X42638200Y-41379762D01*
X42638200Y-41379762D02*
X42590580Y-41427381D01*
X42590580Y-41427381D02*
X42495342Y-41475000D01*
X42495342Y-41475000D02*
X42209628Y-41475000D01*
X42209628Y-41475000D02*
X42114390Y-41427381D01*
X42114390Y-41427381D02*
X42066771Y-41379762D01*
X42066771Y-41379762D02*
X42019152Y-41284524D01*
X42019152Y-41284524D02*
X42019152Y-41094048D01*
X42019152Y-41094048D02*
X42066771Y-40998810D01*
X42019152Y-40094048D02*
X42685819Y-40094048D01*
X42019152Y-40522619D02*
X42542961Y-40522619D01*
X42542961Y-40522619D02*
X42638200Y-40475000D01*
X42638200Y-40475000D02*
X42685819Y-40379762D01*
X42685819Y-40379762D02*
X42685819Y-40236905D01*
X42685819Y-40236905D02*
X42638200Y-40141667D01*
X42638200Y-40141667D02*
X42590580Y-40094048D01*
X42685819Y-39475000D02*
X42638200Y-39570238D01*
X42638200Y-39570238D02*
X42542961Y-39617857D01*
X42542961Y-39617857D02*
X41685819Y-39617857D01*
X42638200Y-38713095D02*
X42685819Y-38808333D01*
X42685819Y-38808333D02*
X42685819Y-38998809D01*
X42685819Y-38998809D02*
X42638200Y-39094047D01*
X42638200Y-39094047D02*
X42542961Y-39141666D01*
X42542961Y-39141666D02*
X42162009Y-39141666D01*
X42162009Y-39141666D02*
X42066771Y-39094047D01*
X42066771Y-39094047D02*
X42019152Y-38998809D01*
X42019152Y-38998809D02*
X42019152Y-38808333D01*
X42019152Y-38808333D02*
X42066771Y-38713095D01*
X42066771Y-38713095D02*
X42162009Y-38665476D01*
X42162009Y-38665476D02*
X42257247Y-38665476D01*
X42257247Y-38665476D02*
X42352485Y-39141666D01*
X42685819Y-36903571D02*
X42209628Y-37236904D01*
X42685819Y-37474999D02*
X41685819Y-37474999D01*
X41685819Y-37474999D02*
X41685819Y-37094047D01*
X41685819Y-37094047D02*
X41733438Y-36998809D01*
X41733438Y-36998809D02*
X41781057Y-36951190D01*
X41781057Y-36951190D02*
X41876295Y-36903571D01*
X41876295Y-36903571D02*
X42019152Y-36903571D01*
X42019152Y-36903571D02*
X42114390Y-36951190D01*
X42114390Y-36951190D02*
X42162009Y-36998809D01*
X42162009Y-36998809D02*
X42209628Y-37094047D01*
X42209628Y-37094047D02*
X42209628Y-37474999D01*
X41781057Y-36522618D02*
X41733438Y-36474999D01*
X41733438Y-36474999D02*
X41685819Y-36379761D01*
X41685819Y-36379761D02*
X41685819Y-36141666D01*
X41685819Y-36141666D02*
X41733438Y-36046428D01*
X41733438Y-36046428D02*
X41781057Y-35998809D01*
X41781057Y-35998809D02*
X41876295Y-35951190D01*
X41876295Y-35951190D02*
X41971533Y-35951190D01*
X41971533Y-35951190D02*
X42114390Y-35998809D01*
X42114390Y-35998809D02*
X42685819Y-36570237D01*
X42685819Y-36570237D02*
X42685819Y-35951190D01*
X41685819Y-35332142D02*
X41685819Y-35236904D01*
X41685819Y-35236904D02*
X41733438Y-35141666D01*
X41733438Y-35141666D02*
X41781057Y-35094047D01*
X41781057Y-35094047D02*
X41876295Y-35046428D01*
X41876295Y-35046428D02*
X42066771Y-34998809D01*
X42066771Y-34998809D02*
X42304866Y-34998809D01*
X42304866Y-34998809D02*
X42495342Y-35046428D01*
X42495342Y-35046428D02*
X42590580Y-35094047D01*
X42590580Y-35094047D02*
X42638200Y-35141666D01*
X42638200Y-35141666D02*
X42685819Y-35236904D01*
X42685819Y-35236904D02*
X42685819Y-35332142D01*
X42685819Y-35332142D02*
X42638200Y-35427380D01*
X42638200Y-35427380D02*
X42590580Y-35474999D01*
X42590580Y-35474999D02*
X42495342Y-35522618D01*
X42495342Y-35522618D02*
X42304866Y-35570237D01*
X42304866Y-35570237D02*
X42066771Y-35570237D01*
X42066771Y-35570237D02*
X41876295Y-35522618D01*
X41876295Y-35522618D02*
X41781057Y-35474999D01*
X41781057Y-35474999D02*
X41733438Y-35427380D01*
X41733438Y-35427380D02*
X41685819Y-35332142D01*
X41781057Y-34617856D02*
X41733438Y-34570237D01*
X41733438Y-34570237D02*
X41685819Y-34474999D01*
X41685819Y-34474999D02*
X41685819Y-34236904D01*
X41685819Y-34236904D02*
X41733438Y-34141666D01*
X41733438Y-34141666D02*
X41781057Y-34094047D01*
X41781057Y-34094047D02*
X41876295Y-34046428D01*
X41876295Y-34046428D02*
X41971533Y-34046428D01*
X41971533Y-34046428D02*
X42114390Y-34094047D01*
X42114390Y-34094047D02*
X42685819Y-34665475D01*
X42685819Y-34665475D02*
X42685819Y-34046428D01*
X41685819Y-33141666D02*
X41685819Y-33617856D01*
X41685819Y-33617856D02*
X42162009Y-33665475D01*
X42162009Y-33665475D02*
X42114390Y-33617856D01*
X42114390Y-33617856D02*
X42066771Y-33522618D01*
X42066771Y-33522618D02*
X42066771Y-33284523D01*
X42066771Y-33284523D02*
X42114390Y-33189285D01*
X42114390Y-33189285D02*
X42162009Y-33141666D01*
X42162009Y-33141666D02*
X42257247Y-33094047D01*
X42257247Y-33094047D02*
X42495342Y-33094047D01*
X42495342Y-33094047D02*
X42590580Y-33141666D01*
X42590580Y-33141666D02*
X42638200Y-33189285D01*
X42638200Y-33189285D02*
X42685819Y-33284523D01*
X42685819Y-33284523D02*
X42685819Y-33522618D01*
X42685819Y-33522618D02*
X42638200Y-33617856D01*
X42638200Y-33617856D02*
X42590580Y-33665475D01*
X41685819Y-32474999D02*
X41685819Y-32379761D01*
X41685819Y-32379761D02*
X41733438Y-32284523D01*
X41733438Y-32284523D02*
X41781057Y-32236904D01*
X41781057Y-32236904D02*
X41876295Y-32189285D01*
X41876295Y-32189285D02*
X42066771Y-32141666D01*
X42066771Y-32141666D02*
X42304866Y-32141666D01*
X42304866Y-32141666D02*
X42495342Y-32189285D01*
X42495342Y-32189285D02*
X42590580Y-32236904D01*
X42590580Y-32236904D02*
X42638200Y-32284523D01*
X42638200Y-32284523D02*
X42685819Y-32379761D01*
X42685819Y-32379761D02*
X42685819Y-32474999D01*
X42685819Y-32474999D02*
X42638200Y-32570237D01*
X42638200Y-32570237D02*
X42590580Y-32617856D01*
X42590580Y-32617856D02*
X42495342Y-32665475D01*
X42495342Y-32665475D02*
X42304866Y-32713094D01*
X42304866Y-32713094D02*
X42066771Y-32713094D01*
X42066771Y-32713094D02*
X41876295Y-32665475D01*
X41876295Y-32665475D02*
X41781057Y-32617856D01*
X41781057Y-32617856D02*
X41733438Y-32570237D01*
X41733438Y-32570237D02*
X41685819Y-32474999D01*
X41685819Y-31808332D02*
X41685819Y-31189285D01*
X41685819Y-31189285D02*
X42066771Y-31522618D01*
X42066771Y-31522618D02*
X42066771Y-31379761D01*
X42066771Y-31379761D02*
X42114390Y-31284523D01*
X42114390Y-31284523D02*
X42162009Y-31236904D01*
X42162009Y-31236904D02*
X42257247Y-31189285D01*
X42257247Y-31189285D02*
X42495342Y-31189285D01*
X42495342Y-31189285D02*
X42590580Y-31236904D01*
X42590580Y-31236904D02*
X42638200Y-31284523D01*
X42638200Y-31284523D02*
X42685819Y-31379761D01*
X42685819Y-31379761D02*
X42685819Y-31665475D01*
X42685819Y-31665475D02*
X42638200Y-31760713D01*
X42638200Y-31760713D02*
X42590580Y-31808332D01*
X41685819Y-30570237D02*
X41685819Y-30474999D01*
X41685819Y-30474999D02*
X41733438Y-30379761D01*
X41733438Y-30379761D02*
X41781057Y-30332142D01*
X41781057Y-30332142D02*
X41876295Y-30284523D01*
X41876295Y-30284523D02*
X42066771Y-30236904D01*
X42066771Y-30236904D02*
X42304866Y-30236904D01*
X42304866Y-30236904D02*
X42495342Y-30284523D01*
X42495342Y-30284523D02*
X42590580Y-30332142D01*
X42590580Y-30332142D02*
X42638200Y-30379761D01*
X42638200Y-30379761D02*
X42685819Y-30474999D01*
X42685819Y-30474999D02*
X42685819Y-30570237D01*
X42685819Y-30570237D02*
X42638200Y-30665475D01*
X42638200Y-30665475D02*
X42590580Y-30713094D01*
X42590580Y-30713094D02*
X42495342Y-30760713D01*
X42495342Y-30760713D02*
X42304866Y-30808332D01*
X42304866Y-30808332D02*
X42066771Y-30808332D01*
X42066771Y-30808332D02*
X41876295Y-30760713D01*
X41876295Y-30760713D02*
X41781057Y-30713094D01*
X41781057Y-30713094D02*
X41733438Y-30665475D01*
X41733438Y-30665475D02*
X41685819Y-30570237D01*
X42685819Y-29284523D02*
X42685819Y-29855951D01*
X42685819Y-29570237D02*
X41685819Y-29570237D01*
X41685819Y-29570237D02*
X41828676Y-29665475D01*
X41828676Y-29665475D02*
X41923914Y-29760713D01*
X41923914Y-29760713D02*
X41971533Y-29855951D01*
D11*
X54773666Y-37215419D02*
X54773666Y-37929704D01*
X54773666Y-37929704D02*
X54726047Y-38072561D01*
X54726047Y-38072561D02*
X54630809Y-38167800D01*
X54630809Y-38167800D02*
X54487952Y-38215419D01*
X54487952Y-38215419D02*
X54392714Y-38215419D01*
X55773666Y-38215419D02*
X55202238Y-38215419D01*
X55487952Y-38215419D02*
X55487952Y-37215419D01*
X55487952Y-37215419D02*
X55392714Y-37358276D01*
X55392714Y-37358276D02*
X55297476Y-37453514D01*
X55297476Y-37453514D02*
X55202238Y-37501133D01*
D10*
X52048476Y-59419619D02*
X52048476Y-58419619D01*
X52048476Y-58419619D02*
X52381809Y-59133904D01*
X52381809Y-59133904D02*
X52715142Y-58419619D01*
X52715142Y-58419619D02*
X52715142Y-59419619D01*
X53715142Y-59419619D02*
X53143714Y-59419619D01*
X53429428Y-59419619D02*
X53429428Y-58419619D01*
X53429428Y-58419619D02*
X53334190Y-58562476D01*
X53334190Y-58562476D02*
X53238952Y-58657714D01*
X53238952Y-58657714D02*
X53143714Y-58705333D01*
%LPC*%
D12*
X53252800Y-46803000D03*
X46293200Y-46803000D03*
D13*
X39736000Y-28032400D03*
G36*
G01*
X42061000Y-27657400D02*
X42061000Y-28407400D01*
G75*
G02*
X41811000Y-28657400I-250000J0D01*
G01*
X41061000Y-28657400D01*
G75*
G02*
X40811000Y-28407400I0J250000D01*
G01*
X40811000Y-27657400D01*
G75*
G02*
X41061000Y-27407400I250000J0D01*
G01*
X41811000Y-27407400D01*
G75*
G02*
X42061000Y-27657400I0J-250000D01*
G01*
G37*
X39736000Y-58512400D03*
G36*
G01*
X42061000Y-58137400D02*
X42061000Y-58887400D01*
G75*
G02*
X41811000Y-59137400I-250000J0D01*
G01*
X41061000Y-59137400D01*
G75*
G02*
X40811000Y-58887400I0J250000D01*
G01*
X40811000Y-58137400D01*
G75*
G02*
X41061000Y-57887400I250000J0D01*
G01*
X41811000Y-57887400D01*
G75*
G02*
X42061000Y-58137400I0J-250000D01*
G01*
G37*
G36*
G01*
X58661000Y-27657400D02*
X58661000Y-28407400D01*
G75*
G02*
X58411000Y-28657400I-250000J0D01*
G01*
X57661000Y-28657400D01*
G75*
G02*
X57411000Y-28407400I0J250000D01*
G01*
X57411000Y-27657400D01*
G75*
G02*
X57661000Y-27407400I250000J0D01*
G01*
X58411000Y-27407400D01*
G75*
G02*
X58661000Y-27657400I0J-250000D01*
G01*
G37*
X59736000Y-28032400D03*
G36*
G01*
X58661000Y-55597400D02*
X58661000Y-56347400D01*
G75*
G02*
X58411000Y-56597400I-250000J0D01*
G01*
X57661000Y-56597400D01*
G75*
G02*
X57411000Y-56347400I0J250000D01*
G01*
X57411000Y-55597400D01*
G75*
G02*
X57661000Y-55347400I250000J0D01*
G01*
X58411000Y-55347400D01*
G75*
G02*
X58661000Y-55597400I0J-250000D01*
G01*
G37*
X59736000Y-55972400D03*
G36*
G01*
X58661000Y-58137400D02*
X58661000Y-58887400D01*
G75*
G02*
X58411000Y-59137400I-250000J0D01*
G01*
X57661000Y-59137400D01*
G75*
G02*
X57411000Y-58887400I0J250000D01*
G01*
X57411000Y-58137400D01*
G75*
G02*
X57661000Y-57887400I250000J0D01*
G01*
X58411000Y-57887400D01*
G75*
G02*
X58661000Y-58137400I0J-250000D01*
G01*
G37*
X59736000Y-58512400D03*
%LPD*%
M02*
