M48
; DRILL file {KiCad 9.0.1+1} date 2025-11-12T15:35:08+0000
; FORMAT={-:-/ absolute / inch / decimal}
; #@! TF.CreationDate,2025-11-12T15:35:08+00:00
; #@! TF.GenerationSoftware,Kicad,Pcbnew,9.0.1+1
; #@! TF.FileFunction,Plated,1,2,PTH
FMAT,2
INCH
; #@! TA.AperFunction,Plated,PTH,ViaDrill
T1C0.0118
; #@! TA.AperFunction,Plated,PTH,ComponentDrill
T2C0.0394
; #@! TA.AperFunction,Plated,PTH,ComponentDrill
T3C0.0591
%
G90
G05
T1
X1.8898Y-4.5079
T2
X1.9685Y-1.9685
X1.9685Y-2.0685
X1.9685Y-2.1685
X1.9685Y-2.2685
X1.9685Y-2.3685
X1.9685Y-2.4685
X1.9685Y-2.5685
X1.9685Y-2.6685
X1.9685Y-2.7685
X1.9685Y-2.8685
X1.9685Y-2.9685
X1.9685Y-3.0685
X1.9685Y-3.1685
X1.9685Y-3.2685
X1.9685Y-3.3685
X1.9685Y-3.4685
X1.9685Y-3.5685
X1.9685Y-3.6685
X1.9685Y-3.7685
X1.9685Y-3.8685
X1.9685Y-3.9685
X1.9685Y-4.0685
X1.9685Y-4.1685
X1.9685Y-4.2685
X1.9685Y-4.3685
X2.0685Y-1.9685
X2.0685Y-2.0685
X2.0685Y-2.1685
X2.0685Y-2.2685
X2.0685Y-2.3685
X2.0685Y-2.4685
X2.0685Y-2.5685
X2.0685Y-2.6685
X2.0685Y-2.7685
X2.0685Y-2.8685
X2.0685Y-2.9685
X2.0685Y-3.0685
X2.0685Y-3.1685
X2.0685Y-3.2685
X2.0685Y-3.3685
X2.0685Y-3.4685
X2.0685Y-3.5685
X2.0685Y-3.6685
X2.0685Y-3.7685
X2.0685Y-3.8685
X2.0685Y-3.9685
X2.0685Y-4.0685
X2.0685Y-4.1685
X2.0685Y-4.2685
X2.0685Y-4.3685
X3.0685Y-2.2685
X3.0685Y-2.3685
X3.0685Y-2.4685
X3.0685Y-2.5685
X3.0685Y-2.6685
X3.0685Y-2.7685
X3.0685Y-2.8685
X3.0685Y-2.9685
X3.0685Y-3.0685
X3.0685Y-3.1685
X3.0685Y-3.2685
X3.0685Y-3.3685
X3.0685Y-3.4685
X3.0685Y-3.5685
X3.0685Y-3.6685
X3.0685Y-3.7685
X3.0685Y-3.8685
X3.0685Y-3.9685
X3.0685Y-4.0685
X3.0685Y-4.1685
X3.0685Y-4.2685
X3.0685Y-4.3685
X3.0685Y-4.4685
X3.0685Y-4.5685
X3.0685Y-4.6685
X3.1685Y-2.2685
X3.1685Y-2.3685
X3.1685Y-2.4685
X3.1685Y-2.5685
X3.1685Y-2.6685
X3.1685Y-2.7685
X3.1685Y-2.8685
X3.1685Y-2.9685
X3.1685Y-3.0685
X3.1685Y-3.1685
X3.1685Y-3.2685
X3.1685Y-3.3685
X3.1685Y-3.4685
X3.1685Y-3.5685
X3.1685Y-3.6685
X3.1685Y-3.7685
X3.1685Y-3.8685
X3.1685Y-3.9685
X3.1685Y-4.0685
X3.1685Y-4.1685
X3.1685Y-4.2685
X3.1685Y-4.3685
X3.1685Y-4.4685
X3.1685Y-4.5685
X3.1685Y-4.6685
T3
G00X1.7421Y-1.7591
M15
G01X1.7618Y-1.7591
M16
G05
G00X1.7421Y-1.9591
M15
G01X1.7618Y-1.9591
M16
G05
G00X1.7421Y-2.0591
M15
G01X1.7618Y-2.0591
M16
G05
G00X1.7421Y-2.1591
M15
G01X1.7618Y-2.1591
M16
G05
G00X1.7421Y-2.2591
M15
G01X1.7618Y-2.2591
M16
G05
G00X1.7421Y-2.3591
M15
G01X1.7618Y-2.3591
M16
G05
G00X1.7421Y-2.4591
M15
G01X1.7618Y-2.4591
M16
G05
G00X1.7421Y-2.5591
M15
G01X1.7618Y-2.5591
M16
G05
G00X1.7421Y-2.6591
M15
G01X1.7618Y-2.6591
M16
G05
G00X1.7421Y-2.7591
M15
G01X1.7618Y-2.7591
M16
G05
G00X1.7421Y-2.8591
M15
G01X1.7618Y-2.8591
M16
G05
G00X1.7421Y-2.9591
M15
G01X1.7618Y-2.9591
M16
G05
G00X1.7421Y-3.0591
M15
G01X1.7618Y-3.0591
M16
G05
G00X1.7421Y-3.1591
M15
G01X1.7618Y-3.1591
M16
G05
G00X1.7421Y-3.2591
M15
G01X1.7618Y-3.2591
M16
G05
G00X1.7421Y-3.3591
M15
G01X1.7618Y-3.3591
M16
G05
G00X1.7421Y-3.4591
M15
G01X1.7618Y-3.4591
M16
G05
G00X1.7421Y-3.5591
M15
G01X1.7618Y-3.5591
M16
G05
G00X1.7421Y-3.6591
M15
G01X1.7618Y-3.6591
M16
G05
G00X1.7421Y-3.7591
M15
G01X1.7618Y-3.7591
M16
G05
G00X1.7421Y-3.8591
M15
G01X1.7618Y-3.8591
M16
G05
G00X1.7421Y-3.9591
M15
G01X1.7618Y-3.9591
M16
G05
G00X1.7421Y-4.0591
M15
G01X1.7618Y-4.0591
M16
G05
G00X1.7421Y-4.1591
M15
G01X1.7618Y-4.1591
M16
G05
G00X1.7421Y-4.2591
M15
G01X1.7618Y-4.2591
M16
G05
G00X1.7421Y-4.3591
M15
G01X1.7618Y-4.3591
M16
G05
G00X1.7421Y-4.4591
M15
G01X1.7618Y-4.4591
M16
G05
G00X1.7421Y-4.5591
M15
G01X1.7618Y-4.5591
M16
G05
G00X1.7421Y-4.6591
M15
G01X1.7618Y-4.6591
M16
G05
G00X1.7421Y-4.7591
M15
G01X1.7618Y-4.7591
M16
G05
G00X1.7421Y-4.8591
M15
G01X1.7618Y-4.8591
M16
G05
G00X1.7421Y-4.9591
M15
G01X1.7618Y-4.9591
M16
G05
G00X1.7421Y-5.0591
M15
G01X1.7618Y-5.0591
M16
G05
G00X1.7421Y-5.1591
M15
G01X1.7618Y-5.1591
M16
G05
G00X1.7421Y-5.2591
M15
G01X1.7618Y-5.2591
M16
G05
G00X1.7421Y-5.3591
M15
G01X1.7618Y-5.3591
M16
G05
G00X1.7421Y-5.4591
M15
G01X1.7618Y-5.4591
M16
G05
G00X1.7421Y-5.5591
M15
G01X1.7618Y-5.5591
M16
G05
G00X1.7421Y-5.6591
M15
G01X1.7618Y-5.6591
M16
G05
G00X1.7421Y-5.7591
M15
G01X1.7618Y-5.7591
M16
G05
G00X1.7421Y-5.8591
M15
G01X1.7618Y-5.8591
M16
G05
G00X1.7421Y-5.9591
M15
G01X1.7618Y-5.9591
M16
G05
G00X1.7421Y-6.0591
M15
G01X1.7618Y-6.0591
M16
G05
G00X1.7421Y-6.1591
M15
G01X1.7618Y-6.1591
M16
G05
G00X1.7421Y-6.2591
M15
G01X1.7618Y-6.2591
M16
G05
G00X1.7421Y-6.3591
M15
G01X1.7618Y-6.3591
M16
G05
G00X1.7421Y-6.4591
M15
G01X1.7618Y-6.4591
M16
G05
G00X1.7421Y-6.5591
M15
G01X1.7618Y-6.5591
M16
G05
G00X1.7421Y-6.6591
M15
G01X1.7618Y-6.6591
M16
G05
G00X1.7421Y-6.7591
M15
G01X1.7618Y-6.7591
M16
G05
G00X1.7421Y-6.8591
M15
G01X1.7618Y-6.8591
M16
G05
G00X3.3957Y-1.7591
M15
G01X3.4154Y-1.7591
M16
G05
G00X3.3957Y-1.8591
M15
G01X3.4154Y-1.8591
M16
G05
G00X3.3957Y-1.9591
M15
G01X3.4154Y-1.9591
M16
G05
G00X3.3957Y-2.0591
M15
G01X3.4154Y-2.0591
M16
G05
G00X3.3957Y-2.1591
M15
G01X3.4154Y-2.1591
M16
G05
G00X3.3957Y-2.2591
M15
G01X3.4154Y-2.2591
M16
G05
G00X3.3957Y-2.3591
M15
G01X3.4154Y-2.3591
M16
G05
G00X3.3957Y-2.4591
M15
G01X3.4154Y-2.4591
M16
G05
G00X3.3957Y-2.5591
M15
G01X3.4154Y-2.5591
M16
G05
G00X3.3957Y-2.6591
M15
G01X3.4154Y-2.6591
M16
G05
G00X3.3957Y-2.7591
M15
G01X3.4154Y-2.7591
M16
G05
G00X3.3957Y-2.8591
M15
G01X3.4154Y-2.8591
M16
G05
G00X3.3957Y-2.9591
M15
G01X3.4154Y-2.9591
M16
G05
G00X3.3957Y-3.0591
M15
G01X3.4154Y-3.0591
M16
G05
G00X3.3957Y-3.1591
M15
G01X3.4154Y-3.1591
M16
G05
G00X3.3957Y-3.2591
M15
G01X3.4154Y-3.2591
M16
G05
G00X3.3957Y-3.3591
M15
G01X3.4154Y-3.3591
M16
G05
G00X3.3957Y-3.4591
M15
G01X3.4154Y-3.4591
M16
G05
G00X3.3957Y-3.5591
M15
G01X3.4154Y-3.5591
M16
G05
G00X3.3957Y-3.6591
M15
G01X3.4154Y-3.6591
M16
G05
G00X3.3957Y-3.7591
M15
G01X3.4154Y-3.7591
M16
G05
G00X3.3957Y-3.8591
M15
G01X3.4154Y-3.8591
M16
G05
G00X3.3957Y-3.9591
M15
G01X3.4154Y-3.9591
M16
G05
G00X3.3957Y-4.0591
M15
G01X3.4154Y-4.0591
M16
G05
G00X3.3957Y-4.1591
M15
G01X3.4154Y-4.1591
M16
G05
G00X3.3957Y-4.2591
M15
G01X3.4154Y-4.2591
M16
G05
G00X3.3957Y-4.3591
M15
G01X3.4154Y-4.3591
M16
G05
G00X3.3957Y-4.4591
M15
G01X3.4154Y-4.4591
M16
G05
G00X3.3957Y-4.5591
M15
G01X3.4154Y-4.5591
M16
G05
G00X3.3957Y-4.6591
M15
G01X3.4154Y-4.6591
M16
G05
G00X3.3957Y-4.7591
M15
G01X3.4154Y-4.7591
M16
G05
G00X3.3957Y-4.8591
M15
G01X3.4154Y-4.8591
M16
G05
G00X3.3957Y-4.9591
M15
G01X3.4154Y-4.9591
M16
G05
G00X3.3957Y-5.0591
M15
G01X3.4154Y-5.0591
M16
G05
G00X3.3957Y-5.1591
M15
G01X3.4154Y-5.1591
M16
G05
G00X3.3957Y-5.2591
M15
G01X3.4154Y-5.2591
M16
G05
G00X3.3957Y-5.3591
M15
G01X3.4154Y-5.3591
M16
G05
G00X3.3957Y-5.4591
M15
G01X3.4154Y-5.4591
M16
G05
G00X3.3957Y-5.5591
M15
G01X3.4154Y-5.5591
M16
G05
G00X3.3957Y-5.6591
M15
G01X3.4154Y-5.6591
M16
G05
G00X3.3957Y-5.7591
M15
G01X3.4154Y-5.7591
M16
G05
G00X3.3957Y-5.8591
M15
G01X3.4154Y-5.8591
M16
G05
G00X3.3957Y-5.9591
M15
G01X3.4154Y-5.9591
M16
G05
G00X3.3957Y-6.0591
M15
G01X3.4154Y-6.0591
M16
G05
G00X3.3957Y-6.1591
M15
G01X3.4154Y-6.1591
M16
G05
G00X3.3957Y-6.2591
M15
G01X3.4154Y-6.2591
M16
G05
G00X3.3957Y-6.3591
M15
G01X3.4154Y-6.3591
M16
G05
G00X3.3957Y-6.4591
M15
G01X3.4154Y-6.4591
M16
G05
G00X3.3957Y-6.5591
M15
G01X3.4154Y-6.5591
M16
G05
G00X3.3957Y-6.6591
M15
G01X3.4154Y-6.6591
M16
G05
G00X3.3957Y-6.7591
M15
G01X3.4154Y-6.7591
M16
G05
G00X3.3957Y-6.8591
M15
G01X3.4154Y-6.8591
M16
G05
M30
