G04 #@! TF.GenerationSoftware,KiCad,Pcbnew,9.0.1+1*
G04 #@! TF.CreationDate,2025-11-12T15:35:08+00:00*
G04 #@! TF.ProjectId,te0725-carrier,74653037-3235-42d6-9361-72726965722e,rev?*
G04 #@! TF.SameCoordinates,Original*
G04 #@! TF.FileFunction,Legend,Bot*
G04 #@! TF.FilePolarity,Positive*
%FSLAX46Y46*%
G04 Gerber Fmt 4.6, Leading zero omitted, Abs format (unit mm)*
G04 Created by KiCad (PCBNEW 9.0.1+1) date 2025-11-12 15:35:08*
%MOMM*%
%LPD*%
G01*
G04 APERTURE LIST*
%ADD10C,0.100000*%
%ADD11C,0.050000*%
%ADD12R,2.540000X2.000000*%
%ADD13R,1.700000X1.700000*%
%ADD14C,1.700000*%
G04 APERTURE END LIST*
D10*
X66452380Y-44606895D02*
X66452380Y-43806895D01*
X66452380Y-43806895D02*
X66147618Y-43806895D01*
X66147618Y-43806895D02*
X66071428Y-43844990D01*
X66071428Y-43844990D02*
X66033333Y-43883085D01*
X66033333Y-43883085D02*
X65995237Y-43959276D01*
X65995237Y-43959276D02*
X65995237Y-44073561D01*
X65995237Y-44073561D02*
X66033333Y-44149752D01*
X66033333Y-44149752D02*
X66071428Y-44187847D01*
X66071428Y-44187847D02*
X66147618Y-44225942D01*
X66147618Y-44225942D02*
X66452380Y-44225942D01*
X65195237Y-44606895D02*
X65461904Y-44225942D01*
X65652380Y-44606895D02*
X65652380Y-43806895D01*
X65652380Y-43806895D02*
X65347618Y-43806895D01*
X65347618Y-43806895D02*
X65271428Y-43844990D01*
X65271428Y-43844990D02*
X65233333Y-43883085D01*
X65233333Y-43883085D02*
X65195237Y-43959276D01*
X65195237Y-43959276D02*
X65195237Y-44073561D01*
X65195237Y-44073561D02*
X65233333Y-44149752D01*
X65233333Y-44149752D02*
X65271428Y-44187847D01*
X65271428Y-44187847D02*
X65347618Y-44225942D01*
X65347618Y-44225942D02*
X65652380Y-44225942D01*
X64699999Y-44225942D02*
X64699999Y-44606895D01*
X64966666Y-43806895D02*
X64699999Y-44225942D01*
X64699999Y-44225942D02*
X64433333Y-43806895D01*
X66452380Y-175086895D02*
X66452380Y-174286895D01*
X66452380Y-174286895D02*
X66147618Y-174286895D01*
X66147618Y-174286895D02*
X66071428Y-174324990D01*
X66071428Y-174324990D02*
X66033333Y-174363085D01*
X66033333Y-174363085D02*
X65995237Y-174439276D01*
X65995237Y-174439276D02*
X65995237Y-174553561D01*
X65995237Y-174553561D02*
X66033333Y-174629752D01*
X66033333Y-174629752D02*
X66071428Y-174667847D01*
X66071428Y-174667847D02*
X66147618Y-174705942D01*
X66147618Y-174705942D02*
X66452380Y-174705942D01*
X65195237Y-175086895D02*
X65461904Y-174705942D01*
X65652380Y-175086895D02*
X65652380Y-174286895D01*
X65652380Y-174286895D02*
X65347618Y-174286895D01*
X65347618Y-174286895D02*
X65271428Y-174324990D01*
X65271428Y-174324990D02*
X65233333Y-174363085D01*
X65233333Y-174363085D02*
X65195237Y-174439276D01*
X65195237Y-174439276D02*
X65195237Y-174553561D01*
X65195237Y-174553561D02*
X65233333Y-174629752D01*
X65233333Y-174629752D02*
X65271428Y-174667847D01*
X65271428Y-174667847D02*
X65347618Y-174705942D01*
X65347618Y-174705942D02*
X65652380Y-174705942D01*
X64699999Y-174705942D02*
X64699999Y-175086895D01*
X64966666Y-174286895D02*
X64699999Y-174705942D01*
X64699999Y-174705942D02*
X64433333Y-174286895D01*
D11*
X44500000Y-173090000D02*
X86500000Y-173090000D01*
X86500000Y-45810000D01*
X44500000Y-45810000D01*
X44500000Y-173090000D01*
D10*
X63515759Y-44959000D02*
X67519516Y-44959000D01*
X67519516Y-43490000D01*
X63515759Y-43490000D01*
X63515759Y-44959000D01*
X63515759Y-173941000D02*
X67519516Y-173941000D01*
X67519516Y-175410000D01*
X63515759Y-175410000D01*
X63515759Y-173941000D01*
%LPC*%
D12*
X44500000Y-44680000D03*
X44500000Y-49760000D03*
X44500000Y-52300000D03*
X44500000Y-54840000D03*
X44500000Y-57380000D03*
X44500000Y-59920000D03*
X44500000Y-62460000D03*
X44500000Y-65000000D03*
X44500000Y-67540000D03*
X44500000Y-70080000D03*
X44500000Y-72620000D03*
X44500000Y-75160000D03*
X44500000Y-77700000D03*
X44500000Y-80240000D03*
X44500000Y-82780000D03*
X44500000Y-85320000D03*
X44500000Y-87860000D03*
X44500000Y-90400000D03*
X44500000Y-92940000D03*
X44500000Y-95480000D03*
X44500000Y-98020000D03*
X44500000Y-100560000D03*
X44500000Y-103100000D03*
X44500000Y-105640000D03*
X44500000Y-108180000D03*
X44500000Y-110720000D03*
X44500000Y-113260000D03*
X44500000Y-115800000D03*
X44500000Y-118340000D03*
X44500000Y-120880000D03*
X44500000Y-123420000D03*
X44500000Y-125960000D03*
X44500000Y-128500000D03*
X44500000Y-131040000D03*
X44500000Y-133580000D03*
X44500000Y-136120000D03*
X44500000Y-138660000D03*
X44500000Y-141200000D03*
X44500000Y-143740000D03*
X44500000Y-146280000D03*
X44500000Y-148820000D03*
X44500000Y-151360000D03*
X44500000Y-153900000D03*
X44500000Y-156440000D03*
X44500000Y-158980000D03*
X44500000Y-161520000D03*
X44500000Y-164060000D03*
X44500000Y-166600000D03*
X44500000Y-169140000D03*
X44500000Y-171680000D03*
X44500000Y-174220000D03*
X86500000Y-44680000D03*
X86500000Y-47220000D03*
X86500000Y-49760000D03*
X86500000Y-52300000D03*
X86500000Y-54840000D03*
X86500000Y-57380000D03*
X86500000Y-59920000D03*
X86500000Y-62460000D03*
X86500000Y-65000000D03*
X86500000Y-67540000D03*
X86500000Y-70080000D03*
X86500000Y-72620000D03*
X86500000Y-75160000D03*
X86500000Y-77700000D03*
X86500000Y-80240000D03*
X86500000Y-82780000D03*
X86500000Y-85320000D03*
X86500000Y-87860000D03*
X86500000Y-90400000D03*
X86500000Y-92940000D03*
X86500000Y-95480000D03*
X86500000Y-98020000D03*
X86500000Y-100560000D03*
X86500000Y-103100000D03*
X86500000Y-105640000D03*
X86500000Y-108180000D03*
X86500000Y-110720000D03*
X86500000Y-113260000D03*
X86500000Y-115800000D03*
X86500000Y-118340000D03*
X86500000Y-120880000D03*
X86500000Y-123420000D03*
X86500000Y-125960000D03*
X86500000Y-128500000D03*
X86500000Y-131040000D03*
X86500000Y-133580000D03*
X86500000Y-136120000D03*
X86500000Y-138660000D03*
X86500000Y-141200000D03*
X86500000Y-143740000D03*
X86500000Y-146280000D03*
X86500000Y-148820000D03*
X86500000Y-151360000D03*
X86500000Y-153900000D03*
X86500000Y-156440000D03*
X86500000Y-158980000D03*
X86500000Y-161520000D03*
X86500000Y-164060000D03*
X86500000Y-166600000D03*
X86500000Y-169140000D03*
X86500000Y-171680000D03*
X86500000Y-174220000D03*
D13*
X50000000Y-50000000D03*
D14*
X52540000Y-50000000D03*
X50000000Y-52540000D03*
X52540000Y-52540000D03*
X50000000Y-55080000D03*
X52540000Y-55080000D03*
X50000000Y-57620000D03*
X52540000Y-57620000D03*
X50000000Y-60160000D03*
X52540000Y-60160000D03*
X50000000Y-62700000D03*
X52540000Y-62700000D03*
X50000000Y-65240000D03*
X52540000Y-65240000D03*
X50000000Y-67780000D03*
X52540000Y-67780000D03*
X50000000Y-70320000D03*
X52540000Y-70320000D03*
X50000000Y-72860000D03*
X52540000Y-72860000D03*
X50000000Y-75400000D03*
X52540000Y-75400000D03*
X50000000Y-77940000D03*
X52540000Y-77940000D03*
X50000000Y-80480000D03*
X52540000Y-80480000D03*
X50000000Y-83020000D03*
X52540000Y-83020000D03*
X50000000Y-85560000D03*
X52540000Y-85560000D03*
X50000000Y-88100000D03*
X52540000Y-88100000D03*
X50000000Y-90640000D03*
X52540000Y-90640000D03*
X50000000Y-93180000D03*
X52540000Y-93180000D03*
X50000000Y-95720000D03*
X52540000Y-95720000D03*
X50000000Y-98260000D03*
X52540000Y-98260000D03*
X50000000Y-100800000D03*
X52540000Y-100800000D03*
X50000000Y-103340000D03*
X52540000Y-103340000D03*
X50000000Y-105880000D03*
X52540000Y-105880000D03*
X50000000Y-108420000D03*
X52540000Y-108420000D03*
X50000000Y-110960000D03*
X52540000Y-110960000D03*
D13*
X77940000Y-57620000D03*
D14*
X80480000Y-57620000D03*
X77940000Y-60160000D03*
X80480000Y-60160000D03*
X77940000Y-62700000D03*
X80480000Y-62700000D03*
X77940000Y-65240000D03*
X80480000Y-65240000D03*
X77940000Y-67780000D03*
X80480000Y-67780000D03*
X77940000Y-70320000D03*
X80480000Y-70320000D03*
X77940000Y-72860000D03*
X80480000Y-72860000D03*
X77940000Y-75400000D03*
X80480000Y-75400000D03*
X77940000Y-77940000D03*
X80480000Y-77940000D03*
X77940000Y-80480000D03*
X80480000Y-80480000D03*
X77940000Y-83020000D03*
X80480000Y-83020000D03*
X77940000Y-85560000D03*
X80480000Y-85560000D03*
X77940000Y-88100000D03*
X80480000Y-88100000D03*
X77940000Y-90640000D03*
X80480000Y-90640000D03*
X77940000Y-93180000D03*
X80480000Y-93180000D03*
X77940000Y-95720000D03*
X80480000Y-95720000D03*
X77940000Y-98260000D03*
X80480000Y-98260000D03*
X77940000Y-100800000D03*
X80480000Y-100800000D03*
X77940000Y-103340000D03*
X80480000Y-103340000D03*
X77940000Y-105880000D03*
X80480000Y-105880000D03*
X77940000Y-108420000D03*
X80480000Y-108420000D03*
X77940000Y-110960000D03*
X80480000Y-110960000D03*
X77940000Y-113500000D03*
X80480000Y-113500000D03*
X77940000Y-116040000D03*
X80480000Y-116040000D03*
X77940000Y-118580000D03*
X80480000Y-118580000D03*
%LPD*%
M02*
