G04 #@! TF.GenerationSoftware,KiCad,Pcbnew,9.0.1+1*
G04 #@! TF.CreationDate,2025-11-11T08:29:36+00:00*
G04 #@! TF.ProjectId,lora,6c6f7261-2e6b-4696-9361-645f70636258,rev?*
G04 #@! TF.SameCoordinates,Original*
G04 #@! TF.FileFunction,Legend,Top*
G04 #@! TF.FilePolarity,Positive*
%FSLAX46Y46*%
G04 Gerber Fmt 4.6, Leading zero omitted, Abs format (unit mm)*
G04 Created by KiCad (PCBNEW 9.0.1+1) date 2025-11-11 08:29:36*
%MOMM*%
%LPD*%
G01*
G04 APERTURE LIST*
%ADD10C,0.150000*%
%ADD11C,0.120000*%
G04 APERTURE END LIST*
D10*
X100608333Y-79319580D02*
X100560714Y-79367200D01*
X100560714Y-79367200D02*
X100417857Y-79414819D01*
X100417857Y-79414819D02*
X100322619Y-79414819D01*
X100322619Y-79414819D02*
X100179762Y-79367200D01*
X100179762Y-79367200D02*
X100084524Y-79271961D01*
X100084524Y-79271961D02*
X100036905Y-79176723D01*
X100036905Y-79176723D02*
X99989286Y-78986247D01*
X99989286Y-78986247D02*
X99989286Y-78843390D01*
X99989286Y-78843390D02*
X100036905Y-78652914D01*
X100036905Y-78652914D02*
X100084524Y-78557676D01*
X100084524Y-78557676D02*
X100179762Y-78462438D01*
X100179762Y-78462438D02*
X100322619Y-78414819D01*
X100322619Y-78414819D02*
X100417857Y-78414819D01*
X100417857Y-78414819D02*
X100560714Y-78462438D01*
X100560714Y-78462438D02*
X100608333Y-78510057D01*
X101465476Y-78748152D02*
X101465476Y-79414819D01*
X101227381Y-78367200D02*
X100989286Y-79081485D01*
X100989286Y-79081485D02*
X101608333Y-79081485D01*
X100608333Y-74299580D02*
X100560714Y-74347200D01*
X100560714Y-74347200D02*
X100417857Y-74394819D01*
X100417857Y-74394819D02*
X100322619Y-74394819D01*
X100322619Y-74394819D02*
X100179762Y-74347200D01*
X100179762Y-74347200D02*
X100084524Y-74251961D01*
X100084524Y-74251961D02*
X100036905Y-74156723D01*
X100036905Y-74156723D02*
X99989286Y-73966247D01*
X99989286Y-73966247D02*
X99989286Y-73823390D01*
X99989286Y-73823390D02*
X100036905Y-73632914D01*
X100036905Y-73632914D02*
X100084524Y-73537676D01*
X100084524Y-73537676D02*
X100179762Y-73442438D01*
X100179762Y-73442438D02*
X100322619Y-73394819D01*
X100322619Y-73394819D02*
X100417857Y-73394819D01*
X100417857Y-73394819D02*
X100560714Y-73442438D01*
X100560714Y-73442438D02*
X100608333Y-73490057D01*
X100989286Y-73490057D02*
X101036905Y-73442438D01*
X101036905Y-73442438D02*
X101132143Y-73394819D01*
X101132143Y-73394819D02*
X101370238Y-73394819D01*
X101370238Y-73394819D02*
X101465476Y-73442438D01*
X101465476Y-73442438D02*
X101513095Y-73490057D01*
X101513095Y-73490057D02*
X101560714Y-73585295D01*
X101560714Y-73585295D02*
X101560714Y-73680533D01*
X101560714Y-73680533D02*
X101513095Y-73823390D01*
X101513095Y-73823390D02*
X100941667Y-74394819D01*
X100941667Y-74394819D02*
X101560714Y-74394819D01*
X88233095Y-70655819D02*
X88233095Y-71465342D01*
X88233095Y-71465342D02*
X88280714Y-71560580D01*
X88280714Y-71560580D02*
X88328333Y-71608200D01*
X88328333Y-71608200D02*
X88423571Y-71655819D01*
X88423571Y-71655819D02*
X88614047Y-71655819D01*
X88614047Y-71655819D02*
X88709285Y-71608200D01*
X88709285Y-71608200D02*
X88756904Y-71560580D01*
X88756904Y-71560580D02*
X88804523Y-71465342D01*
X88804523Y-71465342D02*
X88804523Y-70655819D01*
X89804523Y-71655819D02*
X89233095Y-71655819D01*
X89518809Y-71655819D02*
X89518809Y-70655819D01*
X89518809Y-70655819D02*
X89423571Y-70798676D01*
X89423571Y-70798676D02*
X89328333Y-70893914D01*
X89328333Y-70893914D02*
X89233095Y-70941533D01*
X100608333Y-71789580D02*
X100560714Y-71837200D01*
X100560714Y-71837200D02*
X100417857Y-71884819D01*
X100417857Y-71884819D02*
X100322619Y-71884819D01*
X100322619Y-71884819D02*
X100179762Y-71837200D01*
X100179762Y-71837200D02*
X100084524Y-71741961D01*
X100084524Y-71741961D02*
X100036905Y-71646723D01*
X100036905Y-71646723D02*
X99989286Y-71456247D01*
X99989286Y-71456247D02*
X99989286Y-71313390D01*
X99989286Y-71313390D02*
X100036905Y-71122914D01*
X100036905Y-71122914D02*
X100084524Y-71027676D01*
X100084524Y-71027676D02*
X100179762Y-70932438D01*
X100179762Y-70932438D02*
X100322619Y-70884819D01*
X100322619Y-70884819D02*
X100417857Y-70884819D01*
X100417857Y-70884819D02*
X100560714Y-70932438D01*
X100560714Y-70932438D02*
X100608333Y-70980057D01*
X101560714Y-71884819D02*
X100989286Y-71884819D01*
X101275000Y-71884819D02*
X101275000Y-70884819D01*
X101275000Y-70884819D02*
X101179762Y-71027676D01*
X101179762Y-71027676D02*
X101084524Y-71122914D01*
X101084524Y-71122914D02*
X100989286Y-71170533D01*
X100608333Y-81924819D02*
X100275000Y-81448628D01*
X100036905Y-81924819D02*
X100036905Y-80924819D01*
X100036905Y-80924819D02*
X100417857Y-80924819D01*
X100417857Y-80924819D02*
X100513095Y-80972438D01*
X100513095Y-80972438D02*
X100560714Y-81020057D01*
X100560714Y-81020057D02*
X100608333Y-81115295D01*
X100608333Y-81115295D02*
X100608333Y-81258152D01*
X100608333Y-81258152D02*
X100560714Y-81353390D01*
X100560714Y-81353390D02*
X100513095Y-81401009D01*
X100513095Y-81401009D02*
X100417857Y-81448628D01*
X100417857Y-81448628D02*
X100036905Y-81448628D01*
X101560714Y-81924819D02*
X100989286Y-81924819D01*
X101275000Y-81924819D02*
X101275000Y-80924819D01*
X101275000Y-80924819D02*
X101179762Y-81067676D01*
X101179762Y-81067676D02*
X101084524Y-81162914D01*
X101084524Y-81162914D02*
X100989286Y-81210533D01*
X100608333Y-76809580D02*
X100560714Y-76857200D01*
X100560714Y-76857200D02*
X100417857Y-76904819D01*
X100417857Y-76904819D02*
X100322619Y-76904819D01*
X100322619Y-76904819D02*
X100179762Y-76857200D01*
X100179762Y-76857200D02*
X100084524Y-76761961D01*
X100084524Y-76761961D02*
X100036905Y-76666723D01*
X100036905Y-76666723D02*
X99989286Y-76476247D01*
X99989286Y-76476247D02*
X99989286Y-76333390D01*
X99989286Y-76333390D02*
X100036905Y-76142914D01*
X100036905Y-76142914D02*
X100084524Y-76047676D01*
X100084524Y-76047676D02*
X100179762Y-75952438D01*
X100179762Y-75952438D02*
X100322619Y-75904819D01*
X100322619Y-75904819D02*
X100417857Y-75904819D01*
X100417857Y-75904819D02*
X100560714Y-75952438D01*
X100560714Y-75952438D02*
X100608333Y-76000057D01*
X100941667Y-75904819D02*
X101560714Y-75904819D01*
X101560714Y-75904819D02*
X101227381Y-76285771D01*
X101227381Y-76285771D02*
X101370238Y-76285771D01*
X101370238Y-76285771D02*
X101465476Y-76333390D01*
X101465476Y-76333390D02*
X101513095Y-76381009D01*
X101513095Y-76381009D02*
X101560714Y-76476247D01*
X101560714Y-76476247D02*
X101560714Y-76714342D01*
X101560714Y-76714342D02*
X101513095Y-76809580D01*
X101513095Y-76809580D02*
X101465476Y-76857200D01*
X101465476Y-76857200D02*
X101370238Y-76904819D01*
X101370238Y-76904819D02*
X101084524Y-76904819D01*
X101084524Y-76904819D02*
X100989286Y-76857200D01*
X100989286Y-76857200D02*
X100941667Y-76809580D01*
D11*
X100634420Y-79880000D02*
X100915580Y-79880000D01*
X100634420Y-80900000D02*
X100915580Y-80900000D01*
X100634420Y-74860000D02*
X100915580Y-74860000D01*
X100634420Y-75880000D02*
X100915580Y-75880000D01*
X80895000Y-72301000D02*
X97095000Y-72301000D01*
X80895000Y-88101000D02*
X80895000Y-88501000D01*
X80895000Y-88501000D02*
X97095000Y-88501000D01*
X97095000Y-72301000D02*
X97095000Y-72701000D01*
X97095000Y-88501000D02*
X97095000Y-88101000D01*
X80395000Y-72501000D02*
X80155000Y-72165000D01*
X80635000Y-72165000D01*
X80395000Y-72501000D01*
G36*
X80395000Y-72501000D02*
G01*
X80155000Y-72165000D01*
X80635000Y-72165000D01*
X80395000Y-72501000D01*
G37*
X100634420Y-72350000D02*
X100915580Y-72350000D01*
X100634420Y-73370000D02*
X100915580Y-73370000D01*
X100537742Y-82377500D02*
X101012258Y-82377500D01*
X100537742Y-83422500D02*
X101012258Y-83422500D01*
X100634420Y-77370000D02*
X100915580Y-77370000D01*
X100634420Y-78390000D02*
X100915580Y-78390000D01*
%LPC*%
G36*
G01*
X99550000Y-80640000D02*
X99550000Y-80140000D01*
G75*
G02*
X99775000Y-79915000I225000J0D01*
G01*
X100225000Y-79915000D01*
G75*
G02*
X100450000Y-80140000I0J-225000D01*
G01*
X100450000Y-80640000D01*
G75*
G02*
X100225000Y-80865000I-225000J0D01*
G01*
X99775000Y-80865000D01*
G75*
G02*
X99550000Y-80640000I0J225000D01*
G01*
G37*
G36*
G01*
X101100000Y-80640000D02*
X101100000Y-80140000D01*
G75*
G02*
X101325000Y-79915000I225000J0D01*
G01*
X101775000Y-79915000D01*
G75*
G02*
X102000000Y-80140000I0J-225000D01*
G01*
X102000000Y-80640000D01*
G75*
G02*
X101775000Y-80865000I-225000J0D01*
G01*
X101325000Y-80865000D01*
G75*
G02*
X101100000Y-80640000I0J225000D01*
G01*
G37*
G36*
G01*
X99550000Y-75620000D02*
X99550000Y-75120000D01*
G75*
G02*
X99775000Y-74895000I225000J0D01*
G01*
X100225000Y-74895000D01*
G75*
G02*
X100450000Y-75120000I0J-225000D01*
G01*
X100450000Y-75620000D01*
G75*
G02*
X100225000Y-75845000I-225000J0D01*
G01*
X99775000Y-75845000D01*
G75*
G02*
X99550000Y-75620000I0J225000D01*
G01*
G37*
G36*
G01*
X101100000Y-75620000D02*
X101100000Y-75120000D01*
G75*
G02*
X101325000Y-74895000I225000J0D01*
G01*
X101775000Y-74895000D01*
G75*
G02*
X102000000Y-75120000I0J-225000D01*
G01*
X102000000Y-75620000D01*
G75*
G02*
X101775000Y-75845000I-225000J0D01*
G01*
X101325000Y-75845000D01*
G75*
G02*
X101100000Y-75620000I0J225000D01*
G01*
G37*
G36*
G01*
X79995000Y-73718500D02*
X79995000Y-73083500D01*
G75*
G02*
X80312500Y-72766000I317500J0D01*
G01*
X82627500Y-72766000D01*
G75*
G02*
X82945000Y-73083500I0J-317500D01*
G01*
X82945000Y-73718500D01*
G75*
G02*
X82627500Y-74036000I-317500J0D01*
G01*
X80312500Y-74036000D01*
G75*
G02*
X79995000Y-73718500I0J317500D01*
G01*
G37*
G36*
G01*
X79995000Y-75718500D02*
X79995000Y-75083500D01*
G75*
G02*
X80312500Y-74766000I317500J0D01*
G01*
X82627500Y-74766000D01*
G75*
G02*
X82945000Y-75083500I0J-317500D01*
G01*
X82945000Y-75718500D01*
G75*
G02*
X82627500Y-76036000I-317500J0D01*
G01*
X80312500Y-76036000D01*
G75*
G02*
X79995000Y-75718500I0J317500D01*
G01*
G37*
G36*
G01*
X79995000Y-77718500D02*
X79995000Y-77083500D01*
G75*
G02*
X80312500Y-76766000I317500J0D01*
G01*
X82627500Y-76766000D01*
G75*
G02*
X82945000Y-77083500I0J-317500D01*
G01*
X82945000Y-77718500D01*
G75*
G02*
X82627500Y-78036000I-317500J0D01*
G01*
X80312500Y-78036000D01*
G75*
G02*
X79995000Y-77718500I0J317500D01*
G01*
G37*
G36*
G01*
X79995000Y-79718500D02*
X79995000Y-79083500D01*
G75*
G02*
X80312500Y-78766000I317500J0D01*
G01*
X82627500Y-78766000D01*
G75*
G02*
X82945000Y-79083500I0J-317500D01*
G01*
X82945000Y-79718500D01*
G75*
G02*
X82627500Y-80036000I-317500J0D01*
G01*
X80312500Y-80036000D01*
G75*
G02*
X79995000Y-79718500I0J317500D01*
G01*
G37*
G36*
G01*
X79995000Y-81718500D02*
X79995000Y-81083500D01*
G75*
G02*
X80312500Y-80766000I317500J0D01*
G01*
X82627500Y-80766000D01*
G75*
G02*
X82945000Y-81083500I0J-317500D01*
G01*
X82945000Y-81718500D01*
G75*
G02*
X82627500Y-82036000I-317500J0D01*
G01*
X80312500Y-82036000D01*
G75*
G02*
X79995000Y-81718500I0J317500D01*
G01*
G37*
G36*
G01*
X79995000Y-83718500D02*
X79995000Y-83083500D01*
G75*
G02*
X80312500Y-82766000I317500J0D01*
G01*
X82627500Y-82766000D01*
G75*
G02*
X82945000Y-83083500I0J-317500D01*
G01*
X82945000Y-83718500D01*
G75*
G02*
X82627500Y-84036000I-317500J0D01*
G01*
X80312500Y-84036000D01*
G75*
G02*
X79995000Y-83718500I0J317500D01*
G01*
G37*
G36*
G01*
X79995000Y-85718500D02*
X79995000Y-85083500D01*
G75*
G02*
X80312500Y-84766000I317500J0D01*
G01*
X82627500Y-84766000D01*
G75*
G02*
X82945000Y-85083500I0J-317500D01*
G01*
X82945000Y-85718500D01*
G75*
G02*
X82627500Y-86036000I-317500J0D01*
G01*
X80312500Y-86036000D01*
G75*
G02*
X79995000Y-85718500I0J317500D01*
G01*
G37*
G36*
G01*
X79995000Y-87718500D02*
X79995000Y-87083500D01*
G75*
G02*
X80312500Y-86766000I317500J0D01*
G01*
X82627500Y-86766000D01*
G75*
G02*
X82945000Y-87083500I0J-317500D01*
G01*
X82945000Y-87718500D01*
G75*
G02*
X82627500Y-88036000I-317500J0D01*
G01*
X80312500Y-88036000D01*
G75*
G02*
X79995000Y-87718500I0J317500D01*
G01*
G37*
G36*
G01*
X95045000Y-87718500D02*
X95045000Y-87083500D01*
G75*
G02*
X95362500Y-86766000I317500J0D01*
G01*
X97677500Y-86766000D01*
G75*
G02*
X97995000Y-87083500I0J-317500D01*
G01*
X97995000Y-87718500D01*
G75*
G02*
X97677500Y-88036000I-317500J0D01*
G01*
X95362500Y-88036000D01*
G75*
G02*
X95045000Y-87718500I0J317500D01*
G01*
G37*
G36*
G01*
X95045000Y-85718500D02*
X95045000Y-85083500D01*
G75*
G02*
X95362500Y-84766000I317500J0D01*
G01*
X97677500Y-84766000D01*
G75*
G02*
X97995000Y-85083500I0J-317500D01*
G01*
X97995000Y-85718500D01*
G75*
G02*
X97677500Y-86036000I-317500J0D01*
G01*
X95362500Y-86036000D01*
G75*
G02*
X95045000Y-85718500I0J317500D01*
G01*
G37*
G36*
G01*
X95045000Y-83718500D02*
X95045000Y-83083500D01*
G75*
G02*
X95362500Y-82766000I317500J0D01*
G01*
X97677500Y-82766000D01*
G75*
G02*
X97995000Y-83083500I0J-317500D01*
G01*
X97995000Y-83718500D01*
G75*
G02*
X97677500Y-84036000I-317500J0D01*
G01*
X95362500Y-84036000D01*
G75*
G02*
X95045000Y-83718500I0J317500D01*
G01*
G37*
G36*
G01*
X95045000Y-81718500D02*
X95045000Y-81083500D01*
G75*
G02*
X95362500Y-80766000I317500J0D01*
G01*
X97677500Y-80766000D01*
G75*
G02*
X97995000Y-81083500I0J-317500D01*
G01*
X97995000Y-81718500D01*
G75*
G02*
X97677500Y-82036000I-317500J0D01*
G01*
X95362500Y-82036000D01*
G75*
G02*
X95045000Y-81718500I0J317500D01*
G01*
G37*
G36*
G01*
X95045000Y-79718500D02*
X95045000Y-79083500D01*
G75*
G02*
X95362500Y-78766000I317500J0D01*
G01*
X97677500Y-78766000D01*
G75*
G02*
X97995000Y-79083500I0J-317500D01*
G01*
X97995000Y-79718500D01*
G75*
G02*
X97677500Y-80036000I-317500J0D01*
G01*
X95362500Y-80036000D01*
G75*
G02*
X95045000Y-79718500I0J317500D01*
G01*
G37*
G36*
G01*
X95045000Y-77718500D02*
X95045000Y-77083500D01*
G75*
G02*
X95362500Y-76766000I317500J0D01*
G01*
X97677500Y-76766000D01*
G75*
G02*
X97995000Y-77083500I0J-317500D01*
G01*
X97995000Y-77718500D01*
G75*
G02*
X97677500Y-78036000I-317500J0D01*
G01*
X95362500Y-78036000D01*
G75*
G02*
X95045000Y-77718500I0J317500D01*
G01*
G37*
G36*
G01*
X95045000Y-75718500D02*
X95045000Y-75083500D01*
G75*
G02*
X95362500Y-74766000I317500J0D01*
G01*
X97677500Y-74766000D01*
G75*
G02*
X97995000Y-75083500I0J-317500D01*
G01*
X97995000Y-75718500D01*
G75*
G02*
X97677500Y-76036000I-317500J0D01*
G01*
X95362500Y-76036000D01*
G75*
G02*
X95045000Y-75718500I0J317500D01*
G01*
G37*
G36*
G01*
X95045000Y-73718500D02*
X95045000Y-73083500D01*
G75*
G02*
X95362500Y-72766000I317500J0D01*
G01*
X97677500Y-72766000D01*
G75*
G02*
X97995000Y-73083500I0J-317500D01*
G01*
X97995000Y-73718500D01*
G75*
G02*
X97677500Y-74036000I-317500J0D01*
G01*
X95362500Y-74036000D01*
G75*
G02*
X95045000Y-73718500I0J317500D01*
G01*
G37*
G36*
G01*
X99550000Y-73110000D02*
X99550000Y-72610000D01*
G75*
G02*
X99775000Y-72385000I225000J0D01*
G01*
X100225000Y-72385000D01*
G75*
G02*
X100450000Y-72610000I0J-225000D01*
G01*
X100450000Y-73110000D01*
G75*
G02*
X100225000Y-73335000I-225000J0D01*
G01*
X99775000Y-73335000D01*
G75*
G02*
X99550000Y-73110000I0J225000D01*
G01*
G37*
G36*
G01*
X101100000Y-73110000D02*
X101100000Y-72610000D01*
G75*
G02*
X101325000Y-72385000I225000J0D01*
G01*
X101775000Y-72385000D01*
G75*
G02*
X102000000Y-72610000I0J-225000D01*
G01*
X102000000Y-73110000D01*
G75*
G02*
X101775000Y-73335000I-225000J0D01*
G01*
X101325000Y-73335000D01*
G75*
G02*
X101100000Y-73110000I0J225000D01*
G01*
G37*
G36*
G01*
X99550000Y-83175000D02*
X99550000Y-82625000D01*
G75*
G02*
X99750000Y-82425000I200000J0D01*
G01*
X100150000Y-82425000D01*
G75*
G02*
X100350000Y-82625000I0J-200000D01*
G01*
X100350000Y-83175000D01*
G75*
G02*
X100150000Y-83375000I-200000J0D01*
G01*
X99750000Y-83375000D01*
G75*
G02*
X99550000Y-83175000I0J200000D01*
G01*
G37*
G36*
G01*
X101200000Y-83175000D02*
X101200000Y-82625000D01*
G75*
G02*
X101400000Y-82425000I200000J0D01*
G01*
X101800000Y-82425000D01*
G75*
G02*
X102000000Y-82625000I0J-200000D01*
G01*
X102000000Y-83175000D01*
G75*
G02*
X101800000Y-83375000I-200000J0D01*
G01*
X101400000Y-83375000D01*
G75*
G02*
X101200000Y-83175000I0J200000D01*
G01*
G37*
G36*
G01*
X99550000Y-78130000D02*
X99550000Y-77630000D01*
G75*
G02*
X99775000Y-77405000I225000J0D01*
G01*
X100225000Y-77405000D01*
G75*
G02*
X100450000Y-77630000I0J-225000D01*
G01*
X100450000Y-78130000D01*
G75*
G02*
X100225000Y-78355000I-225000J0D01*
G01*
X99775000Y-78355000D01*
G75*
G02*
X99550000Y-78130000I0J225000D01*
G01*
G37*
G36*
G01*
X101100000Y-78130000D02*
X101100000Y-77630000D01*
G75*
G02*
X101325000Y-77405000I225000J0D01*
G01*
X101775000Y-77405000D01*
G75*
G02*
X102000000Y-77630000I0J-225000D01*
G01*
X102000000Y-78130000D01*
G75*
G02*
X101775000Y-78355000I-225000J0D01*
G01*
X101325000Y-78355000D01*
G75*
G02*
X101100000Y-78130000I0J225000D01*
G01*
G37*
%LPD*%
M02*
