M48
; DRILL file {KiCad 9.0.1+1} date 2025-11-12T15:12:11+0000
; FORMAT={-:-/ absolute / inch / decimal}
; #@! TF.CreationDate,2025-11-12T15:12:11+00:00
; #@! TF.GenerationSoftware,Kicad,Pcbnew,9.0.1+1
; #@! TF.FileFunction,Plated,1,2,PTH
FMAT,2
INCH
; #@! TA.AperFunction,Plated,PTH,ViaDrill
T1C0.0098
; #@! TA.AperFunction,Plated,PTH,ViaDrill
T2C0.0197
; #@! TA.AperFunction,Plated,PTH,ComponentDrill
T3C0.0295
; #@! TA.AperFunction,Plated,PTH,ComponentDrill
T4C0.0394
; #@! TA.AperFunction,Plated,PTH,ComponentDrill
T5C0.0591
%
G90
G05
T1
X6.4819Y-3.8909
X6.4909Y-4.2004
X6.4945Y-4.3949
X6.5031Y-4.489
X6.5055Y-4.5933
X6.5067Y-4.0846
X6.5291Y-4.7461
X6.5543Y-3.787
X6.5791Y-3.9902
X6.5957Y-4.2988
X6.6098Y-3.8524
X6.6157Y-4.4165
X6.6217Y-4.5898
X6.6276Y-4.5055
X6.6378Y-4.1996
X6.687Y-4.8472
X6.7669Y-4.5126
X6.7697Y-4.1106
X6.7728Y-4.2059
X6.7768Y-4.4114
X6.7811Y-4.3157
X6.7839Y-4.6024
X7.6193Y-3.9528
X7.6228Y-4.1724
X7.6264Y-4.0736
X7.6276Y-3.8598
X7.6299Y-3.7744
X7.6343Y-4.2823
X7.6917Y-3.6843
X7.7Y-3.778
X7.702Y-4.189
X7.7059Y-3.8756
X7.7177Y-4.0795
X7.7201Y-3.9764
X7.7949Y-4.1827
X7.8079Y-3.5894
X7.8114Y-3.7874
X7.8138Y-3.6831
X7.8161Y-3.8839
X7.8161Y-3.9882
T2
X6.4244Y-3.3406
X6.4945Y-3.1992
X6.6752Y-3.1445
X6.7878Y-3.8047
X6.7961Y-4.0102
X6.8154Y-3.4795
X7.4618Y-3.5543
X7.5161Y-3.1583
X7.6476Y-3.2961
X7.6543Y-3.5398
X7.7984Y-3.463
T3
X6.4185Y-3.137
X6.4185Y-3.237
X6.4185Y-3.537
X6.4185Y-3.637
X6.4185Y-3.737
X6.4185Y-3.837
X6.4185Y-3.937
X6.4185Y-4.037
X6.4185Y-4.137
X6.4185Y-4.237
X6.4185Y-4.337
X6.4185Y-4.437
X6.4185Y-4.537
X6.4185Y-4.637
X6.4185Y-4.937
X6.4185Y-5.037
X7.8594Y-3.137
X7.8594Y-3.237
X7.8594Y-3.537
X7.8594Y-3.637
X7.8594Y-3.737
X7.8594Y-3.837
X7.8594Y-3.937
X7.8594Y-4.037
X7.8594Y-4.137
X7.8594Y-4.237
X7.8594Y-4.337
X7.8594Y-4.437
X7.8594Y-4.537
X7.8594Y-4.637
X7.8594Y-4.937
X7.8594Y-5.037
T4
X6.7138Y-3.5563
X6.7138Y-3.6563
X6.7138Y-3.7563
X6.7138Y-3.8563
X6.7138Y-3.9563
X6.7138Y-4.0563
X6.7138Y-4.1563
X6.7138Y-4.2563
X6.7138Y-4.3563
X6.7138Y-4.4563
X6.7138Y-4.5563
X6.7138Y-4.6563
X7.5642Y-3.5563
X7.5642Y-3.6563
X7.5642Y-3.7563
X7.5642Y-3.8563
X7.5642Y-3.9563
X7.5642Y-4.0563
X7.5642Y-4.1563
X7.5642Y-4.2563
X7.5642Y-4.3563
X7.5642Y-4.4563
X7.5642Y-4.5563
X7.5642Y-4.6563
T5
G00X6.3417Y-3.137
M15
G01X6.3614Y-3.137
M16
G05
G00X6.3417Y-3.237
M15
G01X6.3614Y-3.237
M16
G05
G00X6.3417Y-3.537
M15
G01X6.3614Y-3.537
M16
G05
G00X6.3417Y-3.637
M15
G01X6.3614Y-3.637
M16
G05
G00X6.3417Y-3.737
M15
G01X6.3614Y-3.737
M16
G05
G00X6.3417Y-3.837
M15
G01X6.3614Y-3.837
M16
G05
G00X6.3417Y-3.937
M15
G01X6.3614Y-3.937
M16
G05
G00X6.3417Y-4.037
M15
G01X6.3614Y-4.037
M16
G05
G00X6.3417Y-4.137
M15
G01X6.3614Y-4.137
M16
G05
G00X6.3417Y-4.237
M15
G01X6.3614Y-4.237
M16
G05
G00X6.3417Y-4.337
M15
G01X6.3614Y-4.337
M16
G05
G00X6.3417Y-4.437
M15
G01X6.3614Y-4.437
M16
G05
G00X6.3417Y-4.537
M15
G01X6.3614Y-4.537
M16
G05
G00X6.3417Y-4.637
M15
G01X6.3614Y-4.637
M16
G05
G00X6.3417Y-4.937
M15
G01X6.3614Y-4.937
M16
G05
G00X6.3417Y-5.037
M15
G01X6.3614Y-5.037
M16
G05
G00X7.9165Y-3.137
M15
G01X7.9362Y-3.137
M16
G05
G00X7.9165Y-3.237
M15
G01X7.9362Y-3.237
M16
G05
G00X7.9165Y-3.537
M15
G01X7.9362Y-3.537
M16
G05
G00X7.9165Y-3.637
M15
G01X7.9362Y-3.637
M16
G05
G00X7.9165Y-3.737
M15
G01X7.9362Y-3.737
M16
G05
G00X7.9165Y-3.837
M15
G01X7.9362Y-3.837
M16
G05
G00X7.9165Y-3.937
M15
G01X7.9362Y-3.937
M16
G05
G00X7.9165Y-4.037
M15
G01X7.9362Y-4.037
M16
G05
G00X7.9165Y-4.137
M15
G01X7.9362Y-4.137
M16
G05
G00X7.9165Y-4.237
M15
G01X7.9362Y-4.237
M16
G05
G00X7.9165Y-4.337
M15
G01X7.9362Y-4.337
M16
G05
G00X7.9165Y-4.437
M15
G01X7.9362Y-4.437
M16
G05
G00X7.9165Y-4.537
M15
G01X7.9362Y-4.537
M16
G05
G00X7.9165Y-4.637
M15
G01X7.9362Y-4.637
M16
G05
G00X7.9165Y-4.937
M15
G01X7.9362Y-4.937
M16
G05
G00X7.9165Y-5.037
M15
G01X7.9362Y-5.037
M16
G05
M30
