M48
; DRILL file {KiCad 9.0.1+dfsg-1} date 2025-05-01T11:07:52+0200
; FORMAT={-:-/ absolute / metric / decimal}
; #@! TF.CreationDate,2025-05-01T11:07:52+02:00
; #@! TF.GenerationSoftware,Kicad,Pcbnew,9.0.1+dfsg-1
; #@! TF.FileFunction,Plated,1,2,PTH
FMAT,2
METRIC
; #@! TA.AperFunction,Plated,PTH,ViaDrill
T1C0.300
; #@! TA.AperFunction,Plated,PTH,ComponentDrill
T2C0.750
; #@! TA.AperFunction,Plated,PTH,ComponentDrill
T3C1.500
%
G90
G05
T1
X41.24Y-48.78
X41.24Y-53.29
X41.28Y-45.31
X41.4Y-40.31
X46.46Y-36.48
X52.98Y-36.12
X58.11Y-39.95
X58.11Y-52.74
X58.21Y-44.39
X58.21Y-48.1
T2
X41.828Y-28.27
X41.828Y-58.75
X58.428Y-28.27
X58.428Y-56.21
X58.428Y-58.75
T3
G00X39.878Y-28.27
M15
G01X40.378Y-28.27
M16
G05
G00X39.878Y-58.75
M15
G01X40.378Y-58.75
M16
G05
G00X59.878Y-28.27
M15
G01X60.378Y-28.27
M16
G05
G00X59.878Y-56.21
M15
G01X60.378Y-56.21
M16
G05
G00X59.878Y-58.75
M15
G01X60.378Y-58.75
M16
G05
M30
