%TF.GenerationSoftware,KiCad,Pcbnew,9.0.1+dfsg-1*%
%TF.CreationDate,2025-05-01T11:07:49+02:00*%
%TF.ProjectId,usb-c-power-in,7573622d-632d-4706-9f77-65722d696e2e,rev?*%
%TF.SameCoordinates,Original*%
%TF.FileFunction,Copper,L2,Bot*%
%TF.FilePolarity,Positive*%
%FSLAX46Y46*%
G04 Gerber Fmt 4.6, Leading zero omitted, Abs format (unit mm)*
G04 Created by KiCad (PCBNEW 9.0.1+dfsg-1) date 2025-05-01 11:07:49*
%MOMM*%
%LPD*%
G01*
G04 APERTURE LIST*
G04 Aperture macros list*
%AMRoundRect*
0 Rectangle with rounded corners*
0 $1 Rounding radius*
0 $2 $3 $4 $5 $6 $7 $8 $9 X,Y pos of 4 corners*
0 Add a 4 corners polygon primitive as box body*
4,1,4,$2,$3,$4,$5,$6,$7,$8,$9,$2,$3,0*
0 Add four circle primitives for the rounded corners*
1,1,$1+$1,$2,$3*
1,1,$1+$1,$4,$5*
1,1,$1+$1,$6,$7*
1,1,$1+$1,$8,$9*
0 Add four rect primitives between the rounded corners*
20,1,$1+$1,$2,$3,$4,$5,0*
20,1,$1+$1,$4,$5,$6,$7,0*
20,1,$1+$1,$6,$7,$8,$9,0*
20,1,$1+$1,$8,$9,$2,$3,0*%
G04 Aperture macros list end*
%TA.AperFunction,CastellatedPad*%
%ADD10R,2.540000X2.000000*%
%TD*%
%TA.AperFunction,ComponentPad*%
%ADD11RoundRect,0.250000X0.375000X0.375000X-0.375000X0.375000X-0.375000X-0.375000X0.375000X-0.375000X0*%
%TD*%
%TA.AperFunction,ViaPad*%
%ADD12C,0.600000*%
%TD*%
G04 APERTURE END LIST*
D10*
%TO.P,M1,1*%
%TO.N,unconnected-(M1-Pad1)*%
X40128000Y-28270200D03*
D11*
X41828000Y-28270200D03*
D10*
%TO.P,M1,13,GND*%
%TO.N,GND*%
X40128000Y-58750200D03*
D11*
X41828000Y-58750200D03*
%TO.P,M1,14*%
%TO.N,unconnected-(M1-Pad14)*%
X58428000Y-28270200D03*
D10*
X60128000Y-28270200D03*
D11*
%TO.P,M1,25*%
%TO.N,unconnected-(M1-Pad25)*%
X58428000Y-56210200D03*
D10*
X60128000Y-56210200D03*
D11*
%TO.P,M1,26*%
%TO.N,+20V*%
X58428000Y-58750200D03*
D10*
X60128000Y-58750200D03*
%TD*%
D12*
%TO.N,GND*%
X52980000Y-36120000D03*
X46460000Y-36480000D03*
X41240000Y-48780000D03*
X58110000Y-39950000D03*
X41400000Y-40310000D03*
X58210000Y-44390000D03*
X41240000Y-53290000D03*
X58210000Y-48100000D03*
X58110000Y-52740000D03*
X41280000Y-45310000D03*
%TD*%
%TA.AperFunction,Conductor*%
%TO.N,GND*%
G36*
X57607445Y-27520385D02*
G01*
X57653200Y-27573189D01*
X57663144Y-27642347D01*
X57653024Y-27673459D01*
X57653276Y-27673548D01*
X57605353Y-27810498D01*
X57605353Y-27810500D01*
X57602500Y-27840930D01*
X57602500Y-28699469D01*
X57605353Y-28729899D01*
X57605353Y-28729901D01*
X57650206Y-28858080D01*
X57650207Y-28858082D01*
X57730850Y-28967350D01*
X57840118Y-29047993D01*
X57882845Y-29062944D01*
X57968299Y-29092846D01*
X57998730Y-29095700D01*
X57998734Y-29095700D01*
X58533500Y-29095700D01*
X58600539Y-29115385D01*
X58646294Y-29168189D01*
X58657500Y-29219700D01*
X58657500Y-29289952D01*
X58669131Y-29348429D01*
X58669132Y-29348430D01*
X58713447Y-29414752D01*
X58779769Y-29459067D01*
X58779770Y-29459068D01*
X58838247Y-29470699D01*
X58838250Y-29470700D01*
X58838252Y-29470700D01*
X59503500Y-29470700D01*
X59570539Y-29490385D01*
X59616294Y-29543189D01*
X59627500Y-29594700D01*
X59627500Y-54885700D01*
X59607815Y-54952739D01*
X59555011Y-54998494D01*
X59503500Y-55009700D01*
X58838247Y-55009700D01*
X58779770Y-55021331D01*
X58779769Y-55021332D01*
X58713447Y-55065647D01*
X58669132Y-55131969D01*
X58669131Y-55131970D01*
X58657500Y-55190447D01*
X58657500Y-55260700D01*
X58637815Y-55327739D01*
X58585011Y-55373494D01*
X58533500Y-55384700D01*
X57998730Y-55384700D01*
X57968300Y-55387553D01*
X57968298Y-55387553D01*
X57840119Y-55432406D01*
X57840117Y-55432407D01*
X57730850Y-55513050D01*
X57650207Y-55622317D01*
X57650206Y-55622319D01*
X57605353Y-55750498D01*
X57605353Y-55750500D01*
X57602500Y-55780930D01*
X57602500Y-56639469D01*
X57605353Y-56669899D01*
X57605353Y-56669901D01*
X57650206Y-56798080D01*
X57650207Y-56798082D01*
X57730850Y-56907350D01*
X57840118Y-56987993D01*
X57882845Y-57002944D01*
X57968299Y-57032846D01*
X57998730Y-57035700D01*
X57998734Y-57035700D01*
X58533500Y-57035700D01*
X58600539Y-57055385D01*
X58646294Y-57108189D01*
X58657500Y-57159700D01*
X58657500Y-57229952D01*
X58669131Y-57288429D01*
X58669132Y-57288430D01*
X58713447Y-57354752D01*
X58746890Y-57377098D01*
X58791695Y-57430711D01*
X58800402Y-57500036D01*
X58770247Y-57563063D01*
X58746890Y-57583302D01*
X58713447Y-57605647D01*
X58669132Y-57671969D01*
X58669131Y-57671970D01*
X58657500Y-57730447D01*
X58657500Y-57800700D01*
X58637815Y-57867739D01*
X58585011Y-57913494D01*
X58533500Y-57924700D01*
X57998730Y-57924700D01*
X57968300Y-57927553D01*
X57968298Y-57927553D01*
X57840119Y-57972406D01*
X57840117Y-57972407D01*
X57730850Y-58053050D01*
X57650207Y-58162317D01*
X57650206Y-58162319D01*
X57605353Y-58290498D01*
X57605353Y-58290500D01*
X57602500Y-58320930D01*
X57602500Y-59179469D01*
X57605353Y-59209899D01*
X57605353Y-59209901D01*
X57653276Y-59346852D01*
X57651979Y-59347305D01*
X57663958Y-59406234D01*
X57638649Y-59471359D01*
X57582149Y-59512463D01*
X57540406Y-59519700D01*
X43034100Y-59519700D01*
X42967061Y-59500015D01*
X42921306Y-59447211D01*
X42911362Y-59378053D01*
X42916394Y-59356696D01*
X42942505Y-59277897D01*
X42942506Y-59277890D01*
X42952999Y-59175186D01*
X42952999Y-58325228D01*
X42952998Y-58325212D01*
X42942505Y-58222502D01*
X42887357Y-58056075D01*
X42882900Y-58048850D01*
X42203000Y-58728750D01*
X42203000Y-58700830D01*
X42177444Y-58605455D01*
X42128075Y-58519945D01*
X42058255Y-58450125D01*
X41972745Y-58400756D01*
X41877370Y-58375200D01*
X41849446Y-58375200D01*
X42529347Y-57695299D01*
X42522124Y-57690843D01*
X42522119Y-57690841D01*
X42355697Y-57635694D01*
X42355690Y-57635693D01*
X42252986Y-57625200D01*
X41971120Y-57625200D01*
X41904081Y-57605515D01*
X41858326Y-57552711D01*
X41854938Y-57544533D01*
X41841354Y-57508113D01*
X41841353Y-57508112D01*
X41790957Y-57440792D01*
X40960105Y-58271645D01*
X40856097Y-58167637D01*
X40733258Y-58085559D01*
X40628500Y-58042166D01*
X40628500Y-57947510D01*
X40648185Y-57880471D01*
X40664819Y-57859829D01*
X41274448Y-57250200D01*
X40752500Y-57250200D01*
X40685461Y-57230515D01*
X40639706Y-57177711D01*
X40628500Y-57126200D01*
X40628500Y-29594700D01*
X40648185Y-29527661D01*
X40700989Y-29481906D01*
X40752500Y-29470700D01*
X41417750Y-29470700D01*
X41417751Y-29470699D01*
X41432568Y-29467752D01*
X41476229Y-29459068D01*
X41476229Y-29459067D01*
X41476231Y-29459067D01*
X41542552Y-29414752D01*
X41586867Y-29348431D01*
X41586867Y-29348429D01*
X41586868Y-29348429D01*
X41598499Y-29289952D01*
X41598500Y-29289950D01*
X41598500Y-29219700D01*
X41618185Y-29152661D01*
X41670989Y-29106906D01*
X41722500Y-29095700D01*
X42257270Y-29095700D01*
X42287699Y-29092846D01*
X42287701Y-29092846D01*
X42351790Y-29070419D01*
X42415882Y-29047993D01*
X42525150Y-28967350D01*
X42605793Y-28858082D01*
X42628219Y-28793990D01*
X42650646Y-28729901D01*
X42650646Y-28729899D01*
X42653500Y-28699469D01*
X42653500Y-27840930D01*
X42650646Y-27810500D01*
X42650646Y-27810498D01*
X42602724Y-27673548D01*
X42604020Y-27673094D01*
X42592042Y-27614166D01*
X42617351Y-27549041D01*
X42673851Y-27507937D01*
X42715594Y-27500700D01*
X57540406Y-27500700D01*
X57607445Y-27520385D01*
G37*
%TD.AperFunction*%
%TD*%
M02*
