%TF.GenerationSoftware,KiCad,Pcbnew,9.0.1+dfsg-1*%
%TF.CreationDate,2025-05-01T11:07:49+02:00*%
%TF.ProjectId,usb-c-power-in,7573622d-632d-4706-9f77-65722d696e2e,rev?*%
%TF.SameCoordinates,Original*%
%TF.FileFunction,Copper,L1,Top*%
%TF.FilePolarity,Positive*%
%FSLAX46Y46*%
G04 Gerber Fmt 4.6, Leading zero omitted, Abs format (unit mm)*
G04 Created by KiCad (PCBNEW 9.0.1+dfsg-1) date 2025-05-01 11:07:49*
%MOMM*%
%LPD*%
G01*
G04 APERTURE LIST*
G04 Aperture macros list*
%AMRoundRect*
0 Rectangle with rounded corners*
0 $1 Rounding radius*
0 $2 $3 $4 $5 $6 $7 $8 $9 X,Y pos of 4 corners*
0 Add a 4 corners polygon primitive as box body*
4,1,4,$2,$3,$4,$5,$6,$7,$8,$9,$2,$3,0*
0 Add four circle primitives for the rounded corners*
1,1,$1+$1,$2,$3*
1,1,$1+$1,$4,$5*
1,1,$1+$1,$6,$7*
1,1,$1+$1,$8,$9*
0 Add four rect primitives between the rounded corners*
20,1,$1+$1,$2,$3,$4,$5,0*
20,1,$1+$1,$4,$5,$6,$7,0*
20,1,$1+$1,$6,$7,$8,$9,0*
20,1,$1+$1,$8,$9,$2,$3,0*%
G04 Aperture macros list end*
%TA.AperFunction,SMDPad,CuDef*%
%ADD10R,6.000000X15.000000*%
%TD*%
%TA.AperFunction,CastellatedPad*%
%ADD11R,2.540000X2.000000*%
%TD*%
%TA.AperFunction,ComponentPad*%
%ADD12RoundRect,0.250000X0.375000X0.375000X-0.375000X0.375000X-0.375000X-0.375000X0.375000X-0.375000X0*%
%TD*%
%TA.AperFunction,ViaPad*%
%ADD13C,0.600000*%
%TD*%
%TA.AperFunction,Conductor*%
%ADD14C,2.000000*%
%TD*%
G04 APERTURE END LIST*
D10*
%TO.P,J1,1,Pin_1*%
%TO.N,+20V*%
X53644800Y-47040800D03*
%TO.P,J1,2,Pin_2*%
%TO.N,GND*%
X46685200Y-47040800D03*
%TD*%
D11*
%TO.P,M1,1*%
%TO.N,unconnected-(M1-Pad1)*%
X40128000Y-28270200D03*
D12*
X41828000Y-28270200D03*
D11*
%TO.P,M1,13,GND*%
%TO.N,GND*%
X40128000Y-58750200D03*
D12*
X41828000Y-58750200D03*
%TO.P,M1,14*%
%TO.N,unconnected-(M1-Pad14)*%
X58428000Y-28270200D03*
D11*
X60128000Y-28270200D03*
D12*
%TO.P,M1,25*%
%TO.N,unconnected-(M1-Pad25)*%
X58428000Y-56210200D03*
D11*
X60128000Y-56210200D03*
D12*
%TO.P,M1,26*%
%TO.N,+20V*%
X58428000Y-58750200D03*
D11*
X60128000Y-58750200D03*
%TD*%
D13*
%TO.N,GND*%
X52980000Y-36120000D03*
X46460000Y-36480000D03*
X41240000Y-48780000D03*
X58110000Y-39950000D03*
X41400000Y-40310000D03*
X58210000Y-44390000D03*
X41240000Y-53290000D03*
X58210000Y-48100000D03*
X58110000Y-52740000D03*
X41280000Y-45310000D03*
%TD*%
D14*
%TO.N,+20V*%
X60128000Y-58750200D02*
X59788000Y-58410200D01*
X57013200Y-58410200D02*
X53670200Y-55067200D01*
X59788000Y-58410200D02*
X57013200Y-58410200D01*
X53670200Y-55067200D02*
X53670200Y-48133000D01*
%TO.N,GND*%
X46710600Y-48133000D02*
X46710600Y-55019400D01*
X46710600Y-55019400D02*
X43209800Y-58520200D01*
X43209800Y-58520200D02*
X41828000Y-58520200D01*
%TD*%
%TA.AperFunction,Conductor*%
%TO.N,GND*%
G36*
X57607445Y-27520385D02*
G01*
X57653200Y-27573189D01*
X57663144Y-27642347D01*
X57653024Y-27673459D01*
X57653276Y-27673548D01*
X57605353Y-27810498D01*
X57605353Y-27810500D01*
X57602500Y-27840930D01*
X57602500Y-28699469D01*
X57605353Y-28729899D01*
X57605353Y-28729901D01*
X57650206Y-28858080D01*
X57650207Y-28858082D01*
X57730850Y-28967350D01*
X57840118Y-29047993D01*
X57882845Y-29062944D01*
X57968299Y-29092846D01*
X57998730Y-29095700D01*
X57998734Y-29095700D01*
X58533500Y-29095700D01*
X58600539Y-29115385D01*
X58646294Y-29168189D01*
X58657500Y-29219700D01*
X58657500Y-29289952D01*
X58669131Y-29348429D01*
X58669132Y-29348430D01*
X58713447Y-29414752D01*
X58779769Y-29459067D01*
X58779770Y-29459068D01*
X58838247Y-29470699D01*
X58838250Y-29470700D01*
X58838252Y-29470700D01*
X59503500Y-29470700D01*
X59570539Y-29490385D01*
X59616294Y-29543189D01*
X59627500Y-29594700D01*
X59627500Y-54885700D01*
X59607815Y-54952739D01*
X59555011Y-54998494D01*
X59503500Y-55009700D01*
X58838247Y-55009700D01*
X58779770Y-55021331D01*
X58779769Y-55021332D01*
X58713447Y-55065647D01*
X58669132Y-55131969D01*
X58669131Y-55131970D01*
X58657500Y-55190447D01*
X58657500Y-55260700D01*
X58637815Y-55327739D01*
X58585011Y-55373494D01*
X58533500Y-55384700D01*
X57998730Y-55384700D01*
X57968300Y-55387553D01*
X57968298Y-55387553D01*
X57840119Y-55432406D01*
X57840117Y-55432407D01*
X57730850Y-55513050D01*
X57650207Y-55622317D01*
X57650206Y-55622319D01*
X57605353Y-55750498D01*
X57605353Y-55750500D01*
X57602500Y-55780930D01*
X57602500Y-56639469D01*
X57605353Y-56669899D01*
X57605353Y-56669901D01*
X57650206Y-56798080D01*
X57650207Y-56798082D01*
X57730850Y-56907350D01*
X57837323Y-56985930D01*
X57879573Y-57041577D01*
X57885032Y-57111233D01*
X57851965Y-57172783D01*
X57790871Y-57206684D01*
X57763689Y-57209700D01*
X57561825Y-57209700D01*
X57494786Y-57190015D01*
X57474144Y-57173381D01*
X55253745Y-54952981D01*
X55220260Y-54891658D01*
X55225244Y-54821966D01*
X55267116Y-54766033D01*
X55332580Y-54741616D01*
X55341426Y-54741300D01*
X56664550Y-54741300D01*
X56664551Y-54741299D01*
X56679368Y-54738352D01*
X56723029Y-54729668D01*
X56723029Y-54729667D01*
X56723031Y-54729667D01*
X56789352Y-54685352D01*
X56833667Y-54619031D01*
X56833667Y-54619029D01*
X56833668Y-54619029D01*
X56845299Y-54560552D01*
X56845300Y-54560550D01*
X56845300Y-39521049D01*
X56845299Y-39521047D01*
X56833668Y-39462570D01*
X56833667Y-39462569D01*
X56789352Y-39396247D01*
X56723030Y-39351932D01*
X56723029Y-39351931D01*
X56664552Y-39340300D01*
X56664548Y-39340300D01*
X50625052Y-39340300D01*
X50625047Y-39340300D01*
X50566570Y-39351931D01*
X50566569Y-39351932D01*
X50500247Y-39396247D01*
X50455932Y-39462569D01*
X50455931Y-39462570D01*
X50444300Y-39521047D01*
X50444300Y-54560552D01*
X50455931Y-54619029D01*
X50455932Y-54619030D01*
X50500247Y-54685352D01*
X50566569Y-54729667D01*
X50566570Y-54729668D01*
X50625047Y-54741299D01*
X50625050Y-54741300D01*
X50625052Y-54741300D01*
X52345700Y-54741300D01*
X52412739Y-54760985D01*
X52458494Y-54813789D01*
X52469700Y-54865300D01*
X52469700Y-55161686D01*
X52499259Y-55348318D01*
X52557654Y-55528036D01*
X52605693Y-55622317D01*
X52643440Y-55696399D01*
X52754510Y-55849274D01*
X52754511Y-55849275D01*
X52754512Y-55849276D01*
X56213256Y-59308019D01*
X56246741Y-59369342D01*
X56241757Y-59439034D01*
X56199885Y-59494967D01*
X56134421Y-59519384D01*
X56125575Y-59519700D01*
X43034100Y-59519700D01*
X42967061Y-59500015D01*
X42921306Y-59447211D01*
X42911362Y-59378053D01*
X42916394Y-59356696D01*
X42942505Y-59277897D01*
X42942506Y-59277890D01*
X42952999Y-59175186D01*
X42952999Y-58325228D01*
X42952998Y-58325212D01*
X42942505Y-58222502D01*
X42887357Y-58056075D01*
X42882900Y-58048850D01*
X42203000Y-58728750D01*
X42203000Y-58700830D01*
X42177444Y-58605455D01*
X42128075Y-58519945D01*
X42058255Y-58450125D01*
X41972745Y-58400756D01*
X41877370Y-58375200D01*
X41849446Y-58375200D01*
X42529347Y-57695299D01*
X42522124Y-57690843D01*
X42522119Y-57690841D01*
X42355697Y-57635694D01*
X42355690Y-57635693D01*
X42252986Y-57625200D01*
X41971120Y-57625200D01*
X41904081Y-57605515D01*
X41858326Y-57552711D01*
X41854938Y-57544533D01*
X41841354Y-57508113D01*
X41841353Y-57508112D01*
X41790957Y-57440792D01*
X40960105Y-58271645D01*
X40856097Y-58167637D01*
X40733258Y-58085559D01*
X40628500Y-58042166D01*
X40628500Y-57947510D01*
X40648185Y-57880471D01*
X40664819Y-57859829D01*
X41274448Y-57250200D01*
X40752500Y-57250200D01*
X40685461Y-57230515D01*
X40639706Y-57177711D01*
X40628500Y-57126200D01*
X40628500Y-54588644D01*
X43185200Y-54588644D01*
X43191601Y-54648172D01*
X43191603Y-54648179D01*
X43241845Y-54782886D01*
X43241849Y-54782893D01*
X43328009Y-54897987D01*
X43328012Y-54897990D01*
X43443106Y-54984150D01*
X43443113Y-54984154D01*
X43577820Y-55034396D01*
X43577827Y-55034398D01*
X43637355Y-55040799D01*
X43637372Y-55040800D01*
X46435200Y-55040800D01*
X46935200Y-55040800D01*
X49733028Y-55040800D01*
X49733044Y-55040799D01*
X49792572Y-55034398D01*
X49792579Y-55034396D01*
X49927286Y-54984154D01*
X49927293Y-54984150D01*
X50042387Y-54897990D01*
X50042390Y-54897987D01*
X50128550Y-54782893D01*
X50128554Y-54782886D01*
X50178796Y-54648179D01*
X50178798Y-54648172D01*
X50185199Y-54588644D01*
X50185200Y-54588627D01*
X50185200Y-47290800D01*
X46935200Y-47290800D01*
X46935200Y-55040800D01*
X46435200Y-55040800D01*
X46435200Y-47290800D01*
X43185200Y-47290800D01*
X43185200Y-54588644D01*
X40628500Y-54588644D01*
X40628500Y-39492955D01*
X43185200Y-39492955D01*
X43185200Y-46790800D01*
X46435200Y-46790800D01*
X46935200Y-46790800D01*
X50185200Y-46790800D01*
X50185200Y-39492972D01*
X50185199Y-39492955D01*
X50178798Y-39433427D01*
X50178796Y-39433420D01*
X50128554Y-39298713D01*
X50128550Y-39298706D01*
X50042390Y-39183612D01*
X50042387Y-39183609D01*
X49927293Y-39097449D01*
X49927286Y-39097445D01*
X49792579Y-39047203D01*
X49792572Y-39047201D01*
X49733044Y-39040800D01*
X46935200Y-39040800D01*
X46935200Y-46790800D01*
X46435200Y-46790800D01*
X46435200Y-39040800D01*
X43637355Y-39040800D01*
X43577827Y-39047201D01*
X43577820Y-39047203D01*
X43443113Y-39097445D01*
X43443106Y-39097449D01*
X43328012Y-39183609D01*
X43328009Y-39183612D01*
X43241849Y-39298706D01*
X43241845Y-39298713D01*
X43191603Y-39433420D01*
X43191601Y-39433427D01*
X43185200Y-39492955D01*
X40628500Y-39492955D01*
X40628500Y-29594700D01*
X40648185Y-29527661D01*
X40700989Y-29481906D01*
X40752500Y-29470700D01*
X41417750Y-29470700D01*
X41417751Y-29470699D01*
X41432568Y-29467752D01*
X41476229Y-29459068D01*
X41476229Y-29459067D01*
X41476231Y-29459067D01*
X41542552Y-29414752D01*
X41586867Y-29348431D01*
X41586867Y-29348429D01*
X41586868Y-29348429D01*
X41598499Y-29289952D01*
X41598500Y-29289950D01*
X41598500Y-29219700D01*
X41618185Y-29152661D01*
X41670989Y-29106906D01*
X41722500Y-29095700D01*
X42257270Y-29095700D01*
X42287699Y-29092846D01*
X42287701Y-29092846D01*
X42351790Y-29070419D01*
X42415882Y-29047993D01*
X42525150Y-28967350D01*
X42605793Y-28858082D01*
X42628219Y-28793990D01*
X42650646Y-28729901D01*
X42650646Y-28729899D01*
X42653500Y-28699469D01*
X42653500Y-27840930D01*
X42650646Y-27810500D01*
X42650646Y-27810498D01*
X42602724Y-27673548D01*
X42604020Y-27673094D01*
X42592042Y-27614166D01*
X42617351Y-27549041D01*
X42673851Y-27507937D01*
X42715594Y-27500700D01*
X57540406Y-27500700D01*
X57607445Y-27520385D01*
G37*
%TD.AperFunction*%
%TD*%
M02*
