%TF.GenerationSoftware,KiCad,Pcbnew,9.0.1+dfsg-1*%
%TF.CreationDate,2025-05-01T10:58:03+02:00*%
%TF.ProjectId,battery-connector,62617474-6572-4792-9d63-6f6e6e656374,rev?*%
%TF.SameCoordinates,Original*%
%TF.FileFunction,Legend,Top*%
%TF.FilePolarity,Positive*%
%FSLAX46Y46*%
G04 Gerber Fmt 4.6, Leading zero omitted, Abs format (unit mm)*
G04 Created by KiCad (PCBNEW 9.0.1+dfsg-1) date 2025-05-01 10:58:03*
%MOMM*%
%LPD*%
G01*
G04 APERTURE LIST*
%ADD10C,0.100000*%
%ADD11C,0.150000*%
%ADD12C,0.200000*%
%ADD13C,0.400000*%
G04 APERTURE END LIST*
D10*
X71931884Y-60959466D02*
X72693789Y-60959466D01*
X63295884Y-60959466D02*
X64057789Y-60959466D01*
X63676836Y-61340419D02*
X63676836Y-60578514D01*
D11*
X70386666Y-55644819D02*
X70386666Y-56359104D01*
X70386666Y-56359104D02*
X70339047Y-56501961D01*
X70339047Y-56501961D02*
X70243809Y-56597200D01*
X70243809Y-56597200D02*
X70100952Y-56644819D01*
X70100952Y-56644819D02*
X70005714Y-56644819D01*
X71386666Y-56644819D02*
X70815238Y-56644819D01*
X71100952Y-56644819D02*
X71100952Y-55644819D01*
X71100952Y-55644819D02*
X71005714Y-55787676D01*
X71005714Y-55787676D02*
X70910476Y-55882914D01*
X70910476Y-55882914D02*
X70815238Y-55930533D01*
D10*
X66899619Y-55806895D02*
X66899619Y-55006895D01*
X66899619Y-55006895D02*
X67204381Y-55006895D01*
X67204381Y-55006895D02*
X67280571Y-55044990D01*
X67280571Y-55044990D02*
X67318666Y-55083085D01*
X67318666Y-55083085D02*
X67356762Y-55159276D01*
X67356762Y-55159276D02*
X67356762Y-55273561D01*
X67356762Y-55273561D02*
X67318666Y-55349752D01*
X67318666Y-55349752D02*
X67280571Y-55387847D01*
X67280571Y-55387847D02*
X67204381Y-55425942D01*
X67204381Y-55425942D02*
X66899619Y-55425942D01*
X68156762Y-55806895D02*
X67890095Y-55425942D01*
X67699619Y-55806895D02*
X67699619Y-55006895D01*
X67699619Y-55006895D02*
X68004381Y-55006895D01*
X68004381Y-55006895D02*
X68080571Y-55044990D01*
X68080571Y-55044990D02*
X68118666Y-55083085D01*
X68118666Y-55083085D02*
X68156762Y-55159276D01*
X68156762Y-55159276D02*
X68156762Y-55273561D01*
X68156762Y-55273561D02*
X68118666Y-55349752D01*
X68118666Y-55349752D02*
X68080571Y-55387847D01*
X68080571Y-55387847D02*
X68004381Y-55425942D01*
X68004381Y-55425942D02*
X67699619Y-55425942D01*
X68652000Y-55425942D02*
X68652000Y-55806895D01*
X68385333Y-55006895D02*
X68652000Y-55425942D01*
X68652000Y-55425942D02*
X68918666Y-55006895D01*
X66899619Y-66906895D02*
X66899619Y-66106895D01*
X66899619Y-66106895D02*
X67204381Y-66106895D01*
X67204381Y-66106895D02*
X67280571Y-66144990D01*
X67280571Y-66144990D02*
X67318666Y-66183085D01*
X67318666Y-66183085D02*
X67356762Y-66259276D01*
X67356762Y-66259276D02*
X67356762Y-66373561D01*
X67356762Y-66373561D02*
X67318666Y-66449752D01*
X67318666Y-66449752D02*
X67280571Y-66487847D01*
X67280571Y-66487847D02*
X67204381Y-66525942D01*
X67204381Y-66525942D02*
X66899619Y-66525942D01*
X68156762Y-66906895D02*
X67890095Y-66525942D01*
X67699619Y-66906895D02*
X67699619Y-66106895D01*
X67699619Y-66106895D02*
X68004381Y-66106895D01*
X68004381Y-66106895D02*
X68080571Y-66144990D01*
X68080571Y-66144990D02*
X68118666Y-66183085D01*
X68118666Y-66183085D02*
X68156762Y-66259276D01*
X68156762Y-66259276D02*
X68156762Y-66373561D01*
X68156762Y-66373561D02*
X68118666Y-66449752D01*
X68118666Y-66449752D02*
X68080571Y-66487847D01*
X68080571Y-66487847D02*
X68004381Y-66525942D01*
X68004381Y-66525942D02*
X67699619Y-66525942D01*
X68652000Y-66525942D02*
X68652000Y-66906895D01*
X68385333Y-66106895D02*
X68652000Y-66525942D01*
X68652000Y-66525942D02*
X68918666Y-66106895D01*
D12*
%TO.C,J1*%
X65232000Y-57610000D02*
X70912000Y-57610000D01*
X65232000Y-64310000D02*
X65232000Y-57610000D01*
X70912000Y-57610000D02*
X70912000Y-64310000D01*
X70912000Y-64310000D02*
X65232000Y-64310000D01*
D13*
X65972000Y-59260000D02*
G75*
G02*
X65772000Y-59260000I-100000J0D01*
G01*
X65772000Y-59260000D02*
G75*
G02*
X65972000Y-59260000I100000J0D01*
G01*
%TO.C,M1*%
D10*
X69836241Y-56159000D02*
X65832484Y-56159000D01*
X65832484Y-54690000D01*
X69836241Y-54690000D01*
X69836241Y-56159000D01*
X69836241Y-65761000D02*
X65832484Y-65761000D01*
X65832484Y-67230000D01*
X69836241Y-67230000D01*
X69836241Y-65761000D01*
%TD*%
M02*
