G04 #@! TF.GenerationSoftware,KiCad,Pcbnew,9.0.1+1*
G04 #@! TF.CreationDate,2025-11-12T15:12:16+00:00*
G04 #@! TF.ProjectId,mems-microphone,6d656d73-2d6d-4696-9372-6f70686f6e65,rev?*
G04 #@! TF.SameCoordinates,Original*
G04 #@! TF.FileFunction,Soldermask,Top*
G04 #@! TF.FilePolarity,Negative*
%FSLAX46Y46*%
G04 Gerber Fmt 4.6, Leading zero omitted, Abs format (unit mm)*
G04 Created by KiCad (PCBNEW 9.0.1+1) date 2025-11-12 15:12:16*
%MOMM*%
%LPD*%
G01*
G04 APERTURE LIST*
%ADD10C,0.500000*%
%ADD11R,0.725000X0.522000*%
%ADD12R,2.540000X2.000000*%
G04 APERTURE END LIST*
D10*
X62527500Y-47408000D03*
D11*
X63365000Y-49482000D03*
X63365000Y-48660000D03*
G36*
X62291644Y-48185514D02*
G01*
X62144490Y-48124561D01*
X62012055Y-48036071D01*
X61899429Y-47923445D01*
X61810939Y-47791010D01*
X61749986Y-47643856D01*
X61718912Y-47487639D01*
X61718912Y-47328361D01*
X61749986Y-47172144D01*
X61810939Y-47024990D01*
X61899429Y-46892555D01*
X62012055Y-46779929D01*
X62144490Y-46691439D01*
X62291644Y-46630486D01*
X62447861Y-46599412D01*
X62495749Y-46599412D01*
X62498236Y-46598382D01*
X62556764Y-46598382D01*
X62559251Y-46599412D01*
X62607139Y-46599412D01*
X62763356Y-46630486D01*
X62910510Y-46691439D01*
X63042945Y-46779929D01*
X63155571Y-46892555D01*
X63244061Y-47024990D01*
X63305014Y-47172144D01*
X63336088Y-47328361D01*
X63336088Y-47475472D01*
X63040000Y-47475472D01*
X63040000Y-47340528D01*
X63005074Y-47210183D01*
X62937602Y-47093318D01*
X62842182Y-46997898D01*
X62725317Y-46930426D01*
X62594972Y-46895500D01*
X62460028Y-46895500D01*
X62329683Y-46930426D01*
X62212818Y-46997898D01*
X62117398Y-47093318D01*
X62049926Y-47210183D01*
X62015000Y-47340528D01*
X62015000Y-47475472D01*
X62049926Y-47605817D01*
X62117398Y-47722682D01*
X62212818Y-47818102D01*
X62329683Y-47885574D01*
X62460028Y-47920500D01*
X62594972Y-47920500D01*
X62725317Y-47885574D01*
X62842182Y-47818102D01*
X62937602Y-47722682D01*
X63005074Y-47605817D01*
X63040000Y-47475472D01*
X63336088Y-47475472D01*
X63336088Y-47487639D01*
X63305014Y-47643856D01*
X63244061Y-47791010D01*
X63155571Y-47923445D01*
X63042945Y-48036071D01*
X62910510Y-48124561D01*
X62763356Y-48185514D01*
X62607139Y-48216588D01*
X62447861Y-48216588D01*
X62291644Y-48185514D01*
G37*
X61690000Y-48660000D03*
X61690000Y-49482000D03*
G36*
G01*
X59820000Y-46490500D02*
X59270000Y-46490500D01*
G75*
G02*
X59070000Y-46290500I0J200000D01*
G01*
X59070000Y-45890500D01*
G75*
G02*
X59270000Y-45690500I200000J0D01*
G01*
X59820000Y-45690500D01*
G75*
G02*
X60020000Y-45890500I0J-200000D01*
G01*
X60020000Y-46290500D01*
G75*
G02*
X59820000Y-46490500I-200000J0D01*
G01*
G37*
G36*
G01*
X59820000Y-44840500D02*
X59270000Y-44840500D01*
G75*
G02*
X59070000Y-44640500I0J200000D01*
G01*
X59070000Y-44240500D01*
G75*
G02*
X59270000Y-44040500I200000J0D01*
G01*
X59820000Y-44040500D01*
G75*
G02*
X60020000Y-44240500I0J-200000D01*
G01*
X60020000Y-44640500D01*
G75*
G02*
X59820000Y-44840500I-200000J0D01*
G01*
G37*
G36*
G01*
X57820000Y-49380500D02*
X57820000Y-48830500D01*
G75*
G02*
X58020000Y-48630500I200000J0D01*
G01*
X58420000Y-48630500D01*
G75*
G02*
X58620000Y-48830500I0J-200000D01*
G01*
X58620000Y-49380500D01*
G75*
G02*
X58420000Y-49580500I-200000J0D01*
G01*
X58020000Y-49580500D01*
G75*
G02*
X57820000Y-49380500I0J200000D01*
G01*
G37*
G36*
G01*
X59470000Y-49380500D02*
X59470000Y-48830500D01*
G75*
G02*
X59670000Y-48630500I200000J0D01*
G01*
X60070000Y-48630500D01*
G75*
G02*
X60270000Y-48830500I0J-200000D01*
G01*
X60270000Y-49380500D01*
G75*
G02*
X60070000Y-49580500I-200000J0D01*
G01*
X59670000Y-49580500D01*
G75*
G02*
X59470000Y-49380500I0J200000D01*
G01*
G37*
G36*
G01*
X60595000Y-45575500D02*
X60595000Y-44275500D01*
G75*
G02*
X60845000Y-44025500I250000J0D01*
G01*
X61495000Y-44025500D01*
G75*
G02*
X61745000Y-44275500I0J-250000D01*
G01*
X61745000Y-45575500D01*
G75*
G02*
X61495000Y-45825500I-250000J0D01*
G01*
X60845000Y-45825500D01*
G75*
G02*
X60595000Y-45575500I0J250000D01*
G01*
G37*
G36*
G01*
X63545000Y-45575500D02*
X63545000Y-44275500D01*
G75*
G02*
X63795000Y-44025500I250000J0D01*
G01*
X64445000Y-44025500D01*
G75*
G02*
X64695000Y-44275500I0J-250000D01*
G01*
X64695000Y-45575500D01*
G75*
G02*
X64445000Y-45825500I-250000J0D01*
G01*
X63795000Y-45825500D01*
G75*
G02*
X63545000Y-45575500I0J250000D01*
G01*
G37*
G36*
G01*
X60280000Y-47280500D02*
X60280000Y-47830500D01*
G75*
G02*
X60080000Y-48030500I-200000J0D01*
G01*
X59680000Y-48030500D01*
G75*
G02*
X59480000Y-47830500I0J200000D01*
G01*
X59480000Y-47280500D01*
G75*
G02*
X59680000Y-47080500I200000J0D01*
G01*
X60080000Y-47080500D01*
G75*
G02*
X60280000Y-47280500I0J-200000D01*
G01*
G37*
G36*
G01*
X58630000Y-47280500D02*
X58630000Y-47830500D01*
G75*
G02*
X58430000Y-48030500I-200000J0D01*
G01*
X58030000Y-48030500D01*
G75*
G02*
X57830000Y-47830500I0J200000D01*
G01*
X57830000Y-47280500D01*
G75*
G02*
X58030000Y-47080500I200000J0D01*
G01*
X58430000Y-47080500D01*
G75*
G02*
X58630000Y-47280500I0J-200000D01*
G01*
G37*
D12*
X66845000Y-42090500D03*
G36*
G01*
X64520000Y-42465500D02*
X64520000Y-41715500D01*
G75*
G02*
X64770000Y-41465500I250000J0D01*
G01*
X65520000Y-41465500D01*
G75*
G02*
X65770000Y-41715500I0J-250000D01*
G01*
X65770000Y-42465500D01*
G75*
G02*
X65520000Y-42715500I-250000J0D01*
G01*
X64770000Y-42715500D01*
G75*
G02*
X64520000Y-42465500I0J250000D01*
G01*
G37*
X66845000Y-49710500D03*
G36*
G01*
X64520000Y-50085500D02*
X64520000Y-49335500D01*
G75*
G02*
X64770000Y-49085500I250000J0D01*
G01*
X65520000Y-49085500D01*
G75*
G02*
X65770000Y-49335500I0J-250000D01*
G01*
X65770000Y-50085500D01*
G75*
G02*
X65520000Y-50335500I-250000J0D01*
G01*
X64770000Y-50335500D01*
G75*
G02*
X64520000Y-50085500I0J250000D01*
G01*
G37*
X66845000Y-52250500D03*
G36*
G01*
X64520000Y-52625500D02*
X64520000Y-51875500D01*
G75*
G02*
X64770000Y-51625500I250000J0D01*
G01*
X65520000Y-51625500D01*
G75*
G02*
X65770000Y-51875500I0J-250000D01*
G01*
X65770000Y-52625500D01*
G75*
G02*
X65520000Y-52875500I-250000J0D01*
G01*
X64770000Y-52875500D01*
G75*
G02*
X64520000Y-52625500I0J250000D01*
G01*
G37*
G36*
G01*
X57920000Y-42465500D02*
X57920000Y-41715500D01*
G75*
G02*
X58170000Y-41465500I250000J0D01*
G01*
X58920000Y-41465500D01*
G75*
G02*
X59170000Y-41715500I0J-250000D01*
G01*
X59170000Y-42465500D01*
G75*
G02*
X58920000Y-42715500I-250000J0D01*
G01*
X58170000Y-42715500D01*
G75*
G02*
X57920000Y-42465500I0J250000D01*
G01*
G37*
X56845000Y-42090500D03*
G36*
G01*
X57920000Y-52625500D02*
X57920000Y-51875500D01*
G75*
G02*
X58170000Y-51625500I250000J0D01*
G01*
X58920000Y-51625500D01*
G75*
G02*
X59170000Y-51875500I0J-250000D01*
G01*
X59170000Y-52625500D01*
G75*
G02*
X58920000Y-52875500I-250000J0D01*
G01*
X58170000Y-52875500D01*
G75*
G02*
X57920000Y-52625500I0J250000D01*
G01*
G37*
X56845000Y-52250500D03*
M02*
