G04 #@! TF.GenerationSoftware,KiCad,Pcbnew,9.0.1+1*
G04 #@! TF.CreationDate,2025-11-12T15:12:16+00:00*
G04 #@! TF.ProjectId,mems-microphone,6d656d73-2d6d-4696-9372-6f70686f6e65,rev?*
G04 #@! TF.SameCoordinates,Original*
G04 #@! TF.FileFunction,Copper,L2,Bot*
G04 #@! TF.FilePolarity,Positive*
%FSLAX46Y46*%
G04 Gerber Fmt 4.6, Leading zero omitted, Abs format (unit mm)*
G04 Created by KiCad (PCBNEW 9.0.1+1) date 2025-11-12 15:12:16*
%MOMM*%
%LPD*%
G01*
G04 APERTURE LIST*
G04 #@! TA.AperFunction,CastellatedPad*
%ADD10R,2.540000X2.000000*%
G04 #@! TD*
G04 #@! TA.AperFunction,ViaPad*
%ADD11C,0.600000*%
G04 #@! TD*
G04 #@! TA.AperFunction,Conductor*
%ADD12C,0.200000*%
G04 #@! TD*
G04 APERTURE END LIST*
D10*
X66845000Y-42090500D03*
G04 #@! TA.AperFunction,ComponentPad*
G36*
G01*
X64520000Y-42465500D02*
X64520000Y-41715500D01*
G75*
G02*
X64770000Y-41465500I250000J0D01*
G01*
X65520000Y-41465500D01*
G75*
G02*
X65770000Y-41715500I0J-250000D01*
G01*
X65770000Y-42465500D01*
G75*
G02*
X65520000Y-42715500I-250000J0D01*
G01*
X64770000Y-42715500D01*
G75*
G02*
X64520000Y-42465500I0J250000D01*
G01*
G37*
G04 #@! TD.AperFunction*
X66845000Y-49710500D03*
G04 #@! TA.AperFunction,ComponentPad*
G36*
G01*
X64520000Y-50085500D02*
X64520000Y-49335500D01*
G75*
G02*
X64770000Y-49085500I250000J0D01*
G01*
X65520000Y-49085500D01*
G75*
G02*
X65770000Y-49335500I0J-250000D01*
G01*
X65770000Y-50085500D01*
G75*
G02*
X65520000Y-50335500I-250000J0D01*
G01*
X64770000Y-50335500D01*
G75*
G02*
X64520000Y-50085500I0J250000D01*
G01*
G37*
G04 #@! TD.AperFunction*
X66845000Y-52250500D03*
G04 #@! TA.AperFunction,ComponentPad*
G36*
G01*
X64520000Y-52625500D02*
X64520000Y-51875500D01*
G75*
G02*
X64770000Y-51625500I250000J0D01*
G01*
X65520000Y-51625500D01*
G75*
G02*
X65770000Y-51875500I0J-250000D01*
G01*
X65770000Y-52625500D01*
G75*
G02*
X65520000Y-52875500I-250000J0D01*
G01*
X64770000Y-52875500D01*
G75*
G02*
X64520000Y-52625500I0J250000D01*
G01*
G37*
G04 #@! TD.AperFunction*
G04 #@! TA.AperFunction,ComponentPad*
G36*
G01*
X57920000Y-42465500D02*
X57920000Y-41715500D01*
G75*
G02*
X58170000Y-41465500I250000J0D01*
G01*
X58920000Y-41465500D01*
G75*
G02*
X59170000Y-41715500I0J-250000D01*
G01*
X59170000Y-42465500D01*
G75*
G02*
X58920000Y-42715500I-250000J0D01*
G01*
X58170000Y-42715500D01*
G75*
G02*
X57920000Y-42465500I0J250000D01*
G01*
G37*
G04 #@! TD.AperFunction*
X56845000Y-42090500D03*
G04 #@! TA.AperFunction,ComponentPad*
G36*
G01*
X57920000Y-52625500D02*
X57920000Y-51875500D01*
G75*
G02*
X58170000Y-51625500I250000J0D01*
G01*
X58920000Y-51625500D01*
G75*
G02*
X59170000Y-51875500I0J-250000D01*
G01*
X59170000Y-52625500D01*
G75*
G02*
X58920000Y-52875500I-250000J0D01*
G01*
X58170000Y-52875500D01*
G75*
G02*
X57920000Y-52625500I0J250000D01*
G01*
G37*
G04 #@! TD.AperFunction*
X56845000Y-52250500D03*
D11*
X65715000Y-45535500D03*
X64115000Y-43905500D03*
X58595000Y-45115500D03*
X57775000Y-50645500D03*
X58115000Y-43625500D03*
X65225000Y-43555500D03*
X65135000Y-48175500D03*
X64035000Y-50685500D03*
X60395000Y-42815500D03*
X63755000Y-46745500D03*
X58735000Y-46105500D03*
D12*
X64505000Y-49070500D02*
X64505000Y-46455500D01*
X65145000Y-49710500D02*
X64505000Y-49070500D01*
X64505000Y-46455500D02*
X64155000Y-46105500D01*
X66895000Y-50005500D02*
X66325800Y-50005500D01*
X64155000Y-46105500D02*
X58735000Y-46105500D01*
G04 #@! TA.AperFunction,Conductor*
G36*
X64324445Y-41340685D02*
G01*
X64370200Y-41393489D01*
X64380144Y-41462647D01*
X64370024Y-41493759D01*
X64370276Y-41493848D01*
X64322353Y-41630798D01*
X64322353Y-41630800D01*
X64319500Y-41661230D01*
X64319500Y-42519769D01*
X64322353Y-42550199D01*
X64322353Y-42550201D01*
X64367206Y-42678380D01*
X64367207Y-42678382D01*
X64447850Y-42787650D01*
X64557118Y-42868293D01*
X64599845Y-42883244D01*
X64685299Y-42913146D01*
X64715730Y-42916000D01*
X64715734Y-42916000D01*
X65250500Y-42916000D01*
X65317539Y-42935685D01*
X65363294Y-42988489D01*
X65374500Y-43040000D01*
X65374500Y-43110252D01*
X65386131Y-43168729D01*
X65386132Y-43168730D01*
X65430447Y-43235052D01*
X65496769Y-43279367D01*
X65496770Y-43279368D01*
X65555247Y-43290999D01*
X65555250Y-43291000D01*
X65555252Y-43291000D01*
X66220500Y-43291000D01*
X66287539Y-43310685D01*
X66333294Y-43363489D01*
X66344500Y-43415000D01*
X66344500Y-45162051D01*
X66324815Y-45229090D01*
X66272011Y-45274845D01*
X66202853Y-45284789D01*
X66139297Y-45255764D01*
X66121306Y-45233976D01*
X66120448Y-45234635D01*
X66115502Y-45228189D01*
X66115500Y-45228186D01*
X66022314Y-45135000D01*
X65965250Y-45102054D01*
X65908187Y-45069108D01*
X65844539Y-45052054D01*
X65780892Y-45035000D01*
X65649108Y-45035000D01*
X65521812Y-45069108D01*
X65407686Y-45135000D01*
X65407683Y-45135002D01*
X65314502Y-45228183D01*
X65314500Y-45228186D01*
X65248608Y-45342312D01*
X65214500Y-45469608D01*
X65214500Y-45601391D01*
X65248608Y-45728687D01*
X65271699Y-45768681D01*
X65314500Y-45842814D01*
X65407686Y-45936000D01*
X65521814Y-46001892D01*
X65649108Y-46036000D01*
X65649110Y-46036000D01*
X65780890Y-46036000D01*
X65780892Y-46036000D01*
X65908186Y-46001892D01*
X66022314Y-45936000D01*
X66115500Y-45842814D01*
X66115504Y-45842806D01*
X66120448Y-45836365D01*
X66122534Y-45837966D01*
X66163674Y-45798735D01*
X66232280Y-45785509D01*
X66297147Y-45811473D01*
X66337678Y-45868385D01*
X66344500Y-45908948D01*
X66344500Y-48386000D01*
X66324815Y-48453039D01*
X66272011Y-48498794D01*
X66220500Y-48510000D01*
X65555247Y-48510000D01*
X65496770Y-48521631D01*
X65496769Y-48521632D01*
X65430447Y-48565947D01*
X65386132Y-48632269D01*
X65386131Y-48632270D01*
X65374500Y-48690747D01*
X65374500Y-48761000D01*
X65354815Y-48828039D01*
X65302011Y-48873794D01*
X65250500Y-48885000D01*
X64929500Y-48885000D01*
X64862461Y-48865315D01*
X64816706Y-48812511D01*
X64805500Y-48761000D01*
X64805500Y-46415940D01*
X64805499Y-46415936D01*
X64804662Y-46412813D01*
X64797350Y-46385521D01*
X64785022Y-46339512D01*
X64745460Y-46270989D01*
X64339511Y-45865040D01*
X64339510Y-45865039D01*
X64339507Y-45865037D01*
X64330065Y-45859586D01*
X64330064Y-45859586D01*
X64270991Y-45825480D01*
X64270990Y-45825479D01*
X64245513Y-45818652D01*
X64194562Y-45805000D01*
X64194560Y-45805000D01*
X59193676Y-45805000D01*
X59126637Y-45785315D01*
X59105995Y-45768681D01*
X59042316Y-45705002D01*
X59042314Y-45705000D01*
X58985250Y-45672054D01*
X58928187Y-45639108D01*
X58864539Y-45622054D01*
X58800892Y-45605000D01*
X58669108Y-45605000D01*
X58541812Y-45639108D01*
X58427686Y-45705000D01*
X58427683Y-45705002D01*
X58334502Y-45798183D01*
X58334500Y-45798186D01*
X58268608Y-45912312D01*
X58234500Y-46039608D01*
X58234500Y-46171391D01*
X58268608Y-46298687D01*
X58292178Y-46339510D01*
X58334500Y-46412814D01*
X58427686Y-46506000D01*
X58541814Y-46571892D01*
X58669108Y-46606000D01*
X58669110Y-46606000D01*
X58800890Y-46606000D01*
X58800892Y-46606000D01*
X58928186Y-46571892D01*
X59042314Y-46506000D01*
X59105995Y-46442319D01*
X59167318Y-46408834D01*
X59193676Y-46406000D01*
X63979167Y-46406000D01*
X64008607Y-46414644D01*
X64038594Y-46421168D01*
X64043609Y-46424922D01*
X64046206Y-46425685D01*
X64066848Y-46442319D01*
X64168181Y-46543652D01*
X64201666Y-46604975D01*
X64204500Y-46631333D01*
X64204500Y-49110062D01*
X64218152Y-49161013D01*
X64224979Y-49186490D01*
X64224980Y-49186491D01*
X64262109Y-49250801D01*
X64264540Y-49255011D01*
X64264542Y-49255014D01*
X64283179Y-49273650D01*
X64316666Y-49334972D01*
X64319500Y-49361333D01*
X64319500Y-50139769D01*
X64322353Y-50170199D01*
X64322353Y-50170201D01*
X64367206Y-50298380D01*
X64367207Y-50298382D01*
X64447850Y-50407650D01*
X64557118Y-50488293D01*
X64599845Y-50503244D01*
X64685299Y-50533146D01*
X64715730Y-50536000D01*
X64715734Y-50536000D01*
X65250500Y-50536000D01*
X65317539Y-50555685D01*
X65363294Y-50608489D01*
X65371451Y-50632669D01*
X65374500Y-50646162D01*
X65374500Y-50730248D01*
X65386133Y-50788731D01*
X65417232Y-50835273D01*
X65422302Y-50857709D01*
X65421711Y-50867011D01*
X65459886Y-50875316D01*
X65469341Y-50881040D01*
X65496769Y-50899367D01*
X65496771Y-50899367D01*
X65496772Y-50899368D01*
X65496770Y-50899368D01*
X65555247Y-50910999D01*
X65555250Y-50911000D01*
X65555252Y-50911000D01*
X65807690Y-50911000D01*
X65874729Y-50930685D01*
X65895371Y-50947319D01*
X66308181Y-51360129D01*
X66341666Y-51421452D01*
X66344500Y-51447810D01*
X66344500Y-51542466D01*
X66239742Y-51585859D01*
X66116903Y-51667937D01*
X66012894Y-51771945D01*
X65312778Y-51071829D01*
X65279293Y-51010506D01*
X65279661Y-51005358D01*
X65265053Y-50999000D01*
X65242800Y-50994346D01*
X65233630Y-50985322D01*
X65221834Y-50980188D01*
X65213670Y-50972721D01*
X65182041Y-50941092D01*
X65131647Y-51008410D01*
X65118061Y-51044835D01*
X65076189Y-51100768D01*
X65010724Y-51125184D01*
X65001880Y-51125500D01*
X64720029Y-51125500D01*
X64720012Y-51125501D01*
X64617302Y-51135994D01*
X64450878Y-51191142D01*
X64450873Y-51191144D01*
X64443651Y-51195598D01*
X64443650Y-51195599D01*
X65123551Y-51875500D01*
X65095630Y-51875500D01*
X65000255Y-51901056D01*
X64914745Y-51950425D01*
X64844925Y-52020245D01*
X64795556Y-52105755D01*
X64770000Y-52201130D01*
X64770000Y-52229051D01*
X64090099Y-51549150D01*
X64090098Y-51549151D01*
X64085644Y-51556373D01*
X64085642Y-51556377D01*
X64030494Y-51722802D01*
X64030493Y-51722809D01*
X64020000Y-51825513D01*
X64020000Y-52675471D01*
X64020001Y-52675487D01*
X64030493Y-52778195D01*
X64056606Y-52856995D01*
X64059008Y-52926824D01*
X64023277Y-52986866D01*
X63960756Y-53018059D01*
X63938900Y-53020000D01*
X59432594Y-53020000D01*
X59365555Y-53000315D01*
X59319800Y-52947511D01*
X59309856Y-52878353D01*
X59319975Y-52847240D01*
X59319724Y-52847152D01*
X59367646Y-52710201D01*
X59367646Y-52710199D01*
X59370500Y-52679769D01*
X59370500Y-51821230D01*
X59367646Y-51790800D01*
X59367646Y-51790798D01*
X59322793Y-51662619D01*
X59322792Y-51662617D01*
X59242150Y-51553350D01*
X59132882Y-51472707D01*
X59132880Y-51472706D01*
X59004700Y-51427853D01*
X58974270Y-51425000D01*
X58974266Y-51425000D01*
X58439500Y-51425000D01*
X58372461Y-51405315D01*
X58326706Y-51352511D01*
X58315500Y-51301000D01*
X58315500Y-51230749D01*
X58315499Y-51230747D01*
X58303868Y-51172270D01*
X58303867Y-51172269D01*
X58259552Y-51105947D01*
X58193230Y-51061632D01*
X58193229Y-51061631D01*
X58134752Y-51050000D01*
X58134748Y-51050000D01*
X57469500Y-51050000D01*
X57402461Y-51030315D01*
X57356706Y-50977511D01*
X57345500Y-50926000D01*
X57345500Y-47342108D01*
X62027000Y-47342108D01*
X62027000Y-47473891D01*
X62061108Y-47601187D01*
X62094054Y-47658250D01*
X62127000Y-47715314D01*
X62220186Y-47808500D01*
X62334314Y-47874392D01*
X62461608Y-47908500D01*
X62461610Y-47908500D01*
X62593390Y-47908500D01*
X62593392Y-47908500D01*
X62720686Y-47874392D01*
X62834814Y-47808500D01*
X62928000Y-47715314D01*
X62993892Y-47601186D01*
X63028000Y-47473892D01*
X63028000Y-47342108D01*
X62993892Y-47214814D01*
X62928000Y-47100686D01*
X62834814Y-47007500D01*
X62777750Y-46974554D01*
X62720687Y-46941608D01*
X62657039Y-46924554D01*
X62593392Y-46907500D01*
X62461608Y-46907500D01*
X62334312Y-46941608D01*
X62220186Y-47007500D01*
X62220183Y-47007502D01*
X62127002Y-47100683D01*
X62127000Y-47100686D01*
X62061108Y-47214812D01*
X62027000Y-47342108D01*
X57345500Y-47342108D01*
X57345500Y-43415000D01*
X57365185Y-43347961D01*
X57417989Y-43302206D01*
X57469500Y-43291000D01*
X58134750Y-43291000D01*
X58134751Y-43290999D01*
X58149568Y-43288052D01*
X58193229Y-43279368D01*
X58193229Y-43279367D01*
X58193231Y-43279367D01*
X58259552Y-43235052D01*
X58303867Y-43168731D01*
X58303867Y-43168729D01*
X58303868Y-43168729D01*
X58315499Y-43110252D01*
X58315500Y-43110250D01*
X58315500Y-43040000D01*
X58335185Y-42972961D01*
X58387989Y-42927206D01*
X58439500Y-42916000D01*
X58974270Y-42916000D01*
X59004699Y-42913146D01*
X59004701Y-42913146D01*
X59068790Y-42890719D01*
X59132882Y-42868293D01*
X59242150Y-42787650D01*
X59322793Y-42678382D01*
X59345219Y-42614290D01*
X59367646Y-42550201D01*
X59367646Y-42550199D01*
X59370500Y-42519769D01*
X59370500Y-41661230D01*
X59367646Y-41630800D01*
X59367646Y-41630798D01*
X59319724Y-41493848D01*
X59321020Y-41493394D01*
X59309042Y-41434466D01*
X59334351Y-41369341D01*
X59390851Y-41328237D01*
X59432594Y-41321000D01*
X64257406Y-41321000D01*
X64324445Y-41340685D01*
G37*
G04 #@! TD.AperFunction*
M02*
