M48
; DRILL file {KiCad 9.0.1+1} date 2025-11-11T08:29:39+0000
; FORMAT={-:-/ absolute / inch / decimal}
; #@! TF.CreationDate,2025-11-11T08:29:39+00:00
; #@! TF.GenerationSoftware,Kicad,Pcbnew,9.0.1+1
; #@! TF.FileFunction,Plated,1,2,PTH
FMAT,2
INCH
; #@! TA.AperFunction,Plated,PTH,ViaDrill
T1C0.0118
; #@! TA.AperFunction,Plated,PTH,ComponentDrill
T2C0.0295
; #@! TA.AperFunction,Plated,PTH,ComponentDrill
T3C0.0591
%
G90
G05
T1
X2.2746Y-1.9939
X2.288Y-1.7175
X2.3069Y-1.7762
X2.3124Y-1.8152
X2.3778Y-1.6856
X2.51Y-1.8404
X2.5211Y-1.9955
X2.5242Y-1.7286
X2.5644Y-1.8967
X2.5679Y-1.7148
X2.5872Y-1.7927
T2
X2.3049Y-1.6571
X2.3049Y-2.0571
X2.5648Y-1.6571
X2.5648Y-1.9571
X2.5648Y-2.0571
T3
G00X2.2478Y-1.6571
M15
G01X2.2281Y-1.6571
M16
G05
G00X2.2478Y-2.0571
M15
G01X2.2281Y-2.0571
M16
G05
G00X2.6415Y-1.6571
M15
G01X2.6219Y-1.6571
M16
G05
G00X2.6415Y-1.9571
M15
G01X2.6219Y-1.9571
M16
G05
G00X2.6415Y-2.0571
M15
G01X2.6219Y-2.0571
M16
G05
M30
