G04 #@! TF.GenerationSoftware,KiCad,Pcbnew,9.0.1+1*
G04 #@! TF.CreationDate,2025-11-12T15:34:59+00:00*
G04 #@! TF.ProjectId,mems-microphone,6d656d73-2d6d-4696-9372-6f70686f6e65,rev?*
G04 #@! TF.SameCoordinates,Original*
G04 #@! TF.FileFunction,Soldermask,Bot*
G04 #@! TF.FilePolarity,Negative*
%FSLAX46Y46*%
G04 Gerber Fmt 4.6, Leading zero omitted, Abs format (unit mm)*
G04 Created by KiCad (PCBNEW 9.0.1+1) date 2025-11-12 15:34:59*
%MOMM*%
%LPD*%
G01*
G04 APERTURE LIST*
%ADD10C,0.500000*%
%ADD11R,2.540000X2.000000*%
G04 APERTURE END LIST*
D10*
X62527500Y-47408000D03*
D11*
X66845000Y-42090500D03*
G36*
G01*
X64520000Y-42465500D02*
X64520000Y-41715500D01*
G75*
G02*
X64770000Y-41465500I250000J0D01*
G01*
X65520000Y-41465500D01*
G75*
G02*
X65770000Y-41715500I0J-250000D01*
G01*
X65770000Y-42465500D01*
G75*
G02*
X65520000Y-42715500I-250000J0D01*
G01*
X64770000Y-42715500D01*
G75*
G02*
X64520000Y-42465500I0J250000D01*
G01*
G37*
X66845000Y-49710500D03*
G36*
G01*
X64520000Y-50085500D02*
X64520000Y-49335500D01*
G75*
G02*
X64770000Y-49085500I250000J0D01*
G01*
X65520000Y-49085500D01*
G75*
G02*
X65770000Y-49335500I0J-250000D01*
G01*
X65770000Y-50085500D01*
G75*
G02*
X65520000Y-50335500I-250000J0D01*
G01*
X64770000Y-50335500D01*
G75*
G02*
X64520000Y-50085500I0J250000D01*
G01*
G37*
X66845000Y-52250500D03*
G36*
G01*
X64520000Y-52625500D02*
X64520000Y-51875500D01*
G75*
G02*
X64770000Y-51625500I250000J0D01*
G01*
X65520000Y-51625500D01*
G75*
G02*
X65770000Y-51875500I0J-250000D01*
G01*
X65770000Y-52625500D01*
G75*
G02*
X65520000Y-52875500I-250000J0D01*
G01*
X64770000Y-52875500D01*
G75*
G02*
X64520000Y-52625500I0J250000D01*
G01*
G37*
G36*
G01*
X57920000Y-42465500D02*
X57920000Y-41715500D01*
G75*
G02*
X58170000Y-41465500I250000J0D01*
G01*
X58920000Y-41465500D01*
G75*
G02*
X59170000Y-41715500I0J-250000D01*
G01*
X59170000Y-42465500D01*
G75*
G02*
X58920000Y-42715500I-250000J0D01*
G01*
X58170000Y-42715500D01*
G75*
G02*
X57920000Y-42465500I0J250000D01*
G01*
G37*
X56845000Y-42090500D03*
G36*
G01*
X57920000Y-52625500D02*
X57920000Y-51875500D01*
G75*
G02*
X58170000Y-51625500I250000J0D01*
G01*
X58920000Y-51625500D01*
G75*
G02*
X59170000Y-51875500I0J-250000D01*
G01*
X59170000Y-52625500D01*
G75*
G02*
X58920000Y-52875500I-250000J0D01*
G01*
X58170000Y-52875500D01*
G75*
G02*
X57920000Y-52625500I0J250000D01*
G01*
G37*
X56845000Y-52250500D03*
M02*
