G04 #@! TF.GenerationSoftware,KiCad,Pcbnew,9.0.1+1*
G04 #@! TF.CreationDate,2025-11-12T15:34:59+00:00*
G04 #@! TF.ProjectId,mems-microphone,6d656d73-2d6d-4696-9372-6f70686f6e65,rev?*
G04 #@! TF.SameCoordinates,Original*
G04 #@! TF.FileFunction,Legend,Bot*
G04 #@! TF.FilePolarity,Positive*
%FSLAX46Y46*%
G04 Gerber Fmt 4.6, Leading zero omitted, Abs format (unit mm)*
G04 Created by KiCad (PCBNEW 9.0.1+1) date 2025-11-12 15:34:59*
%MOMM*%
%LPD*%
G01*
G04 APERTURE LIST*
%ADD10C,0.100000*%
%ADD11C,0.500000*%
%ADD12R,2.540000X2.000000*%
G04 APERTURE END LIST*
D10*
X57282657Y-43731765D02*
X57235038Y-43779384D01*
X57235038Y-43779384D02*
X57187419Y-43874622D01*
X57187419Y-43874622D02*
X57187419Y-44112717D01*
X57187419Y-44112717D02*
X57235038Y-44207955D01*
X57235038Y-44207955D02*
X57282657Y-44255574D01*
X57282657Y-44255574D02*
X57377895Y-44303193D01*
X57377895Y-44303193D02*
X57473133Y-44303193D01*
X57473133Y-44303193D02*
X57615990Y-44255574D01*
X57615990Y-44255574D02*
X58187419Y-43684146D01*
X58187419Y-43684146D02*
X58187419Y-44303193D01*
X57187419Y-44922241D02*
X57187419Y-45017479D01*
X57187419Y-45017479D02*
X57235038Y-45112717D01*
X57235038Y-45112717D02*
X57282657Y-45160336D01*
X57282657Y-45160336D02*
X57377895Y-45207955D01*
X57377895Y-45207955D02*
X57568371Y-45255574D01*
X57568371Y-45255574D02*
X57806466Y-45255574D01*
X57806466Y-45255574D02*
X57996942Y-45207955D01*
X57996942Y-45207955D02*
X58092180Y-45160336D01*
X58092180Y-45160336D02*
X58139800Y-45112717D01*
X58139800Y-45112717D02*
X58187419Y-45017479D01*
X58187419Y-45017479D02*
X58187419Y-44922241D01*
X58187419Y-44922241D02*
X58139800Y-44827003D01*
X58139800Y-44827003D02*
X58092180Y-44779384D01*
X58092180Y-44779384D02*
X57996942Y-44731765D01*
X57996942Y-44731765D02*
X57806466Y-44684146D01*
X57806466Y-44684146D02*
X57568371Y-44684146D01*
X57568371Y-44684146D02*
X57377895Y-44731765D01*
X57377895Y-44731765D02*
X57282657Y-44779384D01*
X57282657Y-44779384D02*
X57235038Y-44827003D01*
X57235038Y-44827003D02*
X57187419Y-44922241D01*
X57282657Y-45636527D02*
X57235038Y-45684146D01*
X57235038Y-45684146D02*
X57187419Y-45779384D01*
X57187419Y-45779384D02*
X57187419Y-46017479D01*
X57187419Y-46017479D02*
X57235038Y-46112717D01*
X57235038Y-46112717D02*
X57282657Y-46160336D01*
X57282657Y-46160336D02*
X57377895Y-46207955D01*
X57377895Y-46207955D02*
X57473133Y-46207955D01*
X57473133Y-46207955D02*
X57615990Y-46160336D01*
X57615990Y-46160336D02*
X58187419Y-45588908D01*
X58187419Y-45588908D02*
X58187419Y-46207955D01*
X57187419Y-47112717D02*
X57187419Y-46636527D01*
X57187419Y-46636527D02*
X57663609Y-46588908D01*
X57663609Y-46588908D02*
X57615990Y-46636527D01*
X57615990Y-46636527D02*
X57568371Y-46731765D01*
X57568371Y-46731765D02*
X57568371Y-46969860D01*
X57568371Y-46969860D02*
X57615990Y-47065098D01*
X57615990Y-47065098D02*
X57663609Y-47112717D01*
X57663609Y-47112717D02*
X57758847Y-47160336D01*
X57758847Y-47160336D02*
X57996942Y-47160336D01*
X57996942Y-47160336D02*
X58092180Y-47112717D01*
X58092180Y-47112717D02*
X58139800Y-47065098D01*
X58139800Y-47065098D02*
X58187419Y-46969860D01*
X58187419Y-46969860D02*
X58187419Y-46731765D01*
X58187419Y-46731765D02*
X58139800Y-46636527D01*
X58139800Y-46636527D02*
X58092180Y-46588908D01*
X57187419Y-47779384D02*
X57187419Y-47874622D01*
X57187419Y-47874622D02*
X57235038Y-47969860D01*
X57235038Y-47969860D02*
X57282657Y-48017479D01*
X57282657Y-48017479D02*
X57377895Y-48065098D01*
X57377895Y-48065098D02*
X57568371Y-48112717D01*
X57568371Y-48112717D02*
X57806466Y-48112717D01*
X57806466Y-48112717D02*
X57996942Y-48065098D01*
X57996942Y-48065098D02*
X58092180Y-48017479D01*
X58092180Y-48017479D02*
X58139800Y-47969860D01*
X58139800Y-47969860D02*
X58187419Y-47874622D01*
X58187419Y-47874622D02*
X58187419Y-47779384D01*
X58187419Y-47779384D02*
X58139800Y-47684146D01*
X58139800Y-47684146D02*
X58092180Y-47636527D01*
X58092180Y-47636527D02*
X57996942Y-47588908D01*
X57996942Y-47588908D02*
X57806466Y-47541289D01*
X57806466Y-47541289D02*
X57568371Y-47541289D01*
X57568371Y-47541289D02*
X57377895Y-47588908D01*
X57377895Y-47588908D02*
X57282657Y-47636527D01*
X57282657Y-47636527D02*
X57235038Y-47684146D01*
X57235038Y-47684146D02*
X57187419Y-47779384D01*
X57282657Y-48493670D02*
X57235038Y-48541289D01*
X57235038Y-48541289D02*
X57187419Y-48636527D01*
X57187419Y-48636527D02*
X57187419Y-48874622D01*
X57187419Y-48874622D02*
X57235038Y-48969860D01*
X57235038Y-48969860D02*
X57282657Y-49017479D01*
X57282657Y-49017479D02*
X57377895Y-49065098D01*
X57377895Y-49065098D02*
X57473133Y-49065098D01*
X57473133Y-49065098D02*
X57615990Y-49017479D01*
X57615990Y-49017479D02*
X58187419Y-48446051D01*
X58187419Y-48446051D02*
X58187419Y-49065098D01*
X58187419Y-50017479D02*
X58187419Y-49446051D01*
X58187419Y-49731765D02*
X57187419Y-49731765D01*
X57187419Y-49731765D02*
X57330276Y-49636527D01*
X57330276Y-49636527D02*
X57425514Y-49541289D01*
X57425514Y-49541289D02*
X57473133Y-49446051D01*
X58187419Y-50969860D02*
X58187419Y-50398432D01*
X58187419Y-50684146D02*
X57187419Y-50684146D01*
X57187419Y-50684146D02*
X57330276Y-50588908D01*
X57330276Y-50588908D02*
X57425514Y-50493670D01*
X57425514Y-50493670D02*
X57473133Y-50398432D01*
X65251115Y-43907919D02*
X65251115Y-42907919D01*
X65251115Y-42907919D02*
X64917782Y-43622204D01*
X64917782Y-43622204D02*
X64584449Y-42907919D01*
X64584449Y-42907919D02*
X64584449Y-43907919D01*
X64108258Y-43384109D02*
X63774925Y-43384109D01*
X63632068Y-43907919D02*
X64108258Y-43907919D01*
X64108258Y-43907919D02*
X64108258Y-42907919D01*
X64108258Y-42907919D02*
X63632068Y-42907919D01*
X63203496Y-43907919D02*
X63203496Y-42907919D01*
X63203496Y-42907919D02*
X62870163Y-43622204D01*
X62870163Y-43622204D02*
X62536830Y-42907919D01*
X62536830Y-42907919D02*
X62536830Y-43907919D01*
X62108258Y-43860300D02*
X61965401Y-43907919D01*
X61965401Y-43907919D02*
X61727306Y-43907919D01*
X61727306Y-43907919D02*
X61632068Y-43860300D01*
X61632068Y-43860300D02*
X61584449Y-43812680D01*
X61584449Y-43812680D02*
X61536830Y-43717442D01*
X61536830Y-43717442D02*
X61536830Y-43622204D01*
X61536830Y-43622204D02*
X61584449Y-43526966D01*
X61584449Y-43526966D02*
X61632068Y-43479347D01*
X61632068Y-43479347D02*
X61727306Y-43431728D01*
X61727306Y-43431728D02*
X61917782Y-43384109D01*
X61917782Y-43384109D02*
X62013020Y-43336490D01*
X62013020Y-43336490D02*
X62060639Y-43288871D01*
X62060639Y-43288871D02*
X62108258Y-43193633D01*
X62108258Y-43193633D02*
X62108258Y-43098395D01*
X62108258Y-43098395D02*
X62060639Y-43003157D01*
X62060639Y-43003157D02*
X62013020Y-42955538D01*
X62013020Y-42955538D02*
X61917782Y-42907919D01*
X61917782Y-42907919D02*
X61679687Y-42907919D01*
X61679687Y-42907919D02*
X61536830Y-42955538D01*
X60346353Y-43907919D02*
X60346353Y-42907919D01*
X60346353Y-42907919D02*
X60013020Y-43622204D01*
X60013020Y-43622204D02*
X59679687Y-42907919D01*
X59679687Y-42907919D02*
X59679687Y-43907919D01*
X59203496Y-43907919D02*
X59203496Y-43241252D01*
X59203496Y-42907919D02*
X59251115Y-42955538D01*
X59251115Y-42955538D02*
X59203496Y-43003157D01*
X59203496Y-43003157D02*
X59155877Y-42955538D01*
X59155877Y-42955538D02*
X59203496Y-42907919D01*
X59203496Y-42907919D02*
X59203496Y-43003157D01*
X58298735Y-43860300D02*
X58393973Y-43907919D01*
X58393973Y-43907919D02*
X58584449Y-43907919D01*
X58584449Y-43907919D02*
X58679687Y-43860300D01*
X58679687Y-43860300D02*
X58727306Y-43812680D01*
X58727306Y-43812680D02*
X58774925Y-43717442D01*
X58774925Y-43717442D02*
X58774925Y-43431728D01*
X58774925Y-43431728D02*
X58727306Y-43336490D01*
X58727306Y-43336490D02*
X58679687Y-43288871D01*
X58679687Y-43288871D02*
X58584449Y-43241252D01*
X58584449Y-43241252D02*
X58393973Y-43241252D01*
X58393973Y-43241252D02*
X58298735Y-43288871D01*
X62636885Y-51822919D02*
X62636885Y-50822919D01*
X62636885Y-50822919D02*
X62303552Y-51537204D01*
X62303552Y-51537204D02*
X61970219Y-50822919D01*
X61970219Y-50822919D02*
X61970219Y-51822919D01*
X60970219Y-51822919D02*
X61541647Y-51822919D01*
X61255933Y-51822919D02*
X61255933Y-50822919D01*
X61255933Y-50822919D02*
X61351171Y-50965776D01*
X61351171Y-50965776D02*
X61446409Y-51061014D01*
X61446409Y-51061014D02*
X61541647Y-51108633D01*
%LPC*%
D11*
X62527500Y-47408000D03*
D12*
X66845000Y-42090500D03*
G36*
G01*
X64520000Y-42465500D02*
X64520000Y-41715500D01*
G75*
G02*
X64770000Y-41465500I250000J0D01*
G01*
X65520000Y-41465500D01*
G75*
G02*
X65770000Y-41715500I0J-250000D01*
G01*
X65770000Y-42465500D01*
G75*
G02*
X65520000Y-42715500I-250000J0D01*
G01*
X64770000Y-42715500D01*
G75*
G02*
X64520000Y-42465500I0J250000D01*
G01*
G37*
X66845000Y-49710500D03*
G36*
G01*
X64520000Y-50085500D02*
X64520000Y-49335500D01*
G75*
G02*
X64770000Y-49085500I250000J0D01*
G01*
X65520000Y-49085500D01*
G75*
G02*
X65770000Y-49335500I0J-250000D01*
G01*
X65770000Y-50085500D01*
G75*
G02*
X65520000Y-50335500I-250000J0D01*
G01*
X64770000Y-50335500D01*
G75*
G02*
X64520000Y-50085500I0J250000D01*
G01*
G37*
X66845000Y-52250500D03*
G36*
G01*
X64520000Y-52625500D02*
X64520000Y-51875500D01*
G75*
G02*
X64770000Y-51625500I250000J0D01*
G01*
X65520000Y-51625500D01*
G75*
G02*
X65770000Y-51875500I0J-250000D01*
G01*
X65770000Y-52625500D01*
G75*
G02*
X65520000Y-52875500I-250000J0D01*
G01*
X64770000Y-52875500D01*
G75*
G02*
X64520000Y-52625500I0J250000D01*
G01*
G37*
G36*
G01*
X57920000Y-42465500D02*
X57920000Y-41715500D01*
G75*
G02*
X58170000Y-41465500I250000J0D01*
G01*
X58920000Y-41465500D01*
G75*
G02*
X59170000Y-41715500I0J-250000D01*
G01*
X59170000Y-42465500D01*
G75*
G02*
X58920000Y-42715500I-250000J0D01*
G01*
X58170000Y-42715500D01*
G75*
G02*
X57920000Y-42465500I0J250000D01*
G01*
G37*
X56845000Y-42090500D03*
G36*
G01*
X57920000Y-52625500D02*
X57920000Y-51875500D01*
G75*
G02*
X58170000Y-51625500I250000J0D01*
G01*
X58920000Y-51625500D01*
G75*
G02*
X59170000Y-51875500I0J-250000D01*
G01*
X59170000Y-52625500D01*
G75*
G02*
X58920000Y-52875500I-250000J0D01*
G01*
X58170000Y-52875500D01*
G75*
G02*
X57920000Y-52625500I0J250000D01*
G01*
G37*
X56845000Y-52250500D03*
%LPD*%
M02*
